<?xml version="1.0"?>
<svg version="1.1" id="topsvg"
xmlns="http://www.w3.org/2000/svg" xmlns:xlink="http://www.w3.org/1999/xlink"
xmlns:cml="http://www.xml-cml.org/schema" x="0" y="0" width="200px" height="200px" viewBox="0 0 100 100">
<title> - Open Babel Depiction</title>
<rect x="0" y="0" width="100" height="100" fill="white"/>
<g transform="translate(0,0)">
<svg width="100" height="100" x="0" y="0" viewBox="0 0 383.662 460.262"
font-family="sans-serif" stroke="rgb(0,0,0)" stroke-width="2"  stroke-linecap="round">
<line x1="159.5" y1="137.5" x2="140.5" y2="170.3" stroke="rgb(0,0,0)"  stroke-width="2.0"/>
<line x1="102.9" y1="174.2" x2="86.3" y2="155.8" stroke="rgb(0,0,0)"  stroke-width="2.0"/>
<line x1="95.1" y1="211.2" x2="72.4" y2="221.3" stroke="rgb(0,0,0)"  stroke-width="2.0"/>
<line x1="127.8" y1="230.1" x2="131.8" y2="267.8" stroke="rgb(0,0,0)"  stroke-width="2.0"/>
<line x1="133.5" y1="270.2" x2="102.9" y2="292.4" stroke="rgb(0,0,0)"  stroke-width="2.0"/>
<line x1="130.0" y1="265.3" x2="99.4" y2="287.6" stroke="rgb(0,0,0)"  stroke-width="2.0"/>
<line x1="101.2" y1="290.0" x2="105.1" y2="327.6" stroke="rgb(0,0,0)"  stroke-width="2.0"/>
<line x1="77.0" y1="352.9" x2="52.7" y2="347.8" stroke="rgb(0,0,0)"  stroke-width="2.0"/>
<line x1="92.4" y1="387.5" x2="80.0" y2="409.0" stroke="rgb(0,0,0)"  stroke-width="2.0"/>
<line x1="130.0" y1="383.5" x2="146.6" y2="402.0" stroke="rgb(0,0,0)"  stroke-width="2.0"/>
<line x1="232.8" y1="152.1" x2="235.4" y2="176.8" stroke="rgb(0,0,0)"  stroke-width="2.0"/>
<line x1="226.9" y1="152.8" x2="229.5" y2="177.5" stroke="rgb(0,0,0)"  stroke-width="2.0"/>
<line x1="270.7" y1="129.8" x2="295.0" y2="135.0" stroke="rgb(0,0,0)"  stroke-width="2.0"/>
<line x1="292.7" y1="133.0" x2="309.4" y2="114.6" stroke="rgb(0,0,0)"  stroke-width="2.0"/>
<line x1="297.2" y1="137.0" x2="313.8" y2="118.6" stroke="rgb(0,0,0)"  stroke-width="2.0"/>
<line x1="295.0" y1="135.0" x2="302.6" y2="158.6" stroke="rgb(0,0,0)"  stroke-width="2.0"/>
<line x1="319.4" y1="173.7" x2="330.9" y2="176.2" stroke="rgb(0,0,0)"  stroke-width="2.0"/>
<line x1="242.6" y1="92.6" x2="255.0" y2="71.1" stroke="rgb(0,0,0)"  stroke-width="2.0"/>
<line x1="169.2" y1="77.9" x2="166.6" y2="53.2" stroke="rgb(0,0,0)"  stroke-width="2.0"/>
<line x1="175.2" y1="77.3" x2="172.6" y2="52.6" stroke="rgb(0,0,0)"  stroke-width="2.0"/>
<line x1="152.7" y1="112.7" x2="225.2" y2="194.6" stroke="rgb(0,0,0)"  stroke-width="2.0"/>
<line x1="223.7" y1="192.0" x2="245.2" y2="179.6" stroke="rgb(0,0,0)"  stroke-width="2.0"/>
<line x1="226.7" y1="197.2" x2="248.2" y2="184.8" stroke="rgb(0,0,0)"  stroke-width="2.0"/>
<line x1="225.2" y1="194.6" x2="203.7" y2="182.2" stroke="rgb(0,0,0)"  stroke-width="2.0"/>
<line x1="181.1" y1="182.2" x2="170.9" y2="188.1" stroke="rgb(0,0,0)"  stroke-width="2.0"/>
<line x1="95.1" y1="211.2" x2="127.8" y2="230.1" stroke="rgb(0,0,0)"  stroke-width="2.0"/>
<line x1="103.8" y1="208.0" x2="126.2" y2="220.9" stroke="rgb(0,0,0)"  stroke-width="2.0"/>
<line x1="127.8" y1="230.1" x2="146.3" y2="213.5" stroke="rgb(0,0,0)"  stroke-width="2.0"/>
<line x1="150.6" y1="192.9" x2="140.5" y2="170.3" stroke="rgb(0,0,0)"  stroke-width="2.0"/>
<line x1="140.5" y1="170.3" x2="102.9" y2="174.2" stroke="rgb(0,0,0)"  stroke-width="2.0"/>
<line x1="135.3" y1="178.1" x2="109.6" y2="180.8" stroke="rgb(0,0,0)"  stroke-width="2.0"/>
<line x1="102.9" y1="174.2" x2="95.1" y2="211.2" stroke="rgb(0,0,0)"  stroke-width="2.0"/>
<line x1="92.4" y1="387.5" x2="130.0" y2="383.5" stroke="rgb(0,0,0)"  stroke-width="2.0"/>
<line x1="97.6" y1="379.7" x2="123.3" y2="377.0" stroke="rgb(0,0,0)"  stroke-width="2.0"/>
<line x1="130.0" y1="383.5" x2="135.2" y2="359.3" stroke="rgb(0,0,0)"  stroke-width="2.0"/>
<line x1="126.6" y1="340.0" x2="105.1" y2="327.6" stroke="rgb(0,0,0)"  stroke-width="2.0"/>
<line x1="105.1" y1="327.6" x2="77.0" y2="352.9" stroke="rgb(0,0,0)"  stroke-width="2.0"/>
<line x1="105.5" y1="337.0" x2="86.3" y2="354.3" stroke="rgb(0,0,0)"  stroke-width="2.0"/>
<line x1="77.0" y1="352.9" x2="92.4" y2="387.5" stroke="rgb(0,0,0)"  stroke-width="2.0"/>
<line x1="229.8" y1="152.5" x2="248.3" y2="135.8" stroke="rgb(0,0,0)"  stroke-width="2.0"/>
<line x1="252.7" y1="115.3" x2="242.6" y2="92.6" stroke="rgb(0,0,0)"  stroke-width="2.0"/>
<line x1="242.6" y1="92.6" x2="204.9" y2="96.5" stroke="rgb(0,0,0)"  stroke-width="2.0"/>
<line x1="237.4" y1="100.4" x2="211.7" y2="103.1" stroke="rgb(0,0,0)"  stroke-width="2.0"/>
<line x1="204.9" y1="96.5" x2="197.1" y2="133.5" stroke="rgb(0,0,0)"  stroke-width="2.0"/>
<line x1="197.1" y1="133.5" x2="229.8" y2="152.5" stroke="rgb(0,0,0)"  stroke-width="2.0"/>
<line x1="204.9" y1="96.5" x2="172.2" y2="77.6" stroke="rgb(0,0,0)"  stroke-width="2.0"/>
<line x1="172.2" y1="77.6" x2="153.7" y2="94.2" stroke="rgb(0,0,0)"  stroke-width="2.0"/>
<line x1="149.4" y1="114.8" x2="159.5" y2="137.5" stroke="rgb(0,0,0)"  stroke-width="2.0"/>
<line x1="159.5" y1="137.5" x2="197.1" y2="133.5" stroke="rgb(0,0,0)"  stroke-width="2.0"/>
<line x1="164.7" y1="129.7" x2="190.4" y2="127.0" stroke="rgb(0,0,0)"  stroke-width="2.0"/>
<text x="255.489591" y="67.822557" fill="rgb(191,191,191)"  stroke="rgb(191,191,191)" stroke-width="1" font-size="16" >H</text>
<text x="227.801398" y="198.085262" fill="rgb(255,12,12)"  stroke="rgb(255,12,12)" stroke-width="1" font-size="16" >O</text>
<text x="251.961287" y="135.146599" fill="rgb(12,12,255)"  stroke="rgb(12,12,255)" stroke-width="1" font-size="16" >N</text>
<text x="314.280484" y="114.897865" fill="rgb(255,12,12)"  stroke="rgb(255,12,12)" stroke-width="1" font-size="16" >O</text>
<text x="300.656804" y="178.992239" fill="rgb(255,12,12)"  stroke="rgb(255,12,12)" stroke-width="1" font-size="16" >O</text>
<text x="339.661709" y="186.857875" fill="rgb(102,102,102)"  stroke="rgb(102,102,102)" stroke-width="1" font-size="16" >CH</text>
<text x="363.661709" y="190.537875" fill="rgb(102,102,102)"  stroke="rgb(102,102,102)" stroke-width="1" font-size="13" >3</text>
<text x="162.231791" y="48.000000" fill="rgb(255,12,12)"  stroke="rgb(255,12,12)" stroke-width="1" font-size="16" >O</text>
<text x="138.071902" y="110.938663" fill="rgb(12,12,255)"  stroke="rgb(12,12,255)" stroke-width="1" font-size="16" >N</text>
<text x="251.918001" y="183.712375" fill="rgb(255,12,12)"  stroke="rgb(255,12,12)" stroke-width="1" font-size="16" >O</text>
<text x="186.391719" y="183.712375" fill="rgb(255,12,12)"  stroke="rgb(255,12,12)" stroke-width="1" font-size="16" >O</text>
<text x="133.628579" y="202.628183" fill="rgb(102,102,102)"  stroke="rgb(102,102,102)" stroke-width="1" font-size="16" >H</text>
<text x="145.628579" y="206.308183" fill="rgb(102,102,102)"  stroke="rgb(102,102,102)" stroke-width="1" font-size="13" >3</text>
<text x="152.128579" y="202.628183" fill="rgb(102,102,102)"  stroke="rgb(102,102,102)" stroke-width="1" font-size="16" >C</text>
<text x="71.604936" y="154.102815" fill="rgb(127,178,255)"  stroke="rgb(127,178,255)" stroke-width="1" font-size="16" >F</text>
<text x="42.492692" y="234.609594" fill="rgb(30,239,30)"  stroke="rgb(30,239,30)" stroke-width="1" font-size="16" >Cl</text>
<text x="149.931103" y="212.823606" fill="rgb(178,178,0)"  stroke="rgb(178,178,0)" stroke-width="1" font-size="16" >S</text>
<text x="22.000000" y="353.072162" fill="rgb(30,239,30)"  stroke="rgb(30,239,30)" stroke-width="1" font-size="16" >Cl</text>
<text x="67.476601" y="428.261839" fill="rgb(127,178,255)"  stroke="rgb(127,178,255)" stroke-width="1" font-size="16" >F</text>
<text x="149.331072" y="419.658587" fill="rgb(191,191,191)"  stroke="rgb(191,191,191)" stroke-width="1" font-size="16" >H</text>
<text x="131.882415" y="354.539313" fill="rgb(178,178,0)"  stroke="rgb(178,178,0)" stroke-width="1" font-size="16" >S</text>
</svg>
</g>
<text font-size="18.000000" fill ="black" font-family="sans-serif"
x="10.000000" y="20.000000" ></text>
</svg>
