<?xml version="1.0"?>
<svg version="1.1" id="topsvg"
xmlns="http://www.w3.org/2000/svg" xmlns:xlink="http://www.w3.org/1999/xlink"
xmlns:cml="http://www.xml-cml.org/schema" x="0" y="0" width="200px" height="200px" viewBox="0 0 100 100">
<title> - Open Babel Depiction</title>
<rect x="0" y="0" width="100" height="100" fill="white"/>
<g transform="translate(0,0)">
<svg width="100" height="100" x="0" y="0" viewBox="0 0 439.182 360"
font-family="sans-serif" stroke="rgb(0,0,0)" stroke-width="2"  stroke-linecap="round">
<line x1="178.6" y1="220.0" x2="143.9" y2="200.0" stroke="rgb(0,0,0)"  stroke-width="2.0"/>
<line x1="109.3" y1="140.0" x2="109.3" y2="100.0" stroke="rgb(0,0,0)"  stroke-width="2.0"/>
<line x1="107.8" y1="102.6" x2="84.4" y2="89.1" stroke="rgb(0,0,0)"  stroke-width="2.0"/>
<line x1="110.8" y1="97.4" x2="87.4" y2="83.9" stroke="rgb(0,0,0)"  stroke-width="2.0"/>
<line x1="109.3" y1="100.0" x2="132.7" y2="86.5" stroke="rgb(0,0,0)"  stroke-width="2.0"/>
<line x1="143.9" y1="67.0" x2="143.9" y2="53.0" stroke="rgb(0,0,0)"  stroke-width="2.0"/>
<line x1="74.6" y1="160.0" x2="51.3" y2="146.5" stroke="rgb(0,0,0)"  stroke-width="2.0"/>
<line x1="109.3" y1="220.0" x2="109.3" y2="260.0" stroke="rgb(0,0,0)"  stroke-width="2.0"/>
<line x1="110.8" y1="257.4" x2="134.2" y2="270.9" stroke="rgb(0,0,0)"  stroke-width="2.0"/>
<line x1="107.8" y1="262.6" x2="131.2" y2="276.1" stroke="rgb(0,0,0)"  stroke-width="2.0"/>
<line x1="109.3" y1="260.0" x2="85.9" y2="273.5" stroke="rgb(0,0,0)"  stroke-width="2.0"/>
<line x1="74.6" y1="293.0" x2="74.6" y2="307.0" stroke="rgb(0,0,0)"  stroke-width="2.0"/>
<line x1="225.2" y1="167.7" x2="207.2" y2="147.6" stroke="rgb(0,0,0)"  stroke-width="2.0"/>
<line x1="229.7" y1="163.7" x2="211.6" y2="143.6" stroke="rgb(0,0,0)"  stroke-width="2.0"/>
<line x1="286.6" y1="122.7" x2="275.6" y2="98.1" stroke="rgb(0,0,0)"  stroke-width="2.0"/>
<line x1="278.0" y1="75.7" x2="286.2" y2="64.3" stroke="rgb(0,0,0)"  stroke-width="2.0"/>
<line x1="329.9" y1="170.8" x2="353.3" y2="184.3" stroke="rgb(0,0,0)"  stroke-width="2.0"/>
<line x1="375.8" y1="184.3" x2="387.9" y2="177.3" stroke="rgb(0,0,0)"  stroke-width="2.0"/>
<line x1="283.2" y1="223.1" x2="301.3" y2="243.2" stroke="rgb(0,0,0)"  stroke-width="2.0"/>
<line x1="278.8" y1="227.1" x2="296.8" y2="247.2" stroke="rgb(0,0,0)"  stroke-width="2.0"/>
<line x1="221.9" y1="268.1" x2="232.9" y2="292.8" stroke="rgb(0,0,0)"  stroke-width="2.0"/>
<line x1="327.1" y1="144.0" x2="329.9" y2="170.8" stroke="rgb(0,0,0)"  stroke-width="2.0"/>
<line x1="329.9" y1="170.8" x2="293.4" y2="187.1" stroke="rgb(0,0,0)"  stroke-width="2.0"/>
<line x1="321.5" y1="166.7" x2="295.9" y2="178.1" stroke="rgb(0,0,0)"  stroke-width="2.0"/>
<line x1="293.4" y1="187.1" x2="266.6" y2="157.4" stroke="rgb(0,0,0)"  stroke-width="2.0"/>
<line x1="266.6" y1="157.4" x2="286.6" y2="122.7" stroke="rgb(0,0,0)"  stroke-width="2.0"/>
<line x1="275.8" y1="155.8" x2="289.8" y2="131.5" stroke="rgb(0,0,0)"  stroke-width="2.0"/>
<line x1="286.6" y1="122.7" x2="313.0" y2="128.3" stroke="rgb(0,0,0)"  stroke-width="2.0"/>
<line x1="241.9" y1="233.5" x2="221.9" y2="268.1" stroke="rgb(0,0,0)"  stroke-width="2.0"/>
<line x1="232.6" y1="235.1" x2="218.6" y2="259.3" stroke="rgb(0,0,0)"  stroke-width="2.0"/>
<line x1="221.9" y1="268.1" x2="195.5" y2="262.5" stroke="rgb(0,0,0)"  stroke-width="2.0"/>
<line x1="181.4" y1="246.9" x2="178.6" y2="220.0" stroke="rgb(0,0,0)"  stroke-width="2.0"/>
<line x1="178.6" y1="220.0" x2="215.1" y2="203.7" stroke="rgb(0,0,0)"  stroke-width="2.0"/>
<line x1="187.0" y1="224.1" x2="212.6" y2="212.7" stroke="rgb(0,0,0)"  stroke-width="2.0"/>
<line x1="215.1" y1="203.7" x2="241.9" y2="233.5" stroke="rgb(0,0,0)"  stroke-width="2.0"/>
<line x1="109.3" y1="140.0" x2="74.6" y2="160.0" stroke="rgb(0,0,0)"  stroke-width="2.0"/>
<line x1="107.7" y1="149.2" x2="83.4" y2="163.2" stroke="rgb(0,0,0)"  stroke-width="2.0"/>
<line x1="74.6" y1="160.0" x2="74.6" y2="200.0" stroke="rgb(0,0,0)"  stroke-width="2.0"/>
<line x1="74.6" y1="200.0" x2="109.3" y2="220.0" stroke="rgb(0,0,0)"  stroke-width="2.0"/>
<line x1="83.4" y1="196.8" x2="107.7" y2="210.8" stroke="rgb(0,0,0)"  stroke-width="2.0"/>
<line x1="109.3" y1="220.0" x2="143.9" y2="200.0" stroke="rgb(0,0,0)"  stroke-width="2.0"/>
<line x1="143.9" y1="200.0" x2="143.9" y2="160.0" stroke="rgb(0,0,0)"  stroke-width="2.0"/>
<line x1="136.7" y1="194.0" x2="136.7" y2="166.0" stroke="rgb(0,0,0)"  stroke-width="2.0"/>
<line x1="143.9" y1="160.0" x2="109.3" y2="140.0" stroke="rgb(0,0,0)"  stroke-width="2.0"/>
<line x1="227.5" y1="165.7" x2="266.6" y2="157.4" stroke="rgb(0,0,0)"  stroke-width="2.0"/>
<line x1="293.4" y1="187.1" x2="281.0" y2="225.1" stroke="rgb(0,0,0)"  stroke-width="2.0"/>
<line x1="281.0" y1="225.1" x2="241.9" y2="233.5" stroke="rgb(0,0,0)"  stroke-width="2.0"/>
<line x1="215.1" y1="203.7" x2="227.5" y2="165.7" stroke="rgb(0,0,0)"  stroke-width="2.0"/>
<text x="395.181542" y="178.828133" fill="rgb(102,102,102)"  stroke="rgb(102,102,102)" stroke-width="1" font-size="16" >CH</text>
<text x="419.181542" y="182.508133" fill="rgb(102,102,102)"  stroke="rgb(102,102,102)" stroke-width="1" font-size="13" >3</text>
<text x="194.701338" y="143.962481" fill="rgb(255,12,12)"  stroke="rgb(255,12,12)" stroke-width="1" font-size="16" >O</text>
<text x="264.323001" y="94.188972" fill="rgb(255,12,12)"  stroke="rgb(255,12,12)" stroke-width="1" font-size="16" >O</text>
<text x="289.834411" y="61.828292" fill="rgb(102,102,102)"  stroke="rgb(102,102,102)" stroke-width="1" font-size="16" >CH</text>
<text x="313.834411" y="65.508292" fill="rgb(102,102,102)"  stroke="rgb(102,102,102)" stroke-width="1" font-size="13" >3</text>
<text x="319.718371" y="139.047257" fill="rgb(178,178,0)"  stroke="rgb(178,178,0)" stroke-width="1" font-size="16" >S</text>
<text x="358.540525" y="198.828133" fill="rgb(255,12,12)"  stroke="rgb(255,12,12)" stroke-width="1" font-size="16" >O</text>
<text x="301.762235" y="262.865653" fill="rgb(255,12,12)"  stroke="rgb(255,12,12)" stroke-width="1" font-size="16" >O</text>
<text x="232.140573" y="312.639162" fill="rgb(191,191,191)"  stroke="rgb(191,191,191)" stroke-width="1" font-size="16" >H</text>
<text x="176.745203" y="267.780876" fill="rgb(178,178,0)"  stroke="rgb(178,178,0)" stroke-width="1" font-size="16" >S</text>
<text x="34.000000" y="148.000000" fill="rgb(191,191,191)"  stroke="rgb(191,191,191)" stroke-width="1" font-size="16" >H</text>
<text x="68.641016" y="88.000000" fill="rgb(255,12,12)"  stroke="rgb(255,12,12)" stroke-width="1" font-size="16" >O</text>
<text x="137.923048" y="88.000000" fill="rgb(255,12,12)"  stroke="rgb(255,12,12)" stroke-width="1" font-size="16" >O</text>
<text x="139.923048" y="48.000000" fill="rgb(102,102,102)"  stroke="rgb(102,102,102)" stroke-width="1" font-size="16" >CH</text>
<text x="163.923048" y="51.680000" fill="rgb(102,102,102)"  stroke="rgb(102,102,102)" stroke-width="1" font-size="13" >3</text>
<text x="137.923048" y="288.000000" fill="rgb(255,12,12)"  stroke="rgb(255,12,12)" stroke-width="1" font-size="16" >O</text>
<text x="68.641016" y="288.000000" fill="rgb(255,12,12)"  stroke="rgb(255,12,12)" stroke-width="1" font-size="16" >O</text>
<text x="70.641016" y="328.000000" fill="rgb(102,102,102)"  stroke="rgb(102,102,102)" stroke-width="1" font-size="16" >CH</text>
<text x="94.641016" y="331.680000" fill="rgb(102,102,102)"  stroke="rgb(102,102,102)" stroke-width="1" font-size="13" >3</text>
</svg>
</g>
<text font-size="18.000000" fill ="black" font-family="sans-serif"
x="10.000000" y="20.000000" ></text>
</svg>
