<?xml version="1.0"?>
<svg version="1.1" id="topsvg"
xmlns="http://www.w3.org/2000/svg" xmlns:xlink="http://www.w3.org/1999/xlink"
xmlns:cml="http://www.xml-cml.org/schema" x="0" y="0" width="200px" height="200px" viewBox="0 0 100 100">
<title> - Open Babel Depiction</title>
<rect x="0" y="0" width="100" height="100" fill="white"/>
<g transform="translate(0,0)">
<svg width="100" height="100" x="0" y="0" viewBox="0 0 396.538 353.295"
font-family="sans-serif" stroke="rgb(0,0,0)" stroke-width="2"  stroke-linecap="round">
<line x1="159.7" y1="180.8" x2="147.3" y2="142.8" stroke="rgb(0,0,0)"  stroke-width="2.0"/>
<line x1="147.3" y1="78.0" x2="155.7" y2="52.4" stroke="rgb(0,0,0)"  stroke-width="2.0"/>
<line x1="229.4" y1="173.2" x2="229.4" y2="146.2" stroke="rgb(0,0,0)"  stroke-width="2.0"/>
<line x1="235.4" y1="173.2" x2="235.4" y2="146.2" stroke="rgb(0,0,0)"  stroke-width="2.0"/>
<line x1="305.1" y1="180.8" x2="313.4" y2="155.1" stroke="rgb(0,0,0)"  stroke-width="2.0"/>
<line x1="330.1" y1="140.1" x2="343.8" y2="137.2" stroke="rgb(0,0,0)"  stroke-width="2.0"/>
<line x1="305.1" y1="245.5" x2="313.4" y2="271.2" stroke="rgb(0,0,0)"  stroke-width="2.0"/>
<line x1="308.7" y1="293.2" x2="299.3" y2="303.6" stroke="rgb(0,0,0)"  stroke-width="2.0"/>
<line x1="235.4" y1="253.2" x2="235.4" y2="280.2" stroke="rgb(0,0,0)"  stroke-width="2.0"/>
<line x1="229.4" y1="253.2" x2="229.4" y2="280.2" stroke="rgb(0,0,0)"  stroke-width="2.0"/>
<line x1="159.7" y1="245.5" x2="151.3" y2="271.2" stroke="rgb(0,0,0)"  stroke-width="2.0"/>
<line x1="109.3" y1="90.4" x2="147.3" y2="78.0" stroke="rgb(0,0,0)"  stroke-width="2.0"/>
<line x1="117.2" y1="95.4" x2="143.8" y2="86.7" stroke="rgb(0,0,0)"  stroke-width="2.0"/>
<line x1="147.3" y1="78.0" x2="163.2" y2="99.9" stroke="rgb(0,0,0)"  stroke-width="2.0"/>
<line x1="163.2" y1="120.9" x2="147.3" y2="142.8" stroke="rgb(0,0,0)"  stroke-width="2.0"/>
<line x1="147.3" y1="142.8" x2="109.3" y2="130.4" stroke="rgb(0,0,0)"  stroke-width="2.0"/>
<line x1="143.8" y1="134.1" x2="117.2" y2="125.4" stroke="rgb(0,0,0)"  stroke-width="2.0"/>
<line x1="109.3" y1="130.4" x2="109.3" y2="90.4" stroke="rgb(0,0,0)"  stroke-width="2.0"/>
<line x1="320.9" y1="223.7" x2="305.1" y2="245.5" stroke="rgb(0,0,0)"  stroke-width="2.0"/>
<line x1="305.1" y1="245.5" x2="267.0" y2="233.2" stroke="rgb(0,0,0)"  stroke-width="2.0"/>
<line x1="301.6" y1="236.8" x2="274.9" y2="228.2" stroke="rgb(0,0,0)"  stroke-width="2.0"/>
<line x1="267.0" y1="233.2" x2="267.0" y2="193.2" stroke="rgb(0,0,0)"  stroke-width="2.0"/>
<line x1="267.0" y1="193.2" x2="305.1" y2="180.8" stroke="rgb(0,0,0)"  stroke-width="2.0"/>
<line x1="274.9" y1="198.2" x2="301.6" y2="189.5" stroke="rgb(0,0,0)"  stroke-width="2.0"/>
<line x1="305.1" y1="180.8" x2="320.9" y2="202.6" stroke="rgb(0,0,0)"  stroke-width="2.0"/>
<line x1="197.7" y1="233.2" x2="159.7" y2="245.5" stroke="rgb(0,0,0)"  stroke-width="2.0"/>
<line x1="189.8" y1="228.2" x2="163.2" y2="236.8" stroke="rgb(0,0,0)"  stroke-width="2.0"/>
<line x1="159.7" y1="245.5" x2="143.8" y2="223.7" stroke="rgb(0,0,0)"  stroke-width="2.0"/>
<line x1="143.8" y1="202.6" x2="159.7" y2="180.8" stroke="rgb(0,0,0)"  stroke-width="2.0"/>
<line x1="159.7" y1="180.8" x2="197.7" y2="193.2" stroke="rgb(0,0,0)"  stroke-width="2.0"/>
<line x1="163.2" y1="189.5" x2="189.8" y2="198.2" stroke="rgb(0,0,0)"  stroke-width="2.0"/>
<line x1="197.7" y1="193.2" x2="197.7" y2="233.2" stroke="rgb(0,0,0)"  stroke-width="2.0"/>
<line x1="63.4" y1="143.9" x2="40.0" y2="130.4" stroke="rgb(0,0,0)"  stroke-width="2.0"/>
<line x1="40.0" y1="130.4" x2="40.0" y2="90.4" stroke="rgb(0,0,0)"  stroke-width="2.0"/>
<line x1="40.0" y1="90.4" x2="63.4" y2="76.9" stroke="rgb(0,0,0)"  stroke-width="2.0"/>
<line x1="85.9" y1="76.9" x2="109.3" y2="90.4" stroke="rgb(0,0,0)"  stroke-width="2.0"/>
<line x1="109.3" y1="130.4" x2="85.9" y2="143.9" stroke="rgb(0,0,0)"  stroke-width="2.0"/>
<line x1="232.4" y1="173.2" x2="267.0" y2="193.2" stroke="rgb(0,0,0)"  stroke-width="2.0"/>
<line x1="267.0" y1="233.2" x2="232.4" y2="253.2" stroke="rgb(0,0,0)"  stroke-width="2.0"/>
<line x1="232.4" y1="253.2" x2="197.7" y2="233.2" stroke="rgb(0,0,0)"  stroke-width="2.0"/>
<line x1="197.7" y1="193.2" x2="232.4" y2="173.2" stroke="rgb(0,0,0)"  stroke-width="2.0"/>
<text x="130.173563" y="221.166561" fill="rgb(178,178,0)"  stroke="rgb(178,178,0)" stroke-width="1" font-size="16" >S</text>
<text x="141.324293" y="291.569501" fill="rgb(191,191,191)"  stroke="rgb(191,191,191)" stroke-width="1" font-size="16" >H</text>
<text x="226.368250" y="301.166561" fill="rgb(255,12,12)"  stroke="rgb(255,12,12)" stroke-width="1" font-size="16" >O</text>
<text x="264.646982" y="321.295294" fill="rgb(102,102,102)"  stroke="rgb(102,102,102)" stroke-width="1" font-size="16" >H</text>
<text x="276.646982" y="324.975294" fill="rgb(102,102,102)"  stroke="rgb(102,102,102)" stroke-width="1" font-size="13" >3</text>
<text x="283.146982" y="321.295294" fill="rgb(102,102,102)"  stroke="rgb(102,102,102)" stroke-width="1" font-size="16" >C</text>
<text x="311.412206" y="291.569501" fill="rgb(255,12,12)"  stroke="rgb(255,12,12)" stroke-width="1" font-size="16" >O</text>
<text x="322.562936" y="221.166561" fill="rgb(178,178,0)"  stroke="rgb(178,178,0)" stroke-width="1" font-size="16" >S</text>
<text x="352.538110" y="142.447153" fill="rgb(102,102,102)"  stroke="rgb(102,102,102)" stroke-width="1" font-size="16" >CH</text>
<text x="376.538110" y="146.127153" fill="rgb(102,102,102)"  stroke="rgb(102,102,102)" stroke-width="1" font-size="13" >3</text>
<text x="311.412206" y="150.763620" fill="rgb(255,12,12)"  stroke="rgb(255,12,12)" stroke-width="1" font-size="16" >O</text>
<text x="226.368250" y="141.166561" fill="rgb(255,12,12)"  stroke="rgb(255,12,12)" stroke-width="1" font-size="16" >O</text>
<text x="164.835703" y="118.402940" fill="rgb(178,178,0)"  stroke="rgb(178,178,0)" stroke-width="1" font-size="16" >S</text>
<text x="153.684973" y="48.000000" fill="rgb(191,191,191)"  stroke="rgb(191,191,191)" stroke-width="1" font-size="16" >H</text>
<text x="68.641016" y="78.402940" fill="rgb(255,12,12)"  stroke="rgb(255,12,12)" stroke-width="1" font-size="16" >O</text>
<text x="68.641016" y="158.402940" fill="rgb(255,12,12)"  stroke="rgb(255,12,12)" stroke-width="1" font-size="16" >O</text>
</svg>
</g>
<text font-size="18.000000" fill ="black" font-family="sans-serif"
x="10.000000" y="20.000000" ></text>
</svg>
