<?xml version="1.0"?>
<svg version="1.1" id="topsvg"
xmlns="http://www.w3.org/2000/svg" xmlns:xlink="http://www.w3.org/1999/xlink"
xmlns:cml="http://www.xml-cml.org/schema" x="0" y="0" width="200px" height="200px" viewBox="0 0 100 100">
<title> - Open Babel Depiction</title>
<rect x="0" y="0" width="100" height="100" fill="white"/>
<g transform="translate(0,0)">
<svg width="100" height="100" x="0" y="0" viewBox="0 0 374.72 517.546"
font-family="sans-serif" stroke="rgb(0,0,0)" stroke-width="2"  stroke-linecap="round">
<line x1="141.6" y1="301.7" x2="121.6" y2="336.3" stroke="rgb(0,0,0)"  stroke-width="2.0"/>
<line x1="81.8" y1="340.5" x2="63.7" y2="320.4" stroke="rgb(0,0,0)"  stroke-width="2.0"/>
<line x1="60.0" y1="442.9" x2="46.5" y2="466.3" stroke="rgb(0,0,0)"  stroke-width="2.0"/>
<line x1="99.8" y1="438.7" x2="117.8" y2="458.8" stroke="rgb(0,0,0)"  stroke-width="2.0"/>
<line x1="158.6" y1="170.8" x2="158.6" y2="143.8" stroke="rgb(0,0,0)"  stroke-width="2.0"/>
<line x1="164.6" y1="170.8" x2="164.6" y2="143.8" stroke="rgb(0,0,0)"  stroke-width="2.0"/>
<line x1="116.8" y1="190.3" x2="103.5" y2="186.0" stroke="rgb(0,0,0)"  stroke-width="2.0"/>
<line x1="193.0" y1="191.5" x2="231.0" y2="179.1" stroke="rgb(0,0,0)"  stroke-width="2.0"/>
<line x1="194.8" y1="197.2" x2="232.9" y2="184.8" stroke="rgb(0,0,0)"  stroke-width="2.0"/>
<line x1="267.3" y1="205.5" x2="267.3" y2="232.5" stroke="rgb(0,0,0)"  stroke-width="2.0"/>
<line x1="261.3" y1="205.5" x2="261.3" y2="232.5" stroke="rgb(0,0,0)"  stroke-width="2.0"/>
<line x1="309.0" y1="186.0" x2="322.4" y2="190.3" stroke="rgb(0,0,0)"  stroke-width="2.0"/>
<line x1="284.3" y1="74.6" x2="297.8" y2="51.3" stroke="rgb(0,0,0)"  stroke-width="2.0"/>
<line x1="73.5" y1="379.6" x2="108.1" y2="399.6" stroke="rgb(0,0,0)"  stroke-width="2.0"/>
<line x1="82.3" y1="376.4" x2="106.5" y2="390.4" stroke="rgb(0,0,0)"  stroke-width="2.0"/>
<line x1="108.1" y1="399.6" x2="128.2" y2="381.5" stroke="rgb(0,0,0)"  stroke-width="2.0"/>
<line x1="132.5" y1="361.0" x2="121.6" y2="336.3" stroke="rgb(0,0,0)"  stroke-width="2.0"/>
<line x1="121.6" y1="336.3" x2="81.8" y2="340.5" stroke="rgb(0,0,0)"  stroke-width="2.0"/>
<line x1="116.3" y1="344.1" x2="88.5" y2="347.0" stroke="rgb(0,0,0)"  stroke-width="2.0"/>
<line x1="81.8" y1="340.5" x2="73.5" y2="379.6" stroke="rgb(0,0,0)"  stroke-width="2.0"/>
<line x1="60.0" y1="442.9" x2="99.8" y2="438.7" stroke="rgb(0,0,0)"  stroke-width="2.0"/>
<line x1="65.2" y1="435.1" x2="93.1" y2="432.2" stroke="rgb(0,0,0)"  stroke-width="2.0"/>
<line x1="99.8" y1="438.7" x2="108.1" y2="399.6" stroke="rgb(0,0,0)"  stroke-width="2.0"/>
<line x1="73.5" y1="379.6" x2="53.4" y2="397.7" stroke="rgb(0,0,0)"  stroke-width="2.0"/>
<line x1="49.0" y1="418.2" x2="60.0" y2="442.9" stroke="rgb(0,0,0)"  stroke-width="2.0"/>
<line x1="201.6" y1="267.0" x2="181.6" y2="232.4" stroke="rgb(0,0,0)"  stroke-width="2.0"/>
<line x1="192.3" y1="265.4" x2="178.3" y2="241.2" stroke="rgb(0,0,0)"  stroke-width="2.0"/>
<line x1="181.6" y1="232.4" x2="141.6" y2="232.4" stroke="rgb(0,0,0)"  stroke-width="2.0"/>
<line x1="141.6" y1="232.4" x2="121.6" y2="267.0" stroke="rgb(0,0,0)"  stroke-width="2.0"/>
<line x1="144.8" y1="241.2" x2="130.8" y2="265.4" stroke="rgb(0,0,0)"  stroke-width="2.0"/>
<line x1="121.6" y1="267.0" x2="141.6" y2="301.7" stroke="rgb(0,0,0)"  stroke-width="2.0"/>
<line x1="141.6" y1="301.7" x2="181.6" y2="301.7" stroke="rgb(0,0,0)"  stroke-width="2.0"/>
<line x1="147.6" y1="294.5" x2="175.6" y2="294.5" stroke="rgb(0,0,0)"  stroke-width="2.0"/>
<line x1="181.6" y1="301.7" x2="201.6" y2="267.0" stroke="rgb(0,0,0)"  stroke-width="2.0"/>
<line x1="244.3" y1="74.6" x2="224.3" y2="109.3" stroke="rgb(0,0,0)"  stroke-width="2.0"/>
<line x1="224.3" y1="109.3" x2="244.3" y2="143.9" stroke="rgb(0,0,0)"  stroke-width="2.0"/>
<line x1="233.6" y1="110.9" x2="247.6" y2="135.1" stroke="rgb(0,0,0)"  stroke-width="2.0"/>
<line x1="244.3" y1="143.9" x2="284.3" y2="143.9" stroke="rgb(0,0,0)"  stroke-width="2.0"/>
<line x1="284.3" y1="143.9" x2="304.3" y2="109.3" stroke="rgb(0,0,0)"  stroke-width="2.0"/>
<line x1="281.1" y1="135.1" x2="295.1" y2="110.9" stroke="rgb(0,0,0)"  stroke-width="2.0"/>
<line x1="304.3" y1="109.3" x2="284.3" y2="74.6" stroke="rgb(0,0,0)"  stroke-width="2.0"/>
<line x1="284.3" y1="74.6" x2="244.3" y2="74.6" stroke="rgb(0,0,0)"  stroke-width="2.0"/>
<line x1="278.3" y1="81.8" x2="250.3" y2="81.8" stroke="rgb(0,0,0)"  stroke-width="2.0"/>
<line x1="161.6" y1="170.8" x2="139.7" y2="186.7" stroke="rgb(0,0,0)"  stroke-width="2.0"/>
<line x1="133.2" y1="206.7" x2="141.6" y2="232.4" stroke="rgb(0,0,0)"  stroke-width="2.0"/>
<line x1="181.6" y1="232.4" x2="193.9" y2="194.3" stroke="rgb(0,0,0)"  stroke-width="2.0"/>
<line x1="193.9" y1="194.3" x2="161.6" y2="170.8" stroke="rgb(0,0,0)"  stroke-width="2.0"/>
<line x1="292.7" y1="169.6" x2="284.3" y2="143.9" stroke="rgb(0,0,0)"  stroke-width="2.0"/>
<line x1="244.3" y1="143.9" x2="232.0" y2="182.0" stroke="rgb(0,0,0)"  stroke-width="2.0"/>
<line x1="232.0" y1="182.0" x2="264.3" y2="205.5" stroke="rgb(0,0,0)"  stroke-width="2.0"/>
<line x1="264.3" y1="205.5" x2="286.2" y2="189.6" stroke="rgb(0,0,0)"  stroke-width="2.0"/>
<text x="330.720231" y="202.325989" fill="rgb(102,102,102)"  stroke="rgb(102,102,102)" stroke-width="1" font-size="16" >CH</text>
<text x="354.720231" y="206.005989" fill="rgb(102,102,102)"  stroke="rgb(102,102,102)" stroke-width="1" font-size="13" >3</text>
<text x="123.192991" y="202.325989" fill="rgb(12,12,255)"  stroke="rgb(12,12,255)" stroke-width="1" font-size="16" >N</text>
<text x="65.150730" y="189.965309" fill="rgb(102,102,102)"  stroke="rgb(102,102,102)" stroke-width="1" font-size="16" >H</text>
<text x="77.150730" y="193.645309" fill="rgb(102,102,102)"  stroke="rgb(102,102,102)" stroke-width="1" font-size="13" >3</text>
<text x="83.650730" y="189.965309" fill="rgb(102,102,102)"  stroke="rgb(102,102,102)" stroke-width="1" font-size="16" >C</text>
<text x="258.317291" y="253.476719" fill="rgb(255,12,12)"  stroke="rgb(255,12,12)" stroke-width="1" font-size="16" >O</text>
<text x="290.677971" y="189.965309" fill="rgb(12,12,255)"  stroke="rgb(12,12,255)" stroke-width="1" font-size="16" >N</text>
<text x="155.553671" y="138.814579" fill="rgb(255,12,12)"  stroke="rgb(255,12,12)" stroke-width="1" font-size="16" >O</text>
<text x="298.317291" y="48.000000" fill="rgb(191,191,191)"  stroke="rgb(191,191,191)" stroke-width="1" font-size="16" >H</text>
<text x="120.546100" y="476.450038" fill="rgb(255,12,12)"  stroke="rgb(255,12,12)" stroke-width="1" font-size="16" >OH</text>
<text x="37.007571" y="318.746643" fill="rgb(255,12,12)"  stroke="rgb(255,12,12)" stroke-width="1" font-size="16" >HO</text>
<text x="37.730534" y="414.363565" fill="rgb(178,178,0)"  stroke="rgb(178,178,0)" stroke-width="1" font-size="16" >S</text>
<text x="34.000000" y="485.546399" fill="rgb(191,191,191)"  stroke="rgb(191,191,191)" stroke-width="1" font-size="16" >H</text>
<text x="131.823136" y="380.833116" fill="rgb(178,178,0)"  stroke="rgb(178,178,0)" stroke-width="1" font-size="16" >S</text>
</svg>
</g>
<text font-size="18.000000" fill ="black" font-family="sans-serif"
x="10.000000" y="20.000000" ></text>
</svg>
