<?xml version="1.0"?>
<svg version="1.1" id="topsvg"
xmlns="http://www.w3.org/2000/svg" xmlns:xlink="http://www.w3.org/1999/xlink"
xmlns:cml="http://www.xml-cml.org/schema" x="0" y="0" width="200px" height="200px" viewBox="0 0 100 100">
<title> - Open Babel Depiction</title>
<rect x="0" y="0" width="100" height="100" fill="white"/>
<g transform="translate(0,0)">
<svg width="100" height="100" x="0" y="0" viewBox="0 0 393.25 438.17"
font-family="sans-serif" stroke="rgb(0,0,0)" stroke-width="2"  stroke-linecap="round">
<line x1="214.1" y1="218.9" x2="248.9" y2="199.5" stroke="rgb(0,0,0)"  stroke-width="2.0"/>
<line x1="284.2" y1="140.1" x2="284.7" y2="100.3" stroke="rgb(0,0,0)"  stroke-width="2.0"/>
<line x1="283.3" y1="97.6" x2="306.7" y2="84.5" stroke="rgb(0,0,0)"  stroke-width="2.0"/>
<line x1="286.2" y1="102.9" x2="309.6" y2="89.8" stroke="rgb(0,0,0)"  stroke-width="2.0"/>
<line x1="284.7" y1="100.3" x2="261.7" y2="86.5" stroke="rgb(0,0,0)"  stroke-width="2.0"/>
<line x1="250.7" y1="66.9" x2="250.8" y2="53.0" stroke="rgb(0,0,0)"  stroke-width="2.0"/>
<line x1="318.5" y1="160.5" x2="341.9" y2="147.4" stroke="rgb(0,0,0)"  stroke-width="2.0"/>
<line x1="283.1" y1="219.8" x2="282.6" y2="259.7" stroke="rgb(0,0,0)"  stroke-width="2.0"/>
<line x1="284.1" y1="262.3" x2="260.6" y2="275.5" stroke="rgb(0,0,0)"  stroke-width="2.0"/>
<line x1="281.1" y1="257.1" x2="257.7" y2="270.2" stroke="rgb(0,0,0)"  stroke-width="2.0"/>
<line x1="282.6" y1="259.7" x2="305.7" y2="273.5" stroke="rgb(0,0,0)"  stroke-width="2.0"/>
<line x1="316.7" y1="293.1" x2="316.5" y2="307.0" stroke="rgb(0,0,0)"  stroke-width="2.0"/>
<line x1="179.8" y1="316.4" x2="203.0" y2="330.2" stroke="rgb(0,0,0)"  stroke-width="2.0"/>
<line x1="176.7" y1="321.5" x2="199.9" y2="335.4" stroke="rgb(0,0,0)"  stroke-width="2.0"/>
<line x1="143.4" y1="351.2" x2="143.3" y2="365.0" stroke="rgb(0,0,0)"  stroke-width="2.0"/>
<line x1="154.4" y1="384.6" x2="166.2" y2="391.6" stroke="rgb(0,0,0)"  stroke-width="2.0"/>
<line x1="110.0" y1="320.7" x2="86.5" y2="333.9" stroke="rgb(0,0,0)"  stroke-width="2.0"/>
<line x1="107.0" y1="315.4" x2="83.6" y2="328.7" stroke="rgb(0,0,0)"  stroke-width="2.0"/>
<line x1="74.8" y1="257.0" x2="51.3" y2="270.3" stroke="rgb(0,0,0)"  stroke-width="2.0"/>
<line x1="109.1" y1="160.0" x2="85.9" y2="146.3" stroke="rgb(0,0,0)"  stroke-width="2.0"/>
<line x1="112.2" y1="154.9" x2="88.9" y2="141.1" stroke="rgb(0,0,0)"  stroke-width="2.0"/>
<line x1="145.8" y1="124.7" x2="146.0" y2="110.5" stroke="rgb(0,0,0)"  stroke-width="2.0"/>
<line x1="134.0" y1="92.9" x2="120.7" y2="87.8" stroke="rgb(0,0,0)"  stroke-width="2.0"/>
<line x1="178.9" y1="155.8" x2="202.5" y2="142.6" stroke="rgb(0,0,0)"  stroke-width="2.0"/>
<line x1="181.8" y1="161.0" x2="205.4" y2="147.8" stroke="rgb(0,0,0)"  stroke-width="2.0"/>
<line x1="284.2" y1="140.1" x2="318.5" y2="160.5" stroke="rgb(0,0,0)"  stroke-width="2.0"/>
<line x1="285.7" y1="149.4" x2="309.6" y2="163.6" stroke="rgb(0,0,0)"  stroke-width="2.0"/>
<line x1="318.5" y1="160.5" x2="317.9" y2="200.4" stroke="rgb(0,0,0)"  stroke-width="2.0"/>
<line x1="317.9" y1="200.4" x2="283.1" y2="219.8" stroke="rgb(0,0,0)"  stroke-width="2.0"/>
<line x1="309.2" y1="197.0" x2="284.9" y2="210.6" stroke="rgb(0,0,0)"  stroke-width="2.0"/>
<line x1="283.1" y1="219.8" x2="248.9" y2="199.5" stroke="rgb(0,0,0)"  stroke-width="2.0"/>
<line x1="248.9" y1="199.5" x2="249.4" y2="159.6" stroke="rgb(0,0,0)"  stroke-width="2.0"/>
<line x1="256.2" y1="193.6" x2="256.5" y2="165.7" stroke="rgb(0,0,0)"  stroke-width="2.0"/>
<line x1="249.4" y1="159.6" x2="284.2" y2="140.1" stroke="rgb(0,0,0)"  stroke-width="2.0"/>
<line x1="178.8" y1="278.8" x2="144.1" y2="257.9" stroke="rgb(0,0,0)"  stroke-width="2.0"/>
<line x1="177.4" y1="269.6" x2="152.9" y2="254.9" stroke="rgb(0,0,0)"  stroke-width="2.0"/>
<line x1="144.1" y1="257.9" x2="144.6" y2="218.0" stroke="rgb(0,0,0)"  stroke-width="2.0"/>
<line x1="144.6" y1="218.0" x2="179.8" y2="198.5" stroke="rgb(0,0,0)"  stroke-width="2.0"/>
<line x1="153.3" y1="221.4" x2="178.1" y2="207.7" stroke="rgb(0,0,0)"  stroke-width="2.0"/>
<line x1="179.8" y1="198.5" x2="214.1" y2="218.9" stroke="rgb(0,0,0)"  stroke-width="2.0"/>
<line x1="214.1" y1="218.9" x2="213.6" y2="258.8" stroke="rgb(0,0,0)"  stroke-width="2.0"/>
<line x1="206.8" y1="224.8" x2="206.4" y2="252.8" stroke="rgb(0,0,0)"  stroke-width="2.0"/>
<line x1="213.6" y1="258.8" x2="178.8" y2="278.8" stroke="rgb(0,0,0)"  stroke-width="2.0"/>
<line x1="108.5" y1="318.0" x2="109.0" y2="277.9" stroke="rgb(0,0,0)"  stroke-width="2.0"/>
<line x1="109.0" y1="277.9" x2="144.1" y2="257.9" stroke="rgb(0,0,0)"  stroke-width="2.0"/>
<line x1="178.8" y1="278.8" x2="178.3" y2="319.0" stroke="rgb(0,0,0)"  stroke-width="2.0"/>
<line x1="178.3" y1="319.0" x2="154.9" y2="331.9" stroke="rgb(0,0,0)"  stroke-width="2.0"/>
<line x1="132.2" y1="331.7" x2="108.5" y2="318.0" stroke="rgb(0,0,0)"  stroke-width="2.0"/>
<line x1="75.3" y1="217.1" x2="110.1" y2="197.6" stroke="rgb(0,0,0)"  stroke-width="2.0"/>
<line x1="84.1" y1="220.5" x2="108.4" y2="206.8" stroke="rgb(0,0,0)"  stroke-width="2.0"/>
<line x1="110.1" y1="197.6" x2="144.6" y2="218.0" stroke="rgb(0,0,0)"  stroke-width="2.0"/>
<line x1="109.0" y1="277.9" x2="74.8" y2="257.0" stroke="rgb(0,0,0)"  stroke-width="2.0"/>
<line x1="107.7" y1="268.6" x2="83.7" y2="254.0" stroke="rgb(0,0,0)"  stroke-width="2.0"/>
<line x1="74.8" y1="257.0" x2="75.3" y2="217.1" stroke="rgb(0,0,0)"  stroke-width="2.0"/>
<line x1="156.8" y1="144.4" x2="180.4" y2="158.4" stroke="rgb(0,0,0)"  stroke-width="2.0"/>
<line x1="180.4" y1="158.4" x2="179.8" y2="198.5" stroke="rgb(0,0,0)"  stroke-width="2.0"/>
<line x1="110.1" y1="197.6" x2="110.6" y2="157.5" stroke="rgb(0,0,0)"  stroke-width="2.0"/>
<line x1="110.6" y1="157.5" x2="134.3" y2="144.1" stroke="rgb(0,0,0)"  stroke-width="2.0"/>
<text x="137.154775" y="385.994751" fill="rgb(255,12,12)"  stroke="rgb(255,12,12)" stroke-width="1" font-size="16" >O</text>
<text x="173.412523" y="406.170066" fill="rgb(102,102,102)"  stroke="rgb(102,102,102)" stroke-width="1" font-size="16" >CH</text>
<text x="197.412523" y="409.850066" fill="rgb(102,102,102)"  stroke="rgb(102,102,102)" stroke-width="1" font-size="13" >3</text>
<text x="67.719134" y="345.741512" fill="rgb(255,12,12)"  stroke="rgb(255,12,12)" stroke-width="1" font-size="16" >O</text>
<text x="34.000000" y="284.730459" fill="rgb(191,191,191)"  stroke="rgb(191,191,191)" stroke-width="1" font-size="16" >H</text>
<text x="137.498238" y="346.239013" fill="rgb(12,12,255)"  stroke="rgb(12,12,255)" stroke-width="1" font-size="16" >N</text>
<text x="70.226399" y="145.064162" fill="rgb(255,12,12)"  stroke="rgb(255,12,12)" stroke-width="1" font-size="16" >O</text>
<text x="139.638931" y="145.723741" fill="rgb(12,12,255)"  stroke="rgb(12,12,255)" stroke-width="1" font-size="16" >N</text>
<text x="140.104373" y="105.530368" fill="rgb(255,12,12)"  stroke="rgb(255,12,12)" stroke-width="1" font-size="16" >O</text>
<text x="82.578948" y="91.123207" fill="rgb(102,102,102)"  stroke="rgb(102,102,102)" stroke-width="1" font-size="16" >H</text>
<text x="94.578948" y="94.803207" fill="rgb(102,102,102)"  stroke="rgb(102,102,102)" stroke-width="1" font-size="13" >3</text>
<text x="101.078948" y="91.123207" fill="rgb(102,102,102)"  stroke="rgb(102,102,102)" stroke-width="1" font-size="16" >C</text>
<text x="209.264752" y="146.825676" fill="rgb(255,12,12)"  stroke="rgb(255,12,12)" stroke-width="1" font-size="16" >O</text>
<text x="313.527479" y="88.787252" fill="rgb(255,12,12)"  stroke="rgb(255,12,12)" stroke-width="1" font-size="16" >O</text>
<text x="244.481680" y="87.863611" fill="rgb(255,12,12)"  stroke="rgb(255,12,12)" stroke-width="1" font-size="16" >O</text>
<text x="247.014944" y="48.000000" fill="rgb(102,102,102)"  stroke="rgb(102,102,102)" stroke-width="1" font-size="16" >CH</text>
<text x="271.014944" y="51.680000" fill="rgb(102,102,102)"  stroke="rgb(102,102,102)" stroke-width="1" font-size="13" >3</text>
<text x="347.250482" y="149.044489" fill="rgb(191,191,191)"  stroke="rgb(191,191,191)" stroke-width="1" font-size="16" >H</text>
<text x="241.815358" y="287.181666" fill="rgb(255,12,12)"  stroke="rgb(255,12,12)" stroke-width="1" font-size="16" >O</text>
<text x="310.861157" y="288.105307" fill="rgb(255,12,12)"  stroke="rgb(255,12,12)" stroke-width="1" font-size="16" >O</text>
<text x="290.327893" y="327.968918" fill="rgb(102,102,102)"  stroke="rgb(102,102,102)" stroke-width="1" font-size="16" >H</text>
<text x="302.327893" y="331.648918" fill="rgb(102,102,102)"  stroke="rgb(102,102,102)" stroke-width="1" font-size="13" >3</text>
<text x="308.827893" y="327.968918" fill="rgb(102,102,102)"  stroke="rgb(102,102,102)" stroke-width="1" font-size="16" >C</text>
<text x="206.603721" y="347.483405" fill="rgb(255,12,12)"  stroke="rgb(255,12,12)" stroke-width="1" font-size="16" >O</text>
</svg>
</g>
<text font-size="18.000000" fill ="black" font-family="sans-serif"
x="10.000000" y="20.000000" ></text>
</svg>
