<?xml version="1.0"?>
<svg version="1.1" id="topsvg"
xmlns="http://www.w3.org/2000/svg" xmlns:xlink="http://www.w3.org/1999/xlink"
xmlns:cml="http://www.xml-cml.org/schema" x="0" y="0" width="200px" height="200px" viewBox="0 0 100 100">
<title> - Open Babel Depiction</title>
<rect x="0" y="0" width="100" height="100" fill="white"/>
<g transform="translate(0,0)">
<svg width="100" height="100" x="0" y="0" viewBox="0 0 569.994 368.73"
font-family="sans-serif" stroke="rgb(0,0,0)" stroke-width="2"  stroke-linecap="round">
<line x1="207.9" y1="138.0" x2="247.0" y2="146.3" stroke="rgb(0,0,0)"  stroke-width="2.0"/>
<line x1="276.7" y1="119.6" x2="272.5" y2="79.8" stroke="rgb(0,0,0)"  stroke-width="2.0"/>
<line x1="272.5" y1="79.8" x2="269.7" y2="52.9" stroke="rgb(0,0,0)"  stroke-width="2.0"/>
<line x1="268.4" y1="80.2" x2="265.5" y2="53.4" stroke="rgb(0,0,0)"  stroke-width="2.0"/>
<line x1="276.7" y1="79.3" x2="273.9" y2="52.5" stroke="rgb(0,0,0)"  stroke-width="2.0"/>
<line x1="311.4" y1="139.6" x2="336.0" y2="128.6" stroke="rgb(0,0,0)"  stroke-width="2.0"/>
<line x1="303.0" y1="178.7" x2="329.8" y2="208.4" stroke="rgb(0,0,0)"  stroke-width="2.0"/>
<line x1="329.2" y1="205.5" x2="368.3" y2="197.2" stroke="rgb(0,0,0)"  stroke-width="2.0"/>
<line x1="330.4" y1="211.3" x2="369.6" y2="203.0" stroke="rgb(0,0,0)"  stroke-width="2.0"/>
<line x1="368.9" y1="200.1" x2="395.7" y2="229.8" stroke="rgb(0,0,0)"  stroke-width="2.0"/>
<line x1="435.5" y1="225.6" x2="449.0" y2="202.3" stroke="rgb(0,0,0)"  stroke-width="2.0"/>
<line x1="451.7" y1="262.2" x2="490.9" y2="270.5" stroke="rgb(0,0,0)"  stroke-width="2.0"/>
<line x1="490.9" y1="270.5" x2="517.3" y2="276.1" stroke="rgb(0,0,0)"  stroke-width="2.0"/>
<line x1="491.7" y1="266.4" x2="518.2" y2="272.0" stroke="rgb(0,0,0)"  stroke-width="2.0"/>
<line x1="490.0" y1="274.6" x2="516.4" y2="280.2" stroke="rgb(0,0,0)"  stroke-width="2.0"/>
<line x1="422.0" y1="288.9" x2="424.8" y2="315.8" stroke="rgb(0,0,0)"  stroke-width="2.0"/>
<line x1="179.6" y1="202.2" x2="203.0" y2="215.7" stroke="rgb(0,0,0)"  stroke-width="2.0"/>
<line x1="176.6" y1="207.4" x2="200.0" y2="220.9" stroke="rgb(0,0,0)"  stroke-width="2.0"/>
<line x1="135.2" y1="263.9" x2="153.2" y2="284.0" stroke="rgb(0,0,0)"  stroke-width="2.0"/>
<line x1="79.1" y1="231.5" x2="52.7" y2="225.9" stroke="rgb(0,0,0)"  stroke-width="2.0"/>
<line x1="107.4" y1="167.4" x2="84.0" y2="153.9" stroke="rgb(0,0,0)"  stroke-width="2.0"/>
<line x1="110.4" y1="162.2" x2="87.0" y2="148.7" stroke="rgb(0,0,0)"  stroke-width="2.0"/>
<line x1="151.8" y1="105.6" x2="133.7" y2="85.6" stroke="rgb(0,0,0)"  stroke-width="2.0"/>
<line x1="311.4" y1="139.6" x2="303.0" y2="178.7" stroke="rgb(0,0,0)"  stroke-width="2.0"/>
<line x1="303.1" y1="143.9" x2="297.2" y2="171.3" stroke="rgb(0,0,0)"  stroke-width="2.0"/>
<line x1="303.0" y1="178.7" x2="276.2" y2="181.5" stroke="rgb(0,0,0)"  stroke-width="2.0"/>
<line x1="258.0" y1="171.0" x2="247.0" y2="146.3" stroke="rgb(0,0,0)"  stroke-width="2.0"/>
<line x1="247.0" y1="146.3" x2="276.7" y2="119.6" stroke="rgb(0,0,0)"  stroke-width="2.0"/>
<line x1="256.3" y1="147.7" x2="277.1" y2="128.9" stroke="rgb(0,0,0)"  stroke-width="2.0"/>
<line x1="276.7" y1="119.6" x2="311.4" y2="139.6" stroke="rgb(0,0,0)"  stroke-width="2.0"/>
<line x1="451.7" y1="262.2" x2="422.0" y2="288.9" stroke="rgb(0,0,0)"  stroke-width="2.0"/>
<line x1="442.5" y1="260.8" x2="421.7" y2="279.6" stroke="rgb(0,0,0)"  stroke-width="2.0"/>
<line x1="422.0" y1="288.9" x2="398.6" y2="275.4" stroke="rgb(0,0,0)"  stroke-width="2.0"/>
<line x1="390.1" y1="256.2" x2="395.7" y2="229.8" stroke="rgb(0,0,0)"  stroke-width="2.0"/>
<line x1="395.7" y1="229.8" x2="435.5" y2="225.6" stroke="rgb(0,0,0)"  stroke-width="2.0"/>
<line x1="402.4" y1="236.4" x2="430.3" y2="233.4" stroke="rgb(0,0,0)"  stroke-width="2.0"/>
<line x1="435.5" y1="225.6" x2="451.7" y2="262.2" stroke="rgb(0,0,0)"  stroke-width="2.0"/>
<line x1="90.1" y1="256.2" x2="79.1" y2="231.5" stroke="rgb(0,0,0)"  stroke-width="2.0"/>
<line x1="79.1" y1="231.5" x2="108.9" y2="204.8" stroke="rgb(0,0,0)"  stroke-width="2.0"/>
<line x1="88.4" y1="232.9" x2="109.2" y2="214.1" stroke="rgb(0,0,0)"  stroke-width="2.0"/>
<line x1="108.9" y1="204.8" x2="143.5" y2="224.8" stroke="rgb(0,0,0)"  stroke-width="2.0"/>
<line x1="143.5" y1="224.8" x2="135.2" y2="263.9" stroke="rgb(0,0,0)"  stroke-width="2.0"/>
<line x1="135.2" y1="229.1" x2="129.4" y2="256.5" stroke="rgb(0,0,0)"  stroke-width="2.0"/>
<line x1="135.2" y1="263.9" x2="108.3" y2="266.7" stroke="rgb(0,0,0)"  stroke-width="2.0"/>
<line x1="143.5" y1="144.8" x2="151.8" y2="105.6" stroke="rgb(0,0,0)"  stroke-width="2.0"/>
<line x1="151.8" y1="140.4" x2="157.6" y2="113.0" stroke="rgb(0,0,0)"  stroke-width="2.0"/>
<line x1="151.8" y1="105.6" x2="178.7" y2="102.8" stroke="rgb(0,0,0)"  stroke-width="2.0"/>
<line x1="196.9" y1="113.3" x2="207.9" y2="138.0" stroke="rgb(0,0,0)"  stroke-width="2.0"/>
<line x1="207.9" y1="138.0" x2="178.1" y2="164.8" stroke="rgb(0,0,0)"  stroke-width="2.0"/>
<line x1="198.6" y1="136.7" x2="177.8" y2="155.4" stroke="rgb(0,0,0)"  stroke-width="2.0"/>
<line x1="178.1" y1="164.8" x2="143.5" y2="144.8" stroke="rgb(0,0,0)"  stroke-width="2.0"/>
<line x1="178.1" y1="204.8" x2="143.5" y2="224.8" stroke="rgb(0,0,0)"  stroke-width="2.0"/>
<line x1="108.9" y1="204.8" x2="108.9" y2="164.8" stroke="rgb(0,0,0)"  stroke-width="2.0"/>
<line x1="108.9" y1="164.8" x2="143.5" y2="144.8" stroke="rgb(0,0,0)"  stroke-width="2.0"/>
<line x1="178.1" y1="164.8" x2="178.1" y2="204.8" stroke="rgb(0,0,0)"  stroke-width="2.0"/>
<text x="381.375653" y="276.948678" fill="rgb(178,178,0)"  stroke="rgb(178,178,0)" stroke-width="1" font-size="16" >S</text>
<text x="206.774746" y="232.775733" fill="rgb(255,12,12)"  stroke="rgb(255,12,12)" stroke-width="1" font-size="16" >O</text>
<text x="155.941470" y="301.627430" fill="rgb(191,191,191)"  stroke="rgb(191,191,191)" stroke-width="1" font-size="16" >H</text>
<text x="89.395370" y="276.082775" fill="rgb(178,178,0)"  stroke="rgb(178,178,0)" stroke-width="1" font-size="16" >S</text>
<text x="420.197808" y="336.729554" fill="rgb(191,191,191)"  stroke="rgb(191,191,191)" stroke-width="1" font-size="16" >H</text>
<text x="34.000000" y="231.224489" fill="rgb(191,191,191)"  stroke="rgb(191,191,191)" stroke-width="1" font-size="16" >H</text>
<text x="68.210681" y="152.775733" fill="rgb(255,12,12)"  stroke="rgb(255,12,12)" stroke-width="1" font-size="16" >O</text>
<text x="119.043957" y="83.924035" fill="rgb(191,191,191)"  stroke="rgb(191,191,191)" stroke-width="1" font-size="16" >H</text>
<text x="185.590057" y="109.468690" fill="rgb(178,178,0)"  stroke="rgb(178,178,0)" stroke-width="1" font-size="16" >S</text>
<text x="262.348942" y="48.000000" fill="rgb(12,12,255)"  stroke="rgb(12,12,255)" stroke-width="1" font-size="16" >N</text>
<text x="341.894054" y="131.292286" fill="rgb(30,239,30)"  stroke="rgb(30,239,30)" stroke-width="1" font-size="16" >Cl</text>
<text x="257.254892" y="190.868794" fill="rgb(178,178,0)"  stroke="rgb(178,178,0)" stroke-width="1" font-size="16" >S</text>
<text x="449.472996" y="199.000619" fill="rgb(30,239,30)"  stroke="rgb(30,239,30)" stroke-width="1" font-size="16" >Cl</text>
<text x="523.994270" y="286.816389" fill="rgb(12,12,255)"  stroke="rgb(12,12,255)" stroke-width="1" font-size="16" >N</text>
</svg>
</g>
<text font-size="18.000000" fill ="black" font-family="sans-serif"
x="10.000000" y="20.000000" ></text>
</svg>
