<?xml version="1.0"?>
<svg version="1.1" id="topsvg"
xmlns="http://www.w3.org/2000/svg" xmlns:xlink="http://www.w3.org/1999/xlink"
xmlns:cml="http://www.xml-cml.org/schema" x="0" y="0" width="200px" height="200px" viewBox="0 0 100 100">
<title> - Open Babel Depiction</title>
<rect x="0" y="0" width="100" height="100" fill="white"/>
<g transform="translate(0,0)">
<svg width="100" height="100" x="0" y="0" viewBox="0 0 430.655 394.959"
font-family="sans-serif" stroke="rgb(0,0,0)" stroke-width="2"  stroke-linecap="round">
<line x1="214.1" y1="175.8" x2="248.8" y2="156.3" stroke="rgb(0,0,0)"  stroke-width="2.0"/>
<line x1="285.0" y1="173.0" x2="290.3" y2="199.3" stroke="rgb(0,0,0)"  stroke-width="2.0"/>
<line x1="355.9" y1="96.4" x2="379.3" y2="83.3" stroke="rgb(0,0,0)"  stroke-width="2.0"/>
<line x1="319.7" y1="79.7" x2="314.5" y2="53.4" stroke="rgb(0,0,0)"  stroke-width="2.0"/>
<line x1="179.8" y1="273.2" x2="203.0" y2="287.1" stroke="rgb(0,0,0)"  stroke-width="2.0"/>
<line x1="176.7" y1="278.3" x2="199.9" y2="292.2" stroke="rgb(0,0,0)"  stroke-width="2.0"/>
<line x1="143.4" y1="308.0" x2="143.2" y2="321.8" stroke="rgb(0,0,0)"  stroke-width="2.0"/>
<line x1="154.3" y1="341.4" x2="166.2" y2="348.4" stroke="rgb(0,0,0)"  stroke-width="2.0"/>
<line x1="110.0" y1="277.5" x2="86.5" y2="290.8" stroke="rgb(0,0,0)"  stroke-width="2.0"/>
<line x1="107.0" y1="272.2" x2="83.5" y2="285.5" stroke="rgb(0,0,0)"  stroke-width="2.0"/>
<line x1="74.8" y1="213.9" x2="51.3" y2="227.2" stroke="rgb(0,0,0)"  stroke-width="2.0"/>
<line x1="109.1" y1="116.9" x2="85.9" y2="103.1" stroke="rgb(0,0,0)"  stroke-width="2.0"/>
<line x1="112.1" y1="111.7" x2="88.9" y2="98.0" stroke="rgb(0,0,0)"  stroke-width="2.0"/>
<line x1="145.8" y1="81.6" x2="145.9" y2="67.4" stroke="rgb(0,0,0)"  stroke-width="2.0"/>
<line x1="133.9" y1="49.7" x2="120.7" y2="44.7" stroke="rgb(0,0,0)"  stroke-width="2.0"/>
<line x1="178.9" y1="112.6" x2="202.4" y2="99.4" stroke="rgb(0,0,0)"  stroke-width="2.0"/>
<line x1="181.8" y1="117.8" x2="205.4" y2="104.7" stroke="rgb(0,0,0)"  stroke-width="2.0"/>
<line x1="312.1" y1="143.7" x2="292.6" y2="109.0" stroke="rgb(0,0,0)"  stroke-width="2.0"/>
<line x1="302.9" y1="142.0" x2="289.3" y2="117.7" stroke="rgb(0,0,0)"  stroke-width="2.0"/>
<line x1="292.6" y1="109.0" x2="266.3" y2="114.2" stroke="rgb(0,0,0)"  stroke-width="2.0"/>
<line x1="252.0" y1="129.6" x2="248.8" y2="156.3" stroke="rgb(0,0,0)"  stroke-width="2.0"/>
<line x1="248.8" y1="156.3" x2="285.0" y2="173.0" stroke="rgb(0,0,0)"  stroke-width="2.0"/>
<line x1="257.3" y1="152.3" x2="282.6" y2="163.9" stroke="rgb(0,0,0)"  stroke-width="2.0"/>
<line x1="285.0" y1="173.0" x2="312.1" y2="143.7" stroke="rgb(0,0,0)"  stroke-width="2.0"/>
<line x1="355.9" y1="96.4" x2="319.7" y2="79.7" stroke="rgb(0,0,0)"  stroke-width="2.0"/>
<line x1="347.4" y1="100.4" x2="322.1" y2="88.7" stroke="rgb(0,0,0)"  stroke-width="2.0"/>
<line x1="319.7" y1="79.7" x2="292.6" y2="109.0" stroke="rgb(0,0,0)"  stroke-width="2.0"/>
<line x1="312.1" y1="143.7" x2="338.4" y2="138.5" stroke="rgb(0,0,0)"  stroke-width="2.0"/>
<line x1="352.7" y1="123.1" x2="355.9" y2="96.4" stroke="rgb(0,0,0)"  stroke-width="2.0"/>
<line x1="178.8" y1="235.6" x2="144.0" y2="214.8" stroke="rgb(0,0,0)"  stroke-width="2.0"/>
<line x1="177.3" y1="226.4" x2="152.9" y2="211.7" stroke="rgb(0,0,0)"  stroke-width="2.0"/>
<line x1="144.0" y1="214.8" x2="144.6" y2="174.9" stroke="rgb(0,0,0)"  stroke-width="2.0"/>
<line x1="144.6" y1="174.9" x2="179.8" y2="155.4" stroke="rgb(0,0,0)"  stroke-width="2.0"/>
<line x1="153.3" y1="178.3" x2="178.0" y2="164.6" stroke="rgb(0,0,0)"  stroke-width="2.0"/>
<line x1="179.8" y1="155.4" x2="214.1" y2="175.8" stroke="rgb(0,0,0)"  stroke-width="2.0"/>
<line x1="214.1" y1="175.8" x2="213.5" y2="215.7" stroke="rgb(0,0,0)"  stroke-width="2.0"/>
<line x1="206.8" y1="181.7" x2="206.4" y2="209.6" stroke="rgb(0,0,0)"  stroke-width="2.0"/>
<line x1="213.5" y1="215.7" x2="178.8" y2="235.6" stroke="rgb(0,0,0)"  stroke-width="2.0"/>
<line x1="108.5" y1="274.9" x2="109.0" y2="234.7" stroke="rgb(0,0,0)"  stroke-width="2.0"/>
<line x1="109.0" y1="234.7" x2="144.0" y2="214.8" stroke="rgb(0,0,0)"  stroke-width="2.0"/>
<line x1="178.8" y1="235.6" x2="178.2" y2="275.8" stroke="rgb(0,0,0)"  stroke-width="2.0"/>
<line x1="178.2" y1="275.8" x2="154.8" y2="288.7" stroke="rgb(0,0,0)"  stroke-width="2.0"/>
<line x1="132.2" y1="288.5" x2="108.5" y2="274.9" stroke="rgb(0,0,0)"  stroke-width="2.0"/>
<line x1="75.3" y1="173.9" x2="110.1" y2="154.5" stroke="rgb(0,0,0)"  stroke-width="2.0"/>
<line x1="84.1" y1="177.3" x2="108.4" y2="163.7" stroke="rgb(0,0,0)"  stroke-width="2.0"/>
<line x1="110.1" y1="154.5" x2="144.6" y2="174.9" stroke="rgb(0,0,0)"  stroke-width="2.0"/>
<line x1="109.0" y1="234.7" x2="74.8" y2="213.9" stroke="rgb(0,0,0)"  stroke-width="2.0"/>
<line x1="107.7" y1="225.5" x2="83.7" y2="210.8" stroke="rgb(0,0,0)"  stroke-width="2.0"/>
<line x1="74.8" y1="213.9" x2="75.3" y2="173.9" stroke="rgb(0,0,0)"  stroke-width="2.0"/>
<line x1="156.8" y1="101.2" x2="180.3" y2="115.2" stroke="rgb(0,0,0)"  stroke-width="2.0"/>
<line x1="180.3" y1="115.2" x2="179.8" y2="155.4" stroke="rgb(0,0,0)"  stroke-width="2.0"/>
<line x1="110.1" y1="154.5" x2="110.6" y2="114.3" stroke="rgb(0,0,0)"  stroke-width="2.0"/>
<line x1="110.6" y1="114.3" x2="134.3" y2="101.0" stroke="rgb(0,0,0)"  stroke-width="2.0"/>
<text x="70.216459" y="101.920416" fill="rgb(255,12,12)"  stroke="rgb(255,12,12)" stroke-width="1" font-size="16" >O</text>
<text x="67.709779" y="302.553045" fill="rgb(255,12,12)"  stroke="rgb(255,12,12)" stroke-width="1" font-size="16" >O</text>
<text x="34.000000" y="241.558920" fill="rgb(191,191,191)"  stroke="rgb(191,191,191)" stroke-width="1" font-size="16" >H</text>
<text x="173.383909" y="362.959453" fill="rgb(102,102,102)"  stroke="rgb(102,102,102)" stroke-width="1" font-size="16" >CH</text>
<text x="197.383909" y="366.639453" fill="rgb(102,102,102)"  stroke="rgb(102,102,102)" stroke-width="1" font-size="13" >3</text>
<text x="139.619132" y="102.585386" fill="rgb(12,12,255)"  stroke="rgb(12,12,255)" stroke-width="1" font-size="16" >N</text>
<text x="140.084446" y="62.403164" fill="rgb(255,12,12)"  stroke="rgb(255,12,12)" stroke-width="1" font-size="16" >O</text>
<text x="82.569431" y="48.000000" fill="rgb(102,102,102)"  stroke="rgb(102,102,102)" stroke-width="1" font-size="16" >H</text>
<text x="94.569431" y="51.680000" fill="rgb(102,102,102)"  stroke="rgb(102,102,102)" stroke-width="1" font-size="13" >3</text>
<text x="101.069431" y="48.000000" fill="rgb(102,102,102)"  stroke="rgb(102,102,102)" stroke-width="1" font-size="16" >C</text>
<text x="209.235318" y="103.681592" fill="rgb(255,12,12)"  stroke="rgb(255,12,12)" stroke-width="1" font-size="16" >O</text>
<text x="293.920284" y="48.604098" fill="rgb(255,12,12)"  stroke="rgb(255,12,12)" stroke-width="1" font-size="16" >HO</text>
<text x="286.788068" y="220.088000" fill="rgb(255,12,12)"  stroke="rgb(255,12,12)" stroke-width="1" font-size="16" >OH</text>
<text x="345.178986" y="143.971644" fill="rgb(178,178,0)"  stroke="rgb(178,178,0)" stroke-width="1" font-size="16" >S</text>
<text x="384.654788" y="84.928552" fill="rgb(191,191,191)"  stroke="rgb(191,191,191)" stroke-width="1" font-size="16" >H</text>
<text x="247.529366" y="124.720453" fill="rgb(178,178,0)"  stroke="rgb(178,178,0)" stroke-width="1" font-size="16" >S</text>
<text x="206.576302" y="304.295624" fill="rgb(255,12,12)"  stroke="rgb(255,12,12)" stroke-width="1" font-size="16" >O</text>
<text x="137.479033" y="303.045028" fill="rgb(12,12,255)"  stroke="rgb(12,12,255)" stroke-width="1" font-size="16" >N</text>
<text x="137.135666" y="342.789735" fill="rgb(255,12,12)"  stroke="rgb(255,12,12)" stroke-width="1" font-size="16" >O</text>
</svg>
</g>
<text font-size="18.000000" fill ="black" font-family="sans-serif"
x="10.000000" y="20.000000" ></text>
</svg>
