<?xml version="1.0"?>
<svg version="1.1" id="topsvg"
xmlns="http://www.w3.org/2000/svg" xmlns:xlink="http://www.w3.org/1999/xlink"
xmlns:cml="http://www.xml-cml.org/schema" x="0" y="0" width="200px" height="200px" viewBox="0 0 100 100">
<title> - Open Babel Depiction</title>
<rect x="0" y="0" width="100" height="100" fill="white"/>
<g transform="translate(0,0)">
<svg width="100" height="100" x="0" y="0" viewBox="0 0 485.147 252.713"
font-family="sans-serif" stroke="rgb(0,0,0)" stroke-width="2"  stroke-linecap="round">
<line x1="311.4" y1="119.8" x2="277.6" y2="100.3" stroke="rgb(0,0,0)"  stroke-width="2.0"/>
<line x1="176.1" y1="119.8" x2="176.1" y2="146.8" stroke="rgb(0,0,0)"  stroke-width="2.0"/>
<line x1="176.1" y1="119.8" x2="152.7" y2="133.3" stroke="rgb(0,0,0)"  stroke-width="2.0"/>
<line x1="74.6" y1="100.3" x2="51.3" y2="113.8" stroke="rgb(0,0,0)"  stroke-width="2.0"/>
<line x1="372.7" y1="83.3" x2="367.3" y2="57.8" stroke="rgb(0,0,0)"  stroke-width="2.0"/>
<line x1="378.6" y1="82.1" x2="373.2" y2="56.6" stroke="rgb(0,0,0)"  stroke-width="2.0"/>
<line x1="422.6" y1="92.1" x2="433.9" y2="85.5" stroke="rgb(0,0,0)"  stroke-width="2.0"/>
<line x1="445.1" y1="66.0" x2="445.1" y2="53.0" stroke="rgb(0,0,0)"  stroke-width="2.0"/>
<line x1="409.3" y1="135.2" x2="428.6" y2="152.6" stroke="rgb(0,0,0)"  stroke-width="2.0"/>
<line x1="405.3" y1="139.6" x2="424.6" y2="157.0" stroke="rgb(0,0,0)"  stroke-width="2.0"/>
<line x1="343.0" y1="174.5" x2="348.4" y2="200.0" stroke="rgb(0,0,0)"  stroke-width="2.0"/>
<line x1="369.1" y1="145.5" x2="343.0" y2="174.5" stroke="rgb(0,0,0)"  stroke-width="2.0"/>
<line x1="359.7" y1="145.2" x2="341.6" y2="165.3" stroke="rgb(0,0,0)"  stroke-width="2.0"/>
<line x1="343.0" y1="174.5" x2="319.2" y2="163.9" stroke="rgb(0,0,0)"  stroke-width="2.0"/>
<line x1="308.6" y1="145.7" x2="311.4" y2="119.8" stroke="rgb(0,0,0)"  stroke-width="2.0"/>
<line x1="311.4" y1="119.8" x2="349.6" y2="111.7" stroke="rgb(0,0,0)"  stroke-width="2.0"/>
<line x1="318.7" y1="125.6" x2="345.2" y2="120.0" stroke="rgb(0,0,0)"  stroke-width="2.0"/>
<line x1="349.6" y1="111.7" x2="369.1" y2="145.5" stroke="rgb(0,0,0)"  stroke-width="2.0"/>
<line x1="209.9" y1="100.3" x2="209.9" y2="61.2" stroke="rgb(0,0,0)"  stroke-width="2.0"/>
<line x1="217.1" y1="94.3" x2="217.1" y2="67.2" stroke="rgb(0,0,0)"  stroke-width="2.0"/>
<line x1="209.9" y1="61.2" x2="243.7" y2="41.7" stroke="rgb(0,0,0)"  stroke-width="2.0"/>
<line x1="243.7" y1="41.7" x2="277.6" y2="61.2" stroke="rgb(0,0,0)"  stroke-width="2.0"/>
<line x1="245.3" y1="51.0" x2="268.8" y2="64.5" stroke="rgb(0,0,0)"  stroke-width="2.0"/>
<line x1="277.6" y1="61.2" x2="277.6" y2="100.3" stroke="rgb(0,0,0)"  stroke-width="2.0"/>
<line x1="277.6" y1="100.3" x2="243.7" y2="119.8" stroke="rgb(0,0,0)"  stroke-width="2.0"/>
<line x1="268.8" y1="97.1" x2="245.3" y2="110.6" stroke="rgb(0,0,0)"  stroke-width="2.0"/>
<line x1="243.7" y1="119.8" x2="209.9" y2="100.3" stroke="rgb(0,0,0)"  stroke-width="2.0"/>
<line x1="108.4" y1="119.8" x2="142.3" y2="100.3" stroke="rgb(0,0,0)"  stroke-width="2.0"/>
<line x1="110.0" y1="110.6" x2="133.5" y2="97.1" stroke="rgb(0,0,0)"  stroke-width="2.0"/>
<line x1="142.3" y1="100.3" x2="142.3" y2="61.2" stroke="rgb(0,0,0)"  stroke-width="2.0"/>
<line x1="142.3" y1="61.2" x2="108.4" y2="41.7" stroke="rgb(0,0,0)"  stroke-width="2.0"/>
<line x1="133.5" y1="64.5" x2="110.0" y2="51.0" stroke="rgb(0,0,0)"  stroke-width="2.0"/>
<line x1="108.4" y1="41.7" x2="74.6" y2="61.3" stroke="rgb(0,0,0)"  stroke-width="2.0"/>
<line x1="74.6" y1="61.3" x2="74.6" y2="100.3" stroke="rgb(0,0,0)"  stroke-width="2.0"/>
<line x1="81.8" y1="67.3" x2="81.8" y2="94.3" stroke="rgb(0,0,0)"  stroke-width="2.0"/>
<line x1="74.6" y1="100.3" x2="108.4" y2="119.8" stroke="rgb(0,0,0)"  stroke-width="2.0"/>
<line x1="142.3" y1="61.2" x2="209.9" y2="61.2" stroke="rgb(0,0,0)"  stroke-width="2.0"/>
<line x1="209.9" y1="100.3" x2="176.1" y2="119.8" stroke="rgb(0,0,0)"  stroke-width="2.0"/>
<line x1="176.1" y1="119.8" x2="142.3" y2="100.3" stroke="rgb(0,0,0)"  stroke-width="2.0"/>
<line x1="375.7" y1="82.7" x2="399.5" y2="93.3" stroke="rgb(0,0,0)"  stroke-width="2.0"/>
<line x1="410.0" y1="111.5" x2="407.3" y2="137.4" stroke="rgb(0,0,0)"  stroke-width="2.0"/>
<line x1="407.3" y1="137.4" x2="369.1" y2="145.5" stroke="rgb(0,0,0)"  stroke-width="2.0"/>
<line x1="349.6" y1="111.7" x2="375.7" y2="82.7" stroke="rgb(0,0,0)"  stroke-width="2.0"/>
<text x="301.287684" y="166.650618" fill="rgb(178,178,0)"  stroke="rgb(178,178,0)" stroke-width="1" font-size="16" >S</text>
<text x="345.074914" y="220.713307" fill="rgb(191,191,191)"  stroke="rgb(191,191,191)" stroke-width="1" font-size="16" >H</text>
<text x="430.276925" y="171.511589" fill="rgb(255,12,12)"  stroke="rgb(255,12,12)" stroke-width="1" font-size="16" >O</text>
<text x="441.143889" y="48.000000" fill="rgb(102,102,102)"  stroke="rgb(102,102,102)" stroke-width="1" font-size="16" >CH</text>
<text x="465.143889" y="51.680000" fill="rgb(102,102,102)"  stroke="rgb(102,102,102)" stroke-width="1" font-size="13" >3</text>
<text x="439.147434" y="87.040566" fill="rgb(255,12,12)"  stroke="rgb(255,12,12)" stroke-width="1" font-size="16" >O</text>
<text x="405.339084" y="106.563918" fill="rgb(12,12,255)"  stroke="rgb(12,12,255)" stroke-width="1" font-size="16" >N</text>
<text x="361.551854" y="52.501229" fill="rgb(255,12,12)"  stroke="rgb(255,12,12)" stroke-width="1" font-size="16" >O</text>
<text x="34.000000" y="128.322812" fill="rgb(191,191,191)"  stroke="rgb(191,191,191)" stroke-width="1" font-size="16" >H</text>
<text x="115.468589" y="147.838999" fill="rgb(102,102,102)"  stroke="rgb(102,102,102)" stroke-width="1" font-size="16" >H</text>
<text x="127.468589" y="151.518999" fill="rgb(102,102,102)"  stroke="rgb(102,102,102)" stroke-width="1" font-size="13" >3</text>
<text x="133.968589" y="147.838999" fill="rgb(102,102,102)"  stroke="rgb(102,102,102)" stroke-width="1" font-size="16" >C</text>
<text x="172.114801" y="167.834805" fill="rgb(102,102,102)"  stroke="rgb(102,102,102)" stroke-width="1" font-size="16" >CH</text>
<text x="196.114801" y="171.514805" fill="rgb(102,102,102)"  stroke="rgb(102,102,102)" stroke-width="1" font-size="13" >3</text>
</svg>
</g>
<text font-size="18.000000" fill ="black" font-family="sans-serif"
x="10.000000" y="20.000000" ></text>
</svg>
