<?xml version="1.0"?>
<svg version="1.1" id="topsvg"
xmlns="http://www.w3.org/2000/svg" xmlns:xlink="http://www.w3.org/1999/xlink"
xmlns:cml="http://www.xml-cml.org/schema" x="0" y="0" width="200px" height="200px" viewBox="0 0 100 100">
<title> - Open Babel Depiction</title>
<rect x="0" y="0" width="100" height="100" fill="white"/>
<g transform="translate(0,0)">
<svg width="100" height="100" x="0" y="0" viewBox="0 0 464.755 277.37"
font-family="sans-serif" stroke="rgb(0,0,0)" stroke-width="2"  stroke-linecap="round">
<line x1="228.8" y1="169.4" x2="267.5" y2="169.4" stroke="rgb(0,0,0)"  stroke-width="2.0"/>
<line x1="287.0" y1="202.7" x2="273.5" y2="226.1" stroke="rgb(0,0,0)"  stroke-width="2.0"/>
<line x1="384.8" y1="168.3" x2="411.8" y2="168.2" stroke="rgb(0,0,0)"  stroke-width="2.0"/>
<line x1="365.2" y1="135.0" x2="378.6" y2="111.6" stroke="rgb(0,0,0)"  stroke-width="2.0"/>
<line x1="206.1" y1="200.6" x2="214.0" y2="225.0" stroke="rgb(0,0,0)"  stroke-width="2.0"/>
<line x1="169.4" y1="150.0" x2="138.1" y2="127.3" stroke="rgb(0,0,0)"  stroke-width="2.0"/>
<line x1="78.6" y1="108.0" x2="53.0" y2="108.0" stroke="rgb(0,0,0)"  stroke-width="2.0"/>
<line x1="101.4" y1="76.7" x2="93.4" y2="52.4" stroke="rgb(0,0,0)"  stroke-width="2.0"/>
<line x1="326.1" y1="202.7" x2="326.1" y2="135.0" stroke="rgb(0,0,0)"  stroke-width="2.0"/>
<line x1="318.9" y1="196.7" x2="318.9" y2="141.0" stroke="rgb(0,0,0)"  stroke-width="2.0"/>
<line x1="326.1" y1="135.0" x2="300.0" y2="135.0" stroke="rgb(0,0,0)"  stroke-width="2.0"/>
<line x1="280.6" y1="146.3" x2="267.5" y2="169.4" stroke="rgb(0,0,0)"  stroke-width="2.0"/>
<line x1="267.5" y1="169.4" x2="287.0" y2="202.7" stroke="rgb(0,0,0)"  stroke-width="2.0"/>
<line x1="276.7" y1="170.9" x2="290.2" y2="193.9" stroke="rgb(0,0,0)"  stroke-width="2.0"/>
<line x1="287.0" y1="202.7" x2="326.1" y2="202.7" stroke="rgb(0,0,0)"  stroke-width="2.0"/>
<line x1="384.8" y1="168.3" x2="365.2" y2="135.0" stroke="rgb(0,0,0)"  stroke-width="2.0"/>
<line x1="375.5" y1="166.8" x2="362.0" y2="143.8" stroke="rgb(0,0,0)"  stroke-width="2.0"/>
<line x1="365.2" y1="135.0" x2="326.1" y2="135.0" stroke="rgb(0,0,0)"  stroke-width="2.0"/>
<line x1="326.1" y1="202.7" x2="352.2" y2="202.7" stroke="rgb(0,0,0)"  stroke-width="2.0"/>
<line x1="371.6" y1="191.4" x2="384.8" y2="168.3" stroke="rgb(0,0,0)"  stroke-width="2.0"/>
<line x1="169.4" y1="175.9" x2="169.4" y2="150.0" stroke="rgb(0,0,0)"  stroke-width="2.0"/>
<line x1="176.6" y1="173.8" x2="176.6" y2="156.0" stroke="rgb(0,0,0)"  stroke-width="2.0"/>
<line x1="169.4" y1="150.0" x2="193.7" y2="142.1" stroke="rgb(0,0,0)"  stroke-width="2.0"/>
<line x1="213.8" y1="148.6" x2="228.8" y2="169.4" stroke="rgb(0,0,0)"  stroke-width="2.0"/>
<line x1="228.8" y1="169.4" x2="206.1" y2="200.6" stroke="rgb(0,0,0)"  stroke-width="2.0"/>
<line x1="219.5" y1="170.0" x2="203.8" y2="191.5" stroke="rgb(0,0,0)"  stroke-width="2.0"/>
<line x1="206.1" y1="200.6" x2="181.7" y2="192.7" stroke="rgb(0,0,0)"  stroke-width="2.0"/>
<line x1="78.6" y1="108.0" x2="101.4" y2="76.7" stroke="rgb(0,0,0)"  stroke-width="2.0"/>
<line x1="88.0" y1="107.4" x2="103.7" y2="85.8" stroke="rgb(0,0,0)"  stroke-width="2.0"/>
<line x1="101.4" y1="76.7" x2="125.7" y2="84.7" stroke="rgb(0,0,0)"  stroke-width="2.0"/>
<line x1="138.1" y1="101.4" x2="138.1" y2="127.3" stroke="rgb(0,0,0)"  stroke-width="2.0"/>
<line x1="130.9" y1="103.6" x2="130.9" y2="121.3" stroke="rgb(0,0,0)"  stroke-width="2.0"/>
<line x1="138.1" y1="127.3" x2="113.7" y2="135.3" stroke="rgb(0,0,0)"  stroke-width="2.0"/>
<line x1="93.7" y1="128.8" x2="78.6" y2="108.0" stroke="rgb(0,0,0)"  stroke-width="2.0"/>
<text x="132.100710" y="96.689173" fill="rgb(12,12,255)"  stroke="rgb(12,12,255)" stroke-width="1" font-size="16" >N</text>
<text x="83.411537" y="48.000000" fill="rgb(191,191,191)"  stroke="rgb(191,191,191)" stroke-width="1" font-size="16" >H</text>
<text x="34.000000" y="116.009146" fill="rgb(191,191,191)"  stroke="rgb(191,191,191)" stroke-width="1" font-size="16" >H</text>
<text x="95.351937" y="147.269520" fill="rgb(178,178,0)"  stroke="rgb(178,178,0)" stroke-width="1" font-size="16" >S</text>
<text x="200.109857" y="146.100710" fill="rgb(178,178,0)"  stroke="rgb(178,178,0)" stroke-width="1" font-size="16" >S</text>
<text x="163.361084" y="196.681057" fill="rgb(12,12,255)"  stroke="rgb(12,12,255)" stroke-width="1" font-size="16" >N</text>
<text x="212.050257" y="245.370230" fill="rgb(191,191,191)"  stroke="rgb(191,191,191)" stroke-width="1" font-size="16" >H</text>
<text x="281.016615" y="143.002313" fill="rgb(178,178,0)"  stroke="rgb(178,178,0)" stroke-width="1" font-size="16" >S</text>
<text x="379.078779" y="108.291187" fill="rgb(127,178,255)"  stroke="rgb(127,178,255)" stroke-width="1" font-size="16" >F</text>
<text x="418.754656" y="176.064500" fill="rgb(191,191,191)"  stroke="rgb(191,191,191)" stroke-width="1" font-size="16" >H</text>
<text x="359.200708" y="210.687567" fill="rgb(178,178,0)"  stroke="rgb(178,178,0)" stroke-width="1" font-size="16" >S</text>
<text x="261.016615" y="245.328583" fill="rgb(127,178,255)"  stroke="rgb(127,178,255)" stroke-width="1" font-size="16" >F</text>
</svg>
</g>
<text font-size="18.000000" fill ="black" font-family="sans-serif"
x="10.000000" y="20.000000" ></text>
</svg>
