<?xml version="1.0"?>
<svg version="1.1" id="topsvg"
xmlns="http://www.w3.org/2000/svg" xmlns:xlink="http://www.w3.org/1999/xlink"
xmlns:cml="http://www.xml-cml.org/schema" x="0" y="0" width="200px" height="200px" viewBox="0 0 100 100">
<title> - Open Babel Depiction</title>
<rect x="0" y="0" width="100" height="100" fill="white"/>
<g transform="translate(0,0)">
<svg width="100" height="100" x="0" y="0" viewBox="0 0 432.703 425.811"
font-family="sans-serif" stroke="rgb(0,0,0)" stroke-width="2"  stroke-linecap="round">
<line x1="205.4" y1="139.1" x2="186.2" y2="172.4" stroke="rgb(0,0,0)"  stroke-width="2.0"/>
<line x1="147.9" y1="176.5" x2="122.2" y2="147.9" stroke="rgb(0,0,0)"  stroke-width="2.0"/>
<line x1="122.2" y1="147.9" x2="105.2" y2="129.0" stroke="rgb(0,0,0)"  stroke-width="2.0"/>
<line x1="119.1" y1="150.7" x2="102.0" y2="131.8" stroke="rgb(0,0,0)"  stroke-width="2.0"/>
<line x1="125.3" y1="145.1" x2="108.3" y2="126.1" stroke="rgb(0,0,0)"  stroke-width="2.0"/>
<line x1="106.6" y1="233.3" x2="73.3" y2="214.1" stroke="rgb(0,0,0)"  stroke-width="2.0"/>
<line x1="74.8" y1="216.7" x2="52.8" y2="229.4" stroke="rgb(0,0,0)"  stroke-width="2.0"/>
<line x1="71.8" y1="211.5" x2="49.8" y2="224.2" stroke="rgb(0,0,0)"  stroke-width="2.0"/>
<line x1="73.3" y1="214.1" x2="73.3" y2="188.6" stroke="rgb(0,0,0)"  stroke-width="2.0"/>
<line x1="84.6" y1="169.1" x2="95.4" y2="162.9" stroke="rgb(0,0,0)"  stroke-width="2.0"/>
<line x1="93.7" y1="332.7" x2="81.0" y2="354.7" stroke="rgb(0,0,0)"  stroke-width="2.0"/>
<line x1="131.9" y1="328.6" x2="157.7" y2="357.2" stroke="rgb(0,0,0)"  stroke-width="2.0"/>
<line x1="157.7" y1="357.2" x2="174.7" y2="376.2" stroke="rgb(0,0,0)"  stroke-width="2.0"/>
<line x1="160.8" y1="354.4" x2="177.8" y2="373.3" stroke="rgb(0,0,0)"  stroke-width="2.0"/>
<line x1="154.6" y1="360.0" x2="171.6" y2="379.0" stroke="rgb(0,0,0)"  stroke-width="2.0"/>
<line x1="173.2" y1="271.8" x2="206.6" y2="291.0" stroke="rgb(0,0,0)"  stroke-width="2.0"/>
<line x1="205.1" y1="288.4" x2="227.1" y2="275.7" stroke="rgb(0,0,0)"  stroke-width="2.0"/>
<line x1="208.1" y1="293.6" x2="230.1" y2="280.9" stroke="rgb(0,0,0)"  stroke-width="2.0"/>
<line x1="206.6" y1="291.0" x2="206.6" y2="316.5" stroke="rgb(0,0,0)"  stroke-width="2.0"/>
<line x1="217.8" y1="336.0" x2="228.6" y2="342.2" stroke="rgb(0,0,0)"  stroke-width="2.0"/>
<line x1="280.0" y1="154.0" x2="282.6" y2="179.4" stroke="rgb(0,0,0)"  stroke-width="2.0"/>
<line x1="274.0" y1="154.7" x2="276.7" y2="180.0" stroke="rgb(0,0,0)"  stroke-width="2.0"/>
<line x1="318.3" y1="131.3" x2="343.2" y2="136.6" stroke="rgb(0,0,0)"  stroke-width="2.0"/>
<line x1="341.0" y1="134.6" x2="358.0" y2="115.7" stroke="rgb(0,0,0)"  stroke-width="2.0"/>
<line x1="345.4" y1="138.6" x2="362.5" y2="119.7" stroke="rgb(0,0,0)"  stroke-width="2.0"/>
<line x1="343.2" y1="136.6" x2="351.1" y2="160.8" stroke="rgb(0,0,0)"  stroke-width="2.0"/>
<line x1="367.8" y1="175.9" x2="380.0" y2="178.5" stroke="rgb(0,0,0)"  stroke-width="2.0"/>
<line x1="289.9" y1="93.5" x2="302.7" y2="71.4" stroke="rgb(0,0,0)"  stroke-width="2.0"/>
<line x1="215.4" y1="78.6" x2="212.7" y2="53.2" stroke="rgb(0,0,0)"  stroke-width="2.0"/>
<line x1="221.3" y1="77.9" x2="218.7" y2="52.6" stroke="rgb(0,0,0)"  stroke-width="2.0"/>
<line x1="197.4" y1="114.5" x2="255.9" y2="194.5" stroke="rgb(0,0,0)"  stroke-width="2.0"/>
<line x1="254.4" y1="192.0" x2="276.5" y2="179.2" stroke="rgb(0,0,0)"  stroke-width="2.0"/>
<line x1="257.4" y1="197.1" x2="279.5" y2="184.4" stroke="rgb(0,0,0)"  stroke-width="2.0"/>
<line x1="255.9" y1="194.5" x2="233.9" y2="181.8" stroke="rgb(0,0,0)"  stroke-width="2.0"/>
<line x1="211.4" y1="181.8" x2="200.6" y2="188.0" stroke="rgb(0,0,0)"  stroke-width="2.0"/>
<line x1="139.9" y1="214.1" x2="173.2" y2="233.3" stroke="rgb(0,0,0)"  stroke-width="2.0"/>
<line x1="173.2" y1="233.3" x2="192.2" y2="216.3" stroke="rgb(0,0,0)"  stroke-width="2.0"/>
<line x1="196.5" y1="195.7" x2="186.2" y2="172.4" stroke="rgb(0,0,0)"  stroke-width="2.0"/>
<line x1="186.2" y1="172.4" x2="147.9" y2="176.5" stroke="rgb(0,0,0)"  stroke-width="2.0"/>
<line x1="181.0" y1="180.2" x2="154.7" y2="183.0" stroke="rgb(0,0,0)"  stroke-width="2.0"/>
<line x1="147.9" y1="176.5" x2="139.9" y2="214.1" stroke="rgb(0,0,0)"  stroke-width="2.0"/>
<line x1="93.7" y1="332.7" x2="131.9" y2="328.6" stroke="rgb(0,0,0)"  stroke-width="2.0"/>
<line x1="98.9" y1="324.9" x2="125.2" y2="322.1" stroke="rgb(0,0,0)"  stroke-width="2.0"/>
<line x1="131.9" y1="328.6" x2="139.9" y2="291.0" stroke="rgb(0,0,0)"  stroke-width="2.0"/>
<line x1="139.9" y1="291.0" x2="106.6" y2="271.8" stroke="rgb(0,0,0)"  stroke-width="2.0"/>
<line x1="131.1" y1="294.3" x2="108.2" y2="281.0" stroke="rgb(0,0,0)"  stroke-width="2.0"/>
<line x1="106.6" y1="271.8" x2="87.7" y2="288.8" stroke="rgb(0,0,0)"  stroke-width="2.0"/>
<line x1="83.3" y1="309.4" x2="93.7" y2="332.7" stroke="rgb(0,0,0)"  stroke-width="2.0"/>
<line x1="277.0" y1="154.3" x2="295.9" y2="137.3" stroke="rgb(0,0,0)"  stroke-width="2.0"/>
<line x1="300.3" y1="116.7" x2="289.9" y2="93.5" stroke="rgb(0,0,0)"  stroke-width="2.0"/>
<line x1="289.9" y1="93.5" x2="251.7" y2="97.5" stroke="rgb(0,0,0)"  stroke-width="2.0"/>
<line x1="284.7" y1="101.3" x2="258.4" y2="104.0" stroke="rgb(0,0,0)"  stroke-width="2.0"/>
<line x1="251.7" y1="97.5" x2="243.7" y2="135.1" stroke="rgb(0,0,0)"  stroke-width="2.0"/>
<line x1="243.7" y1="135.1" x2="277.0" y2="154.3" stroke="rgb(0,0,0)"  stroke-width="2.0"/>
<line x1="251.7" y1="97.5" x2="218.4" y2="78.3" stroke="rgb(0,0,0)"  stroke-width="2.0"/>
<line x1="218.4" y1="78.3" x2="199.4" y2="95.3" stroke="rgb(0,0,0)"  stroke-width="2.0"/>
<line x1="195.1" y1="115.9" x2="205.4" y2="139.1" stroke="rgb(0,0,0)"  stroke-width="2.0"/>
<line x1="205.4" y1="139.1" x2="243.7" y2="135.1" stroke="rgb(0,0,0)"  stroke-width="2.0"/>
<line x1="210.6" y1="131.3" x2="237.0" y2="128.6" stroke="rgb(0,0,0)"  stroke-width="2.0"/>
<line x1="139.9" y1="291.0" x2="173.2" y2="271.8" stroke="rgb(0,0,0)"  stroke-width="2.0"/>
<line x1="173.2" y1="271.8" x2="173.2" y2="233.3" stroke="rgb(0,0,0)"  stroke-width="2.0"/>
<line x1="166.0" y1="265.8" x2="166.0" y2="239.3" stroke="rgb(0,0,0)"  stroke-width="2.0"/>
<line x1="139.9" y1="214.1" x2="106.6" y2="233.3" stroke="rgb(0,0,0)"  stroke-width="2.0"/>
<line x1="138.3" y1="223.3" x2="115.4" y2="236.6" stroke="rgb(0,0,0)"  stroke-width="2.0"/>
<line x1="106.6" y1="233.3" x2="106.6" y2="271.8" stroke="rgb(0,0,0)"  stroke-width="2.0"/>
<text x="388.703090" y="189.181750" fill="rgb(102,102,102)"  stroke="rgb(102,102,102)" stroke-width="1" font-size="16" >CH</text>
<text x="412.703090" y="192.861750" fill="rgb(102,102,102)"  stroke="rgb(102,102,102)" stroke-width="1" font-size="13" >3</text>
<text x="235.868716" y="356.714234" fill="rgb(102,102,102)"  stroke="rgb(102,102,102)" stroke-width="1" font-size="16" >CH</text>
<text x="259.868716" y="360.394234" fill="rgb(102,102,102)"  stroke="rgb(102,102,102)" stroke-width="1" font-size="13" >3</text>
<text x="195.830692" y="215.582034" fill="rgb(178,178,0)"  stroke="rgb(178,178,0)" stroke-width="1" font-size="16" >S</text>
<text x="275.004197" y="200.597034" fill="rgb(255,12,12)"  stroke="rgb(255,12,12)" stroke-width="1" font-size="16" >O</text>
<text x="299.568417" y="136.605053" fill="rgb(12,12,255)"  stroke="rgb(12,12,255)" stroke-width="1" font-size="16" >N</text>
<text x="362.930566" y="116.017443" fill="rgb(255,12,12)"  stroke="rgb(255,12,12)" stroke-width="1" font-size="16" >O</text>
<text x="349.078885" y="181.184478" fill="rgb(255,12,12)"  stroke="rgb(255,12,12)" stroke-width="1" font-size="16" >O</text>
<text x="200.557263" y="337.481858" fill="rgb(255,12,12)"  stroke="rgb(255,12,12)" stroke-width="1" font-size="16" >O</text>
<text x="303.155769" y="68.154300" fill="rgb(191,191,191)"  stroke="rgb(191,191,191)" stroke-width="1" font-size="16" >H</text>
<text x="208.337240" y="48.000000" fill="rgb(255,12,12)"  stroke="rgb(255,12,12)" stroke-width="1" font-size="16" >O</text>
<text x="183.773020" y="111.991981" fill="rgb(12,12,255)"  stroke="rgb(12,12,255)" stroke-width="1" font-size="16" >N</text>
<text x="283.254563" y="183.316940" fill="rgb(255,12,12)"  stroke="rgb(255,12,12)" stroke-width="1" font-size="16" >O</text>
<text x="216.631658" y="183.316940" fill="rgb(255,12,12)"  stroke="rgb(255,12,12)" stroke-width="1" font-size="16" >O</text>
<text x="163.320205" y="202.549316" fill="rgb(102,102,102)"  stroke="rgb(102,102,102)" stroke-width="1" font-size="16" >H</text>
<text x="175.320205" y="206.229316" fill="rgb(102,102,102)"  stroke="rgb(102,102,102)" stroke-width="1" font-size="13" >3</text>
<text x="181.820205" y="202.549316" fill="rgb(102,102,102)"  stroke="rgb(102,102,102)" stroke-width="1" font-size="16" >C</text>
<text x="90.455744" y="127.293632" fill="rgb(12,12,255)"  stroke="rgb(12,12,255)" stroke-width="1" font-size="16" >N</text>
<text x="34.000000" y="241.319977" fill="rgb(255,12,12)"  stroke="rgb(255,12,12)" stroke-width="1" font-size="16" >O</text>
<text x="67.311453" y="183.622848" fill="rgb(255,12,12)"  stroke="rgb(255,12,12)" stroke-width="1" font-size="16" >O</text>
<text x="102.622905" y="164.390472" fill="rgb(102,102,102)"  stroke="rgb(102,102,102)" stroke-width="1" font-size="16" >CH</text>
<text x="126.622905" y="168.070472" fill="rgb(102,102,102)"  stroke="rgb(102,102,102)" stroke-width="1" font-size="13" >3</text>
<text x="72.038024" y="305.522672" fill="rgb(178,178,0)"  stroke="rgb(178,178,0)" stroke-width="1" font-size="16" >S</text>
<text x="68.450672" y="373.973425" fill="rgb(191,191,191)"  stroke="rgb(191,191,191)" stroke-width="1" font-size="16" >H</text>
<text x="177.412973" y="393.811074" fill="rgb(12,12,255)"  stroke="rgb(12,12,255)" stroke-width="1" font-size="16" >N</text>
<text x="233.868716" y="279.784729" fill="rgb(255,12,12)"  stroke="rgb(255,12,12)" stroke-width="1" font-size="16" >O</text>
</svg>
</g>
<text font-size="18.000000" fill ="black" font-family="sans-serif"
x="10.000000" y="20.000000" ></text>
</svg>
