<?xml version="1.0"?>
<svg version="1.1" id="topsvg"
xmlns="http://www.w3.org/2000/svg" xmlns:xlink="http://www.w3.org/1999/xlink"
xmlns:cml="http://www.xml-cml.org/schema" x="0" y="0" width="200px" height="200px" viewBox="0 0 100 100">
<title> - Open Babel Depiction</title>
<rect x="0" y="0" width="100" height="100" fill="white"/>
<g transform="translate(0,0)">
<svg width="100" height="100" x="0" y="0" viewBox="0 0 526.287 372.7"
font-family="sans-serif" stroke="rgb(0,0,0)" stroke-width="2"  stroke-linecap="round">
<line x1="300.6" y1="169.3" x2="262.6" y2="169.3" stroke="rgb(0,0,0)"  stroke-width="2.0"/>
<line x1="166.4" y1="136.5" x2="147.1" y2="103.3" stroke="rgb(0,0,0)"  stroke-width="2.0"/>
<line x1="148.0" y1="106.1" x2="123.8" y2="114.1" stroke="rgb(0,0,0)"  stroke-width="2.0"/>
<line x1="146.1" y1="100.4" x2="122.0" y2="108.4" stroke="rgb(0,0,0)"  stroke-width="2.0"/>
<line x1="147.1" y1="103.3" x2="152.3" y2="78.4" stroke="rgb(0,0,0)"  stroke-width="2.0"/>
<line x1="145.3" y1="57.0" x2="136.0" y2="48.7" stroke="rgb(0,0,0)"  stroke-width="2.0"/>
<line x1="166.4" y1="136.5" x2="89.5" y2="136.5" stroke="rgb(0,0,0)"  stroke-width="2.0"/>
<line x1="91.7" y1="138.5" x2="74.7" y2="157.5" stroke="rgb(0,0,0)"  stroke-width="2.0"/>
<line x1="87.3" y1="134.5" x2="70.2" y2="153.4" stroke="rgb(0,0,0)"  stroke-width="2.0"/>
<line x1="89.5" y1="136.5" x2="81.6" y2="112.3" stroke="rgb(0,0,0)"  stroke-width="2.0"/>
<line x1="64.9" y1="97.3" x2="52.7" y2="94.7" stroke="rgb(0,0,0)"  stroke-width="2.0"/>
<line x1="106.4" y1="216.3" x2="81.7" y2="230.8" stroke="rgb(0,0,0)"  stroke-width="2.0"/>
<line x1="322.9" y1="138.6" x2="311.2" y2="102.4" stroke="rgb(0,0,0)"  stroke-width="2.0"/>
<line x1="311.2" y1="102.4" x2="303.4" y2="78.6" stroke="rgb(0,0,0)"  stroke-width="2.0"/>
<line x1="307.2" y1="103.7" x2="299.4" y2="79.9" stroke="rgb(0,0,0)"  stroke-width="2.0"/>
<line x1="315.1" y1="101.1" x2="307.4" y2="77.3" stroke="rgb(0,0,0)"  stroke-width="2.0"/>
<line x1="359.0" y1="188.3" x2="389.8" y2="210.7" stroke="rgb(0,0,0)"  stroke-width="2.0"/>
<line x1="448.3" y1="229.7" x2="473.3" y2="229.7" stroke="rgb(0,0,0)"  stroke-width="2.0"/>
<line x1="425.9" y1="260.4" x2="437.7" y2="296.6" stroke="rgb(0,0,0)"  stroke-width="2.0"/>
<line x1="437.7" y1="296.6" x2="445.4" y2="320.3" stroke="rgb(0,0,0)"  stroke-width="2.0"/>
<line x1="441.7" y1="295.3" x2="449.4" y2="319.0" stroke="rgb(0,0,0)"  stroke-width="2.0"/>
<line x1="433.7" y1="297.9" x2="441.4" y2="321.6" stroke="rgb(0,0,0)"  stroke-width="2.0"/>
<line x1="204.9" y1="136.5" x2="204.9" y2="203.1" stroke="rgb(0,0,0)"  stroke-width="2.0"/>
<line x1="212.1" y1="142.5" x2="212.1" y2="197.1" stroke="rgb(0,0,0)"  stroke-width="2.0"/>
<line x1="204.9" y1="203.1" x2="230.3" y2="203.1" stroke="rgb(0,0,0)"  stroke-width="2.0"/>
<line x1="249.7" y1="191.8" x2="262.6" y2="169.3" stroke="rgb(0,0,0)"  stroke-width="2.0"/>
<line x1="262.6" y1="169.3" x2="243.3" y2="136.5" stroke="rgb(0,0,0)"  stroke-width="2.0"/>
<line x1="253.3" y1="167.8" x2="240.1" y2="145.3" stroke="rgb(0,0,0)"  stroke-width="2.0"/>
<line x1="243.3" y1="136.5" x2="204.9" y2="136.5" stroke="rgb(0,0,0)"  stroke-width="2.0"/>
<line x1="106.4" y1="216.3" x2="129.3" y2="226.3" stroke="rgb(0,0,0)"  stroke-width="2.0"/>
<line x1="149.8" y1="221.8" x2="166.4" y2="203.1" stroke="rgb(0,0,0)"  stroke-width="2.0"/>
<line x1="166.4" y1="203.1" x2="147.2" y2="170.3" stroke="rgb(0,0,0)"  stroke-width="2.0"/>
<line x1="157.2" y1="201.6" x2="144.0" y2="179.1" stroke="rgb(0,0,0)"  stroke-width="2.0"/>
<line x1="147.2" y1="170.3" x2="110.1" y2="178.5" stroke="rgb(0,0,0)"  stroke-width="2.0"/>
<line x1="110.1" y1="178.5" x2="106.4" y2="216.3" stroke="rgb(0,0,0)"  stroke-width="2.0"/>
<line x1="116.6" y1="185.2" x2="114.1" y2="211.0" stroke="rgb(0,0,0)"  stroke-width="2.0"/>
<line x1="359.0" y1="162.9" x2="359.0" y2="188.3" stroke="rgb(0,0,0)"  stroke-width="2.0"/>
<line x1="351.8" y1="165.0" x2="351.8" y2="182.3" stroke="rgb(0,0,0)"  stroke-width="2.0"/>
<line x1="359.0" y1="188.3" x2="335.3" y2="196.0" stroke="rgb(0,0,0)"  stroke-width="2.0"/>
<line x1="315.3" y1="189.5" x2="300.6" y2="169.3" stroke="rgb(0,0,0)"  stroke-width="2.0"/>
<line x1="300.6" y1="169.3" x2="322.9" y2="138.6" stroke="rgb(0,0,0)"  stroke-width="2.0"/>
<line x1="309.9" y1="168.7" x2="325.2" y2="147.6" stroke="rgb(0,0,0)"  stroke-width="2.0"/>
<line x1="322.9" y1="138.6" x2="346.7" y2="146.3" stroke="rgb(0,0,0)"  stroke-width="2.0"/>
<line x1="448.3" y1="229.7" x2="425.9" y2="260.4" stroke="rgb(0,0,0)"  stroke-width="2.0"/>
<line x1="438.9" y1="230.3" x2="423.6" y2="251.3" stroke="rgb(0,0,0)"  stroke-width="2.0"/>
<line x1="425.9" y1="260.4" x2="402.2" y2="252.7" stroke="rgb(0,0,0)"  stroke-width="2.0"/>
<line x1="389.8" y1="236.1" x2="389.8" y2="210.7" stroke="rgb(0,0,0)"  stroke-width="2.0"/>
<line x1="397.0" y1="233.9" x2="397.0" y2="216.7" stroke="rgb(0,0,0)"  stroke-width="2.0"/>
<line x1="389.8" y1="210.7" x2="413.6" y2="202.9" stroke="rgb(0,0,0)"  stroke-width="2.0"/>
<line x1="433.6" y1="209.4" x2="448.3" y2="229.7" stroke="rgb(0,0,0)"  stroke-width="2.0"/>
<line x1="166.4" y1="203.1" x2="204.9" y2="203.1" stroke="rgb(0,0,0)"  stroke-width="2.0"/>
<line x1="204.9" y1="136.5" x2="166.4" y2="136.5" stroke="rgb(0,0,0)"  stroke-width="2.0"/>
<line x1="166.4" y1="136.5" x2="147.2" y2="170.3" stroke="rgb(0,0,0)"  stroke-width="2.0"/>
<text x="316.899374" y="208.059796" fill="rgb(178,178,0)"  stroke="rgb(178,178,0)" stroke-width="1" font-size="16" >S</text>
<text x="64.497072" y="245.355693" fill="rgb(191,191,191)"  stroke="rgb(191,191,191)" stroke-width="1" font-size="16" >H</text>
<text x="135.183091" y="239.530126" fill="rgb(178,178,0)"  stroke="rgb(178,178,0)" stroke-width="1" font-size="16" >S</text>
<text x="293.409879" y="74.270268" fill="rgb(12,12,255)"  stroke="rgb(12,12,255)" stroke-width="1" font-size="16" >N</text>
<text x="353.045990" y="158.308247" fill="rgb(12,12,255)"  stroke="rgb(12,12,255)" stroke-width="1" font-size="16" >N</text>
<text x="419.940753" y="206.910138" fill="rgb(178,178,0)"  stroke="rgb(178,178,0)" stroke-width="1" font-size="16" >S</text>
<text x="480.287392" y="237.658286" fill="rgb(191,191,191)"  stroke="rgb(191,191,191)" stroke-width="1" font-size="16" >H</text>
<text x="443.430248" y="340.699665" fill="rgb(12,12,255)"  stroke="rgb(12,12,255)" stroke-width="1" font-size="16" >N</text>
<text x="383.794137" y="256.661686" fill="rgb(12,12,255)"  stroke="rgb(12,12,255)" stroke-width="1" font-size="16" >N</text>
<text x="237.318335" y="211.107423" fill="rgb(178,178,0)"  stroke="rgb(178,178,0)" stroke-width="1" font-size="16" >S</text>
<text x="104.545739" y="123.282830" fill="rgb(255,12,12)"  stroke="rgb(255,12,12)" stroke-width="1" font-size="16" >O</text>
<text x="148.963252" y="73.644463" fill="rgb(255,12,12)"  stroke="rgb(255,12,12)" stroke-width="1" font-size="16" >O</text>
<text x="100.304527" y="48.000000" fill="rgb(102,102,102)"  stroke="rgb(102,102,102)" stroke-width="1" font-size="16" >H</text>
<text x="112.304527" y="51.680000" fill="rgb(102,102,102)"  stroke="rgb(102,102,102)" stroke-width="1" font-size="13" >3</text>
<text x="118.804527" y="48.000000" fill="rgb(102,102,102)"  stroke="rgb(102,102,102)" stroke-width="1" font-size="16" >C</text>
<text x="57.767895" y="173.110560" fill="rgb(255,12,12)"  stroke="rgb(255,12,12)" stroke-width="1" font-size="16" >O</text>
<text x="71.616878" y="107.956216" fill="rgb(255,12,12)"  stroke="rgb(255,12,12)" stroke-width="1" font-size="16" >O</text>
<text x="14.000000" y="99.960501" fill="rgb(102,102,102)"  stroke="rgb(102,102,102)" stroke-width="1" font-size="16" >H</text>
<text x="26.000000" y="103.640501" fill="rgb(102,102,102)"  stroke="rgb(102,102,102)" stroke-width="1" font-size="13" >3</text>
<text x="32.500000" y="99.960501" fill="rgb(102,102,102)"  stroke="rgb(102,102,102)" stroke-width="1" font-size="16" >C</text>
</svg>
</g>
<text font-size="18.000000" fill ="black" font-family="sans-serif"
x="10.000000" y="20.000000" ></text>
</svg>
