<?xml version="1.0"?>
<svg version="1.1" id="topsvg"
xmlns="http://www.w3.org/2000/svg" xmlns:xlink="http://www.w3.org/1999/xlink"
xmlns:cml="http://www.xml-cml.org/schema" x="0" y="0" width="200px" height="200px" viewBox="0 0 100 100">
<title> - Open Babel Depiction</title>
<rect x="0" y="0" width="100" height="100" fill="white"/>
<g transform="translate(0,0)">
<svg width="100" height="100" x="0" y="0" viewBox="0 0 393.195 399.805"
font-family="sans-serif" stroke="rgb(0,0,0)" stroke-width="2"  stroke-linecap="round">
<line x1="208.9" y1="152.4" x2="221.2" y2="190.4" stroke="rgb(0,0,0)"  stroke-width="2.0"/>
<line x1="221.2" y1="295.1" x2="195.9" y2="285.7" stroke="rgb(0,0,0)"  stroke-width="2.0"/>
<line x1="181.6" y1="268.3" x2="179.3" y2="254.5" stroke="rgb(0,0,0)"  stroke-width="2.0"/>
<line x1="221.2" y1="295.1" x2="217.0" y2="321.8" stroke="rgb(0,0,0)"  stroke-width="2.0"/>
<line x1="225.1" y1="342.8" x2="236.0" y2="351.6" stroke="rgb(0,0,0)"  stroke-width="2.0"/>
<line x1="320.8" y1="327.5" x2="342.7" y2="343.4" stroke="rgb(0,0,0)"  stroke-width="2.0"/>
<line x1="139.2" y1="160.0" x2="139.2" y2="187.0" stroke="rgb(0,0,0)"  stroke-width="2.0"/>
<line x1="133.2" y1="160.0" x2="133.2" y2="187.0" stroke="rgb(0,0,0)"  stroke-width="2.0"/>
<line x1="63.5" y1="152.4" x2="55.2" y2="178.0" stroke="rgb(0,0,0)"  stroke-width="2.0"/>
<line x1="63.5" y1="87.6" x2="55.2" y2="62.0" stroke="rgb(0,0,0)"  stroke-width="2.0"/>
<line x1="133.2" y1="80.0" x2="133.2" y2="53.0" stroke="rgb(0,0,0)"  stroke-width="2.0"/>
<line x1="139.2" y1="80.0" x2="139.2" y2="53.0" stroke="rgb(0,0,0)"  stroke-width="2.0"/>
<line x1="208.9" y1="87.6" x2="217.2" y2="62.0" stroke="rgb(0,0,0)"  stroke-width="2.0"/>
<line x1="221.2" y1="255.1" x2="259.3" y2="242.8" stroke="rgb(0,0,0)"  stroke-width="2.0"/>
<line x1="224.7" y1="246.4" x2="251.3" y2="237.8" stroke="rgb(0,0,0)"  stroke-width="2.0"/>
<line x1="259.3" y1="242.8" x2="259.3" y2="215.8" stroke="rgb(0,0,0)"  stroke-width="2.0"/>
<line x1="246.9" y1="198.7" x2="221.2" y2="190.4" stroke="rgb(0,0,0)"  stroke-width="2.0"/>
<line x1="221.2" y1="190.4" x2="197.7" y2="222.8" stroke="rgb(0,0,0)"  stroke-width="2.0"/>
<line x1="223.5" y1="199.5" x2="207.1" y2="222.1" stroke="rgb(0,0,0)"  stroke-width="2.0"/>
<line x1="197.7" y1="222.8" x2="221.2" y2="255.1" stroke="rgb(0,0,0)"  stroke-width="2.0"/>
<line x1="320.8" y1="327.5" x2="320.8" y2="300.5" stroke="rgb(0,0,0)"  stroke-width="2.0"/>
<line x1="308.5" y1="283.5" x2="282.8" y2="275.1" stroke="rgb(0,0,0)"  stroke-width="2.0"/>
<line x1="282.8" y1="275.1" x2="259.3" y2="307.5" stroke="rgb(0,0,0)"  stroke-width="2.0"/>
<line x1="285.1" y1="284.2" x2="268.6" y2="306.9" stroke="rgb(0,0,0)"  stroke-width="2.0"/>
<line x1="259.3" y1="307.5" x2="282.8" y2="339.8" stroke="rgb(0,0,0)"  stroke-width="2.0"/>
<line x1="282.8" y1="339.8" x2="320.8" y2="327.5" stroke="rgb(0,0,0)"  stroke-width="2.0"/>
<line x1="286.3" y1="331.1" x2="312.9" y2="322.5" stroke="rgb(0,0,0)"  stroke-width="2.0"/>
<line x1="47.6" y1="109.5" x2="63.5" y2="87.6" stroke="rgb(0,0,0)"  stroke-width="2.0"/>
<line x1="63.5" y1="87.6" x2="101.6" y2="100.0" stroke="rgb(0,0,0)"  stroke-width="2.0"/>
<line x1="67.0" y1="96.3" x2="93.6" y2="105.0" stroke="rgb(0,0,0)"  stroke-width="2.0"/>
<line x1="101.6" y1="100.0" x2="101.6" y2="140.0" stroke="rgb(0,0,0)"  stroke-width="2.0"/>
<line x1="101.6" y1="140.0" x2="63.5" y2="152.4" stroke="rgb(0,0,0)"  stroke-width="2.0"/>
<line x1="93.6" y1="135.0" x2="67.0" y2="143.7" stroke="rgb(0,0,0)"  stroke-width="2.0"/>
<line x1="63.5" y1="152.4" x2="47.6" y2="130.5" stroke="rgb(0,0,0)"  stroke-width="2.0"/>
<line x1="170.8" y1="100.0" x2="208.9" y2="87.6" stroke="rgb(0,0,0)"  stroke-width="2.0"/>
<line x1="178.8" y1="105.0" x2="205.4" y2="96.3" stroke="rgb(0,0,0)"  stroke-width="2.0"/>
<line x1="208.9" y1="87.6" x2="224.7" y2="109.5" stroke="rgb(0,0,0)"  stroke-width="2.0"/>
<line x1="224.7" y1="130.5" x2="208.9" y2="152.4" stroke="rgb(0,0,0)"  stroke-width="2.0"/>
<line x1="208.9" y1="152.4" x2="170.8" y2="140.0" stroke="rgb(0,0,0)"  stroke-width="2.0"/>
<line x1="205.4" y1="143.7" x2="178.8" y2="135.0" stroke="rgb(0,0,0)"  stroke-width="2.0"/>
<line x1="170.8" y1="140.0" x2="170.8" y2="100.0" stroke="rgb(0,0,0)"  stroke-width="2.0"/>
<line x1="282.8" y1="275.1" x2="259.3" y2="242.8" stroke="rgb(0,0,0)"  stroke-width="2.0"/>
<line x1="221.2" y1="255.1" x2="221.2" y2="295.1" stroke="rgb(0,0,0)"  stroke-width="2.0"/>
<line x1="221.2" y1="295.1" x2="259.3" y2="307.5" stroke="rgb(0,0,0)"  stroke-width="2.0"/>
<line x1="136.2" y1="160.0" x2="101.6" y2="140.0" stroke="rgb(0,0,0)"  stroke-width="2.0"/>
<line x1="101.6" y1="100.0" x2="136.2" y2="80.0" stroke="rgb(0,0,0)"  stroke-width="2.0"/>
<line x1="136.2" y1="80.0" x2="170.8" y2="100.0" stroke="rgb(0,0,0)"  stroke-width="2.0"/>
<line x1="170.8" y1="140.0" x2="136.2" y2="160.0" stroke="rgb(0,0,0)"  stroke-width="2.0"/>
<text x="45.150730" y="57.597060" fill="rgb(191,191,191)"  stroke="rgb(191,191,191)" stroke-width="1" font-size="16" >H</text>
<text x="130.194687" y="208.000000" fill="rgb(255,12,12)"  stroke="rgb(255,12,12)" stroke-width="1" font-size="16" >O</text>
<text x="45.150730" y="198.402940" fill="rgb(191,191,191)"  stroke="rgb(191,191,191)" stroke-width="1" font-size="16" >H</text>
<text x="34.000000" y="128.000000" fill="rgb(178,178,0)"  stroke="rgb(178,178,0)" stroke-width="1" font-size="16" >S</text>
<text x="314.834575" y="295.484980" fill="rgb(178,178,0)"  stroke="rgb(178,178,0)" stroke-width="1" font-size="16" >S</text>
<text x="130.194687" y="48.000000" fill="rgb(255,12,12)"  stroke="rgb(255,12,12)" stroke-width="1" font-size="16" >O</text>
<text x="215.238643" y="57.597060" fill="rgb(191,191,191)"  stroke="rgb(191,191,191)" stroke-width="1" font-size="16" >H</text>
<text x="226.389374" y="128.000000" fill="rgb(178,178,0)"  stroke="rgb(178,178,0)" stroke-width="1" font-size="16" >S</text>
<text x="347.195255" y="358.996390" fill="rgb(191,191,191)"  stroke="rgb(191,191,191)" stroke-width="1" font-size="16" >H</text>
<text x="242.067103" y="367.804649" fill="rgb(102,102,102)"  stroke="rgb(102,102,102)" stroke-width="1" font-size="16" >CH</text>
<text x="266.067103" y="371.484649" fill="rgb(102,102,102)"  stroke="rgb(102,102,102)" stroke-width="1" font-size="13" >3</text>
<text x="208.981265" y="342.631834" fill="rgb(255,12,12)"  stroke="rgb(255,12,12)" stroke-width="1" font-size="16" >O</text>
<text x="151.146733" y="249.683647" fill="rgb(102,102,102)"  stroke="rgb(102,102,102)" stroke-width="1" font-size="16" >H</text>
<text x="163.146733" y="253.363647" fill="rgb(102,102,102)"  stroke="rgb(102,102,102)" stroke-width="1" font-size="13" >3</text>
<text x="169.646733" y="249.683647" fill="rgb(102,102,102)"  stroke="rgb(102,102,102)" stroke-width="1" font-size="16" >C</text>
<text x="177.765700" y="289.132211" fill="rgb(255,12,12)"  stroke="rgb(255,12,12)" stroke-width="1" font-size="16" >O</text>
<text x="253.280904" y="210.763620" fill="rgb(178,178,0)"  stroke="rgb(178,178,0)" stroke-width="1" font-size="16" >S</text>
</svg>
</g>
<text font-size="18.000000" fill ="black" font-family="sans-serif"
x="10.000000" y="20.000000" ></text>
</svg>
