<?xml version="1.0"?>
<svg version="1.1" id="topsvg"
xmlns="http://www.w3.org/2000/svg" xmlns:xlink="http://www.w3.org/1999/xlink"
xmlns:cml="http://www.xml-cml.org/schema" x="0" y="0" width="200px" height="200px" viewBox="0 0 100 100">
<title> - Open Babel Depiction</title>
<rect x="0" y="0" width="100" height="100" fill="white"/>
<g transform="translate(0,0)">
<svg width="100" height="100" x="0" y="0" viewBox="0 0 597.957 432.837"
font-family="sans-serif" stroke="rgb(0,0,0)" stroke-width="2"  stroke-linecap="round">
<line x1="296.3" y1="279.5" x2="261.7" y2="299.5" stroke="rgb(0,0,0)"  stroke-width="2.0"/>
<line x1="257.5" y1="339.3" x2="287.2" y2="366.1" stroke="rgb(0,0,0)"  stroke-width="2.0"/>
<line x1="287.2" y1="366.1" x2="307.3" y2="384.1" stroke="rgb(0,0,0)"  stroke-width="2.0"/>
<line x1="290.0" y1="363.0" x2="310.1" y2="381.0" stroke="rgb(0,0,0)"  stroke-width="2.0"/>
<line x1="284.4" y1="369.2" x2="304.5" y2="387.3" stroke="rgb(0,0,0)"  stroke-width="2.0"/>
<line x1="218.4" y1="347.6" x2="207.4" y2="372.3" stroke="rgb(0,0,0)"  stroke-width="2.0"/>
<line x1="198.4" y1="313.0" x2="158.6" y2="308.8" stroke="rgb(0,0,0)"  stroke-width="2.0"/>
<line x1="95.3" y1="322.3" x2="71.9" y2="335.8" stroke="rgb(0,0,0)"  stroke-width="2.0"/>
<line x1="99.5" y1="282.5" x2="69.7" y2="255.7" stroke="rgb(0,0,0)"  stroke-width="2.0"/>
<line x1="69.7" y1="255.7" x2="49.7" y2="237.6" stroke="rgb(0,0,0)"  stroke-width="2.0"/>
<line x1="66.9" y1="258.8" x2="46.9" y2="240.8" stroke="rgb(0,0,0)"  stroke-width="2.0"/>
<line x1="72.5" y1="252.6" x2="52.5" y2="234.5" stroke="rgb(0,0,0)"  stroke-width="2.0"/>
<line x1="138.6" y1="274.2" x2="149.6" y2="249.5" stroke="rgb(0,0,0)"  stroke-width="2.0"/>
<line x1="427.1" y1="256.5" x2="454.1" y2="256.5" stroke="rgb(0,0,0)"  stroke-width="2.0"/>
<line x1="427.1" y1="262.5" x2="454.1" y2="262.5" stroke="rgb(0,0,0)"  stroke-width="2.0"/>
<line x1="407.6" y1="304.2" x2="416.0" y2="329.9" stroke="rgb(0,0,0)"  stroke-width="2.0"/>
<line x1="418.2" y1="331.9" x2="400.2" y2="352.0" stroke="rgb(0,0,0)"  stroke-width="2.0"/>
<line x1="413.8" y1="327.9" x2="395.7" y2="348.0" stroke="rgb(0,0,0)"  stroke-width="2.0"/>
<line x1="416.0" y1="329.9" x2="442.4" y2="335.5" stroke="rgb(0,0,0)"  stroke-width="2.0"/>
<line x1="463.8" y1="328.6" x2="473.2" y2="318.2" stroke="rgb(0,0,0)"  stroke-width="2.0"/>
<line x1="400.8" y1="226.2" x2="413.1" y2="188.2" stroke="rgb(0,0,0)"  stroke-width="2.0"/>
<line x1="406.5" y1="228.1" x2="418.8" y2="190.0" stroke="rgb(0,0,0)"  stroke-width="2.0"/>
<line x1="392.5" y1="159.8" x2="365.5" y2="159.8" stroke="rgb(0,0,0)"  stroke-width="2.0"/>
<line x1="392.5" y1="153.8" x2="365.5" y2="153.8" stroke="rgb(0,0,0)"  stroke-width="2.0"/>
<line x1="412.0" y1="112.0" x2="403.6" y2="86.4" stroke="rgb(0,0,0)"  stroke-width="2.0"/>
<line x1="401.4" y1="84.4" x2="419.5" y2="64.3" stroke="rgb(0,0,0)"  stroke-width="2.0"/>
<line x1="405.9" y1="88.4" x2="423.9" y2="68.3" stroke="rgb(0,0,0)"  stroke-width="2.0"/>
<line x1="403.6" y1="86.4" x2="377.2" y2="80.7" stroke="rgb(0,0,0)"  stroke-width="2.0"/>
<line x1="360.5" y1="65.7" x2="356.2" y2="52.4" stroke="rgb(0,0,0)"  stroke-width="2.0"/>
<line x1="523.3" y1="136.8" x2="546.7" y2="123.3" stroke="rgb(0,0,0)"  stroke-width="2.0"/>
<line x1="218.4" y1="347.6" x2="198.4" y2="313.0" stroke="rgb(0,0,0)"  stroke-width="2.0"/>
<line x1="221.6" y1="338.8" x2="207.6" y2="314.6" stroke="rgb(0,0,0)"  stroke-width="2.0"/>
<line x1="198.4" y1="313.0" x2="216.4" y2="292.9" stroke="rgb(0,0,0)"  stroke-width="2.0"/>
<line x1="237.0" y1="288.5" x2="261.7" y2="299.5" stroke="rgb(0,0,0)"  stroke-width="2.0"/>
<line x1="261.7" y1="299.5" x2="257.5" y2="339.3" stroke="rgb(0,0,0)"  stroke-width="2.0"/>
<line x1="253.9" y1="304.7" x2="251.0" y2="332.6" stroke="rgb(0,0,0)"  stroke-width="2.0"/>
<line x1="257.5" y1="339.3" x2="218.4" y2="347.6" stroke="rgb(0,0,0)"  stroke-width="2.0"/>
<line x1="95.3" y1="322.3" x2="99.5" y2="282.5" stroke="rgb(0,0,0)"  stroke-width="2.0"/>
<line x1="103.1" y1="317.0" x2="106.0" y2="289.2" stroke="rgb(0,0,0)"  stroke-width="2.0"/>
<line x1="99.5" y1="282.5" x2="138.6" y2="274.2" stroke="rgb(0,0,0)"  stroke-width="2.0"/>
<line x1="138.6" y1="274.2" x2="158.6" y2="308.8" stroke="rgb(0,0,0)"  stroke-width="2.0"/>
<line x1="135.3" y1="283.0" x2="149.3" y2="307.2" stroke="rgb(0,0,0)"  stroke-width="2.0"/>
<line x1="158.6" y1="308.8" x2="140.5" y2="328.9" stroke="rgb(0,0,0)"  stroke-width="2.0"/>
<line x1="119.9" y1="333.2" x2="95.3" y2="322.3" stroke="rgb(0,0,0)"  stroke-width="2.0"/>
<line x1="330.9" y1="219.5" x2="365.6" y2="239.5" stroke="rgb(0,0,0)"  stroke-width="2.0"/>
<line x1="332.5" y1="228.8" x2="356.8" y2="242.8" stroke="rgb(0,0,0)"  stroke-width="2.0"/>
<line x1="365.6" y1="239.5" x2="365.6" y2="279.5" stroke="rgb(0,0,0)"  stroke-width="2.0"/>
<line x1="365.6" y1="279.5" x2="330.9" y2="299.5" stroke="rgb(0,0,0)"  stroke-width="2.0"/>
<line x1="356.8" y1="276.3" x2="332.5" y2="290.3" stroke="rgb(0,0,0)"  stroke-width="2.0"/>
<line x1="330.9" y1="299.5" x2="296.3" y2="279.5" stroke="rgb(0,0,0)"  stroke-width="2.0"/>
<line x1="296.3" y1="279.5" x2="296.3" y2="239.5" stroke="rgb(0,0,0)"  stroke-width="2.0"/>
<line x1="303.5" y1="273.5" x2="303.5" y2="245.5" stroke="rgb(0,0,0)"  stroke-width="2.0"/>
<line x1="296.3" y1="239.5" x2="330.9" y2="219.5" stroke="rgb(0,0,0)"  stroke-width="2.0"/>
<line x1="523.3" y1="176.8" x2="488.7" y2="196.8" stroke="rgb(0,0,0)"  stroke-width="2.0"/>
<line x1="488.7" y1="196.8" x2="454.0" y2="176.8" stroke="rgb(0,0,0)"  stroke-width="2.0"/>
<line x1="487.1" y1="187.5" x2="462.8" y2="173.5" stroke="rgb(0,0,0)"  stroke-width="2.0"/>
<line x1="454.0" y1="176.8" x2="454.0" y2="136.8" stroke="rgb(0,0,0)"  stroke-width="2.0"/>
<line x1="454.0" y1="136.8" x2="488.7" y2="116.8" stroke="rgb(0,0,0)"  stroke-width="2.0"/>
<line x1="462.8" y1="140.0" x2="487.1" y2="126.0" stroke="rgb(0,0,0)"  stroke-width="2.0"/>
<line x1="488.7" y1="116.8" x2="523.3" y2="136.8" stroke="rgb(0,0,0)"  stroke-width="2.0"/>
<line x1="523.3" y1="136.8" x2="523.3" y2="176.8" stroke="rgb(0,0,0)"  stroke-width="2.0"/>
<line x1="516.1" y1="142.8" x2="516.1" y2="170.8" stroke="rgb(0,0,0)"  stroke-width="2.0"/>
<line x1="427.1" y1="259.5" x2="411.3" y2="281.4" stroke="rgb(0,0,0)"  stroke-width="2.0"/>
<line x1="391.3" y1="287.9" x2="365.6" y2="279.5" stroke="rgb(0,0,0)"  stroke-width="2.0"/>
<line x1="365.6" y1="239.5" x2="403.6" y2="227.2" stroke="rgb(0,0,0)"  stroke-width="2.0"/>
<line x1="403.6" y1="227.2" x2="427.1" y2="259.5" stroke="rgb(0,0,0)"  stroke-width="2.0"/>
<line x1="428.4" y1="128.4" x2="454.0" y2="136.8" stroke="rgb(0,0,0)"  stroke-width="2.0"/>
<line x1="454.0" y1="176.8" x2="416.0" y2="189.1" stroke="rgb(0,0,0)"  stroke-width="2.0"/>
<line x1="416.0" y1="189.1" x2="392.5" y2="156.8" stroke="rgb(0,0,0)"  stroke-width="2.0"/>
<line x1="392.5" y1="156.8" x2="408.4" y2="134.9" stroke="rgb(0,0,0)"  stroke-width="2.0"/>
<text x="397.630718" y="299.885969" fill="rgb(12,12,255)"  stroke="rgb(12,12,255)" stroke-width="1" font-size="16" >N</text>
<text x="383.226173" y="367.654022" fill="rgb(255,12,12)"  stroke="rgb(255,12,12)" stroke-width="1" font-size="16" >O</text>
<text x="449.117301" y="346.244697" fill="rgb(255,12,12)"  stroke="rgb(255,12,12)" stroke-width="1" font-size="16" >O</text>
<text x="477.882526" y="316.518904" fill="rgb(102,102,102)"  stroke="rgb(102,102,102)" stroke-width="1" font-size="16" >CH</text>
<text x="501.882526" y="320.198904" fill="rgb(102,102,102)"  stroke="rgb(102,102,102)" stroke-width="1" font-size="13" >3</text>
<text x="346.479987" y="164.761669" fill="rgb(255,12,12)"  stroke="rgb(255,12,12)" stroke-width="1" font-size="16" >O</text>
<text x="409.991397" y="132.400989" fill="rgb(12,12,255)"  stroke="rgb(12,12,255)" stroke-width="1" font-size="16" >N</text>
<text x="461.142128" y="267.525289" fill="rgb(255,12,12)"  stroke="rgb(255,12,12)" stroke-width="1" font-size="16" >O</text>
<text x="424.395942" y="64.632935" fill="rgb(255,12,12)"  stroke="rgb(255,12,12)" stroke-width="1" font-size="16" >O</text>
<text x="358.504814" y="86.042261" fill="rgb(255,12,12)"  stroke="rgb(255,12,12)" stroke-width="1" font-size="16" >O</text>
<text x="326.144134" y="48.000000" fill="rgb(102,102,102)"  stroke="rgb(102,102,102)" stroke-width="1" font-size="16" >H</text>
<text x="338.144134" y="51.680000" fill="rgb(102,102,102)"  stroke="rgb(102,102,102)" stroke-width="1" font-size="13" >3</text>
<text x="344.644134" y="48.000000" fill="rgb(102,102,102)"  stroke="rgb(102,102,102)" stroke-width="1" font-size="16" >C</text>
<text x="551.956706" y="124.761669" fill="rgb(191,191,191)"  stroke="rgb(191,191,191)" stroke-width="1" font-size="16" >H</text>
<text x="54.629431" y="350.256805" fill="rgb(191,191,191)"  stroke="rgb(191,191,191)" stroke-width="1" font-size="16" >H</text>
<text x="310.935856" y="400.836613" fill="rgb(12,12,255)"  stroke="rgb(12,12,255)" stroke-width="1" font-size="16" >N</text>
<text x="184.088900" y="392.164451" fill="rgb(30,239,30)"  stroke="rgb(30,239,30)" stroke-width="1" font-size="16" >Cl</text>
<text x="219.123590" y="291.255823" fill="rgb(178,178,0)"  stroke="rgb(178,178,0)" stroke-width="1" font-size="16" >S</text>
<text x="125.812266" y="346.526271" fill="rgb(178,178,0)"  stroke="rgb(178,178,0)" stroke-width="1" font-size="16" >S</text>
<text x="34.000000" y="236.945481" fill="rgb(12,12,255)"  stroke="rgb(12,12,255)" stroke-width="1" font-size="16" >N</text>
<text x="148.846956" y="245.617643" fill="rgb(30,239,30)"  stroke="rgb(30,239,30)" stroke-width="1" font-size="16" >Cl</text>
</svg>
</g>
<text font-size="18.000000" fill ="black" font-family="sans-serif"
x="10.000000" y="20.000000" ></text>
</svg>
