<?xml version="1.0"?>
<svg version="1.1" id="topsvg"
xmlns="http://www.w3.org/2000/svg" xmlns:xlink="http://www.w3.org/1999/xlink"
xmlns:cml="http://www.xml-cml.org/schema" x="0" y="0" width="200px" height="200px" viewBox="0 0 100 100">
<title> - Open Babel Depiction</title>
<rect x="0" y="0" width="100" height="100" fill="white"/>
<g transform="translate(0,0)">
<svg width="100" height="100" x="0" y="0" viewBox="0 0 394.914 309.373"
font-family="sans-serif" stroke="rgb(0,0,0)" stroke-width="2"  stroke-linecap="round">
<line x1="169.4" y1="138.2" x2="150.4" y2="171.2" stroke="rgb(0,0,0)"  stroke-width="2.0"/>
<line x1="137.5" y1="231.5" x2="140.2" y2="256.4" stroke="rgb(0,0,0)"  stroke-width="2.0"/>
<line x1="243.3" y1="152.9" x2="245.9" y2="177.9" stroke="rgb(0,0,0)"  stroke-width="2.0"/>
<line x1="237.3" y1="153.6" x2="239.9" y2="178.5" stroke="rgb(0,0,0)"  stroke-width="2.0"/>
<line x1="281.3" y1="130.5" x2="305.9" y2="135.7" stroke="rgb(0,0,0)"  stroke-width="2.0"/>
<line x1="303.6" y1="133.7" x2="320.4" y2="115.0" stroke="rgb(0,0,0)"  stroke-width="2.0"/>
<line x1="308.1" y1="137.7" x2="324.9" y2="119.0" stroke="rgb(0,0,0)"  stroke-width="2.0"/>
<line x1="305.9" y1="135.7" x2="313.6" y2="159.6" stroke="rgb(0,0,0)"  stroke-width="2.0"/>
<line x1="330.4" y1="174.6" x2="342.2" y2="177.1" stroke="rgb(0,0,0)"  stroke-width="2.0"/>
<line x1="253.1" y1="93.0" x2="265.7" y2="71.2" stroke="rgb(0,0,0)"  stroke-width="2.0"/>
<line x1="179.2" y1="78.2" x2="176.6" y2="53.2" stroke="rgb(0,0,0)"  stroke-width="2.0"/>
<line x1="185.2" y1="77.6" x2="182.6" y2="52.6" stroke="rgb(0,0,0)"  stroke-width="2.0"/>
<line x1="165.9" y1="108.5" x2="245.0" y2="142.1" stroke="rgb(0,0,0)"  stroke-width="2.0"/>
<line x1="243.5" y1="139.5" x2="265.2" y2="126.9" stroke="rgb(0,0,0)"  stroke-width="2.0"/>
<line x1="246.5" y1="144.7" x2="268.2" y2="132.1" stroke="rgb(0,0,0)"  stroke-width="2.0"/>
<line x1="245.0" y1="142.1" x2="223.2" y2="129.5" stroke="rgb(0,0,0)"  stroke-width="2.0"/>
<line x1="200.7" y1="129.5" x2="190.2" y2="135.6" stroke="rgb(0,0,0)"  stroke-width="2.0"/>
<line x1="104.5" y1="212.4" x2="137.5" y2="231.5" stroke="rgb(0,0,0)"  stroke-width="2.0"/>
<line x1="113.3" y1="209.2" x2="135.9" y2="222.2" stroke="rgb(0,0,0)"  stroke-width="2.0"/>
<line x1="137.5" y1="231.5" x2="156.2" y2="214.7" stroke="rgb(0,0,0)"  stroke-width="2.0"/>
<line x1="160.6" y1="194.1" x2="150.4" y2="171.2" stroke="rgb(0,0,0)"  stroke-width="2.0"/>
<line x1="150.4" y1="171.2" x2="112.5" y2="175.2" stroke="rgb(0,0,0)"  stroke-width="2.0"/>
<line x1="145.1" y1="179.0" x2="119.2" y2="181.7" stroke="rgb(0,0,0)"  stroke-width="2.0"/>
<line x1="112.5" y1="175.2" x2="104.5" y2="212.4" stroke="rgb(0,0,0)"  stroke-width="2.0"/>
<line x1="240.3" y1="153.3" x2="258.9" y2="136.5" stroke="rgb(0,0,0)"  stroke-width="2.0"/>
<line x1="263.3" y1="115.9" x2="253.1" y2="93.0" stroke="rgb(0,0,0)"  stroke-width="2.0"/>
<line x1="253.1" y1="93.0" x2="215.2" y2="96.9" stroke="rgb(0,0,0)"  stroke-width="2.0"/>
<line x1="247.9" y1="100.7" x2="221.9" y2="103.5" stroke="rgb(0,0,0)"  stroke-width="2.0"/>
<line x1="215.2" y1="96.9" x2="207.3" y2="134.2" stroke="rgb(0,0,0)"  stroke-width="2.0"/>
<line x1="207.3" y1="134.2" x2="240.3" y2="153.3" stroke="rgb(0,0,0)"  stroke-width="2.0"/>
<line x1="215.2" y1="96.9" x2="182.2" y2="77.9" stroke="rgb(0,0,0)"  stroke-width="2.0"/>
<line x1="182.2" y1="77.9" x2="163.6" y2="94.7" stroke="rgb(0,0,0)"  stroke-width="2.0"/>
<line x1="159.2" y1="115.3" x2="169.4" y2="138.2" stroke="rgb(0,0,0)"  stroke-width="2.0"/>
<line x1="169.4" y1="138.2" x2="207.3" y2="134.2" stroke="rgb(0,0,0)"  stroke-width="2.0"/>
<line x1="174.6" y1="130.4" x2="200.6" y2="127.7" stroke="rgb(0,0,0)"  stroke-width="2.0"/>
<line x1="71.8" y1="153.7" x2="47.9" y2="161.4" stroke="rgb(0,0,0)"  stroke-width="2.0"/>
<line x1="47.9" y1="161.4" x2="40.0" y2="198.7" stroke="rgb(0,0,0)"  stroke-width="2.0"/>
<line x1="40.0" y1="198.7" x2="58.7" y2="215.5" stroke="rgb(0,0,0)"  stroke-width="2.0"/>
<line x1="80.7" y1="220.2" x2="104.5" y2="212.4" stroke="rgb(0,0,0)"  stroke-width="2.0"/>
<line x1="112.5" y1="175.2" x2="93.8" y2="158.4" stroke="rgb(0,0,0)"  stroke-width="2.0"/>
<text x="262.607803" y="135.763043" fill="rgb(12,12,255)"  stroke="rgb(12,12,255)" stroke-width="1" font-size="16" >N</text>
<text x="152.975753" y="150.053872" fill="rgb(102,102,102)"  stroke="rgb(102,102,102)" stroke-width="1" font-size="16" >H</text>
<text x="164.975753" y="153.733872" fill="rgb(102,102,102)"  stroke="rgb(102,102,102)" stroke-width="1" font-size="13" >3</text>
<text x="171.475753" y="150.053872" fill="rgb(102,102,102)"  stroke="rgb(102,102,102)" stroke-width="1" font-size="16" >C</text>
<text x="205.970648" y="131.004261" fill="rgb(255,12,12)"  stroke="rgb(255,12,12)" stroke-width="1" font-size="16" >O</text>
<text x="271.960439" y="131.004261" fill="rgb(255,12,12)"  stroke="rgb(255,12,12)" stroke-width="1" font-size="16" >O</text>
<text x="147.912804" y="111.383869" fill="rgb(12,12,255)"  stroke="rgb(12,12,255)" stroke-width="1" font-size="16" >N</text>
<text x="172.243591" y="48.000000" fill="rgb(255,12,12)"  stroke="rgb(255,12,12)" stroke-width="1" font-size="16" >O</text>
<text x="266.161064" y="67.962775" fill="rgb(191,191,191)"  stroke="rgb(191,191,191)" stroke-width="1" font-size="16" >H</text>
<text x="350.914439" y="187.840106" fill="rgb(102,102,102)"  stroke="rgb(102,102,102)" stroke-width="1" font-size="16" >CH</text>
<text x="374.914439" y="191.520106" fill="rgb(102,102,102)"  stroke="rgb(102,102,102)" stroke-width="1" font-size="13" >3</text>
<text x="311.647775" y="179.918832" fill="rgb(255,12,12)"  stroke="rgb(255,12,12)" stroke-width="1" font-size="16" >O</text>
<text x="325.367824" y="115.371077" fill="rgb(255,12,12)"  stroke="rgb(255,12,12)" stroke-width="1" font-size="16" >O</text>
<text x="238.277015" y="199.146912" fill="rgb(255,12,12)"  stroke="rgb(255,12,12)" stroke-width="1" font-size="16" >O</text>
<text x="159.855892" y="213.989510" fill="rgb(178,178,0)"  stroke="rgb(178,178,0)" stroke-width="1" font-size="16" >S</text>
<text x="135.525105" y="277.373379" fill="rgb(191,191,191)"  stroke="rgb(191,191,191)" stroke-width="1" font-size="16" >H</text>
<text x="62.313241" y="232.206562" fill="rgb(255,12,12)"  stroke="rgb(255,12,12)" stroke-width="1" font-size="16" >O</text>
<text x="78.155789" y="157.673234" fill="rgb(255,12,12)"  stroke="rgb(255,12,12)" stroke-width="1" font-size="16" >O</text>
</svg>
</g>
<text font-size="18.000000" fill ="black" font-family="sans-serif"
x="10.000000" y="20.000000" ></text>
</svg>
