<?xml version="1.0"?>
<svg version="1.1" id="topsvg"
xmlns="http://www.w3.org/2000/svg" xmlns:xlink="http://www.w3.org/1999/xlink"
xmlns:cml="http://www.xml-cml.org/schema" x="0" y="0" width="200px" height="200px" viewBox="0 0 100 100">
<title> - Open Babel Depiction</title>
<rect x="0" y="0" width="100" height="100" fill="white"/>
<g transform="translate(0,0)">
<svg width="100" height="100" x="0" y="0" viewBox="0 0 571.174 404.176"
font-family="sans-serif" stroke="rgb(0,0,0)" stroke-width="2"  stroke-linecap="round">
<line x1="245.5" y1="163.6" x2="286.2" y2="155.0" stroke="rgb(0,0,0)"  stroke-width="2.0"/>
<line x1="388.3" y1="201.7" x2="402.6" y2="226.4" stroke="rgb(0,0,0)"  stroke-width="2.0"/>
<line x1="422.1" y1="237.7" x2="437.7" y2="237.7" stroke="rgb(0,0,0)"  stroke-width="2.0"/>
<line x1="388.3" y1="201.7" x2="374.1" y2="226.4" stroke="rgb(0,0,0)"  stroke-width="2.0"/>
<line x1="354.6" y1="237.7" x2="339.0" y2="237.7" stroke="rgb(0,0,0)"  stroke-width="2.0"/>
<line x1="490.5" y1="155.0" x2="518.5" y2="160.9" stroke="rgb(0,0,0)"  stroke-width="2.0"/>
<line x1="146.3" y1="109.5" x2="155.2" y2="82.3" stroke="rgb(0,0,0)"  stroke-width="2.0"/>
<line x1="152.0" y1="111.4" x2="160.9" y2="84.2" stroke="rgb(0,0,0)"  stroke-width="2.0"/>
<line x1="99.8" y1="109.4" x2="80.7" y2="88.2" stroke="rgb(0,0,0)"  stroke-width="2.0"/>
<line x1="81.3" y1="91.1" x2="53.3" y2="97.1" stroke="rgb(0,0,0)"  stroke-width="2.0"/>
<line x1="80.1" y1="85.3" x2="52.1" y2="91.2" stroke="rgb(0,0,0)"  stroke-width="2.0"/>
<line x1="80.7" y1="88.2" x2="89.5" y2="61.0" stroke="rgb(0,0,0)"  stroke-width="2.0"/>
<line x1="106.2" y1="45.9" x2="121.5" y2="42.7" stroke="rgb(0,0,0)"  stroke-width="2.0"/>
<line x1="96.3" y1="161.6" x2="68.3" y2="167.5" stroke="rgb(0,0,0)"  stroke-width="2.0"/>
<line x1="95.0" y1="155.7" x2="67.1" y2="161.7" stroke="rgb(0,0,0)"  stroke-width="2.0"/>
<line x1="120.6" y1="221.5" x2="93.8" y2="231.5" stroke="rgb(0,0,0)"  stroke-width="2.0"/>
<line x1="199.7" y1="261.5" x2="190.4" y2="288.5" stroke="rgb(0,0,0)"  stroke-width="2.0"/>
<line x1="194.1" y1="259.6" x2="184.7" y2="286.6" stroke="rgb(0,0,0)"  stroke-width="2.0"/>
<line x1="233.7" y1="268.1" x2="249.0" y2="292.2" stroke="rgb(0,0,0)"  stroke-width="2.0"/>
<line x1="248.9" y1="289.2" x2="277.5" y2="288.0" stroke="rgb(0,0,0)"  stroke-width="2.0"/>
<line x1="249.1" y1="295.2" x2="277.7" y2="294.0" stroke="rgb(0,0,0)"  stroke-width="2.0"/>
<line x1="249.0" y1="292.2" x2="235.8" y2="317.5" stroke="rgb(0,0,0)"  stroke-width="2.0"/>
<line x1="236.7" y1="340.0" x2="245.0" y2="353.2" stroke="rgb(0,0,0)"  stroke-width="2.0"/>
<line x1="243.0" y1="228.6" x2="271.4" y2="231.7" stroke="rgb(0,0,0)"  stroke-width="2.0"/>
<line x1="242.4" y1="234.5" x2="270.8" y2="237.6" stroke="rgb(0,0,0)"  stroke-width="2.0"/>
<line x1="354.7" y1="177.2" x2="367.6" y2="137.7" stroke="rgb(0,0,0)"  stroke-width="2.0"/>
<line x1="349.7" y1="169.3" x2="358.9" y2="141.2" stroke="rgb(0,0,0)"  stroke-width="2.0"/>
<line x1="367.6" y1="137.7" x2="339.7" y2="106.8" stroke="rgb(0,0,0)"  stroke-width="2.0"/>
<line x1="339.7" y1="106.8" x2="299.0" y2="115.4" stroke="rgb(0,0,0)"  stroke-width="2.0"/>
<line x1="335.4" y1="115.1" x2="306.4" y2="121.2" stroke="rgb(0,0,0)"  stroke-width="2.0"/>
<line x1="299.0" y1="115.4" x2="286.2" y2="155.0" stroke="rgb(0,0,0)"  stroke-width="2.0"/>
<line x1="286.2" y1="155.0" x2="314.0" y2="185.9" stroke="rgb(0,0,0)"  stroke-width="2.0"/>
<line x1="295.6" y1="154.6" x2="315.4" y2="176.6" stroke="rgb(0,0,0)"  stroke-width="2.0"/>
<line x1="314.0" y1="185.9" x2="354.7" y2="177.2" stroke="rgb(0,0,0)"  stroke-width="2.0"/>
<line x1="462.7" y1="185.9" x2="422.0" y2="177.2" stroke="rgb(0,0,0)"  stroke-width="2.0"/>
<line x1="458.3" y1="177.6" x2="429.4" y2="171.4" stroke="rgb(0,0,0)"  stroke-width="2.0"/>
<line x1="422.0" y1="177.2" x2="409.1" y2="137.7" stroke="rgb(0,0,0)"  stroke-width="2.0"/>
<line x1="409.1" y1="137.7" x2="437.0" y2="106.8" stroke="rgb(0,0,0)"  stroke-width="2.0"/>
<line x1="418.5" y1="138.0" x2="438.3" y2="116.1" stroke="rgb(0,0,0)"  stroke-width="2.0"/>
<line x1="437.0" y1="106.8" x2="477.6" y2="115.4" stroke="rgb(0,0,0)"  stroke-width="2.0"/>
<line x1="477.6" y1="115.4" x2="490.5" y2="155.0" stroke="rgb(0,0,0)"  stroke-width="2.0"/>
<line x1="472.7" y1="123.4" x2="481.8" y2="151.5" stroke="rgb(0,0,0)"  stroke-width="2.0"/>
<line x1="490.5" y1="155.0" x2="462.7" y2="185.9" stroke="rgb(0,0,0)"  stroke-width="2.0"/>
<line x1="177.0" y1="141.4" x2="164.2" y2="180.9" stroke="rgb(0,0,0)"  stroke-width="2.0"/>
<line x1="182.0" y1="149.3" x2="172.9" y2="177.4" stroke="rgb(0,0,0)"  stroke-width="2.0"/>
<line x1="164.2" y1="180.9" x2="192.0" y2="211.8" stroke="rgb(0,0,0)"  stroke-width="2.0"/>
<line x1="192.0" y1="211.8" x2="232.7" y2="203.2" stroke="rgb(0,0,0)"  stroke-width="2.0"/>
<line x1="196.4" y1="203.5" x2="225.3" y2="197.4" stroke="rgb(0,0,0)"  stroke-width="2.0"/>
<line x1="232.7" y1="203.2" x2="245.5" y2="163.6" stroke="rgb(0,0,0)"  stroke-width="2.0"/>
<line x1="245.5" y1="163.6" x2="217.7" y2="132.7" stroke="rgb(0,0,0)"  stroke-width="2.0"/>
<line x1="236.2" y1="164.0" x2="216.4" y2="142.0" stroke="rgb(0,0,0)"  stroke-width="2.0"/>
<line x1="217.7" y1="132.7" x2="177.0" y2="141.4" stroke="rgb(0,0,0)"  stroke-width="2.0"/>
<line x1="95.7" y1="158.7" x2="123.5" y2="189.6" stroke="rgb(0,0,0)"  stroke-width="2.0"/>
<line x1="123.5" y1="189.6" x2="164.2" y2="180.9" stroke="rgb(0,0,0)"  stroke-width="2.0"/>
<line x1="177.0" y1="141.4" x2="149.2" y2="110.5" stroke="rgb(0,0,0)"  stroke-width="2.0"/>
<line x1="149.2" y1="110.5" x2="121.2" y2="116.4" stroke="rgb(0,0,0)"  stroke-width="2.0"/>
<line x1="104.5" y1="131.5" x2="95.7" y2="158.7" stroke="rgb(0,0,0)"  stroke-width="2.0"/>
<line x1="143.8" y1="243.6" x2="175.5" y2="239.3" stroke="rgb(0,0,0)"  stroke-width="2.0"/>
<line x1="148.8" y1="235.7" x2="168.6" y2="233.0" stroke="rgb(0,0,0)"  stroke-width="2.0"/>
<line x1="175.5" y1="239.3" x2="192.0" y2="211.8" stroke="rgb(0,0,0)"  stroke-width="2.0"/>
<line x1="123.5" y1="189.6" x2="120.6" y2="221.5" stroke="rgb(0,0,0)"  stroke-width="2.0"/>
<line x1="130.1" y1="196.2" x2="128.3" y2="216.2" stroke="rgb(0,0,0)"  stroke-width="2.0"/>
<line x1="120.6" y1="221.5" x2="143.8" y2="243.6" stroke="rgb(0,0,0)"  stroke-width="2.0"/>
<line x1="233.7" y1="246.0" x2="242.7" y2="231.5" stroke="rgb(0,0,0)"  stroke-width="2.0"/>
<line x1="242.7" y1="231.5" x2="232.7" y2="203.2" stroke="rgb(0,0,0)"  stroke-width="2.0"/>
<line x1="175.5" y1="239.3" x2="196.9" y2="260.5" stroke="rgb(0,0,0)"  stroke-width="2.0"/>
<line x1="196.9" y1="260.5" x2="213.9" y2="258.6" stroke="rgb(0,0,0)"  stroke-width="2.0"/>
<line x1="409.1" y1="137.7" x2="367.6" y2="137.7" stroke="rgb(0,0,0)"  stroke-width="2.0"/>
<line x1="354.7" y1="177.2" x2="388.3" y2="201.7" stroke="rgb(0,0,0)"  stroke-width="2.0"/>
<line x1="388.3" y1="201.7" x2="422.0" y2="177.2" stroke="rgb(0,0,0)"  stroke-width="2.0"/>
<text x="34.000000" y="104.844625" fill="rgb(255,12,12)"  stroke="rgb(255,12,12)" stroke-width="1" font-size="16" >O</text>
<text x="87.529494" y="56.646453" fill="rgb(255,12,12)"  stroke="rgb(255,12,12)" stroke-width="1" font-size="16" >O</text>
<text x="130.207855" y="48.000000" fill="rgb(102,102,102)"  stroke="rgb(102,102,102)" stroke-width="1" font-size="16" >CH</text>
<text x="154.207855" y="51.680000" fill="rgb(102,102,102)"  stroke="rgb(102,102,102)" stroke-width="1" font-size="13" >3</text>
<text x="48.976095" y="175.301613" fill="rgb(255,12,12)"  stroke="rgb(255,12,12)" stroke-width="1" font-size="16" >O</text>
<text x="75.672802" y="244.100879" fill="rgb(191,191,191)"  stroke="rgb(191,191,191)" stroke-width="1" font-size="16" >H</text>
<text x="102.505589" y="127.103440" fill="rgb(12,12,255)"  stroke="rgb(12,12,255)" stroke-width="1" font-size="16" >N</text>
<text x="177.293391" y="307.840836" fill="rgb(255,12,12)"  stroke="rgb(255,12,12)" stroke-width="1" font-size="16" >O</text>
<text x="220.780604" y="265.068876" fill="rgb(12,12,255)"  stroke="rgb(12,12,255)" stroke-width="1" font-size="16" >N</text>
<text x="284.579709" y="298.507548" fill="rgb(255,12,12)"  stroke="rgb(255,12,12)" stroke-width="1" font-size="16" >O</text>
<text x="223.721417" y="337.039857" fill="rgb(255,12,12)"  stroke="rgb(255,12,12)" stroke-width="1" font-size="16" >O</text>
<text x="247.968057" y="372.176409" fill="rgb(102,102,102)"  stroke="rgb(102,102,102)" stroke-width="1" font-size="16" >CH</text>
<text x="271.968057" y="375.856409" fill="rgb(102,102,102)"  stroke="rgb(102,102,102)" stroke-width="1" font-size="13" >3</text>
<text x="278.042027" y="244.052032" fill="rgb(255,12,12)"  stroke="rgb(255,12,12)" stroke-width="1" font-size="16" >O</text>
<text x="525.174072" y="171.621071" fill="rgb(191,191,191)"  stroke="rgb(191,191,191)" stroke-width="1" font-size="16" >H</text>
<text x="403.138989" y="245.693260" fill="rgb(255,12,12)"  stroke="rgb(255,12,12)" stroke-width="1" font-size="16" >O</text>
<text x="446.726129" y="245.693260" fill="rgb(102,102,102)"  stroke="rgb(102,102,102)" stroke-width="1" font-size="16" >CH</text>
<text x="470.726129" y="249.373260" fill="rgb(102,102,102)"  stroke="rgb(102,102,102)" stroke-width="1" font-size="13" >3</text>
<text x="361.551850" y="245.693260" fill="rgb(255,12,12)"  stroke="rgb(255,12,12)" stroke-width="1" font-size="16" >O</text>
<text x="299.964710" y="245.693260" fill="rgb(102,102,102)"  stroke="rgb(102,102,102)" stroke-width="1" font-size="16" >H</text>
<text x="311.964710" y="249.373260" fill="rgb(102,102,102)"  stroke="rgb(102,102,102)" stroke-width="1" font-size="13" >3</text>
<text x="318.464710" y="245.693260" fill="rgb(102,102,102)"  stroke="rgb(102,102,102)" stroke-width="1" font-size="16" >C</text>
<text x="156.035083" y="78.905268" fill="rgb(255,12,12)"  stroke="rgb(255,12,12)" stroke-width="1" font-size="16" >O</text>
</svg>
</g>
<text font-size="18.000000" fill ="black" font-family="sans-serif"
x="10.000000" y="20.000000" ></text>
</svg>
