<?xml version="1.0"?>
<svg version="1.1" id="topsvg"
xmlns="http://www.w3.org/2000/svg" xmlns:xlink="http://www.w3.org/1999/xlink"
xmlns:cml="http://www.xml-cml.org/schema" x="0" y="0" width="200px" height="200px" viewBox="0 0 100 100">
<title> - Open Babel Depiction</title>
<rect x="0" y="0" width="100" height="100" fill="white"/>
<g transform="translate(0,0)">
<svg width="100" height="100" x="0" y="0" viewBox="0 0 477.454 311.209"
font-family="sans-serif" stroke="rgb(0,0,0)" stroke-width="2"  stroke-linecap="round">
<line x1="312.4" y1="148.4" x2="272.4" y2="148.4" stroke="rgb(0,0,0)"  stroke-width="2.0"/>
<line x1="248.9" y1="180.8" x2="261.2" y2="218.8" stroke="rgb(0,0,0)"  stroke-width="2.0"/>
<line x1="261.2" y1="218.8" x2="269.6" y2="244.5" stroke="rgb(0,0,0)"  stroke-width="2.0"/>
<line x1="265.2" y1="217.6" x2="273.6" y2="243.2" stroke="rgb(0,0,0)"  stroke-width="2.0"/>
<line x1="257.2" y1="220.1" x2="265.6" y2="245.8" stroke="rgb(0,0,0)"  stroke-width="2.0"/>
<line x1="176.2" y1="188.4" x2="176.2" y2="215.4" stroke="rgb(0,0,0)"  stroke-width="2.0"/>
<line x1="80.0" y1="148.4" x2="53.0" y2="148.4" stroke="rgb(0,0,0)"  stroke-width="2.0"/>
<line x1="103.5" y1="116.1" x2="91.2" y2="78.0" stroke="rgb(0,0,0)"  stroke-width="2.0"/>
<line x1="91.2" y1="78.0" x2="82.8" y2="52.4" stroke="rgb(0,0,0)"  stroke-width="2.0"/>
<line x1="87.2" y1="79.3" x2="78.8" y2="53.7" stroke="rgb(0,0,0)"  stroke-width="2.0"/>
<line x1="95.1" y1="76.7" x2="86.8" y2="51.1" stroke="rgb(0,0,0)"  stroke-width="2.0"/>
<line x1="176.2" y1="108.4" x2="176.2" y2="81.4" stroke="rgb(0,0,0)"  stroke-width="2.0"/>
<line x1="337.7" y1="223.2" x2="315.8" y2="239.1" stroke="rgb(0,0,0)"  stroke-width="2.0"/>
<line x1="334.1" y1="218.4" x2="312.3" y2="234.2" stroke="rgb(0,0,0)"  stroke-width="2.0"/>
<line x1="378.0" y1="245.5" x2="382.3" y2="258.8" stroke="rgb(0,0,0)"  stroke-width="2.0"/>
<line x1="397.5" y1="197.8" x2="424.5" y2="197.8" stroke="rgb(0,0,0)"  stroke-width="2.0"/>
<line x1="397.5" y1="203.8" x2="424.5" y2="203.8" stroke="rgb(0,0,0)"  stroke-width="2.0"/>
<line x1="373.9" y1="128.4" x2="395.8" y2="112.6" stroke="rgb(0,0,0)"  stroke-width="2.0"/>
<line x1="210.8" y1="168.4" x2="210.8" y2="128.4" stroke="rgb(0,0,0)"  stroke-width="2.0"/>
<line x1="210.8" y1="128.4" x2="236.5" y2="120.1" stroke="rgb(0,0,0)"  stroke-width="2.0"/>
<line x1="256.5" y1="126.6" x2="272.4" y2="148.4" stroke="rgb(0,0,0)"  stroke-width="2.0"/>
<line x1="272.4" y1="148.4" x2="248.9" y2="180.8" stroke="rgb(0,0,0)"  stroke-width="2.0"/>
<line x1="263.0" y1="149.1" x2="246.6" y2="171.7" stroke="rgb(0,0,0)"  stroke-width="2.0"/>
<line x1="248.9" y1="180.8" x2="210.8" y2="168.4" stroke="rgb(0,0,0)"  stroke-width="2.0"/>
<line x1="80.0" y1="148.4" x2="103.5" y2="116.1" stroke="rgb(0,0,0)"  stroke-width="2.0"/>
<line x1="89.4" y1="147.8" x2="105.8" y2="125.2" stroke="rgb(0,0,0)"  stroke-width="2.0"/>
<line x1="103.5" y1="116.1" x2="141.6" y2="128.4" stroke="rgb(0,0,0)"  stroke-width="2.0"/>
<line x1="141.6" y1="128.4" x2="141.6" y2="168.4" stroke="rgb(0,0,0)"  stroke-width="2.0"/>
<line x1="134.4" y1="134.4" x2="134.4" y2="162.4" stroke="rgb(0,0,0)"  stroke-width="2.0"/>
<line x1="141.6" y1="168.4" x2="115.9" y2="176.8" stroke="rgb(0,0,0)"  stroke-width="2.0"/>
<line x1="95.9" y1="170.3" x2="80.0" y2="148.4" stroke="rgb(0,0,0)"  stroke-width="2.0"/>
<line x1="373.9" y1="168.4" x2="373.9" y2="128.4" stroke="rgb(0,0,0)"  stroke-width="2.0"/>
<line x1="366.7" y1="162.4" x2="366.7" y2="134.4" stroke="rgb(0,0,0)"  stroke-width="2.0"/>
<line x1="373.9" y1="128.4" x2="348.3" y2="120.1" stroke="rgb(0,0,0)"  stroke-width="2.0"/>
<line x1="328.3" y1="126.6" x2="312.4" y2="148.4" stroke="rgb(0,0,0)"  stroke-width="2.0"/>
<line x1="312.4" y1="148.4" x2="335.9" y2="180.8" stroke="rgb(0,0,0)"  stroke-width="2.0"/>
<line x1="321.7" y1="149.1" x2="338.2" y2="171.7" stroke="rgb(0,0,0)"  stroke-width="2.0"/>
<line x1="335.9" y1="180.8" x2="373.9" y2="168.4" stroke="rgb(0,0,0)"  stroke-width="2.0"/>
<line x1="141.6" y1="128.4" x2="176.2" y2="108.4" stroke="rgb(0,0,0)"  stroke-width="2.0"/>
<line x1="176.2" y1="108.4" x2="210.8" y2="128.4" stroke="rgb(0,0,0)"  stroke-width="2.0"/>
<line x1="177.8" y1="117.7" x2="202.0" y2="131.7" stroke="rgb(0,0,0)"  stroke-width="2.0"/>
<line x1="210.8" y1="168.4" x2="176.2" y2="188.4" stroke="rgb(0,0,0)"  stroke-width="2.0"/>
<line x1="202.0" y1="165.2" x2="177.8" y2="179.2" stroke="rgb(0,0,0)"  stroke-width="2.0"/>
<line x1="176.2" y1="188.4" x2="141.6" y2="168.4" stroke="rgb(0,0,0)"  stroke-width="2.0"/>
<line x1="335.9" y1="220.8" x2="361.6" y2="229.1" stroke="rgb(0,0,0)"  stroke-width="2.0"/>
<line x1="381.6" y1="222.6" x2="397.5" y2="200.8" stroke="rgb(0,0,0)"  stroke-width="2.0"/>
<line x1="397.5" y1="200.8" x2="373.9" y2="168.4" stroke="rgb(0,0,0)"  stroke-width="2.0"/>
<line x1="335.9" y1="180.8" x2="335.9" y2="220.8" stroke="rgb(0,0,0)"  stroke-width="2.0"/>
<text x="329.900784" y="124.084521" fill="rgb(178,178,0)"  stroke="rgb(178,178,0)" stroke-width="1" font-size="16" >S</text>
<text x="400.303724" y="112.933791" fill="rgb(191,191,191)"  stroke="rgb(191,191,191)" stroke-width="1" font-size="16" >H</text>
<text x="431.454455" y="208.805881" fill="rgb(255,12,12)"  stroke="rgb(255,12,12)" stroke-width="1" font-size="16" >O</text>
<text x="382.303724" y="279.208821" fill="rgb(102,102,102)"  stroke="rgb(102,102,102)" stroke-width="1" font-size="16" >CH</text>
<text x="406.303724" y="282.888821" fill="rgb(102,102,102)"  stroke="rgb(102,102,102)" stroke-width="1" font-size="13" >3</text>
<text x="367.943045" y="241.166561" fill="rgb(12,12,255)"  stroke="rgb(12,12,255)" stroke-width="1" font-size="16" >N</text>
<text x="297.540104" y="252.317291" fill="rgb(255,12,12)"  stroke="rgb(255,12,12)" stroke-width="1" font-size="16" >O</text>
<text x="242.877964" y="124.084521" fill="rgb(178,178,0)"  stroke="rgb(178,178,0)" stroke-width="1" font-size="16" >S</text>
<text x="172.194687" y="76.445201" fill="rgb(102,102,102)"  stroke="rgb(102,102,102)" stroke-width="1" font-size="16" >CH</text>
<text x="196.194687" y="80.125201" fill="rgb(102,102,102)"  stroke="rgb(102,102,102)" stroke-width="1" font-size="13" >3</text>
<text x="72.790051" y="48.000000" fill="rgb(12,12,255)"  stroke="rgb(12,12,255)" stroke-width="1" font-size="16" >N</text>
<text x="34.000000" y="156.445201" fill="rgb(191,191,191)"  stroke="rgb(191,191,191)" stroke-width="1" font-size="16" >H</text>
<text x="97.511410" y="188.805881" fill="rgb(178,178,0)"  stroke="rgb(178,178,0)" stroke-width="1" font-size="16" >S</text>
<text x="172.194687" y="236.445201" fill="rgb(102,102,102)"  stroke="rgb(102,102,102)" stroke-width="1" font-size="16" >CH</text>
<text x="196.194687" y="240.125201" fill="rgb(102,102,102)"  stroke="rgb(102,102,102)" stroke-width="1" font-size="13" >3</text>
<text x="267.599323" y="264.890402" fill="rgb(12,12,255)"  stroke="rgb(12,12,255)" stroke-width="1" font-size="16" >N</text>
</svg>
</g>
<text font-size="18.000000" fill ="black" font-family="sans-serif"
x="10.000000" y="20.000000" ></text>
</svg>
