<?xml version="1.0"?>
<svg version="1.1" id="topsvg"
xmlns="http://www.w3.org/2000/svg" xmlns:xlink="http://www.w3.org/1999/xlink"
xmlns:cml="http://www.xml-cml.org/schema" x="0" y="0" width="200px" height="200px" viewBox="0 0 100 100">
<title> - Open Babel Depiction</title>
<rect x="0" y="0" width="100" height="100" fill="white"/>
<g transform="translate(0,0)">
<svg width="100" height="100" x="0" y="0" viewBox="0 0 596.865 297.888"
font-family="sans-serif" stroke="rgb(0,0,0)" stroke-width="2"  stroke-linecap="round">
<line x1="351.3" y1="142.8" x2="313.3" y2="155.1" stroke="rgb(0,0,0)"  stroke-width="2.0"/>
<line x1="300.9" y1="193.2" x2="316.8" y2="215.0" stroke="rgb(0,0,0)"  stroke-width="2.0"/>
<line x1="260.9" y1="193.2" x2="245.1" y2="215.0" stroke="rgb(0,0,0)"  stroke-width="2.0"/>
<line x1="248.6" y1="155.1" x2="210.5" y2="142.8" stroke="rgb(0,0,0)"  stroke-width="2.0"/>
<line x1="212.5" y1="145.0" x2="182.8" y2="171.8" stroke="rgb(0,0,0)"  stroke-width="2.0"/>
<line x1="208.5" y1="140.5" x2="178.8" y2="167.3" stroke="rgb(0,0,0)"  stroke-width="2.0"/>
<line x1="180.8" y1="169.5" x2="142.8" y2="157.2" stroke="rgb(0,0,0)"  stroke-width="2.0"/>
<line x1="110.4" y1="180.7" x2="110.4" y2="207.7" stroke="rgb(0,0,0)"  stroke-width="2.0"/>
<line x1="78.0" y1="157.2" x2="52.4" y2="165.5" stroke="rgb(0,0,0)"  stroke-width="2.0"/>
<line x1="90.4" y1="119.1" x2="74.5" y2="97.3" stroke="rgb(0,0,0)"  stroke-width="2.0"/>
<line x1="363.7" y1="104.7" x2="340.2" y2="72.4" stroke="rgb(0,0,0)"  stroke-width="2.0"/>
<line x1="340.2" y1="72.4" x2="324.3" y2="50.5" stroke="rgb(0,0,0)"  stroke-width="2.0"/>
<line x1="336.8" y1="74.8" x2="320.9" y2="53.0" stroke="rgb(0,0,0)"  stroke-width="2.0"/>
<line x1="343.6" y1="69.9" x2="327.7" y2="48.0" stroke="rgb(0,0,0)"  stroke-width="2.0"/>
<line x1="416.1" y1="142.8" x2="454.1" y2="155.1" stroke="rgb(0,0,0)"  stroke-width="2.0"/>
<line x1="518.8" y1="155.1" x2="544.5" y2="146.8" stroke="rgb(0,0,0)"  stroke-width="2.0"/>
<line x1="506.5" y1="193.2" x2="530.0" y2="225.5" stroke="rgb(0,0,0)"  stroke-width="2.0"/>
<line x1="530.0" y1="225.5" x2="545.8" y2="247.4" stroke="rgb(0,0,0)"  stroke-width="2.0"/>
<line x1="533.4" y1="223.1" x2="549.2" y2="244.9" stroke="rgb(0,0,0)"  stroke-width="2.0"/>
<line x1="526.6" y1="228.0" x2="542.4" y2="249.8" stroke="rgb(0,0,0)"  stroke-width="2.0"/>
<line x1="260.9" y1="193.2" x2="248.6" y2="155.1" stroke="rgb(0,0,0)"  stroke-width="2.0"/>
<line x1="265.9" y1="185.2" x2="257.3" y2="158.6" stroke="rgb(0,0,0)"  stroke-width="2.0"/>
<line x1="248.6" y1="155.1" x2="270.4" y2="139.3" stroke="rgb(0,0,0)"  stroke-width="2.0"/>
<line x1="291.5" y1="139.3" x2="313.3" y2="155.1" stroke="rgb(0,0,0)"  stroke-width="2.0"/>
<line x1="313.3" y1="155.1" x2="300.9" y2="193.2" stroke="rgb(0,0,0)"  stroke-width="2.0"/>
<line x1="304.6" y1="158.6" x2="295.9" y2="185.2" stroke="rgb(0,0,0)"  stroke-width="2.0"/>
<line x1="300.9" y1="193.2" x2="260.9" y2="193.2" stroke="rgb(0,0,0)"  stroke-width="2.0"/>
<line x1="78.0" y1="157.2" x2="90.4" y2="119.1" stroke="rgb(0,0,0)"  stroke-width="2.0"/>
<line x1="86.7" y1="153.7" x2="95.4" y2="127.1" stroke="rgb(0,0,0)"  stroke-width="2.0"/>
<line x1="90.4" y1="119.1" x2="117.4" y2="119.1" stroke="rgb(0,0,0)"  stroke-width="2.0"/>
<line x1="134.4" y1="131.5" x2="142.8" y2="157.2" stroke="rgb(0,0,0)"  stroke-width="2.0"/>
<line x1="142.8" y1="157.2" x2="110.4" y2="180.7" stroke="rgb(0,0,0)"  stroke-width="2.0"/>
<line x1="133.7" y1="154.9" x2="111.0" y2="171.3" stroke="rgb(0,0,0)"  stroke-width="2.0"/>
<line x1="110.4" y1="180.7" x2="78.0" y2="157.2" stroke="rgb(0,0,0)"  stroke-width="2.0"/>
<line x1="407.8" y1="117.3" x2="416.1" y2="142.8" stroke="rgb(0,0,0)"  stroke-width="2.0"/>
<line x1="401.5" y1="121.4" x2="407.4" y2="139.3" stroke="rgb(0,0,0)"  stroke-width="2.0"/>
<line x1="416.1" y1="142.8" x2="394.2" y2="158.6" stroke="rgb(0,0,0)"  stroke-width="2.0"/>
<line x1="373.2" y1="158.6" x2="351.3" y2="142.8" stroke="rgb(0,0,0)"  stroke-width="2.0"/>
<line x1="351.3" y1="142.8" x2="363.7" y2="104.7" stroke="rgb(0,0,0)"  stroke-width="2.0"/>
<line x1="360.0" y1="139.3" x2="368.7" y2="112.7" stroke="rgb(0,0,0)"  stroke-width="2.0"/>
<line x1="363.7" y1="104.7" x2="390.7" y2="104.7" stroke="rgb(0,0,0)"  stroke-width="2.0"/>
<line x1="518.8" y1="155.1" x2="506.5" y2="193.2" stroke="rgb(0,0,0)"  stroke-width="2.0"/>
<line x1="510.1" y1="158.6" x2="501.5" y2="185.2" stroke="rgb(0,0,0)"  stroke-width="2.0"/>
<line x1="506.5" y1="193.2" x2="479.5" y2="193.2" stroke="rgb(0,0,0)"  stroke-width="2.0"/>
<line x1="462.4" y1="180.6" x2="454.1" y2="155.1" stroke="rgb(0,0,0)"  stroke-width="2.0"/>
<line x1="468.6" y1="176.5" x2="462.8" y2="158.6" stroke="rgb(0,0,0)"  stroke-width="2.0"/>
<line x1="454.1" y1="155.1" x2="475.9" y2="139.3" stroke="rgb(0,0,0)"  stroke-width="2.0"/>
<line x1="497.0" y1="139.3" x2="518.8" y2="155.1" stroke="rgb(0,0,0)"  stroke-width="2.0"/>
<text x="60.891530" y="94.765224" fill="rgb(191,191,191)"  stroke="rgb(191,191,191)" stroke-width="1" font-size="16" >H</text>
<text x="460.461855" y="201.166561" fill="rgb(12,12,255)"  stroke="rgb(12,12,255)" stroke-width="1" font-size="16" >N</text>
<text x="547.484675" y="265.887920" fill="rgb(12,12,255)"  stroke="rgb(12,12,255)" stroke-width="1" font-size="16" >N</text>
<text x="550.864795" y="150.763620" fill="rgb(191,191,191)"  stroke="rgb(191,191,191)" stroke-width="1" font-size="16" >H</text>
<text x="480.461855" y="139.612890" fill="rgb(178,178,0)"  stroke="rgb(178,178,0)" stroke-width="1" font-size="16" >S</text>
<text x="377.698235" y="174.275030" fill="rgb(178,178,0)"  stroke="rgb(178,178,0)" stroke-width="1" font-size="16" >S</text>
<text x="397.698235" y="112.721360" fill="rgb(12,12,255)"  stroke="rgb(12,12,255)" stroke-width="1" font-size="16" >N</text>
<text x="310.675414" y="48.000000" fill="rgb(12,12,255)"  stroke="rgb(12,12,255)" stroke-width="1" font-size="16" >N</text>
<text x="124.402940" y="127.125904" fill="rgb(178,178,0)"  stroke="rgb(178,178,0)" stroke-width="1" font-size="16" >S</text>
<text x="34.000000" y="177.528844" fill="rgb(191,191,191)"  stroke="rgb(191,191,191)" stroke-width="1" font-size="16" >H</text>
<text x="104.402940" y="228.679575" fill="rgb(191,191,191)"  stroke="rgb(191,191,191)" stroke-width="1" font-size="16" >H</text>
<text x="274.934614" y="139.612890" fill="rgb(178,178,0)"  stroke="rgb(178,178,0)" stroke-width="1" font-size="16" >S</text>
<text x="231.423204" y="233.527240" fill="rgb(191,191,191)"  stroke="rgb(191,191,191)" stroke-width="1" font-size="16" >H</text>
<text x="318.446024" y="233.527240" fill="rgb(191,191,191)"  stroke="rgb(191,191,191)" stroke-width="1" font-size="16" >H</text>
</svg>
</g>
<text font-size="18.000000" fill ="black" font-family="sans-serif"
x="10.000000" y="20.000000" ></text>
</svg>
