<?xml version="1.0"?>
<svg version="1.1" id="topsvg"
xmlns="http://www.w3.org/2000/svg" xmlns:xlink="http://www.w3.org/1999/xlink"
xmlns:cml="http://www.xml-cml.org/schema" x="0" y="0" width="200px" height="200px" viewBox="0 0 100 100">
<title> - Open Babel Depiction</title>
<rect x="0" y="0" width="100" height="100" fill="white"/>
<g transform="translate(0,0)">
<svg width="100" height="100" x="0" y="0" viewBox="0 0 473.294 345.571"
font-family="sans-serif" stroke="rgb(0,0,0)" stroke-width="2"  stroke-linecap="round">
<line x1="234.6" y1="111.9" x2="273.8" y2="120.2" stroke="rgb(0,0,0)"  stroke-width="2.0"/>
<line x1="290.0" y1="156.8" x2="270.0" y2="191.4" stroke="rgb(0,0,0)"  stroke-width="2.0"/>
<line x1="270.0" y1="191.4" x2="256.5" y2="214.8" stroke="rgb(0,0,0)"  stroke-width="2.0"/>
<line x1="273.7" y1="193.5" x2="260.2" y2="216.9" stroke="rgb(0,0,0)"  stroke-width="2.0"/>
<line x1="266.4" y1="189.3" x2="252.9" y2="212.7" stroke="rgb(0,0,0)"  stroke-width="2.0"/>
<line x1="394.2" y1="145.8" x2="420.6" y2="151.4" stroke="rgb(0,0,0)"  stroke-width="2.0"/>
<line x1="377.9" y1="109.3" x2="397.9" y2="74.6" stroke="rgb(0,0,0)"  stroke-width="2.0"/>
<line x1="397.9" y1="74.6" x2="411.4" y2="51.3" stroke="rgb(0,0,0)"  stroke-width="2.0"/>
<line x1="394.3" y1="72.5" x2="407.8" y2="49.2" stroke="rgb(0,0,0)"  stroke-width="2.0"/>
<line x1="401.5" y1="76.7" x2="415.0" y2="53.4" stroke="rgb(0,0,0)"  stroke-width="2.0"/>
<line x1="206.4" y1="176.1" x2="229.8" y2="189.6" stroke="rgb(0,0,0)"  stroke-width="2.0"/>
<line x1="203.4" y1="181.3" x2="226.8" y2="194.8" stroke="rgb(0,0,0)"  stroke-width="2.0"/>
<line x1="161.9" y1="237.8" x2="180.0" y2="257.9" stroke="rgb(0,0,0)"  stroke-width="2.0"/>
<line x1="184.7" y1="279.9" x2="180.4" y2="293.2" stroke="rgb(0,0,0)"  stroke-width="2.0"/>
<line x1="105.9" y1="205.4" x2="79.5" y2="199.8" stroke="rgb(0,0,0)"  stroke-width="2.0"/>
<line x1="58.1" y1="206.8" x2="48.7" y2="217.2" stroke="rgb(0,0,0)"  stroke-width="2.0"/>
<line x1="134.1" y1="141.3" x2="110.7" y2="127.8" stroke="rgb(0,0,0)"  stroke-width="2.0"/>
<line x1="137.1" y1="136.1" x2="113.7" y2="122.6" stroke="rgb(0,0,0)"  stroke-width="2.0"/>
<line x1="178.6" y1="79.6" x2="160.5" y2="59.5" stroke="rgb(0,0,0)"  stroke-width="2.0"/>
<line x1="329.8" y1="152.6" x2="338.1" y2="113.5" stroke="rgb(0,0,0)"  stroke-width="2.0"/>
<line x1="324.0" y1="145.2" x2="329.8" y2="117.8" stroke="rgb(0,0,0)"  stroke-width="2.0"/>
<line x1="338.1" y1="113.5" x2="314.7" y2="100.0" stroke="rgb(0,0,0)"  stroke-width="2.0"/>
<line x1="293.8" y1="102.2" x2="273.8" y2="120.2" stroke="rgb(0,0,0)"  stroke-width="2.0"/>
<line x1="273.8" y1="120.2" x2="290.0" y2="156.8" stroke="rgb(0,0,0)"  stroke-width="2.0"/>
<line x1="282.8" y1="122.8" x2="294.2" y2="148.4" stroke="rgb(0,0,0)"  stroke-width="2.0"/>
<line x1="290.0" y1="156.8" x2="329.8" y2="152.6" stroke="rgb(0,0,0)"  stroke-width="2.0"/>
<line x1="394.2" y1="145.8" x2="377.9" y2="109.3" stroke="rgb(0,0,0)"  stroke-width="2.0"/>
<line x1="385.1" y1="143.3" x2="373.8" y2="117.7" stroke="rgb(0,0,0)"  stroke-width="2.0"/>
<line x1="377.9" y1="109.3" x2="338.1" y2="113.5" stroke="rgb(0,0,0)"  stroke-width="2.0"/>
<line x1="329.8" y1="152.6" x2="353.2" y2="166.1" stroke="rgb(0,0,0)"  stroke-width="2.0"/>
<line x1="374.1" y1="163.9" x2="394.2" y2="145.8" stroke="rgb(0,0,0)"  stroke-width="2.0"/>
<line x1="116.9" y1="230.1" x2="105.9" y2="205.4" stroke="rgb(0,0,0)"  stroke-width="2.0"/>
<line x1="105.9" y1="205.4" x2="135.6" y2="178.7" stroke="rgb(0,0,0)"  stroke-width="2.0"/>
<line x1="115.2" y1="206.8" x2="136.0" y2="188.0" stroke="rgb(0,0,0)"  stroke-width="2.0"/>
<line x1="135.6" y1="178.7" x2="170.3" y2="198.7" stroke="rgb(0,0,0)"  stroke-width="2.0"/>
<line x1="170.3" y1="198.7" x2="161.9" y2="237.8" stroke="rgb(0,0,0)"  stroke-width="2.0"/>
<line x1="162.0" y1="203.0" x2="156.1" y2="230.4" stroke="rgb(0,0,0)"  stroke-width="2.0"/>
<line x1="161.9" y1="237.8" x2="135.1" y2="240.6" stroke="rgb(0,0,0)"  stroke-width="2.0"/>
<line x1="170.3" y1="118.7" x2="178.6" y2="79.6" stroke="rgb(0,0,0)"  stroke-width="2.0"/>
<line x1="178.5" y1="114.3" x2="184.4" y2="86.9" stroke="rgb(0,0,0)"  stroke-width="2.0"/>
<line x1="178.6" y1="79.6" x2="205.4" y2="76.7" stroke="rgb(0,0,0)"  stroke-width="2.0"/>
<line x1="223.6" y1="87.2" x2="234.6" y2="111.9" stroke="rgb(0,0,0)"  stroke-width="2.0"/>
<line x1="234.6" y1="111.9" x2="204.9" y2="138.7" stroke="rgb(0,0,0)"  stroke-width="2.0"/>
<line x1="225.3" y1="110.6" x2="204.5" y2="129.3" stroke="rgb(0,0,0)"  stroke-width="2.0"/>
<line x1="204.9" y1="138.7" x2="170.3" y2="118.7" stroke="rgb(0,0,0)"  stroke-width="2.0"/>
<line x1="204.9" y1="178.7" x2="170.3" y2="198.7" stroke="rgb(0,0,0)"  stroke-width="2.0"/>
<line x1="135.6" y1="178.7" x2="135.6" y2="138.7" stroke="rgb(0,0,0)"  stroke-width="2.0"/>
<line x1="135.6" y1="138.7" x2="170.3" y2="118.7" stroke="rgb(0,0,0)"  stroke-width="2.0"/>
<line x1="204.9" y1="138.7" x2="204.9" y2="178.7" stroke="rgb(0,0,0)"  stroke-width="2.0"/>
<text x="233.539970" y="206.677152" fill="rgb(255,12,12)"  stroke="rgb(255,12,12)" stroke-width="1" font-size="16" >O</text>
<text x="212.355281" y="83.370109" fill="rgb(178,178,0)"  stroke="rgb(178,178,0)" stroke-width="1" font-size="16" >S</text>
<text x="145.809181" y="57.825455" fill="rgb(191,191,191)"  stroke="rgb(191,191,191)" stroke-width="1" font-size="16" >H</text>
<text x="94.975905" y="126.677152" fill="rgb(255,12,12)"  stroke="rgb(255,12,12)" stroke-width="1" font-size="16" >O</text>
<text x="14.000000" y="234.851701" fill="rgb(102,102,102)"  stroke="rgb(102,102,102)" stroke-width="1" font-size="16" >H</text>
<text x="26.000000" y="238.531701" fill="rgb(102,102,102)"  stroke="rgb(102,102,102)" stroke-width="1" font-size="13" >3</text>
<text x="32.500000" y="234.851701" fill="rgb(102,102,102)"  stroke="rgb(102,102,102)" stroke-width="1" font-size="16" >C</text>
<text x="60.765224" y="205.125908" fill="rgb(255,12,12)"  stroke="rgb(255,12,12)" stroke-width="1" font-size="16" >O</text>
<text x="116.160594" y="249.984194" fill="rgb(178,178,0)"  stroke="rgb(178,178,0)" stroke-width="1" font-size="16" >S</text>
<text x="150.346014" y="313.571109" fill="rgb(102,102,102)"  stroke="rgb(102,102,102)" stroke-width="1" font-size="16" >H</text>
<text x="162.346014" y="317.251109" fill="rgb(102,102,102)"  stroke="rgb(102,102,102)" stroke-width="1" font-size="13" >3</text>
<text x="168.846014" y="313.571109" fill="rgb(102,102,102)"  stroke="rgb(102,102,102)" stroke-width="1" font-size="16" >C</text>
<text x="182.706694" y="275.528849" fill="rgb(255,12,12)"  stroke="rgb(255,12,12)" stroke-width="1" font-size="16" >O</text>
<text x="297.476444" y="101.463171" fill="rgb(178,178,0)"  stroke="rgb(178,178,0)" stroke-width="1" font-size="16" >S</text>
<text x="411.898336" y="48.000000" fill="rgb(12,12,255)"  stroke="rgb(12,12,255)" stroke-width="1" font-size="16" >N</text>
<text x="427.293705" y="162.140318" fill="rgb(191,191,191)"  stroke="rgb(191,191,191)" stroke-width="1" font-size="16" >H</text>
<text x="358.442008" y="180.589075" fill="rgb(178,178,0)"  stroke="rgb(178,178,0)" stroke-width="1" font-size="16" >S</text>
<text x="244.020116" y="234.052246" fill="rgb(12,12,255)"  stroke="rgb(12,12,255)" stroke-width="1" font-size="16" >N</text>
</svg>
</g>
<text font-size="18.000000" fill ="black" font-family="sans-serif"
x="10.000000" y="20.000000" ></text>
</svg>
