<?xml version="1.0"?>
<svg version="1.1" id="topsvg"
xmlns="http://www.w3.org/2000/svg" xmlns:xlink="http://www.w3.org/1999/xlink"
xmlns:cml="http://www.xml-cml.org/schema" x="0" y="0" width="200px" height="200px" viewBox="0 0 100 100">
<title> - Open Babel Depiction</title>
<rect x="0" y="0" width="100" height="100" fill="white"/>
<g transform="translate(0,0)">
<svg width="100" height="100" x="0" y="0" viewBox="0 0 393.195 459.441"
font-family="sans-serif" stroke="rgb(0,0,0)" stroke-width="2"  stroke-linecap="round">
<line x1="208.9" y1="172.5" x2="221.2" y2="210.5" stroke="rgb(0,0,0)"  stroke-width="2.0"/>
<line x1="221.2" y1="315.3" x2="183.8" y2="301.3" stroke="rgb(0,0,0)"  stroke-width="2.0"/>
<line x1="180.8" y1="301.8" x2="176.3" y2="275.1" stroke="rgb(0,0,0)"  stroke-width="2.0"/>
<line x1="186.7" y1="300.8" x2="182.3" y2="274.1" stroke="rgb(0,0,0)"  stroke-width="2.0"/>
<line x1="183.8" y1="301.3" x2="162.9" y2="318.4" stroke="rgb(0,0,0)"  stroke-width="2.0"/>
<line x1="140.7" y1="322.2" x2="127.6" y2="317.3" stroke="rgb(0,0,0)"  stroke-width="2.0"/>
<line x1="221.2" y1="315.3" x2="215.0" y2="354.8" stroke="rgb(0,0,0)"  stroke-width="2.0"/>
<line x1="216.1" y1="357.6" x2="190.8" y2="367.2" stroke="rgb(0,0,0)"  stroke-width="2.0"/>
<line x1="213.9" y1="352.0" x2="188.7" y2="361.6" stroke="rgb(0,0,0)"  stroke-width="2.0"/>
<line x1="215.0" y1="354.8" x2="236.0" y2="371.8" stroke="rgb(0,0,0)"  stroke-width="2.0"/>
<line x1="244.0" y1="392.8" x2="241.8" y2="406.6" stroke="rgb(0,0,0)"  stroke-width="2.0"/>
<line x1="320.8" y1="347.6" x2="342.7" y2="363.5" stroke="rgb(0,0,0)"  stroke-width="2.0"/>
<line x1="139.2" y1="180.1" x2="139.2" y2="207.1" stroke="rgb(0,0,0)"  stroke-width="2.0"/>
<line x1="133.2" y1="180.1" x2="133.2" y2="207.1" stroke="rgb(0,0,0)"  stroke-width="2.0"/>
<line x1="63.5" y1="172.5" x2="55.2" y2="198.2" stroke="rgb(0,0,0)"  stroke-width="2.0"/>
<line x1="59.8" y1="220.2" x2="69.2" y2="230.6" stroke="rgb(0,0,0)"  stroke-width="2.0"/>
<line x1="63.5" y1="107.8" x2="55.2" y2="82.1" stroke="rgb(0,0,0)"  stroke-width="2.0"/>
<line x1="59.8" y1="60.1" x2="69.2" y2="49.7" stroke="rgb(0,0,0)"  stroke-width="2.0"/>
<line x1="133.2" y1="100.1" x2="133.2" y2="73.1" stroke="rgb(0,0,0)"  stroke-width="2.0"/>
<line x1="139.2" y1="100.1" x2="139.2" y2="73.1" stroke="rgb(0,0,0)"  stroke-width="2.0"/>
<line x1="208.9" y1="107.8" x2="217.2" y2="82.1" stroke="rgb(0,0,0)"  stroke-width="2.0"/>
<line x1="221.2" y1="275.3" x2="259.3" y2="262.9" stroke="rgb(0,0,0)"  stroke-width="2.0"/>
<line x1="224.7" y1="266.6" x2="251.3" y2="257.9" stroke="rgb(0,0,0)"  stroke-width="2.0"/>
<line x1="259.3" y1="262.9" x2="259.3" y2="235.9" stroke="rgb(0,0,0)"  stroke-width="2.0"/>
<line x1="246.9" y1="218.9" x2="221.2" y2="210.5" stroke="rgb(0,0,0)"  stroke-width="2.0"/>
<line x1="221.2" y1="210.5" x2="197.7" y2="242.9" stroke="rgb(0,0,0)"  stroke-width="2.0"/>
<line x1="223.5" y1="219.6" x2="207.1" y2="242.3" stroke="rgb(0,0,0)"  stroke-width="2.0"/>
<line x1="197.7" y1="242.9" x2="221.2" y2="275.3" stroke="rgb(0,0,0)"  stroke-width="2.0"/>
<line x1="320.8" y1="347.6" x2="320.8" y2="320.6" stroke="rgb(0,0,0)"  stroke-width="2.0"/>
<line x1="308.5" y1="303.6" x2="282.8" y2="295.3" stroke="rgb(0,0,0)"  stroke-width="2.0"/>
<line x1="282.8" y1="295.3" x2="259.3" y2="327.6" stroke="rgb(0,0,0)"  stroke-width="2.0"/>
<line x1="285.1" y1="304.3" x2="268.6" y2="327.0" stroke="rgb(0,0,0)"  stroke-width="2.0"/>
<line x1="259.3" y1="327.6" x2="282.8" y2="360.0" stroke="rgb(0,0,0)"  stroke-width="2.0"/>
<line x1="282.8" y1="360.0" x2="320.8" y2="347.6" stroke="rgb(0,0,0)"  stroke-width="2.0"/>
<line x1="286.3" y1="351.3" x2="312.9" y2="342.6" stroke="rgb(0,0,0)"  stroke-width="2.0"/>
<line x1="47.6" y1="129.6" x2="63.5" y2="107.8" stroke="rgb(0,0,0)"  stroke-width="2.0"/>
<line x1="63.5" y1="107.8" x2="101.6" y2="120.1" stroke="rgb(0,0,0)"  stroke-width="2.0"/>
<line x1="67.0" y1="116.5" x2="93.6" y2="125.1" stroke="rgb(0,0,0)"  stroke-width="2.0"/>
<line x1="101.6" y1="120.1" x2="101.6" y2="160.1" stroke="rgb(0,0,0)"  stroke-width="2.0"/>
<line x1="101.6" y1="160.1" x2="63.5" y2="172.5" stroke="rgb(0,0,0)"  stroke-width="2.0"/>
<line x1="93.6" y1="155.1" x2="67.0" y2="163.8" stroke="rgb(0,0,0)"  stroke-width="2.0"/>
<line x1="63.5" y1="172.5" x2="47.6" y2="150.6" stroke="rgb(0,0,0)"  stroke-width="2.0"/>
<line x1="170.8" y1="120.1" x2="208.9" y2="107.8" stroke="rgb(0,0,0)"  stroke-width="2.0"/>
<line x1="178.8" y1="125.1" x2="205.4" y2="116.5" stroke="rgb(0,0,0)"  stroke-width="2.0"/>
<line x1="208.9" y1="107.8" x2="224.7" y2="129.6" stroke="rgb(0,0,0)"  stroke-width="2.0"/>
<line x1="224.7" y1="150.6" x2="208.9" y2="172.5" stroke="rgb(0,0,0)"  stroke-width="2.0"/>
<line x1="208.9" y1="172.5" x2="170.8" y2="160.1" stroke="rgb(0,0,0)"  stroke-width="2.0"/>
<line x1="205.4" y1="163.8" x2="178.8" y2="155.1" stroke="rgb(0,0,0)"  stroke-width="2.0"/>
<line x1="170.8" y1="160.1" x2="170.8" y2="120.1" stroke="rgb(0,0,0)"  stroke-width="2.0"/>
<line x1="282.8" y1="295.3" x2="259.3" y2="262.9" stroke="rgb(0,0,0)"  stroke-width="2.0"/>
<line x1="221.2" y1="275.3" x2="221.2" y2="315.3" stroke="rgb(0,0,0)"  stroke-width="2.0"/>
<line x1="221.2" y1="315.3" x2="259.3" y2="327.6" stroke="rgb(0,0,0)"  stroke-width="2.0"/>
<line x1="136.2" y1="180.1" x2="101.6" y2="160.1" stroke="rgb(0,0,0)"  stroke-width="2.0"/>
<line x1="101.6" y1="120.1" x2="136.2" y2="100.1" stroke="rgb(0,0,0)"  stroke-width="2.0"/>
<line x1="136.2" y1="100.1" x2="170.8" y2="120.1" stroke="rgb(0,0,0)"  stroke-width="2.0"/>
<line x1="170.8" y1="160.1" x2="136.2" y2="180.1" stroke="rgb(0,0,0)"  stroke-width="2.0"/>
<text x="314.834575" y="315.613713" fill="rgb(178,178,0)"  stroke="rgb(178,178,0)" stroke-width="1" font-size="16" >S</text>
<text x="130.194687" y="228.128733" fill="rgb(255,12,12)"  stroke="rgb(255,12,12)" stroke-width="1" font-size="16" >O</text>
<text x="45.150730" y="218.531674" fill="rgb(255,12,12)"  stroke="rgb(255,12,12)" stroke-width="1" font-size="16" >O</text>
<text x="73.915955" y="248.257467" fill="rgb(102,102,102)"  stroke="rgb(102,102,102)" stroke-width="1" font-size="16" >CH</text>
<text x="97.915955" y="251.937467" fill="rgb(102,102,102)"  stroke="rgb(102,102,102)" stroke-width="1" font-size="13" >3</text>
<text x="34.000000" y="148.128733" fill="rgb(178,178,0)"  stroke="rgb(178,178,0)" stroke-width="1" font-size="16" >S</text>
<text x="347.195255" y="379.125123" fill="rgb(191,191,191)"  stroke="rgb(191,191,191)" stroke-width="1" font-size="16" >H</text>
<text x="45.150730" y="77.725793" fill="rgb(255,12,12)"  stroke="rgb(255,12,12)" stroke-width="1" font-size="16" >O</text>
<text x="73.915955" y="48.000000" fill="rgb(102,102,102)"  stroke="rgb(102,102,102)" stroke-width="1" font-size="16" >CH</text>
<text x="97.915955" y="51.680000" fill="rgb(102,102,102)"  stroke="rgb(102,102,102)" stroke-width="1" font-size="13" >3</text>
<text x="130.194687" y="68.128733" fill="rgb(255,12,12)"  stroke="rgb(255,12,12)" stroke-width="1" font-size="16" >O</text>
<text x="215.238643" y="77.725793" fill="rgb(191,191,191)"  stroke="rgb(191,191,191)" stroke-width="1" font-size="16" >H</text>
<text x="226.389374" y="148.128733" fill="rgb(178,178,0)"  stroke="rgb(178,178,0)" stroke-width="1" font-size="16" >S</text>
<text x="171.146733" y="269.812380" fill="rgb(255,12,12)"  stroke="rgb(255,12,12)" stroke-width="1" font-size="16" >O</text>
<text x="253.280904" y="230.892354" fill="rgb(178,178,0)"  stroke="rgb(178,178,0)" stroke-width="1" font-size="16" >S</text>
<text x="146.911725" y="334.717421" fill="rgb(255,12,12)"  stroke="rgb(255,12,12)" stroke-width="1" font-size="16" >O</text>
<text x="89.438782" y="320.725333" fill="rgb(102,102,102)"  stroke="rgb(102,102,102)" stroke-width="1" font-size="16" >H</text>
<text x="101.438782" y="324.405333" fill="rgb(102,102,102)"  stroke="rgb(102,102,102)" stroke-width="1" font-size="13" >3</text>
<text x="107.938782" y="320.725333" fill="rgb(102,102,102)"  stroke="rgb(102,102,102)" stroke-width="1" font-size="16" >C</text>
<text x="171.638048" y="377.095285" fill="rgb(255,12,12)"  stroke="rgb(255,12,12)" stroke-width="1" font-size="16" >O</text>
<text x="240.067103" y="387.933383" fill="rgb(255,12,12)"  stroke="rgb(255,12,12)" stroke-width="1" font-size="16" >O</text>
<text x="213.809725" y="427.440916" fill="rgb(102,102,102)"  stroke="rgb(102,102,102)" stroke-width="1" font-size="16" >H</text>
<text x="225.809725" y="431.120916" fill="rgb(102,102,102)"  stroke="rgb(102,102,102)" stroke-width="1" font-size="13" >3</text>
<text x="232.309725" y="427.440916" fill="rgb(102,102,102)"  stroke="rgb(102,102,102)" stroke-width="1" font-size="16" >C</text>
</svg>
</g>
<text font-size="18.000000" fill ="black" font-family="sans-serif"
x="10.000000" y="20.000000" ></text>
</svg>
