<?xml version="1.0"?>
<svg version="1.1" id="topsvg"
xmlns="http://www.w3.org/2000/svg" xmlns:xlink="http://www.w3.org/1999/xlink"
xmlns:cml="http://www.xml-cml.org/schema" x="0" y="0" width="200px" height="200px" viewBox="0 0 100 100">
<title> - Open Babel Depiction</title>
<rect x="0" y="0" width="100" height="100" fill="white"/>
<g transform="translate(0,0)">
<svg width="100" height="100" x="0" y="0" viewBox="0 0 596.865 268.319"
font-family="sans-serif" stroke="rgb(0,0,0)" stroke-width="2"  stroke-linecap="round">
<line x1="351.3" y1="110.4" x2="313.3" y2="122.8" stroke="rgb(0,0,0)"  stroke-width="2.0"/>
<line x1="300.9" y1="160.8" x2="316.8" y2="182.6" stroke="rgb(0,0,0)"  stroke-width="2.0"/>
<line x1="260.9" y1="160.8" x2="237.4" y2="193.2" stroke="rgb(0,0,0)"  stroke-width="2.0"/>
<line x1="237.4" y1="193.2" x2="221.6" y2="215.0" stroke="rgb(0,0,0)"  stroke-width="2.0"/>
<line x1="240.8" y1="195.6" x2="225.0" y2="217.5" stroke="rgb(0,0,0)"  stroke-width="2.0"/>
<line x1="234.0" y1="190.7" x2="218.2" y2="212.5" stroke="rgb(0,0,0)"  stroke-width="2.0"/>
<line x1="248.6" y1="122.8" x2="210.5" y2="110.4" stroke="rgb(0,0,0)"  stroke-width="2.0"/>
<line x1="212.5" y1="112.6" x2="182.8" y2="139.4" stroke="rgb(0,0,0)"  stroke-width="2.0"/>
<line x1="208.5" y1="108.2" x2="178.8" y2="134.9" stroke="rgb(0,0,0)"  stroke-width="2.0"/>
<line x1="180.8" y1="137.2" x2="142.8" y2="124.8" stroke="rgb(0,0,0)"  stroke-width="2.0"/>
<line x1="110.4" y1="148.3" x2="110.4" y2="188.3" stroke="rgb(0,0,0)"  stroke-width="2.0"/>
<line x1="110.4" y1="188.3" x2="110.4" y2="215.3" stroke="rgb(0,0,0)"  stroke-width="2.0"/>
<line x1="114.6" y1="188.3" x2="114.6" y2="215.3" stroke="rgb(0,0,0)"  stroke-width="2.0"/>
<line x1="106.2" y1="188.3" x2="106.2" y2="215.3" stroke="rgb(0,0,0)"  stroke-width="2.0"/>
<line x1="78.0" y1="124.8" x2="52.4" y2="133.2" stroke="rgb(0,0,0)"  stroke-width="2.0"/>
<line x1="90.4" y1="86.8" x2="74.5" y2="64.9" stroke="rgb(0,0,0)"  stroke-width="2.0"/>
<line x1="363.7" y1="72.4" x2="347.8" y2="50.5" stroke="rgb(0,0,0)"  stroke-width="2.0"/>
<line x1="416.1" y1="110.4" x2="454.1" y2="122.8" stroke="rgb(0,0,0)"  stroke-width="2.0"/>
<line x1="518.8" y1="122.8" x2="544.5" y2="114.4" stroke="rgb(0,0,0)"  stroke-width="2.0"/>
<line x1="506.5" y1="160.8" x2="522.3" y2="182.6" stroke="rgb(0,0,0)"  stroke-width="2.0"/>
<line x1="260.9" y1="160.8" x2="248.6" y2="122.8" stroke="rgb(0,0,0)"  stroke-width="2.0"/>
<line x1="265.9" y1="152.9" x2="257.3" y2="126.2" stroke="rgb(0,0,0)"  stroke-width="2.0"/>
<line x1="248.6" y1="122.8" x2="270.4" y2="106.9" stroke="rgb(0,0,0)"  stroke-width="2.0"/>
<line x1="291.5" y1="106.9" x2="313.3" y2="122.8" stroke="rgb(0,0,0)"  stroke-width="2.0"/>
<line x1="313.3" y1="122.8" x2="300.9" y2="160.8" stroke="rgb(0,0,0)"  stroke-width="2.0"/>
<line x1="304.6" y1="126.2" x2="295.9" y2="152.9" stroke="rgb(0,0,0)"  stroke-width="2.0"/>
<line x1="300.9" y1="160.8" x2="260.9" y2="160.8" stroke="rgb(0,0,0)"  stroke-width="2.0"/>
<line x1="78.0" y1="124.8" x2="90.4" y2="86.8" stroke="rgb(0,0,0)"  stroke-width="2.0"/>
<line x1="86.7" y1="121.3" x2="95.4" y2="94.7" stroke="rgb(0,0,0)"  stroke-width="2.0"/>
<line x1="90.4" y1="86.8" x2="117.4" y2="86.8" stroke="rgb(0,0,0)"  stroke-width="2.0"/>
<line x1="134.4" y1="99.1" x2="142.8" y2="124.8" stroke="rgb(0,0,0)"  stroke-width="2.0"/>
<line x1="142.8" y1="124.8" x2="110.4" y2="148.3" stroke="rgb(0,0,0)"  stroke-width="2.0"/>
<line x1="133.7" y1="122.5" x2="111.0" y2="139.0" stroke="rgb(0,0,0)"  stroke-width="2.0"/>
<line x1="110.4" y1="148.3" x2="78.0" y2="124.8" stroke="rgb(0,0,0)"  stroke-width="2.0"/>
<line x1="407.8" y1="84.9" x2="416.1" y2="110.4" stroke="rgb(0,0,0)"  stroke-width="2.0"/>
<line x1="401.5" y1="89.0" x2="407.4" y2="106.9" stroke="rgb(0,0,0)"  stroke-width="2.0"/>
<line x1="416.1" y1="110.4" x2="394.2" y2="126.3" stroke="rgb(0,0,0)"  stroke-width="2.0"/>
<line x1="373.2" y1="126.3" x2="351.3" y2="110.4" stroke="rgb(0,0,0)"  stroke-width="2.0"/>
<line x1="351.3" y1="110.4" x2="363.7" y2="72.4" stroke="rgb(0,0,0)"  stroke-width="2.0"/>
<line x1="360.0" y1="106.9" x2="368.7" y2="80.3" stroke="rgb(0,0,0)"  stroke-width="2.0"/>
<line x1="363.7" y1="72.4" x2="390.7" y2="72.4" stroke="rgb(0,0,0)"  stroke-width="2.0"/>
<line x1="518.8" y1="122.8" x2="506.5" y2="160.8" stroke="rgb(0,0,0)"  stroke-width="2.0"/>
<line x1="510.1" y1="126.2" x2="501.5" y2="152.9" stroke="rgb(0,0,0)"  stroke-width="2.0"/>
<line x1="506.5" y1="160.8" x2="479.5" y2="160.8" stroke="rgb(0,0,0)"  stroke-width="2.0"/>
<line x1="462.4" y1="148.3" x2="454.1" y2="122.8" stroke="rgb(0,0,0)"  stroke-width="2.0"/>
<line x1="468.6" y1="144.1" x2="462.8" y2="126.2" stroke="rgb(0,0,0)"  stroke-width="2.0"/>
<line x1="454.1" y1="122.8" x2="475.9" y2="106.9" stroke="rgb(0,0,0)"  stroke-width="2.0"/>
<line x1="497.0" y1="106.9" x2="518.8" y2="122.8" stroke="rgb(0,0,0)"  stroke-width="2.0"/>
<text x="22.000000" y="145.168165" fill="rgb(30,239,30)"  stroke="rgb(30,239,30)" stroke-width="1" font-size="16" >Cl</text>
<text x="460.461855" y="168.805881" fill="rgb(12,12,255)"  stroke="rgb(12,12,255)" stroke-width="1" font-size="16" >N</text>
<text x="523.973265" y="201.166561" fill="rgb(127,178,255)"  stroke="rgb(127,178,255)" stroke-width="1" font-size="16" >F</text>
<text x="550.864795" y="118.402940" fill="rgb(191,191,191)"  stroke="rgb(191,191,191)" stroke-width="1" font-size="16" >H</text>
<text x="480.461855" y="107.252210" fill="rgb(178,178,0)"  stroke="rgb(178,178,0)" stroke-width="1" font-size="16" >S</text>
<text x="377.698235" y="141.914351" fill="rgb(178,178,0)"  stroke="rgb(178,178,0)" stroke-width="1" font-size="16" >S</text>
<text x="397.698235" y="80.360680" fill="rgb(12,12,255)"  stroke="rgb(12,12,255)" stroke-width="1" font-size="16" >N</text>
<text x="334.186824" y="48.000000" fill="rgb(127,178,255)"  stroke="rgb(127,178,255)" stroke-width="1" font-size="16" >F</text>
<text x="124.402940" y="94.765224" fill="rgb(178,178,0)"  stroke="rgb(178,178,0)" stroke-width="1" font-size="16" >S</text>
<text x="60.891530" y="62.404544" fill="rgb(191,191,191)"  stroke="rgb(191,191,191)" stroke-width="1" font-size="16" >H</text>
<text x="104.402940" y="236.318895" fill="rgb(12,12,255)"  stroke="rgb(12,12,255)" stroke-width="1" font-size="16" >N</text>
<text x="274.934614" y="107.252210" fill="rgb(178,178,0)"  stroke="rgb(178,178,0)" stroke-width="1" font-size="16" >S</text>
<text x="207.911794" y="233.527240" fill="rgb(12,12,255)"  stroke="rgb(12,12,255)" stroke-width="1" font-size="16" >N</text>
<text x="318.446024" y="201.166561" fill="rgb(30,239,30)"  stroke="rgb(30,239,30)" stroke-width="1" font-size="16" >Cl</text>
</svg>
</g>
<text font-size="18.000000" fill ="black" font-family="sans-serif"
x="10.000000" y="20.000000" ></text>
</svg>
