<?xml version="1.0"?>
<svg version="1.1" id="topsvg"
xmlns="http://www.w3.org/2000/svg" xmlns:xlink="http://www.w3.org/1999/xlink"
xmlns:cml="http://www.xml-cml.org/schema" x="0" y="0" width="200px" height="200px" viewBox="0 0 100 100">
<title> - Open Babel Depiction</title>
<rect x="0" y="0" width="100" height="100" fill="white"/>
<g transform="translate(0,0)">
<svg width="100" height="100" x="0" y="0" viewBox="0 0 398.551 461.779"
font-family="sans-serif" stroke="rgb(0,0,0)" stroke-width="2"  stroke-linecap="round">
<line x1="197.1" y1="137.9" x2="178.1" y2="170.8" stroke="rgb(0,0,0)"  stroke-width="2.0"/>
<line x1="140.3" y1="174.8" x2="123.6" y2="156.2" stroke="rgb(0,0,0)"  stroke-width="2.0"/>
<line x1="132.4" y1="211.9" x2="97.7" y2="227.4" stroke="rgb(0,0,0)"  stroke-width="2.0"/>
<line x1="97.7" y1="227.4" x2="74.9" y2="237.5" stroke="rgb(0,0,0)"  stroke-width="2.0"/>
<line x1="99.4" y1="231.2" x2="76.6" y2="241.4" stroke="rgb(0,0,0)"  stroke-width="2.0"/>
<line x1="96.0" y1="223.5" x2="73.2" y2="233.7" stroke="rgb(0,0,0)"  stroke-width="2.0"/>
<line x1="165.3" y1="230.9" x2="169.3" y2="268.7" stroke="rgb(0,0,0)"  stroke-width="2.0"/>
<line x1="171.1" y1="271.1" x2="140.3" y2="293.4" stroke="rgb(0,0,0)"  stroke-width="2.0"/>
<line x1="167.5" y1="266.2" x2="136.8" y2="288.6" stroke="rgb(0,0,0)"  stroke-width="2.0"/>
<line x1="138.6" y1="291.0" x2="142.5" y2="328.8" stroke="rgb(0,0,0)"  stroke-width="2.0"/>
<line x1="114.3" y1="354.2" x2="77.2" y2="346.3" stroke="rgb(0,0,0)"  stroke-width="2.0"/>
<line x1="77.2" y1="346.3" x2="52.7" y2="341.1" stroke="rgb(0,0,0)"  stroke-width="2.0"/>
<line x1="76.3" y1="350.4" x2="51.8" y2="345.2" stroke="rgb(0,0,0)"  stroke-width="2.0"/>
<line x1="78.0" y1="342.2" x2="53.6" y2="337.0" stroke="rgb(0,0,0)"  stroke-width="2.0"/>
<line x1="129.8" y1="388.9" x2="117.3" y2="410.5" stroke="rgb(0,0,0)"  stroke-width="2.0"/>
<line x1="167.5" y1="384.9" x2="184.2" y2="403.5" stroke="rgb(0,0,0)"  stroke-width="2.0"/>
<line x1="270.7" y1="152.6" x2="273.4" y2="177.4" stroke="rgb(0,0,0)"  stroke-width="2.0"/>
<line x1="264.8" y1="153.2" x2="267.4" y2="178.1" stroke="rgb(0,0,0)"  stroke-width="2.0"/>
<line x1="308.7" y1="130.2" x2="320.4" y2="132.7" stroke="rgb(0,0,0)"  stroke-width="2.0"/>
<line x1="341.8" y1="125.7" x2="349.9" y2="116.8" stroke="rgb(0,0,0)"  stroke-width="2.0"/>
<line x1="280.5" y1="92.8" x2="293.0" y2="71.2" stroke="rgb(0,0,0)"  stroke-width="2.0"/>
<line x1="206.9" y1="78.1" x2="204.3" y2="53.2" stroke="rgb(0,0,0)"  stroke-width="2.0"/>
<line x1="212.8" y1="77.5" x2="210.2" y2="52.6" stroke="rgb(0,0,0)"  stroke-width="2.0"/>
<line x1="186.1" y1="115.4" x2="215.9" y2="196.8" stroke="rgb(0,0,0)"  stroke-width="2.0"/>
<line x1="207.3" y1="209.0" x2="195.4" y2="209.0" stroke="rgb(0,0,0)"  stroke-width="2.0"/>
<line x1="132.4" y1="211.9" x2="165.3" y2="230.9" stroke="rgb(0,0,0)"  stroke-width="2.0"/>
<line x1="141.2" y1="208.7" x2="163.7" y2="221.7" stroke="rgb(0,0,0)"  stroke-width="2.0"/>
<line x1="165.3" y1="230.9" x2="183.9" y2="214.2" stroke="rgb(0,0,0)"  stroke-width="2.0"/>
<line x1="188.3" y1="193.6" x2="178.1" y2="170.8" stroke="rgb(0,0,0)"  stroke-width="2.0"/>
<line x1="178.1" y1="170.8" x2="140.3" y2="174.8" stroke="rgb(0,0,0)"  stroke-width="2.0"/>
<line x1="172.9" y1="178.6" x2="147.0" y2="181.3" stroke="rgb(0,0,0)"  stroke-width="2.0"/>
<line x1="140.3" y1="174.8" x2="132.4" y2="211.9" stroke="rgb(0,0,0)"  stroke-width="2.0"/>
<line x1="129.8" y1="388.9" x2="167.5" y2="384.9" stroke="rgb(0,0,0)"  stroke-width="2.0"/>
<line x1="135.0" y1="381.1" x2="160.8" y2="378.4" stroke="rgb(0,0,0)"  stroke-width="2.0"/>
<line x1="167.5" y1="384.9" x2="172.7" y2="360.5" stroke="rgb(0,0,0)"  stroke-width="2.0"/>
<line x1="164.2" y1="341.3" x2="142.5" y2="328.8" stroke="rgb(0,0,0)"  stroke-width="2.0"/>
<line x1="142.5" y1="328.8" x2="114.3" y2="354.2" stroke="rgb(0,0,0)"  stroke-width="2.0"/>
<line x1="142.9" y1="338.1" x2="123.6" y2="355.5" stroke="rgb(0,0,0)"  stroke-width="2.0"/>
<line x1="114.3" y1="354.2" x2="129.8" y2="388.9" stroke="rgb(0,0,0)"  stroke-width="2.0"/>
<line x1="267.8" y1="152.9" x2="286.3" y2="136.2" stroke="rgb(0,0,0)"  stroke-width="2.0"/>
<line x1="290.7" y1="115.6" x2="280.5" y2="92.8" stroke="rgb(0,0,0)"  stroke-width="2.0"/>
<line x1="280.5" y1="92.8" x2="242.8" y2="96.8" stroke="rgb(0,0,0)"  stroke-width="2.0"/>
<line x1="275.3" y1="100.6" x2="249.5" y2="103.3" stroke="rgb(0,0,0)"  stroke-width="2.0"/>
<line x1="242.8" y1="96.8" x2="234.9" y2="133.9" stroke="rgb(0,0,0)"  stroke-width="2.0"/>
<line x1="234.9" y1="133.9" x2="267.8" y2="152.9" stroke="rgb(0,0,0)"  stroke-width="2.0"/>
<line x1="242.8" y1="96.8" x2="209.9" y2="77.8" stroke="rgb(0,0,0)"  stroke-width="2.0"/>
<line x1="209.9" y1="77.8" x2="191.3" y2="94.5" stroke="rgb(0,0,0)"  stroke-width="2.0"/>
<line x1="186.9" y1="115.1" x2="197.1" y2="137.9" stroke="rgb(0,0,0)"  stroke-width="2.0"/>
<line x1="197.1" y1="137.9" x2="234.9" y2="133.9" stroke="rgb(0,0,0)"  stroke-width="2.0"/>
<line x1="202.3" y1="130.1" x2="228.1" y2="127.4" stroke="rgb(0,0,0)"  stroke-width="2.0"/>
<text x="186.943749" y="421.141388" fill="rgb(191,191,191)"  stroke="rgb(191,191,191)" stroke-width="1" font-size="16" >H</text>
<text x="169.425478" y="355.762309" fill="rgb(178,178,0)"  stroke="rgb(178,178,0)" stroke-width="1" font-size="16" >S</text>
<text x="265.727148" y="198.684055" fill="rgb(255,12,12)"  stroke="rgb(255,12,12)" stroke-width="1" font-size="16" >O</text>
<text x="289.983427" y="135.494287" fill="rgb(12,12,255)"  stroke="rgb(12,12,255)" stroke-width="1" font-size="16" >N</text>
<text x="327.135970" y="143.391303" fill="rgb(255,12,12)"  stroke="rgb(255,12,12)" stroke-width="1" font-size="16" >O</text>
<text x="354.551258" y="115.164766" fill="rgb(102,102,102)"  stroke="rgb(102,102,102)" stroke-width="1" font-size="16" >CH</text>
<text x="378.551258" y="118.844766" fill="rgb(102,102,102)"  stroke="rgb(102,102,102)" stroke-width="1" font-size="13" >3</text>
<text x="293.525807" y="67.901643" fill="rgb(191,191,191)"  stroke="rgb(191,191,191)" stroke-width="1" font-size="16" >H</text>
<text x="199.895938" y="48.000000" fill="rgb(255,12,12)"  stroke="rgb(255,12,12)" stroke-width="1" font-size="16" >O</text>
<text x="175.639659" y="111.189768" fill="rgb(12,12,255)"  stroke="rgb(12,12,255)" stroke-width="1" font-size="16" >N</text>
<text x="214.341220" y="216.959713" fill="rgb(255,12,12)"  stroke="rgb(255,12,12)" stroke-width="1" font-size="16" >O</text>
<text x="156.358668" y="216.959713" fill="rgb(102,102,102)"  stroke="rgb(102,102,102)" stroke-width="1" font-size="16" >H</text>
<text x="168.358668" y="220.639713" fill="rgb(102,102,102)"  stroke="rgb(102,102,102)" stroke-width="1" font-size="13" >3</text>
<text x="174.858668" y="216.959713" fill="rgb(102,102,102)"  stroke="rgb(102,102,102)" stroke-width="1" font-size="16" >C</text>
<text x="96.907510" y="154.526132" fill="rgb(30,239,30)"  stroke="rgb(30,239,30)" stroke-width="1" font-size="16" >Cl</text>
<text x="57.028205" y="250.803004" fill="rgb(12,12,255)"  stroke="rgb(12,12,255)" stroke-width="1" font-size="16" >N</text>
<text x="187.546174" y="213.481200" fill="rgb(178,178,0)"  stroke="rgb(178,178,0)" stroke-width="1" font-size="16" >S</text>
<text x="34.000000" y="346.392287" fill="rgb(12,12,255)"  stroke="rgb(12,12,255)" stroke-width="1" font-size="16" >N</text>
<text x="92.762705" y="429.778964" fill="rgb(30,239,30)"  stroke="rgb(30,239,30)" stroke-width="1" font-size="16" >Cl</text>
</svg>
</g>
<text font-size="18.000000" fill ="black" font-family="sans-serif"
x="10.000000" y="20.000000" ></text>
</svg>
