<?xml version="1.0"?>
<svg version="1.1" id="topsvg"
xmlns="http://www.w3.org/2000/svg" xmlns:xlink="http://www.w3.org/1999/xlink"
xmlns:cml="http://www.xml-cml.org/schema" x="0" y="0" width="200px" height="200px" viewBox="0 0 100 100">
<title> - Open Babel Depiction</title>
<rect x="0" y="0" width="100" height="100" fill="white"/>
<g transform="translate(0,0)">
<svg width="100" height="100" x="0" y="0" viewBox="0 0 523.756 306.08"
font-family="sans-serif" stroke="rgb(0,0,0)" stroke-width="2"  stroke-linecap="round">
<line x1="214.3" y1="200.4" x2="248.9" y2="220.1" stroke="rgb(0,0,0)"  stroke-width="2.0"/>
<line x1="346.6" y1="174.9" x2="359.9" y2="151.5" stroke="rgb(0,0,0)"  stroke-width="2.0"/>
<line x1="346.6" y1="174.9" x2="333.1" y2="151.6" stroke="rgb(0,0,0)"  stroke-width="2.0"/>
<line x1="444.8" y1="219.1" x2="471.1" y2="213.4" stroke="rgb(0,0,0)"  stroke-width="2.0"/>
<line x1="113.1" y1="221.3" x2="113.2" y2="248.3" stroke="rgb(0,0,0)"  stroke-width="2.0"/>
<line x1="107.1" y1="221.3" x2="107.2" y2="248.3" stroke="rgb(0,0,0)"  stroke-width="2.0"/>
<line x1="64.4" y1="208.1" x2="52.4" y2="215.2" stroke="rgb(0,0,0)"  stroke-width="2.0"/>
<line x1="73.4" y1="163.7" x2="49.9" y2="150.5" stroke="rgb(0,0,0)"  stroke-width="2.0"/>
<line x1="76.3" y1="158.4" x2="52.8" y2="145.2" stroke="rgb(0,0,0)"  stroke-width="2.0"/>
<line x1="109.8" y1="100.7" x2="86.2" y2="87.5" stroke="rgb(0,0,0)"  stroke-width="2.0"/>
<line x1="210.5" y1="80.0" x2="210.4" y2="53.0" stroke="rgb(0,0,0)"  stroke-width="2.0"/>
<line x1="216.5" y1="80.0" x2="216.4" y2="53.0" stroke="rgb(0,0,0)"  stroke-width="2.0"/>
<line x1="259.7" y1="93.2" x2="271.8" y2="86.2" stroke="rgb(0,0,0)"  stroke-width="2.0"/>
<line x1="250.2" y1="137.6" x2="273.7" y2="151.0" stroke="rgb(0,0,0)"  stroke-width="2.0"/>
<line x1="247.3" y1="142.8" x2="270.7" y2="156.2" stroke="rgb(0,0,0)"  stroke-width="2.0"/>
<line x1="314.5" y1="198.5" x2="327.0" y2="236.3" stroke="rgb(0,0,0)"  stroke-width="2.0"/>
<line x1="309.5" y1="206.4" x2="318.3" y2="232.9" stroke="rgb(0,0,0)"  stroke-width="2.0"/>
<line x1="327.0" y1="236.3" x2="300.5" y2="266.1" stroke="rgb(0,0,0)"  stroke-width="2.0"/>
<line x1="300.5" y1="266.1" x2="261.4" y2="258.0" stroke="rgb(0,0,0)"  stroke-width="2.0"/>
<line x1="296.1" y1="257.8" x2="268.8" y2="252.2" stroke="rgb(0,0,0)"  stroke-width="2.0"/>
<line x1="261.4" y1="258.0" x2="248.9" y2="220.1" stroke="rgb(0,0,0)"  stroke-width="2.0"/>
<line x1="248.9" y1="220.1" x2="275.4" y2="190.4" stroke="rgb(0,0,0)"  stroke-width="2.0"/>
<line x1="258.3" y1="220.4" x2="276.8" y2="199.6" stroke="rgb(0,0,0)"  stroke-width="2.0"/>
<line x1="275.4" y1="190.4" x2="314.5" y2="198.5" stroke="rgb(0,0,0)"  stroke-width="2.0"/>
<line x1="418.0" y1="189.6" x2="379.0" y2="198.1" stroke="rgb(0,0,0)"  stroke-width="2.0"/>
<line x1="413.6" y1="197.9" x2="386.4" y2="203.9" stroke="rgb(0,0,0)"  stroke-width="2.0"/>
<line x1="379.0" y1="198.1" x2="366.9" y2="236.1" stroke="rgb(0,0,0)"  stroke-width="2.0"/>
<line x1="366.9" y1="236.1" x2="393.7" y2="265.6" stroke="rgb(0,0,0)"  stroke-width="2.0"/>
<line x1="376.2" y1="235.7" x2="395.0" y2="256.3" stroke="rgb(0,0,0)"  stroke-width="2.0"/>
<line x1="393.7" y1="265.6" x2="432.7" y2="257.1" stroke="rgb(0,0,0)"  stroke-width="2.0"/>
<line x1="432.7" y1="257.1" x2="444.8" y2="219.1" stroke="rgb(0,0,0)"  stroke-width="2.0"/>
<line x1="427.6" y1="249.2" x2="436.1" y2="222.7" stroke="rgb(0,0,0)"  stroke-width="2.0"/>
<line x1="444.8" y1="219.1" x2="418.0" y2="189.6" stroke="rgb(0,0,0)"  stroke-width="2.0"/>
<line x1="144.8" y1="201.0" x2="144.7" y2="160.5" stroke="rgb(0,0,0)"  stroke-width="2.0"/>
<line x1="151.9" y1="195.0" x2="151.9" y2="166.5" stroke="rgb(0,0,0)"  stroke-width="2.0"/>
<line x1="144.7" y1="160.5" x2="179.2" y2="140.3" stroke="rgb(0,0,0)"  stroke-width="2.0"/>
<line x1="179.2" y1="140.3" x2="214.1" y2="160.5" stroke="rgb(0,0,0)"  stroke-width="2.0"/>
<line x1="180.8" y1="149.6" x2="205.3" y2="163.7" stroke="rgb(0,0,0)"  stroke-width="2.0"/>
<line x1="214.1" y1="160.5" x2="214.3" y2="200.4" stroke="rgb(0,0,0)"  stroke-width="2.0"/>
<line x1="214.3" y1="200.4" x2="179.8" y2="220.5" stroke="rgb(0,0,0)"  stroke-width="2.0"/>
<line x1="205.5" y1="197.2" x2="181.3" y2="211.3" stroke="rgb(0,0,0)"  stroke-width="2.0"/>
<line x1="179.8" y1="220.5" x2="144.8" y2="201.0" stroke="rgb(0,0,0)"  stroke-width="2.0"/>
<line x1="74.9" y1="161.1" x2="109.5" y2="140.8" stroke="rgb(0,0,0)"  stroke-width="2.0"/>
<line x1="109.5" y1="140.8" x2="144.7" y2="160.5" stroke="rgb(0,0,0)"  stroke-width="2.0"/>
<line x1="144.8" y1="201.0" x2="110.1" y2="221.3" stroke="rgb(0,0,0)"  stroke-width="2.0"/>
<line x1="110.1" y1="221.3" x2="86.9" y2="207.9" stroke="rgb(0,0,0)"  stroke-width="2.0"/>
<line x1="75.4" y1="188.4" x2="74.9" y2="161.1" stroke="rgb(0,0,0)"  stroke-width="2.0"/>
<line x1="144.2" y1="80.5" x2="178.9" y2="100.3" stroke="rgb(0,0,0)"  stroke-width="2.0"/>
<line x1="145.9" y1="89.8" x2="170.1" y2="103.6" stroke="rgb(0,0,0)"  stroke-width="2.0"/>
<line x1="178.9" y1="100.3" x2="179.2" y2="140.3" stroke="rgb(0,0,0)"  stroke-width="2.0"/>
<line x1="109.5" y1="140.8" x2="109.8" y2="100.7" stroke="rgb(0,0,0)"  stroke-width="2.0"/>
<line x1="116.8" y1="134.8" x2="116.9" y2="106.7" stroke="rgb(0,0,0)"  stroke-width="2.0"/>
<line x1="109.8" y1="100.7" x2="144.2" y2="80.5" stroke="rgb(0,0,0)"  stroke-width="2.0"/>
<line x1="248.6" y1="112.8" x2="248.8" y2="140.2" stroke="rgb(0,0,0)"  stroke-width="2.0"/>
<line x1="248.8" y1="140.2" x2="214.1" y2="160.5" stroke="rgb(0,0,0)"  stroke-width="2.0"/>
<line x1="178.9" y1="100.3" x2="213.5" y2="80.0" stroke="rgb(0,0,0)"  stroke-width="2.0"/>
<line x1="213.5" y1="80.0" x2="237.2" y2="93.4" stroke="rgb(0,0,0)"  stroke-width="2.0"/>
<line x1="366.9" y1="236.1" x2="327.0" y2="236.3" stroke="rgb(0,0,0)"  stroke-width="2.0"/>
<line x1="314.5" y1="198.5" x2="346.6" y2="174.9" stroke="rgb(0,0,0)"  stroke-width="2.0"/>
<line x1="346.6" y1="174.9" x2="379.0" y2="198.1" stroke="rgb(0,0,0)"  stroke-width="2.0"/>
<text x="104.285880" y="269.286971" fill="rgb(255,12,12)"  stroke="rgb(255,12,12)" stroke-width="1" font-size="16" >O</text>
<text x="69.622283" y="209.445745" fill="rgb(12,12,255)"  stroke="rgb(12,12,255)" stroke-width="1" font-size="16" >N</text>
<text x="35.179244" y="229.784798" fill="rgb(191,191,191)"  stroke="rgb(191,191,191)" stroke-width="1" font-size="16" >H</text>
<text x="34.000000" y="149.473845" fill="rgb(255,12,12)"  stroke="rgb(255,12,12)" stroke-width="1" font-size="16" >O</text>
<text x="68.876034" y="89.101832" fill="rgb(191,191,191)"  stroke="rgb(191,191,191)" stroke-width="1" font-size="16" >H</text>
<text x="207.278983" y="48.000000" fill="rgb(255,12,12)"  stroke="rgb(255,12,12)" stroke-width="1" font-size="16" >O</text>
<text x="242.530115" y="107.815810" fill="rgb(12,12,255)"  stroke="rgb(12,12,255)" stroke-width="1" font-size="16" >N</text>
<text x="277.032812" y="87.578123" fill="rgb(191,191,191)"  stroke="rgb(191,191,191)" stroke-width="1" font-size="16" >H</text>
<text x="277.505876" y="168.036769" fill="rgb(255,12,12)"  stroke="rgb(255,12,12)" stroke-width="1" font-size="16" >O</text>
<text x="477.756352" y="218.644683" fill="rgb(191,191,191)"  stroke="rgb(191,191,191)" stroke-width="1" font-size="16" >H</text>
<text x="362.387710" y="148.218018" fill="rgb(102,102,102)"  stroke="rgb(102,102,102)" stroke-width="1" font-size="16" >CH</text>
<text x="386.387710" y="151.898018" fill="rgb(102,102,102)"  stroke="rgb(102,102,102)" stroke-width="1" font-size="13" >3</text>
<text x="300.513708" y="148.420509" fill="rgb(102,102,102)"  stroke="rgb(102,102,102)" stroke-width="1" font-size="16" >H</text>
<text x="312.513708" y="152.100509" fill="rgb(102,102,102)"  stroke="rgb(102,102,102)" stroke-width="1" font-size="13" >3</text>
<text x="319.013708" y="148.420509" fill="rgb(102,102,102)"  stroke="rgb(102,102,102)" stroke-width="1" font-size="16" >C</text>
</svg>
</g>
<text font-size="18.000000" fill ="black" font-family="sans-serif"
x="10.000000" y="20.000000" ></text>
</svg>
