<?xml version="1.0"?>
<svg version="1.1" id="topsvg"
xmlns="http://www.w3.org/2000/svg" xmlns:xlink="http://www.w3.org/1999/xlink"
xmlns:cml="http://www.xml-cml.org/schema" x="0" y="0" width="200px" height="200px" viewBox="0 0 100 100">
<title> - Open Babel Depiction</title>
<rect x="0" y="0" width="100" height="100" fill="white"/>
<g transform="translate(0,0)">
<svg width="100" height="100" x="0" y="0" viewBox="0 0 435.468 360.402"
font-family="sans-serif" stroke="rgb(0,0,0)" stroke-width="2"  stroke-linecap="round">
<line x1="235.5" y1="212.0" x2="275.5" y2="212.0" stroke="rgb(0,0,0)"  stroke-width="2.0"/>
<line x1="335.5" y1="246.6" x2="355.5" y2="281.2" stroke="rgb(0,0,0)"  stroke-width="2.0"/>
<line x1="355.5" y1="278.2" x2="382.5" y2="278.2" stroke="rgb(0,0,0)"  stroke-width="2.0"/>
<line x1="355.5" y1="284.2" x2="382.5" y2="284.2" stroke="rgb(0,0,0)"  stroke-width="2.0"/>
<line x1="355.5" y1="281.2" x2="342.0" y2="304.6" stroke="rgb(0,0,0)"  stroke-width="2.0"/>
<line x1="322.5" y1="315.9" x2="308.5" y2="315.9" stroke="rgb(0,0,0)"  stroke-width="2.0"/>
<line x1="355.5" y1="212.0" x2="382.5" y2="212.0" stroke="rgb(0,0,0)"  stroke-width="2.0"/>
<line x1="295.5" y1="177.3" x2="275.5" y2="142.7" stroke="rgb(0,0,0)"  stroke-width="2.0"/>
<line x1="275.5" y1="145.7" x2="248.5" y2="145.7" stroke="rgb(0,0,0)"  stroke-width="2.0"/>
<line x1="275.5" y1="139.7" x2="248.5" y2="139.7" stroke="rgb(0,0,0)"  stroke-width="2.0"/>
<line x1="275.5" y1="142.7" x2="289.0" y2="119.3" stroke="rgb(0,0,0)"  stroke-width="2.0"/>
<line x1="289.0" y1="96.8" x2="282.0" y2="84.7" stroke="rgb(0,0,0)"  stroke-width="2.0"/>
<line x1="212.0" y1="244.3" x2="224.3" y2="282.4" stroke="rgb(0,0,0)"  stroke-width="2.0"/>
<line x1="224.3" y1="282.4" x2="232.7" y2="308.0" stroke="rgb(0,0,0)"  stroke-width="2.0"/>
<line x1="228.3" y1="281.1" x2="236.7" y2="306.7" stroke="rgb(0,0,0)"  stroke-width="2.0"/>
<line x1="220.3" y1="283.7" x2="228.7" y2="309.3" stroke="rgb(0,0,0)"  stroke-width="2.0"/>
<line x1="173.9" y1="192.0" x2="141.6" y2="168.4" stroke="rgb(0,0,0)"  stroke-width="2.0"/>
<line x1="80.0" y1="148.4" x2="53.0" y2="148.4" stroke="rgb(0,0,0)"  stroke-width="2.0"/>
<line x1="103.5" y1="116.1" x2="91.2" y2="78.0" stroke="rgb(0,0,0)"  stroke-width="2.0"/>
<line x1="91.2" y1="78.0" x2="82.8" y2="52.4" stroke="rgb(0,0,0)"  stroke-width="2.0"/>
<line x1="87.2" y1="79.3" x2="78.8" y2="53.7" stroke="rgb(0,0,0)"  stroke-width="2.0"/>
<line x1="95.1" y1="76.7" x2="86.8" y2="51.1" stroke="rgb(0,0,0)"  stroke-width="2.0"/>
<line x1="173.9" y1="218.8" x2="173.9" y2="192.0" stroke="rgb(0,0,0)"  stroke-width="2.0"/>
<line x1="181.1" y1="216.8" x2="181.1" y2="198.0" stroke="rgb(0,0,0)"  stroke-width="2.0"/>
<line x1="173.9" y1="192.0" x2="199.6" y2="183.6" stroke="rgb(0,0,0)"  stroke-width="2.0"/>
<line x1="219.6" y1="190.1" x2="235.5" y2="212.0" stroke="rgb(0,0,0)"  stroke-width="2.0"/>
<line x1="235.5" y1="212.0" x2="212.0" y2="244.3" stroke="rgb(0,0,0)"  stroke-width="2.0"/>
<line x1="226.1" y1="212.6" x2="209.7" y2="235.2" stroke="rgb(0,0,0)"  stroke-width="2.0"/>
<line x1="212.0" y1="244.3" x2="186.3" y2="236.0" stroke="rgb(0,0,0)"  stroke-width="2.0"/>
<line x1="80.0" y1="148.4" x2="103.5" y2="116.1" stroke="rgb(0,0,0)"  stroke-width="2.0"/>
<line x1="89.4" y1="147.8" x2="105.8" y2="125.2" stroke="rgb(0,0,0)"  stroke-width="2.0"/>
<line x1="103.5" y1="116.1" x2="129.2" y2="124.4" stroke="rgb(0,0,0)"  stroke-width="2.0"/>
<line x1="141.6" y1="141.6" x2="141.6" y2="168.4" stroke="rgb(0,0,0)"  stroke-width="2.0"/>
<line x1="134.4" y1="143.6" x2="134.4" y2="162.4" stroke="rgb(0,0,0)"  stroke-width="2.0"/>
<line x1="141.6" y1="168.4" x2="115.9" y2="176.8" stroke="rgb(0,0,0)"  stroke-width="2.0"/>
<line x1="95.9" y1="170.3" x2="80.0" y2="148.4" stroke="rgb(0,0,0)"  stroke-width="2.0"/>
<line x1="335.5" y1="246.6" x2="355.5" y2="212.0" stroke="rgb(0,0,0)"  stroke-width="2.0"/>
<line x1="332.2" y1="237.8" x2="346.2" y2="213.6" stroke="rgb(0,0,0)"  stroke-width="2.0"/>
<line x1="355.5" y1="212.0" x2="335.5" y2="177.3" stroke="rgb(0,0,0)"  stroke-width="2.0"/>
<line x1="335.5" y1="177.3" x2="295.5" y2="177.3" stroke="rgb(0,0,0)"  stroke-width="2.0"/>
<line x1="329.5" y1="184.5" x2="301.5" y2="184.5" stroke="rgb(0,0,0)"  stroke-width="2.0"/>
<line x1="295.5" y1="177.3" x2="275.5" y2="212.0" stroke="rgb(0,0,0)"  stroke-width="2.0"/>
<line x1="275.5" y1="212.0" x2="295.5" y2="246.6" stroke="rgb(0,0,0)"  stroke-width="2.0"/>
<line x1="284.7" y1="213.6" x2="298.7" y2="237.8" stroke="rgb(0,0,0)"  stroke-width="2.0"/>
<line x1="295.5" y1="246.6" x2="335.5" y2="246.6" stroke="rgb(0,0,0)"  stroke-width="2.0"/>
<text x="249.468021" y="81.392547" fill="rgb(102,102,102)"  stroke="rgb(102,102,102)" stroke-width="1" font-size="16" >H</text>
<text x="261.468021" y="85.072547" fill="rgb(102,102,102)"  stroke="rgb(102,102,102)" stroke-width="1" font-size="13" >3</text>
<text x="267.968021" y="81.392547" fill="rgb(102,102,102)"  stroke="rgb(102,102,102)" stroke-width="1" font-size="16" >C</text>
<text x="135.553671" y="136.445201" fill="rgb(12,12,255)"  stroke="rgb(12,12,255)" stroke-width="1" font-size="16" >N</text>
<text x="72.790051" y="48.000000" fill="rgb(12,12,255)"  stroke="rgb(12,12,255)" stroke-width="1" font-size="16" >N</text>
<text x="34.000000" y="156.445201" fill="rgb(191,191,191)"  stroke="rgb(191,191,191)" stroke-width="1" font-size="16" >H</text>
<text x="97.511410" y="188.805881" fill="rgb(178,178,0)"  stroke="rgb(178,178,0)" stroke-width="1" font-size="16" >S</text>
<text x="205.956611" y="187.595931" fill="rgb(178,178,0)"  stroke="rgb(178,178,0)" stroke-width="1" font-size="16" >S</text>
<text x="167.914351" y="239.956611" fill="rgb(12,12,255)"  stroke="rgb(12,12,255)" stroke-width="1" font-size="16" >N</text>
<text x="230.677971" y="328.401812" fill="rgb(12,12,255)"  stroke="rgb(12,12,255)" stroke-width="1" font-size="16" >N</text>
<text x="289.468021" y="116.033563" fill="rgb(255,12,12)"  stroke="rgb(255,12,12)" stroke-width="1" font-size="16" >O</text>
<text x="229.468021" y="150.674579" fill="rgb(255,12,12)"  stroke="rgb(255,12,12)" stroke-width="1" font-size="16" >O</text>
<text x="389.468021" y="219.956611" fill="rgb(191,191,191)"  stroke="rgb(191,191,191)" stroke-width="1" font-size="16" >H</text>
<text x="269.468021" y="323.879660" fill="rgb(102,102,102)"  stroke="rgb(102,102,102)" stroke-width="1" font-size="16" >H</text>
<text x="281.468021" y="327.559660" fill="rgb(102,102,102)"  stroke="rgb(102,102,102)" stroke-width="1" font-size="13" >3</text>
<text x="287.968021" y="323.879660" fill="rgb(102,102,102)"  stroke="rgb(102,102,102)" stroke-width="1" font-size="16" >C</text>
<text x="329.468021" y="323.879660" fill="rgb(255,12,12)"  stroke="rgb(255,12,12)" stroke-width="1" font-size="16" >O</text>
<text x="389.468021" y="289.238643" fill="rgb(255,12,12)"  stroke="rgb(255,12,12)" stroke-width="1" font-size="16" >O</text>
</svg>
</g>
<text font-size="18.000000" fill ="black" font-family="sans-serif"
x="10.000000" y="20.000000" ></text>
</svg>
