<?xml version="1.0"?>
<svg version="1.1" id="topsvg"
xmlns="http://www.w3.org/2000/svg" xmlns:xlink="http://www.w3.org/1999/xlink"
xmlns:cml="http://www.xml-cml.org/schema" x="0" y="0" width="200px" height="200px" viewBox="0 0 100 100">
<title> - Open Babel Depiction</title>
<rect x="0" y="0" width="100" height="100" fill="white"/>
<g transform="translate(0,0)">
<svg width="100" height="100" x="0" y="0" viewBox="0 0 424.085 402.224"
font-family="sans-serif" stroke="rgb(0,0,0)" stroke-width="2"  stroke-linecap="round">
<line x1="280.2" y1="222.2" x2="245.5" y2="202.2" stroke="rgb(0,0,0)"  stroke-width="2.0"/>
<line x1="175.4" y1="124.4" x2="163.1" y2="86.4" stroke="rgb(0,0,0)"  stroke-width="2.0"/>
<line x1="160.9" y1="84.4" x2="178.9" y2="64.3" stroke="rgb(0,0,0)"  stroke-width="2.0"/>
<line x1="165.3" y1="88.4" x2="183.4" y2="68.3" stroke="rgb(0,0,0)"  stroke-width="2.0"/>
<line x1="163.1" y1="86.4" x2="136.7" y2="80.7" stroke="rgb(0,0,0)"  stroke-width="2.0"/>
<line x1="119.9" y1="65.7" x2="115.6" y2="52.4" stroke="rgb(0,0,0)"  stroke-width="2.0"/>
<line x1="175.4" y1="124.4" x2="202.2" y2="94.7" stroke="rgb(0,0,0)"  stroke-width="2.0"/>
<line x1="199.4" y1="95.6" x2="191.0" y2="69.9" stroke="rgb(0,0,0)"  stroke-width="2.0"/>
<line x1="205.1" y1="93.7" x2="196.7" y2="68.1" stroke="rgb(0,0,0)"  stroke-width="2.0"/>
<line x1="202.2" y1="94.7" x2="228.6" y2="100.3" stroke="rgb(0,0,0)"  stroke-width="2.0"/>
<line x1="250.0" y1="93.3" x2="259.4" y2="82.9" stroke="rgb(0,0,0)"  stroke-width="2.0"/>
<line x1="79.8" y1="167.0" x2="52.9" y2="169.8" stroke="rgb(0,0,0)"  stroke-width="2.0"/>
<line x1="349.4" y1="262.2" x2="372.8" y2="275.7" stroke="rgb(0,0,0)"  stroke-width="2.0"/>
<line x1="314.8" y1="282.2" x2="314.8" y2="322.2" stroke="rgb(0,0,0)"  stroke-width="2.0"/>
<line x1="314.8" y1="322.2" x2="314.8" y2="349.2" stroke="rgb(0,0,0)"  stroke-width="2.0"/>
<line x1="319.0" y1="322.2" x2="319.0" y2="349.2" stroke="rgb(0,0,0)"  stroke-width="2.0"/>
<line x1="310.6" y1="322.2" x2="310.6" y2="349.2" stroke="rgb(0,0,0)"  stroke-width="2.0"/>
<line x1="280.2" y1="262.2" x2="245.5" y2="282.2" stroke="rgb(0,0,0)"  stroke-width="2.0"/>
<line x1="245.5" y1="282.2" x2="222.1" y2="295.7" stroke="rgb(0,0,0)"  stroke-width="2.0"/>
<line x1="247.6" y1="285.9" x2="224.2" y2="299.4" stroke="rgb(0,0,0)"  stroke-width="2.0"/>
<line x1="243.4" y1="278.6" x2="220.0" y2="292.1" stroke="rgb(0,0,0)"  stroke-width="2.0"/>
<line x1="202.2" y1="154.1" x2="182.2" y2="188.8" stroke="rgb(0,0,0)"  stroke-width="2.0"/>
<line x1="205.4" y1="162.9" x2="191.4" y2="187.2" stroke="rgb(0,0,0)"  stroke-width="2.0"/>
<line x1="182.2" y1="188.8" x2="200.3" y2="208.8" stroke="rgb(0,0,0)"  stroke-width="2.0"/>
<line x1="220.9" y1="213.2" x2="245.5" y2="202.2" stroke="rgb(0,0,0)"  stroke-width="2.0"/>
<line x1="245.5" y1="202.2" x2="241.3" y2="162.4" stroke="rgb(0,0,0)"  stroke-width="2.0"/>
<line x1="237.7" y1="197.0" x2="234.8" y2="169.2" stroke="rgb(0,0,0)"  stroke-width="2.0"/>
<line x1="241.3" y1="162.4" x2="202.2" y2="154.1" stroke="rgb(0,0,0)"  stroke-width="2.0"/>
<line x1="79.8" y1="167.0" x2="97.8" y2="187.1" stroke="rgb(0,0,0)"  stroke-width="2.0"/>
<line x1="118.4" y1="191.4" x2="143.1" y2="180.5" stroke="rgb(0,0,0)"  stroke-width="2.0"/>
<line x1="143.1" y1="180.5" x2="138.9" y2="140.7" stroke="rgb(0,0,0)"  stroke-width="2.0"/>
<line x1="135.3" y1="175.2" x2="132.4" y2="147.4" stroke="rgb(0,0,0)"  stroke-width="2.0"/>
<line x1="138.9" y1="140.7" x2="99.8" y2="132.4" stroke="rgb(0,0,0)"  stroke-width="2.0"/>
<line x1="99.8" y1="132.4" x2="79.8" y2="167.0" stroke="rgb(0,0,0)"  stroke-width="2.0"/>
<line x1="103.0" y1="141.2" x2="89.0" y2="165.4" stroke="rgb(0,0,0)"  stroke-width="2.0"/>
<line x1="336.0" y1="161.7" x2="350.0" y2="160.3" stroke="rgb(0,0,0)"  stroke-width="2.0"/>
<line x1="368.2" y1="170.8" x2="373.9" y2="183.6" stroke="rgb(0,0,0)"  stroke-width="2.0"/>
<line x1="369.4" y1="204.3" x2="349.4" y2="222.2" stroke="rgb(0,0,0)"  stroke-width="2.0"/>
<line x1="363.1" y1="200.3" x2="349.1" y2="212.9" stroke="rgb(0,0,0)"  stroke-width="2.0"/>
<line x1="349.4" y1="222.2" x2="314.8" y2="202.2" stroke="rgb(0,0,0)"  stroke-width="2.0"/>
<line x1="314.8" y1="202.2" x2="320.4" y2="176.0" stroke="rgb(0,0,0)"  stroke-width="2.0"/>
<line x1="323.1" y1="197.9" x2="327.0" y2="179.5" stroke="rgb(0,0,0)"  stroke-width="2.0"/>
<line x1="349.4" y1="222.2" x2="349.4" y2="262.2" stroke="rgb(0,0,0)"  stroke-width="2.0"/>
<line x1="349.4" y1="262.2" x2="314.8" y2="282.2" stroke="rgb(0,0,0)"  stroke-width="2.0"/>
<line x1="340.6" y1="259.0" x2="316.4" y2="273.0" stroke="rgb(0,0,0)"  stroke-width="2.0"/>
<line x1="314.8" y1="282.2" x2="280.2" y2="262.2" stroke="rgb(0,0,0)"  stroke-width="2.0"/>
<line x1="280.2" y1="262.2" x2="280.2" y2="222.2" stroke="rgb(0,0,0)"  stroke-width="2.0"/>
<line x1="287.4" y1="256.2" x2="287.4" y2="228.2" stroke="rgb(0,0,0)"  stroke-width="2.0"/>
<line x1="280.2" y1="222.2" x2="314.8" y2="202.2" stroke="rgb(0,0,0)"  stroke-width="2.0"/>
<line x1="143.1" y1="180.5" x2="182.2" y2="188.8" stroke="rgb(0,0,0)"  stroke-width="2.0"/>
<line x1="202.2" y1="154.1" x2="175.4" y2="124.4" stroke="rgb(0,0,0)"  stroke-width="2.0"/>
<line x1="175.4" y1="124.4" x2="138.9" y2="140.7" stroke="rgb(0,0,0)"  stroke-width="2.0"/>
<text x="34.000000" y="179.176142" fill="rgb(191,191,191)"  stroke="rgb(191,191,191)" stroke-width="1" font-size="16" >H</text>
<text x="100.546100" y="204.720796" fill="rgb(178,178,0)"  stroke="rgb(178,178,0)" stroke-width="1" font-size="16" >S</text>
<text x="317.119365" y="171.098221" fill="rgb(12,12,255)"  stroke="rgb(12,12,255)" stroke-width="1" font-size="16" >N</text>
<text x="356.900241" y="166.917083" fill="rgb(178,178,0)"  stroke="rgb(178,178,0)" stroke-width="1" font-size="16" >S</text>
<text x="373.169706" y="203.458901" fill="rgb(12,12,255)"  stroke="rgb(12,12,255)" stroke-width="1" font-size="16" >N</text>
<text x="378.084930" y="290.224125" fill="rgb(191,191,191)"  stroke="rgb(191,191,191)" stroke-width="1" font-size="16" >H</text>
<text x="308.802897" y="370.224125" fill="rgb(12,12,255)"  stroke="rgb(12,12,255)" stroke-width="1" font-size="16" >N</text>
<text x="204.879849" y="310.224125" fill="rgb(12,12,255)"  stroke="rgb(12,12,255)" stroke-width="1" font-size="16" >N</text>
<text x="202.979047" y="226.493591" fill="rgb(178,178,0)"  stroke="rgb(178,178,0)" stroke-width="1" font-size="16" >S</text>
<text x="183.853143" y="64.632935" fill="rgb(255,12,12)"  stroke="rgb(255,12,12)" stroke-width="1" font-size="16" >O</text>
<text x="117.962014" y="86.042261" fill="rgb(255,12,12)"  stroke="rgb(255,12,12)" stroke-width="1" font-size="16" >O</text>
<text x="85.601335" y="48.000000" fill="rgb(102,102,102)"  stroke="rgb(102,102,102)" stroke-width="1" font-size="16" >H</text>
<text x="97.601335" y="51.680000" fill="rgb(102,102,102)"  stroke="rgb(102,102,102)" stroke-width="1" font-size="13" >3</text>
<text x="104.101335" y="48.000000" fill="rgb(102,102,102)"  stroke="rgb(102,102,102)" stroke-width="1" font-size="16" >C</text>
<text x="183.853143" y="64.632935" fill="rgb(255,12,12)"  stroke="rgb(255,12,12)" stroke-width="1" font-size="16" >O</text>
<text x="235.339726" y="110.991664" fill="rgb(255,12,12)"  stroke="rgb(255,12,12)" stroke-width="1" font-size="16" >O</text>
<text x="264.104951" y="81.265871" fill="rgb(102,102,102)"  stroke="rgb(102,102,102)" stroke-width="1" font-size="16" >CH</text>
<text x="288.104951" y="84.945871" fill="rgb(102,102,102)"  stroke="rgb(102,102,102)" stroke-width="1" font-size="13" >3</text>
</svg>
</g>
<text font-size="18.000000" fill ="black" font-family="sans-serif"
x="10.000000" y="20.000000" ></text>
</svg>
