<?xml version="1.0"?>
<svg version="1.1" id="topsvg"
xmlns="http://www.w3.org/2000/svg" xmlns:xlink="http://www.w3.org/1999/xlink"
xmlns:cml="http://www.xml-cml.org/schema" x="0" y="0" width="200px" height="200px" viewBox="0 0 100 100">
<title> - Open Babel Depiction</title>
<rect x="0" y="0" width="100" height="100" fill="white"/>
<g transform="translate(0,0)">
<svg width="100" height="100" x="0" y="0" viewBox="0 0 404.202 228.081"
font-family="sans-serif" stroke="rgb(0,0,0)" stroke-width="2"  stroke-linecap="round">
<line x1="130.6" y1="109.1" x2="169.2" y2="109.1" stroke="rgb(0,0,0)"  stroke-width="2.0"/>
<line x1="266.8" y1="142.4" x2="279.9" y2="164.9" stroke="rgb(0,0,0)"  stroke-width="2.0"/>
<line x1="298.8" y1="180.1" x2="311.2" y2="184.1" stroke="rgb(0,0,0)"  stroke-width="2.0"/>
<line x1="266.8" y1="142.4" x2="292.9" y2="142.4" stroke="rgb(0,0,0)"  stroke-width="2.0"/>
<line x1="315.5" y1="151.1" x2="325.2" y2="159.8" stroke="rgb(0,0,0)"  stroke-width="2.0"/>
<line x1="327.8" y1="61.4" x2="353.0" y2="46.6" stroke="rgb(0,0,0)"  stroke-width="2.0"/>
<line x1="71.2" y1="89.8" x2="50.5" y2="74.8" stroke="rgb(0,0,0)"  stroke-width="2.0"/>
<line x1="115.6" y1="66.9" x2="124.9" y2="58.5" stroke="rgb(0,0,0)"  stroke-width="2.0"/>
<line x1="119.6" y1="71.4" x2="128.9" y2="63.0" stroke="rgb(0,0,0)"  stroke-width="2.0"/>
<line x1="102.3" y1="65.8" x2="99.7" y2="53.5" stroke="rgb(0,0,0)"  stroke-width="2.0"/>
<line x1="108.2" y1="64.5" x2="105.5" y2="52.2" stroke="rgb(0,0,0)"  stroke-width="2.0"/>
<line x1="227.8" y1="142.4" x2="227.8" y2="74.8" stroke="rgb(0,0,0)"  stroke-width="2.0"/>
<line x1="220.6" y1="136.4" x2="220.6" y2="80.8" stroke="rgb(0,0,0)"  stroke-width="2.0"/>
<line x1="227.8" y1="74.8" x2="201.7" y2="74.8" stroke="rgb(0,0,0)"  stroke-width="2.0"/>
<line x1="182.3" y1="86.1" x2="169.2" y2="109.1" stroke="rgb(0,0,0)"  stroke-width="2.0"/>
<line x1="169.2" y1="109.1" x2="188.7" y2="142.4" stroke="rgb(0,0,0)"  stroke-width="2.0"/>
<line x1="178.4" y1="110.6" x2="191.9" y2="133.6" stroke="rgb(0,0,0)"  stroke-width="2.0"/>
<line x1="188.7" y1="142.4" x2="227.8" y2="142.4" stroke="rgb(0,0,0)"  stroke-width="2.0"/>
<line x1="327.8" y1="61.4" x2="304.3" y2="51.1" stroke="rgb(0,0,0)"  stroke-width="2.0"/>
<line x1="283.8" y1="55.6" x2="266.8" y2="74.8" stroke="rgb(0,0,0)"  stroke-width="2.0"/>
<line x1="266.8" y1="74.8" x2="286.3" y2="108.1" stroke="rgb(0,0,0)"  stroke-width="2.0"/>
<line x1="276.1" y1="76.3" x2="289.5" y2="99.2" stroke="rgb(0,0,0)"  stroke-width="2.0"/>
<line x1="286.3" y1="108.1" x2="324.0" y2="99.8" stroke="rgb(0,0,0)"  stroke-width="2.0"/>
<line x1="324.0" y1="99.8" x2="327.8" y2="61.4" stroke="rgb(0,0,0)"  stroke-width="2.0"/>
<line x1="317.4" y1="93.1" x2="320.0" y2="66.6" stroke="rgb(0,0,0)"  stroke-width="2.0"/>
<line x1="266.8" y1="74.8" x2="227.8" y2="74.8" stroke="rgb(0,0,0)"  stroke-width="2.0"/>
<line x1="227.8" y1="142.4" x2="266.8" y2="142.4" stroke="rgb(0,0,0)"  stroke-width="2.0"/>
<line x1="266.8" y1="142.4" x2="286.3" y2="108.1" stroke="rgb(0,0,0)"  stroke-width="2.0"/>
<line x1="71.2" y1="128.4" x2="71.2" y2="89.8" stroke="rgb(0,0,0)"  stroke-width="2.0"/>
<line x1="78.4" y1="122.4" x2="78.4" y2="95.8" stroke="rgb(0,0,0)"  stroke-width="2.0"/>
<line x1="71.2" y1="89.8" x2="95.6" y2="81.9" stroke="rgb(0,0,0)"  stroke-width="2.0"/>
<line x1="115.6" y1="88.4" x2="130.6" y2="109.1" stroke="rgb(0,0,0)"  stroke-width="2.0"/>
<line x1="130.6" y1="109.1" x2="107.9" y2="140.3" stroke="rgb(0,0,0)"  stroke-width="2.0"/>
<line x1="121.3" y1="109.7" x2="105.6" y2="131.2" stroke="rgb(0,0,0)"  stroke-width="2.0"/>
<line x1="107.9" y1="140.3" x2="71.2" y2="128.4" stroke="rgb(0,0,0)"  stroke-width="2.0"/>
<text x="330.876940" y="176.501646" fill="rgb(102,102,102)"  stroke="rgb(102,102,102)" stroke-width="1" font-size="16" >CH</text>
<text x="354.876940" y="180.181646" fill="rgb(102,102,102)"  stroke="rgb(102,102,102)" stroke-width="1" font-size="13" >3</text>
<text x="93.898995" y="48.121474" fill="rgb(255,12,12)"  stroke="rgb(255,12,12)" stroke-width="1" font-size="16" >O</text>
<text x="130.600922" y="60.046653" fill="rgb(255,12,12)"  stroke="rgb(255,12,12)" stroke-width="1" font-size="16" >O</text>
<text x="101.922450" y="85.868864" fill="rgb(178,178,0)"  stroke="rgb(178,178,0)" stroke-width="1" font-size="16" >S</text>
<text x="34.000000" y="75.111005" fill="rgb(191,191,191)"  stroke="rgb(191,191,191)" stroke-width="1" font-size="16" >H</text>
<text x="286.430393" y="53.915063" fill="rgb(178,178,0)"  stroke="rgb(178,178,0)" stroke-width="1" font-size="16" >S</text>
<text x="358.202342" y="48.000000" fill="rgb(191,191,191)"  stroke="rgb(191,191,191)" stroke-width="1" font-size="16" >H</text>
<text x="299.858568" y="150.373387" fill="rgb(255,12,12)"  stroke="rgb(255,12,12)" stroke-width="1" font-size="16" >O</text>
<text x="319.613019" y="196.081155" fill="rgb(102,102,102)"  stroke="rgb(102,102,102)" stroke-width="1" font-size="16" >CH</text>
<text x="343.613019" y="199.761155" fill="rgb(102,102,102)"  stroke="rgb(102,102,102)" stroke-width="1" font-size="13" >3</text>
<text x="280.438974" y="184.129494" fill="rgb(255,12,12)"  stroke="rgb(255,12,12)" stroke-width="1" font-size="16" >O</text>
<text x="182.726071" y="82.774417" fill="rgb(178,178,0)"  stroke="rgb(178,178,0)" stroke-width="1" font-size="16" >S</text>
</svg>
</g>
<text font-size="18.000000" fill ="black" font-family="sans-serif"
x="10.000000" y="20.000000" ></text>
</svg>
