<?xml version="1.0"?>
<svg version="1.1" id="topsvg"
xmlns="http://www.w3.org/2000/svg" xmlns:xlink="http://www.w3.org/1999/xlink"
xmlns:cml="http://www.xml-cml.org/schema" x="0" y="0" width="200px" height="200px" viewBox="0 0 100 100">
<title> - Open Babel Depiction</title>
<rect x="0" y="0" width="100" height="100" fill="white"/>
<g transform="translate(0,0)">
<svg width="100" height="100" x="0" y="0" viewBox="0 0 386.502 518.958"
font-family="sans-serif" stroke="rgb(0,0,0)" stroke-width="2"  stroke-linecap="round">
<line x1="158.4" y1="211.1" x2="137.5" y2="247.3" stroke="rgb(0,0,0)"  stroke-width="2.0"/>
<line x1="95.9" y1="251.7" x2="68.0" y2="220.6" stroke="rgb(0,0,0)"  stroke-width="2.0"/>
<line x1="68.0" y1="220.6" x2="48.7" y2="199.2" stroke="rgb(0,0,0)"  stroke-width="2.0"/>
<line x1="64.8" y1="223.4" x2="45.6" y2="202.0" stroke="rgb(0,0,0)"  stroke-width="2.0"/>
<line x1="71.1" y1="217.8" x2="51.8" y2="196.4" stroke="rgb(0,0,0)"  stroke-width="2.0"/>
<line x1="87.2" y1="292.6" x2="60.9" y2="304.3" stroke="rgb(0,0,0)"  stroke-width="2.0"/>
<line x1="123.4" y1="313.5" x2="127.8" y2="355.0" stroke="rgb(0,0,0)"  stroke-width="2.0"/>
<line x1="113.8" y1="421.2" x2="99.4" y2="446.1" stroke="rgb(0,0,0)"  stroke-width="2.0"/>
<line x1="155.3" y1="416.8" x2="183.3" y2="447.9" stroke="rgb(0,0,0)"  stroke-width="2.0"/>
<line x1="183.3" y1="447.9" x2="202.6" y2="469.3" stroke="rgb(0,0,0)"  stroke-width="2.0"/>
<line x1="186.4" y1="445.1" x2="205.7" y2="466.5" stroke="rgb(0,0,0)"  stroke-width="2.0"/>
<line x1="180.2" y1="450.7" x2="199.4" y2="472.1" stroke="rgb(0,0,0)"  stroke-width="2.0"/>
<line x1="164.0" y1="375.9" x2="190.3" y2="364.2" stroke="rgb(0,0,0)"  stroke-width="2.0"/>
<line x1="265.5" y1="173.4" x2="279.9" y2="198.4" stroke="rgb(0,0,0)"  stroke-width="2.0"/>
<line x1="260.3" y1="176.4" x2="274.7" y2="201.4" stroke="rgb(0,0,0)"  stroke-width="2.0"/>
<line x1="296.8" y1="138.7" x2="312.6" y2="138.7" stroke="rgb(0,0,0)"  stroke-width="2.0"/>
<line x1="332.1" y1="127.5" x2="340.0" y2="113.8" stroke="rgb(0,0,0)"  stroke-width="2.0"/>
<line x1="260.3" y1="101.0" x2="274.7" y2="76.1" stroke="rgb(0,0,0)"  stroke-width="2.0"/>
<line x1="265.5" y1="104.0" x2="279.9" y2="79.1" stroke="rgb(0,0,0)"  stroke-width="2.0"/>
<line x1="199.2" y1="78.9" x2="209.7" y2="52.1" stroke="rgb(0,0,0)"  stroke-width="2.0"/>
<line x1="116.1" y1="111.1" x2="102.2" y2="85.9" stroke="rgb(0,0,0)"  stroke-width="2.0"/>
<line x1="121.3" y1="108.2" x2="107.4" y2="83.0" stroke="rgb(0,0,0)"  stroke-width="2.0"/>
<line x1="88.4" y1="132.1" x2="72.8" y2="129.5" stroke="rgb(0,0,0)"  stroke-width="2.0"/>
<line x1="55.5" y1="115.1" x2="50.0" y2="100.3" stroke="rgb(0,0,0)"  stroke-width="2.0"/>
<line x1="111.6" y1="165.6" x2="90.1" y2="184.8" stroke="rgb(0,0,0)"  stroke-width="2.0"/>
<line x1="107.6" y1="161.1" x2="86.1" y2="180.3" stroke="rgb(0,0,0)"  stroke-width="2.0"/>
<line x1="87.2" y1="292.6" x2="123.4" y2="313.5" stroke="rgb(0,0,0)"  stroke-width="2.0"/>
<line x1="96.0" y1="289.3" x2="121.9" y2="304.2" stroke="rgb(0,0,0)"  stroke-width="2.0"/>
<line x1="123.4" y1="313.5" x2="144.8" y2="294.2" stroke="rgb(0,0,0)"  stroke-width="2.0"/>
<line x1="149.2" y1="273.6" x2="137.5" y2="247.3" stroke="rgb(0,0,0)"  stroke-width="2.0"/>
<line x1="137.5" y1="247.3" x2="95.9" y2="251.7" stroke="rgb(0,0,0)"  stroke-width="2.0"/>
<line x1="132.3" y1="255.1" x2="102.7" y2="258.2" stroke="rgb(0,0,0)"  stroke-width="2.0"/>
<line x1="95.9" y1="251.7" x2="87.2" y2="292.6" stroke="rgb(0,0,0)"  stroke-width="2.0"/>
<line x1="113.8" y1="421.2" x2="155.3" y2="416.8" stroke="rgb(0,0,0)"  stroke-width="2.0"/>
<line x1="119.0" y1="413.4" x2="148.6" y2="410.3" stroke="rgb(0,0,0)"  stroke-width="2.0"/>
<line x1="155.3" y1="416.8" x2="164.0" y2="375.9" stroke="rgb(0,0,0)"  stroke-width="2.0"/>
<line x1="164.0" y1="375.9" x2="127.8" y2="355.0" stroke="rgb(0,0,0)"  stroke-width="2.0"/>
<line x1="155.2" y1="379.2" x2="129.4" y2="364.3" stroke="rgb(0,0,0)"  stroke-width="2.0"/>
<line x1="127.8" y1="355.0" x2="106.4" y2="374.3" stroke="rgb(0,0,0)"  stroke-width="2.0"/>
<line x1="102.0" y1="394.9" x2="113.8" y2="421.2" stroke="rgb(0,0,0)"  stroke-width="2.0"/>
<line x1="221.1" y1="174.9" x2="200.2" y2="138.7" stroke="rgb(0,0,0)"  stroke-width="2.0"/>
<line x1="211.9" y1="173.3" x2="197.0" y2="147.5" stroke="rgb(0,0,0)"  stroke-width="2.0"/>
<line x1="200.2" y1="138.7" x2="158.4" y2="138.7" stroke="rgb(0,0,0)"  stroke-width="2.0"/>
<line x1="158.4" y1="138.7" x2="137.5" y2="174.9" stroke="rgb(0,0,0)"  stroke-width="2.0"/>
<line x1="161.6" y1="147.5" x2="146.7" y2="173.3" stroke="rgb(0,0,0)"  stroke-width="2.0"/>
<line x1="137.5" y1="174.9" x2="158.4" y2="211.1" stroke="rgb(0,0,0)"  stroke-width="2.0"/>
<line x1="158.4" y1="211.1" x2="200.2" y2="211.1" stroke="rgb(0,0,0)"  stroke-width="2.0"/>
<line x1="164.4" y1="203.9" x2="194.2" y2="203.9" stroke="rgb(0,0,0)"  stroke-width="2.0"/>
<line x1="200.2" y1="211.1" x2="221.1" y2="174.9" stroke="rgb(0,0,0)"  stroke-width="2.0"/>
<line x1="262.9" y1="102.5" x2="221.1" y2="102.5" stroke="rgb(0,0,0)"  stroke-width="2.0"/>
<line x1="221.1" y1="102.5" x2="200.2" y2="138.7" stroke="rgb(0,0,0)"  stroke-width="2.0"/>
<line x1="221.1" y1="174.9" x2="262.9" y2="174.9" stroke="rgb(0,0,0)"  stroke-width="2.0"/>
<line x1="262.9" y1="174.9" x2="277.3" y2="150.0" stroke="rgb(0,0,0)"  stroke-width="2.0"/>
<line x1="277.3" y1="127.5" x2="262.9" y2="102.5" stroke="rgb(0,0,0)"  stroke-width="2.0"/>
<line x1="167.1" y1="81.3" x2="148.9" y2="107.9" stroke="rgb(0,0,0)"  stroke-width="2.0"/>
<line x1="169.6" y1="90.3" x2="158.2" y2="107.0" stroke="rgb(0,0,0)"  stroke-width="2.0"/>
<line x1="148.9" y1="107.9" x2="158.4" y2="138.7" stroke="rgb(0,0,0)"  stroke-width="2.0"/>
<line x1="221.1" y1="102.5" x2="199.2" y2="78.9" stroke="rgb(0,0,0)"  stroke-width="2.0"/>
<line x1="211.7" y1="103.0" x2="198.0" y2="88.2" stroke="rgb(0,0,0)"  stroke-width="2.0"/>
<line x1="199.2" y1="78.9" x2="167.1" y2="81.3" stroke="rgb(0,0,0)"  stroke-width="2.0"/>
<line x1="104.8" y1="146.8" x2="109.6" y2="163.3" stroke="rgb(0,0,0)"  stroke-width="2.0"/>
<line x1="109.6" y1="163.3" x2="137.5" y2="174.9" stroke="rgb(0,0,0)"  stroke-width="2.0"/>
<line x1="148.9" y1="107.9" x2="118.7" y2="109.6" stroke="rgb(0,0,0)"  stroke-width="2.0"/>
<line x1="118.7" y1="109.6" x2="108.7" y2="123.7" stroke="rgb(0,0,0)"  stroke-width="2.0"/>
<text x="277.803715" y="146.727301" fill="rgb(12,12,255)"  stroke="rgb(12,12,255)" stroke-width="1" font-size="16" >N</text>
<text x="319.602580" y="146.727301" fill="rgb(255,12,12)"  stroke="rgb(255,12,12)" stroke-width="1" font-size="16" >O</text>
<text x="342.502012" y="110.528422" fill="rgb(102,102,102)"  stroke="rgb(102,102,102)" stroke-width="1" font-size="16" >CH</text>
<text x="366.502012" y="114.208422" fill="rgb(102,102,102)"  stroke="rgb(102,102,102)" stroke-width="1" font-size="13" >3</text>
<text x="277.803715" y="74.329543" fill="rgb(255,12,12)"  stroke="rgb(255,12,12)" stroke-width="1" font-size="16" >O</text>
<text x="208.461069" y="48.000000" fill="rgb(191,191,191)"  stroke="rgb(191,191,191)" stroke-width="1" font-size="16" >H</text>
<text x="277.803715" y="219.125059" fill="rgb(255,12,12)"  stroke="rgb(255,12,12)" stroke-width="1" font-size="16" >O</text>
<text x="92.508262" y="81.035797" fill="rgb(255,12,12)"  stroke="rgb(255,12,12)" stroke-width="1" font-size="16" >O</text>
<text x="95.209079" y="142.283361" fill="rgb(12,12,255)"  stroke="rgb(12,12,255)" stroke-width="1" font-size="16" >N</text>
<text x="54.002902" y="135.269366" fill="rgb(255,12,12)"  stroke="rgb(255,12,12)" stroke-width="1" font-size="16" >O</text>
<text x="19.474112" y="96.076773" fill="rgb(102,102,102)"  stroke="rgb(102,102,102)" stroke-width="1" font-size="16" >H</text>
<text x="31.474112" y="99.756773" fill="rgb(102,102,102)"  stroke="rgb(102,102,102)" stroke-width="1" font-size="13" >3</text>
<text x="37.974112" y="96.076773" fill="rgb(102,102,102)"  stroke="rgb(102,102,102)" stroke-width="1" font-size="16" >C</text>
<text x="72.396715" y="199.188147" fill="rgb(255,12,12)"  stroke="rgb(255,12,12)" stroke-width="1" font-size="16" >O</text>
<text x="34.000000" y="197.567889" fill="rgb(12,12,255)"  stroke="rgb(12,12,255)" stroke-width="1" font-size="16" >N</text>
<text x="31.062164" y="317.579699" fill="rgb(30,239,30)"  stroke="rgb(30,239,30)" stroke-width="1" font-size="16" >Cl</text>
<text x="148.508817" y="293.509102" fill="rgb(178,178,0)"  stroke="rgb(178,178,0)" stroke-width="1" font-size="16" >S</text>
<text x="90.752767" y="391.016789" fill="rgb(178,178,0)"  stroke="rgb(178,178,0)" stroke-width="1" font-size="16" >S</text>
<text x="86.854465" y="465.400831" fill="rgb(191,191,191)"  stroke="rgb(191,191,191)" stroke-width="1" font-size="16" >H</text>
<text x="205.261584" y="486.958001" fill="rgb(12,12,255)"  stroke="rgb(12,12,255)" stroke-width="1" font-size="16" >N</text>
<text x="196.199420" y="366.946191" fill="rgb(30,239,30)"  stroke="rgb(30,239,30)" stroke-width="1" font-size="16" >Cl</text>
</svg>
</g>
<text font-size="18.000000" fill ="black" font-family="sans-serif"
x="10.000000" y="20.000000" ></text>
</svg>
