<?xml version="1.0"?>
<svg version="1.1" id="topsvg"
xmlns="http://www.w3.org/2000/svg" xmlns:xlink="http://www.w3.org/1999/xlink"
xmlns:cml="http://www.xml-cml.org/schema" x="0" y="0" width="200px" height="200px" viewBox="0 0 100 100">
<title> - Open Babel Depiction</title>
<rect x="0" y="0" width="100" height="100" fill="white"/>
<g transform="translate(0,0)">
<svg width="100" height="100" x="0" y="0" viewBox="0 0 477.454 291.08"
font-family="sans-serif" stroke="rgb(0,0,0)" stroke-width="2"  stroke-linecap="round">
<line x1="312.4" y1="171.1" x2="272.4" y2="171.1" stroke="rgb(0,0,0)"  stroke-width="2.0"/>
<line x1="248.9" y1="203.4" x2="257.2" y2="229.1" stroke="rgb(0,0,0)"  stroke-width="2.0"/>
<line x1="176.2" y1="211.1" x2="176.2" y2="238.1" stroke="rgb(0,0,0)"  stroke-width="2.0"/>
<line x1="80.0" y1="171.1" x2="53.0" y2="171.1" stroke="rgb(0,0,0)"  stroke-width="2.0"/>
<line x1="103.5" y1="138.7" x2="95.2" y2="113.0" stroke="rgb(0,0,0)"  stroke-width="2.0"/>
<line x1="176.2" y1="131.1" x2="176.2" y2="104.1" stroke="rgb(0,0,0)"  stroke-width="2.0"/>
<line x1="334.1" y1="101.1" x2="312.3" y2="85.3" stroke="rgb(0,0,0)"  stroke-width="2.0"/>
<line x1="337.7" y1="96.3" x2="315.8" y2="80.4" stroke="rgb(0,0,0)"  stroke-width="2.0"/>
<line x1="378.0" y1="74.0" x2="382.3" y2="60.7" stroke="rgb(0,0,0)"  stroke-width="2.0"/>
<line x1="399.0" y1="45.6" x2="412.7" y2="42.7" stroke="rgb(0,0,0)"  stroke-width="2.0"/>
<line x1="397.5" y1="118.7" x2="424.5" y2="118.7" stroke="rgb(0,0,0)"  stroke-width="2.0"/>
<line x1="375.7" y1="188.7" x2="397.5" y2="204.5" stroke="rgb(0,0,0)"  stroke-width="2.0"/>
<line x1="372.2" y1="193.5" x2="394.0" y2="209.4" stroke="rgb(0,0,0)"  stroke-width="2.0"/>
<line x1="331.9" y1="215.8" x2="327.6" y2="229.1" stroke="rgb(0,0,0)"  stroke-width="2.0"/>
<line x1="310.8" y1="244.2" x2="297.1" y2="247.1" stroke="rgb(0,0,0)"  stroke-width="2.0"/>
<line x1="210.8" y1="191.1" x2="210.8" y2="151.1" stroke="rgb(0,0,0)"  stroke-width="2.0"/>
<line x1="210.8" y1="151.1" x2="236.5" y2="142.7" stroke="rgb(0,0,0)"  stroke-width="2.0"/>
<line x1="256.5" y1="149.2" x2="272.4" y2="171.1" stroke="rgb(0,0,0)"  stroke-width="2.0"/>
<line x1="272.4" y1="171.1" x2="248.9" y2="203.4" stroke="rgb(0,0,0)"  stroke-width="2.0"/>
<line x1="263.0" y1="171.7" x2="246.6" y2="194.4" stroke="rgb(0,0,0)"  stroke-width="2.0"/>
<line x1="248.9" y1="203.4" x2="210.8" y2="191.1" stroke="rgb(0,0,0)"  stroke-width="2.0"/>
<line x1="80.0" y1="171.1" x2="103.5" y2="138.7" stroke="rgb(0,0,0)"  stroke-width="2.0"/>
<line x1="89.4" y1="170.5" x2="105.8" y2="147.8" stroke="rgb(0,0,0)"  stroke-width="2.0"/>
<line x1="103.5" y1="138.7" x2="141.6" y2="151.1" stroke="rgb(0,0,0)"  stroke-width="2.0"/>
<line x1="141.6" y1="151.1" x2="141.6" y2="191.1" stroke="rgb(0,0,0)"  stroke-width="2.0"/>
<line x1="134.4" y1="157.1" x2="134.4" y2="185.1" stroke="rgb(0,0,0)"  stroke-width="2.0"/>
<line x1="141.6" y1="191.1" x2="115.9" y2="199.4" stroke="rgb(0,0,0)"  stroke-width="2.0"/>
<line x1="95.9" y1="192.9" x2="80.0" y2="171.1" stroke="rgb(0,0,0)"  stroke-width="2.0"/>
<line x1="335.9" y1="98.7" x2="361.6" y2="90.4" stroke="rgb(0,0,0)"  stroke-width="2.0"/>
<line x1="381.6" y1="96.9" x2="397.5" y2="118.7" stroke="rgb(0,0,0)"  stroke-width="2.0"/>
<line x1="397.5" y1="118.7" x2="373.9" y2="151.1" stroke="rgb(0,0,0)"  stroke-width="2.0"/>
<line x1="388.1" y1="119.3" x2="371.6" y2="142.0" stroke="rgb(0,0,0)"  stroke-width="2.0"/>
<line x1="373.9" y1="151.1" x2="335.9" y2="138.7" stroke="rgb(0,0,0)"  stroke-width="2.0"/>
<line x1="335.9" y1="138.7" x2="335.9" y2="98.7" stroke="rgb(0,0,0)"  stroke-width="2.0"/>
<line x1="373.9" y1="151.1" x2="373.9" y2="191.1" stroke="rgb(0,0,0)"  stroke-width="2.0"/>
<line x1="373.9" y1="191.1" x2="348.3" y2="199.4" stroke="rgb(0,0,0)"  stroke-width="2.0"/>
<line x1="328.3" y1="192.9" x2="312.4" y2="171.1" stroke="rgb(0,0,0)"  stroke-width="2.0"/>
<line x1="312.4" y1="171.1" x2="335.9" y2="138.7" stroke="rgb(0,0,0)"  stroke-width="2.0"/>
<line x1="321.7" y1="170.5" x2="338.2" y2="147.8" stroke="rgb(0,0,0)"  stroke-width="2.0"/>
<line x1="141.6" y1="151.1" x2="176.2" y2="131.1" stroke="rgb(0,0,0)"  stroke-width="2.0"/>
<line x1="176.2" y1="131.1" x2="210.8" y2="151.1" stroke="rgb(0,0,0)"  stroke-width="2.0"/>
<line x1="177.8" y1="140.3" x2="202.0" y2="154.3" stroke="rgb(0,0,0)"  stroke-width="2.0"/>
<line x1="210.8" y1="191.1" x2="176.2" y2="211.1" stroke="rgb(0,0,0)"  stroke-width="2.0"/>
<line x1="202.0" y1="187.8" x2="177.8" y2="201.8" stroke="rgb(0,0,0)"  stroke-width="2.0"/>
<line x1="176.2" y1="211.1" x2="141.6" y2="191.1" stroke="rgb(0,0,0)"  stroke-width="2.0"/>
<text x="258.414200" y="257.799496" fill="rgb(102,102,102)"  stroke="rgb(102,102,102)" stroke-width="1" font-size="16" >H</text>
<text x="270.414200" y="261.479496" fill="rgb(102,102,102)"  stroke="rgb(102,102,102)" stroke-width="1" font-size="13" >3</text>
<text x="276.914200" y="257.799496" fill="rgb(102,102,102)"  stroke="rgb(102,102,102)" stroke-width="1" font-size="16" >C</text>
<text x="317.540104" y="249.483028" fill="rgb(255,12,12)"  stroke="rgb(255,12,12)" stroke-width="1" font-size="16" >O</text>
<text x="329.900784" y="211.440768" fill="rgb(12,12,255)"  stroke="rgb(12,12,255)" stroke-width="1" font-size="16" >N</text>
<text x="400.303724" y="222.591498" fill="rgb(255,12,12)"  stroke="rgb(255,12,12)" stroke-width="1" font-size="16" >O</text>
<text x="431.454455" y="126.719408" fill="rgb(191,191,191)"  stroke="rgb(191,191,191)" stroke-width="1" font-size="16" >H</text>
<text x="421.429628" y="48.000000" fill="rgb(102,102,102)"  stroke="rgb(102,102,102)" stroke-width="1" font-size="16" >CH</text>
<text x="445.429628" y="51.680000" fill="rgb(102,102,102)"  stroke="rgb(102,102,102)" stroke-width="1" font-size="13" >3</text>
<text x="380.303724" y="56.316468" fill="rgb(255,12,12)"  stroke="rgb(255,12,12)" stroke-width="1" font-size="16" >O</text>
<text x="367.943045" y="94.358728" fill="rgb(12,12,255)"  stroke="rgb(12,12,255)" stroke-width="1" font-size="16" >N</text>
<text x="297.540104" y="83.207998" fill="rgb(255,12,12)"  stroke="rgb(255,12,12)" stroke-width="1" font-size="16" >O</text>
<text x="242.877964" y="146.719408" fill="rgb(178,178,0)"  stroke="rgb(178,178,0)" stroke-width="1" font-size="16" >S</text>
<text x="172.194687" y="99.080088" fill="rgb(102,102,102)"  stroke="rgb(102,102,102)" stroke-width="1" font-size="16" >CH</text>
<text x="196.194687" y="102.760088" fill="rgb(102,102,102)"  stroke="rgb(102,102,102)" stroke-width="1" font-size="13" >3</text>
<text x="85.150730" y="108.677147" fill="rgb(191,191,191)"  stroke="rgb(191,191,191)" stroke-width="1" font-size="16" >H</text>
<text x="34.000000" y="179.080088" fill="rgb(191,191,191)"  stroke="rgb(191,191,191)" stroke-width="1" font-size="16" >H</text>
<text x="97.511410" y="211.440768" fill="rgb(178,178,0)"  stroke="rgb(178,178,0)" stroke-width="1" font-size="16" >S</text>
<text x="172.194687" y="259.080088" fill="rgb(102,102,102)"  stroke="rgb(102,102,102)" stroke-width="1" font-size="16" >CH</text>
<text x="196.194687" y="262.760088" fill="rgb(102,102,102)"  stroke="rgb(102,102,102)" stroke-width="1" font-size="13" >3</text>
<text x="255.238643" y="249.483028" fill="rgb(191,191,191)"  stroke="rgb(191,191,191)" stroke-width="1" font-size="16" >H</text>
</svg>
</g>
<text font-size="18.000000" fill ="black" font-family="sans-serif"
x="10.000000" y="20.000000" ></text>
</svg>
