<?xml version="1.0"?>
<svg version="1.1" id="topsvg"
xmlns="http://www.w3.org/2000/svg" xmlns:xlink="http://www.w3.org/1999/xlink"
xmlns:cml="http://www.xml-cml.org/schema" x="0" y="0" width="200px" height="200px" viewBox="0 0 100 100">
<title> - Open Babel Depiction</title>
<rect x="0" y="0" width="100" height="100" fill="white"/>
<g transform="translate(0,0)">
<svg width="100" height="100" x="0" y="0" viewBox="0 0 424.941 516.642"
font-family="sans-serif" stroke="rgb(0,0,0)" stroke-width="2"  stroke-linecap="round">
<line x1="218.7" y1="210.1" x2="197.9" y2="246.1" stroke="rgb(0,0,0)"  stroke-width="2.0"/>
<line x1="156.6" y1="250.5" x2="128.8" y2="219.6" stroke="rgb(0,0,0)"  stroke-width="2.0"/>
<line x1="128.8" y1="219.6" x2="109.7" y2="198.4" stroke="rgb(0,0,0)"  stroke-width="2.0"/>
<line x1="125.7" y1="222.4" x2="106.6" y2="201.2" stroke="rgb(0,0,0)"  stroke-width="2.0"/>
<line x1="131.9" y1="216.8" x2="112.8" y2="195.6" stroke="rgb(0,0,0)"  stroke-width="2.0"/>
<line x1="112.0" y1="311.9" x2="76.0" y2="291.1" stroke="rgb(0,0,0)"  stroke-width="2.0"/>
<line x1="77.5" y1="293.7" x2="52.8" y2="308.0" stroke="rgb(0,0,0)"  stroke-width="2.0"/>
<line x1="74.5" y1="288.5" x2="49.8" y2="302.8" stroke="rgb(0,0,0)"  stroke-width="2.0"/>
<line x1="76.0" y1="291.1" x2="76.0" y2="262.6" stroke="rgb(0,0,0)"  stroke-width="2.0"/>
<line x1="64.7" y1="243.1" x2="51.3" y2="235.3" stroke="rgb(0,0,0)"  stroke-width="2.0"/>
<line x1="98.0" y1="419.2" x2="83.7" y2="444.0" stroke="rgb(0,0,0)"  stroke-width="2.0"/>
<line x1="139.3" y1="414.9" x2="167.1" y2="445.8" stroke="rgb(0,0,0)"  stroke-width="2.0"/>
<line x1="167.1" y1="445.8" x2="186.2" y2="467.0" stroke="rgb(0,0,0)"  stroke-width="2.0"/>
<line x1="170.3" y1="442.9" x2="189.4" y2="464.2" stroke="rgb(0,0,0)"  stroke-width="2.0"/>
<line x1="164.0" y1="448.6" x2="183.1" y2="469.8" stroke="rgb(0,0,0)"  stroke-width="2.0"/>
<line x1="184.0" y1="353.4" x2="219.9" y2="374.2" stroke="rgb(0,0,0)"  stroke-width="2.0"/>
<line x1="218.4" y1="371.6" x2="243.2" y2="357.4" stroke="rgb(0,0,0)"  stroke-width="2.0"/>
<line x1="221.4" y1="376.8" x2="246.2" y2="362.5" stroke="rgb(0,0,0)"  stroke-width="2.0"/>
<line x1="219.9" y1="374.2" x2="219.9" y2="402.8" stroke="rgb(0,0,0)"  stroke-width="2.0"/>
<line x1="231.2" y1="422.3" x2="244.7" y2="430.1" stroke="rgb(0,0,0)"  stroke-width="2.0"/>
<line x1="325.2" y1="172.6" x2="339.5" y2="197.4" stroke="rgb(0,0,0)"  stroke-width="2.0"/>
<line x1="320.0" y1="175.6" x2="334.3" y2="200.4" stroke="rgb(0,0,0)"  stroke-width="2.0"/>
<line x1="356.4" y1="138.2" x2="371.9" y2="138.2" stroke="rgb(0,0,0)"  stroke-width="2.0"/>
<line x1="320.0" y1="100.7" x2="334.3" y2="75.9" stroke="rgb(0,0,0)"  stroke-width="2.0"/>
<line x1="325.2" y1="103.7" x2="339.5" y2="78.9" stroke="rgb(0,0,0)"  stroke-width="2.0"/>
<line x1="259.3" y1="78.7" x2="269.7" y2="52.1" stroke="rgb(0,0,0)"  stroke-width="2.0"/>
<line x1="176.6" y1="110.7" x2="162.8" y2="85.7" stroke="rgb(0,0,0)"  stroke-width="2.0"/>
<line x1="181.9" y1="107.8" x2="168.1" y2="82.8" stroke="rgb(0,0,0)"  stroke-width="2.0"/>
<line x1="149.0" y1="131.6" x2="133.7" y2="128.9" stroke="rgb(0,0,0)"  stroke-width="2.0"/>
<line x1="172.2" y1="164.9" x2="150.9" y2="183.9" stroke="rgb(0,0,0)"  stroke-width="2.0"/>
<line x1="168.2" y1="160.4" x2="146.9" y2="179.4" stroke="rgb(0,0,0)"  stroke-width="2.0"/>
<line x1="148.0" y1="291.1" x2="184.0" y2="311.9" stroke="rgb(0,0,0)"  stroke-width="2.0"/>
<line x1="184.0" y1="311.9" x2="205.2" y2="292.8" stroke="rgb(0,0,0)"  stroke-width="2.0"/>
<line x1="209.6" y1="272.2" x2="197.9" y2="246.1" stroke="rgb(0,0,0)"  stroke-width="2.0"/>
<line x1="197.9" y1="246.1" x2="156.6" y2="250.5" stroke="rgb(0,0,0)"  stroke-width="2.0"/>
<line x1="192.7" y1="253.9" x2="163.3" y2="257.0" stroke="rgb(0,0,0)"  stroke-width="2.0"/>
<line x1="156.6" y1="250.5" x2="148.0" y2="291.1" stroke="rgb(0,0,0)"  stroke-width="2.0"/>
<line x1="98.0" y1="419.2" x2="139.3" y2="414.9" stroke="rgb(0,0,0)"  stroke-width="2.0"/>
<line x1="103.2" y1="411.4" x2="132.6" y2="408.3" stroke="rgb(0,0,0)"  stroke-width="2.0"/>
<line x1="139.3" y1="414.9" x2="148.0" y2="374.2" stroke="rgb(0,0,0)"  stroke-width="2.0"/>
<line x1="148.0" y1="374.2" x2="112.0" y2="353.4" stroke="rgb(0,0,0)"  stroke-width="2.0"/>
<line x1="139.2" y1="377.5" x2="113.6" y2="362.7" stroke="rgb(0,0,0)"  stroke-width="2.0"/>
<line x1="112.0" y1="353.4" x2="90.8" y2="372.6" stroke="rgb(0,0,0)"  stroke-width="2.0"/>
<line x1="86.4" y1="393.1" x2="98.0" y2="419.2" stroke="rgb(0,0,0)"  stroke-width="2.0"/>
<line x1="148.0" y1="374.2" x2="184.0" y2="353.4" stroke="rgb(0,0,0)"  stroke-width="2.0"/>
<line x1="184.0" y1="353.4" x2="184.0" y2="311.9" stroke="rgb(0,0,0)"  stroke-width="2.0"/>
<line x1="176.8" y1="347.4" x2="176.8" y2="317.9" stroke="rgb(0,0,0)"  stroke-width="2.0"/>
<line x1="148.0" y1="291.1" x2="112.0" y2="311.9" stroke="rgb(0,0,0)"  stroke-width="2.0"/>
<line x1="146.4" y1="300.4" x2="120.8" y2="315.1" stroke="rgb(0,0,0)"  stroke-width="2.0"/>
<line x1="112.0" y1="311.9" x2="112.0" y2="353.4" stroke="rgb(0,0,0)"  stroke-width="2.0"/>
<line x1="281.0" y1="174.1" x2="260.3" y2="138.2" stroke="rgb(0,0,0)"  stroke-width="2.0"/>
<line x1="271.8" y1="172.5" x2="257.0" y2="147.0" stroke="rgb(0,0,0)"  stroke-width="2.0"/>
<line x1="260.3" y1="138.2" x2="218.7" y2="138.2" stroke="rgb(0,0,0)"  stroke-width="2.0"/>
<line x1="218.7" y1="138.2" x2="197.9" y2="174.1" stroke="rgb(0,0,0)"  stroke-width="2.0"/>
<line x1="221.9" y1="147.0" x2="207.2" y2="172.5" stroke="rgb(0,0,0)"  stroke-width="2.0"/>
<line x1="197.9" y1="174.1" x2="218.7" y2="210.1" stroke="rgb(0,0,0)"  stroke-width="2.0"/>
<line x1="218.7" y1="210.1" x2="260.3" y2="210.1" stroke="rgb(0,0,0)"  stroke-width="2.0"/>
<line x1="224.7" y1="202.9" x2="254.3" y2="202.9" stroke="rgb(0,0,0)"  stroke-width="2.0"/>
<line x1="260.3" y1="210.1" x2="281.0" y2="174.1" stroke="rgb(0,0,0)"  stroke-width="2.0"/>
<line x1="322.6" y1="102.2" x2="281.0" y2="102.2" stroke="rgb(0,0,0)"  stroke-width="2.0"/>
<line x1="281.0" y1="102.2" x2="260.3" y2="138.2" stroke="rgb(0,0,0)"  stroke-width="2.0"/>
<line x1="281.0" y1="174.1" x2="322.6" y2="174.1" stroke="rgb(0,0,0)"  stroke-width="2.0"/>
<line x1="322.6" y1="174.1" x2="336.9" y2="149.4" stroke="rgb(0,0,0)"  stroke-width="2.0"/>
<line x1="336.9" y1="126.9" x2="322.6" y2="102.2" stroke="rgb(0,0,0)"  stroke-width="2.0"/>
<line x1="227.3" y1="81.1" x2="209.3" y2="107.5" stroke="rgb(0,0,0)"  stroke-width="2.0"/>
<line x1="229.9" y1="90.1" x2="218.6" y2="106.6" stroke="rgb(0,0,0)"  stroke-width="2.0"/>
<line x1="209.3" y1="107.5" x2="218.7" y2="138.2" stroke="rgb(0,0,0)"  stroke-width="2.0"/>
<line x1="281.0" y1="102.2" x2="259.3" y2="78.7" stroke="rgb(0,0,0)"  stroke-width="2.0"/>
<line x1="271.7" y1="102.7" x2="258.1" y2="88.0" stroke="rgb(0,0,0)"  stroke-width="2.0"/>
<line x1="259.3" y1="78.7" x2="227.3" y2="81.1" stroke="rgb(0,0,0)"  stroke-width="2.0"/>
<line x1="165.4" y1="146.2" x2="170.2" y2="162.6" stroke="rgb(0,0,0)"  stroke-width="2.0"/>
<line x1="170.2" y1="162.6" x2="197.9" y2="174.1" stroke="rgb(0,0,0)"  stroke-width="2.0"/>
<line x1="209.3" y1="107.5" x2="179.3" y2="109.2" stroke="rgb(0,0,0)"  stroke-width="2.0"/>
<line x1="179.3" y1="109.2" x2="169.4" y2="123.1" stroke="rgb(0,0,0)"  stroke-width="2.0"/>
<text x="268.443653" y="48.000000" fill="rgb(191,191,191)"  stroke="rgb(191,191,191)" stroke-width="1" font-size="16" >H</text>
<text x="208.838876" y="292.086164" fill="rgb(178,178,0)"  stroke="rgb(178,178,0)" stroke-width="1" font-size="16" >S</text>
<text x="337.384398" y="218.133241" fill="rgb(255,12,12)"  stroke="rgb(255,12,12)" stroke-width="1" font-size="16" >O</text>
<text x="337.384398" y="146.155091" fill="rgb(12,12,255)"  stroke="rgb(12,12,255)" stroke-width="1" font-size="16" >N</text>
<text x="378.941003" y="146.155091" fill="rgb(191,191,191)"  stroke="rgb(191,191,191)" stroke-width="1" font-size="16" >H</text>
<text x="337.384398" y="74.176941" fill="rgb(255,12,12)"  stroke="rgb(255,12,12)" stroke-width="1" font-size="16" >O</text>
<text x="153.162894" y="80.844326" fill="rgb(255,12,12)"  stroke="rgb(255,12,12)" stroke-width="1" font-size="16" >O</text>
<text x="155.848057" y="141.736907" fill="rgb(12,12,255)"  stroke="rgb(12,12,255)" stroke-width="1" font-size="16" >N</text>
<text x="114.880705" y="134.763565" fill="rgb(191,191,191)"  stroke="rgb(191,191,191)" stroke-width="1" font-size="16" >H</text>
<text x="133.167910" y="198.311880" fill="rgb(255,12,12)"  stroke="rgb(255,12,12)" stroke-width="1" font-size="16" >O</text>
<text x="75.095575" y="389.256360" fill="rgb(178,178,0)"  stroke="rgb(178,178,0)" stroke-width="1" font-size="16" >S</text>
<text x="94.993738" y="196.701013" fill="rgb(12,12,255)"  stroke="rgb(12,12,255)" stroke-width="1" font-size="16" >N</text>
<text x="34.000000" y="319.892960" fill="rgb(255,12,12)"  stroke="rgb(255,12,12)" stroke-width="1" font-size="16" >O</text>
<text x="69.989075" y="257.558053" fill="rgb(255,12,12)"  stroke="rgb(255,12,12)" stroke-width="1" font-size="16" >O</text>
<text x="14.000000" y="236.779751" fill="rgb(102,102,102)"  stroke="rgb(102,102,102)" stroke-width="1" font-size="16" >H</text>
<text x="26.000000" y="240.459751" fill="rgb(102,102,102)"  stroke="rgb(102,102,102)" stroke-width="1" font-size="13" >3</text>
<text x="32.500000" y="236.779751" fill="rgb(102,102,102)"  stroke="rgb(102,102,102)" stroke-width="1" font-size="16" >C</text>
<text x="71.219866" y="463.209282" fill="rgb(191,191,191)"  stroke="rgb(191,191,191)" stroke-width="1" font-size="16" >H</text>
<text x="188.940713" y="484.641510" fill="rgb(12,12,255)"  stroke="rgb(12,12,255)" stroke-width="1" font-size="16" >N</text>
<text x="249.934451" y="361.449564" fill="rgb(255,12,12)"  stroke="rgb(255,12,12)" stroke-width="1" font-size="16" >O</text>
<text x="213.945376" y="423.784471" fill="rgb(255,12,12)"  stroke="rgb(255,12,12)" stroke-width="1" font-size="16" >O</text>
<text x="251.934451" y="444.562773" fill="rgb(102,102,102)"  stroke="rgb(102,102,102)" stroke-width="1" font-size="16" >CH</text>
<text x="275.934451" y="448.242773" fill="rgb(102,102,102)"  stroke="rgb(102,102,102)" stroke-width="1" font-size="13" >3</text>
</svg>
</g>
<text font-size="18.000000" fill ="black" font-family="sans-serif"
x="10.000000" y="20.000000" ></text>
</svg>
