<?xml version="1.0"?>
<svg version="1.1" id="topsvg"
xmlns="http://www.w3.org/2000/svg" xmlns:xlink="http://www.w3.org/1999/xlink"
xmlns:cml="http://www.xml-cml.org/schema" x="0" y="0" width="200px" height="200px" viewBox="0 0 100 100">
<title> - Open Babel Depiction</title>
<rect x="0" y="0" width="100" height="100" fill="white"/>
<g transform="translate(0,0)">
<svg width="100" height="100" x="0" y="0" viewBox="0 0 440.229 361.181"
font-family="sans-serif" stroke="rgb(0,0,0)" stroke-width="2"  stroke-linecap="round">
<line x1="143.9" y1="180.0" x2="178.6" y2="200.0" stroke="rgb(0,0,0)"  stroke-width="2.0"/>
<line x1="182.7" y1="239.8" x2="153.0" y2="266.5" stroke="rgb(0,0,0)"  stroke-width="2.0"/>
<line x1="153.0" y1="266.5" x2="133.0" y2="284.6" stroke="rgb(0,0,0)"  stroke-width="2.0"/>
<line x1="155.8" y1="269.7" x2="135.8" y2="287.7" stroke="rgb(0,0,0)"  stroke-width="2.0"/>
<line x1="150.2" y1="263.4" x2="130.1" y2="281.5" stroke="rgb(0,0,0)"  stroke-width="2.0"/>
<line x1="221.9" y1="248.1" x2="238.1" y2="284.6" stroke="rgb(0,0,0)"  stroke-width="2.0"/>
<line x1="238.1" y1="284.6" x2="249.1" y2="309.3" stroke="rgb(0,0,0)"  stroke-width="2.0"/>
<line x1="242.0" y1="282.9" x2="253.0" y2="307.6" stroke="rgb(0,0,0)"  stroke-width="2.0"/>
<line x1="234.3" y1="286.3" x2="245.3" y2="311.0" stroke="rgb(0,0,0)"  stroke-width="2.0"/>
<line x1="241.9" y1="213.5" x2="281.7" y2="209.3" stroke="rgb(0,0,0)"  stroke-width="2.0"/>
<line x1="345.0" y1="222.7" x2="368.3" y2="236.2" stroke="rgb(0,0,0)"  stroke-width="2.0"/>
<line x1="340.8" y1="183.0" x2="370.5" y2="156.2" stroke="rgb(0,0,0)"  stroke-width="2.0"/>
<line x1="370.5" y1="156.2" x2="390.6" y2="138.1" stroke="rgb(0,0,0)"  stroke-width="2.0"/>
<line x1="367.7" y1="153.1" x2="387.8" y2="135.0" stroke="rgb(0,0,0)"  stroke-width="2.0"/>
<line x1="373.3" y1="159.3" x2="393.4" y2="141.2" stroke="rgb(0,0,0)"  stroke-width="2.0"/>
<line x1="301.7" y1="174.6" x2="285.4" y2="138.1" stroke="rgb(0,0,0)"  stroke-width="2.0"/>
<line x1="285.4" y1="138.1" x2="274.4" y2="113.4" stroke="rgb(0,0,0)"  stroke-width="2.0"/>
<line x1="281.5" y1="139.8" x2="270.6" y2="115.1" stroke="rgb(0,0,0)"  stroke-width="2.0"/>
<line x1="289.2" y1="136.4" x2="278.2" y2="111.7" stroke="rgb(0,0,0)"  stroke-width="2.0"/>
<line x1="74.6" y1="140.0" x2="51.3" y2="126.5" stroke="rgb(0,0,0)"  stroke-width="2.0"/>
<line x1="109.3" y1="120.0" x2="109.3" y2="80.0" stroke="rgb(0,0,0)"  stroke-width="2.0"/>
<line x1="109.3" y1="80.0" x2="109.3" y2="53.0" stroke="rgb(0,0,0)"  stroke-width="2.0"/>
<line x1="105.1" y1="80.0" x2="105.1" y2="53.0" stroke="rgb(0,0,0)"  stroke-width="2.0"/>
<line x1="113.5" y1="80.0" x2="113.5" y2="53.0" stroke="rgb(0,0,0)"  stroke-width="2.0"/>
<line x1="143.9" y1="140.0" x2="178.6" y2="120.0" stroke="rgb(0,0,0)"  stroke-width="2.0"/>
<line x1="178.6" y1="120.0" x2="201.9" y2="106.5" stroke="rgb(0,0,0)"  stroke-width="2.0"/>
<line x1="176.5" y1="116.4" x2="199.8" y2="102.9" stroke="rgb(0,0,0)"  stroke-width="2.0"/>
<line x1="180.7" y1="123.6" x2="204.0" y2="110.1" stroke="rgb(0,0,0)"  stroke-width="2.0"/>
<line x1="221.9" y1="248.1" x2="241.9" y2="213.5" stroke="rgb(0,0,0)"  stroke-width="2.0"/>
<line x1="218.6" y1="239.3" x2="232.6" y2="215.1" stroke="rgb(0,0,0)"  stroke-width="2.0"/>
<line x1="241.9" y1="213.5" x2="223.8" y2="193.4" stroke="rgb(0,0,0)"  stroke-width="2.0"/>
<line x1="203.2" y1="189.0" x2="178.6" y2="200.0" stroke="rgb(0,0,0)"  stroke-width="2.0"/>
<line x1="178.6" y1="200.0" x2="182.7" y2="239.8" stroke="rgb(0,0,0)"  stroke-width="2.0"/>
<line x1="186.4" y1="205.2" x2="189.3" y2="233.1" stroke="rgb(0,0,0)"  stroke-width="2.0"/>
<line x1="182.7" y1="239.8" x2="221.9" y2="248.1" stroke="rgb(0,0,0)"  stroke-width="2.0"/>
<line x1="345.0" y1="222.7" x2="340.8" y2="183.0" stroke="rgb(0,0,0)"  stroke-width="2.0"/>
<line x1="337.2" y1="217.5" x2="334.2" y2="189.7" stroke="rgb(0,0,0)"  stroke-width="2.0"/>
<line x1="340.8" y1="183.0" x2="301.7" y2="174.6" stroke="rgb(0,0,0)"  stroke-width="2.0"/>
<line x1="301.7" y1="174.6" x2="281.7" y2="209.3" stroke="rgb(0,0,0)"  stroke-width="2.0"/>
<line x1="304.9" y1="183.4" x2="290.9" y2="207.7" stroke="rgb(0,0,0)"  stroke-width="2.0"/>
<line x1="281.7" y1="209.3" x2="299.7" y2="229.3" stroke="rgb(0,0,0)"  stroke-width="2.0"/>
<line x1="320.3" y1="233.7" x2="345.0" y2="222.7" stroke="rgb(0,0,0)"  stroke-width="2.0"/>
<line x1="88.0" y1="240.5" x2="74.1" y2="241.9" stroke="rgb(0,0,0)"  stroke-width="2.0"/>
<line x1="55.9" y1="231.4" x2="50.2" y2="218.6" stroke="rgb(0,0,0)"  stroke-width="2.0"/>
<line x1="54.7" y1="197.9" x2="74.6" y2="180.0" stroke="rgb(0,0,0)"  stroke-width="2.0"/>
<line x1="61.0" y1="201.9" x2="75.0" y2="189.4" stroke="rgb(0,0,0)"  stroke-width="2.0"/>
<line x1="74.6" y1="180.0" x2="109.3" y2="200.0" stroke="rgb(0,0,0)"  stroke-width="2.0"/>
<line x1="109.3" y1="200.0" x2="103.7" y2="226.2" stroke="rgb(0,0,0)"  stroke-width="2.0"/>
<line x1="101.0" y1="204.4" x2="97.1" y2="222.8" stroke="rgb(0,0,0)"  stroke-width="2.0"/>
<line x1="74.6" y1="180.0" x2="74.6" y2="140.0" stroke="rgb(0,0,0)"  stroke-width="2.0"/>
<line x1="74.6" y1="140.0" x2="109.3" y2="120.0" stroke="rgb(0,0,0)"  stroke-width="2.0"/>
<line x1="83.4" y1="143.2" x2="107.7" y2="129.2" stroke="rgb(0,0,0)"  stroke-width="2.0"/>
<line x1="109.3" y1="120.0" x2="143.9" y2="140.0" stroke="rgb(0,0,0)"  stroke-width="2.0"/>
<line x1="143.9" y1="140.0" x2="143.9" y2="180.0" stroke="rgb(0,0,0)"  stroke-width="2.0"/>
<line x1="136.7" y1="146.0" x2="136.7" y2="174.0" stroke="rgb(0,0,0)"  stroke-width="2.0"/>
<line x1="143.9" y1="180.0" x2="109.3" y2="200.0" stroke="rgb(0,0,0)"  stroke-width="2.0"/>
<text x="263.113052" y="109.550536" fill="rgb(12,12,255)"  stroke="rgb(12,12,255)" stroke-width="1" font-size="16" >N</text>
<text x="94.965565" y="247.125904" fill="rgb(12,12,255)"  stroke="rgb(12,12,255)" stroke-width="1" font-size="16" >N</text>
<text x="55.184689" y="251.307043" fill="rgb(178,178,0)"  stroke="rgb(178,178,0)" stroke-width="1" font-size="16" >S</text>
<text x="38.915223" y="214.765224" fill="rgb(12,12,255)"  stroke="rgb(12,12,255)" stroke-width="1" font-size="16" >N</text>
<text x="394.229473" y="137.420192" fill="rgb(12,12,255)"  stroke="rgb(12,12,255)" stroke-width="1" font-size="16" >N</text>
<text x="34.000000" y="128.000000" fill="rgb(191,191,191)"  stroke="rgb(191,191,191)" stroke-width="1" font-size="16" >H</text>
<text x="103.282032" y="48.000000" fill="rgb(12,12,255)"  stroke="rgb(12,12,255)" stroke-width="1" font-size="16" >N</text>
<text x="207.205081" y="108.000000" fill="rgb(12,12,255)"  stroke="rgb(12,12,255)" stroke-width="1" font-size="16" >N</text>
<text x="373.600042" y="250.731516" fill="rgb(191,191,191)"  stroke="rgb(191,191,191)" stroke-width="1" font-size="16" >H</text>
<text x="302.417207" y="247.000982" fill="rgb(178,178,0)"  stroke="rgb(178,178,0)" stroke-width="1" font-size="16" >S</text>
<text x="209.105883" y="191.730534" fill="rgb(178,178,0)"  stroke="rgb(178,178,0)" stroke-width="1" font-size="16" >S</text>
<text x="248.410039" y="329.180980" fill="rgb(12,12,255)"  stroke="rgb(12,12,255)" stroke-width="1" font-size="16" >N</text>
<text x="117.293617" y="301.311324" fill="rgb(12,12,255)"  stroke="rgb(12,12,255)" stroke-width="1" font-size="16" >N</text>
</svg>
</g>
<text font-size="18.000000" fill ="black" font-family="sans-serif"
x="10.000000" y="20.000000" ></text>
</svg>
