<?xml version="1.0"?>
<svg version="1.1" id="topsvg"
xmlns="http://www.w3.org/2000/svg" xmlns:xlink="http://www.w3.org/1999/xlink"
xmlns:cml="http://www.xml-cml.org/schema" x="0" y="0" width="200px" height="200px" viewBox="0 0 100 100">
<title> - Open Babel Depiction</title>
<rect x="0" y="0" width="100" height="100" fill="white"/>
<g transform="translate(0,0)">
<svg width="100" height="100" x="0" y="0" viewBox="0 0 442.461 396.175"
font-family="sans-serif" stroke="rgb(0,0,0)" stroke-width="2"  stroke-linecap="round">
<line x1="205.8" y1="107.4" x2="172.6" y2="126.5" stroke="rgb(0,0,0)"  stroke-width="2.0"/>
<line x1="139.5" y1="222.2" x2="172.6" y2="241.3" stroke="rgb(0,0,0)"  stroke-width="2.0"/>
<line x1="170.0" y1="239.8" x2="182.7" y2="218.0" stroke="rgb(0,0,0)"  stroke-width="2.0"/>
<line x1="175.2" y1="242.8" x2="187.9" y2="221.0" stroke="rgb(0,0,0)"  stroke-width="2.0"/>
<line x1="172.6" y1="241.3" x2="185.3" y2="263.2" stroke="rgb(0,0,0)"  stroke-width="2.0"/>
<line x1="204.8" y1="274.5" x2="217.1" y2="274.5" stroke="rgb(0,0,0)"  stroke-width="2.0"/>
<line x1="139.5" y1="222.2" x2="139.5" y2="298.8" stroke="rgb(0,0,0)"  stroke-width="2.0"/>
<line x1="141.0" y1="301.4" x2="119.1" y2="314.0" stroke="rgb(0,0,0)"  stroke-width="2.0"/>
<line x1="138.0" y1="296.2" x2="116.1" y2="308.8" stroke="rgb(0,0,0)"  stroke-width="2.0"/>
<line x1="139.5" y1="298.8" x2="161.4" y2="311.4" stroke="rgb(0,0,0)"  stroke-width="2.0"/>
<line x1="172.6" y1="330.9" x2="172.6" y2="343.2" stroke="rgb(0,0,0)"  stroke-width="2.0"/>
<line x1="73.2" y1="298.8" x2="73.2" y2="324.8" stroke="rgb(0,0,0)"  stroke-width="2.0"/>
<line x1="217.6" y1="71.0" x2="202.8" y2="50.5" stroke="rgb(0,0,0)"  stroke-width="2.0"/>
<line x1="267.7" y1="107.4" x2="304.1" y2="119.2" stroke="rgb(0,0,0)"  stroke-width="2.0"/>
<line x1="366.1" y1="119.2" x2="390.1" y2="111.4" stroke="rgb(0,0,0)"  stroke-width="2.0"/>
<line x1="354.2" y1="155.6" x2="369.1" y2="176.0" stroke="rgb(0,0,0)"  stroke-width="2.0"/>
<line x1="259.8" y1="83.0" x2="267.7" y2="107.4" stroke="rgb(0,0,0)"  stroke-width="2.0"/>
<line x1="253.6" y1="87.3" x2="259.0" y2="103.9" stroke="rgb(0,0,0)"  stroke-width="2.0"/>
<line x1="267.7" y1="107.4" x2="247.3" y2="122.2" stroke="rgb(0,0,0)"  stroke-width="2.0"/>
<line x1="226.2" y1="122.2" x2="205.8" y2="107.4" stroke="rgb(0,0,0)"  stroke-width="2.0"/>
<line x1="205.8" y1="107.4" x2="217.6" y2="71.0" stroke="rgb(0,0,0)"  stroke-width="2.0"/>
<line x1="214.5" y1="103.9" x2="222.6" y2="78.9" stroke="rgb(0,0,0)"  stroke-width="2.0"/>
<line x1="217.6" y1="71.0" x2="242.9" y2="71.0" stroke="rgb(0,0,0)"  stroke-width="2.0"/>
<line x1="366.1" y1="119.2" x2="354.2" y2="155.6" stroke="rgb(0,0,0)"  stroke-width="2.0"/>
<line x1="357.4" y1="122.7" x2="349.2" y2="147.7" stroke="rgb(0,0,0)"  stroke-width="2.0"/>
<line x1="354.2" y1="155.6" x2="329.0" y2="155.6" stroke="rgb(0,0,0)"  stroke-width="2.0"/>
<line x1="312.1" y1="143.6" x2="304.1" y2="119.2" stroke="rgb(0,0,0)"  stroke-width="2.0"/>
<line x1="318.2" y1="139.3" x2="312.8" y2="122.7" stroke="rgb(0,0,0)"  stroke-width="2.0"/>
<line x1="304.1" y1="119.2" x2="324.6" y2="104.3" stroke="rgb(0,0,0)"  stroke-width="2.0"/>
<line x1="345.6" y1="104.3" x2="366.1" y2="119.2" stroke="rgb(0,0,0)"  stroke-width="2.0"/>
<line x1="139.5" y1="183.9" x2="106.3" y2="164.8" stroke="rgb(0,0,0)"  stroke-width="2.0"/>
<line x1="137.9" y1="174.7" x2="115.1" y2="161.5" stroke="rgb(0,0,0)"  stroke-width="2.0"/>
<line x1="106.3" y1="164.8" x2="106.3" y2="126.5" stroke="rgb(0,0,0)"  stroke-width="2.0"/>
<line x1="106.3" y1="126.5" x2="139.5" y2="107.4" stroke="rgb(0,0,0)"  stroke-width="2.0"/>
<line x1="115.1" y1="129.7" x2="137.9" y2="116.6" stroke="rgb(0,0,0)"  stroke-width="2.0"/>
<line x1="139.5" y1="107.4" x2="172.6" y2="126.5" stroke="rgb(0,0,0)"  stroke-width="2.0"/>
<line x1="172.6" y1="126.5" x2="172.6" y2="164.8" stroke="rgb(0,0,0)"  stroke-width="2.0"/>
<line x1="165.4" y1="132.5" x2="165.4" y2="158.8" stroke="rgb(0,0,0)"  stroke-width="2.0"/>
<line x1="172.6" y1="164.8" x2="139.5" y2="183.9" stroke="rgb(0,0,0)"  stroke-width="2.0"/>
<line x1="106.3" y1="279.7" x2="106.3" y2="241.4" stroke="rgb(0,0,0)"  stroke-width="2.0"/>
<line x1="99.1" y1="273.7" x2="99.1" y2="247.4" stroke="rgb(0,0,0)"  stroke-width="2.0"/>
<line x1="106.3" y1="241.4" x2="73.2" y2="222.2" stroke="rgb(0,0,0)"  stroke-width="2.0"/>
<line x1="73.2" y1="222.2" x2="40.0" y2="241.4" stroke="rgb(0,0,0)"  stroke-width="2.0"/>
<line x1="71.6" y1="231.4" x2="48.8" y2="244.6" stroke="rgb(0,0,0)"  stroke-width="2.0"/>
<line x1="40.0" y1="241.4" x2="40.0" y2="279.6" stroke="rgb(0,0,0)"  stroke-width="2.0"/>
<line x1="40.0" y1="279.6" x2="73.2" y2="298.8" stroke="rgb(0,0,0)"  stroke-width="2.0"/>
<line x1="48.8" y1="276.4" x2="71.6" y2="289.6" stroke="rgb(0,0,0)"  stroke-width="2.0"/>
<line x1="73.2" y1="298.8" x2="106.3" y2="279.7" stroke="rgb(0,0,0)"  stroke-width="2.0"/>
<line x1="73.2" y1="222.2" x2="106.3" y2="164.8" stroke="rgb(0,0,0)"  stroke-width="2.0"/>
<line x1="139.5" y1="183.9" x2="139.5" y2="222.2" stroke="rgb(0,0,0)"  stroke-width="2.0"/>
<line x1="139.5" y1="222.2" x2="106.3" y2="241.4" stroke="rgb(0,0,0)"  stroke-width="2.0"/>
<text x="177.122480" y="48.000000" fill="rgb(30,239,30)"  stroke="rgb(30,239,30)" stroke-width="1" font-size="16" >Cl</text>
<text x="249.896472" y="78.965896" fill="rgb(12,12,255)"  stroke="rgb(12,12,255)" stroke-width="1" font-size="16" >N</text>
<text x="230.758496" y="137.866529" fill="rgb(178,178,0)"  stroke="rgb(178,178,0)" stroke-width="1" font-size="16" >S</text>
<text x="329.092881" y="104.698369" fill="rgb(178,178,0)"  stroke="rgb(178,178,0)" stroke-width="1" font-size="16" >S</text>
<text x="396.461370" y="115.368489" fill="rgb(191,191,191)"  stroke="rgb(191,191,191)" stroke-width="1" font-size="16" >H</text>
<text x="370.728897" y="194.564898" fill="rgb(30,239,30)"  stroke="rgb(30,239,30)" stroke-width="1" font-size="16" >Cl</text>
<text x="309.954905" y="163.599002" fill="rgb(12,12,255)"  stroke="rgb(12,12,255)" stroke-width="1" font-size="16" >N</text>
<text x="185.771864" y="216.195385" fill="rgb(255,12,12)"  stroke="rgb(255,12,12)" stroke-width="1" font-size="16" >O</text>
<text x="185.778470" y="282.491278" fill="rgb(255,12,12)"  stroke="rgb(255,12,12)" stroke-width="1" font-size="16" >O</text>
<text x="226.054422" y="282.487464" fill="rgb(102,102,102)"  stroke="rgb(102,102,102)" stroke-width="1" font-size="16" >CH</text>
<text x="250.054422" y="286.167464" fill="rgb(102,102,102)"  stroke="rgb(102,102,102)" stroke-width="1" font-size="13" >3</text>
<text x="100.342287" y="325.901448" fill="rgb(255,12,12)"  stroke="rgb(255,12,12)" stroke-width="1" font-size="16" >O</text>
<text x="166.638180" y="325.899442" fill="rgb(255,12,12)"  stroke="rgb(255,12,12)" stroke-width="1" font-size="16" >O</text>
<text x="168.639339" y="364.175394" fill="rgb(102,102,102)"  stroke="rgb(102,102,102)" stroke-width="1" font-size="16" >CH</text>
<text x="192.639339" y="367.855394" fill="rgb(102,102,102)"  stroke="rgb(102,102,102)" stroke-width="1" font-size="13" >3</text>
<text x="67.166869" y="345.809476" fill="rgb(191,191,191)"  stroke="rgb(191,191,191)" stroke-width="1" font-size="16" >H</text>
</svg>
</g>
<text font-size="18.000000" fill ="black" font-family="sans-serif"
x="10.000000" y="20.000000" ></text>
</svg>
