<?xml version="1.0"?>
<svg version="1.1" id="topsvg"
xmlns="http://www.w3.org/2000/svg" xmlns:xlink="http://www.w3.org/1999/xlink"
xmlns:cml="http://www.xml-cml.org/schema" x="0" y="0" width="200px" height="200px" viewBox="0 0 100 100">
<title> - Open Babel Depiction</title>
<rect x="0" y="0" width="100" height="100" fill="white"/>
<g transform="translate(0,0)">
<svg width="100" height="100" x="0" y="0" viewBox="0 0 489.748 543.98"
font-family="sans-serif" stroke="rgb(0,0,0)" stroke-width="2"  stroke-linecap="round">
<line x1="228.3" y1="281.9" x2="209.8" y2="314.0" stroke="rgb(0,0,0)"  stroke-width="2.0"/>
<line x1="137.8" y1="378.7" x2="102.7" y2="390.2" stroke="rgb(0,0,0)"  stroke-width="2.0"/>
<line x1="105.6" y1="390.8" x2="100.6" y2="414.3" stroke="rgb(0,0,0)"  stroke-width="2.0"/>
<line x1="99.7" y1="389.5" x2="94.7" y2="413.0" stroke="rgb(0,0,0)"  stroke-width="2.0"/>
<line x1="102.7" y1="390.2" x2="84.8" y2="374.1" stroke="rgb(0,0,0)"  stroke-width="2.0"/>
<line x1="62.8" y1="369.4" x2="52.4" y2="372.8" stroke="rgb(0,0,0)"  stroke-width="2.0"/>
<line x1="137.8" y1="378.7" x2="301.0" y2="258.2" stroke="rgb(0,0,0)"  stroke-width="2.0"/>
<line x1="299.5" y1="255.6" x2="320.3" y2="243.6" stroke="rgb(0,0,0)"  stroke-width="2.0"/>
<line x1="302.5" y1="260.8" x2="323.3" y2="248.8" stroke="rgb(0,0,0)"  stroke-width="2.0"/>
<line x1="301.0" y1="258.2" x2="280.2" y2="246.2" stroke="rgb(0,0,0)"  stroke-width="2.0"/>
<line x1="257.7" y1="246.2" x2="248.2" y2="251.7" stroke="rgb(0,0,0)"  stroke-width="2.0"/>
<line x1="177.2" y1="467.2" x2="179.7" y2="491.1" stroke="rgb(0,0,0)"  stroke-width="2.0"/>
<line x1="243.8" y1="161.0" x2="243.8" y2="137.0" stroke="rgb(0,0,0)"  stroke-width="2.0"/>
<line x1="249.8" y1="161.0" x2="249.8" y2="137.0" stroke="rgb(0,0,0)"  stroke-width="2.0"/>
<line x1="204.5" y1="178.7" x2="181.7" y2="171.3" stroke="rgb(0,0,0)"  stroke-width="2.0"/>
<line x1="183.7" y1="173.5" x2="165.9" y2="189.5" stroke="rgb(0,0,0)"  stroke-width="2.0"/>
<line x1="179.7" y1="169.0" x2="161.8" y2="185.1" stroke="rgb(0,0,0)"  stroke-width="2.0"/>
<line x1="181.7" y1="171.3" x2="176.7" y2="147.8" stroke="rgb(0,0,0)"  stroke-width="2.0"/>
<line x1="183.6" y1="126.4" x2="191.8" y2="119.0" stroke="rgb(0,0,0)"  stroke-width="2.0"/>
<line x1="275.8" y1="179.8" x2="310.9" y2="168.4" stroke="rgb(0,0,0)"  stroke-width="2.0"/>
<line x1="277.6" y1="185.5" x2="312.8" y2="174.1" stroke="rgb(0,0,0)"  stroke-width="2.0"/>
<line x1="344.8" y1="193.0" x2="344.8" y2="217.0" stroke="rgb(0,0,0)"  stroke-width="2.0"/>
<line x1="338.8" y1="193.0" x2="338.8" y2="217.0" stroke="rgb(0,0,0)"  stroke-width="2.0"/>
<line x1="384.1" y1="175.3" x2="406.9" y2="182.7" stroke="rgb(0,0,0)"  stroke-width="2.0"/>
<line x1="404.9" y1="180.5" x2="422.7" y2="164.4" stroke="rgb(0,0,0)"  stroke-width="2.0"/>
<line x1="408.9" y1="184.9" x2="426.7" y2="168.9" stroke="rgb(0,0,0)"  stroke-width="2.0"/>
<line x1="406.9" y1="182.7" x2="411.9" y2="206.2" stroke="rgb(0,0,0)"  stroke-width="2.0"/>
<line x1="426.9" y1="222.9" x2="437.4" y2="226.3" stroke="rgb(0,0,0)"  stroke-width="2.0"/>
<line x1="360.3" y1="72.0" x2="372.3" y2="51.3" stroke="rgb(0,0,0)"  stroke-width="2.0"/>
<line x1="165.3" y1="354.0" x2="197.3" y2="372.5" stroke="rgb(0,0,0)"  stroke-width="2.0"/>
<line x1="174.1" y1="350.8" x2="195.8" y2="363.3" stroke="rgb(0,0,0)"  stroke-width="2.0"/>
<line x1="197.3" y1="372.5" x2="215.2" y2="356.4" stroke="rgb(0,0,0)"  stroke-width="2.0"/>
<line x1="219.5" y1="335.9" x2="209.8" y2="314.0" stroke="rgb(0,0,0)"  stroke-width="2.0"/>
<line x1="209.8" y1="314.0" x2="173.0" y2="317.8" stroke="rgb(0,0,0)"  stroke-width="2.0"/>
<line x1="204.6" y1="321.7" x2="179.7" y2="324.4" stroke="rgb(0,0,0)"  stroke-width="2.0"/>
<line x1="173.0" y1="317.8" x2="165.3" y2="354.0" stroke="rgb(0,0,0)"  stroke-width="2.0"/>
<line x1="177.2" y1="467.2" x2="195.0" y2="451.1" stroke="rgb(0,0,0)"  stroke-width="2.0"/>
<line x1="199.4" y1="430.6" x2="189.7" y2="408.7" stroke="rgb(0,0,0)"  stroke-width="2.0"/>
<line x1="189.7" y1="408.7" x2="152.9" y2="412.5" stroke="rgb(0,0,0)"  stroke-width="2.0"/>
<line x1="184.4" y1="416.5" x2="159.6" y2="419.1" stroke="rgb(0,0,0)"  stroke-width="2.0"/>
<line x1="152.9" y1="412.5" x2="145.2" y2="448.7" stroke="rgb(0,0,0)"  stroke-width="2.0"/>
<line x1="145.2" y1="448.7" x2="177.2" y2="467.2" stroke="rgb(0,0,0)"  stroke-width="2.0"/>
<line x1="154.0" y1="445.5" x2="175.6" y2="458.0" stroke="rgb(0,0,0)"  stroke-width="2.0"/>
<line x1="283.8" y1="249.9" x2="265.3" y2="217.9" stroke="rgb(0,0,0)"  stroke-width="2.0"/>
<line x1="274.5" y1="248.3" x2="262.0" y2="226.7" stroke="rgb(0,0,0)"  stroke-width="2.0"/>
<line x1="265.3" y1="217.9" x2="228.3" y2="217.9" stroke="rgb(0,0,0)"  stroke-width="2.0"/>
<line x1="228.3" y1="217.9" x2="209.8" y2="249.9" stroke="rgb(0,0,0)"  stroke-width="2.0"/>
<line x1="231.5" y1="226.7" x2="219.0" y2="248.3" stroke="rgb(0,0,0)"  stroke-width="2.0"/>
<line x1="209.8" y1="249.9" x2="228.3" y2="281.9" stroke="rgb(0,0,0)"  stroke-width="2.0"/>
<line x1="228.3" y1="281.9" x2="265.3" y2="281.9" stroke="rgb(0,0,0)"  stroke-width="2.0"/>
<line x1="234.3" y1="274.7" x2="259.3" y2="274.7" stroke="rgb(0,0,0)"  stroke-width="2.0"/>
<line x1="265.3" y1="281.9" x2="283.8" y2="249.9" stroke="rgb(0,0,0)"  stroke-width="2.0"/>
<line x1="323.3" y1="72.0" x2="304.8" y2="104.1" stroke="rgb(0,0,0)"  stroke-width="2.0"/>
<line x1="304.8" y1="104.1" x2="323.3" y2="136.1" stroke="rgb(0,0,0)"  stroke-width="2.0"/>
<line x1="314.0" y1="105.7" x2="326.5" y2="127.3" stroke="rgb(0,0,0)"  stroke-width="2.0"/>
<line x1="323.3" y1="136.1" x2="360.3" y2="136.1" stroke="rgb(0,0,0)"  stroke-width="2.0"/>
<line x1="360.3" y1="136.1" x2="378.8" y2="104.1" stroke="rgb(0,0,0)"  stroke-width="2.0"/>
<line x1="357.0" y1="127.3" x2="369.5" y2="105.7" stroke="rgb(0,0,0)"  stroke-width="2.0"/>
<line x1="378.8" y1="104.1" x2="360.3" y2="72.0" stroke="rgb(0,0,0)"  stroke-width="2.0"/>
<line x1="360.3" y1="72.0" x2="323.3" y2="72.0" stroke="rgb(0,0,0)"  stroke-width="2.0"/>
<line x1="354.3" y1="79.2" x2="329.3" y2="79.2" stroke="rgb(0,0,0)"  stroke-width="2.0"/>
<line x1="189.7" y1="408.7" x2="197.3" y2="372.5" stroke="rgb(0,0,0)"  stroke-width="2.0"/>
<line x1="165.3" y1="354.0" x2="137.8" y2="378.7" stroke="rgb(0,0,0)"  stroke-width="2.0"/>
<line x1="137.8" y1="378.7" x2="152.9" y2="412.5" stroke="rgb(0,0,0)"  stroke-width="2.0"/>
<line x1="246.8" y1="161.0" x2="227.4" y2="175.0" stroke="rgb(0,0,0)"  stroke-width="2.0"/>
<line x1="220.9" y1="195.1" x2="228.3" y2="217.9" stroke="rgb(0,0,0)"  stroke-width="2.0"/>
<line x1="265.3" y1="217.9" x2="276.7" y2="182.7" stroke="rgb(0,0,0)"  stroke-width="2.0"/>
<line x1="276.7" y1="182.7" x2="246.8" y2="161.0" stroke="rgb(0,0,0)"  stroke-width="2.0"/>
<line x1="367.7" y1="158.9" x2="360.3" y2="136.1" stroke="rgb(0,0,0)"  stroke-width="2.0"/>
<line x1="323.3" y1="136.1" x2="311.9" y2="171.3" stroke="rgb(0,0,0)"  stroke-width="2.0"/>
<line x1="311.9" y1="171.3" x2="341.8" y2="193.0" stroke="rgb(0,0,0)"  stroke-width="2.0"/>
<line x1="341.8" y1="193.0" x2="361.2" y2="178.9" stroke="rgb(0,0,0)"  stroke-width="2.0"/>
<text x="365.710266" y="179.262253" fill="rgb(12,12,255)"  stroke="rgb(12,12,255)" stroke-width="1" font-size="16" >N</text>
<text x="240.773265" y="131.967881" fill="rgb(255,12,12)"  stroke="rgb(255,12,12)" stroke-width="1" font-size="16" >O</text>
<text x="210.852324" y="190.691035" fill="rgb(12,12,255)"  stroke="rgb(12,12,255)" stroke-width="1" font-size="16" >N</text>
<text x="148.193443" y="204.009592" fill="rgb(255,12,12)"  stroke="rgb(255,12,12)" stroke-width="1" font-size="16" >O</text>
<text x="167.988675" y="143.086131" fill="rgb(255,12,12)"  stroke="rgb(255,12,12)" stroke-width="1" font-size="16" >O</text>
<text x="197.473379" y="118.338792" fill="rgb(102,102,102)"  stroke="rgb(102,102,102)" stroke-width="1" font-size="16" >CH</text>
<text x="221.473379" y="122.018792" fill="rgb(102,102,102)"  stroke="rgb(102,102,102)" stroke-width="1" font-size="13" >3</text>
<text x="335.789325" y="237.985407" fill="rgb(255,12,12)"  stroke="rgb(255,12,12)" stroke-width="1" font-size="16" >O</text>
<text x="428.369147" y="165.943696" fill="rgb(255,12,12)"  stroke="rgb(255,12,12)" stroke-width="1" font-size="16" >O</text>
<text x="408.573915" y="226.867157" fill="rgb(255,12,12)"  stroke="rgb(255,12,12)" stroke-width="1" font-size="16" >O</text>
<text x="445.748091" y="238.295940" fill="rgb(102,102,102)"  stroke="rgb(102,102,102)" stroke-width="1" font-size="16" >CH</text>
<text x="469.748091" y="241.975940" fill="rgb(102,102,102)"  stroke="rgb(102,102,102)" stroke-width="1" font-size="13" >3</text>
<text x="372.773643" y="48.000000" fill="rgb(191,191,191)"  stroke="rgb(191,191,191)" stroke-width="1" font-size="16" >H</text>
<text x="14.000000" y="384.852889" fill="rgb(102,102,102)"  stroke="rgb(102,102,102)" stroke-width="1" font-size="16" >H</text>
<text x="26.000000" y="388.532889" fill="rgb(102,102,102)"  stroke="rgb(102,102,102)" stroke-width="1" font-size="13" >3</text>
<text x="32.500000" y="384.852889" fill="rgb(102,102,102)"  stroke="rgb(102,102,102)" stroke-width="1" font-size="16" >C</text>
<text x="218.831825" y="355.740143" fill="rgb(178,178,0)"  stroke="rgb(178,178,0)" stroke-width="1" font-size="16" >S</text>
<text x="88.969409" y="434.347567" fill="rgb(255,12,12)"  stroke="rgb(255,12,12)" stroke-width="1" font-size="16" >O</text>
<text x="69.174176" y="373.424106" fill="rgb(255,12,12)"  stroke="rgb(255,12,12)" stroke-width="1" font-size="16" >O</text>
<text x="327.021294" y="247.726559" fill="rgb(255,12,12)"  stroke="rgb(255,12,12)" stroke-width="1" font-size="16" >O</text>
<text x="262.962577" y="247.726559" fill="rgb(255,12,12)"  stroke="rgb(255,12,12)" stroke-width="1" font-size="16" >O</text>
<text x="210.933218" y="266.218718" fill="rgb(102,102,102)"  stroke="rgb(102,102,102)" stroke-width="1" font-size="16" >H</text>
<text x="222.933218" y="269.898718" fill="rgb(102,102,102)"  stroke="rgb(102,102,102)" stroke-width="1" font-size="13" >3</text>
<text x="229.433218" y="266.218718" fill="rgb(102,102,102)"  stroke="rgb(102,102,102)" stroke-width="1" font-size="16" >C</text>
<text x="175.081735" y="511.979512" fill="rgb(191,191,191)"  stroke="rgb(191,191,191)" stroke-width="1" font-size="16" >H</text>
<text x="198.700526" y="450.450460" fill="rgb(178,178,0)"  stroke="rgb(178,178,0)" stroke-width="1" font-size="16" >S</text>
</svg>
</g>
<text font-size="18.000000" fill ="black" font-family="sans-serif"
x="10.000000" y="20.000000" ></text>
</svg>
