<?xml version="1.0"?>
<svg version="1.1" id="topsvg"
xmlns="http://www.w3.org/2000/svg" xmlns:xlink="http://www.w3.org/1999/xlink"
xmlns:cml="http://www.xml-cml.org/schema" x="0" y="0" width="200px" height="200px" viewBox="0 0 100 100">
<title> - Open Babel Depiction</title>
<rect x="0" y="0" width="100" height="100" fill="white"/>
<g transform="translate(0,0)">
<svg width="100" height="100" x="0" y="0" viewBox="0 0 547.857 353.914"
font-family="sans-serif" stroke="rgb(0,0,0)" stroke-width="2"  stroke-linecap="round">
<line x1="235.5" y1="173.9" x2="275.5" y2="173.9" stroke="rgb(0,0,0)"  stroke-width="2.0"/>
<line x1="299.0" y1="141.6" x2="290.6" y2="115.9" stroke="rgb(0,0,0)"  stroke-width="2.0"/>
<line x1="371.7" y1="133.9" x2="371.7" y2="93.9" stroke="rgb(0,0,0)"  stroke-width="2.0"/>
<line x1="370.2" y1="96.5" x2="346.8" y2="83.0" stroke="rgb(0,0,0)"  stroke-width="2.0"/>
<line x1="373.2" y1="91.3" x2="349.8" y2="77.8" stroke="rgb(0,0,0)"  stroke-width="2.0"/>
<line x1="371.7" y1="93.9" x2="395.0" y2="80.4" stroke="rgb(0,0,0)"  stroke-width="2.0"/>
<line x1="417.6" y1="80.4" x2="429.7" y2="87.4" stroke="rgb(0,0,0)"  stroke-width="2.0"/>
<line x1="467.9" y1="173.9" x2="494.9" y2="173.9" stroke="rgb(0,0,0)"  stroke-width="2.0"/>
<line x1="444.3" y1="206.3" x2="452.7" y2="232.0" stroke="rgb(0,0,0)"  stroke-width="2.0"/>
<line x1="371.7" y1="213.9" x2="371.7" y2="253.9" stroke="rgb(0,0,0)"  stroke-width="2.0"/>
<line x1="373.2" y1="256.5" x2="349.8" y2="270.0" stroke="rgb(0,0,0)"  stroke-width="2.0"/>
<line x1="370.2" y1="251.3" x2="346.8" y2="264.8" stroke="rgb(0,0,0)"  stroke-width="2.0"/>
<line x1="371.7" y1="253.9" x2="395.0" y2="267.4" stroke="rgb(0,0,0)"  stroke-width="2.0"/>
<line x1="406.3" y1="286.9" x2="406.3" y2="300.9" stroke="rgb(0,0,0)"  stroke-width="2.0"/>
<line x1="212.0" y1="206.3" x2="220.3" y2="232.0" stroke="rgb(0,0,0)"  stroke-width="2.0"/>
<line x1="173.9" y1="153.9" x2="141.6" y2="130.4" stroke="rgb(0,0,0)"  stroke-width="2.0"/>
<line x1="80.0" y1="110.4" x2="53.0" y2="110.4" stroke="rgb(0,0,0)"  stroke-width="2.0"/>
<line x1="103.5" y1="78.0" x2="95.2" y2="52.4" stroke="rgb(0,0,0)"  stroke-width="2.0"/>
<line x1="337.0" y1="153.9" x2="337.0" y2="193.9" stroke="rgb(0,0,0)"  stroke-width="2.0"/>
<line x1="337.0" y1="193.9" x2="311.3" y2="202.3" stroke="rgb(0,0,0)"  stroke-width="2.0"/>
<line x1="291.3" y1="195.8" x2="275.5" y2="173.9" stroke="rgb(0,0,0)"  stroke-width="2.0"/>
<line x1="275.5" y1="173.9" x2="299.0" y2="141.6" stroke="rgb(0,0,0)"  stroke-width="2.0"/>
<line x1="284.8" y1="173.3" x2="301.3" y2="150.6" stroke="rgb(0,0,0)"  stroke-width="2.0"/>
<line x1="299.0" y1="141.6" x2="337.0" y2="153.9" stroke="rgb(0,0,0)"  stroke-width="2.0"/>
<line x1="467.9" y1="173.9" x2="444.3" y2="206.3" stroke="rgb(0,0,0)"  stroke-width="2.0"/>
<line x1="458.5" y1="174.5" x2="442.0" y2="197.2" stroke="rgb(0,0,0)"  stroke-width="2.0"/>
<line x1="444.3" y1="206.3" x2="406.3" y2="193.9" stroke="rgb(0,0,0)"  stroke-width="2.0"/>
<line x1="406.3" y1="193.9" x2="406.3" y2="153.9" stroke="rgb(0,0,0)"  stroke-width="2.0"/>
<line x1="413.5" y1="187.9" x2="413.5" y2="159.9" stroke="rgb(0,0,0)"  stroke-width="2.0"/>
<line x1="406.3" y1="153.9" x2="432.0" y2="145.6" stroke="rgb(0,0,0)"  stroke-width="2.0"/>
<line x1="452.0" y1="152.1" x2="467.9" y2="173.9" stroke="rgb(0,0,0)"  stroke-width="2.0"/>
<line x1="173.9" y1="180.7" x2="173.9" y2="153.9" stroke="rgb(0,0,0)"  stroke-width="2.0"/>
<line x1="181.1" y1="178.7" x2="181.1" y2="159.9" stroke="rgb(0,0,0)"  stroke-width="2.0"/>
<line x1="173.9" y1="153.9" x2="199.6" y2="145.6" stroke="rgb(0,0,0)"  stroke-width="2.0"/>
<line x1="219.6" y1="152.1" x2="235.5" y2="173.9" stroke="rgb(0,0,0)"  stroke-width="2.0"/>
<line x1="235.5" y1="173.9" x2="212.0" y2="206.3" stroke="rgb(0,0,0)"  stroke-width="2.0"/>
<line x1="226.1" y1="174.5" x2="209.7" y2="197.2" stroke="rgb(0,0,0)"  stroke-width="2.0"/>
<line x1="212.0" y1="206.3" x2="186.3" y2="197.9" stroke="rgb(0,0,0)"  stroke-width="2.0"/>
<line x1="80.0" y1="110.4" x2="103.5" y2="78.0" stroke="rgb(0,0,0)"  stroke-width="2.0"/>
<line x1="89.4" y1="109.8" x2="105.8" y2="87.1" stroke="rgb(0,0,0)"  stroke-width="2.0"/>
<line x1="103.5" y1="78.0" x2="129.2" y2="86.4" stroke="rgb(0,0,0)"  stroke-width="2.0"/>
<line x1="141.6" y1="103.6" x2="141.6" y2="130.4" stroke="rgb(0,0,0)"  stroke-width="2.0"/>
<line x1="134.4" y1="105.6" x2="134.4" y2="124.4" stroke="rgb(0,0,0)"  stroke-width="2.0"/>
<line x1="141.6" y1="130.4" x2="115.9" y2="138.7" stroke="rgb(0,0,0)"  stroke-width="2.0"/>
<line x1="95.9" y1="132.2" x2="80.0" y2="110.4" stroke="rgb(0,0,0)"  stroke-width="2.0"/>
<line x1="406.3" y1="193.9" x2="371.7" y2="213.9" stroke="rgb(0,0,0)"  stroke-width="2.0"/>
<line x1="371.7" y1="213.9" x2="337.0" y2="193.9" stroke="rgb(0,0,0)"  stroke-width="2.0"/>
<line x1="370.1" y1="204.7" x2="345.8" y2="190.7" stroke="rgb(0,0,0)"  stroke-width="2.0"/>
<line x1="337.0" y1="153.9" x2="371.7" y2="133.9" stroke="rgb(0,0,0)"  stroke-width="2.0"/>
<line x1="345.8" y1="157.1" x2="370.1" y2="143.1" stroke="rgb(0,0,0)"  stroke-width="2.0"/>
<line x1="371.7" y1="133.9" x2="406.3" y2="153.9" stroke="rgb(0,0,0)"  stroke-width="2.0"/>
<text x="331.021692" y="281.914351" fill="rgb(255,12,12)"  stroke="rgb(255,12,12)" stroke-width="1" font-size="16" >O</text>
<text x="400.303724" y="281.914351" fill="rgb(255,12,12)"  stroke="rgb(255,12,12)" stroke-width="1" font-size="16" >O</text>
<text x="402.303724" y="321.914351" fill="rgb(102,102,102)"  stroke="rgb(102,102,102)" stroke-width="1" font-size="16" >CH</text>
<text x="426.303724" y="325.594351" fill="rgb(102,102,102)"  stroke="rgb(102,102,102)" stroke-width="1" font-size="13" >3</text>
<text x="292.979431" y="214.275030" fill="rgb(178,178,0)"  stroke="rgb(178,178,0)" stroke-width="1" font-size="16" >S</text>
<text x="218.317291" y="252.317291" fill="rgb(255,12,12)"  stroke="rgb(255,12,12)" stroke-width="1" font-size="16" >OH</text>
<text x="167.914351" y="201.914351" fill="rgb(12,12,255)"  stroke="rgb(12,12,255)" stroke-width="1" font-size="16" >N</text>
<text x="205.956611" y="149.553671" fill="rgb(178,178,0)"  stroke="rgb(178,178,0)" stroke-width="1" font-size="16" >S</text>
<text x="97.511410" y="150.763620" fill="rgb(178,178,0)"  stroke="rgb(178,178,0)" stroke-width="1" font-size="16" >S</text>
<text x="34.000000" y="118.402940" fill="rgb(191,191,191)"  stroke="rgb(191,191,191)" stroke-width="1" font-size="16" >H</text>
<text x="73.150730" y="48.000000" fill="rgb(255,12,12)"  stroke="rgb(255,12,12)" stroke-width="1" font-size="16" >HO</text>
<text x="135.553671" y="98.402940" fill="rgb(12,12,255)"  stroke="rgb(12,12,255)" stroke-width="1" font-size="16" >N</text>
<text x="436.944740" y="101.914351" fill="rgb(102,102,102)"  stroke="rgb(102,102,102)" stroke-width="1" font-size="16" >CH</text>
<text x="460.944740" y="105.594351" fill="rgb(102,102,102)"  stroke="rgb(102,102,102)" stroke-width="1" font-size="13" >3</text>
<text x="280.618752" y="111.511410" fill="rgb(127,178,255)"  stroke="rgb(127,178,255)" stroke-width="1" font-size="16" >F</text>
<text x="331.021692" y="81.914351" fill="rgb(255,12,12)"  stroke="rgb(255,12,12)" stroke-width="1" font-size="16" >O</text>
<text x="400.303724" y="81.914351" fill="rgb(255,12,12)"  stroke="rgb(255,12,12)" stroke-width="1" font-size="16" >O</text>
<text x="438.345985" y="149.553671" fill="rgb(178,178,0)"  stroke="rgb(178,178,0)" stroke-width="1" font-size="16" >S</text>
<text x="501.857395" y="181.914351" fill="rgb(191,191,191)"  stroke="rgb(191,191,191)" stroke-width="1" font-size="16" >H</text>
<text x="450.706665" y="252.317291" fill="rgb(127,178,255)"  stroke="rgb(127,178,255)" stroke-width="1" font-size="16" >F</text>
</svg>
</g>
<text font-size="18.000000" fill ="black" font-family="sans-serif"
x="10.000000" y="20.000000" ></text>
</svg>
