<?xml version="1.0"?>
<svg version="1.1" id="topsvg"
xmlns="http://www.w3.org/2000/svg" xmlns:xlink="http://www.w3.org/1999/xlink"
xmlns:cml="http://www.xml-cml.org/schema" x="0" y="0" width="200px" height="200px" viewBox="0 0 100 100">
<title> - Open Babel Depiction</title>
<rect x="0" y="0" width="100" height="100" fill="white"/>
<g transform="translate(0,0)">
<svg width="100" height="100" x="0" y="0" viewBox="0 0 424.085 355.865"
font-family="sans-serif" stroke="rgb(0,0,0)" stroke-width="2"  stroke-linecap="round">
<line x1="143.9" y1="180.0" x2="178.6" y2="200.0" stroke="rgb(0,0,0)"  stroke-width="2.0"/>
<line x1="248.6" y1="277.8" x2="257.0" y2="303.5" stroke="rgb(0,0,0)"  stroke-width="2.0"/>
<line x1="248.6" y1="277.8" x2="230.6" y2="297.9" stroke="rgb(0,0,0)"  stroke-width="2.0"/>
<line x1="344.3" y1="235.2" x2="371.2" y2="232.4" stroke="rgb(0,0,0)"  stroke-width="2.0"/>
<line x1="74.6" y1="140.0" x2="51.3" y2="126.5" stroke="rgb(0,0,0)"  stroke-width="2.0"/>
<line x1="109.3" y1="120.0" x2="109.3" y2="80.0" stroke="rgb(0,0,0)"  stroke-width="2.0"/>
<line x1="109.3" y1="80.0" x2="109.3" y2="53.0" stroke="rgb(0,0,0)"  stroke-width="2.0"/>
<line x1="105.1" y1="80.0" x2="105.1" y2="53.0" stroke="rgb(0,0,0)"  stroke-width="2.0"/>
<line x1="113.5" y1="80.0" x2="113.5" y2="53.0" stroke="rgb(0,0,0)"  stroke-width="2.0"/>
<line x1="143.9" y1="140.0" x2="178.6" y2="120.0" stroke="rgb(0,0,0)"  stroke-width="2.0"/>
<line x1="178.6" y1="120.0" x2="201.9" y2="106.5" stroke="rgb(0,0,0)"  stroke-width="2.0"/>
<line x1="176.5" y1="116.4" x2="199.8" y2="102.9" stroke="rgb(0,0,0)"  stroke-width="2.0"/>
<line x1="180.7" y1="123.6" x2="204.0" y2="110.1" stroke="rgb(0,0,0)"  stroke-width="2.0"/>
<line x1="221.9" y1="248.1" x2="241.9" y2="213.5" stroke="rgb(0,0,0)"  stroke-width="2.0"/>
<line x1="218.6" y1="239.3" x2="232.6" y2="215.1" stroke="rgb(0,0,0)"  stroke-width="2.0"/>
<line x1="241.9" y1="213.5" x2="223.8" y2="193.4" stroke="rgb(0,0,0)"  stroke-width="2.0"/>
<line x1="203.2" y1="189.0" x2="178.6" y2="200.0" stroke="rgb(0,0,0)"  stroke-width="2.0"/>
<line x1="178.6" y1="200.0" x2="182.7" y2="239.8" stroke="rgb(0,0,0)"  stroke-width="2.0"/>
<line x1="186.4" y1="205.2" x2="189.3" y2="233.1" stroke="rgb(0,0,0)"  stroke-width="2.0"/>
<line x1="182.7" y1="239.8" x2="221.9" y2="248.1" stroke="rgb(0,0,0)"  stroke-width="2.0"/>
<line x1="344.3" y1="235.2" x2="326.2" y2="215.2" stroke="rgb(0,0,0)"  stroke-width="2.0"/>
<line x1="305.7" y1="210.8" x2="281.0" y2="221.8" stroke="rgb(0,0,0)"  stroke-width="2.0"/>
<line x1="281.0" y1="221.8" x2="285.2" y2="261.6" stroke="rgb(0,0,0)"  stroke-width="2.0"/>
<line x1="288.8" y1="227.0" x2="291.7" y2="254.8" stroke="rgb(0,0,0)"  stroke-width="2.0"/>
<line x1="285.2" y1="261.6" x2="324.3" y2="269.9" stroke="rgb(0,0,0)"  stroke-width="2.0"/>
<line x1="324.3" y1="269.9" x2="344.3" y2="235.2" stroke="rgb(0,0,0)"  stroke-width="2.0"/>
<line x1="321.1" y1="261.1" x2="335.1" y2="236.8" stroke="rgb(0,0,0)"  stroke-width="2.0"/>
<line x1="88.0" y1="240.5" x2="74.1" y2="241.9" stroke="rgb(0,0,0)"  stroke-width="2.0"/>
<line x1="55.9" y1="231.4" x2="50.2" y2="218.6" stroke="rgb(0,0,0)"  stroke-width="2.0"/>
<line x1="54.7" y1="197.9" x2="74.6" y2="180.0" stroke="rgb(0,0,0)"  stroke-width="2.0"/>
<line x1="61.0" y1="201.9" x2="75.0" y2="189.4" stroke="rgb(0,0,0)"  stroke-width="2.0"/>
<line x1="74.6" y1="180.0" x2="109.3" y2="200.0" stroke="rgb(0,0,0)"  stroke-width="2.0"/>
<line x1="109.3" y1="200.0" x2="103.7" y2="226.2" stroke="rgb(0,0,0)"  stroke-width="2.0"/>
<line x1="101.0" y1="204.4" x2="97.1" y2="222.8" stroke="rgb(0,0,0)"  stroke-width="2.0"/>
<line x1="74.6" y1="180.0" x2="74.6" y2="140.0" stroke="rgb(0,0,0)"  stroke-width="2.0"/>
<line x1="74.6" y1="140.0" x2="109.3" y2="120.0" stroke="rgb(0,0,0)"  stroke-width="2.0"/>
<line x1="83.4" y1="143.2" x2="107.7" y2="129.2" stroke="rgb(0,0,0)"  stroke-width="2.0"/>
<line x1="109.3" y1="120.0" x2="143.9" y2="140.0" stroke="rgb(0,0,0)"  stroke-width="2.0"/>
<line x1="143.9" y1="140.0" x2="143.9" y2="180.0" stroke="rgb(0,0,0)"  stroke-width="2.0"/>
<line x1="136.7" y1="146.0" x2="136.7" y2="174.0" stroke="rgb(0,0,0)"  stroke-width="2.0"/>
<line x1="143.9" y1="180.0" x2="109.3" y2="200.0" stroke="rgb(0,0,0)"  stroke-width="2.0"/>
<line x1="281.0" y1="221.8" x2="241.9" y2="213.5" stroke="rgb(0,0,0)"  stroke-width="2.0"/>
<line x1="221.9" y1="248.1" x2="248.6" y2="277.8" stroke="rgb(0,0,0)"  stroke-width="2.0"/>
<line x1="248.6" y1="277.8" x2="285.2" y2="261.6" stroke="rgb(0,0,0)"  stroke-width="2.0"/>
<text x="311.538830" y="213.503329" fill="rgb(178,178,0)"  stroke="rgb(178,178,0)" stroke-width="1" font-size="16" >S</text>
<text x="207.205081" y="108.000000" fill="rgb(12,12,255)"  stroke="rgb(12,12,255)" stroke-width="1" font-size="16" >N</text>
<text x="103.282032" y="48.000000" fill="rgb(12,12,255)"  stroke="rgb(12,12,255)" stroke-width="1" font-size="16" >N</text>
<text x="34.000000" y="128.000000" fill="rgb(191,191,191)"  stroke="rgb(191,191,191)" stroke-width="1" font-size="16" >H</text>
<text x="38.915223" y="214.765224" fill="rgb(12,12,255)"  stroke="rgb(12,12,255)" stroke-width="1" font-size="16" >N</text>
<text x="55.184689" y="251.307043" fill="rgb(178,178,0)"  stroke="rgb(178,178,0)" stroke-width="1" font-size="16" >S</text>
<text x="94.965565" y="247.125904" fill="rgb(12,12,255)"  stroke="rgb(12,12,255)" stroke-width="1" font-size="16" >N</text>
<text x="378.084930" y="239.047984" fill="rgb(191,191,191)"  stroke="rgb(191,191,191)" stroke-width="1" font-size="16" >H</text>
<text x="195.871107" y="315.548929" fill="rgb(102,102,102)"  stroke="rgb(102,102,102)" stroke-width="1" font-size="16" >H</text>
<text x="207.871107" y="319.228929" fill="rgb(102,102,102)"  stroke="rgb(102,102,102)" stroke-width="1" font-size="13" >3</text>
<text x="214.371107" y="315.548929" fill="rgb(102,102,102)"  stroke="rgb(102,102,102)" stroke-width="1" font-size="16" >C</text>
<text x="256.997011" y="323.865397" fill="rgb(102,102,102)"  stroke="rgb(102,102,102)" stroke-width="1" font-size="16" >CH</text>
<text x="280.997011" y="327.545397" fill="rgb(102,102,102)"  stroke="rgb(102,102,102)" stroke-width="1" font-size="13" >3</text>
<text x="209.105883" y="191.730534" fill="rgb(178,178,0)"  stroke="rgb(178,178,0)" stroke-width="1" font-size="16" >S</text>
</svg>
</g>
<text font-size="18.000000" fill ="black" font-family="sans-serif"
x="10.000000" y="20.000000" ></text>
</svg>
