<?xml version="1.0"?>
<svg version="1.1" id="topsvg"
xmlns="http://www.w3.org/2000/svg" xmlns:xlink="http://www.w3.org/1999/xlink"
xmlns:cml="http://www.xml-cml.org/schema" x="0" y="0" width="200px" height="200px" viewBox="0 0 100 100">
<title> - Open Babel Depiction</title>
<rect x="0" y="0" width="100" height="100" fill="white"/>
<g transform="translate(0,0)">
<svg width="100" height="100" x="0" y="0" viewBox="0 0 525.098 315.224"
font-family="sans-serif" stroke="rgb(0,0,0)" stroke-width="2"  stroke-linecap="round">
<line x1="213.7" y1="197.1" x2="247.5" y2="216.6" stroke="rgb(0,0,0)"  stroke-width="2.0"/>
<line x1="349.0" y1="184.1" x2="349.0" y2="170.1" stroke="rgb(0,0,0)"  stroke-width="2.0"/>
<line x1="450.5" y1="216.6" x2="473.8" y2="203.1" stroke="rgb(0,0,0)"  stroke-width="2.0"/>
<line x1="184.7" y1="223.2" x2="187.4" y2="249.1" stroke="rgb(0,0,0)"  stroke-width="2.0"/>
<line x1="159.0" y1="165.5" x2="132.9" y2="136.5" stroke="rgb(0,0,0)"  stroke-width="2.0"/>
<line x1="78.2" y1="105.0" x2="52.7" y2="99.5" stroke="rgb(0,0,0)"  stroke-width="2.0"/>
<line x1="107.2" y1="78.8" x2="104.5" y2="52.9" stroke="rgb(0,0,0)"  stroke-width="2.0"/>
<line x1="382.8" y1="216.6" x2="382.8" y2="255.7" stroke="rgb(0,0,0)"  stroke-width="2.0"/>
<line x1="382.8" y1="255.7" x2="315.2" y2="255.7" stroke="rgb(0,0,0)"  stroke-width="2.0"/>
<line x1="315.2" y1="255.7" x2="315.2" y2="216.6" stroke="rgb(0,0,0)"  stroke-width="2.0"/>
<line x1="322.4" y1="249.7" x2="322.4" y2="222.6" stroke="rgb(0,0,0)"  stroke-width="2.0"/>
<line x1="315.2" y1="216.6" x2="337.7" y2="203.6" stroke="rgb(0,0,0)"  stroke-width="2.0"/>
<line x1="360.2" y1="203.6" x2="382.8" y2="216.6" stroke="rgb(0,0,0)"  stroke-width="2.0"/>
<line x1="153.6" y1="191.1" x2="159.0" y2="165.5" stroke="rgb(0,0,0)"  stroke-width="2.0"/>
<line x1="161.1" y1="190.6" x2="164.8" y2="172.9" stroke="rgb(0,0,0)"  stroke-width="2.0"/>
<line x1="159.0" y1="165.5" x2="184.9" y2="162.8" stroke="rgb(0,0,0)"  stroke-width="2.0"/>
<line x1="203.1" y1="173.3" x2="213.7" y2="197.1" stroke="rgb(0,0,0)"  stroke-width="2.0"/>
<line x1="213.7" y1="197.1" x2="184.7" y2="223.2" stroke="rgb(0,0,0)"  stroke-width="2.0"/>
<line x1="204.5" y1="195.8" x2="184.4" y2="213.9" stroke="rgb(0,0,0)"  stroke-width="2.0"/>
<line x1="184.7" y1="223.2" x2="162.2" y2="210.2" stroke="rgb(0,0,0)"  stroke-width="2.0"/>
<line x1="78.2" y1="105.0" x2="107.2" y2="78.8" stroke="rgb(0,0,0)"  stroke-width="2.0"/>
<line x1="87.5" y1="106.3" x2="107.6" y2="88.2" stroke="rgb(0,0,0)"  stroke-width="2.0"/>
<line x1="107.2" y1="78.8" x2="129.8" y2="91.8" stroke="rgb(0,0,0)"  stroke-width="2.0"/>
<line x1="138.3" y1="110.9" x2="132.9" y2="136.5" stroke="rgb(0,0,0)"  stroke-width="2.0"/>
<line x1="130.9" y1="111.5" x2="127.1" y2="129.2" stroke="rgb(0,0,0)"  stroke-width="2.0"/>
<line x1="132.9" y1="136.5" x2="107.0" y2="139.3" stroke="rgb(0,0,0)"  stroke-width="2.0"/>
<line x1="88.8" y1="128.7" x2="78.2" y2="105.0" stroke="rgb(0,0,0)"  stroke-width="2.0"/>
<line x1="315.2" y1="255.7" x2="281.4" y2="275.2" stroke="rgb(0,0,0)"  stroke-width="2.0"/>
<line x1="281.4" y1="275.2" x2="247.5" y2="255.7" stroke="rgb(0,0,0)"  stroke-width="2.0"/>
<line x1="279.8" y1="266.0" x2="256.3" y2="252.5" stroke="rgb(0,0,0)"  stroke-width="2.0"/>
<line x1="247.5" y1="255.7" x2="247.5" y2="216.6" stroke="rgb(0,0,0)"  stroke-width="2.0"/>
<line x1="247.5" y1="216.6" x2="281.4" y2="197.1" stroke="rgb(0,0,0)"  stroke-width="2.0"/>
<line x1="256.3" y1="219.9" x2="279.8" y2="206.4" stroke="rgb(0,0,0)"  stroke-width="2.0"/>
<line x1="281.4" y1="197.1" x2="315.2" y2="216.6" stroke="rgb(0,0,0)"  stroke-width="2.0"/>
<line x1="416.6" y1="197.1" x2="382.8" y2="216.6" stroke="rgb(0,0,0)"  stroke-width="2.0"/>
<line x1="415.1" y1="206.3" x2="391.6" y2="219.9" stroke="rgb(0,0,0)"  stroke-width="2.0"/>
<line x1="382.8" y1="255.7" x2="416.7" y2="275.2" stroke="rgb(0,0,0)"  stroke-width="2.0"/>
<line x1="391.6" y1="252.5" x2="415.1" y2="266.0" stroke="rgb(0,0,0)"  stroke-width="2.0"/>
<line x1="416.7" y1="275.2" x2="450.5" y2="255.7" stroke="rgb(0,0,0)"  stroke-width="2.0"/>
<line x1="450.5" y1="255.7" x2="450.5" y2="216.6" stroke="rgb(0,0,0)"  stroke-width="2.0"/>
<line x1="443.3" y1="249.7" x2="443.3" y2="222.6" stroke="rgb(0,0,0)"  stroke-width="2.0"/>
<line x1="450.5" y1="216.6" x2="416.6" y2="197.1" stroke="rgb(0,0,0)"  stroke-width="2.0"/>
<text x="135.010489" y="106.343540" fill="rgb(12,12,255)"  stroke="rgb(12,12,255)" stroke-width="1" font-size="16" >N</text>
<text x="85.114220" y="48.000000" fill="rgb(255,12,12)"  stroke="rgb(255,12,12)" stroke-width="1" font-size="16" >HO</text>
<text x="34.000000" y="104.838675" fill="rgb(191,191,191)"  stroke="rgb(191,191,191)" stroke-width="1" font-size="16" >H</text>
<text x="88.070639" y="148.616088" fill="rgb(178,178,0)"  stroke="rgb(178,178,0)" stroke-width="1" font-size="16" >S</text>
<text x="191.849164" y="169.457760" fill="rgb(178,178,0)"  stroke="rgb(178,178,0)" stroke-width="1" font-size="16" >S</text>
<text x="144.909314" y="211.730307" fill="rgb(12,12,255)"  stroke="rgb(12,12,255)" stroke-width="1" font-size="16" >N</text>
<text x="182.805583" y="270.073847" fill="rgb(255,12,12)"  stroke="rgb(255,12,12)" stroke-width="1" font-size="16" >OH</text>
<text x="479.098456" y="204.625533" fill="rgb(191,191,191)"  stroke="rgb(191,191,191)" stroke-width="1" font-size="16" >H</text>
<text x="344.981839" y="165.110394" fill="rgb(102,102,102)"  stroke="rgb(102,102,102)" stroke-width="1" font-size="16" >CH</text>
<text x="368.981839" y="168.790394" fill="rgb(102,102,102)"  stroke="rgb(102,102,102)" stroke-width="1" font-size="13" >3</text>
<text x="342.989456" y="205.110393" fill="rgb(12,12,255)"  stroke="rgb(12,12,255)" stroke-width="1" font-size="16" >N</text>
</svg>
</g>
<text font-size="18.000000" fill ="black" font-family="sans-serif"
x="10.000000" y="20.000000" ></text>
</svg>
