<?xml version="1.0"?>
<svg version="1.1" id="topsvg"
xmlns="http://www.w3.org/2000/svg" xmlns:xlink="http://www.w3.org/1999/xlink"
xmlns:cml="http://www.xml-cml.org/schema" x="0" y="0" width="200px" height="200px" viewBox="0 0 100 100">
<title> - Open Babel Depiction</title>
<rect x="0" y="0" width="100" height="100" fill="white"/>
<g transform="translate(0,0)">
<svg width="100" height="100" x="0" y="0" viewBox="0 0 602.434 353.958"
font-family="sans-serif" stroke="rgb(0,0,0)" stroke-width="2"  stroke-linecap="round">
<line x1="313.2" y1="118.7" x2="279.1" y2="99.0" stroke="rgb(0,0,0)"  stroke-width="2.0"/>
<line x1="176.9" y1="118.7" x2="176.9" y2="145.7" stroke="rgb(0,0,0)"  stroke-width="2.0"/>
<line x1="176.9" y1="118.7" x2="153.5" y2="132.2" stroke="rgb(0,0,0)"  stroke-width="2.0"/>
<line x1="74.6" y1="99.0" x2="51.3" y2="112.6" stroke="rgb(0,0,0)"  stroke-width="2.0"/>
<line x1="374.5" y1="234.1" x2="382.7" y2="259.1" stroke="rgb(0,0,0)"  stroke-width="2.0"/>
<line x1="368.8" y1="235.9" x2="377.0" y2="261.0" stroke="rgb(0,0,0)"  stroke-width="2.0"/>
<line x1="323.7" y1="230.5" x2="312.9" y2="238.3" stroke="rgb(0,0,0)"  stroke-width="2.0"/>
<line x1="303.8" y1="258.9" x2="305.2" y2="272.2" stroke="rgb(0,0,0)"  stroke-width="2.0"/>
<line x1="394.8" y1="200.2" x2="434.1" y2="200.2" stroke="rgb(0,0,0)"  stroke-width="2.0"/>
<line x1="394.8" y1="206.2" x2="434.1" y2="206.2" stroke="rgb(0,0,0)"  stroke-width="2.0"/>
<line x1="454.4" y1="172.3" x2="446.3" y2="147.2" stroke="rgb(0,0,0)"  stroke-width="2.0"/>
<line x1="460.1" y1="170.4" x2="452.0" y2="145.4" stroke="rgb(0,0,0)"  stroke-width="2.0"/>
<line x1="505.2" y1="175.8" x2="516.0" y2="168.0" stroke="rgb(0,0,0)"  stroke-width="2.0"/>
<line x1="538.4" y1="165.7" x2="550.6" y2="171.1" stroke="rgb(0,0,0)"  stroke-width="2.0"/>
<line x1="515.7" y1="287.6" x2="535.3" y2="305.3" stroke="rgb(0,0,0)"  stroke-width="2.0"/>
<line x1="211.0" y1="99.0" x2="211.0" y2="59.7" stroke="rgb(0,0,0)"  stroke-width="2.0"/>
<line x1="218.2" y1="93.0" x2="218.2" y2="65.7" stroke="rgb(0,0,0)"  stroke-width="2.0"/>
<line x1="211.0" y1="59.7" x2="245.0" y2="40.0" stroke="rgb(0,0,0)"  stroke-width="2.0"/>
<line x1="245.0" y1="40.0" x2="279.1" y2="59.7" stroke="rgb(0,0,0)"  stroke-width="2.0"/>
<line x1="246.6" y1="49.2" x2="270.3" y2="62.9" stroke="rgb(0,0,0)"  stroke-width="2.0"/>
<line x1="279.1" y1="59.7" x2="279.1" y2="99.0" stroke="rgb(0,0,0)"  stroke-width="2.0"/>
<line x1="279.1" y1="99.0" x2="245.0" y2="118.7" stroke="rgb(0,0,0)"  stroke-width="2.0"/>
<line x1="270.3" y1="95.8" x2="246.6" y2="109.5" stroke="rgb(0,0,0)"  stroke-width="2.0"/>
<line x1="245.0" y1="118.7" x2="211.0" y2="99.0" stroke="rgb(0,0,0)"  stroke-width="2.0"/>
<line x1="108.7" y1="118.7" x2="142.8" y2="99.0" stroke="rgb(0,0,0)"  stroke-width="2.0"/>
<line x1="110.3" y1="109.5" x2="134.0" y2="95.8" stroke="rgb(0,0,0)"  stroke-width="2.0"/>
<line x1="142.8" y1="99.0" x2="142.8" y2="59.7" stroke="rgb(0,0,0)"  stroke-width="2.0"/>
<line x1="142.8" y1="59.7" x2="108.7" y2="40.0" stroke="rgb(0,0,0)"  stroke-width="2.0"/>
<line x1="134.0" y1="62.9" x2="110.3" y2="49.2" stroke="rgb(0,0,0)"  stroke-width="2.0"/>
<line x1="108.7" y1="40.0" x2="74.6" y2="59.7" stroke="rgb(0,0,0)"  stroke-width="2.0"/>
<line x1="74.6" y1="59.7" x2="74.6" y2="99.0" stroke="rgb(0,0,0)"  stroke-width="2.0"/>
<line x1="81.8" y1="65.7" x2="81.8" y2="93.0" stroke="rgb(0,0,0)"  stroke-width="2.0"/>
<line x1="74.6" y1="99.0" x2="108.7" y2="118.7" stroke="rgb(0,0,0)"  stroke-width="2.0"/>
<line x1="379.8" y1="132.9" x2="371.7" y2="171.3" stroke="rgb(0,0,0)"  stroke-width="2.0"/>
<line x1="371.5" y1="137.2" x2="365.9" y2="164.0" stroke="rgb(0,0,0)"  stroke-width="2.0"/>
<line x1="371.7" y1="171.3" x2="334.2" y2="183.5" stroke="rgb(0,0,0)"  stroke-width="2.0"/>
<line x1="334.2" y1="183.5" x2="305.0" y2="157.2" stroke="rgb(0,0,0)"  stroke-width="2.0"/>
<line x1="334.6" y1="174.1" x2="314.3" y2="155.8" stroke="rgb(0,0,0)"  stroke-width="2.0"/>
<line x1="305.0" y1="157.2" x2="313.2" y2="118.7" stroke="rgb(0,0,0)"  stroke-width="2.0"/>
<line x1="313.2" y1="118.7" x2="350.6" y2="106.5" stroke="rgb(0,0,0)"  stroke-width="2.0"/>
<line x1="321.1" y1="123.7" x2="347.1" y2="115.2" stroke="rgb(0,0,0)"  stroke-width="2.0"/>
<line x1="350.6" y1="106.5" x2="379.8" y2="132.9" stroke="rgb(0,0,0)"  stroke-width="2.0"/>
<line x1="478.3" y1="299.8" x2="449.1" y2="273.5" stroke="rgb(0,0,0)"  stroke-width="2.0"/>
<line x1="449.1" y1="273.5" x2="457.3" y2="235.0" stroke="rgb(0,0,0)"  stroke-width="2.0"/>
<line x1="457.4" y1="269.1" x2="463.1" y2="242.4" stroke="rgb(0,0,0)"  stroke-width="2.0"/>
<line x1="457.3" y1="235.0" x2="494.7" y2="222.8" stroke="rgb(0,0,0)"  stroke-width="2.0"/>
<line x1="494.7" y1="222.8" x2="523.9" y2="249.2" stroke="rgb(0,0,0)"  stroke-width="2.0"/>
<line x1="494.3" y1="232.2" x2="514.6" y2="250.5" stroke="rgb(0,0,0)"  stroke-width="2.0"/>
<line x1="523.9" y1="249.2" x2="515.7" y2="287.6" stroke="rgb(0,0,0)"  stroke-width="2.0"/>
<line x1="515.7" y1="287.6" x2="478.3" y2="299.8" stroke="rgb(0,0,0)"  stroke-width="2.0"/>
<line x1="507.8" y1="282.6" x2="481.8" y2="291.1" stroke="rgb(0,0,0)"  stroke-width="2.0"/>
<line x1="142.8" y1="59.7" x2="211.0" y2="59.7" stroke="rgb(0,0,0)"  stroke-width="2.0"/>
<line x1="211.0" y1="99.0" x2="176.9" y2="118.7" stroke="rgb(0,0,0)"  stroke-width="2.0"/>
<line x1="176.9" y1="118.7" x2="142.8" y2="99.0" stroke="rgb(0,0,0)"  stroke-width="2.0"/>
<line x1="371.7" y1="235.0" x2="346.6" y2="226.9" stroke="rgb(0,0,0)"  stroke-width="2.0"/>
<line x1="334.3" y1="209.8" x2="334.2" y2="183.5" stroke="rgb(0,0,0)"  stroke-width="2.0"/>
<line x1="371.7" y1="171.3" x2="394.8" y2="203.2" stroke="rgb(0,0,0)"  stroke-width="2.0"/>
<line x1="394.8" y1="203.2" x2="371.7" y2="235.0" stroke="rgb(0,0,0)"  stroke-width="2.0"/>
<line x1="494.7" y1="196.5" x2="494.7" y2="222.8" stroke="rgb(0,0,0)"  stroke-width="2.0"/>
<line x1="457.3" y1="235.0" x2="434.1" y2="203.2" stroke="rgb(0,0,0)"  stroke-width="2.0"/>
<line x1="434.1" y1="203.2" x2="457.3" y2="171.3" stroke="rgb(0,0,0)"  stroke-width="2.0"/>
<line x1="457.3" y1="171.3" x2="482.3" y2="179.5" stroke="rgb(0,0,0)"  stroke-width="2.0"/>
<text x="488.667326" y="191.491881" fill="rgb(12,12,255)"  stroke="rgb(12,12,255)" stroke-width="1" font-size="16" >N</text>
<text x="377.828339" y="280.415065" fill="rgb(255,12,12)"  stroke="rgb(255,12,12)" stroke-width="1" font-size="16" >O</text>
<text x="328.251527" y="230.847254" fill="rgb(12,12,255)"  stroke="rgb(12,12,255)" stroke-width="1" font-size="16" >N</text>
<text x="296.426243" y="253.974091" fill="rgb(255,12,12)"  stroke="rgb(255,12,12)" stroke-width="1" font-size="16" >O</text>
<text x="302.542030" y="293.099014" fill="rgb(102,102,102)"  stroke="rgb(102,102,102)" stroke-width="1" font-size="16" >CH</text>
<text x="326.542030" y="296.779014" fill="rgb(102,102,102)"  stroke="rgb(102,102,102)" stroke-width="1" font-size="13" >3</text>
<text x="439.090514" y="141.924070" fill="rgb(255,12,12)"  stroke="rgb(255,12,12)" stroke-width="1" font-size="16" >O</text>
<text x="520.492610" y="168.365044" fill="rgb(255,12,12)"  stroke="rgb(255,12,12)" stroke-width="1" font-size="16" >O</text>
<text x="558.433680" y="184.363130" fill="rgb(102,102,102)"  stroke="rgb(102,102,102)" stroke-width="1" font-size="16" >CH</text>
<text x="582.433680" y="188.043130" fill="rgb(102,102,102)"  stroke="rgb(102,102,102)" stroke-width="1" font-size="13" >3</text>
<text x="538.971594" y="321.957522" fill="rgb(191,191,191)"  stroke="rgb(191,191,191)" stroke-width="1" font-size="16" >H</text>
<text x="34.000000" y="127.052357" fill="rgb(191,191,191)"  stroke="rgb(191,191,191)" stroke-width="1" font-size="16" >H</text>
<text x="170.895151" y="166.714441" fill="rgb(191,191,191)"  stroke="rgb(191,191,191)" stroke-width="1" font-size="16" >H</text>
<text x="136.248939" y="146.718635" fill="rgb(191,191,191)"  stroke="rgb(191,191,191)" stroke-width="1" font-size="16" >H</text>
</svg>
</g>
<text font-size="18.000000" fill ="black" font-family="sans-serif"
x="10.000000" y="20.000000" ></text>
</svg>
