<?xml version="1.0"?>
<svg version="1.1" id="topsvg"
xmlns="http://www.w3.org/2000/svg" xmlns:xlink="http://www.w3.org/1999/xlink"
xmlns:cml="http://www.xml-cml.org/schema" x="0" y="0" width="200px" height="200px" viewBox="0 0 100 100">
<title> - Open Babel Depiction</title>
<rect x="0" y="0" width="100" height="100" fill="white"/>
<g transform="translate(0,0)">
<svg width="100" height="100" x="0" y="0" viewBox="0 0 420.709 449.267"
font-family="sans-serif" stroke="rgb(0,0,0)" stroke-width="2"  stroke-linecap="round">
<line x1="142.8" y1="239.6" x2="180.8" y2="252.0" stroke="rgb(0,0,0)"  stroke-width="2.0"/>
<line x1="236.9" y1="351.2" x2="223.4" y2="374.6" stroke="rgb(0,0,0)"  stroke-width="2.0"/>
<line x1="226.0" y1="373.1" x2="239.5" y2="396.5" stroke="rgb(0,0,0)"  stroke-width="2.0"/>
<line x1="220.8" y1="376.1" x2="234.3" y2="399.5" stroke="rgb(0,0,0)"  stroke-width="2.0"/>
<line x1="223.4" y1="374.6" x2="196.4" y2="374.6" stroke="rgb(0,0,0)"  stroke-width="2.0"/>
<line x1="176.9" y1="363.4" x2="169.9" y2="351.2" stroke="rgb(0,0,0)"  stroke-width="2.0"/>
<line x1="351.0" y1="350.2" x2="371.0" y2="368.3" stroke="rgb(0,0,0)"  stroke-width="2.0"/>
<line x1="141.8" y1="160.7" x2="167.5" y2="152.3" stroke="rgb(0,0,0)"  stroke-width="2.0"/>
<line x1="143.7" y1="166.4" x2="169.4" y2="158.0" stroke="rgb(0,0,0)"  stroke-width="2.0"/>
<line x1="110.4" y1="127.0" x2="110.4" y2="100.0" stroke="rgb(0,0,0)"  stroke-width="2.0"/>
<line x1="108.9" y1="102.6" x2="85.5" y2="89.1" stroke="rgb(0,0,0)"  stroke-width="2.0"/>
<line x1="111.9" y1="97.4" x2="88.5" y2="83.9" stroke="rgb(0,0,0)"  stroke-width="2.0"/>
<line x1="110.4" y1="100.0" x2="133.8" y2="86.5" stroke="rgb(0,0,0)"  stroke-width="2.0"/>
<line x1="145.0" y1="67.0" x2="145.0" y2="53.0" stroke="rgb(0,0,0)"  stroke-width="2.0"/>
<line x1="78.0" y1="163.5" x2="52.4" y2="155.2" stroke="rgb(0,0,0)"  stroke-width="2.0"/>
<line x1="79.0" y1="242.4" x2="53.3" y2="250.8" stroke="rgb(0,0,0)"  stroke-width="2.0"/>
<line x1="77.1" y1="236.7" x2="51.4" y2="245.1" stroke="rgb(0,0,0)"  stroke-width="2.0"/>
<line x1="110.4" y1="276.1" x2="110.4" y2="303.1" stroke="rgb(0,0,0)"  stroke-width="2.0"/>
<line x1="111.9" y1="300.5" x2="135.3" y2="314.0" stroke="rgb(0,0,0)"  stroke-width="2.0"/>
<line x1="108.9" y1="305.7" x2="132.3" y2="319.2" stroke="rgb(0,0,0)"  stroke-width="2.0"/>
<line x1="110.4" y1="303.1" x2="87.0" y2="316.6" stroke="rgb(0,0,0)"  stroke-width="2.0"/>
<line x1="64.5" y1="316.6" x2="52.4" y2="309.6" stroke="rgb(0,0,0)"  stroke-width="2.0"/>
<line x1="283.2" y1="335.8" x2="291.5" y2="296.7" stroke="rgb(0,0,0)"  stroke-width="2.0"/>
<line x1="291.5" y1="296.7" x2="256.9" y2="276.7" stroke="rgb(0,0,0)"  stroke-width="2.0"/>
<line x1="256.9" y1="276.7" x2="227.2" y2="303.4" stroke="rgb(0,0,0)"  stroke-width="2.0"/>
<line x1="257.2" y1="286.0" x2="236.4" y2="304.8" stroke="rgb(0,0,0)"  stroke-width="2.0"/>
<line x1="227.2" y1="303.4" x2="238.1" y2="328.1" stroke="rgb(0,0,0)"  stroke-width="2.0"/>
<line x1="256.4" y1="338.6" x2="283.2" y2="335.8" stroke="rgb(0,0,0)"  stroke-width="2.0"/>
<line x1="142.8" y1="163.5" x2="120.9" y2="147.6" stroke="rgb(0,0,0)"  stroke-width="2.0"/>
<line x1="99.9" y1="147.6" x2="78.0" y2="163.5" stroke="rgb(0,0,0)"  stroke-width="2.0"/>
<line x1="78.0" y1="163.5" x2="90.4" y2="201.6" stroke="rgb(0,0,0)"  stroke-width="2.0"/>
<line x1="86.7" y1="167.0" x2="95.4" y2="193.6" stroke="rgb(0,0,0)"  stroke-width="2.0"/>
<line x1="90.4" y1="201.6" x2="130.4" y2="201.6" stroke="rgb(0,0,0)"  stroke-width="2.0"/>
<line x1="130.4" y1="201.6" x2="142.8" y2="163.5" stroke="rgb(0,0,0)"  stroke-width="2.0"/>
<line x1="90.4" y1="201.6" x2="78.0" y2="239.6" stroke="rgb(0,0,0)"  stroke-width="2.0"/>
<line x1="78.0" y1="239.6" x2="99.9" y2="255.5" stroke="rgb(0,0,0)"  stroke-width="2.0"/>
<line x1="120.9" y1="255.5" x2="142.8" y2="239.6" stroke="rgb(0,0,0)"  stroke-width="2.0"/>
<line x1="142.8" y1="239.6" x2="130.4" y2="201.6" stroke="rgb(0,0,0)"  stroke-width="2.0"/>
<line x1="134.1" y1="236.1" x2="125.4" y2="209.5" stroke="rgb(0,0,0)"  stroke-width="2.0"/>
<line x1="256.9" y1="276.7" x2="248.6" y2="237.6" stroke="rgb(0,0,0)"  stroke-width="2.0"/>
<line x1="248.6" y1="237.6" x2="210.5" y2="225.2" stroke="rgb(0,0,0)"  stroke-width="2.0"/>
<line x1="240.6" y1="242.5" x2="214.0" y2="233.9" stroke="rgb(0,0,0)"  stroke-width="2.0"/>
<line x1="210.5" y1="225.2" x2="180.8" y2="252.0" stroke="rgb(0,0,0)"  stroke-width="2.0"/>
<line x1="180.8" y1="252.0" x2="189.1" y2="291.1" stroke="rgb(0,0,0)"  stroke-width="2.0"/>
<line x1="189.1" y1="256.3" x2="194.9" y2="283.7" stroke="rgb(0,0,0)"  stroke-width="2.0"/>
<line x1="189.1" y1="291.1" x2="227.2" y2="303.4" stroke="rgb(0,0,0)"  stroke-width="2.0"/>
<line x1="312.9" y1="362.6" x2="283.2" y2="335.8" stroke="rgb(0,0,0)"  stroke-width="2.0"/>
<line x1="313.3" y1="353.2" x2="292.5" y2="334.5" stroke="rgb(0,0,0)"  stroke-width="2.0"/>
<line x1="291.5" y1="296.7" x2="329.6" y2="284.3" stroke="rgb(0,0,0)"  stroke-width="2.0"/>
<line x1="299.5" y1="301.7" x2="326.1" y2="293.0" stroke="rgb(0,0,0)"  stroke-width="2.0"/>
<line x1="329.6" y1="284.3" x2="359.3" y2="311.1" stroke="rgb(0,0,0)"  stroke-width="2.0"/>
<line x1="359.3" y1="311.1" x2="351.0" y2="350.2" stroke="rgb(0,0,0)"  stroke-width="2.0"/>
<line x1="351.0" y1="315.5" x2="345.2" y2="342.8" stroke="rgb(0,0,0)"  stroke-width="2.0"/>
<line x1="351.0" y1="350.2" x2="312.9" y2="362.6" stroke="rgb(0,0,0)"  stroke-width="2.0"/>
<text x="34.000000" y="159.150730" fill="rgb(191,191,191)"  stroke="rgb(191,191,191)" stroke-width="1" font-size="16" >H</text>
<text x="174.805881" y="159.150730" fill="rgb(255,12,12)"  stroke="rgb(255,12,12)" stroke-width="1" font-size="16" >O</text>
<text x="104.402940" y="148.000000" fill="rgb(12,12,255)"  stroke="rgb(12,12,255)" stroke-width="1" font-size="16" >N</text>
<text x="69.761924" y="88.000000" fill="rgb(255,12,12)"  stroke="rgb(255,12,12)" stroke-width="1" font-size="16" >O</text>
<text x="139.043957" y="88.000000" fill="rgb(255,12,12)"  stroke="rgb(255,12,12)" stroke-width="1" font-size="16" >O</text>
<text x="141.043957" y="48.000000" fill="rgb(102,102,102)"  stroke="rgb(102,102,102)" stroke-width="1" font-size="16" >CH</text>
<text x="165.043957" y="51.680000" fill="rgb(102,102,102)"  stroke="rgb(102,102,102)" stroke-width="1" font-size="13" >3</text>
<text x="34.000000" y="259.956611" fill="rgb(255,12,12)"  stroke="rgb(255,12,12)" stroke-width="1" font-size="16" >O</text>
<text x="104.402940" y="271.107341" fill="rgb(12,12,255)"  stroke="rgb(12,12,255)" stroke-width="1" font-size="16" >N</text>
<text x="139.043957" y="331.107341" fill="rgb(255,12,12)"  stroke="rgb(255,12,12)" stroke-width="1" font-size="16" >O</text>
<text x="69.761924" y="331.107341" fill="rgb(255,12,12)"  stroke="rgb(255,12,12)" stroke-width="1" font-size="16" >O</text>
<text x="15.120908" y="311.107341" fill="rgb(102,102,102)"  stroke="rgb(102,102,102)" stroke-width="1" font-size="16" >H</text>
<text x="27.120908" y="314.787341" fill="rgb(102,102,102)"  stroke="rgb(102,102,102)" stroke-width="1" font-size="13" >3</text>
<text x="33.620908" y="311.107341" fill="rgb(102,102,102)"  stroke="rgb(102,102,102)" stroke-width="1" font-size="16" >C</text>
<text x="237.434075" y="347.985013" fill="rgb(12,12,255)"  stroke="rgb(12,12,255)" stroke-width="1" font-size="16" >N</text>
<text x="237.434075" y="417.267046" fill="rgb(255,12,12)"  stroke="rgb(255,12,12)" stroke-width="1" font-size="16" >O</text>
<text x="177.434075" y="382.626029" fill="rgb(255,12,12)"  stroke="rgb(255,12,12)" stroke-width="1" font-size="16" >O</text>
<text x="137.434075" y="347.985013" fill="rgb(102,102,102)"  stroke="rgb(102,102,102)" stroke-width="1" font-size="16" >H</text>
<text x="149.434075" y="351.665013" fill="rgb(102,102,102)"  stroke="rgb(102,102,102)" stroke-width="1" font-size="13" >3</text>
<text x="155.934075" y="347.985013" fill="rgb(102,102,102)"  stroke="rgb(102,102,102)" stroke-width="1" font-size="16" >C</text>
<text x="374.708797" y="384.973643" fill="rgb(191,191,191)"  stroke="rgb(191,191,191)" stroke-width="1" font-size="16" >H</text>
</svg>
</g>
<text font-size="18.000000" fill ="black" font-family="sans-serif"
x="10.000000" y="20.000000" ></text>
</svg>
