<?xml version="1.0"?>
<svg version="1.1" id="topsvg"
xmlns="http://www.w3.org/2000/svg" xmlns:xlink="http://www.w3.org/1999/xlink"
xmlns:cml="http://www.xml-cml.org/schema" x="0" y="0" width="200px" height="200px" viewBox="0 0 100 100">
<title> - Open Babel Depiction</title>
<rect x="0" y="0" width="100" height="100" fill="white"/>
<g transform="translate(0,0)">
<svg width="100" height="100" x="0" y="0" viewBox="0 0 433.728 517.415"
font-family="sans-serif" stroke="rgb(0,0,0)" stroke-width="2"  stroke-linecap="round">
<line x1="164.6" y1="210.5" x2="143.8" y2="246.6" stroke="rgb(0,0,0)"  stroke-width="2.0"/>
<line x1="102.4" y1="250.9" x2="74.5" y2="220.0" stroke="rgb(0,0,0)"  stroke-width="2.0"/>
<line x1="74.5" y1="220.0" x2="55.3" y2="198.7" stroke="rgb(0,0,0)"  stroke-width="2.0"/>
<line x1="71.4" y1="222.8" x2="52.2" y2="201.5" stroke="rgb(0,0,0)"  stroke-width="2.0"/>
<line x1="77.6" y1="217.2" x2="58.5" y2="195.9" stroke="rgb(0,0,0)"  stroke-width="2.0"/>
<line x1="93.7" y1="291.7" x2="67.6" y2="303.3" stroke="rgb(0,0,0)"  stroke-width="2.0"/>
<line x1="129.8" y1="312.5" x2="134.2" y2="353.9" stroke="rgb(0,0,0)"  stroke-width="2.0"/>
<line x1="120.1" y1="419.9" x2="105.8" y2="444.7" stroke="rgb(0,0,0)"  stroke-width="2.0"/>
<line x1="161.6" y1="415.5" x2="189.4" y2="446.5" stroke="rgb(0,0,0)"  stroke-width="2.0"/>
<line x1="189.4" y1="446.5" x2="208.6" y2="467.8" stroke="rgb(0,0,0)"  stroke-width="2.0"/>
<line x1="192.6" y1="443.7" x2="211.7" y2="464.9" stroke="rgb(0,0,0)"  stroke-width="2.0"/>
<line x1="186.3" y1="449.3" x2="205.5" y2="470.6" stroke="rgb(0,0,0)"  stroke-width="2.0"/>
<line x1="170.2" y1="374.8" x2="196.4" y2="363.1" stroke="rgb(0,0,0)"  stroke-width="2.0"/>
<line x1="271.4" y1="173.0" x2="285.7" y2="197.8" stroke="rgb(0,0,0)"  stroke-width="2.0"/>
<line x1="266.2" y1="176.0" x2="280.5" y2="200.8" stroke="rgb(0,0,0)"  stroke-width="2.0"/>
<line x1="302.6" y1="138.4" x2="331.2" y2="138.4" stroke="rgb(0,0,0)"  stroke-width="2.0"/>
<line x1="328.7" y1="136.9" x2="343.0" y2="112.1" stroke="rgb(0,0,0)"  stroke-width="2.0"/>
<line x1="333.8" y1="139.9" x2="348.2" y2="115.1" stroke="rgb(0,0,0)"  stroke-width="2.0"/>
<line x1="331.2" y1="138.4" x2="345.6" y2="163.2" stroke="rgb(0,0,0)"  stroke-width="2.0"/>
<line x1="365.1" y1="174.5" x2="380.7" y2="174.5" stroke="rgb(0,0,0)"  stroke-width="2.0"/>
<line x1="266.2" y1="100.8" x2="280.5" y2="76.0" stroke="rgb(0,0,0)"  stroke-width="2.0"/>
<line x1="271.4" y1="103.8" x2="285.7" y2="79.0" stroke="rgb(0,0,0)"  stroke-width="2.0"/>
<line x1="205.3" y1="78.8" x2="215.7" y2="52.1" stroke="rgb(0,0,0)"  stroke-width="2.0"/>
<line x1="122.5" y1="110.8" x2="108.6" y2="85.7" stroke="rgb(0,0,0)"  stroke-width="2.0"/>
<line x1="127.7" y1="107.9" x2="113.9" y2="82.8" stroke="rgb(0,0,0)"  stroke-width="2.0"/>
<line x1="94.8" y1="131.8" x2="66.6" y2="127.0" stroke="rgb(0,0,0)"  stroke-width="2.0"/>
<line x1="68.9" y1="128.9" x2="50.6" y2="150.9" stroke="rgb(0,0,0)"  stroke-width="2.0"/>
<line x1="64.3" y1="125.0" x2="46.0" y2="147.1" stroke="rgb(0,0,0)"  stroke-width="2.0"/>
<line x1="66.6" y1="127.0" x2="56.6" y2="100.1" stroke="rgb(0,0,0)"  stroke-width="2.0"/>
<line x1="60.4" y1="77.9" x2="70.4" y2="65.9" stroke="rgb(0,0,0)"  stroke-width="2.0"/>
<line x1="118.0" y1="165.1" x2="96.6" y2="184.2" stroke="rgb(0,0,0)"  stroke-width="2.0"/>
<line x1="114.0" y1="160.7" x2="92.6" y2="179.8" stroke="rgb(0,0,0)"  stroke-width="2.0"/>
<line x1="93.7" y1="291.7" x2="129.8" y2="312.5" stroke="rgb(0,0,0)"  stroke-width="2.0"/>
<line x1="102.5" y1="288.5" x2="128.2" y2="303.3" stroke="rgb(0,0,0)"  stroke-width="2.0"/>
<line x1="129.8" y1="312.5" x2="151.1" y2="293.3" stroke="rgb(0,0,0)"  stroke-width="2.0"/>
<line x1="155.5" y1="272.8" x2="143.8" y2="246.6" stroke="rgb(0,0,0)"  stroke-width="2.0"/>
<line x1="143.8" y1="246.6" x2="102.4" y2="250.9" stroke="rgb(0,0,0)"  stroke-width="2.0"/>
<line x1="138.6" y1="254.4" x2="109.1" y2="257.5" stroke="rgb(0,0,0)"  stroke-width="2.0"/>
<line x1="102.4" y1="250.9" x2="93.7" y2="291.7" stroke="rgb(0,0,0)"  stroke-width="2.0"/>
<line x1="120.1" y1="419.9" x2="161.6" y2="415.5" stroke="rgb(0,0,0)"  stroke-width="2.0"/>
<line x1="125.4" y1="412.1" x2="154.8" y2="409.0" stroke="rgb(0,0,0)"  stroke-width="2.0"/>
<line x1="161.6" y1="415.5" x2="170.2" y2="374.8" stroke="rgb(0,0,0)"  stroke-width="2.0"/>
<line x1="170.2" y1="374.8" x2="134.2" y2="353.9" stroke="rgb(0,0,0)"  stroke-width="2.0"/>
<line x1="161.4" y1="378.0" x2="135.8" y2="363.2" stroke="rgb(0,0,0)"  stroke-width="2.0"/>
<line x1="134.2" y1="353.9" x2="112.9" y2="373.1" stroke="rgb(0,0,0)"  stroke-width="2.0"/>
<line x1="108.5" y1="393.7" x2="120.1" y2="419.9" stroke="rgb(0,0,0)"  stroke-width="2.0"/>
<line x1="227.1" y1="174.5" x2="206.3" y2="138.4" stroke="rgb(0,0,0)"  stroke-width="2.0"/>
<line x1="217.9" y1="172.9" x2="203.1" y2="147.2" stroke="rgb(0,0,0)"  stroke-width="2.0"/>
<line x1="206.3" y1="138.4" x2="164.6" y2="138.4" stroke="rgb(0,0,0)"  stroke-width="2.0"/>
<line x1="164.6" y1="138.4" x2="143.8" y2="174.5" stroke="rgb(0,0,0)"  stroke-width="2.0"/>
<line x1="167.9" y1="147.2" x2="153.1" y2="172.9" stroke="rgb(0,0,0)"  stroke-width="2.0"/>
<line x1="143.8" y1="174.5" x2="164.6" y2="210.5" stroke="rgb(0,0,0)"  stroke-width="2.0"/>
<line x1="164.6" y1="210.5" x2="206.3" y2="210.5" stroke="rgb(0,0,0)"  stroke-width="2.0"/>
<line x1="170.6" y1="203.3" x2="200.3" y2="203.3" stroke="rgb(0,0,0)"  stroke-width="2.0"/>
<line x1="206.3" y1="210.5" x2="227.1" y2="174.5" stroke="rgb(0,0,0)"  stroke-width="2.0"/>
<line x1="268.8" y1="102.3" x2="227.1" y2="102.3" stroke="rgb(0,0,0)"  stroke-width="2.0"/>
<line x1="227.1" y1="102.3" x2="206.3" y2="138.4" stroke="rgb(0,0,0)"  stroke-width="2.0"/>
<line x1="227.1" y1="174.5" x2="268.8" y2="174.5" stroke="rgb(0,0,0)"  stroke-width="2.0"/>
<line x1="268.8" y1="174.5" x2="283.1" y2="149.6" stroke="rgb(0,0,0)"  stroke-width="2.0"/>
<line x1="283.1" y1="127.1" x2="268.8" y2="102.3" stroke="rgb(0,0,0)"  stroke-width="2.0"/>
<line x1="173.3" y1="81.2" x2="155.2" y2="107.7" stroke="rgb(0,0,0)"  stroke-width="2.0"/>
<line x1="175.8" y1="90.2" x2="164.5" y2="106.8" stroke="rgb(0,0,0)"  stroke-width="2.0"/>
<line x1="155.2" y1="107.7" x2="164.6" y2="138.4" stroke="rgb(0,0,0)"  stroke-width="2.0"/>
<line x1="227.1" y1="102.3" x2="205.3" y2="78.8" stroke="rgb(0,0,0)"  stroke-width="2.0"/>
<line x1="217.8" y1="102.8" x2="204.1" y2="88.1" stroke="rgb(0,0,0)"  stroke-width="2.0"/>
<line x1="205.3" y1="78.8" x2="173.3" y2="81.2" stroke="rgb(0,0,0)"  stroke-width="2.0"/>
<line x1="111.2" y1="146.4" x2="116.0" y2="162.9" stroke="rgb(0,0,0)"  stroke-width="2.0"/>
<line x1="116.0" y1="162.9" x2="143.8" y2="174.5" stroke="rgb(0,0,0)"  stroke-width="2.0"/>
<line x1="155.2" y1="107.7" x2="125.1" y2="109.4" stroke="rgb(0,0,0)"  stroke-width="2.0"/>
<line x1="125.1" y1="109.4" x2="115.2" y2="123.4" stroke="rgb(0,0,0)"  stroke-width="2.0"/>
<text x="98.953643" y="80.919683" fill="rgb(255,12,12)"  stroke="rgb(255,12,12)" stroke-width="1" font-size="16" >O</text>
<text x="346.075747" y="110.308648" fill="rgb(255,12,12)"  stroke="rgb(255,12,12)" stroke-width="1" font-size="16" >O</text>
<text x="346.075747" y="182.451943" fill="rgb(255,12,12)"  stroke="rgb(255,12,12)" stroke-width="1" font-size="16" >O</text>
<text x="389.727698" y="182.451943" fill="rgb(102,102,102)"  stroke="rgb(102,102,102)" stroke-width="1" font-size="16" >CH</text>
<text x="413.727698" y="186.131943" fill="rgb(102,102,102)"  stroke="rgb(102,102,102)" stroke-width="1" font-size="13" >3</text>
<text x="283.597821" y="74.237000" fill="rgb(255,12,12)"  stroke="rgb(255,12,12)" stroke-width="1" font-size="16" >O</text>
<text x="214.498900" y="48.000000" fill="rgb(191,191,191)"  stroke="rgb(191,191,191)" stroke-width="1" font-size="16" >H</text>
<text x="101.644967" y="141.951975" fill="rgb(12,12,255)"  stroke="rgb(12,12,255)" stroke-width="1" font-size="16" >N</text>
<text x="34.000000" y="167.028130" fill="rgb(255,12,12)"  stroke="rgb(255,12,12)" stroke-width="1" font-size="16" >O</text>
<text x="46.105896" y="95.907793" fill="rgb(255,12,12)"  stroke="rgb(255,12,12)" stroke-width="1" font-size="16" >O</text>
<text x="74.689517" y="63.842296" fill="rgb(102,102,102)"  stroke="rgb(102,102,102)" stroke-width="1" font-size="16" >CH</text>
<text x="98.689517" y="67.522296" fill="rgb(102,102,102)"  stroke="rgb(102,102,102)" stroke-width="1" font-size="13" >3</text>
<text x="78.912783" y="198.656752" fill="rgb(255,12,12)"  stroke="rgb(255,12,12)" stroke-width="1" font-size="16" >O</text>
<text x="93.319717" y="463.933755" fill="rgb(191,191,191)"  stroke="rgb(191,191,191)" stroke-width="1" font-size="16" >H</text>
<text x="40.651025" y="197.042189" fill="rgb(12,12,255)"  stroke="rgb(12,12,255)" stroke-width="1" font-size="16" >N</text>
<text x="37.681337" y="316.632184" fill="rgb(30,239,30)"  stroke="rgb(30,239,30)" stroke-width="1" font-size="16" >Cl</text>
<text x="154.757367" y="292.646189" fill="rgb(178,178,0)"  stroke="rgb(178,178,0)" stroke-width="1" font-size="16" >S</text>
<text x="97.204318" y="389.811157" fill="rgb(178,178,0)"  stroke="rgb(178,178,0)" stroke-width="1" font-size="16" >S</text>
<text x="211.310660" y="485.415157" fill="rgb(12,12,255)"  stroke="rgb(12,12,255)" stroke-width="1" font-size="16" >N</text>
<text x="202.280348" y="365.825162" fill="rgb(30,239,30)"  stroke="rgb(30,239,30)" stroke-width="1" font-size="16" >Cl</text>
<text x="283.597821" y="218.523591" fill="rgb(255,12,12)"  stroke="rgb(255,12,12)" stroke-width="1" font-size="16" >O</text>
<text x="283.597821" y="146.380296" fill="rgb(12,12,255)"  stroke="rgb(12,12,255)" stroke-width="1" font-size="16" >N</text>
</svg>
</g>
<text font-size="18.000000" fill ="black" font-family="sans-serif"
x="10.000000" y="20.000000" ></text>
</svg>
