<?xml version="1.0"?>
<svg version="1.1" id="topsvg"
xmlns="http://www.w3.org/2000/svg" xmlns:xlink="http://www.w3.org/1999/xlink"
xmlns:cml="http://www.xml-cml.org/schema" x="0" y="0" width="200px" height="200px" viewBox="0 0 100 100">
<title> - Open Babel Depiction</title>
<rect x="0" y="0" width="100" height="100" fill="white"/>
<g transform="translate(0,0)">
<svg width="100" height="100" x="0" y="0" viewBox="0 0 511.222 300.305"
font-family="sans-serif" stroke="rgb(0,0,0)" stroke-width="2"  stroke-linecap="round">
<line x1="220.2" y1="102.1" x2="259.3" y2="110.4" stroke="rgb(0,0,0)"  stroke-width="2.0"/>
<line x1="325.5" y1="203.3" x2="319.9" y2="216.1" stroke="rgb(0,0,0)"  stroke-width="2.0"/>
<line x1="322.2" y1="238.5" x2="330.4" y2="249.8" stroke="rgb(0,0,0)"  stroke-width="2.0"/>
<line x1="438.9" y1="190.3" x2="460.7" y2="206.2" stroke="rgb(0,0,0)"  stroke-width="2.0"/>
<line x1="192.0" y1="166.3" x2="215.4" y2="179.8" stroke="rgb(0,0,0)"  stroke-width="2.0"/>
<line x1="189.0" y1="171.4" x2="212.4" y2="184.9" stroke="rgb(0,0,0)"  stroke-width="2.0"/>
<line x1="147.5" y1="228.0" x2="165.6" y2="248.0" stroke="rgb(0,0,0)"  stroke-width="2.0"/>
<line x1="187.0" y1="255.0" x2="200.7" y2="252.1" stroke="rgb(0,0,0)"  stroke-width="2.0"/>
<line x1="91.5" y1="195.6" x2="65.1" y2="190.0" stroke="rgb(0,0,0)"  stroke-width="2.0"/>
<line x1="48.3" y1="174.9" x2="44.0" y2="161.6" stroke="rgb(0,0,0)"  stroke-width="2.0"/>
<line x1="119.7" y1="131.4" x2="96.3" y2="117.9" stroke="rgb(0,0,0)"  stroke-width="2.0"/>
<line x1="122.7" y1="126.3" x2="99.3" y2="112.8" stroke="rgb(0,0,0)"  stroke-width="2.0"/>
<line x1="164.2" y1="69.7" x2="146.1" y2="49.7" stroke="rgb(0,0,0)"  stroke-width="2.0"/>
<line x1="370.0" y1="183.1" x2="374.1" y2="143.3" stroke="rgb(0,0,0)"  stroke-width="2.0"/>
<line x1="374.1" y1="143.3" x2="337.6" y2="127.0" stroke="rgb(0,0,0)"  stroke-width="2.0"/>
<line x1="337.6" y1="127.0" x2="310.8" y2="156.8" stroke="rgb(0,0,0)"  stroke-width="2.0"/>
<line x1="338.9" y1="136.3" x2="320.2" y2="157.1" stroke="rgb(0,0,0)"  stroke-width="2.0"/>
<line x1="310.8" y1="156.8" x2="324.3" y2="180.1" stroke="rgb(0,0,0)"  stroke-width="2.0"/>
<line x1="343.5" y1="188.7" x2="370.0" y2="183.1" stroke="rgb(0,0,0)"  stroke-width="2.0"/>
<line x1="102.5" y1="220.3" x2="91.5" y2="195.6" stroke="rgb(0,0,0)"  stroke-width="2.0"/>
<line x1="91.5" y1="195.6" x2="121.2" y2="168.9" stroke="rgb(0,0,0)"  stroke-width="2.0"/>
<line x1="100.8" y1="197.0" x2="121.6" y2="178.2" stroke="rgb(0,0,0)"  stroke-width="2.0"/>
<line x1="121.2" y1="168.9" x2="155.9" y2="188.9" stroke="rgb(0,0,0)"  stroke-width="2.0"/>
<line x1="155.9" y1="188.9" x2="147.5" y2="228.0" stroke="rgb(0,0,0)"  stroke-width="2.0"/>
<line x1="147.6" y1="193.2" x2="141.7" y2="220.6" stroke="rgb(0,0,0)"  stroke-width="2.0"/>
<line x1="147.5" y1="228.0" x2="120.7" y2="230.8" stroke="rgb(0,0,0)"  stroke-width="2.0"/>
<line x1="155.9" y1="108.9" x2="164.2" y2="69.7" stroke="rgb(0,0,0)"  stroke-width="2.0"/>
<line x1="164.1" y1="104.5" x2="170.0" y2="77.1" stroke="rgb(0,0,0)"  stroke-width="2.0"/>
<line x1="164.2" y1="69.7" x2="191.0" y2="66.9" stroke="rgb(0,0,0)"  stroke-width="2.0"/>
<line x1="209.2" y1="77.4" x2="220.2" y2="102.1" stroke="rgb(0,0,0)"  stroke-width="2.0"/>
<line x1="220.2" y1="102.1" x2="190.5" y2="128.9" stroke="rgb(0,0,0)"  stroke-width="2.0"/>
<line x1="210.9" y1="100.8" x2="190.1" y2="119.5" stroke="rgb(0,0,0)"  stroke-width="2.0"/>
<line x1="190.5" y1="128.9" x2="155.9" y2="108.9" stroke="rgb(0,0,0)"  stroke-width="2.0"/>
<line x1="337.6" y1="127.0" x2="325.2" y2="89.0" stroke="rgb(0,0,0)"  stroke-width="2.0"/>
<line x1="325.2" y1="89.0" x2="286.1" y2="80.7" stroke="rgb(0,0,0)"  stroke-width="2.0"/>
<line x1="317.9" y1="94.8" x2="290.5" y2="89.0" stroke="rgb(0,0,0)"  stroke-width="2.0"/>
<line x1="286.1" y1="80.7" x2="259.3" y2="110.4" stroke="rgb(0,0,0)"  stroke-width="2.0"/>
<line x1="259.3" y1="110.4" x2="271.7" y2="148.4" stroke="rgb(0,0,0)"  stroke-width="2.0"/>
<line x1="268.0" y1="113.9" x2="276.7" y2="140.5" stroke="rgb(0,0,0)"  stroke-width="2.0"/>
<line x1="271.7" y1="148.4" x2="310.8" y2="156.8" stroke="rgb(0,0,0)"  stroke-width="2.0"/>
<line x1="402.3" y1="206.6" x2="370.0" y2="183.1" stroke="rgb(0,0,0)"  stroke-width="2.0"/>
<line x1="401.7" y1="197.2" x2="379.0" y2="180.8" stroke="rgb(0,0,0)"  stroke-width="2.0"/>
<line x1="374.1" y1="143.3" x2="410.7" y2="127.0" stroke="rgb(0,0,0)"  stroke-width="2.0"/>
<line x1="382.5" y1="147.4" x2="408.1" y2="136.1" stroke="rgb(0,0,0)"  stroke-width="2.0"/>
<line x1="410.7" y1="127.0" x2="443.0" y2="150.5" stroke="rgb(0,0,0)"  stroke-width="2.0"/>
<line x1="443.0" y1="150.5" x2="438.9" y2="190.3" stroke="rgb(0,0,0)"  stroke-width="2.0"/>
<line x1="435.3" y1="155.8" x2="432.3" y2="183.6" stroke="rgb(0,0,0)"  stroke-width="2.0"/>
<line x1="438.9" y1="190.3" x2="402.3" y2="206.6" stroke="rgb(0,0,0)"  stroke-width="2.0"/>
<line x1="190.5" y1="168.9" x2="155.9" y2="188.9" stroke="rgb(0,0,0)"  stroke-width="2.0"/>
<line x1="121.2" y1="168.9" x2="121.2" y2="128.9" stroke="rgb(0,0,0)"  stroke-width="2.0"/>
<line x1="121.2" y1="128.9" x2="155.9" y2="108.9" stroke="rgb(0,0,0)"  stroke-width="2.0"/>
<line x1="190.5" y1="128.9" x2="190.5" y2="168.9" stroke="rgb(0,0,0)"  stroke-width="2.0"/>
<text x="46.360680" y="195.300454" fill="rgb(255,12,12)"  stroke="rgb(255,12,12)" stroke-width="1" font-size="16" >O</text>
<text x="219.135425" y="196.851697" fill="rgb(255,12,12)"  stroke="rgb(255,12,12)" stroke-width="1" font-size="16" >O</text>
<text x="168.302150" y="265.703394" fill="rgb(255,12,12)"  stroke="rgb(255,12,12)" stroke-width="1" font-size="16" >O</text>
<text x="209.428054" y="257.386926" fill="rgb(102,102,102)"  stroke="rgb(102,102,102)" stroke-width="1" font-size="16" >CH</text>
<text x="233.428054" y="261.066926" fill="rgb(102,102,102)"  stroke="rgb(102,102,102)" stroke-width="1" font-size="13" >3</text>
<text x="101.756050" y="240.158740" fill="rgb(178,178,0)"  stroke="rgb(178,178,0)" stroke-width="1" font-size="16" >S</text>
<text x="14.000000" y="157.258193" fill="rgb(102,102,102)"  stroke="rgb(102,102,102)" stroke-width="1" font-size="16" >H</text>
<text x="26.000000" y="160.938193" fill="rgb(102,102,102)"  stroke="rgb(102,102,102)" stroke-width="1" font-size="13" >3</text>
<text x="32.500000" y="157.258193" fill="rgb(102,102,102)"  stroke="rgb(102,102,102)" stroke-width="1" font-size="16" >C</text>
<text x="80.571361" y="116.851697" fill="rgb(255,12,12)"  stroke="rgb(255,12,12)" stroke-width="1" font-size="16" >O</text>
<text x="131.404636" y="48.000000" fill="rgb(191,191,191)"  stroke="rgb(191,191,191)" stroke-width="1" font-size="16" >H</text>
<text x="197.950736" y="73.544654" fill="rgb(178,178,0)"  stroke="rgb(178,178,0)" stroke-width="1" font-size="16" >S</text>
<text x="324.832690" y="199.402685" fill="rgb(12,12,255)"  stroke="rgb(12,12,255)" stroke-width="1" font-size="16" >N</text>
<text x="308.563224" y="235.944503" fill="rgb(255,12,12)"  stroke="rgb(255,12,12)" stroke-width="1" font-size="16" >O</text>
<text x="334.074634" y="268.305183" fill="rgb(102,102,102)"  stroke="rgb(102,102,102)" stroke-width="1" font-size="16" >CH</text>
<text x="358.074634" y="271.985183" fill="rgb(102,102,102)"  stroke="rgb(102,102,102)" stroke-width="1" font-size="13" >3</text>
<text x="465.221772" y="221.839572" fill="rgb(191,191,191)"  stroke="rgb(191,191,191)" stroke-width="1" font-size="16" >H</text>
</svg>
</g>
<text font-size="18.000000" fill ="black" font-family="sans-serif"
x="10.000000" y="20.000000" ></text>
</svg>
