<?xml version="1.0"?>
<svg version="1.1" id="topsvg"
xmlns="http://www.w3.org/2000/svg" xmlns:xlink="http://www.w3.org/1999/xlink"
xmlns:cml="http://www.xml-cml.org/schema" x="0" y="0" width="200px" height="200px" viewBox="0 0 100 100">
<title> - Open Babel Depiction</title>
<rect x="0" y="0" width="100" height="100" fill="white"/>
<g transform="translate(0,0)">
<svg width="100" height="100" x="0" y="0" viewBox="0 0 415.625 497.401"
font-family="sans-serif" stroke="rgb(0,0,0)" stroke-width="2"  stroke-linecap="round">
<line x1="187.5" y1="211.1" x2="166.6" y2="247.3" stroke="rgb(0,0,0)"  stroke-width="2.0"/>
<line x1="125.1" y1="251.7" x2="105.8" y2="230.3" stroke="rgb(0,0,0)"  stroke-width="2.0"/>
<line x1="116.4" y1="292.6" x2="78.2" y2="309.6" stroke="rgb(0,0,0)"  stroke-width="2.0"/>
<line x1="78.2" y1="309.6" x2="51.9" y2="321.3" stroke="rgb(0,0,0)"  stroke-width="2.0"/>
<line x1="79.9" y1="313.4" x2="53.6" y2="325.1" stroke="rgb(0,0,0)"  stroke-width="2.0"/>
<line x1="76.5" y1="305.7" x2="50.2" y2="317.5" stroke="rgb(0,0,0)"  stroke-width="2.0"/>
<line x1="152.6" y1="313.5" x2="156.9" y2="355.0" stroke="rgb(0,0,0)"  stroke-width="2.0"/>
<line x1="142.9" y1="421.2" x2="128.5" y2="446.1" stroke="rgb(0,0,0)"  stroke-width="2.0"/>
<line x1="184.4" y1="416.8" x2="203.7" y2="438.2" stroke="rgb(0,0,0)"  stroke-width="2.0"/>
<line x1="193.1" y1="375.9" x2="231.3" y2="358.9" stroke="rgb(0,0,0)"  stroke-width="2.0"/>
<line x1="231.3" y1="358.9" x2="257.6" y2="347.2" stroke="rgb(0,0,0)"  stroke-width="2.0"/>
<line x1="229.6" y1="355.1" x2="255.9" y2="343.4" stroke="rgb(0,0,0)"  stroke-width="2.0"/>
<line x1="233.0" y1="362.8" x2="259.3" y2="351.1" stroke="rgb(0,0,0)"  stroke-width="2.0"/>
<line x1="294.6" y1="173.4" x2="309.0" y2="198.4" stroke="rgb(0,0,0)"  stroke-width="2.0"/>
<line x1="289.4" y1="176.4" x2="303.8" y2="201.4" stroke="rgb(0,0,0)"  stroke-width="2.0"/>
<line x1="325.9" y1="138.7" x2="341.7" y2="138.7" stroke="rgb(0,0,0)"  stroke-width="2.0"/>
<line x1="361.2" y1="127.5" x2="369.1" y2="113.8" stroke="rgb(0,0,0)"  stroke-width="2.0"/>
<line x1="289.4" y1="101.0" x2="303.8" y2="76.1" stroke="rgb(0,0,0)"  stroke-width="2.0"/>
<line x1="294.6" y1="104.0" x2="309.0" y2="79.1" stroke="rgb(0,0,0)"  stroke-width="2.0"/>
<line x1="228.3" y1="78.9" x2="238.8" y2="52.1" stroke="rgb(0,0,0)"  stroke-width="2.0"/>
<line x1="145.2" y1="111.1" x2="131.3" y2="85.9" stroke="rgb(0,0,0)"  stroke-width="2.0"/>
<line x1="150.5" y1="108.2" x2="136.5" y2="83.0" stroke="rgb(0,0,0)"  stroke-width="2.0"/>
<line x1="117.5" y1="132.1" x2="101.9" y2="129.5" stroke="rgb(0,0,0)"  stroke-width="2.0"/>
<line x1="84.6" y1="115.1" x2="79.1" y2="100.3" stroke="rgb(0,0,0)"  stroke-width="2.0"/>
<line x1="140.7" y1="165.6" x2="119.2" y2="184.8" stroke="rgb(0,0,0)"  stroke-width="2.0"/>
<line x1="136.7" y1="161.1" x2="115.2" y2="180.3" stroke="rgb(0,0,0)"  stroke-width="2.0"/>
<line x1="116.4" y1="292.6" x2="152.6" y2="313.5" stroke="rgb(0,0,0)"  stroke-width="2.0"/>
<line x1="125.2" y1="289.3" x2="151.0" y2="304.2" stroke="rgb(0,0,0)"  stroke-width="2.0"/>
<line x1="152.6" y1="313.5" x2="174.0" y2="294.2" stroke="rgb(0,0,0)"  stroke-width="2.0"/>
<line x1="178.3" y1="273.6" x2="166.6" y2="247.3" stroke="rgb(0,0,0)"  stroke-width="2.0"/>
<line x1="166.6" y1="247.3" x2="125.1" y2="251.7" stroke="rgb(0,0,0)"  stroke-width="2.0"/>
<line x1="161.4" y1="255.1" x2="131.8" y2="258.2" stroke="rgb(0,0,0)"  stroke-width="2.0"/>
<line x1="125.1" y1="251.7" x2="116.4" y2="292.6" stroke="rgb(0,0,0)"  stroke-width="2.0"/>
<line x1="142.9" y1="421.2" x2="184.4" y2="416.8" stroke="rgb(0,0,0)"  stroke-width="2.0"/>
<line x1="148.1" y1="413.4" x2="177.7" y2="410.3" stroke="rgb(0,0,0)"  stroke-width="2.0"/>
<line x1="184.4" y1="416.8" x2="193.1" y2="375.9" stroke="rgb(0,0,0)"  stroke-width="2.0"/>
<line x1="193.1" y1="375.9" x2="156.9" y2="355.0" stroke="rgb(0,0,0)"  stroke-width="2.0"/>
<line x1="184.3" y1="379.2" x2="158.5" y2="364.3" stroke="rgb(0,0,0)"  stroke-width="2.0"/>
<line x1="156.9" y1="355.0" x2="135.5" y2="374.3" stroke="rgb(0,0,0)"  stroke-width="2.0"/>
<line x1="131.2" y1="394.9" x2="142.9" y2="421.2" stroke="rgb(0,0,0)"  stroke-width="2.0"/>
<line x1="250.2" y1="174.9" x2="229.3" y2="138.7" stroke="rgb(0,0,0)"  stroke-width="2.0"/>
<line x1="241.0" y1="173.3" x2="226.1" y2="147.5" stroke="rgb(0,0,0)"  stroke-width="2.0"/>
<line x1="229.3" y1="138.7" x2="187.5" y2="138.7" stroke="rgb(0,0,0)"  stroke-width="2.0"/>
<line x1="187.5" y1="138.7" x2="166.6" y2="174.9" stroke="rgb(0,0,0)"  stroke-width="2.0"/>
<line x1="190.8" y1="147.5" x2="175.9" y2="173.3" stroke="rgb(0,0,0)"  stroke-width="2.0"/>
<line x1="166.6" y1="174.9" x2="187.5" y2="211.1" stroke="rgb(0,0,0)"  stroke-width="2.0"/>
<line x1="187.5" y1="211.1" x2="229.3" y2="211.1" stroke="rgb(0,0,0)"  stroke-width="2.0"/>
<line x1="193.5" y1="203.9" x2="223.3" y2="203.9" stroke="rgb(0,0,0)"  stroke-width="2.0"/>
<line x1="229.3" y1="211.1" x2="250.2" y2="174.9" stroke="rgb(0,0,0)"  stroke-width="2.0"/>
<line x1="292.0" y1="102.5" x2="250.2" y2="102.5" stroke="rgb(0,0,0)"  stroke-width="2.0"/>
<line x1="250.2" y1="102.5" x2="229.3" y2="138.7" stroke="rgb(0,0,0)"  stroke-width="2.0"/>
<line x1="250.2" y1="174.9" x2="292.0" y2="174.9" stroke="rgb(0,0,0)"  stroke-width="2.0"/>
<line x1="292.0" y1="174.9" x2="306.4" y2="150.0" stroke="rgb(0,0,0)"  stroke-width="2.0"/>
<line x1="306.4" y1="127.5" x2="292.0" y2="102.5" stroke="rgb(0,0,0)"  stroke-width="2.0"/>
<line x1="196.2" y1="81.3" x2="178.0" y2="107.9" stroke="rgb(0,0,0)"  stroke-width="2.0"/>
<line x1="198.8" y1="90.3" x2="187.4" y2="107.0" stroke="rgb(0,0,0)"  stroke-width="2.0"/>
<line x1="178.0" y1="107.9" x2="187.5" y2="138.7" stroke="rgb(0,0,0)"  stroke-width="2.0"/>
<line x1="250.2" y1="102.5" x2="228.3" y2="78.9" stroke="rgb(0,0,0)"  stroke-width="2.0"/>
<line x1="240.9" y1="103.0" x2="227.1" y2="88.2" stroke="rgb(0,0,0)"  stroke-width="2.0"/>
<line x1="228.3" y1="78.9" x2="196.2" y2="81.3" stroke="rgb(0,0,0)"  stroke-width="2.0"/>
<line x1="133.9" y1="146.8" x2="138.7" y2="163.3" stroke="rgb(0,0,0)"  stroke-width="2.0"/>
<line x1="138.7" y1="163.3" x2="166.6" y2="174.9" stroke="rgb(0,0,0)"  stroke-width="2.0"/>
<line x1="178.0" y1="107.9" x2="147.8" y2="109.6" stroke="rgb(0,0,0)"  stroke-width="2.0"/>
<line x1="147.8" y1="109.6" x2="137.9" y2="123.7" stroke="rgb(0,0,0)"  stroke-width="2.0"/>
<text x="306.926714" y="146.727301" fill="rgb(12,12,255)"  stroke="rgb(12,12,255)" stroke-width="1" font-size="16" >N</text>
<text x="348.725579" y="146.727301" fill="rgb(255,12,12)"  stroke="rgb(255,12,12)" stroke-width="1" font-size="16" >O</text>
<text x="371.625012" y="110.528422" fill="rgb(102,102,102)"  stroke="rgb(102,102,102)" stroke-width="1" font-size="16" >CH</text>
<text x="395.625012" y="114.208422" fill="rgb(102,102,102)"  stroke="rgb(102,102,102)" stroke-width="1" font-size="13" >3</text>
<text x="306.926714" y="74.329543" fill="rgb(255,12,12)"  stroke="rgb(255,12,12)" stroke-width="1" font-size="16" >O</text>
<text x="237.584068" y="48.000000" fill="rgb(191,191,191)"  stroke="rgb(191,191,191)" stroke-width="1" font-size="16" >H</text>
<text x="306.926714" y="219.125059" fill="rgb(255,12,12)"  stroke="rgb(255,12,12)" stroke-width="1" font-size="16" >O</text>
<text x="121.631262" y="81.035797" fill="rgb(255,12,12)"  stroke="rgb(255,12,12)" stroke-width="1" font-size="16" >O</text>
<text x="124.332078" y="142.283361" fill="rgb(12,12,255)"  stroke="rgb(12,12,255)" stroke-width="1" font-size="16" >N</text>
<text x="83.125902" y="135.269366" fill="rgb(255,12,12)"  stroke="rgb(255,12,12)" stroke-width="1" font-size="16" >O</text>
<text x="48.597111" y="96.076773" fill="rgb(102,102,102)"  stroke="rgb(102,102,102)" stroke-width="1" font-size="16" >H</text>
<text x="60.597111" y="99.756773" fill="rgb(102,102,102)"  stroke="rgb(102,102,102)" stroke-width="1" font-size="13" >3</text>
<text x="67.097111" y="96.076773" fill="rgb(102,102,102)"  stroke="rgb(102,102,102)" stroke-width="1" font-size="16" >C</text>
<text x="101.519714" y="199.188147" fill="rgb(255,12,12)"  stroke="rgb(255,12,12)" stroke-width="1" font-size="16" >O</text>
<text x="79.091900" y="228.630499" fill="rgb(30,239,30)"  stroke="rgb(30,239,30)" stroke-width="1" font-size="16" >Cl</text>
<text x="34.000000" y="334.580830" fill="rgb(12,12,255)"  stroke="rgb(12,12,255)" stroke-width="1" font-size="16" >N</text>
<text x="177.631816" y="293.509102" fill="rgb(178,178,0)"  stroke="rgb(178,178,0)" stroke-width="1" font-size="16" >S</text>
<text x="119.875767" y="391.016789" fill="rgb(178,178,0)"  stroke="rgb(178,178,0)" stroke-width="1" font-size="16" >S</text>
<text x="115.977464" y="465.400831" fill="rgb(191,191,191)"  stroke="rgb(191,191,191)" stroke-width="1" font-size="16" >H</text>
<text x="206.415683" y="455.895391" fill="rgb(30,239,30)"  stroke="rgb(30,239,30)" stroke-width="1" font-size="16" >Cl</text>
<text x="263.507583" y="349.945061" fill="rgb(12,12,255)"  stroke="rgb(12,12,255)" stroke-width="1" font-size="16" >N</text>
</svg>
</g>
<text font-size="18.000000" fill ="black" font-family="sans-serif"
x="10.000000" y="20.000000" ></text>
</svg>
