<?xml version="1.0"?>
<svg version="1.1" id="topsvg"
xmlns="http://www.w3.org/2000/svg" xmlns:xlink="http://www.w3.org/1999/xlink"
xmlns:cml="http://www.xml-cml.org/schema" x="0" y="0" width="200px" height="200px" viewBox="0 0 100 100">
<title> - Open Babel Depiction</title>
<rect x="0" y="0" width="100" height="100" fill="white"/>
<g transform="translate(0,0)">
<svg width="100" height="100" x="0" y="0" viewBox="0 0 366.388 348.215"
font-family="sans-serif" stroke="rgb(0,0,0)" stroke-width="2"  stroke-linecap="round">
<line x1="145.3" y1="144.7" x2="126.7" y2="176.9" stroke="rgb(0,0,0)"  stroke-width="2.0"/>
<line x1="89.8" y1="180.8" x2="64.9" y2="153.2" stroke="rgb(0,0,0)"  stroke-width="2.0"/>
<line x1="64.9" y1="153.2" x2="48.7" y2="135.2" stroke="rgb(0,0,0)"  stroke-width="2.0"/>
<line x1="61.8" y1="156.0" x2="45.6" y2="138.0" stroke="rgb(0,0,0)"  stroke-width="2.0"/>
<line x1="68.0" y1="150.3" x2="51.8" y2="132.4" stroke="rgb(0,0,0)"  stroke-width="2.0"/>
<line x1="69.5" y1="276.0" x2="57.4" y2="297.0" stroke="rgb(0,0,0)"  stroke-width="2.0"/>
<line x1="106.5" y1="272.1" x2="189.9" y2="165.0" stroke="rgb(0,0,0)"  stroke-width="2.0"/>
<line x1="189.9" y1="165.0" x2="165.7" y2="165.0" stroke="rgb(0,0,0)"  stroke-width="2.0"/>
<line x1="189.9" y1="169.2" x2="165.7" y2="169.2" stroke="rgb(0,0,0)"  stroke-width="2.0"/>
<line x1="189.9" y1="160.8" x2="165.7" y2="160.8" stroke="rgb(0,0,0)"  stroke-width="2.0"/>
<line x1="217.5" y1="159.1" x2="220.0" y2="183.1" stroke="rgb(0,0,0)"  stroke-width="2.0"/>
<line x1="211.5" y1="159.7" x2="214.1" y2="183.8" stroke="rgb(0,0,0)"  stroke-width="2.0"/>
<line x1="254.9" y1="137.2" x2="278.5" y2="142.3" stroke="rgb(0,0,0)"  stroke-width="2.0"/>
<line x1="276.3" y1="140.2" x2="292.5" y2="122.3" stroke="rgb(0,0,0)"  stroke-width="2.0"/>
<line x1="280.8" y1="144.3" x2="296.9" y2="126.3" stroke="rgb(0,0,0)"  stroke-width="2.0"/>
<line x1="278.5" y1="142.3" x2="286.0" y2="165.3" stroke="rgb(0,0,0)"  stroke-width="2.0"/>
<line x1="302.7" y1="180.3" x2="313.7" y2="182.6" stroke="rgb(0,0,0)"  stroke-width="2.0"/>
<line x1="227.0" y1="100.6" x2="239.1" y2="79.6" stroke="rgb(0,0,0)"  stroke-width="2.0"/>
<line x1="154.9" y1="86.2" x2="152.3" y2="62.1" stroke="rgb(0,0,0)"  stroke-width="2.0"/>
<line x1="160.8" y1="85.5" x2="158.3" y2="61.5" stroke="rgb(0,0,0)"  stroke-width="2.0"/>
<line x1="117.5" y1="108.0" x2="93.8" y2="103.0" stroke="rgb(0,0,0)"  stroke-width="2.0"/>
<line x1="96.1" y1="105.0" x2="79.9" y2="123.0" stroke="rgb(0,0,0)"  stroke-width="2.0"/>
<line x1="91.6" y1="101.0" x2="75.4" y2="119.0" stroke="rgb(0,0,0)"  stroke-width="2.0"/>
<line x1="93.8" y1="103.0" x2="86.4" y2="80.0" stroke="rgb(0,0,0)"  stroke-width="2.0"/>
<line x1="91.0" y1="58.0" x2="98.5" y2="49.7" stroke="rgb(0,0,0)"  stroke-width="2.0"/>
<line x1="82.0" y1="217.2" x2="114.2" y2="235.8" stroke="rgb(0,0,0)"  stroke-width="2.0"/>
<line x1="90.8" y1="213.9" x2="112.6" y2="226.5" stroke="rgb(0,0,0)"  stroke-width="2.0"/>
<line x1="114.2" y1="235.8" x2="132.2" y2="219.6" stroke="rgb(0,0,0)"  stroke-width="2.0"/>
<line x1="136.6" y1="199.0" x2="126.7" y2="176.9" stroke="rgb(0,0,0)"  stroke-width="2.0"/>
<line x1="126.7" y1="176.9" x2="89.8" y2="180.8" stroke="rgb(0,0,0)"  stroke-width="2.0"/>
<line x1="121.5" y1="184.7" x2="96.5" y2="187.3" stroke="rgb(0,0,0)"  stroke-width="2.0"/>
<line x1="89.8" y1="180.8" x2="82.0" y2="217.2" stroke="rgb(0,0,0)"  stroke-width="2.0"/>
<line x1="69.5" y1="276.0" x2="106.5" y2="272.1" stroke="rgb(0,0,0)"  stroke-width="2.0"/>
<line x1="74.7" y1="268.2" x2="99.8" y2="265.6" stroke="rgb(0,0,0)"  stroke-width="2.0"/>
<line x1="106.5" y1="272.1" x2="114.2" y2="235.8" stroke="rgb(0,0,0)"  stroke-width="2.0"/>
<line x1="82.0" y1="217.2" x2="64.1" y2="233.3" stroke="rgb(0,0,0)"  stroke-width="2.0"/>
<line x1="59.7" y1="253.9" x2="69.5" y2="276.0" stroke="rgb(0,0,0)"  stroke-width="2.0"/>
<line x1="214.5" y1="159.4" x2="232.5" y2="143.2" stroke="rgb(0,0,0)"  stroke-width="2.0"/>
<line x1="236.9" y1="122.6" x2="227.0" y2="100.6" stroke="rgb(0,0,0)"  stroke-width="2.0"/>
<line x1="227.0" y1="100.6" x2="190.0" y2="104.4" stroke="rgb(0,0,0)"  stroke-width="2.0"/>
<line x1="221.8" y1="108.3" x2="196.8" y2="111.0" stroke="rgb(0,0,0)"  stroke-width="2.0"/>
<line x1="190.0" y1="104.4" x2="182.3" y2="140.8" stroke="rgb(0,0,0)"  stroke-width="2.0"/>
<line x1="182.3" y1="140.8" x2="214.5" y2="159.4" stroke="rgb(0,0,0)"  stroke-width="2.0"/>
<line x1="190.0" y1="104.4" x2="157.8" y2="85.8" stroke="rgb(0,0,0)"  stroke-width="2.0"/>
<line x1="157.8" y1="85.8" x2="139.9" y2="102.0" stroke="rgb(0,0,0)"  stroke-width="2.0"/>
<line x1="135.5" y1="122.6" x2="145.3" y2="144.7" stroke="rgb(0,0,0)"  stroke-width="2.0"/>
<line x1="145.3" y1="144.7" x2="182.3" y2="140.8" stroke="rgb(0,0,0)"  stroke-width="2.0"/>
<line x1="150.6" y1="136.9" x2="175.6" y2="134.3" stroke="rgb(0,0,0)"  stroke-width="2.0"/>
<text x="212.406783" y="204.385765" fill="rgb(255,12,12)"  stroke="rgb(255,12,12)" stroke-width="1" font-size="16" >O</text>
<text x="103.230341" y="48.000000" fill="rgb(102,102,102)"  stroke="rgb(102,102,102)" stroke-width="1" font-size="16" >CH</text>
<text x="127.230341" y="51.680000" fill="rgb(102,102,102)"  stroke="rgb(102,102,102)" stroke-width="1" font-size="13" >3</text>
<text x="76.348943" y="75.633593" fill="rgb(255,12,12)"  stroke="rgb(255,12,12)" stroke-width="1" font-size="16" >O</text>
<text x="62.958238" y="138.631905" fill="rgb(255,12,12)"  stroke="rgb(255,12,12)" stroke-width="1" font-size="16" >O</text>
<text x="124.211729" y="118.729439" fill="rgb(12,12,255)"  stroke="rgb(12,12,255)" stroke-width="1" font-size="16" >N</text>
<text x="147.958466" y="56.867075" fill="rgb(255,12,12)"  stroke="rgb(255,12,12)" stroke-width="1" font-size="16" >O</text>
<text x="239.621487" y="76.350652" fill="rgb(191,191,191)"  stroke="rgb(191,191,191)" stroke-width="1" font-size="16" >H</text>
<text x="322.388399" y="193.350375" fill="rgb(102,102,102)"  stroke="rgb(102,102,102)" stroke-width="1" font-size="16" >CH</text>
<text x="346.388399" y="197.030375" fill="rgb(102,102,102)"  stroke="rgb(102,102,102)" stroke-width="1" font-size="13" >3</text>
<text x="284.016306" y="185.619248" fill="rgb(255,12,12)"  stroke="rgb(255,12,12)" stroke-width="1" font-size="16" >O</text>
<text x="297.407011" y="122.620936" fill="rgb(255,12,12)"  stroke="rgb(255,12,12)" stroke-width="1" font-size="16" >O</text>
<text x="236.153520" y="142.523401" fill="rgb(12,12,255)"  stroke="rgb(12,12,255)" stroke-width="1" font-size="16" >N</text>
<text x="135.868129" y="218.872072" fill="rgb(178,178,0)"  stroke="rgb(178,178,0)" stroke-width="1" font-size="16" >S</text>
<text x="146.709049" y="173.044584" fill="rgb(12,12,255)"  stroke="rgb(12,12,255)" stroke-width="1" font-size="16" >N</text>
<text x="44.930111" y="316.215286" fill="rgb(191,191,191)"  stroke="rgb(191,191,191)" stroke-width="1" font-size="16" >H</text>
<text x="48.398078" y="250.042536" fill="rgb(178,178,0)"  stroke="rgb(178,178,0)" stroke-width="1" font-size="16" >S</text>
<text x="34.000000" y="133.521859" fill="rgb(12,12,255)"  stroke="rgb(12,12,255)" stroke-width="1" font-size="16" >N</text>
</svg>
</g>
<text font-size="18.000000" fill ="black" font-family="sans-serif"
x="10.000000" y="20.000000" ></text>
</svg>
