<?xml version="1.0"?>
<svg version="1.1" id="topsvg"
xmlns="http://www.w3.org/2000/svg" xmlns:xlink="http://www.w3.org/1999/xlink"
xmlns:cml="http://www.xml-cml.org/schema" x="0" y="0" width="200px" height="200px" viewBox="0 0 100 100">
<title> - Open Babel Depiction</title>
<rect x="0" y="0" width="100" height="100" fill="white"/>
<g transform="translate(0,0)">
<svg width="100" height="100" x="0" y="0" viewBox="0 0 411.887 266.052"
font-family="sans-serif" stroke="rgb(0,0,0)" stroke-width="2"  stroke-linecap="round">
<line x1="238.7" y1="154.1" x2="199.5" y2="145.8" stroke="rgb(0,0,0)"  stroke-width="2.0"/>
<line x1="183.3" y1="109.3" x2="203.3" y2="74.6" stroke="rgb(0,0,0)"  stroke-width="2.0"/>
<line x1="203.3" y1="74.6" x2="216.8" y2="51.3" stroke="rgb(0,0,0)"  stroke-width="2.0"/>
<line x1="199.6" y1="72.5" x2="213.1" y2="49.2" stroke="rgb(0,0,0)"  stroke-width="2.0"/>
<line x1="206.9" y1="76.7" x2="220.4" y2="53.4" stroke="rgb(0,0,0)"  stroke-width="2.0"/>
<line x1="79.1" y1="120.2" x2="52.7" y2="114.6" stroke="rgb(0,0,0)"  stroke-width="2.0"/>
<line x1="95.4" y1="156.8" x2="75.4" y2="191.4" stroke="rgb(0,0,0)"  stroke-width="2.0"/>
<line x1="75.4" y1="191.4" x2="61.9" y2="214.8" stroke="rgb(0,0,0)"  stroke-width="2.0"/>
<line x1="79.0" y1="193.5" x2="65.5" y2="216.9" stroke="rgb(0,0,0)"  stroke-width="2.0"/>
<line x1="71.8" y1="189.3" x2="58.3" y2="212.7" stroke="rgb(0,0,0)"  stroke-width="2.0"/>
<line x1="274.5" y1="90.3" x2="256.4" y2="70.2" stroke="rgb(0,0,0)"  stroke-width="2.0"/>
<line x1="278.9" y1="86.2" x2="260.9" y2="66.2" stroke="rgb(0,0,0)"  stroke-width="2.0"/>
<line x1="323.0" y1="72.8" x2="330.0" y2="60.7" stroke="rgb(0,0,0)"  stroke-width="2.0"/>
<line x1="333.4" y1="117.7" x2="359.8" y2="123.3" stroke="rgb(0,0,0)"  stroke-width="2.0"/>
<line x1="332.1" y1="123.5" x2="358.5" y2="129.2" stroke="rgb(0,0,0)"  stroke-width="2.0"/>
<line x1="294.7" y1="186.5" x2="312.8" y2="206.6" stroke="rgb(0,0,0)"  stroke-width="2.0"/>
<line x1="143.5" y1="113.5" x2="135.2" y2="152.6" stroke="rgb(0,0,0)"  stroke-width="2.0"/>
<line x1="149.3" y1="120.8" x2="143.5" y2="148.2" stroke="rgb(0,0,0)"  stroke-width="2.0"/>
<line x1="135.2" y1="152.6" x2="158.6" y2="166.1" stroke="rgb(0,0,0)"  stroke-width="2.0"/>
<line x1="179.5" y1="163.9" x2="199.5" y2="145.8" stroke="rgb(0,0,0)"  stroke-width="2.0"/>
<line x1="199.5" y1="145.8" x2="183.3" y2="109.3" stroke="rgb(0,0,0)"  stroke-width="2.0"/>
<line x1="190.5" y1="143.3" x2="179.1" y2="117.7" stroke="rgb(0,0,0)"  stroke-width="2.0"/>
<line x1="183.3" y1="109.3" x2="143.5" y2="113.5" stroke="rgb(0,0,0)"  stroke-width="2.0"/>
<line x1="79.1" y1="120.2" x2="95.4" y2="156.8" stroke="rgb(0,0,0)"  stroke-width="2.0"/>
<line x1="88.1" y1="122.8" x2="99.5" y2="148.4" stroke="rgb(0,0,0)"  stroke-width="2.0"/>
<line x1="95.4" y1="156.8" x2="135.2" y2="152.6" stroke="rgb(0,0,0)"  stroke-width="2.0"/>
<line x1="143.5" y1="113.5" x2="120.1" y2="100.0" stroke="rgb(0,0,0)"  stroke-width="2.0"/>
<line x1="99.2" y1="102.2" x2="79.1" y2="120.2" stroke="rgb(0,0,0)"  stroke-width="2.0"/>
<line x1="303.0" y1="147.4" x2="294.7" y2="186.5" stroke="rgb(0,0,0)"  stroke-width="2.0"/>
<line x1="294.7" y1="151.7" x2="288.9" y2="179.1" stroke="rgb(0,0,0)"  stroke-width="2.0"/>
<line x1="294.7" y1="186.5" x2="267.9" y2="189.3" stroke="rgb(0,0,0)"  stroke-width="2.0"/>
<line x1="249.7" y1="178.8" x2="238.7" y2="154.1" stroke="rgb(0,0,0)"  stroke-width="2.0"/>
<line x1="238.7" y1="154.1" x2="268.4" y2="127.4" stroke="rgb(0,0,0)"  stroke-width="2.0"/>
<line x1="247.9" y1="155.5" x2="268.8" y2="136.7" stroke="rgb(0,0,0)"  stroke-width="2.0"/>
<line x1="268.4" y1="127.4" x2="303.0" y2="147.4" stroke="rgb(0,0,0)"  stroke-width="2.0"/>
<line x1="276.7" y1="88.2" x2="303.6" y2="85.4" stroke="rgb(0,0,0)"  stroke-width="2.0"/>
<line x1="321.8" y1="95.9" x2="332.8" y2="120.6" stroke="rgb(0,0,0)"  stroke-width="2.0"/>
<line x1="332.8" y1="120.6" x2="303.0" y2="147.4" stroke="rgb(0,0,0)"  stroke-width="2.0"/>
<line x1="268.4" y1="127.4" x2="276.7" y2="88.2" stroke="rgb(0,0,0)"  stroke-width="2.0"/>
<text x="248.938424" y="198.682137" fill="rgb(178,178,0)"  stroke="rgb(178,178,0)" stroke-width="1" font-size="16" >S</text>
<text x="315.484525" y="224.226791" fill="rgb(191,191,191)"  stroke="rgb(191,191,191)" stroke-width="1" font-size="16" >H</text>
<text x="365.887465" y="136.926337" fill="rgb(255,12,12)"  stroke="rgb(255,12,12)" stroke-width="1" font-size="16" >O</text>
<text x="330.492095" y="57.427035" fill="rgb(191,191,191)"  stroke="rgb(191,191,191)" stroke-width="1" font-size="16" >H</text>
<text x="310.492095" y="92.068051" fill="rgb(12,12,255)"  stroke="rgb(12,12,255)" stroke-width="1" font-size="16" >N</text>
<text x="243.945995" y="66.523397" fill="rgb(255,12,12)"  stroke="rgb(255,12,12)" stroke-width="1" font-size="16" >O</text>
<text x="163.817262" y="180.589075" fill="rgb(178,178,0)"  stroke="rgb(178,178,0)" stroke-width="1" font-size="16" >S</text>
<text x="49.395370" y="234.052246" fill="rgb(12,12,255)"  stroke="rgb(12,12,255)" stroke-width="1" font-size="16" >N</text>
<text x="34.000000" y="119.911927" fill="rgb(191,191,191)"  stroke="rgb(191,191,191)" stroke-width="1" font-size="16" >H</text>
<text x="102.851697" y="101.463171" fill="rgb(178,178,0)"  stroke="rgb(178,178,0)" stroke-width="1" font-size="16" >S</text>
<text x="217.273589" y="48.000000" fill="rgb(12,12,255)"  stroke="rgb(12,12,255)" stroke-width="1" font-size="16" >N</text>
</svg>
</g>
<text font-size="18.000000" fill ="black" font-family="sans-serif"
x="10.000000" y="20.000000" ></text>
</svg>
