<?xml version="1.0"?>
<svg version="1.1" id="topsvg"
xmlns="http://www.w3.org/2000/svg" xmlns:xlink="http://www.w3.org/1999/xlink"
xmlns:cml="http://www.xml-cml.org/schema" x="0" y="0" width="200px" height="200px" viewBox="0 0 100 100">
<title> - Open Babel Depiction</title>
<rect x="0" y="0" width="100" height="100" fill="white"/>
<g transform="translate(0,0)">
<svg width="100" height="100" x="0" y="0" viewBox="0 0 321.652 280"
font-family="sans-serif" stroke="rgb(0,0,0)" stroke-width="2"  stroke-linecap="round">
<line x1="178.6" y1="100.0" x2="143.9" y2="120.0" stroke="rgb(0,0,0)"  stroke-width="2.0"/>
<line x1="109.3" y1="180.0" x2="109.3" y2="207.0" stroke="rgb(0,0,0)"  stroke-width="2.0"/>
<line x1="98.0" y1="226.5" x2="85.9" y2="233.5" stroke="rgb(0,0,0)"  stroke-width="2.0"/>
<line x1="74.6" y1="160.0" x2="51.3" y2="173.5" stroke="rgb(0,0,0)"  stroke-width="2.0"/>
<line x1="109.3" y1="100.0" x2="109.3" y2="73.0" stroke="rgb(0,0,0)"  stroke-width="2.0"/>
<line x1="120.5" y1="53.5" x2="132.7" y2="46.5" stroke="rgb(0,0,0)"  stroke-width="2.0"/>
<line x1="241.9" y1="86.5" x2="268.7" y2="89.4" stroke="rgb(0,0,0)"  stroke-width="2.0"/>
<line x1="213.9" y1="129.6" x2="209.6" y2="142.9" stroke="rgb(0,0,0)"  stroke-width="2.0"/>
<line x1="208.2" y1="127.7" x2="203.9" y2="141.0" stroke="rgb(0,0,0)"  stroke-width="2.0"/>
<line x1="226.0" y1="123.9" x2="235.4" y2="134.3" stroke="rgb(0,0,0)"  stroke-width="2.0"/>
<line x1="221.6" y1="127.9" x2="230.9" y2="138.3" stroke="rgb(0,0,0)"  stroke-width="2.0"/>
<line x1="109.3" y1="180.0" x2="74.6" y2="160.0" stroke="rgb(0,0,0)"  stroke-width="2.0"/>
<line x1="107.7" y1="170.8" x2="83.4" y2="156.8" stroke="rgb(0,0,0)"  stroke-width="2.0"/>
<line x1="74.6" y1="160.0" x2="74.6" y2="120.0" stroke="rgb(0,0,0)"  stroke-width="2.0"/>
<line x1="74.6" y1="120.0" x2="109.3" y2="100.0" stroke="rgb(0,0,0)"  stroke-width="2.0"/>
<line x1="83.4" y1="123.2" x2="107.7" y2="109.2" stroke="rgb(0,0,0)"  stroke-width="2.0"/>
<line x1="109.3" y1="100.0" x2="143.9" y2="120.0" stroke="rgb(0,0,0)"  stroke-width="2.0"/>
<line x1="143.9" y1="120.0" x2="143.9" y2="160.0" stroke="rgb(0,0,0)"  stroke-width="2.0"/>
<line x1="136.7" y1="126.0" x2="136.7" y2="154.0" stroke="rgb(0,0,0)"  stroke-width="2.0"/>
<line x1="143.9" y1="160.0" x2="109.3" y2="180.0" stroke="rgb(0,0,0)"  stroke-width="2.0"/>
<line x1="221.9" y1="51.9" x2="241.9" y2="86.5" stroke="rgb(0,0,0)"  stroke-width="2.0"/>
<line x1="218.6" y1="60.7" x2="232.6" y2="84.9" stroke="rgb(0,0,0)"  stroke-width="2.0"/>
<line x1="241.9" y1="86.5" x2="223.8" y2="106.6" stroke="rgb(0,0,0)"  stroke-width="2.0"/>
<line x1="203.2" y1="111.0" x2="178.6" y2="100.0" stroke="rgb(0,0,0)"  stroke-width="2.0"/>
<line x1="178.6" y1="100.0" x2="182.7" y2="60.2" stroke="rgb(0,0,0)"  stroke-width="2.0"/>
<line x1="186.4" y1="94.8" x2="189.3" y2="66.9" stroke="rgb(0,0,0)"  stroke-width="2.0"/>
<line x1="182.7" y1="60.2" x2="221.9" y2="51.9" stroke="rgb(0,0,0)"  stroke-width="2.0"/>
<text x="235.871107" y="153.995259" fill="rgb(255,12,12)"  stroke="rgb(255,12,12)" stroke-width="1" font-size="16" >O</text>
<text x="196.745203" y="162.311726" fill="rgb(255,12,12)"  stroke="rgb(255,12,12)" stroke-width="1" font-size="16" >O</text>
<text x="209.105883" y="124.269466" fill="rgb(178,178,0)"  stroke="rgb(178,178,0)" stroke-width="1" font-size="16" >S</text>
<text x="275.651983" y="98.724811" fill="rgb(191,191,191)"  stroke="rgb(191,191,191)" stroke-width="1" font-size="16" >H</text>
<text x="139.923048" y="48.000000" fill="rgb(102,102,102)"  stroke="rgb(102,102,102)" stroke-width="1" font-size="16" >CH</text>
<text x="163.923048" y="51.680000" fill="rgb(102,102,102)"  stroke="rgb(102,102,102)" stroke-width="1" font-size="13" >3</text>
<text x="103.282032" y="68.000000" fill="rgb(255,12,12)"  stroke="rgb(255,12,12)" stroke-width="1" font-size="16" >O</text>
<text x="34.000000" y="188.000000" fill="rgb(191,191,191)"  stroke="rgb(191,191,191)" stroke-width="1" font-size="16" >H</text>
<text x="48.641016" y="248.000000" fill="rgb(102,102,102)"  stroke="rgb(102,102,102)" stroke-width="1" font-size="16" >H</text>
<text x="60.641016" y="251.680000" fill="rgb(102,102,102)"  stroke="rgb(102,102,102)" stroke-width="1" font-size="13" >3</text>
<text x="67.141016" y="248.000000" fill="rgb(102,102,102)"  stroke="rgb(102,102,102)" stroke-width="1" font-size="16" >C</text>
<text x="103.282032" y="228.000000" fill="rgb(255,12,12)"  stroke="rgb(255,12,12)" stroke-width="1" font-size="16" >O</text>
</svg>
</g>
<text font-size="18.000000" fill ="black" font-family="sans-serif"
x="10.000000" y="20.000000" ></text>
</svg>
