<?xml version="1.0"?>
<svg version="1.1" id="topsvg"
xmlns="http://www.w3.org/2000/svg" xmlns:xlink="http://www.w3.org/1999/xlink"
xmlns:cml="http://www.xml-cml.org/schema" x="0" y="0" width="200px" height="200px" viewBox="0 0 100 100">
<title> - Open Babel Depiction</title>
<rect x="0" y="0" width="100" height="100" fill="white"/>
<g transform="translate(0,0)">
<svg width="100" height="100" x="0" y="0" viewBox="0 0 440.193 516.698"
font-family="sans-serif" stroke="rgb(0,0,0)" stroke-width="2"  stroke-linecap="round">
<line x1="205.4" y1="143.1" x2="185.4" y2="177.7" stroke="rgb(0,0,0)"  stroke-width="2.0"/>
<line x1="145.7" y1="181.9" x2="118.9" y2="152.2" stroke="rgb(0,0,0)"  stroke-width="2.0"/>
<line x1="118.9" y1="152.2" x2="100.8" y2="132.1" stroke="rgb(0,0,0)"  stroke-width="2.0"/>
<line x1="115.8" y1="155.0" x2="97.7" y2="134.9" stroke="rgb(0,0,0)"  stroke-width="2.0"/>
<line x1="122.0" y1="149.4" x2="103.9" y2="129.3" stroke="rgb(0,0,0)"  stroke-width="2.0"/>
<line x1="137.3" y1="221.0" x2="100.8" y2="237.3" stroke="rgb(0,0,0)"  stroke-width="2.0"/>
<line x1="100.8" y1="237.3" x2="76.1" y2="248.3" stroke="rgb(0,0,0)"  stroke-width="2.0"/>
<line x1="102.5" y1="241.1" x2="77.8" y2="252.1" stroke="rgb(0,0,0)"  stroke-width="2.0"/>
<line x1="99.1" y1="233.5" x2="74.4" y2="244.5" stroke="rgb(0,0,0)"  stroke-width="2.0"/>
<line x1="172.0" y1="241.0" x2="176.2" y2="280.8" stroke="rgb(0,0,0)"  stroke-width="2.0"/>
<line x1="177.9" y1="283.2" x2="145.6" y2="306.8" stroke="rgb(0,0,0)"  stroke-width="2.0"/>
<line x1="174.4" y1="278.4" x2="142.0" y2="301.9" stroke="rgb(0,0,0)"  stroke-width="2.0"/>
<line x1="143.8" y1="304.3" x2="148.0" y2="344.1" stroke="rgb(0,0,0)"  stroke-width="2.0"/>
<line x1="118.3" y1="370.9" x2="79.1" y2="362.6" stroke="rgb(0,0,0)"  stroke-width="2.0"/>
<line x1="79.1" y1="362.6" x2="52.7" y2="356.9" stroke="rgb(0,0,0)"  stroke-width="2.0"/>
<line x1="78.3" y1="366.7" x2="51.8" y2="361.1" stroke="rgb(0,0,0)"  stroke-width="2.0"/>
<line x1="80.0" y1="358.4" x2="53.6" y2="352.8" stroke="rgb(0,0,0)"  stroke-width="2.0"/>
<line x1="134.5" y1="407.4" x2="114.5" y2="442.1" stroke="rgb(0,0,0)"  stroke-width="2.0"/>
<line x1="114.5" y1="442.1" x2="101.0" y2="465.4" stroke="rgb(0,0,0)"  stroke-width="2.0"/>
<line x1="118.2" y1="444.2" x2="104.7" y2="467.5" stroke="rgb(0,0,0)"  stroke-width="2.0"/>
<line x1="110.9" y1="440.0" x2="97.4" y2="463.3" stroke="rgb(0,0,0)"  stroke-width="2.0"/>
<line x1="174.3" y1="403.2" x2="192.4" y2="423.3" stroke="rgb(0,0,0)"  stroke-width="2.0"/>
<line x1="282.8" y1="158.6" x2="285.7" y2="185.4" stroke="rgb(0,0,0)"  stroke-width="2.0"/>
<line x1="276.9" y1="159.2" x2="279.7" y2="186.1" stroke="rgb(0,0,0)"  stroke-width="2.0"/>
<line x1="322.3" y1="134.8" x2="348.7" y2="140.5" stroke="rgb(0,0,0)"  stroke-width="2.0"/>
<line x1="346.5" y1="138.5" x2="364.5" y2="118.4" stroke="rgb(0,0,0)"  stroke-width="2.0"/>
<line x1="350.9" y1="142.5" x2="369.0" y2="122.4" stroke="rgb(0,0,0)"  stroke-width="2.0"/>
<line x1="348.7" y1="140.5" x2="357.0" y2="166.1" stroke="rgb(0,0,0)"  stroke-width="2.0"/>
<line x1="373.8" y1="181.2" x2="387.5" y2="184.1" stroke="rgb(0,0,0)"  stroke-width="2.0"/>
<line x1="290.7" y1="94.1" x2="304.2" y2="70.7" stroke="rgb(0,0,0)"  stroke-width="2.0"/>
<line x1="295.9" y1="97.1" x2="309.4" y2="73.7" stroke="rgb(0,0,0)"  stroke-width="2.0"/>
<line x1="218.9" y1="79.8" x2="216.1" y2="52.9" stroke="rgb(0,0,0)"  stroke-width="2.0"/>
<line x1="137.3" y1="221.0" x2="172.0" y2="241.0" stroke="rgb(0,0,0)"  stroke-width="2.0"/>
<line x1="146.1" y1="217.8" x2="170.4" y2="231.8" stroke="rgb(0,0,0)"  stroke-width="2.0"/>
<line x1="172.0" y1="241.0" x2="192.0" y2="223.0" stroke="rgb(0,0,0)"  stroke-width="2.0"/>
<line x1="196.4" y1="202.4" x2="185.4" y2="177.7" stroke="rgb(0,0,0)"  stroke-width="2.0"/>
<line x1="185.4" y1="177.7" x2="145.7" y2="181.9" stroke="rgb(0,0,0)"  stroke-width="2.0"/>
<line x1="180.2" y1="185.5" x2="152.4" y2="188.4" stroke="rgb(0,0,0)"  stroke-width="2.0"/>
<line x1="145.7" y1="181.9" x2="137.3" y2="221.0" stroke="rgb(0,0,0)"  stroke-width="2.0"/>
<line x1="134.5" y1="407.4" x2="174.3" y2="403.2" stroke="rgb(0,0,0)"  stroke-width="2.0"/>
<line x1="139.7" y1="399.6" x2="167.6" y2="396.7" stroke="rgb(0,0,0)"  stroke-width="2.0"/>
<line x1="174.3" y1="403.2" x2="179.9" y2="376.8" stroke="rgb(0,0,0)"  stroke-width="2.0"/>
<line x1="171.4" y1="357.6" x2="148.0" y2="344.1" stroke="rgb(0,0,0)"  stroke-width="2.0"/>
<line x1="148.0" y1="344.1" x2="118.3" y2="370.9" stroke="rgb(0,0,0)"  stroke-width="2.0"/>
<line x1="148.3" y1="353.5" x2="127.5" y2="372.2" stroke="rgb(0,0,0)"  stroke-width="2.0"/>
<line x1="118.3" y1="370.9" x2="134.5" y2="407.4" stroke="rgb(0,0,0)"  stroke-width="2.0"/>
<line x1="253.5" y1="99.8" x2="218.9" y2="79.8" stroke="rgb(0,0,0)"  stroke-width="2.0"/>
<line x1="244.7" y1="103.0" x2="220.5" y2="89.0" stroke="rgb(0,0,0)"  stroke-width="2.0"/>
<line x1="218.9" y1="79.8" x2="198.8" y2="97.8" stroke="rgb(0,0,0)"  stroke-width="2.0"/>
<line x1="194.5" y1="118.4" x2="205.4" y2="143.1" stroke="rgb(0,0,0)"  stroke-width="2.0"/>
<line x1="205.4" y1="143.1" x2="245.2" y2="138.9" stroke="rgb(0,0,0)"  stroke-width="2.0"/>
<line x1="210.6" y1="135.3" x2="238.5" y2="132.4" stroke="rgb(0,0,0)"  stroke-width="2.0"/>
<line x1="245.2" y1="138.9" x2="253.5" y2="99.8" stroke="rgb(0,0,0)"  stroke-width="2.0"/>
<line x1="279.9" y1="158.9" x2="299.9" y2="140.8" stroke="rgb(0,0,0)"  stroke-width="2.0"/>
<line x1="304.3" y1="120.3" x2="293.3" y2="95.6" stroke="rgb(0,0,0)"  stroke-width="2.0"/>
<line x1="293.3" y1="95.6" x2="253.5" y2="99.8" stroke="rgb(0,0,0)"  stroke-width="2.0"/>
<line x1="245.2" y1="138.9" x2="279.9" y2="158.9" stroke="rgb(0,0,0)"  stroke-width="2.0"/>
<text x="369.471144" y="118.732230" fill="rgb(255,12,12)"  stroke="rgb(255,12,12)" stroke-width="1" font-size="16" >O</text>
<text x="195.067374" y="440.960836" fill="rgb(191,191,191)"  stroke="rgb(191,191,191)" stroke-width="1" font-size="16" >H</text>
<text x="176.618617" y="372.109139" fill="rgb(178,178,0)"  stroke="rgb(178,178,0)" stroke-width="1" font-size="16" >S</text>
<text x="278.035362" y="206.687656" fill="rgb(255,12,12)"  stroke="rgb(255,12,12)" stroke-width="1" font-size="16" >O</text>
<text x="303.580016" y="140.141556" fill="rgb(12,12,255)"  stroke="rgb(12,12,255)" stroke-width="1" font-size="16" >N</text>
<text x="88.521274" y="484.698214" fill="rgb(12,12,255)"  stroke="rgb(12,12,255)" stroke-width="1" font-size="16" >N</text>
<text x="355.066600" y="186.500284" fill="rgb(255,12,12)"  stroke="rgb(255,12,12)" stroke-width="1" font-size="16" >O</text>
<text x="396.192504" y="194.816752" fill="rgb(102,102,102)"  stroke="rgb(102,102,102)" stroke-width="1" font-size="16" >CH</text>
<text x="420.192504" y="198.496752" fill="rgb(102,102,102)"  stroke="rgb(102,102,102)" stroke-width="1" font-size="13" >3</text>
<text x="307.310550" y="68.958721" fill="rgb(255,12,12)"  stroke="rgb(255,12,12)" stroke-width="1" font-size="16" >O</text>
<text x="208.707520" y="48.000000" fill="rgb(191,191,191)"  stroke="rgb(191,191,191)" stroke-width="1" font-size="16" >H</text>
<text x="183.162865" y="114.546100" fill="rgb(178,178,0)"  stroke="rgb(178,178,0)" stroke-width="1" font-size="16" >S</text>
<text x="195.701797" y="222.270753" fill="rgb(178,178,0)"  stroke="rgb(178,178,0)" stroke-width="1" font-size="16" >S</text>
<text x="86.121007" y="130.458487" fill="rgb(12,12,255)"  stroke="rgb(12,12,255)" stroke-width="1" font-size="16" >N</text>
<text x="58.251351" y="261.574909" fill="rgb(12,12,255)"  stroke="rgb(12,12,255)" stroke-width="1" font-size="16" >N</text>
<text x="34.000000" y="362.241428" fill="rgb(12,12,255)"  stroke="rgb(12,12,255)" stroke-width="1" font-size="16" >N</text>
</svg>
</g>
<text font-size="18.000000" fill ="black" font-family="sans-serif"
x="10.000000" y="20.000000" ></text>
</svg>
