<?xml version="1.0"?>
<svg version="1.1" id="topsvg"
xmlns="http://www.w3.org/2000/svg" xmlns:xlink="http://www.w3.org/1999/xlink"
xmlns:cml="http://www.xml-cml.org/schema" x="0" y="0" width="200px" height="200px" viewBox="0 0 100 100">
<title> - Open Babel Depiction</title>
<rect x="0" y="0" width="100" height="100" fill="white"/>
<g transform="translate(0,0)">
<svg width="100" height="100" x="0" y="0" viewBox="0 0 449.702 383.961"
font-family="sans-serif" stroke="rgb(0,0,0)" stroke-width="2"  stroke-linecap="round">
<line x1="209.1" y1="108.7" x2="175.3" y2="128.2" stroke="rgb(0,0,0)"  stroke-width="2.0"/>
<line x1="141.5" y1="225.9" x2="164.9" y2="239.3" stroke="rgb(0,0,0)"  stroke-width="2.0"/>
<line x1="141.5" y1="225.9" x2="141.5" y2="252.9" stroke="rgb(0,0,0)"  stroke-width="2.0"/>
<line x1="73.8" y1="304.0" x2="73.8" y2="331.0" stroke="rgb(0,0,0)"  stroke-width="2.0"/>
<line x1="221.2" y1="71.6" x2="205.9" y2="50.5" stroke="rgb(0,0,0)"  stroke-width="2.0"/>
<line x1="272.3" y1="108.7" x2="309.4" y2="120.8" stroke="rgb(0,0,0)"  stroke-width="2.0"/>
<line x1="372.6" y1="120.8" x2="397.3" y2="112.7" stroke="rgb(0,0,0)"  stroke-width="2.0"/>
<line x1="360.5" y1="157.9" x2="375.8" y2="179.0" stroke="rgb(0,0,0)"  stroke-width="2.0"/>
<line x1="264.2" y1="83.8" x2="272.3" y2="108.7" stroke="rgb(0,0,0)"  stroke-width="2.0"/>
<line x1="258.0" y1="88.1" x2="263.6" y2="105.2" stroke="rgb(0,0,0)"  stroke-width="2.0"/>
<line x1="272.3" y1="108.7" x2="251.2" y2="124.0" stroke="rgb(0,0,0)"  stroke-width="2.0"/>
<line x1="230.2" y1="124.0" x2="209.1" y2="108.7" stroke="rgb(0,0,0)"  stroke-width="2.0"/>
<line x1="209.1" y1="108.7" x2="221.2" y2="71.6" stroke="rgb(0,0,0)"  stroke-width="2.0"/>
<line x1="217.8" y1="105.2" x2="226.2" y2="79.5" stroke="rgb(0,0,0)"  stroke-width="2.0"/>
<line x1="221.2" y1="71.6" x2="247.2" y2="71.6" stroke="rgb(0,0,0)"  stroke-width="2.0"/>
<line x1="372.6" y1="120.8" x2="360.5" y2="157.9" stroke="rgb(0,0,0)"  stroke-width="2.0"/>
<line x1="363.9" y1="124.3" x2="355.5" y2="150.0" stroke="rgb(0,0,0)"  stroke-width="2.0"/>
<line x1="360.5" y1="157.9" x2="334.5" y2="157.9" stroke="rgb(0,0,0)"  stroke-width="2.0"/>
<line x1="317.5" y1="145.7" x2="309.4" y2="120.8" stroke="rgb(0,0,0)"  stroke-width="2.0"/>
<line x1="323.7" y1="141.4" x2="318.1" y2="124.3" stroke="rgb(0,0,0)"  stroke-width="2.0"/>
<line x1="309.4" y1="120.8" x2="330.5" y2="105.5" stroke="rgb(0,0,0)"  stroke-width="2.0"/>
<line x1="351.5" y1="105.5" x2="372.6" y2="120.8" stroke="rgb(0,0,0)"  stroke-width="2.0"/>
<line x1="141.5" y1="186.8" x2="107.6" y2="167.3" stroke="rgb(0,0,0)"  stroke-width="2.0"/>
<line x1="139.9" y1="177.6" x2="116.4" y2="164.0" stroke="rgb(0,0,0)"  stroke-width="2.0"/>
<line x1="107.6" y1="167.3" x2="107.7" y2="128.2" stroke="rgb(0,0,0)"  stroke-width="2.0"/>
<line x1="107.7" y1="128.2" x2="141.5" y2="108.7" stroke="rgb(0,0,0)"  stroke-width="2.0"/>
<line x1="116.4" y1="131.5" x2="139.9" y2="117.9" stroke="rgb(0,0,0)"  stroke-width="2.0"/>
<line x1="141.5" y1="108.7" x2="175.3" y2="128.2" stroke="rgb(0,0,0)"  stroke-width="2.0"/>
<line x1="175.3" y1="128.2" x2="175.3" y2="167.3" stroke="rgb(0,0,0)"  stroke-width="2.0"/>
<line x1="168.1" y1="134.2" x2="168.1" y2="161.3" stroke="rgb(0,0,0)"  stroke-width="2.0"/>
<line x1="175.3" y1="167.3" x2="141.5" y2="186.8" stroke="rgb(0,0,0)"  stroke-width="2.0"/>
<line x1="107.6" y1="284.4" x2="107.7" y2="245.4" stroke="rgb(0,0,0)"  stroke-width="2.0"/>
<line x1="100.4" y1="278.4" x2="100.5" y2="251.4" stroke="rgb(0,0,0)"  stroke-width="2.0"/>
<line x1="107.7" y1="245.4" x2="73.8" y2="225.9" stroke="rgb(0,0,0)"  stroke-width="2.0"/>
<line x1="73.8" y1="225.9" x2="40.0" y2="245.4" stroke="rgb(0,0,0)"  stroke-width="2.0"/>
<line x1="72.2" y1="235.1" x2="48.8" y2="248.6" stroke="rgb(0,0,0)"  stroke-width="2.0"/>
<line x1="40.0" y1="245.4" x2="40.0" y2="284.4" stroke="rgb(0,0,0)"  stroke-width="2.0"/>
<line x1="40.0" y1="284.4" x2="73.8" y2="304.0" stroke="rgb(0,0,0)"  stroke-width="2.0"/>
<line x1="48.8" y1="281.2" x2="72.2" y2="294.7" stroke="rgb(0,0,0)"  stroke-width="2.0"/>
<line x1="73.8" y1="304.0" x2="107.6" y2="284.4" stroke="rgb(0,0,0)"  stroke-width="2.0"/>
<line x1="73.8" y1="225.9" x2="107.6" y2="167.3" stroke="rgb(0,0,0)"  stroke-width="2.0"/>
<line x1="141.5" y1="186.8" x2="141.5" y2="225.9" stroke="rgb(0,0,0)"  stroke-width="2.0"/>
<line x1="141.5" y1="225.9" x2="107.7" y2="245.4" stroke="rgb(0,0,0)"  stroke-width="2.0"/>
<text x="315.467476" y="165.908248" fill="rgb(12,12,255)"  stroke="rgb(12,12,255)" stroke-width="1" font-size="16" >N</text>
<text x="377.455511" y="197.492729" fill="rgb(255,12,12)"  stroke="rgb(255,12,12)" stroke-width="1" font-size="16" >OH</text>
<text x="403.702024" y="116.714266" fill="rgb(191,191,191)"  stroke="rgb(191,191,191)" stroke-width="1" font-size="16" >H</text>
<text x="334.987759" y="105.830995" fill="rgb(178,178,0)"  stroke="rgb(178,178,0)" stroke-width="1" font-size="16" >S</text>
<text x="234.689012" y="139.661734" fill="rgb(178,178,0)"  stroke="rgb(178,178,0)" stroke-width="1" font-size="16" >S</text>
<text x="254.209295" y="79.584481" fill="rgb(12,12,255)"  stroke="rgb(12,12,255)" stroke-width="1" font-size="16" >N</text>
<text x="180.221261" y="48.000000" fill="rgb(255,12,12)"  stroke="rgb(255,12,12)" stroke-width="1" font-size="16" >HO</text>
<text x="67.833042" y="351.960608" fill="rgb(191,191,191)"  stroke="rgb(191,191,191)" stroke-width="1" font-size="16" >H</text>
<text x="137.475942" y="273.850467" fill="rgb(102,102,102)"  stroke="rgb(102,102,102)" stroke-width="1" font-size="16" >CH</text>
<text x="161.475942" y="277.530467" fill="rgb(102,102,102)"  stroke="rgb(102,102,102)" stroke-width="1" font-size="13" >3</text>
<text x="172.117740" y="253.847015" fill="rgb(102,102,102)"  stroke="rgb(102,102,102)" stroke-width="1" font-size="16" >CH</text>
<text x="196.117740" y="257.527015" fill="rgb(102,102,102)"  stroke="rgb(102,102,102)" stroke-width="1" font-size="13" >3</text>
</svg>
</g>
<text font-size="18.000000" fill ="black" font-family="sans-serif"
x="10.000000" y="20.000000" ></text>
</svg>
