<?xml version="1.0"?>
<svg version="1.1" id="topsvg"
xmlns="http://www.w3.org/2000/svg" xmlns:xlink="http://www.w3.org/1999/xlink"
xmlns:cml="http://www.xml-cml.org/schema" x="0" y="0" width="200px" height="200px" viewBox="0 0 100 100">
<title> - Open Babel Depiction</title>
<rect x="0" y="0" width="100" height="100" fill="white"/>
<g transform="translate(0,0)">
<svg width="100" height="100" x="0" y="0" viewBox="0 0 597.957 414.348"
font-family="sans-serif" stroke="rgb(0,0,0)" stroke-width="2"  stroke-linecap="round">
<line x1="296.3" y1="233.2" x2="261.7" y2="253.2" stroke="rgb(0,0,0)"  stroke-width="2.0"/>
<line x1="257.5" y1="292.9" x2="287.2" y2="319.7" stroke="rgb(0,0,0)"  stroke-width="2.0"/>
<line x1="287.2" y1="319.7" x2="307.3" y2="337.8" stroke="rgb(0,0,0)"  stroke-width="2.0"/>
<line x1="290.0" y1="316.6" x2="310.1" y2="334.7" stroke="rgb(0,0,0)"  stroke-width="2.0"/>
<line x1="284.4" y1="322.8" x2="304.5" y2="340.9" stroke="rgb(0,0,0)"  stroke-width="2.0"/>
<line x1="218.4" y1="301.3" x2="202.1" y2="337.8" stroke="rgb(0,0,0)"  stroke-width="2.0"/>
<line x1="202.1" y1="337.8" x2="191.1" y2="362.5" stroke="rgb(0,0,0)"  stroke-width="2.0"/>
<line x1="205.9" y1="339.5" x2="194.9" y2="364.2" stroke="rgb(0,0,0)"  stroke-width="2.0"/>
<line x1="198.3" y1="336.1" x2="187.3" y2="360.8" stroke="rgb(0,0,0)"  stroke-width="2.0"/>
<line x1="198.4" y1="266.6" x2="158.6" y2="262.4" stroke="rgb(0,0,0)"  stroke-width="2.0"/>
<line x1="95.3" y1="275.9" x2="71.9" y2="289.4" stroke="rgb(0,0,0)"  stroke-width="2.0"/>
<line x1="99.5" y1="236.1" x2="69.7" y2="209.4" stroke="rgb(0,0,0)"  stroke-width="2.0"/>
<line x1="69.7" y1="209.4" x2="49.7" y2="191.3" stroke="rgb(0,0,0)"  stroke-width="2.0"/>
<line x1="66.9" y1="212.5" x2="46.9" y2="194.4" stroke="rgb(0,0,0)"  stroke-width="2.0"/>
<line x1="72.5" y1="206.2" x2="52.5" y2="188.2" stroke="rgb(0,0,0)"  stroke-width="2.0"/>
<line x1="138.6" y1="227.8" x2="154.8" y2="191.3" stroke="rgb(0,0,0)"  stroke-width="2.0"/>
<line x1="154.8" y1="191.3" x2="165.8" y2="166.6" stroke="rgb(0,0,0)"  stroke-width="2.0"/>
<line x1="151.0" y1="189.6" x2="162.0" y2="164.9" stroke="rgb(0,0,0)"  stroke-width="2.0"/>
<line x1="158.7" y1="193.0" x2="169.7" y2="168.3" stroke="rgb(0,0,0)"  stroke-width="2.0"/>
<line x1="427.1" y1="210.2" x2="454.1" y2="210.2" stroke="rgb(0,0,0)"  stroke-width="2.0"/>
<line x1="427.1" y1="216.2" x2="454.1" y2="216.2" stroke="rgb(0,0,0)"  stroke-width="2.0"/>
<line x1="407.6" y1="257.9" x2="412.0" y2="271.2" stroke="rgb(0,0,0)"  stroke-width="2.0"/>
<line x1="400.8" y1="179.9" x2="413.1" y2="141.8" stroke="rgb(0,0,0)"  stroke-width="2.0"/>
<line x1="406.5" y1="181.7" x2="418.8" y2="143.7" stroke="rgb(0,0,0)"  stroke-width="2.0"/>
<line x1="392.5" y1="113.4" x2="365.5" y2="113.4" stroke="rgb(0,0,0)"  stroke-width="2.0"/>
<line x1="392.5" y1="107.4" x2="365.5" y2="107.4" stroke="rgb(0,0,0)"  stroke-width="2.0"/>
<line x1="412.0" y1="65.7" x2="407.6" y2="52.4" stroke="rgb(0,0,0)"  stroke-width="2.0"/>
<line x1="523.3" y1="90.4" x2="546.7" y2="76.9" stroke="rgb(0,0,0)"  stroke-width="2.0"/>
<line x1="218.4" y1="301.3" x2="198.4" y2="266.6" stroke="rgb(0,0,0)"  stroke-width="2.0"/>
<line x1="221.6" y1="292.5" x2="207.6" y2="268.2" stroke="rgb(0,0,0)"  stroke-width="2.0"/>
<line x1="198.4" y1="266.6" x2="216.4" y2="246.6" stroke="rgb(0,0,0)"  stroke-width="2.0"/>
<line x1="237.0" y1="242.2" x2="261.7" y2="253.2" stroke="rgb(0,0,0)"  stroke-width="2.0"/>
<line x1="261.7" y1="253.2" x2="257.5" y2="292.9" stroke="rgb(0,0,0)"  stroke-width="2.0"/>
<line x1="253.9" y1="258.4" x2="251.0" y2="286.2" stroke="rgb(0,0,0)"  stroke-width="2.0"/>
<line x1="257.5" y1="292.9" x2="218.4" y2="301.3" stroke="rgb(0,0,0)"  stroke-width="2.0"/>
<line x1="95.3" y1="275.9" x2="99.5" y2="236.1" stroke="rgb(0,0,0)"  stroke-width="2.0"/>
<line x1="103.1" y1="270.7" x2="106.0" y2="242.8" stroke="rgb(0,0,0)"  stroke-width="2.0"/>
<line x1="99.5" y1="236.1" x2="138.6" y2="227.8" stroke="rgb(0,0,0)"  stroke-width="2.0"/>
<line x1="138.6" y1="227.8" x2="158.6" y2="262.4" stroke="rgb(0,0,0)"  stroke-width="2.0"/>
<line x1="135.3" y1="236.6" x2="149.3" y2="260.8" stroke="rgb(0,0,0)"  stroke-width="2.0"/>
<line x1="158.6" y1="262.4" x2="140.5" y2="282.5" stroke="rgb(0,0,0)"  stroke-width="2.0"/>
<line x1="119.9" y1="286.9" x2="95.3" y2="275.9" stroke="rgb(0,0,0)"  stroke-width="2.0"/>
<line x1="330.9" y1="173.2" x2="365.6" y2="193.2" stroke="rgb(0,0,0)"  stroke-width="2.0"/>
<line x1="332.5" y1="182.4" x2="356.8" y2="196.4" stroke="rgb(0,0,0)"  stroke-width="2.0"/>
<line x1="365.6" y1="193.2" x2="365.6" y2="233.2" stroke="rgb(0,0,0)"  stroke-width="2.0"/>
<line x1="365.6" y1="233.2" x2="330.9" y2="253.2" stroke="rgb(0,0,0)"  stroke-width="2.0"/>
<line x1="356.8" y1="229.9" x2="332.5" y2="243.9" stroke="rgb(0,0,0)"  stroke-width="2.0"/>
<line x1="330.9" y1="253.2" x2="296.3" y2="233.2" stroke="rgb(0,0,0)"  stroke-width="2.0"/>
<line x1="296.3" y1="233.2" x2="296.3" y2="193.2" stroke="rgb(0,0,0)"  stroke-width="2.0"/>
<line x1="303.5" y1="227.2" x2="303.5" y2="199.2" stroke="rgb(0,0,0)"  stroke-width="2.0"/>
<line x1="296.3" y1="193.2" x2="330.9" y2="173.2" stroke="rgb(0,0,0)"  stroke-width="2.0"/>
<line x1="523.3" y1="130.4" x2="488.7" y2="150.4" stroke="rgb(0,0,0)"  stroke-width="2.0"/>
<line x1="488.7" y1="150.4" x2="454.0" y2="130.4" stroke="rgb(0,0,0)"  stroke-width="2.0"/>
<line x1="487.1" y1="141.2" x2="462.8" y2="127.2" stroke="rgb(0,0,0)"  stroke-width="2.0"/>
<line x1="454.0" y1="130.4" x2="454.0" y2="90.4" stroke="rgb(0,0,0)"  stroke-width="2.0"/>
<line x1="454.0" y1="90.4" x2="488.7" y2="70.4" stroke="rgb(0,0,0)"  stroke-width="2.0"/>
<line x1="462.8" y1="93.6" x2="487.1" y2="79.6" stroke="rgb(0,0,0)"  stroke-width="2.0"/>
<line x1="488.7" y1="70.4" x2="523.3" y2="90.4" stroke="rgb(0,0,0)"  stroke-width="2.0"/>
<line x1="523.3" y1="90.4" x2="523.3" y2="130.4" stroke="rgb(0,0,0)"  stroke-width="2.0"/>
<line x1="516.1" y1="96.4" x2="516.1" y2="124.4" stroke="rgb(0,0,0)"  stroke-width="2.0"/>
<line x1="427.1" y1="213.2" x2="411.3" y2="235.0" stroke="rgb(0,0,0)"  stroke-width="2.0"/>
<line x1="391.3" y1="241.5" x2="365.6" y2="233.2" stroke="rgb(0,0,0)"  stroke-width="2.0"/>
<line x1="365.6" y1="193.2" x2="403.6" y2="180.8" stroke="rgb(0,0,0)"  stroke-width="2.0"/>
<line x1="403.6" y1="180.8" x2="427.1" y2="213.2" stroke="rgb(0,0,0)"  stroke-width="2.0"/>
<line x1="428.4" y1="82.1" x2="454.0" y2="90.4" stroke="rgb(0,0,0)"  stroke-width="2.0"/>
<line x1="454.0" y1="130.4" x2="416.0" y2="142.8" stroke="rgb(0,0,0)"  stroke-width="2.0"/>
<line x1="416.0" y1="142.8" x2="392.5" y2="110.4" stroke="rgb(0,0,0)"  stroke-width="2.0"/>
<line x1="392.5" y1="110.4" x2="408.4" y2="88.6" stroke="rgb(0,0,0)"  stroke-width="2.0"/>
<text x="346.479987" y="118.402940" fill="rgb(255,12,12)"  stroke="rgb(255,12,12)" stroke-width="1" font-size="16" >O</text>
<text x="461.142128" y="221.166561" fill="rgb(255,12,12)"  stroke="rgb(255,12,12)" stroke-width="1" font-size="16" >O</text>
<text x="397.630718" y="253.527240" fill="rgb(12,12,255)"  stroke="rgb(12,12,255)" stroke-width="1" font-size="16" >N</text>
<text x="409.991397" y="291.569501" fill="rgb(191,191,191)"  stroke="rgb(191,191,191)" stroke-width="1" font-size="16" >H</text>
<text x="409.991397" y="86.042261" fill="rgb(12,12,255)"  stroke="rgb(12,12,255)" stroke-width="1" font-size="16" >N</text>
<text x="397.630718" y="48.000000" fill="rgb(191,191,191)"  stroke="rgb(191,191,191)" stroke-width="1" font-size="16" >H</text>
<text x="551.956706" y="78.402940" fill="rgb(191,191,191)"  stroke="rgb(191,191,191)" stroke-width="1" font-size="16" >H</text>
<text x="125.812266" y="300.167542" fill="rgb(178,178,0)"  stroke="rgb(178,178,0)" stroke-width="1" font-size="16" >S</text>
<text x="310.935856" y="354.477885" fill="rgb(12,12,255)"  stroke="rgb(12,12,255)" stroke-width="1" font-size="16" >N</text>
<text x="179.819434" y="382.347541" fill="rgb(12,12,255)"  stroke="rgb(12,12,255)" stroke-width="1" font-size="16" >N</text>
<text x="219.123590" y="244.897095" fill="rgb(178,178,0)"  stroke="rgb(178,178,0)" stroke-width="1" font-size="16" >S</text>
<text x="54.629431" y="303.898077" fill="rgb(191,191,191)"  stroke="rgb(191,191,191)" stroke-width="1" font-size="16" >H</text>
<text x="34.000000" y="190.586752" fill="rgb(12,12,255)"  stroke="rgb(12,12,255)" stroke-width="1" font-size="16" >N</text>
<text x="165.116422" y="162.717097" fill="rgb(12,12,255)"  stroke="rgb(12,12,255)" stroke-width="1" font-size="16" >N</text>
</svg>
</g>
<text font-size="18.000000" fill ="black" font-family="sans-serif"
x="10.000000" y="20.000000" ></text>
</svg>
