<?xml version="1.0"?>
<svg version="1.1" id="topsvg"
xmlns="http://www.w3.org/2000/svg" xmlns:xlink="http://www.w3.org/1999/xlink"
xmlns:cml="http://www.xml-cml.org/schema" x="0" y="0" width="200px" height="200px" viewBox="0 0 100 100">
<title> - Open Babel Depiction</title>
<rect x="0" y="0" width="100" height="100" fill="white"/>
<g transform="translate(0,0)">
<svg width="100" height="100" x="0" y="0" viewBox="0 0 430.309 231.896"
font-family="sans-serif" stroke="rgb(0,0,0)" stroke-width="2"  stroke-linecap="round">
<line x1="310.0" y1="117.6" x2="276.3" y2="98.2" stroke="rgb(0,0,0)"  stroke-width="2.0"/>
<line x1="175.5" y1="130.6" x2="175.5" y2="144.6" stroke="rgb(0,0,0)"  stroke-width="2.0"/>
<line x1="74.6" y1="98.2" x2="51.3" y2="111.7" stroke="rgb(0,0,0)"  stroke-width="2.0"/>
<line x1="364.3" y1="149.0" x2="381.6" y2="168.2" stroke="rgb(0,0,0)"  stroke-width="2.0"/>
<line x1="316.0" y1="162.2" x2="304.9" y2="168.6" stroke="rgb(0,0,0)"  stroke-width="2.0"/>
<line x1="313.0" y1="157.0" x2="301.9" y2="163.4" stroke="rgb(0,0,0)"  stroke-width="2.0"/>
<line x1="328.7" y1="166.1" x2="328.7" y2="178.9" stroke="rgb(0,0,0)"  stroke-width="2.0"/>
<line x1="322.7" y1="166.1" x2="322.7" y2="178.9" stroke="rgb(0,0,0)"  stroke-width="2.0"/>
<line x1="141.9" y1="98.2" x2="141.9" y2="59.4" stroke="rgb(0,0,0)"  stroke-width="2.0"/>
<line x1="141.9" y1="59.4" x2="209.1" y2="59.4" stroke="rgb(0,0,0)"  stroke-width="2.0"/>
<line x1="209.1" y1="59.4" x2="209.1" y2="98.2" stroke="rgb(0,0,0)"  stroke-width="2.0"/>
<line x1="201.9" y1="65.4" x2="201.9" y2="92.2" stroke="rgb(0,0,0)"  stroke-width="2.0"/>
<line x1="209.1" y1="98.2" x2="186.8" y2="111.1" stroke="rgb(0,0,0)"  stroke-width="2.0"/>
<line x1="164.2" y1="111.2" x2="141.9" y2="98.2" stroke="rgb(0,0,0)"  stroke-width="2.0"/>
<line x1="209.1" y1="59.4" x2="242.7" y2="40.0" stroke="rgb(0,0,0)"  stroke-width="2.0"/>
<line x1="242.7" y1="40.0" x2="276.3" y2="59.4" stroke="rgb(0,0,0)"  stroke-width="2.0"/>
<line x1="244.3" y1="49.2" x2="267.5" y2="62.6" stroke="rgb(0,0,0)"  stroke-width="2.0"/>
<line x1="276.3" y1="59.4" x2="276.3" y2="98.2" stroke="rgb(0,0,0)"  stroke-width="2.0"/>
<line x1="276.3" y1="98.2" x2="242.7" y2="117.6" stroke="rgb(0,0,0)"  stroke-width="2.0"/>
<line x1="267.5" y1="95.0" x2="244.3" y2="108.4" stroke="rgb(0,0,0)"  stroke-width="2.0"/>
<line x1="242.7" y1="117.6" x2="209.1" y2="98.2" stroke="rgb(0,0,0)"  stroke-width="2.0"/>
<line x1="108.2" y1="117.7" x2="141.9" y2="98.2" stroke="rgb(0,0,0)"  stroke-width="2.0"/>
<line x1="109.8" y1="108.4" x2="133.1" y2="95.0" stroke="rgb(0,0,0)"  stroke-width="2.0"/>
<line x1="141.9" y1="59.4" x2="108.2" y2="40.0" stroke="rgb(0,0,0)"  stroke-width="2.0"/>
<line x1="133.1" y1="62.6" x2="109.8" y2="49.2" stroke="rgb(0,0,0)"  stroke-width="2.0"/>
<line x1="108.2" y1="40.0" x2="74.6" y2="59.4" stroke="rgb(0,0,0)"  stroke-width="2.0"/>
<line x1="74.6" y1="59.4" x2="74.6" y2="98.2" stroke="rgb(0,0,0)"  stroke-width="2.0"/>
<line x1="81.8" y1="65.4" x2="81.8" y2="92.2" stroke="rgb(0,0,0)"  stroke-width="2.0"/>
<line x1="74.6" y1="98.2" x2="108.2" y2="117.7" stroke="rgb(0,0,0)"  stroke-width="2.0"/>
<line x1="372.4" y1="111.1" x2="364.3" y2="149.0" stroke="rgb(0,0,0)"  stroke-width="2.0"/>
<line x1="364.1" y1="115.4" x2="358.5" y2="141.7" stroke="rgb(0,0,0)"  stroke-width="2.0"/>
<line x1="364.3" y1="149.0" x2="338.7" y2="151.7" stroke="rgb(0,0,0)"  stroke-width="2.0"/>
<line x1="320.5" y1="141.2" x2="310.0" y2="117.6" stroke="rgb(0,0,0)"  stroke-width="2.0"/>
<line x1="310.0" y1="117.6" x2="338.8" y2="91.7" stroke="rgb(0,0,0)"  stroke-width="2.0"/>
<line x1="319.2" y1="119.0" x2="339.2" y2="101.0" stroke="rgb(0,0,0)"  stroke-width="2.0"/>
<line x1="338.8" y1="91.7" x2="372.4" y2="111.1" stroke="rgb(0,0,0)"  stroke-width="2.0"/>
<text x="319.747084" y="199.896064" fill="rgb(255,12,12)"  stroke="rgb(255,12,12)" stroke-width="1" font-size="16" >O</text>
<text x="286.136734" y="180.495187" fill="rgb(255,12,12)"  stroke="rgb(255,12,12)" stroke-width="1" font-size="16" >O</text>
<text x="319.743561" y="161.088208" fill="rgb(178,178,0)"  stroke="rgb(178,178,0)" stroke-width="1" font-size="16" >S</text>
<text x="384.308597" y="185.865678" fill="rgb(191,191,191)"  stroke="rgb(191,191,191)" stroke-width="1" font-size="16" >H</text>
<text x="34.000000" y="126.249281" fill="rgb(191,191,191)"  stroke="rgb(191,191,191)" stroke-width="1" font-size="16" >H</text>
<text x="171.511791" y="165.648089" fill="rgb(102,102,102)"  stroke="rgb(102,102,102)" stroke-width="1" font-size="16" >CH</text>
<text x="195.511791" y="169.328089" fill="rgb(102,102,102)"  stroke="rgb(102,102,102)" stroke-width="1" font-size="13" >3</text>
<text x="169.504174" y="125.648090" fill="rgb(12,12,255)"  stroke="rgb(12,12,255)" stroke-width="1" font-size="16" >N</text>
</svg>
</g>
<text font-size="18.000000" fill ="black" font-family="sans-serif"
x="10.000000" y="20.000000" ></text>
</svg>
