<?xml version="1.0"?>
<svg version="1.1" id="topsvg"
xmlns="http://www.w3.org/2000/svg" xmlns:xlink="http://www.w3.org/1999/xlink"
xmlns:cml="http://www.xml-cml.org/schema" x="0" y="0" width="200px" height="200px" viewBox="0 0 100 100">
<title> - Open Babel Depiction</title>
<rect x="0" y="0" width="100" height="100" fill="white"/>
<g transform="translate(0,0)">
<svg width="100" height="100" x="0" y="0" viewBox="0 0 494.121 454.671"
font-family="sans-serif" stroke="rgb(0,0,0)" stroke-width="2"  stroke-linecap="round">
<line x1="214.1" y1="186.7" x2="248.9" y2="167.2" stroke="rgb(0,0,0)"  stroke-width="2.0"/>
<line x1="319.7" y1="90.6" x2="328.4" y2="65.2" stroke="rgb(0,0,0)"  stroke-width="2.0"/>
<line x1="319.7" y1="90.6" x2="302.0" y2="70.4" stroke="rgb(0,0,0)"  stroke-width="2.0"/>
<line x1="414.5" y1="134.3" x2="441.2" y2="137.5" stroke="rgb(0,0,0)"  stroke-width="2.0"/>
<line x1="179.8" y1="284.2" x2="203.0" y2="298.0" stroke="rgb(0,0,0)"  stroke-width="2.0"/>
<line x1="176.7" y1="289.3" x2="199.9" y2="303.2" stroke="rgb(0,0,0)"  stroke-width="2.0"/>
<line x1="143.3" y1="319.0" x2="143.1" y2="345.8" stroke="rgb(0,0,0)"  stroke-width="2.0"/>
<line x1="143.1" y1="348.8" x2="116.3" y2="348.6" stroke="rgb(0,0,0)"  stroke-width="2.0"/>
<line x1="143.1" y1="342.8" x2="116.4" y2="342.6" stroke="rgb(0,0,0)"  stroke-width="2.0"/>
<line x1="143.1" y1="345.8" x2="156.3" y2="369.1" stroke="rgb(0,0,0)"  stroke-width="2.0"/>
<line x1="156.1" y1="391.6" x2="149.1" y2="403.5" stroke="rgb(0,0,0)"  stroke-width="2.0"/>
<line x1="110.0" y1="288.5" x2="86.5" y2="301.8" stroke="rgb(0,0,0)"  stroke-width="2.0"/>
<line x1="107.0" y1="283.2" x2="83.5" y2="296.6" stroke="rgb(0,0,0)"  stroke-width="2.0"/>
<line x1="74.8" y1="224.8" x2="51.3" y2="238.2" stroke="rgb(0,0,0)"  stroke-width="2.0"/>
<line x1="109.0" y1="127.8" x2="85.8" y2="114.1" stroke="rgb(0,0,0)"  stroke-width="2.0"/>
<line x1="112.1" y1="122.7" x2="88.9" y2="108.9" stroke="rgb(0,0,0)"  stroke-width="2.0"/>
<line x1="145.8" y1="92.5" x2="146.1" y2="65.3" stroke="rgb(0,0,0)"  stroke-width="2.0"/>
<line x1="144.2" y1="63.0" x2="165.3" y2="45.8" stroke="rgb(0,0,0)"  stroke-width="2.0"/>
<line x1="148.0" y1="67.6" x2="169.1" y2="50.5" stroke="rgb(0,0,0)"  stroke-width="2.0"/>
<line x1="146.1" y1="65.3" x2="120.7" y2="55.5" stroke="rgb(0,0,0)"  stroke-width="2.0"/>
<line x1="98.4" y1="59.1" x2="87.4" y2="68.0" stroke="rgb(0,0,0)"  stroke-width="2.0"/>
<line x1="178.9" y1="123.5" x2="202.4" y2="110.3" stroke="rgb(0,0,0)"  stroke-width="2.0"/>
<line x1="181.8" y1="128.8" x2="205.4" y2="115.6" stroke="rgb(0,0,0)"  stroke-width="2.0"/>
<line x1="292.7" y1="119.9" x2="312.1" y2="154.7" stroke="rgb(0,0,0)"  stroke-width="2.0"/>
<line x1="289.3" y1="128.6" x2="302.9" y2="152.9" stroke="rgb(0,0,0)"  stroke-width="2.0"/>
<line x1="312.1" y1="154.7" x2="293.9" y2="174.4" stroke="rgb(0,0,0)"  stroke-width="2.0"/>
<line x1="273.3" y1="178.5" x2="248.9" y2="167.2" stroke="rgb(0,0,0)"  stroke-width="2.0"/>
<line x1="248.9" y1="167.2" x2="253.6" y2="127.6" stroke="rgb(0,0,0)"  stroke-width="2.0"/>
<line x1="256.7" y1="162.1" x2="260.0" y2="134.4" stroke="rgb(0,0,0)"  stroke-width="2.0"/>
<line x1="253.6" y1="127.6" x2="292.7" y2="119.9" stroke="rgb(0,0,0)"  stroke-width="2.0"/>
<line x1="414.5" y1="134.3" x2="396.3" y2="154.1" stroke="rgb(0,0,0)"  stroke-width="2.0"/>
<line x1="375.6" y1="158.2" x2="351.2" y2="146.9" stroke="rgb(0,0,0)"  stroke-width="2.0"/>
<line x1="351.2" y1="146.9" x2="355.9" y2="107.3" stroke="rgb(0,0,0)"  stroke-width="2.0"/>
<line x1="359.1" y1="141.8" x2="362.4" y2="114.1" stroke="rgb(0,0,0)"  stroke-width="2.0"/>
<line x1="355.9" y1="107.3" x2="395.1" y2="99.5" stroke="rgb(0,0,0)"  stroke-width="2.0"/>
<line x1="395.1" y1="99.5" x2="414.5" y2="134.3" stroke="rgb(0,0,0)"  stroke-width="2.0"/>
<line x1="391.7" y1="108.3" x2="405.3" y2="132.6" stroke="rgb(0,0,0)"  stroke-width="2.0"/>
<line x1="178.8" y1="246.6" x2="144.0" y2="225.7" stroke="rgb(0,0,0)"  stroke-width="2.0"/>
<line x1="177.3" y1="237.3" x2="152.9" y2="222.7" stroke="rgb(0,0,0)"  stroke-width="2.0"/>
<line x1="144.0" y1="225.7" x2="144.5" y2="185.8" stroke="rgb(0,0,0)"  stroke-width="2.0"/>
<line x1="144.5" y1="185.8" x2="179.8" y2="166.3" stroke="rgb(0,0,0)"  stroke-width="2.0"/>
<line x1="153.3" y1="189.2" x2="178.0" y2="175.5" stroke="rgb(0,0,0)"  stroke-width="2.0"/>
<line x1="179.8" y1="166.3" x2="214.1" y2="186.7" stroke="rgb(0,0,0)"  stroke-width="2.0"/>
<line x1="214.1" y1="186.7" x2="213.5" y2="226.6" stroke="rgb(0,0,0)"  stroke-width="2.0"/>
<line x1="206.8" y1="192.6" x2="206.4" y2="220.5" stroke="rgb(0,0,0)"  stroke-width="2.0"/>
<line x1="213.5" y1="226.6" x2="178.8" y2="246.6" stroke="rgb(0,0,0)"  stroke-width="2.0"/>
<line x1="108.5" y1="285.8" x2="109.0" y2="245.7" stroke="rgb(0,0,0)"  stroke-width="2.0"/>
<line x1="109.0" y1="245.7" x2="144.0" y2="225.7" stroke="rgb(0,0,0)"  stroke-width="2.0"/>
<line x1="178.8" y1="246.6" x2="178.2" y2="286.8" stroke="rgb(0,0,0)"  stroke-width="2.0"/>
<line x1="178.2" y1="286.8" x2="154.8" y2="299.7" stroke="rgb(0,0,0)"  stroke-width="2.0"/>
<line x1="132.2" y1="299.5" x2="108.5" y2="285.8" stroke="rgb(0,0,0)"  stroke-width="2.0"/>
<line x1="75.3" y1="184.9" x2="110.1" y2="165.4" stroke="rgb(0,0,0)"  stroke-width="2.0"/>
<line x1="84.0" y1="188.2" x2="108.3" y2="174.6" stroke="rgb(0,0,0)"  stroke-width="2.0"/>
<line x1="110.1" y1="165.4" x2="144.5" y2="185.8" stroke="rgb(0,0,0)"  stroke-width="2.0"/>
<line x1="109.0" y1="245.7" x2="74.8" y2="224.8" stroke="rgb(0,0,0)"  stroke-width="2.0"/>
<line x1="107.6" y1="236.4" x2="83.6" y2="221.8" stroke="rgb(0,0,0)"  stroke-width="2.0"/>
<line x1="74.8" y1="224.8" x2="75.3" y2="184.9" stroke="rgb(0,0,0)"  stroke-width="2.0"/>
<line x1="156.8" y1="112.1" x2="180.3" y2="126.2" stroke="rgb(0,0,0)"  stroke-width="2.0"/>
<line x1="180.3" y1="126.2" x2="179.8" y2="166.3" stroke="rgb(0,0,0)"  stroke-width="2.0"/>
<line x1="110.1" y1="165.4" x2="110.6" y2="125.2" stroke="rgb(0,0,0)"  stroke-width="2.0"/>
<line x1="110.6" y1="125.2" x2="134.3" y2="111.9" stroke="rgb(0,0,0)"  stroke-width="2.0"/>
<line x1="351.2" y1="146.9" x2="312.1" y2="154.7" stroke="rgb(0,0,0)"  stroke-width="2.0"/>
<line x1="292.7" y1="119.9" x2="319.7" y2="90.6" stroke="rgb(0,0,0)"  stroke-width="2.0"/>
<line x1="319.7" y1="90.6" x2="355.9" y2="107.3" stroke="rgb(0,0,0)"  stroke-width="2.0"/>
<text x="70.189960" y="112.844804" fill="rgb(255,12,12)"  stroke="rgb(255,12,12)" stroke-width="1" font-size="16" >O</text>
<text x="156.698629" y="388.408466" fill="rgb(255,12,12)"  stroke="rgb(255,12,12)" stroke-width="1" font-size="16" >O</text>
<text x="116.520440" y="422.671093" fill="rgb(102,102,102)"  stroke="rgb(102,102,102)" stroke-width="1" font-size="16" >H</text>
<text x="128.520440" y="426.351093" fill="rgb(102,102,102)"  stroke="rgb(102,102,102)" stroke-width="1" font-size="13" >3</text>
<text x="135.020440" y="422.671093" fill="rgb(102,102,102)"  stroke="rgb(102,102,102)" stroke-width="1" font-size="16" >C</text>
<text x="67.723937" y="313.609296" fill="rgb(255,12,12)"  stroke="rgb(255,12,12)" stroke-width="1" font-size="16" >O</text>
<text x="34.000000" y="252.589553" fill="rgb(191,191,191)"  stroke="rgb(191,191,191)" stroke-width="1" font-size="16" >H</text>
<text x="97.354018" y="353.458817" fill="rgb(255,12,12)"  stroke="rgb(255,12,12)" stroke-width="1" font-size="16" >O</text>
<text x="139.599928" y="113.497093" fill="rgb(12,12,255)"  stroke="rgb(12,12,255)" stroke-width="1" font-size="16" >N</text>
<text x="171.309567" y="48.000000" fill="rgb(255,12,12)"  stroke="rgb(255,12,12)" stroke-width="1" font-size="16" >O</text>
<text x="102.534665" y="58.888781" fill="rgb(255,12,12)"  stroke="rgb(255,12,12)" stroke-width="1" font-size="16" >O</text>
<text x="51.290535" y="84.186775" fill="rgb(102,102,102)"  stroke="rgb(102,102,102)" stroke-width="1" font-size="16" >H</text>
<text x="63.290535" y="87.866775" fill="rgb(102,102,102)"  stroke="rgb(102,102,102)" stroke-width="1" font-size="13" >3</text>
<text x="69.790535" y="84.186775" fill="rgb(102,102,102)"  stroke="rgb(102,102,102)" stroke-width="1" font-size="16" >C</text>
<text x="209.230695" y="114.601970" fill="rgb(255,12,12)"  stroke="rgb(255,12,12)" stroke-width="1" font-size="16" >O</text>
<text x="279.063069" y="191.940120" fill="rgb(178,178,0)"  stroke="rgb(178,178,0)" stroke-width="1" font-size="16" >S</text>
<text x="328.566057" y="60.848934" fill="rgb(102,102,102)"  stroke="rgb(102,102,102)" stroke-width="1" font-size="16" >CH</text>
<text x="352.566057" y="64.528934" fill="rgb(102,102,102)"  stroke="rgb(102,102,102)" stroke-width="1" font-size="13" >3</text>
<text x="267.457119" y="68.616539" fill="rgb(102,102,102)"  stroke="rgb(102,102,102)" stroke-width="1" font-size="16" >H</text>
<text x="279.457119" y="72.296539" fill="rgb(102,102,102)"  stroke="rgb(102,102,102)" stroke-width="1" font-size="13" >3</text>
<text x="285.957119" y="68.616539" fill="rgb(102,102,102)"  stroke="rgb(102,102,102)" stroke-width="1" font-size="16" >C</text>
<text x="448.120838" y="147.030377" fill="rgb(191,191,191)"  stroke="rgb(191,191,191)" stroke-width="1" font-size="16" >H</text>
<text x="381.451596" y="171.604265" fill="rgb(178,178,0)"  stroke="rgb(178,178,0)" stroke-width="1" font-size="16" >S</text>
<text x="206.571008" y="315.283555" fill="rgb(255,12,12)"  stroke="rgb(255,12,12)" stroke-width="1" font-size="16" >O</text>
<text x="137.458929" y="314.040927" fill="rgb(12,12,255)"  stroke="rgb(12,12,255)" stroke-width="1" font-size="16" >N</text>
</svg>
</g>
<text font-size="18.000000" fill ="black" font-family="sans-serif"
x="10.000000" y="20.000000" ></text>
</svg>
