<?xml version="1.0"?>
<svg version="1.1" id="topsvg"
xmlns="http://www.w3.org/2000/svg" xmlns:xlink="http://www.w3.org/1999/xlink"
xmlns:cml="http://www.xml-cml.org/schema" x="0" y="0" width="200px" height="200px" viewBox="0 0 100 100">
<title> - Open Babel Depiction</title>
<rect x="0" y="0" width="100" height="100" fill="white"/>
<g transform="translate(0,0)">
<svg width="100" height="100" x="0" y="0" viewBox="0 0 376.314 368.522"
font-family="sans-serif" stroke="rgb(0,0,0)" stroke-width="2"  stroke-linecap="round">
<line x1="141.6" y1="152.6" x2="121.6" y2="187.3" stroke="rgb(0,0,0)"  stroke-width="2.0"/>
<line x1="81.8" y1="191.4" x2="63.7" y2="171.4" stroke="rgb(0,0,0)"  stroke-width="2.0"/>
<line x1="60.0" y1="293.9" x2="46.5" y2="317.3" stroke="rgb(0,0,0)"  stroke-width="2.0"/>
<line x1="99.8" y1="289.7" x2="117.8" y2="309.8" stroke="rgb(0,0,0)"  stroke-width="2.0"/>
<line x1="219.0" y1="168.1" x2="221.8" y2="195.0" stroke="rgb(0,0,0)"  stroke-width="2.0"/>
<line x1="213.0" y1="168.8" x2="215.8" y2="195.6" stroke="rgb(0,0,0)"  stroke-width="2.0"/>
<line x1="258.4" y1="144.4" x2="284.8" y2="150.0" stroke="rgb(0,0,0)"  stroke-width="2.0"/>
<line x1="282.6" y1="148.0" x2="300.7" y2="127.9" stroke="rgb(0,0,0)"  stroke-width="2.0"/>
<line x1="287.1" y1="152.0" x2="305.1" y2="131.9" stroke="rgb(0,0,0)"  stroke-width="2.0"/>
<line x1="284.8" y1="150.0" x2="293.2" y2="175.7" stroke="rgb(0,0,0)"  stroke-width="2.0"/>
<line x1="309.9" y1="190.7" x2="323.6" y2="193.7" stroke="rgb(0,0,0)"  stroke-width="2.0"/>
<line x1="229.4" y1="105.1" x2="242.9" y2="81.8" stroke="rgb(0,0,0)"  stroke-width="2.0"/>
<line x1="152.0" y1="89.6" x2="149.2" y2="62.8" stroke="rgb(0,0,0)"  stroke-width="2.0"/>
<line x1="158.0" y1="89.0" x2="155.2" y2="62.2" stroke="rgb(0,0,0)"  stroke-width="2.0"/>
<line x1="112.6" y1="113.4" x2="86.2" y2="107.8" stroke="rgb(0,0,0)"  stroke-width="2.0"/>
<line x1="88.4" y1="109.8" x2="70.3" y2="129.8" stroke="rgb(0,0,0)"  stroke-width="2.0"/>
<line x1="83.9" y1="105.8" x2="65.9" y2="125.8" stroke="rgb(0,0,0)"  stroke-width="2.0"/>
<line x1="86.2" y1="107.8" x2="77.8" y2="82.1" stroke="rgb(0,0,0)"  stroke-width="2.0"/>
<line x1="82.5" y1="60.1" x2="91.9" y2="49.7" stroke="rgb(0,0,0)"  stroke-width="2.0"/>
<line x1="73.5" y1="230.6" x2="108.1" y2="250.6" stroke="rgb(0,0,0)"  stroke-width="2.0"/>
<line x1="82.3" y1="227.3" x2="106.5" y2="241.3" stroke="rgb(0,0,0)"  stroke-width="2.0"/>
<line x1="108.1" y1="250.6" x2="128.2" y2="232.5" stroke="rgb(0,0,0)"  stroke-width="2.0"/>
<line x1="132.5" y1="211.9" x2="121.6" y2="187.3" stroke="rgb(0,0,0)"  stroke-width="2.0"/>
<line x1="121.6" y1="187.3" x2="81.8" y2="191.4" stroke="rgb(0,0,0)"  stroke-width="2.0"/>
<line x1="116.3" y1="195.1" x2="88.5" y2="198.0" stroke="rgb(0,0,0)"  stroke-width="2.0"/>
<line x1="81.8" y1="191.4" x2="73.5" y2="230.6" stroke="rgb(0,0,0)"  stroke-width="2.0"/>
<line x1="60.0" y1="293.9" x2="99.8" y2="289.7" stroke="rgb(0,0,0)"  stroke-width="2.0"/>
<line x1="65.2" y1="286.1" x2="93.1" y2="283.2" stroke="rgb(0,0,0)"  stroke-width="2.0"/>
<line x1="99.8" y1="289.7" x2="108.1" y2="250.6" stroke="rgb(0,0,0)"  stroke-width="2.0"/>
<line x1="73.5" y1="230.6" x2="53.4" y2="248.6" stroke="rgb(0,0,0)"  stroke-width="2.0"/>
<line x1="49.0" y1="269.2" x2="60.0" y2="293.9" stroke="rgb(0,0,0)"  stroke-width="2.0"/>
<line x1="216.0" y1="168.4" x2="236.0" y2="150.4" stroke="rgb(0,0,0)"  stroke-width="2.0"/>
<line x1="240.4" y1="129.8" x2="229.4" y2="105.1" stroke="rgb(0,0,0)"  stroke-width="2.0"/>
<line x1="229.4" y1="105.1" x2="189.7" y2="109.3" stroke="rgb(0,0,0)"  stroke-width="2.0"/>
<line x1="224.2" y1="112.9" x2="196.4" y2="115.9" stroke="rgb(0,0,0)"  stroke-width="2.0"/>
<line x1="189.7" y1="109.3" x2="181.3" y2="148.4" stroke="rgb(0,0,0)"  stroke-width="2.0"/>
<line x1="181.3" y1="148.4" x2="216.0" y2="168.4" stroke="rgb(0,0,0)"  stroke-width="2.0"/>
<line x1="189.7" y1="109.3" x2="155.0" y2="89.3" stroke="rgb(0,0,0)"  stroke-width="2.0"/>
<line x1="155.0" y1="89.3" x2="134.9" y2="107.4" stroke="rgb(0,0,0)"  stroke-width="2.0"/>
<line x1="130.6" y1="128.0" x2="141.6" y2="152.6" stroke="rgb(0,0,0)"  stroke-width="2.0"/>
<line x1="141.6" y1="152.6" x2="181.3" y2="148.4" stroke="rgb(0,0,0)"  stroke-width="2.0"/>
<line x1="146.8" y1="144.8" x2="174.6" y2="141.9" stroke="rgb(0,0,0)"  stroke-width="2.0"/>
<text x="239.701356" y="149.679977" fill="rgb(12,12,255)"  stroke="rgb(12,12,255)" stroke-width="1" font-size="16" >N</text>
<text x="96.562845" y="48.000000" fill="rgb(102,102,102)"  stroke="rgb(102,102,102)" stroke-width="1" font-size="16" >CH</text>
<text x="120.562845" y="51.680000" fill="rgb(102,102,102)"  stroke="rgb(102,102,102)" stroke-width="1" font-size="13" >3</text>
<text x="67.797621" y="77.725793" fill="rgb(255,12,12)"  stroke="rgb(255,12,12)" stroke-width="1" font-size="16" >O</text>
<text x="53.393077" y="145.493847" fill="rgb(255,12,12)"  stroke="rgb(255,12,12)" stroke-width="1" font-size="16" >O</text>
<text x="119.284205" y="124.084521" fill="rgb(12,12,255)"  stroke="rgb(12,12,255)" stroke-width="1" font-size="16" >N</text>
<text x="144.828860" y="57.538421" fill="rgb(255,12,12)"  stroke="rgb(255,12,12)" stroke-width="1" font-size="16" >O</text>
<text x="243.431890" y="78.497142" fill="rgb(191,191,191)"  stroke="rgb(191,191,191)" stroke-width="1" font-size="16" >H</text>
<text x="332.313844" y="204.355173" fill="rgb(102,102,102)"  stroke="rgb(102,102,102)" stroke-width="1" font-size="16" >CH</text>
<text x="356.313844" y="208.035173" fill="rgb(102,102,102)"  stroke="rgb(102,102,102)" stroke-width="1" font-size="13" >3</text>
<text x="291.187940" y="196.038705" fill="rgb(255,12,12)"  stroke="rgb(255,12,12)" stroke-width="1" font-size="16" >O</text>
<text x="305.592484" y="128.270651" fill="rgb(255,12,12)"  stroke="rgb(255,12,12)" stroke-width="1" font-size="16" >O</text>
<text x="214.156701" y="216.226077" fill="rgb(255,12,12)"  stroke="rgb(255,12,12)" stroke-width="1" font-size="16" >O</text>
<text x="131.823136" y="231.809174" fill="rgb(178,178,0)"  stroke="rgb(178,178,0)" stroke-width="1" font-size="16" >S</text>
<text x="120.546100" y="327.426095" fill="rgb(127,178,255)"  stroke="rgb(127,178,255)" stroke-width="1" font-size="16" >F</text>
<text x="34.000000" y="336.522457" fill="rgb(191,191,191)"  stroke="rgb(191,191,191)" stroke-width="1" font-size="16" >H</text>
<text x="37.730534" y="265.339623" fill="rgb(178,178,0)"  stroke="rgb(178,178,0)" stroke-width="1" font-size="16" >S</text>
<text x="49.007571" y="169.722701" fill="rgb(127,178,255)"  stroke="rgb(127,178,255)" stroke-width="1" font-size="16" >F</text>
</svg>
</g>
<text font-size="18.000000" fill ="black" font-family="sans-serif"
x="10.000000" y="20.000000" ></text>
</svg>
