<?xml version="1.0"?>
<svg version="1.1" id="topsvg"
xmlns="http://www.w3.org/2000/svg" xmlns:xlink="http://www.w3.org/1999/xlink"
xmlns:cml="http://www.xml-cml.org/schema" x="0" y="0" width="200px" height="200px" viewBox="0 0 100 100">
<title> - Open Babel Depiction</title>
<rect x="0" y="0" width="100" height="100" fill="white"/>
<g transform="translate(0,0)">
<svg width="100" height="100" x="0" y="0" viewBox="0 0 365.065 370.66"
font-family="sans-serif" stroke="rgb(0,0,0)" stroke-width="2"  stroke-linecap="round">
<line x1="200.0" y1="192.5" x2="160.0" y2="192.5" stroke="rgb(0,0,0)"  stroke-width="2.0"/>
<line x1="100.0" y1="227.1" x2="86.5" y2="250.5" stroke="rgb(0,0,0)"  stroke-width="2.0"/>
<line x1="86.5" y1="273.0" x2="93.5" y2="285.2" stroke="rgb(0,0,0)"  stroke-width="2.0"/>
<line x1="80.0" y1="192.5" x2="53.0" y2="192.5" stroke="rgb(0,0,0)"  stroke-width="2.0"/>
<line x1="140.0" y1="157.8" x2="153.5" y2="134.5" stroke="rgb(0,0,0)"  stroke-width="2.0"/>
<line x1="173.0" y1="123.2" x2="187.0" y2="123.2" stroke="rgb(0,0,0)"  stroke-width="2.0"/>
<line x1="221.7" y1="122.6" x2="199.9" y2="106.7" stroke="rgb(0,0,0)"  stroke-width="2.0"/>
<line x1="225.3" y1="117.7" x2="203.4" y2="101.8" stroke="rgb(0,0,0)"  stroke-width="2.0"/>
<line x1="265.6" y1="95.4" x2="273.9" y2="69.7" stroke="rgb(0,0,0)"  stroke-width="2.0"/>
<line x1="273.3" y1="66.8" x2="299.7" y2="61.2" stroke="rgb(0,0,0)"  stroke-width="2.0"/>
<line x1="274.5" y1="72.7" x2="300.9" y2="67.0" stroke="rgb(0,0,0)"  stroke-width="2.0"/>
<line x1="273.9" y1="69.7" x2="255.8" y2="49.7" stroke="rgb(0,0,0)"  stroke-width="2.0"/>
<line x1="234.4" y1="42.7" x2="220.7" y2="45.6" stroke="rgb(0,0,0)"  stroke-width="2.0"/>
<line x1="285.1" y1="140.1" x2="312.1" y2="140.1" stroke="rgb(0,0,0)"  stroke-width="2.0"/>
<line x1="263.3" y1="210.1" x2="285.2" y2="225.9" stroke="rgb(0,0,0)"  stroke-width="2.0"/>
<line x1="259.8" y1="214.9" x2="281.6" y2="230.8" stroke="rgb(0,0,0)"  stroke-width="2.0"/>
<line x1="219.5" y1="237.2" x2="211.2" y2="262.9" stroke="rgb(0,0,0)"  stroke-width="2.0"/>
<line x1="211.8" y1="265.8" x2="185.4" y2="271.4" stroke="rgb(0,0,0)"  stroke-width="2.0"/>
<line x1="210.5" y1="260.0" x2="184.1" y2="265.6" stroke="rgb(0,0,0)"  stroke-width="2.0"/>
<line x1="211.2" y1="262.9" x2="229.2" y2="283.0" stroke="rgb(0,0,0)"  stroke-width="2.0"/>
<line x1="233.9" y1="305.0" x2="229.6" y2="318.3" stroke="rgb(0,0,0)"  stroke-width="2.0"/>
<line x1="223.5" y1="120.1" x2="249.2" y2="111.8" stroke="rgb(0,0,0)"  stroke-width="2.0"/>
<line x1="269.2" y1="118.3" x2="285.1" y2="140.1" stroke="rgb(0,0,0)"  stroke-width="2.0"/>
<line x1="285.1" y1="140.1" x2="261.6" y2="172.5" stroke="rgb(0,0,0)"  stroke-width="2.0"/>
<line x1="275.7" y1="140.8" x2="259.3" y2="163.4" stroke="rgb(0,0,0)"  stroke-width="2.0"/>
<line x1="261.6" y1="172.5" x2="223.5" y2="160.1" stroke="rgb(0,0,0)"  stroke-width="2.0"/>
<line x1="223.5" y1="160.1" x2="223.5" y2="120.1" stroke="rgb(0,0,0)"  stroke-width="2.0"/>
<line x1="261.6" y1="172.5" x2="261.6" y2="212.5" stroke="rgb(0,0,0)"  stroke-width="2.0"/>
<line x1="261.6" y1="212.5" x2="235.9" y2="220.8" stroke="rgb(0,0,0)"  stroke-width="2.0"/>
<line x1="215.9" y1="214.3" x2="200.0" y2="192.5" stroke="rgb(0,0,0)"  stroke-width="2.0"/>
<line x1="200.0" y1="192.5" x2="223.5" y2="160.1" stroke="rgb(0,0,0)"  stroke-width="2.0"/>
<line x1="209.4" y1="191.9" x2="225.8" y2="169.2" stroke="rgb(0,0,0)"  stroke-width="2.0"/>
<line x1="100.0" y1="227.1" x2="80.0" y2="192.5" stroke="rgb(0,0,0)"  stroke-width="2.0"/>
<line x1="103.2" y1="218.3" x2="89.2" y2="194.1" stroke="rgb(0,0,0)"  stroke-width="2.0"/>
<line x1="80.0" y1="192.5" x2="100.0" y2="157.8" stroke="rgb(0,0,0)"  stroke-width="2.0"/>
<line x1="100.0" y1="157.8" x2="140.0" y2="157.8" stroke="rgb(0,0,0)"  stroke-width="2.0"/>
<line x1="106.0" y1="165.0" x2="134.0" y2="165.0" stroke="rgb(0,0,0)"  stroke-width="2.0"/>
<line x1="140.0" y1="157.8" x2="160.0" y2="192.5" stroke="rgb(0,0,0)"  stroke-width="2.0"/>
<line x1="160.0" y1="192.5" x2="140.0" y2="227.1" stroke="rgb(0,0,0)"  stroke-width="2.0"/>
<line x1="150.8" y1="194.1" x2="136.8" y2="218.3" stroke="rgb(0,0,0)"  stroke-width="2.0"/>
<line x1="140.0" y1="227.1" x2="100.0" y2="227.1" stroke="rgb(0,0,0)"  stroke-width="2.0"/>
<text x="255.553671" y="115.768054" fill="rgb(12,12,255)"  stroke="rgb(12,12,255)" stroke-width="1" font-size="16" >N</text>
<text x="199.555275" y="338.660407" fill="rgb(102,102,102)"  stroke="rgb(102,102,102)" stroke-width="1" font-size="16" >H</text>
<text x="211.555275" y="342.340407" fill="rgb(102,102,102)"  stroke="rgb(102,102,102)" stroke-width="1" font-size="13" >3</text>
<text x="218.055275" y="338.660407" fill="rgb(102,102,102)"  stroke="rgb(102,102,102)" stroke-width="1" font-size="16" >C</text>
<text x="231.915955" y="300.618147" fill="rgb(255,12,12)"  stroke="rgb(255,12,12)" stroke-width="1" font-size="16" >O</text>
<text x="166.024826" y="279.208821" fill="rgb(255,12,12)"  stroke="rgb(255,12,12)" stroke-width="1" font-size="16" >O</text>
<text x="217.511410" y="232.850093" fill="rgb(12,12,255)"  stroke="rgb(12,12,255)" stroke-width="1" font-size="16" >N</text>
<text x="287.914351" y="244.000823" fill="rgb(255,12,12)"  stroke="rgb(255,12,12)" stroke-width="1" font-size="16" >O</text>
<text x="319.065081" y="148.128733" fill="rgb(191,191,191)"  stroke="rgb(191,191,191)" stroke-width="1" font-size="16" >H</text>
<text x="182.023222" y="56.316468" fill="rgb(102,102,102)"  stroke="rgb(102,102,102)" stroke-width="1" font-size="16" >H</text>
<text x="194.023222" y="59.996468" fill="rgb(102,102,102)"  stroke="rgb(102,102,102)" stroke-width="1" font-size="13" >3</text>
<text x="200.523222" y="56.316468" fill="rgb(102,102,102)"  stroke="rgb(102,102,102)" stroke-width="1" font-size="16" >C</text>
<text x="241.149126" y="48.000000" fill="rgb(255,12,12)"  stroke="rgb(255,12,12)" stroke-width="1" font-size="16" >O</text>
<text x="307.040255" y="69.409325" fill="rgb(255,12,12)"  stroke="rgb(255,12,12)" stroke-width="1" font-size="16" >O</text>
<text x="185.150730" y="104.617323" fill="rgb(255,12,12)"  stroke="rgb(255,12,12)" stroke-width="1" font-size="16" >O</text>
<text x="196.000000" y="131.207381" fill="rgb(102,102,102)"  stroke="rgb(102,102,102)" stroke-width="1" font-size="16" >CH</text>
<text x="220.000000" y="134.887381" fill="rgb(102,102,102)"  stroke="rgb(102,102,102)" stroke-width="1" font-size="13" >3</text>
<text x="154.000000" y="131.207381" fill="rgb(255,12,12)"  stroke="rgb(255,12,12)" stroke-width="1" font-size="16" >O</text>
<text x="34.000000" y="200.489413" fill="rgb(191,191,191)"  stroke="rgb(191,191,191)" stroke-width="1" font-size="16" >H</text>
<text x="96.000000" y="304.412462" fill="rgb(102,102,102)"  stroke="rgb(102,102,102)" stroke-width="1" font-size="16" >CH</text>
<text x="120.000000" y="308.092462" fill="rgb(102,102,102)"  stroke="rgb(102,102,102)" stroke-width="1" font-size="13" >3</text>
<text x="74.000000" y="269.771446" fill="rgb(255,12,12)"  stroke="rgb(255,12,12)" stroke-width="1" font-size="16" >O</text>
</svg>
</g>
<text font-size="18.000000" fill ="black" font-family="sans-serif"
x="10.000000" y="20.000000" ></text>
</svg>
