<?xml version="1.0"?>
<svg version="1.1" id="topsvg"
xmlns="http://www.w3.org/2000/svg" xmlns:xlink="http://www.w3.org/1999/xlink"
xmlns:cml="http://www.xml-cml.org/schema" x="0" y="0" width="200px" height="200px" viewBox="0 0 100 100">
<title> - Open Babel Depiction</title>
<rect x="0" y="0" width="100" height="100" fill="white"/>
<g transform="translate(0,0)">
<svg width="100" height="100" x="0" y="0" viewBox="0 0 385.904 423.25"
font-family="sans-serif" stroke="rgb(0,0,0)" stroke-width="2"  stroke-linecap="round">
<line x1="175.9" y1="143.1" x2="155.9" y2="177.7" stroke="rgb(0,0,0)"  stroke-width="2.0"/>
<line x1="78.0" y1="247.8" x2="52.4" y2="256.1" stroke="rgb(0,0,0)"  stroke-width="2.0"/>
<line x1="78.0" y1="247.8" x2="58.0" y2="229.7" stroke="rgb(0,0,0)"  stroke-width="2.0"/>
<line x1="120.6" y1="343.5" x2="123.5" y2="370.3" stroke="rgb(0,0,0)"  stroke-width="2.0"/>
<line x1="253.3" y1="158.6" x2="256.1" y2="185.4" stroke="rgb(0,0,0)"  stroke-width="2.0"/>
<line x1="247.3" y1="159.2" x2="250.1" y2="186.1" stroke="rgb(0,0,0)"  stroke-width="2.0"/>
<line x1="292.7" y1="134.8" x2="306.4" y2="137.8" stroke="rgb(0,0,0)"  stroke-width="2.0"/>
<line x1="327.8" y1="130.8" x2="337.2" y2="120.4" stroke="rgb(0,0,0)"  stroke-width="2.0"/>
<line x1="261.1" y1="94.1" x2="274.6" y2="70.7" stroke="rgb(0,0,0)"  stroke-width="2.0"/>
<line x1="266.3" y1="97.1" x2="279.8" y2="73.7" stroke="rgb(0,0,0)"  stroke-width="2.0"/>
<line x1="189.3" y1="79.8" x2="186.5" y2="52.9" stroke="rgb(0,0,0)"  stroke-width="2.0"/>
<line x1="107.8" y1="221.0" x2="142.4" y2="241.0" stroke="rgb(0,0,0)"  stroke-width="2.0"/>
<line x1="116.6" y1="217.8" x2="140.8" y2="231.8" stroke="rgb(0,0,0)"  stroke-width="2.0"/>
<line x1="142.4" y1="241.0" x2="162.5" y2="223.0" stroke="rgb(0,0,0)"  stroke-width="2.0"/>
<line x1="166.8" y1="202.4" x2="155.9" y2="177.7" stroke="rgb(0,0,0)"  stroke-width="2.0"/>
<line x1="155.9" y1="177.7" x2="116.1" y2="181.9" stroke="rgb(0,0,0)"  stroke-width="2.0"/>
<line x1="150.7" y1="185.5" x2="122.8" y2="188.4" stroke="rgb(0,0,0)"  stroke-width="2.0"/>
<line x1="116.1" y1="181.9" x2="107.8" y2="221.0" stroke="rgb(0,0,0)"  stroke-width="2.0"/>
<line x1="120.6" y1="343.5" x2="140.7" y2="325.4" stroke="rgb(0,0,0)"  stroke-width="2.0"/>
<line x1="145.1" y1="304.8" x2="134.1" y2="280.2" stroke="rgb(0,0,0)"  stroke-width="2.0"/>
<line x1="134.1" y1="280.2" x2="94.3" y2="284.3" stroke="rgb(0,0,0)"  stroke-width="2.0"/>
<line x1="128.9" y1="287.9" x2="101.0" y2="290.9" stroke="rgb(0,0,0)"  stroke-width="2.0"/>
<line x1="94.3" y1="284.3" x2="86.0" y2="323.5" stroke="rgb(0,0,0)"  stroke-width="2.0"/>
<line x1="86.0" y1="323.5" x2="120.6" y2="343.5" stroke="rgb(0,0,0)"  stroke-width="2.0"/>
<line x1="94.8" y1="320.2" x2="119.0" y2="334.2" stroke="rgb(0,0,0)"  stroke-width="2.0"/>
<line x1="224.0" y1="99.8" x2="189.3" y2="79.8" stroke="rgb(0,0,0)"  stroke-width="2.0"/>
<line x1="215.2" y1="103.0" x2="190.9" y2="89.0" stroke="rgb(0,0,0)"  stroke-width="2.0"/>
<line x1="189.3" y1="79.8" x2="169.3" y2="97.8" stroke="rgb(0,0,0)"  stroke-width="2.0"/>
<line x1="164.9" y1="118.4" x2="175.9" y2="143.1" stroke="rgb(0,0,0)"  stroke-width="2.0"/>
<line x1="175.9" y1="143.1" x2="215.6" y2="138.9" stroke="rgb(0,0,0)"  stroke-width="2.0"/>
<line x1="181.1" y1="135.3" x2="208.9" y2="132.4" stroke="rgb(0,0,0)"  stroke-width="2.0"/>
<line x1="215.6" y1="138.9" x2="224.0" y2="99.8" stroke="rgb(0,0,0)"  stroke-width="2.0"/>
<line x1="134.1" y1="280.2" x2="142.4" y2="241.0" stroke="rgb(0,0,0)"  stroke-width="2.0"/>
<line x1="107.8" y1="221.0" x2="78.0" y2="247.8" stroke="rgb(0,0,0)"  stroke-width="2.0"/>
<line x1="78.0" y1="247.8" x2="94.3" y2="284.3" stroke="rgb(0,0,0)"  stroke-width="2.0"/>
<line x1="250.3" y1="158.9" x2="270.4" y2="140.8" stroke="rgb(0,0,0)"  stroke-width="2.0"/>
<line x1="274.7" y1="120.3" x2="263.7" y2="95.6" stroke="rgb(0,0,0)"  stroke-width="2.0"/>
<line x1="263.7" y1="95.6" x2="224.0" y2="99.8" stroke="rgb(0,0,0)"  stroke-width="2.0"/>
<line x1="215.6" y1="138.9" x2="250.3" y2="158.9" stroke="rgb(0,0,0)"  stroke-width="2.0"/>
<text x="118.817413" y="391.249799" fill="rgb(191,191,191)"  stroke="rgb(191,191,191)" stroke-width="1" font-size="16" >H</text>
<text x="153.595931" y="114.546100" fill="rgb(178,178,0)"  stroke="rgb(178,178,0)" stroke-width="1" font-size="16" >S</text>
<text x="179.140586" y="48.000000" fill="rgb(191,191,191)"  stroke="rgb(191,191,191)" stroke-width="1" font-size="16" >H</text>
<text x="277.743616" y="68.958721" fill="rgb(255,12,12)"  stroke="rgb(255,12,12)" stroke-width="1" font-size="16" >O</text>
<text x="341.904210" y="118.732230" fill="rgb(102,102,102)"  stroke="rgb(102,102,102)" stroke-width="1" font-size="16" >CH</text>
<text x="365.904210" y="122.412230" fill="rgb(102,102,102)"  stroke="rgb(102,102,102)" stroke-width="1" font-size="13" >3</text>
<text x="313.138986" y="148.458023" fill="rgb(255,12,12)"  stroke="rgb(255,12,12)" stroke-width="1" font-size="16" >O</text>
<text x="274.013082" y="140.141556" fill="rgb(12,12,255)"  stroke="rgb(12,12,255)" stroke-width="1" font-size="16" >N</text>
<text x="248.468428" y="206.687656" fill="rgb(255,12,12)"  stroke="rgb(255,12,12)" stroke-width="1" font-size="16" >O</text>
<text x="144.362068" y="324.703699" fill="rgb(178,178,0)"  stroke="rgb(178,178,0)" stroke-width="1" font-size="16" >S</text>
<text x="22.316468" y="229.035977" fill="rgb(102,102,102)"  stroke="rgb(102,102,102)" stroke-width="1" font-size="16" >H</text>
<text x="34.316468" y="232.715977" fill="rgb(102,102,102)"  stroke="rgb(102,102,102)" stroke-width="1" font-size="13" >3</text>
<text x="40.816468" y="229.035977" fill="rgb(102,102,102)"  stroke="rgb(102,102,102)" stroke-width="1" font-size="16" >C</text>
<text x="14.000000" y="268.161881" fill="rgb(102,102,102)"  stroke="rgb(102,102,102)" stroke-width="1" font-size="16" >H</text>
<text x="26.000000" y="271.841881" fill="rgb(102,102,102)"  stroke="rgb(102,102,102)" stroke-width="1" font-size="13" >3</text>
<text x="32.500000" y="268.161881" fill="rgb(102,102,102)"  stroke="rgb(102,102,102)" stroke-width="1" font-size="16" >C</text>
<text x="166.134863" y="222.270753" fill="rgb(178,178,0)"  stroke="rgb(178,178,0)" stroke-width="1" font-size="16" >S</text>
</svg>
</g>
<text font-size="18.000000" fill ="black" font-family="sans-serif"
x="10.000000" y="20.000000" ></text>
</svg>
