<?xml version="1.0"?>
<svg version="1.1" id="topsvg"
xmlns="http://www.w3.org/2000/svg" xmlns:xlink="http://www.w3.org/1999/xlink"
xmlns:cml="http://www.xml-cml.org/schema" x="0" y="0" width="200px" height="200px" viewBox="0 0 100 100">
<title> - Open Babel Depiction</title>
<rect x="0" y="0" width="100" height="100" fill="white"/>
<g transform="translate(0,0)">
<svg width="100" height="100" x="0" y="0" viewBox="0 0 488.826 360.555"
font-family="sans-serif" stroke="rgb(0,0,0)" stroke-width="2"  stroke-linecap="round">
<line x1="212.7" y1="159.6" x2="247.0" y2="139.3" stroke="rgb(0,0,0)"  stroke-width="2.0"/>
<line x1="283.3" y1="122.7" x2="288.6" y2="96.3" stroke="rgb(0,0,0)"  stroke-width="2.0"/>
<line x1="350.1" y1="151.6" x2="363.3" y2="128.2" stroke="rgb(0,0,0)"  stroke-width="2.0"/>
<line x1="414.1" y1="233.5" x2="437.5" y2="246.7" stroke="rgb(0,0,0)"  stroke-width="2.0"/>
<line x1="377.8" y1="250.1" x2="372.5" y2="276.4" stroke="rgb(0,0,0)"  stroke-width="2.0"/>
<line x1="311.0" y1="221.1" x2="297.8" y2="244.5" stroke="rgb(0,0,0)"  stroke-width="2.0"/>
<line x1="180.7" y1="257.8" x2="204.2" y2="271.1" stroke="rgb(0,0,0)"  stroke-width="2.0"/>
<line x1="177.7" y1="263.1" x2="201.2" y2="276.4" stroke="rgb(0,0,0)"  stroke-width="2.0"/>
<line x1="145.1" y1="293.6" x2="145.3" y2="307.6" stroke="rgb(0,0,0)"  stroke-width="2.0"/>
<line x1="111.0" y1="263.8" x2="87.9" y2="277.7" stroke="rgb(0,0,0)"  stroke-width="2.0"/>
<line x1="107.9" y1="258.6" x2="84.8" y2="272.5" stroke="rgb(0,0,0)"  stroke-width="2.0"/>
<line x1="74.3" y1="201.0" x2="51.1" y2="214.9" stroke="rgb(0,0,0)"  stroke-width="2.0"/>
<line x1="106.3" y1="103.2" x2="82.7" y2="90.0" stroke="rgb(0,0,0)"  stroke-width="2.0"/>
<line x1="109.2" y1="97.9" x2="85.7" y2="84.7" stroke="rgb(0,0,0)"  stroke-width="2.0"/>
<line x1="142.2" y1="67.0" x2="142.0" y2="53.0" stroke="rgb(0,0,0)"  stroke-width="2.0"/>
<line x1="176.0" y1="97.2" x2="199.2" y2="83.5" stroke="rgb(0,0,0)"  stroke-width="2.0"/>
<line x1="179.1" y1="102.4" x2="202.3" y2="88.7" stroke="rgb(0,0,0)"  stroke-width="2.0"/>
<line x1="310.3" y1="152.1" x2="290.7" y2="186.8" stroke="rgb(0,0,0)"  stroke-width="2.0"/>
<line x1="290.7" y1="186.8" x2="287.6" y2="160.1" stroke="rgb(0,0,0)"  stroke-width="2.0"/>
<line x1="273.4" y1="144.6" x2="247.0" y2="139.3" stroke="rgb(0,0,0)"  stroke-width="2.0"/>
<line x1="247.0" y1="139.3" x2="283.3" y2="122.7" stroke="rgb(0,0,0)"  stroke-width="2.0"/>
<line x1="255.5" y1="143.3" x2="280.8" y2="131.7" stroke="rgb(0,0,0)"  stroke-width="2.0"/>
<line x1="283.3" y1="122.7" x2="310.3" y2="152.1" stroke="rgb(0,0,0)"  stroke-width="2.0"/>
<line x1="414.1" y1="233.5" x2="377.8" y2="250.1" stroke="rgb(0,0,0)"  stroke-width="2.0"/>
<line x1="405.6" y1="229.4" x2="380.3" y2="241.0" stroke="rgb(0,0,0)"  stroke-width="2.0"/>
<line x1="377.8" y1="250.1" x2="350.8" y2="220.7" stroke="rgb(0,0,0)"  stroke-width="2.0"/>
<line x1="350.8" y1="220.7" x2="370.4" y2="186.0" stroke="rgb(0,0,0)"  stroke-width="2.0"/>
<line x1="360.1" y1="219.0" x2="373.7" y2="194.7" stroke="rgb(0,0,0)"  stroke-width="2.0"/>
<line x1="370.4" y1="186.0" x2="396.8" y2="191.3" stroke="rgb(0,0,0)"  stroke-width="2.0"/>
<line x1="411.0" y1="206.8" x2="414.1" y2="233.5" stroke="rgb(0,0,0)"  stroke-width="2.0"/>
<line x1="350.8" y1="220.7" x2="311.0" y2="221.1" stroke="rgb(0,0,0)"  stroke-width="2.0"/>
<line x1="311.0" y1="221.1" x2="290.7" y2="186.8" stroke="rgb(0,0,0)"  stroke-width="2.0"/>
<line x1="314.1" y1="212.3" x2="299.9" y2="188.3" stroke="rgb(0,0,0)"  stroke-width="2.0"/>
<line x1="310.3" y1="152.1" x2="350.1" y2="151.6" stroke="rgb(0,0,0)"  stroke-width="2.0"/>
<line x1="316.3" y1="159.2" x2="344.2" y2="158.9" stroke="rgb(0,0,0)"  stroke-width="2.0"/>
<line x1="350.1" y1="151.6" x2="370.4" y2="186.0" stroke="rgb(0,0,0)"  stroke-width="2.0"/>
<line x1="178.8" y1="220.3" x2="143.6" y2="200.2" stroke="rgb(0,0,0)"  stroke-width="2.0"/>
<line x1="177.1" y1="211.1" x2="152.4" y2="197.0" stroke="rgb(0,0,0)"  stroke-width="2.0"/>
<line x1="143.6" y1="200.2" x2="143.2" y2="160.3" stroke="rgb(0,0,0)"  stroke-width="2.0"/>
<line x1="143.2" y1="160.3" x2="177.9" y2="140.0" stroke="rgb(0,0,0)"  stroke-width="2.0"/>
<line x1="152.0" y1="163.5" x2="176.4" y2="149.2" stroke="rgb(0,0,0)"  stroke-width="2.0"/>
<line x1="177.9" y1="140.0" x2="212.7" y2="159.6" stroke="rgb(0,0,0)"  stroke-width="2.0"/>
<line x1="212.7" y1="159.6" x2="213.1" y2="199.5" stroke="rgb(0,0,0)"  stroke-width="2.0"/>
<line x1="205.5" y1="165.7" x2="205.8" y2="193.6" stroke="rgb(0,0,0)"  stroke-width="2.0"/>
<line x1="213.1" y1="199.5" x2="178.8" y2="220.3" stroke="rgb(0,0,0)"  stroke-width="2.0"/>
<line x1="109.5" y1="261.2" x2="109.0" y2="221.0" stroke="rgb(0,0,0)"  stroke-width="2.0"/>
<line x1="109.0" y1="221.0" x2="143.6" y2="200.2" stroke="rgb(0,0,0)"  stroke-width="2.0"/>
<line x1="178.8" y1="220.3" x2="179.2" y2="260.5" stroke="rgb(0,0,0)"  stroke-width="2.0"/>
<line x1="179.2" y1="260.5" x2="156.1" y2="274.0" stroke="rgb(0,0,0)"  stroke-width="2.0"/>
<line x1="133.5" y1="274.3" x2="109.5" y2="261.2" stroke="rgb(0,0,0)"  stroke-width="2.0"/>
<line x1="73.9" y1="161.0" x2="108.2" y2="140.7" stroke="rgb(0,0,0)"  stroke-width="2.0"/>
<line x1="82.7" y1="164.2" x2="106.7" y2="150.0" stroke="rgb(0,0,0)"  stroke-width="2.0"/>
<line x1="108.2" y1="140.7" x2="143.2" y2="160.3" stroke="rgb(0,0,0)"  stroke-width="2.0"/>
<line x1="109.0" y1="221.0" x2="74.3" y2="201.0" stroke="rgb(0,0,0)"  stroke-width="2.0"/>
<line x1="107.4" y1="211.8" x2="83.1" y2="197.7" stroke="rgb(0,0,0)"  stroke-width="2.0"/>
<line x1="74.3" y1="201.0" x2="73.9" y2="161.0" stroke="rgb(0,0,0)"  stroke-width="2.0"/>
<line x1="153.6" y1="86.4" x2="177.5" y2="99.8" stroke="rgb(0,0,0)"  stroke-width="2.0"/>
<line x1="177.5" y1="99.8" x2="177.9" y2="140.0" stroke="rgb(0,0,0)"  stroke-width="2.0"/>
<line x1="108.2" y1="140.7" x2="107.8" y2="100.6" stroke="rgb(0,0,0)"  stroke-width="2.0"/>
<line x1="107.8" y1="100.6" x2="131.1" y2="86.6" stroke="rgb(0,0,0)"  stroke-width="2.0"/>
<text x="208.028383" y="288.163872" fill="rgb(255,12,12)"  stroke="rgb(255,12,12)" stroke-width="1" font-size="16" >O</text>
<text x="138.906669" y="288.559995" fill="rgb(12,12,255)"  stroke="rgb(12,12,255)" stroke-width="1" font-size="16" >N</text>
<text x="139.506496" y="328.555497" fill="rgb(191,191,191)"  stroke="rgb(191,191,191)" stroke-width="1" font-size="16" >H</text>
<text x="69.160898" y="289.783620" fill="rgb(255,12,12)"  stroke="rgb(255,12,12)" stroke-width="1" font-size="16" >O</text>
<text x="34.000000" y="229.570572" fill="rgb(191,191,191)"  stroke="rgb(191,191,191)" stroke-width="1" font-size="16" >H</text>
<text x="66.881062" y="88.978891" fill="rgb(255,12,12)"  stroke="rgb(255,12,12)" stroke-width="1" font-size="16" >O</text>
<text x="136.307272" y="87.997093" fill="rgb(12,12,255)"  stroke="rgb(12,12,255)" stroke-width="1" font-size="16" >N</text>
<text x="135.825052" y="48.000000" fill="rgb(191,191,191)"  stroke="rgb(191,191,191)" stroke-width="1" font-size="16" >H</text>
<text x="205.949001" y="87.458488" fill="rgb(255,12,12)"  stroke="rgb(255,12,12)" stroke-width="1" font-size="16" >O</text>
<text x="442.825664" y="261.061363" fill="rgb(191,191,191)"  stroke="rgb(191,191,191)" stroke-width="1" font-size="16" >H</text>
<text x="285.160227" y="91.604371" fill="rgb(191,191,191)"  stroke="rgb(191,191,191)" stroke-width="1" font-size="16" >H</text>
<text x="363.714943" y="124.906354" fill="rgb(191,191,191)"  stroke="rgb(191,191,191)" stroke-width="1" font-size="16" >H</text>
<text x="403.512820" y="201.863416" fill="rgb(178,178,0)"  stroke="rgb(178,178,0)" stroke-width="1" font-size="16" >S</text>
<text x="363.935556" y="297.159745" fill="rgb(191,191,191)"  stroke="rgb(191,191,191)" stroke-width="1" font-size="16" >H</text>
<text x="285.380839" y="263.857762" fill="rgb(191,191,191)"  stroke="rgb(191,191,191)" stroke-width="1" font-size="16" >H</text>
<text x="280.097274" y="155.176733" fill="rgb(178,178,0)"  stroke="rgb(178,178,0)" stroke-width="1" font-size="16" >S</text>
</svg>
</g>
<text font-size="18.000000" fill ="black" font-family="sans-serif"
x="10.000000" y="20.000000" ></text>
</svg>
