<?xml version="1.0"?>
<svg version="1.1" id="topsvg"
xmlns="http://www.w3.org/2000/svg" xmlns:xlink="http://www.w3.org/1999/xlink"
xmlns:cml="http://www.xml-cml.org/schema" x="0" y="0" width="200px" height="200px" viewBox="0 0 100 100">
<title> - Open Babel Depiction</title>
<rect x="0" y="0" width="100" height="100" fill="white"/>
<g transform="translate(0,0)">
<svg width="100" height="100" x="0" y="0" viewBox="0 0 439.698 597.912"
font-family="sans-serif" stroke="rgb(0,0,0)" stroke-width="2"  stroke-linecap="round">
<line x1="212.3" y1="210.5" x2="191.4" y2="246.6" stroke="rgb(0,0,0)"  stroke-width="2.0"/>
<line x1="150.0" y1="250.9" x2="122.1" y2="220.0" stroke="rgb(0,0,0)"  stroke-width="2.0"/>
<line x1="122.1" y1="220.0" x2="103.0" y2="198.7" stroke="rgb(0,0,0)"  stroke-width="2.0"/>
<line x1="119.0" y1="222.8" x2="99.9" y2="201.5" stroke="rgb(0,0,0)"  stroke-width="2.0"/>
<line x1="125.3" y1="217.2" x2="106.1" y2="195.9" stroke="rgb(0,0,0)"  stroke-width="2.0"/>
<line x1="141.4" y1="291.7" x2="103.3" y2="308.6" stroke="rgb(0,0,0)"  stroke-width="2.0"/>
<line x1="103.3" y1="308.6" x2="77.1" y2="320.3" stroke="rgb(0,0,0)"  stroke-width="2.0"/>
<line x1="105.0" y1="312.5" x2="78.8" y2="324.1" stroke="rgb(0,0,0)"  stroke-width="2.0"/>
<line x1="101.6" y1="304.8" x2="75.4" y2="316.4" stroke="rgb(0,0,0)"  stroke-width="2.0"/>
<line x1="177.4" y1="312.5" x2="181.8" y2="353.9" stroke="rgb(0,0,0)"  stroke-width="2.0"/>
<line x1="183.5" y1="356.4" x2="149.8" y2="380.9" stroke="rgb(0,0,0)"  stroke-width="2.0"/>
<line x1="180.0" y1="351.5" x2="146.3" y2="376.0" stroke="rgb(0,0,0)"  stroke-width="2.0"/>
<line x1="148.1" y1="378.4" x2="152.4" y2="419.8" stroke="rgb(0,0,0)"  stroke-width="2.0"/>
<line x1="121.5" y1="447.7" x2="80.7" y2="439.1" stroke="rgb(0,0,0)"  stroke-width="2.0"/>
<line x1="80.7" y1="439.1" x2="52.7" y2="433.1" stroke="rgb(0,0,0)"  stroke-width="2.0"/>
<line x1="79.9" y1="443.2" x2="51.8" y2="437.2" stroke="rgb(0,0,0)"  stroke-width="2.0"/>
<line x1="81.6" y1="434.9" x2="53.6" y2="429.0" stroke="rgb(0,0,0)"  stroke-width="2.0"/>
<line x1="138.4" y1="485.8" x2="117.6" y2="521.8" stroke="rgb(0,0,0)"  stroke-width="2.0"/>
<line x1="117.6" y1="521.8" x2="103.3" y2="546.7" stroke="rgb(0,0,0)"  stroke-width="2.0"/>
<line x1="121.2" y1="523.9" x2="106.9" y2="548.8" stroke="rgb(0,0,0)"  stroke-width="2.0"/>
<line x1="114.0" y1="519.7" x2="99.6" y2="544.6" stroke="rgb(0,0,0)"  stroke-width="2.0"/>
<line x1="179.8" y1="481.4" x2="199.0" y2="502.7" stroke="rgb(0,0,0)"  stroke-width="2.0"/>
<line x1="319.0" y1="173.0" x2="333.3" y2="197.8" stroke="rgb(0,0,0)"  stroke-width="2.0"/>
<line x1="313.8" y1="176.0" x2="328.1" y2="200.8" stroke="rgb(0,0,0)"  stroke-width="2.0"/>
<line x1="350.2" y1="138.4" x2="365.9" y2="138.4" stroke="rgb(0,0,0)"  stroke-width="2.0"/>
<line x1="385.4" y1="127.1" x2="393.2" y2="113.6" stroke="rgb(0,0,0)"  stroke-width="2.0"/>
<line x1="313.8" y1="100.8" x2="328.1" y2="76.0" stroke="rgb(0,0,0)"  stroke-width="2.0"/>
<line x1="319.0" y1="103.8" x2="333.3" y2="79.0" stroke="rgb(0,0,0)"  stroke-width="2.0"/>
<line x1="252.9" y1="78.8" x2="263.4" y2="52.1" stroke="rgb(0,0,0)"  stroke-width="2.0"/>
<line x1="170.1" y1="110.8" x2="156.2" y2="85.7" stroke="rgb(0,0,0)"  stroke-width="2.0"/>
<line x1="175.3" y1="107.9" x2="161.5" y2="82.8" stroke="rgb(0,0,0)"  stroke-width="2.0"/>
<line x1="142.5" y1="131.8" x2="127.0" y2="129.1" stroke="rgb(0,0,0)"  stroke-width="2.0"/>
<line x1="109.7" y1="114.8" x2="104.2" y2="100.1" stroke="rgb(0,0,0)"  stroke-width="2.0"/>
<line x1="165.6" y1="165.1" x2="144.2" y2="184.2" stroke="rgb(0,0,0)"  stroke-width="2.0"/>
<line x1="161.6" y1="160.7" x2="140.2" y2="179.8" stroke="rgb(0,0,0)"  stroke-width="2.0"/>
<line x1="141.4" y1="291.7" x2="177.4" y2="312.5" stroke="rgb(0,0,0)"  stroke-width="2.0"/>
<line x1="150.2" y1="288.5" x2="175.8" y2="303.3" stroke="rgb(0,0,0)"  stroke-width="2.0"/>
<line x1="177.4" y1="312.5" x2="198.7" y2="293.3" stroke="rgb(0,0,0)"  stroke-width="2.0"/>
<line x1="203.1" y1="272.8" x2="191.4" y2="246.6" stroke="rgb(0,0,0)"  stroke-width="2.0"/>
<line x1="191.4" y1="246.6" x2="150.0" y2="250.9" stroke="rgb(0,0,0)"  stroke-width="2.0"/>
<line x1="186.2" y1="254.4" x2="156.7" y2="257.5" stroke="rgb(0,0,0)"  stroke-width="2.0"/>
<line x1="150.0" y1="250.9" x2="141.4" y2="291.7" stroke="rgb(0,0,0)"  stroke-width="2.0"/>
<line x1="138.4" y1="485.8" x2="179.8" y2="481.4" stroke="rgb(0,0,0)"  stroke-width="2.0"/>
<line x1="143.6" y1="478.0" x2="173.1" y2="474.9" stroke="rgb(0,0,0)"  stroke-width="2.0"/>
<line x1="179.8" y1="481.4" x2="185.8" y2="453.4" stroke="rgb(0,0,0)"  stroke-width="2.0"/>
<line x1="177.3" y1="434.2" x2="152.4" y2="419.8" stroke="rgb(0,0,0)"  stroke-width="2.0"/>
<line x1="152.4" y1="419.8" x2="121.5" y2="447.7" stroke="rgb(0,0,0)"  stroke-width="2.0"/>
<line x1="152.8" y1="429.2" x2="130.8" y2="449.1" stroke="rgb(0,0,0)"  stroke-width="2.0"/>
<line x1="121.5" y1="447.7" x2="138.4" y2="485.8" stroke="rgb(0,0,0)"  stroke-width="2.0"/>
<line x1="274.7" y1="174.5" x2="253.9" y2="138.4" stroke="rgb(0,0,0)"  stroke-width="2.0"/>
<line x1="265.5" y1="172.9" x2="250.7" y2="147.2" stroke="rgb(0,0,0)"  stroke-width="2.0"/>
<line x1="253.9" y1="138.4" x2="212.3" y2="138.4" stroke="rgb(0,0,0)"  stroke-width="2.0"/>
<line x1="212.3" y1="138.4" x2="191.4" y2="174.5" stroke="rgb(0,0,0)"  stroke-width="2.0"/>
<line x1="215.5" y1="147.2" x2="200.7" y2="172.9" stroke="rgb(0,0,0)"  stroke-width="2.0"/>
<line x1="191.4" y1="174.5" x2="212.3" y2="210.5" stroke="rgb(0,0,0)"  stroke-width="2.0"/>
<line x1="212.3" y1="210.5" x2="253.9" y2="210.5" stroke="rgb(0,0,0)"  stroke-width="2.0"/>
<line x1="218.3" y1="203.3" x2="247.9" y2="203.3" stroke="rgb(0,0,0)"  stroke-width="2.0"/>
<line x1="253.9" y1="210.5" x2="274.7" y2="174.5" stroke="rgb(0,0,0)"  stroke-width="2.0"/>
<line x1="316.4" y1="102.3" x2="274.7" y2="102.3" stroke="rgb(0,0,0)"  stroke-width="2.0"/>
<line x1="274.7" y1="102.3" x2="253.9" y2="138.4" stroke="rgb(0,0,0)"  stroke-width="2.0"/>
<line x1="274.7" y1="174.5" x2="316.4" y2="174.5" stroke="rgb(0,0,0)"  stroke-width="2.0"/>
<line x1="316.4" y1="174.5" x2="330.7" y2="149.6" stroke="rgb(0,0,0)"  stroke-width="2.0"/>
<line x1="330.7" y1="127.1" x2="316.4" y2="102.3" stroke="rgb(0,0,0)"  stroke-width="2.0"/>
<line x1="220.9" y1="81.2" x2="202.8" y2="107.7" stroke="rgb(0,0,0)"  stroke-width="2.0"/>
<line x1="223.5" y1="90.2" x2="212.1" y2="106.8" stroke="rgb(0,0,0)"  stroke-width="2.0"/>
<line x1="202.8" y1="107.7" x2="212.3" y2="138.4" stroke="rgb(0,0,0)"  stroke-width="2.0"/>
<line x1="274.7" y1="102.3" x2="252.9" y2="78.8" stroke="rgb(0,0,0)"  stroke-width="2.0"/>
<line x1="265.4" y1="102.8" x2="251.7" y2="88.1" stroke="rgb(0,0,0)"  stroke-width="2.0"/>
<line x1="252.9" y1="78.8" x2="220.9" y2="81.2" stroke="rgb(0,0,0)"  stroke-width="2.0"/>
<line x1="158.9" y1="146.4" x2="163.6" y2="162.9" stroke="rgb(0,0,0)"  stroke-width="2.0"/>
<line x1="163.6" y1="162.9" x2="191.4" y2="174.5" stroke="rgb(0,0,0)"  stroke-width="2.0"/>
<line x1="202.8" y1="107.7" x2="172.7" y2="109.4" stroke="rgb(0,0,0)"  stroke-width="2.0"/>
<line x1="172.7" y1="109.4" x2="162.8" y2="123.4" stroke="rgb(0,0,0)"  stroke-width="2.0"/>
<text x="331.220336" y="218.523591" fill="rgb(255,12,12)"  stroke="rgb(255,12,12)" stroke-width="1" font-size="16" >O</text>
<text x="331.220336" y="146.380296" fill="rgb(12,12,255)"  stroke="rgb(12,12,255)" stroke-width="1" font-size="16" >N</text>
<text x="372.872287" y="146.380296" fill="rgb(255,12,12)"  stroke="rgb(255,12,12)" stroke-width="1" font-size="16" >O</text>
<text x="395.698263" y="110.308648" fill="rgb(102,102,102)"  stroke="rgb(102,102,102)" stroke-width="1" font-size="16" >CH</text>
<text x="419.698263" y="113.988648" fill="rgb(102,102,102)"  stroke="rgb(102,102,102)" stroke-width="1" font-size="13" >3</text>
<text x="331.220336" y="74.237000" fill="rgb(255,12,12)"  stroke="rgb(255,12,12)" stroke-width="1" font-size="16" >O</text>
<text x="262.121415" y="48.000000" fill="rgb(191,191,191)"  stroke="rgb(191,191,191)" stroke-width="1" font-size="16" >H</text>
<text x="146.576159" y="80.919683" fill="rgb(255,12,12)"  stroke="rgb(255,12,12)" stroke-width="1" font-size="16" >O</text>
<text x="149.267482" y="141.951975" fill="rgb(12,12,255)"  stroke="rgb(12,12,255)" stroke-width="1" font-size="16" >N</text>
<text x="108.206136" y="134.962633" fill="rgb(255,12,12)"  stroke="rgb(255,12,12)" stroke-width="1" font-size="16" >O</text>
<text x="73.728412" y="95.907793" fill="rgb(102,102,102)"  stroke="rgb(102,102,102)" stroke-width="1" font-size="16" >H</text>
<text x="85.728412" y="99.587793" fill="rgb(102,102,102)"  stroke="rgb(102,102,102)" stroke-width="1" font-size="13" >3</text>
<text x="92.228412" y="95.907793" fill="rgb(102,102,102)"  stroke="rgb(102,102,102)" stroke-width="1" font-size="16" >C</text>
<text x="126.535299" y="198.656752" fill="rgb(255,12,12)"  stroke="rgb(255,12,12)" stroke-width="1" font-size="16" >O</text>
<text x="88.273540" y="197.042189" fill="rgb(12,12,255)"  stroke="rgb(12,12,255)" stroke-width="1" font-size="16" >N</text>
<text x="59.252902" y="333.573558" fill="rgb(12,12,255)"  stroke="rgb(12,12,255)" stroke-width="1" font-size="16" >N</text>
<text x="202.379883" y="292.646189" fill="rgb(178,178,0)"  stroke="rgb(178,178,0)" stroke-width="1" font-size="16" >S</text>
<text x="34.000000" y="438.397481" fill="rgb(12,12,255)"  stroke="rgb(12,12,255)" stroke-width="1" font-size="16" >N</text>
<text x="90.772936" y="565.911582" fill="rgb(12,12,255)"  stroke="rgb(12,12,255)" stroke-width="1" font-size="16" >N</text>
<text x="201.719259" y="520.367905" fill="rgb(191,191,191)"  stroke="rgb(191,191,191)" stroke-width="1" font-size="16" >H</text>
<text x="182.508591" y="448.672717" fill="rgb(178,178,0)"  stroke="rgb(178,178,0)" stroke-width="1" font-size="16" >S</text>
</svg>
</g>
<text font-size="18.000000" fill ="black" font-family="sans-serif"
x="10.000000" y="20.000000" ></text>
</svg>
