<?xml version="1.0"?>
<svg version="1.1" id="topsvg"
xmlns="http://www.w3.org/2000/svg" xmlns:xlink="http://www.w3.org/1999/xlink"
xmlns:cml="http://www.xml-cml.org/schema" x="0" y="0" width="200px" height="200px" viewBox="0 0 100 100">
<title> - Open Babel Depiction</title>
<rect x="0" y="0" width="100" height="100" fill="white"/>
<g transform="translate(0,0)">
<svg width="100" height="100" x="0" y="0" viewBox="0 0 440.306 562.654"
font-family="sans-serif" stroke="rgb(0,0,0)" stroke-width="2"  stroke-linecap="round">
<line x1="212.6" y1="210.8" x2="191.7" y2="246.9" stroke="rgb(0,0,0)"  stroke-width="2.0"/>
<line x1="150.2" y1="251.3" x2="131.0" y2="230.0" stroke="rgb(0,0,0)"  stroke-width="2.0"/>
<line x1="141.5" y1="292.1" x2="103.4" y2="309.1" stroke="rgb(0,0,0)"  stroke-width="2.0"/>
<line x1="103.4" y1="309.1" x2="77.2" y2="320.8" stroke="rgb(0,0,0)"  stroke-width="2.0"/>
<line x1="105.1" y1="312.9" x2="78.9" y2="324.6" stroke="rgb(0,0,0)"  stroke-width="2.0"/>
<line x1="101.7" y1="305.2" x2="75.5" y2="316.9" stroke="rgb(0,0,0)"  stroke-width="2.0"/>
<line x1="177.7" y1="313.0" x2="182.0" y2="354.5" stroke="rgb(0,0,0)"  stroke-width="2.0"/>
<line x1="183.8" y1="356.9" x2="150.0" y2="381.4" stroke="rgb(0,0,0)"  stroke-width="2.0"/>
<line x1="180.3" y1="352.0" x2="146.5" y2="376.6" stroke="rgb(0,0,0)"  stroke-width="2.0"/>
<line x1="148.3" y1="379.0" x2="152.6" y2="420.5" stroke="rgb(0,0,0)"  stroke-width="2.0"/>
<line x1="121.6" y1="448.4" x2="80.8" y2="439.7" stroke="rgb(0,0,0)"  stroke-width="2.0"/>
<line x1="80.8" y1="439.7" x2="52.7" y2="433.8" stroke="rgb(0,0,0)"  stroke-width="2.0"/>
<line x1="79.9" y1="443.8" x2="51.8" y2="437.9" stroke="rgb(0,0,0)"  stroke-width="2.0"/>
<line x1="81.7" y1="435.6" x2="53.6" y2="429.7" stroke="rgb(0,0,0)"  stroke-width="2.0"/>
<line x1="138.6" y1="486.5" x2="124.2" y2="511.4" stroke="rgb(0,0,0)"  stroke-width="2.0"/>
<line x1="180.1" y1="482.2" x2="199.3" y2="503.5" stroke="rgb(0,0,0)"  stroke-width="2.0"/>
<line x1="319.5" y1="173.2" x2="333.8" y2="198.1" stroke="rgb(0,0,0)"  stroke-width="2.0"/>
<line x1="314.3" y1="176.2" x2="328.6" y2="201.1" stroke="rgb(0,0,0)"  stroke-width="2.0"/>
<line x1="350.7" y1="138.5" x2="366.4" y2="138.5" stroke="rgb(0,0,0)"  stroke-width="2.0"/>
<line x1="385.9" y1="127.3" x2="393.8" y2="113.7" stroke="rgb(0,0,0)"  stroke-width="2.0"/>
<line x1="314.3" y1="100.9" x2="328.6" y2="76.0" stroke="rgb(0,0,0)"  stroke-width="2.0"/>
<line x1="319.5" y1="103.9" x2="333.8" y2="79.0" stroke="rgb(0,0,0)"  stroke-width="2.0"/>
<line x1="253.3" y1="78.8" x2="263.8" y2="52.1" stroke="rgb(0,0,0)"  stroke-width="2.0"/>
<line x1="170.3" y1="110.9" x2="156.4" y2="85.8" stroke="rgb(0,0,0)"  stroke-width="2.0"/>
<line x1="175.6" y1="108.0" x2="161.7" y2="82.9" stroke="rgb(0,0,0)"  stroke-width="2.0"/>
<line x1="142.6" y1="131.9" x2="127.1" y2="129.3" stroke="rgb(0,0,0)"  stroke-width="2.0"/>
<line x1="109.8" y1="114.9" x2="104.3" y2="100.2" stroke="rgb(0,0,0)"  stroke-width="2.0"/>
<line x1="165.8" y1="165.4" x2="144.4" y2="184.5" stroke="rgb(0,0,0)"  stroke-width="2.0"/>
<line x1="161.8" y1="160.9" x2="140.4" y2="180.0" stroke="rgb(0,0,0)"  stroke-width="2.0"/>
<line x1="141.5" y1="292.1" x2="177.7" y2="313.0" stroke="rgb(0,0,0)"  stroke-width="2.0"/>
<line x1="150.3" y1="288.9" x2="176.1" y2="303.7" stroke="rgb(0,0,0)"  stroke-width="2.0"/>
<line x1="177.7" y1="313.0" x2="199.0" y2="293.8" stroke="rgb(0,0,0)"  stroke-width="2.0"/>
<line x1="203.4" y1="273.2" x2="191.7" y2="246.9" stroke="rgb(0,0,0)"  stroke-width="2.0"/>
<line x1="191.7" y1="246.9" x2="150.2" y2="251.3" stroke="rgb(0,0,0)"  stroke-width="2.0"/>
<line x1="186.5" y1="254.7" x2="156.9" y2="257.8" stroke="rgb(0,0,0)"  stroke-width="2.0"/>
<line x1="150.2" y1="251.3" x2="141.5" y2="292.1" stroke="rgb(0,0,0)"  stroke-width="2.0"/>
<line x1="138.6" y1="486.5" x2="180.1" y2="482.2" stroke="rgb(0,0,0)"  stroke-width="2.0"/>
<line x1="143.8" y1="478.7" x2="173.4" y2="475.6" stroke="rgb(0,0,0)"  stroke-width="2.0"/>
<line x1="180.1" y1="482.2" x2="186.1" y2="454.1" stroke="rgb(0,0,0)"  stroke-width="2.0"/>
<line x1="177.5" y1="434.8" x2="152.6" y2="420.5" stroke="rgb(0,0,0)"  stroke-width="2.0"/>
<line x1="152.6" y1="420.5" x2="121.6" y2="448.4" stroke="rgb(0,0,0)"  stroke-width="2.0"/>
<line x1="153.0" y1="429.9" x2="130.9" y2="449.7" stroke="rgb(0,0,0)"  stroke-width="2.0"/>
<line x1="121.6" y1="448.4" x2="138.6" y2="486.5" stroke="rgb(0,0,0)"  stroke-width="2.0"/>
<line x1="275.1" y1="174.7" x2="254.3" y2="138.5" stroke="rgb(0,0,0)"  stroke-width="2.0"/>
<line x1="265.9" y1="173.1" x2="251.0" y2="147.3" stroke="rgb(0,0,0)"  stroke-width="2.0"/>
<line x1="254.3" y1="138.5" x2="212.6" y2="138.5" stroke="rgb(0,0,0)"  stroke-width="2.0"/>
<line x1="212.6" y1="138.5" x2="191.7" y2="174.7" stroke="rgb(0,0,0)"  stroke-width="2.0"/>
<line x1="215.8" y1="147.3" x2="200.9" y2="173.1" stroke="rgb(0,0,0)"  stroke-width="2.0"/>
<line x1="191.7" y1="174.7" x2="212.6" y2="210.8" stroke="rgb(0,0,0)"  stroke-width="2.0"/>
<line x1="212.6" y1="210.8" x2="254.3" y2="210.8" stroke="rgb(0,0,0)"  stroke-width="2.0"/>
<line x1="218.6" y1="203.6" x2="248.3" y2="203.6" stroke="rgb(0,0,0)"  stroke-width="2.0"/>
<line x1="254.3" y1="210.8" x2="275.1" y2="174.7" stroke="rgb(0,0,0)"  stroke-width="2.0"/>
<line x1="316.9" y1="102.4" x2="275.1" y2="102.4" stroke="rgb(0,0,0)"  stroke-width="2.0"/>
<line x1="275.1" y1="102.4" x2="254.3" y2="138.5" stroke="rgb(0,0,0)"  stroke-width="2.0"/>
<line x1="275.1" y1="174.7" x2="316.9" y2="174.7" stroke="rgb(0,0,0)"  stroke-width="2.0"/>
<line x1="316.9" y1="174.7" x2="331.2" y2="149.8" stroke="rgb(0,0,0)"  stroke-width="2.0"/>
<line x1="331.2" y1="127.3" x2="316.9" y2="102.4" stroke="rgb(0,0,0)"  stroke-width="2.0"/>
<line x1="221.2" y1="81.2" x2="203.1" y2="107.8" stroke="rgb(0,0,0)"  stroke-width="2.0"/>
<line x1="223.8" y1="90.3" x2="212.4" y2="106.9" stroke="rgb(0,0,0)"  stroke-width="2.0"/>
<line x1="203.1" y1="107.8" x2="212.6" y2="138.5" stroke="rgb(0,0,0)"  stroke-width="2.0"/>
<line x1="275.1" y1="102.4" x2="253.3" y2="78.8" stroke="rgb(0,0,0)"  stroke-width="2.0"/>
<line x1="265.8" y1="102.9" x2="252.1" y2="88.1" stroke="rgb(0,0,0)"  stroke-width="2.0"/>
<line x1="253.3" y1="78.8" x2="221.2" y2="81.2" stroke="rgb(0,0,0)"  stroke-width="2.0"/>
<line x1="159.1" y1="146.6" x2="163.8" y2="163.1" stroke="rgb(0,0,0)"  stroke-width="2.0"/>
<line x1="163.8" y1="163.1" x2="191.7" y2="174.7" stroke="rgb(0,0,0)"  stroke-width="2.0"/>
<line x1="203.1" y1="107.8" x2="172.9" y2="109.5" stroke="rgb(0,0,0)"  stroke-width="2.0"/>
<line x1="172.9" y1="109.5" x2="163.0" y2="123.5" stroke="rgb(0,0,0)"  stroke-width="2.0"/>
<text x="331.722196" y="218.811522" fill="rgb(255,12,12)"  stroke="rgb(255,12,12)" stroke-width="1" font-size="16" >O</text>
<text x="331.722196" y="146.546412" fill="rgb(12,12,255)"  stroke="rgb(12,12,255)" stroke-width="1" font-size="16" >N</text>
<text x="373.444477" y="146.546412" fill="rgb(255,12,12)"  stroke="rgb(255,12,12)" stroke-width="1" font-size="16" >O</text>
<text x="396.305617" y="110.413857" fill="rgb(102,102,102)"  stroke="rgb(102,102,102)" stroke-width="1" font-size="16" >CH</text>
<text x="420.305617" y="114.093857" fill="rgb(102,102,102)"  stroke="rgb(102,102,102)" stroke-width="1" font-size="13" >3</text>
<text x="331.722196" y="74.281302" fill="rgb(255,12,12)"  stroke="rgb(255,12,12)" stroke-width="1" font-size="16" >O</text>
<text x="262.506601" y="48.000000" fill="rgb(191,191,191)"  stroke="rgb(191,191,191)" stroke-width="1" font-size="16" >H</text>
<text x="146.766245" y="80.975268" fill="rgb(255,12,12)"  stroke="rgb(255,12,12)" stroke-width="1" font-size="16" >O</text>
<text x="149.462113" y="142.110614" fill="rgb(12,12,255)"  stroke="rgb(12,12,255)" stroke-width="1" font-size="16" >N</text>
<text x="108.331434" y="135.109470" fill="rgb(255,12,12)"  stroke="rgb(255,12,12)" stroke-width="1" font-size="16" >O</text>
<text x="73.829264" y="95.988686" fill="rgb(102,102,102)"  stroke="rgb(102,102,102)" stroke-width="1" font-size="16" >H</text>
<text x="85.829264" y="99.668686" fill="rgb(102,102,102)"  stroke="rgb(102,102,102)" stroke-width="1" font-size="13" >3</text>
<text x="92.329264" y="95.988686" fill="rgb(102,102,102)"  stroke="rgb(102,102,102)" stroke-width="1" font-size="16" >C</text>
<text x="126.691545" y="198.911138" fill="rgb(255,12,12)"  stroke="rgb(255,12,12)" stroke-width="1" font-size="16" >O</text>
<text x="104.282837" y="228.299546" fill="rgb(255,12,12)"  stroke="rgb(255,12,12)" stroke-width="1" font-size="16" >HO</text>
<text x="59.295542" y="334.055752" fill="rgb(12,12,255)"  stroke="rgb(12,12,255)" stroke-width="1" font-size="16" >N</text>
<text x="202.664194" y="293.059277" fill="rgb(178,178,0)"  stroke="rgb(178,178,0)" stroke-width="1" font-size="16" >S</text>
<text x="34.000000" y="439.056672" fill="rgb(12,12,255)"  stroke="rgb(12,12,255)" stroke-width="1" font-size="16" >N</text>
<text x="99.729938" y="530.653527" fill="rgb(255,12,12)"  stroke="rgb(255,12,12)" stroke-width="1" font-size="16" >HO</text>
<text x="202.002455" y="521.165503" fill="rgb(191,191,191)"  stroke="rgb(191,191,191)" stroke-width="1" font-size="16" >H</text>
<text x="182.759350" y="449.349257" fill="rgb(178,178,0)"  stroke="rgb(178,178,0)" stroke-width="1" font-size="16" >S</text>
</svg>
</g>
<text font-size="18.000000" fill ="black" font-family="sans-serif"
x="10.000000" y="20.000000" ></text>
</svg>
