<?xml version="1.0"?>
<svg version="1.1" id="topsvg"
xmlns="http://www.w3.org/2000/svg" xmlns:xlink="http://www.w3.org/1999/xlink"
xmlns:cml="http://www.xml-cml.org/schema" x="0" y="0" width="200px" height="200px" viewBox="0 0 100 100">
<title> - Open Babel Depiction</title>
<rect x="0" y="0" width="100" height="100" fill="white"/>
<g transform="translate(0,0)">
<svg width="100" height="100" x="0" y="0" viewBox="0 0 509.548 380.712"
font-family="sans-serif" stroke="rgb(0,0,0)" stroke-width="2"  stroke-linecap="round">
<line x1="214.3" y1="200.5" x2="248.9" y2="220.3" stroke="rgb(0,0,0)"  stroke-width="2.0"/>
<line x1="253.3" y1="259.9" x2="223.8" y2="286.8" stroke="rgb(0,0,0)"  stroke-width="2.0"/>
<line x1="223.8" y1="286.8" x2="203.9" y2="304.8" stroke="rgb(0,0,0)"  stroke-width="2.0"/>
<line x1="226.6" y1="289.9" x2="206.7" y2="307.9" stroke="rgb(0,0,0)"  stroke-width="2.0"/>
<line x1="220.9" y1="283.6" x2="201.1" y2="301.7" stroke="rgb(0,0,0)"  stroke-width="2.0"/>
<line x1="292.3" y1="268.0" x2="308.7" y2="304.4" stroke="rgb(0,0,0)"  stroke-width="2.0"/>
<line x1="308.7" y1="304.4" x2="319.8" y2="328.9" stroke="rgb(0,0,0)"  stroke-width="2.0"/>
<line x1="312.6" y1="302.6" x2="323.6" y2="327.1" stroke="rgb(0,0,0)"  stroke-width="2.0"/>
<line x1="304.9" y1="306.1" x2="316.0" y2="330.6" stroke="rgb(0,0,0)"  stroke-width="2.0"/>
<line x1="312.1" y1="233.4" x2="351.7" y2="229.0" stroke="rgb(0,0,0)"  stroke-width="2.0"/>
<line x1="414.9" y1="242.1" x2="438.3" y2="255.4" stroke="rgb(0,0,0)"  stroke-width="2.0"/>
<line x1="410.5" y1="202.5" x2="440.0" y2="175.6" stroke="rgb(0,0,0)"  stroke-width="2.0"/>
<line x1="440.0" y1="175.6" x2="459.9" y2="157.5" stroke="rgb(0,0,0)"  stroke-width="2.0"/>
<line x1="437.2" y1="172.5" x2="457.1" y2="154.4" stroke="rgb(0,0,0)"  stroke-width="2.0"/>
<line x1="442.9" y1="178.7" x2="462.8" y2="160.6" stroke="rgb(0,0,0)"  stroke-width="2.0"/>
<line x1="371.5" y1="194.4" x2="355.1" y2="158.0" stroke="rgb(0,0,0)"  stroke-width="2.0"/>
<line x1="355.1" y1="158.0" x2="344.0" y2="133.5" stroke="rgb(0,0,0)"  stroke-width="2.0"/>
<line x1="351.3" y1="159.7" x2="340.2" y2="135.2" stroke="rgb(0,0,0)"  stroke-width="2.0"/>
<line x1="358.9" y1="156.3" x2="347.9" y2="131.8" stroke="rgb(0,0,0)"  stroke-width="2.0"/>
<line x1="113.0" y1="221.4" x2="113.1" y2="248.4" stroke="rgb(0,0,0)"  stroke-width="2.0"/>
<line x1="107.0" y1="221.4" x2="107.1" y2="248.4" stroke="rgb(0,0,0)"  stroke-width="2.0"/>
<line x1="64.4" y1="208.2" x2="52.5" y2="215.2" stroke="rgb(0,0,0)"  stroke-width="2.0"/>
<line x1="41.5" y1="234.8" x2="41.6" y2="248.6" stroke="rgb(0,0,0)"  stroke-width="2.0"/>
<line x1="73.4" y1="163.8" x2="49.8" y2="150.5" stroke="rgb(0,0,0)"  stroke-width="2.0"/>
<line x1="76.3" y1="158.6" x2="52.8" y2="145.3" stroke="rgb(0,0,0)"  stroke-width="2.0"/>
<line x1="109.7" y1="100.8" x2="86.2" y2="87.5" stroke="rgb(0,0,0)"  stroke-width="2.0"/>
<line x1="210.5" y1="80.1" x2="210.3" y2="53.1" stroke="rgb(0,0,0)"  stroke-width="2.0"/>
<line x1="216.5" y1="80.1" x2="216.3" y2="53.1" stroke="rgb(0,0,0)"  stroke-width="2.0"/>
<line x1="259.7" y1="93.4" x2="272.0" y2="86.2" stroke="rgb(0,0,0)"  stroke-width="2.0"/>
<line x1="280.9" y1="66.8" x2="278.4" y2="52.8" stroke="rgb(0,0,0)"  stroke-width="2.0"/>
<line x1="250.2" y1="137.8" x2="273.7" y2="151.1" stroke="rgb(0,0,0)"  stroke-width="2.0"/>
<line x1="247.3" y1="143.0" x2="270.7" y2="156.3" stroke="rgb(0,0,0)"  stroke-width="2.0"/>
<line x1="292.3" y1="268.0" x2="312.1" y2="233.4" stroke="rgb(0,0,0)"  stroke-width="2.0"/>
<line x1="289.0" y1="259.2" x2="302.9" y2="235.0" stroke="rgb(0,0,0)"  stroke-width="2.0"/>
<line x1="312.1" y1="233.4" x2="294.0" y2="213.5" stroke="rgb(0,0,0)"  stroke-width="2.0"/>
<line x1="273.4" y1="209.2" x2="248.9" y2="220.3" stroke="rgb(0,0,0)"  stroke-width="2.0"/>
<line x1="248.9" y1="220.3" x2="253.3" y2="259.9" stroke="rgb(0,0,0)"  stroke-width="2.0"/>
<line x1="256.7" y1="225.4" x2="259.8" y2="253.2" stroke="rgb(0,0,0)"  stroke-width="2.0"/>
<line x1="253.3" y1="259.9" x2="292.3" y2="268.0" stroke="rgb(0,0,0)"  stroke-width="2.0"/>
<line x1="414.9" y1="242.1" x2="410.5" y2="202.5" stroke="rgb(0,0,0)"  stroke-width="2.0"/>
<line x1="407.1" y1="236.9" x2="404.0" y2="209.2" stroke="rgb(0,0,0)"  stroke-width="2.0"/>
<line x1="410.5" y1="202.5" x2="371.5" y2="194.4" stroke="rgb(0,0,0)"  stroke-width="2.0"/>
<line x1="371.5" y1="194.4" x2="351.7" y2="229.0" stroke="rgb(0,0,0)"  stroke-width="2.0"/>
<line x1="374.8" y1="203.1" x2="361.0" y2="227.4" stroke="rgb(0,0,0)"  stroke-width="2.0"/>
<line x1="351.7" y1="229.0" x2="369.8" y2="248.9" stroke="rgb(0,0,0)"  stroke-width="2.0"/>
<line x1="390.4" y1="253.2" x2="414.9" y2="242.1" stroke="rgb(0,0,0)"  stroke-width="2.0"/>
<line x1="144.7" y1="201.2" x2="144.7" y2="160.6" stroke="rgb(0,0,0)"  stroke-width="2.0"/>
<line x1="151.9" y1="195.2" x2="151.9" y2="166.6" stroke="rgb(0,0,0)"  stroke-width="2.0"/>
<line x1="144.7" y1="160.6" x2="179.2" y2="140.5" stroke="rgb(0,0,0)"  stroke-width="2.0"/>
<line x1="179.2" y1="140.5" x2="214.1" y2="160.6" stroke="rgb(0,0,0)"  stroke-width="2.0"/>
<line x1="180.8" y1="149.7" x2="205.3" y2="163.9" stroke="rgb(0,0,0)"  stroke-width="2.0"/>
<line x1="214.1" y1="160.6" x2="214.3" y2="200.5" stroke="rgb(0,0,0)"  stroke-width="2.0"/>
<line x1="214.3" y1="200.5" x2="179.8" y2="220.7" stroke="rgb(0,0,0)"  stroke-width="2.0"/>
<line x1="205.4" y1="197.3" x2="181.3" y2="211.4" stroke="rgb(0,0,0)"  stroke-width="2.0"/>
<line x1="179.8" y1="220.7" x2="144.7" y2="201.2" stroke="rgb(0,0,0)"  stroke-width="2.0"/>
<line x1="74.8" y1="161.2" x2="109.5" y2="140.9" stroke="rgb(0,0,0)"  stroke-width="2.0"/>
<line x1="109.5" y1="140.9" x2="144.7" y2="160.6" stroke="rgb(0,0,0)"  stroke-width="2.0"/>
<line x1="144.7" y1="201.2" x2="110.0" y2="221.4" stroke="rgb(0,0,0)"  stroke-width="2.0"/>
<line x1="110.0" y1="221.4" x2="86.8" y2="208.1" stroke="rgb(0,0,0)"  stroke-width="2.0"/>
<line x1="75.3" y1="188.6" x2="74.8" y2="161.2" stroke="rgb(0,0,0)"  stroke-width="2.0"/>
<line x1="144.2" y1="80.7" x2="178.9" y2="100.4" stroke="rgb(0,0,0)"  stroke-width="2.0"/>
<line x1="145.8" y1="89.9" x2="170.1" y2="103.7" stroke="rgb(0,0,0)"  stroke-width="2.0"/>
<line x1="178.9" y1="100.4" x2="179.2" y2="140.5" stroke="rgb(0,0,0)"  stroke-width="2.0"/>
<line x1="109.5" y1="140.9" x2="109.7" y2="100.8" stroke="rgb(0,0,0)"  stroke-width="2.0"/>
<line x1="116.7" y1="135.0" x2="116.9" y2="106.8" stroke="rgb(0,0,0)"  stroke-width="2.0"/>
<line x1="109.7" y1="100.8" x2="144.2" y2="80.7" stroke="rgb(0,0,0)"  stroke-width="2.0"/>
<line x1="248.6" y1="112.9" x2="248.7" y2="140.4" stroke="rgb(0,0,0)"  stroke-width="2.0"/>
<line x1="248.7" y1="140.4" x2="214.1" y2="160.6" stroke="rgb(0,0,0)"  stroke-width="2.0"/>
<line x1="178.9" y1="100.4" x2="213.5" y2="80.1" stroke="rgb(0,0,0)"  stroke-width="2.0"/>
<line x1="213.5" y1="80.1" x2="237.2" y2="93.5" stroke="rgb(0,0,0)"  stroke-width="2.0"/>
<text x="104.171456" y="269.434807" fill="rgb(255,12,12)"  stroke="rgb(255,12,12)" stroke-width="1" font-size="16" >O</text>
<text x="69.573198" y="209.587958" fill="rgb(12,12,255)"  stroke="rgb(12,12,255)" stroke-width="1" font-size="16" >N</text>
<text x="35.326272" y="229.811203" fill="rgb(255,12,12)"  stroke="rgb(255,12,12)" stroke-width="1" font-size="16" >O</text>
<text x="37.716653" y="269.581533" fill="rgb(102,102,102)"  stroke="rgb(102,102,102)" stroke-width="1" font-size="16" >CH</text>
<text x="61.716653" y="273.261533" fill="rgb(102,102,102)"  stroke="rgb(102,102,102)" stroke-width="1" font-size="13" >3</text>
<text x="34.000000" y="149.539505" fill="rgb(255,12,12)"  stroke="rgb(255,12,12)" stroke-width="1" font-size="16" >O</text>
<text x="68.882793" y="89.155792" fill="rgb(191,191,191)"  stroke="rgb(191,191,191)" stroke-width="1" font-size="16" >H</text>
<text x="207.256690" y="48.127861" fill="rgb(255,12,12)"  stroke="rgb(255,12,12)" stroke-width="1" font-size="16" >O</text>
<text x="242.514540" y="107.938326" fill="rgb(12,12,255)"  stroke="rgb(12,12,255)" stroke-width="1" font-size="16" >N</text>
<text x="277.199461" y="87.593755" fill="rgb(255,12,12)"  stroke="rgb(255,12,12)" stroke-width="1" font-size="16" >O</text>
<text x="250.179497" y="48.000000" fill="rgb(102,102,102)"  stroke="rgb(102,102,102)" stroke-width="1" font-size="16" >H</text>
<text x="262.179497" y="51.680000" fill="rgb(102,102,102)"  stroke="rgb(102,102,102)" stroke-width="1" font-size="13" >3</text>
<text x="268.679497" y="48.000000" fill="rgb(102,102,102)"  stroke="rgb(102,102,102)" stroke-width="1" font-size="16" >C</text>
<text x="277.490344" y="168.167117" fill="rgb(255,12,12)"  stroke="rgb(255,12,12)" stroke-width="1" font-size="16" >O</text>
<text x="372.562323" y="266.501796" fill="rgb(178,178,0)"  stroke="rgb(178,178,0)" stroke-width="1" font-size="16" >S</text>
<text x="188.261086" y="321.588886" fill="rgb(12,12,255)"  stroke="rgb(12,12,255)" stroke-width="1" font-size="16" >N</text>
<text x="319.130940" y="348.712261" fill="rgb(12,12,255)"  stroke="rgb(12,12,255)" stroke-width="1" font-size="16" >N</text>
<text x="279.247048" y="211.867230" fill="rgb(178,178,0)"  stroke="rgb(178,178,0)" stroke-width="1" font-size="16" >S</text>
<text x="443.553576" y="269.860882" fill="rgb(191,191,191)"  stroke="rgb(191,191,191)" stroke-width="1" font-size="16" >H</text>
<text x="463.548285" y="156.780139" fill="rgb(12,12,255)"  stroke="rgb(12,12,255)" stroke-width="1" font-size="16" >N</text>
<text x="332.678432" y="129.656765" fill="rgb(12,12,255)"  stroke="rgb(12,12,255)" stroke-width="1" font-size="16" >N</text>
</svg>
</g>
<text font-size="18.000000" fill ="black" font-family="sans-serif"
x="10.000000" y="20.000000" ></text>
</svg>
