<?xml version="1.0"?>
<svg version="1.1" id="topsvg"
xmlns="http://www.w3.org/2000/svg" xmlns:xlink="http://www.w3.org/1999/xlink"
xmlns:cml="http://www.xml-cml.org/schema" x="0" y="0" width="200px" height="200px" viewBox="0 0 100 100">
<title> - Open Babel Depiction</title>
<rect x="0" y="0" width="100" height="100" fill="white"/>
<g transform="translate(0,0)">
<svg width="100" height="100" x="0" y="0" viewBox="0 0 417.2 358.984"
font-family="sans-serif" stroke="rgb(0,0,0)" stroke-width="2"  stroke-linecap="round">
<line x1="141.6" y1="143.1" x2="121.6" y2="177.7" stroke="rgb(0,0,0)"  stroke-width="2.0"/>
<line x1="81.8" y1="181.9" x2="63.7" y2="161.8" stroke="rgb(0,0,0)"  stroke-width="2.0"/>
<line x1="60.0" y1="284.3" x2="46.5" y2="307.7" stroke="rgb(0,0,0)"  stroke-width="2.0"/>
<line x1="99.8" y1="280.2" x2="117.8" y2="300.2" stroke="rgb(0,0,0)"  stroke-width="2.0"/>
<line x1="214.0" y1="166.3" x2="208.4" y2="192.7" stroke="rgb(0,0,0)"  stroke-width="2.0"/>
<line x1="208.1" y1="165.0" x2="202.5" y2="191.5" stroke="rgb(0,0,0)"  stroke-width="2.0"/>
<line x1="283.7" y1="173.3" x2="287.9" y2="213.1" stroke="rgb(0,0,0)"  stroke-width="2.0"/>
<line x1="289.1" y1="210.4" x2="313.8" y2="221.3" stroke="rgb(0,0,0)"  stroke-width="2.0"/>
<line x1="286.7" y1="215.8" x2="311.4" y2="226.8" stroke="rgb(0,0,0)"  stroke-width="2.0"/>
<line x1="287.9" y1="213.1" x2="266.1" y2="229.0" stroke="rgb(0,0,0)"  stroke-width="2.0"/>
<line x1="243.7" y1="231.3" x2="230.9" y2="225.6" stroke="rgb(0,0,0)"  stroke-width="2.0"/>
<line x1="297.2" y1="110.0" x2="317.2" y2="75.4" stroke="rgb(0,0,0)"  stroke-width="2.0"/>
<line x1="314.6" y1="76.9" x2="301.1" y2="53.5" stroke="rgb(0,0,0)"  stroke-width="2.0"/>
<line x1="319.8" y1="73.9" x2="306.3" y2="50.5" stroke="rgb(0,0,0)"  stroke-width="2.0"/>
<line x1="317.2" y1="75.4" x2="344.2" y2="75.4" stroke="rgb(0,0,0)"  stroke-width="2.0"/>
<line x1="363.7" y1="64.1" x2="370.7" y2="52.0" stroke="rgb(0,0,0)"  stroke-width="2.0"/>
<line x1="224.8" y1="86.8" x2="230.4" y2="60.4" stroke="rgb(0,0,0)"  stroke-width="2.0"/>
<line x1="230.6" y1="88.0" x2="236.2" y2="61.6" stroke="rgb(0,0,0)"  stroke-width="2.0"/>
<line x1="155.0" y1="79.8" x2="152.2" y2="52.9" stroke="rgb(0,0,0)"  stroke-width="2.0"/>
<line x1="73.5" y1="221.0" x2="108.1" y2="241.0" stroke="rgb(0,0,0)"  stroke-width="2.0"/>
<line x1="82.3" y1="217.8" x2="106.5" y2="231.8" stroke="rgb(0,0,0)"  stroke-width="2.0"/>
<line x1="108.1" y1="241.0" x2="128.2" y2="223.0" stroke="rgb(0,0,0)"  stroke-width="2.0"/>
<line x1="132.5" y1="202.4" x2="121.6" y2="177.7" stroke="rgb(0,0,0)"  stroke-width="2.0"/>
<line x1="121.6" y1="177.7" x2="81.8" y2="181.9" stroke="rgb(0,0,0)"  stroke-width="2.0"/>
<line x1="116.3" y1="185.5" x2="88.5" y2="188.4" stroke="rgb(0,0,0)"  stroke-width="2.0"/>
<line x1="81.8" y1="181.9" x2="73.5" y2="221.0" stroke="rgb(0,0,0)"  stroke-width="2.0"/>
<line x1="60.0" y1="284.3" x2="99.8" y2="280.2" stroke="rgb(0,0,0)"  stroke-width="2.0"/>
<line x1="65.2" y1="276.6" x2="93.1" y2="273.6" stroke="rgb(0,0,0)"  stroke-width="2.0"/>
<line x1="99.8" y1="280.2" x2="108.1" y2="241.0" stroke="rgb(0,0,0)"  stroke-width="2.0"/>
<line x1="73.5" y1="221.0" x2="53.4" y2="239.1" stroke="rgb(0,0,0)"  stroke-width="2.0"/>
<line x1="49.0" y1="259.7" x2="60.0" y2="284.3" stroke="rgb(0,0,0)"  stroke-width="2.0"/>
<line x1="308.2" y1="134.7" x2="297.2" y2="110.0" stroke="rgb(0,0,0)"  stroke-width="2.0"/>
<line x1="297.2" y1="110.0" x2="257.4" y2="114.2" stroke="rgb(0,0,0)"  stroke-width="2.0"/>
<line x1="292.0" y1="117.8" x2="264.1" y2="120.7" stroke="rgb(0,0,0)"  stroke-width="2.0"/>
<line x1="257.4" y1="114.2" x2="249.1" y2="153.3" stroke="rgb(0,0,0)"  stroke-width="2.0"/>
<line x1="249.1" y1="153.3" x2="283.7" y2="173.3" stroke="rgb(0,0,0)"  stroke-width="2.0"/>
<line x1="257.9" y1="150.1" x2="282.1" y2="164.1" stroke="rgb(0,0,0)"  stroke-width="2.0"/>
<line x1="283.7" y1="173.3" x2="303.8" y2="155.2" stroke="rgb(0,0,0)"  stroke-width="2.0"/>
<line x1="189.7" y1="99.8" x2="155.0" y2="79.8" stroke="rgb(0,0,0)"  stroke-width="2.0"/>
<line x1="180.9" y1="103.0" x2="156.6" y2="89.0" stroke="rgb(0,0,0)"  stroke-width="2.0"/>
<line x1="155.0" y1="79.8" x2="134.9" y2="97.8" stroke="rgb(0,0,0)"  stroke-width="2.0"/>
<line x1="130.6" y1="118.4" x2="141.6" y2="143.1" stroke="rgb(0,0,0)"  stroke-width="2.0"/>
<line x1="141.6" y1="143.1" x2="181.3" y2="138.9" stroke="rgb(0,0,0)"  stroke-width="2.0"/>
<line x1="146.8" y1="135.3" x2="174.6" y2="132.4" stroke="rgb(0,0,0)"  stroke-width="2.0"/>
<line x1="181.3" y1="138.9" x2="189.7" y2="99.8" stroke="rgb(0,0,0)"  stroke-width="2.0"/>
<line x1="211.1" y1="165.7" x2="249.1" y2="153.3" stroke="rgb(0,0,0)"  stroke-width="2.0"/>
<line x1="257.4" y1="114.2" x2="227.7" y2="87.4" stroke="rgb(0,0,0)"  stroke-width="2.0"/>
<line x1="227.7" y1="87.4" x2="189.7" y2="99.8" stroke="rgb(0,0,0)"  stroke-width="2.0"/>
<line x1="181.3" y1="138.9" x2="211.1" y2="165.7" stroke="rgb(0,0,0)"  stroke-width="2.0"/>
<text x="373.199944" y="48.722249" fill="rgb(102,102,102)"  stroke="rgb(102,102,102)" stroke-width="1" font-size="16" >CH</text>
<text x="397.199944" y="52.402249" fill="rgb(102,102,102)"  stroke="rgb(102,102,102)" stroke-width="1" font-size="13" >3</text>
<text x="318.466573" y="237.361666" fill="rgb(255,12,12)"  stroke="rgb(255,12,12)" stroke-width="1" font-size="16" >O</text>
<text x="249.564075" y="244.603610" fill="rgb(255,12,12)"  stroke="rgb(255,12,12)" stroke-width="1" font-size="16" >O</text>
<text x="193.022257" y="228.334145" fill="rgb(102,102,102)"  stroke="rgb(102,102,102)" stroke-width="1" font-size="16" >H</text>
<text x="205.022257" y="232.014145" fill="rgb(102,102,102)"  stroke="rgb(102,102,102)" stroke-width="1" font-size="13" >3</text>
<text x="211.522257" y="228.334145" fill="rgb(102,102,102)"  stroke="rgb(102,102,102)" stroke-width="1" font-size="16" >C</text>
<text x="307.469409" y="154.546100" fill="rgb(178,178,0)"  stroke="rgb(178,178,0)" stroke-width="1" font-size="16" >S</text>
<text x="291.199944" y="48.722249" fill="rgb(255,12,12)"  stroke="rgb(255,12,12)" stroke-width="1" font-size="16" >O</text>
<text x="351.199944" y="83.363266" fill="rgb(255,12,12)"  stroke="rgb(255,12,12)" stroke-width="1" font-size="16" >O</text>
<text x="230.009742" y="56.294292" fill="rgb(255,12,12)"  stroke="rgb(255,12,12)" stroke-width="1" font-size="16" >O</text>
<text x="144.828860" y="48.000000" fill="rgb(191,191,191)"  stroke="rgb(191,191,191)" stroke-width="1" font-size="16" >H</text>
<text x="119.284205" y="114.546100" fill="rgb(178,178,0)"  stroke="rgb(178,178,0)" stroke-width="1" font-size="16" >S</text>
<text x="120.546100" y="317.887674" fill="rgb(30,239,30)"  stroke="rgb(30,239,30)" stroke-width="1" font-size="16" >Cl</text>
<text x="37.007571" y="160.184280" fill="rgb(30,239,30)"  stroke="rgb(30,239,30)" stroke-width="1" font-size="16" >Cl</text>
<text x="37.730534" y="255.801201" fill="rgb(178,178,0)"  stroke="rgb(178,178,0)" stroke-width="1" font-size="16" >S</text>
<text x="34.000000" y="326.984036" fill="rgb(191,191,191)"  stroke="rgb(191,191,191)" stroke-width="1" font-size="16" >H</text>
<text x="131.823136" y="222.270753" fill="rgb(178,178,0)"  stroke="rgb(178,178,0)" stroke-width="1" font-size="16" >S</text>
<text x="196.743872" y="212.797908" fill="rgb(255,12,12)"  stroke="rgb(255,12,12)" stroke-width="1" font-size="16" >O</text>
</svg>
</g>
<text font-size="18.000000" fill ="black" font-family="sans-serif"
x="10.000000" y="20.000000" ></text>
</svg>
