<?xml version="1.0"?>
<svg version="1.1" id="topsvg"
xmlns="http://www.w3.org/2000/svg" xmlns:xlink="http://www.w3.org/1999/xlink"
xmlns:cml="http://www.xml-cml.org/schema" x="0" y="0" width="200px" height="200px" viewBox="0 0 100 100">
<title> - Open Babel Depiction</title>
<rect x="0" y="0" width="100" height="100" fill="white"/>
<g transform="translate(0,0)">
<svg width="100" height="100" x="0" y="0" viewBox="0 0 315.865 424.085"
font-family="sans-serif" stroke="rgb(0,0,0)" stroke-width="2"  stroke-linecap="round">
<line x1="175.9" y1="143.9" x2="155.9" y2="178.6" stroke="rgb(0,0,0)"  stroke-width="2.0"/>
<line x1="78.0" y1="248.6" x2="52.4" y2="257.0" stroke="rgb(0,0,0)"  stroke-width="2.0"/>
<line x1="78.0" y1="248.6" x2="58.0" y2="230.6" stroke="rgb(0,0,0)"  stroke-width="2.0"/>
<line x1="120.6" y1="344.3" x2="123.5" y2="371.2" stroke="rgb(0,0,0)"  stroke-width="2.0"/>
<line x1="215.9" y1="143.9" x2="229.4" y2="167.3" stroke="rgb(0,0,0)"  stroke-width="2.0"/>
<line x1="235.9" y1="109.3" x2="262.9" y2="109.3" stroke="rgb(0,0,0)"  stroke-width="2.0"/>
<line x1="215.9" y1="74.6" x2="229.4" y2="51.3" stroke="rgb(0,0,0)"  stroke-width="2.0"/>
<line x1="175.9" y1="74.6" x2="162.4" y2="51.3" stroke="rgb(0,0,0)"  stroke-width="2.0"/>
<line x1="155.9" y1="109.3" x2="128.9" y2="109.3" stroke="rgb(0,0,0)"  stroke-width="2.0"/>
<line x1="107.8" y1="221.9" x2="142.4" y2="241.9" stroke="rgb(0,0,0)"  stroke-width="2.0"/>
<line x1="116.6" y1="218.6" x2="140.8" y2="232.6" stroke="rgb(0,0,0)"  stroke-width="2.0"/>
<line x1="142.4" y1="241.9" x2="162.5" y2="223.8" stroke="rgb(0,0,0)"  stroke-width="2.0"/>
<line x1="166.8" y1="203.2" x2="155.9" y2="178.6" stroke="rgb(0,0,0)"  stroke-width="2.0"/>
<line x1="155.9" y1="178.6" x2="116.1" y2="182.7" stroke="rgb(0,0,0)"  stroke-width="2.0"/>
<line x1="150.7" y1="186.4" x2="122.8" y2="189.3" stroke="rgb(0,0,0)"  stroke-width="2.0"/>
<line x1="116.1" y1="182.7" x2="107.8" y2="221.9" stroke="rgb(0,0,0)"  stroke-width="2.0"/>
<line x1="120.6" y1="344.3" x2="140.7" y2="326.2" stroke="rgb(0,0,0)"  stroke-width="2.0"/>
<line x1="145.1" y1="305.7" x2="134.1" y2="281.0" stroke="rgb(0,0,0)"  stroke-width="2.0"/>
<line x1="134.1" y1="281.0" x2="94.3" y2="285.2" stroke="rgb(0,0,0)"  stroke-width="2.0"/>
<line x1="128.9" y1="288.8" x2="101.0" y2="291.7" stroke="rgb(0,0,0)"  stroke-width="2.0"/>
<line x1="94.3" y1="285.2" x2="86.0" y2="324.3" stroke="rgb(0,0,0)"  stroke-width="2.0"/>
<line x1="86.0" y1="324.3" x2="120.6" y2="344.3" stroke="rgb(0,0,0)"  stroke-width="2.0"/>
<line x1="94.8" y1="321.1" x2="119.0" y2="335.1" stroke="rgb(0,0,0)"  stroke-width="2.0"/>
<line x1="235.9" y1="109.3" x2="215.9" y2="74.6" stroke="rgb(0,0,0)"  stroke-width="2.0"/>
<line x1="226.6" y1="107.7" x2="212.6" y2="83.4" stroke="rgb(0,0,0)"  stroke-width="2.0"/>
<line x1="215.9" y1="74.6" x2="175.9" y2="74.6" stroke="rgb(0,0,0)"  stroke-width="2.0"/>
<line x1="175.9" y1="74.6" x2="155.9" y2="109.3" stroke="rgb(0,0,0)"  stroke-width="2.0"/>
<line x1="179.1" y1="83.4" x2="165.1" y2="107.7" stroke="rgb(0,0,0)"  stroke-width="2.0"/>
<line x1="155.9" y1="109.3" x2="175.9" y2="143.9" stroke="rgb(0,0,0)"  stroke-width="2.0"/>
<line x1="175.9" y1="143.9" x2="215.9" y2="143.9" stroke="rgb(0,0,0)"  stroke-width="2.0"/>
<line x1="181.9" y1="136.7" x2="209.9" y2="136.7" stroke="rgb(0,0,0)"  stroke-width="2.0"/>
<line x1="215.9" y1="143.9" x2="235.9" y2="109.3" stroke="rgb(0,0,0)"  stroke-width="2.0"/>
<line x1="134.1" y1="281.0" x2="142.4" y2="241.9" stroke="rgb(0,0,0)"  stroke-width="2.0"/>
<line x1="107.8" y1="221.9" x2="78.0" y2="248.6" stroke="rgb(0,0,0)"  stroke-width="2.0"/>
<line x1="78.0" y1="248.6" x2="94.3" y2="285.2" stroke="rgb(0,0,0)"  stroke-width="2.0"/>
<text x="109.865397" y="117.282032" fill="rgb(127,178,255)"  stroke="rgb(127,178,255)" stroke-width="1" font-size="16" >F</text>
<text x="149.865397" y="48.000000" fill="rgb(127,178,255)"  stroke="rgb(127,178,255)" stroke-width="1" font-size="16" >F</text>
<text x="229.865397" y="48.000000" fill="rgb(191,191,191)"  stroke="rgb(191,191,191)" stroke-width="1" font-size="16" >H</text>
<text x="269.865397" y="117.282032" fill="rgb(127,178,255)"  stroke="rgb(127,178,255)" stroke-width="1" font-size="16" >F</text>
<text x="229.865397" y="186.564065" fill="rgb(127,178,255)"  stroke="rgb(127,178,255)" stroke-width="1" font-size="16" >F</text>
<text x="144.362068" y="325.538830" fill="rgb(178,178,0)"  stroke="rgb(178,178,0)" stroke-width="1" font-size="16" >S</text>
<text x="118.817413" y="392.084930" fill="rgb(191,191,191)"  stroke="rgb(191,191,191)" stroke-width="1" font-size="16" >H</text>
<text x="42.316468" y="229.871107" fill="rgb(191,191,191)"  stroke="rgb(191,191,191)" stroke-width="1" font-size="16" >H</text>
<text x="34.000000" y="268.997011" fill="rgb(191,191,191)"  stroke="rgb(191,191,191)" stroke-width="1" font-size="16" >H</text>
<text x="166.134863" y="223.105883" fill="rgb(178,178,0)"  stroke="rgb(178,178,0)" stroke-width="1" font-size="16" >S</text>
</svg>
</g>
<text font-size="18.000000" fill ="black" font-family="sans-serif"
x="10.000000" y="20.000000" ></text>
</svg>
