<?xml version="1.0"?>
<svg version="1.1" id="topsvg"
xmlns="http://www.w3.org/2000/svg" xmlns:xlink="http://www.w3.org/1999/xlink"
xmlns:cml="http://www.xml-cml.org/schema" x="0" y="0" width="200px" height="200px" viewBox="0 0 100 100">
<title> - Open Babel Depiction</title>
<rect x="0" y="0" width="100" height="100" fill="white"/>
<g transform="translate(0,0)">
<svg width="100" height="100" x="0" y="0" viewBox="0 0 675.261 468.325"
font-family="sans-serif" stroke="rgb(0,0,0)" stroke-width="2"  stroke-linecap="round">
<line x1="373.6" y1="262.9" x2="339.0" y2="282.9" stroke="rgb(0,0,0)"  stroke-width="2.0"/>
<line x1="334.8" y1="322.7" x2="364.5" y2="349.4" stroke="rgb(0,0,0)"  stroke-width="2.0"/>
<line x1="364.5" y1="349.4" x2="384.6" y2="367.5" stroke="rgb(0,0,0)"  stroke-width="2.0"/>
<line x1="367.3" y1="346.3" x2="387.4" y2="364.4" stroke="rgb(0,0,0)"  stroke-width="2.0"/>
<line x1="361.7" y1="352.6" x2="381.8" y2="370.6" stroke="rgb(0,0,0)"  stroke-width="2.0"/>
<line x1="295.7" y1="331.0" x2="279.4" y2="367.5" stroke="rgb(0,0,0)"  stroke-width="2.0"/>
<line x1="279.4" y1="367.5" x2="268.4" y2="392.2" stroke="rgb(0,0,0)"  stroke-width="2.0"/>
<line x1="283.2" y1="369.2" x2="272.2" y2="393.9" stroke="rgb(0,0,0)"  stroke-width="2.0"/>
<line x1="275.6" y1="365.8" x2="264.6" y2="390.5" stroke="rgb(0,0,0)"  stroke-width="2.0"/>
<line x1="275.7" y1="296.3" x2="235.9" y2="292.2" stroke="rgb(0,0,0)"  stroke-width="2.0"/>
<line x1="238.3" y1="293.9" x2="214.8" y2="326.3" stroke="rgb(0,0,0)"  stroke-width="2.0"/>
<line x1="233.5" y1="290.4" x2="209.9" y2="322.8" stroke="rgb(0,0,0)"  stroke-width="2.0"/>
<line x1="212.4" y1="324.5" x2="172.6" y2="320.3" stroke="rgb(0,0,0)"  stroke-width="2.0"/>
<line x1="145.8" y1="350.1" x2="154.1" y2="389.2" stroke="rgb(0,0,0)"  stroke-width="2.0"/>
<line x1="154.1" y1="389.2" x2="159.8" y2="415.6" stroke="rgb(0,0,0)"  stroke-width="2.0"/>
<line x1="158.2" y1="388.3" x2="163.9" y2="414.7" stroke="rgb(0,0,0)"  stroke-width="2.0"/>
<line x1="150.0" y1="390.1" x2="155.6" y2="416.5" stroke="rgb(0,0,0)"  stroke-width="2.0"/>
<line x1="109.3" y1="333.8" x2="74.6" y2="353.8" stroke="rgb(0,0,0)"  stroke-width="2.0"/>
<line x1="74.6" y1="353.8" x2="51.3" y2="367.3" stroke="rgb(0,0,0)"  stroke-width="2.0"/>
<line x1="76.7" y1="357.4" x2="53.4" y2="370.9" stroke="rgb(0,0,0)"  stroke-width="2.0"/>
<line x1="72.5" y1="350.2" x2="49.2" y2="363.7" stroke="rgb(0,0,0)"  stroke-width="2.0"/>
<line x1="113.5" y1="294.0" x2="93.4" y2="276.0" stroke="rgb(0,0,0)"  stroke-width="2.0"/>
<line x1="504.4" y1="239.9" x2="531.4" y2="239.9" stroke="rgb(0,0,0)"  stroke-width="2.0"/>
<line x1="504.4" y1="245.9" x2="531.4" y2="245.9" stroke="rgb(0,0,0)"  stroke-width="2.0"/>
<line x1="485.0" y1="287.6" x2="489.3" y2="300.9" stroke="rgb(0,0,0)"  stroke-width="2.0"/>
<line x1="506.0" y1="316.0" x2="519.7" y2="318.9" stroke="rgb(0,0,0)"  stroke-width="2.0"/>
<line x1="478.1" y1="209.6" x2="490.4" y2="171.6" stroke="rgb(0,0,0)"  stroke-width="2.0"/>
<line x1="483.8" y1="211.5" x2="496.1" y2="173.4" stroke="rgb(0,0,0)"  stroke-width="2.0"/>
<line x1="469.8" y1="143.1" x2="442.8" y2="143.1" stroke="rgb(0,0,0)"  stroke-width="2.0"/>
<line x1="469.8" y1="137.1" x2="442.8" y2="137.1" stroke="rgb(0,0,0)"  stroke-width="2.0"/>
<line x1="489.3" y1="95.4" x2="485.0" y2="82.1" stroke="rgb(0,0,0)"  stroke-width="2.0"/>
<line x1="489.6" y1="60.1" x2="499.0" y2="49.7" stroke="rgb(0,0,0)"  stroke-width="2.0"/>
<line x1="600.6" y1="120.1" x2="624.0" y2="106.6" stroke="rgb(0,0,0)"  stroke-width="2.0"/>
<line x1="295.7" y1="331.0" x2="275.7" y2="296.3" stroke="rgb(0,0,0)"  stroke-width="2.0"/>
<line x1="298.9" y1="322.2" x2="284.9" y2="297.9" stroke="rgb(0,0,0)"  stroke-width="2.0"/>
<line x1="275.7" y1="296.3" x2="293.7" y2="276.3" stroke="rgb(0,0,0)"  stroke-width="2.0"/>
<line x1="314.3" y1="271.9" x2="339.0" y2="282.9" stroke="rgb(0,0,0)"  stroke-width="2.0"/>
<line x1="339.0" y1="282.9" x2="334.8" y2="322.7" stroke="rgb(0,0,0)"  stroke-width="2.0"/>
<line x1="331.2" y1="288.1" x2="328.3" y2="316.0" stroke="rgb(0,0,0)"  stroke-width="2.0"/>
<line x1="334.8" y1="322.7" x2="295.7" y2="331.0" stroke="rgb(0,0,0)"  stroke-width="2.0"/>
<line x1="109.3" y1="333.8" x2="113.5" y2="294.0" stroke="rgb(0,0,0)"  stroke-width="2.0"/>
<line x1="117.1" y1="328.6" x2="120.0" y2="300.7" stroke="rgb(0,0,0)"  stroke-width="2.0"/>
<line x1="113.5" y1="294.0" x2="139.9" y2="288.4" stroke="rgb(0,0,0)"  stroke-width="2.0"/>
<line x1="159.1" y1="297.0" x2="172.6" y2="320.3" stroke="rgb(0,0,0)"  stroke-width="2.0"/>
<line x1="172.6" y1="320.3" x2="145.8" y2="350.1" stroke="rgb(0,0,0)"  stroke-width="2.0"/>
<line x1="163.2" y1="320.0" x2="144.5" y2="340.8" stroke="rgb(0,0,0)"  stroke-width="2.0"/>
<line x1="145.8" y1="350.1" x2="109.3" y2="333.8" stroke="rgb(0,0,0)"  stroke-width="2.0"/>
<line x1="408.3" y1="202.9" x2="442.9" y2="222.9" stroke="rgb(0,0,0)"  stroke-width="2.0"/>
<line x1="409.8" y1="212.1" x2="434.1" y2="226.1" stroke="rgb(0,0,0)"  stroke-width="2.0"/>
<line x1="442.9" y1="222.9" x2="442.9" y2="262.9" stroke="rgb(0,0,0)"  stroke-width="2.0"/>
<line x1="442.9" y1="262.9" x2="408.3" y2="282.9" stroke="rgb(0,0,0)"  stroke-width="2.0"/>
<line x1="434.1" y1="259.7" x2="409.8" y2="273.7" stroke="rgb(0,0,0)"  stroke-width="2.0"/>
<line x1="408.3" y1="282.9" x2="373.6" y2="262.9" stroke="rgb(0,0,0)"  stroke-width="2.0"/>
<line x1="373.6" y1="262.9" x2="373.6" y2="222.9" stroke="rgb(0,0,0)"  stroke-width="2.0"/>
<line x1="380.8" y1="256.9" x2="380.8" y2="228.9" stroke="rgb(0,0,0)"  stroke-width="2.0"/>
<line x1="373.6" y1="222.9" x2="408.3" y2="202.9" stroke="rgb(0,0,0)"  stroke-width="2.0"/>
<line x1="600.6" y1="160.1" x2="566.0" y2="180.1" stroke="rgb(0,0,0)"  stroke-width="2.0"/>
<line x1="566.0" y1="180.1" x2="531.3" y2="160.1" stroke="rgb(0,0,0)"  stroke-width="2.0"/>
<line x1="564.4" y1="170.9" x2="540.1" y2="156.9" stroke="rgb(0,0,0)"  stroke-width="2.0"/>
<line x1="531.3" y1="160.1" x2="531.3" y2="120.1" stroke="rgb(0,0,0)"  stroke-width="2.0"/>
<line x1="531.3" y1="120.1" x2="566.0" y2="100.1" stroke="rgb(0,0,0)"  stroke-width="2.0"/>
<line x1="540.1" y1="123.4" x2="564.4" y2="109.4" stroke="rgb(0,0,0)"  stroke-width="2.0"/>
<line x1="566.0" y1="100.1" x2="600.6" y2="120.1" stroke="rgb(0,0,0)"  stroke-width="2.0"/>
<line x1="600.6" y1="120.1" x2="600.6" y2="160.1" stroke="rgb(0,0,0)"  stroke-width="2.0"/>
<line x1="593.4" y1="126.1" x2="593.4" y2="154.1" stroke="rgb(0,0,0)"  stroke-width="2.0"/>
<line x1="504.4" y1="242.9" x2="488.6" y2="264.7" stroke="rgb(0,0,0)"  stroke-width="2.0"/>
<line x1="468.6" y1="271.2" x2="442.9" y2="262.9" stroke="rgb(0,0,0)"  stroke-width="2.0"/>
<line x1="442.9" y1="222.9" x2="480.9" y2="210.5" stroke="rgb(0,0,0)"  stroke-width="2.0"/>
<line x1="480.9" y1="210.5" x2="504.4" y2="242.9" stroke="rgb(0,0,0)"  stroke-width="2.0"/>
<line x1="505.7" y1="111.8" x2="531.3" y2="120.1" stroke="rgb(0,0,0)"  stroke-width="2.0"/>
<line x1="531.3" y1="160.1" x2="493.3" y2="172.5" stroke="rgb(0,0,0)"  stroke-width="2.0"/>
<line x1="493.3" y1="172.5" x2="469.8" y2="140.1" stroke="rgb(0,0,0)"  stroke-width="2.0"/>
<line x1="469.8" y1="140.1" x2="485.7" y2="118.3" stroke="rgb(0,0,0)"  stroke-width="2.0"/>
<text x="423.783858" y="148.128733" fill="rgb(255,12,12)"  stroke="rgb(255,12,12)" stroke-width="1" font-size="16" >O</text>
<text x="538.445998" y="250.892354" fill="rgb(255,12,12)"  stroke="rgb(255,12,12)" stroke-width="1" font-size="16" >O</text>
<text x="474.934588" y="283.253033" fill="rgb(12,12,255)"  stroke="rgb(12,12,255)" stroke-width="1" font-size="16" >N</text>
<text x="487.295268" y="321.295294" fill="rgb(255,12,12)"  stroke="rgb(255,12,12)" stroke-width="1" font-size="16" >O</text>
<text x="528.421172" y="329.611762" fill="rgb(102,102,102)"  stroke="rgb(102,102,102)" stroke-width="1" font-size="16" >CH</text>
<text x="552.421172" y="333.291762" fill="rgb(102,102,102)"  stroke="rgb(102,102,102)" stroke-width="1" font-size="13" >3</text>
<text x="487.295268" y="115.768054" fill="rgb(12,12,255)"  stroke="rgb(12,12,255)" stroke-width="1" font-size="16" >N</text>
<text x="474.934588" y="77.725793" fill="rgb(255,12,12)"  stroke="rgb(255,12,12)" stroke-width="1" font-size="16" >O</text>
<text x="503.699813" y="48.000000" fill="rgb(102,102,102)"  stroke="rgb(102,102,102)" stroke-width="1" font-size="16" >CH</text>
<text x="527.699813" y="51.680000" fill="rgb(102,102,102)"  stroke="rgb(102,102,102)" stroke-width="1" font-size="13" >3</text>
<text x="629.260577" y="108.128733" fill="rgb(191,191,191)"  stroke="rgb(191,191,191)" stroke-width="1" font-size="16" >H</text>
<text x="388.239727" y="384.203678" fill="rgb(12,12,255)"  stroke="rgb(12,12,255)" stroke-width="1" font-size="16" >N</text>
<text x="257.123305" y="412.073334" fill="rgb(12,12,255)"  stroke="rgb(12,12,255)" stroke-width="1" font-size="16" >N</text>
<text x="296.427461" y="274.622888" fill="rgb(178,178,0)"  stroke="rgb(178,178,0)" stroke-width="1" font-size="16" >S</text>
<text x="156.456786" y="436.324685" fill="rgb(12,12,255)"  stroke="rgb(12,12,255)" stroke-width="1" font-size="16" >N</text>
<text x="34.000000" y="381.803411" fill="rgb(12,12,255)"  stroke="rgb(12,12,255)" stroke-width="1" font-size="16" >N</text>
<text x="77.737378" y="275.257311" fill="rgb(191,191,191)"  stroke="rgb(191,191,191)" stroke-width="1" font-size="16" >H</text>
<text x="146.589075" y="293.706068" fill="rgb(178,178,0)"  stroke="rgb(178,178,0)" stroke-width="1" font-size="16" >S</text>
</svg>
</g>
<text font-size="18.000000" fill ="black" font-family="sans-serif"
x="10.000000" y="20.000000" ></text>
</svg>
