<?xml version="1.0"?>
<svg version="1.1" id="topsvg"
xmlns="http://www.w3.org/2000/svg" xmlns:xlink="http://www.w3.org/1999/xlink"
xmlns:cml="http://www.xml-cml.org/schema" x="0" y="0" width="200px" height="200px" viewBox="0 0 100 100">
<title> - Open Babel Depiction</title>
<rect x="0" y="0" width="100" height="100" fill="white"/>
<g transform="translate(0,0)">
<svg width="100" height="100" x="0" y="0" viewBox="0 0 651.929 278.561"
font-family="sans-serif" stroke="rgb(0,0,0)" stroke-width="2"  stroke-linecap="round">
<line x1="313.4" y1="118.8" x2="279.3" y2="99.1" stroke="rgb(0,0,0)"  stroke-width="2.0"/>
<line x1="177.0" y1="131.8" x2="177.0" y2="145.1" stroke="rgb(0,0,0)"  stroke-width="2.0"/>
<line x1="183.5" y1="169.4" x2="190.2" y2="181.0" stroke="rgb(0,0,0)"  stroke-width="2.0"/>
<line x1="74.6" y1="99.1" x2="51.3" y2="112.6" stroke="rgb(0,0,0)"  stroke-width="2.0"/>
<line x1="424.2" y1="188.1" x2="443.8" y2="205.7" stroke="rgb(0,0,0)"  stroke-width="2.0"/>
<line x1="420.2" y1="192.5" x2="439.8" y2="210.2" stroke="rgb(0,0,0)"  stroke-width="2.0"/>
<line x1="378.4" y1="210.4" x2="373.0" y2="222.6" stroke="rgb(0,0,0)"  stroke-width="2.0"/>
<line x1="354.8" y1="235.8" x2="341.5" y2="237.2" stroke="rgb(0,0,0)"  stroke-width="2.0"/>
<line x1="424.8" y1="148.5" x2="458.9" y2="128.8" stroke="rgb(0,0,0)"  stroke-width="2.0"/>
<line x1="427.8" y1="153.7" x2="461.9" y2="134.0" stroke="rgb(0,0,0)"  stroke-width="2.0"/>
<line x1="462.5" y1="94.5" x2="442.9" y2="76.9" stroke="rgb(0,0,0)"  stroke-width="2.0"/>
<line x1="466.6" y1="90.1" x2="447.0" y2="72.4" stroke="rgb(0,0,0)"  stroke-width="2.0"/>
<line x1="508.3" y1="72.2" x2="513.8" y2="60.0" stroke="rgb(0,0,0)"  stroke-width="2.0"/>
<line x1="532.0" y1="46.8" x2="545.3" y2="45.4" stroke="rgb(0,0,0)"  stroke-width="2.0"/>
<line x1="573.4" y1="163.8" x2="599.2" y2="169.3" stroke="rgb(0,0,0)"  stroke-width="2.0"/>
<line x1="142.8" y1="99.1" x2="142.8" y2="59.7" stroke="rgb(0,0,0)"  stroke-width="2.0"/>
<line x1="142.8" y1="59.7" x2="211.0" y2="59.7" stroke="rgb(0,0,0)"  stroke-width="2.0"/>
<line x1="211.0" y1="59.7" x2="211.1" y2="99.1" stroke="rgb(0,0,0)"  stroke-width="2.0"/>
<line x1="203.8" y1="65.7" x2="203.9" y2="93.1" stroke="rgb(0,0,0)"  stroke-width="2.0"/>
<line x1="211.1" y1="99.1" x2="188.2" y2="112.3" stroke="rgb(0,0,0)"  stroke-width="2.0"/>
<line x1="165.7" y1="112.3" x2="142.8" y2="99.1" stroke="rgb(0,0,0)"  stroke-width="2.0"/>
<line x1="211.0" y1="59.7" x2="245.2" y2="40.0" stroke="rgb(0,0,0)"  stroke-width="2.0"/>
<line x1="245.2" y1="40.0" x2="279.3" y2="59.7" stroke="rgb(0,0,0)"  stroke-width="2.0"/>
<line x1="246.8" y1="49.2" x2="270.5" y2="62.9" stroke="rgb(0,0,0)"  stroke-width="2.0"/>
<line x1="279.3" y1="59.7" x2="279.3" y2="99.1" stroke="rgb(0,0,0)"  stroke-width="2.0"/>
<line x1="279.3" y1="99.1" x2="245.2" y2="118.8" stroke="rgb(0,0,0)"  stroke-width="2.0"/>
<line x1="270.5" y1="95.8" x2="246.8" y2="109.5" stroke="rgb(0,0,0)"  stroke-width="2.0"/>
<line x1="245.2" y1="118.8" x2="211.1" y2="99.1" stroke="rgb(0,0,0)"  stroke-width="2.0"/>
<line x1="108.7" y1="118.8" x2="142.8" y2="99.1" stroke="rgb(0,0,0)"  stroke-width="2.0"/>
<line x1="110.3" y1="109.5" x2="134.0" y2="95.8" stroke="rgb(0,0,0)"  stroke-width="2.0"/>
<line x1="142.8" y1="59.7" x2="108.7" y2="40.0" stroke="rgb(0,0,0)"  stroke-width="2.0"/>
<line x1="134.0" y1="62.9" x2="110.3" y2="49.2" stroke="rgb(0,0,0)"  stroke-width="2.0"/>
<line x1="108.7" y1="40.0" x2="74.6" y2="59.7" stroke="rgb(0,0,0)"  stroke-width="2.0"/>
<line x1="74.6" y1="59.7" x2="74.6" y2="99.1" stroke="rgb(0,0,0)"  stroke-width="2.0"/>
<line x1="81.8" y1="65.7" x2="81.8" y2="93.1" stroke="rgb(0,0,0)"  stroke-width="2.0"/>
<line x1="74.6" y1="99.1" x2="108.7" y2="118.8" stroke="rgb(0,0,0)"  stroke-width="2.0"/>
<line x1="378.2" y1="97.7" x2="390.4" y2="135.1" stroke="rgb(0,0,0)"  stroke-width="2.0"/>
<line x1="373.2" y1="105.6" x2="381.7" y2="131.6" stroke="rgb(0,0,0)"  stroke-width="2.0"/>
<line x1="390.4" y1="135.1" x2="364.0" y2="164.4" stroke="rgb(0,0,0)"  stroke-width="2.0"/>
<line x1="364.0" y1="164.4" x2="325.5" y2="156.2" stroke="rgb(0,0,0)"  stroke-width="2.0"/>
<line x1="359.7" y1="156.1" x2="332.9" y2="150.4" stroke="rgb(0,0,0)"  stroke-width="2.0"/>
<line x1="325.5" y1="156.2" x2="313.4" y2="118.8" stroke="rgb(0,0,0)"  stroke-width="2.0"/>
<line x1="313.4" y1="118.8" x2="339.7" y2="89.5" stroke="rgb(0,0,0)"  stroke-width="2.0"/>
<line x1="322.7" y1="119.1" x2="341.0" y2="98.8" stroke="rgb(0,0,0)"  stroke-width="2.0"/>
<line x1="339.7" y1="89.5" x2="378.2" y2="97.7" stroke="rgb(0,0,0)"  stroke-width="2.0"/>
<line x1="547.1" y1="193.1" x2="508.6" y2="184.9" stroke="rgb(0,0,0)"  stroke-width="2.0"/>
<line x1="508.6" y1="184.9" x2="496.4" y2="147.5" stroke="rgb(0,0,0)"  stroke-width="2.0"/>
<line x1="513.6" y1="177.0" x2="505.1" y2="150.9" stroke="rgb(0,0,0)"  stroke-width="2.0"/>
<line x1="496.4" y1="147.5" x2="522.7" y2="118.2" stroke="rgb(0,0,0)"  stroke-width="2.0"/>
<line x1="522.7" y1="118.2" x2="561.3" y2="126.4" stroke="rgb(0,0,0)"  stroke-width="2.0"/>
<line x1="527.1" y1="126.5" x2="553.9" y2="132.2" stroke="rgb(0,0,0)"  stroke-width="2.0"/>
<line x1="561.3" y1="126.4" x2="573.4" y2="163.8" stroke="rgb(0,0,0)"  stroke-width="2.0"/>
<line x1="573.4" y1="163.8" x2="547.1" y2="193.1" stroke="rgb(0,0,0)"  stroke-width="2.0"/>
<line x1="564.1" y1="163.5" x2="545.7" y2="183.8" stroke="rgb(0,0,0)"  stroke-width="2.0"/>
<line x1="422.2" y1="190.3" x2="396.4" y2="195.8" stroke="rgb(0,0,0)"  stroke-width="2.0"/>
<line x1="377.2" y1="187.2" x2="364.0" y2="164.4" stroke="rgb(0,0,0)"  stroke-width="2.0"/>
<line x1="390.4" y1="135.1" x2="426.3" y2="151.1" stroke="rgb(0,0,0)"  stroke-width="2.0"/>
<line x1="426.3" y1="151.1" x2="422.2" y2="190.3" stroke="rgb(0,0,0)"  stroke-width="2.0"/>
<line x1="509.6" y1="95.4" x2="522.7" y2="118.2" stroke="rgb(0,0,0)"  stroke-width="2.0"/>
<line x1="496.4" y1="147.5" x2="460.4" y2="131.4" stroke="rgb(0,0,0)"  stroke-width="2.0"/>
<line x1="460.4" y1="131.4" x2="464.5" y2="92.3" stroke="rgb(0,0,0)"  stroke-width="2.0"/>
<line x1="464.5" y1="92.3" x2="490.3" y2="86.8" stroke="rgb(0,0,0)"  stroke-width="2.0"/>
<text x="497.053349" y="92.102551" fill="rgb(12,12,255)"  stroke="rgb(12,12,255)" stroke-width="1" font-size="16" >N</text>
<text x="445.488616" y="224.626736" fill="rgb(255,12,12)"  stroke="rgb(255,12,12)" stroke-width="1" font-size="16" >O</text>
<text x="377.721376" y="206.475153" fill="rgb(12,12,255)"  stroke="rgb(12,12,255)" stroke-width="1" font-size="16" >N</text>
<text x="361.711819" y="242.441994" fill="rgb(255,12,12)"  stroke="rgb(255,12,12)" stroke-width="1" font-size="16" >O</text>
<text x="302.558843" y="246.560731" fill="rgb(102,102,102)"  stroke="rgb(102,102,102)" stroke-width="1" font-size="16" >H</text>
<text x="314.558843" y="250.240731" fill="rgb(102,102,102)"  stroke="rgb(102,102,102)" stroke-width="1" font-size="13" >3</text>
<text x="321.058843" y="246.560731" fill="rgb(102,102,102)"  stroke="rgb(102,102,102)" stroke-width="1" font-size="16" >C</text>
<text x="429.286108" y="73.950968" fill="rgb(255,12,12)"  stroke="rgb(255,12,12)" stroke-width="1" font-size="16" >O</text>
<text x="513.062905" y="56.135710" fill="rgb(255,12,12)"  stroke="rgb(255,12,12)" stroke-width="1" font-size="16" >O</text>
<text x="554.215882" y="52.016972" fill="rgb(102,102,102)"  stroke="rgb(102,102,102)" stroke-width="1" font-size="16" >CH</text>
<text x="578.215882" y="55.696972" fill="rgb(102,102,102)"  stroke="rgb(102,102,102)" stroke-width="1" font-size="13" >3</text>
<text x="605.928954" y="179.999955" fill="rgb(191,191,191)"  stroke="rgb(191,191,191)" stroke-width="1" font-size="16" >H</text>
<text x="34.000000" y="127.097099" fill="rgb(191,191,191)"  stroke="rgb(191,191,191)" stroke-width="1" font-size="16" >H</text>
<text x="170.959461" y="126.770882" fill="rgb(12,12,255)"  stroke="rgb(12,12,255)" stroke-width="1" font-size="16" >N</text>
<text x="170.966958" y="166.139899" fill="rgb(255,12,12)"  stroke="rgb(255,12,12)" stroke-width="1" font-size="16" >O</text>
<text x="192.657959" y="200.230719" fill="rgb(102,102,102)"  stroke="rgb(102,102,102)" stroke-width="1" font-size="16" >CH</text>
<text x="216.657959" y="203.910719" fill="rgb(102,102,102)"  stroke="rgb(102,102,102)" stroke-width="1" font-size="13" >3</text>
</svg>
</g>
<text font-size="18.000000" fill ="black" font-family="sans-serif"
x="10.000000" y="20.000000" ></text>
</svg>
