<?xml version="1.0"?>
<svg version="1.1" id="topsvg"
xmlns="http://www.w3.org/2000/svg" xmlns:xlink="http://www.w3.org/1999/xlink"
xmlns:cml="http://www.xml-cml.org/schema" x="0" y="0" width="200px" height="200px" viewBox="0 0 100 100">
<title> - Open Babel Depiction</title>
<rect x="0" y="0" width="100" height="100" fill="white"/>
<g transform="translate(0,0)">
<svg width="100" height="100" x="0" y="0" viewBox="0 0 477.043 261.156"
font-family="sans-serif" stroke="rgb(0,0,0)" stroke-width="2"  stroke-linecap="round">
<line x1="305.9" y1="116.6" x2="272.7" y2="97.4" stroke="rgb(0,0,0)"  stroke-width="2.0"/>
<line x1="173.3" y1="116.6" x2="173.3" y2="154.9" stroke="rgb(0,0,0)"  stroke-width="2.0"/>
<line x1="173.3" y1="151.9" x2="198.6" y2="151.9" stroke="rgb(0,0,0)"  stroke-width="2.0"/>
<line x1="173.3" y1="157.9" x2="198.6" y2="157.9" stroke="rgb(0,0,0)"  stroke-width="2.0"/>
<line x1="173.3" y1="154.9" x2="160.6" y2="176.8" stroke="rgb(0,0,0)"  stroke-width="2.0"/>
<line x1="160.6" y1="199.3" x2="166.8" y2="209.9" stroke="rgb(0,0,0)"  stroke-width="2.0"/>
<line x1="173.3" y1="116.6" x2="107.0" y2="154.9" stroke="rgb(0,0,0)"  stroke-width="2.0"/>
<line x1="105.5" y1="157.5" x2="83.6" y2="144.8" stroke="rgb(0,0,0)"  stroke-width="2.0"/>
<line x1="108.5" y1="152.3" x2="86.6" y2="139.6" stroke="rgb(0,0,0)"  stroke-width="2.0"/>
<line x1="107.0" y1="154.9" x2="107.0" y2="180.1" stroke="rgb(0,0,0)"  stroke-width="2.0"/>
<line x1="95.7" y1="199.6" x2="85.1" y2="205.8" stroke="rgb(0,0,0)"  stroke-width="2.0"/>
<line x1="73.8" y1="97.4" x2="51.3" y2="110.5" stroke="rgb(0,0,0)"  stroke-width="2.0"/>
<line x1="366.0" y1="80.8" x2="360.7" y2="56.1" stroke="rgb(0,0,0)"  stroke-width="2.0"/>
<line x1="371.9" y1="79.5" x2="366.6" y2="54.8" stroke="rgb(0,0,0)"  stroke-width="2.0"/>
<line x1="415.2" y1="89.2" x2="425.8" y2="83.1" stroke="rgb(0,0,0)"  stroke-width="2.0"/>
<line x1="399.9" y1="133.8" x2="418.7" y2="150.7" stroke="rgb(0,0,0)"  stroke-width="2.0"/>
<line x1="339.8" y1="169.6" x2="345.0" y2="194.3" stroke="rgb(0,0,0)"  stroke-width="2.0"/>
<line x1="333.9" y1="170.8" x2="339.2" y2="195.6" stroke="rgb(0,0,0)"  stroke-width="2.0"/>
<line x1="290.6" y1="161.1" x2="280.0" y2="167.3" stroke="rgb(0,0,0)"  stroke-width="2.0"/>
<line x1="368.9" y1="80.2" x2="392.0" y2="90.4" stroke="rgb(0,0,0)"  stroke-width="2.0"/>
<line x1="402.5" y1="108.7" x2="399.9" y2="133.8" stroke="rgb(0,0,0)"  stroke-width="2.0"/>
<line x1="399.9" y1="133.8" x2="362.5" y2="141.8" stroke="rgb(0,0,0)"  stroke-width="2.0"/>
<line x1="392.5" y1="128.0" x2="366.8" y2="133.5" stroke="rgb(0,0,0)"  stroke-width="2.0"/>
<line x1="362.5" y1="141.8" x2="343.3" y2="108.6" stroke="rgb(0,0,0)"  stroke-width="2.0"/>
<line x1="343.3" y1="108.6" x2="368.9" y2="80.2" stroke="rgb(0,0,0)"  stroke-width="2.0"/>
<line x1="362.5" y1="141.8" x2="336.9" y2="170.2" stroke="rgb(0,0,0)"  stroke-width="2.0"/>
<line x1="336.9" y1="170.2" x2="313.8" y2="159.9" stroke="rgb(0,0,0)"  stroke-width="2.0"/>
<line x1="303.2" y1="141.7" x2="305.9" y2="116.6" stroke="rgb(0,0,0)"  stroke-width="2.0"/>
<line x1="305.9" y1="116.6" x2="343.3" y2="108.6" stroke="rgb(0,0,0)"  stroke-width="2.0"/>
<line x1="313.2" y1="122.4" x2="338.9" y2="116.9" stroke="rgb(0,0,0)"  stroke-width="2.0"/>
<line x1="206.4" y1="97.4" x2="206.4" y2="59.1" stroke="rgb(0,0,0)"  stroke-width="2.0"/>
<line x1="213.6" y1="91.4" x2="213.6" y2="65.1" stroke="rgb(0,0,0)"  stroke-width="2.0"/>
<line x1="206.4" y1="59.1" x2="239.6" y2="40.0" stroke="rgb(0,0,0)"  stroke-width="2.0"/>
<line x1="239.6" y1="40.0" x2="272.7" y2="59.1" stroke="rgb(0,0,0)"  stroke-width="2.0"/>
<line x1="241.2" y1="49.2" x2="263.9" y2="62.4" stroke="rgb(0,0,0)"  stroke-width="2.0"/>
<line x1="272.7" y1="59.1" x2="272.7" y2="97.4" stroke="rgb(0,0,0)"  stroke-width="2.0"/>
<line x1="272.7" y1="97.4" x2="239.6" y2="116.6" stroke="rgb(0,0,0)"  stroke-width="2.0"/>
<line x1="263.9" y1="94.2" x2="241.2" y2="107.3" stroke="rgb(0,0,0)"  stroke-width="2.0"/>
<line x1="239.6" y1="116.6" x2="206.4" y2="97.4" stroke="rgb(0,0,0)"  stroke-width="2.0"/>
<line x1="106.9" y1="116.6" x2="140.1" y2="97.4" stroke="rgb(0,0,0)"  stroke-width="2.0"/>
<line x1="108.5" y1="107.4" x2="131.3" y2="94.2" stroke="rgb(0,0,0)"  stroke-width="2.0"/>
<line x1="140.1" y1="97.4" x2="140.1" y2="59.1" stroke="rgb(0,0,0)"  stroke-width="2.0"/>
<line x1="140.1" y1="59.1" x2="106.9" y2="40.0" stroke="rgb(0,0,0)"  stroke-width="2.0"/>
<line x1="131.3" y1="62.4" x2="108.5" y2="49.2" stroke="rgb(0,0,0)"  stroke-width="2.0"/>
<line x1="106.9" y1="40.0" x2="73.8" y2="59.2" stroke="rgb(0,0,0)"  stroke-width="2.0"/>
<line x1="73.8" y1="59.2" x2="73.8" y2="97.4" stroke="rgb(0,0,0)"  stroke-width="2.0"/>
<line x1="81.0" y1="65.1" x2="81.0" y2="91.4" stroke="rgb(0,0,0)"  stroke-width="2.0"/>
<line x1="73.8" y1="97.4" x2="106.9" y2="116.6" stroke="rgb(0,0,0)"  stroke-width="2.0"/>
<line x1="140.1" y1="59.1" x2="206.4" y2="59.1" stroke="rgb(0,0,0)"  stroke-width="2.0"/>
<line x1="206.4" y1="97.4" x2="173.3" y2="116.6" stroke="rgb(0,0,0)"  stroke-width="2.0"/>
<line x1="173.3" y1="116.6" x2="140.1" y2="97.4" stroke="rgb(0,0,0)"  stroke-width="2.0"/>
<text x="397.896651" y="103.729543" fill="rgb(12,12,255)"  stroke="rgb(12,12,255)" stroke-width="1" font-size="16" >N</text>
<text x="354.966999" y="50.725677" fill="rgb(255,12,12)"  stroke="rgb(255,12,12)" stroke-width="1" font-size="16" >O</text>
<text x="433.042861" y="84.588557" fill="rgb(102,102,102)"  stroke="rgb(102,102,102)" stroke-width="1" font-size="16" >CH</text>
<text x="457.042861" y="88.268557" fill="rgb(102,102,102)"  stroke="rgb(102,102,102)" stroke-width="1" font-size="13" >3</text>
<text x="422.346082" y="167.405206" fill="rgb(191,191,191)"  stroke="rgb(191,191,191)" stroke-width="1" font-size="16" >H</text>
<text x="338.812762" y="215.643303" fill="rgb(255,12,12)"  stroke="rgb(255,12,12)" stroke-width="1" font-size="16" >O</text>
<text x="295.883110" y="162.639438" fill="rgb(12,12,255)"  stroke="rgb(12,12,255)" stroke-width="1" font-size="16" >N</text>
<text x="242.736900" y="181.780423" fill="rgb(102,102,102)"  stroke="rgb(102,102,102)" stroke-width="1" font-size="16" >H</text>
<text x="254.736900" y="185.460423" fill="rgb(102,102,102)"  stroke="rgb(102,102,102)" stroke-width="1" font-size="13" >3</text>
<text x="261.236900" y="181.780423" fill="rgb(102,102,102)"  stroke="rgb(102,102,102)" stroke-width="1" font-size="16" >C</text>
<text x="205.555034" y="162.852501" fill="rgb(255,12,12)"  stroke="rgb(255,12,12)" stroke-width="1" font-size="16" >O</text>
<text x="148.147419" y="196.011380" fill="rgb(255,12,12)"  stroke="rgb(255,12,12)" stroke-width="1" font-size="16" >O</text>
<text x="169.291707" y="229.155682" fill="rgb(102,102,102)"  stroke="rgb(102,102,102)" stroke-width="1" font-size="16" >CH</text>
<text x="193.291707" y="232.835682" fill="rgb(102,102,102)"  stroke="rgb(102,102,102)" stroke-width="1" font-size="13" >3</text>
<text x="67.830271" y="143.733852" fill="rgb(255,12,12)"  stroke="rgb(255,12,12)" stroke-width="1" font-size="16" >O</text>
<text x="100.985167" y="201.143767" fill="rgb(255,12,12)"  stroke="rgb(255,12,12)" stroke-width="1" font-size="16" >O</text>
<text x="47.839538" y="220.285755" fill="rgb(102,102,102)"  stroke="rgb(102,102,102)" stroke-width="1" font-size="16" >H</text>
<text x="59.839538" y="223.965755" fill="rgb(102,102,102)"  stroke="rgb(102,102,102)" stroke-width="1" font-size="13" >3</text>
<text x="66.339538" y="220.285755" fill="rgb(102,102,102)"  stroke="rgb(102,102,102)" stroke-width="1" font-size="16" >C</text>
<text x="34.000000" y="124.960183" fill="rgb(191,191,191)"  stroke="rgb(191,191,191)" stroke-width="1" font-size="16" >H</text>
</svg>
</g>
<text font-size="18.000000" fill ="black" font-family="sans-serif"
x="10.000000" y="20.000000" ></text>
</svg>
