<?xml version="1.0"?>
<svg version="1.1" id="topsvg"
xmlns="http://www.w3.org/2000/svg" xmlns:xlink="http://www.w3.org/1999/xlink"
xmlns:cml="http://www.xml-cml.org/schema" x="0" y="0" width="200px" height="200px" viewBox="0 0 100 100">
<title> - Open Babel Depiction</title>
<rect x="0" y="0" width="100" height="100" fill="white"/>
<g transform="translate(0,0)">
<svg width="100" height="100" x="0" y="0" viewBox="0 0 525.089 335.864"
font-family="sans-serif" stroke="rgb(0,0,0)" stroke-width="2"  stroke-linecap="round">
<line x1="299.9" y1="169.0" x2="262.0" y2="169.0" stroke="rgb(0,0,0)"  stroke-width="2.0"/>
<line x1="166.1" y1="136.3" x2="146.8" y2="103.1" stroke="rgb(0,0,0)"  stroke-width="2.0"/>
<line x1="147.7" y1="106.0" x2="123.6" y2="113.9" stroke="rgb(0,0,0)"  stroke-width="2.0"/>
<line x1="145.9" y1="100.3" x2="121.8" y2="108.2" stroke="rgb(0,0,0)"  stroke-width="2.0"/>
<line x1="146.8" y1="103.1" x2="152.0" y2="78.3" stroke="rgb(0,0,0)"  stroke-width="2.0"/>
<line x1="145.0" y1="56.9" x2="135.8" y2="48.7" stroke="rgb(0,0,0)"  stroke-width="2.0"/>
<line x1="166.1" y1="136.3" x2="89.4" y2="136.3" stroke="rgb(0,0,0)"  stroke-width="2.0"/>
<line x1="91.6" y1="138.3" x2="74.6" y2="157.1" stroke="rgb(0,0,0)"  stroke-width="2.0"/>
<line x1="87.1" y1="134.3" x2="70.2" y2="153.1" stroke="rgb(0,0,0)"  stroke-width="2.0"/>
<line x1="89.4" y1="136.3" x2="81.5" y2="112.2" stroke="rgb(0,0,0)"  stroke-width="2.0"/>
<line x1="64.8" y1="97.1" x2="52.7" y2="94.5" stroke="rgb(0,0,0)"  stroke-width="2.0"/>
<line x1="106.2" y1="215.8" x2="81.6" y2="230.2" stroke="rgb(0,0,0)"  stroke-width="2.0"/>
<line x1="322.1" y1="138.3" x2="314.4" y2="114.6" stroke="rgb(0,0,0)"  stroke-width="2.0"/>
<line x1="358.2" y1="187.9" x2="388.9" y2="210.2" stroke="rgb(0,0,0)"  stroke-width="2.0"/>
<line x1="447.2" y1="229.1" x2="472.1" y2="229.1" stroke="rgb(0,0,0)"  stroke-width="2.0"/>
<line x1="424.9" y1="259.8" x2="432.6" y2="283.5" stroke="rgb(0,0,0)"  stroke-width="2.0"/>
<line x1="204.4" y1="136.3" x2="204.4" y2="202.7" stroke="rgb(0,0,0)"  stroke-width="2.0"/>
<line x1="211.6" y1="142.3" x2="211.6" y2="196.7" stroke="rgb(0,0,0)"  stroke-width="2.0"/>
<line x1="204.4" y1="202.7" x2="229.8" y2="202.7" stroke="rgb(0,0,0)"  stroke-width="2.0"/>
<line x1="249.2" y1="191.4" x2="262.0" y2="169.0" stroke="rgb(0,0,0)"  stroke-width="2.0"/>
<line x1="262.0" y1="169.0" x2="242.8" y2="136.3" stroke="rgb(0,0,0)"  stroke-width="2.0"/>
<line x1="252.7" y1="167.4" x2="239.6" y2="145.1" stroke="rgb(0,0,0)"  stroke-width="2.0"/>
<line x1="242.8" y1="136.3" x2="204.4" y2="136.3" stroke="rgb(0,0,0)"  stroke-width="2.0"/>
<line x1="106.2" y1="215.8" x2="129.0" y2="225.8" stroke="rgb(0,0,0)"  stroke-width="2.0"/>
<line x1="149.5" y1="221.3" x2="166.1" y2="202.7" stroke="rgb(0,0,0)"  stroke-width="2.0"/>
<line x1="166.1" y1="202.7" x2="146.9" y2="170.0" stroke="rgb(0,0,0)"  stroke-width="2.0"/>
<line x1="156.8" y1="201.1" x2="143.7" y2="178.8" stroke="rgb(0,0,0)"  stroke-width="2.0"/>
<line x1="146.9" y1="170.0" x2="109.9" y2="178.1" stroke="rgb(0,0,0)"  stroke-width="2.0"/>
<line x1="109.9" y1="178.1" x2="106.2" y2="215.8" stroke="rgb(0,0,0)"  stroke-width="2.0"/>
<line x1="116.5" y1="184.8" x2="113.9" y2="210.6" stroke="rgb(0,0,0)"  stroke-width="2.0"/>
<line x1="358.2" y1="162.5" x2="358.2" y2="187.9" stroke="rgb(0,0,0)"  stroke-width="2.0"/>
<line x1="351.0" y1="164.7" x2="351.0" y2="181.9" stroke="rgb(0,0,0)"  stroke-width="2.0"/>
<line x1="358.2" y1="187.9" x2="334.5" y2="195.6" stroke="rgb(0,0,0)"  stroke-width="2.0"/>
<line x1="314.5" y1="189.1" x2="299.9" y2="169.0" stroke="rgb(0,0,0)"  stroke-width="2.0"/>
<line x1="299.9" y1="169.0" x2="322.1" y2="138.3" stroke="rgb(0,0,0)"  stroke-width="2.0"/>
<line x1="309.2" y1="168.3" x2="324.4" y2="147.4" stroke="rgb(0,0,0)"  stroke-width="2.0"/>
<line x1="322.1" y1="138.3" x2="345.8" y2="146.0" stroke="rgb(0,0,0)"  stroke-width="2.0"/>
<line x1="447.2" y1="229.1" x2="424.9" y2="259.8" stroke="rgb(0,0,0)"  stroke-width="2.0"/>
<line x1="437.8" y1="229.8" x2="422.6" y2="250.7" stroke="rgb(0,0,0)"  stroke-width="2.0"/>
<line x1="424.9" y1="259.8" x2="401.2" y2="252.1" stroke="rgb(0,0,0)"  stroke-width="2.0"/>
<line x1="388.9" y1="235.6" x2="388.9" y2="210.2" stroke="rgb(0,0,0)"  stroke-width="2.0"/>
<line x1="396.1" y1="233.4" x2="396.1" y2="216.2" stroke="rgb(0,0,0)"  stroke-width="2.0"/>
<line x1="388.9" y1="210.2" x2="412.5" y2="202.5" stroke="rgb(0,0,0)"  stroke-width="2.0"/>
<line x1="432.5" y1="209.0" x2="447.2" y2="229.1" stroke="rgb(0,0,0)"  stroke-width="2.0"/>
<line x1="166.1" y1="202.7" x2="204.4" y2="202.7" stroke="rgb(0,0,0)"  stroke-width="2.0"/>
<line x1="204.4" y1="136.3" x2="166.1" y2="136.3" stroke="rgb(0,0,0)"  stroke-width="2.0"/>
<line x1="166.1" y1="136.3" x2="146.9" y2="170.0" stroke="rgb(0,0,0)"  stroke-width="2.0"/>
<text x="316.139428" y="207.629831" fill="rgb(178,178,0)"  stroke="rgb(178,178,0)" stroke-width="1" font-size="16" >S</text>
<text x="64.415149" y="244.825541" fill="rgb(191,191,191)"  stroke="rgb(191,191,191)" stroke-width="1" font-size="16" >H</text>
<text x="134.911285" y="239.015623" fill="rgb(178,178,0)"  stroke="rgb(178,178,0)" stroke-width="1" font-size="16" >S</text>
<text x="304.426230" y="110.249215" fill="rgb(191,191,191)"  stroke="rgb(191,191,191)" stroke-width="1" font-size="16" >H</text>
<text x="352.188944" y="158.011929" fill="rgb(12,12,255)"  stroke="rgb(12,12,255)" stroke-width="1" font-size="16" >N</text>
<text x="14.000000" y="99.820921" fill="rgb(102,102,102)"  stroke="rgb(102,102,102)" stroke-width="1" font-size="16" >H</text>
<text x="26.000000" y="103.500921" fill="rgb(102,102,102)"  stroke="rgb(102,102,102)" stroke-width="1" font-size="13" >3</text>
<text x="32.500000" y="99.820921" fill="rgb(102,102,102)"  stroke="rgb(102,102,102)" stroke-width="1" font-size="16" >C</text>
<text x="418.904010" y="206.483261" fill="rgb(178,178,0)"  stroke="rgb(178,178,0)" stroke-width="1" font-size="16" >S</text>
<text x="479.088540" y="237.148811" fill="rgb(191,191,191)"  stroke="rgb(191,191,191)" stroke-width="1" font-size="16" >H</text>
<text x="430.617208" y="303.863877" fill="rgb(191,191,191)"  stroke="rgb(191,191,191)" stroke-width="1" font-size="16" >H</text>
<text x="382.854494" y="256.101163" fill="rgb(12,12,255)"  stroke="rgb(12,12,255)" stroke-width="1" font-size="16" >N</text>
<text x="71.515829" y="107.795157" fill="rgb(255,12,12)"  stroke="rgb(255,12,12)" stroke-width="1" font-size="16" >O</text>
<text x="57.704048" y="172.774479" fill="rgb(255,12,12)"  stroke="rgb(255,12,12)" stroke-width="1" font-size="16" >O</text>
<text x="100.072689" y="48.000000" fill="rgb(102,102,102)"  stroke="rgb(102,102,102)" stroke-width="1" font-size="16" >H</text>
<text x="112.072689" y="51.680000" fill="rgb(102,102,102)"  stroke="rgb(102,102,102)" stroke-width="1" font-size="13" >3</text>
<text x="118.572689" y="48.000000" fill="rgb(102,102,102)"  stroke="rgb(102,102,102)" stroke-width="1" font-size="16" >C</text>
<text x="148.654429" y="73.575575" fill="rgb(255,12,12)"  stroke="rgb(255,12,12)" stroke-width="1" font-size="16" >O</text>
<text x="104.356234" y="123.080600" fill="rgb(255,12,12)"  stroke="rgb(255,12,12)" stroke-width="1" font-size="16" >O</text>
<text x="236.772166" y="210.669272" fill="rgb(178,178,0)"  stroke="rgb(178,178,0)" stroke-width="1" font-size="16" >S</text>
</svg>
</g>
<text font-size="18.000000" fill ="black" font-family="sans-serif"
x="10.000000" y="20.000000" ></text>
</svg>
