<?xml version="1.0"?>
<svg version="1.1" id="topsvg"
xmlns="http://www.w3.org/2000/svg" xmlns:xlink="http://www.w3.org/1999/xlink"
xmlns:cml="http://www.xml-cml.org/schema" x="0" y="0" width="200px" height="200px" viewBox="0 0 100 100">
<title> - Open Babel Depiction</title>
<rect x="0" y="0" width="100" height="100" fill="white"/>
<g transform="translate(0,0)">
<svg width="100" height="100" x="0" y="0" viewBox="0 0 465.635 245.959"
font-family="sans-serif" stroke="rgb(0,0,0)" stroke-width="2"  stroke-linecap="round">
<line x1="311.2" y1="123.6" x2="277.4" y2="104.1" stroke="rgb(0,0,0)"  stroke-width="2.0"/>
<line x1="176.0" y1="136.6" x2="176.0" y2="150.6" stroke="rgb(0,0,0)"  stroke-width="2.0"/>
<line x1="74.6" y1="104.1" x2="51.3" y2="117.6" stroke="rgb(0,0,0)"  stroke-width="2.0"/>
<line x1="387.5" y1="139.9" x2="412.9" y2="145.3" stroke="rgb(0,0,0)"  stroke-width="2.0"/>
<line x1="361.4" y1="168.9" x2="369.4" y2="193.6" stroke="rgb(0,0,0)"  stroke-width="2.0"/>
<line x1="323.2" y1="160.7" x2="305.8" y2="180.1" stroke="rgb(0,0,0)"  stroke-width="2.0"/>
<line x1="142.2" y1="104.1" x2="142.2" y2="65.1" stroke="rgb(0,0,0)"  stroke-width="2.0"/>
<line x1="142.2" y1="65.1" x2="209.8" y2="65.1" stroke="rgb(0,0,0)"  stroke-width="2.0"/>
<line x1="209.8" y1="65.1" x2="209.8" y2="104.1" stroke="rgb(0,0,0)"  stroke-width="2.0"/>
<line x1="202.6" y1="71.1" x2="202.6" y2="98.1" stroke="rgb(0,0,0)"  stroke-width="2.0"/>
<line x1="209.8" y1="104.1" x2="187.3" y2="117.1" stroke="rgb(0,0,0)"  stroke-width="2.0"/>
<line x1="164.8" y1="117.1" x2="142.2" y2="104.1" stroke="rgb(0,0,0)"  stroke-width="2.0"/>
<line x1="345.1" y1="50.6" x2="357.0" y2="45.3" stroke="rgb(0,0,0)"  stroke-width="2.0"/>
<line x1="377.5" y1="49.7" x2="386.2" y2="59.3" stroke="rgb(0,0,0)"  stroke-width="2.0"/>
<line x1="388.5" y1="80.1" x2="375.4" y2="102.8" stroke="rgb(0,0,0)"  stroke-width="2.0"/>
<line x1="381.2" y1="78.4" x2="372.2" y2="94.0" stroke="rgb(0,0,0)"  stroke-width="2.0"/>
<line x1="375.4" y1="102.8" x2="337.3" y2="94.7" stroke="rgb(0,0,0)"  stroke-width="2.0"/>
<line x1="337.3" y1="94.7" x2="334.6" y2="68.7" stroke="rgb(0,0,0)"  stroke-width="2.0"/>
<line x1="343.8" y1="87.9" x2="341.9" y2="70.0" stroke="rgb(0,0,0)"  stroke-width="2.0"/>
<line x1="209.8" y1="65.1" x2="243.6" y2="45.6" stroke="rgb(0,0,0)"  stroke-width="2.0"/>
<line x1="243.6" y1="45.6" x2="277.4" y2="65.1" stroke="rgb(0,0,0)"  stroke-width="2.0"/>
<line x1="245.2" y1="54.8" x2="268.6" y2="68.3" stroke="rgb(0,0,0)"  stroke-width="2.0"/>
<line x1="277.4" y1="65.1" x2="277.4" y2="104.1" stroke="rgb(0,0,0)"  stroke-width="2.0"/>
<line x1="277.4" y1="104.1" x2="243.6" y2="123.6" stroke="rgb(0,0,0)"  stroke-width="2.0"/>
<line x1="268.6" y1="100.9" x2="245.2" y2="114.4" stroke="rgb(0,0,0)"  stroke-width="2.0"/>
<line x1="243.6" y1="123.6" x2="209.8" y2="104.1" stroke="rgb(0,0,0)"  stroke-width="2.0"/>
<line x1="108.4" y1="123.6" x2="142.2" y2="104.1" stroke="rgb(0,0,0)"  stroke-width="2.0"/>
<line x1="110.0" y1="114.4" x2="133.4" y2="100.9" stroke="rgb(0,0,0)"  stroke-width="2.0"/>
<line x1="142.2" y1="65.1" x2="108.4" y2="45.6" stroke="rgb(0,0,0)"  stroke-width="2.0"/>
<line x1="133.4" y1="68.3" x2="110.0" y2="54.8" stroke="rgb(0,0,0)"  stroke-width="2.0"/>
<line x1="108.4" y1="45.6" x2="74.7" y2="65.1" stroke="rgb(0,0,0)"  stroke-width="2.0"/>
<line x1="74.7" y1="65.1" x2="74.6" y2="104.1" stroke="rgb(0,0,0)"  stroke-width="2.0"/>
<line x1="81.9" y1="71.1" x2="81.8" y2="98.1" stroke="rgb(0,0,0)"  stroke-width="2.0"/>
<line x1="74.6" y1="104.1" x2="108.4" y2="123.6" stroke="rgb(0,0,0)"  stroke-width="2.0"/>
<line x1="375.4" y1="102.8" x2="387.5" y2="139.9" stroke="rgb(0,0,0)"  stroke-width="2.0"/>
<line x1="387.5" y1="139.9" x2="361.4" y2="168.9" stroke="rgb(0,0,0)"  stroke-width="2.0"/>
<line x1="378.1" y1="139.5" x2="360.0" y2="159.6" stroke="rgb(0,0,0)"  stroke-width="2.0"/>
<line x1="361.4" y1="168.9" x2="323.2" y2="160.7" stroke="rgb(0,0,0)"  stroke-width="2.0"/>
<line x1="323.2" y1="160.7" x2="311.2" y2="123.6" stroke="rgb(0,0,0)"  stroke-width="2.0"/>
<line x1="328.2" y1="152.8" x2="319.9" y2="127.1" stroke="rgb(0,0,0)"  stroke-width="2.0"/>
<line x1="311.2" y1="123.6" x2="337.3" y2="94.7" stroke="rgb(0,0,0)"  stroke-width="2.0"/>
<text x="279.112724" y="197.725329" fill="rgb(30,239,30)"  stroke="rgb(30,239,30)" stroke-width="1" font-size="16" >Cl</text>
<text x="367.421735" y="213.958791" fill="rgb(30,239,30)"  stroke="rgb(30,239,30)" stroke-width="1" font-size="16" >Cl</text>
<text x="419.634832" y="155.989980" fill="rgb(191,191,191)"  stroke="rgb(191,191,191)" stroke-width="1" font-size="16" >H</text>
<text x="388.942230" y="76.993229" fill="rgb(12,12,255)"  stroke="rgb(12,12,255)" stroke-width="1" font-size="16" >N</text>
<text x="362.845481" y="48.000000" fill="rgb(178,178,0)"  stroke="rgb(178,178,0)" stroke-width="1" font-size="16" >S</text>
<text x="327.206943" y="63.860082" fill="rgb(12,12,255)"  stroke="rgb(12,12,255)" stroke-width="1" font-size="16" >N</text>
<text x="34.000000" y="132.081569" fill="rgb(191,191,191)"  stroke="rgb(191,191,191)" stroke-width="1" font-size="16" >H</text>
<text x="172.022495" y="171.615921" fill="rgb(102,102,102)"  stroke="rgb(102,102,102)" stroke-width="1" font-size="16" >CH</text>
<text x="196.022495" y="175.295921" fill="rgb(102,102,102)"  stroke="rgb(102,102,102)" stroke-width="1" font-size="13" >3</text>
<text x="170.025270" y="131.615921" fill="rgb(12,12,255)"  stroke="rgb(12,12,255)" stroke-width="1" font-size="16" >N</text>
</svg>
</g>
<text font-size="18.000000" fill ="black" font-family="sans-serif"
x="10.000000" y="20.000000" ></text>
</svg>
