<?xml version="1.0"?>
<svg version="1.1" id="topsvg"
xmlns="http://www.w3.org/2000/svg" xmlns:xlink="http://www.w3.org/1999/xlink"
xmlns:cml="http://www.xml-cml.org/schema" x="0" y="0" width="200px" height="200px" viewBox="0 0 100 100">
<title> - Open Babel Depiction</title>
<rect x="0" y="0" width="100" height="100" fill="white"/>
<g transform="translate(0,0)">
<svg width="100" height="100" x="0" y="0" viewBox="0 0 430.582 374.407"
font-family="sans-serif" stroke="rgb(0,0,0)" stroke-width="2"  stroke-linecap="round">
<line x1="214.0" y1="175.1" x2="248.8" y2="155.7" stroke="rgb(0,0,0)"  stroke-width="2.0"/>
<line x1="285.0" y1="172.4" x2="290.2" y2="198.7" stroke="rgb(0,0,0)"  stroke-width="2.0"/>
<line x1="355.8" y1="95.8" x2="379.2" y2="82.7" stroke="rgb(0,0,0)"  stroke-width="2.0"/>
<line x1="319.6" y1="79.1" x2="314.4" y2="52.8" stroke="rgb(0,0,0)"  stroke-width="2.0"/>
<line x1="179.7" y1="272.6" x2="202.9" y2="286.4" stroke="rgb(0,0,0)"  stroke-width="2.0"/>
<line x1="176.7" y1="277.7" x2="199.8" y2="291.6" stroke="rgb(0,0,0)"  stroke-width="2.0"/>
<line x1="143.3" y1="307.4" x2="143.2" y2="321.4" stroke="rgb(0,0,0)"  stroke-width="2.0"/>
<line x1="110.0" y1="276.8" x2="86.5" y2="290.2" stroke="rgb(0,0,0)"  stroke-width="2.0"/>
<line x1="107.0" y1="271.6" x2="83.5" y2="285.0" stroke="rgb(0,0,0)"  stroke-width="2.0"/>
<line x1="74.8" y1="213.2" x2="51.3" y2="226.6" stroke="rgb(0,0,0)"  stroke-width="2.0"/>
<line x1="109.0" y1="116.3" x2="85.8" y2="102.5" stroke="rgb(0,0,0)"  stroke-width="2.0"/>
<line x1="112.1" y1="111.1" x2="88.9" y2="97.4" stroke="rgb(0,0,0)"  stroke-width="2.0"/>
<line x1="145.7" y1="81.0" x2="145.9" y2="67.0" stroke="rgb(0,0,0)"  stroke-width="2.0"/>
<line x1="178.8" y1="112.0" x2="202.4" y2="98.8" stroke="rgb(0,0,0)"  stroke-width="2.0"/>
<line x1="181.8" y1="117.2" x2="205.3" y2="104.0" stroke="rgb(0,0,0)"  stroke-width="2.0"/>
<line x1="312.0" y1="143.1" x2="292.6" y2="108.3" stroke="rgb(0,0,0)"  stroke-width="2.0"/>
<line x1="302.8" y1="141.4" x2="289.2" y2="117.1" stroke="rgb(0,0,0)"  stroke-width="2.0"/>
<line x1="292.6" y1="108.3" x2="266.2" y2="113.6" stroke="rgb(0,0,0)"  stroke-width="2.0"/>
<line x1="251.9" y1="129.0" x2="248.8" y2="155.7" stroke="rgb(0,0,0)"  stroke-width="2.0"/>
<line x1="248.8" y1="155.7" x2="285.0" y2="172.4" stroke="rgb(0,0,0)"  stroke-width="2.0"/>
<line x1="257.2" y1="151.7" x2="282.5" y2="163.3" stroke="rgb(0,0,0)"  stroke-width="2.0"/>
<line x1="285.0" y1="172.4" x2="312.0" y2="143.1" stroke="rgb(0,0,0)"  stroke-width="2.0"/>
<line x1="355.8" y1="95.8" x2="319.6" y2="79.1" stroke="rgb(0,0,0)"  stroke-width="2.0"/>
<line x1="347.3" y1="99.8" x2="322.1" y2="88.1" stroke="rgb(0,0,0)"  stroke-width="2.0"/>
<line x1="319.6" y1="79.1" x2="292.6" y2="108.3" stroke="rgb(0,0,0)"  stroke-width="2.0"/>
<line x1="312.0" y1="143.1" x2="338.4" y2="137.9" stroke="rgb(0,0,0)"  stroke-width="2.0"/>
<line x1="352.6" y1="122.4" x2="355.8" y2="95.8" stroke="rgb(0,0,0)"  stroke-width="2.0"/>
<line x1="178.7" y1="235.0" x2="144.0" y2="214.1" stroke="rgb(0,0,0)"  stroke-width="2.0"/>
<line x1="177.3" y1="225.7" x2="152.9" y2="211.1" stroke="rgb(0,0,0)"  stroke-width="2.0"/>
<line x1="144.0" y1="214.1" x2="144.5" y2="174.2" stroke="rgb(0,0,0)"  stroke-width="2.0"/>
<line x1="144.5" y1="174.2" x2="179.8" y2="154.7" stroke="rgb(0,0,0)"  stroke-width="2.0"/>
<line x1="153.3" y1="177.6" x2="178.0" y2="164.0" stroke="rgb(0,0,0)"  stroke-width="2.0"/>
<line x1="179.8" y1="154.7" x2="214.0" y2="175.1" stroke="rgb(0,0,0)"  stroke-width="2.0"/>
<line x1="214.0" y1="175.1" x2="213.5" y2="215.1" stroke="rgb(0,0,0)"  stroke-width="2.0"/>
<line x1="206.7" y1="181.0" x2="206.4" y2="209.0" stroke="rgb(0,0,0)"  stroke-width="2.0"/>
<line x1="213.5" y1="215.1" x2="178.7" y2="235.0" stroke="rgb(0,0,0)"  stroke-width="2.0"/>
<line x1="108.5" y1="274.2" x2="109.0" y2="234.1" stroke="rgb(0,0,0)"  stroke-width="2.0"/>
<line x1="109.0" y1="234.1" x2="144.0" y2="214.1" stroke="rgb(0,0,0)"  stroke-width="2.0"/>
<line x1="178.7" y1="235.0" x2="178.2" y2="275.1" stroke="rgb(0,0,0)"  stroke-width="2.0"/>
<line x1="178.2" y1="275.1" x2="154.8" y2="288.1" stroke="rgb(0,0,0)"  stroke-width="2.0"/>
<line x1="132.2" y1="287.9" x2="108.5" y2="274.2" stroke="rgb(0,0,0)"  stroke-width="2.0"/>
<line x1="75.3" y1="173.3" x2="110.1" y2="153.8" stroke="rgb(0,0,0)"  stroke-width="2.0"/>
<line x1="84.0" y1="176.7" x2="108.3" y2="163.0" stroke="rgb(0,0,0)"  stroke-width="2.0"/>
<line x1="110.1" y1="153.8" x2="144.5" y2="174.2" stroke="rgb(0,0,0)"  stroke-width="2.0"/>
<line x1="109.0" y1="234.1" x2="74.8" y2="213.2" stroke="rgb(0,0,0)"  stroke-width="2.0"/>
<line x1="107.6" y1="224.8" x2="83.6" y2="210.2" stroke="rgb(0,0,0)"  stroke-width="2.0"/>
<line x1="74.8" y1="213.2" x2="75.3" y2="173.3" stroke="rgb(0,0,0)"  stroke-width="2.0"/>
<line x1="156.8" y1="100.6" x2="180.3" y2="114.6" stroke="rgb(0,0,0)"  stroke-width="2.0"/>
<line x1="180.3" y1="114.6" x2="179.8" y2="154.7" stroke="rgb(0,0,0)"  stroke-width="2.0"/>
<line x1="110.1" y1="153.8" x2="110.6" y2="113.7" stroke="rgb(0,0,0)"  stroke-width="2.0"/>
<line x1="110.6" y1="113.7" x2="134.3" y2="100.4" stroke="rgb(0,0,0)"  stroke-width="2.0"/>
<text x="70.170559" y="101.302031" fill="rgb(255,12,12)"  stroke="rgb(255,12,12)" stroke-width="1" font-size="16" >O</text>
<text x="67.705515" y="301.997215" fill="rgb(255,12,12)"  stroke="rgb(255,12,12)" stroke-width="1" font-size="16" >O</text>
<text x="34.000000" y="241.010804" fill="rgb(191,191,191)"  stroke="rgb(191,191,191)" stroke-width="1" font-size="16" >H</text>
<text x="117.091787" y="342.407254" fill="rgb(102,102,102)"  stroke="rgb(102,102,102)" stroke-width="1" font-size="16" >H</text>
<text x="129.091787" y="346.087254" fill="rgb(102,102,102)"  stroke="rgb(102,102,102)" stroke-width="1" font-size="13" >3</text>
<text x="135.591787" y="342.407254" fill="rgb(102,102,102)"  stroke="rgb(102,102,102)" stroke-width="1" font-size="16" >C</text>
<text x="139.577175" y="101.974460" fill="rgb(12,12,255)"  stroke="rgb(12,12,255)" stroke-width="1" font-size="16" >N</text>
<text x="142.040347" y="61.977142" fill="rgb(102,102,102)"  stroke="rgb(102,102,102)" stroke-width="1" font-size="16" >CH</text>
<text x="166.040347" y="65.657142" fill="rgb(102,102,102)"  stroke="rgb(102,102,102)" stroke-width="1" font-size="13" >3</text>
<text x="209.188969" y="103.068055" fill="rgb(255,12,12)"  stroke="rgb(255,12,12)" stroke-width="1" font-size="16" >O</text>
<text x="305.857292" y="48.000000" fill="rgb(191,191,191)"  stroke="rgb(191,191,191)" stroke-width="1" font-size="16" >H</text>
<text x="286.727496" y="219.462212" fill="rgb(191,191,191)"  stroke="rgb(191,191,191)" stroke-width="1" font-size="16" >H</text>
<text x="345.111028" y="143.355484" fill="rgb(178,178,0)"  stroke="rgb(178,178,0)" stroke-width="1" font-size="16" >S</text>
<text x="384.581837" y="84.319860" fill="rgb(191,191,191)"  stroke="rgb(191,191,191)" stroke-width="1" font-size="16" >H</text>
<text x="247.473760" y="124.106728" fill="rgb(178,178,0)"  stroke="rgb(178,178,0)" stroke-width="1" font-size="16" >S</text>
<text x="206.525875" y="303.659185" fill="rgb(255,12,12)"  stroke="rgb(255,12,12)" stroke-width="1" font-size="16" >O</text>
<text x="137.437346" y="302.408747" fill="rgb(12,12,255)"  stroke="rgb(12,12,255)" stroke-width="1" font-size="16" >N</text>
</svg>
</g>
<text font-size="18.000000" fill ="black" font-family="sans-serif"
x="10.000000" y="20.000000" ></text>
</svg>
