<?xml version="1.0"?>
<svg version="1.1" id="topsvg"
xmlns="http://www.w3.org/2000/svg" xmlns:xlink="http://www.w3.org/1999/xlink"
xmlns:cml="http://www.xml-cml.org/schema" x="0" y="0" width="200px" height="200px" viewBox="0 0 100 100">
<title> - Open Babel Depiction</title>
<rect x="0" y="0" width="100" height="100" fill="white"/>
<g transform="translate(0,0)">
<svg width="100" height="100" x="0" y="0" viewBox="0 0 552.74 365.29"
font-family="sans-serif" stroke="rgb(0,0,0)" stroke-width="2"  stroke-linecap="round">
<line x1="214.2" y1="200.5" x2="248.9" y2="220.2" stroke="rgb(0,0,0)"  stroke-width="2.0"/>
<line x1="253.2" y1="259.9" x2="233.4" y2="278.0" stroke="rgb(0,0,0)"  stroke-width="2.0"/>
<line x1="292.3" y1="268.0" x2="303.3" y2="292.5" stroke="rgb(0,0,0)"  stroke-width="2.0"/>
<line x1="312.1" y1="233.3" x2="351.7" y2="229.0" stroke="rgb(0,0,0)"  stroke-width="2.0"/>
<line x1="354.1" y1="227.2" x2="377.7" y2="259.3" stroke="rgb(0,0,0)"  stroke-width="2.0"/>
<line x1="349.3" y1="230.7" x2="372.9" y2="262.9" stroke="rgb(0,0,0)"  stroke-width="2.0"/>
<line x1="375.3" y1="261.1" x2="414.9" y2="256.7" stroke="rgb(0,0,0)"  stroke-width="2.0"/>
<line x1="441.8" y1="286.2" x2="436.3" y2="312.6" stroke="rgb(0,0,0)"  stroke-width="2.0"/>
<line x1="478.1" y1="269.8" x2="501.4" y2="283.2" stroke="rgb(0,0,0)"  stroke-width="2.0"/>
<line x1="473.7" y1="230.2" x2="493.6" y2="212.1" stroke="rgb(0,0,0)"  stroke-width="2.0"/>
<line x1="113.0" y1="221.4" x2="113.1" y2="248.4" stroke="rgb(0,0,0)"  stroke-width="2.0"/>
<line x1="107.0" y1="221.4" x2="107.1" y2="248.4" stroke="rgb(0,0,0)"  stroke-width="2.0"/>
<line x1="64.4" y1="208.2" x2="52.5" y2="215.2" stroke="rgb(0,0,0)"  stroke-width="2.0"/>
<line x1="41.5" y1="234.8" x2="41.6" y2="248.6" stroke="rgb(0,0,0)"  stroke-width="2.0"/>
<line x1="73.4" y1="163.8" x2="49.8" y2="150.5" stroke="rgb(0,0,0)"  stroke-width="2.0"/>
<line x1="76.3" y1="158.6" x2="52.8" y2="145.3" stroke="rgb(0,0,0)"  stroke-width="2.0"/>
<line x1="109.7" y1="100.8" x2="86.2" y2="87.5" stroke="rgb(0,0,0)"  stroke-width="2.0"/>
<line x1="210.5" y1="80.1" x2="210.3" y2="53.1" stroke="rgb(0,0,0)"  stroke-width="2.0"/>
<line x1="216.5" y1="80.1" x2="216.3" y2="53.1" stroke="rgb(0,0,0)"  stroke-width="2.0"/>
<line x1="259.7" y1="93.4" x2="272.0" y2="86.2" stroke="rgb(0,0,0)"  stroke-width="2.0"/>
<line x1="280.9" y1="66.8" x2="278.4" y2="52.8" stroke="rgb(0,0,0)"  stroke-width="2.0"/>
<line x1="250.2" y1="137.7" x2="273.7" y2="151.1" stroke="rgb(0,0,0)"  stroke-width="2.0"/>
<line x1="247.2" y1="142.9" x2="270.7" y2="156.3" stroke="rgb(0,0,0)"  stroke-width="2.0"/>
<line x1="292.3" y1="268.0" x2="312.1" y2="233.3" stroke="rgb(0,0,0)"  stroke-width="2.0"/>
<line x1="289.0" y1="259.2" x2="302.8" y2="235.0" stroke="rgb(0,0,0)"  stroke-width="2.0"/>
<line x1="312.1" y1="233.3" x2="294.0" y2="213.5" stroke="rgb(0,0,0)"  stroke-width="2.0"/>
<line x1="273.4" y1="209.2" x2="248.9" y2="220.2" stroke="rgb(0,0,0)"  stroke-width="2.0"/>
<line x1="248.9" y1="220.2" x2="253.2" y2="259.9" stroke="rgb(0,0,0)"  stroke-width="2.0"/>
<line x1="256.7" y1="225.4" x2="259.7" y2="253.1" stroke="rgb(0,0,0)"  stroke-width="2.0"/>
<line x1="253.2" y1="259.9" x2="292.3" y2="268.0" stroke="rgb(0,0,0)"  stroke-width="2.0"/>
<line x1="478.1" y1="269.8" x2="473.7" y2="230.2" stroke="rgb(0,0,0)"  stroke-width="2.0"/>
<line x1="470.3" y1="264.7" x2="467.2" y2="237.0" stroke="rgb(0,0,0)"  stroke-width="2.0"/>
<line x1="473.7" y1="230.2" x2="447.4" y2="224.7" stroke="rgb(0,0,0)"  stroke-width="2.0"/>
<line x1="428.2" y1="233.4" x2="414.9" y2="256.7" stroke="rgb(0,0,0)"  stroke-width="2.0"/>
<line x1="414.9" y1="256.7" x2="441.8" y2="286.2" stroke="rgb(0,0,0)"  stroke-width="2.0"/>
<line x1="424.3" y1="256.3" x2="443.0" y2="277.0" stroke="rgb(0,0,0)"  stroke-width="2.0"/>
<line x1="441.8" y1="286.2" x2="478.1" y2="269.8" stroke="rgb(0,0,0)"  stroke-width="2.0"/>
<line x1="144.7" y1="201.1" x2="144.7" y2="160.6" stroke="rgb(0,0,0)"  stroke-width="2.0"/>
<line x1="151.9" y1="195.1" x2="151.9" y2="166.6" stroke="rgb(0,0,0)"  stroke-width="2.0"/>
<line x1="144.7" y1="160.6" x2="179.1" y2="140.5" stroke="rgb(0,0,0)"  stroke-width="2.0"/>
<line x1="179.1" y1="140.5" x2="214.0" y2="160.6" stroke="rgb(0,0,0)"  stroke-width="2.0"/>
<line x1="180.7" y1="149.7" x2="205.2" y2="163.8" stroke="rgb(0,0,0)"  stroke-width="2.0"/>
<line x1="214.0" y1="160.6" x2="214.2" y2="200.5" stroke="rgb(0,0,0)"  stroke-width="2.0"/>
<line x1="214.2" y1="200.5" x2="179.8" y2="220.6" stroke="rgb(0,0,0)"  stroke-width="2.0"/>
<line x1="205.4" y1="197.3" x2="181.3" y2="211.4" stroke="rgb(0,0,0)"  stroke-width="2.0"/>
<line x1="179.8" y1="220.6" x2="144.7" y2="201.1" stroke="rgb(0,0,0)"  stroke-width="2.0"/>
<line x1="74.8" y1="161.2" x2="109.5" y2="140.9" stroke="rgb(0,0,0)"  stroke-width="2.0"/>
<line x1="109.5" y1="140.9" x2="144.7" y2="160.6" stroke="rgb(0,0,0)"  stroke-width="2.0"/>
<line x1="144.7" y1="201.1" x2="110.0" y2="221.4" stroke="rgb(0,0,0)"  stroke-width="2.0"/>
<line x1="110.0" y1="221.4" x2="86.8" y2="208.1" stroke="rgb(0,0,0)"  stroke-width="2.0"/>
<line x1="75.3" y1="188.6" x2="74.8" y2="161.2" stroke="rgb(0,0,0)"  stroke-width="2.0"/>
<line x1="144.2" y1="80.6" x2="178.8" y2="100.4" stroke="rgb(0,0,0)"  stroke-width="2.0"/>
<line x1="145.8" y1="89.9" x2="170.1" y2="103.7" stroke="rgb(0,0,0)"  stroke-width="2.0"/>
<line x1="178.8" y1="100.4" x2="179.1" y2="140.5" stroke="rgb(0,0,0)"  stroke-width="2.0"/>
<line x1="109.5" y1="140.9" x2="109.7" y2="100.8" stroke="rgb(0,0,0)"  stroke-width="2.0"/>
<line x1="116.7" y1="134.9" x2="116.9" y2="106.8" stroke="rgb(0,0,0)"  stroke-width="2.0"/>
<line x1="109.7" y1="100.8" x2="144.2" y2="80.6" stroke="rgb(0,0,0)"  stroke-width="2.0"/>
<line x1="248.6" y1="112.9" x2="248.7" y2="140.3" stroke="rgb(0,0,0)"  stroke-width="2.0"/>
<line x1="248.7" y1="140.3" x2="214.0" y2="160.6" stroke="rgb(0,0,0)"  stroke-width="2.0"/>
<line x1="178.8" y1="100.4" x2="213.5" y2="80.1" stroke="rgb(0,0,0)"  stroke-width="2.0"/>
<line x1="213.5" y1="80.1" x2="237.2" y2="93.5" stroke="rgb(0,0,0)"  stroke-width="2.0"/>
<text x="69.572953" y="209.565292" fill="rgb(12,12,255)"  stroke="rgb(12,12,255)" stroke-width="1" font-size="16" >N</text>
<text x="35.330831" y="229.785700" fill="rgb(255,12,12)"  stroke="rgb(255,12,12)" stroke-width="1" font-size="16" >O</text>
<text x="37.721157" y="269.550451" fill="rgb(102,102,102)"  stroke="rgb(102,102,102)" stroke-width="1" font-size="16" >CH</text>
<text x="61.721157" y="273.230451" fill="rgb(102,102,102)"  stroke="rgb(102,102,102)" stroke-width="1" font-size="13" >3</text>
<text x="34.000000" y="149.522584" fill="rgb(255,12,12)"  stroke="rgb(255,12,12)" stroke-width="1" font-size="16" >O</text>
<text x="68.877900" y="89.147341" fill="rgb(191,191,191)"  stroke="rgb(191,191,191)" stroke-width="1" font-size="16" >H</text>
<text x="104.166379" y="269.410020" fill="rgb(255,12,12)"  stroke="rgb(255,12,12)" stroke-width="1" font-size="16" >O</text>
<text x="207.237095" y="48.122394" fill="rgb(255,12,12)"  stroke="rgb(255,12,12)" stroke-width="1" font-size="16" >O</text>
<text x="242.490036" y="107.929918" fill="rgb(12,12,255)"  stroke="rgb(12,12,255)" stroke-width="1" font-size="16" >N</text>
<text x="277.170092" y="87.588201" fill="rgb(255,12,12)"  stroke="rgb(255,12,12)" stroke-width="1" font-size="16" >O</text>
<text x="250.151113" y="48.000000" fill="rgb(102,102,102)"  stroke="rgb(102,102,102)" stroke-width="1" font-size="16" >H</text>
<text x="262.151113" y="51.680000" fill="rgb(102,102,102)"  stroke="rgb(102,102,102)" stroke-width="1" font-size="13" >3</text>
<text x="268.651113" y="48.000000" fill="rgb(102,102,102)"  stroke="rgb(102,102,102)" stroke-width="1" font-size="16" >C</text>
<text x="277.465809" y="168.153039" fill="rgb(255,12,12)"  stroke="rgb(255,12,12)" stroke-width="1" font-size="16" >O</text>
<text x="205.742436" y="294.717678" fill="rgb(30,239,30)"  stroke="rgb(30,239,30)" stroke-width="1" font-size="16" >Cl</text>
<text x="302.691609" y="312.323782" fill="rgb(255,12,12)"  stroke="rgb(255,12,12)" stroke-width="1" font-size="16" >OH</text>
<text x="279.217392" y="211.844244" fill="rgb(178,178,0)"  stroke="rgb(178,178,0)" stroke-width="1" font-size="16" >S</text>
<text x="415.665895" y="333.289854" fill="rgb(255,12,12)"  stroke="rgb(255,12,12)" stroke-width="1" font-size="16" >HO</text>
<text x="506.739827" y="297.601621" fill="rgb(30,239,30)"  stroke="rgb(30,239,30)" stroke-width="1" font-size="16" >Cl</text>
<text x="497.233489" y="211.369571" fill="rgb(191,191,191)"  stroke="rgb(191,191,191)" stroke-width="1" font-size="16" >H</text>
<text x="428.688397" y="230.109765" fill="rgb(178,178,0)"  stroke="rgb(178,178,0)" stroke-width="1" font-size="16" >S</text>
</svg>
</g>
<text font-size="18.000000" fill ="black" font-family="sans-serif"
x="10.000000" y="20.000000" ></text>
</svg>
