<?xml version="1.0"?>
<svg version="1.1" id="topsvg"
xmlns="http://www.w3.org/2000/svg" xmlns:xlink="http://www.w3.org/1999/xlink"
xmlns:cml="http://www.xml-cml.org/schema" x="0" y="0" width="200px" height="200px" viewBox="0 0 100 100">
<title> - Open Babel Depiction</title>
<rect x="0" y="0" width="100" height="100" fill="white"/>
<g transform="translate(0,0)">
<svg width="100" height="100" x="0" y="0" viewBox="0 0 504.371 291.559"
font-family="sans-serif" stroke="rgb(0,0,0)" stroke-width="2"  stroke-linecap="round">
<line x1="160.0" y1="110.4" x2="200.0" y2="110.4" stroke="rgb(0,0,0)"  stroke-width="2.0"/>
<line x1="223.5" y1="78.0" x2="215.2" y2="52.4" stroke="rgb(0,0,0)"  stroke-width="2.0"/>
<line x1="261.6" y1="90.4" x2="283.4" y2="74.5" stroke="rgb(0,0,0)"  stroke-width="2.0"/>
<line x1="261.6" y1="130.4" x2="293.9" y2="153.9" stroke="rgb(0,0,0)"  stroke-width="2.0"/>
<line x1="292.7" y1="151.2" x2="329.2" y2="134.9" stroke="rgb(0,0,0)"  stroke-width="2.0"/>
<line x1="295.1" y1="156.7" x2="331.7" y2="140.4" stroke="rgb(0,0,0)"  stroke-width="2.0"/>
<line x1="330.5" y1="137.6" x2="362.8" y2="161.2" stroke="rgb(0,0,0)"  stroke-width="2.0"/>
<line x1="400.9" y1="148.8" x2="409.2" y2="123.1" stroke="rgb(0,0,0)"  stroke-width="2.0"/>
<line x1="424.4" y1="181.2" x2="451.4" y2="181.2" stroke="rgb(0,0,0)"  stroke-width="2.0"/>
<line x1="400.9" y1="213.5" x2="409.2" y2="239.2" stroke="rgb(0,0,0)"  stroke-width="2.0"/>
<line x1="140.0" y1="145.0" x2="153.5" y2="168.4" stroke="rgb(0,0,0)"  stroke-width="2.0"/>
<line x1="100.0" y1="145.0" x2="86.5" y2="168.4" stroke="rgb(0,0,0)"  stroke-width="2.0"/>
<line x1="80.0" y1="110.4" x2="53.0" y2="110.4" stroke="rgb(0,0,0)"  stroke-width="2.0"/>
<line x1="100.0" y1="75.8" x2="86.5" y2="52.4" stroke="rgb(0,0,0)"  stroke-width="2.0"/>
<line x1="140.0" y1="75.8" x2="153.5" y2="52.4" stroke="rgb(0,0,0)"  stroke-width="2.0"/>
<line x1="261.6" y1="90.4" x2="261.6" y2="130.4" stroke="rgb(0,0,0)"  stroke-width="2.0"/>
<line x1="254.4" y1="96.4" x2="254.4" y2="124.4" stroke="rgb(0,0,0)"  stroke-width="2.0"/>
<line x1="261.6" y1="130.4" x2="235.9" y2="138.7" stroke="rgb(0,0,0)"  stroke-width="2.0"/>
<line x1="215.9" y1="132.2" x2="200.0" y2="110.4" stroke="rgb(0,0,0)"  stroke-width="2.0"/>
<line x1="200.0" y1="110.4" x2="223.5" y2="78.0" stroke="rgb(0,0,0)"  stroke-width="2.0"/>
<line x1="209.4" y1="109.8" x2="225.8" y2="87.1" stroke="rgb(0,0,0)"  stroke-width="2.0"/>
<line x1="223.5" y1="78.0" x2="261.6" y2="90.4" stroke="rgb(0,0,0)"  stroke-width="2.0"/>
<line x1="424.4" y1="181.2" x2="400.9" y2="213.5" stroke="rgb(0,0,0)"  stroke-width="2.0"/>
<line x1="415.0" y1="181.8" x2="398.6" y2="204.4" stroke="rgb(0,0,0)"  stroke-width="2.0"/>
<line x1="400.9" y1="213.5" x2="375.2" y2="205.2" stroke="rgb(0,0,0)"  stroke-width="2.0"/>
<line x1="362.8" y1="188.2" x2="362.8" y2="161.2" stroke="rgb(0,0,0)"  stroke-width="2.0"/>
<line x1="362.8" y1="161.2" x2="400.9" y2="148.8" stroke="rgb(0,0,0)"  stroke-width="2.0"/>
<line x1="370.7" y1="166.1" x2="397.4" y2="157.5" stroke="rgb(0,0,0)"  stroke-width="2.0"/>
<line x1="400.9" y1="148.8" x2="424.4" y2="181.2" stroke="rgb(0,0,0)"  stroke-width="2.0"/>
<line x1="100.0" y1="145.0" x2="80.0" y2="110.4" stroke="rgb(0,0,0)"  stroke-width="2.0"/>
<line x1="103.2" y1="136.2" x2="89.2" y2="112.0" stroke="rgb(0,0,0)"  stroke-width="2.0"/>
<line x1="80.0" y1="110.4" x2="100.0" y2="75.8" stroke="rgb(0,0,0)"  stroke-width="2.0"/>
<line x1="100.0" y1="75.8" x2="140.0" y2="75.8" stroke="rgb(0,0,0)"  stroke-width="2.0"/>
<line x1="106.0" y1="83.0" x2="134.0" y2="83.0" stroke="rgb(0,0,0)"  stroke-width="2.0"/>
<line x1="140.0" y1="75.8" x2="160.0" y2="110.4" stroke="rgb(0,0,0)"  stroke-width="2.0"/>
<line x1="160.0" y1="110.4" x2="140.0" y2="145.0" stroke="rgb(0,0,0)"  stroke-width="2.0"/>
<line x1="150.8" y1="112.0" x2="136.8" y2="136.2" stroke="rgb(0,0,0)"  stroke-width="2.0"/>
<line x1="140.0" y1="145.0" x2="100.0" y2="145.0" stroke="rgb(0,0,0)"  stroke-width="2.0"/>
<text x="458.370519" y="189.156295" fill="rgb(255,12,12)"  stroke="rgb(255,12,12)" stroke-width="1" font-size="16" >OH</text>
<text x="154.000000" y="49.120908" fill="rgb(127,178,255)"  stroke="rgb(127,178,255)" stroke-width="1" font-size="16" >F</text>
<text x="74.000000" y="49.120908" fill="rgb(127,178,255)"  stroke="rgb(127,178,255)" stroke-width="1" font-size="16" >F</text>
<text x="34.000000" y="118.402940" fill="rgb(191,191,191)"  stroke="rgb(191,191,191)" stroke-width="1" font-size="16" >H</text>
<text x="74.000000" y="187.684973" fill="rgb(127,178,255)"  stroke="rgb(127,178,255)" stroke-width="1" font-size="16" >F</text>
<text x="154.000000" y="187.684973" fill="rgb(127,178,255)"  stroke="rgb(127,178,255)" stroke-width="1" font-size="16" >F</text>
<text x="356.816849" y="209.156295" fill="rgb(178,178,0)"  stroke="rgb(178,178,0)" stroke-width="1" font-size="16" >S</text>
<text x="407.219789" y="259.559235" fill="rgb(191,191,191)"  stroke="rgb(191,191,191)" stroke-width="1" font-size="16" >H</text>
<text x="407.219789" y="118.753354" fill="rgb(127,178,255)"  stroke="rgb(127,178,255)" stroke-width="1" font-size="16" >F</text>
<text x="217.511410" y="150.763620" fill="rgb(178,178,0)"  stroke="rgb(178,178,0)" stroke-width="1" font-size="16" >S</text>
<text x="287.914351" y="74.891530" fill="rgb(127,178,255)"  stroke="rgb(127,178,255)" stroke-width="1" font-size="16" >F</text>
<text x="193.150730" y="48.000000" fill="rgb(255,12,12)"  stroke="rgb(255,12,12)" stroke-width="1" font-size="16" >HO</text>
</svg>
</g>
<text font-size="18.000000" fill ="black" font-family="sans-serif"
x="10.000000" y="20.000000" ></text>
</svg>
