<?xml version="1.0"?>
<svg version="1.1" id="topsvg"
xmlns="http://www.w3.org/2000/svg" xmlns:xlink="http://www.w3.org/1999/xlink"
xmlns:cml="http://www.xml-cml.org/schema" x="0" y="0" width="200px" height="200px" viewBox="0 0 100 100">
<title> - Open Babel Depiction</title>
<rect x="0" y="0" width="100" height="100" fill="white"/>
<g transform="translate(0,0)">
<svg width="100" height="100" x="0" y="0" viewBox="0 0 510.794 281.691"
font-family="sans-serif" stroke="rgb(0,0,0)" stroke-width="2"  stroke-linecap="round">
<line x1="241.1" y1="142.4" x2="274.9" y2="122.8" stroke="rgb(0,0,0)"  stroke-width="2.0"/>
<line x1="278.8" y1="83.9" x2="259.4" y2="66.6" stroke="rgb(0,0,0)"  stroke-width="2.0"/>
<line x1="316.9" y1="75.7" x2="327.4" y2="51.9" stroke="rgb(0,0,0)"  stroke-width="2.0"/>
<line x1="336.6" y1="109.4" x2="375.4" y2="113.4" stroke="rgb(0,0,0)"  stroke-width="2.0"/>
<line x1="437.1" y1="100.0" x2="459.6" y2="86.9" stroke="rgb(0,0,0)"  stroke-width="2.0"/>
<line x1="433.1" y1="138.8" x2="452.5" y2="156.2" stroke="rgb(0,0,0)"  stroke-width="2.0"/>
<line x1="395.0" y1="147.1" x2="384.5" y2="170.9" stroke="rgb(0,0,0)"  stroke-width="2.0"/>
<line x1="169.8" y1="102.9" x2="169.7" y2="75.6" stroke="rgb(0,0,0)"  stroke-width="2.0"/>
<line x1="175.8" y1="102.9" x2="175.7" y2="75.6" stroke="rgb(0,0,0)"  stroke-width="2.0"/>
<line x1="127.0" y1="116.7" x2="104.4" y2="103.8" stroke="rgb(0,0,0)"  stroke-width="2.0"/>
<line x1="101.5" y1="102.9" x2="109.4" y2="78.1" stroke="rgb(0,0,0)"  stroke-width="2.0"/>
<line x1="107.3" y1="104.7" x2="115.1" y2="79.9" stroke="rgb(0,0,0)"  stroke-width="2.0"/>
<line x1="104.4" y1="103.8" x2="79.0" y2="109.4" stroke="rgb(0,0,0)"  stroke-width="2.0"/>
<line x1="57.5" y1="102.6" x2="48.8" y2="92.9" stroke="rgb(0,0,0)"  stroke-width="2.0"/>
<line x1="138.6" y1="162.1" x2="115.2" y2="175.8" stroke="rgb(0,0,0)"  stroke-width="2.0"/>
<line x1="210.0" y1="201.6" x2="210.0" y2="228.7" stroke="rgb(0,0,0)"  stroke-width="2.0"/>
<line x1="204.0" y1="201.6" x2="204.0" y2="228.7" stroke="rgb(0,0,0)"  stroke-width="2.0"/>
<line x1="252.7" y1="187.8" x2="275.3" y2="200.7" stroke="rgb(0,0,0)"  stroke-width="2.0"/>
<line x1="278.3" y1="200.0" x2="283.8" y2="225.5" stroke="rgb(0,0,0)"  stroke-width="2.0"/>
<line x1="272.4" y1="201.3" x2="278.0" y2="226.7" stroke="rgb(0,0,0)"  stroke-width="2.0"/>
<line x1="275.3" y1="200.7" x2="294.5" y2="183.1" stroke="rgb(0,0,0)"  stroke-width="2.0"/>
<line x1="316.5" y1="178.3" x2="328.9" y2="182.3" stroke="rgb(0,0,0)"  stroke-width="2.0"/>
<line x1="316.9" y1="75.7" x2="336.6" y2="109.4" stroke="rgb(0,0,0)"  stroke-width="2.0"/>
<line x1="313.7" y1="84.5" x2="327.3" y2="107.9" stroke="rgb(0,0,0)"  stroke-width="2.0"/>
<line x1="336.6" y1="109.4" x2="319.2" y2="128.8" stroke="rgb(0,0,0)"  stroke-width="2.0"/>
<line x1="298.7" y1="133.3" x2="274.9" y2="122.8" stroke="rgb(0,0,0)"  stroke-width="2.0"/>
<line x1="274.9" y1="122.8" x2="278.8" y2="83.9" stroke="rgb(0,0,0)"  stroke-width="2.0"/>
<line x1="282.6" y1="117.5" x2="285.4" y2="90.6" stroke="rgb(0,0,0)"  stroke-width="2.0"/>
<line x1="278.8" y1="83.9" x2="316.9" y2="75.7" stroke="rgb(0,0,0)"  stroke-width="2.0"/>
<line x1="437.1" y1="100.0" x2="433.1" y2="138.8" stroke="rgb(0,0,0)"  stroke-width="2.0"/>
<line x1="429.3" y1="105.3" x2="426.6" y2="132.1" stroke="rgb(0,0,0)"  stroke-width="2.0"/>
<line x1="433.1" y1="138.8" x2="395.0" y2="147.1" stroke="rgb(0,0,0)"  stroke-width="2.0"/>
<line x1="395.0" y1="147.1" x2="375.4" y2="113.4" stroke="rgb(0,0,0)"  stroke-width="2.0"/>
<line x1="398.2" y1="138.3" x2="384.6" y2="114.9" stroke="rgb(0,0,0)"  stroke-width="2.0"/>
<line x1="375.4" y1="113.4" x2="392.7" y2="94.0" stroke="rgb(0,0,0)"  stroke-width="2.0"/>
<line x1="413.3" y1="89.5" x2="437.1" y2="100.0" stroke="rgb(0,0,0)"  stroke-width="2.0"/>
<line x1="172.8" y1="102.9" x2="149.5" y2="116.5" stroke="rgb(0,0,0)"  stroke-width="2.0"/>
<line x1="138.4" y1="136.1" x2="138.6" y2="162.1" stroke="rgb(0,0,0)"  stroke-width="2.0"/>
<line x1="138.6" y1="162.1" x2="172.8" y2="181.8" stroke="rgb(0,0,0)"  stroke-width="2.0"/>
<line x1="147.4" y1="158.9" x2="171.2" y2="172.6" stroke="rgb(0,0,0)"  stroke-width="2.0"/>
<line x1="172.8" y1="181.8" x2="207.0" y2="122.7" stroke="rgb(0,0,0)"  stroke-width="2.0"/>
<line x1="207.0" y1="122.7" x2="172.8" y2="102.9" stroke="rgb(0,0,0)"  stroke-width="2.0"/>
<line x1="172.8" y1="181.8" x2="207.0" y2="201.6" stroke="rgb(0,0,0)"  stroke-width="2.0"/>
<line x1="207.0" y1="201.6" x2="230.2" y2="188.0" stroke="rgb(0,0,0)"  stroke-width="2.0"/>
<line x1="241.3" y1="168.4" x2="241.1" y2="142.4" stroke="rgb(0,0,0)"  stroke-width="2.0"/>
<line x1="241.1" y1="142.4" x2="207.0" y2="122.7" stroke="rgb(0,0,0)"  stroke-width="2.0"/>
<line x1="232.3" y1="145.6" x2="208.6" y2="131.9" stroke="rgb(0,0,0)"  stroke-width="2.0"/>
<text x="166.626111" y="70.631234" fill="rgb(255,12,12)"  stroke="rgb(255,12,12)" stroke-width="1" font-size="16" >O</text>
<text x="132.322011" y="131.086133" fill="rgb(12,12,255)"  stroke="rgb(12,12,255)" stroke-width="1" font-size="16" >N</text>
<text x="110.216572" y="74.617563" fill="rgb(255,12,12)"  stroke="rgb(255,12,12)" stroke-width="1" font-size="16" >O</text>
<text x="60.297332" y="120.165879" fill="rgb(255,12,12)"  stroke="rgb(255,12,12)" stroke-width="1" font-size="16" >O</text>
<text x="14.000000" y="91.344992" fill="rgb(102,102,102)"  stroke="rgb(102,102,102)" stroke-width="1" font-size="16" >H</text>
<text x="26.000000" y="95.024992" fill="rgb(102,102,102)"  stroke="rgb(102,102,102)" stroke-width="1" font-size="13" >3</text>
<text x="32.500000" y="91.344992" fill="rgb(102,102,102)"  stroke="rgb(102,102,102)" stroke-width="1" font-size="16" >C</text>
<text x="97.985298" y="190.389274" fill="rgb(191,191,191)"  stroke="rgb(191,191,191)" stroke-width="1" font-size="16" >H</text>
<text x="201.087537" y="249.691415" fill="rgb(255,12,12)"  stroke="rgb(255,12,12)" stroke-width="1" font-size="16" >O</text>
<text x="235.409263" y="189.400023" fill="rgb(12,12,255)"  stroke="rgb(12,12,255)" stroke-width="1" font-size="16" >N</text>
<text x="277.689370" y="246.792278" fill="rgb(255,12,12)"  stroke="rgb(255,12,12)" stroke-width="1" font-size="16" >O</text>
<text x="298.146542" y="182.386660" fill="rgb(255,12,12)"  stroke="rgb(255,12,12)" stroke-width="1" font-size="16" >O</text>
<text x="337.331143" y="194.197614" fill="rgb(102,102,102)"  stroke="rgb(102,102,102)" stroke-width="1" font-size="16" >CH</text>
<text x="361.331143" y="197.877614" fill="rgb(102,102,102)"  stroke="rgb(102,102,102)" stroke-width="1" font-size="13" >3</text>
<text x="395.376248" y="92.273376" fill="rgb(178,178,0)"  stroke="rgb(178,178,0)" stroke-width="1" font-size="16" >S</text>
<text x="231.710446" y="65.939480" fill="rgb(30,239,30)"  stroke="rgb(30,239,30)" stroke-width="1" font-size="16" >Cl</text>
<text x="326.673560" y="48.000000" fill="rgb(127,178,255)"  stroke="rgb(127,178,255)" stroke-width="1" font-size="16" >F</text>
<text x="304.552150" y="146.502887" fill="rgb(178,178,0)"  stroke="rgb(178,178,0)" stroke-width="1" font-size="16" >S</text>
<text x="464.793505" y="88.390569" fill="rgb(191,191,191)"  stroke="rgb(191,191,191)" stroke-width="1" font-size="16" >H</text>
<text x="456.217952" y="172.836784" fill="rgb(30,239,30)"  stroke="rgb(30,239,30)" stroke-width="1" font-size="16" >Cl</text>
<text x="373.254838" y="190.776263" fill="rgb(127,178,255)"  stroke="rgb(127,178,255)" stroke-width="1" font-size="16" >F</text>
</svg>
</g>
<text font-size="18.000000" fill ="black" font-family="sans-serif"
x="10.000000" y="20.000000" ></text>
</svg>
