<?xml version="1.0"?>
<svg version="1.1" id="topsvg"
xmlns="http://www.w3.org/2000/svg" xmlns:xlink="http://www.w3.org/1999/xlink"
xmlns:cml="http://www.xml-cml.org/schema" x="0" y="0" width="200px" height="200px" viewBox="0 0 100 100">
<title> - Open Babel Depiction</title>
<rect x="0" y="0" width="100" height="100" fill="white"/>
<g transform="translate(0,0)">
<svg width="100" height="100" x="0" y="0" viewBox="0 0 361.287 494.509"
font-family="sans-serif" stroke="rgb(0,0,0)" stroke-width="2"  stroke-linecap="round">
<line x1="159.9" y1="137.8" x2="140.9" y2="170.7" stroke="rgb(0,0,0)"  stroke-width="2.0"/>
<line x1="103.1" y1="174.7" x2="77.7" y2="146.5" stroke="rgb(0,0,0)"  stroke-width="2.0"/>
<line x1="77.7" y1="146.5" x2="61.0" y2="127.9" stroke="rgb(0,0,0)"  stroke-width="2.0"/>
<line x1="74.6" y1="149.3" x2="57.9" y2="130.7" stroke="rgb(0,0,0)"  stroke-width="2.0"/>
<line x1="80.9" y1="143.7" x2="64.2" y2="125.1" stroke="rgb(0,0,0)"  stroke-width="2.0"/>
<line x1="95.3" y1="211.8" x2="72.4" y2="222.0" stroke="rgb(0,0,0)"  stroke-width="2.0"/>
<line x1="128.1" y1="230.8" x2="132.1" y2="268.6" stroke="rgb(0,0,0)"  stroke-width="2.0"/>
<line x1="133.9" y1="271.0" x2="103.1" y2="293.3" stroke="rgb(0,0,0)"  stroke-width="2.0"/>
<line x1="130.3" y1="266.2" x2="99.6" y2="288.5" stroke="rgb(0,0,0)"  stroke-width="2.0"/>
<line x1="101.4" y1="290.9" x2="105.4" y2="328.7" stroke="rgb(0,0,0)"  stroke-width="2.0"/>
<line x1="77.1" y1="354.1" x2="52.7" y2="348.9" stroke="rgb(0,0,0)"  stroke-width="2.0"/>
<line x1="92.6" y1="388.7" x2="73.6" y2="421.6" stroke="rgb(0,0,0)"  stroke-width="2.0"/>
<line x1="73.6" y1="421.6" x2="61.1" y2="443.3" stroke="rgb(0,0,0)"  stroke-width="2.0"/>
<line x1="77.2" y1="423.7" x2="64.8" y2="445.4" stroke="rgb(0,0,0)"  stroke-width="2.0"/>
<line x1="70.0" y1="419.5" x2="57.5" y2="441.2" stroke="rgb(0,0,0)"  stroke-width="2.0"/>
<line x1="130.3" y1="384.8" x2="147.0" y2="403.3" stroke="rgb(0,0,0)"  stroke-width="2.0"/>
<line x1="233.5" y1="152.6" x2="236.1" y2="177.4" stroke="rgb(0,0,0)"  stroke-width="2.0"/>
<line x1="227.5" y1="153.2" x2="230.2" y2="178.0" stroke="rgb(0,0,0)"  stroke-width="2.0"/>
<line x1="271.5" y1="130.2" x2="283.2" y2="132.7" stroke="rgb(0,0,0)"  stroke-width="2.0"/>
<line x1="304.6" y1="125.7" x2="312.6" y2="116.8" stroke="rgb(0,0,0)"  stroke-width="2.0"/>
<line x1="243.3" y1="92.8" x2="255.8" y2="71.2" stroke="rgb(0,0,0)"  stroke-width="2.0"/>
<line x1="169.7" y1="78.1" x2="167.1" y2="53.2" stroke="rgb(0,0,0)"  stroke-width="2.0"/>
<line x1="175.6" y1="77.4" x2="173.0" y2="52.6" stroke="rgb(0,0,0)"  stroke-width="2.0"/>
<line x1="149.2" y1="115.3" x2="180.7" y2="196.5" stroke="rgb(0,0,0)"  stroke-width="2.0"/>
<line x1="172.4" y1="208.7" x2="160.5" y2="208.7" stroke="rgb(0,0,0)"  stroke-width="2.0"/>
<line x1="95.3" y1="211.8" x2="128.1" y2="230.8" stroke="rgb(0,0,0)"  stroke-width="2.0"/>
<line x1="104.0" y1="208.6" x2="126.5" y2="221.6" stroke="rgb(0,0,0)"  stroke-width="2.0"/>
<line x1="128.1" y1="230.8" x2="146.7" y2="214.1" stroke="rgb(0,0,0)"  stroke-width="2.0"/>
<line x1="151.1" y1="193.5" x2="140.9" y2="170.7" stroke="rgb(0,0,0)"  stroke-width="2.0"/>
<line x1="140.9" y1="170.7" x2="103.1" y2="174.7" stroke="rgb(0,0,0)"  stroke-width="2.0"/>
<line x1="135.7" y1="178.5" x2="109.9" y2="181.2" stroke="rgb(0,0,0)"  stroke-width="2.0"/>
<line x1="103.1" y1="174.7" x2="95.3" y2="211.8" stroke="rgb(0,0,0)"  stroke-width="2.0"/>
<line x1="92.6" y1="388.7" x2="130.3" y2="384.8" stroke="rgb(0,0,0)"  stroke-width="2.0"/>
<line x1="97.8" y1="381.0" x2="123.6" y2="378.2" stroke="rgb(0,0,0)"  stroke-width="2.0"/>
<line x1="130.3" y1="384.8" x2="135.5" y2="360.4" stroke="rgb(0,0,0)"  stroke-width="2.0"/>
<line x1="127.0" y1="341.1" x2="105.4" y2="328.7" stroke="rgb(0,0,0)"  stroke-width="2.0"/>
<line x1="105.4" y1="328.7" x2="77.1" y2="354.1" stroke="rgb(0,0,0)"  stroke-width="2.0"/>
<line x1="105.7" y1="338.0" x2="86.4" y2="355.4" stroke="rgb(0,0,0)"  stroke-width="2.0"/>
<line x1="77.1" y1="354.1" x2="92.6" y2="388.7" stroke="rgb(0,0,0)"  stroke-width="2.0"/>
<line x1="230.5" y1="152.9" x2="249.1" y2="136.2" stroke="rgb(0,0,0)"  stroke-width="2.0"/>
<line x1="253.5" y1="115.6" x2="243.3" y2="92.8" stroke="rgb(0,0,0)"  stroke-width="2.0"/>
<line x1="243.3" y1="92.8" x2="205.5" y2="96.7" stroke="rgb(0,0,0)"  stroke-width="2.0"/>
<line x1="238.1" y1="100.6" x2="212.3" y2="103.3" stroke="rgb(0,0,0)"  stroke-width="2.0"/>
<line x1="205.5" y1="96.7" x2="197.6" y2="133.9" stroke="rgb(0,0,0)"  stroke-width="2.0"/>
<line x1="197.6" y1="133.9" x2="230.5" y2="152.9" stroke="rgb(0,0,0)"  stroke-width="2.0"/>
<line x1="205.5" y1="96.7" x2="172.7" y2="77.8" stroke="rgb(0,0,0)"  stroke-width="2.0"/>
<line x1="172.7" y1="77.8" x2="154.1" y2="94.5" stroke="rgb(0,0,0)"  stroke-width="2.0"/>
<line x1="149.7" y1="115.0" x2="159.9" y2="137.8" stroke="rgb(0,0,0)"  stroke-width="2.0"/>
<line x1="159.9" y1="137.8" x2="197.6" y2="133.9" stroke="rgb(0,0,0)"  stroke-width="2.0"/>
<line x1="165.1" y1="130.1" x2="190.9" y2="127.3" stroke="rgb(0,0,0)"  stroke-width="2.0"/>
<text x="149.745393" y="420.993751" fill="rgb(191,191,191)"  stroke="rgb(191,191,191)" stroke-width="1" font-size="16" >H</text>
<text x="132.234052" y="355.640539" fill="rgb(178,178,0)"  stroke="rgb(178,178,0)" stroke-width="1" font-size="16" >S</text>
<text x="228.497620" y="198.624435" fill="rgb(255,12,12)"  stroke="rgb(255,12,12)" stroke-width="1" font-size="16" >O</text>
<text x="252.744302" y="135.459669" fill="rgb(12,12,255)"  stroke="rgb(12,12,255)" stroke-width="1" font-size="16" >N</text>
<text x="289.882145" y="143.353561" fill="rgb(255,12,12)"  stroke="rgb(255,12,12)" stroke-width="1" font-size="16" >O</text>
<text x="317.287377" y="115.138192" fill="rgb(102,102,102)"  stroke="rgb(102,102,102)" stroke-width="1" font-size="16" >CH</text>
<text x="341.287377" y="118.818192" fill="rgb(102,102,102)"  stroke="rgb(102,102,102)" stroke-width="1" font-size="13" >3</text>
<text x="256.285281" y="67.893769" fill="rgb(191,191,191)"  stroke="rgb(191,191,191)" stroke-width="1" font-size="16" >H</text>
<text x="162.692457" y="48.000000" fill="rgb(255,12,12)"  stroke="rgb(255,12,12)" stroke-width="1" font-size="16" >O</text>
<text x="138.445775" y="111.164767" fill="rgb(12,12,255)"  stroke="rgb(12,12,255)" stroke-width="1" font-size="16" >N</text>
<text x="179.432156" y="216.651109" fill="rgb(255,12,12)"  stroke="rgb(255,12,12)" stroke-width="1" font-size="16" >O</text>
<text x="121.464631" y="216.651109" fill="rgb(102,102,102)"  stroke="rgb(102,102,102)" stroke-width="1" font-size="16" >H</text>
<text x="133.464631" y="220.331109" fill="rgb(102,102,102)"  stroke="rgb(102,102,102)" stroke-width="1" font-size="13" >3</text>
<text x="139.964631" y="216.651109" fill="rgb(102,102,102)"  stroke="rgb(102,102,102)" stroke-width="1" font-size="16" >C</text>
<text x="46.334797" y="126.268615" fill="rgb(12,12,255)"  stroke="rgb(12,12,255)" stroke-width="1" font-size="16" >N</text>
<text x="54.566310" y="235.279979" fill="rgb(127,178,255)"  stroke="rgb(127,178,255)" stroke-width="1" font-size="16" >F</text>
<text x="150.347579" y="213.415726" fill="rgb(178,178,0)"  stroke="rgb(178,178,0)" stroke-width="1" font-size="16" >S</text>
<text x="34.000000" y="354.168117" fill="rgb(127,178,255)"  stroke="rgb(127,178,255)" stroke-width="1" font-size="16" >F</text>
<text x="48.613102" y="462.508750" fill="rgb(12,12,255)"  stroke="rgb(12,12,255)" stroke-width="1" font-size="16" >N</text>
</svg>
</g>
<text font-size="18.000000" fill ="black" font-family="sans-serif"
x="10.000000" y="20.000000" ></text>
</svg>
