<?xml version="1.0"?>
<svg version="1.1" id="topsvg"
xmlns="http://www.w3.org/2000/svg" xmlns:xlink="http://www.w3.org/1999/xlink"
xmlns:cml="http://www.xml-cml.org/schema" x="0" y="0" width="200px" height="200px" viewBox="0 0 100 100">
<title> - Open Babel Depiction</title>
<rect x="0" y="0" width="100" height="100" fill="white"/>
<g transform="translate(0,0)">
<svg width="100" height="100" x="0" y="0" viewBox="0 0 372.989 400.057"
font-family="sans-serif" stroke="rgb(0,0,0)" stroke-width="2"  stroke-linecap="round">
<line x1="174.4" y1="136.1" x2="155.8" y2="168.4" stroke="rgb(0,0,0)"  stroke-width="2.0"/>
<line x1="83.2" y1="233.8" x2="60.1" y2="241.3" stroke="rgb(0,0,0)"  stroke-width="2.0"/>
<line x1="45.1" y1="258.0" x2="42.7" y2="269.1" stroke="rgb(0,0,0)"  stroke-width="2.0"/>
<line x1="83.2" y1="233.8" x2="188.7" y2="191.9" stroke="rgb(0,0,0)"  stroke-width="2.0"/>
<line x1="187.8" y1="187.1" x2="176.5" y2="187.1" stroke="rgb(0,0,0)"  stroke-width="2.0"/>
<line x1="122.9" y1="323.0" x2="125.5" y2="347.1" stroke="rgb(0,0,0)"  stroke-width="2.0"/>
<line x1="246.8" y1="150.6" x2="249.4" y2="174.7" stroke="rgb(0,0,0)"  stroke-width="2.0"/>
<line x1="240.8" y1="151.2" x2="243.4" y2="175.4" stroke="rgb(0,0,0)"  stroke-width="2.0"/>
<line x1="284.3" y1="128.6" x2="295.3" y2="131.0" stroke="rgb(0,0,0)"  stroke-width="2.0"/>
<line x1="316.7" y1="124.0" x2="324.3" y2="115.6" stroke="rgb(0,0,0)"  stroke-width="2.0"/>
<line x1="253.8" y1="90.3" x2="265.9" y2="69.3" stroke="rgb(0,0,0)"  stroke-width="2.0"/>
<line x1="259.0" y1="93.3" x2="271.1" y2="72.3" stroke="rgb(0,0,0)"  stroke-width="2.0"/>
<line x1="187.0" y1="77.1" x2="184.4" y2="52.9" stroke="rgb(0,0,0)"  stroke-width="2.0"/>
<line x1="110.9" y1="208.8" x2="143.2" y2="227.5" stroke="rgb(0,0,0)"  stroke-width="2.0"/>
<line x1="119.7" y1="205.6" x2="141.6" y2="218.2" stroke="rgb(0,0,0)"  stroke-width="2.0"/>
<line x1="143.2" y1="227.5" x2="161.3" y2="211.2" stroke="rgb(0,0,0)"  stroke-width="2.0"/>
<line x1="165.7" y1="190.6" x2="155.8" y2="168.4" stroke="rgb(0,0,0)"  stroke-width="2.0"/>
<line x1="155.8" y1="168.4" x2="118.7" y2="172.3" stroke="rgb(0,0,0)"  stroke-width="2.0"/>
<line x1="150.6" y1="176.2" x2="125.4" y2="178.9" stroke="rgb(0,0,0)"  stroke-width="2.0"/>
<line x1="118.7" y1="172.3" x2="110.9" y2="208.8" stroke="rgb(0,0,0)"  stroke-width="2.0"/>
<line x1="122.9" y1="323.0" x2="141.0" y2="306.7" stroke="rgb(0,0,0)"  stroke-width="2.0"/>
<line x1="145.4" y1="286.1" x2="135.5" y2="263.9" stroke="rgb(0,0,0)"  stroke-width="2.0"/>
<line x1="135.5" y1="263.9" x2="98.4" y2="267.8" stroke="rgb(0,0,0)"  stroke-width="2.0"/>
<line x1="130.3" y1="271.7" x2="105.1" y2="274.4" stroke="rgb(0,0,0)"  stroke-width="2.0"/>
<line x1="98.4" y1="267.8" x2="90.6" y2="304.3" stroke="rgb(0,0,0)"  stroke-width="2.0"/>
<line x1="90.6" y1="304.3" x2="122.9" y2="323.0" stroke="rgb(0,0,0)"  stroke-width="2.0"/>
<line x1="99.4" y1="301.1" x2="121.3" y2="313.7" stroke="rgb(0,0,0)"  stroke-width="2.0"/>
<line x1="219.3" y1="95.7" x2="187.0" y2="77.1" stroke="rgb(0,0,0)"  stroke-width="2.0"/>
<line x1="210.5" y1="99.0" x2="188.6" y2="86.3" stroke="rgb(0,0,0)"  stroke-width="2.0"/>
<line x1="187.0" y1="77.1" x2="168.9" y2="93.4" stroke="rgb(0,0,0)"  stroke-width="2.0"/>
<line x1="164.6" y1="113.9" x2="174.4" y2="136.1" stroke="rgb(0,0,0)"  stroke-width="2.0"/>
<line x1="174.4" y1="136.1" x2="211.5" y2="132.2" stroke="rgb(0,0,0)"  stroke-width="2.0"/>
<line x1="179.7" y1="128.3" x2="204.8" y2="125.7" stroke="rgb(0,0,0)"  stroke-width="2.0"/>
<line x1="211.5" y1="132.2" x2="219.3" y2="95.7" stroke="rgb(0,0,0)"  stroke-width="2.0"/>
<line x1="135.5" y1="263.9" x2="143.2" y2="227.5" stroke="rgb(0,0,0)"  stroke-width="2.0"/>
<line x1="110.9" y1="208.8" x2="83.2" y2="233.8" stroke="rgb(0,0,0)"  stroke-width="2.0"/>
<line x1="83.2" y1="233.8" x2="98.4" y2="267.8" stroke="rgb(0,0,0)"  stroke-width="2.0"/>
<line x1="243.8" y1="150.9" x2="261.9" y2="134.6" stroke="rgb(0,0,0)"  stroke-width="2.0"/>
<line x1="266.3" y1="114.0" x2="256.4" y2="91.8" stroke="rgb(0,0,0)"  stroke-width="2.0"/>
<line x1="256.4" y1="91.8" x2="219.3" y2="95.7" stroke="rgb(0,0,0)"  stroke-width="2.0"/>
<line x1="211.5" y1="132.2" x2="243.8" y2="150.9" stroke="rgb(0,0,0)"  stroke-width="2.0"/>
<text x="153.269414" y="110.049609" fill="rgb(178,178,0)"  stroke="rgb(178,178,0)" stroke-width="1" font-size="16" >S</text>
<text x="177.088027" y="48.000000" fill="rgb(191,191,191)"  stroke="rgb(191,191,191)" stroke-width="1" font-size="16" >H</text>
<text x="269.028494" y="67.542549" fill="rgb(255,12,12)"  stroke="rgb(255,12,12)" stroke-width="1" font-size="16" >O</text>
<text x="328.988924" y="113.952884" fill="rgb(102,102,102)"  stroke="rgb(102,102,102)" stroke-width="1" font-size="16" >CH</text>
<text x="352.988924" y="117.632884" fill="rgb(102,102,102)"  stroke="rgb(102,102,102)" stroke-width="1" font-size="13" >3</text>
<text x="302.032214" y="141.670118" fill="rgb(255,12,12)"  stroke="rgb(255,12,12)" stroke-width="1" font-size="16" >O</text>
<text x="265.550030" y="133.915591" fill="rgb(12,12,255)"  stroke="rgb(12,12,255)" stroke-width="1" font-size="16" >N</text>
<text x="241.731417" y="195.965200" fill="rgb(255,12,12)"  stroke="rgb(255,12,12)" stroke-width="1" font-size="16" >O</text>
<text x="144.659479" y="306.006951" fill="rgb(178,178,0)"  stroke="rgb(178,178,0)" stroke-width="1" font-size="16" >S</text>
<text x="120.840865" y="368.056560" fill="rgb(191,191,191)"  stroke="rgb(191,191,191)" stroke-width="1" font-size="16" >H</text>
<text x="137.492475" y="195.087645" fill="rgb(102,102,102)"  stroke="rgb(102,102,102)" stroke-width="1" font-size="16" >H</text>
<text x="149.492475" y="198.767645" fill="rgb(102,102,102)"  stroke="rgb(102,102,102)" stroke-width="1" font-size="13" >3</text>
<text x="155.992475" y="195.087645" fill="rgb(102,102,102)"  stroke="rgb(102,102,102)" stroke-width="1" font-size="16" >C</text>
<text x="194.789692" y="195.087645" fill="rgb(255,12,12)"  stroke="rgb(255,12,12)" stroke-width="1" font-size="16" >O</text>
<text x="14.000000" y="289.767822" fill="rgb(102,102,102)"  stroke="rgb(102,102,102)" stroke-width="1" font-size="16" >H</text>
<text x="26.000000" y="293.447822" fill="rgb(102,102,102)"  stroke="rgb(102,102,102)" stroke-width="1" font-size="13" >3</text>
<text x="32.500000" y="289.767822" fill="rgb(102,102,102)"  stroke="rgb(102,102,102)" stroke-width="1" font-size="16" >C</text>
<text x="41.754528" y="253.285639" fill="rgb(255,12,12)"  stroke="rgb(255,12,12)" stroke-width="1" font-size="16" >O</text>
<text x="164.961095" y="210.495354" fill="rgb(178,178,0)"  stroke="rgb(178,178,0)" stroke-width="1" font-size="16" >S</text>
</svg>
</g>
<text font-size="18.000000" fill ="black" font-family="sans-serif"
x="10.000000" y="20.000000" ></text>
</svg>
