<?xml version="1.0"?>
<svg version="1.1" id="topsvg"
xmlns="http://www.w3.org/2000/svg" xmlns:xlink="http://www.w3.org/1999/xlink"
xmlns:cml="http://www.xml-cml.org/schema" x="0" y="0" width="200px" height="200px" viewBox="0 0 100 100">
<title> - Open Babel Depiction</title>
<rect x="0" y="0" width="100" height="100" fill="white"/>
<g transform="translate(0,0)">
<svg width="100" height="100" x="0" y="0" viewBox="0 0 336.585 439.394"
font-family="sans-serif" stroke="rgb(0,0,0)" stroke-width="2"  stroke-linecap="round">
<line x1="153.3" y1="143.1" x2="133.3" y2="177.7" stroke="rgb(0,0,0)"  stroke-width="2.0"/>
<line x1="93.5" y1="181.9" x2="66.8" y2="152.2" stroke="rgb(0,0,0)"  stroke-width="2.0"/>
<line x1="66.8" y1="152.2" x2="48.7" y2="132.1" stroke="rgb(0,0,0)"  stroke-width="2.0"/>
<line x1="63.6" y1="155.0" x2="45.6" y2="134.9" stroke="rgb(0,0,0)"  stroke-width="2.0"/>
<line x1="69.9" y1="149.4" x2="51.8" y2="129.3" stroke="rgb(0,0,0)"  stroke-width="2.0"/>
<line x1="85.2" y1="221.0" x2="60.5" y2="232.0" stroke="rgb(0,0,0)"  stroke-width="2.0"/>
<line x1="119.9" y1="241.0" x2="124.0" y2="280.8" stroke="rgb(0,0,0)"  stroke-width="2.0"/>
<line x1="110.6" y1="344.1" x2="97.1" y2="367.5" stroke="rgb(0,0,0)"  stroke-width="2.0"/>
<line x1="150.4" y1="339.9" x2="177.1" y2="369.7" stroke="rgb(0,0,0)"  stroke-width="2.0"/>
<line x1="177.1" y1="369.7" x2="195.2" y2="389.7" stroke="rgb(0,0,0)"  stroke-width="2.0"/>
<line x1="180.2" y1="366.9" x2="198.3" y2="386.9" stroke="rgb(0,0,0)"  stroke-width="2.0"/>
<line x1="174.0" y1="372.5" x2="192.1" y2="392.5" stroke="rgb(0,0,0)"  stroke-width="2.0"/>
<line x1="158.7" y1="300.8" x2="183.3" y2="289.8" stroke="rgb(0,0,0)"  stroke-width="2.0"/>
<line x1="230.7" y1="158.6" x2="233.5" y2="185.4" stroke="rgb(0,0,0)"  stroke-width="2.0"/>
<line x1="224.7" y1="159.2" x2="227.6" y2="186.1" stroke="rgb(0,0,0)"  stroke-width="2.0"/>
<line x1="270.2" y1="134.8" x2="283.9" y2="137.8" stroke="rgb(0,0,0)"  stroke-width="2.0"/>
<line x1="241.2" y1="95.6" x2="254.7" y2="72.2" stroke="rgb(0,0,0)"  stroke-width="2.0"/>
<line x1="163.8" y1="80.1" x2="161.0" y2="53.2" stroke="rgb(0,0,0)"  stroke-width="2.0"/>
<line x1="169.8" y1="79.5" x2="166.9" y2="52.6" stroke="rgb(0,0,0)"  stroke-width="2.0"/>
<line x1="124.3" y1="103.8" x2="110.6" y2="100.9" stroke="rgb(0,0,0)"  stroke-width="2.0"/>
<line x1="85.2" y1="221.0" x2="119.9" y2="241.0" stroke="rgb(0,0,0)"  stroke-width="2.0"/>
<line x1="94.0" y1="217.8" x2="118.3" y2="231.8" stroke="rgb(0,0,0)"  stroke-width="2.0"/>
<line x1="119.9" y1="241.0" x2="139.9" y2="223.0" stroke="rgb(0,0,0)"  stroke-width="2.0"/>
<line x1="144.3" y1="202.4" x2="133.3" y2="177.7" stroke="rgb(0,0,0)"  stroke-width="2.0"/>
<line x1="133.3" y1="177.7" x2="93.5" y2="181.9" stroke="rgb(0,0,0)"  stroke-width="2.0"/>
<line x1="128.1" y1="185.5" x2="100.3" y2="188.4" stroke="rgb(0,0,0)"  stroke-width="2.0"/>
<line x1="93.5" y1="181.9" x2="85.2" y2="221.0" stroke="rgb(0,0,0)"  stroke-width="2.0"/>
<line x1="110.6" y1="344.1" x2="150.4" y2="339.9" stroke="rgb(0,0,0)"  stroke-width="2.0"/>
<line x1="115.8" y1="336.3" x2="143.6" y2="333.4" stroke="rgb(0,0,0)"  stroke-width="2.0"/>
<line x1="150.4" y1="339.9" x2="158.7" y2="300.8" stroke="rgb(0,0,0)"  stroke-width="2.0"/>
<line x1="158.7" y1="300.8" x2="124.0" y2="280.8" stroke="rgb(0,0,0)"  stroke-width="2.0"/>
<line x1="149.9" y1="304.1" x2="125.6" y2="290.1" stroke="rgb(0,0,0)"  stroke-width="2.0"/>
<line x1="124.0" y1="280.8" x2="104.0" y2="298.9" stroke="rgb(0,0,0)"  stroke-width="2.0"/>
<line x1="99.6" y1="319.5" x2="110.6" y2="344.1" stroke="rgb(0,0,0)"  stroke-width="2.0"/>
<line x1="227.7" y1="158.9" x2="247.8" y2="140.8" stroke="rgb(0,0,0)"  stroke-width="2.0"/>
<line x1="252.2" y1="120.3" x2="241.2" y2="95.6" stroke="rgb(0,0,0)"  stroke-width="2.0"/>
<line x1="241.2" y1="95.6" x2="201.4" y2="99.8" stroke="rgb(0,0,0)"  stroke-width="2.0"/>
<line x1="236.0" y1="103.4" x2="208.1" y2="106.3" stroke="rgb(0,0,0)"  stroke-width="2.0"/>
<line x1="201.4" y1="99.8" x2="193.1" y2="138.9" stroke="rgb(0,0,0)"  stroke-width="2.0"/>
<line x1="193.1" y1="138.9" x2="227.7" y2="158.9" stroke="rgb(0,0,0)"  stroke-width="2.0"/>
<line x1="201.4" y1="99.8" x2="166.8" y2="79.8" stroke="rgb(0,0,0)"  stroke-width="2.0"/>
<line x1="166.8" y1="79.8" x2="146.7" y2="97.8" stroke="rgb(0,0,0)"  stroke-width="2.0"/>
<line x1="142.3" y1="118.4" x2="153.3" y2="143.1" stroke="rgb(0,0,0)"  stroke-width="2.0"/>
<line x1="153.3" y1="143.1" x2="193.1" y2="138.9" stroke="rgb(0,0,0)"  stroke-width="2.0"/>
<line x1="158.5" y1="135.3" x2="186.4" y2="132.4" stroke="rgb(0,0,0)"  stroke-width="2.0"/>
<text x="197.891133" y="407.394343" fill="rgb(12,12,255)"  stroke="rgb(12,12,255)" stroke-width="1" font-size="16" >N</text>
<text x="91.915955" y="106.229632" fill="rgb(191,191,191)"  stroke="rgb(191,191,191)" stroke-width="1" font-size="16" >H</text>
<text x="131.041859" y="114.546100" fill="rgb(12,12,255)"  stroke="rgb(12,12,255)" stroke-width="1" font-size="16" >N</text>
<text x="156.586513" y="48.000000" fill="rgb(255,12,12)"  stroke="rgb(255,12,12)" stroke-width="1" font-size="16" >O</text>
<text x="255.189544" y="68.958721" fill="rgb(191,191,191)"  stroke="rgb(191,191,191)" stroke-width="1" font-size="16" >H</text>
<text x="290.584913" y="148.458023" fill="rgb(191,191,191)"  stroke="rgb(191,191,191)" stroke-width="1" font-size="16" >H</text>
<text x="251.459009" y="140.141556" fill="rgb(12,12,255)"  stroke="rgb(12,12,255)" stroke-width="1" font-size="16" >N</text>
<text x="225.914355" y="206.687656" fill="rgb(255,12,12)"  stroke="rgb(255,12,12)" stroke-width="1" font-size="16" >O</text>
<text x="189.218970" y="292.547387" fill="rgb(127,178,255)"  stroke="rgb(127,178,255)" stroke-width="1" font-size="16" >F</text>
<text x="84.579808" y="386.764912" fill="rgb(191,191,191)"  stroke="rgb(191,191,191)" stroke-width="1" font-size="16" >H</text>
<text x="88.310343" y="315.582077" fill="rgb(178,178,0)"  stroke="rgb(178,178,0)" stroke-width="1" font-size="16" >S</text>
<text x="143.580790" y="222.270753" fill="rgb(178,178,0)"  stroke="rgb(178,178,0)" stroke-width="1" font-size="16" >S</text>
<text x="42.672163" y="245.305443" fill="rgb(127,178,255)"  stroke="rgb(127,178,255)" stroke-width="1" font-size="16" >F</text>
<text x="34.000000" y="130.458487" fill="rgb(12,12,255)"  stroke="rgb(12,12,255)" stroke-width="1" font-size="16" >N</text>
</svg>
</g>
<text font-size="18.000000" fill ="black" font-family="sans-serif"
x="10.000000" y="20.000000" ></text>
</svg>
