<?xml version="1.0"?>
<svg version="1.1" id="topsvg"
xmlns="http://www.w3.org/2000/svg" xmlns:xlink="http://www.w3.org/1999/xlink"
xmlns:cml="http://www.xml-cml.org/schema" x="0" y="0" width="200px" height="200px" viewBox="0 0 100 100">
<title> - Open Babel Depiction</title>
<rect x="0" y="0" width="100" height="100" fill="white"/>
<g transform="translate(0,0)">
<svg width="100" height="100" x="0" y="0" viewBox="0 0 485.697 514.949"
font-family="sans-serif" stroke="rgb(0,0,0)" stroke-width="2"  stroke-linecap="round">
<line x1="218.0" y1="209.5" x2="197.3" y2="245.3" stroke="rgb(0,0,0)"  stroke-width="2.0"/>
<line x1="156.2" y1="249.7" x2="128.5" y2="218.9" stroke="rgb(0,0,0)"  stroke-width="2.0"/>
<line x1="128.5" y1="218.9" x2="109.5" y2="197.8" stroke="rgb(0,0,0)"  stroke-width="2.0"/>
<line x1="125.3" y1="221.7" x2="106.3" y2="200.6" stroke="rgb(0,0,0)"  stroke-width="2.0"/>
<line x1="131.6" y1="216.1" x2="112.6" y2="195.0" stroke="rgb(0,0,0)"  stroke-width="2.0"/>
<line x1="111.7" y1="310.8" x2="75.8" y2="290.1" stroke="rgb(0,0,0)"  stroke-width="2.0"/>
<line x1="77.3" y1="292.7" x2="52.8" y2="306.9" stroke="rgb(0,0,0)"  stroke-width="2.0"/>
<line x1="74.3" y1="287.5" x2="49.8" y2="301.7" stroke="rgb(0,0,0)"  stroke-width="2.0"/>
<line x1="75.8" y1="290.1" x2="75.8" y2="261.7" stroke="rgb(0,0,0)"  stroke-width="2.0"/>
<line x1="64.6" y1="242.2" x2="51.3" y2="234.5" stroke="rgb(0,0,0)"  stroke-width="2.0"/>
<line x1="97.8" y1="417.8" x2="83.6" y2="442.3" stroke="rgb(0,0,0)"  stroke-width="2.0"/>
<line x1="138.9" y1="413.4" x2="166.6" y2="444.2" stroke="rgb(0,0,0)"  stroke-width="2.0"/>
<line x1="166.6" y1="444.2" x2="185.6" y2="465.3" stroke="rgb(0,0,0)"  stroke-width="2.0"/>
<line x1="169.8" y1="441.4" x2="188.8" y2="462.5" stroke="rgb(0,0,0)"  stroke-width="2.0"/>
<line x1="163.5" y1="447.0" x2="182.5" y2="468.1" stroke="rgb(0,0,0)"  stroke-width="2.0"/>
<line x1="183.4" y1="352.2" x2="219.2" y2="372.9" stroke="rgb(0,0,0)"  stroke-width="2.0"/>
<line x1="217.7" y1="370.3" x2="242.3" y2="356.1" stroke="rgb(0,0,0)"  stroke-width="2.0"/>
<line x1="220.7" y1="375.5" x2="245.3" y2="361.3" stroke="rgb(0,0,0)"  stroke-width="2.0"/>
<line x1="219.2" y1="372.9" x2="219.2" y2="401.3" stroke="rgb(0,0,0)"  stroke-width="2.0"/>
<line x1="230.5" y1="420.8" x2="243.8" y2="428.5" stroke="rgb(0,0,0)"  stroke-width="2.0"/>
<line x1="324.1" y1="172.1" x2="338.3" y2="196.7" stroke="rgb(0,0,0)"  stroke-width="2.0"/>
<line x1="318.9" y1="175.1" x2="333.1" y2="199.7" stroke="rgb(0,0,0)"  stroke-width="2.0"/>
<line x1="355.2" y1="137.8" x2="383.6" y2="137.8" stroke="rgb(0,0,0)"  stroke-width="2.0"/>
<line x1="381.0" y1="136.3" x2="395.2" y2="111.7" stroke="rgb(0,0,0)"  stroke-width="2.0"/>
<line x1="386.2" y1="139.3" x2="400.4" y2="114.7" stroke="rgb(0,0,0)"  stroke-width="2.0"/>
<line x1="383.6" y1="137.8" x2="397.8" y2="162.4" stroke="rgb(0,0,0)"  stroke-width="2.0"/>
<line x1="417.3" y1="173.6" x2="432.7" y2="173.6" stroke="rgb(0,0,0)"  stroke-width="2.0"/>
<line x1="318.9" y1="100.4" x2="333.1" y2="75.8" stroke="rgb(0,0,0)"  stroke-width="2.0"/>
<line x1="324.1" y1="103.4" x2="338.3" y2="78.8" stroke="rgb(0,0,0)"  stroke-width="2.0"/>
<line x1="258.4" y1="78.5" x2="268.8" y2="52.1" stroke="rgb(0,0,0)"  stroke-width="2.0"/>
<line x1="176.1" y1="110.4" x2="162.4" y2="85.5" stroke="rgb(0,0,0)"  stroke-width="2.0"/>
<line x1="181.3" y1="107.5" x2="167.6" y2="82.6" stroke="rgb(0,0,0)"  stroke-width="2.0"/>
<line x1="148.6" y1="131.2" x2="120.6" y2="126.4" stroke="rgb(0,0,0)"  stroke-width="2.0"/>
<line x1="122.9" y1="128.3" x2="104.8" y2="150.2" stroke="rgb(0,0,0)"  stroke-width="2.0"/>
<line x1="118.3" y1="124.5" x2="100.1" y2="146.4" stroke="rgb(0,0,0)"  stroke-width="2.0"/>
<line x1="120.6" y1="126.4" x2="110.7" y2="99.8" stroke="rgb(0,0,0)"  stroke-width="2.0"/>
<line x1="114.5" y1="77.6" x2="124.3" y2="65.8" stroke="rgb(0,0,0)"  stroke-width="2.0"/>
<line x1="171.7" y1="164.4" x2="150.5" y2="183.3" stroke="rgb(0,0,0)"  stroke-width="2.0"/>
<line x1="167.7" y1="159.9" x2="146.5" y2="178.8" stroke="rgb(0,0,0)"  stroke-width="2.0"/>
<line x1="147.5" y1="290.1" x2="183.4" y2="310.8" stroke="rgb(0,0,0)"  stroke-width="2.0"/>
<line x1="183.4" y1="310.8" x2="204.5" y2="291.8" stroke="rgb(0,0,0)"  stroke-width="2.0"/>
<line x1="208.9" y1="271.3" x2="197.3" y2="245.3" stroke="rgb(0,0,0)"  stroke-width="2.0"/>
<line x1="197.3" y1="245.3" x2="156.2" y2="249.7" stroke="rgb(0,0,0)"  stroke-width="2.0"/>
<line x1="192.1" y1="253.1" x2="162.9" y2="256.2" stroke="rgb(0,0,0)"  stroke-width="2.0"/>
<line x1="156.2" y1="249.7" x2="147.5" y2="290.1" stroke="rgb(0,0,0)"  stroke-width="2.0"/>
<line x1="97.8" y1="417.8" x2="138.9" y2="413.4" stroke="rgb(0,0,0)"  stroke-width="2.0"/>
<line x1="103.0" y1="410.0" x2="132.2" y2="406.9" stroke="rgb(0,0,0)"  stroke-width="2.0"/>
<line x1="138.9" y1="413.4" x2="147.5" y2="372.9" stroke="rgb(0,0,0)"  stroke-width="2.0"/>
<line x1="147.5" y1="372.9" x2="111.7" y2="352.2" stroke="rgb(0,0,0)"  stroke-width="2.0"/>
<line x1="138.8" y1="376.2" x2="113.3" y2="361.5" stroke="rgb(0,0,0)"  stroke-width="2.0"/>
<line x1="111.7" y1="352.2" x2="90.6" y2="371.2" stroke="rgb(0,0,0)"  stroke-width="2.0"/>
<line x1="86.2" y1="391.8" x2="97.8" y2="417.8" stroke="rgb(0,0,0)"  stroke-width="2.0"/>
<line x1="147.5" y1="372.9" x2="183.4" y2="352.2" stroke="rgb(0,0,0)"  stroke-width="2.0"/>
<line x1="183.4" y1="352.2" x2="183.4" y2="310.8" stroke="rgb(0,0,0)"  stroke-width="2.0"/>
<line x1="176.2" y1="346.2" x2="176.2" y2="316.8" stroke="rgb(0,0,0)"  stroke-width="2.0"/>
<line x1="147.5" y1="290.1" x2="111.7" y2="310.8" stroke="rgb(0,0,0)"  stroke-width="2.0"/>
<line x1="146.0" y1="299.4" x2="120.5" y2="314.1" stroke="rgb(0,0,0)"  stroke-width="2.0"/>
<line x1="111.7" y1="310.8" x2="111.7" y2="352.2" stroke="rgb(0,0,0)"  stroke-width="2.0"/>
<line x1="280.1" y1="173.6" x2="259.4" y2="137.8" stroke="rgb(0,0,0)"  stroke-width="2.0"/>
<line x1="270.9" y1="172.0" x2="256.2" y2="146.6" stroke="rgb(0,0,0)"  stroke-width="2.0"/>
<line x1="259.4" y1="137.8" x2="218.0" y2="137.8" stroke="rgb(0,0,0)"  stroke-width="2.0"/>
<line x1="218.0" y1="137.8" x2="197.3" y2="173.6" stroke="rgb(0,0,0)"  stroke-width="2.0"/>
<line x1="221.3" y1="146.6" x2="206.6" y2="172.0" stroke="rgb(0,0,0)"  stroke-width="2.0"/>
<line x1="197.3" y1="173.6" x2="218.0" y2="209.5" stroke="rgb(0,0,0)"  stroke-width="2.0"/>
<line x1="218.0" y1="209.5" x2="259.4" y2="209.5" stroke="rgb(0,0,0)"  stroke-width="2.0"/>
<line x1="224.0" y1="202.3" x2="253.4" y2="202.3" stroke="rgb(0,0,0)"  stroke-width="2.0"/>
<line x1="259.4" y1="209.5" x2="280.1" y2="173.6" stroke="rgb(0,0,0)"  stroke-width="2.0"/>
<line x1="321.5" y1="101.9" x2="280.1" y2="101.9" stroke="rgb(0,0,0)"  stroke-width="2.0"/>
<line x1="280.1" y1="101.9" x2="259.4" y2="137.8" stroke="rgb(0,0,0)"  stroke-width="2.0"/>
<line x1="280.1" y1="173.6" x2="321.5" y2="173.6" stroke="rgb(0,0,0)"  stroke-width="2.0"/>
<line x1="321.5" y1="173.6" x2="335.7" y2="149.0" stroke="rgb(0,0,0)"  stroke-width="2.0"/>
<line x1="335.7" y1="126.5" x2="321.5" y2="101.9" stroke="rgb(0,0,0)"  stroke-width="2.0"/>
<line x1="226.6" y1="80.9" x2="208.6" y2="107.3" stroke="rgb(0,0,0)"  stroke-width="2.0"/>
<line x1="229.2" y1="89.9" x2="217.9" y2="106.4" stroke="rgb(0,0,0)"  stroke-width="2.0"/>
<line x1="208.6" y1="107.3" x2="218.0" y2="137.8" stroke="rgb(0,0,0)"  stroke-width="2.0"/>
<line x1="280.1" y1="101.9" x2="258.4" y2="78.5" stroke="rgb(0,0,0)"  stroke-width="2.0"/>
<line x1="270.8" y1="102.4" x2="257.2" y2="87.8" stroke="rgb(0,0,0)"  stroke-width="2.0"/>
<line x1="258.4" y1="78.5" x2="226.6" y2="80.9" stroke="rgb(0,0,0)"  stroke-width="2.0"/>
<line x1="165.0" y1="145.9" x2="169.7" y2="162.2" stroke="rgb(0,0,0)"  stroke-width="2.0"/>
<line x1="169.7" y1="162.2" x2="197.3" y2="173.6" stroke="rgb(0,0,0)"  stroke-width="2.0"/>
<line x1="208.6" y1="107.3" x2="178.7" y2="109.0" stroke="rgb(0,0,0)"  stroke-width="2.0"/>
<line x1="178.7" y1="109.0" x2="168.9" y2="122.8" stroke="rgb(0,0,0)"  stroke-width="2.0"/>
<text x="336.208351" y="217.473732" fill="rgb(255,12,12)"  stroke="rgb(255,12,12)" stroke-width="1" font-size="16" >O</text>
<text x="336.208351" y="145.774600" fill="rgb(12,12,255)"  stroke="rgb(12,12,255)" stroke-width="1" font-size="16" >N</text>
<text x="398.301621" y="109.925034" fill="rgb(255,12,12)"  stroke="rgb(255,12,12)" stroke-width="1" font-size="16" >O</text>
<text x="398.301621" y="181.624166" fill="rgb(255,12,12)"  stroke="rgb(255,12,12)" stroke-width="1" font-size="16" >O</text>
<text x="441.697134" y="181.624166" fill="rgb(102,102,102)"  stroke="rgb(102,102,102)" stroke-width="1" font-size="16" >CH</text>
<text x="465.697134" y="185.304166" fill="rgb(102,102,102)"  stroke="rgb(102,102,102)" stroke-width="1" font-size="13" >3</text>
<text x="336.208351" y="74.075468" fill="rgb(255,12,12)"  stroke="rgb(255,12,12)" stroke-width="1" font-size="16" >O</text>
<text x="267.534849" y="48.000000" fill="rgb(191,191,191)"  stroke="rgb(191,191,191)" stroke-width="1" font-size="16" >H</text>
<text x="152.700968" y="80.717007" fill="rgb(255,12,12)"  stroke="rgb(255,12,12)" stroke-width="1" font-size="16" >O</text>
<text x="155.375722" y="141.373543" fill="rgb(12,12,255)"  stroke="rgb(12,12,255)" stroke-width="1" font-size="16" >N</text>
<text x="88.147223" y="166.295312" fill="rgb(255,12,12)"  stroke="rgb(255,12,12)" stroke-width="1" font-size="16" >O</text>
<text x="100.178587" y="95.612840" fill="rgb(255,12,12)"  stroke="rgb(255,12,12)" stroke-width="1" font-size="16" >O</text>
<text x="128.598541" y="63.744760" fill="rgb(102,102,102)"  stroke="rgb(102,102,102)" stroke-width="1" font-size="16" >CH</text>
<text x="152.598541" y="67.424760" fill="rgb(102,102,102)"  stroke="rgb(102,102,102)" stroke-width="1" font-size="13" >3</text>
<text x="132.783493" y="197.729207" fill="rgb(255,12,12)"  stroke="rgb(255,12,12)" stroke-width="1" font-size="16" >O</text>
<text x="71.075586" y="461.599754" fill="rgb(191,191,191)"  stroke="rgb(191,191,191)" stroke-width="1" font-size="16" >H</text>
<text x="94.757300" y="196.124585" fill="rgb(12,12,255)"  stroke="rgb(12,12,255)" stroke-width="1" font-size="16" >N</text>
<text x="34.000000" y="318.838987" fill="rgb(255,12,12)"  stroke="rgb(255,12,12)" stroke-width="1" font-size="16" >O</text>
<text x="69.849566" y="256.745717" fill="rgb(255,12,12)"  stroke="rgb(255,12,12)" stroke-width="1" font-size="16" >O</text>
<text x="14.000000" y="236.047960" fill="rgb(102,102,102)"  stroke="rgb(102,102,102)" stroke-width="1" font-size="16" >H</text>
<text x="26.000000" y="239.727960" fill="rgb(102,102,102)"  stroke="rgb(102,102,102)" stroke-width="1" font-size="13" >3</text>
<text x="32.500000" y="236.047960" fill="rgb(102,102,102)"  stroke="rgb(102,102,102)" stroke-width="1" font-size="16" >C</text>
<text x="74.936271" y="387.933505" fill="rgb(178,178,0)"  stroke="rgb(178,178,0)" stroke-width="1" font-size="16" >S</text>
<text x="188.340097" y="482.948902" fill="rgb(12,12,255)"  stroke="rgb(12,12,255)" stroke-width="1" font-size="16" >N</text>
<text x="249.097397" y="360.234500" fill="rgb(255,12,12)"  stroke="rgb(255,12,12)" stroke-width="1" font-size="16" >O</text>
<text x="213.247831" y="422.327770" fill="rgb(255,12,12)"  stroke="rgb(255,12,12)" stroke-width="1" font-size="16" >O</text>
<text x="251.097397" y="443.025527" fill="rgb(102,102,102)"  stroke="rgb(102,102,102)" stroke-width="1" font-size="16" >CH</text>
<text x="275.097397" y="446.705527" fill="rgb(102,102,102)"  stroke="rgb(102,102,102)" stroke-width="1" font-size="13" >3</text>
<text x="208.161126" y="291.139982" fill="rgb(178,178,0)"  stroke="rgb(178,178,0)" stroke-width="1" font-size="16" >S</text>
</svg>
</g>
<text font-size="18.000000" fill ="black" font-family="sans-serif"
x="10.000000" y="20.000000" ></text>
</svg>
