<?xml version="1.0"?>
<svg version="1.1" id="topsvg"
xmlns="http://www.w3.org/2000/svg" xmlns:xlink="http://www.w3.org/1999/xlink"
xmlns:cml="http://www.xml-cml.org/schema" x="0" y="0" width="200px" height="200px" viewBox="0 0 100 100">
<title> - Open Babel Depiction</title>
<rect x="0" y="0" width="100" height="100" fill="white"/>
<g transform="translate(0,0)">
<svg width="100" height="100" x="0" y="0" viewBox="0 0 365.065 280.362"
font-family="sans-serif" stroke="rgb(0,0,0)" stroke-width="2"  stroke-linecap="round">
<line x1="200.0" y1="109.3" x2="160.0" y2="109.3" stroke="rgb(0,0,0)"  stroke-width="2.0"/>
<line x1="100.0" y1="143.9" x2="86.5" y2="167.3" stroke="rgb(0,0,0)"  stroke-width="2.0"/>
<line x1="86.5" y1="189.8" x2="93.5" y2="201.9" stroke="rgb(0,0,0)"  stroke-width="2.0"/>
<line x1="80.0" y1="109.3" x2="53.0" y2="109.3" stroke="rgb(0,0,0)"  stroke-width="2.0"/>
<line x1="140.0" y1="74.6" x2="153.5" y2="51.3" stroke="rgb(0,0,0)"  stroke-width="2.0"/>
<line x1="173.0" y1="40.0" x2="187.0" y2="40.0" stroke="rgb(0,0,0)"  stroke-width="2.0"/>
<line x1="225.3" y1="184.1" x2="203.4" y2="199.9" stroke="rgb(0,0,0)"  stroke-width="2.0"/>
<line x1="221.7" y1="179.2" x2="199.9" y2="195.1" stroke="rgb(0,0,0)"  stroke-width="2.0"/>
<line x1="265.6" y1="206.4" x2="269.9" y2="219.7" stroke="rgb(0,0,0)"  stroke-width="2.0"/>
<line x1="286.6" y1="234.7" x2="300.3" y2="237.7" stroke="rgb(0,0,0)"  stroke-width="2.0"/>
<line x1="285.1" y1="158.6" x2="312.1" y2="158.6" stroke="rgb(0,0,0)"  stroke-width="2.0"/>
<line x1="285.1" y1="164.6" x2="312.1" y2="164.6" stroke="rgb(0,0,0)"  stroke-width="2.0"/>
<line x1="261.6" y1="89.3" x2="283.4" y2="73.4" stroke="rgb(0,0,0)"  stroke-width="2.0"/>
<line x1="261.6" y1="129.3" x2="261.6" y2="89.3" stroke="rgb(0,0,0)"  stroke-width="2.0"/>
<line x1="254.4" y1="123.3" x2="254.4" y2="95.3" stroke="rgb(0,0,0)"  stroke-width="2.0"/>
<line x1="261.6" y1="89.3" x2="235.9" y2="80.9" stroke="rgb(0,0,0)"  stroke-width="2.0"/>
<line x1="215.9" y1="87.4" x2="200.0" y2="109.3" stroke="rgb(0,0,0)"  stroke-width="2.0"/>
<line x1="200.0" y1="109.3" x2="223.5" y2="141.6" stroke="rgb(0,0,0)"  stroke-width="2.0"/>
<line x1="209.4" y1="109.9" x2="225.8" y2="132.6" stroke="rgb(0,0,0)"  stroke-width="2.0"/>
<line x1="223.5" y1="141.6" x2="261.6" y2="129.3" stroke="rgb(0,0,0)"  stroke-width="2.0"/>
<line x1="100.0" y1="143.9" x2="80.0" y2="109.3" stroke="rgb(0,0,0)"  stroke-width="2.0"/>
<line x1="103.2" y1="135.1" x2="89.2" y2="110.9" stroke="rgb(0,0,0)"  stroke-width="2.0"/>
<line x1="80.0" y1="109.3" x2="100.0" y2="74.6" stroke="rgb(0,0,0)"  stroke-width="2.0"/>
<line x1="100.0" y1="74.6" x2="140.0" y2="74.6" stroke="rgb(0,0,0)"  stroke-width="2.0"/>
<line x1="106.0" y1="81.8" x2="134.0" y2="81.8" stroke="rgb(0,0,0)"  stroke-width="2.0"/>
<line x1="140.0" y1="74.6" x2="160.0" y2="109.3" stroke="rgb(0,0,0)"  stroke-width="2.0"/>
<line x1="160.0" y1="109.3" x2="140.0" y2="143.9" stroke="rgb(0,0,0)"  stroke-width="2.0"/>
<line x1="150.8" y1="110.9" x2="136.8" y2="135.1" stroke="rgb(0,0,0)"  stroke-width="2.0"/>
<line x1="140.0" y1="143.9" x2="100.0" y2="143.9" stroke="rgb(0,0,0)"  stroke-width="2.0"/>
<line x1="223.5" y1="181.6" x2="249.2" y2="190.0" stroke="rgb(0,0,0)"  stroke-width="2.0"/>
<line x1="269.2" y1="183.5" x2="285.1" y2="161.6" stroke="rgb(0,0,0)"  stroke-width="2.0"/>
<line x1="285.1" y1="161.6" x2="261.6" y2="129.3" stroke="rgb(0,0,0)"  stroke-width="2.0"/>
<line x1="223.5" y1="141.6" x2="223.5" y2="181.6" stroke="rgb(0,0,0)"  stroke-width="2.0"/>
<text x="217.511410" y="84.921353" fill="rgb(178,178,0)"  stroke="rgb(178,178,0)" stroke-width="1" font-size="16" >S</text>
<text x="287.914351" y="73.770622" fill="rgb(191,191,191)"  stroke="rgb(191,191,191)" stroke-width="1" font-size="16" >H</text>
<text x="319.065081" y="169.642712" fill="rgb(255,12,12)"  stroke="rgb(255,12,12)" stroke-width="1" font-size="16" >O</text>
<text x="309.040255" y="248.362120" fill="rgb(102,102,102)"  stroke="rgb(102,102,102)" stroke-width="1" font-size="16" >CH</text>
<text x="333.040255" y="252.042120" fill="rgb(102,102,102)"  stroke="rgb(102,102,102)" stroke-width="1" font-size="13" >3</text>
<text x="267.914351" y="240.045653" fill="rgb(255,12,12)"  stroke="rgb(255,12,12)" stroke-width="1" font-size="16" >O</text>
<text x="255.553671" y="202.003392" fill="rgb(12,12,255)"  stroke="rgb(12,12,255)" stroke-width="1" font-size="16" >N</text>
<text x="185.150730" y="213.154122" fill="rgb(255,12,12)"  stroke="rgb(255,12,12)" stroke-width="1" font-size="16" >O</text>
<text x="196.000000" y="48.000000" fill="rgb(102,102,102)"  stroke="rgb(102,102,102)" stroke-width="1" font-size="16" >CH</text>
<text x="220.000000" y="51.680000" fill="rgb(102,102,102)"  stroke="rgb(102,102,102)" stroke-width="1" font-size="13" >3</text>
<text x="154.000000" y="48.000000" fill="rgb(255,12,12)"  stroke="rgb(255,12,12)" stroke-width="1" font-size="16" >O</text>
<text x="34.000000" y="117.282032" fill="rgb(191,191,191)"  stroke="rgb(191,191,191)" stroke-width="1" font-size="16" >H</text>
<text x="96.000000" y="221.205081" fill="rgb(102,102,102)"  stroke="rgb(102,102,102)" stroke-width="1" font-size="16" >CH</text>
<text x="120.000000" y="224.885081" fill="rgb(102,102,102)"  stroke="rgb(102,102,102)" stroke-width="1" font-size="13" >3</text>
<text x="74.000000" y="186.564065" fill="rgb(255,12,12)"  stroke="rgb(255,12,12)" stroke-width="1" font-size="16" >O</text>
</svg>
</g>
<text font-size="18.000000" fill ="black" font-family="sans-serif"
x="10.000000" y="20.000000" ></text>
</svg>
