<?xml version="1.0"?>
<svg version="1.1" id="topsvg"
xmlns="http://www.w3.org/2000/svg" xmlns:xlink="http://www.w3.org/1999/xlink"
xmlns:cml="http://www.xml-cml.org/schema" x="0" y="0" width="200px" height="200px" viewBox="0 0 100 100">
<title> - Open Babel Depiction</title>
<rect x="0" y="0" width="100" height="100" fill="white"/>
<g transform="translate(0,0)">
<svg width="100" height="100" x="0" y="0" viewBox="0 0 486.198 253.202"
font-family="sans-serif" stroke="rgb(0,0,0)" stroke-width="2"  stroke-linecap="round">
<line x1="312.0" y1="120.0" x2="278.1" y2="100.5" stroke="rgb(0,0,0)"  stroke-width="2.0"/>
<line x1="176.4" y1="120.1" x2="176.4" y2="146.2" stroke="rgb(0,0,0)"  stroke-width="2.0"/>
<line x1="189.4" y1="159.2" x2="202.6" y2="159.2" stroke="rgb(0,0,0)"  stroke-width="2.0"/>
<line x1="176.4" y1="120.1" x2="153.8" y2="133.1" stroke="rgb(0,0,0)"  stroke-width="2.0"/>
<line x1="142.5" y1="152.6" x2="142.5" y2="165.8" stroke="rgb(0,0,0)"  stroke-width="2.0"/>
<line x1="74.6" y1="100.5" x2="51.3" y2="114.0" stroke="rgb(0,0,0)"  stroke-width="2.0"/>
<line x1="373.6" y1="83.4" x2="368.2" y2="57.9" stroke="rgb(0,0,0)"  stroke-width="2.0"/>
<line x1="379.5" y1="82.2" x2="374.0" y2="56.6" stroke="rgb(0,0,0)"  stroke-width="2.0"/>
<line x1="423.6" y1="92.2" x2="434.9" y2="85.7" stroke="rgb(0,0,0)"  stroke-width="2.0"/>
<line x1="446.2" y1="66.2" x2="446.2" y2="53.0" stroke="rgb(0,0,0)"  stroke-width="2.0"/>
<line x1="410.2" y1="135.4" x2="429.6" y2="152.9" stroke="rgb(0,0,0)"  stroke-width="2.0"/>
<line x1="406.2" y1="139.9" x2="425.6" y2="157.4" stroke="rgb(0,0,0)"  stroke-width="2.0"/>
<line x1="343.7" y1="174.9" x2="349.2" y2="200.5" stroke="rgb(0,0,0)"  stroke-width="2.0"/>
<line x1="369.9" y1="145.8" x2="343.7" y2="174.9" stroke="rgb(0,0,0)"  stroke-width="2.0"/>
<line x1="360.5" y1="145.5" x2="342.4" y2="165.6" stroke="rgb(0,0,0)"  stroke-width="2.0"/>
<line x1="343.7" y1="174.9" x2="319.8" y2="164.3" stroke="rgb(0,0,0)"  stroke-width="2.0"/>
<line x1="309.3" y1="146.1" x2="312.0" y2="120.0" stroke="rgb(0,0,0)"  stroke-width="2.0"/>
<line x1="312.0" y1="120.0" x2="350.3" y2="111.9" stroke="rgb(0,0,0)"  stroke-width="2.0"/>
<line x1="319.4" y1="125.8" x2="346.0" y2="120.2" stroke="rgb(0,0,0)"  stroke-width="2.0"/>
<line x1="350.3" y1="111.9" x2="369.9" y2="145.8" stroke="rgb(0,0,0)"  stroke-width="2.0"/>
<line x1="210.3" y1="100.5" x2="210.3" y2="61.3" stroke="rgb(0,0,0)"  stroke-width="2.0"/>
<line x1="217.5" y1="94.5" x2="217.5" y2="67.3" stroke="rgb(0,0,0)"  stroke-width="2.0"/>
<line x1="210.3" y1="61.3" x2="244.2" y2="41.7" stroke="rgb(0,0,0)"  stroke-width="2.0"/>
<line x1="244.2" y1="41.7" x2="278.1" y2="61.3" stroke="rgb(0,0,0)"  stroke-width="2.0"/>
<line x1="245.8" y1="51.0" x2="269.3" y2="64.5" stroke="rgb(0,0,0)"  stroke-width="2.0"/>
<line x1="278.1" y1="61.3" x2="278.1" y2="100.5" stroke="rgb(0,0,0)"  stroke-width="2.0"/>
<line x1="278.1" y1="100.5" x2="244.2" y2="120.1" stroke="rgb(0,0,0)"  stroke-width="2.0"/>
<line x1="269.3" y1="97.2" x2="245.8" y2="110.8" stroke="rgb(0,0,0)"  stroke-width="2.0"/>
<line x1="244.2" y1="120.1" x2="210.3" y2="100.5" stroke="rgb(0,0,0)"  stroke-width="2.0"/>
<line x1="108.5" y1="120.1" x2="142.5" y2="100.5" stroke="rgb(0,0,0)"  stroke-width="2.0"/>
<line x1="110.1" y1="110.8" x2="133.7" y2="97.2" stroke="rgb(0,0,0)"  stroke-width="2.0"/>
<line x1="142.5" y1="100.5" x2="142.5" y2="61.3" stroke="rgb(0,0,0)"  stroke-width="2.0"/>
<line x1="142.5" y1="61.3" x2="108.5" y2="41.7" stroke="rgb(0,0,0)"  stroke-width="2.0"/>
<line x1="133.7" y1="64.5" x2="110.1" y2="51.0" stroke="rgb(0,0,0)"  stroke-width="2.0"/>
<line x1="108.5" y1="41.7" x2="74.6" y2="61.3" stroke="rgb(0,0,0)"  stroke-width="2.0"/>
<line x1="74.6" y1="61.3" x2="74.6" y2="100.5" stroke="rgb(0,0,0)"  stroke-width="2.0"/>
<line x1="81.8" y1="67.3" x2="81.8" y2="94.5" stroke="rgb(0,0,0)"  stroke-width="2.0"/>
<line x1="74.6" y1="100.5" x2="108.5" y2="120.1" stroke="rgb(0,0,0)"  stroke-width="2.0"/>
<line x1="142.5" y1="61.3" x2="210.3" y2="61.3" stroke="rgb(0,0,0)"  stroke-width="2.0"/>
<line x1="210.3" y1="100.5" x2="176.4" y2="120.1" stroke="rgb(0,0,0)"  stroke-width="2.0"/>
<line x1="176.4" y1="120.1" x2="142.5" y2="100.5" stroke="rgb(0,0,0)"  stroke-width="2.0"/>
<line x1="376.5" y1="82.8" x2="400.4" y2="93.4" stroke="rgb(0,0,0)"  stroke-width="2.0"/>
<line x1="410.9" y1="111.7" x2="408.2" y2="137.7" stroke="rgb(0,0,0)"  stroke-width="2.0"/>
<line x1="408.2" y1="137.7" x2="369.9" y2="145.8" stroke="rgb(0,0,0)"  stroke-width="2.0"/>
<line x1="350.3" y1="111.9" x2="376.5" y2="82.8" stroke="rgb(0,0,0)"  stroke-width="2.0"/>
<text x="301.947862" y="166.986381" fill="rgb(178,178,0)"  stroke="rgb(178,178,0)" stroke-width="1" font-size="16" >S</text>
<text x="345.859004" y="221.202060" fill="rgb(191,191,191)"  stroke="rgb(191,191,191)" stroke-width="1" font-size="16" >H</text>
<text x="431.302123" y="171.861108" fill="rgb(255,12,12)"  stroke="rgb(255,12,12)" stroke-width="1" font-size="16" >O</text>
<text x="442.194180" y="48.000000" fill="rgb(102,102,102)"  stroke="rgb(102,102,102)" stroke-width="1" font-size="16" >CH</text>
<text x="466.194180" y="51.680000" fill="rgb(102,102,102)"  stroke="rgb(102,102,102)" stroke-width="1" font-size="13" >3</text>
<text x="440.197734" y="87.151045" fill="rgb(255,12,12)"  stroke="rgb(255,12,12)" stroke-width="1" font-size="16" >O</text>
<text x="406.293712" y="106.729645" fill="rgb(12,12,255)"  stroke="rgb(12,12,255)" stroke-width="1" font-size="16" >N</text>
<text x="362.382571" y="52.513966" fill="rgb(255,12,12)"  stroke="rgb(255,12,12)" stroke-width="1" font-size="16" >O</text>
<text x="34.000000" y="128.490359" fill="rgb(191,191,191)"  stroke="rgb(191,191,191)" stroke-width="1" font-size="16" >H</text>
<text x="138.497450" y="186.791398" fill="rgb(102,102,102)"  stroke="rgb(102,102,102)" stroke-width="1" font-size="16" >CH</text>
<text x="162.497450" y="190.471398" fill="rgb(102,102,102)"  stroke="rgb(102,102,102)" stroke-width="1" font-size="13" >3</text>
<text x="136.492711" y="147.640353" fill="rgb(255,12,12)"  stroke="rgb(255,12,12)" stroke-width="1" font-size="16" >O</text>
<text x="211.554640" y="167.204315" fill="rgb(102,102,102)"  stroke="rgb(102,102,102)" stroke-width="1" font-size="16" >CH</text>
<text x="235.554640" y="170.884315" fill="rgb(102,102,102)"  stroke="rgb(102,102,102)" stroke-width="1" font-size="13" >3</text>
<text x="170.403596" y="167.211771" fill="rgb(255,12,12)"  stroke="rgb(255,12,12)" stroke-width="1" font-size="16" >O</text>
</svg>
</g>
<text font-size="18.000000" fill ="black" font-family="sans-serif"
x="10.000000" y="20.000000" ></text>
</svg>
