<?xml version="1.0"?>
<svg version="1.1" id="topsvg"
xmlns="http://www.w3.org/2000/svg" xmlns:xlink="http://www.w3.org/1999/xlink"
xmlns:cml="http://www.xml-cml.org/schema" x="0" y="0" width="200px" height="200px" viewBox="0 0 100 100">
<title> - Open Babel Depiction</title>
<rect x="0" y="0" width="100" height="100" fill="white"/>
<g transform="translate(0,0)">
<svg width="100" height="100" x="0" y="0" viewBox="0 0 487.974 325.241"
font-family="sans-serif" stroke="rgb(0,0,0)" stroke-width="2"  stroke-linecap="round">
<line x1="173.2" y1="179.4" x2="212.3" y2="171.0" stroke="rgb(0,0,0)"  stroke-width="2.0"/>
<line x1="310.6" y1="216.0" x2="330.6" y2="250.6" stroke="rgb(0,0,0)"  stroke-width="2.0"/>
<line x1="330.6" y1="247.6" x2="357.6" y2="247.6" stroke="rgb(0,0,0)"  stroke-width="2.0"/>
<line x1="330.6" y1="253.6" x2="357.6" y2="253.6" stroke="rgb(0,0,0)"  stroke-width="2.0"/>
<line x1="330.6" y1="250.6" x2="317.1" y2="274.0" stroke="rgb(0,0,0)"  stroke-width="2.0"/>
<line x1="297.6" y1="285.2" x2="283.6" y2="285.2" stroke="rgb(0,0,0)"  stroke-width="2.0"/>
<line x1="310.6" y1="216.0" x2="290.6" y2="250.6" stroke="rgb(0,0,0)"  stroke-width="2.0"/>
<line x1="293.2" y1="249.1" x2="306.7" y2="272.5" stroke="rgb(0,0,0)"  stroke-width="2.0"/>
<line x1="288.0" y1="252.1" x2="301.5" y2="275.5" stroke="rgb(0,0,0)"  stroke-width="2.0"/>
<line x1="290.6" y1="250.6" x2="263.6" y2="250.6" stroke="rgb(0,0,0)"  stroke-width="2.0"/>
<line x1="244.1" y1="239.3" x2="237.1" y2="227.2" stroke="rgb(0,0,0)"  stroke-width="2.0"/>
<line x1="408.8" y1="171.0" x2="435.3" y2="176.7" stroke="rgb(0,0,0)"  stroke-width="2.0"/>
<line x1="132.9" y1="111.5" x2="151.0" y2="91.4" stroke="rgb(0,0,0)"  stroke-width="2.0"/>
<line x1="137.4" y1="115.5" x2="155.5" y2="95.4" stroke="rgb(0,0,0)"  stroke-width="2.0"/>
<line x1="88.9" y1="98.0" x2="81.9" y2="85.9" stroke="rgb(0,0,0)"  stroke-width="2.0"/>
<line x1="81.9" y1="63.4" x2="88.9" y2="51.3" stroke="rgb(0,0,0)"  stroke-width="2.0"/>
<line x1="79.1" y1="145.8" x2="52.7" y2="151.4" stroke="rgb(0,0,0)"  stroke-width="2.0"/>
<line x1="119.4" y1="213.7" x2="101.3" y2="233.8" stroke="rgb(0,0,0)"  stroke-width="2.0"/>
<line x1="114.9" y1="209.7" x2="96.9" y2="229.8" stroke="rgb(0,0,0)"  stroke-width="2.0"/>
<line x1="163.4" y1="227.2" x2="170.4" y2="239.3" stroke="rgb(0,0,0)"  stroke-width="2.0"/>
<line x1="170.4" y1="261.8" x2="163.4" y2="273.9" stroke="rgb(0,0,0)"  stroke-width="2.0"/>
<line x1="135.2" y1="113.5" x2="108.3" y2="110.6" stroke="rgb(0,0,0)"  stroke-width="2.0"/>
<line x1="90.1" y1="121.2" x2="79.1" y2="145.8" stroke="rgb(0,0,0)"  stroke-width="2.0"/>
<line x1="79.1" y1="145.8" x2="108.9" y2="172.6" stroke="rgb(0,0,0)"  stroke-width="2.0"/>
<line x1="88.4" y1="144.5" x2="109.2" y2="163.2" stroke="rgb(0,0,0)"  stroke-width="2.0"/>
<line x1="108.9" y1="172.6" x2="143.5" y2="152.6" stroke="rgb(0,0,0)"  stroke-width="2.0"/>
<line x1="143.5" y1="152.6" x2="135.2" y2="113.5" stroke="rgb(0,0,0)"  stroke-width="2.0"/>
<line x1="108.9" y1="172.6" x2="117.2" y2="211.7" stroke="rgb(0,0,0)"  stroke-width="2.0"/>
<line x1="117.2" y1="211.7" x2="144.0" y2="214.5" stroke="rgb(0,0,0)"  stroke-width="2.0"/>
<line x1="162.2" y1="204.0" x2="173.2" y2="179.4" stroke="rgb(0,0,0)"  stroke-width="2.0"/>
<line x1="173.2" y1="179.4" x2="143.5" y2="152.6" stroke="rgb(0,0,0)"  stroke-width="2.0"/>
<line x1="163.9" y1="180.7" x2="143.1" y2="162.0" stroke="rgb(0,0,0)"  stroke-width="2.0"/>
<line x1="278.2" y1="192.4" x2="290.6" y2="154.4" stroke="rgb(0,0,0)"  stroke-width="2.0"/>
<line x1="273.2" y1="184.5" x2="281.9" y2="157.9" stroke="rgb(0,0,0)"  stroke-width="2.0"/>
<line x1="290.6" y1="154.4" x2="263.8" y2="124.7" stroke="rgb(0,0,0)"  stroke-width="2.0"/>
<line x1="263.8" y1="124.7" x2="224.7" y2="133.0" stroke="rgb(0,0,0)"  stroke-width="2.0"/>
<line x1="259.5" y1="133.0" x2="232.1" y2="138.8" stroke="rgb(0,0,0)"  stroke-width="2.0"/>
<line x1="224.7" y1="133.0" x2="212.3" y2="171.0" stroke="rgb(0,0,0)"  stroke-width="2.0"/>
<line x1="212.3" y1="171.0" x2="239.1" y2="200.8" stroke="rgb(0,0,0)"  stroke-width="2.0"/>
<line x1="221.7" y1="170.7" x2="240.4" y2="191.5" stroke="rgb(0,0,0)"  stroke-width="2.0"/>
<line x1="239.1" y1="200.8" x2="278.2" y2="192.4" stroke="rgb(0,0,0)"  stroke-width="2.0"/>
<line x1="382.1" y1="200.8" x2="343.0" y2="192.4" stroke="rgb(0,0,0)"  stroke-width="2.0"/>
<line x1="377.7" y1="192.5" x2="350.3" y2="186.7" stroke="rgb(0,0,0)"  stroke-width="2.0"/>
<line x1="343.0" y1="192.4" x2="330.6" y2="154.4" stroke="rgb(0,0,0)"  stroke-width="2.0"/>
<line x1="330.6" y1="154.4" x2="357.4" y2="124.7" stroke="rgb(0,0,0)"  stroke-width="2.0"/>
<line x1="340.0" y1="154.8" x2="358.7" y2="134.0" stroke="rgb(0,0,0)"  stroke-width="2.0"/>
<line x1="357.4" y1="124.7" x2="396.5" y2="133.0" stroke="rgb(0,0,0)"  stroke-width="2.0"/>
<line x1="396.5" y1="133.0" x2="408.8" y2="171.0" stroke="rgb(0,0,0)"  stroke-width="2.0"/>
<line x1="391.5" y1="140.9" x2="400.1" y2="167.6" stroke="rgb(0,0,0)"  stroke-width="2.0"/>
<line x1="408.8" y1="171.0" x2="382.1" y2="200.8" stroke="rgb(0,0,0)"  stroke-width="2.0"/>
<line x1="330.6" y1="154.4" x2="290.6" y2="154.4" stroke="rgb(0,0,0)"  stroke-width="2.0"/>
<line x1="278.2" y1="192.4" x2="310.6" y2="216.0" stroke="rgb(0,0,0)"  stroke-width="2.0"/>
<line x1="310.6" y1="216.0" x2="343.0" y2="192.4" stroke="rgb(0,0,0)"  stroke-width="2.0"/>
<text x="91.395370" y="48.000000" fill="rgb(102,102,102)"  stroke="rgb(102,102,102)" stroke-width="1" font-size="16" >CH</text>
<text x="115.395370" y="51.680000" fill="rgb(102,102,102)"  stroke="rgb(102,102,102)" stroke-width="1" font-size="13" >3</text>
<text x="155.941470" y="91.737378" fill="rgb(255,12,12)"  stroke="rgb(255,12,12)" stroke-width="1" font-size="16" >O</text>
<text x="89.395370" y="117.282032" fill="rgb(12,12,255)"  stroke="rgb(12,12,255)" stroke-width="1" font-size="16" >N</text>
<text x="69.395370" y="82.641016" fill="rgb(255,12,12)"  stroke="rgb(255,12,12)" stroke-width="1" font-size="16" >O</text>
<text x="34.000000" y="162.140318" fill="rgb(191,191,191)"  stroke="rgb(191,191,191)" stroke-width="1" font-size="16" >H</text>
<text x="84.402940" y="249.440772" fill="rgb(255,12,12)"  stroke="rgb(255,12,12)" stroke-width="1" font-size="16" >O</text>
<text x="150.949040" y="223.896117" fill="rgb(12,12,255)"  stroke="rgb(12,12,255)" stroke-width="1" font-size="16" >N</text>
<text x="170.949040" y="258.537134" fill="rgb(255,12,12)"  stroke="rgb(255,12,12)" stroke-width="1" font-size="16" >O</text>
<text x="130.949040" y="293.178150" fill="rgb(102,102,102)"  stroke="rgb(102,102,102)" stroke-width="1" font-size="16" >H</text>
<text x="142.949040" y="296.858150" fill="rgb(102,102,102)"  stroke="rgb(102,102,102)" stroke-width="1" font-size="13" >3</text>
<text x="149.449040" y="293.178150" fill="rgb(102,102,102)"  stroke="rgb(102,102,102)" stroke-width="1" font-size="16" >C</text>
<text x="364.596218" y="258.599583" fill="rgb(255,12,12)"  stroke="rgb(255,12,12)" stroke-width="1" font-size="16" >O</text>
<text x="304.596218" y="293.240599" fill="rgb(255,12,12)"  stroke="rgb(255,12,12)" stroke-width="1" font-size="16" >O</text>
<text x="244.596218" y="293.240599" fill="rgb(102,102,102)"  stroke="rgb(102,102,102)" stroke-width="1" font-size="16" >H</text>
<text x="256.596218" y="296.920599" fill="rgb(102,102,102)"  stroke="rgb(102,102,102)" stroke-width="1" font-size="13" >3</text>
<text x="263.096218" y="293.240599" fill="rgb(102,102,102)"  stroke="rgb(102,102,102)" stroke-width="1" font-size="16" >C</text>
<text x="304.596218" y="293.240599" fill="rgb(255,12,12)"  stroke="rgb(255,12,12)" stroke-width="1" font-size="16" >O</text>
<text x="244.596218" y="258.599583" fill="rgb(255,12,12)"  stroke="rgb(255,12,12)" stroke-width="1" font-size="16" >O</text>
<text x="204.596218" y="223.958567" fill="rgb(102,102,102)"  stroke="rgb(102,102,102)" stroke-width="1" font-size="16" >H</text>
<text x="216.596218" y="227.638567" fill="rgb(102,102,102)"  stroke="rgb(102,102,102)" stroke-width="1" font-size="13" >3</text>
<text x="223.096218" y="223.958567" fill="rgb(102,102,102)"  stroke="rgb(102,102,102)" stroke-width="1" font-size="16" >C</text>
<text x="441.973930" y="187.354299" fill="rgb(191,191,191)"  stroke="rgb(191,191,191)" stroke-width="1" font-size="16" >H</text>
</svg>
</g>
<text font-size="18.000000" fill ="black" font-family="sans-serif"
x="10.000000" y="20.000000" ></text>
</svg>
