<?xml version="1.0"?>
<svg version="1.1" id="topsvg"
xmlns="http://www.w3.org/2000/svg" xmlns:xlink="http://www.w3.org/1999/xlink"
xmlns:cml="http://www.xml-cml.org/schema" x="0" y="0" width="200px" height="200px" viewBox="0 0 100 100">
<title> - Open Babel Depiction</title>
<rect x="0" y="0" width="100" height="100" fill="white"/>
<g transform="translate(0,0)">
<svg width="100" height="100" x="0" y="0" viewBox="0 0 489.774 380.735"
font-family="sans-serif" stroke="rgb(0,0,0)" stroke-width="2"  stroke-linecap="round">
<line x1="214.1" y1="181.4" x2="248.9" y2="161.9" stroke="rgb(0,0,0)"  stroke-width="2.0"/>
<line x1="306.1" y1="63.7" x2="299.3" y2="51.6" stroke="rgb(0,0,0)"  stroke-width="2.0"/>
<line x1="419.8" y1="66.3" x2="440.0" y2="48.6" stroke="rgb(0,0,0)"  stroke-width="2.0"/>
<line x1="179.8" y1="278.9" x2="203.0" y2="292.7" stroke="rgb(0,0,0)"  stroke-width="2.0"/>
<line x1="176.7" y1="284.0" x2="199.9" y2="297.9" stroke="rgb(0,0,0)"  stroke-width="2.0"/>
<line x1="143.4" y1="313.7" x2="143.2" y2="327.7" stroke="rgb(0,0,0)"  stroke-width="2.0"/>
<line x1="110.0" y1="283.1" x2="86.5" y2="296.5" stroke="rgb(0,0,0)"  stroke-width="2.0"/>
<line x1="107.0" y1="277.9" x2="83.5" y2="291.3" stroke="rgb(0,0,0)"  stroke-width="2.0"/>
<line x1="74.8" y1="219.5" x2="51.3" y2="232.9" stroke="rgb(0,0,0)"  stroke-width="2.0"/>
<line x1="109.1" y1="122.5" x2="85.8" y2="108.7" stroke="rgb(0,0,0)"  stroke-width="2.0"/>
<line x1="112.1" y1="117.4" x2="88.9" y2="103.6" stroke="rgb(0,0,0)"  stroke-width="2.0"/>
<line x1="145.8" y1="87.2" x2="145.9" y2="73.2" stroke="rgb(0,0,0)"  stroke-width="2.0"/>
<line x1="178.9" y1="118.2" x2="202.4" y2="105.0" stroke="rgb(0,0,0)"  stroke-width="2.0"/>
<line x1="181.8" y1="123.5" x2="205.4" y2="110.3" stroke="rgb(0,0,0)"  stroke-width="2.0"/>
<line x1="352.1" y1="79.7" x2="359.8" y2="118.8" stroke="rgb(0,0,0)"  stroke-width="2.0"/>
<line x1="359.8" y1="118.8" x2="325.0" y2="138.3" stroke="rgb(0,0,0)"  stroke-width="2.0"/>
<line x1="325.0" y1="138.3" x2="295.8" y2="111.2" stroke="rgb(0,0,0)"  stroke-width="2.0"/>
<line x1="325.5" y1="129.0" x2="305.1" y2="110.0" stroke="rgb(0,0,0)"  stroke-width="2.0"/>
<line x1="295.8" y1="111.2" x2="307.0" y2="86.8" stroke="rgb(0,0,0)"  stroke-width="2.0"/>
<line x1="325.4" y1="76.6" x2="352.1" y2="79.7" stroke="rgb(0,0,0)"  stroke-width="2.0"/>
<line x1="325.0" y1="138.3" x2="316.2" y2="177.2" stroke="rgb(0,0,0)"  stroke-width="2.0"/>
<line x1="316.2" y1="177.2" x2="278.1" y2="189.0" stroke="rgb(0,0,0)"  stroke-width="2.0"/>
<line x1="308.4" y1="172.1" x2="281.7" y2="180.4" stroke="rgb(0,0,0)"  stroke-width="2.0"/>
<line x1="278.1" y1="189.0" x2="248.9" y2="161.9" stroke="rgb(0,0,0)"  stroke-width="2.0"/>
<line x1="248.9" y1="161.9" x2="257.7" y2="123.1" stroke="rgb(0,0,0)"  stroke-width="2.0"/>
<line x1="257.2" y1="157.7" x2="263.4" y2="130.5" stroke="rgb(0,0,0)"  stroke-width="2.0"/>
<line x1="257.7" y1="123.1" x2="295.8" y2="111.2" stroke="rgb(0,0,0)"  stroke-width="2.0"/>
<line x1="382.0" y1="53.5" x2="352.1" y2="79.7" stroke="rgb(0,0,0)"  stroke-width="2.0"/>
<line x1="382.3" y1="62.8" x2="361.3" y2="81.2" stroke="rgb(0,0,0)"  stroke-width="2.0"/>
<line x1="359.8" y1="118.8" x2="397.6" y2="131.7" stroke="rgb(0,0,0)"  stroke-width="2.0"/>
<line x1="367.8" y1="114.0" x2="394.2" y2="122.9" stroke="rgb(0,0,0)"  stroke-width="2.0"/>
<line x1="397.6" y1="131.7" x2="427.6" y2="105.4" stroke="rgb(0,0,0)"  stroke-width="2.0"/>
<line x1="427.6" y1="105.4" x2="419.8" y2="66.3" stroke="rgb(0,0,0)"  stroke-width="2.0"/>
<line x1="419.3" y1="100.9" x2="413.9" y2="73.6" stroke="rgb(0,0,0)"  stroke-width="2.0"/>
<line x1="419.8" y1="66.3" x2="382.0" y2="53.5" stroke="rgb(0,0,0)"  stroke-width="2.0"/>
<line x1="178.8" y1="241.3" x2="144.0" y2="220.4" stroke="rgb(0,0,0)"  stroke-width="2.0"/>
<line x1="177.3" y1="232.0" x2="152.9" y2="217.3" stroke="rgb(0,0,0)"  stroke-width="2.0"/>
<line x1="144.0" y1="220.4" x2="144.6" y2="180.5" stroke="rgb(0,0,0)"  stroke-width="2.0"/>
<line x1="144.6" y1="180.5" x2="179.8" y2="161.0" stroke="rgb(0,0,0)"  stroke-width="2.0"/>
<line x1="153.3" y1="183.9" x2="178.1" y2="170.2" stroke="rgb(0,0,0)"  stroke-width="2.0"/>
<line x1="179.8" y1="161.0" x2="214.1" y2="181.4" stroke="rgb(0,0,0)"  stroke-width="2.0"/>
<line x1="214.1" y1="181.4" x2="213.6" y2="221.3" stroke="rgb(0,0,0)"  stroke-width="2.0"/>
<line x1="206.8" y1="187.3" x2="206.4" y2="215.2" stroke="rgb(0,0,0)"  stroke-width="2.0"/>
<line x1="213.6" y1="221.3" x2="178.8" y2="241.3" stroke="rgb(0,0,0)"  stroke-width="2.0"/>
<line x1="108.5" y1="280.5" x2="109.0" y2="240.4" stroke="rgb(0,0,0)"  stroke-width="2.0"/>
<line x1="109.0" y1="240.4" x2="144.0" y2="220.4" stroke="rgb(0,0,0)"  stroke-width="2.0"/>
<line x1="178.8" y1="241.3" x2="178.2" y2="281.5" stroke="rgb(0,0,0)"  stroke-width="2.0"/>
<line x1="178.2" y1="281.5" x2="154.8" y2="294.4" stroke="rgb(0,0,0)"  stroke-width="2.0"/>
<line x1="132.2" y1="294.2" x2="108.5" y2="280.5" stroke="rgb(0,0,0)"  stroke-width="2.0"/>
<line x1="75.3" y1="179.6" x2="110.1" y2="160.1" stroke="rgb(0,0,0)"  stroke-width="2.0"/>
<line x1="84.0" y1="182.9" x2="108.4" y2="169.3" stroke="rgb(0,0,0)"  stroke-width="2.0"/>
<line x1="110.1" y1="160.1" x2="144.6" y2="180.5" stroke="rgb(0,0,0)"  stroke-width="2.0"/>
<line x1="109.0" y1="240.4" x2="74.8" y2="219.5" stroke="rgb(0,0,0)"  stroke-width="2.0"/>
<line x1="107.6" y1="231.1" x2="83.6" y2="216.5" stroke="rgb(0,0,0)"  stroke-width="2.0"/>
<line x1="74.8" y1="219.5" x2="75.3" y2="179.6" stroke="rgb(0,0,0)"  stroke-width="2.0"/>
<line x1="156.8" y1="106.8" x2="180.3" y2="120.9" stroke="rgb(0,0,0)"  stroke-width="2.0"/>
<line x1="180.3" y1="120.9" x2="179.8" y2="161.0" stroke="rgb(0,0,0)"  stroke-width="2.0"/>
<line x1="110.1" y1="160.1" x2="110.6" y2="119.9" stroke="rgb(0,0,0)"  stroke-width="2.0"/>
<line x1="110.6" y1="119.9" x2="134.3" y2="106.6" stroke="rgb(0,0,0)"  stroke-width="2.0"/>
<text x="137.471911" y="308.736184" fill="rgb(12,12,255)"  stroke="rgb(12,12,255)" stroke-width="1" font-size="16" >N</text>
<text x="137.126352" y="348.734691" fill="rgb(191,191,191)"  stroke="rgb(191,191,191)" stroke-width="1" font-size="16" >H</text>
<text x="67.722482" y="308.314492" fill="rgb(255,12,12)"  stroke="rgb(255,12,12)" stroke-width="1" font-size="16" >O</text>
<text x="34.000000" y="247.297382" fill="rgb(191,191,191)"  stroke="rgb(191,191,191)" stroke-width="1" font-size="16" >H</text>
<text x="206.577935" y="309.976921" fill="rgb(255,12,12)"  stroke="rgb(255,12,12)" stroke-width="1" font-size="16" >O</text>
<text x="70.188582" y="107.538506" fill="rgb(255,12,12)"  stroke="rgb(255,12,12)" stroke-width="1" font-size="16" >O</text>
<text x="139.612817" y="108.201004" fill="rgb(12,12,255)"  stroke="rgb(12,12,255)" stroke-width="1" font-size="16" >N</text>
<text x="140.075989" y="68.203686" fill="rgb(191,191,191)"  stroke="rgb(191,191,191)" stroke-width="1" font-size="16" >H</text>
<text x="209.242086" y="109.304990" fill="rgb(255,12,12)"  stroke="rgb(255,12,12)" stroke-width="1" font-size="16" >O</text>
<text x="306.460545" y="83.035894" fill="rgb(12,12,255)"  stroke="rgb(12,12,255)" stroke-width="1" font-size="16" >N</text>
<text x="266.988627" y="48.242908" fill="rgb(102,102,102)"  stroke="rgb(102,102,102)" stroke-width="1" font-size="16" >H</text>
<text x="278.988627" y="51.922908" fill="rgb(102,102,102)"  stroke="rgb(102,102,102)" stroke-width="1" font-size="13" >3</text>
<text x="285.488627" y="48.242908" fill="rgb(102,102,102)"  stroke="rgb(102,102,102)" stroke-width="1" font-size="16" >C</text>
<text x="443.773948" y="48.000000" fill="rgb(191,191,191)"  stroke="rgb(191,191,191)" stroke-width="1" font-size="16" >H</text>
</svg>
</g>
<text font-size="18.000000" fill ="black" font-family="sans-serif"
x="10.000000" y="20.000000" ></text>
</svg>
