<?xml version="1.0"?>
<svg version="1.1" id="topsvg"
xmlns="http://www.w3.org/2000/svg" xmlns:xlink="http://www.w3.org/1999/xlink"
xmlns:cml="http://www.xml-cml.org/schema" x="0" y="0" width="200px" height="200px" viewBox="0 0 100 100">
<title> - Open Babel Depiction</title>
<rect x="0" y="0" width="100" height="100" fill="white"/>
<g transform="translate(0,0)">
<svg width="100" height="100" x="0" y="0" viewBox="0 0 425.872 517.82"
font-family="sans-serif" stroke="rgb(0,0,0)" stroke-width="2"  stroke-linecap="round">
<line x1="219.2" y1="210.6" x2="198.4" y2="246.7" stroke="rgb(0,0,0)"  stroke-width="2.0"/>
<line x1="156.9" y1="251.0" x2="129.0" y2="220.1" stroke="rgb(0,0,0)"  stroke-width="2.0"/>
<line x1="129.0" y1="220.1" x2="109.9" y2="198.8" stroke="rgb(0,0,0)"  stroke-width="2.0"/>
<line x1="125.9" y1="222.9" x2="106.7" y2="201.6" stroke="rgb(0,0,0)"  stroke-width="2.0"/>
<line x1="132.2" y1="217.3" x2="113.0" y2="196.0" stroke="rgb(0,0,0)"  stroke-width="2.0"/>
<line x1="112.2" y1="312.6" x2="87.3" y2="298.3" stroke="rgb(0,0,0)"  stroke-width="2.0"/>
<line x1="64.8" y1="298.3" x2="51.3" y2="306.1" stroke="rgb(0,0,0)"  stroke-width="2.0"/>
<line x1="98.2" y1="420.2" x2="83.8" y2="445.1" stroke="rgb(0,0,0)"  stroke-width="2.0"/>
<line x1="139.6" y1="415.9" x2="167.5" y2="446.9" stroke="rgb(0,0,0)"  stroke-width="2.0"/>
<line x1="167.5" y1="446.9" x2="186.7" y2="468.2" stroke="rgb(0,0,0)"  stroke-width="2.0"/>
<line x1="170.6" y1="444.0" x2="189.8" y2="465.3" stroke="rgb(0,0,0)"  stroke-width="2.0"/>
<line x1="164.4" y1="449.7" x2="183.5" y2="471.0" stroke="rgb(0,0,0)"  stroke-width="2.0"/>
<line x1="184.3" y1="354.3" x2="209.2" y2="368.6" stroke="rgb(0,0,0)"  stroke-width="2.0"/>
<line x1="220.4" y1="388.1" x2="220.4" y2="403.8" stroke="rgb(0,0,0)"  stroke-width="2.0"/>
<line x1="326.0" y1="173.0" x2="340.3" y2="197.8" stroke="rgb(0,0,0)"  stroke-width="2.0"/>
<line x1="320.8" y1="176.0" x2="335.1" y2="200.8" stroke="rgb(0,0,0)"  stroke-width="2.0"/>
<line x1="357.2" y1="138.4" x2="372.9" y2="138.4" stroke="rgb(0,0,0)"  stroke-width="2.0"/>
<line x1="320.8" y1="100.8" x2="335.1" y2="76.0" stroke="rgb(0,0,0)"  stroke-width="2.0"/>
<line x1="326.0" y1="103.8" x2="340.3" y2="79.0" stroke="rgb(0,0,0)"  stroke-width="2.0"/>
<line x1="259.9" y1="78.8" x2="270.3" y2="52.1" stroke="rgb(0,0,0)"  stroke-width="2.0"/>
<line x1="177.0" y1="110.9" x2="163.1" y2="85.8" stroke="rgb(0,0,0)"  stroke-width="2.0"/>
<line x1="182.3" y1="108.0" x2="168.4" y2="82.9" stroke="rgb(0,0,0)"  stroke-width="2.0"/>
<line x1="149.4" y1="131.8" x2="133.9" y2="129.2" stroke="rgb(0,0,0)"  stroke-width="2.0"/>
<line x1="172.8" y1="161.0" x2="192.1" y2="183.3" stroke="rgb(0,0,0)"  stroke-width="2.0"/>
<line x1="168.2" y1="164.9" x2="187.6" y2="187.2" stroke="rgb(0,0,0)"  stroke-width="2.0"/>
<line x1="148.3" y1="291.8" x2="184.3" y2="312.6" stroke="rgb(0,0,0)"  stroke-width="2.0"/>
<line x1="184.3" y1="312.6" x2="205.6" y2="293.4" stroke="rgb(0,0,0)"  stroke-width="2.0"/>
<line x1="210.0" y1="272.9" x2="198.4" y2="246.7" stroke="rgb(0,0,0)"  stroke-width="2.0"/>
<line x1="198.4" y1="246.7" x2="156.9" y2="251.0" stroke="rgb(0,0,0)"  stroke-width="2.0"/>
<line x1="193.1" y1="254.5" x2="163.6" y2="257.6" stroke="rgb(0,0,0)"  stroke-width="2.0"/>
<line x1="156.9" y1="251.0" x2="148.3" y2="291.8" stroke="rgb(0,0,0)"  stroke-width="2.0"/>
<line x1="98.2" y1="420.2" x2="139.6" y2="415.9" stroke="rgb(0,0,0)"  stroke-width="2.0"/>
<line x1="103.4" y1="412.5" x2="132.9" y2="409.4" stroke="rgb(0,0,0)"  stroke-width="2.0"/>
<line x1="139.6" y1="415.9" x2="148.3" y2="375.1" stroke="rgb(0,0,0)"  stroke-width="2.0"/>
<line x1="148.3" y1="375.1" x2="112.2" y2="354.3" stroke="rgb(0,0,0)"  stroke-width="2.0"/>
<line x1="139.5" y1="378.4" x2="113.8" y2="363.5" stroke="rgb(0,0,0)"  stroke-width="2.0"/>
<line x1="112.2" y1="354.3" x2="90.9" y2="373.5" stroke="rgb(0,0,0)"  stroke-width="2.0"/>
<line x1="86.5" y1="394.1" x2="98.2" y2="420.2" stroke="rgb(0,0,0)"  stroke-width="2.0"/>
<line x1="148.3" y1="375.1" x2="184.3" y2="354.3" stroke="rgb(0,0,0)"  stroke-width="2.0"/>
<line x1="184.3" y1="354.3" x2="184.3" y2="312.6" stroke="rgb(0,0,0)"  stroke-width="2.0"/>
<line x1="177.1" y1="348.3" x2="177.1" y2="318.6" stroke="rgb(0,0,0)"  stroke-width="2.0"/>
<line x1="148.3" y1="291.8" x2="112.2" y2="312.6" stroke="rgb(0,0,0)"  stroke-width="2.0"/>
<line x1="146.7" y1="301.0" x2="121.0" y2="315.9" stroke="rgb(0,0,0)"  stroke-width="2.0"/>
<line x1="112.2" y1="312.6" x2="112.2" y2="354.3" stroke="rgb(0,0,0)"  stroke-width="2.0"/>
<line x1="281.7" y1="174.5" x2="260.9" y2="138.4" stroke="rgb(0,0,0)"  stroke-width="2.0"/>
<line x1="272.5" y1="172.9" x2="257.6" y2="147.2" stroke="rgb(0,0,0)"  stroke-width="2.0"/>
<line x1="260.9" y1="138.4" x2="219.2" y2="138.4" stroke="rgb(0,0,0)"  stroke-width="2.0"/>
<line x1="219.2" y1="138.4" x2="198.4" y2="174.5" stroke="rgb(0,0,0)"  stroke-width="2.0"/>
<line x1="222.4" y1="147.2" x2="207.6" y2="172.9" stroke="rgb(0,0,0)"  stroke-width="2.0"/>
<line x1="198.4" y1="174.5" x2="219.2" y2="210.6" stroke="rgb(0,0,0)"  stroke-width="2.0"/>
<line x1="219.2" y1="210.6" x2="260.9" y2="210.6" stroke="rgb(0,0,0)"  stroke-width="2.0"/>
<line x1="225.2" y1="203.4" x2="254.9" y2="203.4" stroke="rgb(0,0,0)"  stroke-width="2.0"/>
<line x1="260.9" y1="210.6" x2="281.7" y2="174.5" stroke="rgb(0,0,0)"  stroke-width="2.0"/>
<line x1="323.4" y1="102.3" x2="281.7" y2="102.3" stroke="rgb(0,0,0)"  stroke-width="2.0"/>
<line x1="281.7" y1="102.3" x2="260.9" y2="138.4" stroke="rgb(0,0,0)"  stroke-width="2.0"/>
<line x1="281.7" y1="174.5" x2="323.4" y2="174.5" stroke="rgb(0,0,0)"  stroke-width="2.0"/>
<line x1="323.4" y1="174.5" x2="337.7" y2="149.7" stroke="rgb(0,0,0)"  stroke-width="2.0"/>
<line x1="337.7" y1="127.2" x2="323.4" y2="102.3" stroke="rgb(0,0,0)"  stroke-width="2.0"/>
<line x1="227.8" y1="81.2" x2="209.7" y2="107.7" stroke="rgb(0,0,0)"  stroke-width="2.0"/>
<line x1="230.4" y1="90.2" x2="219.1" y2="106.8" stroke="rgb(0,0,0)"  stroke-width="2.0"/>
<line x1="209.7" y1="107.7" x2="219.2" y2="138.4" stroke="rgb(0,0,0)"  stroke-width="2.0"/>
<line x1="281.7" y1="102.3" x2="259.9" y2="78.8" stroke="rgb(0,0,0)"  stroke-width="2.0"/>
<line x1="272.3" y1="102.8" x2="258.7" y2="88.1" stroke="rgb(0,0,0)"  stroke-width="2.0"/>
<line x1="259.9" y1="78.8" x2="227.8" y2="81.2" stroke="rgb(0,0,0)"  stroke-width="2.0"/>
<line x1="165.8" y1="146.5" x2="170.5" y2="163.0" stroke="rgb(0,0,0)"  stroke-width="2.0"/>
<line x1="170.5" y1="163.0" x2="198.4" y2="174.5" stroke="rgb(0,0,0)"  stroke-width="2.0"/>
<line x1="209.7" y1="107.7" x2="179.6" y2="109.4" stroke="rgb(0,0,0)"  stroke-width="2.0"/>
<line x1="179.6" y1="109.4" x2="169.7" y2="123.4" stroke="rgb(0,0,0)"  stroke-width="2.0"/>
<text x="338.203324" y="218.592482" fill="rgb(255,12,12)"  stroke="rgb(255,12,12)" stroke-width="1" font-size="16" >O</text>
<text x="338.203324" y="146.420041" fill="rgb(12,12,255)"  stroke="rgb(12,12,255)" stroke-width="1" font-size="16" >N</text>
<text x="379.872102" y="146.420041" fill="rgb(191,191,191)"  stroke="rgb(191,191,191)" stroke-width="1" font-size="16" >H</text>
<text x="338.203324" y="74.247600" fill="rgb(255,12,12)"  stroke="rgb(255,12,12)" stroke-width="1" font-size="16" >O</text>
<text x="269.076487" y="48.000000" fill="rgb(191,191,191)"  stroke="rgb(191,191,191)" stroke-width="1" font-size="16" >H</text>
<text x="153.484550" y="80.932982" fill="rgb(255,12,12)"  stroke="rgb(255,12,12)" stroke-width="1" font-size="16" >O</text>
<text x="156.176961" y="141.989931" fill="rgb(12,12,255)"  stroke="rgb(12,12,255)" stroke-width="1" font-size="16" >N</text>
<text x="115.099027" y="134.997765" fill="rgb(191,191,191)"  stroke="rgb(191,191,191)" stroke-width="1" font-size="16" >H</text>
<text x="192.334689" y="203.107626" fill="rgb(255,12,12)"  stroke="rgb(255,12,12)" stroke-width="1" font-size="16" >O</text>
<text x="95.158378" y="197.102402" fill="rgb(12,12,255)"  stroke="rgb(12,12,255)" stroke-width="1" font-size="16" >N</text>
<text x="70.086220" y="299.792491" fill="rgb(255,12,12)"  stroke="rgb(255,12,12)" stroke-width="1" font-size="16" >O</text>
<text x="14.000000" y="320.626880" fill="rgb(102,102,102)"  stroke="rgb(102,102,102)" stroke-width="1" font-size="16" >H</text>
<text x="26.000000" y="324.306880" fill="rgb(102,102,102)"  stroke="rgb(102,102,102)" stroke-width="1" font-size="13" >3</text>
<text x="32.500000" y="320.626880" fill="rgb(102,102,102)"  stroke="rgb(102,102,102)" stroke-width="1" font-size="16" >C</text>
<text x="75.206504" y="390.177513" fill="rgb(178,178,0)"  stroke="rgb(178,178,0)" stroke-width="1" font-size="16" >S</text>
<text x="71.320334" y="464.330057" fill="rgb(191,191,191)"  stroke="rgb(191,191,191)" stroke-width="1" font-size="16" >H</text>
<text x="189.358945" y="485.820137" fill="rgb(12,12,255)"  stroke="rgb(12,12,255)" stroke-width="1" font-size="16" >N</text>
<text x="214.431102" y="383.130048" fill="rgb(255,12,12)"  stroke="rgb(255,12,12)" stroke-width="1" font-size="16" >O</text>
<text x="216.431102" y="424.798826" fill="rgb(102,102,102)"  stroke="rgb(102,102,102)" stroke-width="1" font-size="16" >CH</text>
<text x="240.431102" y="428.478826" fill="rgb(102,102,102)"  stroke="rgb(102,102,102)" stroke-width="1" font-size="13" >3</text>
<text x="209.310819" y="292.745025" fill="rgb(178,178,0)"  stroke="rgb(178,178,0)" stroke-width="1" font-size="16" >S</text>
</svg>
</g>
<text font-size="18.000000" fill ="black" font-family="sans-serif"
x="10.000000" y="20.000000" ></text>
</svg>
