<?xml version="1.0"?>
<svg version="1.1" id="topsvg"
xmlns="http://www.w3.org/2000/svg" xmlns:xlink="http://www.w3.org/1999/xlink"
xmlns:cml="http://www.xml-cml.org/schema" x="0" y="0" width="200px" height="200px" viewBox="0 0 100 100">
<title> - Open Babel Depiction</title>
<rect x="0" y="0" width="100" height="100" fill="white"/>
<g transform="translate(0,0)">
<svg width="100" height="100" x="0" y="0" viewBox="0 0 489.868 469.127"
font-family="sans-serif" stroke="rgb(0,0,0)" stroke-width="2"  stroke-linecap="round">
<line x1="214.1" y1="223.5" x2="248.9" y2="204.0" stroke="rgb(0,0,0)"  stroke-width="2.0"/>
<line x1="306.2" y1="105.7" x2="299.4" y2="93.6" stroke="rgb(0,0,0)"  stroke-width="2.0"/>
<line x1="280.1" y1="82.1" x2="266.2" y2="81.9" stroke="rgb(0,0,0)"  stroke-width="2.0"/>
<line x1="419.9" y1="108.3" x2="440.1" y2="90.6" stroke="rgb(0,0,0)"  stroke-width="2.0"/>
<line x1="179.8" y1="321.0" x2="203.0" y2="334.8" stroke="rgb(0,0,0)"  stroke-width="2.0"/>
<line x1="176.7" y1="326.1" x2="199.9" y2="340.0" stroke="rgb(0,0,0)"  stroke-width="2.0"/>
<line x1="143.4" y1="355.8" x2="143.2" y2="382.6" stroke="rgb(0,0,0)"  stroke-width="2.0"/>
<line x1="145.4" y1="384.6" x2="127.3" y2="404.4" stroke="rgb(0,0,0)"  stroke-width="2.0"/>
<line x1="141.0" y1="380.6" x2="122.9" y2="400.3" stroke="rgb(0,0,0)"  stroke-width="2.0"/>
<line x1="143.2" y1="382.6" x2="169.3" y2="388.4" stroke="rgb(0,0,0)"  stroke-width="2.0"/>
<line x1="185.9" y1="403.6" x2="190.0" y2="416.7" stroke="rgb(0,0,0)"  stroke-width="2.0"/>
<line x1="110.0" y1="325.2" x2="86.5" y2="338.5" stroke="rgb(0,0,0)"  stroke-width="2.0"/>
<line x1="107.0" y1="320.0" x2="83.6" y2="333.3" stroke="rgb(0,0,0)"  stroke-width="2.0"/>
<line x1="74.8" y1="261.6" x2="51.3" y2="274.9" stroke="rgb(0,0,0)"  stroke-width="2.0"/>
<line x1="109.1" y1="164.6" x2="85.9" y2="150.8" stroke="rgb(0,0,0)"  stroke-width="2.0"/>
<line x1="112.2" y1="159.4" x2="88.9" y2="145.7" stroke="rgb(0,0,0)"  stroke-width="2.0"/>
<line x1="145.8" y1="129.3" x2="146.1" y2="102.1" stroke="rgb(0,0,0)"  stroke-width="2.0"/>
<line x1="144.8" y1="99.4" x2="169.0" y2="87.0" stroke="rgb(0,0,0)"  stroke-width="2.0"/>
<line x1="147.5" y1="104.7" x2="171.7" y2="92.4" stroke="rgb(0,0,0)"  stroke-width="2.0"/>
<line x1="146.1" y1="102.1" x2="123.3" y2="87.2" stroke="rgb(0,0,0)"  stroke-width="2.0"/>
<line x1="113.1" y1="67.2" x2="113.8" y2="53.0" stroke="rgb(0,0,0)"  stroke-width="2.0"/>
<line x1="178.9" y1="160.3" x2="202.5" y2="147.1" stroke="rgb(0,0,0)"  stroke-width="2.0"/>
<line x1="181.9" y1="165.5" x2="205.4" y2="152.3" stroke="rgb(0,0,0)"  stroke-width="2.0"/>
<line x1="352.1" y1="121.8" x2="359.9" y2="160.9" stroke="rgb(0,0,0)"  stroke-width="2.0"/>
<line x1="359.9" y1="160.9" x2="325.1" y2="180.4" stroke="rgb(0,0,0)"  stroke-width="2.0"/>
<line x1="325.1" y1="180.4" x2="295.8" y2="153.3" stroke="rgb(0,0,0)"  stroke-width="2.0"/>
<line x1="325.6" y1="171.0" x2="305.1" y2="152.1" stroke="rgb(0,0,0)"  stroke-width="2.0"/>
<line x1="295.8" y1="153.3" x2="307.1" y2="128.9" stroke="rgb(0,0,0)"  stroke-width="2.0"/>
<line x1="325.4" y1="118.6" x2="352.1" y2="121.8" stroke="rgb(0,0,0)"  stroke-width="2.0"/>
<line x1="325.1" y1="180.4" x2="316.3" y2="219.3" stroke="rgb(0,0,0)"  stroke-width="2.0"/>
<line x1="316.3" y1="219.3" x2="278.2" y2="231.1" stroke="rgb(0,0,0)"  stroke-width="2.0"/>
<line x1="308.4" y1="214.2" x2="281.8" y2="222.4" stroke="rgb(0,0,0)"  stroke-width="2.0"/>
<line x1="278.2" y1="231.1" x2="248.9" y2="204.0" stroke="rgb(0,0,0)"  stroke-width="2.0"/>
<line x1="248.9" y1="204.0" x2="257.7" y2="165.1" stroke="rgb(0,0,0)"  stroke-width="2.0"/>
<line x1="257.3" y1="199.7" x2="263.4" y2="172.6" stroke="rgb(0,0,0)"  stroke-width="2.0"/>
<line x1="257.7" y1="165.1" x2="295.8" y2="153.3" stroke="rgb(0,0,0)"  stroke-width="2.0"/>
<line x1="382.1" y1="95.5" x2="352.1" y2="121.8" stroke="rgb(0,0,0)"  stroke-width="2.0"/>
<line x1="382.4" y1="104.9" x2="361.4" y2="123.2" stroke="rgb(0,0,0)"  stroke-width="2.0"/>
<line x1="359.9" y1="160.9" x2="397.7" y2="173.7" stroke="rgb(0,0,0)"  stroke-width="2.0"/>
<line x1="367.9" y1="156.0" x2="394.3" y2="165.0" stroke="rgb(0,0,0)"  stroke-width="2.0"/>
<line x1="397.7" y1="173.7" x2="427.6" y2="147.4" stroke="rgb(0,0,0)"  stroke-width="2.0"/>
<line x1="427.6" y1="147.4" x2="419.9" y2="108.3" stroke="rgb(0,0,0)"  stroke-width="2.0"/>
<line x1="419.4" y1="143.0" x2="414.0" y2="115.6" stroke="rgb(0,0,0)"  stroke-width="2.0"/>
<line x1="419.9" y1="108.3" x2="382.1" y2="95.5" stroke="rgb(0,0,0)"  stroke-width="2.0"/>
<line x1="178.8" y1="283.4" x2="144.1" y2="262.5" stroke="rgb(0,0,0)"  stroke-width="2.0"/>
<line x1="177.4" y1="274.1" x2="152.9" y2="259.4" stroke="rgb(0,0,0)"  stroke-width="2.0"/>
<line x1="144.1" y1="262.5" x2="144.6" y2="222.6" stroke="rgb(0,0,0)"  stroke-width="2.0"/>
<line x1="144.6" y1="222.6" x2="179.9" y2="203.1" stroke="rgb(0,0,0)"  stroke-width="2.0"/>
<line x1="153.3" y1="226.0" x2="178.1" y2="212.3" stroke="rgb(0,0,0)"  stroke-width="2.0"/>
<line x1="179.9" y1="203.1" x2="214.1" y2="223.5" stroke="rgb(0,0,0)"  stroke-width="2.0"/>
<line x1="214.1" y1="223.5" x2="213.6" y2="263.4" stroke="rgb(0,0,0)"  stroke-width="2.0"/>
<line x1="206.8" y1="229.4" x2="206.5" y2="257.3" stroke="rgb(0,0,0)"  stroke-width="2.0"/>
<line x1="213.6" y1="263.4" x2="178.8" y2="283.4" stroke="rgb(0,0,0)"  stroke-width="2.0"/>
<line x1="108.5" y1="322.6" x2="109.1" y2="282.5" stroke="rgb(0,0,0)"  stroke-width="2.0"/>
<line x1="109.1" y1="282.5" x2="144.1" y2="262.5" stroke="rgb(0,0,0)"  stroke-width="2.0"/>
<line x1="178.8" y1="283.4" x2="178.3" y2="323.5" stroke="rgb(0,0,0)"  stroke-width="2.0"/>
<line x1="178.3" y1="323.5" x2="154.9" y2="336.5" stroke="rgb(0,0,0)"  stroke-width="2.0"/>
<line x1="132.3" y1="336.3" x2="108.5" y2="322.6" stroke="rgb(0,0,0)"  stroke-width="2.0"/>
<line x1="75.3" y1="221.7" x2="110.1" y2="202.2" stroke="rgb(0,0,0)"  stroke-width="2.0"/>
<line x1="84.1" y1="225.0" x2="108.4" y2="211.4" stroke="rgb(0,0,0)"  stroke-width="2.0"/>
<line x1="110.1" y1="202.2" x2="144.6" y2="222.6" stroke="rgb(0,0,0)"  stroke-width="2.0"/>
<line x1="109.1" y1="282.5" x2="74.8" y2="261.6" stroke="rgb(0,0,0)"  stroke-width="2.0"/>
<line x1="107.7" y1="273.2" x2="83.7" y2="258.6" stroke="rgb(0,0,0)"  stroke-width="2.0"/>
<line x1="74.8" y1="261.6" x2="75.3" y2="221.7" stroke="rgb(0,0,0)"  stroke-width="2.0"/>
<line x1="156.8" y1="148.9" x2="180.4" y2="162.9" stroke="rgb(0,0,0)"  stroke-width="2.0"/>
<line x1="180.4" y1="162.9" x2="179.9" y2="203.1" stroke="rgb(0,0,0)"  stroke-width="2.0"/>
<line x1="110.1" y1="202.2" x2="110.6" y2="162.0" stroke="rgb(0,0,0)"  stroke-width="2.0"/>
<line x1="110.6" y1="162.0" x2="134.3" y2="148.6" stroke="rgb(0,0,0)"  stroke-width="2.0"/>
<text x="70.236376" y="149.607543" fill="rgb(255,12,12)"  stroke="rgb(255,12,12)" stroke-width="1" font-size="16" >O</text>
<text x="110.302041" y="419.918455" fill="rgb(255,12,12)"  stroke="rgb(255,12,12)" stroke-width="1" font-size="16" >O</text>
<text x="175.993084" y="399.199826" fill="rgb(255,12,12)"  stroke="rgb(255,12,12)" stroke-width="1" font-size="16" >O</text>
<text x="189.954990" y="437.126567" fill="rgb(102,102,102)"  stroke="rgb(102,102,102)" stroke-width="1" font-size="16" >CH</text>
<text x="213.954990" y="440.806567" fill="rgb(102,102,102)"  stroke="rgb(102,102,102)" stroke-width="1" font-size="13" >3</text>
<text x="67.728608" y="350.321519" fill="rgb(255,12,12)"  stroke="rgb(255,12,12)" stroke-width="1" font-size="16" >O</text>
<text x="34.000000" y="289.293325" fill="rgb(191,191,191)"  stroke="rgb(191,191,191)" stroke-width="1" font-size="16" >H</text>
<text x="139.651463" y="150.257257" fill="rgb(12,12,255)"  stroke="rgb(12,12,255)" stroke-width="1" font-size="16" >N</text>
<text x="175.943117" y="91.800912" fill="rgb(255,12,12)"  stroke="rgb(255,12,12)" stroke-width="1" font-size="16" >O</text>
<text x="106.397577" y="88.152136" fill="rgb(255,12,12)"  stroke="rgb(255,12,12)" stroke-width="1" font-size="16" >O</text>
<text x="110.504199" y="48.000000" fill="rgb(102,102,102)"  stroke="rgb(102,102,102)" stroke-width="1" font-size="16" >CH</text>
<text x="134.504199" y="51.680000" fill="rgb(102,102,102)"  stroke="rgb(102,102,102)" stroke-width="1" font-size="13" >3</text>
<text x="209.287040" y="151.364994" fill="rgb(255,12,12)"  stroke="rgb(255,12,12)" stroke-width="1" font-size="16" >O</text>
<text x="306.529498" y="125.087576" fill="rgb(12,12,255)"  stroke="rgb(12,12,255)" stroke-width="1" font-size="16" >N</text>
<text x="287.054043" y="90.288270" fill="rgb(255,12,12)"  stroke="rgb(255,12,12)" stroke-width="1" font-size="16" >O</text>
<text x="227.179233" y="89.754856" fill="rgb(102,102,102)"  stroke="rgb(102,102,102)" stroke-width="1" font-size="16" >H</text>
<text x="239.179233" y="93.434856" fill="rgb(102,102,102)"  stroke="rgb(102,102,102)" stroke-width="1" font-size="13" >3</text>
<text x="245.679233" y="89.754856" fill="rgb(102,102,102)"  stroke="rgb(102,102,102)" stroke-width="1" font-size="16" >C</text>
<text x="443.867843" y="90.045318" fill="rgb(191,191,191)"  stroke="rgb(191,191,191)" stroke-width="1" font-size="16" >H</text>
<text x="206.625833" y="352.068085" fill="rgb(255,12,12)"  stroke="rgb(255,12,12)" stroke-width="1" font-size="16" >O</text>
<text x="137.510168" y="350.828864" fill="rgb(12,12,255)"  stroke="rgb(12,12,255)" stroke-width="1" font-size="16" >N</text>
</svg>
</g>
<text font-size="18.000000" fill ="black" font-family="sans-serif"
x="10.000000" y="20.000000" ></text>
</svg>
