<?xml version="1.0"?>
<svg version="1.1" id="topsvg"
xmlns="http://www.w3.org/2000/svg" xmlns:xlink="http://www.w3.org/1999/xlink"
xmlns:cml="http://www.xml-cml.org/schema" x="0" y="0" width="200px" height="200px" viewBox="0 0 100 100">
<title> - Open Babel Depiction</title>
<rect x="0" y="0" width="100" height="100" fill="white"/>
<g transform="translate(0,0)">
<svg width="100" height="100" x="0" y="0" viewBox="0 0 498.864 321.763"
font-family="sans-serif" stroke="rgb(0,0,0)" stroke-width="2"  stroke-linecap="round">
<line x1="312.4" y1="201.8" x2="272.4" y2="201.8" stroke="rgb(0,0,0)"  stroke-width="2.0"/>
<line x1="248.9" y1="234.1" x2="257.2" y2="259.8" stroke="rgb(0,0,0)"  stroke-width="2.0"/>
<line x1="176.2" y1="241.8" x2="176.2" y2="268.8" stroke="rgb(0,0,0)"  stroke-width="2.0"/>
<line x1="80.0" y1="201.8" x2="53.0" y2="201.8" stroke="rgb(0,0,0)"  stroke-width="2.0"/>
<line x1="103.5" y1="169.4" x2="95.2" y2="143.7" stroke="rgb(0,0,0)"  stroke-width="2.0"/>
<line x1="176.2" y1="161.8" x2="176.2" y2="134.8" stroke="rgb(0,0,0)"  stroke-width="2.0"/>
<line x1="326.7" y1="133.1" x2="301.0" y2="124.8" stroke="rgb(0,0,0)"  stroke-width="2.0"/>
<line x1="328.5" y1="127.4" x2="302.8" y2="119.1" stroke="rgb(0,0,0)"  stroke-width="2.0"/>
<line x1="357.3" y1="63.5" x2="335.5" y2="47.6" stroke="rgb(0,0,0)"  stroke-width="2.0"/>
<line x1="418.9" y1="83.5" x2="445.9" y2="83.5" stroke="rgb(0,0,0)"  stroke-width="2.0"/>
<line x1="404.6" y1="152.1" x2="430.3" y2="160.5" stroke="rgb(0,0,0)"  stroke-width="2.0"/>
<line x1="402.7" y1="157.9" x2="428.4" y2="166.2" stroke="rgb(0,0,0)"  stroke-width="2.0"/>
<line x1="373.9" y1="221.8" x2="395.8" y2="237.6" stroke="rgb(0,0,0)"  stroke-width="2.0"/>
<line x1="210.8" y1="221.8" x2="210.8" y2="181.8" stroke="rgb(0,0,0)"  stroke-width="2.0"/>
<line x1="210.8" y1="181.8" x2="236.5" y2="173.4" stroke="rgb(0,0,0)"  stroke-width="2.0"/>
<line x1="256.5" y1="179.9" x2="272.4" y2="201.8" stroke="rgb(0,0,0)"  stroke-width="2.0"/>
<line x1="272.4" y1="201.8" x2="248.9" y2="234.1" stroke="rgb(0,0,0)"  stroke-width="2.0"/>
<line x1="263.0" y1="202.4" x2="246.6" y2="225.0" stroke="rgb(0,0,0)"  stroke-width="2.0"/>
<line x1="248.9" y1="234.1" x2="210.8" y2="221.8" stroke="rgb(0,0,0)"  stroke-width="2.0"/>
<line x1="80.0" y1="201.8" x2="103.5" y2="169.4" stroke="rgb(0,0,0)"  stroke-width="2.0"/>
<line x1="89.4" y1="201.1" x2="105.8" y2="178.5" stroke="rgb(0,0,0)"  stroke-width="2.0"/>
<line x1="103.5" y1="169.4" x2="141.6" y2="181.8" stroke="rgb(0,0,0)"  stroke-width="2.0"/>
<line x1="141.6" y1="181.8" x2="141.6" y2="221.8" stroke="rgb(0,0,0)"  stroke-width="2.0"/>
<line x1="134.4" y1="187.8" x2="134.4" y2="215.8" stroke="rgb(0,0,0)"  stroke-width="2.0"/>
<line x1="141.6" y1="221.8" x2="115.9" y2="230.1" stroke="rgb(0,0,0)"  stroke-width="2.0"/>
<line x1="95.9" y1="223.6" x2="80.0" y2="201.8" stroke="rgb(0,0,0)"  stroke-width="2.0"/>
<line x1="403.0" y1="61.7" x2="418.9" y2="83.5" stroke="rgb(0,0,0)"  stroke-width="2.0"/>
<line x1="418.9" y1="83.5" x2="395.4" y2="115.9" stroke="rgb(0,0,0)"  stroke-width="2.0"/>
<line x1="409.5" y1="84.1" x2="393.1" y2="106.8" stroke="rgb(0,0,0)"  stroke-width="2.0"/>
<line x1="395.4" y1="115.9" x2="357.3" y2="103.5" stroke="rgb(0,0,0)"  stroke-width="2.0"/>
<line x1="357.3" y1="103.5" x2="357.3" y2="63.5" stroke="rgb(0,0,0)"  stroke-width="2.0"/>
<line x1="364.5" y1="97.5" x2="364.5" y2="69.5" stroke="rgb(0,0,0)"  stroke-width="2.0"/>
<line x1="357.3" y1="63.5" x2="383.0" y2="55.2" stroke="rgb(0,0,0)"  stroke-width="2.0"/>
<line x1="373.9" y1="181.8" x2="373.9" y2="221.8" stroke="rgb(0,0,0)"  stroke-width="2.0"/>
<line x1="366.7" y1="187.8" x2="366.7" y2="215.8" stroke="rgb(0,0,0)"  stroke-width="2.0"/>
<line x1="373.9" y1="221.8" x2="348.3" y2="230.1" stroke="rgb(0,0,0)"  stroke-width="2.0"/>
<line x1="328.3" y1="223.6" x2="312.4" y2="201.8" stroke="rgb(0,0,0)"  stroke-width="2.0"/>
<line x1="312.4" y1="201.8" x2="335.9" y2="169.4" stroke="rgb(0,0,0)"  stroke-width="2.0"/>
<line x1="321.7" y1="201.1" x2="338.2" y2="178.5" stroke="rgb(0,0,0)"  stroke-width="2.0"/>
<line x1="335.9" y1="169.4" x2="373.9" y2="181.8" stroke="rgb(0,0,0)"  stroke-width="2.0"/>
<line x1="141.6" y1="181.8" x2="176.2" y2="161.8" stroke="rgb(0,0,0)"  stroke-width="2.0"/>
<line x1="176.2" y1="161.8" x2="210.8" y2="181.8" stroke="rgb(0,0,0)"  stroke-width="2.0"/>
<line x1="177.8" y1="171.0" x2="202.0" y2="185.0" stroke="rgb(0,0,0)"  stroke-width="2.0"/>
<line x1="210.8" y1="221.8" x2="176.2" y2="241.8" stroke="rgb(0,0,0)"  stroke-width="2.0"/>
<line x1="202.0" y1="218.5" x2="177.8" y2="232.5" stroke="rgb(0,0,0)"  stroke-width="2.0"/>
<line x1="176.2" y1="241.8" x2="141.6" y2="221.8" stroke="rgb(0,0,0)"  stroke-width="2.0"/>
<line x1="327.6" y1="130.3" x2="357.3" y2="103.5" stroke="rgb(0,0,0)"  stroke-width="2.0"/>
<line x1="395.4" y1="115.9" x2="403.7" y2="155.0" stroke="rgb(0,0,0)"  stroke-width="2.0"/>
<line x1="403.7" y1="155.0" x2="373.9" y2="181.8" stroke="rgb(0,0,0)"  stroke-width="2.0"/>
<line x1="335.9" y1="169.4" x2="327.6" y2="130.3" stroke="rgb(0,0,0)"  stroke-width="2.0"/>
<text x="454.863780" y="91.511410" fill="rgb(102,102,102)"  stroke="rgb(102,102,102)" stroke-width="1" font-size="16" >CH</text>
<text x="478.863780" y="95.191410" fill="rgb(102,102,102)"  stroke="rgb(102,102,102)" stroke-width="1" font-size="13" >3</text>
<text x="283.542056" y="125.915955" fill="rgb(255,12,12)"  stroke="rgb(255,12,12)" stroke-width="1" font-size="16" >O</text>
<text x="298.949429" y="48.000000" fill="rgb(102,102,102)"  stroke="rgb(102,102,102)" stroke-width="1" font-size="16" >H</text>
<text x="310.949429" y="51.680000" fill="rgb(102,102,102)"  stroke="rgb(102,102,102)" stroke-width="1" font-size="13" >3</text>
<text x="317.449429" y="48.000000" fill="rgb(102,102,102)"  stroke="rgb(102,102,102)" stroke-width="1" font-size="16" >C</text>
<text x="389.352370" y="59.150730" fill="rgb(178,178,0)"  stroke="rgb(178,178,0)" stroke-width="1" font-size="16" >S</text>
<text x="242.877964" y="177.402538" fill="rgb(178,178,0)"  stroke="rgb(178,178,0)" stroke-width="1" font-size="16" >S</text>
<text x="435.711098" y="175.358674" fill="rgb(255,12,12)"  stroke="rgb(255,12,12)" stroke-width="1" font-size="16" >O</text>
<text x="400.303724" y="253.274628" fill="rgb(191,191,191)"  stroke="rgb(191,191,191)" stroke-width="1" font-size="16" >H</text>
<text x="329.900784" y="242.123898" fill="rgb(178,178,0)"  stroke="rgb(178,178,0)" stroke-width="1" font-size="16" >S</text>
<text x="255.238643" y="280.166159" fill="rgb(191,191,191)"  stroke="rgb(191,191,191)" stroke-width="1" font-size="16" >H</text>
<text x="172.194687" y="289.763218" fill="rgb(102,102,102)"  stroke="rgb(102,102,102)" stroke-width="1" font-size="16" >CH</text>
<text x="196.194687" y="293.443218" fill="rgb(102,102,102)"  stroke="rgb(102,102,102)" stroke-width="1" font-size="13" >3</text>
<text x="97.511410" y="242.123898" fill="rgb(178,178,0)"  stroke="rgb(178,178,0)" stroke-width="1" font-size="16" >S</text>
<text x="34.000000" y="209.763218" fill="rgb(191,191,191)"  stroke="rgb(191,191,191)" stroke-width="1" font-size="16" >H</text>
<text x="85.150730" y="139.360278" fill="rgb(191,191,191)"  stroke="rgb(191,191,191)" stroke-width="1" font-size="16" >H</text>
<text x="172.194687" y="129.763218" fill="rgb(102,102,102)"  stroke="rgb(102,102,102)" stroke-width="1" font-size="16" >CH</text>
<text x="196.194687" y="133.443218" fill="rgb(102,102,102)"  stroke="rgb(102,102,102)" stroke-width="1" font-size="13" >3</text>
</svg>
</g>
<text font-size="18.000000" fill ="black" font-family="sans-serif"
x="10.000000" y="20.000000" ></text>
</svg>
