<?xml version="1.0"?>
<svg version="1.1" id="topsvg"
xmlns="http://www.w3.org/2000/svg" xmlns:xlink="http://www.w3.org/1999/xlink"
xmlns:cml="http://www.xml-cml.org/schema" x="0" y="0" width="200px" height="200px" viewBox="0 0 100 100">
<title> - Open Babel Depiction</title>
<rect x="0" y="0" width="100" height="100" fill="white"/>
<g transform="translate(0,0)">
<svg width="100" height="100" x="0" y="0" viewBox="0 0 473.287 280.786"
font-family="sans-serif" stroke="rgb(0,0,0)" stroke-width="2"  stroke-linecap="round">
<line x1="204.7" y1="141.9" x2="238.3" y2="122.4" stroke="rgb(0,0,0)"  stroke-width="2.0"/>
<line x1="242.2" y1="83.7" x2="223.0" y2="66.5" stroke="rgb(0,0,0)"  stroke-width="2.0"/>
<line x1="280.2" y1="75.5" x2="290.6" y2="51.9" stroke="rgb(0,0,0)"  stroke-width="2.0"/>
<line x1="299.7" y1="109.1" x2="338.3" y2="113.0" stroke="rgb(0,0,0)"  stroke-width="2.0"/>
<line x1="399.7" y1="99.7" x2="422.1" y2="86.7" stroke="rgb(0,0,0)"  stroke-width="2.0"/>
<line x1="395.8" y1="138.4" x2="415.1" y2="155.6" stroke="rgb(0,0,0)"  stroke-width="2.0"/>
<line x1="357.9" y1="146.6" x2="347.4" y2="170.2" stroke="rgb(0,0,0)"  stroke-width="2.0"/>
<line x1="133.7" y1="102.6" x2="133.6" y2="75.5" stroke="rgb(0,0,0)"  stroke-width="2.0"/>
<line x1="139.7" y1="102.6" x2="139.6" y2="75.5" stroke="rgb(0,0,0)"  stroke-width="2.0"/>
<line x1="91.1" y1="116.3" x2="80.0" y2="109.9" stroke="rgb(0,0,0)"  stroke-width="2.0"/>
<line x1="59.1" y1="112.3" x2="49.6" y2="120.9" stroke="rgb(0,0,0)"  stroke-width="2.0"/>
<line x1="104.2" y1="164.1" x2="80.9" y2="177.7" stroke="rgb(0,0,0)"  stroke-width="2.0"/>
<line x1="101.2" y1="158.9" x2="77.9" y2="172.5" stroke="rgb(0,0,0)"  stroke-width="2.0"/>
<line x1="170.7" y1="200.8" x2="170.8" y2="227.8" stroke="rgb(0,0,0)"  stroke-width="2.0"/>
<line x1="280.2" y1="75.5" x2="299.7" y2="109.1" stroke="rgb(0,0,0)"  stroke-width="2.0"/>
<line x1="277.0" y1="84.3" x2="290.5" y2="107.5" stroke="rgb(0,0,0)"  stroke-width="2.0"/>
<line x1="299.7" y1="109.1" x2="282.5" y2="128.3" stroke="rgb(0,0,0)"  stroke-width="2.0"/>
<line x1="261.9" y1="132.8" x2="238.3" y2="122.4" stroke="rgb(0,0,0)"  stroke-width="2.0"/>
<line x1="238.3" y1="122.4" x2="242.2" y2="83.7" stroke="rgb(0,0,0)"  stroke-width="2.0"/>
<line x1="246.1" y1="117.1" x2="248.8" y2="90.4" stroke="rgb(0,0,0)"  stroke-width="2.0"/>
<line x1="242.2" y1="83.7" x2="280.2" y2="75.5" stroke="rgb(0,0,0)"  stroke-width="2.0"/>
<line x1="399.7" y1="99.7" x2="395.8" y2="138.4" stroke="rgb(0,0,0)"  stroke-width="2.0"/>
<line x1="392.0" y1="105.0" x2="389.3" y2="131.7" stroke="rgb(0,0,0)"  stroke-width="2.0"/>
<line x1="395.8" y1="138.4" x2="357.9" y2="146.6" stroke="rgb(0,0,0)"  stroke-width="2.0"/>
<line x1="357.9" y1="146.6" x2="338.3" y2="113.0" stroke="rgb(0,0,0)"  stroke-width="2.0"/>
<line x1="361.1" y1="137.8" x2="347.6" y2="114.6" stroke="rgb(0,0,0)"  stroke-width="2.0"/>
<line x1="338.3" y1="113.0" x2="355.5" y2="93.7" stroke="rgb(0,0,0)"  stroke-width="2.0"/>
<line x1="376.1" y1="89.3" x2="399.7" y2="99.7" stroke="rgb(0,0,0)"  stroke-width="2.0"/>
<line x1="136.7" y1="181.1" x2="170.7" y2="200.8" stroke="rgb(0,0,0)"  stroke-width="2.0"/>
<line x1="145.5" y1="177.9" x2="169.1" y2="191.6" stroke="rgb(0,0,0)"  stroke-width="2.0"/>
<line x1="170.7" y1="200.8" x2="193.8" y2="187.3" stroke="rgb(0,0,0)"  stroke-width="2.0"/>
<line x1="204.9" y1="167.7" x2="204.7" y2="141.9" stroke="rgb(0,0,0)"  stroke-width="2.0"/>
<line x1="204.7" y1="141.9" x2="170.7" y2="122.3" stroke="rgb(0,0,0)"  stroke-width="2.0"/>
<line x1="195.9" y1="145.1" x2="172.3" y2="131.5" stroke="rgb(0,0,0)"  stroke-width="2.0"/>
<line x1="170.7" y1="122.3" x2="136.7" y2="181.1" stroke="rgb(0,0,0)"  stroke-width="2.0"/>
<line x1="136.7" y1="102.6" x2="113.7" y2="116.1" stroke="rgb(0,0,0)"  stroke-width="2.0"/>
<line x1="102.5" y1="135.7" x2="102.7" y2="161.5" stroke="rgb(0,0,0)"  stroke-width="2.0"/>
<line x1="102.7" y1="161.5" x2="136.7" y2="181.1" stroke="rgb(0,0,0)"  stroke-width="2.0"/>
<line x1="170.7" y1="122.3" x2="136.7" y2="102.6" stroke="rgb(0,0,0)"  stroke-width="2.0"/>
<text x="199.018003" y="188.712290" fill="rgb(178,178,0)"  stroke="rgb(178,178,0)" stroke-width="1" font-size="16" >S</text>
<text x="164.863443" y="248.786211" fill="rgb(191,191,191)"  stroke="rgb(191,191,191)" stroke-width="1" font-size="16" >H</text>
<text x="62.134699" y="189.628279" fill="rgb(255,12,12)"  stroke="rgb(255,12,12)" stroke-width="1" font-size="16" >O</text>
<text x="14.000000" y="137.661276" fill="rgb(102,102,102)"  stroke="rgb(102,102,102)" stroke-width="1" font-size="16" >H</text>
<text x="26.000000" y="141.341276" fill="rgb(102,102,102)"  stroke="rgb(102,102,102)" stroke-width="1" font-size="13" >3</text>
<text x="32.500000" y="137.661276" fill="rgb(102,102,102)"  stroke="rgb(102,102,102)" stroke-width="1" font-size="16" >C</text>
<text x="62.680709" y="111.491847" fill="rgb(255,12,12)"  stroke="rgb(255,12,12)" stroke-width="1" font-size="16" >O</text>
<text x="96.432141" y="130.682024" fill="rgb(12,12,255)"  stroke="rgb(12,12,255)" stroke-width="1" font-size="16" >N</text>
<text x="130.569395" y="70.521161" fill="rgb(255,12,12)"  stroke="rgb(255,12,12)" stroke-width="1" font-size="16" >O</text>
<text x="324.193132" y="190.081836" fill="rgb(30,239,30)"  stroke="rgb(30,239,30)" stroke-width="1" font-size="16" >Cl</text>
<text x="418.752735" y="172.229610" fill="rgb(255,12,12)"  stroke="rgb(255,12,12)" stroke-width="1" font-size="16" >OH</text>
<text x="427.286579" y="88.194120" fill="rgb(191,191,191)"  stroke="rgb(191,191,191)" stroke-width="1" font-size="16" >H</text>
<text x="358.206950" y="92.058042" fill="rgb(178,178,0)"  stroke="rgb(178,178,0)" stroke-width="1" font-size="16" >S</text>
<text x="267.824596" y="146.023794" fill="rgb(178,178,0)"  stroke="rgb(178,178,0)" stroke-width="1" font-size="16" >S</text>
<text x="289.838414" y="48.000000" fill="rgb(30,239,30)"  stroke="rgb(30,239,30)" stroke-width="1" font-size="16" >Cl</text>
<text x="195.278811" y="65.852226" fill="rgb(255,12,12)"  stroke="rgb(255,12,12)" stroke-width="1" font-size="16" >HO</text>
</svg>
</g>
<text font-size="18.000000" fill ="black" font-family="sans-serif"
x="10.000000" y="20.000000" ></text>
</svg>
