<?xml version="1.0"?>
<svg version="1.1" id="topsvg"
xmlns="http://www.w3.org/2000/svg" xmlns:xlink="http://www.w3.org/1999/xlink"
xmlns:cml="http://www.xml-cml.org/schema" x="0" y="0" width="200px" height="200px" viewBox="0 0 100 100">
<title> - Open Babel Depiction</title>
<rect x="0" y="0" width="100" height="100" fill="white"/>
<g transform="translate(0,0)">
<svg width="100" height="100" x="0" y="0" viewBox="0 0 360.906 461.111"
font-family="sans-serif" stroke="rgb(0,0,0)" stroke-width="2"  stroke-linecap="round">
<line x1="159.7" y1="137.7" x2="140.8" y2="170.6" stroke="rgb(0,0,0)"  stroke-width="2.0"/>
<line x1="103.1" y1="174.5" x2="86.4" y2="156.0" stroke="rgb(0,0,0)"  stroke-width="2.0"/>
<line x1="95.2" y1="211.6" x2="72.4" y2="221.7" stroke="rgb(0,0,0)"  stroke-width="2.0"/>
<line x1="128.0" y1="230.6" x2="132.0" y2="268.3" stroke="rgb(0,0,0)"  stroke-width="2.0"/>
<line x1="133.7" y1="270.7" x2="103.1" y2="293.0" stroke="rgb(0,0,0)"  stroke-width="2.0"/>
<line x1="130.2" y1="265.8" x2="99.5" y2="288.1" stroke="rgb(0,0,0)"  stroke-width="2.0"/>
<line x1="101.3" y1="290.6" x2="105.3" y2="328.3" stroke="rgb(0,0,0)"  stroke-width="2.0"/>
<line x1="77.1" y1="353.6" x2="52.7" y2="348.5" stroke="rgb(0,0,0)"  stroke-width="2.0"/>
<line x1="92.5" y1="388.3" x2="80.1" y2="409.9" stroke="rgb(0,0,0)"  stroke-width="2.0"/>
<line x1="130.2" y1="384.3" x2="146.9" y2="402.8" stroke="rgb(0,0,0)"  stroke-width="2.0"/>
<line x1="233.3" y1="152.4" x2="235.9" y2="177.2" stroke="rgb(0,0,0)"  stroke-width="2.0"/>
<line x1="227.3" y1="153.0" x2="229.9" y2="177.8" stroke="rgb(0,0,0)"  stroke-width="2.0"/>
<line x1="271.2" y1="130.0" x2="282.8" y2="132.5" stroke="rgb(0,0,0)"  stroke-width="2.0"/>
<line x1="304.2" y1="125.6" x2="312.2" y2="116.7" stroke="rgb(0,0,0)"  stroke-width="2.0"/>
<line x1="243.0" y1="92.7" x2="255.5" y2="71.1" stroke="rgb(0,0,0)"  stroke-width="2.0"/>
<line x1="169.5" y1="78.0" x2="166.9" y2="53.2" stroke="rgb(0,0,0)"  stroke-width="2.0"/>
<line x1="175.5" y1="77.4" x2="172.9" y2="52.6" stroke="rgb(0,0,0)"  stroke-width="2.0"/>
<line x1="149.8" y1="114.9" x2="185.6" y2="191.8" stroke="rgb(0,0,0)"  stroke-width="2.0"/>
<line x1="178.1" y1="203.6" x2="166.2" y2="203.6" stroke="rgb(0,0,0)"  stroke-width="2.0"/>
<line x1="95.2" y1="211.6" x2="128.0" y2="230.6" stroke="rgb(0,0,0)"  stroke-width="2.0"/>
<line x1="104.0" y1="208.4" x2="126.4" y2="221.3" stroke="rgb(0,0,0)"  stroke-width="2.0"/>
<line x1="128.0" y1="230.6" x2="146.5" y2="213.9" stroke="rgb(0,0,0)"  stroke-width="2.0"/>
<line x1="150.9" y1="193.3" x2="140.8" y2="170.6" stroke="rgb(0,0,0)"  stroke-width="2.0"/>
<line x1="140.8" y1="170.6" x2="103.1" y2="174.5" stroke="rgb(0,0,0)"  stroke-width="2.0"/>
<line x1="135.6" y1="178.3" x2="109.8" y2="181.1" stroke="rgb(0,0,0)"  stroke-width="2.0"/>
<line x1="103.1" y1="174.5" x2="95.2" y2="211.6" stroke="rgb(0,0,0)"  stroke-width="2.0"/>
<line x1="92.5" y1="388.3" x2="130.2" y2="384.3" stroke="rgb(0,0,0)"  stroke-width="2.0"/>
<line x1="97.7" y1="380.5" x2="123.5" y2="377.8" stroke="rgb(0,0,0)"  stroke-width="2.0"/>
<line x1="130.2" y1="384.3" x2="135.4" y2="359.9" stroke="rgb(0,0,0)"  stroke-width="2.0"/>
<line x1="126.8" y1="340.7" x2="105.3" y2="328.3" stroke="rgb(0,0,0)"  stroke-width="2.0"/>
<line x1="105.3" y1="328.3" x2="77.1" y2="353.6" stroke="rgb(0,0,0)"  stroke-width="2.0"/>
<line x1="105.6" y1="337.6" x2="86.4" y2="355.0" stroke="rgb(0,0,0)"  stroke-width="2.0"/>
<line x1="77.1" y1="353.6" x2="92.5" y2="388.3" stroke="rgb(0,0,0)"  stroke-width="2.0"/>
<line x1="230.3" y1="152.7" x2="248.8" y2="136.0" stroke="rgb(0,0,0)"  stroke-width="2.0"/>
<line x1="253.2" y1="115.5" x2="243.0" y2="92.7" stroke="rgb(0,0,0)"  stroke-width="2.0"/>
<line x1="243.0" y1="92.7" x2="205.3" y2="96.7" stroke="rgb(0,0,0)"  stroke-width="2.0"/>
<line x1="237.8" y1="100.5" x2="212.0" y2="103.2" stroke="rgb(0,0,0)"  stroke-width="2.0"/>
<line x1="205.3" y1="96.7" x2="197.4" y2="133.8" stroke="rgb(0,0,0)"  stroke-width="2.0"/>
<line x1="197.4" y1="133.8" x2="230.3" y2="152.7" stroke="rgb(0,0,0)"  stroke-width="2.0"/>
<line x1="205.3" y1="96.7" x2="172.5" y2="77.7" stroke="rgb(0,0,0)"  stroke-width="2.0"/>
<line x1="172.5" y1="77.7" x2="154.0" y2="94.4" stroke="rgb(0,0,0)"  stroke-width="2.0"/>
<line x1="149.6" y1="115.0" x2="159.7" y2="137.7" stroke="rgb(0,0,0)"  stroke-width="2.0"/>
<line x1="159.7" y1="137.7" x2="197.4" y2="133.8" stroke="rgb(0,0,0)"  stroke-width="2.0"/>
<line x1="164.9" y1="129.9" x2="190.7" y2="127.2" stroke="rgb(0,0,0)"  stroke-width="2.0"/>
<text x="149.588541" y="420.488291" fill="rgb(191,191,191)"  stroke="rgb(191,191,191)" stroke-width="1" font-size="16" >H</text>
<text x="127.185458" y="211.570548" fill="rgb(102,102,102)"  stroke="rgb(102,102,102)" stroke-width="1" font-size="16" >H</text>
<text x="139.185458" y="215.250548" fill="rgb(102,102,102)"  stroke="rgb(102,102,102)" stroke-width="1" font-size="13" >3</text>
<text x="145.685458" y="211.570548" fill="rgb(102,102,102)"  stroke="rgb(102,102,102)" stroke-width="1" font-size="16" >C</text>
<text x="185.101531" y="211.570548" fill="rgb(255,12,12)"  stroke="rgb(255,12,12)" stroke-width="1" font-size="16" >O</text>
<text x="138.304236" y="111.079169" fill="rgb(12,12,255)"  stroke="rgb(12,12,255)" stroke-width="1" font-size="16" >N</text>
<text x="162.518060" y="48.000000" fill="rgb(255,12,12)"  stroke="rgb(255,12,12)" stroke-width="1" font-size="16" >O</text>
<text x="255.984052" y="67.866810" fill="rgb(191,191,191)"  stroke="rgb(191,191,191)" stroke-width="1" font-size="16" >H</text>
<text x="316.906193" y="115.047210" fill="rgb(102,102,102)"  stroke="rgb(102,102,102)" stroke-width="1" font-size="16" >CH</text>
<text x="340.906193" y="118.727210" fill="rgb(102,102,102)"  stroke="rgb(102,102,102)" stroke-width="1" font-size="13" >3</text>
<text x="289.535388" y="143.224343" fill="rgb(255,12,12)"  stroke="rgb(255,12,12)" stroke-width="1" font-size="16" >O</text>
<text x="252.447872" y="135.341148" fill="rgb(12,12,255)"  stroke="rgb(12,12,255)" stroke-width="1" font-size="16" >N</text>
<text x="228.234048" y="198.420318" fill="rgb(255,12,12)"  stroke="rgb(255,12,12)" stroke-width="1" font-size="16" >O</text>
<text x="132.100931" y="355.223642" fill="rgb(178,178,0)"  stroke="rgb(178,178,0)" stroke-width="1" font-size="16" >S</text>
<text x="55.551335" y="429.110749" fill="rgb(30,239,30)"  stroke="rgb(30,239,30)" stroke-width="1" font-size="16" >Cl</text>
<text x="22.000000" y="353.753216" fill="rgb(30,239,30)"  stroke="rgb(30,239,30)" stroke-width="1" font-size="16" >Cl</text>
<text x="150.189912" y="213.191564" fill="rgb(178,178,0)"  stroke="rgb(178,178,0)" stroke-width="1" font-size="16" >S</text>
<text x="42.538440" y="235.026188" fill="rgb(30,239,30)"  stroke="rgb(30,239,30)" stroke-width="1" font-size="16" >Cl</text>
<text x="59.688886" y="154.339683" fill="rgb(30,239,30)"  stroke="rgb(30,239,30)" stroke-width="1" font-size="16" >Cl</text>
</svg>
</g>
<text font-size="18.000000" fill ="black" font-family="sans-serif"
x="10.000000" y="20.000000" ></text>
</svg>
