<?xml version="1.0"?>
<svg version="1.1" id="topsvg"
xmlns="http://www.w3.org/2000/svg" xmlns:xlink="http://www.w3.org/1999/xlink"
xmlns:cml="http://www.xml-cml.org/schema" x="0" y="0" width="200px" height="200px" viewBox="0 0 100 100">
<title> - Open Babel Depiction</title>
<rect x="0" y="0" width="100" height="100" fill="white"/>
<g transform="translate(0,0)">
<svg width="100" height="100" x="0" y="0" viewBox="0 0 411.887 266.052"
font-family="sans-serif" stroke="rgb(0,0,0)" stroke-width="2"  stroke-linecap="round">
<line x1="173.2" y1="111.9" x2="212.3" y2="120.2" stroke="rgb(0,0,0)"  stroke-width="2.0"/>
<line x1="228.6" y1="156.8" x2="208.6" y2="191.4" stroke="rgb(0,0,0)"  stroke-width="2.0"/>
<line x1="208.6" y1="191.4" x2="195.1" y2="214.8" stroke="rgb(0,0,0)"  stroke-width="2.0"/>
<line x1="212.3" y1="193.5" x2="198.8" y2="216.9" stroke="rgb(0,0,0)"  stroke-width="2.0"/>
<line x1="205.0" y1="189.3" x2="191.5" y2="212.7" stroke="rgb(0,0,0)"  stroke-width="2.0"/>
<line x1="332.8" y1="145.8" x2="359.2" y2="151.4" stroke="rgb(0,0,0)"  stroke-width="2.0"/>
<line x1="316.5" y1="109.3" x2="336.5" y2="74.6" stroke="rgb(0,0,0)"  stroke-width="2.0"/>
<line x1="336.5" y1="74.6" x2="350.0" y2="51.3" stroke="rgb(0,0,0)"  stroke-width="2.0"/>
<line x1="332.9" y1="72.5" x2="346.4" y2="49.2" stroke="rgb(0,0,0)"  stroke-width="2.0"/>
<line x1="340.1" y1="76.7" x2="353.6" y2="53.4" stroke="rgb(0,0,0)"  stroke-width="2.0"/>
<line x1="137.4" y1="175.8" x2="155.5" y2="195.9" stroke="rgb(0,0,0)"  stroke-width="2.0"/>
<line x1="132.9" y1="179.8" x2="151.0" y2="199.9" stroke="rgb(0,0,0)"  stroke-width="2.0"/>
<line x1="88.9" y1="193.2" x2="81.9" y2="205.4" stroke="rgb(0,0,0)"  stroke-width="2.0"/>
<line x1="79.1" y1="145.4" x2="52.7" y2="139.8" stroke="rgb(0,0,0)"  stroke-width="2.0"/>
<line x1="114.9" y1="81.6" x2="96.9" y2="61.5" stroke="rgb(0,0,0)"  stroke-width="2.0"/>
<line x1="119.4" y1="77.5" x2="101.3" y2="57.5" stroke="rgb(0,0,0)"  stroke-width="2.0"/>
<line x1="163.4" y1="64.1" x2="170.4" y2="52.0" stroke="rgb(0,0,0)"  stroke-width="2.0"/>
<line x1="268.4" y1="152.6" x2="276.7" y2="113.5" stroke="rgb(0,0,0)"  stroke-width="2.0"/>
<line x1="262.6" y1="145.2" x2="268.4" y2="117.8" stroke="rgb(0,0,0)"  stroke-width="2.0"/>
<line x1="276.7" y1="113.5" x2="253.3" y2="100.0" stroke="rgb(0,0,0)"  stroke-width="2.0"/>
<line x1="232.4" y1="102.2" x2="212.3" y2="120.2" stroke="rgb(0,0,0)"  stroke-width="2.0"/>
<line x1="212.3" y1="120.2" x2="228.6" y2="156.8" stroke="rgb(0,0,0)"  stroke-width="2.0"/>
<line x1="221.4" y1="122.8" x2="232.8" y2="148.4" stroke="rgb(0,0,0)"  stroke-width="2.0"/>
<line x1="228.6" y1="156.8" x2="268.4" y2="152.6" stroke="rgb(0,0,0)"  stroke-width="2.0"/>
<line x1="332.8" y1="145.8" x2="316.5" y2="109.3" stroke="rgb(0,0,0)"  stroke-width="2.0"/>
<line x1="323.7" y1="143.3" x2="312.4" y2="117.7" stroke="rgb(0,0,0)"  stroke-width="2.0"/>
<line x1="316.5" y1="109.3" x2="276.7" y2="113.5" stroke="rgb(0,0,0)"  stroke-width="2.0"/>
<line x1="268.4" y1="152.6" x2="291.8" y2="166.1" stroke="rgb(0,0,0)"  stroke-width="2.0"/>
<line x1="312.7" y1="163.9" x2="332.8" y2="145.8" stroke="rgb(0,0,0)"  stroke-width="2.0"/>
<line x1="135.2" y1="177.8" x2="108.3" y2="180.6" stroke="rgb(0,0,0)"  stroke-width="2.0"/>
<line x1="90.1" y1="170.1" x2="79.1" y2="145.4" stroke="rgb(0,0,0)"  stroke-width="2.0"/>
<line x1="79.1" y1="145.4" x2="108.9" y2="118.7" stroke="rgb(0,0,0)"  stroke-width="2.0"/>
<line x1="88.4" y1="146.8" x2="109.2" y2="128.0" stroke="rgb(0,0,0)"  stroke-width="2.0"/>
<line x1="108.9" y1="118.7" x2="143.5" y2="138.7" stroke="rgb(0,0,0)"  stroke-width="2.0"/>
<line x1="143.5" y1="138.7" x2="135.2" y2="177.8" stroke="rgb(0,0,0)"  stroke-width="2.0"/>
<line x1="108.9" y1="118.7" x2="117.2" y2="79.6" stroke="rgb(0,0,0)"  stroke-width="2.0"/>
<line x1="117.2" y1="79.6" x2="144.0" y2="76.7" stroke="rgb(0,0,0)"  stroke-width="2.0"/>
<line x1="162.2" y1="87.2" x2="173.2" y2="111.9" stroke="rgb(0,0,0)"  stroke-width="2.0"/>
<line x1="173.2" y1="111.9" x2="143.5" y2="138.7" stroke="rgb(0,0,0)"  stroke-width="2.0"/>
<line x1="163.9" y1="110.6" x2="143.1" y2="129.3" stroke="rgb(0,0,0)"  stroke-width="2.0"/>
<text x="236.070203" y="101.463171" fill="rgb(178,178,0)"  stroke="rgb(178,178,0)" stroke-width="1" font-size="16" >S</text>
<text x="170.949040" y="48.729093" fill="rgb(191,191,191)"  stroke="rgb(191,191,191)" stroke-width="1" font-size="16" >H</text>
<text x="150.949040" y="83.370109" fill="rgb(12,12,255)"  stroke="rgb(12,12,255)" stroke-width="1" font-size="16" >N</text>
<text x="84.402940" y="57.825455" fill="rgb(255,12,12)"  stroke="rgb(255,12,12)" stroke-width="1" font-size="16" >O</text>
<text x="34.000000" y="145.125908" fill="rgb(191,191,191)"  stroke="rgb(191,191,191)" stroke-width="1" font-size="16" >H</text>
<text x="69.395370" y="224.625210" fill="rgb(191,191,191)"  stroke="rgb(191,191,191)" stroke-width="1" font-size="16" >H</text>
<text x="89.395370" y="189.984194" fill="rgb(12,12,255)"  stroke="rgb(12,12,255)" stroke-width="1" font-size="16" >N</text>
<text x="155.941470" y="215.528849" fill="rgb(255,12,12)"  stroke="rgb(255,12,12)" stroke-width="1" font-size="16" >O</text>
<text x="350.492095" y="48.000000" fill="rgb(12,12,255)"  stroke="rgb(12,12,255)" stroke-width="1" font-size="16" >N</text>
<text x="365.887465" y="162.140318" fill="rgb(191,191,191)"  stroke="rgb(191,191,191)" stroke-width="1" font-size="16" >H</text>
<text x="297.035768" y="180.589075" fill="rgb(178,178,0)"  stroke="rgb(178,178,0)" stroke-width="1" font-size="16" >S</text>
<text x="182.613876" y="234.052246" fill="rgb(12,12,255)"  stroke="rgb(12,12,255)" stroke-width="1" font-size="16" >N</text>
</svg>
</g>
<text font-size="18.000000" fill ="black" font-family="sans-serif"
x="10.000000" y="20.000000" ></text>
</svg>
