<?xml version="1.0"?>
<svg version="1.1" id="topsvg"
xmlns="http://www.w3.org/2000/svg" xmlns:xlink="http://www.w3.org/1999/xlink"
xmlns:cml="http://www.xml-cml.org/schema" x="0" y="0" width="200px" height="200px" viewBox="0 0 100 100">
<title> - Open Babel Depiction</title>
<rect x="0" y="0" width="100" height="100" fill="white"/>
<g transform="translate(0,0)">
<svg width="100" height="100" x="0" y="0" viewBox="0 0 477.454 302.764"
font-family="sans-serif" stroke="rgb(0,0,0)" stroke-width="2"  stroke-linecap="round">
<line x1="312.4" y1="162.8" x2="272.4" y2="162.8" stroke="rgb(0,0,0)"  stroke-width="2.0"/>
<line x1="248.9" y1="195.1" x2="257.2" y2="220.8" stroke="rgb(0,0,0)"  stroke-width="2.0"/>
<line x1="176.2" y1="202.8" x2="176.2" y2="229.8" stroke="rgb(0,0,0)"  stroke-width="2.0"/>
<line x1="164.9" y1="249.3" x2="152.8" y2="256.3" stroke="rgb(0,0,0)"  stroke-width="2.0"/>
<line x1="80.0" y1="162.8" x2="53.0" y2="162.8" stroke="rgb(0,0,0)"  stroke-width="2.0"/>
<line x1="103.5" y1="130.4" x2="95.2" y2="104.7" stroke="rgb(0,0,0)"  stroke-width="2.0"/>
<line x1="176.2" y1="122.8" x2="176.2" y2="95.8" stroke="rgb(0,0,0)"  stroke-width="2.0"/>
<line x1="187.5" y1="76.3" x2="199.6" y2="69.3" stroke="rgb(0,0,0)"  stroke-width="2.0"/>
<line x1="334.1" y1="92.8" x2="312.3" y2="77.0" stroke="rgb(0,0,0)"  stroke-width="2.0"/>
<line x1="337.7" y1="88.0" x2="315.8" y2="72.1" stroke="rgb(0,0,0)"  stroke-width="2.0"/>
<line x1="378.0" y1="65.7" x2="382.3" y2="52.4" stroke="rgb(0,0,0)"  stroke-width="2.0"/>
<line x1="397.5" y1="110.4" x2="424.5" y2="110.4" stroke="rgb(0,0,0)"  stroke-width="2.0"/>
<line x1="375.7" y1="180.3" x2="397.5" y2="196.2" stroke="rgb(0,0,0)"  stroke-width="2.0"/>
<line x1="372.2" y1="185.2" x2="394.0" y2="201.1" stroke="rgb(0,0,0)"  stroke-width="2.0"/>
<line x1="331.9" y1="207.5" x2="327.6" y2="220.8" stroke="rgb(0,0,0)"  stroke-width="2.0"/>
<line x1="210.8" y1="182.8" x2="210.8" y2="142.8" stroke="rgb(0,0,0)"  stroke-width="2.0"/>
<line x1="210.8" y1="142.8" x2="236.5" y2="134.4" stroke="rgb(0,0,0)"  stroke-width="2.0"/>
<line x1="256.5" y1="140.9" x2="272.4" y2="162.8" stroke="rgb(0,0,0)"  stroke-width="2.0"/>
<line x1="272.4" y1="162.8" x2="248.9" y2="195.1" stroke="rgb(0,0,0)"  stroke-width="2.0"/>
<line x1="263.0" y1="163.4" x2="246.6" y2="186.0" stroke="rgb(0,0,0)"  stroke-width="2.0"/>
<line x1="248.9" y1="195.1" x2="210.8" y2="182.8" stroke="rgb(0,0,0)"  stroke-width="2.0"/>
<line x1="80.0" y1="162.8" x2="103.5" y2="130.4" stroke="rgb(0,0,0)"  stroke-width="2.0"/>
<line x1="89.4" y1="162.1" x2="105.8" y2="139.5" stroke="rgb(0,0,0)"  stroke-width="2.0"/>
<line x1="103.5" y1="130.4" x2="141.6" y2="142.8" stroke="rgb(0,0,0)"  stroke-width="2.0"/>
<line x1="141.6" y1="142.8" x2="141.6" y2="182.8" stroke="rgb(0,0,0)"  stroke-width="2.0"/>
<line x1="134.4" y1="148.8" x2="134.4" y2="176.8" stroke="rgb(0,0,0)"  stroke-width="2.0"/>
<line x1="141.6" y1="182.8" x2="115.9" y2="191.1" stroke="rgb(0,0,0)"  stroke-width="2.0"/>
<line x1="95.9" y1="184.6" x2="80.0" y2="162.8" stroke="rgb(0,0,0)"  stroke-width="2.0"/>
<line x1="335.9" y1="90.4" x2="361.6" y2="82.1" stroke="rgb(0,0,0)"  stroke-width="2.0"/>
<line x1="381.6" y1="88.6" x2="397.5" y2="110.4" stroke="rgb(0,0,0)"  stroke-width="2.0"/>
<line x1="397.5" y1="110.4" x2="373.9" y2="142.8" stroke="rgb(0,0,0)"  stroke-width="2.0"/>
<line x1="388.1" y1="111.0" x2="371.6" y2="133.7" stroke="rgb(0,0,0)"  stroke-width="2.0"/>
<line x1="373.9" y1="142.8" x2="335.9" y2="130.4" stroke="rgb(0,0,0)"  stroke-width="2.0"/>
<line x1="335.9" y1="130.4" x2="335.9" y2="90.4" stroke="rgb(0,0,0)"  stroke-width="2.0"/>
<line x1="373.9" y1="142.8" x2="373.9" y2="182.8" stroke="rgb(0,0,0)"  stroke-width="2.0"/>
<line x1="373.9" y1="182.8" x2="348.3" y2="191.1" stroke="rgb(0,0,0)"  stroke-width="2.0"/>
<line x1="328.3" y1="184.6" x2="312.4" y2="162.8" stroke="rgb(0,0,0)"  stroke-width="2.0"/>
<line x1="312.4" y1="162.8" x2="335.9" y2="130.4" stroke="rgb(0,0,0)"  stroke-width="2.0"/>
<line x1="321.7" y1="162.1" x2="338.2" y2="139.5" stroke="rgb(0,0,0)"  stroke-width="2.0"/>
<line x1="141.6" y1="142.8" x2="176.2" y2="122.8" stroke="rgb(0,0,0)"  stroke-width="2.0"/>
<line x1="176.2" y1="122.8" x2="210.8" y2="142.8" stroke="rgb(0,0,0)"  stroke-width="2.0"/>
<line x1="177.8" y1="132.0" x2="202.0" y2="146.0" stroke="rgb(0,0,0)"  stroke-width="2.0"/>
<line x1="210.8" y1="182.8" x2="176.2" y2="202.8" stroke="rgb(0,0,0)"  stroke-width="2.0"/>
<line x1="202.0" y1="179.5" x2="177.8" y2="193.5" stroke="rgb(0,0,0)"  stroke-width="2.0"/>
<line x1="176.2" y1="202.8" x2="141.6" y2="182.8" stroke="rgb(0,0,0)"  stroke-width="2.0"/>
<text x="170.194687" y="90.763620" fill="rgb(255,12,12)"  stroke="rgb(255,12,12)" stroke-width="1" font-size="16" >O</text>
<text x="317.540104" y="241.166561" fill="rgb(191,191,191)"  stroke="rgb(191,191,191)" stroke-width="1" font-size="16" >H</text>
<text x="329.900784" y="203.124300" fill="rgb(12,12,255)"  stroke="rgb(12,12,255)" stroke-width="1" font-size="16" >N</text>
<text x="400.303724" y="214.275030" fill="rgb(255,12,12)"  stroke="rgb(255,12,12)" stroke-width="1" font-size="16" >O</text>
<text x="431.454455" y="118.402940" fill="rgb(191,191,191)"  stroke="rgb(191,191,191)" stroke-width="1" font-size="16" >H</text>
<text x="380.303724" y="48.000000" fill="rgb(191,191,191)"  stroke="rgb(191,191,191)" stroke-width="1" font-size="16" >H</text>
<text x="367.943045" y="86.042261" fill="rgb(12,12,255)"  stroke="rgb(12,12,255)" stroke-width="1" font-size="16" >N</text>
<text x="297.540104" y="74.891530" fill="rgb(255,12,12)"  stroke="rgb(255,12,12)" stroke-width="1" font-size="16" >O</text>
<text x="242.877964" y="138.402940" fill="rgb(178,178,0)"  stroke="rgb(178,178,0)" stroke-width="1" font-size="16" >S</text>
<text x="206.835703" y="70.763620" fill="rgb(102,102,102)"  stroke="rgb(102,102,102)" stroke-width="1" font-size="16" >CH</text>
<text x="230.835703" y="74.443620" fill="rgb(102,102,102)"  stroke="rgb(102,102,102)" stroke-width="1" font-size="13" >3</text>
<text x="73.150730" y="100.360680" fill="rgb(30,239,30)"  stroke="rgb(30,239,30)" stroke-width="1" font-size="16" >Cl</text>
<text x="34.000000" y="170.763620" fill="rgb(191,191,191)"  stroke="rgb(191,191,191)" stroke-width="1" font-size="16" >H</text>
<text x="97.511410" y="203.124300" fill="rgb(178,178,0)"  stroke="rgb(178,178,0)" stroke-width="1" font-size="16" >S</text>
<text x="115.553671" y="270.763620" fill="rgb(102,102,102)"  stroke="rgb(102,102,102)" stroke-width="1" font-size="16" >H</text>
<text x="127.553671" y="274.443620" fill="rgb(102,102,102)"  stroke="rgb(102,102,102)" stroke-width="1" font-size="13" >3</text>
<text x="134.053671" y="270.763620" fill="rgb(102,102,102)"  stroke="rgb(102,102,102)" stroke-width="1" font-size="16" >C</text>
<text x="170.194687" y="250.763620" fill="rgb(255,12,12)"  stroke="rgb(255,12,12)" stroke-width="1" font-size="16" >O</text>
<text x="255.238643" y="241.166561" fill="rgb(30,239,30)"  stroke="rgb(30,239,30)" stroke-width="1" font-size="16" >Cl</text>
</svg>
</g>
<text font-size="18.000000" fill ="black" font-family="sans-serif"
x="10.000000" y="20.000000" ></text>
</svg>
