<?xml version="1.0"?>
<svg version="1.1" id="topsvg"
xmlns="http://www.w3.org/2000/svg" xmlns:xlink="http://www.w3.org/1999/xlink"
xmlns:cml="http://www.xml-cml.org/schema" x="0" y="0" width="200px" height="200px" viewBox="0 0 100 100">
<title> - Open Babel Depiction</title>
<rect x="0" y="0" width="100" height="100" fill="white"/>
<g transform="translate(0,0)">
<svg width="100" height="100" x="0" y="0" viewBox="0 0 651.547 278.418"
font-family="sans-serif" stroke="rgb(0,0,0)" stroke-width="2"  stroke-linecap="round">
<line x1="313.2" y1="118.7" x2="279.1" y2="99.0" stroke="rgb(0,0,0)"  stroke-width="2.0"/>
<line x1="176.9" y1="131.7" x2="176.9" y2="145.7" stroke="rgb(0,0,0)"  stroke-width="2.0"/>
<line x1="74.6" y1="99.0" x2="51.3" y2="112.5" stroke="rgb(0,0,0)"  stroke-width="2.0"/>
<line x1="424.0" y1="187.9" x2="443.6" y2="205.6" stroke="rgb(0,0,0)"  stroke-width="2.0"/>
<line x1="420.0" y1="192.4" x2="439.6" y2="210.0" stroke="rgb(0,0,0)"  stroke-width="2.0"/>
<line x1="378.2" y1="210.2" x2="372.8" y2="222.4" stroke="rgb(0,0,0)"  stroke-width="2.0"/>
<line x1="354.6" y1="235.7" x2="341.3" y2="237.1" stroke="rgb(0,0,0)"  stroke-width="2.0"/>
<line x1="424.6" y1="148.5" x2="458.7" y2="128.8" stroke="rgb(0,0,0)"  stroke-width="2.0"/>
<line x1="427.6" y1="153.7" x2="461.7" y2="134.0" stroke="rgb(0,0,0)"  stroke-width="2.0"/>
<line x1="462.3" y1="94.5" x2="442.7" y2="76.9" stroke="rgb(0,0,0)"  stroke-width="2.0"/>
<line x1="466.3" y1="90.0" x2="446.7" y2="72.4" stroke="rgb(0,0,0)"  stroke-width="2.0"/>
<line x1="508.0" y1="72.2" x2="513.5" y2="60.0" stroke="rgb(0,0,0)"  stroke-width="2.0"/>
<line x1="531.7" y1="46.8" x2="544.9" y2="45.4" stroke="rgb(0,0,0)"  stroke-width="2.0"/>
<line x1="573.1" y1="163.7" x2="598.8" y2="169.2" stroke="rgb(0,0,0)"  stroke-width="2.0"/>
<line x1="142.8" y1="99.0" x2="142.8" y2="59.7" stroke="rgb(0,0,0)"  stroke-width="2.0"/>
<line x1="142.8" y1="59.7" x2="211.0" y2="59.7" stroke="rgb(0,0,0)"  stroke-width="2.0"/>
<line x1="211.0" y1="59.7" x2="211.0" y2="99.0" stroke="rgb(0,0,0)"  stroke-width="2.0"/>
<line x1="203.8" y1="65.7" x2="203.8" y2="93.0" stroke="rgb(0,0,0)"  stroke-width="2.0"/>
<line x1="211.0" y1="99.0" x2="188.1" y2="112.2" stroke="rgb(0,0,0)"  stroke-width="2.0"/>
<line x1="165.6" y1="112.2" x2="142.8" y2="99.0" stroke="rgb(0,0,0)"  stroke-width="2.0"/>
<line x1="211.0" y1="59.7" x2="245.0" y2="40.0" stroke="rgb(0,0,0)"  stroke-width="2.0"/>
<line x1="245.0" y1="40.0" x2="279.1" y2="59.7" stroke="rgb(0,0,0)"  stroke-width="2.0"/>
<line x1="246.6" y1="49.2" x2="270.3" y2="62.9" stroke="rgb(0,0,0)"  stroke-width="2.0"/>
<line x1="279.1" y1="59.7" x2="279.1" y2="99.0" stroke="rgb(0,0,0)"  stroke-width="2.0"/>
<line x1="279.1" y1="99.0" x2="245.0" y2="118.7" stroke="rgb(0,0,0)"  stroke-width="2.0"/>
<line x1="270.3" y1="95.8" x2="246.6" y2="109.5" stroke="rgb(0,0,0)"  stroke-width="2.0"/>
<line x1="245.0" y1="118.7" x2="211.0" y2="99.0" stroke="rgb(0,0,0)"  stroke-width="2.0"/>
<line x1="108.7" y1="118.7" x2="142.8" y2="99.0" stroke="rgb(0,0,0)"  stroke-width="2.0"/>
<line x1="110.3" y1="109.5" x2="134.0" y2="95.8" stroke="rgb(0,0,0)"  stroke-width="2.0"/>
<line x1="142.8" y1="59.7" x2="108.7" y2="40.0" stroke="rgb(0,0,0)"  stroke-width="2.0"/>
<line x1="134.0" y1="62.9" x2="110.3" y2="49.2" stroke="rgb(0,0,0)"  stroke-width="2.0"/>
<line x1="108.7" y1="40.0" x2="74.6" y2="59.7" stroke="rgb(0,0,0)"  stroke-width="2.0"/>
<line x1="74.6" y1="59.7" x2="74.6" y2="99.0" stroke="rgb(0,0,0)"  stroke-width="2.0"/>
<line x1="81.8" y1="65.7" x2="81.8" y2="93.0" stroke="rgb(0,0,0)"  stroke-width="2.0"/>
<line x1="74.6" y1="99.0" x2="108.7" y2="118.7" stroke="rgb(0,0,0)"  stroke-width="2.0"/>
<line x1="378.0" y1="97.6" x2="390.2" y2="135.1" stroke="rgb(0,0,0)"  stroke-width="2.0"/>
<line x1="373.0" y1="105.6" x2="381.4" y2="131.6" stroke="rgb(0,0,0)"  stroke-width="2.0"/>
<line x1="390.2" y1="135.1" x2="363.8" y2="164.3" stroke="rgb(0,0,0)"  stroke-width="2.0"/>
<line x1="363.8" y1="164.3" x2="325.3" y2="156.1" stroke="rgb(0,0,0)"  stroke-width="2.0"/>
<line x1="359.5" y1="156.0" x2="332.7" y2="150.3" stroke="rgb(0,0,0)"  stroke-width="2.0"/>
<line x1="325.3" y1="156.1" x2="313.2" y2="118.7" stroke="rgb(0,0,0)"  stroke-width="2.0"/>
<line x1="313.2" y1="118.7" x2="339.5" y2="89.5" stroke="rgb(0,0,0)"  stroke-width="2.0"/>
<line x1="322.6" y1="119.1" x2="340.8" y2="98.7" stroke="rgb(0,0,0)"  stroke-width="2.0"/>
<line x1="339.5" y1="89.5" x2="378.0" y2="97.6" stroke="rgb(0,0,0)"  stroke-width="2.0"/>
<line x1="546.7" y1="193.0" x2="508.3" y2="184.8" stroke="rgb(0,0,0)"  stroke-width="2.0"/>
<line x1="508.3" y1="184.8" x2="496.1" y2="147.4" stroke="rgb(0,0,0)"  stroke-width="2.0"/>
<line x1="513.3" y1="176.9" x2="504.8" y2="150.9" stroke="rgb(0,0,0)"  stroke-width="2.0"/>
<line x1="496.1" y1="147.4" x2="522.4" y2="118.1" stroke="rgb(0,0,0)"  stroke-width="2.0"/>
<line x1="522.4" y1="118.1" x2="560.9" y2="126.3" stroke="rgb(0,0,0)"  stroke-width="2.0"/>
<line x1="526.8" y1="126.4" x2="553.5" y2="132.1" stroke="rgb(0,0,0)"  stroke-width="2.0"/>
<line x1="560.9" y1="126.3" x2="573.1" y2="163.7" stroke="rgb(0,0,0)"  stroke-width="2.0"/>
<line x1="573.1" y1="163.7" x2="546.7" y2="193.0" stroke="rgb(0,0,0)"  stroke-width="2.0"/>
<line x1="563.7" y1="163.4" x2="545.4" y2="183.7" stroke="rgb(0,0,0)"  stroke-width="2.0"/>
<line x1="422.0" y1="190.2" x2="396.2" y2="195.7" stroke="rgb(0,0,0)"  stroke-width="2.0"/>
<line x1="377.0" y1="187.1" x2="363.8" y2="164.3" stroke="rgb(0,0,0)"  stroke-width="2.0"/>
<line x1="390.2" y1="135.1" x2="426.1" y2="151.1" stroke="rgb(0,0,0)"  stroke-width="2.0"/>
<line x1="426.1" y1="151.1" x2="422.0" y2="190.2" stroke="rgb(0,0,0)"  stroke-width="2.0"/>
<line x1="509.3" y1="95.3" x2="522.4" y2="118.1" stroke="rgb(0,0,0)"  stroke-width="2.0"/>
<line x1="496.1" y1="147.4" x2="460.2" y2="131.4" stroke="rgb(0,0,0)"  stroke-width="2.0"/>
<line x1="460.2" y1="131.4" x2="464.3" y2="92.3" stroke="rgb(0,0,0)"  stroke-width="2.0"/>
<line x1="464.3" y1="92.3" x2="490.0" y2="86.8" stroke="rgb(0,0,0)"  stroke-width="2.0"/>
<text x="496.749587" y="92.070951" fill="rgb(12,12,255)"  stroke="rgb(12,12,255)" stroke-width="1" font-size="16" >N</text>
<text x="445.221802" y="224.500181" fill="rgb(255,12,12)"  stroke="rgb(255,12,12)" stroke-width="1" font-size="16" >O</text>
<text x="377.503117" y="206.361603" fill="rgb(12,12,255)"  stroke="rgb(12,12,255)" stroke-width="1" font-size="16" >N</text>
<text x="361.505032" y="242.302674" fill="rgb(255,12,12)"  stroke="rgb(255,12,12)" stroke-width="1" font-size="16" >O</text>
<text x="302.380109" y="246.418460" fill="rgb(102,102,102)"  stroke="rgb(102,102,102)" stroke-width="1" font-size="16" >H</text>
<text x="314.380109" y="250.098460" fill="rgb(102,102,102)"  stroke="rgb(102,102,102)" stroke-width="1" font-size="13" >3</text>
<text x="320.880109" y="246.418460" fill="rgb(102,102,102)"  stroke="rgb(102,102,102)" stroke-width="1" font-size="16" >C</text>
<text x="429.030903" y="73.932374" fill="rgb(255,12,12)"  stroke="rgb(255,12,12)" stroke-width="1" font-size="16" >O</text>
<text x="512.747673" y="56.129881" fill="rgb(255,12,12)"  stroke="rgb(255,12,12)" stroke-width="1" font-size="16" >O</text>
<text x="553.872596" y="52.014094" fill="rgb(102,102,102)"  stroke="rgb(102,102,102)" stroke-width="1" font-size="16" >CH</text>
<text x="577.872596" y="55.694094" fill="rgb(102,102,102)"  stroke="rgb(102,102,102)" stroke-width="1" font-size="13" >3</text>
<text x="605.547182" y="179.905376" fill="rgb(191,191,191)"  stroke="rgb(191,191,191)" stroke-width="1" font-size="16" >H</text>
<text x="170.889350" y="126.714442" fill="rgb(12,12,255)"  stroke="rgb(12,12,255)" stroke-width="1" font-size="16" >N</text>
<text x="170.896967" y="166.714441" fill="rgb(191,191,191)"  stroke="rgb(191,191,191)" stroke-width="1" font-size="16" >H</text>
<text x="34.000000" y="127.049212" fill="rgb(191,191,191)"  stroke="rgb(191,191,191)" stroke-width="1" font-size="16" >H</text>
</svg>
</g>
<text font-size="18.000000" fill ="black" font-family="sans-serif"
x="10.000000" y="20.000000" ></text>
</svg>
