<?xml version="1.0"?>
<svg version="1.1" id="topsvg"
xmlns="http://www.w3.org/2000/svg" xmlns:xlink="http://www.w3.org/1999/xlink"
xmlns:cml="http://www.xml-cml.org/schema" x="0" y="0" width="200px" height="200px" viewBox="0 0 100 100">
<title> - Open Babel Depiction</title>
<rect x="0" y="0" width="100" height="100" fill="white"/>
<g transform="translate(0,0)">
<svg width="100" height="100" x="0" y="0" viewBox="0 0 410.76 518.005"
font-family="sans-serif" stroke="rgb(0,0,0)" stroke-width="2"  stroke-linecap="round">
<line x1="183.2" y1="210.7" x2="162.3" y2="246.8" stroke="rgb(0,0,0)"  stroke-width="2.0"/>
<line x1="120.9" y1="251.1" x2="93.0" y2="220.1" stroke="rgb(0,0,0)"  stroke-width="2.0"/>
<line x1="93.0" y1="220.1" x2="73.8" y2="198.8" stroke="rgb(0,0,0)"  stroke-width="2.0"/>
<line x1="89.9" y1="223.0" x2="70.7" y2="201.6" stroke="rgb(0,0,0)"  stroke-width="2.0"/>
<line x1="96.1" y1="217.3" x2="76.9" y2="196.0" stroke="rgb(0,0,0)"  stroke-width="2.0"/>
<line x1="76.1" y1="312.7" x2="51.3" y2="298.4" stroke="rgb(0,0,0)"  stroke-width="2.0"/>
<line x1="62.1" y1="420.4" x2="47.7" y2="445.2" stroke="rgb(0,0,0)"  stroke-width="2.0"/>
<line x1="103.5" y1="416.0" x2="131.4" y2="447.0" stroke="rgb(0,0,0)"  stroke-width="2.0"/>
<line x1="131.4" y1="447.0" x2="150.6" y2="468.3" stroke="rgb(0,0,0)"  stroke-width="2.0"/>
<line x1="134.6" y1="444.2" x2="153.7" y2="465.5" stroke="rgb(0,0,0)"  stroke-width="2.0"/>
<line x1="128.3" y1="449.8" x2="147.5" y2="471.2" stroke="rgb(0,0,0)"  stroke-width="2.0"/>
<line x1="148.3" y1="354.4" x2="173.1" y2="368.8" stroke="rgb(0,0,0)"  stroke-width="2.0"/>
<line x1="290.0" y1="173.1" x2="304.3" y2="197.9" stroke="rgb(0,0,0)"  stroke-width="2.0"/>
<line x1="284.8" y1="176.1" x2="299.1" y2="200.9" stroke="rgb(0,0,0)"  stroke-width="2.0"/>
<line x1="321.2" y1="138.5" x2="336.9" y2="138.5" stroke="rgb(0,0,0)"  stroke-width="2.0"/>
<line x1="356.4" y1="127.2" x2="364.3" y2="113.6" stroke="rgb(0,0,0)"  stroke-width="2.0"/>
<line x1="284.8" y1="100.9" x2="299.1" y2="76.0" stroke="rgb(0,0,0)"  stroke-width="2.0"/>
<line x1="290.0" y1="103.9" x2="304.3" y2="79.0" stroke="rgb(0,0,0)"  stroke-width="2.0"/>
<line x1="223.8" y1="78.8" x2="234.3" y2="52.1" stroke="rgb(0,0,0)"  stroke-width="2.0"/>
<line x1="141.0" y1="110.9" x2="127.1" y2="85.8" stroke="rgb(0,0,0)"  stroke-width="2.0"/>
<line x1="146.2" y1="108.0" x2="132.3" y2="82.9" stroke="rgb(0,0,0)"  stroke-width="2.0"/>
<line x1="113.3" y1="131.8" x2="97.8" y2="129.2" stroke="rgb(0,0,0)"  stroke-width="2.0"/>
<line x1="80.5" y1="114.8" x2="75.1" y2="100.1" stroke="rgb(0,0,0)"  stroke-width="2.0"/>
<line x1="136.5" y1="165.3" x2="115.1" y2="184.4" stroke="rgb(0,0,0)"  stroke-width="2.0"/>
<line x1="132.5" y1="160.8" x2="111.1" y2="179.9" stroke="rgb(0,0,0)"  stroke-width="2.0"/>
<line x1="112.2" y1="291.9" x2="148.3" y2="312.7" stroke="rgb(0,0,0)"  stroke-width="2.0"/>
<line x1="148.3" y1="312.7" x2="169.6" y2="293.5" stroke="rgb(0,0,0)"  stroke-width="2.0"/>
<line x1="174.0" y1="273.0" x2="162.3" y2="246.8" stroke="rgb(0,0,0)"  stroke-width="2.0"/>
<line x1="162.3" y1="246.8" x2="120.9" y2="251.1" stroke="rgb(0,0,0)"  stroke-width="2.0"/>
<line x1="157.1" y1="254.6" x2="127.6" y2="257.7" stroke="rgb(0,0,0)"  stroke-width="2.0"/>
<line x1="120.9" y1="251.1" x2="112.2" y2="291.9" stroke="rgb(0,0,0)"  stroke-width="2.0"/>
<line x1="62.1" y1="420.4" x2="103.5" y2="416.0" stroke="rgb(0,0,0)"  stroke-width="2.0"/>
<line x1="67.3" y1="412.6" x2="96.8" y2="409.5" stroke="rgb(0,0,0)"  stroke-width="2.0"/>
<line x1="103.5" y1="416.0" x2="112.2" y2="375.3" stroke="rgb(0,0,0)"  stroke-width="2.0"/>
<line x1="112.2" y1="375.3" x2="76.1" y2="354.4" stroke="rgb(0,0,0)"  stroke-width="2.0"/>
<line x1="103.4" y1="378.5" x2="77.7" y2="363.7" stroke="rgb(0,0,0)"  stroke-width="2.0"/>
<line x1="76.1" y1="354.4" x2="54.8" y2="373.6" stroke="rgb(0,0,0)"  stroke-width="2.0"/>
<line x1="50.4" y1="394.2" x2="62.1" y2="420.4" stroke="rgb(0,0,0)"  stroke-width="2.0"/>
<line x1="112.2" y1="375.3" x2="148.3" y2="354.4" stroke="rgb(0,0,0)"  stroke-width="2.0"/>
<line x1="148.3" y1="354.4" x2="148.3" y2="312.7" stroke="rgb(0,0,0)"  stroke-width="2.0"/>
<line x1="141.1" y1="348.4" x2="141.1" y2="318.7" stroke="rgb(0,0,0)"  stroke-width="2.0"/>
<line x1="112.2" y1="291.9" x2="76.1" y2="312.7" stroke="rgb(0,0,0)"  stroke-width="2.0"/>
<line x1="110.6" y1="301.1" x2="84.9" y2="316.0" stroke="rgb(0,0,0)"  stroke-width="2.0"/>
<line x1="76.1" y1="312.7" x2="76.1" y2="354.4" stroke="rgb(0,0,0)"  stroke-width="2.0"/>
<line x1="245.7" y1="174.6" x2="224.9" y2="138.5" stroke="rgb(0,0,0)"  stroke-width="2.0"/>
<line x1="236.5" y1="173.0" x2="221.6" y2="147.3" stroke="rgb(0,0,0)"  stroke-width="2.0"/>
<line x1="224.9" y1="138.5" x2="183.2" y2="138.5" stroke="rgb(0,0,0)"  stroke-width="2.0"/>
<line x1="183.2" y1="138.5" x2="162.3" y2="174.6" stroke="rgb(0,0,0)"  stroke-width="2.0"/>
<line x1="186.4" y1="147.3" x2="171.6" y2="173.0" stroke="rgb(0,0,0)"  stroke-width="2.0"/>
<line x1="162.3" y1="174.6" x2="183.2" y2="210.7" stroke="rgb(0,0,0)"  stroke-width="2.0"/>
<line x1="183.2" y1="210.7" x2="224.9" y2="210.7" stroke="rgb(0,0,0)"  stroke-width="2.0"/>
<line x1="189.2" y1="203.5" x2="218.9" y2="203.5" stroke="rgb(0,0,0)"  stroke-width="2.0"/>
<line x1="224.9" y1="210.7" x2="245.7" y2="174.6" stroke="rgb(0,0,0)"  stroke-width="2.0"/>
<line x1="287.4" y1="102.4" x2="245.7" y2="102.4" stroke="rgb(0,0,0)"  stroke-width="2.0"/>
<line x1="245.7" y1="102.4" x2="224.9" y2="138.5" stroke="rgb(0,0,0)"  stroke-width="2.0"/>
<line x1="245.7" y1="174.6" x2="287.4" y2="174.6" stroke="rgb(0,0,0)"  stroke-width="2.0"/>
<line x1="287.4" y1="174.6" x2="301.7" y2="149.7" stroke="rgb(0,0,0)"  stroke-width="2.0"/>
<line x1="301.7" y1="127.2" x2="287.4" y2="102.4" stroke="rgb(0,0,0)"  stroke-width="2.0"/>
<line x1="191.8" y1="81.2" x2="173.7" y2="107.8" stroke="rgb(0,0,0)"  stroke-width="2.0"/>
<line x1="194.4" y1="90.2" x2="183.0" y2="106.9" stroke="rgb(0,0,0)"  stroke-width="2.0"/>
<line x1="173.7" y1="107.8" x2="183.2" y2="138.5" stroke="rgb(0,0,0)"  stroke-width="2.0"/>
<line x1="245.7" y1="102.4" x2="223.8" y2="78.8" stroke="rgb(0,0,0)"  stroke-width="2.0"/>
<line x1="236.3" y1="102.9" x2="222.6" y2="88.1" stroke="rgb(0,0,0)"  stroke-width="2.0"/>
<line x1="223.8" y1="78.8" x2="191.8" y2="81.2" stroke="rgb(0,0,0)"  stroke-width="2.0"/>
<line x1="129.7" y1="146.5" x2="134.5" y2="163.0" stroke="rgb(0,0,0)"  stroke-width="2.0"/>
<line x1="134.5" y1="163.0" x2="162.3" y2="174.6" stroke="rgb(0,0,0)"  stroke-width="2.0"/>
<line x1="173.7" y1="107.8" x2="143.6" y2="109.4" stroke="rgb(0,0,0)"  stroke-width="2.0"/>
<line x1="143.6" y1="109.4" x2="133.7" y2="123.4" stroke="rgb(0,0,0)"  stroke-width="2.0"/>
<text x="302.230380" y="218.664556" fill="rgb(255,12,12)"  stroke="rgb(255,12,12)" stroke-width="1" font-size="16" >O</text>
<text x="302.230380" y="146.461622" fill="rgb(12,12,255)"  stroke="rgb(12,12,255)" stroke-width="1" font-size="16" >N</text>
<text x="343.916763" y="146.461622" fill="rgb(255,12,12)"  stroke="rgb(255,12,12)" stroke-width="1" font-size="16" >O</text>
<text x="366.759954" y="110.360156" fill="rgb(102,102,102)"  stroke="rgb(102,102,102)" stroke-width="1" font-size="16" >CH</text>
<text x="390.759954" y="114.040156" fill="rgb(102,102,102)"  stroke="rgb(102,102,102)" stroke-width="1" font-size="13" >3</text>
<text x="302.230380" y="74.258689" fill="rgb(255,12,12)"  stroke="rgb(255,12,12)" stroke-width="1" font-size="16" >O</text>
<text x="233.074338" y="48.000000" fill="rgb(191,191,191)"  stroke="rgb(191,191,191)" stroke-width="1" font-size="16" >H</text>
<text x="117.433565" y="80.946896" fill="rgb(255,12,12)"  stroke="rgb(255,12,12)" stroke-width="1" font-size="16" >O</text>
<text x="120.127113" y="142.029641" fill="rgb(12,12,255)"  stroke="rgb(12,12,255)" stroke-width="1" font-size="16" >N</text>
<text x="79.031824" y="135.034521" fill="rgb(255,12,12)"  stroke="rgb(255,12,12)" stroke-width="1" font-size="16" >O</text>
<text x="44.542131" y="95.947397" fill="rgb(102,102,102)"  stroke="rgb(102,102,102)" stroke-width="1" font-size="16" >H</text>
<text x="56.542131" y="99.627397" fill="rgb(102,102,102)"  stroke="rgb(102,102,102)" stroke-width="1" font-size="13" >3</text>
<text x="63.042131" y="95.947397" fill="rgb(102,102,102)"  stroke="rgb(102,102,102)" stroke-width="1" font-size="16" >C</text>
<text x="97.376138" y="198.781294" fill="rgb(255,12,12)"  stroke="rgb(255,12,12)" stroke-width="1" font-size="16" >O</text>
<text x="35.234635" y="464.505952" fill="rgb(191,191,191)"  stroke="rgb(191,191,191)" stroke-width="1" font-size="16" >H</text>
<text x="59.082750" y="197.165396" fill="rgb(12,12,255)"  stroke="rgb(12,12,255)" stroke-width="1" font-size="16" >N</text>
<text x="14.000000" y="299.898871" fill="rgb(102,102,102)"  stroke="rgb(102,102,102)" stroke-width="1" font-size="16" >H</text>
<text x="26.000000" y="303.578871" fill="rgb(102,102,102)"  stroke="rgb(102,102,102)" stroke-width="1" font-size="13" >3</text>
<text x="32.500000" y="299.898871" fill="rgb(102,102,102)"  stroke="rgb(102,102,102)" stroke-width="1" font-size="16" >C</text>
<text x="39.122447" y="390.322080" fill="rgb(178,178,0)"  stroke="rgb(178,178,0)" stroke-width="1" font-size="16" >S</text>
<text x="153.323116" y="486.005112" fill="rgb(12,12,255)"  stroke="rgb(12,12,255)" stroke-width="1" font-size="16" >N</text>
<text x="180.405866" y="383.271637" fill="rgb(102,102,102)"  stroke="rgb(102,102,102)" stroke-width="1" font-size="16" >CH</text>
<text x="204.405866" y="386.951637" fill="rgb(102,102,102)"  stroke="rgb(102,102,102)" stroke-width="1" font-size="13" >3</text>
<text x="173.283419" y="292.848428" fill="rgb(178,178,0)"  stroke="rgb(178,178,0)" stroke-width="1" font-size="16" >S</text>
</svg>
</g>
<text font-size="18.000000" fill ="black" font-family="sans-serif"
x="10.000000" y="20.000000" ></text>
</svg>
