<?xml version="1.0"?>
<svg version="1.1" id="topsvg"
xmlns="http://www.w3.org/2000/svg" xmlns:xlink="http://www.w3.org/1999/xlink"
xmlns:cml="http://www.xml-cml.org/schema" x="0" y="0" width="200px" height="200px" viewBox="0 0 100 100">
<title> - Open Babel Depiction</title>
<rect x="0" y="0" width="100" height="100" fill="white"/>
<g transform="translate(0,0)">
<svg width="100" height="100" x="0" y="0" viewBox="0 0 505.519 473.155"
font-family="sans-serif" stroke="rgb(0,0,0)" stroke-width="2"  stroke-linecap="round">
<line x1="218.1" y1="256.2" x2="257.7" y2="269.1" stroke="rgb(0,0,0)"  stroke-width="2.0"/>
<line x1="316.3" y1="371.9" x2="302.0" y2="396.6" stroke="rgb(0,0,0)"  stroke-width="2.0"/>
<line x1="304.6" y1="395.1" x2="318.9" y2="419.9" stroke="rgb(0,0,0)"  stroke-width="2.0"/>
<line x1="299.4" y1="398.1" x2="313.7" y2="422.9" stroke="rgb(0,0,0)"  stroke-width="2.0"/>
<line x1="302.0" y1="396.6" x2="273.4" y2="396.6" stroke="rgb(0,0,0)"  stroke-width="2.0"/>
<line x1="253.9" y1="385.4" x2="246.1" y2="371.9" stroke="rgb(0,0,0)"  stroke-width="2.0"/>
<line x1="434.6" y1="371.2" x2="455.9" y2="390.4" stroke="rgb(0,0,0)"  stroke-width="2.0"/>
<line x1="159.3" y1="159.8" x2="180.5" y2="140.7" stroke="rgb(0,0,0)"  stroke-width="2.0"/>
<line x1="163.3" y1="164.3" x2="184.5" y2="145.1" stroke="rgb(0,0,0)"  stroke-width="2.0"/>
<line x1="119.0" y1="136.5" x2="113.1" y2="108.5" stroke="rgb(0,0,0)"  stroke-width="2.0"/>
<line x1="112.2" y1="111.4" x2="85.0" y2="102.5" stroke="rgb(0,0,0)"  stroke-width="2.0"/>
<line x1="114.0" y1="105.7" x2="86.8" y2="96.8" stroke="rgb(0,0,0)"  stroke-width="2.0"/>
<line x1="113.1" y1="108.5" x2="134.3" y2="89.4" stroke="rgb(0,0,0)"  stroke-width="2.0"/>
<line x1="141.3" y1="68.0" x2="138.1" y2="52.7" stroke="rgb(0,0,0)"  stroke-width="2.0"/>
<line x1="89.9" y1="179.9" x2="62.7" y2="171.0" stroke="rgb(0,0,0)"  stroke-width="2.0"/>
<line x1="91.8" y1="174.2" x2="64.6" y2="165.3" stroke="rgb(0,0,0)"  stroke-width="2.0"/>
<line x1="81.0" y1="243.9" x2="52.8" y2="239.2" stroke="rgb(0,0,0)"  stroke-width="2.0"/>
<line x1="129.5" y1="318.1" x2="107.9" y2="336.9" stroke="rgb(0,0,0)"  stroke-width="2.0"/>
<line x1="125.6" y1="313.6" x2="104.0" y2="332.3" stroke="rgb(0,0,0)"  stroke-width="2.0"/>
<line x1="155.7" y1="340.8" x2="156.9" y2="369.4" stroke="rgb(0,0,0)"  stroke-width="2.0"/>
<line x1="158.3" y1="366.7" x2="183.6" y2="380.0" stroke="rgb(0,0,0)"  stroke-width="2.0"/>
<line x1="155.5" y1="372.0" x2="180.8" y2="385.3" stroke="rgb(0,0,0)"  stroke-width="2.0"/>
<line x1="156.9" y1="369.4" x2="132.7" y2="384.6" stroke="rgb(0,0,0)"  stroke-width="2.0"/>
<line x1="122.3" y1="404.6" x2="122.9" y2="420.2" stroke="rgb(0,0,0)"  stroke-width="2.0"/>
<line x1="183.5" y1="311.2" x2="206.6" y2="328.1" stroke="rgb(0,0,0)"  stroke-width="2.0"/>
<line x1="180.0" y1="316.1" x2="203.0" y2="333.0" stroke="rgb(0,0,0)"  stroke-width="2.0"/>
<line x1="364.2" y1="356.3" x2="372.8" y2="315.6" stroke="rgb(0,0,0)"  stroke-width="2.0"/>
<line x1="372.8" y1="315.6" x2="336.8" y2="294.8" stroke="rgb(0,0,0)"  stroke-width="2.0"/>
<line x1="336.8" y1="294.8" x2="305.9" y2="322.6" stroke="rgb(0,0,0)"  stroke-width="2.0"/>
<line x1="337.1" y1="304.2" x2="315.2" y2="324.0" stroke="rgb(0,0,0)"  stroke-width="2.0"/>
<line x1="305.9" y1="322.6" x2="317.5" y2="348.7" stroke="rgb(0,0,0)"  stroke-width="2.0"/>
<line x1="335.7" y1="359.3" x2="364.2" y2="356.3" stroke="rgb(0,0,0)"  stroke-width="2.0"/>
<line x1="336.8" y1="294.8" x2="328.1" y2="254.1" stroke="rgb(0,0,0)"  stroke-width="2.0"/>
<line x1="328.1" y1="254.1" x2="288.6" y2="241.3" stroke="rgb(0,0,0)"  stroke-width="2.0"/>
<line x1="320.2" y1="259.1" x2="292.1" y2="250.0" stroke="rgb(0,0,0)"  stroke-width="2.0"/>
<line x1="288.6" y1="241.3" x2="257.7" y2="269.1" stroke="rgb(0,0,0)"  stroke-width="2.0"/>
<line x1="257.7" y1="269.1" x2="266.3" y2="309.8" stroke="rgb(0,0,0)"  stroke-width="2.0"/>
<line x1="266.0" y1="273.5" x2="272.1" y2="302.4" stroke="rgb(0,0,0)"  stroke-width="2.0"/>
<line x1="266.3" y1="309.8" x2="305.9" y2="322.6" stroke="rgb(0,0,0)"  stroke-width="2.0"/>
<line x1="395.1" y1="384.1" x2="364.2" y2="356.3" stroke="rgb(0,0,0)"  stroke-width="2.0"/>
<line x1="395.4" y1="374.7" x2="373.4" y2="354.9" stroke="rgb(0,0,0)"  stroke-width="2.0"/>
<line x1="372.8" y1="315.6" x2="412.4" y2="302.7" stroke="rgb(0,0,0)"  stroke-width="2.0"/>
<line x1="380.7" y1="320.6" x2="408.9" y2="311.4" stroke="rgb(0,0,0)"  stroke-width="2.0"/>
<line x1="412.4" y1="302.7" x2="443.3" y2="330.6" stroke="rgb(0,0,0)"  stroke-width="2.0"/>
<line x1="443.3" y1="330.6" x2="434.6" y2="371.2" stroke="rgb(0,0,0)"  stroke-width="2.0"/>
<line x1="435.0" y1="334.9" x2="428.8" y2="363.9" stroke="rgb(0,0,0)"  stroke-width="2.0"/>
<line x1="434.6" y1="371.2" x2="395.1" y2="384.1" stroke="rgb(0,0,0)"  stroke-width="2.0"/>
<line x1="169.9" y1="202.7" x2="139.0" y2="230.5" stroke="rgb(0,0,0)"  stroke-width="2.0"/>
<line x1="170.3" y1="212.1" x2="148.3" y2="231.9" stroke="rgb(0,0,0)"  stroke-width="2.0"/>
<line x1="139.0" y1="230.5" x2="147.7" y2="271.2" stroke="rgb(0,0,0)"  stroke-width="2.0"/>
<line x1="147.7" y1="271.2" x2="187.2" y2="284.1" stroke="rgb(0,0,0)"  stroke-width="2.0"/>
<line x1="155.6" y1="266.2" x2="183.7" y2="275.4" stroke="rgb(0,0,0)"  stroke-width="2.0"/>
<line x1="187.2" y1="284.1" x2="218.1" y2="256.2" stroke="rgb(0,0,0)"  stroke-width="2.0"/>
<line x1="218.1" y1="256.2" x2="209.5" y2="215.6" stroke="rgb(0,0,0)"  stroke-width="2.0"/>
<line x1="209.8" y1="251.9" x2="203.7" y2="222.9" stroke="rgb(0,0,0)"  stroke-width="2.0"/>
<line x1="209.5" y1="215.6" x2="169.9" y2="202.7" stroke="rgb(0,0,0)"  stroke-width="2.0"/>
<line x1="90.8" y1="177.0" x2="99.5" y2="217.7" stroke="rgb(0,0,0)"  stroke-width="2.0"/>
<line x1="99.5" y1="217.7" x2="139.0" y2="230.5" stroke="rgb(0,0,0)"  stroke-width="2.0"/>
<line x1="169.9" y1="202.7" x2="161.3" y2="162.0" stroke="rgb(0,0,0)"  stroke-width="2.0"/>
<line x1="161.3" y1="162.0" x2="134.1" y2="153.2" stroke="rgb(0,0,0)"  stroke-width="2.0"/>
<line x1="112.1" y1="157.9" x2="90.8" y2="177.0" stroke="rgb(0,0,0)"  stroke-width="2.0"/>
<line x1="90.0" y1="274.7" x2="119.7" y2="286.8" stroke="rgb(0,0,0)"  stroke-width="2.0"/>
<line x1="98.3" y1="270.3" x2="116.9" y2="277.9" stroke="rgb(0,0,0)"  stroke-width="2.0"/>
<line x1="119.7" y1="286.8" x2="147.7" y2="271.2" stroke="rgb(0,0,0)"  stroke-width="2.0"/>
<line x1="99.5" y1="217.7" x2="81.0" y2="243.9" stroke="rgb(0,0,0)"  stroke-width="2.0"/>
<line x1="101.9" y1="226.7" x2="90.4" y2="243.1" stroke="rgb(0,0,0)"  stroke-width="2.0"/>
<line x1="81.0" y1="243.9" x2="90.0" y2="274.7" stroke="rgb(0,0,0)"  stroke-width="2.0"/>
<line x1="166.7" y1="321.7" x2="181.7" y2="313.7" stroke="rgb(0,0,0)"  stroke-width="2.0"/>
<line x1="181.7" y1="313.7" x2="187.2" y2="284.1" stroke="rgb(0,0,0)"  stroke-width="2.0"/>
<line x1="119.7" y1="286.8" x2="127.6" y2="315.9" stroke="rgb(0,0,0)"  stroke-width="2.0"/>
<line x1="127.6" y1="315.9" x2="143.2" y2="322.6" stroke="rgb(0,0,0)"  stroke-width="2.0"/>
<text x="67.538422" y="103.654456" fill="rgb(255,12,12)"  stroke="rgb(255,12,12)" stroke-width="1" font-size="16" >O</text>
<text x="137.995410" y="88.678361" fill="rgb(255,12,12)"  stroke="rgb(255,12,12)" stroke-width="1" font-size="16" >O</text>
<text x="109.348957" y="48.000000" fill="rgb(102,102,102)"  stroke="rgb(102,102,102)" stroke-width="1" font-size="16" >H</text>
<text x="121.348957" y="51.680000" fill="rgb(102,102,102)"  stroke="rgb(102,102,102)" stroke-width="1" font-size="13" >3</text>
<text x="127.848957" y="48.000000" fill="rgb(102,102,102)"  stroke="rgb(102,102,102)" stroke-width="1" font-size="16" >C</text>
<text x="45.279607" y="172.160045" fill="rgb(255,12,12)"  stroke="rgb(255,12,12)" stroke-width="1" font-size="16" >O</text>
<text x="34.000000" y="245.090310" fill="rgb(191,191,191)"  stroke="rgb(191,191,191)" stroke-width="1" font-size="16" >H</text>
<text x="115.736595" y="157.183950" fill="rgb(12,12,255)"  stroke="rgb(12,12,255)" stroke-width="1" font-size="16" >N</text>
<text x="90.136034" y="351.101027" fill="rgb(255,12,12)"  stroke="rgb(255,12,12)" stroke-width="1" font-size="16" >O</text>
<text x="149.183045" y="335.803029" fill="rgb(12,12,255)"  stroke="rgb(12,12,255)" stroke-width="1" font-size="16" >N</text>
<text x="187.715355" y="396.661321" fill="rgb(255,12,12)"  stroke="rgb(255,12,12)" stroke-width="1" font-size="16" >O</text>
<text x="115.744373" y="399.602134" fill="rgb(255,12,12)"  stroke="rgb(255,12,12)" stroke-width="1" font-size="16" >O</text>
<text x="119.442252" y="441.154600" fill="rgb(102,102,102)"  stroke="rgb(102,102,102)" stroke-width="1" font-size="16" >CH</text>
<text x="143.442252" y="444.834600" fill="rgb(102,102,102)"  stroke="rgb(102,102,102)" stroke-width="1" font-size="13" >3</text>
<text x="209.281313" y="346.232620" fill="rgb(255,12,12)"  stroke="rgb(255,12,12)" stroke-width="1" font-size="16" >O</text>
<text x="459.519423" y="407.071590" fill="rgb(191,191,191)"  stroke="rgb(191,191,191)" stroke-width="1" font-size="16" >H</text>
<text x="316.797847" y="368.615307" fill="rgb(12,12,255)"  stroke="rgb(12,12,255)" stroke-width="1" font-size="16" >N</text>
<text x="316.797847" y="440.646346" fill="rgb(255,12,12)"  stroke="rgb(255,12,12)" stroke-width="1" font-size="16" >O</text>
<text x="254.417137" y="404.630826" fill="rgb(255,12,12)"  stroke="rgb(255,12,12)" stroke-width="1" font-size="16" >O</text>
<text x="213.623567" y="368.615307" fill="rgb(102,102,102)"  stroke="rgb(102,102,102)" stroke-width="1" font-size="16" >H</text>
<text x="225.623567" y="372.295307" fill="rgb(102,102,102)"  stroke="rgb(102,102,102)" stroke-width="1" font-size="13" >3</text>
<text x="232.123567" y="368.615307" fill="rgb(102,102,102)"  stroke="rgb(102,102,102)" stroke-width="1" font-size="16" >C</text>
<text x="186.193583" y="142.207855" fill="rgb(255,12,12)"  stroke="rgb(255,12,12)" stroke-width="1" font-size="16" >O</text>
</svg>
</g>
<text font-size="18.000000" fill ="black" font-family="sans-serif"
x="10.000000" y="20.000000" ></text>
</svg>
