<?xml version="1.0"?>
<svg version="1.1" id="topsvg"
xmlns="http://www.w3.org/2000/svg" xmlns:xlink="http://www.w3.org/1999/xlink"
xmlns:cml="http://www.xml-cml.org/schema" x="0" y="0" width="200px" height="200px" viewBox="0 0 100 100">
<title> - Open Babel Depiction</title>
<rect x="0" y="0" width="100" height="100" fill="white"/>
<g transform="translate(0,0)">
<svg width="100" height="100" x="0" y="0" viewBox="0 0 456.097 495.934"
font-family="sans-serif" stroke="rgb(0,0,0)" stroke-width="2"  stroke-linecap="round">
<line x1="187.0" y1="210.5" x2="166.2" y2="246.6" stroke="rgb(0,0,0)"  stroke-width="2.0"/>
<line x1="124.8" y1="250.9" x2="105.6" y2="229.7" stroke="rgb(0,0,0)"  stroke-width="2.0"/>
<line x1="116.1" y1="291.7" x2="78.1" y2="308.6" stroke="rgb(0,0,0)"  stroke-width="2.0"/>
<line x1="78.1" y1="308.6" x2="51.9" y2="320.3" stroke="rgb(0,0,0)"  stroke-width="2.0"/>
<line x1="79.8" y1="312.5" x2="53.6" y2="324.1" stroke="rgb(0,0,0)"  stroke-width="2.0"/>
<line x1="76.3" y1="304.8" x2="50.2" y2="316.4" stroke="rgb(0,0,0)"  stroke-width="2.0"/>
<line x1="152.2" y1="312.5" x2="156.5" y2="353.9" stroke="rgb(0,0,0)"  stroke-width="2.0"/>
<line x1="142.5" y1="419.9" x2="128.2" y2="444.7" stroke="rgb(0,0,0)"  stroke-width="2.0"/>
<line x1="183.9" y1="415.5" x2="203.1" y2="436.8" stroke="rgb(0,0,0)"  stroke-width="2.0"/>
<line x1="192.6" y1="374.8" x2="230.6" y2="357.8" stroke="rgb(0,0,0)"  stroke-width="2.0"/>
<line x1="230.6" y1="357.8" x2="256.8" y2="346.2" stroke="rgb(0,0,0)"  stroke-width="2.0"/>
<line x1="228.9" y1="354.0" x2="255.1" y2="342.3" stroke="rgb(0,0,0)"  stroke-width="2.0"/>
<line x1="232.4" y1="361.7" x2="258.5" y2="350.0" stroke="rgb(0,0,0)"  stroke-width="2.0"/>
<line x1="293.7" y1="173.0" x2="308.1" y2="197.8" stroke="rgb(0,0,0)"  stroke-width="2.0"/>
<line x1="288.5" y1="176.0" x2="302.9" y2="200.8" stroke="rgb(0,0,0)"  stroke-width="2.0"/>
<line x1="325.0" y1="138.4" x2="353.6" y2="138.4" stroke="rgb(0,0,0)"  stroke-width="2.0"/>
<line x1="351.0" y1="136.9" x2="365.3" y2="112.1" stroke="rgb(0,0,0)"  stroke-width="2.0"/>
<line x1="356.2" y1="139.9" x2="370.5" y2="115.1" stroke="rgb(0,0,0)"  stroke-width="2.0"/>
<line x1="353.6" y1="138.4" x2="367.9" y2="163.2" stroke="rgb(0,0,0)"  stroke-width="2.0"/>
<line x1="387.4" y1="174.5" x2="403.1" y2="174.5" stroke="rgb(0,0,0)"  stroke-width="2.0"/>
<line x1="288.5" y1="100.8" x2="302.9" y2="76.0" stroke="rgb(0,0,0)"  stroke-width="2.0"/>
<line x1="293.7" y1="103.8" x2="308.1" y2="79.0" stroke="rgb(0,0,0)"  stroke-width="2.0"/>
<line x1="227.7" y1="78.8" x2="238.1" y2="52.1" stroke="rgb(0,0,0)"  stroke-width="2.0"/>
<line x1="144.8" y1="110.8" x2="131.0" y2="85.7" stroke="rgb(0,0,0)"  stroke-width="2.0"/>
<line x1="150.1" y1="107.9" x2="136.2" y2="82.8" stroke="rgb(0,0,0)"  stroke-width="2.0"/>
<line x1="117.2" y1="131.8" x2="89.0" y2="127.0" stroke="rgb(0,0,0)"  stroke-width="2.0"/>
<line x1="91.3" y1="128.9" x2="73.0" y2="150.9" stroke="rgb(0,0,0)"  stroke-width="2.0"/>
<line x1="86.6" y1="125.0" x2="68.4" y2="147.1" stroke="rgb(0,0,0)"  stroke-width="2.0"/>
<line x1="89.0" y1="127.0" x2="79.0" y2="100.1" stroke="rgb(0,0,0)"  stroke-width="2.0"/>
<line x1="82.8" y1="77.9" x2="92.8" y2="65.9" stroke="rgb(0,0,0)"  stroke-width="2.0"/>
<line x1="140.3" y1="165.1" x2="119.0" y2="184.2" stroke="rgb(0,0,0)"  stroke-width="2.0"/>
<line x1="136.3" y1="160.7" x2="115.0" y2="179.8" stroke="rgb(0,0,0)"  stroke-width="2.0"/>
<line x1="116.1" y1="291.7" x2="152.2" y2="312.5" stroke="rgb(0,0,0)"  stroke-width="2.0"/>
<line x1="124.9" y1="288.5" x2="150.6" y2="303.3" stroke="rgb(0,0,0)"  stroke-width="2.0"/>
<line x1="152.2" y1="312.5" x2="173.5" y2="293.3" stroke="rgb(0,0,0)"  stroke-width="2.0"/>
<line x1="177.8" y1="272.8" x2="166.2" y2="246.6" stroke="rgb(0,0,0)"  stroke-width="2.0"/>
<line x1="166.2" y1="246.6" x2="124.8" y2="250.9" stroke="rgb(0,0,0)"  stroke-width="2.0"/>
<line x1="161.0" y1="254.4" x2="131.5" y2="257.5" stroke="rgb(0,0,0)"  stroke-width="2.0"/>
<line x1="124.8" y1="250.9" x2="116.1" y2="291.7" stroke="rgb(0,0,0)"  stroke-width="2.0"/>
<line x1="142.5" y1="419.9" x2="183.9" y2="415.5" stroke="rgb(0,0,0)"  stroke-width="2.0"/>
<line x1="147.7" y1="412.1" x2="177.2" y2="409.0" stroke="rgb(0,0,0)"  stroke-width="2.0"/>
<line x1="183.9" y1="415.5" x2="192.6" y2="374.8" stroke="rgb(0,0,0)"  stroke-width="2.0"/>
<line x1="192.6" y1="374.8" x2="156.5" y2="353.9" stroke="rgb(0,0,0)"  stroke-width="2.0"/>
<line x1="183.8" y1="378.0" x2="158.1" y2="363.2" stroke="rgb(0,0,0)"  stroke-width="2.0"/>
<line x1="156.5" y1="353.9" x2="135.2" y2="373.1" stroke="rgb(0,0,0)"  stroke-width="2.0"/>
<line x1="130.9" y1="393.7" x2="142.5" y2="419.9" stroke="rgb(0,0,0)"  stroke-width="2.0"/>
<line x1="249.5" y1="174.5" x2="228.7" y2="138.4" stroke="rgb(0,0,0)"  stroke-width="2.0"/>
<line x1="240.3" y1="172.9" x2="225.4" y2="147.2" stroke="rgb(0,0,0)"  stroke-width="2.0"/>
<line x1="228.7" y1="138.4" x2="187.0" y2="138.4" stroke="rgb(0,0,0)"  stroke-width="2.0"/>
<line x1="187.0" y1="138.4" x2="166.2" y2="174.5" stroke="rgb(0,0,0)"  stroke-width="2.0"/>
<line x1="190.2" y1="147.2" x2="175.4" y2="172.9" stroke="rgb(0,0,0)"  stroke-width="2.0"/>
<line x1="166.2" y1="174.5" x2="187.0" y2="210.5" stroke="rgb(0,0,0)"  stroke-width="2.0"/>
<line x1="187.0" y1="210.5" x2="228.7" y2="210.5" stroke="rgb(0,0,0)"  stroke-width="2.0"/>
<line x1="193.0" y1="203.3" x2="222.7" y2="203.3" stroke="rgb(0,0,0)"  stroke-width="2.0"/>
<line x1="228.7" y1="210.5" x2="249.5" y2="174.5" stroke="rgb(0,0,0)"  stroke-width="2.0"/>
<line x1="291.1" y1="102.3" x2="249.5" y2="102.3" stroke="rgb(0,0,0)"  stroke-width="2.0"/>
<line x1="249.5" y1="102.3" x2="228.7" y2="138.4" stroke="rgb(0,0,0)"  stroke-width="2.0"/>
<line x1="249.5" y1="174.5" x2="291.1" y2="174.5" stroke="rgb(0,0,0)"  stroke-width="2.0"/>
<line x1="291.1" y1="174.5" x2="305.5" y2="149.6" stroke="rgb(0,0,0)"  stroke-width="2.0"/>
<line x1="305.5" y1="127.1" x2="291.1" y2="102.3" stroke="rgb(0,0,0)"  stroke-width="2.0"/>
<line x1="195.6" y1="81.2" x2="177.5" y2="107.7" stroke="rgb(0,0,0)"  stroke-width="2.0"/>
<line x1="198.2" y1="90.2" x2="186.9" y2="106.8" stroke="rgb(0,0,0)"  stroke-width="2.0"/>
<line x1="177.5" y1="107.7" x2="187.0" y2="138.4" stroke="rgb(0,0,0)"  stroke-width="2.0"/>
<line x1="249.5" y1="102.3" x2="227.7" y2="78.8" stroke="rgb(0,0,0)"  stroke-width="2.0"/>
<line x1="240.1" y1="102.8" x2="226.5" y2="88.1" stroke="rgb(0,0,0)"  stroke-width="2.0"/>
<line x1="227.7" y1="78.8" x2="195.6" y2="81.2" stroke="rgb(0,0,0)"  stroke-width="2.0"/>
<line x1="133.6" y1="146.4" x2="138.3" y2="162.9" stroke="rgb(0,0,0)"  stroke-width="2.0"/>
<line x1="138.3" y1="162.9" x2="166.2" y2="174.5" stroke="rgb(0,0,0)"  stroke-width="2.0"/>
<line x1="177.5" y1="107.7" x2="147.5" y2="109.4" stroke="rgb(0,0,0)"  stroke-width="2.0"/>
<line x1="147.5" y1="109.4" x2="137.5" y2="123.4" stroke="rgb(0,0,0)"  stroke-width="2.0"/>
<text x="121.323257" y="80.919683" fill="rgb(255,12,12)"  stroke="rgb(255,12,12)" stroke-width="1" font-size="16" >O</text>
<text x="368.445361" y="110.308648" fill="rgb(255,12,12)"  stroke="rgb(255,12,12)" stroke-width="1" font-size="16" >O</text>
<text x="368.445361" y="182.451943" fill="rgb(255,12,12)"  stroke="rgb(255,12,12)" stroke-width="1" font-size="16" >O</text>
<text x="412.097312" y="182.451943" fill="rgb(102,102,102)"  stroke="rgb(102,102,102)" stroke-width="1" font-size="16" >CH</text>
<text x="436.097312" y="186.131943" fill="rgb(102,102,102)"  stroke="rgb(102,102,102)" stroke-width="1" font-size="13" >3</text>
<text x="305.967434" y="74.237000" fill="rgb(255,12,12)"  stroke="rgb(255,12,12)" stroke-width="1" font-size="16" >O</text>
<text x="236.868513" y="48.000000" fill="rgb(191,191,191)"  stroke="rgb(191,191,191)" stroke-width="1" font-size="16" >H</text>
<text x="124.014580" y="141.951975" fill="rgb(12,12,255)"  stroke="rgb(12,12,255)" stroke-width="1" font-size="16" >N</text>
<text x="56.369613" y="167.028130" fill="rgb(255,12,12)"  stroke="rgb(255,12,12)" stroke-width="1" font-size="16" >O</text>
<text x="68.475510" y="95.907793" fill="rgb(255,12,12)"  stroke="rgb(255,12,12)" stroke-width="1" font-size="16" >O</text>
<text x="97.059130" y="63.842296" fill="rgb(102,102,102)"  stroke="rgb(102,102,102)" stroke-width="1" font-size="16" >CH</text>
<text x="121.059130" y="67.522296" fill="rgb(102,102,102)"  stroke="rgb(102,102,102)" stroke-width="1" font-size="13" >3</text>
<text x="101.282396" y="198.656752" fill="rgb(255,12,12)"  stroke="rgb(255,12,12)" stroke-width="1" font-size="16" >O</text>
<text x="115.689331" y="463.933755" fill="rgb(191,191,191)"  stroke="rgb(191,191,191)" stroke-width="1" font-size="16" >H</text>
<text x="78.891234" y="227.995621" fill="rgb(255,12,12)"  stroke="rgb(255,12,12)" stroke-width="1" font-size="16" >HO</text>
<text x="34.000000" y="333.573558" fill="rgb(12,12,255)"  stroke="rgb(12,12,255)" stroke-width="1" font-size="16" >N</text>
<text x="177.126981" y="292.646189" fill="rgb(178,178,0)"  stroke="rgb(178,178,0)" stroke-width="1" font-size="16" >S</text>
<text x="119.573931" y="389.811157" fill="rgb(178,178,0)"  stroke="rgb(178,178,0)" stroke-width="1" font-size="16" >S</text>
<text x="205.809679" y="454.461725" fill="rgb(255,12,12)"  stroke="rgb(255,12,12)" stroke-width="1" font-size="16" >OH</text>
<text x="262.700912" y="348.883788" fill="rgb(12,12,255)"  stroke="rgb(12,12,255)" stroke-width="1" font-size="16" >N</text>
<text x="305.967434" y="218.523591" fill="rgb(255,12,12)"  stroke="rgb(255,12,12)" stroke-width="1" font-size="16" >O</text>
<text x="305.967434" y="146.380296" fill="rgb(12,12,255)"  stroke="rgb(12,12,255)" stroke-width="1" font-size="16" >N</text>
</svg>
</g>
<text font-size="18.000000" fill ="black" font-family="sans-serif"
x="10.000000" y="20.000000" ></text>
</svg>
