<?xml version="1.0"?>
<svg version="1.1" id="topsvg"
xmlns="http://www.w3.org/2000/svg" xmlns:xlink="http://www.w3.org/1999/xlink"
xmlns:cml="http://www.xml-cml.org/schema" x="0" y="0" width="200px" height="200px" viewBox="0 0 100 100">
<title> - Open Babel Depiction</title>
<rect x="0" y="0" width="100" height="100" fill="white"/>
<g transform="translate(0,0)">
<svg width="100" height="100" x="0" y="0" viewBox="0 0 505.605 352.719"
font-family="sans-serif" stroke="rgb(0,0,0)" stroke-width="2"  stroke-linecap="round">
<line x1="275.5" y1="145.5" x2="236.6" y2="145.5" stroke="rgb(0,0,0)"  stroke-width="2.0"/>
<line x1="138.2" y1="111.9" x2="124.9" y2="89.1" stroke="rgb(0,0,0)"  stroke-width="2.0"/>
<line x1="106.0" y1="73.9" x2="93.3" y2="69.8" stroke="rgb(0,0,0)"  stroke-width="2.0"/>
<line x1="138.2" y1="111.9" x2="111.8" y2="111.9" stroke="rgb(0,0,0)"  stroke-width="2.0"/>
<line x1="89.2" y1="103.2" x2="79.2" y2="94.3" stroke="rgb(0,0,0)"  stroke-width="2.0"/>
<line x1="76.7" y1="193.6" x2="51.2" y2="208.5" stroke="rgb(0,0,0)"  stroke-width="2.0"/>
<line x1="298.4" y1="114.0" x2="286.3" y2="77.0" stroke="rgb(0,0,0)"  stroke-width="2.0"/>
<line x1="286.3" y1="77.0" x2="278.3" y2="52.4" stroke="rgb(0,0,0)"  stroke-width="2.0"/>
<line x1="282.3" y1="78.3" x2="274.3" y2="53.7" stroke="rgb(0,0,0)"  stroke-width="2.0"/>
<line x1="290.3" y1="75.7" x2="282.3" y2="51.1" stroke="rgb(0,0,0)"  stroke-width="2.0"/>
<line x1="335.4" y1="164.9" x2="366.8" y2="187.8" stroke="rgb(0,0,0)"  stroke-width="2.0"/>
<line x1="426.7" y1="207.2" x2="452.6" y2="207.2" stroke="rgb(0,0,0)"  stroke-width="2.0"/>
<line x1="403.8" y1="238.7" x2="415.9" y2="275.7" stroke="rgb(0,0,0)"  stroke-width="2.0"/>
<line x1="415.9" y1="275.7" x2="423.9" y2="300.4" stroke="rgb(0,0,0)"  stroke-width="2.0"/>
<line x1="419.9" y1="274.4" x2="427.9" y2="299.1" stroke="rgb(0,0,0)"  stroke-width="2.0"/>
<line x1="411.9" y1="277.0" x2="419.9" y2="301.7" stroke="rgb(0,0,0)"  stroke-width="2.0"/>
<line x1="177.5" y1="111.9" x2="177.5" y2="180.1" stroke="rgb(0,0,0)"  stroke-width="2.0"/>
<line x1="184.7" y1="117.9" x2="184.7" y2="174.1" stroke="rgb(0,0,0)"  stroke-width="2.0"/>
<line x1="177.5" y1="180.1" x2="203.9" y2="180.1" stroke="rgb(0,0,0)"  stroke-width="2.0"/>
<line x1="223.3" y1="168.8" x2="236.6" y2="145.5" stroke="rgb(0,0,0)"  stroke-width="2.0"/>
<line x1="236.6" y1="145.5" x2="216.9" y2="111.9" stroke="rgb(0,0,0)"  stroke-width="2.0"/>
<line x1="227.3" y1="143.9" x2="213.7" y2="120.7" stroke="rgb(0,0,0)"  stroke-width="2.0"/>
<line x1="216.9" y1="111.9" x2="177.5" y2="111.9" stroke="rgb(0,0,0)"  stroke-width="2.0"/>
<line x1="76.7" y1="193.6" x2="100.4" y2="204.0" stroke="rgb(0,0,0)"  stroke-width="2.0"/>
<line x1="121.0" y1="199.4" x2="138.2" y2="180.1" stroke="rgb(0,0,0)"  stroke-width="2.0"/>
<line x1="138.2" y1="180.1" x2="118.5" y2="146.5" stroke="rgb(0,0,0)"  stroke-width="2.0"/>
<line x1="128.9" y1="178.5" x2="115.3" y2="155.3" stroke="rgb(0,0,0)"  stroke-width="2.0"/>
<line x1="118.5" y1="146.5" x2="80.5" y2="154.9" stroke="rgb(0,0,0)"  stroke-width="2.0"/>
<line x1="80.5" y1="154.9" x2="76.7" y2="193.6" stroke="rgb(0,0,0)"  stroke-width="2.0"/>
<line x1="87.1" y1="161.5" x2="84.5" y2="188.3" stroke="rgb(0,0,0)"  stroke-width="2.0"/>
<line x1="335.4" y1="138.9" x2="335.4" y2="164.9" stroke="rgb(0,0,0)"  stroke-width="2.0"/>
<line x1="328.2" y1="141.0" x2="328.2" y2="158.9" stroke="rgb(0,0,0)"  stroke-width="2.0"/>
<line x1="335.4" y1="164.9" x2="310.7" y2="172.9" stroke="rgb(0,0,0)"  stroke-width="2.0"/>
<line x1="290.7" y1="166.4" x2="275.5" y2="145.5" stroke="rgb(0,0,0)"  stroke-width="2.0"/>
<line x1="275.5" y1="145.5" x2="298.4" y2="114.0" stroke="rgb(0,0,0)"  stroke-width="2.0"/>
<line x1="284.8" y1="144.9" x2="300.7" y2="123.1" stroke="rgb(0,0,0)"  stroke-width="2.0"/>
<line x1="298.4" y1="114.0" x2="323.0" y2="122.0" stroke="rgb(0,0,0)"  stroke-width="2.0"/>
<line x1="426.7" y1="207.2" x2="403.8" y2="238.7" stroke="rgb(0,0,0)"  stroke-width="2.0"/>
<line x1="417.3" y1="207.9" x2="401.5" y2="229.6" stroke="rgb(0,0,0)"  stroke-width="2.0"/>
<line x1="403.8" y1="238.7" x2="379.2" y2="230.7" stroke="rgb(0,0,0)"  stroke-width="2.0"/>
<line x1="366.8" y1="213.9" x2="366.8" y2="187.8" stroke="rgb(0,0,0)"  stroke-width="2.0"/>
<line x1="374.0" y1="211.7" x2="374.0" y2="193.8" stroke="rgb(0,0,0)"  stroke-width="2.0"/>
<line x1="366.8" y1="187.8" x2="391.5" y2="179.8" stroke="rgb(0,0,0)"  stroke-width="2.0"/>
<line x1="411.5" y1="186.3" x2="426.7" y2="207.2" stroke="rgb(0,0,0)"  stroke-width="2.0"/>
<line x1="138.2" y1="180.1" x2="177.5" y2="180.1" stroke="rgb(0,0,0)"  stroke-width="2.0"/>
<line x1="177.5" y1="111.9" x2="138.2" y2="111.9" stroke="rgb(0,0,0)"  stroke-width="2.0"/>
<line x1="138.2" y1="111.9" x2="118.5" y2="146.5" stroke="rgb(0,0,0)"  stroke-width="2.0"/>
<text x="34.000000" y="223.124075" fill="rgb(191,191,191)"  stroke="rgb(191,191,191)" stroke-width="1" font-size="16" >H</text>
<text x="360.834406" y="234.696958" fill="rgb(12,12,255)"  stroke="rgb(12,12,255)" stroke-width="1" font-size="16" >N</text>
<text x="421.878289" y="320.718742" fill="rgb(12,12,255)"  stroke="rgb(12,12,255)" stroke-width="1" font-size="16" >N</text>
<text x="459.605484" y="215.244963" fill="rgb(191,191,191)"  stroke="rgb(191,191,191)" stroke-width="1" font-size="16" >H</text>
<text x="397.834300" y="183.770973" fill="rgb(178,178,0)"  stroke="rgb(178,178,0)" stroke-width="1" font-size="16" >S</text>
<text x="292.360521" y="184.947769" fill="rgb(178,178,0)"  stroke="rgb(178,178,0)" stroke-width="1" font-size="16" >S</text>
<text x="329.360415" y="134.021783" fill="rgb(12,12,255)"  stroke="rgb(12,12,255)" stroke-width="1" font-size="16" >N</text>
<text x="268.316532" y="48.000000" fill="rgb(12,12,255)"  stroke="rgb(12,12,255)" stroke-width="1" font-size="16" >N</text>
<text x="106.354636" y="217.160990" fill="rgb(178,178,0)"  stroke="rgb(178,178,0)" stroke-width="1" font-size="16" >S</text>
<text x="43.563483" y="93.579177" fill="rgb(102,102,102)"  stroke="rgb(102,102,102)" stroke-width="1" font-size="16" >H</text>
<text x="55.563483" y="97.259177" fill="rgb(102,102,102)"  stroke="rgb(102,102,102)" stroke-width="1" font-size="13" >3</text>
<text x="62.063483" y="93.579177" fill="rgb(102,102,102)"  stroke="rgb(102,102,102)" stroke-width="1" font-size="16" >C</text>
<text x="92.817443" y="119.919561" fill="rgb(255,12,12)"  stroke="rgb(255,12,12)" stroke-width="1" font-size="16" >O</text>
<text x="54.918851" y="73.840711" fill="rgb(102,102,102)"  stroke="rgb(102,102,102)" stroke-width="1" font-size="16" >H</text>
<text x="66.918851" y="77.520711" fill="rgb(102,102,102)"  stroke="rgb(102,102,102)" stroke-width="1" font-size="13" >3</text>
<text x="73.418851" y="73.840711" fill="rgb(102,102,102)"  stroke="rgb(102,102,102)" stroke-width="1" font-size="16" >C</text>
<text x="112.394696" y="85.889403" fill="rgb(255,12,12)"  stroke="rgb(255,12,12)" stroke-width="1" font-size="16" >O</text>
<text x="210.900889" y="188.067339" fill="rgb(178,178,0)"  stroke="rgb(178,178,0)" stroke-width="1" font-size="16" >S</text>
</svg>
</g>
<text font-size="18.000000" fill ="black" font-family="sans-serif"
x="10.000000" y="20.000000" ></text>
</svg>
