<?xml version="1.0"?>
<svg version="1.1" id="topsvg"
xmlns="http://www.w3.org/2000/svg" xmlns:xlink="http://www.w3.org/1999/xlink"
xmlns:cml="http://www.xml-cml.org/schema" x="0" y="0" width="200px" height="200px" viewBox="0 0 100 100">
<title> - Open Babel Depiction</title>
<rect x="0" y="0" width="100" height="100" fill="white"/>
<g transform="translate(0,0)">
<svg width="100" height="100" x="0" y="0" viewBox="0 0 472.389 360"
font-family="sans-serif" stroke="rgb(0,0,0)" stroke-width="2"  stroke-linecap="round">
<line x1="160.0" y1="180.0" x2="200.0" y2="180.0" stroke="rgb(0,0,0)"  stroke-width="2.0"/>
<line x1="223.5" y1="147.6" x2="215.2" y2="122.0" stroke="rgb(0,0,0)"  stroke-width="2.0"/>
<line x1="296.2" y1="140.0" x2="296.2" y2="100.0" stroke="rgb(0,0,0)"  stroke-width="2.0"/>
<line x1="294.7" y1="97.4" x2="318.1" y2="83.9" stroke="rgb(0,0,0)"  stroke-width="2.0"/>
<line x1="297.7" y1="102.6" x2="321.1" y2="89.1" stroke="rgb(0,0,0)"  stroke-width="2.0"/>
<line x1="296.2" y1="100.0" x2="272.8" y2="86.5" stroke="rgb(0,0,0)"  stroke-width="2.0"/>
<line x1="261.6" y1="67.0" x2="261.6" y2="53.0" stroke="rgb(0,0,0)"  stroke-width="2.0"/>
<line x1="392.4" y1="180.0" x2="419.4" y2="180.0" stroke="rgb(0,0,0)"  stroke-width="2.0"/>
<line x1="368.9" y1="212.4" x2="377.2" y2="238.0" stroke="rgb(0,0,0)"  stroke-width="2.0"/>
<line x1="296.2" y1="220.0" x2="296.2" y2="260.0" stroke="rgb(0,0,0)"  stroke-width="2.0"/>
<line x1="297.7" y1="262.6" x2="274.3" y2="276.1" stroke="rgb(0,0,0)"  stroke-width="2.0"/>
<line x1="294.7" y1="257.4" x2="271.3" y2="270.9" stroke="rgb(0,0,0)"  stroke-width="2.0"/>
<line x1="296.2" y1="260.0" x2="319.6" y2="273.5" stroke="rgb(0,0,0)"  stroke-width="2.0"/>
<line x1="330.8" y1="293.0" x2="330.8" y2="307.0" stroke="rgb(0,0,0)"  stroke-width="2.0"/>
<line x1="80.0" y1="180.0" x2="53.0" y2="180.0" stroke="rgb(0,0,0)"  stroke-width="2.0"/>
<line x1="100.0" y1="145.4" x2="80.0" y2="110.7" stroke="rgb(0,0,0)"  stroke-width="2.0"/>
<line x1="80.0" y1="110.7" x2="66.5" y2="87.3" stroke="rgb(0,0,0)"  stroke-width="2.0"/>
<line x1="76.4" y1="112.8" x2="62.9" y2="89.4" stroke="rgb(0,0,0)"  stroke-width="2.0"/>
<line x1="83.6" y1="108.6" x2="70.1" y2="85.2" stroke="rgb(0,0,0)"  stroke-width="2.0"/>
<line x1="140.0" y1="145.4" x2="160.0" y2="110.7" stroke="rgb(0,0,0)"  stroke-width="2.0"/>
<line x1="160.0" y1="110.7" x2="173.5" y2="87.3" stroke="rgb(0,0,0)"  stroke-width="2.0"/>
<line x1="156.4" y1="108.6" x2="169.9" y2="85.2" stroke="rgb(0,0,0)"  stroke-width="2.0"/>
<line x1="163.6" y1="112.8" x2="177.1" y2="89.4" stroke="rgb(0,0,0)"  stroke-width="2.0"/>
<line x1="261.6" y1="160.0" x2="261.6" y2="200.0" stroke="rgb(0,0,0)"  stroke-width="2.0"/>
<line x1="261.6" y1="200.0" x2="235.9" y2="208.3" stroke="rgb(0,0,0)"  stroke-width="2.0"/>
<line x1="215.9" y1="201.8" x2="200.0" y2="180.0" stroke="rgb(0,0,0)"  stroke-width="2.0"/>
<line x1="200.0" y1="180.0" x2="223.5" y2="147.6" stroke="rgb(0,0,0)"  stroke-width="2.0"/>
<line x1="209.4" y1="179.4" x2="225.8" y2="156.7" stroke="rgb(0,0,0)"  stroke-width="2.0"/>
<line x1="223.5" y1="147.6" x2="261.6" y2="160.0" stroke="rgb(0,0,0)"  stroke-width="2.0"/>
<line x1="392.4" y1="180.0" x2="368.9" y2="212.4" stroke="rgb(0,0,0)"  stroke-width="2.0"/>
<line x1="383.0" y1="180.6" x2="366.6" y2="203.3" stroke="rgb(0,0,0)"  stroke-width="2.0"/>
<line x1="368.9" y1="212.4" x2="330.8" y2="200.0" stroke="rgb(0,0,0)"  stroke-width="2.0"/>
<line x1="330.8" y1="200.0" x2="330.8" y2="160.0" stroke="rgb(0,0,0)"  stroke-width="2.0"/>
<line x1="338.0" y1="194.0" x2="338.0" y2="166.0" stroke="rgb(0,0,0)"  stroke-width="2.0"/>
<line x1="330.8" y1="160.0" x2="356.5" y2="151.7" stroke="rgb(0,0,0)"  stroke-width="2.0"/>
<line x1="376.5" y1="158.2" x2="392.4" y2="180.0" stroke="rgb(0,0,0)"  stroke-width="2.0"/>
<line x1="141.8" y1="260.3" x2="130.5" y2="268.6" stroke="rgb(0,0,0)"  stroke-width="2.0"/>
<line x1="109.5" y1="268.6" x2="98.2" y2="260.3" stroke="rgb(0,0,0)"  stroke-width="2.0"/>
<line x1="91.7" y1="240.1" x2="100.0" y2="214.6" stroke="rgb(0,0,0)"  stroke-width="2.0"/>
<line x1="99.2" y1="240.5" x2="105.0" y2="222.6" stroke="rgb(0,0,0)"  stroke-width="2.0"/>
<line x1="100.0" y1="214.6" x2="140.0" y2="214.6" stroke="rgb(0,0,0)"  stroke-width="2.0"/>
<line x1="140.0" y1="214.6" x2="148.3" y2="240.1" stroke="rgb(0,0,0)"  stroke-width="2.0"/>
<line x1="135.0" y1="222.6" x2="140.8" y2="240.5" stroke="rgb(0,0,0)"  stroke-width="2.0"/>
<line x1="330.8" y1="200.0" x2="296.2" y2="220.0" stroke="rgb(0,0,0)"  stroke-width="2.0"/>
<line x1="296.2" y1="220.0" x2="261.6" y2="200.0" stroke="rgb(0,0,0)"  stroke-width="2.0"/>
<line x1="294.6" y1="210.8" x2="270.3" y2="196.8" stroke="rgb(0,0,0)"  stroke-width="2.0"/>
<line x1="261.6" y1="160.0" x2="296.2" y2="140.0" stroke="rgb(0,0,0)"  stroke-width="2.0"/>
<line x1="270.3" y1="163.2" x2="294.6" y2="149.2" stroke="rgb(0,0,0)"  stroke-width="2.0"/>
<line x1="296.2" y1="140.0" x2="330.8" y2="160.0" stroke="rgb(0,0,0)"  stroke-width="2.0"/>
<line x1="100.0" y1="214.6" x2="80.0" y2="180.0" stroke="rgb(0,0,0)"  stroke-width="2.0"/>
<line x1="80.0" y1="180.0" x2="100.0" y2="145.4" stroke="rgb(0,0,0)"  stroke-width="2.0"/>
<line x1="89.2" y1="178.4" x2="103.2" y2="154.2" stroke="rgb(0,0,0)"  stroke-width="2.0"/>
<line x1="100.0" y1="145.4" x2="140.0" y2="145.4" stroke="rgb(0,0,0)"  stroke-width="2.0"/>
<line x1="140.0" y1="145.4" x2="160.0" y2="180.0" stroke="rgb(0,0,0)"  stroke-width="2.0"/>
<line x1="136.8" y1="154.2" x2="150.8" y2="178.4" stroke="rgb(0,0,0)"  stroke-width="2.0"/>
<line x1="160.0" y1="180.0" x2="140.0" y2="214.6" stroke="rgb(0,0,0)"  stroke-width="2.0"/>
<text x="255.553671" y="288.000000" fill="rgb(255,12,12)"  stroke="rgb(255,12,12)" stroke-width="1" font-size="16" >O</text>
<text x="324.835703" y="288.000000" fill="rgb(255,12,12)"  stroke="rgb(255,12,12)" stroke-width="1" font-size="16" >O</text>
<text x="326.835703" y="328.000000" fill="rgb(102,102,102)"  stroke="rgb(102,102,102)" stroke-width="1" font-size="16" >CH</text>
<text x="350.835703" y="331.680000" fill="rgb(102,102,102)"  stroke="rgb(102,102,102)" stroke-width="1" font-size="13" >3</text>
<text x="217.511410" y="220.360680" fill="rgb(178,178,0)"  stroke="rgb(178,178,0)" stroke-width="1" font-size="16" >S</text>
<text x="146.360680" y="260.683277" fill="rgb(12,12,255)"  stroke="rgb(12,12,255)" stroke-width="1" font-size="16" >N</text>
<text x="114.000000" y="284.194687" fill="rgb(178,178,0)"  stroke="rgb(178,178,0)" stroke-width="1" font-size="16" >S</text>
<text x="81.639320" y="260.683277" fill="rgb(12,12,255)"  stroke="rgb(12,12,255)" stroke-width="1" font-size="16" >N</text>
<text x="34.000000" y="188.000000" fill="rgb(191,191,191)"  stroke="rgb(191,191,191)" stroke-width="1" font-size="16" >H</text>
<text x="54.000000" y="84.076952" fill="rgb(12,12,255)"  stroke="rgb(12,12,255)" stroke-width="1" font-size="16" >N</text>
<text x="174.000000" y="84.076952" fill="rgb(12,12,255)"  stroke="rgb(12,12,255)" stroke-width="1" font-size="16" >N</text>
<text x="257.553671" y="48.000000" fill="rgb(102,102,102)"  stroke="rgb(102,102,102)" stroke-width="1" font-size="16" >CH</text>
<text x="281.553671" y="51.680000" fill="rgb(102,102,102)"  stroke="rgb(102,102,102)" stroke-width="1" font-size="13" >3</text>
<text x="205.150730" y="117.597060" fill="rgb(127,178,255)"  stroke="rgb(127,178,255)" stroke-width="1" font-size="16" >F</text>
<text x="324.835703" y="88.000000" fill="rgb(255,12,12)"  stroke="rgb(255,12,12)" stroke-width="1" font-size="16" >O</text>
<text x="255.553671" y="88.000000" fill="rgb(255,12,12)"  stroke="rgb(255,12,12)" stroke-width="1" font-size="16" >O</text>
<text x="362.877964" y="155.639320" fill="rgb(178,178,0)"  stroke="rgb(178,178,0)" stroke-width="1" font-size="16" >S</text>
<text x="426.389374" y="188.000000" fill="rgb(191,191,191)"  stroke="rgb(191,191,191)" stroke-width="1" font-size="16" >H</text>
<text x="375.238643" y="258.402940" fill="rgb(127,178,255)"  stroke="rgb(127,178,255)" stroke-width="1" font-size="16" >F</text>
</svg>
</g>
<text font-size="18.000000" fill ="black" font-family="sans-serif"
x="10.000000" y="20.000000" ></text>
</svg>
