<?xml version="1.0"?>
<svg version="1.1" id="topsvg"
xmlns="http://www.w3.org/2000/svg" xmlns:xlink="http://www.w3.org/1999/xlink"
xmlns:cml="http://www.xml-cml.org/schema" x="0" y="0" width="200px" height="200px" viewBox="0 0 100 100">
<title> - Open Babel Depiction</title>
<rect x="0" y="0" width="100" height="100" fill="white"/>
<g transform="translate(0,0)">
<svg width="100" height="100" x="0" y="0" viewBox="0 0 402.661 360.406"
font-family="sans-serif" stroke="rgb(0,0,0)" stroke-width="2"  stroke-linecap="round">
<line x1="214.0" y1="161.2" x2="248.8" y2="141.7" stroke="rgb(0,0,0)"  stroke-width="2.0"/>
<line x1="292.5" y1="94.4" x2="303.8" y2="70.0" stroke="rgb(0,0,0)"  stroke-width="2.0"/>
<line x1="179.7" y1="258.6" x2="202.9" y2="272.4" stroke="rgb(0,0,0)"  stroke-width="2.0"/>
<line x1="176.6" y1="263.7" x2="199.8" y2="277.6" stroke="rgb(0,0,0)"  stroke-width="2.0"/>
<line x1="143.3" y1="293.4" x2="143.2" y2="307.4" stroke="rgb(0,0,0)"  stroke-width="2.0"/>
<line x1="110.0" y1="262.8" x2="86.5" y2="276.2" stroke="rgb(0,0,0)"  stroke-width="2.0"/>
<line x1="107.0" y1="257.6" x2="83.5" y2="271.0" stroke="rgb(0,0,0)"  stroke-width="2.0"/>
<line x1="74.8" y1="199.2" x2="51.3" y2="212.6" stroke="rgb(0,0,0)"  stroke-width="2.0"/>
<line x1="109.0" y1="102.3" x2="85.8" y2="88.5" stroke="rgb(0,0,0)"  stroke-width="2.0"/>
<line x1="112.1" y1="97.1" x2="88.9" y2="83.4" stroke="rgb(0,0,0)"  stroke-width="2.0"/>
<line x1="145.7" y1="67.0" x2="145.9" y2="53.0" stroke="rgb(0,0,0)"  stroke-width="2.0"/>
<line x1="178.8" y1="98.0" x2="202.4" y2="84.8" stroke="rgb(0,0,0)"  stroke-width="2.0"/>
<line x1="181.7" y1="103.3" x2="205.3" y2="90.1" stroke="rgb(0,0,0)"  stroke-width="2.0"/>
<line x1="312.0" y1="129.1" x2="292.5" y2="94.4" stroke="rgb(0,0,0)"  stroke-width="2.0"/>
<line x1="302.8" y1="127.4" x2="289.2" y2="103.1" stroke="rgb(0,0,0)"  stroke-width="2.0"/>
<line x1="292.5" y1="94.4" x2="266.2" y2="99.6" stroke="rgb(0,0,0)"  stroke-width="2.0"/>
<line x1="251.9" y1="115.0" x2="248.8" y2="141.7" stroke="rgb(0,0,0)"  stroke-width="2.0"/>
<line x1="248.8" y1="141.7" x2="284.9" y2="158.4" stroke="rgb(0,0,0)"  stroke-width="2.0"/>
<line x1="257.2" y1="137.7" x2="282.5" y2="149.3" stroke="rgb(0,0,0)"  stroke-width="2.0"/>
<line x1="284.9" y1="158.4" x2="312.0" y2="129.1" stroke="rgb(0,0,0)"  stroke-width="2.0"/>
<line x1="178.7" y1="221.0" x2="144.0" y2="200.2" stroke="rgb(0,0,0)"  stroke-width="2.0"/>
<line x1="177.3" y1="211.7" x2="152.8" y2="197.1" stroke="rgb(0,0,0)"  stroke-width="2.0"/>
<line x1="144.0" y1="200.2" x2="144.5" y2="160.2" stroke="rgb(0,0,0)"  stroke-width="2.0"/>
<line x1="144.5" y1="160.2" x2="179.8" y2="140.8" stroke="rgb(0,0,0)"  stroke-width="2.0"/>
<line x1="153.3" y1="163.6" x2="178.0" y2="150.0" stroke="rgb(0,0,0)"  stroke-width="2.0"/>
<line x1="179.8" y1="140.8" x2="214.0" y2="161.2" stroke="rgb(0,0,0)"  stroke-width="2.0"/>
<line x1="214.0" y1="161.2" x2="213.5" y2="201.1" stroke="rgb(0,0,0)"  stroke-width="2.0"/>
<line x1="206.7" y1="167.1" x2="206.3" y2="195.0" stroke="rgb(0,0,0)"  stroke-width="2.0"/>
<line x1="213.5" y1="201.1" x2="178.7" y2="221.0" stroke="rgb(0,0,0)"  stroke-width="2.0"/>
<line x1="108.5" y1="260.2" x2="109.0" y2="220.1" stroke="rgb(0,0,0)"  stroke-width="2.0"/>
<line x1="109.0" y1="220.1" x2="144.0" y2="200.2" stroke="rgb(0,0,0)"  stroke-width="2.0"/>
<line x1="178.7" y1="221.0" x2="178.2" y2="261.1" stroke="rgb(0,0,0)"  stroke-width="2.0"/>
<line x1="178.2" y1="261.1" x2="154.8" y2="274.1" stroke="rgb(0,0,0)"  stroke-width="2.0"/>
<line x1="132.2" y1="273.9" x2="108.5" y2="260.2" stroke="rgb(0,0,0)"  stroke-width="2.0"/>
<line x1="75.3" y1="159.3" x2="110.0" y2="139.9" stroke="rgb(0,0,0)"  stroke-width="2.0"/>
<line x1="84.0" y1="162.7" x2="108.3" y2="149.1" stroke="rgb(0,0,0)"  stroke-width="2.0"/>
<line x1="110.0" y1="139.9" x2="144.5" y2="160.2" stroke="rgb(0,0,0)"  stroke-width="2.0"/>
<line x1="109.0" y1="220.1" x2="74.8" y2="199.2" stroke="rgb(0,0,0)"  stroke-width="2.0"/>
<line x1="107.6" y1="210.8" x2="83.6" y2="196.2" stroke="rgb(0,0,0)"  stroke-width="2.0"/>
<line x1="74.8" y1="199.2" x2="75.3" y2="159.3" stroke="rgb(0,0,0)"  stroke-width="2.0"/>
<line x1="156.7" y1="86.6" x2="180.3" y2="100.6" stroke="rgb(0,0,0)"  stroke-width="2.0"/>
<line x1="180.3" y1="100.6" x2="179.8" y2="140.8" stroke="rgb(0,0,0)"  stroke-width="2.0"/>
<line x1="110.0" y1="139.9" x2="110.6" y2="99.7" stroke="rgb(0,0,0)"  stroke-width="2.0"/>
<line x1="110.6" y1="99.7" x2="134.2" y2="86.4" stroke="rgb(0,0,0)"  stroke-width="2.0"/>
<line x1="309.4" y1="199.3" x2="335.6" y2="205.3" stroke="rgb(0,0,0)"  stroke-width="2.0"/>
<line x1="335.6" y1="205.3" x2="362.7" y2="176.0" stroke="rgb(0,0,0)"  stroke-width="2.0"/>
<line x1="362.7" y1="176.0" x2="354.7" y2="150.4" stroke="rgb(0,0,0)"  stroke-width="2.0"/>
<line x1="338.2" y1="135.1" x2="312.0" y2="129.1" stroke="rgb(0,0,0)"  stroke-width="2.0"/>
<line x1="284.9" y1="158.4" x2="292.9" y2="184.0" stroke="rgb(0,0,0)"  stroke-width="2.0"/>
<text x="70.166259" y="87.322519" fill="rgb(255,12,12)"  stroke="rgb(255,12,12)" stroke-width="1" font-size="16" >O</text>
<text x="67.701468" y="287.998428" fill="rgb(255,12,12)"  stroke="rgb(255,12,12)" stroke-width="1" font-size="16" >O</text>
<text x="34.000000" y="227.019340" fill="rgb(191,191,191)"  stroke="rgb(191,191,191)" stroke-width="1" font-size="16" >H</text>
<text x="137.083541" y="328.406042" fill="rgb(191,191,191)"  stroke="rgb(191,191,191)" stroke-width="1" font-size="16" >H</text>
<text x="139.568672" y="87.997318" fill="rgb(12,12,255)"  stroke="rgb(12,12,255)" stroke-width="1" font-size="16" >N</text>
<text x="140.031844" y="48.000000" fill="rgb(191,191,191)"  stroke="rgb(191,191,191)" stroke-width="1" font-size="16" >H</text>
<text x="209.176298" y="89.088434" fill="rgb(255,12,12)"  stroke="rgb(255,12,12)" stroke-width="1" font-size="16" >O</text>
<text x="137.429100" y="288.407535" fill="rgb(12,12,255)"  stroke="rgb(12,12,255)" stroke-width="1" font-size="16" >N</text>
<text x="206.513456" y="289.660288" fill="rgb(255,12,12)"  stroke="rgb(255,12,12)" stroke-width="1" font-size="16" >O</text>
<text x="247.452300" y="110.126928" fill="rgb(178,178,0)"  stroke="rgb(178,178,0)" stroke-width="1" font-size="16" >S</text>
<text x="303.227582" y="66.183142" fill="rgb(191,191,191)"  stroke="rgb(191,191,191)" stroke-width="1" font-size="16" >H</text>
<text x="344.856216" y="145.940909" fill="rgb(255,12,12)"  stroke="rgb(255,12,12)" stroke-width="1" font-size="16" >O</text>
<text x="290.744072" y="204.445466" fill="rgb(255,12,12)"  stroke="rgb(255,12,12)" stroke-width="1" font-size="16" >O</text>
</svg>
</g>
<text font-size="18.000000" fill ="black" font-family="sans-serif"
x="10.000000" y="20.000000" ></text>
</svg>
