<?xml version="1.0"?>
<svg version="1.1" id="topsvg"
xmlns="http://www.w3.org/2000/svg" xmlns:xlink="http://www.w3.org/1999/xlink"
xmlns:cml="http://www.xml-cml.org/schema" x="0" y="0" width="200px" height="200px" viewBox="0 0 100 100">
<title> - Open Babel Depiction</title>
<rect x="0" y="0" width="100" height="100" fill="white"/>
<g transform="translate(0,0)">
<svg width="100" height="100" x="0" y="0" viewBox="0 0 392.998 360.353"
font-family="sans-serif" stroke="rgb(0,0,0)" stroke-width="2"  stroke-linecap="round">
<line x1="213.9" y1="161.1" x2="248.7" y2="141.7" stroke="rgb(0,0,0)"  stroke-width="2.0"/>
<line x1="284.0" y1="82.4" x2="284.4" y2="55.6" stroke="rgb(0,0,0)"  stroke-width="2.0"/>
<line x1="318.2" y1="102.8" x2="341.7" y2="89.7" stroke="rgb(0,0,0)"  stroke-width="2.0"/>
<line x1="282.9" y1="162.1" x2="282.6" y2="188.9" stroke="rgb(0,0,0)"  stroke-width="2.0"/>
<line x1="179.7" y1="258.5" x2="202.9" y2="272.4" stroke="rgb(0,0,0)"  stroke-width="2.0"/>
<line x1="176.6" y1="263.7" x2="199.8" y2="277.5" stroke="rgb(0,0,0)"  stroke-width="2.0"/>
<line x1="143.3" y1="293.4" x2="143.2" y2="307.4" stroke="rgb(0,0,0)"  stroke-width="2.0"/>
<line x1="109.9" y1="262.8" x2="86.5" y2="276.1" stroke="rgb(0,0,0)"  stroke-width="2.0"/>
<line x1="107.0" y1="257.6" x2="83.5" y2="270.9" stroke="rgb(0,0,0)"  stroke-width="2.0"/>
<line x1="74.8" y1="199.2" x2="51.3" y2="212.6" stroke="rgb(0,0,0)"  stroke-width="2.0"/>
<line x1="109.0" y1="102.3" x2="85.8" y2="88.5" stroke="rgb(0,0,0)"  stroke-width="2.0"/>
<line x1="112.1" y1="97.1" x2="88.9" y2="83.4" stroke="rgb(0,0,0)"  stroke-width="2.0"/>
<line x1="145.7" y1="67.0" x2="145.9" y2="53.0" stroke="rgb(0,0,0)"  stroke-width="2.0"/>
<line x1="178.8" y1="98.0" x2="202.3" y2="84.8" stroke="rgb(0,0,0)"  stroke-width="2.0"/>
<line x1="181.7" y1="103.2" x2="205.3" y2="90.1" stroke="rgb(0,0,0)"  stroke-width="2.0"/>
<line x1="284.0" y1="82.4" x2="318.2" y2="102.8" stroke="rgb(0,0,0)"  stroke-width="2.0"/>
<line x1="285.5" y1="91.6" x2="309.4" y2="105.9" stroke="rgb(0,0,0)"  stroke-width="2.0"/>
<line x1="318.2" y1="102.8" x2="317.7" y2="142.6" stroke="rgb(0,0,0)"  stroke-width="2.0"/>
<line x1="317.7" y1="142.6" x2="282.9" y2="162.1" stroke="rgb(0,0,0)"  stroke-width="2.0"/>
<line x1="309.0" y1="139.2" x2="284.7" y2="152.8" stroke="rgb(0,0,0)"  stroke-width="2.0"/>
<line x1="282.9" y1="162.1" x2="248.7" y2="141.7" stroke="rgb(0,0,0)"  stroke-width="2.0"/>
<line x1="248.7" y1="141.7" x2="249.2" y2="101.8" stroke="rgb(0,0,0)"  stroke-width="2.0"/>
<line x1="256.0" y1="135.8" x2="256.4" y2="107.9" stroke="rgb(0,0,0)"  stroke-width="2.0"/>
<line x1="249.2" y1="101.8" x2="284.0" y2="82.4" stroke="rgb(0,0,0)"  stroke-width="2.0"/>
<line x1="178.7" y1="221.0" x2="144.0" y2="200.1" stroke="rgb(0,0,0)"  stroke-width="2.0"/>
<line x1="177.2" y1="211.7" x2="152.8" y2="197.0" stroke="rgb(0,0,0)"  stroke-width="2.0"/>
<line x1="144.0" y1="200.1" x2="144.5" y2="160.2" stroke="rgb(0,0,0)"  stroke-width="2.0"/>
<line x1="144.5" y1="160.2" x2="179.7" y2="140.7" stroke="rgb(0,0,0)"  stroke-width="2.0"/>
<line x1="153.2" y1="163.6" x2="178.0" y2="150.0" stroke="rgb(0,0,0)"  stroke-width="2.0"/>
<line x1="179.7" y1="140.7" x2="213.9" y2="161.1" stroke="rgb(0,0,0)"  stroke-width="2.0"/>
<line x1="213.9" y1="161.1" x2="213.4" y2="201.0" stroke="rgb(0,0,0)"  stroke-width="2.0"/>
<line x1="206.7" y1="167.0" x2="206.3" y2="194.9" stroke="rgb(0,0,0)"  stroke-width="2.0"/>
<line x1="213.4" y1="201.0" x2="178.7" y2="221.0" stroke="rgb(0,0,0)"  stroke-width="2.0"/>
<line x1="108.5" y1="260.2" x2="109.0" y2="220.1" stroke="rgb(0,0,0)"  stroke-width="2.0"/>
<line x1="109.0" y1="220.1" x2="144.0" y2="200.1" stroke="rgb(0,0,0)"  stroke-width="2.0"/>
<line x1="178.7" y1="221.0" x2="178.2" y2="261.1" stroke="rgb(0,0,0)"  stroke-width="2.0"/>
<line x1="178.2" y1="261.1" x2="154.8" y2="274.0" stroke="rgb(0,0,0)"  stroke-width="2.0"/>
<line x1="132.2" y1="273.9" x2="108.5" y2="260.2" stroke="rgb(0,0,0)"  stroke-width="2.0"/>
<line x1="75.3" y1="159.3" x2="110.0" y2="139.8" stroke="rgb(0,0,0)"  stroke-width="2.0"/>
<line x1="84.0" y1="162.7" x2="108.3" y2="149.0" stroke="rgb(0,0,0)"  stroke-width="2.0"/>
<line x1="110.0" y1="139.8" x2="144.5" y2="160.2" stroke="rgb(0,0,0)"  stroke-width="2.0"/>
<line x1="109.0" y1="220.1" x2="74.8" y2="199.2" stroke="rgb(0,0,0)"  stroke-width="2.0"/>
<line x1="107.6" y1="210.8" x2="83.6" y2="196.2" stroke="rgb(0,0,0)"  stroke-width="2.0"/>
<line x1="74.8" y1="199.2" x2="75.3" y2="159.3" stroke="rgb(0,0,0)"  stroke-width="2.0"/>
<line x1="156.7" y1="86.6" x2="180.3" y2="100.6" stroke="rgb(0,0,0)"  stroke-width="2.0"/>
<line x1="180.3" y1="100.6" x2="179.7" y2="140.7" stroke="rgb(0,0,0)"  stroke-width="2.0"/>
<line x1="110.0" y1="139.8" x2="110.6" y2="99.7" stroke="rgb(0,0,0)"  stroke-width="2.0"/>
<line x1="110.6" y1="99.7" x2="134.2" y2="86.4" stroke="rgb(0,0,0)"  stroke-width="2.0"/>
<text x="209.148344" y="89.082966" fill="rgb(255,12,12)"  stroke="rgb(255,12,12)" stroke-width="1" font-size="16" >O</text>
<text x="142.013087" y="48.000000" fill="rgb(102,102,102)"  stroke="rgb(102,102,102)" stroke-width="1" font-size="16" >CH</text>
<text x="166.013087" y="51.680000" fill="rgb(102,102,102)"  stroke="rgb(102,102,102)" stroke-width="1" font-size="13" >3</text>
<text x="139.549915" y="87.997318" fill="rgb(12,12,255)"  stroke="rgb(12,12,255)" stroke-width="1" font-size="16" >N</text>
<text x="70.156774" y="87.317292" fill="rgb(255,12,12)"  stroke="rgb(255,12,12)" stroke-width="1" font-size="16" >O</text>
<text x="34.000000" y="226.987746" fill="rgb(191,191,191)"  stroke="rgb(191,191,191)" stroke-width="1" font-size="16" >H</text>
<text x="67.692539" y="287.950677" fill="rgb(255,12,12)"  stroke="rgb(255,12,12)" stroke-width="1" font-size="16" >O</text>
<text x="117.065350" y="328.352944" fill="rgb(102,102,102)"  stroke="rgb(102,102,102)" stroke-width="1" font-size="16" >H</text>
<text x="129.065350" y="332.032944" fill="rgb(102,102,102)"  stroke="rgb(102,102,102)" stroke-width="1" font-size="13" >3</text>
<text x="135.565350" y="328.352944" fill="rgb(102,102,102)"  stroke="rgb(102,102,102)" stroke-width="1" font-size="16" >C</text>
<text x="137.410910" y="288.354437" fill="rgb(12,12,255)"  stroke="rgb(12,12,255)" stroke-width="1" font-size="16" >N</text>
<text x="206.486058" y="289.612295" fill="rgb(255,12,12)"  stroke="rgb(255,12,12)" stroke-width="1" font-size="16" >O</text>
<text x="276.407843" y="209.889042" fill="rgb(191,191,191)"  stroke="rgb(191,191,191)" stroke-width="1" font-size="16" >H</text>
<text x="346.997715" y="91.315447" fill="rgb(191,191,191)"  stroke="rgb(191,191,191)" stroke-width="1" font-size="16" >H</text>
<text x="278.539218" y="50.560366" fill="rgb(191,191,191)"  stroke="rgb(191,191,191)" stroke-width="1" font-size="16" >H</text>
</svg>
</g>
<text font-size="18.000000" fill ="black" font-family="sans-serif"
x="10.000000" y="20.000000" ></text>
</svg>
