<?xml version="1.0"?>
<svg version="1.1" id="topsvg"
xmlns="http://www.w3.org/2000/svg" xmlns:xlink="http://www.w3.org/1999/xlink"
xmlns:cml="http://www.xml-cml.org/schema" x="0" y="0" width="200px" height="200px" viewBox="0 0 100 100">
<title> - Open Babel Depiction</title>
<rect x="0" y="0" width="100" height="100" fill="white"/>
<g transform="translate(0,0)">
<svg width="100" height="100" x="0" y="0" viewBox="0 0 530.868 387.101"
font-family="sans-serif" stroke="rgb(0,0,0)" stroke-width="2"  stroke-linecap="round">
<line x1="273.8" y1="138.0" x2="312.9" y2="146.3" stroke="rgb(0,0,0)"  stroke-width="2.0"/>
<line x1="342.6" y1="119.6" x2="338.4" y2="79.8" stroke="rgb(0,0,0)"  stroke-width="2.0"/>
<line x1="338.4" y1="79.8" x2="335.6" y2="52.9" stroke="rgb(0,0,0)"  stroke-width="2.0"/>
<line x1="334.2" y1="80.2" x2="331.4" y2="53.4" stroke="rgb(0,0,0)"  stroke-width="2.0"/>
<line x1="342.6" y1="79.3" x2="339.8" y2="52.5" stroke="rgb(0,0,0)"  stroke-width="2.0"/>
<line x1="377.2" y1="139.6" x2="413.8" y2="123.3" stroke="rgb(0,0,0)"  stroke-width="2.0"/>
<line x1="413.8" y1="123.3" x2="438.5" y2="112.3" stroke="rgb(0,0,0)"  stroke-width="2.0"/>
<line x1="412.1" y1="119.5" x2="436.7" y2="108.5" stroke="rgb(0,0,0)"  stroke-width="2.0"/>
<line x1="415.5" y1="127.1" x2="440.2" y2="116.1" stroke="rgb(0,0,0)"  stroke-width="2.0"/>
<line x1="368.9" y1="178.7" x2="395.7" y2="208.4" stroke="rgb(0,0,0)"  stroke-width="2.0"/>
<line x1="451.7" y1="240.8" x2="478.2" y2="246.4" stroke="rgb(0,0,0)"  stroke-width="2.0"/>
<line x1="422.0" y1="267.5" x2="426.2" y2="307.3" stroke="rgb(0,0,0)"  stroke-width="2.0"/>
<line x1="426.2" y1="307.3" x2="429.0" y2="334.2" stroke="rgb(0,0,0)"  stroke-width="2.0"/>
<line x1="430.4" y1="306.9" x2="433.2" y2="333.7" stroke="rgb(0,0,0)"  stroke-width="2.0"/>
<line x1="422.0" y1="307.8" x2="424.8" y2="334.6" stroke="rgb(0,0,0)"  stroke-width="2.0"/>
<line x1="387.4" y1="247.5" x2="350.8" y2="263.8" stroke="rgb(0,0,0)"  stroke-width="2.0"/>
<line x1="350.8" y1="263.8" x2="326.2" y2="274.8" stroke="rgb(0,0,0)"  stroke-width="2.0"/>
<line x1="352.5" y1="267.6" x2="327.9" y2="278.6" stroke="rgb(0,0,0)"  stroke-width="2.0"/>
<line x1="349.1" y1="260.0" x2="324.5" y2="271.0" stroke="rgb(0,0,0)"  stroke-width="2.0"/>
<line x1="245.5" y1="202.2" x2="268.9" y2="215.7" stroke="rgb(0,0,0)"  stroke-width="2.0"/>
<line x1="242.5" y1="207.4" x2="265.9" y2="220.9" stroke="rgb(0,0,0)"  stroke-width="2.0"/>
<line x1="201.1" y1="263.9" x2="227.8" y2="293.6" stroke="rgb(0,0,0)"  stroke-width="2.0"/>
<line x1="230.7" y1="294.6" x2="222.3" y2="320.2" stroke="rgb(0,0,0)"  stroke-width="2.0"/>
<line x1="225.0" y1="292.7" x2="216.6" y2="318.4" stroke="rgb(0,0,0)"  stroke-width="2.0"/>
<line x1="227.8" y1="293.6" x2="254.2" y2="288.0" stroke="rgb(0,0,0)"  stroke-width="2.0"/>
<line x1="271.0" y1="272.9" x2="275.3" y2="259.6" stroke="rgb(0,0,0)"  stroke-width="2.0"/>
<line x1="145.0" y1="231.5" x2="105.9" y2="223.2" stroke="rgb(0,0,0)"  stroke-width="2.0"/>
<line x1="103.0" y1="224.2" x2="94.7" y2="198.5" stroke="rgb(0,0,0)"  stroke-width="2.0"/>
<line x1="108.7" y1="222.3" x2="100.4" y2="196.6" stroke="rgb(0,0,0)"  stroke-width="2.0"/>
<line x1="105.9" y1="223.2" x2="87.8" y2="243.3" stroke="rgb(0,0,0)"  stroke-width="2.0"/>
<line x1="66.4" y1="250.2" x2="52.7" y2="247.3" stroke="rgb(0,0,0)"  stroke-width="2.0"/>
<line x1="173.2" y1="167.4" x2="149.9" y2="153.9" stroke="rgb(0,0,0)"  stroke-width="2.0"/>
<line x1="176.2" y1="162.2" x2="152.9" y2="148.7" stroke="rgb(0,0,0)"  stroke-width="2.0"/>
<line x1="217.7" y1="105.6" x2="199.6" y2="85.6" stroke="rgb(0,0,0)"  stroke-width="2.0"/>
<line x1="377.2" y1="139.6" x2="368.9" y2="178.7" stroke="rgb(0,0,0)"  stroke-width="2.0"/>
<line x1="369.0" y1="143.9" x2="363.1" y2="171.3" stroke="rgb(0,0,0)"  stroke-width="2.0"/>
<line x1="368.9" y1="178.7" x2="342.1" y2="181.5" stroke="rgb(0,0,0)"  stroke-width="2.0"/>
<line x1="323.9" y1="171.0" x2="312.9" y2="146.3" stroke="rgb(0,0,0)"  stroke-width="2.0"/>
<line x1="312.9" y1="146.3" x2="342.6" y2="119.6" stroke="rgb(0,0,0)"  stroke-width="2.0"/>
<line x1="322.2" y1="147.7" x2="343.0" y2="128.9" stroke="rgb(0,0,0)"  stroke-width="2.0"/>
<line x1="342.6" y1="119.6" x2="377.2" y2="139.6" stroke="rgb(0,0,0)"  stroke-width="2.0"/>
<line x1="451.7" y1="240.8" x2="422.0" y2="267.5" stroke="rgb(0,0,0)"  stroke-width="2.0"/>
<line x1="442.5" y1="239.4" x2="421.7" y2="258.2" stroke="rgb(0,0,0)"  stroke-width="2.0"/>
<line x1="422.0" y1="267.5" x2="387.4" y2="247.5" stroke="rgb(0,0,0)"  stroke-width="2.0"/>
<line x1="387.4" y1="247.5" x2="395.7" y2="208.4" stroke="rgb(0,0,0)"  stroke-width="2.0"/>
<line x1="395.7" y1="243.2" x2="401.5" y2="215.8" stroke="rgb(0,0,0)"  stroke-width="2.0"/>
<line x1="395.7" y1="208.4" x2="422.5" y2="205.6" stroke="rgb(0,0,0)"  stroke-width="2.0"/>
<line x1="440.8" y1="216.1" x2="451.7" y2="240.8" stroke="rgb(0,0,0)"  stroke-width="2.0"/>
<line x1="156.0" y1="256.2" x2="145.0" y2="231.5" stroke="rgb(0,0,0)"  stroke-width="2.0"/>
<line x1="145.0" y1="231.5" x2="174.7" y2="204.8" stroke="rgb(0,0,0)"  stroke-width="2.0"/>
<line x1="154.3" y1="232.9" x2="175.1" y2="214.1" stroke="rgb(0,0,0)"  stroke-width="2.0"/>
<line x1="174.7" y1="204.8" x2="209.4" y2="224.8" stroke="rgb(0,0,0)"  stroke-width="2.0"/>
<line x1="209.4" y1="224.8" x2="201.1" y2="263.9" stroke="rgb(0,0,0)"  stroke-width="2.0"/>
<line x1="201.1" y1="229.1" x2="195.3" y2="256.5" stroke="rgb(0,0,0)"  stroke-width="2.0"/>
<line x1="201.1" y1="263.9" x2="174.2" y2="266.7" stroke="rgb(0,0,0)"  stroke-width="2.0"/>
<line x1="209.4" y1="144.8" x2="217.7" y2="105.6" stroke="rgb(0,0,0)"  stroke-width="2.0"/>
<line x1="217.7" y1="140.4" x2="223.5" y2="113.0" stroke="rgb(0,0,0)"  stroke-width="2.0"/>
<line x1="217.7" y1="105.6" x2="244.6" y2="102.8" stroke="rgb(0,0,0)"  stroke-width="2.0"/>
<line x1="262.8" y1="113.3" x2="273.8" y2="138.0" stroke="rgb(0,0,0)"  stroke-width="2.0"/>
<line x1="273.8" y1="138.0" x2="244.0" y2="164.8" stroke="rgb(0,0,0)"  stroke-width="2.0"/>
<line x1="264.5" y1="136.7" x2="243.7" y2="155.4" stroke="rgb(0,0,0)"  stroke-width="2.0"/>
<line x1="244.0" y1="164.8" x2="209.4" y2="144.8" stroke="rgb(0,0,0)"  stroke-width="2.0"/>
<line x1="244.0" y1="204.8" x2="209.4" y2="224.8" stroke="rgb(0,0,0)"  stroke-width="2.0"/>
<line x1="174.7" y1="204.8" x2="174.7" y2="164.8" stroke="rgb(0,0,0)"  stroke-width="2.0"/>
<line x1="174.7" y1="164.8" x2="209.4" y2="144.8" stroke="rgb(0,0,0)"  stroke-width="2.0"/>
<line x1="244.0" y1="164.8" x2="244.0" y2="204.8" stroke="rgb(0,0,0)"  stroke-width="2.0"/>
<text x="87.530449" y="193.182228" fill="rgb(255,12,12)"  stroke="rgb(255,12,12)" stroke-width="1" font-size="16" >O</text>
<text x="272.665874" y="232.775733" fill="rgb(255,12,12)"  stroke="rgb(255,12,12)" stroke-width="1" font-size="16" >O</text>
<text x="209.471918" y="339.669690" fill="rgb(255,12,12)"  stroke="rgb(255,12,12)" stroke-width="1" font-size="16" >O</text>
<text x="260.958502" y="293.310962" fill="rgb(255,12,12)"  stroke="rgb(255,12,12)" stroke-width="1" font-size="16" >O</text>
<text x="275.319182" y="255.268701" fill="rgb(102,102,102)"  stroke="rgb(102,102,102)" stroke-width="1" font-size="16" >CH</text>
<text x="299.319182" y="258.948701" fill="rgb(102,102,102)"  stroke="rgb(102,102,102)" stroke-width="1" font-size="13" >3</text>
<text x="155.286498" y="276.082775" fill="rgb(178,178,0)"  stroke="rgb(178,178,0)" stroke-width="1" font-size="16" >S</text>
<text x="73.125904" y="260.950282" fill="rgb(255,12,12)"  stroke="rgb(255,12,12)" stroke-width="1" font-size="16" >O</text>
<text x="14.000000" y="252.633815" fill="rgb(102,102,102)"  stroke="rgb(102,102,102)" stroke-width="1" font-size="16" >H</text>
<text x="26.000000" y="256.313815" fill="rgb(102,102,102)"  stroke="rgb(102,102,102)" stroke-width="1" font-size="13" >3</text>
<text x="32.500000" y="252.633815" fill="rgb(102,102,102)"  stroke="rgb(102,102,102)" stroke-width="1" font-size="16" >C</text>
<text x="134.101809" y="152.775733" fill="rgb(255,12,12)"  stroke="rgb(255,12,12)" stroke-width="1" font-size="16" >O</text>
<text x="184.935085" y="83.924035" fill="rgb(191,191,191)"  stroke="rgb(191,191,191)" stroke-width="1" font-size="16" >H</text>
<text x="251.481185" y="109.468690" fill="rgb(178,178,0)"  stroke="rgb(178,178,0)" stroke-width="1" font-size="16" >S</text>
<text x="429.472996" y="212.232310" fill="rgb(178,178,0)"  stroke="rgb(178,178,0)" stroke-width="1" font-size="16" >S</text>
<text x="328.240071" y="48.000000" fill="rgb(12,12,255)"  stroke="rgb(12,12,255)" stroke-width="1" font-size="16" >N</text>
<text x="444.327000" y="115.022820" fill="rgb(12,12,255)"  stroke="rgb(12,12,255)" stroke-width="1" font-size="16" >N</text>
<text x="323.146020" y="190.868794" fill="rgb(178,178,0)"  stroke="rgb(178,178,0)" stroke-width="1" font-size="16" >S</text>
<text x="484.868366" y="257.090596" fill="rgb(191,191,191)"  stroke="rgb(191,191,191)" stroke-width="1" font-size="16" >H</text>
<text x="424.378946" y="355.101104" fill="rgb(12,12,255)"  stroke="rgb(12,12,255)" stroke-width="1" font-size="16" >N</text>
<text x="308.292016" y="288.078284" fill="rgb(12,12,255)"  stroke="rgb(12,12,255)" stroke-width="1" font-size="16" >N</text>
</svg>
</g>
<text font-size="18.000000" fill ="black" font-family="sans-serif"
x="10.000000" y="20.000000" ></text>
</svg>
