<?xml version="1.0"?>
<svg version="1.1" id="topsvg"
xmlns="http://www.w3.org/2000/svg" xmlns:xlink="http://www.w3.org/1999/xlink"
xmlns:cml="http://www.xml-cml.org/schema" x="0" y="0" width="200px" height="200px" viewBox="0 0 100 100">
<title> - Open Babel Depiction</title>
<rect x="0" y="0" width="100" height="100" fill="white"/>
<g transform="translate(0,0)">
<svg width="100" height="100" x="0" y="0" viewBox="0 0 451.287 516.642"
font-family="sans-serif" stroke="rgb(0,0,0)" stroke-width="2"  stroke-linecap="round">
<line x1="182.7" y1="210.1" x2="161.9" y2="246.1" stroke="rgb(0,0,0)"  stroke-width="2.0"/>
<line x1="120.6" y1="250.5" x2="92.8" y2="219.6" stroke="rgb(0,0,0)"  stroke-width="2.0"/>
<line x1="92.8" y1="219.6" x2="73.7" y2="198.4" stroke="rgb(0,0,0)"  stroke-width="2.0"/>
<line x1="89.7" y1="222.4" x2="70.6" y2="201.2" stroke="rgb(0,0,0)"  stroke-width="2.0"/>
<line x1="95.9" y1="216.8" x2="76.8" y2="195.6" stroke="rgb(0,0,0)"  stroke-width="2.0"/>
<line x1="76.0" y1="311.9" x2="51.3" y2="297.6" stroke="rgb(0,0,0)"  stroke-width="2.0"/>
<line x1="62.0" y1="419.2" x2="47.7" y2="444.0" stroke="rgb(0,0,0)"  stroke-width="2.0"/>
<line x1="103.3" y1="414.9" x2="131.1" y2="445.8" stroke="rgb(0,0,0)"  stroke-width="2.0"/>
<line x1="131.1" y1="445.8" x2="150.3" y2="467.0" stroke="rgb(0,0,0)"  stroke-width="2.0"/>
<line x1="134.3" y1="442.9" x2="153.4" y2="464.2" stroke="rgb(0,0,0)"  stroke-width="2.0"/>
<line x1="128.0" y1="448.6" x2="147.1" y2="469.8" stroke="rgb(0,0,0)"  stroke-width="2.0"/>
<line x1="148.0" y1="353.4" x2="172.7" y2="367.7" stroke="rgb(0,0,0)"  stroke-width="2.0"/>
<line x1="289.2" y1="172.6" x2="303.5" y2="197.4" stroke="rgb(0,0,0)"  stroke-width="2.0"/>
<line x1="284.0" y1="175.6" x2="298.3" y2="200.4" stroke="rgb(0,0,0)"  stroke-width="2.0"/>
<line x1="320.4" y1="138.2" x2="349.0" y2="138.2" stroke="rgb(0,0,0)"  stroke-width="2.0"/>
<line x1="346.4" y1="136.7" x2="360.6" y2="111.9" stroke="rgb(0,0,0)"  stroke-width="2.0"/>
<line x1="351.6" y1="139.7" x2="365.8" y2="114.9" stroke="rgb(0,0,0)"  stroke-width="2.0"/>
<line x1="349.0" y1="138.2" x2="363.2" y2="162.9" stroke="rgb(0,0,0)"  stroke-width="2.0"/>
<line x1="382.7" y1="174.1" x2="398.3" y2="174.1" stroke="rgb(0,0,0)"  stroke-width="2.0"/>
<line x1="284.0" y1="100.7" x2="298.3" y2="75.9" stroke="rgb(0,0,0)"  stroke-width="2.0"/>
<line x1="289.2" y1="103.7" x2="303.5" y2="78.9" stroke="rgb(0,0,0)"  stroke-width="2.0"/>
<line x1="223.3" y1="78.7" x2="233.7" y2="52.1" stroke="rgb(0,0,0)"  stroke-width="2.0"/>
<line x1="140.6" y1="110.7" x2="126.8" y2="85.7" stroke="rgb(0,0,0)"  stroke-width="2.0"/>
<line x1="145.9" y1="107.8" x2="132.1" y2="82.8" stroke="rgb(0,0,0)"  stroke-width="2.0"/>
<line x1="113.0" y1="131.6" x2="84.9" y2="126.8" stroke="rgb(0,0,0)"  stroke-width="2.0"/>
<line x1="87.2" y1="128.7" x2="69.0" y2="150.7" stroke="rgb(0,0,0)"  stroke-width="2.0"/>
<line x1="82.6" y1="124.8" x2="64.4" y2="146.8" stroke="rgb(0,0,0)"  stroke-width="2.0"/>
<line x1="84.9" y1="126.8" x2="75.0" y2="100.0" stroke="rgb(0,0,0)"  stroke-width="2.0"/>
<line x1="78.7" y1="77.8" x2="88.7" y2="65.8" stroke="rgb(0,0,0)"  stroke-width="2.0"/>
<line x1="136.2" y1="164.9" x2="114.9" y2="183.9" stroke="rgb(0,0,0)"  stroke-width="2.0"/>
<line x1="132.2" y1="160.4" x2="110.9" y2="179.4" stroke="rgb(0,0,0)"  stroke-width="2.0"/>
<line x1="112.0" y1="291.1" x2="148.0" y2="311.9" stroke="rgb(0,0,0)"  stroke-width="2.0"/>
<line x1="148.0" y1="311.9" x2="169.2" y2="292.8" stroke="rgb(0,0,0)"  stroke-width="2.0"/>
<line x1="173.6" y1="272.2" x2="161.9" y2="246.1" stroke="rgb(0,0,0)"  stroke-width="2.0"/>
<line x1="161.9" y1="246.1" x2="120.6" y2="250.5" stroke="rgb(0,0,0)"  stroke-width="2.0"/>
<line x1="156.7" y1="253.9" x2="127.3" y2="257.0" stroke="rgb(0,0,0)"  stroke-width="2.0"/>
<line x1="120.6" y1="250.5" x2="112.0" y2="291.1" stroke="rgb(0,0,0)"  stroke-width="2.0"/>
<line x1="62.0" y1="419.2" x2="103.3" y2="414.9" stroke="rgb(0,0,0)"  stroke-width="2.0"/>
<line x1="67.2" y1="411.4" x2="96.6" y2="408.3" stroke="rgb(0,0,0)"  stroke-width="2.0"/>
<line x1="103.3" y1="414.9" x2="112.0" y2="374.2" stroke="rgb(0,0,0)"  stroke-width="2.0"/>
<line x1="112.0" y1="374.2" x2="76.0" y2="353.4" stroke="rgb(0,0,0)"  stroke-width="2.0"/>
<line x1="103.2" y1="377.5" x2="77.6" y2="362.7" stroke="rgb(0,0,0)"  stroke-width="2.0"/>
<line x1="76.0" y1="353.4" x2="54.8" y2="372.6" stroke="rgb(0,0,0)"  stroke-width="2.0"/>
<line x1="50.4" y1="393.1" x2="62.0" y2="419.2" stroke="rgb(0,0,0)"  stroke-width="2.0"/>
<line x1="112.0" y1="374.2" x2="148.0" y2="353.4" stroke="rgb(0,0,0)"  stroke-width="2.0"/>
<line x1="148.0" y1="353.4" x2="148.0" y2="311.9" stroke="rgb(0,0,0)"  stroke-width="2.0"/>
<line x1="140.8" y1="347.4" x2="140.8" y2="317.9" stroke="rgb(0,0,0)"  stroke-width="2.0"/>
<line x1="112.0" y1="291.1" x2="76.0" y2="311.9" stroke="rgb(0,0,0)"  stroke-width="2.0"/>
<line x1="110.4" y1="300.4" x2="84.8" y2="315.1" stroke="rgb(0,0,0)"  stroke-width="2.0"/>
<line x1="76.0" y1="311.9" x2="76.0" y2="353.4" stroke="rgb(0,0,0)"  stroke-width="2.0"/>
<line x1="245.1" y1="174.1" x2="224.3" y2="138.2" stroke="rgb(0,0,0)"  stroke-width="2.0"/>
<line x1="235.8" y1="172.5" x2="221.0" y2="147.0" stroke="rgb(0,0,0)"  stroke-width="2.0"/>
<line x1="224.3" y1="138.2" x2="182.7" y2="138.2" stroke="rgb(0,0,0)"  stroke-width="2.0"/>
<line x1="182.7" y1="138.2" x2="161.9" y2="174.1" stroke="rgb(0,0,0)"  stroke-width="2.0"/>
<line x1="186.0" y1="147.0" x2="171.2" y2="172.5" stroke="rgb(0,0,0)"  stroke-width="2.0"/>
<line x1="161.9" y1="174.1" x2="182.7" y2="210.1" stroke="rgb(0,0,0)"  stroke-width="2.0"/>
<line x1="182.7" y1="210.1" x2="224.3" y2="210.1" stroke="rgb(0,0,0)"  stroke-width="2.0"/>
<line x1="188.7" y1="202.9" x2="218.3" y2="202.9" stroke="rgb(0,0,0)"  stroke-width="2.0"/>
<line x1="224.3" y1="210.1" x2="245.1" y2="174.1" stroke="rgb(0,0,0)"  stroke-width="2.0"/>
<line x1="286.6" y1="102.2" x2="245.1" y2="102.2" stroke="rgb(0,0,0)"  stroke-width="2.0"/>
<line x1="245.1" y1="102.2" x2="224.3" y2="138.2" stroke="rgb(0,0,0)"  stroke-width="2.0"/>
<line x1="245.1" y1="174.1" x2="286.6" y2="174.1" stroke="rgb(0,0,0)"  stroke-width="2.0"/>
<line x1="286.6" y1="174.1" x2="300.9" y2="149.4" stroke="rgb(0,0,0)"  stroke-width="2.0"/>
<line x1="300.9" y1="126.9" x2="286.6" y2="102.2" stroke="rgb(0,0,0)"  stroke-width="2.0"/>
<line x1="191.3" y1="81.1" x2="173.3" y2="107.5" stroke="rgb(0,0,0)"  stroke-width="2.0"/>
<line x1="193.9" y1="90.1" x2="182.6" y2="106.6" stroke="rgb(0,0,0)"  stroke-width="2.0"/>
<line x1="173.3" y1="107.5" x2="182.7" y2="138.2" stroke="rgb(0,0,0)"  stroke-width="2.0"/>
<line x1="245.1" y1="102.2" x2="223.3" y2="78.7" stroke="rgb(0,0,0)"  stroke-width="2.0"/>
<line x1="235.7" y1="102.7" x2="222.1" y2="88.0" stroke="rgb(0,0,0)"  stroke-width="2.0"/>
<line x1="223.3" y1="78.7" x2="191.3" y2="81.1" stroke="rgb(0,0,0)"  stroke-width="2.0"/>
<line x1="129.5" y1="146.2" x2="134.2" y2="162.6" stroke="rgb(0,0,0)"  stroke-width="2.0"/>
<line x1="134.2" y1="162.6" x2="161.9" y2="174.1" stroke="rgb(0,0,0)"  stroke-width="2.0"/>
<line x1="173.3" y1="107.5" x2="143.3" y2="109.2" stroke="rgb(0,0,0)"  stroke-width="2.0"/>
<line x1="143.3" y1="109.2" x2="133.4" y2="123.1" stroke="rgb(0,0,0)"  stroke-width="2.0"/>
<text x="363.730230" y="110.166016" fill="rgb(255,12,12)"  stroke="rgb(255,12,12)" stroke-width="1" font-size="16" >O</text>
<text x="363.730230" y="182.144166" fill="rgb(255,12,12)"  stroke="rgb(255,12,12)" stroke-width="1" font-size="16" >O</text>
<text x="407.286834" y="182.144166" fill="rgb(102,102,102)"  stroke="rgb(102,102,102)" stroke-width="1" font-size="16" >CH</text>
<text x="431.286834" y="185.824166" fill="rgb(102,102,102)"  stroke="rgb(102,102,102)" stroke-width="1" font-size="13" >3</text>
<text x="301.395323" y="74.176941" fill="rgb(255,12,12)"  stroke="rgb(255,12,12)" stroke-width="1" font-size="16" >O</text>
<text x="232.454578" y="48.000000" fill="rgb(191,191,191)"  stroke="rgb(191,191,191)" stroke-width="1" font-size="16" >H</text>
<text x="301.395323" y="146.155091" fill="rgb(12,12,255)"  stroke="rgb(12,12,255)" stroke-width="1" font-size="16" >N</text>
<text x="117.173819" y="80.844326" fill="rgb(255,12,12)"  stroke="rgb(255,12,12)" stroke-width="1" font-size="16" >O</text>
<text x="119.858981" y="141.736907" fill="rgb(12,12,255)"  stroke="rgb(12,12,255)" stroke-width="1" font-size="16" >N</text>
<text x="52.368862" y="166.755660" fill="rgb(255,12,12)"  stroke="rgb(255,12,12)" stroke-width="1" font-size="16" >O</text>
<text x="64.447047" y="95.798126" fill="rgb(255,12,12)"  stroke="rgb(255,12,12)" stroke-width="1" font-size="16" >O</text>
<text x="92.969814" y="63.806031" fill="rgb(102,102,102)"  stroke="rgb(102,102,102)" stroke-width="1" font-size="16" >CH</text>
<text x="116.969814" y="67.486031" fill="rgb(102,102,102)"  stroke="rgb(102,102,102)" stroke-width="1" font-size="13" >3</text>
<text x="97.178835" y="198.311880" fill="rgb(255,12,12)"  stroke="rgb(255,12,12)" stroke-width="1" font-size="16" >O</text>
<text x="59.004662" y="196.701013" fill="rgb(12,12,255)"  stroke="rgb(12,12,255)" stroke-width="1" font-size="16" >N</text>
<text x="14.000000" y="299.114657" fill="rgb(102,102,102)"  stroke="rgb(102,102,102)" stroke-width="1" font-size="16" >H</text>
<text x="26.000000" y="302.794657" fill="rgb(102,102,102)"  stroke="rgb(102,102,102)" stroke-width="1" font-size="13" >3</text>
<text x="32.500000" y="299.114657" fill="rgb(102,102,102)"  stroke="rgb(102,102,102)" stroke-width="1" font-size="16" >C</text>
<text x="39.106500" y="389.256360" fill="rgb(178,178,0)"  stroke="rgb(178,178,0)" stroke-width="1" font-size="16" >S</text>
<text x="35.230791" y="463.209282" fill="rgb(191,191,191)"  stroke="rgb(191,191,191)" stroke-width="1" font-size="16" >H</text>
<text x="152.951638" y="484.641510" fill="rgb(12,12,255)"  stroke="rgb(12,12,255)" stroke-width="1" font-size="16" >N</text>
<text x="179.956301" y="382.227866" fill="rgb(102,102,102)"  stroke="rgb(102,102,102)" stroke-width="1" font-size="16" >CH</text>
<text x="203.956301" y="385.907866" fill="rgb(102,102,102)"  stroke="rgb(102,102,102)" stroke-width="1" font-size="13" >3</text>
<text x="172.849801" y="292.086164" fill="rgb(178,178,0)"  stroke="rgb(178,178,0)" stroke-width="1" font-size="16" >S</text>
<text x="301.395323" y="218.133241" fill="rgb(255,12,12)"  stroke="rgb(255,12,12)" stroke-width="1" font-size="16" >O</text>
</svg>
</g>
<text font-size="18.000000" fill ="black" font-family="sans-serif"
x="10.000000" y="20.000000" ></text>
</svg>
