<?xml version="1.0"?>
<svg version="1.1" id="topsvg"
xmlns="http://www.w3.org/2000/svg" xmlns:xlink="http://www.w3.org/1999/xlink"
xmlns:cml="http://www.xml-cml.org/schema" x="0" y="0" width="200px" height="200px" viewBox="0 0 100 100">
<title> - Open Babel Depiction</title>
<rect x="0" y="0" width="100" height="100" fill="white"/>
<g transform="translate(0,0)">
<svg width="100" height="100" x="0" y="0" viewBox="0 0 432.266 405.569"
font-family="sans-serif" stroke="rgb(0,0,0)" stroke-width="2"  stroke-linecap="round">
<line x1="205.2" y1="139.0" x2="186.0" y2="172.3" stroke="rgb(0,0,0)"  stroke-width="2.0"/>
<line x1="147.8" y1="176.3" x2="130.8" y2="157.4" stroke="rgb(0,0,0)"  stroke-width="2.0"/>
<line x1="106.5" y1="233.1" x2="73.3" y2="213.9" stroke="rgb(0,0,0)"  stroke-width="2.0"/>
<line x1="74.8" y1="216.5" x2="52.8" y2="229.2" stroke="rgb(0,0,0)"  stroke-width="2.0"/>
<line x1="71.8" y1="211.3" x2="49.8" y2="224.0" stroke="rgb(0,0,0)"  stroke-width="2.0"/>
<line x1="73.3" y1="213.9" x2="73.3" y2="188.5" stroke="rgb(0,0,0)"  stroke-width="2.0"/>
<line x1="84.5" y1="169.0" x2="95.3" y2="162.7" stroke="rgb(0,0,0)"  stroke-width="2.0"/>
<line x1="93.6" y1="332.3" x2="80.9" y2="354.3" stroke="rgb(0,0,0)"  stroke-width="2.0"/>
<line x1="131.8" y1="328.3" x2="148.8" y2="347.2" stroke="rgb(0,0,0)"  stroke-width="2.0"/>
<line x1="173.1" y1="271.5" x2="206.4" y2="290.7" stroke="rgb(0,0,0)"  stroke-width="2.0"/>
<line x1="204.9" y1="288.1" x2="226.9" y2="275.4" stroke="rgb(0,0,0)"  stroke-width="2.0"/>
<line x1="207.9" y1="293.3" x2="229.9" y2="280.6" stroke="rgb(0,0,0)"  stroke-width="2.0"/>
<line x1="206.4" y1="290.7" x2="206.4" y2="316.1" stroke="rgb(0,0,0)"  stroke-width="2.0"/>
<line x1="217.6" y1="335.6" x2="228.4" y2="341.8" stroke="rgb(0,0,0)"  stroke-width="2.0"/>
<line x1="279.7" y1="153.9" x2="282.3" y2="179.2" stroke="rgb(0,0,0)"  stroke-width="2.0"/>
<line x1="273.7" y1="154.5" x2="276.4" y2="179.8" stroke="rgb(0,0,0)"  stroke-width="2.0"/>
<line x1="318.0" y1="131.2" x2="342.8" y2="136.5" stroke="rgb(0,0,0)"  stroke-width="2.0"/>
<line x1="340.6" y1="134.5" x2="357.6" y2="115.6" stroke="rgb(0,0,0)"  stroke-width="2.0"/>
<line x1="345.0" y1="138.5" x2="362.1" y2="119.6" stroke="rgb(0,0,0)"  stroke-width="2.0"/>
<line x1="342.8" y1="136.5" x2="350.7" y2="160.7" stroke="rgb(0,0,0)"  stroke-width="2.0"/>
<line x1="367.4" y1="175.7" x2="379.5" y2="178.3" stroke="rgb(0,0,0)"  stroke-width="2.0"/>
<line x1="289.6" y1="93.4" x2="302.3" y2="71.4" stroke="rgb(0,0,0)"  stroke-width="2.0"/>
<line x1="215.2" y1="78.5" x2="212.5" y2="53.2" stroke="rgb(0,0,0)"  stroke-width="2.0"/>
<line x1="221.1" y1="77.9" x2="218.5" y2="52.6" stroke="rgb(0,0,0)"  stroke-width="2.0"/>
<line x1="197.6" y1="114.2" x2="258.0" y2="191.6" stroke="rgb(0,0,0)"  stroke-width="2.0"/>
<line x1="256.5" y1="189.0" x2="278.5" y2="176.3" stroke="rgb(0,0,0)"  stroke-width="2.0"/>
<line x1="259.5" y1="194.2" x2="281.5" y2="181.5" stroke="rgb(0,0,0)"  stroke-width="2.0"/>
<line x1="258.0" y1="191.6" x2="236.0" y2="178.9" stroke="rgb(0,0,0)"  stroke-width="2.0"/>
<line x1="213.5" y1="178.9" x2="202.7" y2="185.1" stroke="rgb(0,0,0)"  stroke-width="2.0"/>
<line x1="139.8" y1="213.9" x2="173.1" y2="233.1" stroke="rgb(0,0,0)"  stroke-width="2.0"/>
<line x1="173.1" y1="233.1" x2="192.0" y2="216.1" stroke="rgb(0,0,0)"  stroke-width="2.0"/>
<line x1="196.3" y1="195.5" x2="186.0" y2="172.3" stroke="rgb(0,0,0)"  stroke-width="2.0"/>
<line x1="186.0" y1="172.3" x2="147.8" y2="176.3" stroke="rgb(0,0,0)"  stroke-width="2.0"/>
<line x1="180.8" y1="180.1" x2="154.5" y2="182.8" stroke="rgb(0,0,0)"  stroke-width="2.0"/>
<line x1="147.8" y1="176.3" x2="139.8" y2="213.9" stroke="rgb(0,0,0)"  stroke-width="2.0"/>
<line x1="93.6" y1="332.3" x2="131.8" y2="328.3" stroke="rgb(0,0,0)"  stroke-width="2.0"/>
<line x1="98.8" y1="324.5" x2="125.1" y2="321.8" stroke="rgb(0,0,0)"  stroke-width="2.0"/>
<line x1="131.8" y1="328.3" x2="139.8" y2="290.7" stroke="rgb(0,0,0)"  stroke-width="2.0"/>
<line x1="139.8" y1="290.7" x2="106.5" y2="271.5" stroke="rgb(0,0,0)"  stroke-width="2.0"/>
<line x1="131.0" y1="293.9" x2="108.1" y2="280.7" stroke="rgb(0,0,0)"  stroke-width="2.0"/>
<line x1="106.5" y1="271.5" x2="87.7" y2="288.5" stroke="rgb(0,0,0)"  stroke-width="2.0"/>
<line x1="83.3" y1="309.1" x2="93.6" y2="332.3" stroke="rgb(0,0,0)"  stroke-width="2.0"/>
<line x1="276.7" y1="154.2" x2="295.6" y2="137.2" stroke="rgb(0,0,0)"  stroke-width="2.0"/>
<line x1="300.0" y1="116.6" x2="289.6" y2="93.4" stroke="rgb(0,0,0)"  stroke-width="2.0"/>
<line x1="289.6" y1="93.4" x2="251.4" y2="97.4" stroke="rgb(0,0,0)"  stroke-width="2.0"/>
<line x1="284.4" y1="101.2" x2="258.1" y2="103.9" stroke="rgb(0,0,0)"  stroke-width="2.0"/>
<line x1="251.4" y1="97.4" x2="243.4" y2="135.0" stroke="rgb(0,0,0)"  stroke-width="2.0"/>
<line x1="243.4" y1="135.0" x2="276.7" y2="154.2" stroke="rgb(0,0,0)"  stroke-width="2.0"/>
<line x1="251.4" y1="97.4" x2="218.1" y2="78.2" stroke="rgb(0,0,0)"  stroke-width="2.0"/>
<line x1="218.1" y1="78.2" x2="199.2" y2="95.2" stroke="rgb(0,0,0)"  stroke-width="2.0"/>
<line x1="194.9" y1="115.8" x2="205.2" y2="139.0" stroke="rgb(0,0,0)"  stroke-width="2.0"/>
<line x1="205.2" y1="139.0" x2="243.4" y2="135.0" stroke="rgb(0,0,0)"  stroke-width="2.0"/>
<line x1="210.4" y1="131.2" x2="236.7" y2="128.5" stroke="rgb(0,0,0)"  stroke-width="2.0"/>
<line x1="139.8" y1="290.7" x2="173.1" y2="271.5" stroke="rgb(0,0,0)"  stroke-width="2.0"/>
<line x1="173.1" y1="271.5" x2="173.1" y2="233.1" stroke="rgb(0,0,0)"  stroke-width="2.0"/>
<line x1="165.9" y1="265.5" x2="165.9" y2="239.1" stroke="rgb(0,0,0)"  stroke-width="2.0"/>
<line x1="139.8" y1="213.9" x2="106.5" y2="233.1" stroke="rgb(0,0,0)"  stroke-width="2.0"/>
<line x1="138.2" y1="223.1" x2="115.3" y2="236.3" stroke="rgb(0,0,0)"  stroke-width="2.0"/>
<line x1="106.5" y1="233.1" x2="106.5" y2="271.5" stroke="rgb(0,0,0)"  stroke-width="2.0"/>
<text x="195.630084" y="215.374296" fill="rgb(178,178,0)"  stroke="rgb(178,178,0)" stroke-width="1" font-size="16" >S</text>
<text x="274.705444" y="200.407872" fill="rgb(255,12,12)"  stroke="rgb(255,12,12)" stroke-width="1" font-size="16" >O</text>
<text x="299.239214" y="136.495216" fill="rgb(12,12,255)"  stroke="rgb(12,12,255)" stroke-width="1" font-size="16" >N</text>
<text x="362.522817" y="115.933127" fill="rgb(255,12,12)"  stroke="rgb(255,12,12)" stroke-width="1" font-size="16" >O</text>
<text x="348.688307" y="181.019380" fill="rgb(255,12,12)"  stroke="rgb(255,12,12)" stroke-width="1" font-size="16" >O</text>
<text x="388.265872" y="189.006738" fill="rgb(102,102,102)"  stroke="rgb(102,102,102)" stroke-width="1" font-size="16" >CH</text>
<text x="412.265872" y="192.686738" fill="rgb(102,102,102)"  stroke="rgb(102,102,102)" stroke-width="1" font-size="13" >3</text>
<text x="235.620955" y="356.331546" fill="rgb(102,102,102)"  stroke="rgb(102,102,102)" stroke-width="1" font-size="16" >CH</text>
<text x="259.620955" y="360.011546" fill="rgb(102,102,102)"  stroke="rgb(102,102,102)" stroke-width="1" font-size="13" >3</text>
<text x="302.822118" y="68.129317" fill="rgb(191,191,191)"  stroke="rgb(191,191,191)" stroke-width="1" font-size="16" >H</text>
<text x="208.121129" y="48.000000" fill="rgb(255,12,12)"  stroke="rgb(255,12,12)" stroke-width="1" font-size="16" >O</text>
<text x="183.587359" y="111.912656" fill="rgb(12,12,255)"  stroke="rgb(12,12,255)" stroke-width="1" font-size="16" >N</text>
<text x="285.294374" y="180.390573" fill="rgb(255,12,12)"  stroke="rgb(255,12,12)" stroke-width="1" font-size="16" >O</text>
<text x="218.754056" y="180.390573" fill="rgb(255,12,12)"  stroke="rgb(255,12,12)" stroke-width="1" font-size="16" >O</text>
<text x="165.483897" y="199.599108" fill="rgb(102,102,102)"  stroke="rgb(102,102,102)" stroke-width="1" font-size="16" >H</text>
<text x="177.483897" y="203.279108" fill="rgb(102,102,102)"  stroke="rgb(102,102,102)" stroke-width="1" font-size="13" >3</text>
<text x="183.983897" y="199.599108" fill="rgb(102,102,102)"  stroke="rgb(102,102,102)" stroke-width="1" font-size="16" >C</text>
<text x="71.990871" y="305.203442" fill="rgb(178,178,0)"  stroke="rgb(178,178,0)" stroke-width="1" font-size="16" >S</text>
<text x="104.091798" y="155.744786" fill="rgb(30,239,30)"  stroke="rgb(30,239,30)" stroke-width="1" font-size="16" >Cl</text>
<text x="34.000000" y="241.080334" fill="rgb(255,12,12)"  stroke="rgb(255,12,12)" stroke-width="1" font-size="16" >O</text>
<text x="67.270159" y="183.454728" fill="rgb(255,12,12)"  stroke="rgb(255,12,12)" stroke-width="1" font-size="16" >O</text>
<text x="102.540318" y="164.246192" fill="rgb(102,102,102)"  stroke="rgb(102,102,102)" stroke-width="1" font-size="16" >CH</text>
<text x="126.540318" y="167.926192" fill="rgb(102,102,102)"  stroke="rgb(102,102,102)" stroke-width="1" font-size="13" >3</text>
<text x="68.407966" y="373.569342" fill="rgb(191,191,191)"  stroke="rgb(191,191,191)" stroke-width="1" font-size="16" >H</text>
<text x="151.529157" y="364.832953" fill="rgb(30,239,30)"  stroke="rgb(30,239,30)" stroke-width="1" font-size="16" >Cl</text>
<text x="233.620955" y="279.497404" fill="rgb(255,12,12)"  stroke="rgb(255,12,12)" stroke-width="1" font-size="16" >O</text>
<text x="200.350796" y="337.123011" fill="rgb(255,12,12)"  stroke="rgb(255,12,12)" stroke-width="1" font-size="16" >O</text>
</svg>
</g>
<text font-size="18.000000" fill ="black" font-family="sans-serif"
x="10.000000" y="20.000000" ></text>
</svg>
