<?xml version="1.0"?>
<svg version="1.1" id="topsvg"
xmlns="http://www.w3.org/2000/svg" xmlns:xlink="http://www.w3.org/1999/xlink"
xmlns:cml="http://www.xml-cml.org/schema" x="0" y="0" width="200px" height="200px" viewBox="0 0 100 100">
<title> - Open Babel Depiction</title>
<rect x="0" y="0" width="100" height="100" fill="white"/>
<g transform="translate(0,0)">
<svg width="100" height="100" x="0" y="0" viewBox="0 0 558.125 331.277"
font-family="sans-serif" stroke="rgb(0,0,0)" stroke-width="2"  stroke-linecap="round">
<line x1="240.1" y1="130.3" x2="279.7" y2="121.8" stroke="rgb(0,0,0)"  stroke-width="2.0"/>
<line x1="379.1" y1="167.3" x2="399.3" y2="202.4" stroke="rgb(0,0,0)"  stroke-width="2.0"/>
<line x1="399.3" y1="199.4" x2="426.8" y2="199.4" stroke="rgb(0,0,0)"  stroke-width="2.0"/>
<line x1="399.3" y1="205.4" x2="426.8" y2="205.4" stroke="rgb(0,0,0)"  stroke-width="2.0"/>
<line x1="399.3" y1="202.4" x2="385.6" y2="226.2" stroke="rgb(0,0,0)"  stroke-width="2.0"/>
<line x1="366.1" y1="237.4" x2="351.6" y2="237.4" stroke="rgb(0,0,0)"  stroke-width="2.0"/>
<line x1="379.1" y1="167.3" x2="358.8" y2="202.4" stroke="rgb(0,0,0)"  stroke-width="2.0"/>
<line x1="361.4" y1="200.9" x2="375.2" y2="224.7" stroke="rgb(0,0,0)"  stroke-width="2.0"/>
<line x1="356.3" y1="203.9" x2="370.0" y2="227.7" stroke="rgb(0,0,0)"  stroke-width="2.0"/>
<line x1="358.8" y1="202.4" x2="331.4" y2="202.4" stroke="rgb(0,0,0)"  stroke-width="2.0"/>
<line x1="311.9" y1="191.1" x2="304.6" y2="178.6" stroke="rgb(0,0,0)"  stroke-width="2.0"/>
<line x1="478.5" y1="121.8" x2="505.4" y2="127.5" stroke="rgb(0,0,0)"  stroke-width="2.0"/>
<line x1="143.4" y1="77.6" x2="151.9" y2="51.4" stroke="rgb(0,0,0)"  stroke-width="2.0"/>
<line x1="149.1" y1="79.4" x2="157.6" y2="53.3" stroke="rgb(0,0,0)"  stroke-width="2.0"/>
<line x1="98.0" y1="77.3" x2="88.3" y2="66.5" stroke="rgb(0,0,0)"  stroke-width="2.0"/>
<line x1="66.9" y1="59.5" x2="52.7" y2="62.5" stroke="rgb(0,0,0)"  stroke-width="2.0"/>
<line x1="94.8" y1="128.4" x2="67.9" y2="134.1" stroke="rgb(0,0,0)"  stroke-width="2.0"/>
<line x1="93.6" y1="122.5" x2="66.7" y2="128.2" stroke="rgb(0,0,0)"  stroke-width="2.0"/>
<line x1="118.5" y1="186.6" x2="92.7" y2="196.2" stroke="rgb(0,0,0)"  stroke-width="2.0"/>
<line x1="195.6" y1="225.6" x2="186.6" y2="251.5" stroke="rgb(0,0,0)"  stroke-width="2.0"/>
<line x1="189.9" y1="223.6" x2="180.9" y2="249.6" stroke="rgb(0,0,0)"  stroke-width="2.0"/>
<line x1="228.8" y1="232.2" x2="236.5" y2="244.4" stroke="rgb(0,0,0)"  stroke-width="2.0"/>
<line x1="237.4" y1="266.9" x2="230.7" y2="279.8" stroke="rgb(0,0,0)"  stroke-width="2.0"/>
<line x1="238.4" y1="193.6" x2="317.0" y2="222.5" stroke="rgb(0,0,0)"  stroke-width="2.0"/>
<line x1="236.3" y1="199.2" x2="314.9" y2="228.2" stroke="rgb(0,0,0)"  stroke-width="2.0"/>
<line x1="346.3" y1="143.5" x2="358.8" y2="105.0" stroke="rgb(0,0,0)"  stroke-width="2.0"/>
<line x1="341.3" y1="135.6" x2="350.1" y2="108.5" stroke="rgb(0,0,0)"  stroke-width="2.0"/>
<line x1="358.8" y1="105.0" x2="331.8" y2="74.9" stroke="rgb(0,0,0)"  stroke-width="2.0"/>
<line x1="331.8" y1="74.9" x2="292.2" y2="83.3" stroke="rgb(0,0,0)"  stroke-width="2.0"/>
<line x1="327.4" y1="83.2" x2="299.5" y2="89.1" stroke="rgb(0,0,0)"  stroke-width="2.0"/>
<line x1="292.2" y1="83.3" x2="279.7" y2="121.8" stroke="rgb(0,0,0)"  stroke-width="2.0"/>
<line x1="279.7" y1="121.8" x2="306.7" y2="151.9" stroke="rgb(0,0,0)"  stroke-width="2.0"/>
<line x1="289.0" y1="121.5" x2="308.1" y2="142.6" stroke="rgb(0,0,0)"  stroke-width="2.0"/>
<line x1="306.7" y1="151.9" x2="346.3" y2="143.5" stroke="rgb(0,0,0)"  stroke-width="2.0"/>
<line x1="451.4" y1="151.9" x2="411.8" y2="143.5" stroke="rgb(0,0,0)"  stroke-width="2.0"/>
<line x1="447.1" y1="143.6" x2="419.2" y2="137.7" stroke="rgb(0,0,0)"  stroke-width="2.0"/>
<line x1="411.8" y1="143.5" x2="399.3" y2="105.0" stroke="rgb(0,0,0)"  stroke-width="2.0"/>
<line x1="399.3" y1="105.0" x2="426.4" y2="74.9" stroke="rgb(0,0,0)"  stroke-width="2.0"/>
<line x1="408.7" y1="105.4" x2="427.8" y2="84.2" stroke="rgb(0,0,0)"  stroke-width="2.0"/>
<line x1="426.4" y1="74.9" x2="466.0" y2="83.3" stroke="rgb(0,0,0)"  stroke-width="2.0"/>
<line x1="466.0" y1="83.3" x2="478.5" y2="121.8" stroke="rgb(0,0,0)"  stroke-width="2.0"/>
<line x1="461.0" y1="91.3" x2="469.8" y2="118.4" stroke="rgb(0,0,0)"  stroke-width="2.0"/>
<line x1="478.5" y1="121.8" x2="451.4" y2="151.9" stroke="rgb(0,0,0)"  stroke-width="2.0"/>
<line x1="173.4" y1="108.6" x2="160.9" y2="147.1" stroke="rgb(0,0,0)"  stroke-width="2.0"/>
<line x1="178.4" y1="116.5" x2="169.6" y2="143.6" stroke="rgb(0,0,0)"  stroke-width="2.0"/>
<line x1="160.9" y1="147.1" x2="187.9" y2="177.2" stroke="rgb(0,0,0)"  stroke-width="2.0"/>
<line x1="187.9" y1="177.2" x2="227.5" y2="168.8" stroke="rgb(0,0,0)"  stroke-width="2.0"/>
<line x1="192.3" y1="168.9" x2="220.2" y2="163.0" stroke="rgb(0,0,0)"  stroke-width="2.0"/>
<line x1="227.5" y1="168.8" x2="240.1" y2="130.3" stroke="rgb(0,0,0)"  stroke-width="2.0"/>
<line x1="240.1" y1="130.3" x2="213.0" y2="100.2" stroke="rgb(0,0,0)"  stroke-width="2.0"/>
<line x1="230.7" y1="130.6" x2="211.6" y2="109.4" stroke="rgb(0,0,0)"  stroke-width="2.0"/>
<line x1="213.0" y1="100.2" x2="173.4" y2="108.6" stroke="rgb(0,0,0)"  stroke-width="2.0"/>
<line x1="94.2" y1="125.4" x2="121.3" y2="155.5" stroke="rgb(0,0,0)"  stroke-width="2.0"/>
<line x1="121.3" y1="155.5" x2="160.9" y2="147.1" stroke="rgb(0,0,0)"  stroke-width="2.0"/>
<line x1="173.4" y1="108.6" x2="146.3" y2="78.5" stroke="rgb(0,0,0)"  stroke-width="2.0"/>
<line x1="146.3" y1="78.5" x2="119.4" y2="84.2" stroke="rgb(0,0,0)"  stroke-width="2.0"/>
<line x1="102.7" y1="99.3" x2="94.2" y2="125.4" stroke="rgb(0,0,0)"  stroke-width="2.0"/>
<line x1="141.0" y1="208.1" x2="171.9" y2="204.0" stroke="rgb(0,0,0)"  stroke-width="2.0"/>
<line x1="146.0" y1="200.2" x2="165.0" y2="197.6" stroke="rgb(0,0,0)"  stroke-width="2.0"/>
<line x1="171.9" y1="204.0" x2="187.9" y2="177.2" stroke="rgb(0,0,0)"  stroke-width="2.0"/>
<line x1="121.3" y1="155.5" x2="118.5" y2="186.6" stroke="rgb(0,0,0)"  stroke-width="2.0"/>
<line x1="127.9" y1="162.1" x2="126.2" y2="181.3" stroke="rgb(0,0,0)"  stroke-width="2.0"/>
<line x1="118.5" y1="186.6" x2="141.0" y2="208.1" stroke="rgb(0,0,0)"  stroke-width="2.0"/>
<line x1="228.7" y1="210.2" x2="237.3" y2="196.4" stroke="rgb(0,0,0)"  stroke-width="2.0"/>
<line x1="237.3" y1="196.4" x2="227.5" y2="168.8" stroke="rgb(0,0,0)"  stroke-width="2.0"/>
<line x1="171.9" y1="204.0" x2="192.7" y2="224.6" stroke="rgb(0,0,0)"  stroke-width="2.0"/>
<line x1="192.7" y1="224.6" x2="208.9" y2="222.7" stroke="rgb(0,0,0)"  stroke-width="2.0"/>
<line x1="399.3" y1="105.0" x2="358.8" y2="105.0" stroke="rgb(0,0,0)"  stroke-width="2.0"/>
<line x1="346.3" y1="143.5" x2="379.1" y2="167.3" stroke="rgb(0,0,0)"  stroke-width="2.0"/>
<line x1="379.1" y1="167.3" x2="411.8" y2="143.5" stroke="rgb(0,0,0)"  stroke-width="2.0"/>
<text x="152.792984" y="48.000000" fill="rgb(255,12,12)"  stroke="rgb(255,12,12)" stroke-width="1" font-size="16" >O</text>
<text x="100.685605" y="94.917695" fill="rgb(12,12,255)"  stroke="rgb(12,12,255)" stroke-width="1" font-size="16" >N</text>
<text x="73.597661" y="64.833485" fill="rgb(255,12,12)"  stroke="rgb(255,12,12)" stroke-width="1" font-size="16" >O</text>
<text x="14.000000" y="73.250228" fill="rgb(102,102,102)"  stroke="rgb(102,102,102)" stroke-width="1" font-size="16" >H</text>
<text x="26.000000" y="76.930228" fill="rgb(102,102,102)"  stroke="rgb(102,102,102)" stroke-width="1" font-size="13" >3</text>
<text x="32.500000" y="73.250228" fill="rgb(102,102,102)"  stroke="rgb(102,102,102)" stroke-width="1" font-size="16" >C</text>
<text x="48.578226" y="141.835390" fill="rgb(255,12,12)"  stroke="rgb(255,12,12)" stroke-width="1" font-size="16" >O</text>
<text x="74.565683" y="208.806869" fill="rgb(191,191,191)"  stroke="rgb(191,191,191)" stroke-width="1" font-size="16" >H</text>
<text x="173.486524" y="270.853451" fill="rgb(255,12,12)"  stroke="rgb(255,12,12)" stroke-width="1" font-size="16" >O</text>
<text x="215.818415" y="229.217811" fill="rgb(12,12,255)"  stroke="rgb(12,12,255)" stroke-width="1" font-size="16" >N</text>
<text x="237.474029" y="263.420891" fill="rgb(255,12,12)"  stroke="rgb(255,12,12)" stroke-width="1" font-size="16" >O</text>
<text x="198.681100" y="299.276744" fill="rgb(102,102,102)"  stroke="rgb(102,102,102)" stroke-width="1" font-size="16" >H</text>
<text x="210.681100" y="302.956744" fill="rgb(102,102,102)"  stroke="rgb(102,102,102)" stroke-width="1" font-size="13" >3</text>
<text x="217.181100" y="299.276744" fill="rgb(102,102,102)"  stroke="rgb(102,102,102)" stroke-width="1" font-size="16" >C</text>
<text x="322.145876" y="237.844838" fill="rgb(255,12,12)"  stroke="rgb(255,12,12)" stroke-width="1" font-size="16" >O</text>
<text x="272.126354" y="175.298249" fill="rgb(102,102,102)"  stroke="rgb(102,102,102)" stroke-width="1" font-size="16" >H</text>
<text x="284.126354" y="178.978249" fill="rgb(102,102,102)"  stroke="rgb(102,102,102)" stroke-width="1" font-size="13" >3</text>
<text x="290.626354" y="175.298249" fill="rgb(102,102,102)"  stroke="rgb(102,102,102)" stroke-width="1" font-size="16" >C</text>
<text x="433.814393" y="210.356946" fill="rgb(255,12,12)"  stroke="rgb(255,12,12)" stroke-width="1" font-size="16" >O</text>
<text x="373.090948" y="245.415643" fill="rgb(255,12,12)"  stroke="rgb(255,12,12)" stroke-width="1" font-size="16" >O</text>
<text x="312.608651" y="245.415643" fill="rgb(102,102,102)"  stroke="rgb(102,102,102)" stroke-width="1" font-size="16" >H</text>
<text x="324.608651" y="249.095643" fill="rgb(102,102,102)"  stroke="rgb(102,102,102)" stroke-width="1" font-size="13" >3</text>
<text x="331.108651" y="245.415643" fill="rgb(102,102,102)"  stroke="rgb(102,102,102)" stroke-width="1" font-size="16" >C</text>
<text x="373.090948" y="245.415643" fill="rgb(255,12,12)"  stroke="rgb(255,12,12)" stroke-width="1" font-size="16" >O</text>
<text x="312.367503" y="210.356946" fill="rgb(255,12,12)"  stroke="rgb(255,12,12)" stroke-width="1" font-size="16" >O</text>
<text x="512.125080" y="138.252628" fill="rgb(191,191,191)"  stroke="rgb(191,191,191)" stroke-width="1" font-size="16" >H</text>
</svg>
</g>
<text font-size="18.000000" fill ="black" font-family="sans-serif"
x="10.000000" y="20.000000" ></text>
</svg>
