<?xml version="1.0"?>
<svg version="1.1" id="topsvg"
xmlns="http://www.w3.org/2000/svg" xmlns:xlink="http://www.w3.org/1999/xlink"
xmlns:cml="http://www.xml-cml.org/schema" x="0" y="0" width="200px" height="200px" viewBox="0 0 100 100">
<title> - Open Babel Depiction</title>
<rect x="0" y="0" width="100" height="100" fill="white"/>
<g transform="translate(0,0)">
<svg width="100" height="100" x="0" y="0" viewBox="0 0 439.826 382.962"
font-family="sans-serif" stroke="rgb(0,0,0)" stroke-width="2"  stroke-linecap="round">
<line x1="210.1" y1="205.5" x2="176.4" y2="224.6" stroke="rgb(0,0,0)"  stroke-width="2.0"/>
<line x1="142.8" y1="205.2" x2="142.9" y2="178.2" stroke="rgb(0,0,0)"  stroke-width="2.0"/>
<line x1="74.6" y1="283.6" x2="51.3" y2="297.1" stroke="rgb(0,0,0)"  stroke-width="2.0"/>
<line x1="108.2" y1="303.0" x2="108.1" y2="330.0" stroke="rgb(0,0,0)"  stroke-width="2.0"/>
<line x1="232.6" y1="237.0" x2="220.4" y2="273.7" stroke="rgb(0,0,0)"  stroke-width="2.0"/>
<line x1="220.4" y1="273.7" x2="212.3" y2="298.2" stroke="rgb(0,0,0)"  stroke-width="2.0"/>
<line x1="224.4" y1="275.1" x2="216.3" y2="299.5" stroke="rgb(0,0,0)"  stroke-width="2.0"/>
<line x1="216.4" y1="272.4" x2="208.3" y2="296.8" stroke="rgb(0,0,0)"  stroke-width="2.0"/>
<line x1="269.8" y1="186.5" x2="301.3" y2="164.0" stroke="rgb(0,0,0)"  stroke-width="2.0"/>
<line x1="361.1" y1="145.0" x2="386.8" y2="145.2" stroke="rgb(0,0,0)"  stroke-width="2.0"/>
<line x1="338.5" y1="113.5" x2="350.8" y2="76.8" stroke="rgb(0,0,0)"  stroke-width="2.0"/>
<line x1="350.8" y1="76.8" x2="358.9" y2="52.3" stroke="rgb(0,0,0)"  stroke-width="2.0"/>
<line x1="346.8" y1="75.4" x2="354.9" y2="51.0" stroke="rgb(0,0,0)"  stroke-width="2.0"/>
<line x1="354.8" y1="78.1" x2="362.9" y2="53.7" stroke="rgb(0,0,0)"  stroke-width="2.0"/>
<line x1="108.8" y1="224.6" x2="142.3" y2="283.6" stroke="rgb(0,0,0)"  stroke-width="2.0"/>
<line x1="118.0" y1="226.3" x2="145.6" y2="274.8" stroke="rgb(0,0,0)"  stroke-width="2.0"/>
<line x1="142.3" y1="283.6" x2="165.1" y2="270.7" stroke="rgb(0,0,0)"  stroke-width="2.0"/>
<line x1="176.4" y1="251.2" x2="176.4" y2="224.6" stroke="rgb(0,0,0)"  stroke-width="2.0"/>
<line x1="176.4" y1="224.6" x2="142.8" y2="205.2" stroke="rgb(0,0,0)"  stroke-width="2.0"/>
<line x1="167.6" y1="227.8" x2="144.4" y2="214.5" stroke="rgb(0,0,0)"  stroke-width="2.0"/>
<line x1="142.8" y1="205.2" x2="108.8" y2="224.6" stroke="rgb(0,0,0)"  stroke-width="2.0"/>
<line x1="74.6" y1="283.6" x2="108.2" y2="303.0" stroke="rgb(0,0,0)"  stroke-width="2.0"/>
<line x1="83.4" y1="280.4" x2="106.6" y2="293.7" stroke="rgb(0,0,0)"  stroke-width="2.0"/>
<line x1="108.2" y1="303.0" x2="142.3" y2="283.6" stroke="rgb(0,0,0)"  stroke-width="2.0"/>
<line x1="108.8" y1="224.6" x2="86.0" y2="237.5" stroke="rgb(0,0,0)"  stroke-width="2.0"/>
<line x1="74.7" y1="257.0" x2="74.6" y2="283.6" stroke="rgb(0,0,0)"  stroke-width="2.0"/>
<line x1="269.7" y1="212.5" x2="269.8" y2="186.5" stroke="rgb(0,0,0)"  stroke-width="2.0"/>
<line x1="262.5" y1="210.3" x2="262.6" y2="192.5" stroke="rgb(0,0,0)"  stroke-width="2.0"/>
<line x1="269.8" y1="186.5" x2="245.4" y2="178.4" stroke="rgb(0,0,0)"  stroke-width="2.0"/>
<line x1="225.4" y1="184.8" x2="210.1" y2="205.5" stroke="rgb(0,0,0)"  stroke-width="2.0"/>
<line x1="210.1" y1="205.5" x2="232.6" y2="237.0" stroke="rgb(0,0,0)"  stroke-width="2.0"/>
<line x1="219.4" y1="206.2" x2="235.0" y2="227.9" stroke="rgb(0,0,0)"  stroke-width="2.0"/>
<line x1="232.6" y1="237.0" x2="257.2" y2="229.2" stroke="rgb(0,0,0)"  stroke-width="2.0"/>
<line x1="361.1" y1="145.0" x2="338.5" y2="113.5" stroke="rgb(0,0,0)"  stroke-width="2.0"/>
<line x1="351.7" y1="144.3" x2="336.2" y2="122.6" stroke="rgb(0,0,0)"  stroke-width="2.0"/>
<line x1="338.5" y1="113.5" x2="314.0" y2="121.3" stroke="rgb(0,0,0)"  stroke-width="2.0"/>
<line x1="301.5" y1="138.0" x2="301.3" y2="164.0" stroke="rgb(0,0,0)"  stroke-width="2.0"/>
<line x1="308.7" y1="140.2" x2="308.6" y2="158.0" stroke="rgb(0,0,0)"  stroke-width="2.0"/>
<line x1="301.3" y1="164.0" x2="325.8" y2="172.1" stroke="rgb(0,0,0)"  stroke-width="2.0"/>
<line x1="345.8" y1="165.7" x2="361.1" y2="145.0" stroke="rgb(0,0,0)"  stroke-width="2.0"/>
<text x="295.606963" y="133.232388" fill="rgb(12,12,255)"  stroke="rgb(12,12,255)" stroke-width="1" font-size="16" >N</text>
<text x="356.996432" y="48.000000" fill="rgb(12,12,255)"  stroke="rgb(12,12,255)" stroke-width="1" font-size="16" >N</text>
<text x="393.826274" y="153.294236" fill="rgb(191,191,191)"  stroke="rgb(191,191,191)" stroke-width="1" font-size="16" >H</text>
<text x="332.094561" y="184.203229" fill="rgb(178,178,0)"  stroke="rgb(178,178,0)" stroke-width="1" font-size="16" >S</text>
<text x="227.072768" y="182.292755" fill="rgb(178,178,0)"  stroke="rgb(178,178,0)" stroke-width="1" font-size="16" >S</text>
<text x="263.560365" y="233.263595" fill="rgb(12,12,255)"  stroke="rgb(12,12,255)" stroke-width="1" font-size="16" >N</text>
<text x="202.170897" y="318.495983" fill="rgb(12,12,255)"  stroke="rgb(12,12,255)" stroke-width="1" font-size="16" >N</text>
<text x="170.361360" y="272.245797" fill="rgb(178,178,0)"  stroke="rgb(178,178,0)" stroke-width="1" font-size="16" >S</text>
<text x="102.059792" y="350.961734" fill="rgb(191,191,191)"  stroke="rgb(191,191,191)" stroke-width="1" font-size="16" >H</text>
<text x="34.000000" y="311.576620" fill="rgb(191,191,191)"  stroke="rgb(191,191,191)" stroke-width="1" font-size="16" >H</text>
<text x="68.683204" y="251.953953" fill="rgb(178,178,0)"  stroke="rgb(178,178,0)" stroke-width="1" font-size="16" >S</text>
<text x="136.984772" y="173.238016" fill="rgb(191,191,191)"  stroke="rgb(191,191,191)" stroke-width="1" font-size="16" >H</text>
</svg>
</g>
<text font-size="18.000000" fill ="black" font-family="sans-serif"
x="10.000000" y="20.000000" ></text>
</svg>
