<?xml version="1.0"?>
<svg version="1.1" id="topsvg"
xmlns="http://www.w3.org/2000/svg" xmlns:xlink="http://www.w3.org/1999/xlink"
xmlns:cml="http://www.xml-cml.org/schema" x="0" y="0" width="200px" height="200px" viewBox="0 0 100 100">
<title> - Open Babel Depiction</title>
<rect x="0" y="0" width="100" height="100" fill="white"/>
<g transform="translate(0,0)">
<svg width="100" height="100" x="0" y="0" viewBox="0 0 547.857 353.914"
font-family="sans-serif" stroke="rgb(0,0,0)" stroke-width="2"  stroke-linecap="round">
<line x1="312.4" y1="180.0" x2="272.4" y2="180.0" stroke="rgb(0,0,0)"  stroke-width="2.0"/>
<line x1="248.9" y1="212.4" x2="261.2" y2="250.4" stroke="rgb(0,0,0)"  stroke-width="2.0"/>
<line x1="261.2" y1="250.4" x2="269.6" y2="276.1" stroke="rgb(0,0,0)"  stroke-width="2.0"/>
<line x1="265.2" y1="249.1" x2="273.6" y2="274.8" stroke="rgb(0,0,0)"  stroke-width="2.0"/>
<line x1="257.2" y1="251.7" x2="265.6" y2="277.4" stroke="rgb(0,0,0)"  stroke-width="2.0"/>
<line x1="176.2" y1="220.0" x2="176.2" y2="260.0" stroke="rgb(0,0,0)"  stroke-width="2.0"/>
<line x1="177.7" y1="257.4" x2="201.1" y2="270.9" stroke="rgb(0,0,0)"  stroke-width="2.0"/>
<line x1="174.7" y1="262.6" x2="198.1" y2="276.1" stroke="rgb(0,0,0)"  stroke-width="2.0"/>
<line x1="176.2" y1="260.0" x2="152.8" y2="273.5" stroke="rgb(0,0,0)"  stroke-width="2.0"/>
<line x1="130.3" y1="273.5" x2="118.2" y2="266.5" stroke="rgb(0,0,0)"  stroke-width="2.0"/>
<line x1="80.0" y1="180.0" x2="53.0" y2="180.0" stroke="rgb(0,0,0)"  stroke-width="2.0"/>
<line x1="103.5" y1="147.6" x2="91.2" y2="109.6" stroke="rgb(0,0,0)"  stroke-width="2.0"/>
<line x1="91.2" y1="109.6" x2="82.8" y2="83.9" stroke="rgb(0,0,0)"  stroke-width="2.0"/>
<line x1="87.2" y1="110.9" x2="78.8" y2="85.2" stroke="rgb(0,0,0)"  stroke-width="2.0"/>
<line x1="95.1" y1="108.3" x2="86.8" y2="82.6" stroke="rgb(0,0,0)"  stroke-width="2.0"/>
<line x1="176.2" y1="140.0" x2="176.2" y2="100.0" stroke="rgb(0,0,0)"  stroke-width="2.0"/>
<line x1="174.7" y1="97.4" x2="198.1" y2="83.9" stroke="rgb(0,0,0)"  stroke-width="2.0"/>
<line x1="177.7" y1="102.6" x2="201.1" y2="89.1" stroke="rgb(0,0,0)"  stroke-width="2.0"/>
<line x1="176.2" y1="100.0" x2="152.8" y2="86.5" stroke="rgb(0,0,0)"  stroke-width="2.0"/>
<line x1="141.6" y1="67.0" x2="141.6" y2="53.0" stroke="rgb(0,0,0)"  stroke-width="2.0"/>
<line x1="335.9" y1="147.6" x2="327.6" y2="122.0" stroke="rgb(0,0,0)"  stroke-width="2.0"/>
<line x1="373.9" y1="200.0" x2="406.3" y2="223.5" stroke="rgb(0,0,0)"  stroke-width="2.0"/>
<line x1="467.9" y1="243.5" x2="494.9" y2="243.5" stroke="rgb(0,0,0)"  stroke-width="2.0"/>
<line x1="444.3" y1="275.9" x2="452.7" y2="301.6" stroke="rgb(0,0,0)"  stroke-width="2.0"/>
<line x1="210.8" y1="200.0" x2="210.8" y2="160.0" stroke="rgb(0,0,0)"  stroke-width="2.0"/>
<line x1="210.8" y1="160.0" x2="236.5" y2="151.7" stroke="rgb(0,0,0)"  stroke-width="2.0"/>
<line x1="256.5" y1="158.2" x2="272.4" y2="180.0" stroke="rgb(0,0,0)"  stroke-width="2.0"/>
<line x1="272.4" y1="180.0" x2="248.9" y2="212.4" stroke="rgb(0,0,0)"  stroke-width="2.0"/>
<line x1="263.0" y1="180.6" x2="246.6" y2="203.3" stroke="rgb(0,0,0)"  stroke-width="2.0"/>
<line x1="248.9" y1="212.4" x2="210.8" y2="200.0" stroke="rgb(0,0,0)"  stroke-width="2.0"/>
<line x1="80.0" y1="180.0" x2="103.5" y2="147.6" stroke="rgb(0,0,0)"  stroke-width="2.0"/>
<line x1="89.4" y1="179.4" x2="105.8" y2="156.7" stroke="rgb(0,0,0)"  stroke-width="2.0"/>
<line x1="103.5" y1="147.6" x2="141.6" y2="160.0" stroke="rgb(0,0,0)"  stroke-width="2.0"/>
<line x1="141.6" y1="160.0" x2="141.6" y2="200.0" stroke="rgb(0,0,0)"  stroke-width="2.0"/>
<line x1="134.4" y1="166.0" x2="134.4" y2="194.0" stroke="rgb(0,0,0)"  stroke-width="2.0"/>
<line x1="141.6" y1="200.0" x2="115.9" y2="208.3" stroke="rgb(0,0,0)"  stroke-width="2.0"/>
<line x1="95.9" y1="201.8" x2="80.0" y2="180.0" stroke="rgb(0,0,0)"  stroke-width="2.0"/>
<line x1="373.9" y1="173.2" x2="373.9" y2="200.0" stroke="rgb(0,0,0)"  stroke-width="2.0"/>
<line x1="366.7" y1="175.2" x2="366.7" y2="194.0" stroke="rgb(0,0,0)"  stroke-width="2.0"/>
<line x1="373.9" y1="200.0" x2="348.3" y2="208.3" stroke="rgb(0,0,0)"  stroke-width="2.0"/>
<line x1="328.3" y1="201.8" x2="312.4" y2="180.0" stroke="rgb(0,0,0)"  stroke-width="2.0"/>
<line x1="312.4" y1="180.0" x2="335.9" y2="147.6" stroke="rgb(0,0,0)"  stroke-width="2.0"/>
<line x1="321.7" y1="179.4" x2="338.2" y2="156.7" stroke="rgb(0,0,0)"  stroke-width="2.0"/>
<line x1="335.9" y1="147.6" x2="361.6" y2="156.0" stroke="rgb(0,0,0)"  stroke-width="2.0"/>
<line x1="467.9" y1="243.5" x2="444.3" y2="275.9" stroke="rgb(0,0,0)"  stroke-width="2.0"/>
<line x1="458.5" y1="244.1" x2="442.0" y2="266.8" stroke="rgb(0,0,0)"  stroke-width="2.0"/>
<line x1="444.3" y1="275.9" x2="418.7" y2="267.5" stroke="rgb(0,0,0)"  stroke-width="2.0"/>
<line x1="406.3" y1="250.3" x2="406.3" y2="223.5" stroke="rgb(0,0,0)"  stroke-width="2.0"/>
<line x1="413.5" y1="248.3" x2="413.5" y2="229.5" stroke="rgb(0,0,0)"  stroke-width="2.0"/>
<line x1="406.3" y1="223.5" x2="432.0" y2="215.2" stroke="rgb(0,0,0)"  stroke-width="2.0"/>
<line x1="452.0" y1="221.7" x2="467.9" y2="243.5" stroke="rgb(0,0,0)"  stroke-width="2.0"/>
<line x1="141.6" y1="160.0" x2="176.2" y2="140.0" stroke="rgb(0,0,0)"  stroke-width="2.0"/>
<line x1="176.2" y1="140.0" x2="210.8" y2="160.0" stroke="rgb(0,0,0)"  stroke-width="2.0"/>
<line x1="177.8" y1="149.2" x2="202.0" y2="163.2" stroke="rgb(0,0,0)"  stroke-width="2.0"/>
<line x1="210.8" y1="200.0" x2="176.2" y2="220.0" stroke="rgb(0,0,0)"  stroke-width="2.0"/>
<line x1="202.0" y1="196.8" x2="177.8" y2="210.8" stroke="rgb(0,0,0)"  stroke-width="2.0"/>
<line x1="176.2" y1="220.0" x2="141.6" y2="200.0" stroke="rgb(0,0,0)"  stroke-width="2.0"/>
<text x="204.835703" y="88.000000" fill="rgb(255,12,12)"  stroke="rgb(255,12,12)" stroke-width="1" font-size="16" >O</text>
<text x="135.553671" y="88.000000" fill="rgb(255,12,12)"  stroke="rgb(255,12,12)" stroke-width="1" font-size="16" >O</text>
<text x="137.553671" y="48.000000" fill="rgb(102,102,102)"  stroke="rgb(102,102,102)" stroke-width="1" font-size="16" >CH</text>
<text x="161.553671" y="51.680000" fill="rgb(102,102,102)"  stroke="rgb(102,102,102)" stroke-width="1" font-size="13" >3</text>
<text x="242.877964" y="155.639320" fill="rgb(178,178,0)"  stroke="rgb(178,178,0)" stroke-width="1" font-size="16" >S</text>
<text x="305.540104" y="117.597060" fill="rgb(255,12,12)"  stroke="rgb(255,12,12)" stroke-width="1" font-size="16" >HO</text>
<text x="367.943045" y="168.000000" fill="rgb(12,12,255)"  stroke="rgb(12,12,255)" stroke-width="1" font-size="16" >N</text>
<text x="329.900784" y="220.360680" fill="rgb(178,178,0)"  stroke="rgb(178,178,0)" stroke-width="1" font-size="16" >S</text>
<text x="438.345985" y="219.150730" fill="rgb(178,178,0)"  stroke="rgb(178,178,0)" stroke-width="1" font-size="16" >S</text>
<text x="501.857395" y="251.511410" fill="rgb(191,191,191)"  stroke="rgb(191,191,191)" stroke-width="1" font-size="16" >H</text>
<text x="450.706665" y="321.914351" fill="rgb(255,12,12)"  stroke="rgb(255,12,12)" stroke-width="1" font-size="16" >OH</text>
<text x="400.303724" y="271.511410" fill="rgb(12,12,255)"  stroke="rgb(12,12,255)" stroke-width="1" font-size="16" >N</text>
<text x="80.912655" y="268.000000" fill="rgb(102,102,102)"  stroke="rgb(102,102,102)" stroke-width="1" font-size="16" >H</text>
<text x="92.912655" y="271.680000" fill="rgb(102,102,102)"  stroke="rgb(102,102,102)" stroke-width="1" font-size="13" >3</text>
<text x="99.412655" y="268.000000" fill="rgb(102,102,102)"  stroke="rgb(102,102,102)" stroke-width="1" font-size="16" >C</text>
<text x="267.599323" y="296.445201" fill="rgb(12,12,255)"  stroke="rgb(12,12,255)" stroke-width="1" font-size="16" >N</text>
<text x="204.835703" y="288.000000" fill="rgb(255,12,12)"  stroke="rgb(255,12,12)" stroke-width="1" font-size="16" >O</text>
<text x="135.553671" y="288.000000" fill="rgb(255,12,12)"  stroke="rgb(255,12,12)" stroke-width="1" font-size="16" >O</text>
<text x="97.511410" y="220.360680" fill="rgb(178,178,0)"  stroke="rgb(178,178,0)" stroke-width="1" font-size="16" >S</text>
<text x="34.000000" y="188.000000" fill="rgb(191,191,191)"  stroke="rgb(191,191,191)" stroke-width="1" font-size="16" >H</text>
<text x="72.790051" y="79.554799" fill="rgb(12,12,255)"  stroke="rgb(12,12,255)" stroke-width="1" font-size="16" >N</text>
</svg>
</g>
<text font-size="18.000000" fill ="black" font-family="sans-serif"
x="10.000000" y="20.000000" ></text>
</svg>
