<?xml version="1.0"?>
<svg version="1.1" id="topsvg"
xmlns="http://www.w3.org/2000/svg" xmlns:xlink="http://www.w3.org/1999/xlink"
xmlns:cml="http://www.xml-cml.org/schema" x="0" y="0" width="200px" height="200px" viewBox="0 0 100 100">
<title> - Open Babel Depiction</title>
<rect x="0" y="0" width="100" height="100" fill="white"/>
<g transform="translate(0,0)">
<svg width="100" height="100" x="0" y="0" viewBox="0 0 588.506 344.904"
font-family="sans-serif" stroke="rgb(0,0,0)" stroke-width="2"  stroke-linecap="round">
<line x1="273.8" y1="233.7" x2="312.9" y2="225.3" stroke="rgb(0,0,0)"  stroke-width="2.0"/>
<line x1="411.1" y1="270.3" x2="424.6" y2="293.6" stroke="rgb(0,0,0)"  stroke-width="2.0"/>
<line x1="411.1" y1="270.3" x2="397.6" y2="293.6" stroke="rgb(0,0,0)"  stroke-width="2.0"/>
<line x1="509.4" y1="225.3" x2="535.8" y2="231.0" stroke="rgb(0,0,0)"  stroke-width="2.0"/>
<line x1="242.5" y1="164.3" x2="265.9" y2="150.8" stroke="rgb(0,0,0)"  stroke-width="2.0"/>
<line x1="245.5" y1="169.5" x2="268.9" y2="156.0" stroke="rgb(0,0,0)"  stroke-width="2.0"/>
<line x1="201.1" y1="107.8" x2="227.8" y2="78.0" stroke="rgb(0,0,0)"  stroke-width="2.0"/>
<line x1="225.0" y1="79.0" x2="216.6" y2="53.3" stroke="rgb(0,0,0)"  stroke-width="2.0"/>
<line x1="230.7" y1="77.1" x2="222.3" y2="51.4" stroke="rgb(0,0,0)"  stroke-width="2.0"/>
<line x1="227.8" y1="78.0" x2="254.2" y2="83.7" stroke="rgb(0,0,0)"  stroke-width="2.0"/>
<line x1="275.7" y1="76.7" x2="285.0" y2="66.3" stroke="rgb(0,0,0)"  stroke-width="2.0"/>
<line x1="145.0" y1="140.1" x2="105.9" y2="148.4" stroke="rgb(0,0,0)"  stroke-width="2.0"/>
<line x1="108.7" y1="149.4" x2="100.4" y2="175.1" stroke="rgb(0,0,0)"  stroke-width="2.0"/>
<line x1="103.0" y1="147.5" x2="94.7" y2="173.2" stroke="rgb(0,0,0)"  stroke-width="2.0"/>
<line x1="105.9" y1="148.4" x2="87.8" y2="128.4" stroke="rgb(0,0,0)"  stroke-width="2.0"/>
<line x1="66.4" y1="121.4" x2="52.7" y2="124.3" stroke="rgb(0,0,0)"  stroke-width="2.0"/>
<line x1="176.2" y1="209.5" x2="152.9" y2="223.0" stroke="rgb(0,0,0)"  stroke-width="2.0"/>
<line x1="173.2" y1="204.3" x2="149.9" y2="217.8" stroke="rgb(0,0,0)"  stroke-width="2.0"/>
<line x1="217.7" y1="266.0" x2="199.6" y2="286.1" stroke="rgb(0,0,0)"  stroke-width="2.0"/>
<line x1="156.0" y1="115.5" x2="145.0" y2="140.1" stroke="rgb(0,0,0)"  stroke-width="2.0"/>
<line x1="145.0" y1="140.1" x2="174.7" y2="166.9" stroke="rgb(0,0,0)"  stroke-width="2.0"/>
<line x1="154.3" y1="138.8" x2="175.1" y2="157.5" stroke="rgb(0,0,0)"  stroke-width="2.0"/>
<line x1="174.7" y1="166.9" x2="209.4" y2="146.9" stroke="rgb(0,0,0)"  stroke-width="2.0"/>
<line x1="209.4" y1="146.9" x2="201.1" y2="107.8" stroke="rgb(0,0,0)"  stroke-width="2.0"/>
<line x1="201.1" y1="142.5" x2="195.3" y2="115.1" stroke="rgb(0,0,0)"  stroke-width="2.0"/>
<line x1="201.1" y1="107.8" x2="174.2" y2="104.9" stroke="rgb(0,0,0)"  stroke-width="2.0"/>
<line x1="209.4" y1="226.9" x2="217.7" y2="266.0" stroke="rgb(0,0,0)"  stroke-width="2.0"/>
<line x1="217.7" y1="231.3" x2="223.5" y2="258.7" stroke="rgb(0,0,0)"  stroke-width="2.0"/>
<line x1="217.7" y1="266.0" x2="244.6" y2="268.8" stroke="rgb(0,0,0)"  stroke-width="2.0"/>
<line x1="262.8" y1="258.3" x2="273.8" y2="233.7" stroke="rgb(0,0,0)"  stroke-width="2.0"/>
<line x1="273.8" y1="233.7" x2="244.0" y2="206.9" stroke="rgb(0,0,0)"  stroke-width="2.0"/>
<line x1="264.5" y1="235.0" x2="243.7" y2="216.3" stroke="rgb(0,0,0)"  stroke-width="2.0"/>
<line x1="244.0" y1="206.9" x2="209.4" y2="226.9" stroke="rgb(0,0,0)"  stroke-width="2.0"/>
<line x1="378.8" y1="246.8" x2="391.1" y2="208.7" stroke="rgb(0,0,0)"  stroke-width="2.0"/>
<line x1="373.8" y1="238.8" x2="382.4" y2="212.2" stroke="rgb(0,0,0)"  stroke-width="2.0"/>
<line x1="391.1" y1="208.7" x2="364.4" y2="179.0" stroke="rgb(0,0,0)"  stroke-width="2.0"/>
<line x1="364.4" y1="179.0" x2="325.2" y2="187.3" stroke="rgb(0,0,0)"  stroke-width="2.0"/>
<line x1="360.0" y1="187.3" x2="332.6" y2="193.1" stroke="rgb(0,0,0)"  stroke-width="2.0"/>
<line x1="325.2" y1="187.3" x2="312.9" y2="225.3" stroke="rgb(0,0,0)"  stroke-width="2.0"/>
<line x1="312.9" y1="225.3" x2="339.6" y2="255.1" stroke="rgb(0,0,0)"  stroke-width="2.0"/>
<line x1="322.2" y1="225.0" x2="341.0" y2="245.8" stroke="rgb(0,0,0)"  stroke-width="2.0"/>
<line x1="339.6" y1="255.1" x2="378.8" y2="246.8" stroke="rgb(0,0,0)"  stroke-width="2.0"/>
<line x1="482.6" y1="255.1" x2="443.5" y2="246.8" stroke="rgb(0,0,0)"  stroke-width="2.0"/>
<line x1="478.2" y1="246.8" x2="450.9" y2="241.0" stroke="rgb(0,0,0)"  stroke-width="2.0"/>
<line x1="443.5" y1="246.8" x2="431.1" y2="208.7" stroke="rgb(0,0,0)"  stroke-width="2.0"/>
<line x1="431.1" y1="208.7" x2="457.9" y2="179.0" stroke="rgb(0,0,0)"  stroke-width="2.0"/>
<line x1="440.5" y1="209.1" x2="459.2" y2="188.3" stroke="rgb(0,0,0)"  stroke-width="2.0"/>
<line x1="457.9" y1="179.0" x2="497.0" y2="187.3" stroke="rgb(0,0,0)"  stroke-width="2.0"/>
<line x1="497.0" y1="187.3" x2="509.4" y2="225.3" stroke="rgb(0,0,0)"  stroke-width="2.0"/>
<line x1="492.0" y1="195.2" x2="500.7" y2="221.9" stroke="rgb(0,0,0)"  stroke-width="2.0"/>
<line x1="509.4" y1="225.3" x2="482.6" y2="255.1" stroke="rgb(0,0,0)"  stroke-width="2.0"/>
<line x1="431.1" y1="208.7" x2="391.1" y2="208.7" stroke="rgb(0,0,0)"  stroke-width="2.0"/>
<line x1="378.8" y1="246.8" x2="411.1" y2="270.3" stroke="rgb(0,0,0)"  stroke-width="2.0"/>
<line x1="411.1" y1="270.3" x2="443.5" y2="246.8" stroke="rgb(0,0,0)"  stroke-width="2.0"/>
<line x1="244.0" y1="166.9" x2="209.4" y2="146.9" stroke="rgb(0,0,0)"  stroke-width="2.0"/>
<line x1="174.7" y1="166.9" x2="174.7" y2="206.9" stroke="rgb(0,0,0)"  stroke-width="2.0"/>
<line x1="174.7" y1="206.9" x2="209.4" y2="226.9" stroke="rgb(0,0,0)"  stroke-width="2.0"/>
<line x1="244.0" y1="206.9" x2="244.0" y2="166.9" stroke="rgb(0,0,0)"  stroke-width="2.0"/>
<text x="87.530449" y="194.487462" fill="rgb(255,12,12)"  stroke="rgb(255,12,12)" stroke-width="1" font-size="16" >O</text>
<text x="209.471918" y="48.000000" fill="rgb(255,12,12)"  stroke="rgb(255,12,12)" stroke-width="1" font-size="16" >O</text>
<text x="260.958502" y="94.358728" fill="rgb(255,12,12)"  stroke="rgb(255,12,12)" stroke-width="1" font-size="16" >O</text>
<text x="289.723726" y="64.632935" fill="rgb(102,102,102)"  stroke="rgb(102,102,102)" stroke-width="1" font-size="16" >CH</text>
<text x="313.723726" y="68.312935" fill="rgb(102,102,102)"  stroke="rgb(102,102,102)" stroke-width="1" font-size="13" >3</text>
<text x="155.286498" y="111.586915" fill="rgb(178,178,0)"  stroke="rgb(178,178,0)" stroke-width="1" font-size="16" >S</text>
<text x="272.665874" y="154.893958" fill="rgb(255,12,12)"  stroke="rgb(255,12,12)" stroke-width="1" font-size="16" >O</text>
<text x="73.125904" y="126.719408" fill="rgb(255,12,12)"  stroke="rgb(255,12,12)" stroke-width="1" font-size="16" >O</text>
<text x="14.000000" y="135.035876" fill="rgb(102,102,102)"  stroke="rgb(102,102,102)" stroke-width="1" font-size="16" >H</text>
<text x="26.000000" y="138.715876" fill="rgb(102,102,102)"  stroke="rgb(102,102,102)" stroke-width="1" font-size="13" >3</text>
<text x="32.500000" y="135.035876" fill="rgb(102,102,102)"  stroke="rgb(102,102,102)" stroke-width="1" font-size="16" >C</text>
<text x="134.101809" y="234.893958" fill="rgb(255,12,12)"  stroke="rgb(255,12,12)" stroke-width="1" font-size="16" >O</text>
<text x="184.935085" y="303.745655" fill="rgb(191,191,191)"  stroke="rgb(191,191,191)" stroke-width="1" font-size="16" >H</text>
<text x="251.481185" y="278.201000" fill="rgb(178,178,0)"  stroke="rgb(178,178,0)" stroke-width="1" font-size="16" >S</text>
<text x="542.506075" y="241.659182" fill="rgb(191,191,191)"  stroke="rgb(191,191,191)" stroke-width="1" font-size="16" >H</text>
<text x="427.128363" y="312.904466" fill="rgb(102,102,102)"  stroke="rgb(102,102,102)" stroke-width="1" font-size="16" >CH</text>
<text x="451.128363" y="316.584466" fill="rgb(102,102,102)"  stroke="rgb(102,102,102)" stroke-width="1" font-size="13" >3</text>
<text x="365.128363" y="312.904466" fill="rgb(102,102,102)"  stroke="rgb(102,102,102)" stroke-width="1" font-size="16" >H</text>
<text x="377.128363" y="316.584466" fill="rgb(102,102,102)"  stroke="rgb(102,102,102)" stroke-width="1" font-size="13" >3</text>
<text x="383.628363" y="312.904466" fill="rgb(102,102,102)"  stroke="rgb(102,102,102)" stroke-width="1" font-size="16" >C</text>
</svg>
</g>
<text font-size="18.000000" fill ="black" font-family="sans-serif"
x="10.000000" y="20.000000" ></text>
</svg>
