<?xml version="1.0"?>
<svg version="1.1" id="topsvg"
xmlns="http://www.w3.org/2000/svg" xmlns:xlink="http://www.w3.org/1999/xlink"
xmlns:cml="http://www.xml-cml.org/schema" x="0" y="0" width="200px" height="200px" viewBox="0 0 100 100">
<title> - Open Babel Depiction</title>
<rect x="0" y="0" width="100" height="100" fill="white"/>
<g transform="translate(0,0)">
<svg width="100" height="100" x="0" y="0" viewBox="0 0 424.085 345.591"
font-family="sans-serif" stroke="rgb(0,0,0)" stroke-width="2"  stroke-linecap="round">
<line x1="280.2" y1="205.6" x2="245.5" y2="185.6" stroke="rgb(0,0,0)"  stroke-width="2.0"/>
<line x1="175.4" y1="107.8" x2="167.1" y2="82.1" stroke="rgb(0,0,0)"  stroke-width="2.0"/>
<line x1="150.4" y1="67.0" x2="136.7" y2="64.1" stroke="rgb(0,0,0)"  stroke-width="2.0"/>
<line x1="175.4" y1="107.8" x2="193.5" y2="87.7" stroke="rgb(0,0,0)"  stroke-width="2.0"/>
<line x1="198.2" y1="65.7" x2="193.9" y2="52.4" stroke="rgb(0,0,0)"  stroke-width="2.0"/>
<line x1="79.8" y1="150.4" x2="52.9" y2="153.2" stroke="rgb(0,0,0)"  stroke-width="2.0"/>
<line x1="349.4" y1="245.6" x2="372.8" y2="259.1" stroke="rgb(0,0,0)"  stroke-width="2.0"/>
<line x1="314.8" y1="265.6" x2="314.8" y2="292.6" stroke="rgb(0,0,0)"  stroke-width="2.0"/>
<line x1="280.2" y1="245.6" x2="256.8" y2="259.1" stroke="rgb(0,0,0)"  stroke-width="2.0"/>
<line x1="202.2" y1="137.5" x2="182.2" y2="172.1" stroke="rgb(0,0,0)"  stroke-width="2.0"/>
<line x1="205.4" y1="146.3" x2="191.4" y2="170.5" stroke="rgb(0,0,0)"  stroke-width="2.0"/>
<line x1="182.2" y1="172.1" x2="200.3" y2="192.2" stroke="rgb(0,0,0)"  stroke-width="2.0"/>
<line x1="220.9" y1="196.6" x2="245.5" y2="185.6" stroke="rgb(0,0,0)"  stroke-width="2.0"/>
<line x1="245.5" y1="185.6" x2="241.3" y2="145.8" stroke="rgb(0,0,0)"  stroke-width="2.0"/>
<line x1="237.7" y1="180.4" x2="234.8" y2="152.5" stroke="rgb(0,0,0)"  stroke-width="2.0"/>
<line x1="241.3" y1="145.8" x2="202.2" y2="137.5" stroke="rgb(0,0,0)"  stroke-width="2.0"/>
<line x1="79.8" y1="150.4" x2="97.8" y2="170.4" stroke="rgb(0,0,0)"  stroke-width="2.0"/>
<line x1="118.4" y1="174.8" x2="143.1" y2="163.8" stroke="rgb(0,0,0)"  stroke-width="2.0"/>
<line x1="143.1" y1="163.8" x2="138.9" y2="124.0" stroke="rgb(0,0,0)"  stroke-width="2.0"/>
<line x1="135.3" y1="158.6" x2="132.4" y2="130.8" stroke="rgb(0,0,0)"  stroke-width="2.0"/>
<line x1="138.9" y1="124.0" x2="99.8" y2="115.7" stroke="rgb(0,0,0)"  stroke-width="2.0"/>
<line x1="99.8" y1="115.7" x2="79.8" y2="150.4" stroke="rgb(0,0,0)"  stroke-width="2.0"/>
<line x1="103.0" y1="124.5" x2="89.0" y2="148.8" stroke="rgb(0,0,0)"  stroke-width="2.0"/>
<line x1="336.0" y1="145.1" x2="350.0" y2="143.6" stroke="rgb(0,0,0)"  stroke-width="2.0"/>
<line x1="368.2" y1="154.2" x2="373.9" y2="166.9" stroke="rgb(0,0,0)"  stroke-width="2.0"/>
<line x1="369.4" y1="187.7" x2="349.4" y2="205.6" stroke="rgb(0,0,0)"  stroke-width="2.0"/>
<line x1="363.1" y1="183.6" x2="349.1" y2="196.2" stroke="rgb(0,0,0)"  stroke-width="2.0"/>
<line x1="349.4" y1="205.6" x2="314.8" y2="185.6" stroke="rgb(0,0,0)"  stroke-width="2.0"/>
<line x1="314.8" y1="185.6" x2="320.4" y2="159.4" stroke="rgb(0,0,0)"  stroke-width="2.0"/>
<line x1="323.1" y1="181.2" x2="327.0" y2="162.8" stroke="rgb(0,0,0)"  stroke-width="2.0"/>
<line x1="349.4" y1="205.6" x2="349.4" y2="245.6" stroke="rgb(0,0,0)"  stroke-width="2.0"/>
<line x1="349.4" y1="245.6" x2="314.8" y2="265.6" stroke="rgb(0,0,0)"  stroke-width="2.0"/>
<line x1="340.6" y1="242.4" x2="316.4" y2="256.4" stroke="rgb(0,0,0)"  stroke-width="2.0"/>
<line x1="314.8" y1="265.6" x2="280.2" y2="245.6" stroke="rgb(0,0,0)"  stroke-width="2.0"/>
<line x1="280.2" y1="245.6" x2="280.2" y2="205.6" stroke="rgb(0,0,0)"  stroke-width="2.0"/>
<line x1="287.4" y1="239.6" x2="287.4" y2="211.6" stroke="rgb(0,0,0)"  stroke-width="2.0"/>
<line x1="280.2" y1="205.6" x2="314.8" y2="185.6" stroke="rgb(0,0,0)"  stroke-width="2.0"/>
<line x1="143.1" y1="163.8" x2="182.2" y2="172.1" stroke="rgb(0,0,0)"  stroke-width="2.0"/>
<line x1="202.2" y1="137.5" x2="175.4" y2="107.8" stroke="rgb(0,0,0)"  stroke-width="2.0"/>
<line x1="175.4" y1="107.8" x2="138.9" y2="124.0" stroke="rgb(0,0,0)"  stroke-width="2.0"/>
<text x="239.520865" y="273.591190" fill="rgb(127,178,255)"  stroke="rgb(127,178,255)" stroke-width="1" font-size="16" >F</text>
<text x="308.802897" y="313.591190" fill="rgb(127,178,255)"  stroke="rgb(127,178,255)" stroke-width="1" font-size="16" >F</text>
<text x="378.084930" y="273.591190" fill="rgb(191,191,191)"  stroke="rgb(191,191,191)" stroke-width="1" font-size="16" >H</text>
<text x="373.169706" y="186.825966" fill="rgb(12,12,255)"  stroke="rgb(12,12,255)" stroke-width="1" font-size="16" >N</text>
<text x="356.900241" y="150.284148" fill="rgb(178,178,0)"  stroke="rgb(178,178,0)" stroke-width="1" font-size="16" >S</text>
<text x="317.119365" y="154.465286" fill="rgb(12,12,255)"  stroke="rgb(12,12,255)" stroke-width="1" font-size="16" >N</text>
<text x="100.546100" y="188.087861" fill="rgb(178,178,0)"  stroke="rgb(178,178,0)" stroke-width="1" font-size="16" >S</text>
<text x="34.000000" y="162.543206" fill="rgb(191,191,191)"  stroke="rgb(191,191,191)" stroke-width="1" font-size="16" >H</text>
<text x="163.853143" y="48.000000" fill="rgb(102,102,102)"  stroke="rgb(102,102,102)" stroke-width="1" font-size="16" >H</text>
<text x="175.853143" y="51.680000" fill="rgb(102,102,102)"  stroke="rgb(102,102,102)" stroke-width="1" font-size="13" >3</text>
<text x="182.353143" y="48.000000" fill="rgb(102,102,102)"  stroke="rgb(102,102,102)" stroke-width="1" font-size="16" >C</text>
<text x="196.213822" y="86.042261" fill="rgb(255,12,12)"  stroke="rgb(255,12,12)" stroke-width="1" font-size="16" >O</text>
<text x="97.962014" y="69.409325" fill="rgb(102,102,102)"  stroke="rgb(102,102,102)" stroke-width="1" font-size="16" >H</text>
<text x="109.962014" y="73.089325" fill="rgb(102,102,102)"  stroke="rgb(102,102,102)" stroke-width="1" font-size="13" >3</text>
<text x="116.462014" y="69.409325" fill="rgb(102,102,102)"  stroke="rgb(102,102,102)" stroke-width="1" font-size="16" >C</text>
<text x="157.087918" y="77.725793" fill="rgb(255,12,12)"  stroke="rgb(255,12,12)" stroke-width="1" font-size="16" >O</text>
<text x="202.979047" y="209.860656" fill="rgb(178,178,0)"  stroke="rgb(178,178,0)" stroke-width="1" font-size="16" >S</text>
</svg>
</g>
<text font-size="18.000000" fill ="black" font-family="sans-serif"
x="10.000000" y="20.000000" ></text>
</svg>
