<?xml version="1.0"?>
<svg version="1.1" id="topsvg"
xmlns="http://www.w3.org/2000/svg" xmlns:xlink="http://www.w3.org/1999/xlink"
xmlns:cml="http://www.xml-cml.org/schema" x="0" y="0" width="200px" height="200px" viewBox="0 0 100 100">
<title> - Open Babel Depiction</title>
<rect x="0" y="0" width="100" height="100" fill="white"/>
<g transform="translate(0,0)">
<svg width="100" height="100" x="0" y="0" viewBox="0 0 481.091 242.662"
font-family="sans-serif" stroke="rgb(0,0,0)" stroke-width="2"  stroke-linecap="round">
<line x1="311.2" y1="142.1" x2="277.4" y2="122.6" stroke="rgb(0,0,0)"  stroke-width="2.0"/>
<line x1="176.0" y1="155.1" x2="176.0" y2="169.1" stroke="rgb(0,0,0)"  stroke-width="2.0"/>
<line x1="74.6" y1="122.6" x2="51.3" y2="136.0" stroke="rgb(0,0,0)"  stroke-width="2.0"/>
<line x1="346.1" y1="79.9" x2="328.7" y2="60.5" stroke="rgb(0,0,0)"  stroke-width="2.0"/>
<line x1="350.5" y1="75.8" x2="333.1" y2="56.5" stroke="rgb(0,0,0)"  stroke-width="2.0"/>
<line x1="393.6" y1="62.5" x2="400.1" y2="51.3" stroke="rgb(0,0,0)"  stroke-width="2.0"/>
<line x1="403.6" y1="106.5" x2="429.0" y2="111.9" stroke="rgb(0,0,0)"  stroke-width="2.0"/>
<line x1="402.3" y1="112.4" x2="427.8" y2="117.8" stroke="rgb(0,0,0)"  stroke-width="2.0"/>
<line x1="365.8" y1="173.7" x2="383.2" y2="193.0" stroke="rgb(0,0,0)"  stroke-width="2.0"/>
<line x1="142.2" y1="122.6" x2="142.2" y2="83.5" stroke="rgb(0,0,0)"  stroke-width="2.0"/>
<line x1="142.2" y1="83.5" x2="209.8" y2="83.5" stroke="rgb(0,0,0)"  stroke-width="2.0"/>
<line x1="209.8" y1="83.5" x2="209.8" y2="122.6" stroke="rgb(0,0,0)"  stroke-width="2.0"/>
<line x1="202.6" y1="89.5" x2="202.6" y2="116.6" stroke="rgb(0,0,0)"  stroke-width="2.0"/>
<line x1="209.8" y1="122.6" x2="187.3" y2="135.6" stroke="rgb(0,0,0)"  stroke-width="2.0"/>
<line x1="164.8" y1="135.6" x2="142.2" y2="122.6" stroke="rgb(0,0,0)"  stroke-width="2.0"/>
<line x1="373.9" y1="135.5" x2="365.8" y2="173.7" stroke="rgb(0,0,0)"  stroke-width="2.0"/>
<line x1="365.7" y1="139.9" x2="360.0" y2="166.3" stroke="rgb(0,0,0)"  stroke-width="2.0"/>
<line x1="365.8" y1="173.7" x2="340.0" y2="176.4" stroke="rgb(0,0,0)"  stroke-width="2.0"/>
<line x1="321.7" y1="165.9" x2="311.2" y2="142.1" stroke="rgb(0,0,0)"  stroke-width="2.0"/>
<line x1="311.2" y1="142.1" x2="340.2" y2="116.0" stroke="rgb(0,0,0)"  stroke-width="2.0"/>
<line x1="320.4" y1="143.4" x2="340.5" y2="125.4" stroke="rgb(0,0,0)"  stroke-width="2.0"/>
<line x1="340.2" y1="116.0" x2="373.9" y2="135.5" stroke="rgb(0,0,0)"  stroke-width="2.0"/>
<line x1="209.8" y1="83.5" x2="243.6" y2="64.0" stroke="rgb(0,0,0)"  stroke-width="2.0"/>
<line x1="243.6" y1="64.0" x2="277.4" y2="83.6" stroke="rgb(0,0,0)"  stroke-width="2.0"/>
<line x1="245.2" y1="73.3" x2="268.6" y2="86.8" stroke="rgb(0,0,0)"  stroke-width="2.0"/>
<line x1="277.4" y1="83.6" x2="277.4" y2="122.6" stroke="rgb(0,0,0)"  stroke-width="2.0"/>
<line x1="277.4" y1="122.6" x2="243.6" y2="142.1" stroke="rgb(0,0,0)"  stroke-width="2.0"/>
<line x1="268.6" y1="119.4" x2="245.2" y2="132.9" stroke="rgb(0,0,0)"  stroke-width="2.0"/>
<line x1="243.6" y1="142.1" x2="209.8" y2="122.6" stroke="rgb(0,0,0)"  stroke-width="2.0"/>
<line x1="108.4" y1="142.1" x2="142.2" y2="122.6" stroke="rgb(0,0,0)"  stroke-width="2.0"/>
<line x1="110.0" y1="132.8" x2="133.4" y2="119.3" stroke="rgb(0,0,0)"  stroke-width="2.0"/>
<line x1="142.2" y1="83.5" x2="108.4" y2="64.0" stroke="rgb(0,0,0)"  stroke-width="2.0"/>
<line x1="133.4" y1="86.8" x2="110.0" y2="73.3" stroke="rgb(0,0,0)"  stroke-width="2.0"/>
<line x1="108.4" y1="64.0" x2="74.7" y2="83.5" stroke="rgb(0,0,0)"  stroke-width="2.0"/>
<line x1="74.7" y1="83.5" x2="74.6" y2="122.6" stroke="rgb(0,0,0)"  stroke-width="2.0"/>
<line x1="81.9" y1="89.5" x2="81.8" y2="116.6" stroke="rgb(0,0,0)"  stroke-width="2.0"/>
<line x1="74.6" y1="122.6" x2="108.4" y2="142.1" stroke="rgb(0,0,0)"  stroke-width="2.0"/>
<line x1="348.3" y1="77.8" x2="374.1" y2="75.1" stroke="rgb(0,0,0)"  stroke-width="2.0"/>
<line x1="392.4" y1="85.7" x2="402.9" y2="109.4" stroke="rgb(0,0,0)"  stroke-width="2.0"/>
<line x1="402.9" y1="109.4" x2="373.9" y2="135.5" stroke="rgb(0,0,0)"  stroke-width="2.0"/>
<line x1="340.2" y1="116.0" x2="348.3" y2="77.8" stroke="rgb(0,0,0)"  stroke-width="2.0"/>
<text x="321.031397" y="185.739596" fill="rgb(178,178,0)"  stroke="rgb(178,178,0)" stroke-width="1" font-size="16" >S</text>
<text x="385.923445" y="210.661905" fill="rgb(191,191,191)"  stroke="rgb(191,191,191)" stroke-width="1" font-size="16" >H</text>
<text x="435.091162" y="125.534153" fill="rgb(255,12,12)"  stroke="rgb(255,12,12)" stroke-width="1" font-size="16" >O</text>
<text x="402.586435" y="48.000000" fill="rgb(102,102,102)"  stroke="rgb(102,102,102)" stroke-width="1" font-size="16" >CH</text>
<text x="426.586435" y="51.680000" fill="rgb(102,102,102)"  stroke="rgb(102,102,102)" stroke-width="1" font-size="13" >3</text>
<text x="381.076575" y="81.778883" fill="rgb(12,12,255)"  stroke="rgb(12,12,255)" stroke-width="1" font-size="16" >N</text>
<text x="316.184527" y="56.856575" fill="rgb(255,12,12)"  stroke="rgb(255,12,12)" stroke-width="1" font-size="16" >O</text>
<text x="34.000000" y="150.542840" fill="rgb(191,191,191)"  stroke="rgb(191,191,191)" stroke-width="1" font-size="16" >H</text>
<text x="172.022495" y="190.077192" fill="rgb(102,102,102)"  stroke="rgb(102,102,102)" stroke-width="1" font-size="16" >CH</text>
<text x="196.022495" y="193.757192" fill="rgb(102,102,102)"  stroke="rgb(102,102,102)" stroke-width="1" font-size="13" >3</text>
<text x="170.025270" y="150.077192" fill="rgb(12,12,255)"  stroke="rgb(12,12,255)" stroke-width="1" font-size="16" >N</text>
</svg>
</g>
<text font-size="18.000000" fill ="black" font-family="sans-serif"
x="10.000000" y="20.000000" ></text>
</svg>
