<?xml version="1.0"?>
<svg version="1.1" id="topsvg"
xmlns="http://www.w3.org/2000/svg" xmlns:xlink="http://www.w3.org/1999/xlink"
xmlns:cml="http://www.xml-cml.org/schema" x="0" y="0" width="200px" height="200px" viewBox="0 0 100 100">
<title> - Open Babel Depiction</title>
<rect x="0" y="0" width="100" height="100" fill="white"/>
<g transform="translate(0,0)">
<svg width="100" height="100" x="0" y="0" viewBox="0 0 480.148 596.361"
font-family="sans-serif" stroke="rgb(0,0,0)" stroke-width="2"  stroke-linecap="round">
<line x1="211.7" y1="210.0" x2="191.0" y2="246.0" stroke="rgb(0,0,0)"  stroke-width="2.0"/>
<line x1="149.7" y1="250.3" x2="121.9" y2="219.5" stroke="rgb(0,0,0)"  stroke-width="2.0"/>
<line x1="121.9" y1="219.5" x2="102.8" y2="198.3" stroke="rgb(0,0,0)"  stroke-width="2.0"/>
<line x1="118.8" y1="222.3" x2="99.7" y2="201.1" stroke="rgb(0,0,0)"  stroke-width="2.0"/>
<line x1="125.0" y1="216.6" x2="105.9" y2="195.4" stroke="rgb(0,0,0)"  stroke-width="2.0"/>
<line x1="141.1" y1="290.9" x2="103.1" y2="307.8" stroke="rgb(0,0,0)"  stroke-width="2.0"/>
<line x1="103.1" y1="307.8" x2="77.1" y2="319.4" stroke="rgb(0,0,0)"  stroke-width="2.0"/>
<line x1="104.8" y1="311.7" x2="78.8" y2="323.3" stroke="rgb(0,0,0)"  stroke-width="2.0"/>
<line x1="101.4" y1="304.0" x2="75.3" y2="315.6" stroke="rgb(0,0,0)"  stroke-width="2.0"/>
<line x1="177.0" y1="311.7" x2="181.4" y2="353.0" stroke="rgb(0,0,0)"  stroke-width="2.0"/>
<line x1="183.1" y1="355.4" x2="149.5" y2="379.8" stroke="rgb(0,0,0)"  stroke-width="2.0"/>
<line x1="179.6" y1="350.6" x2="146.0" y2="375.0" stroke="rgb(0,0,0)"  stroke-width="2.0"/>
<line x1="147.8" y1="377.4" x2="152.1" y2="418.7" stroke="rgb(0,0,0)"  stroke-width="2.0"/>
<line x1="121.2" y1="446.5" x2="80.6" y2="437.9" stroke="rgb(0,0,0)"  stroke-width="2.0"/>
<line x1="80.6" y1="437.9" x2="52.7" y2="431.9" stroke="rgb(0,0,0)"  stroke-width="2.0"/>
<line x1="79.7" y1="442.0" x2="51.8" y2="436.0" stroke="rgb(0,0,0)"  stroke-width="2.0"/>
<line x1="81.5" y1="433.8" x2="53.6" y2="427.8" stroke="rgb(0,0,0)"  stroke-width="2.0"/>
<line x1="138.1" y1="484.4" x2="117.4" y2="520.4" stroke="rgb(0,0,0)"  stroke-width="2.0"/>
<line x1="117.4" y1="520.4" x2="103.1" y2="545.1" stroke="rgb(0,0,0)"  stroke-width="2.0"/>
<line x1="121.0" y1="522.5" x2="106.7" y2="547.2" stroke="rgb(0,0,0)"  stroke-width="2.0"/>
<line x1="113.7" y1="518.3" x2="99.5" y2="543.0" stroke="rgb(0,0,0)"  stroke-width="2.0"/>
<line x1="179.4" y1="480.1" x2="198.5" y2="501.3" stroke="rgb(0,0,0)"  stroke-width="2.0"/>
<line x1="318.2" y1="172.5" x2="332.4" y2="197.3" stroke="rgb(0,0,0)"  stroke-width="2.0"/>
<line x1="313.0" y1="175.5" x2="327.2" y2="200.3" stroke="rgb(0,0,0)"  stroke-width="2.0"/>
<line x1="349.3" y1="138.1" x2="377.9" y2="138.1" stroke="rgb(0,0,0)"  stroke-width="2.0"/>
<line x1="375.3" y1="136.6" x2="389.5" y2="111.9" stroke="rgb(0,0,0)"  stroke-width="2.0"/>
<line x1="380.5" y1="139.6" x2="394.7" y2="114.9" stroke="rgb(0,0,0)"  stroke-width="2.0"/>
<line x1="377.9" y1="138.1" x2="392.1" y2="162.8" stroke="rgb(0,0,0)"  stroke-width="2.0"/>
<line x1="411.6" y1="174.0" x2="427.1" y2="174.0" stroke="rgb(0,0,0)"  stroke-width="2.0"/>
<line x1="313.0" y1="100.6" x2="327.2" y2="75.9" stroke="rgb(0,0,0)"  stroke-width="2.0"/>
<line x1="318.2" y1="103.6" x2="332.4" y2="78.9" stroke="rgb(0,0,0)"  stroke-width="2.0"/>
<line x1="252.3" y1="78.7" x2="262.7" y2="52.1" stroke="rgb(0,0,0)"  stroke-width="2.0"/>
<line x1="169.7" y1="110.6" x2="155.9" y2="85.7" stroke="rgb(0,0,0)"  stroke-width="2.0"/>
<line x1="174.9" y1="107.7" x2="161.2" y2="82.8" stroke="rgb(0,0,0)"  stroke-width="2.0"/>
<line x1="142.1" y1="131.5" x2="114.0" y2="126.7" stroke="rgb(0,0,0)"  stroke-width="2.0"/>
<line x1="116.3" y1="128.6" x2="98.1" y2="150.6" stroke="rgb(0,0,0)"  stroke-width="2.0"/>
<line x1="111.7" y1="124.8" x2="93.5" y2="146.7" stroke="rgb(0,0,0)"  stroke-width="2.0"/>
<line x1="114.0" y1="126.7" x2="104.1" y2="100.0" stroke="rgb(0,0,0)"  stroke-width="2.0"/>
<line x1="107.8" y1="77.8" x2="117.8" y2="65.8" stroke="rgb(0,0,0)"  stroke-width="2.0"/>
<line x1="165.2" y1="164.8" x2="144.0" y2="183.8" stroke="rgb(0,0,0)"  stroke-width="2.0"/>
<line x1="161.2" y1="160.3" x2="140.0" y2="179.3" stroke="rgb(0,0,0)"  stroke-width="2.0"/>
<line x1="141.1" y1="290.9" x2="177.0" y2="311.7" stroke="rgb(0,0,0)"  stroke-width="2.0"/>
<line x1="149.8" y1="287.7" x2="175.4" y2="302.5" stroke="rgb(0,0,0)"  stroke-width="2.0"/>
<line x1="177.0" y1="311.7" x2="198.2" y2="292.6" stroke="rgb(0,0,0)"  stroke-width="2.0"/>
<line x1="202.6" y1="272.0" x2="191.0" y2="246.0" stroke="rgb(0,0,0)"  stroke-width="2.0"/>
<line x1="191.0" y1="246.0" x2="149.7" y2="250.3" stroke="rgb(0,0,0)"  stroke-width="2.0"/>
<line x1="185.8" y1="253.8" x2="156.4" y2="256.9" stroke="rgb(0,0,0)"  stroke-width="2.0"/>
<line x1="149.7" y1="250.3" x2="141.1" y2="290.9" stroke="rgb(0,0,0)"  stroke-width="2.0"/>
<line x1="138.1" y1="484.4" x2="179.4" y2="480.1" stroke="rgb(0,0,0)"  stroke-width="2.0"/>
<line x1="143.3" y1="476.6" x2="172.7" y2="473.6" stroke="rgb(0,0,0)"  stroke-width="2.0"/>
<line x1="179.4" y1="480.1" x2="185.4" y2="452.2" stroke="rgb(0,0,0)"  stroke-width="2.0"/>
<line x1="176.8" y1="433.0" x2="152.1" y2="418.7" stroke="rgb(0,0,0)"  stroke-width="2.0"/>
<line x1="152.1" y1="418.7" x2="121.2" y2="446.5" stroke="rgb(0,0,0)"  stroke-width="2.0"/>
<line x1="152.5" y1="428.1" x2="130.5" y2="447.8" stroke="rgb(0,0,0)"  stroke-width="2.0"/>
<line x1="121.2" y1="446.5" x2="138.1" y2="484.4" stroke="rgb(0,0,0)"  stroke-width="2.0"/>
<line x1="274.0" y1="174.0" x2="253.3" y2="138.1" stroke="rgb(0,0,0)"  stroke-width="2.0"/>
<line x1="264.8" y1="172.5" x2="250.0" y2="146.9" stroke="rgb(0,0,0)"  stroke-width="2.0"/>
<line x1="253.3" y1="138.1" x2="211.7" y2="138.1" stroke="rgb(0,0,0)"  stroke-width="2.0"/>
<line x1="211.7" y1="138.1" x2="191.0" y2="174.0" stroke="rgb(0,0,0)"  stroke-width="2.0"/>
<line x1="215.0" y1="146.9" x2="200.2" y2="172.5" stroke="rgb(0,0,0)"  stroke-width="2.0"/>
<line x1="191.0" y1="174.0" x2="211.7" y2="210.0" stroke="rgb(0,0,0)"  stroke-width="2.0"/>
<line x1="211.7" y1="210.0" x2="253.3" y2="210.0" stroke="rgb(0,0,0)"  stroke-width="2.0"/>
<line x1="217.7" y1="202.8" x2="247.3" y2="202.8" stroke="rgb(0,0,0)"  stroke-width="2.0"/>
<line x1="253.3" y1="210.0" x2="274.0" y2="174.0" stroke="rgb(0,0,0)"  stroke-width="2.0"/>
<line x1="315.6" y1="102.1" x2="274.0" y2="102.1" stroke="rgb(0,0,0)"  stroke-width="2.0"/>
<line x1="274.0" y1="102.1" x2="253.3" y2="138.1" stroke="rgb(0,0,0)"  stroke-width="2.0"/>
<line x1="274.0" y1="174.0" x2="315.6" y2="174.0" stroke="rgb(0,0,0)"  stroke-width="2.0"/>
<line x1="315.6" y1="174.0" x2="329.8" y2="149.3" stroke="rgb(0,0,0)"  stroke-width="2.0"/>
<line x1="329.8" y1="126.8" x2="315.6" y2="102.1" stroke="rgb(0,0,0)"  stroke-width="2.0"/>
<line x1="220.3" y1="81.0" x2="202.3" y2="107.5" stroke="rgb(0,0,0)"  stroke-width="2.0"/>
<line x1="222.9" y1="90.1" x2="211.6" y2="106.6" stroke="rgb(0,0,0)"  stroke-width="2.0"/>
<line x1="202.3" y1="107.5" x2="211.7" y2="138.1" stroke="rgb(0,0,0)"  stroke-width="2.0"/>
<line x1="274.0" y1="102.1" x2="252.3" y2="78.7" stroke="rgb(0,0,0)"  stroke-width="2.0"/>
<line x1="264.7" y1="102.6" x2="251.1" y2="88.0" stroke="rgb(0,0,0)"  stroke-width="2.0"/>
<line x1="252.3" y1="78.7" x2="220.3" y2="81.0" stroke="rgb(0,0,0)"  stroke-width="2.0"/>
<line x1="158.5" y1="146.2" x2="163.2" y2="162.5" stroke="rgb(0,0,0)"  stroke-width="2.0"/>
<line x1="163.2" y1="162.5" x2="191.0" y2="174.0" stroke="rgb(0,0,0)"  stroke-width="2.0"/>
<line x1="202.3" y1="107.5" x2="172.3" y2="109.2" stroke="rgb(0,0,0)"  stroke-width="2.0"/>
<line x1="172.3" y1="109.2" x2="162.4" y2="123.1" stroke="rgb(0,0,0)"  stroke-width="2.0"/>
<text x="330.330294" y="146.085691" fill="rgb(12,12,255)"  stroke="rgb(12,12,255)" stroke-width="1" font-size="16" >N</text>
<text x="392.621127" y="110.122061" fill="rgb(255,12,12)"  stroke="rgb(255,12,12)" stroke-width="1" font-size="16" >O</text>
<text x="392.621127" y="182.049320" fill="rgb(255,12,12)"  stroke="rgb(255,12,12)" stroke-width="1" font-size="16" >O</text>
<text x="436.148349" y="182.049320" fill="rgb(102,102,102)"  stroke="rgb(102,102,102)" stroke-width="1" font-size="16" >CH</text>
<text x="460.148349" y="185.729320" fill="rgb(102,102,102)"  stroke="rgb(102,102,102)" stroke-width="1" font-size="13" >3</text>
<text x="330.330294" y="74.158432" fill="rgb(255,12,12)"  stroke="rgb(255,12,12)" stroke-width="1" font-size="16" >O</text>
<text x="261.438294" y="48.000000" fill="rgb(191,191,191)"  stroke="rgb(191,191,191)" stroke-width="1" font-size="16" >H</text>
<text x="330.330294" y="218.012949" fill="rgb(255,12,12)"  stroke="rgb(255,12,12)" stroke-width="1" font-size="16" >O</text>
<text x="146.239043" y="80.821103" fill="rgb(255,12,12)"  stroke="rgb(255,12,12)" stroke-width="1" font-size="16" >O</text>
<text x="148.922308" y="141.670631" fill="rgb(12,12,255)"  stroke="rgb(12,12,255)" stroke-width="1" font-size="16" >N</text>
<text x="81.479907" y="166.671694" fill="rgb(255,12,12)"  stroke="rgb(255,12,12)" stroke-width="1" font-size="16" >O</text>
<text x="93.549552" y="95.764331" fill="rgb(255,12,12)"  stroke="rgb(255,12,12)" stroke-width="1" font-size="16" >O</text>
<text x="122.053567" y="63.794855" fill="rgb(102,102,102)"  stroke="rgb(102,102,102)" stroke-width="1" font-size="16" >CH</text>
<text x="146.053567" y="67.474855" fill="rgb(102,102,102)"  stroke="rgb(102,102,102)" stroke-width="1" font-size="13" >3</text>
<text x="126.258197" y="198.205603" fill="rgb(255,12,12)"  stroke="rgb(255,12,12)" stroke-width="1" font-size="16" >O</text>
<text x="88.111015" y="196.595875" fill="rgb(12,12,255)"  stroke="rgb(12,12,255)" stroke-width="1" font-size="16" >N</text>
<text x="59.177281" y="332.718393" fill="rgb(12,12,255)"  stroke="rgb(12,12,255)" stroke-width="1" font-size="16" >N</text>
<text x="201.875660" y="291.913583" fill="rgb(178,178,0)"  stroke="rgb(178,178,0)" stroke-width="1" font-size="16" >S</text>
<text x="34.000000" y="437.228415" fill="rgb(12,12,255)"  stroke="rgb(12,12,255)" stroke-width="1" font-size="16" >N</text>
<text x="90.602926" y="564.360669" fill="rgb(12,12,255)"  stroke="rgb(12,12,255)" stroke-width="1" font-size="16" >N</text>
<text x="201.217015" y="518.953374" fill="rgb(191,191,191)"  stroke="rgb(191,191,191)" stroke-width="1" font-size="16" >H</text>
<text x="182.063874" y="447.472881" fill="rgb(178,178,0)"  stroke="rgb(178,178,0)" stroke-width="1" font-size="16" >S</text>
</svg>
</g>
<text font-size="18.000000" fill ="black" font-family="sans-serif"
x="10.000000" y="20.000000" ></text>
</svg>
