<?xml version="1.0"?>
<svg version="1.1" id="topsvg"
xmlns="http://www.w3.org/2000/svg" xmlns:xlink="http://www.w3.org/1999/xlink"
xmlns:cml="http://www.xml-cml.org/schema" x="0" y="0" width="200px" height="200px" viewBox="0 0 100 100">
<title> - Open Babel Depiction</title>
<rect x="0" y="0" width="100" height="100" fill="white"/>
<g transform="translate(0,0)">
<svg width="100" height="100" x="0" y="0" viewBox="0 0 530.868 332.806"
font-family="sans-serif" stroke="rgb(0,0,0)" stroke-width="2"  stroke-linecap="round">
<line x1="207.9" y1="102.1" x2="247.0" y2="110.4" stroke="rgb(0,0,0)"  stroke-width="2.0"/>
<line x1="276.7" y1="83.6" x2="273.9" y2="56.8" stroke="rgb(0,0,0)"  stroke-width="2.0"/>
<line x1="311.4" y1="103.6" x2="347.9" y2="87.4" stroke="rgb(0,0,0)"  stroke-width="2.0"/>
<line x1="347.9" y1="87.4" x2="372.6" y2="76.4" stroke="rgb(0,0,0)"  stroke-width="2.0"/>
<line x1="346.2" y1="83.5" x2="370.9" y2="72.5" stroke="rgb(0,0,0)"  stroke-width="2.0"/>
<line x1="349.6" y1="91.2" x2="374.3" y2="80.2" stroke="rgb(0,0,0)"  stroke-width="2.0"/>
<line x1="303.0" y1="142.8" x2="329.8" y2="172.5" stroke="rgb(0,0,0)"  stroke-width="2.0"/>
<line x1="329.2" y1="169.6" x2="368.3" y2="161.2" stroke="rgb(0,0,0)"  stroke-width="2.0"/>
<line x1="330.4" y1="175.4" x2="369.6" y2="167.1" stroke="rgb(0,0,0)"  stroke-width="2.0"/>
<line x1="368.9" y1="164.2" x2="395.7" y2="193.9" stroke="rgb(0,0,0)"  stroke-width="2.0"/>
<line x1="435.5" y1="189.7" x2="455.5" y2="155.1" stroke="rgb(0,0,0)"  stroke-width="2.0"/>
<line x1="455.5" y1="155.1" x2="469.0" y2="131.7" stroke="rgb(0,0,0)"  stroke-width="2.0"/>
<line x1="451.8" y1="153.0" x2="465.3" y2="129.6" stroke="rgb(0,0,0)"  stroke-width="2.0"/>
<line x1="459.1" y1="157.2" x2="472.6" y2="133.8" stroke="rgb(0,0,0)"  stroke-width="2.0"/>
<line x1="451.7" y1="226.3" x2="478.2" y2="231.9" stroke="rgb(0,0,0)"  stroke-width="2.0"/>
<line x1="422.0" y1="253.0" x2="424.8" y2="279.9" stroke="rgb(0,0,0)"  stroke-width="2.0"/>
<line x1="179.6" y1="166.3" x2="203.0" y2="179.8" stroke="rgb(0,0,0)"  stroke-width="2.0"/>
<line x1="176.6" y1="171.4" x2="200.0" y2="184.9" stroke="rgb(0,0,0)"  stroke-width="2.0"/>
<line x1="135.2" y1="228.0" x2="153.2" y2="248.0" stroke="rgb(0,0,0)"  stroke-width="2.0"/>
<line x1="79.1" y1="195.6" x2="52.7" y2="190.0" stroke="rgb(0,0,0)"  stroke-width="2.0"/>
<line x1="107.4" y1="131.4" x2="84.0" y2="117.9" stroke="rgb(0,0,0)"  stroke-width="2.0"/>
<line x1="110.4" y1="126.3" x2="87.0" y2="112.8" stroke="rgb(0,0,0)"  stroke-width="2.0"/>
<line x1="151.8" y1="69.7" x2="133.7" y2="49.7" stroke="rgb(0,0,0)"  stroke-width="2.0"/>
<line x1="311.4" y1="103.6" x2="303.0" y2="142.8" stroke="rgb(0,0,0)"  stroke-width="2.0"/>
<line x1="303.1" y1="108.0" x2="297.2" y2="135.4" stroke="rgb(0,0,0)"  stroke-width="2.0"/>
<line x1="303.0" y1="142.8" x2="276.2" y2="145.6" stroke="rgb(0,0,0)"  stroke-width="2.0"/>
<line x1="258.0" y1="135.1" x2="247.0" y2="110.4" stroke="rgb(0,0,0)"  stroke-width="2.0"/>
<line x1="247.0" y1="110.4" x2="276.7" y2="83.6" stroke="rgb(0,0,0)"  stroke-width="2.0"/>
<line x1="256.3" y1="111.7" x2="277.1" y2="93.0" stroke="rgb(0,0,0)"  stroke-width="2.0"/>
<line x1="276.7" y1="83.6" x2="311.4" y2="103.6" stroke="rgb(0,0,0)"  stroke-width="2.0"/>
<line x1="451.7" y1="226.3" x2="422.0" y2="253.0" stroke="rgb(0,0,0)"  stroke-width="2.0"/>
<line x1="442.5" y1="224.9" x2="421.7" y2="243.7" stroke="rgb(0,0,0)"  stroke-width="2.0"/>
<line x1="422.0" y1="253.0" x2="398.6" y2="239.5" stroke="rgb(0,0,0)"  stroke-width="2.0"/>
<line x1="390.1" y1="220.3" x2="395.7" y2="193.9" stroke="rgb(0,0,0)"  stroke-width="2.0"/>
<line x1="395.7" y1="193.9" x2="435.5" y2="189.7" stroke="rgb(0,0,0)"  stroke-width="2.0"/>
<line x1="402.4" y1="200.4" x2="430.3" y2="197.5" stroke="rgb(0,0,0)"  stroke-width="2.0"/>
<line x1="435.5" y1="189.7" x2="451.7" y2="226.3" stroke="rgb(0,0,0)"  stroke-width="2.0"/>
<line x1="90.1" y1="220.3" x2="79.1" y2="195.6" stroke="rgb(0,0,0)"  stroke-width="2.0"/>
<line x1="79.1" y1="195.6" x2="108.9" y2="168.9" stroke="rgb(0,0,0)"  stroke-width="2.0"/>
<line x1="88.4" y1="197.0" x2="109.2" y2="178.2" stroke="rgb(0,0,0)"  stroke-width="2.0"/>
<line x1="108.9" y1="168.9" x2="143.5" y2="188.9" stroke="rgb(0,0,0)"  stroke-width="2.0"/>
<line x1="143.5" y1="188.9" x2="135.2" y2="228.0" stroke="rgb(0,0,0)"  stroke-width="2.0"/>
<line x1="135.2" y1="193.2" x2="129.4" y2="220.6" stroke="rgb(0,0,0)"  stroke-width="2.0"/>
<line x1="135.2" y1="228.0" x2="108.3" y2="230.8" stroke="rgb(0,0,0)"  stroke-width="2.0"/>
<line x1="143.5" y1="108.9" x2="151.8" y2="69.7" stroke="rgb(0,0,0)"  stroke-width="2.0"/>
<line x1="151.8" y1="104.5" x2="157.6" y2="77.1" stroke="rgb(0,0,0)"  stroke-width="2.0"/>
<line x1="151.8" y1="69.7" x2="178.7" y2="66.9" stroke="rgb(0,0,0)"  stroke-width="2.0"/>
<line x1="196.9" y1="77.4" x2="207.9" y2="102.1" stroke="rgb(0,0,0)"  stroke-width="2.0"/>
<line x1="207.9" y1="102.1" x2="178.1" y2="128.9" stroke="rgb(0,0,0)"  stroke-width="2.0"/>
<line x1="198.6" y1="100.8" x2="177.8" y2="119.5" stroke="rgb(0,0,0)"  stroke-width="2.0"/>
<line x1="178.1" y1="128.9" x2="143.5" y2="108.9" stroke="rgb(0,0,0)"  stroke-width="2.0"/>
<line x1="178.1" y1="168.9" x2="143.5" y2="188.9" stroke="rgb(0,0,0)"  stroke-width="2.0"/>
<line x1="108.9" y1="168.9" x2="108.9" y2="128.9" stroke="rgb(0,0,0)"  stroke-width="2.0"/>
<line x1="108.9" y1="128.9" x2="143.5" y2="108.9" stroke="rgb(0,0,0)"  stroke-width="2.0"/>
<line x1="178.1" y1="128.9" x2="178.1" y2="168.9" stroke="rgb(0,0,0)"  stroke-width="2.0"/>
<text x="381.375653" y="241.024643" fill="rgb(178,178,0)"  stroke="rgb(178,178,0)" stroke-width="1" font-size="16" >S</text>
<text x="206.774746" y="196.851697" fill="rgb(255,12,12)"  stroke="rgb(255,12,12)" stroke-width="1" font-size="16" >O</text>
<text x="155.941470" y="265.703394" fill="rgb(191,191,191)"  stroke="rgb(191,191,191)" stroke-width="1" font-size="16" >H</text>
<text x="89.395370" y="240.158740" fill="rgb(178,178,0)"  stroke="rgb(178,178,0)" stroke-width="1" font-size="16" >S</text>
<text x="420.197808" y="300.805518" fill="rgb(191,191,191)"  stroke="rgb(191,191,191)" stroke-width="1" font-size="16" >H</text>
<text x="34.000000" y="195.300454" fill="rgb(191,191,191)"  stroke="rgb(191,191,191)" stroke-width="1" font-size="16" >H</text>
<text x="68.210681" y="116.851697" fill="rgb(255,12,12)"  stroke="rgb(255,12,12)" stroke-width="1" font-size="16" >O</text>
<text x="119.043957" y="48.000000" fill="rgb(191,191,191)"  stroke="rgb(191,191,191)" stroke-width="1" font-size="16" >H</text>
<text x="185.590057" y="73.544654" fill="rgb(178,178,0)"  stroke="rgb(178,178,0)" stroke-width="1" font-size="16" >S</text>
<text x="266.530081" y="51.856840" fill="rgb(127,178,255)"  stroke="rgb(127,178,255)" stroke-width="1" font-size="16" >F</text>
<text x="378.435872" y="79.098785" fill="rgb(12,12,255)"  stroke="rgb(12,12,255)" stroke-width="1" font-size="16" >N</text>
<text x="257.254892" y="154.944759" fill="rgb(178,178,0)"  stroke="rgb(178,178,0)" stroke-width="1" font-size="16" >S</text>
<text x="469.472996" y="128.435568" fill="rgb(12,12,255)"  stroke="rgb(12,12,255)" stroke-width="1" font-size="16" >N</text>
<text x="484.868366" y="242.575886" fill="rgb(127,178,255)"  stroke="rgb(127,178,255)" stroke-width="1" font-size="16" >F</text>
</svg>
</g>
<text font-size="18.000000" fill ="black" font-family="sans-serif"
x="10.000000" y="20.000000" ></text>
</svg>
