<?xml version="1.0"?>
<svg version="1.1" id="topsvg"
xmlns="http://www.w3.org/2000/svg" xmlns:xlink="http://www.w3.org/1999/xlink"
xmlns:cml="http://www.xml-cml.org/schema" x="0" y="0" width="200px" height="200px" viewBox="0 0 100 100">
<title> - Open Babel Depiction</title>
<rect x="0" y="0" width="100" height="100" fill="white"/>
<g transform="translate(0,0)">
<svg width="100" height="100" x="0" y="0" viewBox="0 0 504.46 278.238"
font-family="sans-serif" stroke="rgb(0,0,0)" stroke-width="2"  stroke-linecap="round">
<line x1="240.5" y1="128.1" x2="274.2" y2="108.5" stroke="rgb(0,0,0)"  stroke-width="2.0"/>
<line x1="296.9" y1="77.0" x2="288.8" y2="52.3" stroke="rgb(0,0,0)"  stroke-width="2.0"/>
<line x1="333.9" y1="88.8" x2="354.8" y2="73.5" stroke="rgb(0,0,0)"  stroke-width="2.0"/>
<line x1="334.1" y1="127.7" x2="365.6" y2="150.5" stroke="rgb(0,0,0)"  stroke-width="2.0"/>
<line x1="425.6" y1="169.7" x2="451.5" y2="169.6" stroke="rgb(0,0,0)"  stroke-width="2.0"/>
<line x1="402.8" y1="201.3" x2="410.9" y2="225.9" stroke="rgb(0,0,0)"  stroke-width="2.0"/>
<line x1="365.8" y1="189.4" x2="344.9" y2="204.7" stroke="rgb(0,0,0)"  stroke-width="2.0"/>
<line x1="169.4" y1="88.7" x2="169.3" y2="61.6" stroke="rgb(0,0,0)"  stroke-width="2.0"/>
<line x1="175.4" y1="88.7" x2="175.3" y2="61.5" stroke="rgb(0,0,0)"  stroke-width="2.0"/>
<line x1="126.7" y1="102.4" x2="104.2" y2="89.6" stroke="rgb(0,0,0)"  stroke-width="2.0"/>
<line x1="101.4" y1="88.7" x2="109.2" y2="64.0" stroke="rgb(0,0,0)"  stroke-width="2.0"/>
<line x1="107.1" y1="90.5" x2="114.9" y2="65.8" stroke="rgb(0,0,0)"  stroke-width="2.0"/>
<line x1="104.2" y1="89.6" x2="78.9" y2="95.2" stroke="rgb(0,0,0)"  stroke-width="2.0"/>
<line x1="57.5" y1="88.3" x2="48.8" y2="78.8" stroke="rgb(0,0,0)"  stroke-width="2.0"/>
<line x1="139.8" y1="150.3" x2="116.5" y2="164.0" stroke="rgb(0,0,0)"  stroke-width="2.0"/>
<line x1="136.8" y1="145.1" x2="113.5" y2="158.8" stroke="rgb(0,0,0)"  stroke-width="2.0"/>
<line x1="206.5" y1="187.1" x2="206.6" y2="214.1" stroke="rgb(0,0,0)"  stroke-width="2.0"/>
<line x1="333.9" y1="88.8" x2="334.1" y2="127.7" stroke="rgb(0,0,0)"  stroke-width="2.0"/>
<line x1="326.8" y1="94.9" x2="326.9" y2="121.8" stroke="rgb(0,0,0)"  stroke-width="2.0"/>
<line x1="334.1" y1="127.7" x2="309.5" y2="135.8" stroke="rgb(0,0,0)"  stroke-width="2.0"/>
<line x1="289.5" y1="129.4" x2="274.2" y2="108.5" stroke="rgb(0,0,0)"  stroke-width="2.0"/>
<line x1="274.2" y1="108.5" x2="296.9" y2="77.0" stroke="rgb(0,0,0)"  stroke-width="2.0"/>
<line x1="283.5" y1="107.8" x2="299.2" y2="86.0" stroke="rgb(0,0,0)"  stroke-width="2.0"/>
<line x1="296.9" y1="77.0" x2="333.9" y2="88.8" stroke="rgb(0,0,0)"  stroke-width="2.0"/>
<line x1="425.6" y1="169.7" x2="402.8" y2="201.3" stroke="rgb(0,0,0)"  stroke-width="2.0"/>
<line x1="416.2" y1="170.4" x2="400.5" y2="192.2" stroke="rgb(0,0,0)"  stroke-width="2.0"/>
<line x1="402.8" y1="201.3" x2="365.8" y2="189.4" stroke="rgb(0,0,0)"  stroke-width="2.0"/>
<line x1="365.8" y1="189.4" x2="365.6" y2="150.5" stroke="rgb(0,0,0)"  stroke-width="2.0"/>
<line x1="372.9" y1="183.4" x2="372.9" y2="156.5" stroke="rgb(0,0,0)"  stroke-width="2.0"/>
<line x1="365.6" y1="150.5" x2="390.2" y2="142.4" stroke="rgb(0,0,0)"  stroke-width="2.0"/>
<line x1="410.3" y1="148.8" x2="425.6" y2="169.7" stroke="rgb(0,0,0)"  stroke-width="2.0"/>
<line x1="172.4" y1="167.4" x2="206.5" y2="187.1" stroke="rgb(0,0,0)"  stroke-width="2.0"/>
<line x1="181.2" y1="164.2" x2="204.9" y2="177.8" stroke="rgb(0,0,0)"  stroke-width="2.0"/>
<line x1="206.5" y1="187.1" x2="229.6" y2="173.5" stroke="rgb(0,0,0)"  stroke-width="2.0"/>
<line x1="240.7" y1="154.0" x2="240.5" y2="128.1" stroke="rgb(0,0,0)"  stroke-width="2.0"/>
<line x1="240.5" y1="128.1" x2="206.5" y2="108.4" stroke="rgb(0,0,0)"  stroke-width="2.0"/>
<line x1="231.7" y1="131.3" x2="208.1" y2="117.6" stroke="rgb(0,0,0)"  stroke-width="2.0"/>
<line x1="206.5" y1="108.4" x2="172.4" y2="167.4" stroke="rgb(0,0,0)"  stroke-width="2.0"/>
<line x1="172.4" y1="88.7" x2="149.2" y2="102.3" stroke="rgb(0,0,0)"  stroke-width="2.0"/>
<line x1="138.1" y1="121.8" x2="138.3" y2="147.7" stroke="rgb(0,0,0)"  stroke-width="2.0"/>
<line x1="138.3" y1="147.7" x2="172.4" y2="167.4" stroke="rgb(0,0,0)"  stroke-width="2.0"/>
<line x1="206.5" y1="108.4" x2="172.4" y2="88.7" stroke="rgb(0,0,0)"  stroke-width="2.0"/>
<text x="316.380950" y="220.369678" fill="rgb(30,239,30)"  stroke="rgb(30,239,30)" stroke-width="1" font-size="16" >Cl</text>
<text x="234.810054" y="174.969396" fill="rgb(178,178,0)"  stroke="rgb(178,178,0)" stroke-width="1" font-size="16" >S</text>
<text x="200.590438" y="235.081416" fill="rgb(191,191,191)"  stroke="rgb(191,191,191)" stroke-width="1" font-size="16" >H</text>
<text x="97.794937" y="175.955703" fill="rgb(255,12,12)"  stroke="rgb(255,12,12)" stroke-width="1" font-size="16" >O</text>
<text x="14.000000" y="77.206086" fill="rgb(102,102,102)"  stroke="rgb(102,102,102)" stroke-width="1" font-size="16" >H</text>
<text x="26.000000" y="80.886086" fill="rgb(102,102,102)"  stroke="rgb(102,102,102)" stroke-width="1" font-size="13" >3</text>
<text x="32.500000" y="77.206086" fill="rgb(102,102,102)"  stroke="rgb(102,102,102)" stroke-width="1" font-size="16" >C</text>
<text x="60.219096" y="105.941228" fill="rgb(255,12,12)"  stroke="rgb(255,12,12)" stroke-width="1" font-size="16" >O</text>
<text x="109.989822" y="60.528422" fill="rgb(255,12,12)"  stroke="rgb(255,12,12)" stroke-width="1" font-size="16" >O</text>
<text x="132.029495" y="116.828994" fill="rgb(12,12,255)"  stroke="rgb(12,12,255)" stroke-width="1" font-size="16" >N</text>
<text x="166.248607" y="56.553896" fill="rgb(255,12,12)"  stroke="rgb(255,12,12)" stroke-width="1" font-size="16" >O</text>
<text x="408.958415" y="246.238000" fill="rgb(191,191,191)"  stroke="rgb(191,191,191)" stroke-width="1" font-size="16" >H</text>
<text x="458.460457" y="177.598029" fill="rgb(191,191,191)"  stroke="rgb(191,191,191)" stroke-width="1" font-size="16" >H</text>
<text x="396.586574" y="146.345267" fill="rgb(178,178,0)"  stroke="rgb(178,178,0)" stroke-width="1" font-size="16" >S</text>
<text x="291.130519" y="147.892734" fill="rgb(178,178,0)"  stroke="rgb(178,178,0)" stroke-width="1" font-size="16" >S</text>
<text x="359.336143" y="73.868322" fill="rgb(30,239,30)"  stroke="rgb(30,239,30)" stroke-width="1" font-size="16" >Cl</text>
<text x="278.758678" y="48.000000" fill="rgb(191,191,191)"  stroke="rgb(191,191,191)" stroke-width="1" font-size="16" >H</text>
</svg>
</g>
<text font-size="18.000000" fill ="black" font-family="sans-serif"
x="10.000000" y="20.000000" ></text>
</svg>
