<?xml version="1.0"?>
<svg version="1.1" id="topsvg"
xmlns="http://www.w3.org/2000/svg" xmlns:xlink="http://www.w3.org/1999/xlink"
xmlns:cml="http://www.xml-cml.org/schema" x="0" y="0" width="200px" height="200px" viewBox="0 0 100 100">
<title> - Open Babel Depiction</title>
<rect x="0" y="0" width="100" height="100" fill="white"/>
<g transform="translate(0,0)">
<svg width="100" height="100" x="0" y="0" viewBox="0 0 473.823 339.173"
font-family="sans-serif" stroke="rgb(0,0,0)" stroke-width="2"  stroke-linecap="round">
<line x1="295.3" y1="124.6" x2="329.9" y2="144.6" stroke="rgb(0,0,0)"  stroke-width="2.0"/>
<line x1="399.2" y1="144.6" x2="422.6" y2="131.1" stroke="rgb(0,0,0)"  stroke-width="2.0"/>
<line x1="399.2" y1="184.6" x2="422.6" y2="198.1" stroke="rgb(0,0,0)"  stroke-width="2.0"/>
<line x1="329.9" y1="184.6" x2="306.5" y2="198.1" stroke="rgb(0,0,0)"  stroke-width="2.0"/>
<line x1="248.6" y1="176.9" x2="266.7" y2="197.0" stroke="rgb(0,0,0)"  stroke-width="2.0"/>
<line x1="244.1" y1="181.0" x2="262.2" y2="201.0" stroke="rgb(0,0,0)"  stroke-width="2.0"/>
<line x1="187.2" y1="221.9" x2="203.5" y2="258.5" stroke="rgb(0,0,0)"  stroke-width="2.0"/>
<line x1="205.9" y1="260.2" x2="190.1" y2="282.1" stroke="rgb(0,0,0)"  stroke-width="2.0"/>
<line x1="201.1" y1="256.7" x2="185.2" y2="278.5" stroke="rgb(0,0,0)"  stroke-width="2.0"/>
<line x1="203.5" y1="258.5" x2="230.4" y2="261.3" stroke="rgb(0,0,0)"  stroke-width="2.0"/>
<line x1="248.6" y1="274.5" x2="254.3" y2="287.3" stroke="rgb(0,0,0)"  stroke-width="2.0"/>
<line x1="143.9" y1="173.8" x2="109.3" y2="153.8" stroke="rgb(0,0,0)"  stroke-width="2.0"/>
<line x1="106.3" y1="153.8" x2="106.3" y2="126.8" stroke="rgb(0,0,0)"  stroke-width="2.0"/>
<line x1="112.3" y1="153.8" x2="112.3" y2="126.8" stroke="rgb(0,0,0)"  stroke-width="2.0"/>
<line x1="109.3" y1="153.8" x2="85.9" y2="167.3" stroke="rgb(0,0,0)"  stroke-width="2.0"/>
<line x1="63.4" y1="167.3" x2="51.3" y2="160.3" stroke="rgb(0,0,0)"  stroke-width="2.0"/>
<line x1="190.6" y1="121.5" x2="172.5" y2="101.4" stroke="rgb(0,0,0)"  stroke-width="2.0"/>
<line x1="195.1" y1="117.5" x2="177.0" y2="97.4" stroke="rgb(0,0,0)"  stroke-width="2.0"/>
<line x1="252.0" y1="76.5" x2="241.0" y2="51.9" stroke="rgb(0,0,0)"  stroke-width="2.0"/>
<line x1="146.7" y1="200.7" x2="143.9" y2="173.8" stroke="rgb(0,0,0)"  stroke-width="2.0"/>
<line x1="143.9" y1="173.8" x2="180.5" y2="157.5" stroke="rgb(0,0,0)"  stroke-width="2.0"/>
<line x1="152.3" y1="177.9" x2="177.9" y2="166.6" stroke="rgb(0,0,0)"  stroke-width="2.0"/>
<line x1="180.5" y1="157.5" x2="207.2" y2="187.3" stroke="rgb(0,0,0)"  stroke-width="2.0"/>
<line x1="207.2" y1="187.3" x2="187.2" y2="221.9" stroke="rgb(0,0,0)"  stroke-width="2.0"/>
<line x1="198.0" y1="188.9" x2="184.0" y2="213.1" stroke="rgb(0,0,0)"  stroke-width="2.0"/>
<line x1="187.2" y1="221.9" x2="160.8" y2="216.3" stroke="rgb(0,0,0)"  stroke-width="2.0"/>
<line x1="232.0" y1="111.2" x2="252.0" y2="76.5" stroke="rgb(0,0,0)"  stroke-width="2.0"/>
<line x1="241.2" y1="109.6" x2="255.2" y2="85.3" stroke="rgb(0,0,0)"  stroke-width="2.0"/>
<line x1="252.0" y1="76.5" x2="278.4" y2="82.2" stroke="rgb(0,0,0)"  stroke-width="2.0"/>
<line x1="292.4" y1="97.8" x2="295.3" y2="124.6" stroke="rgb(0,0,0)"  stroke-width="2.0"/>
<line x1="295.3" y1="124.6" x2="258.7" y2="140.9" stroke="rgb(0,0,0)"  stroke-width="2.0"/>
<line x1="286.8" y1="120.5" x2="261.3" y2="131.9" stroke="rgb(0,0,0)"  stroke-width="2.0"/>
<line x1="258.7" y1="140.9" x2="232.0" y2="111.2" stroke="rgb(0,0,0)"  stroke-width="2.0"/>
<line x1="399.2" y1="144.6" x2="399.2" y2="184.6" stroke="rgb(0,0,0)"  stroke-width="2.0"/>
<line x1="392.0" y1="150.6" x2="392.0" y2="178.6" stroke="rgb(0,0,0)"  stroke-width="2.0"/>
<line x1="399.2" y1="184.6" x2="364.5" y2="204.6" stroke="rgb(0,0,0)"  stroke-width="2.0"/>
<line x1="364.5" y1="204.6" x2="329.9" y2="184.6" stroke="rgb(0,0,0)"  stroke-width="2.0"/>
<line x1="362.9" y1="195.4" x2="338.7" y2="181.4" stroke="rgb(0,0,0)"  stroke-width="2.0"/>
<line x1="329.9" y1="184.6" x2="329.9" y2="144.6" stroke="rgb(0,0,0)"  stroke-width="2.0"/>
<line x1="329.9" y1="144.6" x2="364.5" y2="124.6" stroke="rgb(0,0,0)"  stroke-width="2.0"/>
<line x1="338.7" y1="147.9" x2="362.9" y2="133.9" stroke="rgb(0,0,0)"  stroke-width="2.0"/>
<line x1="364.5" y1="124.6" x2="399.2" y2="144.6" stroke="rgb(0,0,0)"  stroke-width="2.0"/>
<line x1="246.4" y1="179.0" x2="207.2" y2="187.3" stroke="rgb(0,0,0)"  stroke-width="2.0"/>
<line x1="180.5" y1="157.5" x2="192.8" y2="119.5" stroke="rgb(0,0,0)"  stroke-width="2.0"/>
<line x1="192.8" y1="119.5" x2="232.0" y2="111.2" stroke="rgb(0,0,0)"  stroke-width="2.0"/>
<line x1="258.7" y1="140.9" x2="246.4" y2="179.0" stroke="rgb(0,0,0)"  stroke-width="2.0"/>
<text x="173.988147" y="298.810870" fill="rgb(255,12,12)"  stroke="rgb(255,12,12)" stroke-width="1" font-size="16" >O</text>
<text x="285.077355" y="92.858286" fill="rgb(178,178,0)"  stroke="rgb(178,178,0)" stroke-width="1" font-size="16" >S</text>
<text x="229.681985" y="48.000000" fill="rgb(191,191,191)"  stroke="rgb(191,191,191)" stroke-width="1" font-size="16" >H</text>
<text x="160.060322" y="97.773509" fill="rgb(255,12,12)"  stroke="rgb(255,12,12)" stroke-width="1" font-size="16" >O</text>
<text x="14.000000" y="161.811028" fill="rgb(102,102,102)"  stroke="rgb(102,102,102)" stroke-width="1" font-size="16" >H</text>
<text x="26.000000" y="165.491028" fill="rgb(102,102,102)"  stroke="rgb(102,102,102)" stroke-width="1" font-size="13" >3</text>
<text x="32.500000" y="161.811028" fill="rgb(102,102,102)"  stroke="rgb(102,102,102)" stroke-width="1" font-size="16" >C</text>
<text x="68.641016" y="181.811028" fill="rgb(255,12,12)"  stroke="rgb(255,12,12)" stroke-width="1" font-size="16" >O</text>
<text x="103.282032" y="121.811028" fill="rgb(255,12,12)"  stroke="rgb(255,12,12)" stroke-width="1" font-size="16" >O</text>
<text x="142.104187" y="221.591904" fill="rgb(178,178,0)"  stroke="rgb(178,178,0)" stroke-width="1" font-size="16" >S</text>
<text x="255.549898" y="307.173147" fill="rgb(102,102,102)"  stroke="rgb(102,102,102)" stroke-width="1" font-size="16" >CH</text>
<text x="279.549898" y="310.853147" fill="rgb(102,102,102)"  stroke="rgb(102,102,102)" stroke-width="1" font-size="13" >3</text>
<text x="237.280433" y="270.631329" fill="rgb(255,12,12)"  stroke="rgb(255,12,12)" stroke-width="1" font-size="16" >O</text>
<text x="267.121219" y="216.676681" fill="rgb(255,12,12)"  stroke="rgb(255,12,12)" stroke-width="1" font-size="16" >O</text>
<text x="269.258493" y="212.639162" fill="rgb(102,102,102)"  stroke="rgb(102,102,102)" stroke-width="1" font-size="16" >H</text>
<text x="281.258493" y="216.319162" fill="rgb(102,102,102)"  stroke="rgb(102,102,102)" stroke-width="1" font-size="13" >3</text>
<text x="287.758493" y="212.639162" fill="rgb(102,102,102)"  stroke="rgb(102,102,102)" stroke-width="1" font-size="16" >C</text>
<text x="427.822558" y="212.639162" fill="rgb(191,191,191)"  stroke="rgb(191,191,191)" stroke-width="1" font-size="16" >H</text>
<text x="429.822558" y="132.639162" fill="rgb(102,102,102)"  stroke="rgb(102,102,102)" stroke-width="1" font-size="16" >CH</text>
<text x="453.822558" y="136.319162" fill="rgb(102,102,102)"  stroke="rgb(102,102,102)" stroke-width="1" font-size="13" >3</text>
</svg>
</g>
<text font-size="18.000000" fill ="black" font-family="sans-serif"
x="10.000000" y="20.000000" ></text>
</svg>
