<?xml version="1.0"?>
<svg version="1.1" id="topsvg"
xmlns="http://www.w3.org/2000/svg" xmlns:xlink="http://www.w3.org/1999/xlink"
xmlns:cml="http://www.xml-cml.org/schema" x="0" y="0" width="200px" height="200px" viewBox="0 0 100 100">
<title> - Open Babel Depiction</title>
<rect x="0" y="0" width="100" height="100" fill="white"/>
<g transform="translate(0,0)">
<svg width="100" height="100" x="0" y="0" viewBox="0 0 530.868 332.806"
font-family="sans-serif" stroke="rgb(0,0,0)" stroke-width="2"  stroke-linecap="round">
<line x1="323.0" y1="230.7" x2="283.9" y2="222.4" stroke="rgb(0,0,0)"  stroke-width="2.0"/>
<line x1="254.2" y1="249.2" x2="257.0" y2="276.0" stroke="rgb(0,0,0)"  stroke-width="2.0"/>
<line x1="219.5" y1="229.2" x2="194.9" y2="240.1" stroke="rgb(0,0,0)"  stroke-width="2.0"/>
<line x1="227.8" y1="190.0" x2="201.1" y2="160.3" stroke="rgb(0,0,0)"  stroke-width="2.0"/>
<line x1="201.7" y1="163.3" x2="162.6" y2="171.6" stroke="rgb(0,0,0)"  stroke-width="2.0"/>
<line x1="200.4" y1="157.4" x2="161.3" y2="165.7" stroke="rgb(0,0,0)"  stroke-width="2.0"/>
<line x1="161.9" y1="168.6" x2="135.2" y2="138.9" stroke="rgb(0,0,0)"  stroke-width="2.0"/>
<line x1="95.4" y1="143.1" x2="81.9" y2="166.5" stroke="rgb(0,0,0)"  stroke-width="2.0"/>
<line x1="79.1" y1="106.5" x2="52.7" y2="100.9" stroke="rgb(0,0,0)"  stroke-width="2.0"/>
<line x1="108.9" y1="79.8" x2="106.0" y2="52.9" stroke="rgb(0,0,0)"  stroke-width="2.0"/>
<line x1="351.2" y1="166.6" x2="327.9" y2="153.1" stroke="rgb(0,0,0)"  stroke-width="2.0"/>
<line x1="354.2" y1="161.4" x2="330.9" y2="147.9" stroke="rgb(0,0,0)"  stroke-width="2.0"/>
<line x1="395.7" y1="104.8" x2="377.6" y2="84.8" stroke="rgb(0,0,0)"  stroke-width="2.0"/>
<line x1="451.7" y1="137.2" x2="478.2" y2="142.8" stroke="rgb(0,0,0)"  stroke-width="2.0"/>
<line x1="423.5" y1="201.4" x2="446.9" y2="214.9" stroke="rgb(0,0,0)"  stroke-width="2.0"/>
<line x1="420.5" y1="206.6" x2="443.9" y2="220.1" stroke="rgb(0,0,0)"  stroke-width="2.0"/>
<line x1="379.1" y1="263.1" x2="397.1" y2="283.1" stroke="rgb(0,0,0)"  stroke-width="2.0"/>
<line x1="219.5" y1="229.2" x2="227.8" y2="190.0" stroke="rgb(0,0,0)"  stroke-width="2.0"/>
<line x1="227.8" y1="224.8" x2="233.6" y2="197.4" stroke="rgb(0,0,0)"  stroke-width="2.0"/>
<line x1="227.8" y1="190.0" x2="254.7" y2="187.2" stroke="rgb(0,0,0)"  stroke-width="2.0"/>
<line x1="272.9" y1="197.7" x2="283.9" y2="222.4" stroke="rgb(0,0,0)"  stroke-width="2.0"/>
<line x1="283.9" y1="222.4" x2="254.2" y2="249.2" stroke="rgb(0,0,0)"  stroke-width="2.0"/>
<line x1="274.6" y1="221.1" x2="253.8" y2="239.8" stroke="rgb(0,0,0)"  stroke-width="2.0"/>
<line x1="254.2" y1="249.2" x2="219.5" y2="229.2" stroke="rgb(0,0,0)"  stroke-width="2.0"/>
<line x1="79.1" y1="106.5" x2="108.9" y2="79.8" stroke="rgb(0,0,0)"  stroke-width="2.0"/>
<line x1="88.4" y1="107.9" x2="109.2" y2="89.1" stroke="rgb(0,0,0)"  stroke-width="2.0"/>
<line x1="108.9" y1="79.8" x2="132.2" y2="93.3" stroke="rgb(0,0,0)"  stroke-width="2.0"/>
<line x1="140.8" y1="112.5" x2="135.2" y2="138.9" stroke="rgb(0,0,0)"  stroke-width="2.0"/>
<line x1="135.2" y1="138.9" x2="95.4" y2="143.1" stroke="rgb(0,0,0)"  stroke-width="2.0"/>
<line x1="128.5" y1="132.4" x2="100.6" y2="135.3" stroke="rgb(0,0,0)"  stroke-width="2.0"/>
<line x1="95.4" y1="143.1" x2="79.1" y2="106.5" stroke="rgb(0,0,0)"  stroke-width="2.0"/>
<line x1="440.8" y1="112.5" x2="451.7" y2="137.2" stroke="rgb(0,0,0)"  stroke-width="2.0"/>
<line x1="451.7" y1="137.2" x2="422.0" y2="164.0" stroke="rgb(0,0,0)"  stroke-width="2.0"/>
<line x1="442.5" y1="135.9" x2="421.7" y2="154.6" stroke="rgb(0,0,0)"  stroke-width="2.0"/>
<line x1="422.0" y1="164.0" x2="387.4" y2="144.0" stroke="rgb(0,0,0)"  stroke-width="2.0"/>
<line x1="387.4" y1="144.0" x2="395.7" y2="104.8" stroke="rgb(0,0,0)"  stroke-width="2.0"/>
<line x1="395.7" y1="139.6" x2="401.5" y2="112.2" stroke="rgb(0,0,0)"  stroke-width="2.0"/>
<line x1="395.7" y1="104.8" x2="422.5" y2="102.0" stroke="rgb(0,0,0)"  stroke-width="2.0"/>
<line x1="387.4" y1="224.0" x2="379.1" y2="263.1" stroke="rgb(0,0,0)"  stroke-width="2.0"/>
<line x1="379.1" y1="228.3" x2="373.3" y2="255.7" stroke="rgb(0,0,0)"  stroke-width="2.0"/>
<line x1="379.1" y1="263.1" x2="352.2" y2="265.9" stroke="rgb(0,0,0)"  stroke-width="2.0"/>
<line x1="334.0" y1="255.4" x2="323.0" y2="230.7" stroke="rgb(0,0,0)"  stroke-width="2.0"/>
<line x1="323.0" y1="230.7" x2="352.7" y2="204.0" stroke="rgb(0,0,0)"  stroke-width="2.0"/>
<line x1="332.3" y1="232.1" x2="353.1" y2="213.3" stroke="rgb(0,0,0)"  stroke-width="2.0"/>
<line x1="352.7" y1="204.0" x2="387.4" y2="224.0" stroke="rgb(0,0,0)"  stroke-width="2.0"/>
<line x1="352.7" y1="164.0" x2="387.4" y2="144.0" stroke="rgb(0,0,0)"  stroke-width="2.0"/>
<line x1="422.0" y1="164.0" x2="422.0" y2="204.0" stroke="rgb(0,0,0)"  stroke-width="2.0"/>
<line x1="422.0" y1="204.0" x2="387.4" y2="224.0" stroke="rgb(0,0,0)"  stroke-width="2.0"/>
<line x1="352.7" y1="204.0" x2="352.7" y2="164.0" stroke="rgb(0,0,0)"  stroke-width="2.0"/>
<text x="484.868366" y="153.505065" fill="rgb(191,191,191)"  stroke="rgb(191,191,191)" stroke-width="1" font-size="16" >H</text>
<text x="312.093621" y="151.953821" fill="rgb(255,12,12)"  stroke="rgb(255,12,12)" stroke-width="1" font-size="16" >O</text>
<text x="362.926896" y="83.102124" fill="rgb(191,191,191)"  stroke="rgb(191,191,191)" stroke-width="1" font-size="16" >H</text>
<text x="429.472996" y="108.646779" fill="rgb(178,178,0)"  stroke="rgb(178,178,0)" stroke-width="1" font-size="16" >S</text>
<text x="137.492713" y="107.780876" fill="rgb(178,178,0)"  stroke="rgb(178,178,0)" stroke-width="1" font-size="16" >S</text>
<text x="450.657685" y="231.953821" fill="rgb(255,12,12)"  stroke="rgb(255,12,12)" stroke-width="1" font-size="16" >O</text>
<text x="399.824409" y="300.805518" fill="rgb(191,191,191)"  stroke="rgb(191,191,191)" stroke-width="1" font-size="16" >H</text>
<text x="333.278309" y="275.260864" fill="rgb(178,178,0)"  stroke="rgb(178,178,0)" stroke-width="1" font-size="16" >S</text>
<text x="252.338285" y="296.948678" fill="rgb(255,12,12)"  stroke="rgb(255,12,12)" stroke-width="1" font-size="16" >OH</text>
<text x="164.974312" y="253.437268" fill="rgb(30,239,30)"  stroke="rgb(30,239,30)" stroke-width="1" font-size="16" >Cl</text>
<text x="261.613474" y="193.860760" fill="rgb(178,178,0)"  stroke="rgb(178,178,0)" stroke-width="1" font-size="16" >S</text>
<text x="57.395370" y="185.728935" fill="rgb(30,239,30)"  stroke="rgb(30,239,30)" stroke-width="1" font-size="16" >Cl</text>
<text x="22.000000" y="106.229632" fill="rgb(255,12,12)"  stroke="rgb(255,12,12)" stroke-width="1" font-size="16" >HO</text>
<text x="98.670559" y="48.000000" fill="rgb(191,191,191)"  stroke="rgb(191,191,191)" stroke-width="1" font-size="16" >H</text>
</svg>
</g>
<text font-size="18.000000" fill ="black" font-family="sans-serif"
x="10.000000" y="20.000000" ></text>
</svg>
