<?xml version="1.0"?>
<svg version="1.1" id="topsvg"
xmlns="http://www.w3.org/2000/svg" xmlns:xlink="http://www.w3.org/1999/xlink"
xmlns:cml="http://www.xml-cml.org/schema" x="0" y="0" width="200px" height="200px" viewBox="0 0 100 100">
<title> - Open Babel Depiction</title>
<rect x="0" y="0" width="100" height="100" fill="white"/>
<g transform="translate(0,0)">
<svg width="100" height="100" x="0" y="0" viewBox="0 0 472.133 288.219"
font-family="sans-serif" stroke="rgb(0,0,0)" stroke-width="2"  stroke-linecap="round">
<line x1="157.4" y1="125.8" x2="196.5" y2="117.5" stroke="rgb(0,0,0)"  stroke-width="2.0"/>
<line x1="294.8" y1="162.4" x2="314.8" y2="197.0" stroke="rgb(0,0,0)"  stroke-width="2.0"/>
<line x1="314.8" y1="194.0" x2="341.8" y2="194.0" stroke="rgb(0,0,0)"  stroke-width="2.0"/>
<line x1="314.8" y1="200.0" x2="341.8" y2="200.0" stroke="rgb(0,0,0)"  stroke-width="2.0"/>
<line x1="314.8" y1="197.0" x2="301.3" y2="220.4" stroke="rgb(0,0,0)"  stroke-width="2.0"/>
<line x1="281.8" y1="231.7" x2="267.8" y2="231.7" stroke="rgb(0,0,0)"  stroke-width="2.0"/>
<line x1="294.8" y1="162.4" x2="274.8" y2="197.0" stroke="rgb(0,0,0)"  stroke-width="2.0"/>
<line x1="277.4" y1="195.5" x2="290.9" y2="218.9" stroke="rgb(0,0,0)"  stroke-width="2.0"/>
<line x1="272.2" y1="198.5" x2="285.7" y2="221.9" stroke="rgb(0,0,0)"  stroke-width="2.0"/>
<line x1="274.8" y1="197.0" x2="247.8" y2="197.0" stroke="rgb(0,0,0)"  stroke-width="2.0"/>
<line x1="228.3" y1="185.8" x2="221.3" y2="173.6" stroke="rgb(0,0,0)"  stroke-width="2.0"/>
<line x1="393.0" y1="117.5" x2="419.4" y2="123.1" stroke="rgb(0,0,0)"  stroke-width="2.0"/>
<line x1="79.1" y1="142.4" x2="52.7" y2="148.0" stroke="rgb(0,0,0)"  stroke-width="2.0"/>
<line x1="105.9" y1="172.1" x2="93.5" y2="210.2" stroke="rgb(0,0,0)"  stroke-width="2.0"/>
<line x1="93.5" y1="210.2" x2="85.2" y2="235.9" stroke="rgb(0,0,0)"  stroke-width="2.0"/>
<line x1="97.5" y1="211.5" x2="89.2" y2="237.2" stroke="rgb(0,0,0)"  stroke-width="2.0"/>
<line x1="89.5" y1="208.9" x2="81.2" y2="234.6" stroke="rgb(0,0,0)"  stroke-width="2.0"/>
<line x1="145.0" y1="163.8" x2="171.8" y2="193.5" stroke="rgb(0,0,0)"  stroke-width="2.0"/>
<line x1="171.8" y1="193.5" x2="189.8" y2="213.6" stroke="rgb(0,0,0)"  stroke-width="2.0"/>
<line x1="174.9" y1="190.7" x2="193.0" y2="210.8" stroke="rgb(0,0,0)"  stroke-width="2.0"/>
<line x1="168.7" y1="196.4" x2="186.7" y2="216.4" stroke="rgb(0,0,0)"  stroke-width="2.0"/>
<line x1="122.9" y1="51.0" x2="110.1" y2="45.3" stroke="rgb(0,0,0)"  stroke-width="2.0"/>
<line x1="89.6" y1="49.7" x2="80.2" y2="60.1" stroke="rgb(0,0,0)"  stroke-width="2.0"/>
<line x1="78.1" y1="81.2" x2="91.5" y2="104.4" stroke="rgb(0,0,0)"  stroke-width="2.0"/>
<line x1="85.3" y1="79.3" x2="94.7" y2="95.6" stroke="rgb(0,0,0)"  stroke-width="2.0"/>
<line x1="91.5" y1="104.4" x2="130.6" y2="96.1" stroke="rgb(0,0,0)"  stroke-width="2.0"/>
<line x1="130.6" y1="96.1" x2="133.4" y2="69.4" stroke="rgb(0,0,0)"  stroke-width="2.0"/>
<line x1="124.1" y1="89.3" x2="126.0" y2="70.6" stroke="rgb(0,0,0)"  stroke-width="2.0"/>
<line x1="262.4" y1="138.9" x2="274.8" y2="100.8" stroke="rgb(0,0,0)"  stroke-width="2.0"/>
<line x1="257.4" y1="130.9" x2="266.1" y2="104.3" stroke="rgb(0,0,0)"  stroke-width="2.0"/>
<line x1="274.8" y1="100.8" x2="248.0" y2="71.1" stroke="rgb(0,0,0)"  stroke-width="2.0"/>
<line x1="248.0" y1="71.1" x2="208.9" y2="79.4" stroke="rgb(0,0,0)"  stroke-width="2.0"/>
<line x1="243.6" y1="79.4" x2="216.2" y2="85.2" stroke="rgb(0,0,0)"  stroke-width="2.0"/>
<line x1="208.9" y1="79.4" x2="196.5" y2="117.5" stroke="rgb(0,0,0)"  stroke-width="2.0"/>
<line x1="196.5" y1="117.5" x2="223.3" y2="147.2" stroke="rgb(0,0,0)"  stroke-width="2.0"/>
<line x1="205.9" y1="117.1" x2="224.6" y2="137.9" stroke="rgb(0,0,0)"  stroke-width="2.0"/>
<line x1="223.3" y1="147.2" x2="262.4" y2="138.9" stroke="rgb(0,0,0)"  stroke-width="2.0"/>
<line x1="366.2" y1="147.2" x2="327.1" y2="138.9" stroke="rgb(0,0,0)"  stroke-width="2.0"/>
<line x1="361.9" y1="138.9" x2="334.5" y2="133.1" stroke="rgb(0,0,0)"  stroke-width="2.0"/>
<line x1="327.1" y1="138.9" x2="314.8" y2="100.8" stroke="rgb(0,0,0)"  stroke-width="2.0"/>
<line x1="314.8" y1="100.8" x2="341.5" y2="71.1" stroke="rgb(0,0,0)"  stroke-width="2.0"/>
<line x1="324.1" y1="101.2" x2="342.9" y2="80.4" stroke="rgb(0,0,0)"  stroke-width="2.0"/>
<line x1="341.5" y1="71.1" x2="380.6" y2="79.4" stroke="rgb(0,0,0)"  stroke-width="2.0"/>
<line x1="380.6" y1="79.4" x2="393.0" y2="117.5" stroke="rgb(0,0,0)"  stroke-width="2.0"/>
<line x1="375.7" y1="87.3" x2="384.3" y2="114.0" stroke="rgb(0,0,0)"  stroke-width="2.0"/>
<line x1="393.0" y1="117.5" x2="366.2" y2="147.2" stroke="rgb(0,0,0)"  stroke-width="2.0"/>
<line x1="91.5" y1="104.4" x2="79.1" y2="142.4" stroke="rgb(0,0,0)"  stroke-width="2.0"/>
<line x1="79.1" y1="142.4" x2="105.9" y2="172.1" stroke="rgb(0,0,0)"  stroke-width="2.0"/>
<line x1="88.5" y1="142.1" x2="107.2" y2="162.9" stroke="rgb(0,0,0)"  stroke-width="2.0"/>
<line x1="105.9" y1="172.1" x2="145.0" y2="163.8" stroke="rgb(0,0,0)"  stroke-width="2.0"/>
<line x1="145.0" y1="163.8" x2="157.4" y2="125.8" stroke="rgb(0,0,0)"  stroke-width="2.0"/>
<line x1="140.0" y1="155.9" x2="148.7" y2="129.3" stroke="rgb(0,0,0)"  stroke-width="2.0"/>
<line x1="157.4" y1="125.8" x2="130.6" y2="96.1" stroke="rgb(0,0,0)"  stroke-width="2.0"/>
<line x1="314.8" y1="100.8" x2="274.8" y2="100.8" stroke="rgb(0,0,0)"  stroke-width="2.0"/>
<line x1="262.4" y1="138.9" x2="294.8" y2="162.4" stroke="rgb(0,0,0)"  stroke-width="2.0"/>
<line x1="294.8" y1="162.4" x2="327.1" y2="138.9" stroke="rgb(0,0,0)"  stroke-width="2.0"/>
<text x="128.793626" y="64.269466" fill="rgb(12,12,255)"  stroke="rgb(12,12,255)" stroke-width="1" font-size="16" >N</text>
<text x="92.251808" y="48.000000" fill="rgb(178,178,0)"  stroke="rgb(178,178,0)" stroke-width="1" font-size="16" >S</text>
<text x="65.486584" y="77.725793" fill="rgb(12,12,255)"  stroke="rgb(12,12,255)" stroke-width="1" font-size="16" >N</text>
<text x="34.000000" y="158.725537" fill="rgb(191,191,191)"  stroke="rgb(191,191,191)" stroke-width="1" font-size="16" >H</text>
<text x="75.169769" y="256.219384" fill="rgb(12,12,255)"  stroke="rgb(12,12,255)" stroke-width="1" font-size="16" >N</text>
<text x="192.547481" y="231.269981" fill="rgb(12,12,255)"  stroke="rgb(12,12,255)" stroke-width="1" font-size="16" >N</text>
<text x="348.755424" y="205.021419" fill="rgb(255,12,12)"  stroke="rgb(255,12,12)" stroke-width="1" font-size="16" >O</text>
<text x="288.755424" y="239.662435" fill="rgb(255,12,12)"  stroke="rgb(255,12,12)" stroke-width="1" font-size="16" >O</text>
<text x="228.755424" y="239.662435" fill="rgb(102,102,102)"  stroke="rgb(102,102,102)" stroke-width="1" font-size="16" >H</text>
<text x="240.755424" y="243.342435" fill="rgb(102,102,102)"  stroke="rgb(102,102,102)" stroke-width="1" font-size="13" >3</text>
<text x="247.255424" y="239.662435" fill="rgb(102,102,102)"  stroke="rgb(102,102,102)" stroke-width="1" font-size="16" >C</text>
<text x="288.755424" y="239.662435" fill="rgb(255,12,12)"  stroke="rgb(255,12,12)" stroke-width="1" font-size="16" >O</text>
<text x="228.755424" y="205.021419" fill="rgb(255,12,12)"  stroke="rgb(255,12,12)" stroke-width="1" font-size="16" >O</text>
<text x="188.755424" y="170.380402" fill="rgb(102,102,102)"  stroke="rgb(102,102,102)" stroke-width="1" font-size="16" >H</text>
<text x="200.755424" y="174.060402" fill="rgb(102,102,102)"  stroke="rgb(102,102,102)" stroke-width="1" font-size="13" >3</text>
<text x="207.255424" y="170.380402" fill="rgb(102,102,102)"  stroke="rgb(102,102,102)" stroke-width="1" font-size="16" >C</text>
<text x="426.133136" y="133.776135" fill="rgb(191,191,191)"  stroke="rgb(191,191,191)" stroke-width="1" font-size="16" >H</text>
</svg>
</g>
<text font-size="18.000000" fill ="black" font-family="sans-serif"
x="10.000000" y="20.000000" ></text>
</svg>
