<?xml version="1.0"?>
<svg version="1.1" id="topsvg"
xmlns="http://www.w3.org/2000/svg" xmlns:xlink="http://www.w3.org/1999/xlink"
xmlns:cml="http://www.xml-cml.org/schema" x="0" y="0" width="200px" height="200px" viewBox="0 0 100 100">
<title> - Open Babel Depiction</title>
<rect x="0" y="0" width="100" height="100" fill="white"/>
<g transform="translate(0,0)">
<svg width="100" height="100" x="0" y="0" viewBox="0 0 557.724 395.299"
font-family="sans-serif" stroke="rgb(0,0,0)" stroke-width="2"  stroke-linecap="round">
<line x1="239.9" y1="160.2" x2="279.5" y2="151.8" stroke="rgb(0,0,0)"  stroke-width="2.0"/>
<line x1="378.8" y1="197.3" x2="399.0" y2="232.3" stroke="rgb(0,0,0)"  stroke-width="2.0"/>
<line x1="399.0" y1="229.3" x2="426.5" y2="229.3" stroke="rgb(0,0,0)"  stroke-width="2.0"/>
<line x1="399.0" y1="235.3" x2="426.5" y2="235.3" stroke="rgb(0,0,0)"  stroke-width="2.0"/>
<line x1="399.0" y1="232.3" x2="385.3" y2="256.1" stroke="rgb(0,0,0)"  stroke-width="2.0"/>
<line x1="365.8" y1="267.3" x2="351.4" y2="267.3" stroke="rgb(0,0,0)"  stroke-width="2.0"/>
<line x1="378.8" y1="197.3" x2="358.6" y2="232.3" stroke="rgb(0,0,0)"  stroke-width="2.0"/>
<line x1="361.2" y1="230.8" x2="374.9" y2="254.6" stroke="rgb(0,0,0)"  stroke-width="2.0"/>
<line x1="356.0" y1="233.8" x2="369.7" y2="257.6" stroke="rgb(0,0,0)"  stroke-width="2.0"/>
<line x1="358.6" y1="232.3" x2="331.1" y2="232.3" stroke="rgb(0,0,0)"  stroke-width="2.0"/>
<line x1="311.6" y1="221.0" x2="304.4" y2="208.5" stroke="rgb(0,0,0)"  stroke-width="2.0"/>
<line x1="478.2" y1="151.8" x2="505.0" y2="157.5" stroke="rgb(0,0,0)"  stroke-width="2.0"/>
<line x1="143.3" y1="107.6" x2="151.8" y2="81.5" stroke="rgb(0,0,0)"  stroke-width="2.0"/>
<line x1="149.0" y1="109.5" x2="157.5" y2="83.3" stroke="rgb(0,0,0)"  stroke-width="2.0"/>
<line x1="97.9" y1="107.3" x2="79.6" y2="86.9" stroke="rgb(0,0,0)"  stroke-width="2.0"/>
<line x1="80.2" y1="89.8" x2="53.3" y2="95.5" stroke="rgb(0,0,0)"  stroke-width="2.0"/>
<line x1="78.9" y1="83.9" x2="52.1" y2="89.7" stroke="rgb(0,0,0)"  stroke-width="2.0"/>
<line x1="79.6" y1="86.9" x2="88.0" y2="60.8" stroke="rgb(0,0,0)"  stroke-width="2.0"/>
<line x1="104.8" y1="45.7" x2="118.9" y2="42.7" stroke="rgb(0,0,0)"  stroke-width="2.0"/>
<line x1="94.8" y1="158.3" x2="67.9" y2="164.0" stroke="rgb(0,0,0)"  stroke-width="2.0"/>
<line x1="93.5" y1="152.5" x2="66.7" y2="158.2" stroke="rgb(0,0,0)"  stroke-width="2.0"/>
<line x1="118.4" y1="216.5" x2="92.7" y2="226.2" stroke="rgb(0,0,0)"  stroke-width="2.0"/>
<line x1="195.4" y1="255.5" x2="186.5" y2="281.4" stroke="rgb(0,0,0)"  stroke-width="2.0"/>
<line x1="189.8" y1="253.5" x2="180.8" y2="279.5" stroke="rgb(0,0,0)"  stroke-width="2.0"/>
<line x1="228.6" y1="262.1" x2="243.3" y2="285.3" stroke="rgb(0,0,0)"  stroke-width="2.0"/>
<line x1="243.2" y1="282.3" x2="270.6" y2="281.2" stroke="rgb(0,0,0)"  stroke-width="2.0"/>
<line x1="243.4" y1="288.3" x2="270.9" y2="287.2" stroke="rgb(0,0,0)"  stroke-width="2.0"/>
<line x1="243.3" y1="285.3" x2="230.6" y2="309.6" stroke="rgb(0,0,0)"  stroke-width="2.0"/>
<line x1="231.5" y1="332.1" x2="239.2" y2="344.3" stroke="rgb(0,0,0)"  stroke-width="2.0"/>
<line x1="238.2" y1="223.5" x2="316.7" y2="252.4" stroke="rgb(0,0,0)"  stroke-width="2.0"/>
<line x1="236.1" y1="229.1" x2="314.7" y2="258.1" stroke="rgb(0,0,0)"  stroke-width="2.0"/>
<line x1="346.1" y1="173.5" x2="358.6" y2="135.0" stroke="rgb(0,0,0)"  stroke-width="2.0"/>
<line x1="341.1" y1="165.5" x2="349.9" y2="138.5" stroke="rgb(0,0,0)"  stroke-width="2.0"/>
<line x1="358.6" y1="135.0" x2="331.5" y2="104.9" stroke="rgb(0,0,0)"  stroke-width="2.0"/>
<line x1="331.5" y1="104.9" x2="292.0" y2="113.4" stroke="rgb(0,0,0)"  stroke-width="2.0"/>
<line x1="327.1" y1="113.2" x2="299.3" y2="119.2" stroke="rgb(0,0,0)"  stroke-width="2.0"/>
<line x1="292.0" y1="113.4" x2="279.5" y2="151.8" stroke="rgb(0,0,0)"  stroke-width="2.0"/>
<line x1="279.5" y1="151.8" x2="306.5" y2="181.9" stroke="rgb(0,0,0)"  stroke-width="2.0"/>
<line x1="288.8" y1="151.5" x2="307.9" y2="172.6" stroke="rgb(0,0,0)"  stroke-width="2.0"/>
<line x1="306.5" y1="181.9" x2="346.1" y2="173.5" stroke="rgb(0,0,0)"  stroke-width="2.0"/>
<line x1="451.1" y1="181.9" x2="411.5" y2="173.5" stroke="rgb(0,0,0)"  stroke-width="2.0"/>
<line x1="446.7" y1="173.6" x2="418.9" y2="167.7" stroke="rgb(0,0,0)"  stroke-width="2.0"/>
<line x1="411.5" y1="173.5" x2="399.0" y2="135.0" stroke="rgb(0,0,0)"  stroke-width="2.0"/>
<line x1="399.0" y1="135.0" x2="426.1" y2="104.9" stroke="rgb(0,0,0)"  stroke-width="2.0"/>
<line x1="408.4" y1="135.4" x2="427.4" y2="114.2" stroke="rgb(0,0,0)"  stroke-width="2.0"/>
<line x1="426.1" y1="104.9" x2="465.7" y2="113.4" stroke="rgb(0,0,0)"  stroke-width="2.0"/>
<line x1="465.7" y1="113.4" x2="478.2" y2="151.8" stroke="rgb(0,0,0)"  stroke-width="2.0"/>
<line x1="460.7" y1="121.3" x2="469.5" y2="148.3" stroke="rgb(0,0,0)"  stroke-width="2.0"/>
<line x1="478.2" y1="151.8" x2="451.1" y2="181.9" stroke="rgb(0,0,0)"  stroke-width="2.0"/>
<line x1="173.3" y1="138.6" x2="160.8" y2="177.1" stroke="rgb(0,0,0)"  stroke-width="2.0"/>
<line x1="178.3" y1="146.5" x2="169.5" y2="173.6" stroke="rgb(0,0,0)"  stroke-width="2.0"/>
<line x1="160.8" y1="177.1" x2="187.8" y2="207.1" stroke="rgb(0,0,0)"  stroke-width="2.0"/>
<line x1="187.8" y1="207.1" x2="227.4" y2="198.7" stroke="rgb(0,0,0)"  stroke-width="2.0"/>
<line x1="192.2" y1="198.8" x2="220.0" y2="192.9" stroke="rgb(0,0,0)"  stroke-width="2.0"/>
<line x1="227.4" y1="198.7" x2="239.9" y2="160.2" stroke="rgb(0,0,0)"  stroke-width="2.0"/>
<line x1="239.9" y1="160.2" x2="212.8" y2="130.2" stroke="rgb(0,0,0)"  stroke-width="2.0"/>
<line x1="230.5" y1="160.6" x2="211.5" y2="139.5" stroke="rgb(0,0,0)"  stroke-width="2.0"/>
<line x1="212.8" y1="130.2" x2="173.3" y2="138.6" stroke="rgb(0,0,0)"  stroke-width="2.0"/>
<line x1="94.1" y1="155.4" x2="121.2" y2="185.5" stroke="rgb(0,0,0)"  stroke-width="2.0"/>
<line x1="121.2" y1="185.5" x2="160.8" y2="177.1" stroke="rgb(0,0,0)"  stroke-width="2.0"/>
<line x1="173.3" y1="138.6" x2="146.2" y2="108.5" stroke="rgb(0,0,0)"  stroke-width="2.0"/>
<line x1="146.2" y1="108.5" x2="119.3" y2="114.2" stroke="rgb(0,0,0)"  stroke-width="2.0"/>
<line x1="102.6" y1="129.3" x2="94.1" y2="155.4" stroke="rgb(0,0,0)"  stroke-width="2.0"/>
<line x1="140.9" y1="238.1" x2="171.8" y2="233.9" stroke="rgb(0,0,0)"  stroke-width="2.0"/>
<line x1="145.9" y1="230.1" x2="164.9" y2="227.6" stroke="rgb(0,0,0)"  stroke-width="2.0"/>
<line x1="171.8" y1="233.9" x2="187.8" y2="207.1" stroke="rgb(0,0,0)"  stroke-width="2.0"/>
<line x1="121.2" y1="185.5" x2="118.4" y2="216.5" stroke="rgb(0,0,0)"  stroke-width="2.0"/>
<line x1="127.8" y1="192.1" x2="126.1" y2="211.2" stroke="rgb(0,0,0)"  stroke-width="2.0"/>
<line x1="118.4" y1="216.5" x2="140.9" y2="238.1" stroke="rgb(0,0,0)"  stroke-width="2.0"/>
<line x1="228.5" y1="240.1" x2="237.1" y2="226.3" stroke="rgb(0,0,0)"  stroke-width="2.0"/>
<line x1="237.1" y1="226.3" x2="227.4" y2="198.7" stroke="rgb(0,0,0)"  stroke-width="2.0"/>
<line x1="171.8" y1="233.9" x2="192.6" y2="254.5" stroke="rgb(0,0,0)"  stroke-width="2.0"/>
<line x1="192.6" y1="254.5" x2="208.8" y2="252.6" stroke="rgb(0,0,0)"  stroke-width="2.0"/>
<line x1="399.0" y1="135.0" x2="358.6" y2="135.0" stroke="rgb(0,0,0)"  stroke-width="2.0"/>
<line x1="346.1" y1="173.5" x2="378.8" y2="197.3" stroke="rgb(0,0,0)"  stroke-width="2.0"/>
<line x1="378.8" y1="197.3" x2="411.5" y2="173.5" stroke="rgb(0,0,0)"  stroke-width="2.0"/>
<text x="152.693346" y="78.058976" fill="rgb(255,12,12)"  stroke="rgb(255,12,12)" stroke-width="1" font-size="16" >O</text>
<text x="100.629672" y="124.937318" fill="rgb(12,12,255)"  stroke="rgb(12,12,255)" stroke-width="1" font-size="16" >N</text>
<text x="34.000000" y="103.288025" fill="rgb(255,12,12)"  stroke="rgb(255,12,12)" stroke-width="1" font-size="16" >O</text>
<text x="86.063674" y="56.409683" fill="rgb(255,12,12)"  stroke="rgb(255,12,12)" stroke-width="1" font-size="16" >O</text>
<text x="127.628122" y="48.000000" fill="rgb(102,102,102)"  stroke="rgb(102,102,102)" stroke-width="1" font-size="16" >CH</text>
<text x="151.628122" y="51.680000" fill="rgb(102,102,102)"  stroke="rgb(102,102,102)" stroke-width="1" font-size="13" >3</text>
<text x="48.565999" y="171.815661" fill="rgb(255,12,12)"  stroke="rgb(255,12,12)" stroke-width="1" font-size="16" >O</text>
<text x="74.531658" y="238.730968" fill="rgb(191,191,191)"  stroke="rgb(191,191,191)" stroke-width="1" font-size="16" >H</text>
<text x="173.369529" y="300.725507" fill="rgb(255,12,12)"  stroke="rgb(255,12,12)" stroke-width="1" font-size="16" >O</text>
<text x="215.665914" y="259.124789" fill="rgb(12,12,255)"  stroke="rgb(12,12,255)" stroke-width="1" font-size="16" >N</text>
<text x="277.717982" y="291.647796" fill="rgb(255,12,12)"  stroke="rgb(255,12,12)" stroke-width="1" font-size="16" >O</text>
<text x="218.526198" y="329.124960" fill="rgb(255,12,12)"  stroke="rgb(255,12,12)" stroke-width="1" font-size="16" >O</text>
<text x="242.163648" y="363.299352" fill="rgb(102,102,102)"  stroke="rgb(102,102,102)" stroke-width="1" font-size="16" >CH</text>
<text x="266.163648" y="366.979352" fill="rgb(102,102,102)"  stroke="rgb(102,102,102)" stroke-width="1" font-size="13" >3</text>
<text x="321.890820" y="267.736893" fill="rgb(255,12,12)"  stroke="rgb(255,12,12)" stroke-width="1" font-size="16" >O</text>
<text x="433.479046" y="240.279744" fill="rgb(255,12,12)"  stroke="rgb(255,12,12)" stroke-width="1" font-size="16" >O</text>
<text x="372.806533" y="275.309036" fill="rgb(255,12,12)"  stroke="rgb(255,12,12)" stroke-width="1" font-size="16" >O</text>
<text x="312.358191" y="275.309036" fill="rgb(102,102,102)"  stroke="rgb(102,102,102)" stroke-width="1" font-size="16" >H</text>
<text x="324.358191" y="278.989036" fill="rgb(102,102,102)"  stroke="rgb(102,102,102)" stroke-width="1" font-size="13" >3</text>
<text x="330.858191" y="275.309036" fill="rgb(102,102,102)"  stroke="rgb(102,102,102)" stroke-width="1" font-size="16" >C</text>
<text x="372.806533" y="275.309036" fill="rgb(255,12,12)"  stroke="rgb(255,12,12)" stroke-width="1" font-size="16" >O</text>
<text x="312.134020" y="240.279744" fill="rgb(255,12,12)"  stroke="rgb(255,12,12)" stroke-width="1" font-size="16" >O</text>
<text x="271.909849" y="205.250453" fill="rgb(102,102,102)"  stroke="rgb(102,102,102)" stroke-width="1" font-size="16" >H</text>
<text x="283.909849" y="208.930453" fill="rgb(102,102,102)"  stroke="rgb(102,102,102)" stroke-width="1" font-size="13" >3</text>
<text x="290.409849" y="205.250453" fill="rgb(102,102,102)"  stroke="rgb(102,102,102)" stroke-width="1" font-size="16" >C</text>
<text x="511.724050" y="168.235904" fill="rgb(191,191,191)"  stroke="rgb(191,191,191)" stroke-width="1" font-size="16" >H</text>
</svg>
</g>
<text font-size="18.000000" fill ="black" font-family="sans-serif"
x="10.000000" y="20.000000" ></text>
</svg>
