<?xml version="1.0"?>
<svg version="1.1" id="topsvg"
xmlns="http://www.w3.org/2000/svg" xmlns:xlink="http://www.w3.org/1999/xlink"
xmlns:cml="http://www.xml-cml.org/schema" x="0" y="0" width="200px" height="200px" viewBox="0 0 100 100">
<title> - Open Babel Depiction</title>
<rect x="0" y="0" width="100" height="100" fill="white"/>
<g transform="translate(0,0)">
<svg width="100" height="100" x="0" y="0" viewBox="0 0 486.889 517.337"
font-family="sans-serif" stroke="rgb(0,0,0)" stroke-width="2"  stroke-linecap="round">
<line x1="211.0" y1="253.3" x2="245.2" y2="234.2" stroke="rgb(0,0,0)"  stroke-width="2.0"/>
<line x1="314.8" y1="158.9" x2="340.1" y2="84.7" stroke="rgb(0,0,0)"  stroke-width="2.0"/>
<line x1="337.8" y1="86.7" x2="320.5" y2="67.0" stroke="rgb(0,0,0)"  stroke-width="2.0"/>
<line x1="342.3" y1="82.7" x2="325.1" y2="63.1" stroke="rgb(0,0,0)"  stroke-width="2.0"/>
<line x1="340.1" y1="84.7" x2="365.7" y2="79.6" stroke="rgb(0,0,0)"  stroke-width="2.0"/>
<line x1="382.7" y1="64.8" x2="386.9" y2="52.3" stroke="rgb(0,0,0)"  stroke-width="2.0"/>
<line x1="314.8" y1="158.9" x2="289.0" y2="129.5" stroke="rgb(0,0,0)"  stroke-width="2.0"/>
<line x1="286.2" y1="128.5" x2="294.6" y2="103.7" stroke="rgb(0,0,0)"  stroke-width="2.0"/>
<line x1="291.9" y1="130.4" x2="300.3" y2="105.6" stroke="rgb(0,0,0)"  stroke-width="2.0"/>
<line x1="289.0" y1="129.5" x2="263.4" y2="134.6" stroke="rgb(0,0,0)"  stroke-width="2.0"/>
<line x1="246.4" y1="149.4" x2="242.2" y2="161.9" stroke="rgb(0,0,0)"  stroke-width="2.0"/>
<line x1="408.0" y1="201.9" x2="434.0" y2="205.0" stroke="rgb(0,0,0)"  stroke-width="2.0"/>
<line x1="177.4" y1="349.1" x2="199.9" y2="362.6" stroke="rgb(0,0,0)"  stroke-width="2.0"/>
<line x1="174.3" y1="354.2" x2="196.8" y2="367.7" stroke="rgb(0,0,0)"  stroke-width="2.0"/>
<line x1="141.5" y1="383.6" x2="141.3" y2="409.7" stroke="rgb(0,0,0)"  stroke-width="2.0"/>
<line x1="141.3" y1="412.7" x2="115.2" y2="412.4" stroke="rgb(0,0,0)"  stroke-width="2.0"/>
<line x1="141.3" y1="406.7" x2="115.3" y2="406.4" stroke="rgb(0,0,0)"  stroke-width="2.0"/>
<line x1="141.3" y1="409.7" x2="154.1" y2="432.4" stroke="rgb(0,0,0)"  stroke-width="2.0"/>
<line x1="154.0" y1="454.9" x2="147.3" y2="466.1" stroke="rgb(0,0,0)"  stroke-width="2.0"/>
<line x1="108.8" y1="353.4" x2="85.9" y2="366.4" stroke="rgb(0,0,0)"  stroke-width="2.0"/>
<line x1="105.8" y1="348.1" x2="83.0" y2="361.1" stroke="rgb(0,0,0)"  stroke-width="2.0"/>
<line x1="74.1" y1="290.8" x2="51.3" y2="303.8" stroke="rgb(0,0,0)"  stroke-width="2.0"/>
<line x1="107.8" y1="195.5" x2="85.2" y2="182.1" stroke="rgb(0,0,0)"  stroke-width="2.0"/>
<line x1="110.9" y1="190.4" x2="88.3" y2="177.0" stroke="rgb(0,0,0)"  stroke-width="2.0"/>
<line x1="143.9" y1="160.6" x2="144.2" y2="134.1" stroke="rgb(0,0,0)"  stroke-width="2.0"/>
<line x1="142.3" y1="131.7" x2="162.9" y2="115.0" stroke="rgb(0,0,0)"  stroke-width="2.0"/>
<line x1="146.1" y1="136.4" x2="166.7" y2="119.7" stroke="rgb(0,0,0)"  stroke-width="2.0"/>
<line x1="144.2" y1="134.1" x2="119.5" y2="124.6" stroke="rgb(0,0,0)"  stroke-width="2.0"/>
<line x1="97.2" y1="128.1" x2="86.7" y2="136.6" stroke="rgb(0,0,0)"  stroke-width="2.0"/>
<line x1="176.4" y1="191.2" x2="199.3" y2="178.4" stroke="rgb(0,0,0)"  stroke-width="2.0"/>
<line x1="179.3" y1="196.5" x2="202.3" y2="183.6" stroke="rgb(0,0,0)"  stroke-width="2.0"/>
<line x1="288.2" y1="187.7" x2="307.4" y2="221.9" stroke="rgb(0,0,0)"  stroke-width="2.0"/>
<line x1="284.9" y1="196.4" x2="298.2" y2="220.1" stroke="rgb(0,0,0)"  stroke-width="2.0"/>
<line x1="307.4" y1="221.9" x2="289.6" y2="241.1" stroke="rgb(0,0,0)"  stroke-width="2.0"/>
<line x1="269.0" y1="245.2" x2="245.2" y2="234.2" stroke="rgb(0,0,0)"  stroke-width="2.0"/>
<line x1="245.2" y1="234.2" x2="249.8" y2="195.3" stroke="rgb(0,0,0)"  stroke-width="2.0"/>
<line x1="253.1" y1="229.1" x2="256.3" y2="202.1" stroke="rgb(0,0,0)"  stroke-width="2.0"/>
<line x1="249.8" y1="195.3" x2="288.2" y2="187.7" stroke="rgb(0,0,0)"  stroke-width="2.0"/>
<line x1="408.0" y1="201.9" x2="390.2" y2="221.1" stroke="rgb(0,0,0)"  stroke-width="2.0"/>
<line x1="369.6" y1="225.2" x2="345.8" y2="214.2" stroke="rgb(0,0,0)"  stroke-width="2.0"/>
<line x1="345.8" y1="214.2" x2="350.4" y2="175.3" stroke="rgb(0,0,0)"  stroke-width="2.0"/>
<line x1="353.7" y1="209.1" x2="356.9" y2="182.1" stroke="rgb(0,0,0)"  stroke-width="2.0"/>
<line x1="350.4" y1="175.3" x2="388.9" y2="167.7" stroke="rgb(0,0,0)"  stroke-width="2.0"/>
<line x1="388.9" y1="167.7" x2="408.0" y2="201.9" stroke="rgb(0,0,0)"  stroke-width="2.0"/>
<line x1="385.5" y1="176.4" x2="398.8" y2="200.2" stroke="rgb(0,0,0)"  stroke-width="2.0"/>
<line x1="176.3" y1="312.2" x2="142.2" y2="291.7" stroke="rgb(0,0,0)"  stroke-width="2.0"/>
<line x1="174.9" y1="302.9" x2="151.1" y2="288.6" stroke="rgb(0,0,0)"  stroke-width="2.0"/>
<line x1="142.2" y1="291.7" x2="142.7" y2="252.5" stroke="rgb(0,0,0)"  stroke-width="2.0"/>
<line x1="142.7" y1="252.5" x2="177.4" y2="233.3" stroke="rgb(0,0,0)"  stroke-width="2.0"/>
<line x1="151.4" y1="255.9" x2="175.6" y2="242.5" stroke="rgb(0,0,0)"  stroke-width="2.0"/>
<line x1="177.4" y1="233.3" x2="211.0" y2="253.3" stroke="rgb(0,0,0)"  stroke-width="2.0"/>
<line x1="211.0" y1="253.3" x2="210.5" y2="292.6" stroke="rgb(0,0,0)"  stroke-width="2.0"/>
<line x1="203.7" y1="259.3" x2="203.4" y2="286.5" stroke="rgb(0,0,0)"  stroke-width="2.0"/>
<line x1="210.5" y1="292.6" x2="176.3" y2="312.2" stroke="rgb(0,0,0)"  stroke-width="2.0"/>
<line x1="107.3" y1="350.8" x2="107.8" y2="311.3" stroke="rgb(0,0,0)"  stroke-width="2.0"/>
<line x1="107.8" y1="311.3" x2="142.2" y2="291.7" stroke="rgb(0,0,0)"  stroke-width="2.0"/>
<line x1="176.3" y1="312.2" x2="175.8" y2="351.7" stroke="rgb(0,0,0)"  stroke-width="2.0"/>
<line x1="175.8" y1="351.7" x2="153.0" y2="364.3" stroke="rgb(0,0,0)"  stroke-width="2.0"/>
<line x1="130.4" y1="364.1" x2="107.3" y2="350.8" stroke="rgb(0,0,0)"  stroke-width="2.0"/>
<line x1="74.7" y1="251.6" x2="108.8" y2="232.4" stroke="rgb(0,0,0)"  stroke-width="2.0"/>
<line x1="83.4" y1="254.9" x2="107.1" y2="241.6" stroke="rgb(0,0,0)"  stroke-width="2.0"/>
<line x1="108.8" y1="232.4" x2="142.7" y2="252.5" stroke="rgb(0,0,0)"  stroke-width="2.0"/>
<line x1="107.8" y1="311.3" x2="74.1" y2="290.8" stroke="rgb(0,0,0)"  stroke-width="2.0"/>
<line x1="106.4" y1="302.0" x2="83.0" y2="287.8" stroke="rgb(0,0,0)"  stroke-width="2.0"/>
<line x1="74.1" y1="290.8" x2="74.7" y2="251.6" stroke="rgb(0,0,0)"  stroke-width="2.0"/>
<line x1="154.9" y1="180.2" x2="177.9" y2="193.8" stroke="rgb(0,0,0)"  stroke-width="2.0"/>
<line x1="177.9" y1="193.8" x2="177.4" y2="233.3" stroke="rgb(0,0,0)"  stroke-width="2.0"/>
<line x1="108.8" y1="232.4" x2="109.3" y2="193.0" stroke="rgb(0,0,0)"  stroke-width="2.0"/>
<line x1="109.3" y1="193.0" x2="132.4" y2="179.9" stroke="rgb(0,0,0)"  stroke-width="2.0"/>
<line x1="345.8" y1="214.2" x2="307.4" y2="221.9" stroke="rgb(0,0,0)"  stroke-width="2.0"/>
<line x1="288.2" y1="187.7" x2="314.8" y2="158.9" stroke="rgb(0,0,0)"  stroke-width="2.0"/>
<line x1="314.8" y1="158.9" x2="350.4" y2="175.3" stroke="rgb(0,0,0)"  stroke-width="2.0"/>
<text x="135.643129" y="378.600282" fill="rgb(12,12,255)"  stroke="rgb(12,12,255)" stroke-width="1" font-size="16" >N</text>
<text x="96.237364" y="417.331002" fill="rgb(255,12,12)"  stroke="rgb(255,12,12)" stroke-width="1" font-size="16" >O</text>
<text x="154.547425" y="451.671376" fill="rgb(255,12,12)"  stroke="rgb(255,12,12)" stroke-width="1" font-size="16" >O</text>
<text x="114.721000" y="485.336705" fill="rgb(102,102,102)"  stroke="rgb(102,102,102)" stroke-width="1" font-size="16" >H</text>
<text x="126.721000" y="489.016705" fill="rgb(102,102,102)"  stroke="rgb(102,102,102)" stroke-width="1" font-size="13" >3</text>
<text x="133.221000" y="485.336705" fill="rgb(102,102,102)"  stroke="rgb(102,102,102)" stroke-width="1" font-size="16" >C</text>
<text x="67.136030" y="378.169234" fill="rgb(255,12,12)"  stroke="rgb(255,12,12)" stroke-width="1" font-size="16" >O</text>
<text x="34.000000" y="318.213244" fill="rgb(191,191,191)"  stroke="rgb(191,191,191)" stroke-width="1" font-size="16" >H</text>
<text x="203.534423" y="379.811708" fill="rgb(255,12,12)"  stroke="rgb(255,12,12)" stroke-width="1" font-size="16" >O</text>
<text x="69.558934" y="180.918762" fill="rgb(255,12,12)"  stroke="rgb(255,12,12)" stroke-width="1" font-size="16" >O</text>
<text x="137.746804" y="181.552517" fill="rgb(12,12,255)"  stroke="rgb(12,12,255)" stroke-width="1" font-size="16" >N</text>
<text x="168.903651" y="117.197231" fill="rgb(255,12,12)"  stroke="rgb(255,12,12)" stroke-width="1" font-size="16" >O</text>
<text x="101.327698" y="127.896188" fill="rgb(255,12,12)"  stroke="rgb(255,12,12)" stroke-width="1" font-size="16" >O</text>
<text x="50.628244" y="152.753164" fill="rgb(102,102,102)"  stroke="rgb(102,102,102)" stroke-width="1" font-size="16" >H</text>
<text x="62.628244" y="156.433164" fill="rgb(102,102,102)"  stroke="rgb(102,102,102)" stroke-width="1" font-size="13" >3</text>
<text x="69.128244" y="152.753164" fill="rgb(102,102,102)"  stroke="rgb(102,102,102)" stroke-width="1" font-size="16" >C</text>
<text x="206.150611" y="182.645466" fill="rgb(255,12,12)"  stroke="rgb(255,12,12)" stroke-width="1" font-size="16" >O</text>
<text x="387.088524" y="48.000000" fill="rgb(102,102,102)"  stroke="rgb(102,102,102)" stroke-width="1" font-size="16" >CH</text>
<text x="411.088524" y="51.680000" fill="rgb(102,102,102)"  stroke="rgb(102,102,102)" stroke-width="1" font-size="13" >3</text>
<text x="274.778692" y="258.628051" fill="rgb(178,178,0)"  stroke="rgb(178,178,0)" stroke-width="1" font-size="16" >S</text>
<text x="308.234216" y="63.264387" fill="rgb(255,12,12)"  stroke="rgb(255,12,12)" stroke-width="1" font-size="16" >O</text>
<text x="372.484620" y="85.094988" fill="rgb(255,12,12)"  stroke="rgb(255,12,12)" stroke-width="1" font-size="16" >O</text>
<text x="295.630313" y="100.359375" fill="rgb(255,12,12)"  stroke="rgb(255,12,12)" stroke-width="1" font-size="16" >O</text>
<text x="244.599256" y="145.086556" fill="rgb(255,12,12)"  stroke="rgb(255,12,12)" stroke-width="1" font-size="16" >O</text>
<text x="211.995353" y="182.181544" fill="rgb(102,102,102)"  stroke="rgb(102,102,102)" stroke-width="1" font-size="16" >H</text>
<text x="223.995353" y="185.861544" fill="rgb(102,102,102)"  stroke="rgb(102,102,102)" stroke-width="1" font-size="13" >3</text>
<text x="230.495353" y="182.181544" fill="rgb(102,102,102)"  stroke="rgb(102,102,102)" stroke-width="1" font-size="16" >C</text>
<text x="440.889288" y="214.501217" fill="rgb(191,191,191)"  stroke="rgb(191,191,191)" stroke-width="1" font-size="16" >H</text>
<text x="375.382286" y="238.646709" fill="rgb(178,178,0)"  stroke="rgb(178,178,0)" stroke-width="1" font-size="16" >S</text>
</svg>
</g>
<text font-size="18.000000" fill ="black" font-family="sans-serif"
x="10.000000" y="20.000000" ></text>
</svg>
