<?xml version="1.0"?>
<svg version="1.1" id="topsvg"
xmlns="http://www.w3.org/2000/svg" xmlns:xlink="http://www.w3.org/1999/xlink"
xmlns:cml="http://www.xml-cml.org/schema" x="0" y="0" width="200px" height="200px" viewBox="0 0 100 100">
<title> - Open Babel Depiction</title>
<rect x="0" y="0" width="100" height="100" fill="white"/>
<g transform="translate(0,0)">
<svg width="100" height="100" x="0" y="0" viewBox="0 0 464.977 311.396"
font-family="sans-serif" stroke="rgb(0,0,0)" stroke-width="2"  stroke-linecap="round">
<line x1="257.1" y1="209.3" x2="218.0" y2="201.0" stroke="rgb(0,0,0)"  stroke-width="2.0"/>
<line x1="188.3" y1="227.8" x2="191.1" y2="254.6" stroke="rgb(0,0,0)"  stroke-width="2.0"/>
<line x1="153.6" y1="207.8" x2="129.0" y2="218.7" stroke="rgb(0,0,0)"  stroke-width="2.0"/>
<line x1="161.9" y1="168.6" x2="135.2" y2="138.9" stroke="rgb(0,0,0)"  stroke-width="2.0"/>
<line x1="79.1" y1="106.5" x2="52.7" y2="100.9" stroke="rgb(0,0,0)"  stroke-width="2.0"/>
<line x1="108.9" y1="79.8" x2="106.0" y2="52.9" stroke="rgb(0,0,0)"  stroke-width="2.0"/>
<line x1="143.5" y1="99.8" x2="168.2" y2="88.8" stroke="rgb(0,0,0)"  stroke-width="2.0"/>
<line x1="285.3" y1="145.1" x2="262.0" y2="131.6" stroke="rgb(0,0,0)"  stroke-width="2.0"/>
<line x1="288.3" y1="139.9" x2="265.0" y2="126.4" stroke="rgb(0,0,0)"  stroke-width="2.0"/>
<line x1="329.8" y1="83.4" x2="311.7" y2="63.4" stroke="rgb(0,0,0)"  stroke-width="2.0"/>
<line x1="385.9" y1="115.8" x2="412.3" y2="121.4" stroke="rgb(0,0,0)"  stroke-width="2.0"/>
<line x1="357.6" y1="179.9" x2="381.0" y2="193.4" stroke="rgb(0,0,0)"  stroke-width="2.0"/>
<line x1="354.6" y1="185.1" x2="378.0" y2="198.6" stroke="rgb(0,0,0)"  stroke-width="2.0"/>
<line x1="313.2" y1="241.7" x2="331.2" y2="261.7" stroke="rgb(0,0,0)"  stroke-width="2.0"/>
<line x1="153.6" y1="207.8" x2="161.9" y2="168.6" stroke="rgb(0,0,0)"  stroke-width="2.0"/>
<line x1="161.9" y1="203.4" x2="167.7" y2="176.0" stroke="rgb(0,0,0)"  stroke-width="2.0"/>
<line x1="161.9" y1="168.6" x2="188.8" y2="165.8" stroke="rgb(0,0,0)"  stroke-width="2.0"/>
<line x1="207.0" y1="176.3" x2="218.0" y2="201.0" stroke="rgb(0,0,0)"  stroke-width="2.0"/>
<line x1="218.0" y1="201.0" x2="188.3" y2="227.8" stroke="rgb(0,0,0)"  stroke-width="2.0"/>
<line x1="208.7" y1="199.7" x2="187.9" y2="218.4" stroke="rgb(0,0,0)"  stroke-width="2.0"/>
<line x1="188.3" y1="227.8" x2="153.6" y2="207.8" stroke="rgb(0,0,0)"  stroke-width="2.0"/>
<line x1="79.1" y1="106.5" x2="108.9" y2="79.8" stroke="rgb(0,0,0)"  stroke-width="2.0"/>
<line x1="88.4" y1="107.9" x2="109.2" y2="89.1" stroke="rgb(0,0,0)"  stroke-width="2.0"/>
<line x1="108.9" y1="79.8" x2="143.5" y2="99.8" stroke="rgb(0,0,0)"  stroke-width="2.0"/>
<line x1="143.5" y1="99.8" x2="135.2" y2="138.9" stroke="rgb(0,0,0)"  stroke-width="2.0"/>
<line x1="135.2" y1="104.2" x2="129.4" y2="131.5" stroke="rgb(0,0,0)"  stroke-width="2.0"/>
<line x1="135.2" y1="138.9" x2="108.3" y2="141.7" stroke="rgb(0,0,0)"  stroke-width="2.0"/>
<line x1="90.1" y1="131.2" x2="79.1" y2="106.5" stroke="rgb(0,0,0)"  stroke-width="2.0"/>
<line x1="374.9" y1="91.1" x2="385.9" y2="115.8" stroke="rgb(0,0,0)"  stroke-width="2.0"/>
<line x1="385.9" y1="115.8" x2="356.1" y2="142.5" stroke="rgb(0,0,0)"  stroke-width="2.0"/>
<line x1="376.6" y1="114.4" x2="355.8" y2="133.2" stroke="rgb(0,0,0)"  stroke-width="2.0"/>
<line x1="356.1" y1="142.5" x2="321.5" y2="122.5" stroke="rgb(0,0,0)"  stroke-width="2.0"/>
<line x1="321.5" y1="122.5" x2="329.8" y2="83.4" stroke="rgb(0,0,0)"  stroke-width="2.0"/>
<line x1="329.8" y1="118.2" x2="335.6" y2="90.8" stroke="rgb(0,0,0)"  stroke-width="2.0"/>
<line x1="329.8" y1="83.4" x2="356.7" y2="80.6" stroke="rgb(0,0,0)"  stroke-width="2.0"/>
<line x1="321.5" y1="202.5" x2="313.2" y2="241.7" stroke="rgb(0,0,0)"  stroke-width="2.0"/>
<line x1="313.2" y1="206.9" x2="307.4" y2="234.3" stroke="rgb(0,0,0)"  stroke-width="2.0"/>
<line x1="313.2" y1="241.7" x2="286.3" y2="244.5" stroke="rgb(0,0,0)"  stroke-width="2.0"/>
<line x1="268.1" y1="234.0" x2="257.1" y2="209.3" stroke="rgb(0,0,0)"  stroke-width="2.0"/>
<line x1="257.1" y1="209.3" x2="286.8" y2="182.5" stroke="rgb(0,0,0)"  stroke-width="2.0"/>
<line x1="266.4" y1="210.6" x2="287.2" y2="191.9" stroke="rgb(0,0,0)"  stroke-width="2.0"/>
<line x1="286.8" y1="182.5" x2="321.5" y2="202.5" stroke="rgb(0,0,0)"  stroke-width="2.0"/>
<line x1="286.8" y1="142.5" x2="321.5" y2="122.5" stroke="rgb(0,0,0)"  stroke-width="2.0"/>
<line x1="356.1" y1="142.5" x2="356.1" y2="182.5" stroke="rgb(0,0,0)"  stroke-width="2.0"/>
<line x1="356.1" y1="182.5" x2="321.5" y2="202.5" stroke="rgb(0,0,0)"  stroke-width="2.0"/>
<line x1="286.8" y1="182.5" x2="286.8" y2="142.5" stroke="rgb(0,0,0)"  stroke-width="2.0"/>
<text x="267.387181" y="253.851539" fill="rgb(178,178,0)"  stroke="rgb(178,178,0)" stroke-width="1" font-size="16" >S</text>
<text x="333.933281" y="279.396193" fill="rgb(191,191,191)"  stroke="rgb(191,191,191)" stroke-width="1" font-size="16" >H</text>
<text x="384.766557" y="210.544496" fill="rgb(255,12,12)"  stroke="rgb(255,12,12)" stroke-width="1" font-size="16" >O</text>
<text x="418.977238" y="132.095739" fill="rgb(191,191,191)"  stroke="rgb(191,191,191)" stroke-width="1" font-size="16" >H</text>
<text x="363.581868" y="87.237453" fill="rgb(178,178,0)"  stroke="rgb(178,178,0)" stroke-width="1" font-size="16" >S</text>
<text x="297.035768" y="61.692799" fill="rgb(191,191,191)"  stroke="rgb(191,191,191)" stroke-width="1" font-size="16" >H</text>
<text x="246.202492" y="130.544496" fill="rgb(255,12,12)"  stroke="rgb(255,12,12)" stroke-width="1" font-size="16" >O</text>
<text x="174.034532" y="91.511410" fill="rgb(191,191,191)"  stroke="rgb(191,191,191)" stroke-width="1" font-size="16" >H</text>
<text x="86.670559" y="48.000000" fill="rgb(30,239,30)"  stroke="rgb(30,239,30)" stroke-width="1" font-size="16" >Cl</text>
<text x="34.000000" y="106.229632" fill="rgb(191,191,191)"  stroke="rgb(191,191,191)" stroke-width="1" font-size="16" >H</text>
<text x="89.395370" y="151.087918" fill="rgb(178,178,0)"  stroke="rgb(178,178,0)" stroke-width="1" font-size="16" >S</text>
<text x="195.722346" y="172.451434" fill="rgb(178,178,0)"  stroke="rgb(178,178,0)" stroke-width="1" font-size="16" >S</text>
<text x="111.083184" y="232.027943" fill="rgb(191,191,191)"  stroke="rgb(191,191,191)" stroke-width="1" font-size="16" >H</text>
<text x="186.447157" y="275.539353" fill="rgb(30,239,30)"  stroke="rgb(30,239,30)" stroke-width="1" font-size="16" >Cl</text>
</svg>
</g>
<text font-size="18.000000" fill ="black" font-family="sans-serif"
x="10.000000" y="20.000000" ></text>
</svg>
