<?xml version="1.0"?>
<svg version="1.1" id="topsvg"
xmlns="http://www.w3.org/2000/svg" xmlns:xlink="http://www.w3.org/1999/xlink"
xmlns:cml="http://www.xml-cml.org/schema" x="0" y="0" width="200px" height="200px" viewBox="0 0 100 100">
<title> - Open Babel Depiction</title>
<rect x="0" y="0" width="100" height="100" fill="white"/>
<g transform="translate(0,0)">
<svg width="100" height="100" x="0" y="0" viewBox="0 0 507.686 405.791"
font-family="sans-serif" stroke="rgb(0,0,0)" stroke-width="2"  stroke-linecap="round">
<line x1="219.0" y1="188.5" x2="258.8" y2="201.4" stroke="rgb(0,0,0)"  stroke-width="2.0"/>
<line x1="317.7" y1="304.7" x2="303.3" y2="329.6" stroke="rgb(0,0,0)"  stroke-width="2.0"/>
<line x1="305.9" y1="328.1" x2="320.3" y2="353.0" stroke="rgb(0,0,0)"  stroke-width="2.0"/>
<line x1="300.7" y1="331.1" x2="315.1" y2="356.0" stroke="rgb(0,0,0)"  stroke-width="2.0"/>
<line x1="303.3" y1="329.6" x2="274.5" y2="329.6" stroke="rgb(0,0,0)"  stroke-width="2.0"/>
<line x1="255.0" y1="318.3" x2="247.1" y2="304.7" stroke="rgb(0,0,0)"  stroke-width="2.0"/>
<line x1="436.6" y1="304.1" x2="458.0" y2="323.3" stroke="rgb(0,0,0)"  stroke-width="2.0"/>
<line x1="159.9" y1="91.6" x2="181.3" y2="72.3" stroke="rgb(0,0,0)"  stroke-width="2.0"/>
<line x1="163.9" y1="96.0" x2="185.3" y2="76.8" stroke="rgb(0,0,0)"  stroke-width="2.0"/>
<line x1="119.4" y1="68.2" x2="116.2" y2="52.7" stroke="rgb(0,0,0)"  stroke-width="2.0"/>
<line x1="90.2" y1="111.7" x2="62.8" y2="102.8" stroke="rgb(0,0,0)"  stroke-width="2.0"/>
<line x1="92.0" y1="106.0" x2="64.6" y2="97.1" stroke="rgb(0,0,0)"  stroke-width="2.0"/>
<line x1="81.2" y1="176.1" x2="52.8" y2="171.4" stroke="rgb(0,0,0)"  stroke-width="2.0"/>
<line x1="130.0" y1="250.7" x2="108.2" y2="269.5" stroke="rgb(0,0,0)"  stroke-width="2.0"/>
<line x1="126.0" y1="246.1" x2="104.3" y2="265.0" stroke="rgb(0,0,0)"  stroke-width="2.0"/>
<line x1="156.3" y1="273.4" x2="156.9" y2="289.2" stroke="rgb(0,0,0)"  stroke-width="2.0"/>
<line x1="184.2" y1="243.8" x2="207.5" y2="260.8" stroke="rgb(0,0,0)"  stroke-width="2.0"/>
<line x1="180.7" y1="248.6" x2="203.9" y2="265.6" stroke="rgb(0,0,0)"  stroke-width="2.0"/>
<line x1="365.8" y1="289.0" x2="374.5" y2="248.1" stroke="rgb(0,0,0)"  stroke-width="2.0"/>
<line x1="374.5" y1="248.1" x2="338.3" y2="227.2" stroke="rgb(0,0,0)"  stroke-width="2.0"/>
<line x1="338.3" y1="227.2" x2="307.2" y2="255.2" stroke="rgb(0,0,0)"  stroke-width="2.0"/>
<line x1="338.7" y1="236.6" x2="316.5" y2="256.5" stroke="rgb(0,0,0)"  stroke-width="2.0"/>
<line x1="307.2" y1="255.2" x2="319.0" y2="281.5" stroke="rgb(0,0,0)"  stroke-width="2.0"/>
<line x1="337.2" y1="292.0" x2="365.8" y2="289.0" stroke="rgb(0,0,0)"  stroke-width="2.0"/>
<line x1="338.3" y1="227.2" x2="329.6" y2="186.4" stroke="rgb(0,0,0)"  stroke-width="2.0"/>
<line x1="329.6" y1="186.4" x2="289.9" y2="173.4" stroke="rgb(0,0,0)"  stroke-width="2.0"/>
<line x1="321.7" y1="191.3" x2="293.3" y2="182.1" stroke="rgb(0,0,0)"  stroke-width="2.0"/>
<line x1="289.9" y1="173.4" x2="258.8" y2="201.4" stroke="rgb(0,0,0)"  stroke-width="2.0"/>
<line x1="258.8" y1="201.4" x2="267.5" y2="242.3" stroke="rgb(0,0,0)"  stroke-width="2.0"/>
<line x1="267.1" y1="205.8" x2="273.3" y2="234.9" stroke="rgb(0,0,0)"  stroke-width="2.0"/>
<line x1="267.5" y1="242.3" x2="307.2" y2="255.2" stroke="rgb(0,0,0)"  stroke-width="2.0"/>
<line x1="396.9" y1="317.0" x2="365.8" y2="289.0" stroke="rgb(0,0,0)"  stroke-width="2.0"/>
<line x1="397.2" y1="307.6" x2="375.1" y2="287.7" stroke="rgb(0,0,0)"  stroke-width="2.0"/>
<line x1="374.5" y1="248.1" x2="414.3" y2="235.2" stroke="rgb(0,0,0)"  stroke-width="2.0"/>
<line x1="382.4" y1="253.1" x2="410.8" y2="243.9" stroke="rgb(0,0,0)"  stroke-width="2.0"/>
<line x1="414.3" y1="235.2" x2="445.3" y2="263.2" stroke="rgb(0,0,0)"  stroke-width="2.0"/>
<line x1="445.3" y1="263.2" x2="436.6" y2="304.1" stroke="rgb(0,0,0)"  stroke-width="2.0"/>
<line x1="437.0" y1="267.6" x2="430.8" y2="296.7" stroke="rgb(0,0,0)"  stroke-width="2.0"/>
<line x1="436.6" y1="304.1" x2="396.9" y2="317.0" stroke="rgb(0,0,0)"  stroke-width="2.0"/>
<line x1="170.6" y1="134.7" x2="139.5" y2="162.7" stroke="rgb(0,0,0)"  stroke-width="2.0"/>
<line x1="171.0" y1="144.1" x2="148.8" y2="164.0" stroke="rgb(0,0,0)"  stroke-width="2.0"/>
<line x1="139.5" y1="162.7" x2="148.2" y2="203.5" stroke="rgb(0,0,0)"  stroke-width="2.0"/>
<line x1="148.2" y1="203.5" x2="188.0" y2="216.5" stroke="rgb(0,0,0)"  stroke-width="2.0"/>
<line x1="156.2" y1="198.5" x2="184.5" y2="207.8" stroke="rgb(0,0,0)"  stroke-width="2.0"/>
<line x1="188.0" y1="216.5" x2="219.0" y2="188.5" stroke="rgb(0,0,0)"  stroke-width="2.0"/>
<line x1="219.0" y1="188.5" x2="210.3" y2="147.6" stroke="rgb(0,0,0)"  stroke-width="2.0"/>
<line x1="210.7" y1="184.1" x2="204.6" y2="155.0" stroke="rgb(0,0,0)"  stroke-width="2.0"/>
<line x1="210.3" y1="147.6" x2="170.6" y2="134.7" stroke="rgb(0,0,0)"  stroke-width="2.0"/>
<line x1="91.1" y1="108.9" x2="99.8" y2="149.7" stroke="rgb(0,0,0)"  stroke-width="2.0"/>
<line x1="99.8" y1="149.7" x2="139.5" y2="162.7" stroke="rgb(0,0,0)"  stroke-width="2.0"/>
<line x1="170.6" y1="134.7" x2="161.9" y2="93.8" stroke="rgb(0,0,0)"  stroke-width="2.0"/>
<line x1="161.9" y1="93.8" x2="134.5" y2="84.9" stroke="rgb(0,0,0)"  stroke-width="2.0"/>
<line x1="112.5" y1="89.6" x2="91.1" y2="108.9" stroke="rgb(0,0,0)"  stroke-width="2.0"/>
<line x1="90.3" y1="207.0" x2="120.1" y2="219.2" stroke="rgb(0,0,0)"  stroke-width="2.0"/>
<line x1="98.6" y1="202.6" x2="117.3" y2="210.3" stroke="rgb(0,0,0)"  stroke-width="2.0"/>
<line x1="120.1" y1="219.2" x2="148.2" y2="203.5" stroke="rgb(0,0,0)"  stroke-width="2.0"/>
<line x1="99.8" y1="149.7" x2="81.2" y2="176.1" stroke="rgb(0,0,0)"  stroke-width="2.0"/>
<line x1="102.2" y1="158.8" x2="90.6" y2="175.3" stroke="rgb(0,0,0)"  stroke-width="2.0"/>
<line x1="81.2" y1="176.1" x2="90.3" y2="207.0" stroke="rgb(0,0,0)"  stroke-width="2.0"/>
<line x1="167.2" y1="254.3" x2="182.5" y2="246.2" stroke="rgb(0,0,0)"  stroke-width="2.0"/>
<line x1="182.5" y1="246.2" x2="188.0" y2="216.5" stroke="rgb(0,0,0)"  stroke-width="2.0"/>
<line x1="120.1" y1="219.2" x2="128.0" y2="248.4" stroke="rgb(0,0,0)"  stroke-width="2.0"/>
<line x1="128.0" y1="248.4" x2="143.8" y2="255.3" stroke="rgb(0,0,0)"  stroke-width="2.0"/>
<text x="186.968420" y="73.833119" fill="rgb(255,12,12)"  stroke="rgb(255,12,12)" stroke-width="1" font-size="16" >O</text>
<text x="116.152726" y="88.885460" fill="rgb(12,12,255)"  stroke="rgb(12,12,255)" stroke-width="1" font-size="16" >N</text>
<text x="107.462253" y="48.000000" fill="rgb(191,191,191)"  stroke="rgb(191,191,191)" stroke-width="1" font-size="16" >H</text>
<text x="45.337033" y="103.937800" fill="rgb(255,12,12)"  stroke="rgb(255,12,12)" stroke-width="1" font-size="16" >O</text>
<text x="34.000000" y="177.239363" fill="rgb(191,191,191)"  stroke="rgb(191,191,191)" stroke-width="1" font-size="16" >H</text>
<text x="90.421829" y="283.789793" fill="rgb(255,12,12)"  stroke="rgb(255,12,12)" stroke-width="1" font-size="16" >O</text>
<text x="149.769456" y="268.413912" fill="rgb(12,12,255)"  stroke="rgb(12,12,255)" stroke-width="1" font-size="16" >N</text>
<text x="151.475980" y="310.177926" fill="rgb(191,191,191)"  stroke="rgb(191,191,191)" stroke-width="1" font-size="16" >H</text>
<text x="210.173693" y="278.896601" fill="rgb(255,12,12)"  stroke="rgb(255,12,12)" stroke-width="1" font-size="16" >O</text>
<text x="318.237607" y="301.393241" fill="rgb(12,12,255)"  stroke="rgb(12,12,255)" stroke-width="1" font-size="16" >N</text>
<text x="318.237607" y="373.790999" fill="rgb(255,12,12)"  stroke="rgb(255,12,12)" stroke-width="1" font-size="16" >O</text>
<text x="255.539309" y="337.592120" fill="rgb(255,12,12)"  stroke="rgb(255,12,12)" stroke-width="1" font-size="16" >O</text>
<text x="214.639876" y="301.393241" fill="rgb(102,102,102)"  stroke="rgb(102,102,102)" stroke-width="1" font-size="16" >H</text>
<text x="226.639876" y="305.073241" fill="rgb(102,102,102)"  stroke="rgb(102,102,102)" stroke-width="1" font-size="13" >3</text>
<text x="233.139876" y="301.393241" fill="rgb(102,102,102)"  stroke="rgb(102,102,102)" stroke-width="1" font-size="16" >C</text>
<text x="461.685797" y="340.045310" fill="rgb(191,191,191)"  stroke="rgb(191,191,191)" stroke-width="1" font-size="16" >H</text>
</svg>
</g>
<text font-size="18.000000" fill ="black" font-family="sans-serif"
x="10.000000" y="20.000000" ></text>
</svg>
