<?xml version="1.0"?>
<svg version="1.1" id="topsvg"
xmlns="http://www.w3.org/2000/svg" xmlns:xlink="http://www.w3.org/1999/xlink"
xmlns:cml="http://www.xml-cml.org/schema" x="0" y="0" width="200px" height="200px" viewBox="0 0 100 100">
<title> - Open Babel Depiction</title>
<rect x="0" y="0" width="100" height="100" fill="white"/>
<g transform="translate(0,0)">
<svg width="100" height="100" x="0" y="0" viewBox="0 0 569.994 368.73"
font-family="sans-serif" stroke="rgb(0,0,0)" stroke-width="2"  stroke-linecap="round">
<line x1="362.1" y1="230.7" x2="323.0" y2="222.4" stroke="rgb(0,0,0)"  stroke-width="2.0"/>
<line x1="293.3" y1="249.2" x2="297.5" y2="288.9" stroke="rgb(0,0,0)"  stroke-width="2.0"/>
<line x1="297.5" y1="288.9" x2="300.3" y2="315.8" stroke="rgb(0,0,0)"  stroke-width="2.0"/>
<line x1="301.6" y1="288.5" x2="304.5" y2="315.4" stroke="rgb(0,0,0)"  stroke-width="2.0"/>
<line x1="293.3" y1="289.4" x2="296.1" y2="316.2" stroke="rgb(0,0,0)"  stroke-width="2.0"/>
<line x1="258.6" y1="229.2" x2="222.1" y2="245.4" stroke="rgb(0,0,0)"  stroke-width="2.0"/>
<line x1="222.1" y1="245.4" x2="197.4" y2="256.4" stroke="rgb(0,0,0)"  stroke-width="2.0"/>
<line x1="223.8" y1="249.3" x2="199.1" y2="260.3" stroke="rgb(0,0,0)"  stroke-width="2.0"/>
<line x1="220.4" y1="241.6" x2="195.7" y2="252.6" stroke="rgb(0,0,0)"  stroke-width="2.0"/>
<line x1="267.0" y1="190.0" x2="240.2" y2="160.3" stroke="rgb(0,0,0)"  stroke-width="2.0"/>
<line x1="240.8" y1="163.3" x2="201.7" y2="171.6" stroke="rgb(0,0,0)"  stroke-width="2.0"/>
<line x1="239.6" y1="157.4" x2="200.4" y2="165.7" stroke="rgb(0,0,0)"  stroke-width="2.0"/>
<line x1="201.1" y1="168.6" x2="174.3" y2="138.9" stroke="rgb(0,0,0)"  stroke-width="2.0"/>
<line x1="134.5" y1="143.1" x2="114.5" y2="177.7" stroke="rgb(0,0,0)"  stroke-width="2.0"/>
<line x1="114.5" y1="177.7" x2="101.0" y2="201.1" stroke="rgb(0,0,0)"  stroke-width="2.0"/>
<line x1="118.2" y1="179.8" x2="104.7" y2="203.2" stroke="rgb(0,0,0)"  stroke-width="2.0"/>
<line x1="110.9" y1="175.6" x2="97.4" y2="199.0" stroke="rgb(0,0,0)"  stroke-width="2.0"/>
<line x1="118.3" y1="106.5" x2="79.1" y2="98.2" stroke="rgb(0,0,0)"  stroke-width="2.0"/>
<line x1="79.1" y1="98.2" x2="52.7" y2="92.6" stroke="rgb(0,0,0)"  stroke-width="2.0"/>
<line x1="78.3" y1="102.3" x2="51.8" y2="96.7" stroke="rgb(0,0,0)"  stroke-width="2.0"/>
<line x1="80.0" y1="94.1" x2="53.6" y2="88.5" stroke="rgb(0,0,0)"  stroke-width="2.0"/>
<line x1="148.0" y1="79.8" x2="145.2" y2="52.9" stroke="rgb(0,0,0)"  stroke-width="2.0"/>
<line x1="390.4" y1="166.6" x2="367.0" y2="153.1" stroke="rgb(0,0,0)"  stroke-width="2.0"/>
<line x1="393.4" y1="161.4" x2="370.0" y2="147.9" stroke="rgb(0,0,0)"  stroke-width="2.0"/>
<line x1="434.8" y1="104.8" x2="416.8" y2="84.8" stroke="rgb(0,0,0)"  stroke-width="2.0"/>
<line x1="490.9" y1="137.2" x2="517.3" y2="142.8" stroke="rgb(0,0,0)"  stroke-width="2.0"/>
<line x1="462.6" y1="201.4" x2="486.0" y2="214.9" stroke="rgb(0,0,0)"  stroke-width="2.0"/>
<line x1="459.6" y1="206.6" x2="483.0" y2="220.1" stroke="rgb(0,0,0)"  stroke-width="2.0"/>
<line x1="418.2" y1="263.1" x2="436.3" y2="283.1" stroke="rgb(0,0,0)"  stroke-width="2.0"/>
<line x1="258.6" y1="229.2" x2="267.0" y2="190.0" stroke="rgb(0,0,0)"  stroke-width="2.0"/>
<line x1="266.9" y1="224.8" x2="272.8" y2="197.4" stroke="rgb(0,0,0)"  stroke-width="2.0"/>
<line x1="267.0" y1="190.0" x2="293.8" y2="187.2" stroke="rgb(0,0,0)"  stroke-width="2.0"/>
<line x1="312.0" y1="197.7" x2="323.0" y2="222.4" stroke="rgb(0,0,0)"  stroke-width="2.0"/>
<line x1="323.0" y1="222.4" x2="293.3" y2="249.2" stroke="rgb(0,0,0)"  stroke-width="2.0"/>
<line x1="313.7" y1="221.1" x2="292.9" y2="239.8" stroke="rgb(0,0,0)"  stroke-width="2.0"/>
<line x1="293.3" y1="249.2" x2="258.6" y2="229.2" stroke="rgb(0,0,0)"  stroke-width="2.0"/>
<line x1="118.3" y1="106.5" x2="148.0" y2="79.8" stroke="rgb(0,0,0)"  stroke-width="2.0"/>
<line x1="127.5" y1="107.9" x2="148.3" y2="89.1" stroke="rgb(0,0,0)"  stroke-width="2.0"/>
<line x1="148.0" y1="79.8" x2="171.4" y2="93.3" stroke="rgb(0,0,0)"  stroke-width="2.0"/>
<line x1="179.9" y1="112.5" x2="174.3" y2="138.9" stroke="rgb(0,0,0)"  stroke-width="2.0"/>
<line x1="174.3" y1="138.9" x2="134.5" y2="143.1" stroke="rgb(0,0,0)"  stroke-width="2.0"/>
<line x1="167.6" y1="132.4" x2="139.7" y2="135.3" stroke="rgb(0,0,0)"  stroke-width="2.0"/>
<line x1="134.5" y1="143.1" x2="118.3" y2="106.5" stroke="rgb(0,0,0)"  stroke-width="2.0"/>
<line x1="479.9" y1="112.5" x2="490.9" y2="137.2" stroke="rgb(0,0,0)"  stroke-width="2.0"/>
<line x1="490.9" y1="137.2" x2="461.1" y2="164.0" stroke="rgb(0,0,0)"  stroke-width="2.0"/>
<line x1="481.6" y1="135.9" x2="460.8" y2="154.6" stroke="rgb(0,0,0)"  stroke-width="2.0"/>
<line x1="461.1" y1="164.0" x2="426.5" y2="144.0" stroke="rgb(0,0,0)"  stroke-width="2.0"/>
<line x1="426.5" y1="144.0" x2="434.8" y2="104.8" stroke="rgb(0,0,0)"  stroke-width="2.0"/>
<line x1="434.8" y1="139.6" x2="440.6" y2="112.2" stroke="rgb(0,0,0)"  stroke-width="2.0"/>
<line x1="434.8" y1="104.8" x2="461.7" y2="102.0" stroke="rgb(0,0,0)"  stroke-width="2.0"/>
<line x1="426.5" y1="224.0" x2="418.2" y2="263.1" stroke="rgb(0,0,0)"  stroke-width="2.0"/>
<line x1="418.2" y1="228.3" x2="412.4" y2="255.7" stroke="rgb(0,0,0)"  stroke-width="2.0"/>
<line x1="418.2" y1="263.1" x2="391.3" y2="265.9" stroke="rgb(0,0,0)"  stroke-width="2.0"/>
<line x1="373.1" y1="255.4" x2="362.1" y2="230.7" stroke="rgb(0,0,0)"  stroke-width="2.0"/>
<line x1="362.1" y1="230.7" x2="391.9" y2="204.0" stroke="rgb(0,0,0)"  stroke-width="2.0"/>
<line x1="371.4" y1="232.1" x2="392.2" y2="213.3" stroke="rgb(0,0,0)"  stroke-width="2.0"/>
<line x1="391.9" y1="204.0" x2="426.5" y2="224.0" stroke="rgb(0,0,0)"  stroke-width="2.0"/>
<line x1="391.9" y1="164.0" x2="426.5" y2="144.0" stroke="rgb(0,0,0)"  stroke-width="2.0"/>
<line x1="461.1" y1="164.0" x2="461.1" y2="204.0" stroke="rgb(0,0,0)"  stroke-width="2.0"/>
<line x1="461.1" y1="204.0" x2="426.5" y2="224.0" stroke="rgb(0,0,0)"  stroke-width="2.0"/>
<line x1="391.9" y1="204.0" x2="391.9" y2="164.0" stroke="rgb(0,0,0)"  stroke-width="2.0"/>
<text x="137.796463" y="48.000000" fill="rgb(191,191,191)"  stroke="rgb(191,191,191)" stroke-width="1" font-size="16" >H</text>
<text x="176.618617" y="107.780876" fill="rgb(178,178,0)"  stroke="rgb(178,178,0)" stroke-width="1" font-size="16" >S</text>
<text x="351.219525" y="151.953821" fill="rgb(255,12,12)"  stroke="rgb(255,12,12)" stroke-width="1" font-size="16" >O</text>
<text x="402.052800" y="83.102124" fill="rgb(191,191,191)"  stroke="rgb(191,191,191)" stroke-width="1" font-size="16" >H</text>
<text x="468.598900" y="108.646779" fill="rgb(178,178,0)"  stroke="rgb(178,178,0)" stroke-width="1" font-size="16" >S</text>
<text x="523.994270" y="153.505065" fill="rgb(191,191,191)"  stroke="rgb(191,191,191)" stroke-width="1" font-size="16" >H</text>
<text x="489.783589" y="231.953821" fill="rgb(255,12,12)"  stroke="rgb(255,12,12)" stroke-width="1" font-size="16" >O</text>
<text x="438.950313" y="300.805518" fill="rgb(191,191,191)"  stroke="rgb(191,191,191)" stroke-width="1" font-size="16" >H</text>
<text x="372.404213" y="275.260864" fill="rgb(178,178,0)"  stroke="rgb(178,178,0)" stroke-width="1" font-size="16" >S</text>
<text x="295.645328" y="336.729554" fill="rgb(12,12,255)"  stroke="rgb(12,12,255)" stroke-width="1" font-size="16" >N</text>
<text x="179.558398" y="269.706734" fill="rgb(12,12,255)"  stroke="rgb(12,12,255)" stroke-width="1" font-size="16" >N</text>
<text x="300.739378" y="193.860760" fill="rgb(178,178,0)"  stroke="rgb(178,178,0)" stroke-width="1" font-size="16" >S</text>
<text x="88.521274" y="220.369951" fill="rgb(12,12,255)"  stroke="rgb(12,12,255)" stroke-width="1" font-size="16" >N</text>
<text x="34.000000" y="97.913165" fill="rgb(12,12,255)"  stroke="rgb(12,12,255)" stroke-width="1" font-size="16" >N</text>
</svg>
</g>
<text font-size="18.000000" fill ="black" font-family="sans-serif"
x="10.000000" y="20.000000" ></text>
</svg>
