<?xml version="1.0"?>
<svg version="1.1" id="topsvg"
xmlns="http://www.w3.org/2000/svg" xmlns:xlink="http://www.w3.org/1999/xlink"
xmlns:cml="http://www.xml-cml.org/schema" x="0" y="0" width="200px" height="200px" viewBox="0 0 100 100">
<title> - Open Babel Depiction</title>
<rect x="0" y="0" width="100" height="100" fill="white"/>
<g transform="translate(0,0)">
<svg width="100" height="100" x="0" y="0" viewBox="0 0 524.988 396.62"
font-family="sans-serif" stroke="rgb(0,0,0)" stroke-width="2"  stroke-linecap="round">
<line x1="213.2" y1="160.0" x2="178.6" y2="140.0" stroke="rgb(0,0,0)"  stroke-width="2.0"/>
<line x1="109.3" y1="140.0" x2="85.9" y2="153.5" stroke="rgb(0,0,0)"  stroke-width="2.0"/>
<line x1="63.4" y1="153.5" x2="51.3" y2="146.5" stroke="rgb(0,0,0)"  stroke-width="2.0"/>
<line x1="109.3" y1="100.0" x2="85.9" y2="86.5" stroke="rgb(0,0,0)"  stroke-width="2.0"/>
<line x1="178.6" y1="100.0" x2="201.9" y2="86.5" stroke="rgb(0,0,0)"  stroke-width="2.0"/>
<line x1="213.2" y1="67.0" x2="213.2" y2="53.0" stroke="rgb(0,0,0)"  stroke-width="2.0"/>
<line x1="298.5" y1="261.8" x2="312.0" y2="285.2" stroke="rgb(0,0,0)"  stroke-width="2.0"/>
<line x1="293.3" y1="264.8" x2="306.8" y2="288.2" stroke="rgb(0,0,0)"  stroke-width="2.0"/>
<line x1="247.5" y1="268.8" x2="229.4" y2="288.9" stroke="rgb(0,0,0)"  stroke-width="2.0"/>
<line x1="228.8" y1="291.8" x2="202.4" y2="286.2" stroke="rgb(0,0,0)"  stroke-width="2.0"/>
<line x1="230.0" y1="285.9" x2="203.6" y2="280.3" stroke="rgb(0,0,0)"  stroke-width="2.0"/>
<line x1="229.4" y1="288.9" x2="237.7" y2="314.5" stroke="rgb(0,0,0)"  stroke-width="2.0"/>
<line x1="233.1" y1="336.6" x2="223.7" y2="347.0" stroke="rgb(0,0,0)"  stroke-width="2.0"/>
<line x1="311.6" y1="223.8" x2="350.7" y2="215.5" stroke="rgb(0,0,0)"  stroke-width="2.0"/>
<line x1="312.8" y1="229.7" x2="352.0" y2="221.4" stroke="rgb(0,0,0)"  stroke-width="2.0"/>
<line x1="365.0" y1="183.4" x2="351.5" y2="160.0" stroke="rgb(0,0,0)"  stroke-width="2.0"/>
<line x1="370.2" y1="180.4" x2="356.7" y2="157.0" stroke="rgb(0,0,0)"  stroke-width="2.0"/>
<line x1="416.1" y1="176.4" x2="434.2" y2="156.4" stroke="rgb(0,0,0)"  stroke-width="2.0"/>
<line x1="434.8" y1="153.4" x2="461.2" y2="159.0" stroke="rgb(0,0,0)"  stroke-width="2.0"/>
<line x1="433.5" y1="159.3" x2="459.9" y2="164.9" stroke="rgb(0,0,0)"  stroke-width="2.0"/>
<line x1="434.2" y1="156.4" x2="425.8" y2="130.7" stroke="rgb(0,0,0)"  stroke-width="2.0"/>
<line x1="430.5" y1="108.7" x2="439.9" y2="98.3" stroke="rgb(0,0,0)"  stroke-width="2.0"/>
<line x1="450.3" y1="285.2" x2="473.7" y2="298.7" stroke="rgb(0,0,0)"  stroke-width="2.0"/>
<line x1="109.3" y1="140.0" x2="109.3" y2="100.0" stroke="rgb(0,0,0)"  stroke-width="2.0"/>
<line x1="116.5" y1="134.0" x2="116.5" y2="106.0" stroke="rgb(0,0,0)"  stroke-width="2.0"/>
<line x1="109.3" y1="100.0" x2="143.9" y2="80.0" stroke="rgb(0,0,0)"  stroke-width="2.0"/>
<line x1="143.9" y1="80.0" x2="178.6" y2="100.0" stroke="rgb(0,0,0)"  stroke-width="2.0"/>
<line x1="145.5" y1="89.2" x2="169.8" y2="103.2" stroke="rgb(0,0,0)"  stroke-width="2.0"/>
<line x1="178.6" y1="100.0" x2="178.6" y2="140.0" stroke="rgb(0,0,0)"  stroke-width="2.0"/>
<line x1="178.6" y1="140.0" x2="143.9" y2="160.0" stroke="rgb(0,0,0)"  stroke-width="2.0"/>
<line x1="169.8" y1="136.8" x2="145.5" y2="150.8" stroke="rgb(0,0,0)"  stroke-width="2.0"/>
<line x1="143.9" y1="160.0" x2="109.3" y2="140.0" stroke="rgb(0,0,0)"  stroke-width="2.0"/>
<line x1="282.5" y1="160.0" x2="282.5" y2="200.0" stroke="rgb(0,0,0)"  stroke-width="2.0"/>
<line x1="275.3" y1="166.0" x2="275.3" y2="194.0" stroke="rgb(0,0,0)"  stroke-width="2.0"/>
<line x1="282.5" y1="200.0" x2="247.8" y2="220.0" stroke="rgb(0,0,0)"  stroke-width="2.0"/>
<line x1="247.8" y1="220.0" x2="213.2" y2="200.0" stroke="rgb(0,0,0)"  stroke-width="2.0"/>
<line x1="246.2" y1="210.8" x2="222.0" y2="196.8" stroke="rgb(0,0,0)"  stroke-width="2.0"/>
<line x1="213.2" y1="200.0" x2="213.2" y2="160.0" stroke="rgb(0,0,0)"  stroke-width="2.0"/>
<line x1="213.2" y1="160.0" x2="247.8" y2="140.0" stroke="rgb(0,0,0)"  stroke-width="2.0"/>
<line x1="222.0" y1="163.2" x2="246.2" y2="149.2" stroke="rgb(0,0,0)"  stroke-width="2.0"/>
<line x1="247.8" y1="140.0" x2="282.5" y2="160.0" stroke="rgb(0,0,0)"  stroke-width="2.0"/>
<line x1="415.7" y1="305.2" x2="381.1" y2="285.2" stroke="rgb(0,0,0)"  stroke-width="2.0"/>
<line x1="381.1" y1="285.2" x2="381.1" y2="245.2" stroke="rgb(0,0,0)"  stroke-width="2.0"/>
<line x1="388.3" y1="279.2" x2="388.3" y2="251.2" stroke="rgb(0,0,0)"  stroke-width="2.0"/>
<line x1="381.1" y1="245.2" x2="415.7" y2="225.2" stroke="rgb(0,0,0)"  stroke-width="2.0"/>
<line x1="415.7" y1="225.2" x2="450.3" y2="245.2" stroke="rgb(0,0,0)"  stroke-width="2.0"/>
<line x1="417.3" y1="234.4" x2="441.6" y2="248.4" stroke="rgb(0,0,0)"  stroke-width="2.0"/>
<line x1="450.3" y1="245.2" x2="450.3" y2="285.2" stroke="rgb(0,0,0)"  stroke-width="2.0"/>
<line x1="450.3" y1="285.2" x2="415.7" y2="305.2" stroke="rgb(0,0,0)"  stroke-width="2.0"/>
<line x1="441.6" y1="282.0" x2="417.3" y2="296.0" stroke="rgb(0,0,0)"  stroke-width="2.0"/>
<line x1="295.9" y1="263.3" x2="269.1" y2="260.5" stroke="rgb(0,0,0)"  stroke-width="2.0"/>
<line x1="253.5" y1="246.4" x2="247.8" y2="220.0" stroke="rgb(0,0,0)"  stroke-width="2.0"/>
<line x1="282.5" y1="200.0" x2="312.2" y2="226.8" stroke="rgb(0,0,0)"  stroke-width="2.0"/>
<line x1="312.2" y1="226.8" x2="295.9" y2="263.3" stroke="rgb(0,0,0)"  stroke-width="2.0"/>
<line x1="410.1" y1="198.8" x2="415.7" y2="225.2" stroke="rgb(0,0,0)"  stroke-width="2.0"/>
<line x1="381.1" y1="245.2" x2="351.3" y2="218.4" stroke="rgb(0,0,0)"  stroke-width="2.0"/>
<line x1="351.3" y1="218.4" x2="367.6" y2="181.9" stroke="rgb(0,0,0)"  stroke-width="2.0"/>
<line x1="367.6" y1="181.9" x2="394.5" y2="184.7" stroke="rgb(0,0,0)"  stroke-width="2.0"/>
<text x="467.280280" y="172.678751" fill="rgb(255,12,12)"  stroke="rgb(255,12,12)" stroke-width="1" font-size="16" >O</text>
<text x="235.758020" y="334.893958" fill="rgb(255,12,12)"  stroke="rgb(255,12,12)" stroke-width="1" font-size="16" >O</text>
<text x="188.992796" y="364.619751" fill="rgb(102,102,102)"  stroke="rgb(102,102,102)" stroke-width="1" font-size="16" >H</text>
<text x="200.992796" y="368.299751" fill="rgb(102,102,102)"  stroke="rgb(102,102,102)" stroke-width="1" font-size="13" >3</text>
<text x="207.492796" y="364.619751" fill="rgb(102,102,102)"  stroke="rgb(102,102,102)" stroke-width="1" font-size="16" >C</text>
<text x="341.608276" y="155.265922" fill="rgb(255,12,12)"  stroke="rgb(255,12,12)" stroke-width="1" font-size="16" >O</text>
<text x="401.389152" y="194.088077" fill="rgb(12,12,255)"  stroke="rgb(12,12,255)" stroke-width="1" font-size="16" >N</text>
<text x="184.271436" y="288.535229" fill="rgb(255,12,12)"  stroke="rgb(255,12,12)" stroke-width="1" font-size="16" >O</text>
<text x="415.793696" y="126.320023" fill="rgb(255,12,12)"  stroke="rgb(255,12,12)" stroke-width="1" font-size="16" >O</text>
<text x="444.558920" y="96.594230" fill="rgb(102,102,102)"  stroke="rgb(102,102,102)" stroke-width="1" font-size="16" >CH</text>
<text x="468.558920" y="100.274230" fill="rgb(102,102,102)"  stroke="rgb(102,102,102)" stroke-width="1" font-size="13" >3</text>
<text x="478.987652" y="313.213981" fill="rgb(191,191,191)"  stroke="rgb(191,191,191)" stroke-width="1" font-size="16" >H</text>
<text x="207.205081" y="88.000000" fill="rgb(255,12,12)"  stroke="rgb(255,12,12)" stroke-width="1" font-size="16" >O</text>
<text x="68.641016" y="168.000000" fill="rgb(255,12,12)"  stroke="rgb(255,12,12)" stroke-width="1" font-size="16" >O</text>
<text x="14.000000" y="148.000000" fill="rgb(102,102,102)"  stroke="rgb(102,102,102)" stroke-width="1" font-size="16" >H</text>
<text x="26.000000" y="151.680000" fill="rgb(102,102,102)"  stroke="rgb(102,102,102)" stroke-width="1" font-size="13" >3</text>
<text x="32.500000" y="148.000000" fill="rgb(102,102,102)"  stroke="rgb(102,102,102)" stroke-width="1" font-size="16" >C</text>
<text x="68.641016" y="88.000000" fill="rgb(191,191,191)"  stroke="rgb(191,191,191)" stroke-width="1" font-size="16" >H</text>
<text x="209.205081" y="48.000000" fill="rgb(102,102,102)"  stroke="rgb(102,102,102)" stroke-width="1" font-size="16" >CH</text>
<text x="233.205081" y="51.680000" fill="rgb(102,102,102)"  stroke="rgb(102,102,102)" stroke-width="1" font-size="13" >3</text>
<text x="309.943440" y="305.948059" fill="rgb(255,12,12)"  stroke="rgb(255,12,12)" stroke-width="1" font-size="16" >O</text>
<text x="250.162565" y="267.125904" fill="rgb(12,12,255)"  stroke="rgb(12,12,255)" stroke-width="1" font-size="16" >N</text>
</svg>
</g>
<text font-size="18.000000" fill ="black" font-family="sans-serif"
x="10.000000" y="20.000000" ></text>
</svg>
