<?xml version="1.0"?>
<svg version="1.1" id="topsvg"
xmlns="http://www.w3.org/2000/svg" xmlns:xlink="http://www.w3.org/1999/xlink"
xmlns:cml="http://www.xml-cml.org/schema" x="0" y="0" width="200px" height="200px" viewBox="0 0 100 100">
<title> - Open Babel Depiction</title>
<rect x="0" y="0" width="100" height="100" fill="white"/>
<g transform="translate(0,0)">
<svg width="100" height="100" x="0" y="0" viewBox="0 0 300.949 228.852"
font-family="sans-serif" stroke="rgb(0,0,0)" stroke-width="2"  stroke-linecap="round">
<line x1="178.1" y1="110.4" x2="139.0" y2="102.1" stroke="rgb(0,0,0)"  stroke-width="2.0"/>
<line x1="83.0" y1="69.7" x2="64.9" y2="49.7" stroke="rgb(0,0,0)"  stroke-width="2.0"/>
<line x1="234.2" y1="142.8" x2="252.3" y2="162.8" stroke="rgb(0,0,0)"  stroke-width="2.0"/>
<line x1="184.6" y1="156.0" x2="172.5" y2="163.0" stroke="rgb(0,0,0)"  stroke-width="2.0"/>
<line x1="181.6" y1="150.8" x2="169.5" y2="157.8" stroke="rgb(0,0,0)"  stroke-width="2.0"/>
<line x1="197.4" y1="159.9" x2="197.4" y2="173.9" stroke="rgb(0,0,0)"  stroke-width="2.0"/>
<line x1="191.4" y1="159.9" x2="191.4" y2="173.9" stroke="rgb(0,0,0)"  stroke-width="2.0"/>
<line x1="74.6" y1="108.9" x2="83.0" y2="69.7" stroke="rgb(0,0,0)"  stroke-width="2.0"/>
<line x1="82.9" y1="104.5" x2="88.8" y2="77.1" stroke="rgb(0,0,0)"  stroke-width="2.0"/>
<line x1="83.0" y1="69.7" x2="109.8" y2="66.9" stroke="rgb(0,0,0)"  stroke-width="2.0"/>
<line x1="128.0" y1="77.4" x2="139.0" y2="102.1" stroke="rgb(0,0,0)"  stroke-width="2.0"/>
<line x1="139.0" y1="102.1" x2="109.3" y2="128.9" stroke="rgb(0,0,0)"  stroke-width="2.0"/>
<line x1="129.7" y1="100.8" x2="108.9" y2="119.5" stroke="rgb(0,0,0)"  stroke-width="2.0"/>
<line x1="109.3" y1="128.9" x2="74.6" y2="108.9" stroke="rgb(0,0,0)"  stroke-width="2.0"/>
<line x1="242.5" y1="103.6" x2="234.2" y2="142.8" stroke="rgb(0,0,0)"  stroke-width="2.0"/>
<line x1="234.2" y1="108.0" x2="228.4" y2="135.4" stroke="rgb(0,0,0)"  stroke-width="2.0"/>
<line x1="234.2" y1="142.8" x2="207.3" y2="145.6" stroke="rgb(0,0,0)"  stroke-width="2.0"/>
<line x1="189.1" y1="135.1" x2="178.1" y2="110.4" stroke="rgb(0,0,0)"  stroke-width="2.0"/>
<line x1="178.1" y1="110.4" x2="207.9" y2="83.6" stroke="rgb(0,0,0)"  stroke-width="2.0"/>
<line x1="187.4" y1="111.7" x2="208.2" y2="93.0" stroke="rgb(0,0,0)"  stroke-width="2.0"/>
<line x1="207.9" y1="83.6" x2="242.5" y2="103.6" stroke="rgb(0,0,0)"  stroke-width="2.0"/>
<line x1="98.0" y1="175.4" x2="74.6" y2="188.9" stroke="rgb(0,0,0)"  stroke-width="2.0"/>
<line x1="74.6" y1="188.9" x2="40.0" y2="168.9" stroke="rgb(0,0,0)"  stroke-width="2.0"/>
<line x1="40.0" y1="168.9" x2="40.0" y2="141.9" stroke="rgb(0,0,0)"  stroke-width="2.0"/>
<line x1="51.3" y1="122.4" x2="74.6" y2="108.9" stroke="rgb(0,0,0)"  stroke-width="2.0"/>
<line x1="109.3" y1="128.9" x2="109.3" y2="155.9" stroke="rgb(0,0,0)"  stroke-width="2.0"/>
<text x="50.192260" y="48.000000" fill="rgb(191,191,191)"  stroke="rgb(191,191,191)" stroke-width="1" font-size="16" >H</text>
<text x="188.403195" y="194.944759" fill="rgb(255,12,12)"  stroke="rgb(255,12,12)" stroke-width="1" font-size="16" >O</text>
<text x="153.762179" y="174.944759" fill="rgb(255,12,12)"  stroke="rgb(255,12,12)" stroke-width="1" font-size="16" >O</text>
<text x="188.403195" y="154.944759" fill="rgb(178,178,0)"  stroke="rgb(178,178,0)" stroke-width="1" font-size="16" >S</text>
<text x="254.949295" y="180.489413" fill="rgb(191,191,191)"  stroke="rgb(191,191,191)" stroke-width="1" font-size="16" >H</text>
<text x="116.738360" y="73.544654" fill="rgb(178,178,0)"  stroke="rgb(178,178,0)" stroke-width="1" font-size="16" >S</text>
<text x="34.000000" y="136.851697" fill="rgb(255,12,12)"  stroke="rgb(255,12,12)" stroke-width="1" font-size="16" >O</text>
<text x="103.282032" y="176.851697" fill="rgb(255,12,12)"  stroke="rgb(255,12,12)" stroke-width="1" font-size="16" >O</text>
</svg>
</g>
<text font-size="18.000000" fill ="black" font-family="sans-serif"
x="10.000000" y="20.000000" ></text>
</svg>
