<?xml version="1.0"?>
<svg version="1.1" id="topsvg"
xmlns="http://www.w3.org/2000/svg" xmlns:xlink="http://www.w3.org/1999/xlink"
xmlns:cml="http://www.xml-cml.org/schema" x="0" y="0" width="200px" height="200px" viewBox="0 0 100 100">
<title> - Open Babel Depiction</title>
<rect x="0" y="0" width="100" height="100" fill="white"/>
<g transform="translate(0,0)">
<svg width="100" height="100" x="0" y="0" viewBox="0 0 587.679 453.555"
font-family="sans-serif" stroke="rgb(0,0,0)" stroke-width="2"  stroke-linecap="round">
<line x1="275.9" y1="246.7" x2="241.3" y2="226.7" stroke="rgb(0,0,0)"  stroke-width="2.0"/>
<line x1="204.7" y1="242.9" x2="199.1" y2="269.3" stroke="rgb(0,0,0)"  stroke-width="2.0"/>
<line x1="137.9" y1="213.2" x2="117.9" y2="247.8" stroke="rgb(0,0,0)"  stroke-width="2.0"/>
<line x1="120.5" y1="246.3" x2="134.0" y2="269.7" stroke="rgb(0,0,0)"  stroke-width="2.0"/>
<line x1="115.3" y1="249.3" x2="128.8" y2="272.7" stroke="rgb(0,0,0)"  stroke-width="2.0"/>
<line x1="117.9" y1="247.8" x2="90.9" y2="247.8" stroke="rgb(0,0,0)"  stroke-width="2.0"/>
<line x1="71.4" y1="236.6" x2="64.4" y2="224.5" stroke="rgb(0,0,0)"  stroke-width="2.0"/>
<line x1="74.6" y1="130.5" x2="51.3" y2="117.0" stroke="rgb(0,0,0)"  stroke-width="2.0"/>
<line x1="111.2" y1="114.2" x2="116.8" y2="87.8" stroke="rgb(0,0,0)"  stroke-width="2.0"/>
<line x1="177.9" y1="143.9" x2="197.9" y2="109.3" stroke="rgb(0,0,0)"  stroke-width="2.0"/>
<line x1="197.9" y1="106.3" x2="224.9" y2="106.3" stroke="rgb(0,0,0)"  stroke-width="2.0"/>
<line x1="197.9" y1="112.3" x2="224.9" y2="112.3" stroke="rgb(0,0,0)"  stroke-width="2.0"/>
<line x1="197.9" y1="109.3" x2="184.4" y2="85.9" stroke="rgb(0,0,0)"  stroke-width="2.0"/>
<line x1="184.4" y1="63.4" x2="191.4" y2="51.3" stroke="rgb(0,0,0)"  stroke-width="2.0"/>
<line x1="361.2" y1="348.5" x2="374.7" y2="371.9" stroke="rgb(0,0,0)"  stroke-width="2.0"/>
<line x1="356.0" y1="351.5" x2="369.5" y2="374.9" stroke="rgb(0,0,0)"  stroke-width="2.0"/>
<line x1="310.2" y1="355.4" x2="300.8" y2="365.9" stroke="rgb(0,0,0)"  stroke-width="2.0"/>
<line x1="296.1" y1="387.9" x2="300.4" y2="401.2" stroke="rgb(0,0,0)"  stroke-width="2.0"/>
<line x1="374.3" y1="310.5" x2="413.4" y2="302.2" stroke="rgb(0,0,0)"  stroke-width="2.0"/>
<line x1="375.5" y1="316.4" x2="414.7" y2="308.0" stroke="rgb(0,0,0)"  stroke-width="2.0"/>
<line x1="427.7" y1="270.1" x2="414.2" y2="246.7" stroke="rgb(0,0,0)"  stroke-width="2.0"/>
<line x1="432.9" y1="267.1" x2="419.4" y2="243.7" stroke="rgb(0,0,0)"  stroke-width="2.0"/>
<line x1="478.8" y1="263.1" x2="488.1" y2="252.7" stroke="rgb(0,0,0)"  stroke-width="2.0"/>
<line x1="509.6" y1="245.7" x2="523.3" y2="248.6" stroke="rgb(0,0,0)"  stroke-width="2.0"/>
<line x1="513.0" y1="371.9" x2="536.4" y2="385.4" stroke="rgb(0,0,0)"  stroke-width="2.0"/>
<line x1="177.9" y1="213.2" x2="197.9" y2="178.6" stroke="rgb(0,0,0)"  stroke-width="2.0"/>
<line x1="197.9" y1="178.6" x2="224.4" y2="184.2" stroke="rgb(0,0,0)"  stroke-width="2.0"/>
<line x1="238.4" y1="199.8" x2="241.3" y2="226.7" stroke="rgb(0,0,0)"  stroke-width="2.0"/>
<line x1="241.3" y1="226.7" x2="204.7" y2="242.9" stroke="rgb(0,0,0)"  stroke-width="2.0"/>
<line x1="232.8" y1="222.5" x2="207.3" y2="233.9" stroke="rgb(0,0,0)"  stroke-width="2.0"/>
<line x1="204.7" y1="242.9" x2="177.9" y2="213.2" stroke="rgb(0,0,0)"  stroke-width="2.0"/>
<line x1="74.6" y1="130.5" x2="111.2" y2="114.2" stroke="rgb(0,0,0)"  stroke-width="2.0"/>
<line x1="83.1" y1="134.6" x2="108.6" y2="123.2" stroke="rgb(0,0,0)"  stroke-width="2.0"/>
<line x1="111.2" y1="114.2" x2="137.9" y2="143.9" stroke="rgb(0,0,0)"  stroke-width="2.0"/>
<line x1="137.9" y1="143.9" x2="117.9" y2="178.6" stroke="rgb(0,0,0)"  stroke-width="2.0"/>
<line x1="128.7" y1="145.5" x2="114.7" y2="169.8" stroke="rgb(0,0,0)"  stroke-width="2.0"/>
<line x1="117.9" y1="178.6" x2="91.5" y2="173.0" stroke="rgb(0,0,0)"  stroke-width="2.0"/>
<line x1="77.5" y1="157.3" x2="74.6" y2="130.5" stroke="rgb(0,0,0)"  stroke-width="2.0"/>
<line x1="137.9" y1="143.9" x2="177.9" y2="143.9" stroke="rgb(0,0,0)"  stroke-width="2.0"/>
<line x1="177.9" y1="143.9" x2="197.9" y2="178.6" stroke="rgb(0,0,0)"  stroke-width="2.0"/>
<line x1="174.7" y1="152.7" x2="188.7" y2="177.0" stroke="rgb(0,0,0)"  stroke-width="2.0"/>
<line x1="177.9" y1="213.2" x2="137.9" y2="213.2" stroke="rgb(0,0,0)"  stroke-width="2.0"/>
<line x1="171.9" y1="206.0" x2="143.9" y2="206.0" stroke="rgb(0,0,0)"  stroke-width="2.0"/>
<line x1="137.9" y1="213.2" x2="117.9" y2="178.6" stroke="rgb(0,0,0)"  stroke-width="2.0"/>
<line x1="345.2" y1="246.7" x2="345.2" y2="286.7" stroke="rgb(0,0,0)"  stroke-width="2.0"/>
<line x1="338.0" y1="252.7" x2="338.0" y2="280.7" stroke="rgb(0,0,0)"  stroke-width="2.0"/>
<line x1="345.2" y1="286.7" x2="310.5" y2="306.7" stroke="rgb(0,0,0)"  stroke-width="2.0"/>
<line x1="310.5" y1="306.7" x2="275.9" y2="286.7" stroke="rgb(0,0,0)"  stroke-width="2.0"/>
<line x1="308.9" y1="297.4" x2="284.7" y2="283.4" stroke="rgb(0,0,0)"  stroke-width="2.0"/>
<line x1="275.9" y1="286.7" x2="275.9" y2="246.7" stroke="rgb(0,0,0)"  stroke-width="2.0"/>
<line x1="275.9" y1="246.7" x2="310.5" y2="226.7" stroke="rgb(0,0,0)"  stroke-width="2.0"/>
<line x1="284.7" y1="249.9" x2="308.9" y2="235.9" stroke="rgb(0,0,0)"  stroke-width="2.0"/>
<line x1="310.5" y1="226.7" x2="345.2" y2="246.7" stroke="rgb(0,0,0)"  stroke-width="2.0"/>
<line x1="478.4" y1="391.9" x2="443.8" y2="371.9" stroke="rgb(0,0,0)"  stroke-width="2.0"/>
<line x1="443.8" y1="371.9" x2="443.8" y2="331.9" stroke="rgb(0,0,0)"  stroke-width="2.0"/>
<line x1="451.0" y1="365.9" x2="451.0" y2="337.9" stroke="rgb(0,0,0)"  stroke-width="2.0"/>
<line x1="443.8" y1="331.9" x2="478.4" y2="311.9" stroke="rgb(0,0,0)"  stroke-width="2.0"/>
<line x1="478.4" y1="311.9" x2="513.0" y2="331.9" stroke="rgb(0,0,0)"  stroke-width="2.0"/>
<line x1="480.0" y1="321.1" x2="504.2" y2="335.1" stroke="rgb(0,0,0)"  stroke-width="2.0"/>
<line x1="513.0" y1="331.9" x2="513.0" y2="371.9" stroke="rgb(0,0,0)"  stroke-width="2.0"/>
<line x1="513.0" y1="371.9" x2="478.4" y2="391.9" stroke="rgb(0,0,0)"  stroke-width="2.0"/>
<line x1="504.2" y1="368.6" x2="480.0" y2="382.6" stroke="rgb(0,0,0)"  stroke-width="2.0"/>
<line x1="358.6" y1="350.0" x2="331.8" y2="347.1" stroke="rgb(0,0,0)"  stroke-width="2.0"/>
<line x1="316.2" y1="333.1" x2="310.5" y2="306.7" stroke="rgb(0,0,0)"  stroke-width="2.0"/>
<line x1="345.2" y1="286.7" x2="374.9" y2="313.4" stroke="rgb(0,0,0)"  stroke-width="2.0"/>
<line x1="374.9" y1="313.4" x2="358.6" y2="350.0" stroke="rgb(0,0,0)"  stroke-width="2.0"/>
<line x1="472.8" y1="285.5" x2="478.4" y2="311.9" stroke="rgb(0,0,0)"  stroke-width="2.0"/>
<line x1="443.8" y1="331.9" x2="414.0" y2="305.1" stroke="rgb(0,0,0)"  stroke-width="2.0"/>
<line x1="414.0" y1="305.1" x2="430.3" y2="268.6" stroke="rgb(0,0,0)"  stroke-width="2.0"/>
<line x1="430.3" y1="268.6" x2="457.2" y2="271.4" stroke="rgb(0,0,0)"  stroke-width="2.0"/>
<text x="372.634477" y="392.609467" fill="rgb(255,12,12)"  stroke="rgb(255,12,12)" stroke-width="1" font-size="16" >O</text>
<text x="312.853601" y="353.787312" fill="rgb(12,12,255)"  stroke="rgb(12,12,255)" stroke-width="1" font-size="16" >N</text>
<text x="286.088377" y="383.513105" fill="rgb(255,12,12)"  stroke="rgb(255,12,12)" stroke-width="1" font-size="16" >O</text>
<text x="300.449057" y="421.555366" fill="rgb(102,102,102)"  stroke="rgb(102,102,102)" stroke-width="1" font-size="16" >CH</text>
<text x="324.449057" y="425.235366" fill="rgb(102,102,102)"  stroke="rgb(102,102,102)" stroke-width="1" font-size="13" >3</text>
<text x="404.299312" y="241.927330" fill="rgb(255,12,12)"  stroke="rgb(255,12,12)" stroke-width="1" font-size="16" >O</text>
<text x="464.080188" y="280.749485" fill="rgb(12,12,255)"  stroke="rgb(12,12,255)" stroke-width="1" font-size="16" >N</text>
<text x="490.845413" y="251.023692" fill="rgb(255,12,12)"  stroke="rgb(255,12,12)" stroke-width="1" font-size="16" >O</text>
<text x="531.971317" y="259.340160" fill="rgb(102,102,102)"  stroke="rgb(102,102,102)" stroke-width="1" font-size="16" >CH</text>
<text x="555.971317" y="263.020160" fill="rgb(102,102,102)"  stroke="rgb(102,102,102)" stroke-width="1" font-size="13" >3</text>
<text x="541.678688" y="399.875389" fill="rgb(191,191,191)"  stroke="rgb(191,191,191)" stroke-width="1" font-size="16" >H</text>
<text x="178.396815" y="290.056778" fill="rgb(255,12,12)"  stroke="rgb(255,12,12)" stroke-width="1" font-size="16" >HO</text>
<text x="131.948059" y="290.487113" fill="rgb(255,12,12)"  stroke="rgb(255,12,12)" stroke-width="1" font-size="16" >O</text>
<text x="71.948059" y="255.846097" fill="rgb(255,12,12)"  stroke="rgb(255,12,12)" stroke-width="1" font-size="16" >O</text>
<text x="31.948059" y="221.205081" fill="rgb(102,102,102)"  stroke="rgb(102,102,102)" stroke-width="1" font-size="16" >H</text>
<text x="43.948059" y="224.885081" fill="rgb(102,102,102)"  stroke="rgb(102,102,102)" stroke-width="1" font-size="13" >3</text>
<text x="50.448059" y="221.205081" fill="rgb(102,102,102)"  stroke="rgb(102,102,102)" stroke-width="1" font-size="16" >C</text>
<text x="72.822155" y="178.247597" fill="rgb(178,178,0)"  stroke="rgb(178,178,0)" stroke-width="1" font-size="16" >S</text>
<text x="34.000000" y="118.466721" fill="rgb(191,191,191)"  stroke="rgb(191,191,191)" stroke-width="1" font-size="16" >H</text>
<text x="113.499302" y="83.071351" fill="rgb(255,12,12)"  stroke="rgb(255,12,12)" stroke-width="1" font-size="16" >OH</text>
<text x="231.948059" y="117.282032" fill="rgb(255,12,12)"  stroke="rgb(255,12,12)" stroke-width="1" font-size="16" >O</text>
<text x="171.948059" y="82.641016" fill="rgb(255,12,12)"  stroke="rgb(255,12,12)" stroke-width="1" font-size="16" >O</text>
<text x="193.948059" y="48.000000" fill="rgb(102,102,102)"  stroke="rgb(102,102,102)" stroke-width="1" font-size="16" >CH</text>
<text x="217.948059" y="51.680000" fill="rgb(102,102,102)"  stroke="rgb(102,102,102)" stroke-width="1" font-size="13" >3</text>
<text x="231.073963" y="194.880532" fill="rgb(178,178,0)"  stroke="rgb(178,178,0)" stroke-width="1" font-size="16" >S</text>
</svg>
</g>
<text font-size="18.000000" fill ="black" font-family="sans-serif"
x="10.000000" y="20.000000" ></text>
</svg>
