<?xml version="1.0"?>
<svg version="1.1" id="topsvg"
xmlns="http://www.w3.org/2000/svg" xmlns:xlink="http://www.w3.org/1999/xlink"
xmlns:cml="http://www.xml-cml.org/schema" x="0" y="0" width="200px" height="200px" viewBox="0 0 100 100">
<title> - Open Babel Depiction</title>
<rect x="0" y="0" width="100" height="100" fill="white"/>
<g transform="translate(0,0)">
<svg width="100" height="100" x="0" y="0" viewBox="0 0 488.841 455.465"
font-family="sans-serif" stroke="rgb(0,0,0)" stroke-width="2"  stroke-linecap="round">
<line x1="212.7" y1="185.8" x2="247.0" y2="165.5" stroke="rgb(0,0,0)"  stroke-width="2.0"/>
<line x1="283.3" y1="148.9" x2="288.6" y2="122.6" stroke="rgb(0,0,0)"  stroke-width="2.0"/>
<line x1="350.1" y1="177.9" x2="363.3" y2="154.5" stroke="rgb(0,0,0)"  stroke-width="2.0"/>
<line x1="414.1" y1="259.7" x2="437.5" y2="272.9" stroke="rgb(0,0,0)"  stroke-width="2.0"/>
<line x1="377.8" y1="276.3" x2="372.5" y2="302.7" stroke="rgb(0,0,0)"  stroke-width="2.0"/>
<line x1="311.0" y1="247.4" x2="297.8" y2="270.8" stroke="rgb(0,0,0)"  stroke-width="2.0"/>
<line x1="180.7" y1="284.1" x2="204.2" y2="297.4" stroke="rgb(0,0,0)"  stroke-width="2.0"/>
<line x1="177.7" y1="289.3" x2="201.2" y2="302.6" stroke="rgb(0,0,0)"  stroke-width="2.0"/>
<line x1="145.1" y1="319.8" x2="145.5" y2="346.6" stroke="rgb(0,0,0)"  stroke-width="2.0"/>
<line x1="145.5" y1="349.6" x2="118.8" y2="350.0" stroke="rgb(0,0,0)"  stroke-width="2.0"/>
<line x1="145.4" y1="343.6" x2="118.7" y2="344.0" stroke="rgb(0,0,0)"  stroke-width="2.0"/>
<line x1="145.5" y1="346.6" x2="159.2" y2="369.6" stroke="rgb(0,0,0)"  stroke-width="2.0"/>
<line x1="159.6" y1="392.1" x2="152.9" y2="404.1" stroke="rgb(0,0,0)"  stroke-width="2.0"/>
<line x1="111.0" y1="290.0" x2="87.9" y2="303.9" stroke="rgb(0,0,0)"  stroke-width="2.0"/>
<line x1="107.9" y1="284.9" x2="84.8" y2="298.8" stroke="rgb(0,0,0)"  stroke-width="2.0"/>
<line x1="74.3" y1="227.2" x2="51.1" y2="241.1" stroke="rgb(0,0,0)"  stroke-width="2.0"/>
<line x1="106.3" y1="129.4" x2="82.8" y2="116.2" stroke="rgb(0,0,0)"  stroke-width="2.0"/>
<line x1="109.2" y1="124.2" x2="85.7" y2="111.0" stroke="rgb(0,0,0)"  stroke-width="2.0"/>
<line x1="142.1" y1="93.2" x2="141.8" y2="66.0" stroke="rgb(0,0,0)"  stroke-width="2.0"/>
<line x1="139.9" y1="63.7" x2="160.6" y2="46.1" stroke="rgb(0,0,0)"  stroke-width="2.0"/>
<line x1="143.8" y1="68.3" x2="164.5" y2="50.7" stroke="rgb(0,0,0)"  stroke-width="2.0"/>
<line x1="141.8" y1="66.0" x2="116.2" y2="56.9" stroke="rgb(0,0,0)"  stroke-width="2.0"/>
<line x1="94.0" y1="60.9" x2="83.2" y2="70.1" stroke="rgb(0,0,0)"  stroke-width="2.0"/>
<line x1="176.0" y1="123.5" x2="199.2" y2="109.7" stroke="rgb(0,0,0)"  stroke-width="2.0"/>
<line x1="179.0" y1="128.7" x2="202.3" y2="114.9" stroke="rgb(0,0,0)"  stroke-width="2.0"/>
<line x1="310.3" y1="178.3" x2="290.7" y2="213.0" stroke="rgb(0,0,0)"  stroke-width="2.0"/>
<line x1="290.7" y1="213.0" x2="287.6" y2="186.3" stroke="rgb(0,0,0)"  stroke-width="2.0"/>
<line x1="273.4" y1="170.9" x2="247.0" y2="165.5" stroke="rgb(0,0,0)"  stroke-width="2.0"/>
<line x1="247.0" y1="165.5" x2="283.3" y2="148.9" stroke="rgb(0,0,0)"  stroke-width="2.0"/>
<line x1="255.5" y1="169.6" x2="280.8" y2="158.0" stroke="rgb(0,0,0)"  stroke-width="2.0"/>
<line x1="283.3" y1="148.9" x2="310.3" y2="178.3" stroke="rgb(0,0,0)"  stroke-width="2.0"/>
<line x1="414.1" y1="259.7" x2="377.8" y2="276.3" stroke="rgb(0,0,0)"  stroke-width="2.0"/>
<line x1="405.6" y1="255.7" x2="380.3" y2="267.3" stroke="rgb(0,0,0)"  stroke-width="2.0"/>
<line x1="377.8" y1="276.3" x2="350.8" y2="247.0" stroke="rgb(0,0,0)"  stroke-width="2.0"/>
<line x1="350.8" y1="247.0" x2="370.4" y2="212.2" stroke="rgb(0,0,0)"  stroke-width="2.0"/>
<line x1="360.1" y1="245.3" x2="373.8" y2="221.0" stroke="rgb(0,0,0)"  stroke-width="2.0"/>
<line x1="370.4" y1="212.2" x2="396.8" y2="217.5" stroke="rgb(0,0,0)"  stroke-width="2.0"/>
<line x1="411.0" y1="233.0" x2="414.1" y2="259.7" stroke="rgb(0,0,0)"  stroke-width="2.0"/>
<line x1="350.8" y1="247.0" x2="311.0" y2="247.4" stroke="rgb(0,0,0)"  stroke-width="2.0"/>
<line x1="311.0" y1="247.4" x2="290.7" y2="213.0" stroke="rgb(0,0,0)"  stroke-width="2.0"/>
<line x1="314.1" y1="238.5" x2="299.9" y2="214.5" stroke="rgb(0,0,0)"  stroke-width="2.0"/>
<line x1="310.3" y1="178.3" x2="350.1" y2="177.9" stroke="rgb(0,0,0)"  stroke-width="2.0"/>
<line x1="316.3" y1="185.4" x2="344.2" y2="185.2" stroke="rgb(0,0,0)"  stroke-width="2.0"/>
<line x1="350.1" y1="177.9" x2="370.4" y2="212.2" stroke="rgb(0,0,0)"  stroke-width="2.0"/>
<line x1="178.8" y1="246.6" x2="143.6" y2="226.5" stroke="rgb(0,0,0)"  stroke-width="2.0"/>
<line x1="177.1" y1="237.3" x2="152.3" y2="223.2" stroke="rgb(0,0,0)"  stroke-width="2.0"/>
<line x1="143.6" y1="226.5" x2="143.1" y2="186.6" stroke="rgb(0,0,0)"  stroke-width="2.0"/>
<line x1="143.1" y1="186.6" x2="177.9" y2="166.2" stroke="rgb(0,0,0)"  stroke-width="2.0"/>
<line x1="152.0" y1="189.8" x2="176.4" y2="175.5" stroke="rgb(0,0,0)"  stroke-width="2.0"/>
<line x1="177.9" y1="166.2" x2="212.7" y2="185.8" stroke="rgb(0,0,0)"  stroke-width="2.0"/>
<line x1="212.7" y1="185.8" x2="213.1" y2="225.8" stroke="rgb(0,0,0)"  stroke-width="2.0"/>
<line x1="205.5" y1="191.9" x2="205.8" y2="219.8" stroke="rgb(0,0,0)"  stroke-width="2.0"/>
<line x1="213.1" y1="225.8" x2="178.8" y2="246.6" stroke="rgb(0,0,0)"  stroke-width="2.0"/>
<line x1="109.4" y1="287.5" x2="109.0" y2="247.3" stroke="rgb(0,0,0)"  stroke-width="2.0"/>
<line x1="109.0" y1="247.3" x2="143.6" y2="226.5" stroke="rgb(0,0,0)"  stroke-width="2.0"/>
<line x1="178.8" y1="246.6" x2="179.2" y2="286.7" stroke="rgb(0,0,0)"  stroke-width="2.0"/>
<line x1="179.2" y1="286.7" x2="156.1" y2="300.2" stroke="rgb(0,0,0)"  stroke-width="2.0"/>
<line x1="133.5" y1="300.6" x2="109.4" y2="287.5" stroke="rgb(0,0,0)"  stroke-width="2.0"/>
<line x1="73.9" y1="187.3" x2="108.2" y2="167.0" stroke="rgb(0,0,0)"  stroke-width="2.0"/>
<line x1="82.7" y1="190.4" x2="106.7" y2="176.2" stroke="rgb(0,0,0)"  stroke-width="2.0"/>
<line x1="108.2" y1="167.0" x2="143.1" y2="186.6" stroke="rgb(0,0,0)"  stroke-width="2.0"/>
<line x1="109.0" y1="247.3" x2="74.3" y2="227.2" stroke="rgb(0,0,0)"  stroke-width="2.0"/>
<line x1="107.4" y1="238.1" x2="83.1" y2="224.0" stroke="rgb(0,0,0)"  stroke-width="2.0"/>
<line x1="74.3" y1="227.2" x2="73.9" y2="187.3" stroke="rgb(0,0,0)"  stroke-width="2.0"/>
<line x1="153.6" y1="112.6" x2="177.5" y2="126.1" stroke="rgb(0,0,0)"  stroke-width="2.0"/>
<line x1="177.5" y1="126.1" x2="177.9" y2="166.2" stroke="rgb(0,0,0)"  stroke-width="2.0"/>
<line x1="108.2" y1="167.0" x2="107.7" y2="126.8" stroke="rgb(0,0,0)"  stroke-width="2.0"/>
<line x1="107.7" y1="126.8" x2="131.1" y2="112.9" stroke="rgb(0,0,0)"  stroke-width="2.0"/>
<text x="66.884039" y="115.233876" fill="rgb(255,12,12)"  stroke="rgb(255,12,12)" stroke-width="1" font-size="16" >O</text>
<text x="99.726979" y="355.183729" fill="rgb(255,12,12)"  stroke="rgb(255,12,12)" stroke-width="1" font-size="16" >O</text>
<text x="159.893212" y="388.727934" fill="rgb(255,12,12)"  stroke="rgb(255,12,12)" stroke-width="1" font-size="16" >O</text>
<text x="120.526457" y="423.464925" fill="rgb(102,102,102)"  stroke="rgb(102,102,102)" stroke-width="1" font-size="16" >H</text>
<text x="132.526457" y="427.144925" fill="rgb(102,102,102)"  stroke="rgb(102,102,102)" stroke-width="1" font-size="13" >3</text>
<text x="139.026457" y="423.464925" fill="rgb(102,102,102)"  stroke="rgb(102,102,102)" stroke-width="1" font-size="16" >C</text>
<text x="69.163752" y="316.033697" fill="rgb(255,12,12)"  stroke="rgb(255,12,12)" stroke-width="1" font-size="16" >O</text>
<text x="34.000000" y="255.815761" fill="rgb(191,191,191)"  stroke="rgb(191,191,191)" stroke-width="1" font-size="16" >H</text>
<text x="136.297472" y="114.241659" fill="rgb(12,12,255)"  stroke="rgb(12,12,255)" stroke-width="1" font-size="16" >N</text>
<text x="166.456482" y="48.000000" fill="rgb(255,12,12)"  stroke="rgb(255,12,12)" stroke-width="1" font-size="16" >O</text>
<text x="97.944202" y="60.513650" fill="rgb(255,12,12)"  stroke="rgb(255,12,12)" stroke-width="1" font-size="16" >O</text>
<text x="47.300442" y="86.548266" fill="rgb(102,102,102)"  stroke="rgb(102,102,102)" stroke-width="1" font-size="16" >H</text>
<text x="59.300442" y="90.228266" fill="rgb(102,102,102)"  stroke="rgb(102,102,102)" stroke-width="1" font-size="13" >3</text>
<text x="65.800442" y="86.548266" fill="rgb(102,102,102)"  stroke="rgb(102,102,102)" stroke-width="1" font-size="16" >C</text>
<text x="205.942061" y="113.704664" fill="rgb(255,12,12)"  stroke="rgb(255,12,12)" stroke-width="1" font-size="16" >O</text>
<text x="351.944234" y="323.421290" fill="rgb(30,239,30)"  stroke="rgb(30,239,30)" stroke-width="1" font-size="16" >Cl</text>
<text x="285.162511" y="117.849230" fill="rgb(30,239,30)"  stroke="rgb(30,239,30)" stroke-width="1" font-size="16" >Cl</text>
<text x="363.723604" y="151.153916" fill="rgb(191,191,191)"  stroke="rgb(191,191,191)" stroke-width="1" font-size="16" >H</text>
<text x="403.524711" y="228.117226" fill="rgb(178,178,0)"  stroke="rgb(178,178,0)" stroke-width="1" font-size="16" >S</text>
<text x="442.840747" y="287.319978" fill="rgb(191,191,191)"  stroke="rgb(191,191,191)" stroke-width="1" font-size="16" >H</text>
<text x="285.383141" y="290.116604" fill="rgb(191,191,191)"  stroke="rgb(191,191,191)" stroke-width="1" font-size="16" >H</text>
<text x="280.099147" y="181.426752" fill="rgb(178,178,0)"  stroke="rgb(178,178,0)" stroke-width="1" font-size="16" >S</text>
<text x="208.024406" y="314.424687" fill="rgb(255,12,12)"  stroke="rgb(255,12,12)" stroke-width="1" font-size="16" >O</text>
<text x="138.897081" y="314.820842" fill="rgb(12,12,255)"  stroke="rgb(12,12,255)" stroke-width="1" font-size="16" >N</text>
</svg>
</g>
<text font-size="18.000000" fill ="black" font-family="sans-serif"
x="10.000000" y="20.000000" ></text>
</svg>
