<?xml version="1.0"?>
<svg version="1.1" id="topsvg"
xmlns="http://www.w3.org/2000/svg" xmlns:xlink="http://www.w3.org/1999/xlink"
xmlns:cml="http://www.xml-cml.org/schema" x="0" y="0" width="200px" height="200px" viewBox="0 0 100 100">
<title> - Open Babel Depiction</title>
<rect x="0" y="0" width="100" height="100" fill="white"/>
<g transform="translate(0,0)">
<svg width="100" height="100" x="0" y="0" viewBox="0 0 487.06 398.074"
font-family="sans-serif" stroke="rgb(0,0,0)" stroke-width="2"  stroke-linecap="round">
<line x1="228.7" y1="135.5" x2="210.2" y2="167.6" stroke="rgb(0,0,0)"  stroke-width="2.0"/>
<line x1="138.0" y1="232.6" x2="102.8" y2="244.0" stroke="rgb(0,0,0)"  stroke-width="2.0"/>
<line x1="105.7" y1="244.6" x2="100.7" y2="268.2" stroke="rgb(0,0,0)"  stroke-width="2.0"/>
<line x1="99.9" y1="243.4" x2="94.9" y2="266.9" stroke="rgb(0,0,0)"  stroke-width="2.0"/>
<line x1="102.8" y1="244.0" x2="84.9" y2="227.9" stroke="rgb(0,0,0)"  stroke-width="2.0"/>
<line x1="62.9" y1="223.2" x2="52.4" y2="226.6" stroke="rgb(0,0,0)"  stroke-width="2.0"/>
<line x1="138.0" y1="232.6" x2="306.5" y2="175.4" stroke="rgb(0,0,0)"  stroke-width="2.0"/>
<line x1="305.0" y1="172.8" x2="325.8" y2="160.8" stroke="rgb(0,0,0)"  stroke-width="2.0"/>
<line x1="308.0" y1="178.0" x2="328.8" y2="166.0" stroke="rgb(0,0,0)"  stroke-width="2.0"/>
<line x1="306.5" y1="175.4" x2="285.7" y2="163.4" stroke="rgb(0,0,0)"  stroke-width="2.0"/>
<line x1="263.1" y1="163.4" x2="253.6" y2="168.9" stroke="rgb(0,0,0)"  stroke-width="2.0"/>
<line x1="177.5" y1="321.2" x2="180.0" y2="345.1" stroke="rgb(0,0,0)"  stroke-width="2.0"/>
<line x1="296.0" y1="157.1" x2="291.0" y2="180.6" stroke="rgb(0,0,0)"  stroke-width="2.0"/>
<line x1="290.2" y1="155.8" x2="285.2" y2="179.4" stroke="rgb(0,0,0)"  stroke-width="2.0"/>
<line x1="360.5" y1="163.5" x2="364.3" y2="200.4" stroke="rgb(0,0,0)"  stroke-width="2.0"/>
<line x1="365.6" y1="197.7" x2="387.5" y2="207.4" stroke="rgb(0,0,0)"  stroke-width="2.0"/>
<line x1="363.1" y1="203.1" x2="385.1" y2="212.9" stroke="rgb(0,0,0)"  stroke-width="2.0"/>
<line x1="364.3" y1="200.4" x2="344.9" y2="214.5" stroke="rgb(0,0,0)"  stroke-width="2.0"/>
<line x1="322.5" y1="216.9" x2="312.4" y2="212.4" stroke="rgb(0,0,0)"  stroke-width="2.0"/>
<line x1="372.9" y1="104.9" x2="391.5" y2="72.8" stroke="rgb(0,0,0)"  stroke-width="2.0"/>
<line x1="388.9" y1="74.3" x2="376.8" y2="53.4" stroke="rgb(0,0,0)"  stroke-width="2.0"/>
<line x1="394.1" y1="71.3" x2="382.0" y2="50.4" stroke="rgb(0,0,0)"  stroke-width="2.0"/>
<line x1="391.5" y1="72.8" x2="415.5" y2="72.8" stroke="rgb(0,0,0)"  stroke-width="2.0"/>
<line x1="435.0" y1="61.5" x2="440.6" y2="51.9" stroke="rgb(0,0,0)"  stroke-width="2.0"/>
<line x1="305.6" y1="83.3" x2="310.6" y2="59.8" stroke="rgb(0,0,0)"  stroke-width="2.0"/>
<line x1="311.5" y1="84.6" x2="316.5" y2="61.0" stroke="rgb(0,0,0)"  stroke-width="2.0"/>
<line x1="241.2" y1="76.9" x2="238.7" y2="52.9" stroke="rgb(0,0,0)"  stroke-width="2.0"/>
<line x1="165.6" y1="207.8" x2="197.7" y2="226.3" stroke="rgb(0,0,0)"  stroke-width="2.0"/>
<line x1="174.4" y1="204.5" x2="196.1" y2="217.1" stroke="rgb(0,0,0)"  stroke-width="2.0"/>
<line x1="197.7" y1="226.3" x2="215.6" y2="210.2" stroke="rgb(0,0,0)"  stroke-width="2.0"/>
<line x1="220.0" y1="189.6" x2="210.2" y2="167.6" stroke="rgb(0,0,0)"  stroke-width="2.0"/>
<line x1="210.2" y1="167.6" x2="173.3" y2="171.5" stroke="rgb(0,0,0)"  stroke-width="2.0"/>
<line x1="205.0" y1="175.4" x2="180.0" y2="178.0" stroke="rgb(0,0,0)"  stroke-width="2.0"/>
<line x1="173.3" y1="171.5" x2="165.6" y2="207.8" stroke="rgb(0,0,0)"  stroke-width="2.0"/>
<line x1="177.5" y1="321.2" x2="195.4" y2="305.1" stroke="rgb(0,0,0)"  stroke-width="2.0"/>
<line x1="199.8" y1="284.5" x2="190.0" y2="262.5" stroke="rgb(0,0,0)"  stroke-width="2.0"/>
<line x1="190.0" y1="262.5" x2="153.1" y2="266.4" stroke="rgb(0,0,0)"  stroke-width="2.0"/>
<line x1="184.8" y1="270.3" x2="159.8" y2="273.0" stroke="rgb(0,0,0)"  stroke-width="2.0"/>
<line x1="153.1" y1="266.4" x2="145.4" y2="302.7" stroke="rgb(0,0,0)"  stroke-width="2.0"/>
<line x1="145.4" y1="302.7" x2="177.5" y2="321.2" stroke="rgb(0,0,0)"  stroke-width="2.0"/>
<line x1="154.2" y1="299.4" x2="175.9" y2="312.0" stroke="rgb(0,0,0)"  stroke-width="2.0"/>
<line x1="382.7" y1="126.9" x2="372.9" y2="104.9" stroke="rgb(0,0,0)"  stroke-width="2.0"/>
<line x1="372.9" y1="104.9" x2="336.1" y2="108.7" stroke="rgb(0,0,0)"  stroke-width="2.0"/>
<line x1="367.7" y1="112.7" x2="342.8" y2="115.3" stroke="rgb(0,0,0)"  stroke-width="2.0"/>
<line x1="336.1" y1="108.7" x2="328.4" y2="145.0" stroke="rgb(0,0,0)"  stroke-width="2.0"/>
<line x1="328.4" y1="145.0" x2="360.5" y2="163.5" stroke="rgb(0,0,0)"  stroke-width="2.0"/>
<line x1="337.2" y1="141.8" x2="358.9" y2="154.3" stroke="rgb(0,0,0)"  stroke-width="2.0"/>
<line x1="360.5" y1="163.5" x2="378.3" y2="147.4" stroke="rgb(0,0,0)"  stroke-width="2.0"/>
<line x1="273.3" y1="95.4" x2="241.2" y2="76.9" stroke="rgb(0,0,0)"  stroke-width="2.0"/>
<line x1="264.5" y1="98.6" x2="242.8" y2="86.1" stroke="rgb(0,0,0)"  stroke-width="2.0"/>
<line x1="241.2" y1="76.9" x2="223.3" y2="93.0" stroke="rgb(0,0,0)"  stroke-width="2.0"/>
<line x1="218.9" y1="113.5" x2="228.7" y2="135.5" stroke="rgb(0,0,0)"  stroke-width="2.0"/>
<line x1="228.7" y1="135.5" x2="265.6" y2="131.7" stroke="rgb(0,0,0)"  stroke-width="2.0"/>
<line x1="233.9" y1="127.7" x2="258.8" y2="125.1" stroke="rgb(0,0,0)"  stroke-width="2.0"/>
<line x1="265.6" y1="131.7" x2="273.3" y2="95.4" stroke="rgb(0,0,0)"  stroke-width="2.0"/>
<line x1="190.0" y1="262.5" x2="197.7" y2="226.3" stroke="rgb(0,0,0)"  stroke-width="2.0"/>
<line x1="165.6" y1="207.8" x2="138.0" y2="232.6" stroke="rgb(0,0,0)"  stroke-width="2.0"/>
<line x1="138.0" y1="232.6" x2="153.1" y2="266.4" stroke="rgb(0,0,0)"  stroke-width="2.0"/>
<line x1="293.1" y1="156.5" x2="328.4" y2="145.0" stroke="rgb(0,0,0)"  stroke-width="2.0"/>
<line x1="336.1" y1="108.7" x2="308.5" y2="83.9" stroke="rgb(0,0,0)"  stroke-width="2.0"/>
<line x1="308.5" y1="83.9" x2="273.3" y2="95.4" stroke="rgb(0,0,0)"  stroke-width="2.0"/>
<line x1="265.6" y1="131.7" x2="293.1" y2="156.5" stroke="rgb(0,0,0)"  stroke-width="2.0"/>
<text x="279.399838" y="200.710604" fill="rgb(255,12,12)"  stroke="rgb(255,12,12)" stroke-width="1" font-size="16" >O</text>
<text x="392.194639" y="223.472703" fill="rgb(255,12,12)"  stroke="rgb(255,12,12)" stroke-width="1" font-size="16" >O</text>
<text x="328.345879" y="230.183478" fill="rgb(255,12,12)"  stroke="rgb(255,12,12)" stroke-width="1" font-size="16" >O</text>
<text x="274.484265" y="215.107317" fill="rgb(102,102,102)"  stroke="rgb(102,102,102)" stroke-width="1" font-size="16" >H</text>
<text x="286.484265" y="218.787317" fill="rgb(102,102,102)"  stroke="rgb(102,102,102)" stroke-width="1" font-size="13" >3</text>
<text x="292.984265" y="215.107317" fill="rgb(102,102,102)"  stroke="rgb(102,102,102)" stroke-width="1" font-size="16" >C</text>
<text x="382.004076" y="146.731346" fill="rgb(178,178,0)"  stroke="rgb(178,178,0)" stroke-width="1" font-size="16" >S</text>
<text x="366.927914" y="48.669275" fill="rgb(255,12,12)"  stroke="rgb(255,12,12)" stroke-width="1" font-size="16" >O</text>
<text x="422.527141" y="80.769504" fill="rgb(255,12,12)"  stroke="rgb(255,12,12)" stroke-width="1" font-size="16" >O</text>
<text x="443.060216" y="48.669275" fill="rgb(102,102,102)"  stroke="rgb(102,102,102)" stroke-width="1" font-size="16" >CH</text>
<text x="467.060216" y="52.349275" fill="rgb(102,102,102)"  stroke="rgb(102,102,102)" stroke-width="1" font-size="13" >3</text>
<text x="310.225783" y="55.685937" fill="rgb(255,12,12)"  stroke="rgb(255,12,12)" stroke-width="1" font-size="16" >O</text>
<text x="231.292596" y="48.000000" fill="rgb(191,191,191)"  stroke="rgb(191,191,191)" stroke-width="1" font-size="16" >H</text>
<text x="207.621545" y="109.665195" fill="rgb(178,178,0)"  stroke="rgb(178,178,0)" stroke-width="1" font-size="16" >S</text>
<text x="69.252005" y="227.211743" fill="rgb(255,12,12)"  stroke="rgb(255,12,12)" stroke-width="1" font-size="16" >O</text>
<text x="219.240793" y="209.488652" fill="rgb(178,178,0)"  stroke="rgb(178,178,0)" stroke-width="1" font-size="16" >S</text>
<text x="89.091037" y="288.270006" fill="rgb(255,12,12)"  stroke="rgb(255,12,12)" stroke-width="1" font-size="16" >O</text>
<text x="14.000000" y="238.665814" fill="rgb(102,102,102)"  stroke="rgb(102,102,102)" stroke-width="1" font-size="16" >H</text>
<text x="26.000000" y="242.345814" fill="rgb(102,102,102)"  stroke="rgb(102,102,102)" stroke-width="1" font-size="13" >3</text>
<text x="32.500000" y="238.665814" fill="rgb(102,102,102)"  stroke="rgb(102,102,102)" stroke-width="1" font-size="16" >C</text>
<text x="332.606136" y="164.863605" fill="rgb(255,12,12)"  stroke="rgb(255,12,12)" stroke-width="1" font-size="16" >O</text>
<text x="268.405679" y="164.863605" fill="rgb(255,12,12)"  stroke="rgb(255,12,12)" stroke-width="1" font-size="16" >O</text>
<text x="216.305450" y="183.396680" fill="rgb(102,102,102)"  stroke="rgb(102,102,102)" stroke-width="1" font-size="16" >H</text>
<text x="228.305450" y="187.076680" fill="rgb(102,102,102)"  stroke="rgb(102,102,102)" stroke-width="1" font-size="13" >3</text>
<text x="234.805450" y="183.396680" fill="rgb(102,102,102)"  stroke="rgb(102,102,102)" stroke-width="1" font-size="16" >C</text>
<text x="175.393900" y="366.073724" fill="rgb(191,191,191)"  stroke="rgb(191,191,191)" stroke-width="1" font-size="16" >H</text>
<text x="199.064950" y="304.408529" fill="rgb(178,178,0)"  stroke="rgb(178,178,0)" stroke-width="1" font-size="16" >S</text>
</svg>
</g>
<text font-size="18.000000" fill ="black" font-family="sans-serif"
x="10.000000" y="20.000000" ></text>
</svg>
