<?xml version="1.0"?>
<svg version="1.1" id="topsvg"
xmlns="http://www.w3.org/2000/svg" xmlns:xlink="http://www.w3.org/1999/xlink"
xmlns:cml="http://www.xml-cml.org/schema" x="0" y="0" width="200px" height="200px" viewBox="0 0 100 100">
<title> - Open Babel Depiction</title>
<rect x="0" y="0" width="100" height="100" fill="white"/>
<g transform="translate(0,0)">
<svg width="100" height="100" x="0" y="0" viewBox="0 0 445.212 516.035"
font-family="sans-serif" stroke="rgb(0,0,0)" stroke-width="2"  stroke-linecap="round">
<line x1="218.5" y1="209.9" x2="197.7" y2="245.8" stroke="rgb(0,0,0)"  stroke-width="2.0"/>
<line x1="156.4" y1="250.2" x2="128.7" y2="219.3" stroke="rgb(0,0,0)"  stroke-width="2.0"/>
<line x1="128.7" y1="219.3" x2="109.6" y2="198.2" stroke="rgb(0,0,0)"  stroke-width="2.0"/>
<line x1="125.6" y1="222.1" x2="106.5" y2="201.0" stroke="rgb(0,0,0)"  stroke-width="2.0"/>
<line x1="131.8" y1="216.5" x2="112.7" y2="195.3" stroke="rgb(0,0,0)"  stroke-width="2.0"/>
<line x1="111.9" y1="311.5" x2="75.9" y2="290.8" stroke="rgb(0,0,0)"  stroke-width="2.0"/>
<line x1="77.4" y1="293.4" x2="52.8" y2="307.6" stroke="rgb(0,0,0)"  stroke-width="2.0"/>
<line x1="74.4" y1="288.2" x2="49.8" y2="302.4" stroke="rgb(0,0,0)"  stroke-width="2.0"/>
<line x1="75.9" y1="290.8" x2="75.9" y2="262.3" stroke="rgb(0,0,0)"  stroke-width="2.0"/>
<line x1="64.7" y1="242.8" x2="51.3" y2="235.0" stroke="rgb(0,0,0)"  stroke-width="2.0"/>
<line x1="97.9" y1="418.7" x2="83.7" y2="443.4" stroke="rgb(0,0,0)"  stroke-width="2.0"/>
<line x1="139.2" y1="414.4" x2="167.0" y2="445.2" stroke="rgb(0,0,0)"  stroke-width="2.0"/>
<line x1="167.0" y1="445.2" x2="186.0" y2="466.4" stroke="rgb(0,0,0)"  stroke-width="2.0"/>
<line x1="170.1" y1="442.4" x2="189.1" y2="463.6" stroke="rgb(0,0,0)"  stroke-width="2.0"/>
<line x1="163.8" y1="448.0" x2="182.9" y2="469.2" stroke="rgb(0,0,0)"  stroke-width="2.0"/>
<line x1="183.8" y1="353.0" x2="219.7" y2="373.8" stroke="rgb(0,0,0)"  stroke-width="2.0"/>
<line x1="218.2" y1="371.2" x2="242.9" y2="356.9" stroke="rgb(0,0,0)"  stroke-width="2.0"/>
<line x1="221.2" y1="376.4" x2="245.9" y2="362.1" stroke="rgb(0,0,0)"  stroke-width="2.0"/>
<line x1="219.7" y1="373.8" x2="219.7" y2="402.3" stroke="rgb(0,0,0)"  stroke-width="2.0"/>
<line x1="231.0" y1="421.8" x2="244.4" y2="429.5" stroke="rgb(0,0,0)"  stroke-width="2.0"/>
<line x1="324.8" y1="172.5" x2="339.1" y2="197.1" stroke="rgb(0,0,0)"  stroke-width="2.0"/>
<line x1="319.6" y1="175.5" x2="333.9" y2="200.1" stroke="rgb(0,0,0)"  stroke-width="2.0"/>
<line x1="356.0" y1="138.0" x2="371.5" y2="138.0" stroke="rgb(0,0,0)"  stroke-width="2.0"/>
<line x1="391.0" y1="126.8" x2="398.7" y2="113.3" stroke="rgb(0,0,0)"  stroke-width="2.0"/>
<line x1="319.6" y1="100.6" x2="333.9" y2="75.9" stroke="rgb(0,0,0)"  stroke-width="2.0"/>
<line x1="324.8" y1="103.6" x2="339.1" y2="78.9" stroke="rgb(0,0,0)"  stroke-width="2.0"/>
<line x1="259.0" y1="78.6" x2="269.4" y2="52.1" stroke="rgb(0,0,0)"  stroke-width="2.0"/>
<line x1="176.4" y1="110.6" x2="162.7" y2="85.6" stroke="rgb(0,0,0)"  stroke-width="2.0"/>
<line x1="181.7" y1="107.7" x2="167.9" y2="82.7" stroke="rgb(0,0,0)"  stroke-width="2.0"/>
<line x1="148.9" y1="131.4" x2="133.6" y2="128.8" stroke="rgb(0,0,0)"  stroke-width="2.0"/>
<line x1="116.2" y1="114.5" x2="110.9" y2="99.9" stroke="rgb(0,0,0)"  stroke-width="2.0"/>
<line x1="172.0" y1="164.7" x2="150.7" y2="183.7" stroke="rgb(0,0,0)"  stroke-width="2.0"/>
<line x1="168.0" y1="160.2" x2="146.7" y2="179.2" stroke="rgb(0,0,0)"  stroke-width="2.0"/>
<line x1="147.8" y1="290.8" x2="183.8" y2="311.5" stroke="rgb(0,0,0)"  stroke-width="2.0"/>
<line x1="183.8" y1="311.5" x2="204.9" y2="292.4" stroke="rgb(0,0,0)"  stroke-width="2.0"/>
<line x1="209.3" y1="271.9" x2="197.7" y2="245.8" stroke="rgb(0,0,0)"  stroke-width="2.0"/>
<line x1="197.7" y1="245.8" x2="156.4" y2="250.2" stroke="rgb(0,0,0)"  stroke-width="2.0"/>
<line x1="192.5" y1="253.6" x2="163.2" y2="256.7" stroke="rgb(0,0,0)"  stroke-width="2.0"/>
<line x1="156.4" y1="250.2" x2="147.8" y2="290.8" stroke="rgb(0,0,0)"  stroke-width="2.0"/>
<line x1="97.9" y1="418.7" x2="139.2" y2="414.4" stroke="rgb(0,0,0)"  stroke-width="2.0"/>
<line x1="103.1" y1="410.9" x2="132.5" y2="407.8" stroke="rgb(0,0,0)"  stroke-width="2.0"/>
<line x1="139.2" y1="414.4" x2="147.8" y2="373.8" stroke="rgb(0,0,0)"  stroke-width="2.0"/>
<line x1="147.8" y1="373.8" x2="111.9" y2="353.0" stroke="rgb(0,0,0)"  stroke-width="2.0"/>
<line x1="139.0" y1="377.0" x2="113.5" y2="362.2" stroke="rgb(0,0,0)"  stroke-width="2.0"/>
<line x1="111.9" y1="353.0" x2="90.7" y2="372.1" stroke="rgb(0,0,0)"  stroke-width="2.0"/>
<line x1="86.3" y1="392.7" x2="97.9" y2="418.7" stroke="rgb(0,0,0)"  stroke-width="2.0"/>
<line x1="147.8" y1="373.8" x2="183.8" y2="353.0" stroke="rgb(0,0,0)"  stroke-width="2.0"/>
<line x1="183.8" y1="353.0" x2="183.8" y2="311.5" stroke="rgb(0,0,0)"  stroke-width="2.0"/>
<line x1="176.6" y1="347.0" x2="176.6" y2="317.5" stroke="rgb(0,0,0)"  stroke-width="2.0"/>
<line x1="147.8" y1="290.8" x2="111.9" y2="311.5" stroke="rgb(0,0,0)"  stroke-width="2.0"/>
<line x1="146.2" y1="300.0" x2="120.7" y2="314.8" stroke="rgb(0,0,0)"  stroke-width="2.0"/>
<line x1="111.9" y1="311.5" x2="111.9" y2="353.0" stroke="rgb(0,0,0)"  stroke-width="2.0"/>
<line x1="280.7" y1="174.0" x2="260.0" y2="138.0" stroke="rgb(0,0,0)"  stroke-width="2.0"/>
<line x1="271.5" y1="172.4" x2="256.7" y2="146.8" stroke="rgb(0,0,0)"  stroke-width="2.0"/>
<line x1="260.0" y1="138.0" x2="218.5" y2="138.0" stroke="rgb(0,0,0)"  stroke-width="2.0"/>
<line x1="218.5" y1="138.0" x2="197.7" y2="174.0" stroke="rgb(0,0,0)"  stroke-width="2.0"/>
<line x1="221.7" y1="146.8" x2="207.0" y2="172.4" stroke="rgb(0,0,0)"  stroke-width="2.0"/>
<line x1="197.7" y1="174.0" x2="218.5" y2="209.9" stroke="rgb(0,0,0)"  stroke-width="2.0"/>
<line x1="218.5" y1="209.9" x2="260.0" y2="209.9" stroke="rgb(0,0,0)"  stroke-width="2.0"/>
<line x1="224.5" y1="202.7" x2="254.0" y2="202.7" stroke="rgb(0,0,0)"  stroke-width="2.0"/>
<line x1="260.0" y1="209.9" x2="280.7" y2="174.0" stroke="rgb(0,0,0)"  stroke-width="2.0"/>
<line x1="322.2" y1="102.1" x2="280.7" y2="102.1" stroke="rgb(0,0,0)"  stroke-width="2.0"/>
<line x1="280.7" y1="102.1" x2="260.0" y2="138.0" stroke="rgb(0,0,0)"  stroke-width="2.0"/>
<line x1="280.7" y1="174.0" x2="322.2" y2="174.0" stroke="rgb(0,0,0)"  stroke-width="2.0"/>
<line x1="322.2" y1="174.0" x2="336.5" y2="149.3" stroke="rgb(0,0,0)"  stroke-width="2.0"/>
<line x1="336.5" y1="126.8" x2="322.2" y2="102.1" stroke="rgb(0,0,0)"  stroke-width="2.0"/>
<line x1="227.1" y1="81.0" x2="209.0" y2="107.5" stroke="rgb(0,0,0)"  stroke-width="2.0"/>
<line x1="229.6" y1="90.0" x2="218.4" y2="106.5" stroke="rgb(0,0,0)"  stroke-width="2.0"/>
<line x1="209.0" y1="107.5" x2="218.5" y2="138.0" stroke="rgb(0,0,0)"  stroke-width="2.0"/>
<line x1="280.7" y1="102.1" x2="259.0" y2="78.6" stroke="rgb(0,0,0)"  stroke-width="2.0"/>
<line x1="271.4" y1="102.6" x2="257.8" y2="87.9" stroke="rgb(0,0,0)"  stroke-width="2.0"/>
<line x1="259.0" y1="78.6" x2="227.1" y2="81.0" stroke="rgb(0,0,0)"  stroke-width="2.0"/>
<line x1="165.3" y1="146.1" x2="170.0" y2="162.5" stroke="rgb(0,0,0)"  stroke-width="2.0"/>
<line x1="170.0" y1="162.5" x2="197.7" y2="174.0" stroke="rgb(0,0,0)"  stroke-width="2.0"/>
<line x1="209.0" y1="107.5" x2="179.1" y2="109.1" stroke="rgb(0,0,0)"  stroke-width="2.0"/>
<line x1="179.1" y1="109.1" x2="169.2" y2="123.0" stroke="rgb(0,0,0)"  stroke-width="2.0"/>
<text x="336.963332" y="217.897114" fill="rgb(255,12,12)"  stroke="rgb(255,12,12)" stroke-width="1" font-size="16" >O</text>
<text x="336.963332" y="146.018862" fill="rgb(12,12,255)"  stroke="rgb(12,12,255)" stroke-width="1" font-size="16" >N</text>
<text x="378.462260" y="146.018862" fill="rgb(255,12,12)"  stroke="rgb(255,12,12)" stroke-width="1" font-size="16" >O</text>
<text x="401.211724" y="110.079736" fill="rgb(102,102,102)"  stroke="rgb(102,102,102)" stroke-width="1" font-size="16" >CH</text>
<text x="425.211724" y="113.759736" fill="rgb(102,102,102)"  stroke="rgb(102,102,102)" stroke-width="1" font-size="13" >3</text>
<text x="336.963332" y="74.140610" fill="rgb(255,12,12)"  stroke="rgb(255,12,12)" stroke-width="1" font-size="16" >O</text>
<text x="268.118269" y="48.000000" fill="rgb(191,191,191)"  stroke="rgb(191,191,191)" stroke-width="1" font-size="16" >H</text>
<text x="208.596218" y="291.747397" fill="rgb(178,178,0)"  stroke="rgb(178,178,0)" stroke-width="1" font-size="16" >S</text>
<text x="152.997508" y="80.798741" fill="rgb(255,12,12)"  stroke="rgb(255,12,12)" stroke-width="1" font-size="16" >O</text>
<text x="155.678944" y="141.606810" fill="rgb(12,12,255)"  stroke="rgb(12,12,255)" stroke-width="1" font-size="16" >N</text>
<text x="114.768451" y="134.643146" fill="rgb(255,12,12)"  stroke="rgb(255,12,12)" stroke-width="1" font-size="16" >O</text>
<text x="80.343915" y="95.731787" fill="rgb(102,102,102)"  stroke="rgb(102,102,102)" stroke-width="1" font-size="16" >H</text>
<text x="92.343915" y="99.411787" fill="rgb(102,102,102)"  stroke="rgb(102,102,102)" stroke-width="1" font-size="13" >3</text>
<text x="98.843915" y="95.731787" fill="rgb(102,102,102)"  stroke="rgb(102,102,102)" stroke-width="1" font-size="16" >C</text>
<text x="133.030275" y="198.103263" fill="rgb(255,12,12)"  stroke="rgb(255,12,12)" stroke-width="1" font-size="16" >O</text>
<text x="94.909085" y="196.494632" fill="rgb(12,12,255)"  stroke="rgb(12,12,255)" stroke-width="1" font-size="16" >N</text>
<text x="34.000000" y="319.515600" fill="rgb(255,12,12)"  stroke="rgb(255,12,12)" stroke-width="1" font-size="16" >O</text>
<text x="69.939126" y="257.267208" fill="rgb(255,12,12)"  stroke="rgb(255,12,12)" stroke-width="1" font-size="16" >O</text>
<text x="14.000000" y="236.517744" fill="rgb(102,102,102)"  stroke="rgb(102,102,102)" stroke-width="1" font-size="16" >H</text>
<text x="26.000000" y="240.197744" fill="rgb(102,102,102)"  stroke="rgb(102,102,102)" stroke-width="1" font-size="13" >3</text>
<text x="32.500000" y="236.517744" fill="rgb(102,102,102)"  stroke="rgb(102,102,102)" stroke-width="1" font-size="16" >C</text>
<text x="75.038538" y="388.782732" fill="rgb(178,178,0)"  stroke="rgb(178,178,0)" stroke-width="1" font-size="16" >S</text>
<text x="71.168209" y="462.633015" fill="rgb(191,191,191)"  stroke="rgb(191,191,191)" stroke-width="1" font-size="16" >H</text>
<text x="188.725672" y="484.035497" fill="rgb(12,12,255)"  stroke="rgb(12,12,255)" stroke-width="1" font-size="16" >N</text>
<text x="249.634756" y="361.014529" fill="rgb(255,12,12)"  stroke="rgb(255,12,12)" stroke-width="1" font-size="16" >O</text>
<text x="213.695630" y="423.262921" fill="rgb(255,12,12)"  stroke="rgb(255,12,12)" stroke-width="1" font-size="16" >O</text>
<text x="251.634756" y="444.012385" fill="rgb(102,102,102)"  stroke="rgb(102,102,102)" stroke-width="1" font-size="16" >CH</text>
<text x="275.634756" y="447.692385" fill="rgb(102,102,102)"  stroke="rgb(102,102,102)" stroke-width="1" font-size="13" >3</text>
</svg>
</g>
<text font-size="18.000000" fill ="black" font-family="sans-serif"
x="10.000000" y="20.000000" ></text>
</svg>
