<?xml version="1.0"?>
<svg version="1.1" id="topsvg"
xmlns="http://www.w3.org/2000/svg" xmlns:xlink="http://www.w3.org/1999/xlink"
xmlns:cml="http://www.xml-cml.org/schema" x="0" y="0" width="200px" height="200px" viewBox="0 0 100 100">
<title> - Open Babel Depiction</title>
<rect x="0" y="0" width="100" height="100" fill="white"/>
<g transform="translate(0,0)">
<svg width="100" height="100" x="0" y="0" viewBox="0 0 530.868 387.101"
font-family="sans-serif" stroke="rgb(0,0,0)" stroke-width="2"  stroke-linecap="round">
<line x1="257.1" y1="249.1" x2="218.0" y2="240.8" stroke="rgb(0,0,0)"  stroke-width="2.0"/>
<line x1="188.3" y1="267.5" x2="192.4" y2="307.3" stroke="rgb(0,0,0)"  stroke-width="2.0"/>
<line x1="192.4" y1="307.3" x2="195.3" y2="334.2" stroke="rgb(0,0,0)"  stroke-width="2.0"/>
<line x1="196.6" y1="306.9" x2="199.4" y2="333.7" stroke="rgb(0,0,0)"  stroke-width="2.0"/>
<line x1="188.3" y1="307.8" x2="191.1" y2="334.6" stroke="rgb(0,0,0)"  stroke-width="2.0"/>
<line x1="153.6" y1="247.5" x2="129.0" y2="258.5" stroke="rgb(0,0,0)"  stroke-width="2.0"/>
<line x1="161.9" y1="208.4" x2="135.2" y2="178.7" stroke="rgb(0,0,0)"  stroke-width="2.0"/>
<line x1="79.1" y1="146.3" x2="52.7" y2="140.7" stroke="rgb(0,0,0)"  stroke-width="2.0"/>
<line x1="108.9" y1="119.6" x2="104.7" y2="79.8" stroke="rgb(0,0,0)"  stroke-width="2.0"/>
<line x1="104.7" y1="79.8" x2="101.8" y2="52.9" stroke="rgb(0,0,0)"  stroke-width="2.0"/>
<line x1="100.5" y1="80.2" x2="97.7" y2="53.4" stroke="rgb(0,0,0)"  stroke-width="2.0"/>
<line x1="108.8" y1="79.3" x2="106.0" y2="52.5" stroke="rgb(0,0,0)"  stroke-width="2.0"/>
<line x1="143.5" y1="139.6" x2="168.2" y2="128.6" stroke="rgb(0,0,0)"  stroke-width="2.0"/>
<line x1="285.3" y1="184.9" x2="262.0" y2="171.4" stroke="rgb(0,0,0)"  stroke-width="2.0"/>
<line x1="288.3" y1="179.7" x2="265.0" y2="166.2" stroke="rgb(0,0,0)"  stroke-width="2.0"/>
<line x1="329.8" y1="123.2" x2="303.0" y2="93.5" stroke="rgb(0,0,0)"  stroke-width="2.0"/>
<line x1="300.2" y1="92.5" x2="308.5" y2="66.9" stroke="rgb(0,0,0)"  stroke-width="2.0"/>
<line x1="305.9" y1="94.4" x2="314.2" y2="68.7" stroke="rgb(0,0,0)"  stroke-width="2.0"/>
<line x1="303.0" y1="93.5" x2="276.6" y2="99.1" stroke="rgb(0,0,0)"  stroke-width="2.0"/>
<line x1="259.9" y1="114.2" x2="255.6" y2="127.5" stroke="rgb(0,0,0)"  stroke-width="2.0"/>
<line x1="385.9" y1="155.6" x2="425.0" y2="163.9" stroke="rgb(0,0,0)"  stroke-width="2.0"/>
<line x1="427.8" y1="162.9" x2="436.2" y2="188.6" stroke="rgb(0,0,0)"  stroke-width="2.0"/>
<line x1="422.1" y1="164.8" x2="430.5" y2="190.5" stroke="rgb(0,0,0)"  stroke-width="2.0"/>
<line x1="425.0" y1="163.9" x2="443.0" y2="143.8" stroke="rgb(0,0,0)"  stroke-width="2.0"/>
<line x1="464.5" y1="136.9" x2="478.2" y2="139.8" stroke="rgb(0,0,0)"  stroke-width="2.0"/>
<line x1="357.6" y1="219.7" x2="381.0" y2="233.2" stroke="rgb(0,0,0)"  stroke-width="2.0"/>
<line x1="354.6" y1="224.9" x2="378.0" y2="238.4" stroke="rgb(0,0,0)"  stroke-width="2.0"/>
<line x1="313.2" y1="281.5" x2="331.2" y2="301.5" stroke="rgb(0,0,0)"  stroke-width="2.0"/>
<line x1="153.6" y1="247.5" x2="161.9" y2="208.4" stroke="rgb(0,0,0)"  stroke-width="2.0"/>
<line x1="161.9" y1="243.2" x2="167.7" y2="215.8" stroke="rgb(0,0,0)"  stroke-width="2.0"/>
<line x1="161.9" y1="208.4" x2="188.8" y2="205.6" stroke="rgb(0,0,0)"  stroke-width="2.0"/>
<line x1="207.0" y1="216.1" x2="218.0" y2="240.8" stroke="rgb(0,0,0)"  stroke-width="2.0"/>
<line x1="218.0" y1="240.8" x2="188.3" y2="267.5" stroke="rgb(0,0,0)"  stroke-width="2.0"/>
<line x1="208.7" y1="239.4" x2="187.9" y2="258.2" stroke="rgb(0,0,0)"  stroke-width="2.0"/>
<line x1="188.3" y1="267.5" x2="153.6" y2="247.5" stroke="rgb(0,0,0)"  stroke-width="2.0"/>
<line x1="79.1" y1="146.3" x2="108.9" y2="119.6" stroke="rgb(0,0,0)"  stroke-width="2.0"/>
<line x1="88.4" y1="147.7" x2="109.2" y2="128.9" stroke="rgb(0,0,0)"  stroke-width="2.0"/>
<line x1="108.9" y1="119.6" x2="143.5" y2="139.6" stroke="rgb(0,0,0)"  stroke-width="2.0"/>
<line x1="143.5" y1="139.6" x2="135.2" y2="178.7" stroke="rgb(0,0,0)"  stroke-width="2.0"/>
<line x1="135.2" y1="143.9" x2="129.4" y2="171.3" stroke="rgb(0,0,0)"  stroke-width="2.0"/>
<line x1="135.2" y1="178.7" x2="108.3" y2="181.5" stroke="rgb(0,0,0)"  stroke-width="2.0"/>
<line x1="90.1" y1="171.0" x2="79.1" y2="146.3" stroke="rgb(0,0,0)"  stroke-width="2.0"/>
<line x1="374.9" y1="130.9" x2="385.9" y2="155.6" stroke="rgb(0,0,0)"  stroke-width="2.0"/>
<line x1="385.9" y1="155.6" x2="356.1" y2="182.3" stroke="rgb(0,0,0)"  stroke-width="2.0"/>
<line x1="376.6" y1="154.2" x2="355.8" y2="173.0" stroke="rgb(0,0,0)"  stroke-width="2.0"/>
<line x1="356.1" y1="182.3" x2="321.5" y2="162.3" stroke="rgb(0,0,0)"  stroke-width="2.0"/>
<line x1="321.5" y1="162.3" x2="329.8" y2="123.2" stroke="rgb(0,0,0)"  stroke-width="2.0"/>
<line x1="329.8" y1="158.0" x2="335.6" y2="130.6" stroke="rgb(0,0,0)"  stroke-width="2.0"/>
<line x1="329.8" y1="123.2" x2="356.7" y2="120.4" stroke="rgb(0,0,0)"  stroke-width="2.0"/>
<line x1="321.5" y1="242.3" x2="313.2" y2="281.5" stroke="rgb(0,0,0)"  stroke-width="2.0"/>
<line x1="313.2" y1="246.7" x2="307.4" y2="274.1" stroke="rgb(0,0,0)"  stroke-width="2.0"/>
<line x1="313.2" y1="281.5" x2="286.3" y2="284.3" stroke="rgb(0,0,0)"  stroke-width="2.0"/>
<line x1="268.1" y1="273.8" x2="257.1" y2="249.1" stroke="rgb(0,0,0)"  stroke-width="2.0"/>
<line x1="257.1" y1="249.1" x2="286.8" y2="222.3" stroke="rgb(0,0,0)"  stroke-width="2.0"/>
<line x1="266.4" y1="250.4" x2="287.2" y2="231.7" stroke="rgb(0,0,0)"  stroke-width="2.0"/>
<line x1="286.8" y1="222.3" x2="321.5" y2="242.3" stroke="rgb(0,0,0)"  stroke-width="2.0"/>
<line x1="286.8" y1="182.3" x2="321.5" y2="162.3" stroke="rgb(0,0,0)"  stroke-width="2.0"/>
<line x1="356.1" y1="182.3" x2="356.1" y2="222.3" stroke="rgb(0,0,0)"  stroke-width="2.0"/>
<line x1="356.1" y1="222.3" x2="321.5" y2="242.3" stroke="rgb(0,0,0)"  stroke-width="2.0"/>
<line x1="286.8" y1="222.3" x2="286.8" y2="182.3" stroke="rgb(0,0,0)"  stroke-width="2.0"/>
<text x="431.337918" y="209.918876" fill="rgb(255,12,12)"  stroke="rgb(255,12,12)" stroke-width="1" font-size="16" >O</text>
<text x="309.396448" y="63.431414" fill="rgb(255,12,12)"  stroke="rgb(255,12,12)" stroke-width="1" font-size="16" >O</text>
<text x="257.909864" y="109.790142" fill="rgb(255,12,12)"  stroke="rgb(255,12,12)" stroke-width="1" font-size="16" >O</text>
<text x="225.549184" y="147.832403" fill="rgb(102,102,102)"  stroke="rgb(102,102,102)" stroke-width="1" font-size="16" >H</text>
<text x="237.549184" y="151.512403" fill="rgb(102,102,102)"  stroke="rgb(102,102,102)" stroke-width="1" font-size="13" >3</text>
<text x="244.049184" y="147.832403" fill="rgb(102,102,102)"  stroke="rgb(102,102,102)" stroke-width="1" font-size="16" >C</text>
<text x="363.581868" y="127.018329" fill="rgb(178,178,0)"  stroke="rgb(178,178,0)" stroke-width="1" font-size="16" >S</text>
<text x="246.202492" y="170.325372" fill="rgb(255,12,12)"  stroke="rgb(255,12,12)" stroke-width="1" font-size="16" >O</text>
<text x="445.742462" y="142.150822" fill="rgb(255,12,12)"  stroke="rgb(255,12,12)" stroke-width="1" font-size="16" >O</text>
<text x="486.868366" y="150.467290" fill="rgb(102,102,102)"  stroke="rgb(102,102,102)" stroke-width="1" font-size="16" >CH</text>
<text x="510.868366" y="154.147290" fill="rgb(102,102,102)"  stroke="rgb(102,102,102)" stroke-width="1" font-size="13" >3</text>
<text x="384.766557" y="250.325372" fill="rgb(255,12,12)"  stroke="rgb(255,12,12)" stroke-width="1" font-size="16" >O</text>
<text x="333.933281" y="319.177069" fill="rgb(191,191,191)"  stroke="rgb(191,191,191)" stroke-width="1" font-size="16" >H</text>
<text x="267.387181" y="293.632414" fill="rgb(178,178,0)"  stroke="rgb(178,178,0)" stroke-width="1" font-size="16" >S</text>
<text x="89.395370" y="190.868794" fill="rgb(178,178,0)"  stroke="rgb(178,178,0)" stroke-width="1" font-size="16" >S</text>
<text x="190.628295" y="355.101104" fill="rgb(12,12,255)"  stroke="rgb(12,12,255)" stroke-width="1" font-size="16" >N</text>
<text x="99.083184" y="271.808818" fill="rgb(255,12,12)"  stroke="rgb(255,12,12)" stroke-width="1" font-size="16" >HO</text>
<text x="195.722346" y="212.232310" fill="rgb(178,178,0)"  stroke="rgb(178,178,0)" stroke-width="1" font-size="16" >S</text>
<text x="34.000000" y="146.010508" fill="rgb(191,191,191)"  stroke="rgb(191,191,191)" stroke-width="1" font-size="16" >H</text>
<text x="94.489420" y="48.000000" fill="rgb(12,12,255)"  stroke="rgb(12,12,255)" stroke-width="1" font-size="16" >N</text>
<text x="174.034532" y="131.292286" fill="rgb(255,12,12)"  stroke="rgb(255,12,12)" stroke-width="1" font-size="16" >OH</text>
</svg>
</g>
<text font-size="18.000000" fill ="black" font-family="sans-serif"
x="10.000000" y="20.000000" ></text>
</svg>
