<?xml version="1.0"?>
<svg version="1.1" id="topsvg"
xmlns="http://www.w3.org/2000/svg" xmlns:xlink="http://www.w3.org/1999/xlink"
xmlns:cml="http://www.xml-cml.org/schema" x="0" y="0" width="200px" height="200px" viewBox="0 0 100 100">
<title> - Open Babel Depiction</title>
<rect x="0" y="0" width="100" height="100" fill="white"/>
<g transform="translate(0,0)">
<svg width="100" height="100" x="0" y="0" viewBox="0 0 477.454 332.489"
font-family="sans-serif" stroke="rgb(0,0,0)" stroke-width="2"  stroke-linecap="round">
<line x1="165.1" y1="192.5" x2="205.1" y2="192.5" stroke="rgb(0,0,0)"  stroke-width="2.0"/>
<line x1="228.6" y1="160.1" x2="220.2" y2="134.5" stroke="rgb(0,0,0)"  stroke-width="2.0"/>
<line x1="301.3" y1="152.5" x2="301.3" y2="125.5" stroke="rgb(0,0,0)"  stroke-width="2.0"/>
<line x1="312.5" y1="106.0" x2="324.6" y2="99.0" stroke="rgb(0,0,0)"  stroke-width="2.0"/>
<line x1="397.5" y1="192.5" x2="424.5" y2="192.5" stroke="rgb(0,0,0)"  stroke-width="2.0"/>
<line x1="373.9" y1="224.9" x2="382.3" y2="250.5" stroke="rgb(0,0,0)"  stroke-width="2.0"/>
<line x1="301.3" y1="232.5" x2="301.3" y2="259.5" stroke="rgb(0,0,0)"  stroke-width="2.0"/>
<line x1="312.5" y1="279.0" x2="324.6" y2="286.0" stroke="rgb(0,0,0)"  stroke-width="2.0"/>
<line x1="139.8" y1="117.7" x2="161.6" y2="101.8" stroke="rgb(0,0,0)"  stroke-width="2.0"/>
<line x1="143.3" y1="122.6" x2="165.2" y2="106.7" stroke="rgb(0,0,0)"  stroke-width="2.0"/>
<line x1="99.5" y1="95.4" x2="95.2" y2="82.1" stroke="rgb(0,0,0)"  stroke-width="2.0"/>
<line x1="99.8" y1="60.1" x2="109.2" y2="49.7" stroke="rgb(0,0,0)"  stroke-width="2.0"/>
<line x1="80.0" y1="143.1" x2="53.0" y2="143.1" stroke="rgb(0,0,0)"  stroke-width="2.0"/>
<line x1="80.0" y1="137.1" x2="53.0" y2="137.1" stroke="rgb(0,0,0)"  stroke-width="2.0"/>
<line x1="103.5" y1="212.5" x2="81.7" y2="228.4" stroke="rgb(0,0,0)"  stroke-width="2.0"/>
<line x1="266.6" y1="172.5" x2="266.6" y2="212.5" stroke="rgb(0,0,0)"  stroke-width="2.0"/>
<line x1="266.6" y1="212.5" x2="240.9" y2="220.8" stroke="rgb(0,0,0)"  stroke-width="2.0"/>
<line x1="220.9" y1="214.3" x2="205.1" y2="192.5" stroke="rgb(0,0,0)"  stroke-width="2.0"/>
<line x1="205.1" y1="192.5" x2="228.6" y2="160.1" stroke="rgb(0,0,0)"  stroke-width="2.0"/>
<line x1="214.4" y1="191.9" x2="230.9" y2="169.2" stroke="rgb(0,0,0)"  stroke-width="2.0"/>
<line x1="228.6" y1="160.1" x2="266.6" y2="172.5" stroke="rgb(0,0,0)"  stroke-width="2.0"/>
<line x1="397.5" y1="192.5" x2="373.9" y2="224.9" stroke="rgb(0,0,0)"  stroke-width="2.0"/>
<line x1="388.1" y1="193.1" x2="371.6" y2="215.8" stroke="rgb(0,0,0)"  stroke-width="2.0"/>
<line x1="373.9" y1="224.9" x2="335.9" y2="212.5" stroke="rgb(0,0,0)"  stroke-width="2.0"/>
<line x1="335.9" y1="212.5" x2="335.9" y2="172.5" stroke="rgb(0,0,0)"  stroke-width="2.0"/>
<line x1="343.1" y1="206.5" x2="343.1" y2="178.5" stroke="rgb(0,0,0)"  stroke-width="2.0"/>
<line x1="335.9" y1="172.5" x2="361.6" y2="164.1" stroke="rgb(0,0,0)"  stroke-width="2.0"/>
<line x1="381.6" y1="170.6" x2="397.5" y2="192.5" stroke="rgb(0,0,0)"  stroke-width="2.0"/>
<line x1="103.5" y1="172.5" x2="103.5" y2="212.5" stroke="rgb(0,0,0)"  stroke-width="2.0"/>
<line x1="110.7" y1="178.5" x2="110.7" y2="206.5" stroke="rgb(0,0,0)"  stroke-width="2.0"/>
<line x1="103.5" y1="212.5" x2="129.2" y2="220.8" stroke="rgb(0,0,0)"  stroke-width="2.0"/>
<line x1="149.2" y1="214.3" x2="165.1" y2="192.5" stroke="rgb(0,0,0)"  stroke-width="2.0"/>
<line x1="165.1" y1="192.5" x2="141.6" y2="160.1" stroke="rgb(0,0,0)"  stroke-width="2.0"/>
<line x1="155.7" y1="191.9" x2="139.3" y2="169.2" stroke="rgb(0,0,0)"  stroke-width="2.0"/>
<line x1="141.6" y1="160.1" x2="103.5" y2="172.5" stroke="rgb(0,0,0)"  stroke-width="2.0"/>
<line x1="335.9" y1="212.5" x2="301.3" y2="232.5" stroke="rgb(0,0,0)"  stroke-width="2.0"/>
<line x1="301.3" y1="232.5" x2="266.6" y2="212.5" stroke="rgb(0,0,0)"  stroke-width="2.0"/>
<line x1="299.7" y1="223.3" x2="275.4" y2="209.3" stroke="rgb(0,0,0)"  stroke-width="2.0"/>
<line x1="266.6" y1="172.5" x2="301.3" y2="152.5" stroke="rgb(0,0,0)"  stroke-width="2.0"/>
<line x1="275.4" y1="175.7" x2="299.7" y2="161.7" stroke="rgb(0,0,0)"  stroke-width="2.0"/>
<line x1="301.3" y1="152.5" x2="335.9" y2="172.5" stroke="rgb(0,0,0)"  stroke-width="2.0"/>
<line x1="141.6" y1="120.1" x2="115.9" y2="111.8" stroke="rgb(0,0,0)"  stroke-width="2.0"/>
<line x1="95.9" y1="118.3" x2="80.0" y2="140.1" stroke="rgb(0,0,0)"  stroke-width="2.0"/>
<line x1="80.0" y1="140.1" x2="103.5" y2="172.5" stroke="rgb(0,0,0)"  stroke-width="2.0"/>
<line x1="141.6" y1="160.1" x2="141.6" y2="120.1" stroke="rgb(0,0,0)"  stroke-width="2.0"/>
<text x="295.259768" y="280.489413" fill="rgb(255,12,12)"  stroke="rgb(255,12,12)" stroke-width="1" font-size="16" >O</text>
<text x="135.553671" y="232.850093" fill="rgb(178,178,0)"  stroke="rgb(178,178,0)" stroke-width="1" font-size="16" >S</text>
<text x="65.150730" y="244.000823" fill="rgb(191,191,191)"  stroke="rgb(191,191,191)" stroke-width="1" font-size="16" >H</text>
<text x="34.000000" y="148.128733" fill="rgb(255,12,12)"  stroke="rgb(255,12,12)" stroke-width="1" font-size="16" >O</text>
<text x="113.915955" y="48.000000" fill="rgb(102,102,102)"  stroke="rgb(102,102,102)" stroke-width="1" font-size="16" >CH</text>
<text x="137.915955" y="51.680000" fill="rgb(102,102,102)"  stroke="rgb(102,102,102)" stroke-width="1" font-size="13" >3</text>
<text x="85.150730" y="77.725793" fill="rgb(255,12,12)"  stroke="rgb(255,12,12)" stroke-width="1" font-size="16" >O</text>
<text x="97.511410" y="115.768054" fill="rgb(12,12,255)"  stroke="rgb(12,12,255)" stroke-width="1" font-size="16" >N</text>
<text x="167.914351" y="104.617323" fill="rgb(255,12,12)"  stroke="rgb(255,12,12)" stroke-width="1" font-size="16" >O</text>
<text x="222.576491" y="232.850093" fill="rgb(178,178,0)"  stroke="rgb(178,178,0)" stroke-width="1" font-size="16" >S</text>
<text x="331.900784" y="300.489413" fill="rgb(102,102,102)"  stroke="rgb(102,102,102)" stroke-width="1" font-size="16" >CH</text>
<text x="355.900784" y="304.169413" fill="rgb(102,102,102)"  stroke="rgb(102,102,102)" stroke-width="1" font-size="13" >3</text>
<text x="380.303724" y="270.892354" fill="rgb(127,178,255)"  stroke="rgb(127,178,255)" stroke-width="1" font-size="16" >F</text>
<text x="431.454455" y="200.489413" fill="rgb(191,191,191)"  stroke="rgb(191,191,191)" stroke-width="1" font-size="16" >H</text>
<text x="367.943045" y="168.128733" fill="rgb(178,178,0)"  stroke="rgb(178,178,0)" stroke-width="1" font-size="16" >S</text>
<text x="331.900784" y="100.489413" fill="rgb(102,102,102)"  stroke="rgb(102,102,102)" stroke-width="1" font-size="16" >CH</text>
<text x="355.900784" y="104.169413" fill="rgb(102,102,102)"  stroke="rgb(102,102,102)" stroke-width="1" font-size="13" >3</text>
<text x="295.259768" y="120.489413" fill="rgb(255,12,12)"  stroke="rgb(255,12,12)" stroke-width="1" font-size="16" >O</text>
<text x="210.215811" y="130.086473" fill="rgb(127,178,255)"  stroke="rgb(127,178,255)" stroke-width="1" font-size="16" >F</text>
</svg>
</g>
<text font-size="18.000000" fill ="black" font-family="sans-serif"
x="10.000000" y="20.000000" ></text>
</svg>
