<?xml version="1.0"?>
<svg version="1.1" id="topsvg"
xmlns="http://www.w3.org/2000/svg" xmlns:xlink="http://www.w3.org/1999/xlink"
xmlns:cml="http://www.xml-cml.org/schema" x="0" y="0" width="200px" height="200px" viewBox="0 0 100 100">
<title> - Open Babel Depiction</title>
<rect x="0" y="0" width="100" height="100" fill="white"/>
<g transform="translate(0,0)">
<svg width="100" height="100" x="0" y="0" viewBox="0 0 364.455 418.765"
font-family="sans-serif" stroke="rgb(0,0,0)" stroke-width="2"  stroke-linecap="round">
<line x1="181.2" y1="143.1" x2="161.2" y2="177.7" stroke="rgb(0,0,0)"  stroke-width="2.0"/>
<line x1="121.4" y1="181.9" x2="103.3" y2="161.8" stroke="rgb(0,0,0)"  stroke-width="2.0"/>
<line x1="113.1" y1="221.0" x2="76.5" y2="237.3" stroke="rgb(0,0,0)"  stroke-width="2.0"/>
<line x1="76.5" y1="237.3" x2="51.9" y2="248.3" stroke="rgb(0,0,0)"  stroke-width="2.0"/>
<line x1="78.3" y1="241.1" x2="53.6" y2="252.1" stroke="rgb(0,0,0)"  stroke-width="2.0"/>
<line x1="74.8" y1="233.5" x2="50.2" y2="244.5" stroke="rgb(0,0,0)"  stroke-width="2.0"/>
<line x1="147.7" y1="241.0" x2="151.9" y2="280.8" stroke="rgb(0,0,0)"  stroke-width="2.0"/>
<line x1="138.4" y1="344.1" x2="124.9" y2="367.5" stroke="rgb(0,0,0)"  stroke-width="2.0"/>
<line x1="178.2" y1="339.9" x2="196.3" y2="360.0" stroke="rgb(0,0,0)"  stroke-width="2.0"/>
<line x1="186.5" y1="300.8" x2="223.1" y2="284.5" stroke="rgb(0,0,0)"  stroke-width="2.0"/>
<line x1="223.1" y1="284.5" x2="247.8" y2="273.6" stroke="rgb(0,0,0)"  stroke-width="2.0"/>
<line x1="221.4" y1="280.7" x2="246.0" y2="269.7" stroke="rgb(0,0,0)"  stroke-width="2.0"/>
<line x1="224.8" y1="288.4" x2="249.5" y2="277.4" stroke="rgb(0,0,0)"  stroke-width="2.0"/>
<line x1="258.6" y1="158.6" x2="261.4" y2="185.4" stroke="rgb(0,0,0)"  stroke-width="2.0"/>
<line x1="252.6" y1="159.2" x2="255.4" y2="186.1" stroke="rgb(0,0,0)"  stroke-width="2.0"/>
<line x1="298.0" y1="134.8" x2="311.7" y2="137.8" stroke="rgb(0,0,0)"  stroke-width="2.0"/>
<line x1="269.1" y1="95.6" x2="282.6" y2="72.2" stroke="rgb(0,0,0)"  stroke-width="2.0"/>
<line x1="191.7" y1="80.1" x2="188.8" y2="53.2" stroke="rgb(0,0,0)"  stroke-width="2.0"/>
<line x1="197.6" y1="79.5" x2="194.8" y2="52.6" stroke="rgb(0,0,0)"  stroke-width="2.0"/>
<line x1="152.2" y1="103.8" x2="138.5" y2="100.9" stroke="rgb(0,0,0)"  stroke-width="2.0"/>
<line x1="113.1" y1="221.0" x2="147.7" y2="241.0" stroke="rgb(0,0,0)"  stroke-width="2.0"/>
<line x1="121.9" y1="217.8" x2="146.1" y2="231.8" stroke="rgb(0,0,0)"  stroke-width="2.0"/>
<line x1="147.7" y1="241.0" x2="167.8" y2="223.0" stroke="rgb(0,0,0)"  stroke-width="2.0"/>
<line x1="172.2" y1="202.4" x2="161.2" y2="177.7" stroke="rgb(0,0,0)"  stroke-width="2.0"/>
<line x1="161.2" y1="177.7" x2="121.4" y2="181.9" stroke="rgb(0,0,0)"  stroke-width="2.0"/>
<line x1="156.0" y1="185.5" x2="128.1" y2="188.4" stroke="rgb(0,0,0)"  stroke-width="2.0"/>
<line x1="121.4" y1="181.9" x2="113.1" y2="221.0" stroke="rgb(0,0,0)"  stroke-width="2.0"/>
<line x1="138.4" y1="344.1" x2="178.2" y2="339.9" stroke="rgb(0,0,0)"  stroke-width="2.0"/>
<line x1="143.7" y1="336.3" x2="171.5" y2="333.4" stroke="rgb(0,0,0)"  stroke-width="2.0"/>
<line x1="178.2" y1="339.9" x2="186.5" y2="300.8" stroke="rgb(0,0,0)"  stroke-width="2.0"/>
<line x1="186.5" y1="300.8" x2="151.9" y2="280.8" stroke="rgb(0,0,0)"  stroke-width="2.0"/>
<line x1="177.8" y1="304.1" x2="153.5" y2="290.1" stroke="rgb(0,0,0)"  stroke-width="2.0"/>
<line x1="151.9" y1="280.8" x2="131.8" y2="298.9" stroke="rgb(0,0,0)"  stroke-width="2.0"/>
<line x1="127.5" y1="319.5" x2="138.4" y2="344.1" stroke="rgb(0,0,0)"  stroke-width="2.0"/>
<line x1="255.6" y1="158.9" x2="275.7" y2="140.8" stroke="rgb(0,0,0)"  stroke-width="2.0"/>
<line x1="280.0" y1="120.3" x2="269.1" y2="95.6" stroke="rgb(0,0,0)"  stroke-width="2.0"/>
<line x1="269.1" y1="95.6" x2="229.3" y2="99.8" stroke="rgb(0,0,0)"  stroke-width="2.0"/>
<line x1="263.8" y1="103.4" x2="236.0" y2="106.3" stroke="rgb(0,0,0)"  stroke-width="2.0"/>
<line x1="229.3" y1="99.8" x2="221.0" y2="138.9" stroke="rgb(0,0,0)"  stroke-width="2.0"/>
<line x1="221.0" y1="138.9" x2="255.6" y2="158.9" stroke="rgb(0,0,0)"  stroke-width="2.0"/>
<line x1="229.3" y1="99.8" x2="194.6" y2="79.8" stroke="rgb(0,0,0)"  stroke-width="2.0"/>
<line x1="194.6" y1="79.8" x2="174.6" y2="97.8" stroke="rgb(0,0,0)"  stroke-width="2.0"/>
<line x1="170.2" y1="118.4" x2="181.2" y2="143.1" stroke="rgb(0,0,0)"  stroke-width="2.0"/>
<line x1="181.2" y1="143.1" x2="221.0" y2="138.9" stroke="rgb(0,0,0)"  stroke-width="2.0"/>
<line x1="186.4" y1="135.3" x2="214.2" y2="132.4" stroke="rgb(0,0,0)"  stroke-width="2.0"/>
<text x="99.785610" y="106.229632" fill="rgb(102,102,102)"  stroke="rgb(102,102,102)" stroke-width="1" font-size="16" >H</text>
<text x="111.785610" y="109.909632" fill="rgb(102,102,102)"  stroke="rgb(102,102,102)" stroke-width="1" font-size="13" >3</text>
<text x="118.285610" y="106.229632" fill="rgb(102,102,102)"  stroke="rgb(102,102,102)" stroke-width="1" font-size="16" >C</text>
<text x="158.911514" y="114.546100" fill="rgb(12,12,255)"  stroke="rgb(12,12,255)" stroke-width="1" font-size="16" >N</text>
<text x="184.456169" y="48.000000" fill="rgb(255,12,12)"  stroke="rgb(255,12,12)" stroke-width="1" font-size="16" >O</text>
<text x="283.059199" y="68.958721" fill="rgb(191,191,191)"  stroke="rgb(191,191,191)" stroke-width="1" font-size="16" >H</text>
<text x="320.454569" y="148.458023" fill="rgb(102,102,102)"  stroke="rgb(102,102,102)" stroke-width="1" font-size="16" >CH</text>
<text x="344.454569" y="152.138023" fill="rgb(102,102,102)"  stroke="rgb(102,102,102)" stroke-width="1" font-size="13" >3</text>
<text x="279.328665" y="140.141556" fill="rgb(12,12,255)"  stroke="rgb(12,12,255)" stroke-width="1" font-size="16" >N</text>
<text x="253.784011" y="206.687656" fill="rgb(255,12,12)"  stroke="rgb(255,12,12)" stroke-width="1" font-size="16" >O</text>
<text x="253.630444" y="276.277921" fill="rgb(12,12,255)"  stroke="rgb(12,12,255)" stroke-width="1" font-size="16" >N</text>
<text x="198.995564" y="377.668550" fill="rgb(127,178,255)"  stroke="rgb(127,178,255)" stroke-width="1" font-size="16" >F</text>
<text x="112.449464" y="386.764912" fill="rgb(191,191,191)"  stroke="rgb(191,191,191)" stroke-width="1" font-size="16" >H</text>
<text x="116.179998" y="315.582077" fill="rgb(178,178,0)"  stroke="rgb(178,178,0)" stroke-width="1" font-size="16" >S</text>
<text x="171.450446" y="222.270753" fill="rgb(178,178,0)"  stroke="rgb(178,178,0)" stroke-width="1" font-size="16" >S</text>
<text x="34.000000" y="261.574909" fill="rgb(12,12,255)"  stroke="rgb(12,12,255)" stroke-width="1" font-size="16" >N</text>
<text x="88.634880" y="160.184280" fill="rgb(127,178,255)"  stroke="rgb(127,178,255)" stroke-width="1" font-size="16" >F</text>
</svg>
</g>
<text font-size="18.000000" fill ="black" font-family="sans-serif"
x="10.000000" y="20.000000" ></text>
</svg>
