<?xml version="1.0"?>
<svg version="1.1" id="topsvg"
xmlns="http://www.w3.org/2000/svg" xmlns:xlink="http://www.w3.org/1999/xlink"
xmlns:cml="http://www.xml-cml.org/schema" x="0" y="0" width="200px" height="200px" viewBox="0 0 100 100">
<title> - Open Babel Depiction</title>
<rect x="0" y="0" width="100" height="100" fill="white"/>
<g transform="translate(0,0)">
<svg width="100" height="100" x="0" y="0" viewBox="0 0 420.068 563.539"
font-family="sans-serif" stroke="rgb(0,0,0)" stroke-width="2"  stroke-linecap="round">
<line x1="212.9" y1="211.1" x2="192.0" y2="247.3" stroke="rgb(0,0,0)"  stroke-width="2.0"/>
<line x1="150.4" y1="251.7" x2="131.1" y2="230.3" stroke="rgb(0,0,0)"  stroke-width="2.0"/>
<line x1="141.7" y1="292.6" x2="103.5" y2="309.6" stroke="rgb(0,0,0)"  stroke-width="2.0"/>
<line x1="103.5" y1="309.6" x2="77.2" y2="321.3" stroke="rgb(0,0,0)"  stroke-width="2.0"/>
<line x1="105.2" y1="313.4" x2="78.9" y2="325.1" stroke="rgb(0,0,0)"  stroke-width="2.0"/>
<line x1="101.8" y1="305.7" x2="75.5" y2="317.5" stroke="rgb(0,0,0)"  stroke-width="2.0"/>
<line x1="177.9" y1="313.5" x2="182.3" y2="355.0" stroke="rgb(0,0,0)"  stroke-width="2.0"/>
<line x1="184.0" y1="357.5" x2="150.2" y2="382.0" stroke="rgb(0,0,0)"  stroke-width="2.0"/>
<line x1="180.5" y1="352.6" x2="146.7" y2="377.2" stroke="rgb(0,0,0)"  stroke-width="2.0"/>
<line x1="148.5" y1="379.6" x2="152.8" y2="421.2" stroke="rgb(0,0,0)"  stroke-width="2.0"/>
<line x1="121.8" y1="449.2" x2="80.9" y2="440.5" stroke="rgb(0,0,0)"  stroke-width="2.0"/>
<line x1="80.9" y1="440.5" x2="52.7" y2="434.5" stroke="rgb(0,0,0)"  stroke-width="2.0"/>
<line x1="80.0" y1="444.6" x2="51.8" y2="438.6" stroke="rgb(0,0,0)"  stroke-width="2.0"/>
<line x1="81.8" y1="436.4" x2="53.6" y2="430.4" stroke="rgb(0,0,0)"  stroke-width="2.0"/>
<line x1="138.8" y1="487.3" x2="124.4" y2="512.3" stroke="rgb(0,0,0)"  stroke-width="2.0"/>
<line x1="180.3" y1="483.0" x2="199.6" y2="504.4" stroke="rgb(0,0,0)"  stroke-width="2.0"/>
<line x1="320.0" y1="173.4" x2="334.4" y2="198.4" stroke="rgb(0,0,0)"  stroke-width="2.0"/>
<line x1="314.8" y1="176.4" x2="329.2" y2="201.4" stroke="rgb(0,0,0)"  stroke-width="2.0"/>
<line x1="351.3" y1="138.7" x2="367.1" y2="138.7" stroke="rgb(0,0,0)"  stroke-width="2.0"/>
<line x1="314.8" y1="101.0" x2="329.2" y2="76.1" stroke="rgb(0,0,0)"  stroke-width="2.0"/>
<line x1="320.0" y1="104.0" x2="334.4" y2="79.1" stroke="rgb(0,0,0)"  stroke-width="2.0"/>
<line x1="253.7" y1="78.9" x2="264.2" y2="52.1" stroke="rgb(0,0,0)"  stroke-width="2.0"/>
<line x1="170.6" y1="111.1" x2="156.6" y2="85.9" stroke="rgb(0,0,0)"  stroke-width="2.0"/>
<line x1="175.8" y1="108.2" x2="161.9" y2="83.0" stroke="rgb(0,0,0)"  stroke-width="2.0"/>
<line x1="142.9" y1="132.1" x2="127.3" y2="129.5" stroke="rgb(0,0,0)"  stroke-width="2.0"/>
<line x1="166.0" y1="165.6" x2="144.6" y2="184.8" stroke="rgb(0,0,0)"  stroke-width="2.0"/>
<line x1="162.0" y1="161.1" x2="140.6" y2="180.3" stroke="rgb(0,0,0)"  stroke-width="2.0"/>
<line x1="141.7" y1="292.6" x2="177.9" y2="313.5" stroke="rgb(0,0,0)"  stroke-width="2.0"/>
<line x1="150.5" y1="289.3" x2="176.3" y2="304.2" stroke="rgb(0,0,0)"  stroke-width="2.0"/>
<line x1="177.9" y1="313.5" x2="199.3" y2="294.2" stroke="rgb(0,0,0)"  stroke-width="2.0"/>
<line x1="203.7" y1="273.6" x2="192.0" y2="247.3" stroke="rgb(0,0,0)"  stroke-width="2.0"/>
<line x1="192.0" y1="247.3" x2="150.4" y2="251.7" stroke="rgb(0,0,0)"  stroke-width="2.0"/>
<line x1="186.8" y1="255.1" x2="157.1" y2="258.2" stroke="rgb(0,0,0)"  stroke-width="2.0"/>
<line x1="150.4" y1="251.7" x2="141.7" y2="292.6" stroke="rgb(0,0,0)"  stroke-width="2.0"/>
<line x1="138.8" y1="487.3" x2="180.3" y2="483.0" stroke="rgb(0,0,0)"  stroke-width="2.0"/>
<line x1="144.0" y1="479.6" x2="173.6" y2="476.4" stroke="rgb(0,0,0)"  stroke-width="2.0"/>
<line x1="180.3" y1="483.0" x2="186.3" y2="454.8" stroke="rgb(0,0,0)"  stroke-width="2.0"/>
<line x1="177.8" y1="435.6" x2="152.8" y2="421.2" stroke="rgb(0,0,0)"  stroke-width="2.0"/>
<line x1="152.8" y1="421.2" x2="121.8" y2="449.2" stroke="rgb(0,0,0)"  stroke-width="2.0"/>
<line x1="153.2" y1="430.6" x2="131.0" y2="450.5" stroke="rgb(0,0,0)"  stroke-width="2.0"/>
<line x1="121.8" y1="449.2" x2="138.8" y2="487.3" stroke="rgb(0,0,0)"  stroke-width="2.0"/>
<line x1="275.6" y1="174.9" x2="254.7" y2="138.7" stroke="rgb(0,0,0)"  stroke-width="2.0"/>
<line x1="266.3" y1="173.3" x2="251.4" y2="147.5" stroke="rgb(0,0,0)"  stroke-width="2.0"/>
<line x1="254.7" y1="138.7" x2="212.9" y2="138.7" stroke="rgb(0,0,0)"  stroke-width="2.0"/>
<line x1="212.9" y1="138.7" x2="192.0" y2="174.9" stroke="rgb(0,0,0)"  stroke-width="2.0"/>
<line x1="216.1" y1="147.5" x2="201.2" y2="173.3" stroke="rgb(0,0,0)"  stroke-width="2.0"/>
<line x1="192.0" y1="174.9" x2="212.9" y2="211.1" stroke="rgb(0,0,0)"  stroke-width="2.0"/>
<line x1="212.9" y1="211.1" x2="254.7" y2="211.1" stroke="rgb(0,0,0)"  stroke-width="2.0"/>
<line x1="218.9" y1="203.9" x2="248.7" y2="203.9" stroke="rgb(0,0,0)"  stroke-width="2.0"/>
<line x1="254.7" y1="211.1" x2="275.6" y2="174.9" stroke="rgb(0,0,0)"  stroke-width="2.0"/>
<line x1="317.4" y1="102.5" x2="275.6" y2="102.5" stroke="rgb(0,0,0)"  stroke-width="2.0"/>
<line x1="275.6" y1="102.5" x2="254.7" y2="138.7" stroke="rgb(0,0,0)"  stroke-width="2.0"/>
<line x1="275.6" y1="174.9" x2="317.4" y2="174.9" stroke="rgb(0,0,0)"  stroke-width="2.0"/>
<line x1="317.4" y1="174.9" x2="331.8" y2="150.0" stroke="rgb(0,0,0)"  stroke-width="2.0"/>
<line x1="331.8" y1="127.5" x2="317.4" y2="102.5" stroke="rgb(0,0,0)"  stroke-width="2.0"/>
<line x1="221.5" y1="81.3" x2="203.4" y2="107.9" stroke="rgb(0,0,0)"  stroke-width="2.0"/>
<line x1="224.1" y1="90.3" x2="212.7" y2="107.0" stroke="rgb(0,0,0)"  stroke-width="2.0"/>
<line x1="203.4" y1="107.9" x2="212.9" y2="138.7" stroke="rgb(0,0,0)"  stroke-width="2.0"/>
<line x1="275.6" y1="102.5" x2="253.7" y2="78.9" stroke="rgb(0,0,0)"  stroke-width="2.0"/>
<line x1="266.2" y1="103.0" x2="252.5" y2="88.2" stroke="rgb(0,0,0)"  stroke-width="2.0"/>
<line x1="253.7" y1="78.9" x2="221.5" y2="81.3" stroke="rgb(0,0,0)"  stroke-width="2.0"/>
<line x1="159.3" y1="146.8" x2="164.0" y2="163.3" stroke="rgb(0,0,0)"  stroke-width="2.0"/>
<line x1="164.0" y1="163.3" x2="192.0" y2="174.9" stroke="rgb(0,0,0)"  stroke-width="2.0"/>
<line x1="203.4" y1="107.9" x2="173.2" y2="109.6" stroke="rgb(0,0,0)"  stroke-width="2.0"/>
<line x1="173.2" y1="109.6" x2="163.2" y2="123.7" stroke="rgb(0,0,0)"  stroke-width="2.0"/>
<text x="332.268688" y="219.125059" fill="rgb(255,12,12)"  stroke="rgb(255,12,12)" stroke-width="1" font-size="16" >O</text>
<text x="332.268688" y="146.727301" fill="rgb(12,12,255)"  stroke="rgb(12,12,255)" stroke-width="1" font-size="16" >N</text>
<text x="376.067553" y="146.727301" fill="rgb(102,102,102)"  stroke="rgb(102,102,102)" stroke-width="1" font-size="16" >CH</text>
<text x="400.067553" y="150.407301" fill="rgb(102,102,102)"  stroke="rgb(102,102,102)" stroke-width="1" font-size="13" >3</text>
<text x="332.268688" y="74.329543" fill="rgb(255,12,12)"  stroke="rgb(255,12,12)" stroke-width="1" font-size="16" >O</text>
<text x="262.926042" y="48.000000" fill="rgb(191,191,191)"  stroke="rgb(191,191,191)" stroke-width="1" font-size="16" >H</text>
<text x="146.973236" y="81.035797" fill="rgb(255,12,12)"  stroke="rgb(255,12,12)" stroke-width="1" font-size="16" >O</text>
<text x="149.674052" y="142.283361" fill="rgb(12,12,255)"  stroke="rgb(12,12,255)" stroke-width="1" font-size="16" >N</text>
<text x="88.467875" y="135.269366" fill="rgb(102,102,102)"  stroke="rgb(102,102,102)" stroke-width="1" font-size="16" >H</text>
<text x="100.467875" y="138.949366" fill="rgb(102,102,102)"  stroke="rgb(102,102,102)" stroke-width="1" font-size="13" >3</text>
<text x="106.967875" y="135.269366" fill="rgb(102,102,102)"  stroke="rgb(102,102,102)" stroke-width="1" font-size="16" >C</text>
<text x="126.861688" y="199.188147" fill="rgb(255,12,12)"  stroke="rgb(255,12,12)" stroke-width="1" font-size="16" >O</text>
<text x="104.433873" y="228.630499" fill="rgb(30,239,30)"  stroke="rgb(30,239,30)" stroke-width="1" font-size="16" >Cl</text>
<text x="59.341974" y="334.580830" fill="rgb(12,12,255)"  stroke="rgb(12,12,255)" stroke-width="1" font-size="16" >N</text>
<text x="202.973790" y="293.509102" fill="rgb(178,178,0)"  stroke="rgb(178,178,0)" stroke-width="1" font-size="16" >S</text>
<text x="34.000000" y="439.774486" fill="rgb(12,12,255)"  stroke="rgb(12,12,255)" stroke-width="1" font-size="16" >N</text>
<text x="99.872617" y="531.539474" fill="rgb(30,239,30)"  stroke="rgb(30,239,30)" stroke-width="1" font-size="16" >Cl</text>
<text x="202.310836" y="522.034034" fill="rgb(191,191,191)"  stroke="rgb(191,191,191)" stroke-width="1" font-size="16" >H</text>
<text x="183.032409" y="450.085964" fill="rgb(178,178,0)"  stroke="rgb(178,178,0)" stroke-width="1" font-size="16" >S</text>
</svg>
</g>
<text font-size="18.000000" fill ="black" font-family="sans-serif"
x="10.000000" y="20.000000" ></text>
</svg>
