<?xml version="1.0"?>
<svg version="1.1" id="topsvg"
xmlns="http://www.w3.org/2000/svg" xmlns:xlink="http://www.w3.org/1999/xlink"
xmlns:cml="http://www.xml-cml.org/schema" x="0" y="0" width="200px" height="200px" viewBox="0 0 100 100">
<title> - Open Babel Depiction</title>
<rect x="0" y="0" width="100" height="100" fill="white"/>
<g transform="translate(0,0)">
<svg width="100" height="100" x="0" y="0" viewBox="0 0 404.541 360"
font-family="sans-serif" stroke="rgb(0,0,0)" stroke-width="2"  stroke-linecap="round">
<line x1="226.0" y1="140.0" x2="260.6" y2="160.0" stroke="rgb(0,0,0)"  stroke-width="2.0"/>
<line x1="295.3" y1="220.0" x2="295.3" y2="260.0" stroke="rgb(0,0,0)"  stroke-width="2.0"/>
<line x1="296.8" y1="257.4" x2="320.1" y2="270.9" stroke="rgb(0,0,0)"  stroke-width="2.0"/>
<line x1="293.8" y1="262.6" x2="317.1" y2="276.1" stroke="rgb(0,0,0)"  stroke-width="2.0"/>
<line x1="295.3" y1="260.0" x2="271.9" y2="273.5" stroke="rgb(0,0,0)"  stroke-width="2.0"/>
<line x1="260.6" y1="293.0" x2="260.6" y2="307.0" stroke="rgb(0,0,0)"  stroke-width="2.0"/>
<line x1="329.9" y1="200.0" x2="353.3" y2="213.5" stroke="rgb(0,0,0)"  stroke-width="2.0"/>
<line x1="295.3" y1="140.0" x2="295.3" y2="100.0" stroke="rgb(0,0,0)"  stroke-width="2.0"/>
<line x1="293.8" y1="102.6" x2="270.4" y2="89.1" stroke="rgb(0,0,0)"  stroke-width="2.0"/>
<line x1="296.8" y1="97.4" x2="273.4" y2="83.9" stroke="rgb(0,0,0)"  stroke-width="2.0"/>
<line x1="295.3" y1="100.0" x2="318.6" y2="86.5" stroke="rgb(0,0,0)"  stroke-width="2.0"/>
<line x1="329.9" y1="67.0" x2="329.9" y2="53.0" stroke="rgb(0,0,0)"  stroke-width="2.0"/>
<line x1="179.3" y1="192.3" x2="197.4" y2="212.4" stroke="rgb(0,0,0)"  stroke-width="2.0"/>
<line x1="174.8" y1="196.3" x2="192.9" y2="216.4" stroke="rgb(0,0,0)"  stroke-width="2.0"/>
<line x1="117.9" y1="237.3" x2="128.9" y2="261.9" stroke="rgb(0,0,0)"  stroke-width="2.0"/>
<line x1="74.6" y1="189.2" x2="51.3" y2="175.7" stroke="rgb(0,0,0)"  stroke-width="2.0"/>
<line x1="121.3" y1="136.9" x2="103.2" y2="116.8" stroke="rgb(0,0,0)"  stroke-width="2.0"/>
<line x1="125.8" y1="132.9" x2="107.7" y2="112.8" stroke="rgb(0,0,0)"  stroke-width="2.0"/>
<line x1="182.7" y1="91.9" x2="171.7" y2="67.2" stroke="rgb(0,0,0)"  stroke-width="2.0"/>
<line x1="77.5" y1="216.0" x2="74.6" y2="189.2" stroke="rgb(0,0,0)"  stroke-width="2.0"/>
<line x1="74.6" y1="189.2" x2="111.2" y2="172.9" stroke="rgb(0,0,0)"  stroke-width="2.0"/>
<line x1="83.1" y1="193.3" x2="108.6" y2="181.9" stroke="rgb(0,0,0)"  stroke-width="2.0"/>
<line x1="111.2" y1="172.9" x2="137.9" y2="202.6" stroke="rgb(0,0,0)"  stroke-width="2.0"/>
<line x1="137.9" y1="202.6" x2="117.9" y2="237.3" stroke="rgb(0,0,0)"  stroke-width="2.0"/>
<line x1="128.7" y1="204.2" x2="114.7" y2="228.5" stroke="rgb(0,0,0)"  stroke-width="2.0"/>
<line x1="117.9" y1="237.3" x2="91.5" y2="231.7" stroke="rgb(0,0,0)"  stroke-width="2.0"/>
<line x1="162.7" y1="126.5" x2="182.7" y2="91.9" stroke="rgb(0,0,0)"  stroke-width="2.0"/>
<line x1="171.9" y1="124.9" x2="185.9" y2="100.7" stroke="rgb(0,0,0)"  stroke-width="2.0"/>
<line x1="182.7" y1="91.9" x2="209.1" y2="97.5" stroke="rgb(0,0,0)"  stroke-width="2.0"/>
<line x1="223.2" y1="113.1" x2="226.0" y2="140.0" stroke="rgb(0,0,0)"  stroke-width="2.0"/>
<line x1="226.0" y1="140.0" x2="189.4" y2="156.3" stroke="rgb(0,0,0)"  stroke-width="2.0"/>
<line x1="217.6" y1="135.9" x2="192.0" y2="147.3" stroke="rgb(0,0,0)"  stroke-width="2.0"/>
<line x1="189.4" y1="156.3" x2="162.7" y2="126.5" stroke="rgb(0,0,0)"  stroke-width="2.0"/>
<line x1="295.3" y1="220.0" x2="329.9" y2="200.0" stroke="rgb(0,0,0)"  stroke-width="2.0"/>
<line x1="296.9" y1="210.8" x2="321.1" y2="196.8" stroke="rgb(0,0,0)"  stroke-width="2.0"/>
<line x1="329.9" y1="200.0" x2="329.9" y2="160.0" stroke="rgb(0,0,0)"  stroke-width="2.0"/>
<line x1="329.9" y1="160.0" x2="295.3" y2="140.0" stroke="rgb(0,0,0)"  stroke-width="2.0"/>
<line x1="321.1" y1="163.2" x2="296.9" y2="149.2" stroke="rgb(0,0,0)"  stroke-width="2.0"/>
<line x1="295.3" y1="140.0" x2="260.6" y2="160.0" stroke="rgb(0,0,0)"  stroke-width="2.0"/>
<line x1="260.6" y1="160.0" x2="260.6" y2="200.0" stroke="rgb(0,0,0)"  stroke-width="2.0"/>
<line x1="267.8" y1="166.0" x2="267.8" y2="194.0" stroke="rgb(0,0,0)"  stroke-width="2.0"/>
<line x1="260.6" y1="200.0" x2="295.3" y2="220.0" stroke="rgb(0,0,0)"  stroke-width="2.0"/>
<line x1="177.1" y1="194.3" x2="137.9" y2="202.6" stroke="rgb(0,0,0)"  stroke-width="2.0"/>
<line x1="111.2" y1="172.9" x2="123.5" y2="134.9" stroke="rgb(0,0,0)"  stroke-width="2.0"/>
<line x1="123.5" y1="134.9" x2="162.7" y2="126.5" stroke="rgb(0,0,0)"  stroke-width="2.0"/>
<line x1="189.4" y1="156.3" x2="177.1" y2="194.3" stroke="rgb(0,0,0)"  stroke-width="2.0"/>
<text x="215.795322" y="108.219124" fill="rgb(178,178,0)"  stroke="rgb(178,178,0)" stroke-width="1" font-size="16" >S</text>
<text x="160.399953" y="63.360838" fill="rgb(191,191,191)"  stroke="rgb(191,191,191)" stroke-width="1" font-size="16" >H</text>
<text x="90.778290" y="113.134347" fill="rgb(255,12,12)"  stroke="rgb(255,12,12)" stroke-width="1" font-size="16" >O</text>
<text x="34.000000" y="177.171867" fill="rgb(191,191,191)"  stroke="rgb(191,191,191)" stroke-width="1" font-size="16" >H</text>
<text x="72.822155" y="236.952743" fill="rgb(178,178,0)"  stroke="rgb(178,178,0)" stroke-width="1" font-size="16" >S</text>
<text x="128.217524" y="281.811028" fill="rgb(191,191,191)"  stroke="rgb(191,191,191)" stroke-width="1" font-size="16" >H</text>
<text x="197.839187" y="232.037519" fill="rgb(255,12,12)"  stroke="rgb(255,12,12)" stroke-width="1" font-size="16" >O</text>
<text x="325.899509" y="48.000000" fill="rgb(102,102,102)"  stroke="rgb(102,102,102)" stroke-width="1" font-size="16" >CH</text>
<text x="349.899509" y="51.680000" fill="rgb(102,102,102)"  stroke="rgb(102,102,102)" stroke-width="1" font-size="13" >3</text>
<text x="323.899509" y="88.000000" fill="rgb(255,12,12)"  stroke="rgb(255,12,12)" stroke-width="1" font-size="16" >O</text>
<text x="254.617477" y="88.000000" fill="rgb(255,12,12)"  stroke="rgb(255,12,12)" stroke-width="1" font-size="16" >O</text>
<text x="358.540525" y="228.000000" fill="rgb(191,191,191)"  stroke="rgb(191,191,191)" stroke-width="1" font-size="16" >H</text>
<text x="256.617477" y="328.000000" fill="rgb(102,102,102)"  stroke="rgb(102,102,102)" stroke-width="1" font-size="16" >CH</text>
<text x="280.617477" y="331.680000" fill="rgb(102,102,102)"  stroke="rgb(102,102,102)" stroke-width="1" font-size="13" >3</text>
<text x="254.617477" y="288.000000" fill="rgb(255,12,12)"  stroke="rgb(255,12,12)" stroke-width="1" font-size="16" >O</text>
<text x="323.899509" y="288.000000" fill="rgb(255,12,12)"  stroke="rgb(255,12,12)" stroke-width="1" font-size="16" >O</text>
</svg>
</g>
<text font-size="18.000000" fill ="black" font-family="sans-serif"
x="10.000000" y="20.000000" ></text>
</svg>
