<?xml version="1.0"?>
<svg version="1.1" id="topsvg"
xmlns="http://www.w3.org/2000/svg" xmlns:xlink="http://www.w3.org/1999/xlink"
xmlns:cml="http://www.xml-cml.org/schema" x="0" y="0" width="200px" height="200px" viewBox="0 0 100 100">
<title> - Open Babel Depiction</title>
<rect x="0" y="0" width="100" height="100" fill="white"/>
<g transform="translate(0,0)">
<svg width="100" height="100" x="0" y="0" viewBox="0 0 572.77 338.973"
font-family="sans-serif" stroke="rgb(0,0,0)" stroke-width="2"  stroke-linecap="round">
<line x1="246.2" y1="133.0" x2="287.0" y2="124.3" stroke="rgb(0,0,0)"  stroke-width="2.0"/>
<line x1="389.5" y1="171.2" x2="403.8" y2="196.1" stroke="rgb(0,0,0)"  stroke-width="2.0"/>
<line x1="423.3" y1="207.3" x2="439.1" y2="207.3" stroke="rgb(0,0,0)"  stroke-width="2.0"/>
<line x1="389.5" y1="171.2" x2="375.1" y2="196.1" stroke="rgb(0,0,0)"  stroke-width="2.0"/>
<line x1="355.6" y1="207.3" x2="339.9" y2="207.3" stroke="rgb(0,0,0)"  stroke-width="2.0"/>
<line x1="492.0" y1="124.3" x2="520.1" y2="130.3" stroke="rgb(0,0,0)"  stroke-width="2.0"/>
<line x1="146.7" y1="78.8" x2="155.6" y2="51.4" stroke="rgb(0,0,0)"  stroke-width="2.0"/>
<line x1="152.4" y1="80.6" x2="161.3" y2="53.3" stroke="rgb(0,0,0)"  stroke-width="2.0"/>
<line x1="100.0" y1="78.7" x2="89.5" y2="67.0" stroke="rgb(0,0,0)"  stroke-width="2.0"/>
<line x1="68.1" y1="60.1" x2="52.7" y2="63.3" stroke="rgb(0,0,0)"  stroke-width="2.0"/>
<line x1="96.5" y1="131.0" x2="68.4" y2="136.9" stroke="rgb(0,0,0)"  stroke-width="2.0"/>
<line x1="95.2" y1="125.1" x2="67.1" y2="131.1" stroke="rgb(0,0,0)"  stroke-width="2.0"/>
<line x1="120.9" y1="191.1" x2="94.0" y2="201.2" stroke="rgb(0,0,0)"  stroke-width="2.0"/>
<line x1="200.2" y1="231.2" x2="190.8" y2="258.4" stroke="rgb(0,0,0)"  stroke-width="2.0"/>
<line x1="194.6" y1="229.3" x2="185.2" y2="256.4" stroke="rgb(0,0,0)"  stroke-width="2.0"/>
<line x1="234.3" y1="237.8" x2="242.8" y2="251.0" stroke="rgb(0,0,0)"  stroke-width="2.0"/>
<line x1="243.7" y1="273.5" x2="236.4" y2="287.5" stroke="rgb(0,0,0)"  stroke-width="2.0"/>
<line x1="243.7" y1="198.2" x2="272.2" y2="201.3" stroke="rgb(0,0,0)"  stroke-width="2.0"/>
<line x1="243.0" y1="204.1" x2="271.6" y2="207.3" stroke="rgb(0,0,0)"  stroke-width="2.0"/>
<line x1="355.7" y1="146.7" x2="368.6" y2="107.0" stroke="rgb(0,0,0)"  stroke-width="2.0"/>
<line x1="350.7" y1="138.7" x2="359.9" y2="110.5" stroke="rgb(0,0,0)"  stroke-width="2.0"/>
<line x1="368.6" y1="107.0" x2="340.7" y2="76.0" stroke="rgb(0,0,0)"  stroke-width="2.0"/>
<line x1="340.7" y1="76.0" x2="299.9" y2="84.7" stroke="rgb(0,0,0)"  stroke-width="2.0"/>
<line x1="336.3" y1="84.3" x2="307.3" y2="90.5" stroke="rgb(0,0,0)"  stroke-width="2.0"/>
<line x1="299.9" y1="84.7" x2="287.0" y2="124.3" stroke="rgb(0,0,0)"  stroke-width="2.0"/>
<line x1="287.0" y1="124.3" x2="314.9" y2="155.3" stroke="rgb(0,0,0)"  stroke-width="2.0"/>
<line x1="296.4" y1="124.0" x2="316.2" y2="146.1" stroke="rgb(0,0,0)"  stroke-width="2.0"/>
<line x1="314.9" y1="155.3" x2="355.7" y2="146.7" stroke="rgb(0,0,0)"  stroke-width="2.0"/>
<line x1="464.0" y1="155.3" x2="423.2" y2="146.7" stroke="rgb(0,0,0)"  stroke-width="2.0"/>
<line x1="459.7" y1="147.1" x2="430.6" y2="140.9" stroke="rgb(0,0,0)"  stroke-width="2.0"/>
<line x1="423.2" y1="146.7" x2="410.3" y2="107.0" stroke="rgb(0,0,0)"  stroke-width="2.0"/>
<line x1="410.3" y1="107.0" x2="438.3" y2="76.0" stroke="rgb(0,0,0)"  stroke-width="2.0"/>
<line x1="419.7" y1="107.4" x2="439.6" y2="85.3" stroke="rgb(0,0,0)"  stroke-width="2.0"/>
<line x1="438.3" y1="76.0" x2="479.1" y2="84.7" stroke="rgb(0,0,0)"  stroke-width="2.0"/>
<line x1="479.1" y1="84.7" x2="492.0" y2="124.3" stroke="rgb(0,0,0)"  stroke-width="2.0"/>
<line x1="474.1" y1="92.6" x2="483.3" y2="120.9" stroke="rgb(0,0,0)"  stroke-width="2.0"/>
<line x1="492.0" y1="124.3" x2="464.0" y2="155.3" stroke="rgb(0,0,0)"  stroke-width="2.0"/>
<line x1="177.5" y1="110.7" x2="164.6" y2="150.4" stroke="rgb(0,0,0)"  stroke-width="2.0"/>
<line x1="182.4" y1="118.6" x2="173.3" y2="146.9" stroke="rgb(0,0,0)"  stroke-width="2.0"/>
<line x1="164.6" y1="150.4" x2="192.5" y2="181.4" stroke="rgb(0,0,0)"  stroke-width="2.0"/>
<line x1="192.5" y1="181.4" x2="233.3" y2="172.7" stroke="rgb(0,0,0)"  stroke-width="2.0"/>
<line x1="196.9" y1="173.1" x2="225.9" y2="166.9" stroke="rgb(0,0,0)"  stroke-width="2.0"/>
<line x1="233.3" y1="172.7" x2="246.2" y2="133.0" stroke="rgb(0,0,0)"  stroke-width="2.0"/>
<line x1="246.2" y1="133.0" x2="218.3" y2="102.0" stroke="rgb(0,0,0)"  stroke-width="2.0"/>
<line x1="236.8" y1="133.4" x2="216.9" y2="111.3" stroke="rgb(0,0,0)"  stroke-width="2.0"/>
<line x1="218.3" y1="102.0" x2="177.5" y2="110.7" stroke="rgb(0,0,0)"  stroke-width="2.0"/>
<line x1="95.8" y1="128.0" x2="123.8" y2="159.0" stroke="rgb(0,0,0)"  stroke-width="2.0"/>
<line x1="123.8" y1="159.0" x2="164.6" y2="150.4" stroke="rgb(0,0,0)"  stroke-width="2.0"/>
<line x1="177.5" y1="110.7" x2="149.5" y2="79.7" stroke="rgb(0,0,0)"  stroke-width="2.0"/>
<line x1="149.5" y1="79.7" x2="121.4" y2="85.7" stroke="rgb(0,0,0)"  stroke-width="2.0"/>
<line x1="104.7" y1="100.7" x2="95.8" y2="128.0" stroke="rgb(0,0,0)"  stroke-width="2.0"/>
<line x1="144.1" y1="213.3" x2="176.0" y2="209.0" stroke="rgb(0,0,0)"  stroke-width="2.0"/>
<line x1="149.1" y1="205.4" x2="169.1" y2="202.7" stroke="rgb(0,0,0)"  stroke-width="2.0"/>
<line x1="176.0" y1="209.0" x2="192.5" y2="181.4" stroke="rgb(0,0,0)"  stroke-width="2.0"/>
<line x1="123.8" y1="159.0" x2="120.9" y2="191.1" stroke="rgb(0,0,0)"  stroke-width="2.0"/>
<line x1="130.4" y1="165.7" x2="128.6" y2="185.7" stroke="rgb(0,0,0)"  stroke-width="2.0"/>
<line x1="120.9" y1="191.1" x2="144.1" y2="213.3" stroke="rgb(0,0,0)"  stroke-width="2.0"/>
<line x1="234.3" y1="215.7" x2="243.4" y2="201.2" stroke="rgb(0,0,0)"  stroke-width="2.0"/>
<line x1="243.4" y1="201.2" x2="233.3" y2="172.7" stroke="rgb(0,0,0)"  stroke-width="2.0"/>
<line x1="176.0" y1="209.0" x2="197.4" y2="230.3" stroke="rgb(0,0,0)"  stroke-width="2.0"/>
<line x1="197.4" y1="230.3" x2="214.5" y2="228.3" stroke="rgb(0,0,0)"  stroke-width="2.0"/>
<line x1="410.3" y1="107.0" x2="368.6" y2="107.0" stroke="rgb(0,0,0)"  stroke-width="2.0"/>
<line x1="355.7" y1="146.7" x2="389.5" y2="171.2" stroke="rgb(0,0,0)"  stroke-width="2.0"/>
<line x1="389.5" y1="171.2" x2="423.2" y2="146.7" stroke="rgb(0,0,0)"  stroke-width="2.0"/>
<text x="156.431646" y="48.000000" fill="rgb(255,12,12)"  stroke="rgb(255,12,12)" stroke-width="1" font-size="16" >O</text>
<text x="102.728204" y="96.354797" fill="rgb(12,12,255)"  stroke="rgb(12,12,255)" stroke-width="1" font-size="16" >N</text>
<text x="74.810549" y="65.349100" fill="rgb(255,12,12)"  stroke="rgb(255,12,12)" stroke-width="1" font-size="16" >O</text>
<text x="14.000000" y="74.023650" fill="rgb(102,102,102)"  stroke="rgb(102,102,102)" stroke-width="1" font-size="16" >H</text>
<text x="26.000000" y="77.703650" fill="rgb(102,102,102)"  stroke="rgb(102,102,102)" stroke-width="1" font-size="13" >3</text>
<text x="32.500000" y="74.023650" fill="rgb(102,102,102)"  stroke="rgb(102,102,102)" stroke-width="1" font-size="16" >C</text>
<text x="49.024761" y="144.709594" fill="rgb(255,12,12)"  stroke="rgb(255,12,12)" stroke-width="1" font-size="16" >O</text>
<text x="75.808221" y="213.732429" fill="rgb(191,191,191)"  stroke="rgb(191,191,191)" stroke-width="1" font-size="16" >H</text>
<text x="177.759036" y="277.679514" fill="rgb(255,12,12)"  stroke="rgb(255,12,12)" stroke-width="1" font-size="16" >O</text>
<text x="221.387564" y="234.768563" fill="rgb(12,12,255)"  stroke="rgb(12,12,255)" stroke-width="1" font-size="16" >N</text>
<text x="243.706496" y="270.019293" fill="rgb(255,12,12)"  stroke="rgb(255,12,12)" stroke-width="1" font-size="16" >O</text>
<text x="204.337934" y="306.973420" fill="rgb(102,102,102)"  stroke="rgb(102,102,102)" stroke-width="1" font-size="16" >H</text>
<text x="216.337934" y="310.653420" fill="rgb(102,102,102)"  stroke="rgb(102,102,102)" stroke-width="1" font-size="13" >3</text>
<text x="222.837934" y="306.973420" fill="rgb(102,102,102)"  stroke="rgb(102,102,102)" stroke-width="1" font-size="16" >C</text>
<text x="278.835063" y="213.683423" fill="rgb(255,12,12)"  stroke="rgb(255,12,12)" stroke-width="1" font-size="16" >O</text>
<text x="404.338538" y="215.329985" fill="rgb(255,12,12)"  stroke="rgb(255,12,12)" stroke-width="1" font-size="16" >O</text>
<text x="448.060819" y="215.329985" fill="rgb(102,102,102)"  stroke="rgb(102,102,102)" stroke-width="1" font-size="16" >CH</text>
<text x="472.060819" y="219.009985" fill="rgb(102,102,102)"  stroke="rgb(102,102,102)" stroke-width="1" font-size="13" >3</text>
<text x="362.616258" y="215.329985" fill="rgb(255,12,12)"  stroke="rgb(255,12,12)" stroke-width="1" font-size="16" >O</text>
<text x="300.893977" y="215.329985" fill="rgb(102,102,102)"  stroke="rgb(102,102,102)" stroke-width="1" font-size="16" >H</text>
<text x="312.893977" y="219.009985" fill="rgb(102,102,102)"  stroke="rgb(102,102,102)" stroke-width="1" font-size="13" >3</text>
<text x="319.393977" y="215.329985" fill="rgb(102,102,102)"  stroke="rgb(102,102,102)" stroke-width="1" font-size="16" >C</text>
<text x="526.770185" y="141.017091" fill="rgb(191,191,191)"  stroke="rgb(191,191,191)" stroke-width="1" font-size="16" >H</text>
</svg>
</g>
<text font-size="18.000000" fill ="black" font-family="sans-serif"
x="10.000000" y="20.000000" ></text>
</svg>
