<?xml version="1.0"?>
<svg version="1.1" id="topsvg"
xmlns="http://www.w3.org/2000/svg" xmlns:xlink="http://www.w3.org/1999/xlink"
xmlns:cml="http://www.xml-cml.org/schema" x="0" y="0" width="200px" height="200px" viewBox="0 0 100 100">
<title> - Open Babel Depiction</title>
<rect x="0" y="0" width="100" height="100" fill="white"/>
<g transform="translate(0,0)">
<svg width="100" height="100" x="0" y="0" viewBox="0 0 435.468 284.317"
font-family="sans-serif" stroke="rgb(0,0,0)" stroke-width="2"  stroke-linecap="round">
<line x1="160.0" y1="110.4" x2="200.0" y2="110.4" stroke="rgb(0,0,0)"  stroke-width="2.0"/>
<line x1="223.5" y1="78.0" x2="215.2" y2="52.4" stroke="rgb(0,0,0)"  stroke-width="2.0"/>
<line x1="261.6" y1="90.4" x2="283.4" y2="74.5" stroke="rgb(0,0,0)"  stroke-width="2.0"/>
<line x1="261.6" y1="130.4" x2="293.9" y2="153.9" stroke="rgb(0,0,0)"  stroke-width="2.0"/>
<line x1="355.5" y1="173.9" x2="382.5" y2="173.9" stroke="rgb(0,0,0)"  stroke-width="2.0"/>
<line x1="332.0" y1="206.3" x2="340.3" y2="232.0" stroke="rgb(0,0,0)"  stroke-width="2.0"/>
<line x1="293.9" y1="193.9" x2="272.1" y2="209.8" stroke="rgb(0,0,0)"  stroke-width="2.0"/>
<line x1="80.0" y1="110.4" x2="53.0" y2="110.4" stroke="rgb(0,0,0)"  stroke-width="2.0"/>
<line x1="100.0" y1="75.8" x2="86.5" y2="52.4" stroke="rgb(0,0,0)"  stroke-width="2.0"/>
<line x1="140.0" y1="75.8" x2="153.5" y2="52.4" stroke="rgb(0,0,0)"  stroke-width="2.0"/>
<line x1="261.6" y1="90.4" x2="261.6" y2="130.4" stroke="rgb(0,0,0)"  stroke-width="2.0"/>
<line x1="254.4" y1="96.4" x2="254.4" y2="124.4" stroke="rgb(0,0,0)"  stroke-width="2.0"/>
<line x1="261.6" y1="130.4" x2="235.9" y2="138.7" stroke="rgb(0,0,0)"  stroke-width="2.0"/>
<line x1="215.9" y1="132.2" x2="200.0" y2="110.4" stroke="rgb(0,0,0)"  stroke-width="2.0"/>
<line x1="200.0" y1="110.4" x2="223.5" y2="78.0" stroke="rgb(0,0,0)"  stroke-width="2.0"/>
<line x1="209.4" y1="109.8" x2="225.8" y2="87.1" stroke="rgb(0,0,0)"  stroke-width="2.0"/>
<line x1="223.5" y1="78.0" x2="261.6" y2="90.4" stroke="rgb(0,0,0)"  stroke-width="2.0"/>
<line x1="355.5" y1="173.9" x2="332.0" y2="206.3" stroke="rgb(0,0,0)"  stroke-width="2.0"/>
<line x1="346.1" y1="174.5" x2="329.7" y2="197.2" stroke="rgb(0,0,0)"  stroke-width="2.0"/>
<line x1="332.0" y1="206.3" x2="293.9" y2="193.9" stroke="rgb(0,0,0)"  stroke-width="2.0"/>
<line x1="293.9" y1="193.9" x2="293.9" y2="153.9" stroke="rgb(0,0,0)"  stroke-width="2.0"/>
<line x1="301.1" y1="187.9" x2="301.1" y2="159.9" stroke="rgb(0,0,0)"  stroke-width="2.0"/>
<line x1="293.9" y1="153.9" x2="319.6" y2="145.6" stroke="rgb(0,0,0)"  stroke-width="2.0"/>
<line x1="339.6" y1="152.1" x2="355.5" y2="173.9" stroke="rgb(0,0,0)"  stroke-width="2.0"/>
<line x1="141.8" y1="190.7" x2="130.5" y2="199.0" stroke="rgb(0,0,0)"  stroke-width="2.0"/>
<line x1="109.5" y1="199.0" x2="98.2" y2="190.7" stroke="rgb(0,0,0)"  stroke-width="2.0"/>
<line x1="91.7" y1="170.5" x2="100.0" y2="145.0" stroke="rgb(0,0,0)"  stroke-width="2.0"/>
<line x1="99.2" y1="170.9" x2="105.0" y2="153.0" stroke="rgb(0,0,0)"  stroke-width="2.0"/>
<line x1="100.0" y1="145.0" x2="140.0" y2="145.0" stroke="rgb(0,0,0)"  stroke-width="2.0"/>
<line x1="140.0" y1="145.0" x2="148.3" y2="170.5" stroke="rgb(0,0,0)"  stroke-width="2.0"/>
<line x1="135.0" y1="153.0" x2="140.8" y2="170.9" stroke="rgb(0,0,0)"  stroke-width="2.0"/>
<line x1="100.0" y1="145.0" x2="80.0" y2="110.4" stroke="rgb(0,0,0)"  stroke-width="2.0"/>
<line x1="80.0" y1="110.4" x2="100.0" y2="75.8" stroke="rgb(0,0,0)"  stroke-width="2.0"/>
<line x1="89.2" y1="108.8" x2="103.2" y2="84.6" stroke="rgb(0,0,0)"  stroke-width="2.0"/>
<line x1="100.0" y1="75.8" x2="140.0" y2="75.8" stroke="rgb(0,0,0)"  stroke-width="2.0"/>
<line x1="140.0" y1="75.8" x2="160.0" y2="110.4" stroke="rgb(0,0,0)"  stroke-width="2.0"/>
<line x1="136.8" y1="84.6" x2="150.8" y2="108.8" stroke="rgb(0,0,0)"  stroke-width="2.0"/>
<line x1="160.0" y1="110.4" x2="140.0" y2="145.0" stroke="rgb(0,0,0)"  stroke-width="2.0"/>
<text x="338.317291" y="252.317291" fill="rgb(127,178,255)"  stroke="rgb(127,178,255)" stroke-width="1" font-size="16" >F</text>
<text x="154.000000" y="49.120908" fill="rgb(30,239,30)"  stroke="rgb(30,239,30)" stroke-width="1" font-size="16" >Cl</text>
<text x="62.000000" y="49.120908" fill="rgb(30,239,30)"  stroke="rgb(30,239,30)" stroke-width="1" font-size="16" >Cl</text>
<text x="34.000000" y="118.402940" fill="rgb(191,191,191)"  stroke="rgb(191,191,191)" stroke-width="1" font-size="16" >H</text>
<text x="81.639320" y="191.086217" fill="rgb(12,12,255)"  stroke="rgb(12,12,255)" stroke-width="1" font-size="16" >N</text>
<text x="114.000000" y="214.597627" fill="rgb(178,178,0)"  stroke="rgb(178,178,0)" stroke-width="1" font-size="16" >S</text>
<text x="146.360680" y="191.086217" fill="rgb(12,12,255)"  stroke="rgb(12,12,255)" stroke-width="1" font-size="16" >N</text>
<text x="255.553671" y="225.425761" fill="rgb(127,178,255)"  stroke="rgb(127,178,255)" stroke-width="1" font-size="16" >F</text>
<text x="389.468021" y="181.914351" fill="rgb(191,191,191)"  stroke="rgb(191,191,191)" stroke-width="1" font-size="16" >H</text>
<text x="325.956611" y="149.553671" fill="rgb(178,178,0)"  stroke="rgb(178,178,0)" stroke-width="1" font-size="16" >S</text>
<text x="217.511410" y="150.763620" fill="rgb(178,178,0)"  stroke="rgb(178,178,0)" stroke-width="1" font-size="16" >S</text>
<text x="287.914351" y="74.891530" fill="rgb(127,178,255)"  stroke="rgb(127,178,255)" stroke-width="1" font-size="16" >F</text>
<text x="205.150730" y="48.000000" fill="rgb(127,178,255)"  stroke="rgb(127,178,255)" stroke-width="1" font-size="16" >F</text>
</svg>
</g>
<text font-size="18.000000" fill ="black" font-family="sans-serif"
x="10.000000" y="20.000000" ></text>
</svg>
