<?xml version="1.0"?>
<svg version="1.1" id="topsvg"
xmlns="http://www.w3.org/2000/svg" xmlns:xlink="http://www.w3.org/1999/xlink"
xmlns:cml="http://www.xml-cml.org/schema" x="0" y="0" width="200px" height="200px" viewBox="0 0 100 100">
<title> - Open Babel Depiction</title>
<rect x="0" y="0" width="100" height="100" fill="white"/>
<g transform="translate(0,0)">
<svg width="100" height="100" x="0" y="0" viewBox="0 0 347.949 308.166"
font-family="sans-serif" stroke="rgb(0,0,0)" stroke-width="2"  stroke-linecap="round">
<line x1="196.5" y1="132.7" x2="157.4" y2="124.4" stroke="rgb(0,0,0)"  stroke-width="2.0"/>
<line x1="105.9" y1="78.0" x2="97.5" y2="52.4" stroke="rgb(0,0,0)"  stroke-width="2.0"/>
<line x1="79.1" y1="107.8" x2="52.7" y2="102.2" stroke="rgb(0,0,0)"  stroke-width="2.0"/>
<line x1="130.6" y1="154.1" x2="139.0" y2="179.8" stroke="rgb(0,0,0)"  stroke-width="2.0"/>
<line x1="205.7" y1="211.1" x2="181.0" y2="222.1" stroke="rgb(0,0,0)"  stroke-width="2.0"/>
<line x1="203.2" y1="205.6" x2="178.6" y2="216.6" stroke="rgb(0,0,0)"  stroke-width="2.0"/>
<line x1="240.5" y1="241.3" x2="241.9" y2="255.2" stroke="rgb(0,0,0)"  stroke-width="2.0"/>
<line x1="269.4" y1="198.7" x2="295.9" y2="204.3" stroke="rgb(0,0,0)"  stroke-width="2.0"/>
<line x1="268.2" y1="204.6" x2="294.6" y2="210.2" stroke="rgb(0,0,0)"  stroke-width="2.0"/>
<line x1="260.9" y1="126.0" x2="285.5" y2="115.0" stroke="rgb(0,0,0)"  stroke-width="2.0"/>
<line x1="252.6" y1="165.1" x2="260.9" y2="126.0" stroke="rgb(0,0,0)"  stroke-width="2.0"/>
<line x1="246.8" y1="157.7" x2="252.6" y2="130.3" stroke="rgb(0,0,0)"  stroke-width="2.0"/>
<line x1="260.9" y1="126.0" x2="237.5" y2="112.5" stroke="rgb(0,0,0)"  stroke-width="2.0"/>
<line x1="216.6" y1="114.7" x2="196.5" y2="132.7" stroke="rgb(0,0,0)"  stroke-width="2.0"/>
<line x1="196.5" y1="132.7" x2="212.8" y2="169.3" stroke="rgb(0,0,0)"  stroke-width="2.0"/>
<line x1="205.5" y1="135.3" x2="216.9" y2="160.8" stroke="rgb(0,0,0)"  stroke-width="2.0"/>
<line x1="212.8" y1="169.3" x2="252.6" y2="165.1" stroke="rgb(0,0,0)"  stroke-width="2.0"/>
<line x1="105.9" y1="78.0" x2="79.1" y2="107.8" stroke="rgb(0,0,0)"  stroke-width="2.0"/>
<line x1="107.2" y1="87.3" x2="88.5" y2="108.1" stroke="rgb(0,0,0)"  stroke-width="2.0"/>
<line x1="79.1" y1="107.8" x2="91.5" y2="145.8" stroke="rgb(0,0,0)"  stroke-width="2.0"/>
<line x1="91.5" y1="145.8" x2="130.6" y2="154.1" stroke="rgb(0,0,0)"  stroke-width="2.0"/>
<line x1="98.9" y1="140.0" x2="126.2" y2="145.8" stroke="rgb(0,0,0)"  stroke-width="2.0"/>
<line x1="130.6" y1="154.1" x2="157.4" y2="124.4" stroke="rgb(0,0,0)"  stroke-width="2.0"/>
<line x1="157.4" y1="124.4" x2="145.0" y2="86.4" stroke="rgb(0,0,0)"  stroke-width="2.0"/>
<line x1="148.7" y1="120.9" x2="140.0" y2="94.3" stroke="rgb(0,0,0)"  stroke-width="2.0"/>
<line x1="145.0" y1="86.4" x2="105.9" y2="78.0" stroke="rgb(0,0,0)"  stroke-width="2.0"/>
<line x1="204.5" y1="208.4" x2="227.8" y2="221.9" stroke="rgb(0,0,0)"  stroke-width="2.0"/>
<line x1="248.8" y1="219.7" x2="268.8" y2="201.6" stroke="rgb(0,0,0)"  stroke-width="2.0"/>
<line x1="268.8" y1="201.6" x2="252.6" y2="165.1" stroke="rgb(0,0,0)"  stroke-width="2.0"/>
<line x1="212.8" y1="169.3" x2="204.5" y2="208.4" stroke="rgb(0,0,0)"  stroke-width="2.0"/>
<text x="220.229409" y="113.952232" fill="rgb(178,178,0)"  stroke="rgb(178,178,0)" stroke-width="1" font-size="16" >S</text>
<text x="291.412244" y="117.682767" fill="rgb(191,191,191)"  stroke="rgb(191,191,191)" stroke-width="1" font-size="16" >H</text>
<text x="301.949327" y="217.936422" fill="rgb(255,12,12)"  stroke="rgb(255,12,12)" stroke-width="1" font-size="16" >O</text>
<text x="239.278769" y="276.166055" fill="rgb(102,102,102)"  stroke="rgb(102,102,102)" stroke-width="1" font-size="16" >CH</text>
<text x="263.278769" y="279.846055" fill="rgb(102,102,102)"  stroke="rgb(102,102,102)" stroke-width="1" font-size="13" >3</text>
<text x="233.097630" y="236.385179" fill="rgb(12,12,255)"  stroke="rgb(12,12,255)" stroke-width="1" font-size="16" >N</text>
<text x="161.914796" y="232.654645" fill="rgb(255,12,12)"  stroke="rgb(255,12,12)" stroke-width="1" font-size="16" >O</text>
<text x="136.973168" y="200.169043" fill="rgb(191,191,191)"  stroke="rgb(191,191,191)" stroke-width="1" font-size="16" >H</text>
<text x="34.000000" y="107.451586" fill="rgb(191,191,191)"  stroke="rgb(191,191,191)" stroke-width="1" font-size="16" >H</text>
<text x="87.530449" y="48.000000" fill="rgb(191,191,191)"  stroke="rgb(191,191,191)" stroke-width="1" font-size="16" >H</text>
</svg>
</g>
<text font-size="18.000000" fill ="black" font-family="sans-serif"
x="10.000000" y="20.000000" ></text>
</svg>
