<?xml version="1.0"?>
<svg version="1.1" id="topsvg"
xmlns="http://www.w3.org/2000/svg" xmlns:xlink="http://www.w3.org/1999/xlink"
xmlns:cml="http://www.xml-cml.org/schema" x="0" y="0" width="200px" height="200px" viewBox="0 0 100 100">
<title> - Open Babel Depiction</title>
<rect x="0" y="0" width="100" height="100" fill="white"/>
<g transform="translate(0,0)">
<svg width="100" height="100" x="0" y="0" viewBox="0 0 365.065 306.687"
font-family="sans-serif" stroke="rgb(0,0,0)" stroke-width="2"  stroke-linecap="round">
<line x1="165.1" y1="143.9" x2="205.1" y2="143.9" stroke="rgb(0,0,0)"  stroke-width="2.0"/>
<line x1="265.1" y1="109.3" x2="278.6" y2="85.9" stroke="rgb(0,0,0)"  stroke-width="2.0"/>
<line x1="278.6" y1="63.4" x2="271.6" y2="51.3" stroke="rgb(0,0,0)"  stroke-width="2.0"/>
<line x1="285.1" y1="143.9" x2="312.1" y2="143.9" stroke="rgb(0,0,0)"  stroke-width="2.0"/>
<line x1="225.1" y1="178.6" x2="211.6" y2="201.9" stroke="rgb(0,0,0)"  stroke-width="2.0"/>
<line x1="192.1" y1="213.2" x2="178.1" y2="213.2" stroke="rgb(0,0,0)"  stroke-width="2.0"/>
<line x1="143.3" y1="213.9" x2="165.2" y2="229.7" stroke="rgb(0,0,0)"  stroke-width="2.0"/>
<line x1="139.8" y1="218.7" x2="161.6" y2="234.6" stroke="rgb(0,0,0)"  stroke-width="2.0"/>
<line x1="99.5" y1="241.0" x2="95.2" y2="254.3" stroke="rgb(0,0,0)"  stroke-width="2.0"/>
<line x1="80.0" y1="196.3" x2="53.0" y2="196.3" stroke="rgb(0,0,0)"  stroke-width="2.0"/>
<line x1="101.7" y1="126.4" x2="79.9" y2="110.5" stroke="rgb(0,0,0)"  stroke-width="2.0"/>
<line x1="105.3" y1="121.5" x2="83.4" y2="105.6" stroke="rgb(0,0,0)"  stroke-width="2.0"/>
<line x1="145.6" y1="99.2" x2="149.9" y2="85.9" stroke="rgb(0,0,0)"  stroke-width="2.0"/>
<line x1="141.6" y1="216.3" x2="115.9" y2="224.6" stroke="rgb(0,0,0)"  stroke-width="2.0"/>
<line x1="95.9" y1="218.1" x2="80.0" y2="196.3" stroke="rgb(0,0,0)"  stroke-width="2.0"/>
<line x1="80.0" y1="196.3" x2="103.5" y2="163.9" stroke="rgb(0,0,0)"  stroke-width="2.0"/>
<line x1="89.4" y1="195.7" x2="105.8" y2="173.0" stroke="rgb(0,0,0)"  stroke-width="2.0"/>
<line x1="103.5" y1="163.9" x2="141.6" y2="176.3" stroke="rgb(0,0,0)"  stroke-width="2.0"/>
<line x1="141.6" y1="176.3" x2="141.6" y2="216.3" stroke="rgb(0,0,0)"  stroke-width="2.0"/>
<line x1="103.5" y1="163.9" x2="103.5" y2="123.9" stroke="rgb(0,0,0)"  stroke-width="2.0"/>
<line x1="103.5" y1="123.9" x2="129.2" y2="115.6" stroke="rgb(0,0,0)"  stroke-width="2.0"/>
<line x1="149.2" y1="122.1" x2="165.1" y2="143.9" stroke="rgb(0,0,0)"  stroke-width="2.0"/>
<line x1="165.1" y1="143.9" x2="141.6" y2="176.3" stroke="rgb(0,0,0)"  stroke-width="2.0"/>
<line x1="155.7" y1="144.5" x2="139.3" y2="167.2" stroke="rgb(0,0,0)"  stroke-width="2.0"/>
<line x1="265.1" y1="109.3" x2="285.1" y2="143.9" stroke="rgb(0,0,0)"  stroke-width="2.0"/>
<line x1="261.8" y1="118.1" x2="275.8" y2="142.3" stroke="rgb(0,0,0)"  stroke-width="2.0"/>
<line x1="285.1" y1="143.9" x2="265.1" y2="178.6" stroke="rgb(0,0,0)"  stroke-width="2.0"/>
<line x1="265.1" y1="178.6" x2="225.1" y2="178.6" stroke="rgb(0,0,0)"  stroke-width="2.0"/>
<line x1="259.1" y1="171.4" x2="231.1" y2="171.4" stroke="rgb(0,0,0)"  stroke-width="2.0"/>
<line x1="225.1" y1="178.6" x2="205.1" y2="143.9" stroke="rgb(0,0,0)"  stroke-width="2.0"/>
<line x1="205.1" y1="143.9" x2="225.1" y2="109.3" stroke="rgb(0,0,0)"  stroke-width="2.0"/>
<line x1="214.3" y1="142.3" x2="228.3" y2="118.1" stroke="rgb(0,0,0)"  stroke-width="2.0"/>
<line x1="225.1" y1="109.3" x2="265.1" y2="109.3" stroke="rgb(0,0,0)"  stroke-width="2.0"/>
<text x="147.914351" y="81.520108" fill="rgb(191,191,191)"  stroke="rgb(191,191,191)" stroke-width="1" font-size="16" >H</text>
<text x="135.553671" y="119.562369" fill="rgb(12,12,255)"  stroke="rgb(12,12,255)" stroke-width="1" font-size="16" >N</text>
<text x="65.150730" y="108.411638" fill="rgb(255,12,12)"  stroke="rgb(255,12,12)" stroke-width="1" font-size="16" >O</text>
<text x="34.000000" y="204.283728" fill="rgb(191,191,191)"  stroke="rgb(191,191,191)" stroke-width="1" font-size="16" >H</text>
<text x="85.150730" y="274.686669" fill="rgb(191,191,191)"  stroke="rgb(191,191,191)" stroke-width="1" font-size="16" >H</text>
<text x="97.511410" y="236.644408" fill="rgb(12,12,255)"  stroke="rgb(12,12,255)" stroke-width="1" font-size="16" >N</text>
<text x="167.914351" y="247.795138" fill="rgb(255,12,12)"  stroke="rgb(255,12,12)" stroke-width="1" font-size="16" >O</text>
<text x="139.065081" y="221.205081" fill="rgb(102,102,102)"  stroke="rgb(102,102,102)" stroke-width="1" font-size="16" >H</text>
<text x="151.065081" y="224.885081" fill="rgb(102,102,102)"  stroke="rgb(102,102,102)" stroke-width="1" font-size="13" >3</text>
<text x="157.565081" y="221.205081" fill="rgb(102,102,102)"  stroke="rgb(102,102,102)" stroke-width="1" font-size="16" >C</text>
<text x="199.065081" y="221.205081" fill="rgb(255,12,12)"  stroke="rgb(255,12,12)" stroke-width="1" font-size="16" >O</text>
<text x="319.065081" y="151.923048" fill="rgb(191,191,191)"  stroke="rgb(191,191,191)" stroke-width="1" font-size="16" >H</text>
<text x="239.065081" y="48.000000" fill="rgb(102,102,102)"  stroke="rgb(102,102,102)" stroke-width="1" font-size="16" >H</text>
<text x="251.065081" y="51.680000" fill="rgb(102,102,102)"  stroke="rgb(102,102,102)" stroke-width="1" font-size="13" >3</text>
<text x="257.565081" y="48.000000" fill="rgb(102,102,102)"  stroke="rgb(102,102,102)" stroke-width="1" font-size="16" >C</text>
<text x="279.065081" y="82.641016" fill="rgb(255,12,12)"  stroke="rgb(255,12,12)" stroke-width="1" font-size="16" >O</text>
</svg>
</g>
<text font-size="18.000000" fill ="black" font-family="sans-serif"
x="10.000000" y="20.000000" ></text>
</svg>
