<?xml version="1.0"?>
<svg version="1.1" id="topsvg"
xmlns="http://www.w3.org/2000/svg" xmlns:xlink="http://www.w3.org/1999/xlink"
xmlns:cml="http://www.xml-cml.org/schema" x="0" y="0" width="200px" height="200px" viewBox="0 0 100 100">
<title> - Open Babel Depiction</title>
<rect x="0" y="0" width="100" height="100" fill="white"/>
<g transform="translate(0,0)">
<svg width="100" height="100" x="0" y="0" viewBox="0 0 402.736 394.927"
font-family="sans-serif" stroke="rgb(0,0,0)" stroke-width="2"  stroke-linecap="round">
<line x1="214.0" y1="175.7" x2="248.8" y2="156.3" stroke="rgb(0,0,0)"  stroke-width="2.0"/>
<line x1="292.6" y1="108.9" x2="303.8" y2="84.6" stroke="rgb(0,0,0)"  stroke-width="2.0"/>
<line x1="179.8" y1="273.2" x2="202.9" y2="287.0" stroke="rgb(0,0,0)"  stroke-width="2.0"/>
<line x1="176.7" y1="278.3" x2="199.9" y2="292.2" stroke="rgb(0,0,0)"  stroke-width="2.0"/>
<line x1="143.4" y1="308.0" x2="143.2" y2="321.8" stroke="rgb(0,0,0)"  stroke-width="2.0"/>
<line x1="154.3" y1="341.4" x2="166.2" y2="348.3" stroke="rgb(0,0,0)"  stroke-width="2.0"/>
<line x1="110.0" y1="277.4" x2="86.5" y2="290.7" stroke="rgb(0,0,0)"  stroke-width="2.0"/>
<line x1="107.0" y1="272.2" x2="83.5" y2="285.5" stroke="rgb(0,0,0)"  stroke-width="2.0"/>
<line x1="74.8" y1="213.8" x2="51.3" y2="227.1" stroke="rgb(0,0,0)"  stroke-width="2.0"/>
<line x1="109.1" y1="116.9" x2="85.9" y2="103.1" stroke="rgb(0,0,0)"  stroke-width="2.0"/>
<line x1="112.1" y1="111.7" x2="88.9" y2="98.0" stroke="rgb(0,0,0)"  stroke-width="2.0"/>
<line x1="145.8" y1="81.6" x2="145.9" y2="67.4" stroke="rgb(0,0,0)"  stroke-width="2.0"/>
<line x1="133.9" y1="49.7" x2="120.7" y2="44.7" stroke="rgb(0,0,0)"  stroke-width="2.0"/>
<line x1="178.9" y1="112.6" x2="202.4" y2="99.4" stroke="rgb(0,0,0)"  stroke-width="2.0"/>
<line x1="181.8" y1="117.8" x2="205.3" y2="104.6" stroke="rgb(0,0,0)"  stroke-width="2.0"/>
<line x1="312.1" y1="143.7" x2="292.6" y2="108.9" stroke="rgb(0,0,0)"  stroke-width="2.0"/>
<line x1="302.8" y1="142.0" x2="289.2" y2="117.7" stroke="rgb(0,0,0)"  stroke-width="2.0"/>
<line x1="292.6" y1="108.9" x2="266.3" y2="114.2" stroke="rgb(0,0,0)"  stroke-width="2.0"/>
<line x1="252.0" y1="129.6" x2="248.8" y2="156.3" stroke="rgb(0,0,0)"  stroke-width="2.0"/>
<line x1="248.8" y1="156.3" x2="285.0" y2="173.0" stroke="rgb(0,0,0)"  stroke-width="2.0"/>
<line x1="257.3" y1="152.3" x2="282.6" y2="163.9" stroke="rgb(0,0,0)"  stroke-width="2.0"/>
<line x1="285.0" y1="173.0" x2="312.1" y2="143.7" stroke="rgb(0,0,0)"  stroke-width="2.0"/>
<line x1="178.8" y1="235.6" x2="144.0" y2="214.8" stroke="rgb(0,0,0)"  stroke-width="2.0"/>
<line x1="177.3" y1="226.4" x2="152.9" y2="211.7" stroke="rgb(0,0,0)"  stroke-width="2.0"/>
<line x1="144.0" y1="214.8" x2="144.6" y2="174.8" stroke="rgb(0,0,0)"  stroke-width="2.0"/>
<line x1="144.6" y1="174.8" x2="179.8" y2="155.4" stroke="rgb(0,0,0)"  stroke-width="2.0"/>
<line x1="153.3" y1="178.2" x2="178.0" y2="164.6" stroke="rgb(0,0,0)"  stroke-width="2.0"/>
<line x1="179.8" y1="155.4" x2="214.0" y2="175.7" stroke="rgb(0,0,0)"  stroke-width="2.0"/>
<line x1="214.0" y1="175.7" x2="213.5" y2="215.7" stroke="rgb(0,0,0)"  stroke-width="2.0"/>
<line x1="206.8" y1="181.7" x2="206.4" y2="209.6" stroke="rgb(0,0,0)"  stroke-width="2.0"/>
<line x1="213.5" y1="215.7" x2="178.8" y2="235.6" stroke="rgb(0,0,0)"  stroke-width="2.0"/>
<line x1="108.5" y1="274.8" x2="109.0" y2="234.7" stroke="rgb(0,0,0)"  stroke-width="2.0"/>
<line x1="109.0" y1="234.7" x2="144.0" y2="214.8" stroke="rgb(0,0,0)"  stroke-width="2.0"/>
<line x1="178.8" y1="235.6" x2="178.2" y2="275.7" stroke="rgb(0,0,0)"  stroke-width="2.0"/>
<line x1="178.2" y1="275.7" x2="154.8" y2="288.7" stroke="rgb(0,0,0)"  stroke-width="2.0"/>
<line x1="132.2" y1="288.5" x2="108.5" y2="274.8" stroke="rgb(0,0,0)"  stroke-width="2.0"/>
<line x1="75.3" y1="173.9" x2="110.1" y2="154.4" stroke="rgb(0,0,0)"  stroke-width="2.0"/>
<line x1="84.1" y1="177.3" x2="108.4" y2="163.7" stroke="rgb(0,0,0)"  stroke-width="2.0"/>
<line x1="110.1" y1="154.4" x2="144.6" y2="174.8" stroke="rgb(0,0,0)"  stroke-width="2.0"/>
<line x1="109.0" y1="234.7" x2="74.8" y2="213.8" stroke="rgb(0,0,0)"  stroke-width="2.0"/>
<line x1="107.7" y1="225.4" x2="83.7" y2="210.8" stroke="rgb(0,0,0)"  stroke-width="2.0"/>
<line x1="74.8" y1="213.8" x2="75.3" y2="173.9" stroke="rgb(0,0,0)"  stroke-width="2.0"/>
<line x1="156.8" y1="101.2" x2="180.3" y2="115.2" stroke="rgb(0,0,0)"  stroke-width="2.0"/>
<line x1="180.3" y1="115.2" x2="179.8" y2="155.4" stroke="rgb(0,0,0)"  stroke-width="2.0"/>
<line x1="110.1" y1="154.4" x2="110.6" y2="114.3" stroke="rgb(0,0,0)"  stroke-width="2.0"/>
<line x1="110.6" y1="114.3" x2="134.3" y2="101.0" stroke="rgb(0,0,0)"  stroke-width="2.0"/>
<line x1="309.5" y1="213.9" x2="335.7" y2="219.9" stroke="rgb(0,0,0)"  stroke-width="2.0"/>
<line x1="335.7" y1="219.9" x2="362.7" y2="190.6" stroke="rgb(0,0,0)"  stroke-width="2.0"/>
<line x1="362.7" y1="190.6" x2="354.8" y2="164.9" stroke="rgb(0,0,0)"  stroke-width="2.0"/>
<line x1="338.3" y1="149.7" x2="312.1" y2="143.7" stroke="rgb(0,0,0)"  stroke-width="2.0"/>
<line x1="285.0" y1="173.0" x2="293.0" y2="198.6" stroke="rgb(0,0,0)"  stroke-width="2.0"/>
<text x="70.212765" y="101.912769" fill="rgb(255,12,12)"  stroke="rgb(255,12,12)" stroke-width="1" font-size="16" >O</text>
<text x="67.706302" y="302.528798" fill="rgb(255,12,12)"  stroke="rgb(255,12,12)" stroke-width="1" font-size="16" >O</text>
<text x="34.000000" y="241.540964" fill="rgb(191,191,191)"  stroke="rgb(191,191,191)" stroke-width="1" font-size="16" >H</text>
<text x="173.373293" y="362.926962" fill="rgb(102,102,102)"  stroke="rgb(102,102,102)" stroke-width="1" font-size="16" >CH</text>
<text x="197.373293" y="366.606962" fill="rgb(102,102,102)"  stroke="rgb(102,102,102)" stroke-width="1" font-size="13" >3</text>
<text x="139.611793" y="102.579755" fill="rgb(12,12,255)"  stroke="rgb(12,12,255)" stroke-width="1" font-size="16" >N</text>
<text x="140.077058" y="62.401678" fill="rgb(255,12,12)"  stroke="rgb(255,12,12)" stroke-width="1" font-size="16" >O</text>
<text x="82.565914" y="48.000000" fill="rgb(102,102,102)"  stroke="rgb(102,102,102)" stroke-width="1" font-size="16" >H</text>
<text x="94.565914" y="51.680000" fill="rgb(102,102,102)"  stroke="rgb(102,102,102)" stroke-width="1" font-size="13" >3</text>
<text x="101.065914" y="48.000000" fill="rgb(102,102,102)"  stroke="rgb(102,102,102)" stroke-width="1" font-size="16" >C</text>
<text x="209.224397" y="103.673831" fill="rgb(255,12,12)"  stroke="rgb(255,12,12)" stroke-width="1" font-size="16" >O</text>
<text x="303.294177" y="80.762449" fill="rgb(191,191,191)"  stroke="rgb(191,191,191)" stroke-width="1" font-size="16" >H</text>
<text x="290.808876" y="219.044605" fill="rgb(255,12,12)"  stroke="rgb(255,12,12)" stroke-width="1" font-size="16" >O</text>
<text x="344.928782" y="160.531657" fill="rgb(255,12,12)"  stroke="rgb(255,12,12)" stroke-width="1" font-size="16" >O</text>
<text x="247.510895" y="124.712539" fill="rgb(178,178,0)"  stroke="rgb(178,178,0)" stroke-width="1" font-size="16" >S</text>
<text x="206.566178" y="304.271649" fill="rgb(255,12,12)"  stroke="rgb(255,12,12)" stroke-width="1" font-size="16" >O</text>
<text x="137.471914" y="303.018717" fill="rgb(12,12,255)"  stroke="rgb(12,12,255)" stroke-width="1" font-size="16" >N</text>
<text x="137.128583" y="342.759324" fill="rgb(255,12,12)"  stroke="rgb(255,12,12)" stroke-width="1" font-size="16" >O</text>
</svg>
</g>
<text font-size="18.000000" fill ="black" font-family="sans-serif"
x="10.000000" y="20.000000" ></text>
</svg>
