<?xml version="1.0"?>
<svg version="1.1" id="topsvg"
xmlns="http://www.w3.org/2000/svg" xmlns:xlink="http://www.w3.org/1999/xlink"
xmlns:cml="http://www.xml-cml.org/schema" x="0" y="0" width="200px" height="200px" viewBox="0 0 100 100">
<title> - Open Babel Depiction</title>
<rect x="0" y="0" width="100" height="100" fill="white"/>
<g transform="translate(0,0)">
<svg width="100" height="100" x="0" y="0" viewBox="0 0 658.11 370.542"
font-family="sans-serif" stroke="rgb(0,0,0)" stroke-width="2"  stroke-linecap="round">
<line x1="343.4" y1="144.1" x2="382.5" y2="135.8" stroke="rgb(0,0,0)"  stroke-width="2.0"/>
<line x1="480.7" y1="180.7" x2="494.2" y2="204.1" stroke="rgb(0,0,0)"  stroke-width="2.0"/>
<line x1="480.7" y1="180.7" x2="467.2" y2="204.1" stroke="rgb(0,0,0)"  stroke-width="2.0"/>
<line x1="579.0" y1="135.8" x2="605.4" y2="141.4" stroke="rgb(0,0,0)"  stroke-width="2.0"/>
<line x1="234.7" y1="219.0" x2="214.7" y2="237.1" stroke="rgb(0,0,0)"  stroke-width="2.0"/>
<line x1="230.7" y1="214.6" x2="210.7" y2="232.6" stroke="rgb(0,0,0)"  stroke-width="2.0"/>
<line x1="277.2" y1="237.0" x2="288.1" y2="261.6" stroke="rgb(0,0,0)"  stroke-width="2.0"/>
<line x1="288.5" y1="258.7" x2="315.3" y2="261.5" stroke="rgb(0,0,0)"  stroke-width="2.0"/>
<line x1="287.8" y1="264.6" x2="314.7" y2="267.4" stroke="rgb(0,0,0)"  stroke-width="2.0"/>
<line x1="288.1" y1="261.6" x2="272.3" y2="283.5" stroke="rgb(0,0,0)"  stroke-width="2.0"/>
<line x1="269.9" y1="305.9" x2="275.6" y2="318.7" stroke="rgb(0,0,0)"  stroke-width="2.0"/>
<line x1="227.1" y1="179.6" x2="192.4" y2="159.6" stroke="rgb(0,0,0)"  stroke-width="2.0"/>
<line x1="230.1" y1="174.4" x2="195.4" y2="154.4" stroke="rgb(0,0,0)"  stroke-width="2.0"/>
<line x1="187.7" y1="115.0" x2="207.8" y2="96.9" stroke="rgb(0,0,0)"  stroke-width="2.0"/>
<line x1="191.7" y1="119.4" x2="211.8" y2="101.4" stroke="rgb(0,0,0)"  stroke-width="2.0"/>
<line x1="145.3" y1="97.0" x2="134.3" y2="72.4" stroke="rgb(0,0,0)"  stroke-width="2.0"/>
<line x1="134.0" y1="75.3" x2="107.2" y2="72.5" stroke="rgb(0,0,0)"  stroke-width="2.0"/>
<line x1="134.7" y1="69.4" x2="107.8" y2="66.6" stroke="rgb(0,0,0)"  stroke-width="2.0"/>
<line x1="134.3" y1="72.4" x2="150.2" y2="50.5" stroke="rgb(0,0,0)"  stroke-width="2.0"/>
<line x1="170.8" y1="41.4" x2="184.7" y2="42.8" stroke="rgb(0,0,0)"  stroke-width="2.0"/>
<line x1="79.1" y1="189.9" x2="52.7" y2="195.5" stroke="rgb(0,0,0)"  stroke-width="2.0"/>
<line x1="448.4" y1="157.2" x2="460.7" y2="119.1" stroke="rgb(0,0,0)"  stroke-width="2.0"/>
<line x1="443.4" y1="149.3" x2="452.0" y2="122.6" stroke="rgb(0,0,0)"  stroke-width="2.0"/>
<line x1="460.7" y1="119.1" x2="434.0" y2="89.4" stroke="rgb(0,0,0)"  stroke-width="2.0"/>
<line x1="434.0" y1="89.4" x2="394.8" y2="97.7" stroke="rgb(0,0,0)"  stroke-width="2.0"/>
<line x1="429.6" y1="97.7" x2="402.2" y2="103.5" stroke="rgb(0,0,0)"  stroke-width="2.0"/>
<line x1="394.8" y1="97.7" x2="382.5" y2="135.8" stroke="rgb(0,0,0)"  stroke-width="2.0"/>
<line x1="382.5" y1="135.8" x2="409.2" y2="165.5" stroke="rgb(0,0,0)"  stroke-width="2.0"/>
<line x1="391.8" y1="135.4" x2="410.6" y2="156.2" stroke="rgb(0,0,0)"  stroke-width="2.0"/>
<line x1="409.2" y1="165.5" x2="448.4" y2="157.2" stroke="rgb(0,0,0)"  stroke-width="2.0"/>
<line x1="552.2" y1="165.5" x2="513.1" y2="157.2" stroke="rgb(0,0,0)"  stroke-width="2.0"/>
<line x1="547.8" y1="157.2" x2="520.5" y2="151.4" stroke="rgb(0,0,0)"  stroke-width="2.0"/>
<line x1="513.1" y1="157.2" x2="500.7" y2="119.1" stroke="rgb(0,0,0)"  stroke-width="2.0"/>
<line x1="500.7" y1="119.1" x2="527.5" y2="89.4" stroke="rgb(0,0,0)"  stroke-width="2.0"/>
<line x1="510.1" y1="119.5" x2="528.8" y2="98.7" stroke="rgb(0,0,0)"  stroke-width="2.0"/>
<line x1="527.5" y1="89.4" x2="566.6" y2="97.7" stroke="rgb(0,0,0)"  stroke-width="2.0"/>
<line x1="566.6" y1="97.7" x2="579.0" y2="135.8" stroke="rgb(0,0,0)"  stroke-width="2.0"/>
<line x1="561.6" y1="105.7" x2="570.3" y2="132.3" stroke="rgb(0,0,0)"  stroke-width="2.0"/>
<line x1="579.0" y1="135.8" x2="552.2" y2="165.5" stroke="rgb(0,0,0)"  stroke-width="2.0"/>
<line x1="277.5" y1="122.7" x2="265.1" y2="160.7" stroke="rgb(0,0,0)"  stroke-width="2.0"/>
<line x1="282.5" y1="130.6" x2="273.8" y2="157.2" stroke="rgb(0,0,0)"  stroke-width="2.0"/>
<line x1="265.1" y1="160.7" x2="291.9" y2="190.5" stroke="rgb(0,0,0)"  stroke-width="2.0"/>
<line x1="291.9" y1="190.5" x2="331.0" y2="182.1" stroke="rgb(0,0,0)"  stroke-width="2.0"/>
<line x1="296.2" y1="182.2" x2="323.6" y2="176.3" stroke="rgb(0,0,0)"  stroke-width="2.0"/>
<line x1="331.0" y1="182.1" x2="343.4" y2="144.1" stroke="rgb(0,0,0)"  stroke-width="2.0"/>
<line x1="343.4" y1="144.1" x2="316.6" y2="114.4" stroke="rgb(0,0,0)"  stroke-width="2.0"/>
<line x1="334.0" y1="144.5" x2="315.3" y2="123.6" stroke="rgb(0,0,0)"  stroke-width="2.0"/>
<line x1="316.6" y1="114.4" x2="277.5" y2="122.7" stroke="rgb(0,0,0)"  stroke-width="2.0"/>
<line x1="105.9" y1="219.6" x2="145.0" y2="211.3" stroke="rgb(0,0,0)"  stroke-width="2.0"/>
<line x1="145.0" y1="211.3" x2="157.4" y2="173.3" stroke="rgb(0,0,0)"  stroke-width="2.0"/>
<line x1="140.0" y1="203.4" x2="148.7" y2="176.8" stroke="rgb(0,0,0)"  stroke-width="2.0"/>
<line x1="157.4" y1="173.3" x2="130.6" y2="143.5" stroke="rgb(0,0,0)"  stroke-width="2.0"/>
<line x1="130.6" y1="143.5" x2="91.5" y2="151.9" stroke="rgb(0,0,0)"  stroke-width="2.0"/>
<line x1="126.2" y1="151.8" x2="98.9" y2="157.7" stroke="rgb(0,0,0)"  stroke-width="2.0"/>
<line x1="91.5" y1="151.9" x2="79.1" y2="189.9" stroke="rgb(0,0,0)"  stroke-width="2.0"/>
<line x1="79.1" y1="189.9" x2="105.9" y2="219.6" stroke="rgb(0,0,0)"  stroke-width="2.0"/>
<line x1="88.5" y1="189.5" x2="107.2" y2="210.4" stroke="rgb(0,0,0)"  stroke-width="2.0"/>
<line x1="500.7" y1="119.1" x2="460.7" y2="119.1" stroke="rgb(0,0,0)"  stroke-width="2.0"/>
<line x1="448.4" y1="157.2" x2="480.7" y2="180.7" stroke="rgb(0,0,0)"  stroke-width="2.0"/>
<line x1="480.7" y1="180.7" x2="513.1" y2="157.2" stroke="rgb(0,0,0)"  stroke-width="2.0"/>
<line x1="232.7" y1="216.8" x2="259.2" y2="222.4" stroke="rgb(0,0,0)"  stroke-width="2.0"/>
<line x1="278.4" y1="213.8" x2="291.9" y2="190.5" stroke="rgb(0,0,0)"  stroke-width="2.0"/>
<line x1="265.1" y1="160.7" x2="228.6" y2="177.0" stroke="rgb(0,0,0)"  stroke-width="2.0"/>
<line x1="228.6" y1="177.0" x2="232.7" y2="216.8" stroke="rgb(0,0,0)"  stroke-width="2.0"/>
<line x1="144.1" y1="120.2" x2="130.6" y2="143.5" stroke="rgb(0,0,0)"  stroke-width="2.0"/>
<line x1="157.4" y1="173.3" x2="193.9" y2="157.0" stroke="rgb(0,0,0)"  stroke-width="2.0"/>
<line x1="193.9" y1="157.0" x2="189.7" y2="117.2" stroke="rgb(0,0,0)"  stroke-width="2.0"/>
<line x1="189.7" y1="117.2" x2="163.3" y2="111.6" stroke="rgb(0,0,0)"  stroke-width="2.0"/>
<text x="265.867589" y="233.097185" fill="rgb(12,12,255)"  stroke="rgb(12,12,255)" stroke-width="1" font-size="16" >N</text>
<text x="321.917931" y="273.820142" fill="rgb(255,12,12)"  stroke="rgb(255,12,12)" stroke-width="1" font-size="16" >O</text>
<text x="258.625645" y="301.999683" fill="rgb(255,12,12)"  stroke="rgb(255,12,12)" stroke-width="1" font-size="16" >O</text>
<text x="276.895110" y="338.541501" fill="rgb(102,102,102)"  stroke="rgb(102,102,102)" stroke-width="1" font-size="16" >CH</text>
<text x="300.895110" y="342.221501" fill="rgb(102,102,102)"  stroke="rgb(102,102,102)" stroke-width="1" font-size="13" >3</text>
<text x="213.464185" y="98.453741" fill="rgb(255,12,12)"  stroke="rgb(255,12,12)" stroke-width="1" font-size="16" >O</text>
<text x="144.612488" y="116.902498" fill="rgb(12,12,255)"  stroke="rgb(12,12,255)" stroke-width="1" font-size="16" >N</text>
<text x="197.015892" y="251.545942" fill="rgb(255,12,12)"  stroke="rgb(255,12,12)" stroke-width="1" font-size="16" >O</text>
<text x="88.562146" y="76.179541" fill="rgb(255,12,12)"  stroke="rgb(255,12,12)" stroke-width="1" font-size="16" >O</text>
<text x="151.854432" y="48.000000" fill="rgb(255,12,12)"  stroke="rgb(255,12,12)" stroke-width="1" font-size="16" >O</text>
<text x="193.635308" y="52.181139" fill="rgb(102,102,102)"  stroke="rgb(102,102,102)" stroke-width="1" font-size="16" >CH</text>
<text x="217.635308" y="55.861139" fill="rgb(102,102,102)"  stroke="rgb(102,102,102)" stroke-width="1" font-size="13" >3</text>
<text x="34.000000" y="206.218710" fill="rgb(191,191,191)"  stroke="rgb(191,191,191)" stroke-width="1" font-size="16" >H</text>
<text x="496.731885" y="223.342725" fill="rgb(102,102,102)"  stroke="rgb(102,102,102)" stroke-width="1" font-size="16" >CH</text>
<text x="520.731885" y="227.022725" fill="rgb(102,102,102)"  stroke="rgb(102,102,102)" stroke-width="1" font-size="13" >3</text>
<text x="434.731885" y="223.342725" fill="rgb(102,102,102)"  stroke="rgb(102,102,102)" stroke-width="1" font-size="16" >H</text>
<text x="446.731885" y="227.022725" fill="rgb(102,102,102)"  stroke="rgb(102,102,102)" stroke-width="1" font-size="13" >3</text>
<text x="453.231885" y="223.342725" fill="rgb(102,102,102)"  stroke="rgb(102,102,102)" stroke-width="1" font-size="16" >C</text>
<text x="612.109597" y="152.097441" fill="rgb(191,191,191)"  stroke="rgb(191,191,191)" stroke-width="1" font-size="16" >H</text>
</svg>
</g>
<text font-size="18.000000" fill ="black" font-family="sans-serif"
x="10.000000" y="20.000000" ></text>
</svg>
