<?xml version="1.0"?>
<svg version="1.1" id="topsvg"
xmlns="http://www.w3.org/2000/svg" xmlns:xlink="http://www.w3.org/1999/xlink"
xmlns:cml="http://www.xml-cml.org/schema" x="0" y="0" width="200px" height="200px" viewBox="0 0 100 100">
<title> - Open Babel Depiction</title>
<rect x="0" y="0" width="100" height="100" fill="white"/>
<g transform="translate(0,0)">
<svg width="100" height="100" x="0" y="0" viewBox="0 0 446.528 297.703"
font-family="sans-serif" stroke="rgb(0,0,0)" stroke-width="2"  stroke-linecap="round">
<line x1="207.9" y1="102.1" x2="247.0" y2="110.4" stroke="rgb(0,0,0)"  stroke-width="2.0"/>
<line x1="263.3" y1="146.9" x2="249.8" y2="170.3" stroke="rgb(0,0,0)"  stroke-width="2.0"/>
<line x1="367.4" y1="136.0" x2="393.8" y2="141.6" stroke="rgb(0,0,0)"  stroke-width="2.0"/>
<line x1="351.1" y1="99.5" x2="364.6" y2="76.1" stroke="rgb(0,0,0)"  stroke-width="2.0"/>
<line x1="179.6" y1="166.3" x2="203.0" y2="179.8" stroke="rgb(0,0,0)"  stroke-width="2.0"/>
<line x1="176.6" y1="171.4" x2="200.0" y2="184.9" stroke="rgb(0,0,0)"  stroke-width="2.0"/>
<line x1="135.2" y1="228.0" x2="153.2" y2="248.0" stroke="rgb(0,0,0)"  stroke-width="2.0"/>
<line x1="79.1" y1="195.6" x2="52.7" y2="190.0" stroke="rgb(0,0,0)"  stroke-width="2.0"/>
<line x1="107.4" y1="131.4" x2="84.0" y2="117.9" stroke="rgb(0,0,0)"  stroke-width="2.0"/>
<line x1="110.4" y1="126.3" x2="87.0" y2="112.8" stroke="rgb(0,0,0)"  stroke-width="2.0"/>
<line x1="151.8" y1="69.7" x2="133.7" y2="49.7" stroke="rgb(0,0,0)"  stroke-width="2.0"/>
<line x1="303.0" y1="142.8" x2="311.4" y2="103.6" stroke="rgb(0,0,0)"  stroke-width="2.0"/>
<line x1="297.2" y1="135.4" x2="303.1" y2="108.0" stroke="rgb(0,0,0)"  stroke-width="2.0"/>
<line x1="311.4" y1="103.6" x2="288.0" y2="90.1" stroke="rgb(0,0,0)"  stroke-width="2.0"/>
<line x1="267.1" y1="92.3" x2="247.0" y2="110.4" stroke="rgb(0,0,0)"  stroke-width="2.0"/>
<line x1="247.0" y1="110.4" x2="263.3" y2="146.9" stroke="rgb(0,0,0)"  stroke-width="2.0"/>
<line x1="256.0" y1="113.0" x2="267.4" y2="138.5" stroke="rgb(0,0,0)"  stroke-width="2.0"/>
<line x1="263.3" y1="146.9" x2="303.0" y2="142.8" stroke="rgb(0,0,0)"  stroke-width="2.0"/>
<line x1="367.4" y1="136.0" x2="351.1" y2="99.5" stroke="rgb(0,0,0)"  stroke-width="2.0"/>
<line x1="358.4" y1="133.4" x2="347.0" y2="107.9" stroke="rgb(0,0,0)"  stroke-width="2.0"/>
<line x1="351.1" y1="99.5" x2="311.4" y2="103.6" stroke="rgb(0,0,0)"  stroke-width="2.0"/>
<line x1="303.0" y1="142.8" x2="326.4" y2="156.3" stroke="rgb(0,0,0)"  stroke-width="2.0"/>
<line x1="347.3" y1="154.1" x2="367.4" y2="136.0" stroke="rgb(0,0,0)"  stroke-width="2.0"/>
<line x1="90.1" y1="220.3" x2="79.1" y2="195.6" stroke="rgb(0,0,0)"  stroke-width="2.0"/>
<line x1="79.1" y1="195.6" x2="108.9" y2="168.9" stroke="rgb(0,0,0)"  stroke-width="2.0"/>
<line x1="88.4" y1="197.0" x2="109.2" y2="178.2" stroke="rgb(0,0,0)"  stroke-width="2.0"/>
<line x1="108.9" y1="168.9" x2="143.5" y2="188.9" stroke="rgb(0,0,0)"  stroke-width="2.0"/>
<line x1="143.5" y1="188.9" x2="135.2" y2="228.0" stroke="rgb(0,0,0)"  stroke-width="2.0"/>
<line x1="135.2" y1="193.2" x2="129.4" y2="220.6" stroke="rgb(0,0,0)"  stroke-width="2.0"/>
<line x1="135.2" y1="228.0" x2="108.3" y2="230.8" stroke="rgb(0,0,0)"  stroke-width="2.0"/>
<line x1="143.5" y1="108.9" x2="151.8" y2="69.7" stroke="rgb(0,0,0)"  stroke-width="2.0"/>
<line x1="151.8" y1="104.5" x2="157.6" y2="77.1" stroke="rgb(0,0,0)"  stroke-width="2.0"/>
<line x1="151.8" y1="69.7" x2="178.7" y2="66.9" stroke="rgb(0,0,0)"  stroke-width="2.0"/>
<line x1="196.9" y1="77.4" x2="207.9" y2="102.1" stroke="rgb(0,0,0)"  stroke-width="2.0"/>
<line x1="207.9" y1="102.1" x2="178.1" y2="128.9" stroke="rgb(0,0,0)"  stroke-width="2.0"/>
<line x1="198.6" y1="100.8" x2="177.8" y2="119.5" stroke="rgb(0,0,0)"  stroke-width="2.0"/>
<line x1="178.1" y1="128.9" x2="143.5" y2="108.9" stroke="rgb(0,0,0)"  stroke-width="2.0"/>
<line x1="178.1" y1="168.9" x2="143.5" y2="188.9" stroke="rgb(0,0,0)"  stroke-width="2.0"/>
<line x1="108.9" y1="168.9" x2="108.9" y2="128.9" stroke="rgb(0,0,0)"  stroke-width="2.0"/>
<line x1="108.9" y1="128.9" x2="143.5" y2="108.9" stroke="rgb(0,0,0)"  stroke-width="2.0"/>
<line x1="178.1" y1="128.9" x2="178.1" y2="168.9" stroke="rgb(0,0,0)"  stroke-width="2.0"/>
<text x="206.774746" y="196.851697" fill="rgb(255,12,12)"  stroke="rgb(255,12,12)" stroke-width="1" font-size="16" >O</text>
<text x="185.590057" y="73.544654" fill="rgb(178,178,0)"  stroke="rgb(178,178,0)" stroke-width="1" font-size="16" >S</text>
<text x="119.043957" y="48.000000" fill="rgb(191,191,191)"  stroke="rgb(191,191,191)" stroke-width="1" font-size="16" >H</text>
<text x="68.210681" y="116.851697" fill="rgb(255,12,12)"  stroke="rgb(255,12,12)" stroke-width="1" font-size="16" >O</text>
<text x="34.000000" y="195.300454" fill="rgb(191,191,191)"  stroke="rgb(191,191,191)" stroke-width="1" font-size="16" >H</text>
<text x="89.395370" y="240.158740" fill="rgb(178,178,0)"  stroke="rgb(178,178,0)" stroke-width="1" font-size="16" >S</text>
<text x="155.941470" y="265.703394" fill="rgb(191,191,191)"  stroke="rgb(191,191,191)" stroke-width="1" font-size="16" >H</text>
<text x="270.711219" y="91.637716" fill="rgb(178,178,0)"  stroke="rgb(178,178,0)" stroke-width="1" font-size="16" >S</text>
<text x="365.133111" y="72.815561" fill="rgb(30,239,30)"  stroke="rgb(30,239,30)" stroke-width="1" font-size="16" >Cl</text>
<text x="400.528481" y="152.314864" fill="rgb(191,191,191)"  stroke="rgb(191,191,191)" stroke-width="1" font-size="16" >H</text>
<text x="331.676784" y="170.763620" fill="rgb(178,178,0)"  stroke="rgb(178,178,0)" stroke-width="1" font-size="16" >S</text>
<text x="225.254892" y="189.585775" fill="rgb(30,239,30)"  stroke="rgb(30,239,30)" stroke-width="1" font-size="16" >Cl</text>
</svg>
</g>
<text font-size="18.000000" fill ="black" font-family="sans-serif"
x="10.000000" y="20.000000" ></text>
</svg>
