<?xml version="1.0"?>
<svg version="1.1" id="topsvg"
xmlns="http://www.w3.org/2000/svg" xmlns:xlink="http://www.w3.org/1999/xlink"
xmlns:cml="http://www.xml-cml.org/schema" x="0" y="0" width="200px" height="200px" viewBox="0 0 100 100">
<title> - Open Babel Depiction</title>
<rect x="0" y="0" width="100" height="100" fill="white"/>
<g transform="translate(0,0)">
<svg width="100" height="100" x="0" y="0" viewBox="0 0 451.512 423.25"
font-family="sans-serif" stroke="rgb(0,0,0)" stroke-width="2"  stroke-linecap="round">
<line x1="175.9" y1="143.1" x2="155.9" y2="177.7" stroke="rgb(0,0,0)"  stroke-width="2.0"/>
<line x1="78.0" y1="247.8" x2="52.4" y2="256.1" stroke="rgb(0,0,0)"  stroke-width="2.0"/>
<line x1="78.0" y1="247.8" x2="58.0" y2="229.7" stroke="rgb(0,0,0)"  stroke-width="2.0"/>
<line x1="120.6" y1="343.5" x2="123.5" y2="370.3" stroke="rgb(0,0,0)"  stroke-width="2.0"/>
<line x1="248.3" y1="166.3" x2="242.7" y2="192.7" stroke="rgb(0,0,0)"  stroke-width="2.0"/>
<line x1="242.4" y1="165.0" x2="236.8" y2="191.5" stroke="rgb(0,0,0)"  stroke-width="2.0"/>
<line x1="318.1" y1="173.3" x2="322.2" y2="213.1" stroke="rgb(0,0,0)"  stroke-width="2.0"/>
<line x1="323.5" y1="210.4" x2="348.1" y2="221.3" stroke="rgb(0,0,0)"  stroke-width="2.0"/>
<line x1="321.0" y1="215.8" x2="345.7" y2="226.8" stroke="rgb(0,0,0)"  stroke-width="2.0"/>
<line x1="322.2" y1="213.1" x2="300.4" y2="229.0" stroke="rgb(0,0,0)"  stroke-width="2.0"/>
<line x1="278.0" y1="231.3" x2="265.2" y2="225.6" stroke="rgb(0,0,0)"  stroke-width="2.0"/>
<line x1="331.5" y1="110.0" x2="351.5" y2="75.4" stroke="rgb(0,0,0)"  stroke-width="2.0"/>
<line x1="348.9" y1="76.9" x2="335.4" y2="53.5" stroke="rgb(0,0,0)"  stroke-width="2.0"/>
<line x1="354.1" y1="73.9" x2="340.6" y2="50.5" stroke="rgb(0,0,0)"  stroke-width="2.0"/>
<line x1="351.5" y1="75.4" x2="378.5" y2="75.4" stroke="rgb(0,0,0)"  stroke-width="2.0"/>
<line x1="398.0" y1="64.1" x2="405.0" y2="52.0" stroke="rgb(0,0,0)"  stroke-width="2.0"/>
<line x1="259.1" y1="86.8" x2="264.7" y2="60.4" stroke="rgb(0,0,0)"  stroke-width="2.0"/>
<line x1="264.9" y1="88.0" x2="270.6" y2="61.6" stroke="rgb(0,0,0)"  stroke-width="2.0"/>
<line x1="189.3" y1="79.8" x2="186.5" y2="52.9" stroke="rgb(0,0,0)"  stroke-width="2.0"/>
<line x1="107.8" y1="221.0" x2="142.4" y2="241.0" stroke="rgb(0,0,0)"  stroke-width="2.0"/>
<line x1="116.6" y1="217.8" x2="140.8" y2="231.8" stroke="rgb(0,0,0)"  stroke-width="2.0"/>
<line x1="142.4" y1="241.0" x2="162.5" y2="223.0" stroke="rgb(0,0,0)"  stroke-width="2.0"/>
<line x1="166.8" y1="202.4" x2="155.9" y2="177.7" stroke="rgb(0,0,0)"  stroke-width="2.0"/>
<line x1="155.9" y1="177.7" x2="116.1" y2="181.9" stroke="rgb(0,0,0)"  stroke-width="2.0"/>
<line x1="150.7" y1="185.5" x2="122.8" y2="188.4" stroke="rgb(0,0,0)"  stroke-width="2.0"/>
<line x1="116.1" y1="181.9" x2="107.8" y2="221.0" stroke="rgb(0,0,0)"  stroke-width="2.0"/>
<line x1="120.6" y1="343.5" x2="140.7" y2="325.4" stroke="rgb(0,0,0)"  stroke-width="2.0"/>
<line x1="145.1" y1="304.8" x2="134.1" y2="280.2" stroke="rgb(0,0,0)"  stroke-width="2.0"/>
<line x1="134.1" y1="280.2" x2="94.3" y2="284.3" stroke="rgb(0,0,0)"  stroke-width="2.0"/>
<line x1="128.9" y1="287.9" x2="101.0" y2="290.9" stroke="rgb(0,0,0)"  stroke-width="2.0"/>
<line x1="94.3" y1="284.3" x2="86.0" y2="323.5" stroke="rgb(0,0,0)"  stroke-width="2.0"/>
<line x1="86.0" y1="323.5" x2="120.6" y2="343.5" stroke="rgb(0,0,0)"  stroke-width="2.0"/>
<line x1="94.8" y1="320.2" x2="119.0" y2="334.2" stroke="rgb(0,0,0)"  stroke-width="2.0"/>
<line x1="342.5" y1="134.7" x2="331.5" y2="110.0" stroke="rgb(0,0,0)"  stroke-width="2.0"/>
<line x1="331.5" y1="110.0" x2="291.7" y2="114.2" stroke="rgb(0,0,0)"  stroke-width="2.0"/>
<line x1="326.3" y1="117.8" x2="298.5" y2="120.7" stroke="rgb(0,0,0)"  stroke-width="2.0"/>
<line x1="291.7" y1="114.2" x2="283.4" y2="153.3" stroke="rgb(0,0,0)"  stroke-width="2.0"/>
<line x1="283.4" y1="153.3" x2="318.1" y2="173.3" stroke="rgb(0,0,0)"  stroke-width="2.0"/>
<line x1="292.2" y1="150.1" x2="316.5" y2="164.1" stroke="rgb(0,0,0)"  stroke-width="2.0"/>
<line x1="318.1" y1="173.3" x2="338.1" y2="155.2" stroke="rgb(0,0,0)"  stroke-width="2.0"/>
<line x1="224.0" y1="99.8" x2="189.3" y2="79.8" stroke="rgb(0,0,0)"  stroke-width="2.0"/>
<line x1="215.2" y1="103.0" x2="190.9" y2="89.0" stroke="rgb(0,0,0)"  stroke-width="2.0"/>
<line x1="189.3" y1="79.8" x2="169.3" y2="97.8" stroke="rgb(0,0,0)"  stroke-width="2.0"/>
<line x1="164.9" y1="118.4" x2="175.9" y2="143.1" stroke="rgb(0,0,0)"  stroke-width="2.0"/>
<line x1="175.9" y1="143.1" x2="215.6" y2="138.9" stroke="rgb(0,0,0)"  stroke-width="2.0"/>
<line x1="181.1" y1="135.3" x2="208.9" y2="132.4" stroke="rgb(0,0,0)"  stroke-width="2.0"/>
<line x1="215.6" y1="138.9" x2="224.0" y2="99.8" stroke="rgb(0,0,0)"  stroke-width="2.0"/>
<line x1="134.1" y1="280.2" x2="142.4" y2="241.0" stroke="rgb(0,0,0)"  stroke-width="2.0"/>
<line x1="107.8" y1="221.0" x2="78.0" y2="247.8" stroke="rgb(0,0,0)"  stroke-width="2.0"/>
<line x1="78.0" y1="247.8" x2="94.3" y2="284.3" stroke="rgb(0,0,0)"  stroke-width="2.0"/>
<line x1="245.4" y1="165.7" x2="283.4" y2="153.3" stroke="rgb(0,0,0)"  stroke-width="2.0"/>
<line x1="291.7" y1="114.2" x2="262.0" y2="87.4" stroke="rgb(0,0,0)"  stroke-width="2.0"/>
<line x1="262.0" y1="87.4" x2="224.0" y2="99.8" stroke="rgb(0,0,0)"  stroke-width="2.0"/>
<line x1="215.6" y1="138.9" x2="245.4" y2="165.7" stroke="rgb(0,0,0)"  stroke-width="2.0"/>
<text x="385.511670" y="83.363266" fill="rgb(255,12,12)"  stroke="rgb(255,12,12)" stroke-width="1" font-size="16" >O</text>
<text x="352.778300" y="237.361666" fill="rgb(255,12,12)"  stroke="rgb(255,12,12)" stroke-width="1" font-size="16" >O</text>
<text x="283.875802" y="244.603610" fill="rgb(255,12,12)"  stroke="rgb(255,12,12)" stroke-width="1" font-size="16" >O</text>
<text x="227.333983" y="228.334145" fill="rgb(102,102,102)"  stroke="rgb(102,102,102)" stroke-width="1" font-size="16" >H</text>
<text x="239.333983" y="232.014145" fill="rgb(102,102,102)"  stroke="rgb(102,102,102)" stroke-width="1" font-size="13" >3</text>
<text x="245.833983" y="228.334145" fill="rgb(102,102,102)"  stroke="rgb(102,102,102)" stroke-width="1" font-size="16" >C</text>
<text x="341.781136" y="154.546100" fill="rgb(178,178,0)"  stroke="rgb(178,178,0)" stroke-width="1" font-size="16" >S</text>
<text x="325.511670" y="48.722249" fill="rgb(255,12,12)"  stroke="rgb(255,12,12)" stroke-width="1" font-size="16" >O</text>
<text x="407.511670" y="48.722249" fill="rgb(102,102,102)"  stroke="rgb(102,102,102)" stroke-width="1" font-size="16" >CH</text>
<text x="431.511670" y="52.402249" fill="rgb(102,102,102)"  stroke="rgb(102,102,102)" stroke-width="1" font-size="13" >3</text>
<text x="264.321469" y="56.294292" fill="rgb(255,12,12)"  stroke="rgb(255,12,12)" stroke-width="1" font-size="16" >O</text>
<text x="179.140586" y="48.000000" fill="rgb(191,191,191)"  stroke="rgb(191,191,191)" stroke-width="1" font-size="16" >H</text>
<text x="153.595931" y="114.546100" fill="rgb(178,178,0)"  stroke="rgb(178,178,0)" stroke-width="1" font-size="16" >S</text>
<text x="34.000000" y="268.161881" fill="rgb(191,191,191)"  stroke="rgb(191,191,191)" stroke-width="1" font-size="16" >H</text>
<text x="166.134863" y="222.270753" fill="rgb(178,178,0)"  stroke="rgb(178,178,0)" stroke-width="1" font-size="16" >S</text>
<text x="42.316468" y="229.035977" fill="rgb(191,191,191)"  stroke="rgb(191,191,191)" stroke-width="1" font-size="16" >H</text>
<text x="118.817413" y="391.249799" fill="rgb(191,191,191)"  stroke="rgb(191,191,191)" stroke-width="1" font-size="16" >H</text>
<text x="144.362068" y="324.703699" fill="rgb(178,178,0)"  stroke="rgb(178,178,0)" stroke-width="1" font-size="16" >S</text>
<text x="231.055598" y="212.797908" fill="rgb(255,12,12)"  stroke="rgb(255,12,12)" stroke-width="1" font-size="16" >O</text>
</svg>
</g>
<text font-size="18.000000" fill ="black" font-family="sans-serif"
x="10.000000" y="20.000000" ></text>
</svg>
