<?xml version="1.0"?>
<svg version="1.1" id="topsvg"
xmlns="http://www.w3.org/2000/svg" xmlns:xlink="http://www.w3.org/1999/xlink"
xmlns:cml="http://www.xml-cml.org/schema" x="0" y="0" width="200px" height="200px" viewBox="0 0 100 100">
<title> - Open Babel Depiction</title>
<rect x="0" y="0" width="100" height="100" fill="white"/>
<g transform="translate(0,0)">
<svg width="100" height="100" x="0" y="0" viewBox="0 0 472.389 280"
font-family="sans-serif" stroke="rgb(0,0,0)" stroke-width="2"  stroke-linecap="round">
<line x1="312.4" y1="140.0" x2="272.4" y2="140.0" stroke="rgb(0,0,0)"  stroke-width="2.0"/>
<line x1="248.9" y1="172.4" x2="257.2" y2="198.0" stroke="rgb(0,0,0)"  stroke-width="2.0"/>
<line x1="176.2" y1="180.0" x2="176.2" y2="207.0" stroke="rgb(0,0,0)"  stroke-width="2.0"/>
<line x1="164.9" y1="226.5" x2="152.8" y2="233.5" stroke="rgb(0,0,0)"  stroke-width="2.0"/>
<line x1="80.0" y1="140.0" x2="53.0" y2="140.0" stroke="rgb(0,0,0)"  stroke-width="2.0"/>
<line x1="103.5" y1="107.6" x2="95.2" y2="82.0" stroke="rgb(0,0,0)"  stroke-width="2.0"/>
<line x1="176.2" y1="100.0" x2="176.2" y2="73.0" stroke="rgb(0,0,0)"  stroke-width="2.0"/>
<line x1="164.9" y1="53.5" x2="152.8" y2="46.5" stroke="rgb(0,0,0)"  stroke-width="2.0"/>
<line x1="392.4" y1="140.0" x2="419.4" y2="140.0" stroke="rgb(0,0,0)"  stroke-width="2.0"/>
<line x1="372.4" y1="174.6" x2="385.9" y2="198.0" stroke="rgb(0,0,0)"  stroke-width="2.0"/>
<line x1="332.4" y1="174.6" x2="318.9" y2="198.0" stroke="rgb(0,0,0)"  stroke-width="2.0"/>
<line x1="210.8" y1="160.0" x2="210.8" y2="120.0" stroke="rgb(0,0,0)"  stroke-width="2.0"/>
<line x1="210.8" y1="120.0" x2="236.5" y2="111.7" stroke="rgb(0,0,0)"  stroke-width="2.0"/>
<line x1="256.5" y1="118.2" x2="272.4" y2="140.0" stroke="rgb(0,0,0)"  stroke-width="2.0"/>
<line x1="272.4" y1="140.0" x2="248.9" y2="172.4" stroke="rgb(0,0,0)"  stroke-width="2.0"/>
<line x1="263.0" y1="140.6" x2="246.6" y2="163.3" stroke="rgb(0,0,0)"  stroke-width="2.0"/>
<line x1="248.9" y1="172.4" x2="210.8" y2="160.0" stroke="rgb(0,0,0)"  stroke-width="2.0"/>
<line x1="80.0" y1="140.0" x2="103.5" y2="107.6" stroke="rgb(0,0,0)"  stroke-width="2.0"/>
<line x1="89.4" y1="139.4" x2="105.8" y2="116.7" stroke="rgb(0,0,0)"  stroke-width="2.0"/>
<line x1="103.5" y1="107.6" x2="141.6" y2="120.0" stroke="rgb(0,0,0)"  stroke-width="2.0"/>
<line x1="141.6" y1="120.0" x2="141.6" y2="160.0" stroke="rgb(0,0,0)"  stroke-width="2.0"/>
<line x1="134.4" y1="126.0" x2="134.4" y2="154.0" stroke="rgb(0,0,0)"  stroke-width="2.0"/>
<line x1="141.6" y1="160.0" x2="115.9" y2="168.3" stroke="rgb(0,0,0)"  stroke-width="2.0"/>
<line x1="95.9" y1="161.8" x2="80.0" y2="140.0" stroke="rgb(0,0,0)"  stroke-width="2.0"/>
<line x1="330.5" y1="59.7" x2="341.9" y2="51.4" stroke="rgb(0,0,0)"  stroke-width="2.0"/>
<line x1="362.9" y1="51.4" x2="374.2" y2="59.7" stroke="rgb(0,0,0)"  stroke-width="2.0"/>
<line x1="380.7" y1="79.9" x2="372.4" y2="105.4" stroke="rgb(0,0,0)"  stroke-width="2.0"/>
<line x1="373.2" y1="79.5" x2="367.4" y2="97.4" stroke="rgb(0,0,0)"  stroke-width="2.0"/>
<line x1="372.4" y1="105.4" x2="332.4" y2="105.4" stroke="rgb(0,0,0)"  stroke-width="2.0"/>
<line x1="332.4" y1="105.4" x2="324.1" y2="79.9" stroke="rgb(0,0,0)"  stroke-width="2.0"/>
<line x1="337.4" y1="97.4" x2="331.6" y2="79.5" stroke="rgb(0,0,0)"  stroke-width="2.0"/>
<line x1="141.6" y1="120.0" x2="176.2" y2="100.0" stroke="rgb(0,0,0)"  stroke-width="2.0"/>
<line x1="176.2" y1="100.0" x2="210.8" y2="120.0" stroke="rgb(0,0,0)"  stroke-width="2.0"/>
<line x1="177.8" y1="109.2" x2="202.0" y2="123.2" stroke="rgb(0,0,0)"  stroke-width="2.0"/>
<line x1="210.8" y1="160.0" x2="176.2" y2="180.0" stroke="rgb(0,0,0)"  stroke-width="2.0"/>
<line x1="202.0" y1="156.8" x2="177.8" y2="170.8" stroke="rgb(0,0,0)"  stroke-width="2.0"/>
<line x1="176.2" y1="180.0" x2="141.6" y2="160.0" stroke="rgb(0,0,0)"  stroke-width="2.0"/>
<line x1="372.4" y1="105.4" x2="392.4" y2="140.0" stroke="rgb(0,0,0)"  stroke-width="2.0"/>
<line x1="392.4" y1="140.0" x2="372.4" y2="174.6" stroke="rgb(0,0,0)"  stroke-width="2.0"/>
<line x1="383.2" y1="141.6" x2="369.2" y2="165.8" stroke="rgb(0,0,0)"  stroke-width="2.0"/>
<line x1="372.4" y1="174.6" x2="332.4" y2="174.6" stroke="rgb(0,0,0)"  stroke-width="2.0"/>
<line x1="332.4" y1="174.6" x2="312.4" y2="140.0" stroke="rgb(0,0,0)"  stroke-width="2.0"/>
<line x1="335.6" y1="165.8" x2="321.6" y2="141.6" stroke="rgb(0,0,0)"  stroke-width="2.0"/>
<line x1="312.4" y1="140.0" x2="332.4" y2="105.4" stroke="rgb(0,0,0)"  stroke-width="2.0"/>
<text x="306.389374" y="217.282032" fill="rgb(191,191,191)"  stroke="rgb(191,191,191)" stroke-width="1" font-size="16" >H</text>
<text x="386.389374" y="217.282032" fill="rgb(191,191,191)"  stroke="rgb(191,191,191)" stroke-width="1" font-size="16" >H</text>
<text x="426.389374" y="148.000000" fill="rgb(191,191,191)"  stroke="rgb(191,191,191)" stroke-width="1" font-size="16" >H</text>
<text x="378.750054" y="75.316723" fill="rgb(12,12,255)"  stroke="rgb(12,12,255)" stroke-width="1" font-size="16" >N</text>
<text x="346.389374" y="51.805313" fill="rgb(178,178,0)"  stroke="rgb(178,178,0)" stroke-width="1" font-size="16" >S</text>
<text x="314.028694" y="75.316723" fill="rgb(12,12,255)"  stroke="rgb(12,12,255)" stroke-width="1" font-size="16" >N</text>
<text x="242.877964" y="115.639320" fill="rgb(178,178,0)"  stroke="rgb(178,178,0)" stroke-width="1" font-size="16" >S</text>
<text x="115.553671" y="48.000000" fill="rgb(102,102,102)"  stroke="rgb(102,102,102)" stroke-width="1" font-size="16" >H</text>
<text x="127.553671" y="51.680000" fill="rgb(102,102,102)"  stroke="rgb(102,102,102)" stroke-width="1" font-size="13" >3</text>
<text x="134.053671" y="48.000000" fill="rgb(102,102,102)"  stroke="rgb(102,102,102)" stroke-width="1" font-size="16" >C</text>
<text x="170.194687" y="68.000000" fill="rgb(255,12,12)"  stroke="rgb(255,12,12)" stroke-width="1" font-size="16" >O</text>
<text x="73.150730" y="77.597060" fill="rgb(255,12,12)"  stroke="rgb(255,12,12)" stroke-width="1" font-size="16" >HO</text>
<text x="34.000000" y="148.000000" fill="rgb(191,191,191)"  stroke="rgb(191,191,191)" stroke-width="1" font-size="16" >H</text>
<text x="97.511410" y="180.360680" fill="rgb(178,178,0)"  stroke="rgb(178,178,0)" stroke-width="1" font-size="16" >S</text>
<text x="115.553671" y="248.000000" fill="rgb(102,102,102)"  stroke="rgb(102,102,102)" stroke-width="1" font-size="16" >H</text>
<text x="127.553671" y="251.680000" fill="rgb(102,102,102)"  stroke="rgb(102,102,102)" stroke-width="1" font-size="13" >3</text>
<text x="134.053671" y="248.000000" fill="rgb(102,102,102)"  stroke="rgb(102,102,102)" stroke-width="1" font-size="16" >C</text>
<text x="170.194687" y="228.000000" fill="rgb(255,12,12)"  stroke="rgb(255,12,12)" stroke-width="1" font-size="16" >O</text>
<text x="255.238643" y="218.402940" fill="rgb(255,12,12)"  stroke="rgb(255,12,12)" stroke-width="1" font-size="16" >OH</text>
</svg>
</g>
<text font-size="18.000000" fill ="black" font-family="sans-serif"
x="10.000000" y="20.000000" ></text>
</svg>
