<?xml version="1.0"?>
<svg version="1.1" id="topsvg"
xmlns="http://www.w3.org/2000/svg" xmlns:xlink="http://www.w3.org/1999/xlink"
xmlns:cml="http://www.xml-cml.org/schema" x="0" y="0" width="200px" height="200px" viewBox="0 0 100 100">
<title> - Open Babel Depiction</title>
<rect x="0" y="0" width="100" height="100" fill="white"/>
<g transform="translate(0,0)">
<svg width="100" height="100" x="0" y="0" viewBox="0 0 431.031 232.245"
font-family="sans-serif" stroke="rgb(0,0,0)" stroke-width="2"  stroke-linecap="round">
<line x1="120.5" y1="114.4" x2="154.2" y2="133.9" stroke="rgb(0,0,0)"  stroke-width="2.0"/>
<line x1="255.3" y1="101.4" x2="255.3" y2="88.5" stroke="rgb(0,0,0)"  stroke-width="2.0"/>
<line x1="248.8" y1="64.3" x2="242.3" y2="53.1" stroke="rgb(0,0,0)"  stroke-width="2.0"/>
<line x1="356.4" y1="133.9" x2="379.8" y2="120.4" stroke="rgb(0,0,0)"  stroke-width="2.0"/>
<line x1="66.0" y1="83.0" x2="48.7" y2="63.7" stroke="rgb(0,0,0)"  stroke-width="2.0"/>
<line x1="114.5" y1="69.8" x2="125.6" y2="63.3" stroke="rgb(0,0,0)"  stroke-width="2.0"/>
<line x1="117.5" y1="75.0" x2="128.6" y2="68.5" stroke="rgb(0,0,0)"  stroke-width="2.0"/>
<line x1="101.7" y1="65.9" x2="101.7" y2="53.0" stroke="rgb(0,0,0)"  stroke-width="2.0"/>
<line x1="107.7" y1="65.9" x2="107.7" y2="53.0" stroke="rgb(0,0,0)"  stroke-width="2.0"/>
<line x1="289.0" y1="133.9" x2="289.0" y2="172.8" stroke="rgb(0,0,0)"  stroke-width="2.0"/>
<line x1="289.0" y1="172.8" x2="221.6" y2="172.8" stroke="rgb(0,0,0)"  stroke-width="2.0"/>
<line x1="221.6" y1="172.8" x2="221.6" y2="133.9" stroke="rgb(0,0,0)"  stroke-width="2.0"/>
<line x1="228.8" y1="166.8" x2="228.8" y2="139.9" stroke="rgb(0,0,0)"  stroke-width="2.0"/>
<line x1="221.6" y1="133.9" x2="244.0" y2="120.9" stroke="rgb(0,0,0)"  stroke-width="2.0"/>
<line x1="266.6" y1="120.9" x2="289.0" y2="133.9" stroke="rgb(0,0,0)"  stroke-width="2.0"/>
<line x1="221.6" y1="172.8" x2="187.9" y2="192.2" stroke="rgb(0,0,0)"  stroke-width="2.0"/>
<line x1="187.9" y1="192.2" x2="154.2" y2="172.8" stroke="rgb(0,0,0)"  stroke-width="2.0"/>
<line x1="186.3" y1="183.0" x2="163.0" y2="169.6" stroke="rgb(0,0,0)"  stroke-width="2.0"/>
<line x1="154.2" y1="172.8" x2="154.2" y2="133.9" stroke="rgb(0,0,0)"  stroke-width="2.0"/>
<line x1="154.2" y1="133.9" x2="187.9" y2="114.4" stroke="rgb(0,0,0)"  stroke-width="2.0"/>
<line x1="163.0" y1="137.1" x2="186.3" y2="123.7" stroke="rgb(0,0,0)"  stroke-width="2.0"/>
<line x1="187.9" y1="114.4" x2="221.6" y2="133.9" stroke="rgb(0,0,0)"  stroke-width="2.0"/>
<line x1="322.7" y1="114.4" x2="289.0" y2="133.9" stroke="rgb(0,0,0)"  stroke-width="2.0"/>
<line x1="321.1" y1="123.6" x2="297.8" y2="137.1" stroke="rgb(0,0,0)"  stroke-width="2.0"/>
<line x1="289.0" y1="172.8" x2="322.7" y2="192.2" stroke="rgb(0,0,0)"  stroke-width="2.0"/>
<line x1="297.8" y1="169.6" x2="321.1" y2="183.0" stroke="rgb(0,0,0)"  stroke-width="2.0"/>
<line x1="322.7" y1="192.2" x2="356.4" y2="172.8" stroke="rgb(0,0,0)"  stroke-width="2.0"/>
<line x1="356.4" y1="172.8" x2="356.4" y2="133.9" stroke="rgb(0,0,0)"  stroke-width="2.0"/>
<line x1="349.2" y1="166.8" x2="349.2" y2="139.9" stroke="rgb(0,0,0)"  stroke-width="2.0"/>
<line x1="356.4" y1="133.9" x2="322.7" y2="114.4" stroke="rgb(0,0,0)"  stroke-width="2.0"/>
<line x1="57.9" y1="121.0" x2="66.0" y2="83.0" stroke="rgb(0,0,0)"  stroke-width="2.0"/>
<line x1="66.2" y1="116.6" x2="71.8" y2="90.3" stroke="rgb(0,0,0)"  stroke-width="2.0"/>
<line x1="66.0" y1="83.0" x2="91.8" y2="80.3" stroke="rgb(0,0,0)"  stroke-width="2.0"/>
<line x1="110.0" y1="90.8" x2="120.5" y2="114.4" stroke="rgb(0,0,0)"  stroke-width="2.0"/>
<line x1="120.5" y1="114.4" x2="91.6" y2="140.5" stroke="rgb(0,0,0)"  stroke-width="2.0"/>
<line x1="111.3" y1="113.1" x2="91.3" y2="131.1" stroke="rgb(0,0,0)"  stroke-width="2.0"/>
<line x1="91.6" y1="140.5" x2="57.9" y2="121.0" stroke="rgb(0,0,0)"  stroke-width="2.0"/>
<text x="98.709866" y="48.000000" fill="rgb(255,12,12)"  stroke="rgb(255,12,12)" stroke-width="1" font-size="16" >O</text>
<text x="132.397448" y="67.445457" fill="rgb(255,12,12)"  stroke="rgb(255,12,12)" stroke-width="1" font-size="16" >O</text>
<text x="98.713397" y="86.897030" fill="rgb(178,178,0)"  stroke="rgb(178,178,0)" stroke-width="1" font-size="16" >S</text>
<text x="34.000000" y="62.062625" fill="rgb(191,191,191)"  stroke="rgb(191,191,191)" stroke-width="1" font-size="16" >H</text>
<text x="385.030752" y="121.856424" fill="rgb(191,191,191)"  stroke="rgb(191,191,191)" stroke-width="1" font-size="16" >H</text>
<text x="209.835675" y="49.839443" fill="rgb(102,102,102)"  stroke="rgb(102,102,102)" stroke-width="1" font-size="16" >H</text>
<text x="221.835675" y="53.519443" fill="rgb(102,102,102)"  stroke="rgb(102,102,102)" stroke-width="1" font-size="13" >3</text>
<text x="228.335675" y="49.839443" fill="rgb(102,102,102)"  stroke="rgb(102,102,102)" stroke-width="1" font-size="16" >C</text>
<text x="249.290605" y="83.521555" fill="rgb(255,12,12)"  stroke="rgb(255,12,12)" stroke-width="1" font-size="16" >O</text>
<text x="249.298012" y="122.418585" fill="rgb(12,12,255)"  stroke="rgb(12,12,255)" stroke-width="1" font-size="16" >N</text>
</svg>
</g>
<text font-size="18.000000" fill ="black" font-family="sans-serif"
x="10.000000" y="20.000000" ></text>
</svg>
