<?xml version="1.0"?>
<svg version="1.1" id="topsvg"
xmlns="http://www.w3.org/2000/svg" xmlns:xlink="http://www.w3.org/1999/xlink"
xmlns:cml="http://www.xml-cml.org/schema" x="0" y="0" width="200px" height="200px" viewBox="0 0 100 100">
<title> - Open Babel Depiction</title>
<rect x="0" y="0" width="100" height="100" fill="white"/>
<g transform="translate(0,0)">
<svg width="100" height="100" x="0" y="0" viewBox="0 0 377.3 423.32"
font-family="sans-serif" stroke="rgb(0,0,0)" stroke-width="2"  stroke-linecap="round">
<line x1="174.9" y1="138.5" x2="155.8" y2="171.6" stroke="rgb(0,0,0)"  stroke-width="2.0"/>
<line x1="117.8" y1="175.6" x2="92.2" y2="147.2" stroke="rgb(0,0,0)"  stroke-width="2.0"/>
<line x1="92.2" y1="147.2" x2="75.3" y2="128.4" stroke="rgb(0,0,0)"  stroke-width="2.0"/>
<line x1="89.1" y1="150.0" x2="72.2" y2="131.2" stroke="rgb(0,0,0)"  stroke-width="2.0"/>
<line x1="95.3" y1="144.4" x2="78.4" y2="125.6" stroke="rgb(0,0,0)"  stroke-width="2.0"/>
<line x1="109.8" y1="212.9" x2="74.9" y2="228.5" stroke="rgb(0,0,0)"  stroke-width="2.0"/>
<line x1="74.9" y1="228.5" x2="51.9" y2="238.7" stroke="rgb(0,0,0)"  stroke-width="2.0"/>
<line x1="76.6" y1="232.3" x2="53.6" y2="242.6" stroke="rgb(0,0,0)"  stroke-width="2.0"/>
<line x1="73.2" y1="224.6" x2="50.2" y2="234.9" stroke="rgb(0,0,0)"  stroke-width="2.0"/>
<line x1="142.9" y1="232.0" x2="146.9" y2="270.0" stroke="rgb(0,0,0)"  stroke-width="2.0"/>
<line x1="134.0" y1="330.5" x2="121.4" y2="352.4" stroke="rgb(0,0,0)"  stroke-width="2.0"/>
<line x1="172.0" y1="326.5" x2="197.6" y2="354.9" stroke="rgb(0,0,0)"  stroke-width="2.0"/>
<line x1="197.6" y1="354.9" x2="214.5" y2="373.7" stroke="rgb(0,0,0)"  stroke-width="2.0"/>
<line x1="200.7" y1="352.1" x2="217.6" y2="370.8" stroke="rgb(0,0,0)"  stroke-width="2.0"/>
<line x1="194.5" y1="357.7" x2="211.4" y2="376.5" stroke="rgb(0,0,0)"  stroke-width="2.0"/>
<line x1="180.0" y1="289.2" x2="214.9" y2="273.6" stroke="rgb(0,0,0)"  stroke-width="2.0"/>
<line x1="214.9" y1="273.6" x2="237.9" y2="263.4" stroke="rgb(0,0,0)"  stroke-width="2.0"/>
<line x1="213.2" y1="269.8" x2="236.2" y2="259.5" stroke="rgb(0,0,0)"  stroke-width="2.0"/>
<line x1="216.6" y1="277.4" x2="239.6" y2="267.2" stroke="rgb(0,0,0)"  stroke-width="2.0"/>
<line x1="248.9" y1="153.3" x2="251.6" y2="178.3" stroke="rgb(0,0,0)"  stroke-width="2.0"/>
<line x1="243.0" y1="153.9" x2="245.6" y2="179.0" stroke="rgb(0,0,0)"  stroke-width="2.0"/>
<line x1="287.1" y1="130.7" x2="299.0" y2="133.3" stroke="rgb(0,0,0)"  stroke-width="2.0"/>
<line x1="320.4" y1="126.3" x2="328.6" y2="117.2" stroke="rgb(0,0,0)"  stroke-width="2.0"/>
<line x1="258.8" y1="93.1" x2="271.4" y2="71.3" stroke="rgb(0,0,0)"  stroke-width="2.0"/>
<line x1="184.7" y1="78.3" x2="182.1" y2="53.2" stroke="rgb(0,0,0)"  stroke-width="2.0"/>
<line x1="190.7" y1="77.7" x2="188.1" y2="52.6" stroke="rgb(0,0,0)"  stroke-width="2.0"/>
<line x1="166.4" y1="114.5" x2="209.1" y2="180.2" stroke="rgb(0,0,0)"  stroke-width="2.0"/>
<line x1="203.2" y1="191.1" x2="191.0" y2="191.1" stroke="rgb(0,0,0)"  stroke-width="2.0"/>
<line x1="109.8" y1="212.9" x2="142.9" y2="232.0" stroke="rgb(0,0,0)"  stroke-width="2.0"/>
<line x1="118.6" y1="209.7" x2="141.3" y2="222.8" stroke="rgb(0,0,0)"  stroke-width="2.0"/>
<line x1="142.9" y1="232.0" x2="161.6" y2="215.2" stroke="rgb(0,0,0)"  stroke-width="2.0"/>
<line x1="166.0" y1="194.6" x2="155.8" y2="171.6" stroke="rgb(0,0,0)"  stroke-width="2.0"/>
<line x1="155.8" y1="171.6" x2="117.8" y2="175.6" stroke="rgb(0,0,0)"  stroke-width="2.0"/>
<line x1="150.5" y1="179.4" x2="124.5" y2="182.1" stroke="rgb(0,0,0)"  stroke-width="2.0"/>
<line x1="117.8" y1="175.6" x2="109.8" y2="212.9" stroke="rgb(0,0,0)"  stroke-width="2.0"/>
<line x1="134.0" y1="330.5" x2="172.0" y2="326.5" stroke="rgb(0,0,0)"  stroke-width="2.0"/>
<line x1="139.3" y1="322.7" x2="165.3" y2="320.0" stroke="rgb(0,0,0)"  stroke-width="2.0"/>
<line x1="172.0" y1="326.5" x2="180.0" y2="289.2" stroke="rgb(0,0,0)"  stroke-width="2.0"/>
<line x1="180.0" y1="289.2" x2="146.9" y2="270.0" stroke="rgb(0,0,0)"  stroke-width="2.0"/>
<line x1="171.2" y1="292.4" x2="148.5" y2="279.3" stroke="rgb(0,0,0)"  stroke-width="2.0"/>
<line x1="146.9" y1="270.0" x2="128.2" y2="286.9" stroke="rgb(0,0,0)"  stroke-width="2.0"/>
<line x1="123.8" y1="307.5" x2="134.0" y2="330.5" stroke="rgb(0,0,0)"  stroke-width="2.0"/>
<line x1="246.0" y1="153.6" x2="264.7" y2="136.7" stroke="rgb(0,0,0)"  stroke-width="2.0"/>
<line x1="269.1" y1="116.1" x2="258.8" y2="93.1" stroke="rgb(0,0,0)"  stroke-width="2.0"/>
<line x1="258.8" y1="93.1" x2="220.8" y2="97.1" stroke="rgb(0,0,0)"  stroke-width="2.0"/>
<line x1="253.6" y1="100.9" x2="227.5" y2="103.6" stroke="rgb(0,0,0)"  stroke-width="2.0"/>
<line x1="220.8" y1="97.1" x2="212.9" y2="134.5" stroke="rgb(0,0,0)"  stroke-width="2.0"/>
<line x1="212.9" y1="134.5" x2="246.0" y2="153.6" stroke="rgb(0,0,0)"  stroke-width="2.0"/>
<line x1="220.8" y1="97.1" x2="187.7" y2="78.0" stroke="rgb(0,0,0)"  stroke-width="2.0"/>
<line x1="187.7" y1="78.0" x2="169.0" y2="94.9" stroke="rgb(0,0,0)"  stroke-width="2.0"/>
<line x1="164.6" y1="115.4" x2="174.9" y2="138.5" stroke="rgb(0,0,0)"  stroke-width="2.0"/>
<line x1="174.9" y1="138.5" x2="212.9" y2="134.5" stroke="rgb(0,0,0)"  stroke-width="2.0"/>
<line x1="180.1" y1="130.7" x2="206.1" y2="127.9" stroke="rgb(0,0,0)"  stroke-width="2.0"/>
<text x="243.807242" y="266.067952" fill="rgb(12,12,255)"  stroke="rgb(12,12,255)" stroke-width="1" font-size="16" >N</text>
<text x="243.953940" y="199.590184" fill="rgb(255,12,12)"  stroke="rgb(255,12,12)" stroke-width="1" font-size="16" >O</text>
<text x="268.356083" y="136.020428" fill="rgb(12,12,255)"  stroke="rgb(12,12,255)" stroke-width="1" font-size="16" >N</text>
<text x="305.732040" y="143.964933" fill="rgb(255,12,12)"  stroke="rgb(255,12,12)" stroke-width="1" font-size="16" >O</text>
<text x="333.300161" y="115.568657" fill="rgb(102,102,102)"  stroke="rgb(102,102,102)" stroke-width="1" font-size="16" >CH</text>
<text x="357.300161" y="119.248657" fill="rgb(102,102,102)"  stroke="rgb(102,102,102)" stroke-width="1" font-size="13" >3</text>
<text x="271.919765" y="68.021320" fill="rgb(191,191,191)"  stroke="rgb(191,191,191)" stroke-width="1" font-size="16" >H</text>
<text x="177.726859" y="48.000000" fill="rgb(255,12,12)"  stroke="rgb(255,12,12)" stroke-width="1" font-size="16" >O</text>
<text x="153.324716" y="111.569756" fill="rgb(12,12,255)"  stroke="rgb(12,12,255)" stroke-width="1" font-size="16" >N</text>
<text x="210.171298" y="199.142451" fill="rgb(255,12,12)"  stroke="rgb(255,12,12)" stroke-width="1" font-size="16" >O</text>
<text x="151.960340" y="199.142451" fill="rgb(102,102,102)"  stroke="rgb(102,102,102)" stroke-width="1" font-size="16" >H</text>
<text x="163.960340" y="202.822451" fill="rgb(102,102,102)"  stroke="rgb(102,102,102)" stroke-width="1" font-size="13" >3</text>
<text x="170.460340" y="199.142451" fill="rgb(102,102,102)"  stroke="rgb(102,102,102)" stroke-width="1" font-size="16" >C</text>
<text x="165.302830" y="214.476311" fill="rgb(178,178,0)"  stroke="rgb(178,178,0)" stroke-width="1" font-size="16" >S</text>
<text x="60.623156" y="126.770445" fill="rgb(12,12,255)"  stroke="rgb(12,12,255)" stroke-width="1" font-size="16" >N</text>
<text x="34.000000" y="252.022547" fill="rgb(12,12,255)"  stroke="rgb(12,12,255)" stroke-width="1" font-size="16" >N</text>
<text x="112.504412" y="303.614188" fill="rgb(178,178,0)"  stroke="rgb(178,178,0)" stroke-width="1" font-size="16" >S</text>
<text x="108.940729" y="371.613295" fill="rgb(191,191,191)"  stroke="rgb(191,191,191)" stroke-width="1" font-size="16" >H</text>
<text x="217.184086" y="391.320054" fill="rgb(12,12,255)"  stroke="rgb(12,12,255)" stroke-width="1" font-size="16" >N</text>
</svg>
</g>
<text font-size="18.000000" fill ="black" font-family="sans-serif"
x="10.000000" y="20.000000" ></text>
</svg>
