<?xml version="1.0"?>
<svg version="1.1" id="topsvg"
xmlns="http://www.w3.org/2000/svg" xmlns:xlink="http://www.w3.org/1999/xlink"
xmlns:cml="http://www.xml-cml.org/schema" x="0" y="0" width="200px" height="200px" viewBox="0 0 100 100">
<title> - Open Babel Depiction</title>
<rect x="0" y="0" width="100" height="100" fill="white"/>
<g transform="translate(0,0)">
<svg width="100" height="100" x="0" y="0" viewBox="0 0 518.864 361.544"
font-family="sans-serif" stroke="rgb(0,0,0)" stroke-width="2"  stroke-linecap="round">
<line x1="312.4" y1="241.5" x2="272.4" y2="241.5" stroke="rgb(0,0,0)"  stroke-width="2.0"/>
<line x1="248.9" y1="273.9" x2="257.2" y2="299.6" stroke="rgb(0,0,0)"  stroke-width="2.0"/>
<line x1="176.2" y1="281.5" x2="176.2" y2="308.5" stroke="rgb(0,0,0)"  stroke-width="2.0"/>
<line x1="80.0" y1="241.5" x2="53.0" y2="241.5" stroke="rgb(0,0,0)"  stroke-width="2.0"/>
<line x1="103.5" y1="209.2" x2="95.2" y2="183.5" stroke="rgb(0,0,0)"  stroke-width="2.0"/>
<line x1="176.2" y1="201.5" x2="176.2" y2="174.5" stroke="rgb(0,0,0)"  stroke-width="2.0"/>
<line x1="326.7" y1="172.9" x2="301.0" y2="164.6" stroke="rgb(0,0,0)"  stroke-width="2.0"/>
<line x1="328.5" y1="167.2" x2="302.8" y2="158.9" stroke="rgb(0,0,0)"  stroke-width="2.0"/>
<line x1="357.3" y1="103.3" x2="335.5" y2="87.4" stroke="rgb(0,0,0)"  stroke-width="2.0"/>
<line x1="326.3" y1="66.9" x2="327.8" y2="52.9" stroke="rgb(0,0,0)"  stroke-width="2.0"/>
<line x1="418.9" y1="123.3" x2="445.9" y2="123.3" stroke="rgb(0,0,0)"  stroke-width="2.0"/>
<line x1="465.4" y1="134.6" x2="472.4" y2="146.7" stroke="rgb(0,0,0)"  stroke-width="2.0"/>
<line x1="404.6" y1="191.9" x2="430.3" y2="200.3" stroke="rgb(0,0,0)"  stroke-width="2.0"/>
<line x1="402.7" y1="197.6" x2="428.4" y2="206.0" stroke="rgb(0,0,0)"  stroke-width="2.0"/>
<line x1="373.9" y1="261.5" x2="395.8" y2="277.4" stroke="rgb(0,0,0)"  stroke-width="2.0"/>
<line x1="210.8" y1="261.5" x2="210.8" y2="221.5" stroke="rgb(0,0,0)"  stroke-width="2.0"/>
<line x1="210.8" y1="221.5" x2="236.5" y2="213.2" stroke="rgb(0,0,0)"  stroke-width="2.0"/>
<line x1="256.5" y1="219.7" x2="272.4" y2="241.5" stroke="rgb(0,0,0)"  stroke-width="2.0"/>
<line x1="272.4" y1="241.5" x2="248.9" y2="273.9" stroke="rgb(0,0,0)"  stroke-width="2.0"/>
<line x1="263.0" y1="242.2" x2="246.6" y2="264.8" stroke="rgb(0,0,0)"  stroke-width="2.0"/>
<line x1="248.9" y1="273.9" x2="210.8" y2="261.5" stroke="rgb(0,0,0)"  stroke-width="2.0"/>
<line x1="80.0" y1="241.5" x2="103.5" y2="209.2" stroke="rgb(0,0,0)"  stroke-width="2.0"/>
<line x1="89.4" y1="240.9" x2="105.8" y2="218.3" stroke="rgb(0,0,0)"  stroke-width="2.0"/>
<line x1="103.5" y1="209.2" x2="141.6" y2="221.5" stroke="rgb(0,0,0)"  stroke-width="2.0"/>
<line x1="141.6" y1="221.5" x2="141.6" y2="261.5" stroke="rgb(0,0,0)"  stroke-width="2.0"/>
<line x1="134.4" y1="227.5" x2="134.4" y2="255.5" stroke="rgb(0,0,0)"  stroke-width="2.0"/>
<line x1="141.6" y1="261.5" x2="115.9" y2="269.9" stroke="rgb(0,0,0)"  stroke-width="2.0"/>
<line x1="95.9" y1="263.4" x2="80.0" y2="241.5" stroke="rgb(0,0,0)"  stroke-width="2.0"/>
<line x1="403.0" y1="101.4" x2="418.9" y2="123.3" stroke="rgb(0,0,0)"  stroke-width="2.0"/>
<line x1="418.9" y1="123.3" x2="395.4" y2="155.7" stroke="rgb(0,0,0)"  stroke-width="2.0"/>
<line x1="409.5" y1="123.9" x2="393.1" y2="146.6" stroke="rgb(0,0,0)"  stroke-width="2.0"/>
<line x1="395.4" y1="155.7" x2="357.3" y2="143.3" stroke="rgb(0,0,0)"  stroke-width="2.0"/>
<line x1="357.3" y1="143.3" x2="357.3" y2="103.3" stroke="rgb(0,0,0)"  stroke-width="2.0"/>
<line x1="364.5" y1="137.3" x2="364.5" y2="109.3" stroke="rgb(0,0,0)"  stroke-width="2.0"/>
<line x1="357.3" y1="103.3" x2="383.0" y2="94.9" stroke="rgb(0,0,0)"  stroke-width="2.0"/>
<line x1="373.9" y1="221.5" x2="373.9" y2="261.5" stroke="rgb(0,0,0)"  stroke-width="2.0"/>
<line x1="366.7" y1="227.5" x2="366.7" y2="255.5" stroke="rgb(0,0,0)"  stroke-width="2.0"/>
<line x1="373.9" y1="261.5" x2="348.3" y2="269.9" stroke="rgb(0,0,0)"  stroke-width="2.0"/>
<line x1="328.3" y1="263.4" x2="312.4" y2="241.5" stroke="rgb(0,0,0)"  stroke-width="2.0"/>
<line x1="312.4" y1="241.5" x2="335.9" y2="209.2" stroke="rgb(0,0,0)"  stroke-width="2.0"/>
<line x1="321.7" y1="240.9" x2="338.2" y2="218.3" stroke="rgb(0,0,0)"  stroke-width="2.0"/>
<line x1="335.9" y1="209.2" x2="373.9" y2="221.5" stroke="rgb(0,0,0)"  stroke-width="2.0"/>
<line x1="141.6" y1="221.5" x2="176.2" y2="201.5" stroke="rgb(0,0,0)"  stroke-width="2.0"/>
<line x1="176.2" y1="201.5" x2="210.8" y2="221.5" stroke="rgb(0,0,0)"  stroke-width="2.0"/>
<line x1="177.8" y1="210.8" x2="202.0" y2="224.8" stroke="rgb(0,0,0)"  stroke-width="2.0"/>
<line x1="210.8" y1="261.5" x2="176.2" y2="281.5" stroke="rgb(0,0,0)"  stroke-width="2.0"/>
<line x1="202.0" y1="258.3" x2="177.8" y2="272.3" stroke="rgb(0,0,0)"  stroke-width="2.0"/>
<line x1="176.2" y1="281.5" x2="141.6" y2="261.5" stroke="rgb(0,0,0)"  stroke-width="2.0"/>
<line x1="327.6" y1="170.1" x2="357.3" y2="143.3" stroke="rgb(0,0,0)"  stroke-width="2.0"/>
<line x1="395.4" y1="155.7" x2="403.7" y2="194.8" stroke="rgb(0,0,0)"  stroke-width="2.0"/>
<line x1="403.7" y1="194.8" x2="373.9" y2="221.5" stroke="rgb(0,0,0)"  stroke-width="2.0"/>
<line x1="335.9" y1="209.2" x2="327.6" y2="170.1" stroke="rgb(0,0,0)"  stroke-width="2.0"/>
<text x="452.863780" y="131.292286" fill="rgb(255,12,12)"  stroke="rgb(255,12,12)" stroke-width="1" font-size="16" >O</text>
<text x="283.542056" y="165.696830" fill="rgb(255,12,12)"  stroke="rgb(255,12,12)" stroke-width="1" font-size="16" >O</text>
<text x="318.949429" y="87.780876" fill="rgb(255,12,12)"  stroke="rgb(255,12,12)" stroke-width="1" font-size="16" >O</text>
<text x="325.130568" y="48.000000" fill="rgb(102,102,102)"  stroke="rgb(102,102,102)" stroke-width="1" font-size="16" >CH</text>
<text x="349.130568" y="51.680000" fill="rgb(102,102,102)"  stroke="rgb(102,102,102)" stroke-width="1" font-size="13" >3</text>
<text x="389.352370" y="98.931606" fill="rgb(178,178,0)"  stroke="rgb(178,178,0)" stroke-width="1" font-size="16" >S</text>
<text x="474.863780" y="165.933302" fill="rgb(102,102,102)"  stroke="rgb(102,102,102)" stroke-width="1" font-size="16" >CH</text>
<text x="498.863780" y="169.613302" fill="rgb(102,102,102)"  stroke="rgb(102,102,102)" stroke-width="1" font-size="13" >3</text>
<text x="435.711098" y="215.139549" fill="rgb(255,12,12)"  stroke="rgb(255,12,12)" stroke-width="1" font-size="16" >O</text>
<text x="400.303724" y="293.055504" fill="rgb(191,191,191)"  stroke="rgb(191,191,191)" stroke-width="1" font-size="16" >H</text>
<text x="329.900784" y="281.904774" fill="rgb(178,178,0)"  stroke="rgb(178,178,0)" stroke-width="1" font-size="16" >S</text>
<text x="255.238643" y="319.947034" fill="rgb(30,239,30)"  stroke="rgb(30,239,30)" stroke-width="1" font-size="16" >Cl</text>
<text x="170.194687" y="329.544094" fill="rgb(191,191,191)"  stroke="rgb(191,191,191)" stroke-width="1" font-size="16" >H</text>
<text x="97.511410" y="281.904774" fill="rgb(178,178,0)"  stroke="rgb(178,178,0)" stroke-width="1" font-size="16" >S</text>
<text x="34.000000" y="249.544094" fill="rgb(191,191,191)"  stroke="rgb(191,191,191)" stroke-width="1" font-size="16" >H</text>
<text x="73.150730" y="179.141154" fill="rgb(30,239,30)"  stroke="rgb(30,239,30)" stroke-width="1" font-size="16" >Cl</text>
<text x="170.194687" y="169.544094" fill="rgb(191,191,191)"  stroke="rgb(191,191,191)" stroke-width="1" font-size="16" >H</text>
<text x="242.877964" y="217.183414" fill="rgb(178,178,0)"  stroke="rgb(178,178,0)" stroke-width="1" font-size="16" >S</text>
</svg>
</g>
<text font-size="18.000000" fill ="black" font-family="sans-serif"
x="10.000000" y="20.000000" ></text>
</svg>
