<?xml version="1.0"?>
<svg version="1.1" id="topsvg"
xmlns="http://www.w3.org/2000/svg" xmlns:xlink="http://www.w3.org/1999/xlink"
xmlns:cml="http://www.xml-cml.org/schema" x="0" y="0" width="200px" height="200px" viewBox="0 0 100 100">
<title> - Open Babel Depiction</title>
<rect x="0" y="0" width="100" height="100" fill="white"/>
<g transform="translate(0,0)">
<svg width="100" height="100" x="0" y="0" viewBox="0 0 477.454 302.764"
font-family="sans-serif" stroke="rgb(0,0,0)" stroke-width="2"  stroke-linecap="round">
<line x1="165.1" y1="162.8" x2="205.1" y2="162.8" stroke="rgb(0,0,0)"  stroke-width="2.0"/>
<line x1="228.6" y1="130.4" x2="220.2" y2="104.7" stroke="rgb(0,0,0)"  stroke-width="2.0"/>
<line x1="301.3" y1="122.8" x2="301.3" y2="95.8" stroke="rgb(0,0,0)"  stroke-width="2.0"/>
<line x1="312.5" y1="76.3" x2="324.6" y2="69.3" stroke="rgb(0,0,0)"  stroke-width="2.0"/>
<line x1="397.5" y1="162.8" x2="424.5" y2="162.8" stroke="rgb(0,0,0)"  stroke-width="2.0"/>
<line x1="373.9" y1="195.1" x2="382.3" y2="220.8" stroke="rgb(0,0,0)"  stroke-width="2.0"/>
<line x1="301.3" y1="202.8" x2="301.3" y2="229.8" stroke="rgb(0,0,0)"  stroke-width="2.0"/>
<line x1="312.5" y1="249.3" x2="324.6" y2="256.3" stroke="rgb(0,0,0)"  stroke-width="2.0"/>
<line x1="139.8" y1="88.0" x2="161.6" y2="72.1" stroke="rgb(0,0,0)"  stroke-width="2.0"/>
<line x1="143.3" y1="92.8" x2="165.2" y2="77.0" stroke="rgb(0,0,0)"  stroke-width="2.0"/>
<line x1="99.5" y1="65.7" x2="95.2" y2="52.4" stroke="rgb(0,0,0)"  stroke-width="2.0"/>
<line x1="80.0" y1="113.4" x2="53.0" y2="113.4" stroke="rgb(0,0,0)"  stroke-width="2.0"/>
<line x1="80.0" y1="107.4" x2="53.0" y2="107.4" stroke="rgb(0,0,0)"  stroke-width="2.0"/>
<line x1="103.5" y1="182.8" x2="81.7" y2="198.6" stroke="rgb(0,0,0)"  stroke-width="2.0"/>
<line x1="266.6" y1="142.8" x2="266.6" y2="182.8" stroke="rgb(0,0,0)"  stroke-width="2.0"/>
<line x1="266.6" y1="182.8" x2="240.9" y2="191.1" stroke="rgb(0,0,0)"  stroke-width="2.0"/>
<line x1="220.9" y1="184.6" x2="205.1" y2="162.8" stroke="rgb(0,0,0)"  stroke-width="2.0"/>
<line x1="205.1" y1="162.8" x2="228.6" y2="130.4" stroke="rgb(0,0,0)"  stroke-width="2.0"/>
<line x1="214.4" y1="162.1" x2="230.9" y2="139.5" stroke="rgb(0,0,0)"  stroke-width="2.0"/>
<line x1="228.6" y1="130.4" x2="266.6" y2="142.8" stroke="rgb(0,0,0)"  stroke-width="2.0"/>
<line x1="397.5" y1="162.8" x2="373.9" y2="195.1" stroke="rgb(0,0,0)"  stroke-width="2.0"/>
<line x1="388.1" y1="163.4" x2="371.6" y2="186.0" stroke="rgb(0,0,0)"  stroke-width="2.0"/>
<line x1="373.9" y1="195.1" x2="335.9" y2="182.8" stroke="rgb(0,0,0)"  stroke-width="2.0"/>
<line x1="335.9" y1="182.8" x2="335.9" y2="142.8" stroke="rgb(0,0,0)"  stroke-width="2.0"/>
<line x1="343.1" y1="176.8" x2="343.1" y2="148.8" stroke="rgb(0,0,0)"  stroke-width="2.0"/>
<line x1="335.9" y1="142.8" x2="361.6" y2="134.4" stroke="rgb(0,0,0)"  stroke-width="2.0"/>
<line x1="381.6" y1="140.9" x2="397.5" y2="162.8" stroke="rgb(0,0,0)"  stroke-width="2.0"/>
<line x1="103.5" y1="142.8" x2="103.5" y2="182.8" stroke="rgb(0,0,0)"  stroke-width="2.0"/>
<line x1="110.7" y1="148.8" x2="110.7" y2="176.8" stroke="rgb(0,0,0)"  stroke-width="2.0"/>
<line x1="103.5" y1="182.8" x2="129.2" y2="191.1" stroke="rgb(0,0,0)"  stroke-width="2.0"/>
<line x1="149.2" y1="184.6" x2="165.1" y2="162.8" stroke="rgb(0,0,0)"  stroke-width="2.0"/>
<line x1="165.1" y1="162.8" x2="141.6" y2="130.4" stroke="rgb(0,0,0)"  stroke-width="2.0"/>
<line x1="155.7" y1="162.1" x2="139.3" y2="139.5" stroke="rgb(0,0,0)"  stroke-width="2.0"/>
<line x1="141.6" y1="130.4" x2="103.5" y2="142.8" stroke="rgb(0,0,0)"  stroke-width="2.0"/>
<line x1="335.9" y1="182.8" x2="301.3" y2="202.8" stroke="rgb(0,0,0)"  stroke-width="2.0"/>
<line x1="301.3" y1="202.8" x2="266.6" y2="182.8" stroke="rgb(0,0,0)"  stroke-width="2.0"/>
<line x1="299.7" y1="193.5" x2="275.4" y2="179.5" stroke="rgb(0,0,0)"  stroke-width="2.0"/>
<line x1="266.6" y1="142.8" x2="301.3" y2="122.8" stroke="rgb(0,0,0)"  stroke-width="2.0"/>
<line x1="275.4" y1="146.0" x2="299.7" y2="132.0" stroke="rgb(0,0,0)"  stroke-width="2.0"/>
<line x1="301.3" y1="122.8" x2="335.9" y2="142.8" stroke="rgb(0,0,0)"  stroke-width="2.0"/>
<line x1="141.6" y1="90.4" x2="115.9" y2="82.1" stroke="rgb(0,0,0)"  stroke-width="2.0"/>
<line x1="95.9" y1="88.6" x2="80.0" y2="110.4" stroke="rgb(0,0,0)"  stroke-width="2.0"/>
<line x1="80.0" y1="110.4" x2="103.5" y2="142.8" stroke="rgb(0,0,0)"  stroke-width="2.0"/>
<line x1="141.6" y1="130.4" x2="141.6" y2="90.4" stroke="rgb(0,0,0)"  stroke-width="2.0"/>
<text x="135.553671" y="203.124300" fill="rgb(178,178,0)"  stroke="rgb(178,178,0)" stroke-width="1" font-size="16" >S</text>
<text x="65.150730" y="214.275030" fill="rgb(191,191,191)"  stroke="rgb(191,191,191)" stroke-width="1" font-size="16" >H</text>
<text x="34.000000" y="118.402940" fill="rgb(255,12,12)"  stroke="rgb(255,12,12)" stroke-width="1" font-size="16" >O</text>
<text x="65.150730" y="48.000000" fill="rgb(102,102,102)"  stroke="rgb(102,102,102)" stroke-width="1" font-size="16" >H</text>
<text x="77.150730" y="51.680000" fill="rgb(102,102,102)"  stroke="rgb(102,102,102)" stroke-width="1" font-size="13" >3</text>
<text x="83.650730" y="48.000000" fill="rgb(102,102,102)"  stroke="rgb(102,102,102)" stroke-width="1" font-size="16" >C</text>
<text x="97.511410" y="86.042261" fill="rgb(12,12,255)"  stroke="rgb(12,12,255)" stroke-width="1" font-size="16" >N</text>
<text x="167.914351" y="74.891530" fill="rgb(255,12,12)"  stroke="rgb(255,12,12)" stroke-width="1" font-size="16" >O</text>
<text x="222.576491" y="203.124300" fill="rgb(178,178,0)"  stroke="rgb(178,178,0)" stroke-width="1" font-size="16" >S</text>
<text x="331.900784" y="270.763620" fill="rgb(102,102,102)"  stroke="rgb(102,102,102)" stroke-width="1" font-size="16" >CH</text>
<text x="355.900784" y="274.443620" fill="rgb(102,102,102)"  stroke="rgb(102,102,102)" stroke-width="1" font-size="13" >3</text>
<text x="295.259768" y="250.763620" fill="rgb(255,12,12)"  stroke="rgb(255,12,12)" stroke-width="1" font-size="16" >O</text>
<text x="380.303724" y="241.166561" fill="rgb(255,12,12)"  stroke="rgb(255,12,12)" stroke-width="1" font-size="16" >OH</text>
<text x="431.454455" y="170.763620" fill="rgb(191,191,191)"  stroke="rgb(191,191,191)" stroke-width="1" font-size="16" >H</text>
<text x="367.943045" y="138.402940" fill="rgb(178,178,0)"  stroke="rgb(178,178,0)" stroke-width="1" font-size="16" >S</text>
<text x="331.900784" y="70.763620" fill="rgb(102,102,102)"  stroke="rgb(102,102,102)" stroke-width="1" font-size="16" >CH</text>
<text x="355.900784" y="74.443620" fill="rgb(102,102,102)"  stroke="rgb(102,102,102)" stroke-width="1" font-size="13" >3</text>
<text x="295.259768" y="90.763620" fill="rgb(255,12,12)"  stroke="rgb(255,12,12)" stroke-width="1" font-size="16" >O</text>
<text x="198.215811" y="100.360680" fill="rgb(255,12,12)"  stroke="rgb(255,12,12)" stroke-width="1" font-size="16" >HO</text>
</svg>
</g>
<text font-size="18.000000" fill ="black" font-family="sans-serif"
x="10.000000" y="20.000000" ></text>
</svg>
