<?xml version="1.0"?>
<svg version="1.1" id="topsvg"
xmlns="http://www.w3.org/2000/svg" xmlns:xlink="http://www.w3.org/1999/xlink"
xmlns:cml="http://www.xml-cml.org/schema" x="0" y="0" width="200px" height="200px" viewBox="0 0 100 100">
<title> - Open Babel Depiction</title>
<rect x="0" y="0" width="100" height="100" fill="white"/>
<g transform="translate(0,0)">
<svg width="100" height="100" x="0" y="0" viewBox="0 0 472.389 280.118"
font-family="sans-serif" stroke="rgb(0,0,0)" stroke-width="2"  stroke-linecap="round">
<line x1="160.0" y1="143.9" x2="200.0" y2="143.9" stroke="rgb(0,0,0)"  stroke-width="2.0"/>
<line x1="223.5" y1="111.6" x2="215.2" y2="85.9" stroke="rgb(0,0,0)"  stroke-width="2.0"/>
<line x1="296.2" y1="103.9" x2="296.2" y2="76.9" stroke="rgb(0,0,0)"  stroke-width="2.0"/>
<line x1="392.4" y1="143.9" x2="419.4" y2="143.9" stroke="rgb(0,0,0)"  stroke-width="2.0"/>
<line x1="368.9" y1="176.3" x2="377.2" y2="202.0" stroke="rgb(0,0,0)"  stroke-width="2.0"/>
<line x1="296.2" y1="183.9" x2="296.2" y2="210.9" stroke="rgb(0,0,0)"  stroke-width="2.0"/>
<line x1="80.0" y1="143.9" x2="53.0" y2="143.9" stroke="rgb(0,0,0)"  stroke-width="2.0"/>
<line x1="100.0" y1="109.3" x2="80.0" y2="74.6" stroke="rgb(0,0,0)"  stroke-width="2.0"/>
<line x1="80.0" y1="74.6" x2="66.5" y2="51.3" stroke="rgb(0,0,0)"  stroke-width="2.0"/>
<line x1="76.4" y1="76.7" x2="62.9" y2="53.4" stroke="rgb(0,0,0)"  stroke-width="2.0"/>
<line x1="83.6" y1="72.5" x2="70.1" y2="49.2" stroke="rgb(0,0,0)"  stroke-width="2.0"/>
<line x1="140.0" y1="109.3" x2="160.0" y2="74.6" stroke="rgb(0,0,0)"  stroke-width="2.0"/>
<line x1="160.0" y1="74.6" x2="173.5" y2="51.3" stroke="rgb(0,0,0)"  stroke-width="2.0"/>
<line x1="156.4" y1="72.5" x2="169.9" y2="49.2" stroke="rgb(0,0,0)"  stroke-width="2.0"/>
<line x1="163.6" y1="76.7" x2="177.1" y2="53.4" stroke="rgb(0,0,0)"  stroke-width="2.0"/>
<line x1="261.6" y1="123.9" x2="261.6" y2="163.9" stroke="rgb(0,0,0)"  stroke-width="2.0"/>
<line x1="261.6" y1="163.9" x2="235.9" y2="172.3" stroke="rgb(0,0,0)"  stroke-width="2.0"/>
<line x1="215.9" y1="165.8" x2="200.0" y2="143.9" stroke="rgb(0,0,0)"  stroke-width="2.0"/>
<line x1="200.0" y1="143.9" x2="223.5" y2="111.6" stroke="rgb(0,0,0)"  stroke-width="2.0"/>
<line x1="209.4" y1="143.3" x2="225.8" y2="120.6" stroke="rgb(0,0,0)"  stroke-width="2.0"/>
<line x1="223.5" y1="111.6" x2="261.6" y2="123.9" stroke="rgb(0,0,0)"  stroke-width="2.0"/>
<line x1="392.4" y1="143.9" x2="368.9" y2="176.3" stroke="rgb(0,0,0)"  stroke-width="2.0"/>
<line x1="383.0" y1="144.5" x2="366.6" y2="167.2" stroke="rgb(0,0,0)"  stroke-width="2.0"/>
<line x1="368.9" y1="176.3" x2="330.8" y2="163.9" stroke="rgb(0,0,0)"  stroke-width="2.0"/>
<line x1="330.8" y1="163.9" x2="330.8" y2="123.9" stroke="rgb(0,0,0)"  stroke-width="2.0"/>
<line x1="338.0" y1="157.9" x2="338.0" y2="129.9" stroke="rgb(0,0,0)"  stroke-width="2.0"/>
<line x1="330.8" y1="123.9" x2="356.5" y2="115.6" stroke="rgb(0,0,0)"  stroke-width="2.0"/>
<line x1="376.5" y1="122.1" x2="392.4" y2="143.9" stroke="rgb(0,0,0)"  stroke-width="2.0"/>
<line x1="141.8" y1="224.2" x2="130.5" y2="232.5" stroke="rgb(0,0,0)"  stroke-width="2.0"/>
<line x1="109.5" y1="232.5" x2="98.2" y2="224.2" stroke="rgb(0,0,0)"  stroke-width="2.0"/>
<line x1="91.7" y1="204.1" x2="100.0" y2="178.6" stroke="rgb(0,0,0)"  stroke-width="2.0"/>
<line x1="99.2" y1="204.4" x2="105.0" y2="186.5" stroke="rgb(0,0,0)"  stroke-width="2.0"/>
<line x1="100.0" y1="178.6" x2="140.0" y2="178.6" stroke="rgb(0,0,0)"  stroke-width="2.0"/>
<line x1="140.0" y1="178.6" x2="148.3" y2="204.1" stroke="rgb(0,0,0)"  stroke-width="2.0"/>
<line x1="135.0" y1="186.5" x2="140.8" y2="204.4" stroke="rgb(0,0,0)"  stroke-width="2.0"/>
<line x1="330.8" y1="163.9" x2="296.2" y2="183.9" stroke="rgb(0,0,0)"  stroke-width="2.0"/>
<line x1="296.2" y1="183.9" x2="261.6" y2="163.9" stroke="rgb(0,0,0)"  stroke-width="2.0"/>
<line x1="294.6" y1="174.7" x2="270.3" y2="160.7" stroke="rgb(0,0,0)"  stroke-width="2.0"/>
<line x1="261.6" y1="123.9" x2="296.2" y2="103.9" stroke="rgb(0,0,0)"  stroke-width="2.0"/>
<line x1="270.3" y1="127.2" x2="294.6" y2="113.2" stroke="rgb(0,0,0)"  stroke-width="2.0"/>
<line x1="296.2" y1="103.9" x2="330.8" y2="123.9" stroke="rgb(0,0,0)"  stroke-width="2.0"/>
<line x1="100.0" y1="178.6" x2="80.0" y2="143.9" stroke="rgb(0,0,0)"  stroke-width="2.0"/>
<line x1="80.0" y1="143.9" x2="100.0" y2="109.3" stroke="rgb(0,0,0)"  stroke-width="2.0"/>
<line x1="89.2" y1="142.3" x2="103.2" y2="118.1" stroke="rgb(0,0,0)"  stroke-width="2.0"/>
<line x1="100.0" y1="109.3" x2="140.0" y2="109.3" stroke="rgb(0,0,0)"  stroke-width="2.0"/>
<line x1="140.0" y1="109.3" x2="160.0" y2="143.9" stroke="rgb(0,0,0)"  stroke-width="2.0"/>
<line x1="136.8" y1="118.1" x2="150.8" y2="142.3" stroke="rgb(0,0,0)"  stroke-width="2.0"/>
<line x1="160.0" y1="143.9" x2="140.0" y2="178.6" stroke="rgb(0,0,0)"  stroke-width="2.0"/>
<text x="292.194687" y="231.923048" fill="rgb(102,102,102)"  stroke="rgb(102,102,102)" stroke-width="1" font-size="16" >CH</text>
<text x="316.194687" y="235.603048" fill="rgb(102,102,102)"  stroke="rgb(102,102,102)" stroke-width="1" font-size="13" >3</text>
<text x="174.000000" y="48.000000" fill="rgb(12,12,255)"  stroke="rgb(12,12,255)" stroke-width="1" font-size="16" >N</text>
<text x="54.000000" y="48.000000" fill="rgb(12,12,255)"  stroke="rgb(12,12,255)" stroke-width="1" font-size="16" >N</text>
<text x="34.000000" y="151.923048" fill="rgb(191,191,191)"  stroke="rgb(191,191,191)" stroke-width="1" font-size="16" >H</text>
<text x="81.639320" y="224.606325" fill="rgb(12,12,255)"  stroke="rgb(12,12,255)" stroke-width="1" font-size="16" >N</text>
<text x="114.000000" y="248.117735" fill="rgb(178,178,0)"  stroke="rgb(178,178,0)" stroke-width="1" font-size="16" >S</text>
<text x="146.360680" y="224.606325" fill="rgb(12,12,255)"  stroke="rgb(12,12,255)" stroke-width="1" font-size="16" >N</text>
<text x="217.511410" y="184.283728" fill="rgb(178,178,0)"  stroke="rgb(178,178,0)" stroke-width="1" font-size="16" >S</text>
<text x="375.238643" y="222.325989" fill="rgb(30,239,30)"  stroke="rgb(30,239,30)" stroke-width="1" font-size="16" >Cl</text>
<text x="426.389374" y="151.923048" fill="rgb(191,191,191)"  stroke="rgb(191,191,191)" stroke-width="1" font-size="16" >H</text>
<text x="362.877964" y="119.562369" fill="rgb(178,178,0)"  stroke="rgb(178,178,0)" stroke-width="1" font-size="16" >S</text>
<text x="292.194687" y="71.923048" fill="rgb(102,102,102)"  stroke="rgb(102,102,102)" stroke-width="1" font-size="16" >CH</text>
<text x="316.194687" y="75.603048" fill="rgb(102,102,102)"  stroke="rgb(102,102,102)" stroke-width="1" font-size="13" >3</text>
<text x="193.150730" y="81.520108" fill="rgb(30,239,30)"  stroke="rgb(30,239,30)" stroke-width="1" font-size="16" >Cl</text>
</svg>
</g>
<text font-size="18.000000" fill ="black" font-family="sans-serif"
x="10.000000" y="20.000000" ></text>
</svg>
