<?xml version="1.0"?>
<svg version="1.1" id="topsvg"
xmlns="http://www.w3.org/2000/svg" xmlns:xlink="http://www.w3.org/1999/xlink"
xmlns:cml="http://www.xml-cml.org/schema" x="0" y="0" width="200px" height="200px" viewBox="0 0 100 100">
<title> - Open Babel Depiction</title>
<rect x="0" y="0" width="100" height="100" fill="white"/>
<g transform="translate(0,0)">
<svg width="100" height="100" x="0" y="0" viewBox="0 0 393.103 377.438"
font-family="sans-serif" stroke="rgb(0,0,0)" stroke-width="2"  stroke-linecap="round">
<line x1="214.0" y1="178.1" x2="248.8" y2="158.6" stroke="rgb(0,0,0)"  stroke-width="2.0"/>
<line x1="284.1" y1="99.3" x2="284.4" y2="72.5" stroke="rgb(0,0,0)"  stroke-width="2.0"/>
<line x1="296.0" y1="53.1" x2="308.0" y2="46.3" stroke="rgb(0,0,0)"  stroke-width="2.0"/>
<line x1="318.3" y1="119.7" x2="341.8" y2="106.6" stroke="rgb(0,0,0)"  stroke-width="2.0"/>
<line x1="283.0" y1="179.0" x2="282.7" y2="205.9" stroke="rgb(0,0,0)"  stroke-width="2.0"/>
<line x1="271.1" y1="225.2" x2="259.1" y2="232.0" stroke="rgb(0,0,0)"  stroke-width="2.0"/>
<line x1="179.7" y1="275.5" x2="202.9" y2="289.4" stroke="rgb(0,0,0)"  stroke-width="2.0"/>
<line x1="176.6" y1="280.7" x2="199.8" y2="294.5" stroke="rgb(0,0,0)"  stroke-width="2.0"/>
<line x1="143.3" y1="310.4" x2="143.2" y2="324.1" stroke="rgb(0,0,0)"  stroke-width="2.0"/>
<line x1="156.1" y1="337.2" x2="169.8" y2="337.3" stroke="rgb(0,0,0)"  stroke-width="2.0"/>
<line x1="110.0" y1="279.8" x2="86.5" y2="293.1" stroke="rgb(0,0,0)"  stroke-width="2.0"/>
<line x1="107.0" y1="274.6" x2="83.5" y2="287.9" stroke="rgb(0,0,0)"  stroke-width="2.0"/>
<line x1="74.8" y1="216.2" x2="51.3" y2="229.5" stroke="rgb(0,0,0)"  stroke-width="2.0"/>
<line x1="109.0" y1="119.2" x2="85.8" y2="105.5" stroke="rgb(0,0,0)"  stroke-width="2.0"/>
<line x1="112.1" y1="114.1" x2="88.9" y2="100.3" stroke="rgb(0,0,0)"  stroke-width="2.0"/>
<line x1="145.7" y1="83.9" x2="145.9" y2="69.7" stroke="rgb(0,0,0)"  stroke-width="2.0"/>
<line x1="133.9" y1="52.1" x2="120.7" y2="47.0" stroke="rgb(0,0,0)"  stroke-width="2.0"/>
<line x1="178.8" y1="114.9" x2="202.4" y2="101.7" stroke="rgb(0,0,0)"  stroke-width="2.0"/>
<line x1="181.8" y1="120.2" x2="205.3" y2="107.0" stroke="rgb(0,0,0)"  stroke-width="2.0"/>
<line x1="284.1" y1="99.3" x2="318.3" y2="119.7" stroke="rgb(0,0,0)"  stroke-width="2.0"/>
<line x1="285.6" y1="108.6" x2="309.5" y2="122.8" stroke="rgb(0,0,0)"  stroke-width="2.0"/>
<line x1="318.3" y1="119.7" x2="317.8" y2="159.5" stroke="rgb(0,0,0)"  stroke-width="2.0"/>
<line x1="317.8" y1="159.5" x2="283.0" y2="179.0" stroke="rgb(0,0,0)"  stroke-width="2.0"/>
<line x1="309.0" y1="156.2" x2="284.7" y2="169.8" stroke="rgb(0,0,0)"  stroke-width="2.0"/>
<line x1="283.0" y1="179.0" x2="248.8" y2="158.6" stroke="rgb(0,0,0)"  stroke-width="2.0"/>
<line x1="248.8" y1="158.6" x2="249.3" y2="118.8" stroke="rgb(0,0,0)"  stroke-width="2.0"/>
<line x1="256.1" y1="152.7" x2="256.4" y2="124.9" stroke="rgb(0,0,0)"  stroke-width="2.0"/>
<line x1="249.3" y1="118.8" x2="284.1" y2="99.3" stroke="rgb(0,0,0)"  stroke-width="2.0"/>
<line x1="178.7" y1="237.9" x2="144.0" y2="217.1" stroke="rgb(0,0,0)"  stroke-width="2.0"/>
<line x1="177.3" y1="228.7" x2="152.9" y2="214.0" stroke="rgb(0,0,0)"  stroke-width="2.0"/>
<line x1="144.0" y1="217.1" x2="144.5" y2="177.2" stroke="rgb(0,0,0)"  stroke-width="2.0"/>
<line x1="144.5" y1="177.2" x2="179.8" y2="157.7" stroke="rgb(0,0,0)"  stroke-width="2.0"/>
<line x1="153.3" y1="180.6" x2="178.0" y2="166.9" stroke="rgb(0,0,0)"  stroke-width="2.0"/>
<line x1="179.8" y1="157.7" x2="214.0" y2="178.1" stroke="rgb(0,0,0)"  stroke-width="2.0"/>
<line x1="214.0" y1="178.1" x2="213.5" y2="218.0" stroke="rgb(0,0,0)"  stroke-width="2.0"/>
<line x1="206.7" y1="184.0" x2="206.4" y2="211.9" stroke="rgb(0,0,0)"  stroke-width="2.0"/>
<line x1="213.5" y1="218.0" x2="178.7" y2="237.9" stroke="rgb(0,0,0)"  stroke-width="2.0"/>
<line x1="108.5" y1="277.2" x2="109.0" y2="237.0" stroke="rgb(0,0,0)"  stroke-width="2.0"/>
<line x1="109.0" y1="237.0" x2="144.0" y2="217.1" stroke="rgb(0,0,0)"  stroke-width="2.0"/>
<line x1="178.7" y1="237.9" x2="178.2" y2="278.1" stroke="rgb(0,0,0)"  stroke-width="2.0"/>
<line x1="178.2" y1="278.1" x2="154.8" y2="291.0" stroke="rgb(0,0,0)"  stroke-width="2.0"/>
<line x1="132.2" y1="290.9" x2="108.5" y2="277.2" stroke="rgb(0,0,0)"  stroke-width="2.0"/>
<line x1="75.3" y1="176.3" x2="110.0" y2="156.8" stroke="rgb(0,0,0)"  stroke-width="2.0"/>
<line x1="84.0" y1="179.6" x2="108.3" y2="166.0" stroke="rgb(0,0,0)"  stroke-width="2.0"/>
<line x1="110.0" y1="156.8" x2="144.5" y2="177.2" stroke="rgb(0,0,0)"  stroke-width="2.0"/>
<line x1="109.0" y1="237.0" x2="74.8" y2="216.2" stroke="rgb(0,0,0)"  stroke-width="2.0"/>
<line x1="107.6" y1="227.8" x2="83.6" y2="213.2" stroke="rgb(0,0,0)"  stroke-width="2.0"/>
<line x1="74.8" y1="216.2" x2="75.3" y2="176.3" stroke="rgb(0,0,0)"  stroke-width="2.0"/>
<line x1="156.7" y1="103.6" x2="180.3" y2="117.6" stroke="rgb(0,0,0)"  stroke-width="2.0"/>
<line x1="180.3" y1="117.6" x2="179.8" y2="157.7" stroke="rgb(0,0,0)"  stroke-width="2.0"/>
<line x1="110.0" y1="156.8" x2="110.6" y2="116.6" stroke="rgb(0,0,0)"  stroke-width="2.0"/>
<line x1="110.6" y1="116.6" x2="134.2" y2="103.3" stroke="rgb(0,0,0)"  stroke-width="2.0"/>
<text x="70.171305" y="104.247835" fill="rgb(255,12,12)"  stroke="rgb(255,12,12)" stroke-width="1" font-size="16" >O</text>
<text x="67.706302" y="304.936950" fill="rgb(255,12,12)"  stroke="rgb(255,12,12)" stroke-width="1" font-size="16" >O</text>
<text x="34.000000" y="243.949116" fill="rgb(191,191,191)"  stroke="rgb(191,191,191)" stroke-width="1" font-size="16" >H</text>
<text x="178.827730" y="345.437721" fill="rgb(102,102,102)"  stroke="rgb(102,102,102)" stroke-width="1" font-size="16" >CH</text>
<text x="202.827730" y="349.117721" fill="rgb(102,102,102)"  stroke="rgb(102,102,102)" stroke-width="1" font-size="13" >3</text>
<text x="139.570333" y="104.914820" fill="rgb(12,12,255)"  stroke="rgb(12,12,255)" stroke-width="1" font-size="16" >N</text>
<text x="140.035598" y="64.736744" fill="rgb(255,12,12)"  stroke="rgb(255,12,12)" stroke-width="1" font-size="16" >O</text>
<text x="82.524453" y="50.335065" fill="rgb(102,102,102)"  stroke="rgb(102,102,102)" stroke-width="1" font-size="16" >H</text>
<text x="94.524453" y="54.015065" fill="rgb(102,102,102)"  stroke="rgb(102,102,102)" stroke-width="1" font-size="13" >3</text>
<text x="101.024453" y="50.335065" fill="rgb(102,102,102)"  stroke="rgb(102,102,102)" stroke-width="1" font-size="16" >C</text>
<text x="209.182937" y="106.008897" fill="rgb(255,12,12)"  stroke="rgb(255,12,12)" stroke-width="1" font-size="16" >O</text>
<text x="278.616412" y="67.462575" fill="rgb(255,12,12)"  stroke="rgb(255,12,12)" stroke-width="1" font-size="16" >O</text>
<text x="315.392704" y="48.000000" fill="rgb(102,102,102)"  stroke="rgb(102,102,102)" stroke-width="1" font-size="16" >CH</text>
<text x="339.392704" y="51.680000" fill="rgb(102,102,102)"  stroke="rgb(102,102,102)" stroke-width="1" font-size="13" >3</text>
<text x="347.102873" y="108.234305" fill="rgb(191,191,191)"  stroke="rgb(191,191,191)" stroke-width="1" font-size="16" >H</text>
<text x="276.484166" y="226.856335" fill="rgb(255,12,12)"  stroke="rgb(255,12,12)" stroke-width="1" font-size="16" >O</text>
<text x="221.707874" y="246.318910" fill="rgb(102,102,102)"  stroke="rgb(102,102,102)" stroke-width="1" font-size="16" >H</text>
<text x="233.707874" y="249.998910" fill="rgb(102,102,102)"  stroke="rgb(102,102,102)" stroke-width="1" font-size="13" >3</text>
<text x="240.207874" y="246.318910" fill="rgb(102,102,102)"  stroke="rgb(102,102,102)" stroke-width="1" font-size="16" >C</text>
<text x="206.524718" y="306.606715" fill="rgb(255,12,12)"  stroke="rgb(255,12,12)" stroke-width="1" font-size="16" >O</text>
<text x="137.430454" y="305.353782" fill="rgb(12,12,255)"  stroke="rgb(12,12,255)" stroke-width="1" font-size="16" >N</text>
<text x="137.087123" y="345.094390" fill="rgb(255,12,12)"  stroke="rgb(255,12,12)" stroke-width="1" font-size="16" >O</text>
</svg>
</g>
<text font-size="18.000000" fill ="black" font-family="sans-serif"
x="10.000000" y="20.000000" ></text>
</svg>
