<?xml version="1.0"?>
<svg version="1.1" id="topsvg"
xmlns="http://www.w3.org/2000/svg" xmlns:xlink="http://www.w3.org/1999/xlink"
xmlns:cml="http://www.xml-cml.org/schema" x="0" y="0" width="200px" height="200px" viewBox="0 0 100 100">
<title> - Open Babel Depiction</title>
<rect x="0" y="0" width="100" height="100" fill="white"/>
<g transform="translate(0,0)">
<svg width="100" height="100" x="0" y="0" viewBox="0 0 475.922 302.586"
font-family="sans-serif" stroke="rgb(0,0,0)" stroke-width="2"  stroke-linecap="round">
<line x1="332.4" y1="133.7" x2="295.9" y2="150.0" stroke="rgb(0,0,0)"  stroke-width="2.0"/>
<line x1="287.6" y1="189.1" x2="305.6" y2="209.2" stroke="rgb(0,0,0)"  stroke-width="2.0"/>
<line x1="247.8" y1="193.3" x2="227.8" y2="227.9" stroke="rgb(0,0,0)"  stroke-width="2.0"/>
<line x1="227.8" y1="227.9" x2="214.3" y2="251.3" stroke="rgb(0,0,0)"  stroke-width="2.0"/>
<line x1="231.4" y1="230.0" x2="217.9" y2="253.4" stroke="rgb(0,0,0)"  stroke-width="2.0"/>
<line x1="224.2" y1="225.8" x2="210.7" y2="249.2" stroke="rgb(0,0,0)"  stroke-width="2.0"/>
<line x1="231.5" y1="156.8" x2="192.4" y2="148.4" stroke="rgb(0,0,0)"  stroke-width="2.0"/>
<line x1="189.5" y1="149.4" x2="177.2" y2="111.3" stroke="rgb(0,0,0)"  stroke-width="2.0"/>
<line x1="195.2" y1="147.5" x2="182.9" y2="109.5" stroke="rgb(0,0,0)"  stroke-width="2.0"/>
<line x1="180.0" y1="110.4" x2="140.9" y2="102.1" stroke="rgb(0,0,0)"  stroke-width="2.0"/>
<line x1="111.2" y1="128.9" x2="115.4" y2="168.6" stroke="rgb(0,0,0)"  stroke-width="2.0"/>
<line x1="115.4" y1="168.6" x2="118.2" y2="195.5" stroke="rgb(0,0,0)"  stroke-width="2.0"/>
<line x1="119.5" y1="168.2" x2="122.4" y2="195.0" stroke="rgb(0,0,0)"  stroke-width="2.0"/>
<line x1="111.2" y1="169.1" x2="114.0" y2="195.9" stroke="rgb(0,0,0)"  stroke-width="2.0"/>
<line x1="76.5" y1="108.9" x2="51.9" y2="119.8" stroke="rgb(0,0,0)"  stroke-width="2.0"/>
<line x1="84.9" y1="69.7" x2="66.8" y2="49.7" stroke="rgb(0,0,0)"  stroke-width="2.0"/>
<line x1="396.8" y1="127.0" x2="423.2" y2="132.6" stroke="rgb(0,0,0)"  stroke-width="2.0"/>
<line x1="364.5" y1="166.8" x2="358.8" y2="179.6" stroke="rgb(0,0,0)"  stroke-width="2.0"/>
<line x1="359.0" y1="164.4" x2="353.3" y2="177.2" stroke="rgb(0,0,0)"  stroke-width="2.0"/>
<line x1="377.1" y1="162.5" x2="385.4" y2="173.8" stroke="rgb(0,0,0)"  stroke-width="2.0"/>
<line x1="372.3" y1="166.0" x2="380.5" y2="177.3" stroke="rgb(0,0,0)"  stroke-width="2.0"/>
<line x1="247.8" y1="193.3" x2="231.5" y2="156.8" stroke="rgb(0,0,0)"  stroke-width="2.0"/>
<line x1="251.9" y1="184.9" x2="240.5" y2="159.3" stroke="rgb(0,0,0)"  stroke-width="2.0"/>
<line x1="231.5" y1="156.8" x2="251.6" y2="138.7" stroke="rgb(0,0,0)"  stroke-width="2.0"/>
<line x1="272.5" y1="136.5" x2="295.9" y2="150.0" stroke="rgb(0,0,0)"  stroke-width="2.0"/>
<line x1="295.9" y1="150.0" x2="287.6" y2="189.1" stroke="rgb(0,0,0)"  stroke-width="2.0"/>
<line x1="287.6" y1="154.4" x2="281.8" y2="181.8" stroke="rgb(0,0,0)"  stroke-width="2.0"/>
<line x1="287.6" y1="189.1" x2="247.8" y2="193.3" stroke="rgb(0,0,0)"  stroke-width="2.0"/>
<line x1="76.5" y1="108.9" x2="84.9" y2="69.7" stroke="rgb(0,0,0)"  stroke-width="2.0"/>
<line x1="84.8" y1="104.5" x2="90.7" y2="77.1" stroke="rgb(0,0,0)"  stroke-width="2.0"/>
<line x1="84.9" y1="69.7" x2="111.7" y2="66.9" stroke="rgb(0,0,0)"  stroke-width="2.0"/>
<line x1="129.9" y1="77.4" x2="140.9" y2="102.1" stroke="rgb(0,0,0)"  stroke-width="2.0"/>
<line x1="140.9" y1="102.1" x2="111.2" y2="128.9" stroke="rgb(0,0,0)"  stroke-width="2.0"/>
<line x1="131.6" y1="100.8" x2="110.8" y2="119.5" stroke="rgb(0,0,0)"  stroke-width="2.0"/>
<line x1="111.2" y1="128.9" x2="76.5" y2="108.9" stroke="rgb(0,0,0)"  stroke-width="2.0"/>
<line x1="380.5" y1="90.4" x2="396.8" y2="127.0" stroke="rgb(0,0,0)"  stroke-width="2.0"/>
<line x1="376.4" y1="98.8" x2="387.8" y2="124.4" stroke="rgb(0,0,0)"  stroke-width="2.0"/>
<line x1="396.8" y1="127.0" x2="376.7" y2="145.0" stroke="rgb(0,0,0)"  stroke-width="2.0"/>
<line x1="355.8" y1="147.2" x2="332.4" y2="133.7" stroke="rgb(0,0,0)"  stroke-width="2.0"/>
<line x1="332.4" y1="133.7" x2="340.7" y2="94.6" stroke="rgb(0,0,0)"  stroke-width="2.0"/>
<line x1="340.7" y1="129.4" x2="346.5" y2="102.0" stroke="rgb(0,0,0)"  stroke-width="2.0"/>
<line x1="340.7" y1="94.6" x2="380.5" y2="90.4" stroke="rgb(0,0,0)"  stroke-width="2.0"/>
<text x="384.582169" y="194.087659" fill="rgb(255,12,12)"  stroke="rgb(255,12,12)" stroke-width="1" font-size="16" >O</text>
<text x="344.801293" y="198.268797" fill="rgb(255,12,12)"  stroke="rgb(255,12,12)" stroke-width="1" font-size="16" >O</text>
<text x="361.070759" y="161.726979" fill="rgb(178,178,0)"  stroke="rgb(178,178,0)" stroke-width="1" font-size="16" >S</text>
<text x="429.922456" y="143.278222" fill="rgb(191,191,191)"  stroke="rgb(191,191,191)" stroke-width="1" font-size="16" >H</text>
<text x="118.639162" y="73.544654" fill="rgb(178,178,0)"  stroke="rgb(178,178,0)" stroke-width="1" font-size="16" >S</text>
<text x="52.093062" y="48.000000" fill="rgb(191,191,191)"  stroke="rgb(191,191,191)" stroke-width="1" font-size="16" >H</text>
<text x="22.000000" y="133.121163" fill="rgb(30,239,30)"  stroke="rgb(30,239,30)" stroke-width="1" font-size="16" >Cl</text>
<text x="113.545112" y="216.413449" fill="rgb(12,12,255)"  stroke="rgb(12,12,255)" stroke-width="1" font-size="16" >N</text>
<text x="255.246908" y="137.996444" fill="rgb(178,178,0)"  stroke="rgb(178,178,0)" stroke-width="1" font-size="16" >S</text>
<text x="201.790581" y="270.585519" fill="rgb(12,12,255)"  stroke="rgb(12,12,255)" stroke-width="1" font-size="16" >N</text>
<text x="308.336681" y="226.848142" fill="rgb(30,239,30)"  stroke="rgb(30,239,30)" stroke-width="1" font-size="16" >Cl</text>
</svg>
</g>
<text font-size="18.000000" fill ="black" font-family="sans-serif"
x="10.000000" y="20.000000" ></text>
</svg>
