<?xml version="1.0"?>
<svg version="1.1" id="topsvg"
xmlns="http://www.w3.org/2000/svg" xmlns:xlink="http://www.w3.org/1999/xlink"
xmlns:cml="http://www.xml-cml.org/schema" x="0" y="0" width="200px" height="200px" viewBox="0 0 100 100">
<title> - Open Babel Depiction</title>
<rect x="0" y="0" width="100" height="100" fill="white"/>
<g transform="translate(0,0)">
<svg width="100" height="100" x="0" y="0" viewBox="0 0 446.211 543.128"
font-family="sans-serif" stroke="rgb(0,0,0)" stroke-width="2"  stroke-linecap="round">
<line x1="227.9" y1="281.5" x2="209.5" y2="313.5" stroke="rgb(0,0,0)"  stroke-width="2.0"/>
<line x1="137.7" y1="378.1" x2="102.5" y2="389.5" stroke="rgb(0,0,0)"  stroke-width="2.0"/>
<line x1="105.5" y1="390.2" x2="100.5" y2="413.5" stroke="rgb(0,0,0)"  stroke-width="2.0"/>
<line x1="99.6" y1="388.9" x2="94.6" y2="412.3" stroke="rgb(0,0,0)"  stroke-width="2.0"/>
<line x1="102.5" y1="389.5" x2="84.8" y2="373.5" stroke="rgb(0,0,0)"  stroke-width="2.0"/>
<line x1="62.7" y1="368.8" x2="52.4" y2="372.2" stroke="rgb(0,0,0)"  stroke-width="2.0"/>
<line x1="137.7" y1="378.1" x2="291.1" y2="269.4" stroke="rgb(0,0,0)"  stroke-width="2.0"/>
<line x1="289.6" y1="266.8" x2="310.3" y2="254.9" stroke="rgb(0,0,0)"  stroke-width="2.0"/>
<line x1="292.6" y1="272.0" x2="313.3" y2="260.1" stroke="rgb(0,0,0)"  stroke-width="2.0"/>
<line x1="291.1" y1="269.4" x2="270.4" y2="257.5" stroke="rgb(0,0,0)"  stroke-width="2.0"/>
<line x1="247.8" y1="257.5" x2="238.4" y2="262.9" stroke="rgb(0,0,0)"  stroke-width="2.0"/>
<line x1="177.0" y1="466.4" x2="179.5" y2="490.2" stroke="rgb(0,0,0)"  stroke-width="2.0"/>
<line x1="243.4" y1="160.7" x2="243.4" y2="136.8" stroke="rgb(0,0,0)"  stroke-width="2.0"/>
<line x1="249.4" y1="160.7" x2="249.4" y2="136.8" stroke="rgb(0,0,0)"  stroke-width="2.0"/>
<line x1="204.2" y1="178.4" x2="193.8" y2="175.0" stroke="rgb(0,0,0)"  stroke-width="2.0"/>
<line x1="275.3" y1="179.6" x2="310.4" y2="168.2" stroke="rgb(0,0,0)"  stroke-width="2.0"/>
<line x1="277.2" y1="185.3" x2="312.3" y2="173.9" stroke="rgb(0,0,0)"  stroke-width="2.0"/>
<line x1="344.2" y1="192.7" x2="344.2" y2="216.6" stroke="rgb(0,0,0)"  stroke-width="2.0"/>
<line x1="338.2" y1="192.7" x2="338.2" y2="216.6" stroke="rgb(0,0,0)"  stroke-width="2.0"/>
<line x1="383.5" y1="175.0" x2="393.8" y2="178.4" stroke="rgb(0,0,0)"  stroke-width="2.0"/>
<line x1="359.7" y1="72.0" x2="371.7" y2="51.3" stroke="rgb(0,0,0)"  stroke-width="2.0"/>
<line x1="165.1" y1="353.4" x2="197.1" y2="371.9" stroke="rgb(0,0,0)"  stroke-width="2.0"/>
<line x1="173.9" y1="350.2" x2="195.5" y2="362.6" stroke="rgb(0,0,0)"  stroke-width="2.0"/>
<line x1="197.1" y1="371.9" x2="214.8" y2="355.9" stroke="rgb(0,0,0)"  stroke-width="2.0"/>
<line x1="219.2" y1="335.3" x2="209.5" y2="313.5" stroke="rgb(0,0,0)"  stroke-width="2.0"/>
<line x1="209.5" y1="313.5" x2="172.8" y2="317.3" stroke="rgb(0,0,0)"  stroke-width="2.0"/>
<line x1="204.3" y1="321.2" x2="179.5" y2="323.8" stroke="rgb(0,0,0)"  stroke-width="2.0"/>
<line x1="172.8" y1="317.3" x2="165.1" y2="353.4" stroke="rgb(0,0,0)"  stroke-width="2.0"/>
<line x1="177.0" y1="466.4" x2="194.7" y2="450.4" stroke="rgb(0,0,0)"  stroke-width="2.0"/>
<line x1="199.1" y1="429.8" x2="189.4" y2="408.0" stroke="rgb(0,0,0)"  stroke-width="2.0"/>
<line x1="189.4" y1="408.0" x2="152.7" y2="411.8" stroke="rgb(0,0,0)"  stroke-width="2.0"/>
<line x1="184.2" y1="415.8" x2="159.4" y2="418.4" stroke="rgb(0,0,0)"  stroke-width="2.0"/>
<line x1="152.7" y1="411.8" x2="145.0" y2="448.0" stroke="rgb(0,0,0)"  stroke-width="2.0"/>
<line x1="145.0" y1="448.0" x2="177.0" y2="466.4" stroke="rgb(0,0,0)"  stroke-width="2.0"/>
<line x1="153.8" y1="444.7" x2="175.4" y2="457.2" stroke="rgb(0,0,0)"  stroke-width="2.0"/>
<line x1="283.3" y1="249.5" x2="264.9" y2="217.5" stroke="rgb(0,0,0)"  stroke-width="2.0"/>
<line x1="274.1" y1="247.9" x2="261.6" y2="226.3" stroke="rgb(0,0,0)"  stroke-width="2.0"/>
<line x1="264.9" y1="217.5" x2="227.9" y2="217.5" stroke="rgb(0,0,0)"  stroke-width="2.0"/>
<line x1="227.9" y1="217.5" x2="209.5" y2="249.5" stroke="rgb(0,0,0)"  stroke-width="2.0"/>
<line x1="231.2" y1="226.3" x2="218.7" y2="247.9" stroke="rgb(0,0,0)"  stroke-width="2.0"/>
<line x1="209.5" y1="249.5" x2="227.9" y2="281.5" stroke="rgb(0,0,0)"  stroke-width="2.0"/>
<line x1="227.9" y1="281.5" x2="264.9" y2="281.5" stroke="rgb(0,0,0)"  stroke-width="2.0"/>
<line x1="233.9" y1="274.3" x2="258.9" y2="274.3" stroke="rgb(0,0,0)"  stroke-width="2.0"/>
<line x1="264.9" y1="281.5" x2="283.3" y2="249.5" stroke="rgb(0,0,0)"  stroke-width="2.0"/>
<line x1="322.8" y1="72.0" x2="304.3" y2="103.9" stroke="rgb(0,0,0)"  stroke-width="2.0"/>
<line x1="304.3" y1="103.9" x2="322.8" y2="135.9" stroke="rgb(0,0,0)"  stroke-width="2.0"/>
<line x1="313.6" y1="105.5" x2="326.0" y2="127.1" stroke="rgb(0,0,0)"  stroke-width="2.0"/>
<line x1="322.8" y1="135.9" x2="359.7" y2="135.9" stroke="rgb(0,0,0)"  stroke-width="2.0"/>
<line x1="359.7" y1="135.9" x2="378.2" y2="103.9" stroke="rgb(0,0,0)"  stroke-width="2.0"/>
<line x1="356.5" y1="127.1" x2="368.9" y2="105.5" stroke="rgb(0,0,0)"  stroke-width="2.0"/>
<line x1="378.2" y1="103.9" x2="359.7" y2="72.0" stroke="rgb(0,0,0)"  stroke-width="2.0"/>
<line x1="359.7" y1="72.0" x2="322.8" y2="72.0" stroke="rgb(0,0,0)"  stroke-width="2.0"/>
<line x1="353.7" y1="79.2" x2="328.8" y2="79.2" stroke="rgb(0,0,0)"  stroke-width="2.0"/>
<line x1="189.4" y1="408.0" x2="197.1" y2="371.9" stroke="rgb(0,0,0)"  stroke-width="2.0"/>
<line x1="165.1" y1="353.4" x2="137.7" y2="378.1" stroke="rgb(0,0,0)"  stroke-width="2.0"/>
<line x1="137.7" y1="378.1" x2="152.7" y2="411.8" stroke="rgb(0,0,0)"  stroke-width="2.0"/>
<line x1="246.4" y1="160.7" x2="227.0" y2="174.8" stroke="rgb(0,0,0)"  stroke-width="2.0"/>
<line x1="220.5" y1="194.8" x2="227.9" y2="217.5" stroke="rgb(0,0,0)"  stroke-width="2.0"/>
<line x1="264.9" y1="217.5" x2="276.3" y2="182.4" stroke="rgb(0,0,0)"  stroke-width="2.0"/>
<line x1="276.3" y1="182.4" x2="246.4" y2="160.7" stroke="rgb(0,0,0)"  stroke-width="2.0"/>
<line x1="367.1" y1="158.7" x2="359.7" y2="135.9" stroke="rgb(0,0,0)"  stroke-width="2.0"/>
<line x1="322.8" y1="135.9" x2="311.4" y2="171.0" stroke="rgb(0,0,0)"  stroke-width="2.0"/>
<line x1="311.4" y1="171.0" x2="341.2" y2="192.7" stroke="rgb(0,0,0)"  stroke-width="2.0"/>
<line x1="341.2" y1="192.7" x2="360.6" y2="178.7" stroke="rgb(0,0,0)"  stroke-width="2.0"/>
<text x="240.393821" y="131.813794" fill="rgb(255,12,12)"  stroke="rgb(255,12,12)" stroke-width="1" font-size="16" >O</text>
<text x="210.527787" y="190.429187" fill="rgb(12,12,255)"  stroke="rgb(12,12,255)" stroke-width="1" font-size="16" >N</text>
<text x="175.418158" y="179.021377" fill="rgb(191,191,191)"  stroke="rgb(191,191,191)" stroke-width="1" font-size="16" >H</text>
<text x="335.235520" y="237.636770" fill="rgb(255,12,12)"  stroke="rgb(255,12,12)" stroke-width="1" font-size="16" >O</text>
<text x="365.101554" y="179.021377" fill="rgb(12,12,255)"  stroke="rgb(12,12,255)" stroke-width="1" font-size="16" >N</text>
<text x="400.211183" y="190.429187" fill="rgb(191,191,191)"  stroke="rgb(191,191,191)" stroke-width="1" font-size="16" >H</text>
<text x="372.151968" y="48.000000" fill="rgb(191,191,191)"  stroke="rgb(191,191,191)" stroke-width="1" font-size="16" >H</text>
<text x="69.109629" y="372.826929" fill="rgb(255,12,12)"  stroke="rgb(255,12,12)" stroke-width="1" font-size="16" >O</text>
<text x="218.492645" y="355.175418" fill="rgb(178,178,0)"  stroke="rgb(178,178,0)" stroke-width="1" font-size="16" >S</text>
<text x="88.868536" y="433.638591" fill="rgb(255,12,12)"  stroke="rgb(255,12,12)" stroke-width="1" font-size="16" >O</text>
<text x="14.000000" y="384.234740" fill="rgb(102,102,102)"  stroke="rgb(102,102,102)" stroke-width="1" font-size="16" >H</text>
<text x="26.000000" y="387.914740" fill="rgb(102,102,102)"  stroke="rgb(102,102,102)" stroke-width="1" font-size="13" >3</text>
<text x="32.500000" y="384.234740" fill="rgb(102,102,102)"  stroke="rgb(102,102,102)" stroke-width="1" font-size="16" >C</text>
<text x="317.041697" y="258.984512" fill="rgb(255,12,12)"  stroke="rgb(255,12,12)" stroke-width="1" font-size="16" >O</text>
<text x="253.100532" y="258.984512" fill="rgb(255,12,12)"  stroke="rgb(255,12,12)" stroke-width="1" font-size="16" >O</text>
<text x="201.129949" y="277.442737" fill="rgb(102,102,102)"  stroke="rgb(102,102,102)" stroke-width="1" font-size="16" >H</text>
<text x="213.129949" y="281.122737" fill="rgb(102,102,102)"  stroke="rgb(102,102,102)" stroke-width="1" font-size="13" >3</text>
<text x="219.629949" y="277.442737" fill="rgb(102,102,102)"  stroke="rgb(102,102,102)" stroke-width="1" font-size="16" >C</text>
<text x="174.822840" y="511.128076" fill="rgb(191,191,191)"  stroke="rgb(191,191,191)" stroke-width="1" font-size="16" >H</text>
<text x="198.398288" y="449.711934" fill="rgb(178,178,0)"  stroke="rgb(178,178,0)" stroke-width="1" font-size="16" >S</text>
</svg>
</g>
<text font-size="18.000000" fill ="black" font-family="sans-serif"
x="10.000000" y="20.000000" ></text>
</svg>
