<?xml version="1.0"?>
<svg version="1.1" id="topsvg"
xmlns="http://www.w3.org/2000/svg" xmlns:xlink="http://www.w3.org/1999/xlink"
xmlns:cml="http://www.xml-cml.org/schema" x="0" y="0" width="200px" height="200px" viewBox="0 0 100 100">
<title> - Open Babel Depiction</title>
<rect x="0" y="0" width="100" height="100" fill="white"/>
<g transform="translate(0,0)">
<svg width="100" height="100" x="0" y="0" viewBox="0 0 494.148 395.073"
font-family="sans-serif" stroke="rgb(0,0,0)" stroke-width="2"  stroke-linecap="round">
<line x1="214.1" y1="175.8" x2="248.9" y2="156.3" stroke="rgb(0,0,0)"  stroke-width="2.0"/>
<line x1="319.8" y1="79.7" x2="328.4" y2="54.3" stroke="rgb(0,0,0)"  stroke-width="2.0"/>
<line x1="319.8" y1="79.7" x2="302.1" y2="59.5" stroke="rgb(0,0,0)"  stroke-width="2.0"/>
<line x1="414.6" y1="123.4" x2="441.2" y2="126.6" stroke="rgb(0,0,0)"  stroke-width="2.0"/>
<line x1="179.8" y1="273.3" x2="203.0" y2="287.1" stroke="rgb(0,0,0)"  stroke-width="2.0"/>
<line x1="176.7" y1="278.4" x2="199.9" y2="292.3" stroke="rgb(0,0,0)"  stroke-width="2.0"/>
<line x1="143.4" y1="308.1" x2="143.3" y2="321.9" stroke="rgb(0,0,0)"  stroke-width="2.0"/>
<line x1="154.4" y1="341.5" x2="166.2" y2="348.5" stroke="rgb(0,0,0)"  stroke-width="2.0"/>
<line x1="110.0" y1="277.6" x2="86.5" y2="290.8" stroke="rgb(0,0,0)"  stroke-width="2.0"/>
<line x1="107.0" y1="272.3" x2="83.6" y2="285.6" stroke="rgb(0,0,0)"  stroke-width="2.0"/>
<line x1="74.8" y1="213.9" x2="51.3" y2="227.2" stroke="rgb(0,0,0)"  stroke-width="2.0"/>
<line x1="109.1" y1="116.9" x2="85.9" y2="103.2" stroke="rgb(0,0,0)"  stroke-width="2.0"/>
<line x1="112.2" y1="111.8" x2="88.9" y2="98.0" stroke="rgb(0,0,0)"  stroke-width="2.0"/>
<line x1="145.8" y1="81.6" x2="146.0" y2="67.4" stroke="rgb(0,0,0)"  stroke-width="2.0"/>
<line x1="134.0" y1="49.7" x2="120.7" y2="44.7" stroke="rgb(0,0,0)"  stroke-width="2.0"/>
<line x1="178.9" y1="112.6" x2="202.5" y2="99.4" stroke="rgb(0,0,0)"  stroke-width="2.0"/>
<line x1="181.8" y1="117.9" x2="205.4" y2="104.7" stroke="rgb(0,0,0)"  stroke-width="2.0"/>
<line x1="292.7" y1="109.0" x2="312.2" y2="143.8" stroke="rgb(0,0,0)"  stroke-width="2.0"/>
<line x1="289.3" y1="117.7" x2="303.0" y2="142.1" stroke="rgb(0,0,0)"  stroke-width="2.0"/>
<line x1="312.2" y1="143.8" x2="293.9" y2="163.5" stroke="rgb(0,0,0)"  stroke-width="2.0"/>
<line x1="273.3" y1="167.6" x2="248.9" y2="156.3" stroke="rgb(0,0,0)"  stroke-width="2.0"/>
<line x1="248.9" y1="156.3" x2="253.6" y2="116.7" stroke="rgb(0,0,0)"  stroke-width="2.0"/>
<line x1="256.8" y1="151.2" x2="260.0" y2="123.6" stroke="rgb(0,0,0)"  stroke-width="2.0"/>
<line x1="253.6" y1="116.7" x2="292.7" y2="109.0" stroke="rgb(0,0,0)"  stroke-width="2.0"/>
<line x1="414.6" y1="123.4" x2="396.3" y2="143.2" stroke="rgb(0,0,0)"  stroke-width="2.0"/>
<line x1="375.7" y1="147.3" x2="351.3" y2="136.0" stroke="rgb(0,0,0)"  stroke-width="2.0"/>
<line x1="351.3" y1="136.0" x2="356.0" y2="96.4" stroke="rgb(0,0,0)"  stroke-width="2.0"/>
<line x1="359.1" y1="130.9" x2="362.4" y2="103.2" stroke="rgb(0,0,0)"  stroke-width="2.0"/>
<line x1="356.0" y1="96.4" x2="395.1" y2="88.6" stroke="rgb(0,0,0)"  stroke-width="2.0"/>
<line x1="395.1" y1="88.6" x2="414.6" y2="123.4" stroke="rgb(0,0,0)"  stroke-width="2.0"/>
<line x1="391.7" y1="97.4" x2="405.3" y2="121.7" stroke="rgb(0,0,0)"  stroke-width="2.0"/>
<line x1="178.8" y1="235.7" x2="144.1" y2="214.8" stroke="rgb(0,0,0)"  stroke-width="2.0"/>
<line x1="177.4" y1="226.4" x2="152.9" y2="211.8" stroke="rgb(0,0,0)"  stroke-width="2.0"/>
<line x1="144.1" y1="214.8" x2="144.6" y2="174.9" stroke="rgb(0,0,0)"  stroke-width="2.0"/>
<line x1="144.6" y1="174.9" x2="179.9" y2="155.4" stroke="rgb(0,0,0)"  stroke-width="2.0"/>
<line x1="153.3" y1="178.3" x2="178.1" y2="164.6" stroke="rgb(0,0,0)"  stroke-width="2.0"/>
<line x1="179.9" y1="155.4" x2="214.1" y2="175.8" stroke="rgb(0,0,0)"  stroke-width="2.0"/>
<line x1="214.1" y1="175.8" x2="213.6" y2="215.7" stroke="rgb(0,0,0)"  stroke-width="2.0"/>
<line x1="206.8" y1="181.7" x2="206.5" y2="209.6" stroke="rgb(0,0,0)"  stroke-width="2.0"/>
<line x1="213.6" y1="215.7" x2="178.8" y2="235.7" stroke="rgb(0,0,0)"  stroke-width="2.0"/>
<line x1="108.5" y1="274.9" x2="109.1" y2="234.8" stroke="rgb(0,0,0)"  stroke-width="2.0"/>
<line x1="109.1" y1="234.8" x2="144.1" y2="214.8" stroke="rgb(0,0,0)"  stroke-width="2.0"/>
<line x1="178.8" y1="235.7" x2="178.3" y2="275.9" stroke="rgb(0,0,0)"  stroke-width="2.0"/>
<line x1="178.3" y1="275.9" x2="154.9" y2="288.8" stroke="rgb(0,0,0)"  stroke-width="2.0"/>
<line x1="132.2" y1="288.6" x2="108.5" y2="274.9" stroke="rgb(0,0,0)"  stroke-width="2.0"/>
<line x1="75.3" y1="174.0" x2="110.1" y2="154.5" stroke="rgb(0,0,0)"  stroke-width="2.0"/>
<line x1="84.1" y1="177.3" x2="108.4" y2="163.7" stroke="rgb(0,0,0)"  stroke-width="2.0"/>
<line x1="110.1" y1="154.5" x2="144.6" y2="174.9" stroke="rgb(0,0,0)"  stroke-width="2.0"/>
<line x1="109.1" y1="234.8" x2="74.8" y2="213.9" stroke="rgb(0,0,0)"  stroke-width="2.0"/>
<line x1="107.7" y1="225.5" x2="83.7" y2="210.9" stroke="rgb(0,0,0)"  stroke-width="2.0"/>
<line x1="74.8" y1="213.9" x2="75.3" y2="174.0" stroke="rgb(0,0,0)"  stroke-width="2.0"/>
<line x1="156.8" y1="101.2" x2="180.4" y2="115.3" stroke="rgb(0,0,0)"  stroke-width="2.0"/>
<line x1="180.4" y1="115.3" x2="179.9" y2="155.4" stroke="rgb(0,0,0)"  stroke-width="2.0"/>
<line x1="110.1" y1="154.5" x2="110.6" y2="114.3" stroke="rgb(0,0,0)"  stroke-width="2.0"/>
<line x1="110.6" y1="114.3" x2="134.3" y2="101.0" stroke="rgb(0,0,0)"  stroke-width="2.0"/>
<line x1="351.3" y1="136.0" x2="312.2" y2="143.8" stroke="rgb(0,0,0)"  stroke-width="2.0"/>
<line x1="292.7" y1="109.0" x2="319.8" y2="79.7" stroke="rgb(0,0,0)"  stroke-width="2.0"/>
<line x1="319.8" y1="79.7" x2="356.0" y2="96.4" stroke="rgb(0,0,0)"  stroke-width="2.0"/>
<text x="137.160520" y="342.896071" fill="rgb(255,12,12)"  stroke="rgb(255,12,12)" stroke-width="1" font-size="16" >O</text>
<text x="173.421117" y="363.073064" fill="rgb(102,102,102)"  stroke="rgb(102,102,102)" stroke-width="1" font-size="16" >CH</text>
<text x="197.421117" y="366.753064" fill="rgb(102,102,102)"  stroke="rgb(102,102,102)" stroke-width="1" font-size="13" >3</text>
<text x="67.721939" y="302.637879" fill="rgb(255,12,12)"  stroke="rgb(255,12,12)" stroke-width="1" font-size="16" >O</text>
<text x="34.000000" y="241.621752" fill="rgb(191,191,191)"  stroke="rgb(191,191,191)" stroke-width="1" font-size="16" >H</text>
<text x="137.504011" y="303.137027" fill="rgb(12,12,255)"  stroke="rgb(12,12,255)" stroke-width="1" font-size="16" >N</text>
<text x="70.229379" y="101.947104" fill="rgb(255,12,12)"  stroke="rgb(255,12,12)" stroke-width="1" font-size="16" >O</text>
<text x="139.644882" y="102.605076" fill="rgb(12,12,255)"  stroke="rgb(12,12,255)" stroke-width="1" font-size="16" >N</text>
<text x="140.110364" y="62.408360" fill="rgb(255,12,12)"  stroke="rgb(255,12,12)" stroke-width="1" font-size="16" >O</text>
<text x="82.581817" y="48.000000" fill="rgb(102,102,102)"  stroke="rgb(102,102,102)" stroke-width="1" font-size="16" >H</text>
<text x="94.581817" y="51.680000" fill="rgb(102,102,102)"  stroke="rgb(102,102,102)" stroke-width="1" font-size="13" >3</text>
<text x="101.081817" y="48.000000" fill="rgb(102,102,102)"  stroke="rgb(102,102,102)" stroke-width="1" font-size="16" >C</text>
<text x="209.273592" y="103.708729" fill="rgb(255,12,12)"  stroke="rgb(255,12,12)" stroke-width="1" font-size="16" >O</text>
<text x="267.493312" y="57.727182" fill="rgb(102,102,102)"  stroke="rgb(102,102,102)" stroke-width="1" font-size="16" >H</text>
<text x="279.493312" y="61.407182" fill="rgb(102,102,102)"  stroke="rgb(102,102,102)" stroke-width="1" font-size="13" >3</text>
<text x="285.993312" y="57.727182" fill="rgb(102,102,102)"  stroke="rgb(102,102,102)" stroke-width="1" font-size="16" >C</text>
<text x="279.099759" y="181.043455" fill="rgb(178,178,0)"  stroke="rgb(178,178,0)" stroke-width="1" font-size="16" >S</text>
<text x="328.599932" y="49.960036" fill="rgb(102,102,102)"  stroke="rgb(102,102,102)" stroke-width="1" font-size="16" >CH</text>
<text x="352.599932" y="53.640036" fill="rgb(102,102,102)"  stroke="rgb(102,102,102)" stroke-width="1" font-size="13" >3</text>
<text x="448.147511" y="136.136373" fill="rgb(191,191,191)"  stroke="rgb(191,191,191)" stroke-width="1" font-size="16" >H</text>
<text x="381.482219" y="160.708804" fill="rgb(178,178,0)"  stroke="rgb(178,178,0)" stroke-width="1" font-size="16" >S</text>
<text x="206.611994" y="304.379580" fill="rgb(255,12,12)"  stroke="rgb(255,12,12)" stroke-width="1" font-size="16" >O</text>
</svg>
</g>
<text font-size="18.000000" fill ="black" font-family="sans-serif"
x="10.000000" y="20.000000" ></text>
</svg>
