<?xml version="1.0"?>
<svg version="1.1" id="topsvg"
xmlns="http://www.w3.org/2000/svg" xmlns:xlink="http://www.w3.org/1999/xlink"
xmlns:cml="http://www.xml-cml.org/schema" x="0" y="0" width="200px" height="200px" viewBox="0 0 100 100">
<title> - Open Babel Depiction</title>
<rect x="0" y="0" width="100" height="100" fill="white"/>
<g transform="translate(0,0)">
<svg width="100" height="100" x="0" y="0" viewBox="0 0 321.652 360"
font-family="sans-serif" stroke="rgb(0,0,0)" stroke-width="2"  stroke-linecap="round">
<line x1="178.6" y1="140.0" x2="143.9" y2="160.0" stroke="rgb(0,0,0)"  stroke-width="2.0"/>
<line x1="109.3" y1="220.0" x2="109.3" y2="260.0" stroke="rgb(0,0,0)"  stroke-width="2.0"/>
<line x1="110.8" y1="262.6" x2="87.4" y2="276.1" stroke="rgb(0,0,0)"  stroke-width="2.0"/>
<line x1="107.8" y1="257.4" x2="84.4" y2="270.9" stroke="rgb(0,0,0)"  stroke-width="2.0"/>
<line x1="109.3" y1="260.0" x2="132.7" y2="273.5" stroke="rgb(0,0,0)"  stroke-width="2.0"/>
<line x1="143.9" y1="293.0" x2="143.9" y2="307.0" stroke="rgb(0,0,0)"  stroke-width="2.0"/>
<line x1="74.6" y1="200.0" x2="51.3" y2="213.5" stroke="rgb(0,0,0)"  stroke-width="2.0"/>
<line x1="109.3" y1="140.0" x2="109.3" y2="100.0" stroke="rgb(0,0,0)"  stroke-width="2.0"/>
<line x1="107.8" y1="97.4" x2="131.2" y2="83.9" stroke="rgb(0,0,0)"  stroke-width="2.0"/>
<line x1="110.8" y1="102.6" x2="134.2" y2="89.1" stroke="rgb(0,0,0)"  stroke-width="2.0"/>
<line x1="109.3" y1="100.0" x2="85.9" y2="86.5" stroke="rgb(0,0,0)"  stroke-width="2.0"/>
<line x1="74.6" y1="67.0" x2="74.6" y2="53.0" stroke="rgb(0,0,0)"  stroke-width="2.0"/>
<line x1="241.9" y1="126.5" x2="268.7" y2="129.4" stroke="rgb(0,0,0)"  stroke-width="2.0"/>
<line x1="213.9" y1="169.6" x2="209.6" y2="182.9" stroke="rgb(0,0,0)"  stroke-width="2.0"/>
<line x1="208.2" y1="167.7" x2="203.9" y2="181.0" stroke="rgb(0,0,0)"  stroke-width="2.0"/>
<line x1="226.0" y1="163.9" x2="235.4" y2="174.3" stroke="rgb(0,0,0)"  stroke-width="2.0"/>
<line x1="221.6" y1="167.9" x2="230.9" y2="178.3" stroke="rgb(0,0,0)"  stroke-width="2.0"/>
<line x1="109.3" y1="220.0" x2="74.6" y2="200.0" stroke="rgb(0,0,0)"  stroke-width="2.0"/>
<line x1="107.7" y1="210.8" x2="83.4" y2="196.8" stroke="rgb(0,0,0)"  stroke-width="2.0"/>
<line x1="74.6" y1="200.0" x2="74.6" y2="160.0" stroke="rgb(0,0,0)"  stroke-width="2.0"/>
<line x1="74.6" y1="160.0" x2="109.3" y2="140.0" stroke="rgb(0,0,0)"  stroke-width="2.0"/>
<line x1="83.4" y1="163.2" x2="107.7" y2="149.2" stroke="rgb(0,0,0)"  stroke-width="2.0"/>
<line x1="109.3" y1="140.0" x2="143.9" y2="160.0" stroke="rgb(0,0,0)"  stroke-width="2.0"/>
<line x1="143.9" y1="160.0" x2="143.9" y2="200.0" stroke="rgb(0,0,0)"  stroke-width="2.0"/>
<line x1="136.7" y1="166.0" x2="136.7" y2="194.0" stroke="rgb(0,0,0)"  stroke-width="2.0"/>
<line x1="143.9" y1="200.0" x2="109.3" y2="220.0" stroke="rgb(0,0,0)"  stroke-width="2.0"/>
<line x1="221.9" y1="91.9" x2="241.9" y2="126.5" stroke="rgb(0,0,0)"  stroke-width="2.0"/>
<line x1="218.6" y1="100.7" x2="232.6" y2="124.9" stroke="rgb(0,0,0)"  stroke-width="2.0"/>
<line x1="241.9" y1="126.5" x2="223.8" y2="146.6" stroke="rgb(0,0,0)"  stroke-width="2.0"/>
<line x1="203.2" y1="151.0" x2="178.6" y2="140.0" stroke="rgb(0,0,0)"  stroke-width="2.0"/>
<line x1="178.6" y1="140.0" x2="182.7" y2="100.2" stroke="rgb(0,0,0)"  stroke-width="2.0"/>
<line x1="186.4" y1="134.8" x2="189.3" y2="106.9" stroke="rgb(0,0,0)"  stroke-width="2.0"/>
<line x1="182.7" y1="100.2" x2="221.9" y2="91.9" stroke="rgb(0,0,0)"  stroke-width="2.0"/>
<text x="235.871107" y="193.995259" fill="rgb(255,12,12)"  stroke="rgb(255,12,12)" stroke-width="1" font-size="16" >O</text>
<text x="196.745203" y="202.311726" fill="rgb(255,12,12)"  stroke="rgb(255,12,12)" stroke-width="1" font-size="16" >O</text>
<text x="209.105883" y="164.269466" fill="rgb(178,178,0)"  stroke="rgb(178,178,0)" stroke-width="1" font-size="16" >S</text>
<text x="275.651983" y="138.724811" fill="rgb(191,191,191)"  stroke="rgb(191,191,191)" stroke-width="1" font-size="16" >H</text>
<text x="70.641016" y="48.000000" fill="rgb(102,102,102)"  stroke="rgb(102,102,102)" stroke-width="1" font-size="16" >CH</text>
<text x="94.641016" y="51.680000" fill="rgb(102,102,102)"  stroke="rgb(102,102,102)" stroke-width="1" font-size="13" >3</text>
<text x="68.641016" y="88.000000" fill="rgb(255,12,12)"  stroke="rgb(255,12,12)" stroke-width="1" font-size="16" >O</text>
<text x="137.923048" y="88.000000" fill="rgb(255,12,12)"  stroke="rgb(255,12,12)" stroke-width="1" font-size="16" >O</text>
<text x="34.000000" y="228.000000" fill="rgb(191,191,191)"  stroke="rgb(191,191,191)" stroke-width="1" font-size="16" >H</text>
<text x="139.923048" y="328.000000" fill="rgb(102,102,102)"  stroke="rgb(102,102,102)" stroke-width="1" font-size="16" >CH</text>
<text x="163.923048" y="331.680000" fill="rgb(102,102,102)"  stroke="rgb(102,102,102)" stroke-width="1" font-size="13" >3</text>
<text x="137.923048" y="288.000000" fill="rgb(255,12,12)"  stroke="rgb(255,12,12)" stroke-width="1" font-size="16" >O</text>
<text x="68.641016" y="288.000000" fill="rgb(255,12,12)"  stroke="rgb(255,12,12)" stroke-width="1" font-size="16" >O</text>
</svg>
</g>
<text font-size="18.000000" fill ="black" font-family="sans-serif"
x="10.000000" y="20.000000" ></text>
</svg>
