<?xml version="1.0"?>
<svg version="1.1" id="topsvg"
xmlns="http://www.w3.org/2000/svg" xmlns:xlink="http://www.w3.org/1999/xlink"
xmlns:cml="http://www.xml-cml.org/schema" x="0" y="0" width="200px" height="200px" viewBox="0 0 100 100">
<title> - Open Babel Depiction</title>
<rect x="0" y="0" width="100" height="100" fill="white"/>
<g transform="translate(0,0)">
<svg width="100" height="100" x="0" y="0" viewBox="0 0 504.736 352.161"
font-family="sans-serif" stroke="rgb(0,0,0)" stroke-width="2"  stroke-linecap="round">
<line x1="229.7" y1="206.9" x2="268.5" y2="206.9" stroke="rgb(0,0,0)"  stroke-width="2.0"/>
<line x1="366.8" y1="240.4" x2="380.3" y2="263.7" stroke="rgb(0,0,0)"  stroke-width="2.0"/>
<line x1="366.8" y1="240.4" x2="393.8" y2="240.4" stroke="rgb(0,0,0)"  stroke-width="2.0"/>
<line x1="428.1" y1="158.9" x2="453.5" y2="144.0" stroke="rgb(0,0,0)"  stroke-width="2.0"/>
<line x1="206.9" y1="238.3" x2="218.9" y2="275.2" stroke="rgb(0,0,0)"  stroke-width="2.0"/>
<line x1="218.9" y1="275.2" x2="226.9" y2="299.8" stroke="rgb(0,0,0)"  stroke-width="2.0"/>
<line x1="222.9" y1="273.9" x2="230.9" y2="298.5" stroke="rgb(0,0,0)"  stroke-width="2.0"/>
<line x1="214.9" y1="276.5" x2="222.9" y2="301.1" stroke="rgb(0,0,0)"  stroke-width="2.0"/>
<line x1="170.0" y1="187.5" x2="138.6" y2="164.7" stroke="rgb(0,0,0)"  stroke-width="2.0"/>
<line x1="78.8" y1="145.3" x2="53.0" y2="145.3" stroke="rgb(0,0,0)"  stroke-width="2.0"/>
<line x1="101.6" y1="113.8" x2="89.6" y2="76.9" stroke="rgb(0,0,0)"  stroke-width="2.0"/>
<line x1="89.6" y1="76.9" x2="81.7" y2="52.4" stroke="rgb(0,0,0)"  stroke-width="2.0"/>
<line x1="85.7" y1="78.2" x2="77.7" y2="53.7" stroke="rgb(0,0,0)"  stroke-width="2.0"/>
<line x1="93.6" y1="75.6" x2="85.7" y2="51.1" stroke="rgb(0,0,0)"  stroke-width="2.0"/>
<line x1="327.5" y1="240.4" x2="327.5" y2="172.4" stroke="rgb(0,0,0)"  stroke-width="2.0"/>
<line x1="320.3" y1="234.4" x2="320.3" y2="178.4" stroke="rgb(0,0,0)"  stroke-width="2.0"/>
<line x1="327.5" y1="172.4" x2="301.2" y2="172.4" stroke="rgb(0,0,0)"  stroke-width="2.0"/>
<line x1="281.8" y1="183.7" x2="268.5" y2="206.9" stroke="rgb(0,0,0)"  stroke-width="2.0"/>
<line x1="268.5" y1="206.9" x2="288.2" y2="240.4" stroke="rgb(0,0,0)"  stroke-width="2.0"/>
<line x1="277.8" y1="208.4" x2="291.4" y2="231.6" stroke="rgb(0,0,0)"  stroke-width="2.0"/>
<line x1="288.2" y1="240.4" x2="327.5" y2="240.4" stroke="rgb(0,0,0)"  stroke-width="2.0"/>
<line x1="428.1" y1="158.9" x2="404.4" y2="148.6" stroke="rgb(0,0,0)"  stroke-width="2.0"/>
<line x1="383.9" y1="153.1" x2="366.8" y2="172.4" stroke="rgb(0,0,0)"  stroke-width="2.0"/>
<line x1="366.8" y1="172.4" x2="386.4" y2="205.9" stroke="rgb(0,0,0)"  stroke-width="2.0"/>
<line x1="376.0" y1="173.9" x2="389.6" y2="197.0" stroke="rgb(0,0,0)"  stroke-width="2.0"/>
<line x1="386.4" y1="205.9" x2="424.3" y2="197.5" stroke="rgb(0,0,0)"  stroke-width="2.0"/>
<line x1="424.3" y1="197.5" x2="428.1" y2="158.9" stroke="rgb(0,0,0)"  stroke-width="2.0"/>
<line x1="417.7" y1="190.9" x2="420.4" y2="164.2" stroke="rgb(0,0,0)"  stroke-width="2.0"/>
<line x1="170.0" y1="213.5" x2="170.0" y2="187.5" stroke="rgb(0,0,0)"  stroke-width="2.0"/>
<line x1="177.2" y1="211.4" x2="177.2" y2="193.5" stroke="rgb(0,0,0)"  stroke-width="2.0"/>
<line x1="170.0" y1="187.5" x2="194.5" y2="179.5" stroke="rgb(0,0,0)"  stroke-width="2.0"/>
<line x1="214.5" y1="186.0" x2="229.7" y2="206.9" stroke="rgb(0,0,0)"  stroke-width="2.0"/>
<line x1="229.7" y1="206.9" x2="206.9" y2="238.3" stroke="rgb(0,0,0)"  stroke-width="2.0"/>
<line x1="220.4" y1="207.5" x2="204.6" y2="229.2" stroke="rgb(0,0,0)"  stroke-width="2.0"/>
<line x1="206.9" y1="238.3" x2="182.3" y2="230.3" stroke="rgb(0,0,0)"  stroke-width="2.0"/>
<line x1="78.8" y1="145.3" x2="101.6" y2="113.8" stroke="rgb(0,0,0)"  stroke-width="2.0"/>
<line x1="88.2" y1="144.6" x2="103.9" y2="122.9" stroke="rgb(0,0,0)"  stroke-width="2.0"/>
<line x1="101.6" y1="113.8" x2="126.2" y2="121.8" stroke="rgb(0,0,0)"  stroke-width="2.0"/>
<line x1="138.6" y1="138.7" x2="138.6" y2="164.7" stroke="rgb(0,0,0)"  stroke-width="2.0"/>
<line x1="131.4" y1="140.8" x2="131.4" y2="158.7" stroke="rgb(0,0,0)"  stroke-width="2.0"/>
<line x1="138.6" y1="164.7" x2="114.0" y2="172.7" stroke="rgb(0,0,0)"  stroke-width="2.0"/>
<line x1="94.0" y1="166.2" x2="78.8" y2="145.3" stroke="rgb(0,0,0)"  stroke-width="2.0"/>
<line x1="366.8" y1="172.4" x2="327.5" y2="172.4" stroke="rgb(0,0,0)"  stroke-width="2.0"/>
<line x1="327.5" y1="240.4" x2="366.8" y2="240.4" stroke="rgb(0,0,0)"  stroke-width="2.0"/>
<line x1="366.8" y1="240.4" x2="386.4" y2="205.9" stroke="rgb(0,0,0)"  stroke-width="2.0"/>
<text x="386.528830" y="151.346088" fill="rgb(178,178,0)"  stroke="rgb(178,178,0)" stroke-width="1" font-size="16" >S</text>
<text x="132.569197" y="133.845961" fill="rgb(12,12,255)"  stroke="rgb(12,12,255)" stroke-width="1" font-size="16" >N</text>
<text x="71.650083" y="48.000000" fill="rgb(12,12,255)"  stroke="rgb(12,12,255)" stroke-width="1" font-size="16" >N</text>
<text x="34.000000" y="153.258199" fill="rgb(191,191,191)"  stroke="rgb(191,191,191)" stroke-width="1" font-size="16" >H</text>
<text x="95.644928" y="184.667858" fill="rgb(178,178,0)"  stroke="rgb(178,178,0)" stroke-width="1" font-size="16" >S</text>
<text x="200.903127" y="183.493467" fill="rgb(178,178,0)"  stroke="rgb(178,178,0)" stroke-width="1" font-size="16" >S</text>
<text x="163.978857" y="234.315364" fill="rgb(12,12,255)"  stroke="rgb(12,12,255)" stroke-width="1" font-size="16" >N</text>
<text x="224.897971" y="320.161325" fill="rgb(12,12,255)"  stroke="rgb(12,12,255)" stroke-width="1" font-size="16" >N</text>
<text x="458.735578" y="145.395190" fill="rgb(191,191,191)"  stroke="rgb(191,191,191)" stroke-width="1" font-size="16" >H</text>
<text x="402.753727" y="248.388762" fill="rgb(102,102,102)"  stroke="rgb(102,102,102)" stroke-width="1" font-size="16" >CH</text>
<text x="426.753727" y="252.068762" fill="rgb(102,102,102)"  stroke="rgb(102,102,102)" stroke-width="1" font-size="13" >3</text>
<text x="382.860715" y="282.967789" fill="rgb(102,102,102)"  stroke="rgb(102,102,102)" stroke-width="1" font-size="16" >CH</text>
<text x="406.860715" y="286.647789" fill="rgb(102,102,102)"  stroke="rgb(102,102,102)" stroke-width="1" font-size="13" >3</text>
<text x="282.196261" y="180.380273" fill="rgb(178,178,0)"  stroke="rgb(178,178,0)" stroke-width="1" font-size="16" >S</text>
</svg>
</g>
<text font-size="18.000000" fill ="black" font-family="sans-serif"
x="10.000000" y="20.000000" ></text>
</svg>
