<?xml version="1.0"?>
<svg version="1.1" id="topsvg"
xmlns="http://www.w3.org/2000/svg" xmlns:xlink="http://www.w3.org/1999/xlink"
xmlns:cml="http://www.xml-cml.org/schema" x="0" y="0" width="200px" height="200px" viewBox="0 0 100 100">
<title> - Open Babel Depiction</title>
<rect x="0" y="0" width="100" height="100" fill="white"/>
<g transform="translate(0,0)">
<svg width="100" height="100" x="0" y="0" viewBox="0 0 446.528 307.529"
font-family="sans-serif" stroke="rgb(0,0,0)" stroke-width="2"  stroke-linecap="round">
<line x1="207.9" y1="111.9" x2="247.0" y2="120.2" stroke="rgb(0,0,0)"  stroke-width="2.0"/>
<line x1="263.3" y1="156.8" x2="243.3" y2="191.4" stroke="rgb(0,0,0)"  stroke-width="2.0"/>
<line x1="243.3" y1="191.4" x2="229.8" y2="214.8" stroke="rgb(0,0,0)"  stroke-width="2.0"/>
<line x1="246.9" y1="193.5" x2="233.4" y2="216.9" stroke="rgb(0,0,0)"  stroke-width="2.0"/>
<line x1="239.6" y1="189.3" x2="226.1" y2="212.7" stroke="rgb(0,0,0)"  stroke-width="2.0"/>
<line x1="367.4" y1="145.8" x2="393.8" y2="151.4" stroke="rgb(0,0,0)"  stroke-width="2.0"/>
<line x1="351.1" y1="109.3" x2="371.1" y2="74.6" stroke="rgb(0,0,0)"  stroke-width="2.0"/>
<line x1="371.1" y1="74.6" x2="384.6" y2="51.3" stroke="rgb(0,0,0)"  stroke-width="2.0"/>
<line x1="367.5" y1="72.5" x2="381.0" y2="49.2" stroke="rgb(0,0,0)"  stroke-width="2.0"/>
<line x1="374.8" y1="76.7" x2="388.3" y2="53.4" stroke="rgb(0,0,0)"  stroke-width="2.0"/>
<line x1="179.6" y1="176.1" x2="203.0" y2="189.6" stroke="rgb(0,0,0)"  stroke-width="2.0"/>
<line x1="176.6" y1="181.3" x2="200.0" y2="194.8" stroke="rgb(0,0,0)"  stroke-width="2.0"/>
<line x1="135.2" y1="237.8" x2="153.2" y2="257.9" stroke="rgb(0,0,0)"  stroke-width="2.0"/>
<line x1="79.1" y1="205.4" x2="52.7" y2="199.8" stroke="rgb(0,0,0)"  stroke-width="2.0"/>
<line x1="107.4" y1="141.3" x2="84.0" y2="127.8" stroke="rgb(0,0,0)"  stroke-width="2.0"/>
<line x1="110.4" y1="136.1" x2="87.0" y2="122.6" stroke="rgb(0,0,0)"  stroke-width="2.0"/>
<line x1="151.8" y1="79.6" x2="133.7" y2="59.5" stroke="rgb(0,0,0)"  stroke-width="2.0"/>
<line x1="303.0" y1="152.6" x2="311.4" y2="113.5" stroke="rgb(0,0,0)"  stroke-width="2.0"/>
<line x1="297.2" y1="145.2" x2="303.1" y2="117.8" stroke="rgb(0,0,0)"  stroke-width="2.0"/>
<line x1="311.4" y1="113.5" x2="288.0" y2="100.0" stroke="rgb(0,0,0)"  stroke-width="2.0"/>
<line x1="267.1" y1="102.2" x2="247.0" y2="120.2" stroke="rgb(0,0,0)"  stroke-width="2.0"/>
<line x1="247.0" y1="120.2" x2="263.3" y2="156.8" stroke="rgb(0,0,0)"  stroke-width="2.0"/>
<line x1="256.0" y1="122.8" x2="267.4" y2="148.4" stroke="rgb(0,0,0)"  stroke-width="2.0"/>
<line x1="263.3" y1="156.8" x2="303.0" y2="152.6" stroke="rgb(0,0,0)"  stroke-width="2.0"/>
<line x1="367.4" y1="145.8" x2="351.1" y2="109.3" stroke="rgb(0,0,0)"  stroke-width="2.0"/>
<line x1="358.4" y1="143.3" x2="347.0" y2="117.7" stroke="rgb(0,0,0)"  stroke-width="2.0"/>
<line x1="351.1" y1="109.3" x2="311.4" y2="113.5" stroke="rgb(0,0,0)"  stroke-width="2.0"/>
<line x1="303.0" y1="152.6" x2="326.4" y2="166.1" stroke="rgb(0,0,0)"  stroke-width="2.0"/>
<line x1="347.3" y1="163.9" x2="367.4" y2="145.8" stroke="rgb(0,0,0)"  stroke-width="2.0"/>
<line x1="90.1" y1="230.1" x2="79.1" y2="205.4" stroke="rgb(0,0,0)"  stroke-width="2.0"/>
<line x1="79.1" y1="205.4" x2="108.9" y2="178.7" stroke="rgb(0,0,0)"  stroke-width="2.0"/>
<line x1="88.4" y1="206.8" x2="109.2" y2="188.0" stroke="rgb(0,0,0)"  stroke-width="2.0"/>
<line x1="108.9" y1="178.7" x2="143.5" y2="198.7" stroke="rgb(0,0,0)"  stroke-width="2.0"/>
<line x1="143.5" y1="198.7" x2="135.2" y2="237.8" stroke="rgb(0,0,0)"  stroke-width="2.0"/>
<line x1="135.2" y1="203.0" x2="129.4" y2="230.4" stroke="rgb(0,0,0)"  stroke-width="2.0"/>
<line x1="135.2" y1="237.8" x2="108.3" y2="240.6" stroke="rgb(0,0,0)"  stroke-width="2.0"/>
<line x1="143.5" y1="118.7" x2="151.8" y2="79.6" stroke="rgb(0,0,0)"  stroke-width="2.0"/>
<line x1="151.8" y1="114.3" x2="157.6" y2="86.9" stroke="rgb(0,0,0)"  stroke-width="2.0"/>
<line x1="151.8" y1="79.6" x2="178.7" y2="76.7" stroke="rgb(0,0,0)"  stroke-width="2.0"/>
<line x1="196.9" y1="87.2" x2="207.9" y2="111.9" stroke="rgb(0,0,0)"  stroke-width="2.0"/>
<line x1="207.9" y1="111.9" x2="178.1" y2="138.7" stroke="rgb(0,0,0)"  stroke-width="2.0"/>
<line x1="198.6" y1="110.6" x2="177.8" y2="129.3" stroke="rgb(0,0,0)"  stroke-width="2.0"/>
<line x1="178.1" y1="138.7" x2="143.5" y2="118.7" stroke="rgb(0,0,0)"  stroke-width="2.0"/>
<line x1="178.1" y1="178.7" x2="143.5" y2="198.7" stroke="rgb(0,0,0)"  stroke-width="2.0"/>
<line x1="108.9" y1="178.7" x2="108.9" y2="138.7" stroke="rgb(0,0,0)"  stroke-width="2.0"/>
<line x1="108.9" y1="138.7" x2="143.5" y2="118.7" stroke="rgb(0,0,0)"  stroke-width="2.0"/>
<line x1="178.1" y1="138.7" x2="178.1" y2="178.7" stroke="rgb(0,0,0)"  stroke-width="2.0"/>
<text x="185.590057" y="83.370109" fill="rgb(178,178,0)"  stroke="rgb(178,178,0)" stroke-width="1" font-size="16" >S</text>
<text x="119.043957" y="57.825455" fill="rgb(191,191,191)"  stroke="rgb(191,191,191)" stroke-width="1" font-size="16" >H</text>
<text x="68.210681" y="126.677152" fill="rgb(255,12,12)"  stroke="rgb(255,12,12)" stroke-width="1" font-size="16" >O</text>
<text x="34.000000" y="205.125908" fill="rgb(191,191,191)"  stroke="rgb(191,191,191)" stroke-width="1" font-size="16" >H</text>
<text x="89.395370" y="249.984194" fill="rgb(178,178,0)"  stroke="rgb(178,178,0)" stroke-width="1" font-size="16" >S</text>
<text x="155.941470" y="275.528849" fill="rgb(191,191,191)"  stroke="rgb(191,191,191)" stroke-width="1" font-size="16" >H</text>
<text x="206.774746" y="206.677152" fill="rgb(255,12,12)"  stroke="rgb(255,12,12)" stroke-width="1" font-size="16" >O</text>
<text x="270.711219" y="101.463171" fill="rgb(178,178,0)"  stroke="rgb(178,178,0)" stroke-width="1" font-size="16" >S</text>
<text x="385.133111" y="48.000000" fill="rgb(12,12,255)"  stroke="rgb(12,12,255)" stroke-width="1" font-size="16" >N</text>
<text x="400.528481" y="162.140318" fill="rgb(191,191,191)"  stroke="rgb(191,191,191)" stroke-width="1" font-size="16" >H</text>
<text x="331.676784" y="180.589075" fill="rgb(178,178,0)"  stroke="rgb(178,178,0)" stroke-width="1" font-size="16" >S</text>
<text x="217.254892" y="234.052246" fill="rgb(12,12,255)"  stroke="rgb(12,12,255)" stroke-width="1" font-size="16" >N</text>
</svg>
</g>
<text font-size="18.000000" fill ="black" font-family="sans-serif"
x="10.000000" y="20.000000" ></text>
</svg>
