<?xml version="1.0"?>
<svg version="1.1" id="topsvg"
xmlns="http://www.w3.org/2000/svg" xmlns:xlink="http://www.w3.org/1999/xlink"
xmlns:cml="http://www.xml-cml.org/schema" x="0" y="0" width="200px" height="200px" viewBox="0 0 100 100">
<title> - Open Babel Depiction</title>
<rect x="0" y="0" width="100" height="100" fill="white"/>
<g transform="translate(0,0)">
<svg width="100" height="100" x="0" y="0" viewBox="0 0 504.371 325.079"
font-family="sans-serif" stroke="rgb(0,0,0)" stroke-width="2"  stroke-linecap="round">
<line x1="160.0" y1="143.9" x2="200.0" y2="143.9" stroke="rgb(0,0,0)"  stroke-width="2.0"/>
<line x1="223.5" y1="111.6" x2="215.2" y2="85.9" stroke="rgb(0,0,0)"  stroke-width="2.0"/>
<line x1="261.6" y1="123.9" x2="293.9" y2="100.4" stroke="rgb(0,0,0)"  stroke-width="2.0"/>
<line x1="293.9" y1="100.4" x2="315.8" y2="84.5" stroke="rgb(0,0,0)"  stroke-width="2.0"/>
<line x1="291.4" y1="97.0" x2="313.3" y2="81.1" stroke="rgb(0,0,0)"  stroke-width="2.0"/>
<line x1="296.4" y1="103.8" x2="318.2" y2="87.9" stroke="rgb(0,0,0)"  stroke-width="2.0"/>
<line x1="261.6" y1="163.9" x2="293.9" y2="187.4" stroke="rgb(0,0,0)"  stroke-width="2.0"/>
<line x1="292.7" y1="184.7" x2="329.2" y2="168.4" stroke="rgb(0,0,0)"  stroke-width="2.0"/>
<line x1="295.1" y1="190.2" x2="331.7" y2="173.9" stroke="rgb(0,0,0)"  stroke-width="2.0"/>
<line x1="330.5" y1="171.2" x2="362.8" y2="194.7" stroke="rgb(0,0,0)"  stroke-width="2.0"/>
<line x1="400.9" y1="182.3" x2="413.2" y2="144.3" stroke="rgb(0,0,0)"  stroke-width="2.0"/>
<line x1="413.2" y1="144.3" x2="421.6" y2="118.6" stroke="rgb(0,0,0)"  stroke-width="2.0"/>
<line x1="409.2" y1="143.0" x2="417.6" y2="117.3" stroke="rgb(0,0,0)"  stroke-width="2.0"/>
<line x1="417.2" y1="145.6" x2="425.6" y2="119.9" stroke="rgb(0,0,0)"  stroke-width="2.0"/>
<line x1="424.4" y1="214.7" x2="451.4" y2="214.7" stroke="rgb(0,0,0)"  stroke-width="2.0"/>
<line x1="400.9" y1="247.0" x2="409.2" y2="272.7" stroke="rgb(0,0,0)"  stroke-width="2.0"/>
<line x1="80.0" y1="143.9" x2="53.0" y2="143.9" stroke="rgb(0,0,0)"  stroke-width="2.0"/>
<line x1="100.0" y1="109.3" x2="80.0" y2="74.6" stroke="rgb(0,0,0)"  stroke-width="2.0"/>
<line x1="80.0" y1="74.6" x2="66.5" y2="51.3" stroke="rgb(0,0,0)"  stroke-width="2.0"/>
<line x1="76.4" y1="76.7" x2="62.9" y2="53.4" stroke="rgb(0,0,0)"  stroke-width="2.0"/>
<line x1="83.6" y1="72.5" x2="70.1" y2="49.2" stroke="rgb(0,0,0)"  stroke-width="2.0"/>
<line x1="140.0" y1="109.3" x2="160.0" y2="74.6" stroke="rgb(0,0,0)"  stroke-width="2.0"/>
<line x1="160.0" y1="74.6" x2="173.5" y2="51.3" stroke="rgb(0,0,0)"  stroke-width="2.0"/>
<line x1="156.4" y1="72.5" x2="169.9" y2="49.2" stroke="rgb(0,0,0)"  stroke-width="2.0"/>
<line x1="163.6" y1="76.7" x2="177.1" y2="53.4" stroke="rgb(0,0,0)"  stroke-width="2.0"/>
<line x1="261.6" y1="123.9" x2="261.6" y2="163.9" stroke="rgb(0,0,0)"  stroke-width="2.0"/>
<line x1="254.4" y1="129.9" x2="254.4" y2="157.9" stroke="rgb(0,0,0)"  stroke-width="2.0"/>
<line x1="261.6" y1="163.9" x2="235.9" y2="172.3" stroke="rgb(0,0,0)"  stroke-width="2.0"/>
<line x1="215.9" y1="165.8" x2="200.0" y2="143.9" stroke="rgb(0,0,0)"  stroke-width="2.0"/>
<line x1="200.0" y1="143.9" x2="223.5" y2="111.6" stroke="rgb(0,0,0)"  stroke-width="2.0"/>
<line x1="209.4" y1="143.3" x2="225.8" y2="120.6" stroke="rgb(0,0,0)"  stroke-width="2.0"/>
<line x1="223.5" y1="111.6" x2="261.6" y2="123.9" stroke="rgb(0,0,0)"  stroke-width="2.0"/>
<line x1="424.4" y1="214.7" x2="400.9" y2="247.0" stroke="rgb(0,0,0)"  stroke-width="2.0"/>
<line x1="415.0" y1="215.3" x2="398.6" y2="238.0" stroke="rgb(0,0,0)"  stroke-width="2.0"/>
<line x1="400.9" y1="247.0" x2="375.2" y2="238.7" stroke="rgb(0,0,0)"  stroke-width="2.0"/>
<line x1="362.8" y1="221.7" x2="362.8" y2="194.7" stroke="rgb(0,0,0)"  stroke-width="2.0"/>
<line x1="362.8" y1="194.7" x2="400.9" y2="182.3" stroke="rgb(0,0,0)"  stroke-width="2.0"/>
<line x1="370.7" y1="199.7" x2="397.4" y2="191.0" stroke="rgb(0,0,0)"  stroke-width="2.0"/>
<line x1="400.9" y1="182.3" x2="424.4" y2="214.7" stroke="rgb(0,0,0)"  stroke-width="2.0"/>
<line x1="141.8" y1="224.2" x2="130.5" y2="232.5" stroke="rgb(0,0,0)"  stroke-width="2.0"/>
<line x1="109.5" y1="232.5" x2="98.2" y2="224.2" stroke="rgb(0,0,0)"  stroke-width="2.0"/>
<line x1="91.7" y1="204.1" x2="100.0" y2="178.6" stroke="rgb(0,0,0)"  stroke-width="2.0"/>
<line x1="99.2" y1="204.4" x2="105.0" y2="186.5" stroke="rgb(0,0,0)"  stroke-width="2.0"/>
<line x1="100.0" y1="178.6" x2="140.0" y2="178.6" stroke="rgb(0,0,0)"  stroke-width="2.0"/>
<line x1="140.0" y1="178.6" x2="148.3" y2="204.1" stroke="rgb(0,0,0)"  stroke-width="2.0"/>
<line x1="135.0" y1="186.5" x2="140.8" y2="204.4" stroke="rgb(0,0,0)"  stroke-width="2.0"/>
<line x1="100.0" y1="178.6" x2="80.0" y2="143.9" stroke="rgb(0,0,0)"  stroke-width="2.0"/>
<line x1="80.0" y1="143.9" x2="100.0" y2="109.3" stroke="rgb(0,0,0)"  stroke-width="2.0"/>
<line x1="89.2" y1="142.3" x2="103.2" y2="118.1" stroke="rgb(0,0,0)"  stroke-width="2.0"/>
<line x1="100.0" y1="109.3" x2="140.0" y2="109.3" stroke="rgb(0,0,0)"  stroke-width="2.0"/>
<line x1="140.0" y1="109.3" x2="160.0" y2="143.9" stroke="rgb(0,0,0)"  stroke-width="2.0"/>
<line x1="136.8" y1="118.1" x2="150.8" y2="142.3" stroke="rgb(0,0,0)"  stroke-width="2.0"/>
<line x1="160.0" y1="143.9" x2="140.0" y2="178.6" stroke="rgb(0,0,0)"  stroke-width="2.0"/>
<text x="407.219789" y="293.079343" fill="rgb(191,191,191)"  stroke="rgb(191,191,191)" stroke-width="1" font-size="16" >H</text>
<text x="356.816849" y="242.676403" fill="rgb(178,178,0)"  stroke="rgb(178,178,0)" stroke-width="1" font-size="16" >S</text>
<text x="146.360680" y="224.606325" fill="rgb(12,12,255)"  stroke="rgb(12,12,255)" stroke-width="1" font-size="16" >N</text>
<text x="114.000000" y="248.117735" fill="rgb(178,178,0)"  stroke="rgb(178,178,0)" stroke-width="1" font-size="16" >S</text>
<text x="81.639320" y="224.606325" fill="rgb(12,12,255)"  stroke="rgb(12,12,255)" stroke-width="1" font-size="16" >N</text>
<text x="458.370519" y="222.676403" fill="rgb(255,12,12)"  stroke="rgb(255,12,12)" stroke-width="1" font-size="16" >OH</text>
<text x="34.000000" y="151.923048" fill="rgb(191,191,191)"  stroke="rgb(191,191,191)" stroke-width="1" font-size="16" >H</text>
<text x="54.000000" y="48.000000" fill="rgb(12,12,255)"  stroke="rgb(12,12,255)" stroke-width="1" font-size="16" >N</text>
<text x="174.000000" y="48.000000" fill="rgb(12,12,255)"  stroke="rgb(12,12,255)" stroke-width="1" font-size="16" >N</text>
<text x="419.580469" y="114.231202" fill="rgb(12,12,255)"  stroke="rgb(12,12,255)" stroke-width="1" font-size="16" >N</text>
<text x="217.511410" y="184.283728" fill="rgb(178,178,0)"  stroke="rgb(178,178,0)" stroke-width="1" font-size="16" >S</text>
<text x="320.275030" y="84.900228" fill="rgb(12,12,255)"  stroke="rgb(12,12,255)" stroke-width="1" font-size="16" >N</text>
<text x="193.150730" y="81.520108" fill="rgb(255,12,12)"  stroke="rgb(255,12,12)" stroke-width="1" font-size="16" >HO</text>
</svg>
</g>
<text font-size="18.000000" fill ="black" font-family="sans-serif"
x="10.000000" y="20.000000" ></text>
</svg>
