<?xml version="1.0"?>
<svg version="1.1" id="topsvg"
xmlns="http://www.w3.org/2000/svg" xmlns:xlink="http://www.w3.org/1999/xlink"
xmlns:cml="http://www.xml-cml.org/schema" x="0" y="0" width="200px" height="200px" viewBox="0 0 100 100">
<title> - Open Babel Depiction</title>
<rect x="0" y="0" width="100" height="100" fill="white"/>
<g transform="translate(0,0)">
<svg width="100" height="100" x="0" y="0" viewBox="0 0 407.32 249.973"
font-family="sans-serif" stroke="rgb(0,0,0)" stroke-width="2"  stroke-linecap="round">
<line x1="310.0" y1="117.6" x2="276.3" y2="98.2" stroke="rgb(0,0,0)"  stroke-width="2.0"/>
<line x1="175.5" y1="117.6" x2="175.5" y2="144.6" stroke="rgb(0,0,0)"  stroke-width="2.0"/>
<line x1="175.5" y1="117.6" x2="152.1" y2="131.2" stroke="rgb(0,0,0)"  stroke-width="2.0"/>
<line x1="74.6" y1="98.2" x2="51.3" y2="111.8" stroke="rgb(0,0,0)"  stroke-width="2.0"/>
<line x1="341.4" y1="172.0" x2="346.7" y2="197.3" stroke="rgb(0,0,0)"  stroke-width="2.0"/>
<line x1="292.9" y1="159.2" x2="280.1" y2="159.2" stroke="rgb(0,0,0)"  stroke-width="2.0"/>
<line x1="292.9" y1="153.2" x2="280.1" y2="153.2" stroke="rgb(0,0,0)"  stroke-width="2.0"/>
<line x1="302.0" y1="169.0" x2="295.6" y2="180.1" stroke="rgb(0,0,0)"  stroke-width="2.0"/>
<line x1="296.8" y1="166.0" x2="290.4" y2="177.1" stroke="rgb(0,0,0)"  stroke-width="2.0"/>
<line x1="209.1" y1="98.2" x2="209.1" y2="59.4" stroke="rgb(0,0,0)"  stroke-width="2.0"/>
<line x1="216.3" y1="92.2" x2="216.3" y2="65.4" stroke="rgb(0,0,0)"  stroke-width="2.0"/>
<line x1="209.1" y1="59.4" x2="242.7" y2="40.0" stroke="rgb(0,0,0)"  stroke-width="2.0"/>
<line x1="242.7" y1="40.0" x2="276.3" y2="59.4" stroke="rgb(0,0,0)"  stroke-width="2.0"/>
<line x1="244.3" y1="49.2" x2="267.5" y2="62.6" stroke="rgb(0,0,0)"  stroke-width="2.0"/>
<line x1="276.3" y1="59.4" x2="276.3" y2="98.2" stroke="rgb(0,0,0)"  stroke-width="2.0"/>
<line x1="276.3" y1="98.2" x2="242.7" y2="117.6" stroke="rgb(0,0,0)"  stroke-width="2.0"/>
<line x1="267.5" y1="95.0" x2="244.3" y2="108.4" stroke="rgb(0,0,0)"  stroke-width="2.0"/>
<line x1="242.7" y1="117.6" x2="209.1" y2="98.2" stroke="rgb(0,0,0)"  stroke-width="2.0"/>
<line x1="108.2" y1="117.7" x2="141.9" y2="98.2" stroke="rgb(0,0,0)"  stroke-width="2.0"/>
<line x1="109.8" y1="108.4" x2="133.1" y2="95.0" stroke="rgb(0,0,0)"  stroke-width="2.0"/>
<line x1="141.9" y1="98.2" x2="141.9" y2="59.4" stroke="rgb(0,0,0)"  stroke-width="2.0"/>
<line x1="141.9" y1="59.4" x2="108.2" y2="40.0" stroke="rgb(0,0,0)"  stroke-width="2.0"/>
<line x1="133.1" y1="62.6" x2="109.8" y2="49.2" stroke="rgb(0,0,0)"  stroke-width="2.0"/>
<line x1="108.2" y1="40.0" x2="74.6" y2="59.4" stroke="rgb(0,0,0)"  stroke-width="2.0"/>
<line x1="74.6" y1="59.4" x2="74.6" y2="98.2" stroke="rgb(0,0,0)"  stroke-width="2.0"/>
<line x1="81.8" y1="65.4" x2="81.8" y2="92.2" stroke="rgb(0,0,0)"  stroke-width="2.0"/>
<line x1="74.6" y1="98.2" x2="108.2" y2="117.7" stroke="rgb(0,0,0)"  stroke-width="2.0"/>
<line x1="141.9" y1="59.4" x2="209.1" y2="59.4" stroke="rgb(0,0,0)"  stroke-width="2.0"/>
<line x1="209.1" y1="98.2" x2="175.5" y2="117.6" stroke="rgb(0,0,0)"  stroke-width="2.0"/>
<line x1="175.5" y1="117.6" x2="141.9" y2="98.2" stroke="rgb(0,0,0)"  stroke-width="2.0"/>
<line x1="367.3" y1="143.2" x2="341.4" y2="172.0" stroke="rgb(0,0,0)"  stroke-width="2.0"/>
<line x1="358.0" y1="142.8" x2="340.0" y2="162.7" stroke="rgb(0,0,0)"  stroke-width="2.0"/>
<line x1="341.4" y1="172.0" x2="317.8" y2="161.5" stroke="rgb(0,0,0)"  stroke-width="2.0"/>
<line x1="307.3" y1="143.3" x2="310.0" y2="117.6" stroke="rgb(0,0,0)"  stroke-width="2.0"/>
<line x1="310.0" y1="117.6" x2="347.9" y2="109.6" stroke="rgb(0,0,0)"  stroke-width="2.0"/>
<line x1="317.3" y1="123.4" x2="343.5" y2="117.9" stroke="rgb(0,0,0)"  stroke-width="2.0"/>
<line x1="347.9" y1="109.6" x2="367.3" y2="143.2" stroke="rgb(0,0,0)"  stroke-width="2.0"/>
<text x="280.500051" y="197.842882" fill="rgb(255,12,12)"  stroke="rgb(255,12,12)" stroke-width="1" font-size="16" >O</text>
<text x="261.093072" y="164.236055" fill="rgb(255,12,12)"  stroke="rgb(255,12,12)" stroke-width="1" font-size="16" >O</text>
<text x="299.900928" y="164.232531" fill="rgb(178,178,0)"  stroke="rgb(178,178,0)" stroke-width="1" font-size="16" >S</text>
<text x="343.427154" y="217.972968" fill="rgb(191,191,191)"  stroke="rgb(191,191,191)" stroke-width="1" font-size="16" >H</text>
<text x="34.000000" y="126.252426" fill="rgb(191,191,191)"  stroke="rgb(191,191,191)" stroke-width="1" font-size="16" >H</text>
<text x="134.863763" y="145.652283" fill="rgb(191,191,191)"  stroke="rgb(191,191,191)" stroke-width="1" font-size="16" >H</text>
<text x="169.509975" y="165.648089" fill="rgb(191,191,191)"  stroke="rgb(191,191,191)" stroke-width="1" font-size="16" >H</text>
</svg>
</g>
<text font-size="18.000000" fill ="black" font-family="sans-serif"
x="10.000000" y="20.000000" ></text>
</svg>
