<?xml version="1.0"?>
<svg version="1.1" id="topsvg"
xmlns="http://www.w3.org/2000/svg" xmlns:xlink="http://www.w3.org/1999/xlink"
xmlns:cml="http://www.xml-cml.org/schema" x="0" y="0" width="200px" height="200px" viewBox="0 0 100 100">
<title> - Open Babel Depiction</title>
<rect x="0" y="0" width="100" height="100" fill="white"/>
<g transform="translate(0,0)">
<svg width="100" height="100" x="0" y="0" viewBox="0 0 577.327 407.532"
font-family="sans-serif" stroke="rgb(0,0,0)" stroke-width="2"  stroke-linecap="round">
<line x1="275.7" y1="262.9" x2="241.0" y2="282.9" stroke="rgb(0,0,0)"  stroke-width="2.0"/>
<line x1="236.9" y1="322.7" x2="256.9" y2="340.7" stroke="rgb(0,0,0)"  stroke-width="2.0"/>
<line x1="197.7" y1="331.0" x2="186.7" y2="355.7" stroke="rgb(0,0,0)"  stroke-width="2.0"/>
<line x1="177.7" y1="296.3" x2="137.9" y2="292.2" stroke="rgb(0,0,0)"  stroke-width="2.0"/>
<line x1="74.6" y1="305.6" x2="51.3" y2="319.1" stroke="rgb(0,0,0)"  stroke-width="2.0"/>
<line x1="78.8" y1="265.8" x2="58.8" y2="247.8" stroke="rgb(0,0,0)"  stroke-width="2.0"/>
<line x1="117.9" y1="257.5" x2="128.9" y2="232.9" stroke="rgb(0,0,0)"  stroke-width="2.0"/>
<line x1="406.5" y1="239.9" x2="433.5" y2="239.9" stroke="rgb(0,0,0)"  stroke-width="2.0"/>
<line x1="406.5" y1="245.9" x2="433.5" y2="245.9" stroke="rgb(0,0,0)"  stroke-width="2.0"/>
<line x1="387.0" y1="287.6" x2="391.3" y2="300.9" stroke="rgb(0,0,0)"  stroke-width="2.0"/>
<line x1="408.1" y1="316.0" x2="421.8" y2="318.9" stroke="rgb(0,0,0)"  stroke-width="2.0"/>
<line x1="380.1" y1="209.6" x2="392.5" y2="171.6" stroke="rgb(0,0,0)"  stroke-width="2.0"/>
<line x1="385.9" y1="211.5" x2="398.2" y2="173.4" stroke="rgb(0,0,0)"  stroke-width="2.0"/>
<line x1="371.9" y1="143.1" x2="344.9" y2="143.1" stroke="rgb(0,0,0)"  stroke-width="2.0"/>
<line x1="371.9" y1="137.1" x2="344.9" y2="137.1" stroke="rgb(0,0,0)"  stroke-width="2.0"/>
<line x1="391.3" y1="95.4" x2="387.0" y2="82.1" stroke="rgb(0,0,0)"  stroke-width="2.0"/>
<line x1="391.7" y1="60.1" x2="401.1" y2="49.7" stroke="rgb(0,0,0)"  stroke-width="2.0"/>
<line x1="502.7" y1="120.1" x2="526.1" y2="106.6" stroke="rgb(0,0,0)"  stroke-width="2.0"/>
<line x1="197.7" y1="331.0" x2="177.7" y2="296.3" stroke="rgb(0,0,0)"  stroke-width="2.0"/>
<line x1="201.0" y1="322.2" x2="187.0" y2="297.9" stroke="rgb(0,0,0)"  stroke-width="2.0"/>
<line x1="177.7" y1="296.3" x2="195.8" y2="276.3" stroke="rgb(0,0,0)"  stroke-width="2.0"/>
<line x1="216.4" y1="271.9" x2="241.0" y2="282.9" stroke="rgb(0,0,0)"  stroke-width="2.0"/>
<line x1="241.0" y1="282.9" x2="236.9" y2="322.7" stroke="rgb(0,0,0)"  stroke-width="2.0"/>
<line x1="233.2" y1="288.1" x2="230.3" y2="316.0" stroke="rgb(0,0,0)"  stroke-width="2.0"/>
<line x1="236.9" y1="322.7" x2="197.7" y2="331.0" stroke="rgb(0,0,0)"  stroke-width="2.0"/>
<line x1="74.6" y1="305.6" x2="78.8" y2="265.8" stroke="rgb(0,0,0)"  stroke-width="2.0"/>
<line x1="82.4" y1="300.4" x2="85.4" y2="272.6" stroke="rgb(0,0,0)"  stroke-width="2.0"/>
<line x1="78.8" y1="265.8" x2="117.9" y2="257.5" stroke="rgb(0,0,0)"  stroke-width="2.0"/>
<line x1="117.9" y1="257.5" x2="137.9" y2="292.2" stroke="rgb(0,0,0)"  stroke-width="2.0"/>
<line x1="114.7" y1="266.3" x2="128.7" y2="290.6" stroke="rgb(0,0,0)"  stroke-width="2.0"/>
<line x1="137.9" y1="292.2" x2="119.9" y2="312.2" stroke="rgb(0,0,0)"  stroke-width="2.0"/>
<line x1="99.3" y1="316.6" x2="74.6" y2="305.6" stroke="rgb(0,0,0)"  stroke-width="2.0"/>
<line x1="310.3" y1="202.9" x2="345.0" y2="222.9" stroke="rgb(0,0,0)"  stroke-width="2.0"/>
<line x1="311.9" y1="212.1" x2="336.2" y2="226.1" stroke="rgb(0,0,0)"  stroke-width="2.0"/>
<line x1="345.0" y1="222.9" x2="345.0" y2="262.9" stroke="rgb(0,0,0)"  stroke-width="2.0"/>
<line x1="345.0" y1="262.9" x2="310.3" y2="282.9" stroke="rgb(0,0,0)"  stroke-width="2.0"/>
<line x1="336.2" y1="259.7" x2="311.9" y2="273.7" stroke="rgb(0,0,0)"  stroke-width="2.0"/>
<line x1="310.3" y1="282.9" x2="275.7" y2="262.9" stroke="rgb(0,0,0)"  stroke-width="2.0"/>
<line x1="275.7" y1="262.9" x2="275.7" y2="222.9" stroke="rgb(0,0,0)"  stroke-width="2.0"/>
<line x1="282.9" y1="256.9" x2="282.9" y2="228.9" stroke="rgb(0,0,0)"  stroke-width="2.0"/>
<line x1="275.7" y1="222.9" x2="310.3" y2="202.9" stroke="rgb(0,0,0)"  stroke-width="2.0"/>
<line x1="502.7" y1="160.1" x2="468.0" y2="180.1" stroke="rgb(0,0,0)"  stroke-width="2.0"/>
<line x1="468.0" y1="180.1" x2="433.4" y2="160.1" stroke="rgb(0,0,0)"  stroke-width="2.0"/>
<line x1="466.4" y1="170.9" x2="442.2" y2="156.9" stroke="rgb(0,0,0)"  stroke-width="2.0"/>
<line x1="433.4" y1="160.1" x2="433.4" y2="120.1" stroke="rgb(0,0,0)"  stroke-width="2.0"/>
<line x1="433.4" y1="120.1" x2="468.0" y2="100.1" stroke="rgb(0,0,0)"  stroke-width="2.0"/>
<line x1="442.2" y1="123.4" x2="466.4" y2="109.4" stroke="rgb(0,0,0)"  stroke-width="2.0"/>
<line x1="468.0" y1="100.1" x2="502.7" y2="120.1" stroke="rgb(0,0,0)"  stroke-width="2.0"/>
<line x1="502.7" y1="120.1" x2="502.7" y2="160.1" stroke="rgb(0,0,0)"  stroke-width="2.0"/>
<line x1="495.5" y1="126.1" x2="495.5" y2="154.1" stroke="rgb(0,0,0)"  stroke-width="2.0"/>
<line x1="406.5" y1="242.9" x2="390.6" y2="264.7" stroke="rgb(0,0,0)"  stroke-width="2.0"/>
<line x1="370.6" y1="271.2" x2="345.0" y2="262.9" stroke="rgb(0,0,0)"  stroke-width="2.0"/>
<line x1="345.0" y1="222.9" x2="383.0" y2="210.5" stroke="rgb(0,0,0)"  stroke-width="2.0"/>
<line x1="383.0" y1="210.5" x2="406.5" y2="242.9" stroke="rgb(0,0,0)"  stroke-width="2.0"/>
<line x1="407.7" y1="111.8" x2="433.4" y2="120.1" stroke="rgb(0,0,0)"  stroke-width="2.0"/>
<line x1="433.4" y1="160.1" x2="395.4" y2="172.5" stroke="rgb(0,0,0)"  stroke-width="2.0"/>
<line x1="395.4" y1="172.5" x2="371.9" y2="140.1" stroke="rgb(0,0,0)"  stroke-width="2.0"/>
<line x1="371.9" y1="140.1" x2="387.7" y2="118.3" stroke="rgb(0,0,0)"  stroke-width="2.0"/>
<text x="389.361966" y="115.768054" fill="rgb(12,12,255)"  stroke="rgb(12,12,255)" stroke-width="1" font-size="16" >N</text>
<text x="440.512696" y="250.892354" fill="rgb(255,12,12)"  stroke="rgb(255,12,12)" stroke-width="1" font-size="16" >O</text>
<text x="377.001286" y="283.253033" fill="rgb(12,12,255)"  stroke="rgb(12,12,255)" stroke-width="1" font-size="16" >N</text>
<text x="389.361966" y="321.295294" fill="rgb(255,12,12)"  stroke="rgb(255,12,12)" stroke-width="1" font-size="16" >O</text>
<text x="430.487870" y="329.611762" fill="rgb(102,102,102)"  stroke="rgb(102,102,102)" stroke-width="1" font-size="16" >CH</text>
<text x="454.487870" y="333.291762" fill="rgb(102,102,102)"  stroke="rgb(102,102,102)" stroke-width="1" font-size="13" >3</text>
<text x="325.850556" y="148.128733" fill="rgb(255,12,12)"  stroke="rgb(255,12,12)" stroke-width="1" font-size="16" >O</text>
<text x="377.001286" y="77.725793" fill="rgb(255,12,12)"  stroke="rgb(255,12,12)" stroke-width="1" font-size="16" >O</text>
<text x="405.766510" y="48.000000" fill="rgb(102,102,102)"  stroke="rgb(102,102,102)" stroke-width="1" font-size="16" >CH</text>
<text x="429.766510" y="51.680000" fill="rgb(102,102,102)"  stroke="rgb(102,102,102)" stroke-width="1" font-size="13" >3</text>
<text x="531.327275" y="108.128733" fill="rgb(191,191,191)"  stroke="rgb(191,191,191)" stroke-width="1" font-size="16" >H</text>
<text x="260.580632" y="357.438454" fill="rgb(255,12,12)"  stroke="rgb(255,12,12)" stroke-width="1" font-size="16" >OH</text>
<text x="163.459469" y="375.531515" fill="rgb(30,239,30)"  stroke="rgb(30,239,30)" stroke-width="1" font-size="16" >Cl</text>
<text x="198.494159" y="274.622888" fill="rgb(178,178,0)"  stroke="rgb(178,178,0)" stroke-width="1" font-size="16" >S</text>
<text x="105.182834" y="329.893335" fill="rgb(178,178,0)"  stroke="rgb(178,178,0)" stroke-width="1" font-size="16" >S</text>
<text x="34.000000" y="333.623870" fill="rgb(191,191,191)"  stroke="rgb(191,191,191)" stroke-width="1" font-size="16" >H</text>
<text x="31.096362" y="247.077770" fill="rgb(255,12,12)"  stroke="rgb(255,12,12)" stroke-width="1" font-size="16" >HO</text>
<text x="128.217524" y="228.984708" fill="rgb(30,239,30)"  stroke="rgb(30,239,30)" stroke-width="1" font-size="16" >Cl</text>
</svg>
</g>
<text font-size="18.000000" fill ="black" font-family="sans-serif"
x="10.000000" y="20.000000" ></text>
</svg>
