<?xml version="1.0"?>
<svg version="1.1" id="topsvg"
xmlns="http://www.w3.org/2000/svg" xmlns:xlink="http://www.w3.org/1999/xlink"
xmlns:cml="http://www.xml-cml.org/schema" x="0" y="0" width="200px" height="200px" viewBox="0 0 100 100">
<title> - Open Babel Depiction</title>
<rect x="0" y="0" width="100" height="100" fill="white"/>
<g transform="translate(0,0)">
<svg width="100" height="100" x="0" y="0" viewBox="0 0 486.949 255.512"
font-family="sans-serif" stroke="rgb(0,0,0)" stroke-width="2"  stroke-linecap="round">
<line x1="174.9" y1="113.0" x2="208.8" y2="132.6" stroke="rgb(0,0,0)"  stroke-width="2.0"/>
<line x1="310.6" y1="100.1" x2="310.6" y2="73.9" stroke="rgb(0,0,0)"  stroke-width="2.0"/>
<line x1="310.6" y1="70.9" x2="336.7" y2="70.9" stroke="rgb(0,0,0)"  stroke-width="2.0"/>
<line x1="310.6" y1="76.9" x2="336.7" y2="76.9" stroke="rgb(0,0,0)"  stroke-width="2.0"/>
<line x1="310.6" y1="73.9" x2="297.5" y2="51.3" stroke="rgb(0,0,0)"  stroke-width="2.0"/>
<line x1="278.0" y1="40.0" x2="264.8" y2="40.0" stroke="rgb(0,0,0)"  stroke-width="2.0"/>
<line x1="412.3" y1="132.7" x2="435.7" y2="119.2" stroke="rgb(0,0,0)"  stroke-width="2.0"/>
<line x1="139.9" y1="175.5" x2="157.4" y2="195.0" stroke="rgb(0,0,0)"  stroke-width="2.0"/>
<line x1="135.4" y1="179.5" x2="152.9" y2="199.0" stroke="rgb(0,0,0)"  stroke-width="2.0"/>
<line x1="92.2" y1="192.9" x2="85.7" y2="204.3" stroke="rgb(0,0,0)"  stroke-width="2.0"/>
<line x1="66.2" y1="215.5" x2="53.0" y2="215.5" stroke="rgb(0,0,0)"  stroke-width="2.0"/>
<line x1="82.2" y1="148.8" x2="56.6" y2="143.3" stroke="rgb(0,0,0)"  stroke-width="2.0"/>
<line x1="83.4" y1="142.9" x2="57.9" y2="137.5" stroke="rgb(0,0,0)"  stroke-width="2.0"/>
<line x1="120.1" y1="81.4" x2="102.6" y2="61.9" stroke="rgb(0,0,0)"  stroke-width="2.0"/>
<line x1="344.5" y1="132.6" x2="344.5" y2="171.8" stroke="rgb(0,0,0)"  stroke-width="2.0"/>
<line x1="344.5" y1="171.8" x2="276.6" y2="171.8" stroke="rgb(0,0,0)"  stroke-width="2.0"/>
<line x1="276.6" y1="171.8" x2="276.6" y2="132.6" stroke="rgb(0,0,0)"  stroke-width="2.0"/>
<line x1="283.8" y1="165.8" x2="283.8" y2="138.6" stroke="rgb(0,0,0)"  stroke-width="2.0"/>
<line x1="276.6" y1="132.6" x2="299.3" y2="119.6" stroke="rgb(0,0,0)"  stroke-width="2.0"/>
<line x1="321.8" y1="119.6" x2="344.5" y2="132.6" stroke="rgb(0,0,0)"  stroke-width="2.0"/>
<line x1="111.9" y1="119.6" x2="120.1" y2="81.4" stroke="rgb(0,0,0)"  stroke-width="2.0"/>
<line x1="120.2" y1="115.3" x2="125.9" y2="88.7" stroke="rgb(0,0,0)"  stroke-width="2.0"/>
<line x1="120.1" y1="81.4" x2="146.1" y2="78.6" stroke="rgb(0,0,0)"  stroke-width="2.0"/>
<line x1="164.3" y1="89.1" x2="174.9" y2="113.0" stroke="rgb(0,0,0)"  stroke-width="2.0"/>
<line x1="174.9" y1="113.0" x2="145.8" y2="139.2" stroke="rgb(0,0,0)"  stroke-width="2.0"/>
<line x1="165.6" y1="111.7" x2="145.5" y2="129.9" stroke="rgb(0,0,0)"  stroke-width="2.0"/>
<line x1="145.8" y1="139.2" x2="111.9" y2="119.6" stroke="rgb(0,0,0)"  stroke-width="2.0"/>
<line x1="276.6" y1="171.8" x2="242.7" y2="191.4" stroke="rgb(0,0,0)"  stroke-width="2.0"/>
<line x1="242.7" y1="191.4" x2="208.8" y2="171.8" stroke="rgb(0,0,0)"  stroke-width="2.0"/>
<line x1="241.1" y1="182.1" x2="217.6" y2="168.6" stroke="rgb(0,0,0)"  stroke-width="2.0"/>
<line x1="208.8" y1="171.8" x2="208.8" y2="132.6" stroke="rgb(0,0,0)"  stroke-width="2.0"/>
<line x1="208.8" y1="132.6" x2="242.7" y2="113.0" stroke="rgb(0,0,0)"  stroke-width="2.0"/>
<line x1="217.6" y1="135.9" x2="241.1" y2="122.3" stroke="rgb(0,0,0)"  stroke-width="2.0"/>
<line x1="242.7" y1="113.0" x2="276.6" y2="132.6" stroke="rgb(0,0,0)"  stroke-width="2.0"/>
<line x1="378.4" y1="113.1" x2="344.5" y2="132.6" stroke="rgb(0,0,0)"  stroke-width="2.0"/>
<line x1="376.8" y1="122.3" x2="353.3" y2="135.9" stroke="rgb(0,0,0)"  stroke-width="2.0"/>
<line x1="344.5" y1="171.8" x2="378.4" y2="191.4" stroke="rgb(0,0,0)"  stroke-width="2.0"/>
<line x1="353.3" y1="168.6" x2="376.8" y2="182.2" stroke="rgb(0,0,0)"  stroke-width="2.0"/>
<line x1="378.4" y1="191.4" x2="412.3" y2="171.8" stroke="rgb(0,0,0)"  stroke-width="2.0"/>
<line x1="412.3" y1="171.8" x2="412.3" y2="132.7" stroke="rgb(0,0,0)"  stroke-width="2.0"/>
<line x1="405.1" y1="165.8" x2="405.1" y2="138.7" stroke="rgb(0,0,0)"  stroke-width="2.0"/>
<line x1="412.3" y1="132.7" x2="378.4" y2="113.1" stroke="rgb(0,0,0)"  stroke-width="2.0"/>
<line x1="137.7" y1="177.5" x2="111.7" y2="180.3" stroke="rgb(0,0,0)"  stroke-width="2.0"/>
<line x1="93.4" y1="169.7" x2="82.8" y2="145.8" stroke="rgb(0,0,0)"  stroke-width="2.0"/>
<line x1="82.8" y1="145.8" x2="111.9" y2="119.6" stroke="rgb(0,0,0)"  stroke-width="2.0"/>
<line x1="145.8" y1="139.2" x2="137.7" y2="177.5" stroke="rgb(0,0,0)"  stroke-width="2.0"/>
<text x="152.997197" y="85.268015" fill="rgb(178,178,0)"  stroke="rgb(178,178,0)" stroke-width="1" font-size="16" >S</text>
<text x="87.867691" y="60.254508" fill="rgb(191,191,191)"  stroke="rgb(191,191,191)" stroke-width="1" font-size="16" >H</text>
<text x="38.520054" y="145.693768" fill="rgb(255,12,12)"  stroke="rgb(255,12,12)" stroke-width="1" font-size="16" >O</text>
<text x="14.000000" y="223.505023" fill="rgb(102,102,102)"  stroke="rgb(102,102,102)" stroke-width="1" font-size="16" >H</text>
<text x="26.000000" y="227.185023" fill="rgb(102,102,102)"  stroke="rgb(102,102,102)" stroke-width="1" font-size="13" >3</text>
<text x="32.500000" y="223.505023" fill="rgb(102,102,102)"  stroke="rgb(102,102,102)" stroke-width="1" font-size="16" >C</text>
<text x="73.151044" y="223.511640" fill="rgb(255,12,12)"  stroke="rgb(255,12,12)" stroke-width="1" font-size="16" >O</text>
<text x="92.732297" y="189.609150" fill="rgb(12,12,255)"  stroke="rgb(12,12,255)" stroke-width="1" font-size="16" >N</text>
<text x="157.861804" y="214.622657" fill="rgb(255,12,12)"  stroke="rgb(255,12,12)" stroke-width="1" font-size="16" >O</text>
<text x="440.948945" y="120.661174" fill="rgb(191,191,191)"  stroke="rgb(191,191,191)" stroke-width="1" font-size="16" >H</text>
<text x="225.834401" y="48.000000" fill="rgb(102,102,102)"  stroke="rgb(102,102,102)" stroke-width="1" font-size="16" >H</text>
<text x="237.834401" y="51.680000" fill="rgb(102,102,102)"  stroke="rgb(102,102,102)" stroke-width="1" font-size="13" >3</text>
<text x="244.334401" y="48.000000" fill="rgb(102,102,102)"  stroke="rgb(102,102,102)" stroke-width="1" font-size="16" >C</text>
<text x="284.985446" y="48.002716" fill="rgb(255,12,12)"  stroke="rgb(255,12,12)" stroke-width="1" font-size="16" >O</text>
<text x="343.709660" y="81.912590" fill="rgb(255,12,12)"  stroke="rgb(255,12,12)" stroke-width="1" font-size="16" >O</text>
<text x="304.555900" y="121.060918" fill="rgb(12,12,255)"  stroke="rgb(12,12,255)" stroke-width="1" font-size="16" >N</text>
</svg>
</g>
<text font-size="18.000000" fill ="black" font-family="sans-serif"
x="10.000000" y="20.000000" ></text>
</svg>
