<?xml version="1.0"?>
<svg version="1.1" id="topsvg"
xmlns="http://www.w3.org/2000/svg" xmlns:xlink="http://www.w3.org/1999/xlink"
xmlns:cml="http://www.xml-cml.org/schema" x="0" y="0" width="200px" height="200px" viewBox="0 0 100 100">
<title> - Open Babel Depiction</title>
<rect x="0" y="0" width="100" height="100" fill="white"/>
<g transform="translate(0,0)">
<svg width="100" height="100" x="0" y="0" viewBox="0 0 421.775 461.499"
font-family="sans-serif" stroke="rgb(0,0,0)" stroke-width="2"  stroke-linecap="round">
<line x1="197.0" y1="137.8" x2="178.0" y2="170.7" stroke="rgb(0,0,0)"  stroke-width="2.0"/>
<line x1="140.2" y1="174.7" x2="123.6" y2="156.1" stroke="rgb(0,0,0)"  stroke-width="2.0"/>
<line x1="132.4" y1="211.8" x2="97.7" y2="227.2" stroke="rgb(0,0,0)"  stroke-width="2.0"/>
<line x1="97.7" y1="227.2" x2="74.9" y2="237.4" stroke="rgb(0,0,0)"  stroke-width="2.0"/>
<line x1="99.4" y1="231.1" x2="76.6" y2="241.2" stroke="rgb(0,0,0)"  stroke-width="2.0"/>
<line x1="96.0" y1="223.4" x2="73.2" y2="233.5" stroke="rgb(0,0,0)"  stroke-width="2.0"/>
<line x1="165.2" y1="230.8" x2="169.2" y2="268.5" stroke="rgb(0,0,0)"  stroke-width="2.0"/>
<line x1="171.0" y1="270.9" x2="140.3" y2="293.2" stroke="rgb(0,0,0)"  stroke-width="2.0"/>
<line x1="167.4" y1="266.1" x2="136.7" y2="288.4" stroke="rgb(0,0,0)"  stroke-width="2.0"/>
<line x1="138.5" y1="290.8" x2="142.5" y2="328.6" stroke="rgb(0,0,0)"  stroke-width="2.0"/>
<line x1="114.3" y1="354.0" x2="77.1" y2="346.1" stroke="rgb(0,0,0)"  stroke-width="2.0"/>
<line x1="77.1" y1="346.1" x2="52.7" y2="340.9" stroke="rgb(0,0,0)"  stroke-width="2.0"/>
<line x1="76.3" y1="350.2" x2="51.8" y2="345.0" stroke="rgb(0,0,0)"  stroke-width="2.0"/>
<line x1="78.0" y1="342.0" x2="53.6" y2="336.8" stroke="rgb(0,0,0)"  stroke-width="2.0"/>
<line x1="129.7" y1="388.6" x2="117.2" y2="410.2" stroke="rgb(0,0,0)"  stroke-width="2.0"/>
<line x1="167.4" y1="384.7" x2="184.1" y2="403.2" stroke="rgb(0,0,0)"  stroke-width="2.0"/>
<line x1="270.6" y1="152.5" x2="273.2" y2="177.3" stroke="rgb(0,0,0)"  stroke-width="2.0"/>
<line x1="264.6" y1="153.1" x2="267.2" y2="178.0" stroke="rgb(0,0,0)"  stroke-width="2.0"/>
<line x1="308.5" y1="130.1" x2="332.9" y2="135.3" stroke="rgb(0,0,0)"  stroke-width="2.0"/>
<line x1="330.7" y1="133.3" x2="347.4" y2="114.8" stroke="rgb(0,0,0)"  stroke-width="2.0"/>
<line x1="335.2" y1="137.3" x2="351.8" y2="118.8" stroke="rgb(0,0,0)"  stroke-width="2.0"/>
<line x1="332.9" y1="135.3" x2="340.6" y2="159.1" stroke="rgb(0,0,0)"  stroke-width="2.0"/>
<line x1="357.4" y1="174.1" x2="369.1" y2="176.6" stroke="rgb(0,0,0)"  stroke-width="2.0"/>
<line x1="280.4" y1="92.8" x2="292.8" y2="71.1" stroke="rgb(0,0,0)"  stroke-width="2.0"/>
<line x1="206.8" y1="78.1" x2="204.1" y2="53.2" stroke="rgb(0,0,0)"  stroke-width="2.0"/>
<line x1="212.7" y1="77.4" x2="210.1" y2="52.6" stroke="rgb(0,0,0)"  stroke-width="2.0"/>
<line x1="189.4" y1="113.5" x2="255.2" y2="200.1" stroke="rgb(0,0,0)"  stroke-width="2.0"/>
<line x1="253.7" y1="197.5" x2="275.3" y2="185.1" stroke="rgb(0,0,0)"  stroke-width="2.0"/>
<line x1="256.7" y1="202.7" x2="278.3" y2="190.3" stroke="rgb(0,0,0)"  stroke-width="2.0"/>
<line x1="255.2" y1="200.1" x2="233.6" y2="187.7" stroke="rgb(0,0,0)"  stroke-width="2.0"/>
<line x1="211.1" y1="187.7" x2="200.7" y2="193.6" stroke="rgb(0,0,0)"  stroke-width="2.0"/>
<line x1="132.4" y1="211.8" x2="165.2" y2="230.8" stroke="rgb(0,0,0)"  stroke-width="2.0"/>
<line x1="141.2" y1="208.5" x2="163.6" y2="221.5" stroke="rgb(0,0,0)"  stroke-width="2.0"/>
<line x1="165.2" y1="230.8" x2="183.8" y2="214.1" stroke="rgb(0,0,0)"  stroke-width="2.0"/>
<line x1="188.1" y1="193.5" x2="178.0" y2="170.7" stroke="rgb(0,0,0)"  stroke-width="2.0"/>
<line x1="178.0" y1="170.7" x2="140.2" y2="174.7" stroke="rgb(0,0,0)"  stroke-width="2.0"/>
<line x1="172.8" y1="178.5" x2="147.0" y2="181.2" stroke="rgb(0,0,0)"  stroke-width="2.0"/>
<line x1="140.2" y1="174.7" x2="132.4" y2="211.8" stroke="rgb(0,0,0)"  stroke-width="2.0"/>
<line x1="129.7" y1="388.6" x2="167.4" y2="384.7" stroke="rgb(0,0,0)"  stroke-width="2.0"/>
<line x1="134.9" y1="380.8" x2="160.7" y2="378.1" stroke="rgb(0,0,0)"  stroke-width="2.0"/>
<line x1="167.4" y1="384.7" x2="172.6" y2="360.3" stroke="rgb(0,0,0)"  stroke-width="2.0"/>
<line x1="164.1" y1="341.0" x2="142.5" y2="328.6" stroke="rgb(0,0,0)"  stroke-width="2.0"/>
<line x1="142.5" y1="328.6" x2="114.3" y2="354.0" stroke="rgb(0,0,0)"  stroke-width="2.0"/>
<line x1="142.8" y1="337.9" x2="123.5" y2="355.3" stroke="rgb(0,0,0)"  stroke-width="2.0"/>
<line x1="114.3" y1="354.0" x2="129.7" y2="388.6" stroke="rgb(0,0,0)"  stroke-width="2.0"/>
<line x1="267.6" y1="152.8" x2="286.1" y2="136.1" stroke="rgb(0,0,0)"  stroke-width="2.0"/>
<line x1="290.5" y1="115.6" x2="280.4" y2="92.8" stroke="rgb(0,0,0)"  stroke-width="2.0"/>
<line x1="280.4" y1="92.8" x2="242.6" y2="96.7" stroke="rgb(0,0,0)"  stroke-width="2.0"/>
<line x1="275.1" y1="100.5" x2="249.3" y2="103.3" stroke="rgb(0,0,0)"  stroke-width="2.0"/>
<line x1="242.6" y1="96.7" x2="234.7" y2="133.8" stroke="rgb(0,0,0)"  stroke-width="2.0"/>
<line x1="234.7" y1="133.8" x2="267.6" y2="152.8" stroke="rgb(0,0,0)"  stroke-width="2.0"/>
<line x1="242.6" y1="96.7" x2="209.7" y2="77.7" stroke="rgb(0,0,0)"  stroke-width="2.0"/>
<line x1="209.7" y1="77.7" x2="191.2" y2="94.4" stroke="rgb(0,0,0)"  stroke-width="2.0"/>
<line x1="186.8" y1="115.0" x2="197.0" y2="137.8" stroke="rgb(0,0,0)"  stroke-width="2.0"/>
<line x1="197.0" y1="137.8" x2="234.7" y2="133.8" stroke="rgb(0,0,0)"  stroke-width="2.0"/>
<line x1="202.2" y1="130.0" x2="228.0" y2="127.3" stroke="rgb(0,0,0)"  stroke-width="2.0"/>
<text x="293.335275" y="67.887032" fill="rgb(191,191,191)"  stroke="rgb(191,191,191)" stroke-width="1" font-size="16" >H</text>
<text x="265.557024" y="198.573429" fill="rgb(255,12,12)"  stroke="rgb(255,12,12)" stroke-width="1" font-size="16" >O</text>
<text x="289.795496" y="135.430052" fill="rgb(12,12,255)"  stroke="rgb(12,12,255)" stroke-width="1" font-size="16" >N</text>
<text x="352.317392" y="115.115457" fill="rgb(255,12,12)"  stroke="rgb(255,12,12)" stroke-width="1" font-size="16" >O</text>
<text x="338.649400" y="179.418305" fill="rgb(255,12,12)"  stroke="rgb(255,12,12)" stroke-width="1" font-size="16" >O</text>
<text x="377.774666" y="187.309524" fill="rgb(102,102,102)"  stroke="rgb(102,102,102)" stroke-width="1" font-size="16" >CH</text>
<text x="401.774666" y="190.989524" fill="rgb(102,102,102)"  stroke="rgb(102,102,102)" stroke-width="1" font-size="13" >3</text>
<text x="169.326054" y="355.536363" fill="rgb(178,178,0)"  stroke="rgb(178,178,0)" stroke-width="1" font-size="16" >S</text>
<text x="199.774145" y="48.000000" fill="rgb(255,12,12)"  stroke="rgb(255,12,12)" stroke-width="1" font-size="16" >O</text>
<text x="175.535673" y="111.143377" fill="rgb(12,12,255)"  stroke="rgb(12,12,255)" stroke-width="1" font-size="16" >N</text>
<text x="282.086947" y="189.168664" fill="rgb(255,12,12)"  stroke="rgb(255,12,12)" stroke-width="1" font-size="16" >O</text>
<text x="216.347535" y="189.168664" fill="rgb(255,12,12)"  stroke="rgb(255,12,12)" stroke-width="1" font-size="16" >O</text>
<text x="163.477829" y="208.145998" fill="rgb(102,102,102)"  stroke="rgb(102,102,102)" stroke-width="1" font-size="16" >H</text>
<text x="175.477829" y="211.825998" fill="rgb(102,102,102)"  stroke="rgb(102,102,102)" stroke-width="1" font-size="13" >3</text>
<text x="181.977829" y="208.145998" fill="rgb(102,102,102)"  stroke="rgb(102,102,102)" stroke-width="1" font-size="16" >C</text>
<text x="96.852516" y="154.447926" fill="rgb(30,239,30)"  stroke="rgb(30,239,30)" stroke-width="1" font-size="16" >Cl</text>
<text x="57.011299" y="250.654115" fill="rgb(12,12,255)"  stroke="rgb(12,12,255)" stroke-width="1" font-size="16" >N</text>
<text x="187.433448" y="213.359711" fill="rgb(178,178,0)"  stroke="rgb(178,178,0)" stroke-width="1" font-size="16" >S</text>
<text x="34.000000" y="346.173221" fill="rgb(12,12,255)"  stroke="rgb(12,12,255)" stroke-width="1" font-size="16" >N</text>
<text x="92.710754" y="429.498679" fill="rgb(30,239,30)"  stroke="rgb(30,239,30)" stroke-width="1" font-size="16" >Cl</text>
<text x="186.831465" y="420.867445" fill="rgb(191,191,191)"  stroke="rgb(191,191,191)" stroke-width="1" font-size="16" >H</text>
</svg>
</g>
<text font-size="18.000000" fill ="black" font-family="sans-serif"
x="10.000000" y="20.000000" ></text>
</svg>
