<?xml version="1.0"?>
<svg version="1.1" id="topsvg"
xmlns="http://www.w3.org/2000/svg" xmlns:xlink="http://www.w3.org/1999/xlink"
xmlns:cml="http://www.xml-cml.org/schema" x="0" y="0" width="200px" height="200px" viewBox="0 0 100 100">
<title> - Open Babel Depiction</title>
<rect x="0" y="0" width="100" height="100" fill="white"/>
<g transform="translate(0,0)">
<svg width="100" height="100" x="0" y="0" viewBox="0 0 450.435 440.996"
font-family="sans-serif" stroke="rgb(0,0,0)" stroke-width="2"  stroke-linecap="round">
<line x1="172.5" y1="263.6" x2="210.5" y2="276.0" stroke="rgb(0,0,0)"  stroke-width="2.0"/>
<line x1="266.7" y1="375.3" x2="259.7" y2="387.4" stroke="rgb(0,0,0)"  stroke-width="2.0"/>
<line x1="380.7" y1="374.2" x2="400.8" y2="392.3" stroke="rgb(0,0,0)"  stroke-width="2.0"/>
<line x1="180.1" y1="187.9" x2="207.1" y2="187.9" stroke="rgb(0,0,0)"  stroke-width="2.0"/>
<line x1="180.1" y1="193.9" x2="207.1" y2="193.9" stroke="rgb(0,0,0)"  stroke-width="2.0"/>
<line x1="172.5" y1="118.3" x2="210.5" y2="105.9" stroke="rgb(0,0,0)"  stroke-width="2.0"/>
<line x1="207.6" y1="105.3" x2="213.2" y2="78.9" stroke="rgb(0,0,0)"  stroke-width="2.0"/>
<line x1="213.5" y1="106.5" x2="219.1" y2="80.1" stroke="rgb(0,0,0)"  stroke-width="2.0"/>
<line x1="210.5" y1="105.9" x2="230.6" y2="124.0" stroke="rgb(0,0,0)"  stroke-width="2.0"/>
<line x1="252.6" y1="128.6" x2="265.9" y2="124.3" stroke="rgb(0,0,0)"  stroke-width="2.0"/>
<line x1="107.8" y1="118.3" x2="69.7" y2="105.9" stroke="rgb(0,0,0)"  stroke-width="2.0"/>
<line x1="71.7" y1="108.1" x2="51.7" y2="126.2" stroke="rgb(0,0,0)"  stroke-width="2.0"/>
<line x1="67.7" y1="103.7" x2="47.7" y2="121.7" stroke="rgb(0,0,0)"  stroke-width="2.0"/>
<line x1="69.7" y1="105.9" x2="64.1" y2="79.5" stroke="rgb(0,0,0)"  stroke-width="2.0"/>
<line x1="71.1" y1="58.1" x2="81.5" y2="48.7" stroke="rgb(0,0,0)"  stroke-width="2.0"/>
<line x1="100.1" y1="193.9" x2="73.1" y2="193.9" stroke="rgb(0,0,0)"  stroke-width="2.0"/>
<line x1="100.1" y1="187.9" x2="73.1" y2="187.9" stroke="rgb(0,0,0)"  stroke-width="2.0"/>
<line x1="107.8" y1="263.6" x2="82.1" y2="272.0" stroke="rgb(0,0,0)"  stroke-width="2.0"/>
<line x1="312.9" y1="359.8" x2="321.3" y2="320.7" stroke="rgb(0,0,0)"  stroke-width="2.0"/>
<line x1="321.3" y1="320.7" x2="286.6" y2="300.7" stroke="rgb(0,0,0)"  stroke-width="2.0"/>
<line x1="286.6" y1="300.7" x2="256.9" y2="327.5" stroke="rgb(0,0,0)"  stroke-width="2.0"/>
<line x1="287.0" y1="310.1" x2="266.2" y2="328.8" stroke="rgb(0,0,0)"  stroke-width="2.0"/>
<line x1="256.9" y1="327.5" x2="267.9" y2="352.1" stroke="rgb(0,0,0)"  stroke-width="2.0"/>
<line x1="286.1" y1="362.6" x2="312.9" y2="359.8" stroke="rgb(0,0,0)"  stroke-width="2.0"/>
<line x1="129.6" y1="102.4" x2="107.8" y2="118.3" stroke="rgb(0,0,0)"  stroke-width="2.0"/>
<line x1="107.8" y1="118.3" x2="120.1" y2="156.3" stroke="rgb(0,0,0)"  stroke-width="2.0"/>
<line x1="116.5" y1="121.7" x2="125.1" y2="148.4" stroke="rgb(0,0,0)"  stroke-width="2.0"/>
<line x1="120.1" y1="156.3" x2="160.1" y2="156.3" stroke="rgb(0,0,0)"  stroke-width="2.0"/>
<line x1="160.1" y1="156.3" x2="172.5" y2="118.3" stroke="rgb(0,0,0)"  stroke-width="2.0"/>
<line x1="155.1" y1="148.4" x2="163.8" y2="121.7" stroke="rgb(0,0,0)"  stroke-width="2.0"/>
<line x1="172.5" y1="118.3" x2="150.6" y2="102.4" stroke="rgb(0,0,0)"  stroke-width="2.0"/>
<line x1="120.1" y1="225.6" x2="107.8" y2="263.6" stroke="rgb(0,0,0)"  stroke-width="2.0"/>
<line x1="125.1" y1="233.5" x2="116.5" y2="260.1" stroke="rgb(0,0,0)"  stroke-width="2.0"/>
<line x1="107.8" y1="263.6" x2="129.6" y2="279.5" stroke="rgb(0,0,0)"  stroke-width="2.0"/>
<line x1="150.6" y1="279.5" x2="172.5" y2="263.6" stroke="rgb(0,0,0)"  stroke-width="2.0"/>
<line x1="172.5" y1="263.6" x2="160.1" y2="225.6" stroke="rgb(0,0,0)"  stroke-width="2.0"/>
<line x1="163.8" y1="260.1" x2="155.1" y2="233.5" stroke="rgb(0,0,0)"  stroke-width="2.0"/>
<line x1="160.1" y1="225.6" x2="120.1" y2="225.6" stroke="rgb(0,0,0)"  stroke-width="2.0"/>
<line x1="286.6" y1="300.7" x2="278.3" y2="261.6" stroke="rgb(0,0,0)"  stroke-width="2.0"/>
<line x1="278.3" y1="261.6" x2="240.3" y2="249.2" stroke="rgb(0,0,0)"  stroke-width="2.0"/>
<line x1="270.4" y1="266.6" x2="243.7" y2="257.9" stroke="rgb(0,0,0)"  stroke-width="2.0"/>
<line x1="240.3" y1="249.2" x2="210.5" y2="276.0" stroke="rgb(0,0,0)"  stroke-width="2.0"/>
<line x1="210.5" y1="276.0" x2="218.8" y2="315.1" stroke="rgb(0,0,0)"  stroke-width="2.0"/>
<line x1="218.8" y1="280.4" x2="224.6" y2="307.7" stroke="rgb(0,0,0)"  stroke-width="2.0"/>
<line x1="218.8" y1="315.1" x2="256.9" y2="327.5" stroke="rgb(0,0,0)"  stroke-width="2.0"/>
<line x1="342.7" y1="386.6" x2="312.9" y2="359.8" stroke="rgb(0,0,0)"  stroke-width="2.0"/>
<line x1="343.0" y1="377.2" x2="322.2" y2="358.5" stroke="rgb(0,0,0)"  stroke-width="2.0"/>
<line x1="321.3" y1="320.7" x2="359.3" y2="308.3" stroke="rgb(0,0,0)"  stroke-width="2.0"/>
<line x1="329.2" y1="325.7" x2="355.8" y2="317.0" stroke="rgb(0,0,0)"  stroke-width="2.0"/>
<line x1="359.3" y1="308.3" x2="389.0" y2="335.1" stroke="rgb(0,0,0)"  stroke-width="2.0"/>
<line x1="389.0" y1="335.1" x2="380.7" y2="374.2" stroke="rgb(0,0,0)"  stroke-width="2.0"/>
<line x1="380.7" y1="339.5" x2="374.9" y2="366.9" stroke="rgb(0,0,0)"  stroke-width="2.0"/>
<line x1="380.7" y1="374.2" x2="342.7" y2="386.6" stroke="rgb(0,0,0)"  stroke-width="2.0"/>
<line x1="180.1" y1="190.9" x2="160.1" y2="156.3" stroke="rgb(0,0,0)"  stroke-width="2.0"/>
<line x1="120.1" y1="156.3" x2="100.1" y2="190.9" stroke="rgb(0,0,0)"  stroke-width="2.0"/>
<line x1="100.1" y1="190.9" x2="120.1" y2="225.6" stroke="rgb(0,0,0)"  stroke-width="2.0"/>
<line x1="160.1" y1="225.6" x2="180.1" y2="190.9" stroke="rgb(0,0,0)"  stroke-width="2.0"/>
<text x="55.409325" y="74.765224" fill="rgb(255,12,12)"  stroke="rgb(255,12,12)" stroke-width="1" font-size="16" >O</text>
<text x="212.848142" y="74.765224" fill="rgb(255,12,12)"  stroke="rgb(255,12,12)" stroke-width="1" font-size="16" >O</text>
<text x="234.257467" y="140.656353" fill="rgb(255,12,12)"  stroke="rgb(255,12,12)" stroke-width="1" font-size="16" >O</text>
<text x="274.299728" y="128.295673" fill="rgb(102,102,102)"  stroke="rgb(102,102,102)" stroke-width="1" font-size="16" >CH</text>
<text x="298.299728" y="131.975673" fill="rgb(102,102,102)"  stroke="rgb(102,102,102)" stroke-width="1" font-size="13" >3</text>
<text x="134.128733" y="102.740398" fill="rgb(178,178,0)"  stroke="rgb(178,178,0)" stroke-width="1" font-size="16" >S</text>
<text x="34.000000" y="140.656353" fill="rgb(255,12,12)"  stroke="rgb(255,12,12)" stroke-width="1" font-size="16" >O</text>
<text x="87.135118" y="48.000000" fill="rgb(102,102,102)"  stroke="rgb(102,102,102)" stroke-width="1" font-size="16" >CH</text>
<text x="111.135118" y="51.680000" fill="rgb(102,102,102)"  stroke="rgb(102,102,102)" stroke-width="1" font-size="13" >3</text>
<text x="54.128733" y="198.935085" fill="rgb(255,12,12)"  stroke="rgb(255,12,12)" stroke-width="1" font-size="16" >O</text>
<text x="63.725793" y="283.979041" fill="rgb(191,191,191)"  stroke="rgb(191,191,191)" stroke-width="1" font-size="16" >H</text>
<text x="134.128733" y="295.129772" fill="rgb(178,178,0)"  stroke="rgb(178,178,0)" stroke-width="1" font-size="16" >S</text>
<text x="267.159868" y="372.007444" fill="rgb(12,12,255)"  stroke="rgb(12,12,255)" stroke-width="1" font-size="16" >N</text>
<text x="227.159868" y="406.648460" fill="rgb(102,102,102)"  stroke="rgb(102,102,102)" stroke-width="1" font-size="16" >H</text>
<text x="239.159868" y="410.328460" fill="rgb(102,102,102)"  stroke="rgb(102,102,102)" stroke-width="1" font-size="13" >3</text>
<text x="245.659868" y="406.648460" fill="rgb(102,102,102)"  stroke="rgb(102,102,102)" stroke-width="1" font-size="16" >C</text>
<text x="404.434590" y="408.996074" fill="rgb(191,191,191)"  stroke="rgb(191,191,191)" stroke-width="1" font-size="16" >H</text>
<text x="214.128733" y="198.935085" fill="rgb(255,12,12)"  stroke="rgb(255,12,12)" stroke-width="1" font-size="16" >O</text>
</svg>
</g>
<text font-size="18.000000" fill ="black" font-family="sans-serif"
x="10.000000" y="20.000000" ></text>
</svg>
