<?xml version="1.0"?>
<svg version="1.1" id="topsvg"
xmlns="http://www.w3.org/2000/svg" xmlns:xlink="http://www.w3.org/1999/xlink"
xmlns:cml="http://www.xml-cml.org/schema" x="0" y="0" width="200px" height="200px" viewBox="0 0 100 100">
<title> - Open Babel Depiction</title>
<rect x="0" y="0" width="100" height="100" fill="white"/>
<g transform="translate(0,0)">
<svg width="100" height="100" x="0" y="0" viewBox="0 0 450.135 398.902"
font-family="sans-serif" stroke="rgb(0,0,0)" stroke-width="2"  stroke-linecap="round">
<line x1="229.2" y1="135.8" x2="210.6" y2="168.0" stroke="rgb(0,0,0)"  stroke-width="2.0"/>
<line x1="138.3" y1="233.1" x2="103.0" y2="244.5" stroke="rgb(0,0,0)"  stroke-width="2.0"/>
<line x1="105.9" y1="245.2" x2="100.9" y2="268.8" stroke="rgb(0,0,0)"  stroke-width="2.0"/>
<line x1="100.0" y1="243.9" x2="95.0" y2="267.6" stroke="rgb(0,0,0)"  stroke-width="2.0"/>
<line x1="103.0" y1="244.5" x2="85.0" y2="228.4" stroke="rgb(0,0,0)"  stroke-width="2.0"/>
<line x1="63.0" y1="223.7" x2="52.4" y2="227.1" stroke="rgb(0,0,0)"  stroke-width="2.0"/>
<line x1="138.3" y1="233.1" x2="278.7" y2="186.8" stroke="rgb(0,0,0)"  stroke-width="2.0"/>
<line x1="277.2" y1="184.2" x2="298.1" y2="172.1" stroke="rgb(0,0,0)"  stroke-width="2.0"/>
<line x1="280.2" y1="189.4" x2="301.1" y2="177.3" stroke="rgb(0,0,0)"  stroke-width="2.0"/>
<line x1="278.7" y1="186.8" x2="257.8" y2="174.7" stroke="rgb(0,0,0)"  stroke-width="2.0"/>
<line x1="235.3" y1="174.7" x2="225.6" y2="180.3" stroke="rgb(0,0,0)"  stroke-width="2.0"/>
<line x1="177.9" y1="321.9" x2="180.4" y2="346.0" stroke="rgb(0,0,0)"  stroke-width="2.0"/>
<line x1="301.3" y1="150.2" x2="303.8" y2="174.2" stroke="rgb(0,0,0)"  stroke-width="2.0"/>
<line x1="295.3" y1="150.8" x2="297.9" y2="174.8" stroke="rgb(0,0,0)"  stroke-width="2.0"/>
<line x1="338.7" y1="128.3" x2="362.3" y2="133.3" stroke="rgb(0,0,0)"  stroke-width="2.0"/>
<line x1="360.1" y1="131.3" x2="376.2" y2="113.4" stroke="rgb(0,0,0)"  stroke-width="2.0"/>
<line x1="364.5" y1="135.3" x2="380.7" y2="117.4" stroke="rgb(0,0,0)"  stroke-width="2.0"/>
<line x1="362.3" y1="133.3" x2="369.8" y2="156.3" stroke="rgb(0,0,0)"  stroke-width="2.0"/>
<line x1="386.5" y1="171.4" x2="397.4" y2="173.7" stroke="rgb(0,0,0)"  stroke-width="2.0"/>
<line x1="308.2" y1="90.2" x2="320.3" y2="69.2" stroke="rgb(0,0,0)"  stroke-width="2.0"/>
<line x1="313.4" y1="93.2" x2="325.5" y2="72.2" stroke="rgb(0,0,0)"  stroke-width="2.0"/>
<line x1="241.7" y1="77.0" x2="239.2" y2="52.9" stroke="rgb(0,0,0)"  stroke-width="2.0"/>
<line x1="165.9" y1="208.2" x2="198.1" y2="226.8" stroke="rgb(0,0,0)"  stroke-width="2.0"/>
<line x1="174.7" y1="205.0" x2="196.5" y2="217.5" stroke="rgb(0,0,0)"  stroke-width="2.0"/>
<line x1="198.1" y1="226.8" x2="216.1" y2="210.6" stroke="rgb(0,0,0)"  stroke-width="2.0"/>
<line x1="220.4" y1="190.0" x2="210.6" y2="168.0" stroke="rgb(0,0,0)"  stroke-width="2.0"/>
<line x1="210.6" y1="168.0" x2="173.6" y2="171.8" stroke="rgb(0,0,0)"  stroke-width="2.0"/>
<line x1="205.4" y1="175.7" x2="180.4" y2="178.4" stroke="rgb(0,0,0)"  stroke-width="2.0"/>
<line x1="173.6" y1="171.8" x2="165.9" y2="208.2" stroke="rgb(0,0,0)"  stroke-width="2.0"/>
<line x1="177.9" y1="321.9" x2="195.8" y2="305.8" stroke="rgb(0,0,0)"  stroke-width="2.0"/>
<line x1="200.2" y1="285.2" x2="190.4" y2="263.1" stroke="rgb(0,0,0)"  stroke-width="2.0"/>
<line x1="190.4" y1="263.1" x2="153.4" y2="267.0" stroke="rgb(0,0,0)"  stroke-width="2.0"/>
<line x1="185.2" y1="270.9" x2="160.1" y2="273.5" stroke="rgb(0,0,0)"  stroke-width="2.0"/>
<line x1="153.4" y1="267.0" x2="145.7" y2="303.4" stroke="rgb(0,0,0)"  stroke-width="2.0"/>
<line x1="145.7" y1="303.4" x2="177.9" y2="321.9" stroke="rgb(0,0,0)"  stroke-width="2.0"/>
<line x1="154.5" y1="300.1" x2="176.3" y2="312.7" stroke="rgb(0,0,0)"  stroke-width="2.0"/>
<line x1="273.9" y1="95.5" x2="241.7" y2="77.0" stroke="rgb(0,0,0)"  stroke-width="2.0"/>
<line x1="265.1" y1="98.8" x2="243.3" y2="86.2" stroke="rgb(0,0,0)"  stroke-width="2.0"/>
<line x1="241.7" y1="77.0" x2="223.7" y2="93.1" stroke="rgb(0,0,0)"  stroke-width="2.0"/>
<line x1="219.4" y1="113.7" x2="229.2" y2="135.8" stroke="rgb(0,0,0)"  stroke-width="2.0"/>
<line x1="229.2" y1="135.8" x2="266.1" y2="131.9" stroke="rgb(0,0,0)"  stroke-width="2.0"/>
<line x1="234.4" y1="128.0" x2="259.4" y2="125.4" stroke="rgb(0,0,0)"  stroke-width="2.0"/>
<line x1="266.1" y1="131.9" x2="273.9" y2="95.5" stroke="rgb(0,0,0)"  stroke-width="2.0"/>
<line x1="190.4" y1="263.1" x2="198.1" y2="226.8" stroke="rgb(0,0,0)"  stroke-width="2.0"/>
<line x1="165.9" y1="208.2" x2="138.3" y2="233.1" stroke="rgb(0,0,0)"  stroke-width="2.0"/>
<line x1="138.3" y1="233.1" x2="153.4" y2="267.0" stroke="rgb(0,0,0)"  stroke-width="2.0"/>
<line x1="298.3" y1="150.5" x2="316.3" y2="134.3" stroke="rgb(0,0,0)"  stroke-width="2.0"/>
<line x1="320.7" y1="113.7" x2="310.8" y2="91.7" stroke="rgb(0,0,0)"  stroke-width="2.0"/>
<line x1="310.8" y1="91.7" x2="273.9" y2="95.5" stroke="rgb(0,0,0)"  stroke-width="2.0"/>
<line x1="266.1" y1="131.9" x2="298.3" y2="150.5" stroke="rgb(0,0,0)"  stroke-width="2.0"/>
<text x="381.166813" y="113.715027" fill="rgb(255,12,12)"  stroke="rgb(255,12,12)" stroke-width="1" font-size="16" >O</text>
<text x="175.762221" y="366.902285" fill="rgb(191,191,191)"  stroke="rgb(191,191,191)" stroke-width="1" font-size="16" >H</text>
<text x="199.494934" y="305.076456" fill="rgb(178,178,0)"  stroke="rgb(178,178,0)" stroke-width="1" font-size="16" >S</text>
<text x="296.216785" y="195.431567" fill="rgb(255,12,12)"  stroke="rgb(255,12,12)" stroke-width="1" font-size="16" >O</text>
<text x="319.949497" y="133.605739" fill="rgb(12,12,255)"  stroke="rgb(12,12,255)" stroke-width="1" font-size="16" >N</text>
<text x="367.784016" y="176.676133" fill="rgb(255,12,12)"  stroke="rgb(255,12,12)" stroke-width="1" font-size="16" >O</text>
<text x="406.134628" y="184.402694" fill="rgb(102,102,102)"  stroke="rgb(102,102,102)" stroke-width="1" font-size="16" >CH</text>
<text x="430.134628" y="188.082694" fill="rgb(102,102,102)"  stroke="rgb(102,102,102)" stroke-width="1" font-size="13" >3</text>
<text x="323.415416" y="67.472070" fill="rgb(255,12,12)"  stroke="rgb(255,12,12)" stroke-width="1" font-size="16" >O</text>
<text x="231.806530" y="48.000000" fill="rgb(191,191,191)"  stroke="rgb(191,191,191)" stroke-width="1" font-size="16" >H</text>
<text x="208.073817" y="109.825829" fill="rgb(178,178,0)"  stroke="rgb(178,178,0)" stroke-width="1" font-size="16" >S</text>
<text x="219.723333" y="209.909319" fill="rgb(178,178,0)"  stroke="rgb(178,178,0)" stroke-width="1" font-size="16" >S</text>
<text x="89.234545" y="288.895893" fill="rgb(255,12,12)"  stroke="rgb(255,12,12)" stroke-width="1" font-size="16" >O</text>
<text x="69.343834" y="227.678578" fill="rgb(255,12,12)"  stroke="rgb(255,12,12)" stroke-width="1" font-size="16" >O</text>
<text x="14.000000" y="239.162485" fill="rgb(102,102,102)"  stroke="rgb(102,102,102)" stroke-width="1" font-size="16" >H</text>
<text x="26.000000" y="242.842485" fill="rgb(102,102,102)"  stroke="rgb(102,102,102)" stroke-width="1" font-size="13" >3</text>
<text x="32.500000" y="239.162485" fill="rgb(102,102,102)"  stroke="rgb(102,102,102)" stroke-width="1" font-size="16" >C</text>
<text x="304.883044" y="176.226711" fill="rgb(255,12,12)"  stroke="rgb(255,12,12)" stroke-width="1" font-size="16" >O</text>
<text x="240.515349" y="176.226711" fill="rgb(255,12,12)"  stroke="rgb(255,12,12)" stroke-width="1" font-size="16" >O</text>
<text x="188.331502" y="194.808064" fill="rgb(102,102,102)"  stroke="rgb(102,102,102)" stroke-width="1" font-size="16" >H</text>
<text x="200.331502" y="198.488064" fill="rgb(102,102,102)"  stroke="rgb(102,102,102)" stroke-width="1" font-size="13" >3</text>
<text x="206.831502" y="194.808064" fill="rgb(102,102,102)"  stroke="rgb(102,102,102)" stroke-width="1" font-size="16" >C</text>
</svg>
</g>
<text font-size="18.000000" fill ="black" font-family="sans-serif"
x="10.000000" y="20.000000" ></text>
</svg>
