<?xml version="1.0"?>
<svg version="1.1" id="topsvg"
xmlns="http://www.w3.org/2000/svg" xmlns:xlink="http://www.w3.org/1999/xlink"
xmlns:cml="http://www.xml-cml.org/schema" x="0" y="0" width="200px" height="200px" viewBox="0 0 100 100">
<title> - Open Babel Depiction</title>
<rect x="0" y="0" width="100" height="100" fill="white"/>
<g transform="translate(0,0)">
<svg width="100" height="100" x="0" y="0" viewBox="0 0 587.679 465.926"
font-family="sans-serif" stroke="rgb(0,0,0)" stroke-width="2"  stroke-linecap="round">
<line x1="275.9" y1="250.7" x2="241.3" y2="230.7" stroke="rgb(0,0,0)"  stroke-width="2.0"/>
<line x1="204.7" y1="247.0" x2="196.4" y2="286.1" stroke="rgb(0,0,0)"  stroke-width="2.0"/>
<line x1="196.4" y1="286.1" x2="190.8" y2="312.5" stroke="rgb(0,0,0)"  stroke-width="2.0"/>
<line x1="200.5" y1="287.0" x2="194.9" y2="313.4" stroke="rgb(0,0,0)"  stroke-width="2.0"/>
<line x1="192.3" y1="285.2" x2="186.7" y2="311.6" stroke="rgb(0,0,0)"  stroke-width="2.0"/>
<line x1="137.9" y1="217.3" x2="117.9" y2="251.9" stroke="rgb(0,0,0)"  stroke-width="2.0"/>
<line x1="120.5" y1="250.4" x2="134.0" y2="273.8" stroke="rgb(0,0,0)"  stroke-width="2.0"/>
<line x1="115.3" y1="253.4" x2="128.8" y2="276.8" stroke="rgb(0,0,0)"  stroke-width="2.0"/>
<line x1="117.9" y1="251.9" x2="90.9" y2="251.9" stroke="rgb(0,0,0)"  stroke-width="2.0"/>
<line x1="71.4" y1="240.6" x2="64.4" y2="228.5" stroke="rgb(0,0,0)"  stroke-width="2.0"/>
<line x1="74.6" y1="134.5" x2="51.3" y2="121.0" stroke="rgb(0,0,0)"  stroke-width="2.0"/>
<line x1="111.2" y1="118.3" x2="119.5" y2="79.1" stroke="rgb(0,0,0)"  stroke-width="2.0"/>
<line x1="119.5" y1="79.1" x2="125.1" y2="52.7" stroke="rgb(0,0,0)"  stroke-width="2.0"/>
<line x1="115.4" y1="78.3" x2="121.0" y2="51.8" stroke="rgb(0,0,0)"  stroke-width="2.0"/>
<line x1="123.6" y1="80.0" x2="129.2" y2="53.6" stroke="rgb(0,0,0)"  stroke-width="2.0"/>
<line x1="177.9" y1="148.0" x2="197.9" y2="113.3" stroke="rgb(0,0,0)"  stroke-width="2.0"/>
<line x1="197.9" y1="110.3" x2="224.9" y2="110.3" stroke="rgb(0,0,0)"  stroke-width="2.0"/>
<line x1="197.9" y1="116.3" x2="224.9" y2="116.3" stroke="rgb(0,0,0)"  stroke-width="2.0"/>
<line x1="197.9" y1="113.3" x2="184.4" y2="90.0" stroke="rgb(0,0,0)"  stroke-width="2.0"/>
<line x1="184.4" y1="67.4" x2="191.4" y2="55.3" stroke="rgb(0,0,0)"  stroke-width="2.0"/>
<line x1="361.2" y1="352.5" x2="374.7" y2="375.9" stroke="rgb(0,0,0)"  stroke-width="2.0"/>
<line x1="356.0" y1="355.5" x2="369.5" y2="378.9" stroke="rgb(0,0,0)"  stroke-width="2.0"/>
<line x1="310.2" y1="359.5" x2="292.1" y2="379.6" stroke="rgb(0,0,0)"  stroke-width="2.0"/>
<line x1="291.5" y1="382.5" x2="265.1" y2="376.9" stroke="rgb(0,0,0)"  stroke-width="2.0"/>
<line x1="292.7" y1="376.6" x2="266.3" y2="371.0" stroke="rgb(0,0,0)"  stroke-width="2.0"/>
<line x1="292.1" y1="379.6" x2="300.4" y2="405.2" stroke="rgb(0,0,0)"  stroke-width="2.0"/>
<line x1="317.2" y1="420.3" x2="330.9" y2="423.2" stroke="rgb(0,0,0)"  stroke-width="2.0"/>
<line x1="374.3" y1="314.5" x2="413.4" y2="306.2" stroke="rgb(0,0,0)"  stroke-width="2.0"/>
<line x1="375.5" y1="320.4" x2="414.7" y2="312.1" stroke="rgb(0,0,0)"  stroke-width="2.0"/>
<line x1="427.7" y1="274.1" x2="414.2" y2="250.7" stroke="rgb(0,0,0)"  stroke-width="2.0"/>
<line x1="432.9" y1="271.1" x2="419.4" y2="247.7" stroke="rgb(0,0,0)"  stroke-width="2.0"/>
<line x1="478.8" y1="267.1" x2="496.8" y2="247.1" stroke="rgb(0,0,0)"  stroke-width="2.0"/>
<line x1="497.5" y1="244.1" x2="523.9" y2="249.8" stroke="rgb(0,0,0)"  stroke-width="2.0"/>
<line x1="496.2" y1="250.0" x2="522.6" y2="255.6" stroke="rgb(0,0,0)"  stroke-width="2.0"/>
<line x1="496.8" y1="247.1" x2="488.5" y2="221.4" stroke="rgb(0,0,0)"  stroke-width="2.0"/>
<line x1="493.2" y1="199.4" x2="502.6" y2="189.0" stroke="rgb(0,0,0)"  stroke-width="2.0"/>
<line x1="513.0" y1="375.9" x2="536.4" y2="389.4" stroke="rgb(0,0,0)"  stroke-width="2.0"/>
<line x1="177.9" y1="217.3" x2="197.9" y2="182.6" stroke="rgb(0,0,0)"  stroke-width="2.0"/>
<line x1="197.9" y1="182.6" x2="224.4" y2="188.2" stroke="rgb(0,0,0)"  stroke-width="2.0"/>
<line x1="238.4" y1="203.9" x2="241.3" y2="230.7" stroke="rgb(0,0,0)"  stroke-width="2.0"/>
<line x1="241.3" y1="230.7" x2="204.7" y2="247.0" stroke="rgb(0,0,0)"  stroke-width="2.0"/>
<line x1="232.8" y1="226.6" x2="207.3" y2="238.0" stroke="rgb(0,0,0)"  stroke-width="2.0"/>
<line x1="204.7" y1="247.0" x2="177.9" y2="217.3" stroke="rgb(0,0,0)"  stroke-width="2.0"/>
<line x1="74.6" y1="134.5" x2="111.2" y2="118.3" stroke="rgb(0,0,0)"  stroke-width="2.0"/>
<line x1="83.1" y1="138.7" x2="108.6" y2="127.3" stroke="rgb(0,0,0)"  stroke-width="2.0"/>
<line x1="111.2" y1="118.3" x2="137.9" y2="148.0" stroke="rgb(0,0,0)"  stroke-width="2.0"/>
<line x1="137.9" y1="148.0" x2="117.9" y2="182.6" stroke="rgb(0,0,0)"  stroke-width="2.0"/>
<line x1="128.7" y1="149.6" x2="114.7" y2="173.8" stroke="rgb(0,0,0)"  stroke-width="2.0"/>
<line x1="117.9" y1="182.6" x2="91.5" y2="177.0" stroke="rgb(0,0,0)"  stroke-width="2.0"/>
<line x1="77.5" y1="161.4" x2="74.6" y2="134.5" stroke="rgb(0,0,0)"  stroke-width="2.0"/>
<line x1="137.9" y1="148.0" x2="177.9" y2="148.0" stroke="rgb(0,0,0)"  stroke-width="2.0"/>
<line x1="177.9" y1="148.0" x2="197.9" y2="182.6" stroke="rgb(0,0,0)"  stroke-width="2.0"/>
<line x1="174.7" y1="156.8" x2="188.7" y2="181.0" stroke="rgb(0,0,0)"  stroke-width="2.0"/>
<line x1="177.9" y1="217.3" x2="137.9" y2="217.3" stroke="rgb(0,0,0)"  stroke-width="2.0"/>
<line x1="171.9" y1="210.1" x2="143.9" y2="210.1" stroke="rgb(0,0,0)"  stroke-width="2.0"/>
<line x1="137.9" y1="217.3" x2="117.9" y2="182.6" stroke="rgb(0,0,0)"  stroke-width="2.0"/>
<line x1="345.2" y1="250.7" x2="345.2" y2="290.7" stroke="rgb(0,0,0)"  stroke-width="2.0"/>
<line x1="338.0" y1="256.7" x2="338.0" y2="284.7" stroke="rgb(0,0,0)"  stroke-width="2.0"/>
<line x1="345.2" y1="290.7" x2="310.5" y2="310.7" stroke="rgb(0,0,0)"  stroke-width="2.0"/>
<line x1="310.5" y1="310.7" x2="275.9" y2="290.7" stroke="rgb(0,0,0)"  stroke-width="2.0"/>
<line x1="308.9" y1="301.5" x2="284.7" y2="287.5" stroke="rgb(0,0,0)"  stroke-width="2.0"/>
<line x1="275.9" y1="290.7" x2="275.9" y2="250.7" stroke="rgb(0,0,0)"  stroke-width="2.0"/>
<line x1="275.9" y1="250.7" x2="310.5" y2="230.7" stroke="rgb(0,0,0)"  stroke-width="2.0"/>
<line x1="284.7" y1="254.0" x2="308.9" y2="240.0" stroke="rgb(0,0,0)"  stroke-width="2.0"/>
<line x1="310.5" y1="230.7" x2="345.2" y2="250.7" stroke="rgb(0,0,0)"  stroke-width="2.0"/>
<line x1="478.4" y1="395.9" x2="443.8" y2="375.9" stroke="rgb(0,0,0)"  stroke-width="2.0"/>
<line x1="443.8" y1="375.9" x2="443.8" y2="335.9" stroke="rgb(0,0,0)"  stroke-width="2.0"/>
<line x1="451.0" y1="369.9" x2="451.0" y2="341.9" stroke="rgb(0,0,0)"  stroke-width="2.0"/>
<line x1="443.8" y1="335.9" x2="478.4" y2="315.9" stroke="rgb(0,0,0)"  stroke-width="2.0"/>
<line x1="478.4" y1="315.9" x2="513.0" y2="335.9" stroke="rgb(0,0,0)"  stroke-width="2.0"/>
<line x1="480.0" y1="325.2" x2="504.2" y2="339.2" stroke="rgb(0,0,0)"  stroke-width="2.0"/>
<line x1="513.0" y1="335.9" x2="513.0" y2="375.9" stroke="rgb(0,0,0)"  stroke-width="2.0"/>
<line x1="513.0" y1="375.9" x2="478.4" y2="395.9" stroke="rgb(0,0,0)"  stroke-width="2.0"/>
<line x1="504.2" y1="372.7" x2="480.0" y2="386.7" stroke="rgb(0,0,0)"  stroke-width="2.0"/>
<line x1="358.6" y1="354.0" x2="331.8" y2="351.2" stroke="rgb(0,0,0)"  stroke-width="2.0"/>
<line x1="316.2" y1="337.1" x2="310.5" y2="310.7" stroke="rgb(0,0,0)"  stroke-width="2.0"/>
<line x1="345.2" y1="290.7" x2="374.9" y2="317.5" stroke="rgb(0,0,0)"  stroke-width="2.0"/>
<line x1="374.9" y1="317.5" x2="358.6" y2="354.0" stroke="rgb(0,0,0)"  stroke-width="2.0"/>
<line x1="472.8" y1="289.5" x2="478.4" y2="315.9" stroke="rgb(0,0,0)"  stroke-width="2.0"/>
<line x1="443.8" y1="335.9" x2="414.0" y2="309.2" stroke="rgb(0,0,0)"  stroke-width="2.0"/>
<line x1="414.0" y1="309.2" x2="430.3" y2="272.6" stroke="rgb(0,0,0)"  stroke-width="2.0"/>
<line x1="430.3" y1="272.6" x2="457.2" y2="275.4" stroke="rgb(0,0,0)"  stroke-width="2.0"/>
<text x="404.299312" y="245.981883" fill="rgb(255,12,12)"  stroke="rgb(255,12,12)" stroke-width="1" font-size="16" >O</text>
<text x="372.634477" y="396.664019" fill="rgb(255,12,12)"  stroke="rgb(255,12,12)" stroke-width="1" font-size="16" >O</text>
<text x="312.853601" y="357.841865" fill="rgb(12,12,255)"  stroke="rgb(12,12,255)" stroke-width="1" font-size="16" >N</text>
<text x="246.962473" y="379.251190" fill="rgb(255,12,12)"  stroke="rgb(255,12,12)" stroke-width="1" font-size="16" >O</text>
<text x="298.449057" y="425.609918" fill="rgb(255,12,12)"  stroke="rgb(255,12,12)" stroke-width="1" font-size="16" >O</text>
<text x="339.574961" y="433.926386" fill="rgb(102,102,102)"  stroke="rgb(102,102,102)" stroke-width="1" font-size="16" >CH</text>
<text x="363.574961" y="437.606386" fill="rgb(102,102,102)"  stroke="rgb(102,102,102)" stroke-width="1" font-size="13" >3</text>
<text x="464.080188" y="284.804038" fill="rgb(12,12,255)"  stroke="rgb(12,12,255)" stroke-width="1" font-size="16" >N</text>
<text x="529.971317" y="263.394712" fill="rgb(255,12,12)"  stroke="rgb(255,12,12)" stroke-width="1" font-size="16" >O</text>
<text x="478.484733" y="217.035984" fill="rgb(255,12,12)"  stroke="rgb(255,12,12)" stroke-width="1" font-size="16" >O</text>
<text x="507.249957" y="187.310191" fill="rgb(102,102,102)"  stroke="rgb(102,102,102)" stroke-width="1" font-size="16" >CH</text>
<text x="531.249957" y="190.990191" fill="rgb(102,102,102)"  stroke="rgb(102,102,102)" stroke-width="1" font-size="13" >3</text>
<text x="541.678688" y="403.929942" fill="rgb(191,191,191)"  stroke="rgb(191,191,191)" stroke-width="1" font-size="16" >H</text>
<text x="34.000000" y="122.521274" fill="rgb(191,191,191)"  stroke="rgb(191,191,191)" stroke-width="1" font-size="16" >H</text>
<text x="182.080348" y="333.237234" fill="rgb(12,12,255)"  stroke="rgb(12,12,255)" stroke-width="1" font-size="16" >N</text>
<text x="131.948059" y="294.541666" fill="rgb(255,12,12)"  stroke="rgb(255,12,12)" stroke-width="1" font-size="16" >O</text>
<text x="71.948059" y="259.900650" fill="rgb(255,12,12)"  stroke="rgb(255,12,12)" stroke-width="1" font-size="16" >O</text>
<text x="31.948059" y="225.259633" fill="rgb(102,102,102)"  stroke="rgb(102,102,102)" stroke-width="1" font-size="16" >H</text>
<text x="43.948059" y="228.939633" fill="rgb(102,102,102)"  stroke="rgb(102,102,102)" stroke-width="1" font-size="13" >3</text>
<text x="50.448059" y="225.259633" fill="rgb(102,102,102)"  stroke="rgb(102,102,102)" stroke-width="1" font-size="16" >C</text>
<text x="72.822155" y="182.302150" fill="rgb(178,178,0)"  stroke="rgb(178,178,0)" stroke-width="1" font-size="16" >S</text>
<text x="121.815770" y="48.000000" fill="rgb(12,12,255)"  stroke="rgb(12,12,255)" stroke-width="1" font-size="16" >N</text>
<text x="231.948059" y="121.336585" fill="rgb(255,12,12)"  stroke="rgb(255,12,12)" stroke-width="1" font-size="16" >O</text>
<text x="171.948059" y="86.695569" fill="rgb(255,12,12)"  stroke="rgb(255,12,12)" stroke-width="1" font-size="16" >O</text>
<text x="193.948059" y="52.054553" fill="rgb(102,102,102)"  stroke="rgb(102,102,102)" stroke-width="1" font-size="16" >CH</text>
<text x="217.948059" y="55.734553" fill="rgb(102,102,102)"  stroke="rgb(102,102,102)" stroke-width="1" font-size="13" >3</text>
<text x="231.073963" y="198.935085" fill="rgb(178,178,0)"  stroke="rgb(178,178,0)" stroke-width="1" font-size="16" >S</text>
</svg>
</g>
<text font-size="18.000000" fill ="black" font-family="sans-serif"
x="10.000000" y="20.000000" ></text>
</svg>
