<?xml version="1.0"?>
<svg version="1.1" id="topsvg"
xmlns="http://www.w3.org/2000/svg" xmlns:xlink="http://www.w3.org/1999/xlink"
xmlns:cml="http://www.xml-cml.org/schema" x="0" y="0" width="200px" height="200px" viewBox="0 0 100 100">
<title> - Open Babel Depiction</title>
<rect x="0" y="0" width="100" height="100" fill="white"/>
<g transform="translate(0,0)">
<svg width="100" height="100" x="0" y="0" viewBox="0 0 603.675 354.654"
font-family="sans-serif" stroke="rgb(0,0,0)" stroke-width="2"  stroke-linecap="round">
<line x1="289.9" y1="235.8" x2="324.0" y2="255.5" stroke="rgb(0,0,0)"  stroke-width="2.0"/>
<line x1="426.5" y1="235.7" x2="426.5" y2="196.3" stroke="rgb(0,0,0)"  stroke-width="2.0"/>
<line x1="426.5" y1="199.3" x2="400.1" y2="199.3" stroke="rgb(0,0,0)"  stroke-width="2.0"/>
<line x1="426.5" y1="193.3" x2="400.1" y2="193.3" stroke="rgb(0,0,0)"  stroke-width="2.0"/>
<line x1="426.5" y1="196.3" x2="439.7" y2="173.4" stroke="rgb(0,0,0)"  stroke-width="2.0"/>
<line x1="459.2" y1="162.1" x2="472.7" y2="162.1" stroke="rgb(0,0,0)"  stroke-width="2.0"/>
<line x1="426.5" y1="235.7" x2="460.7" y2="216.0" stroke="rgb(0,0,0)"  stroke-width="2.0"/>
<line x1="463.3" y1="214.5" x2="476.5" y2="237.4" stroke="rgb(0,0,0)"  stroke-width="2.0"/>
<line x1="458.1" y1="217.5" x2="471.3" y2="240.4" stroke="rgb(0,0,0)"  stroke-width="2.0"/>
<line x1="460.7" y1="216.0" x2="473.9" y2="193.1" stroke="rgb(0,0,0)"  stroke-width="2.0"/>
<line x1="493.4" y1="181.9" x2="506.8" y2="181.9" stroke="rgb(0,0,0)"  stroke-width="2.0"/>
<line x1="529.0" y1="255.5" x2="552.4" y2="242.0" stroke="rgb(0,0,0)"  stroke-width="2.0"/>
<line x1="228.4" y1="120.1" x2="220.2" y2="94.9" stroke="rgb(0,0,0)"  stroke-width="2.0"/>
<line x1="234.1" y1="118.2" x2="225.9" y2="93.1" stroke="rgb(0,0,0)"  stroke-width="2.0"/>
<line x1="279.3" y1="123.7" x2="290.2" y2="115.8" stroke="rgb(0,0,0)"  stroke-width="2.0"/>
<line x1="299.3" y1="95.2" x2="297.9" y2="81.9" stroke="rgb(0,0,0)"  stroke-width="2.0"/>
<line x1="208.1" y1="154.1" x2="168.6" y2="154.1" stroke="rgb(0,0,0)"  stroke-width="2.0"/>
<line x1="208.1" y1="148.1" x2="168.6" y2="148.1" stroke="rgb(0,0,0)"  stroke-width="2.0"/>
<line x1="148.3" y1="182.1" x2="156.5" y2="207.2" stroke="rgb(0,0,0)"  stroke-width="2.0"/>
<line x1="142.6" y1="183.9" x2="150.8" y2="209.1" stroke="rgb(0,0,0)"  stroke-width="2.0"/>
<line x1="97.4" y1="178.4" x2="86.5" y2="186.3" stroke="rgb(0,0,0)"  stroke-width="2.0"/>
<line x1="64.2" y1="188.7" x2="51.9" y2="183.2" stroke="rgb(0,0,0)"  stroke-width="2.0"/>
<line x1="86.8" y1="66.4" x2="67.2" y2="48.7" stroke="rgb(0,0,0)"  stroke-width="2.0"/>
<line x1="392.4" y1="255.5" x2="392.4" y2="294.9" stroke="rgb(0,0,0)"  stroke-width="2.0"/>
<line x1="385.2" y1="261.5" x2="385.2" y2="288.9" stroke="rgb(0,0,0)"  stroke-width="2.0"/>
<line x1="392.4" y1="294.9" x2="358.2" y2="314.7" stroke="rgb(0,0,0)"  stroke-width="2.0"/>
<line x1="358.2" y1="314.7" x2="324.0" y2="294.9" stroke="rgb(0,0,0)"  stroke-width="2.0"/>
<line x1="356.6" y1="305.4" x2="332.8" y2="291.7" stroke="rgb(0,0,0)"  stroke-width="2.0"/>
<line x1="324.0" y1="294.9" x2="324.0" y2="255.5" stroke="rgb(0,0,0)"  stroke-width="2.0"/>
<line x1="324.0" y1="255.5" x2="358.2" y2="235.7" stroke="rgb(0,0,0)"  stroke-width="2.0"/>
<line x1="332.8" y1="258.7" x2="356.6" y2="245.0" stroke="rgb(0,0,0)"  stroke-width="2.0"/>
<line x1="358.2" y1="235.7" x2="392.4" y2="255.5" stroke="rgb(0,0,0)"  stroke-width="2.0"/>
<line x1="494.9" y1="235.7" x2="460.7" y2="255.5" stroke="rgb(0,0,0)"  stroke-width="2.0"/>
<line x1="493.3" y1="245.0" x2="469.5" y2="258.7" stroke="rgb(0,0,0)"  stroke-width="2.0"/>
<line x1="460.7" y1="255.5" x2="460.7" y2="294.9" stroke="rgb(0,0,0)"  stroke-width="2.0"/>
<line x1="460.7" y1="294.9" x2="494.9" y2="314.6" stroke="rgb(0,0,0)"  stroke-width="2.0"/>
<line x1="469.5" y1="291.7" x2="493.3" y2="305.4" stroke="rgb(0,0,0)"  stroke-width="2.0"/>
<line x1="494.9" y1="314.6" x2="529.0" y2="294.9" stroke="rgb(0,0,0)"  stroke-width="2.0"/>
<line x1="529.0" y1="294.9" x2="529.0" y2="255.5" stroke="rgb(0,0,0)"  stroke-width="2.0"/>
<line x1="521.8" y1="288.9" x2="521.8" y2="261.5" stroke="rgb(0,0,0)"  stroke-width="2.0"/>
<line x1="529.0" y1="255.5" x2="494.9" y2="235.7" stroke="rgb(0,0,0)"  stroke-width="2.0"/>
<line x1="223.1" y1="221.6" x2="231.3" y2="183.0" stroke="rgb(0,0,0)"  stroke-width="2.0"/>
<line x1="231.3" y1="217.2" x2="237.1" y2="190.3" stroke="rgb(0,0,0)"  stroke-width="2.0"/>
<line x1="231.3" y1="183.0" x2="268.8" y2="170.8" stroke="rgb(0,0,0)"  stroke-width="2.0"/>
<line x1="268.8" y1="170.8" x2="298.1" y2="197.2" stroke="rgb(0,0,0)"  stroke-width="2.0"/>
<line x1="268.4" y1="180.1" x2="288.8" y2="198.5" stroke="rgb(0,0,0)"  stroke-width="2.0"/>
<line x1="298.1" y1="197.2" x2="289.9" y2="235.8" stroke="rgb(0,0,0)"  stroke-width="2.0"/>
<line x1="289.9" y1="235.8" x2="252.4" y2="247.9" stroke="rgb(0,0,0)"  stroke-width="2.0"/>
<line x1="281.9" y1="230.8" x2="255.9" y2="239.2" stroke="rgb(0,0,0)"  stroke-width="2.0"/>
<line x1="252.4" y1="247.9" x2="223.1" y2="221.6" stroke="rgb(0,0,0)"  stroke-width="2.0"/>
<line x1="124.3" y1="54.2" x2="153.6" y2="80.6" stroke="rgb(0,0,0)"  stroke-width="2.0"/>
<line x1="153.6" y1="80.6" x2="145.4" y2="119.2" stroke="rgb(0,0,0)"  stroke-width="2.0"/>
<line x1="145.4" y1="85.0" x2="139.6" y2="111.8" stroke="rgb(0,0,0)"  stroke-width="2.0"/>
<line x1="145.4" y1="119.2" x2="107.9" y2="131.4" stroke="rgb(0,0,0)"  stroke-width="2.0"/>
<line x1="107.9" y1="131.4" x2="78.6" y2="105.0" stroke="rgb(0,0,0)"  stroke-width="2.0"/>
<line x1="108.3" y1="122.0" x2="87.9" y2="103.6" stroke="rgb(0,0,0)"  stroke-width="2.0"/>
<line x1="78.6" y1="105.0" x2="86.8" y2="66.4" stroke="rgb(0,0,0)"  stroke-width="2.0"/>
<line x1="86.8" y1="66.4" x2="124.3" y2="54.2" stroke="rgb(0,0,0)"  stroke-width="2.0"/>
<line x1="94.8" y1="71.4" x2="120.8" y2="62.9" stroke="rgb(0,0,0)"  stroke-width="2.0"/>
<line x1="460.7" y1="294.9" x2="392.4" y2="294.9" stroke="rgb(0,0,0)"  stroke-width="2.0"/>
<line x1="392.4" y1="255.5" x2="426.5" y2="235.7" stroke="rgb(0,0,0)"  stroke-width="2.0"/>
<line x1="426.5" y1="235.7" x2="460.7" y2="255.5" stroke="rgb(0,0,0)"  stroke-width="2.0"/>
<line x1="231.3" y1="119.2" x2="256.4" y2="127.3" stroke="rgb(0,0,0)"  stroke-width="2.0"/>
<line x1="268.8" y1="144.3" x2="268.8" y2="170.8" stroke="rgb(0,0,0)"  stroke-width="2.0"/>
<line x1="231.3" y1="183.0" x2="208.1" y2="151.1" stroke="rgb(0,0,0)"  stroke-width="2.0"/>
<line x1="208.1" y1="151.1" x2="231.3" y2="119.2" stroke="rgb(0,0,0)"  stroke-width="2.0"/>
<line x1="107.9" y1="157.8" x2="107.9" y2="131.4" stroke="rgb(0,0,0)"  stroke-width="2.0"/>
<line x1="145.4" y1="119.2" x2="168.6" y2="151.1" stroke="rgb(0,0,0)"  stroke-width="2.0"/>
<line x1="168.6" y1="151.1" x2="145.5" y2="183.0" stroke="rgb(0,0,0)"  stroke-width="2.0"/>
<line x1="145.5" y1="183.0" x2="120.3" y2="174.8" stroke="rgb(0,0,0)"  stroke-width="2.0"/>
<text x="213.059318" y="89.648048" fill="rgb(255,12,12)"  stroke="rgb(255,12,12)" stroke-width="1" font-size="16" >O</text>
<text x="262.762144" y="139.341851" fill="rgb(12,12,255)"  stroke="rgb(12,12,255)" stroke-width="1" font-size="16" >N</text>
<text x="294.668321" y="116.156230" fill="rgb(255,12,12)"  stroke="rgb(255,12,12)" stroke-width="1" font-size="16" >O</text>
<text x="270.542074" y="76.931860" fill="rgb(102,102,102)"  stroke="rgb(102,102,102)" stroke-width="1" font-size="16" >H</text>
<text x="282.542074" y="80.611860" fill="rgb(102,102,102)"  stroke="rgb(102,102,102)" stroke-width="1" font-size="13" >3</text>
<text x="289.042074" y="76.931860" fill="rgb(102,102,102)"  stroke="rgb(102,102,102)" stroke-width="1" font-size="16" >C</text>
<text x="151.641428" y="228.491059" fill="rgb(255,12,12)"  stroke="rgb(255,12,12)" stroke-width="1" font-size="16" >O</text>
<text x="101.938602" y="178.797257" fill="rgb(12,12,255)"  stroke="rgb(12,12,255)" stroke-width="1" font-size="16" >N</text>
<text x="70.032425" y="201.982878" fill="rgb(255,12,12)"  stroke="rgb(255,12,12)" stroke-width="1" font-size="16" >O</text>
<text x="14.000000" y="185.944128" fill="rgb(102,102,102)"  stroke="rgb(102,102,102)" stroke-width="1" font-size="16" >H</text>
<text x="26.000000" y="189.624128" fill="rgb(102,102,102)"  stroke="rgb(102,102,102)" stroke-width="1" font-size="13" >3</text>
<text x="32.500000" y="185.944128" fill="rgb(102,102,102)"  stroke="rgb(102,102,102)" stroke-width="1" font-size="16" >C</text>
<text x="51.506471" y="48.000000" fill="rgb(191,191,191)"  stroke="rgb(191,191,191)" stroke-width="1" font-size="16" >H</text>
<text x="515.837550" y="189.850909" fill="rgb(102,102,102)"  stroke="rgb(102,102,102)" stroke-width="1" font-size="16" >CH</text>
<text x="539.837550" y="193.530909" fill="rgb(102,102,102)"  stroke="rgb(102,102,102)" stroke-width="1" font-size="13" >3</text>
<text x="381.077809" y="204.306053" fill="rgb(255,12,12)"  stroke="rgb(255,12,12)" stroke-width="1" font-size="16" >O</text>
<text x="440.232512" y="170.138048" fill="rgb(255,12,12)"  stroke="rgb(255,12,12)" stroke-width="1" font-size="16" >O</text>
<text x="481.673317" y="170.130537" fill="rgb(102,102,102)"  stroke="rgb(102,102,102)" stroke-width="1" font-size="16" >CH</text>
<text x="505.673317" y="173.810537" fill="rgb(102,102,102)"  stroke="rgb(102,102,102)" stroke-width="1" font-size="13" >3</text>
<text x="474.405014" y="258.169162" fill="rgb(255,12,12)"  stroke="rgb(255,12,12)" stroke-width="1" font-size="16" >O</text>
<text x="474.396745" y="189.855683" fill="rgb(255,12,12)"  stroke="rgb(255,12,12)" stroke-width="1" font-size="16" >O</text>
<text x="557.675370" y="243.454565" fill="rgb(191,191,191)"  stroke="rgb(191,191,191)" stroke-width="1" font-size="16" >H</text>
</svg>
</g>
<text font-size="18.000000" fill ="black" font-family="sans-serif"
x="10.000000" y="20.000000" ></text>
</svg>
