<?xml version="1.0"?>
<svg version="1.1" id="topsvg"
xmlns="http://www.w3.org/2000/svg" xmlns:xlink="http://www.w3.org/1999/xlink"
xmlns:cml="http://www.xml-cml.org/schema" x="0" y="0" width="200px" height="200px" viewBox="0 0 100 100">
<title> - Open Babel Depiction</title>
<rect x="0" y="0" width="100" height="100" fill="white"/>
<g transform="translate(0,0)">
<svg width="100" height="100" x="0" y="0" viewBox="0 0 465.638 240.341"
font-family="sans-serif" stroke="rgb(0,0,0)" stroke-width="2"  stroke-linecap="round">
<line x1="154.5" y1="122.3" x2="188.3" y2="141.8" stroke="rgb(0,0,0)"  stroke-width="2.0"/>
<line x1="289.6" y1="109.3" x2="289.6" y2="96.3" stroke="rgb(0,0,0)"  stroke-width="2.0"/>
<line x1="283.1" y1="72.0" x2="276.6" y2="60.8" stroke="rgb(0,0,0)"  stroke-width="2.0"/>
<line x1="391.0" y1="141.8" x2="414.4" y2="128.3" stroke="rgb(0,0,0)"  stroke-width="2.0"/>
<line x1="128.4" y1="151.3" x2="136.4" y2="176.0" stroke="rgb(0,0,0)"  stroke-width="2.0"/>
<line x1="90.2" y1="143.2" x2="72.8" y2="162.5" stroke="rgb(0,0,0)"  stroke-width="2.0"/>
<line x1="78.2" y1="106.1" x2="52.7" y2="100.7" stroke="rgb(0,0,0)"  stroke-width="2.0"/>
<line x1="104.3" y1="77.1" x2="96.2" y2="52.4" stroke="rgb(0,0,0)"  stroke-width="2.0"/>
<line x1="142.4" y1="85.2" x2="159.8" y2="65.9" stroke="rgb(0,0,0)"  stroke-width="2.0"/>
<line x1="323.4" y1="141.8" x2="323.4" y2="180.8" stroke="rgb(0,0,0)"  stroke-width="2.0"/>
<line x1="323.4" y1="180.8" x2="255.8" y2="180.8" stroke="rgb(0,0,0)"  stroke-width="2.0"/>
<line x1="255.8" y1="180.8" x2="255.8" y2="141.8" stroke="rgb(0,0,0)"  stroke-width="2.0"/>
<line x1="263.0" y1="174.8" x2="263.0" y2="147.8" stroke="rgb(0,0,0)"  stroke-width="2.0"/>
<line x1="255.8" y1="141.8" x2="278.4" y2="128.8" stroke="rgb(0,0,0)"  stroke-width="2.0"/>
<line x1="300.9" y1="128.8" x2="323.4" y2="141.8" stroke="rgb(0,0,0)"  stroke-width="2.0"/>
<line x1="255.8" y1="180.8" x2="222.0" y2="200.3" stroke="rgb(0,0,0)"  stroke-width="2.0"/>
<line x1="222.0" y1="200.3" x2="188.3" y2="180.8" stroke="rgb(0,0,0)"  stroke-width="2.0"/>
<line x1="220.4" y1="191.1" x2="197.1" y2="177.6" stroke="rgb(0,0,0)"  stroke-width="2.0"/>
<line x1="188.3" y1="180.8" x2="188.3" y2="141.8" stroke="rgb(0,0,0)"  stroke-width="2.0"/>
<line x1="188.3" y1="141.8" x2="222.0" y2="122.3" stroke="rgb(0,0,0)"  stroke-width="2.0"/>
<line x1="197.1" y1="145.0" x2="220.4" y2="131.5" stroke="rgb(0,0,0)"  stroke-width="2.0"/>
<line x1="222.0" y1="122.3" x2="255.8" y2="141.8" stroke="rgb(0,0,0)"  stroke-width="2.0"/>
<line x1="357.2" y1="122.3" x2="323.4" y2="141.8" stroke="rgb(0,0,0)"  stroke-width="2.0"/>
<line x1="355.6" y1="131.5" x2="332.2" y2="145.0" stroke="rgb(0,0,0)"  stroke-width="2.0"/>
<line x1="323.4" y1="180.8" x2="357.2" y2="200.3" stroke="rgb(0,0,0)"  stroke-width="2.0"/>
<line x1="332.2" y1="177.6" x2="355.6" y2="191.1" stroke="rgb(0,0,0)"  stroke-width="2.0"/>
<line x1="357.2" y1="200.3" x2="391.0" y2="180.8" stroke="rgb(0,0,0)"  stroke-width="2.0"/>
<line x1="391.0" y1="180.8" x2="391.0" y2="141.8" stroke="rgb(0,0,0)"  stroke-width="2.0"/>
<line x1="383.8" y1="174.8" x2="383.8" y2="147.8" stroke="rgb(0,0,0)"  stroke-width="2.0"/>
<line x1="391.0" y1="141.8" x2="357.2" y2="122.3" stroke="rgb(0,0,0)"  stroke-width="2.0"/>
<line x1="90.2" y1="143.2" x2="78.2" y2="106.1" stroke="rgb(0,0,0)"  stroke-width="2.0"/>
<line x1="95.2" y1="135.3" x2="86.9" y2="109.6" stroke="rgb(0,0,0)"  stroke-width="2.0"/>
<line x1="78.2" y1="106.1" x2="104.3" y2="77.1" stroke="rgb(0,0,0)"  stroke-width="2.0"/>
<line x1="104.3" y1="77.1" x2="142.4" y2="85.2" stroke="rgb(0,0,0)"  stroke-width="2.0"/>
<line x1="108.6" y1="85.4" x2="135.0" y2="91.0" stroke="rgb(0,0,0)"  stroke-width="2.0"/>
<line x1="142.4" y1="85.2" x2="154.5" y2="122.3" stroke="rgb(0,0,0)"  stroke-width="2.0"/>
<line x1="154.5" y1="122.3" x2="128.4" y2="151.3" stroke="rgb(0,0,0)"  stroke-width="2.0"/>
<line x1="145.1" y1="121.9" x2="127.0" y2="142.0" stroke="rgb(0,0,0)"  stroke-width="2.0"/>
<line x1="128.4" y1="151.3" x2="90.2" y2="143.2" stroke="rgb(0,0,0)"  stroke-width="2.0"/>
<text x="162.511260" y="64.213636" fill="rgb(127,178,255)"  stroke="rgb(127,178,255)" stroke-width="1" font-size="16" >F</text>
<text x="86.198034" y="48.000000" fill="rgb(127,178,255)"  stroke="rgb(127,178,255)" stroke-width="1" font-size="16" >F</text>
<text x="34.000000" y="105.982375" fill="rgb(191,191,191)"  stroke="rgb(191,191,191)" stroke-width="1" font-size="16" >H</text>
<text x="58.115193" y="180.178385" fill="rgb(127,178,255)"  stroke="rgb(127,178,255)" stroke-width="1" font-size="16" >F</text>
<text x="134.428419" y="196.392021" fill="rgb(127,178,255)"  stroke="rgb(127,178,255)" stroke-width="1" font-size="16" >F</text>
<text x="419.637827" y="129.785045" fill="rgb(191,191,191)"  stroke="rgb(191,191,191)" stroke-width="1" font-size="16" >H</text>
<text x="244.097874" y="57.504815" fill="rgb(102,102,102)"  stroke="rgb(102,102,102)" stroke-width="1" font-size="16" >H</text>
<text x="256.097874" y="61.184815" fill="rgb(102,102,102)"  stroke="rgb(102,102,102)" stroke-width="1" font-size="13" >3</text>
<text x="262.597874" y="57.504815" fill="rgb(102,102,102)"  stroke="rgb(102,102,102)" stroke-width="1" font-size="16" >C</text>
<text x="283.608458" y="91.283280" fill="rgb(255,12,12)"  stroke="rgb(255,12,12)" stroke-width="1" font-size="16" >O</text>
<text x="283.615886" y="130.291582" fill="rgb(12,12,255)"  stroke="rgb(12,12,255)" stroke-width="1" font-size="16" >N</text>
</svg>
</g>
<text font-size="18.000000" fill ="black" font-family="sans-serif"
x="10.000000" y="20.000000" ></text>
</svg>
