<?xml version="1.0"?>
<svg version="1.1" id="topsvg"
xmlns="http://www.w3.org/2000/svg" xmlns:xlink="http://www.w3.org/1999/xlink"
xmlns:cml="http://www.xml-cml.org/schema" x="0" y="0" width="200px" height="200px" viewBox="0 0 100 100">
<title> - Open Babel Depiction</title>
<rect x="0" y="0" width="100" height="100" fill="white"/>
<g transform="translate(0,0)">
<svg width="100" height="100" x="0" y="0" viewBox="0 0 365.208 403.204"
font-family="sans-serif" stroke="rgb(0,0,0)" stroke-width="2"  stroke-linecap="round">
<line x1="231.3" y1="137.6" x2="212.5" y2="170.2" stroke="rgb(0,0,0)"  stroke-width="2.0"/>
<line x1="139.4" y1="236.0" x2="103.7" y2="247.6" stroke="rgb(0,0,0)"  stroke-width="2.0"/>
<line x1="106.6" y1="248.2" x2="101.5" y2="272.2" stroke="rgb(0,0,0)"  stroke-width="2.0"/>
<line x1="100.7" y1="247.0" x2="95.6" y2="271.0" stroke="rgb(0,0,0)"  stroke-width="2.0"/>
<line x1="103.7" y1="247.6" x2="85.4" y2="231.1" stroke="rgb(0,0,0)"  stroke-width="2.0"/>
<line x1="63.4" y1="226.5" x2="52.4" y2="230.0" stroke="rgb(0,0,0)"  stroke-width="2.0"/>
<line x1="139.4" y1="236.0" x2="250.6" y2="190.6" stroke="rgb(0,0,0)"  stroke-width="2.0"/>
<line x1="249.1" y1="188.0" x2="270.4" y2="175.7" stroke="rgb(0,0,0)"  stroke-width="2.0"/>
<line x1="252.1" y1="193.2" x2="273.4" y2="180.9" stroke="rgb(0,0,0)"  stroke-width="2.0"/>
<line x1="250.6" y1="190.6" x2="229.3" y2="178.3" stroke="rgb(0,0,0)"  stroke-width="2.0"/>
<line x1="206.8" y1="178.3" x2="196.8" y2="184.1" stroke="rgb(0,0,0)"  stroke-width="2.0"/>
<line x1="179.4" y1="325.8" x2="182.0" y2="350.3" stroke="rgb(0,0,0)"  stroke-width="2.0"/>
<line x1="268.8" y1="137.6" x2="281.1" y2="158.9" stroke="rgb(0,0,0)"  stroke-width="2.0"/>
<line x1="287.6" y1="105.1" x2="312.2" y2="105.1" stroke="rgb(0,0,0)"  stroke-width="2.0"/>
<line x1="268.8" y1="72.5" x2="281.1" y2="51.3" stroke="rgb(0,0,0)"  stroke-width="2.0"/>
<line x1="231.3" y1="72.5" x2="219.0" y2="51.3" stroke="rgb(0,0,0)"  stroke-width="2.0"/>
<line x1="212.5" y1="105.1" x2="187.9" y2="105.1" stroke="rgb(0,0,0)"  stroke-width="2.0"/>
<line x1="167.3" y1="210.8" x2="199.9" y2="229.6" stroke="rgb(0,0,0)"  stroke-width="2.0"/>
<line x1="176.1" y1="207.6" x2="198.3" y2="220.4" stroke="rgb(0,0,0)"  stroke-width="2.0"/>
<line x1="199.9" y1="229.6" x2="218.1" y2="213.2" stroke="rgb(0,0,0)"  stroke-width="2.0"/>
<line x1="222.5" y1="192.6" x2="212.5" y2="170.2" stroke="rgb(0,0,0)"  stroke-width="2.0"/>
<line x1="212.5" y1="170.2" x2="175.1" y2="174.1" stroke="rgb(0,0,0)"  stroke-width="2.0"/>
<line x1="207.3" y1="177.9" x2="181.8" y2="180.6" stroke="rgb(0,0,0)"  stroke-width="2.0"/>
<line x1="175.1" y1="174.1" x2="167.3" y2="210.8" stroke="rgb(0,0,0)"  stroke-width="2.0"/>
<line x1="179.4" y1="325.8" x2="197.7" y2="309.4" stroke="rgb(0,0,0)"  stroke-width="2.0"/>
<line x1="202.0" y1="288.8" x2="192.0" y2="266.4" stroke="rgb(0,0,0)"  stroke-width="2.0"/>
<line x1="192.0" y1="266.4" x2="154.7" y2="270.3" stroke="rgb(0,0,0)"  stroke-width="2.0"/>
<line x1="186.8" y1="274.2" x2="161.4" y2="276.8" stroke="rgb(0,0,0)"  stroke-width="2.0"/>
<line x1="154.7" y1="270.3" x2="146.9" y2="307.1" stroke="rgb(0,0,0)"  stroke-width="2.0"/>
<line x1="146.9" y1="307.1" x2="179.4" y2="325.8" stroke="rgb(0,0,0)"  stroke-width="2.0"/>
<line x1="155.7" y1="303.8" x2="177.8" y2="316.6" stroke="rgb(0,0,0)"  stroke-width="2.0"/>
<line x1="287.6" y1="105.1" x2="268.8" y2="72.5" stroke="rgb(0,0,0)"  stroke-width="2.0"/>
<line x1="278.4" y1="103.5" x2="265.6" y2="81.3" stroke="rgb(0,0,0)"  stroke-width="2.0"/>
<line x1="268.8" y1="72.5" x2="231.3" y2="72.5" stroke="rgb(0,0,0)"  stroke-width="2.0"/>
<line x1="231.3" y1="72.5" x2="212.5" y2="105.1" stroke="rgb(0,0,0)"  stroke-width="2.0"/>
<line x1="234.5" y1="81.3" x2="221.7" y2="103.5" stroke="rgb(0,0,0)"  stroke-width="2.0"/>
<line x1="212.5" y1="105.1" x2="231.3" y2="137.6" stroke="rgb(0,0,0)"  stroke-width="2.0"/>
<line x1="231.3" y1="137.6" x2="268.8" y2="137.6" stroke="rgb(0,0,0)"  stroke-width="2.0"/>
<line x1="237.3" y1="130.4" x2="262.8" y2="130.4" stroke="rgb(0,0,0)"  stroke-width="2.0"/>
<line x1="268.8" y1="137.6" x2="287.6" y2="105.1" stroke="rgb(0,0,0)"  stroke-width="2.0"/>
<line x1="192.0" y1="266.4" x2="199.9" y2="229.6" stroke="rgb(0,0,0)"  stroke-width="2.0"/>
<line x1="167.3" y1="210.8" x2="139.4" y2="236.0" stroke="rgb(0,0,0)"  stroke-width="2.0"/>
<line x1="139.4" y1="236.0" x2="154.7" y2="270.3" stroke="rgb(0,0,0)"  stroke-width="2.0"/>
<text x="212.039955" y="179.782883" fill="rgb(255,12,12)"  stroke="rgb(255,12,12)" stroke-width="1" font-size="16" >O</text>
<text x="168.917140" y="113.077693" fill="rgb(127,178,255)"  stroke="rgb(127,178,255)" stroke-width="1" font-size="16" >F</text>
<text x="206.489764" y="48.000000" fill="rgb(127,178,255)"  stroke="rgb(127,178,255)" stroke-width="1" font-size="16" >F</text>
<text x="281.635012" y="48.000000" fill="rgb(191,191,191)"  stroke="rgb(191,191,191)" stroke-width="1" font-size="16" >H</text>
<text x="319.207636" y="113.077693" fill="rgb(127,178,255)"  stroke="rgb(127,178,255)" stroke-width="1" font-size="16" >F</text>
<text x="281.635012" y="178.155387" fill="rgb(127,178,255)"  stroke="rgb(127,178,255)" stroke-width="1" font-size="16" >F</text>
<text x="201.320401" y="308.696551" fill="rgb(178,178,0)"  stroke="rgb(178,178,0)" stroke-width="1" font-size="16" >S</text>
<text x="177.325909" y="371.204341" fill="rgb(191,191,191)"  stroke="rgb(191,191,191)" stroke-width="1" font-size="16" >H</text>
<text x="159.501108" y="198.569195" fill="rgb(102,102,102)"  stroke="rgb(102,102,102)" stroke-width="1" font-size="16" >H</text>
<text x="171.501108" y="202.249195" fill="rgb(102,102,102)"  stroke="rgb(102,102,102)" stroke-width="1" font-size="13" >3</text>
<text x="178.001108" y="198.569195" fill="rgb(102,102,102)"  stroke="rgb(102,102,102)" stroke-width="1" font-size="16" >C</text>
<text x="277.117648" y="179.782883" fill="rgb(255,12,12)"  stroke="rgb(255,12,12)" stroke-width="1" font-size="16" >O</text>
<text x="14.000000" y="242.055526" fill="rgb(102,102,102)"  stroke="rgb(102,102,102)" stroke-width="1" font-size="16" >H</text>
<text x="26.000000" y="245.735526" fill="rgb(102,102,102)"  stroke="rgb(102,102,102)" stroke-width="1" font-size="13" >3</text>
<text x="32.500000" y="242.055526" fill="rgb(102,102,102)"  stroke="rgb(102,102,102)" stroke-width="1" font-size="16" >C</text>
<text x="69.733689" y="230.444947" fill="rgb(255,12,12)"  stroke="rgb(255,12,12)" stroke-width="1" font-size="16" >O</text>
<text x="89.843802" y="292.337511" fill="rgb(255,12,12)"  stroke="rgb(255,12,12)" stroke-width="1" font-size="16" >O</text>
<text x="221.771927" y="212.479687" fill="rgb(178,178,0)"  stroke="rgb(178,178,0)" stroke-width="1" font-size="16" >S</text>
</svg>
</g>
<text font-size="18.000000" fill ="black" font-family="sans-serif"
x="10.000000" y="20.000000" ></text>
</svg>
