<?xml version="1.0"?>
<svg version="1.1" id="topsvg"
xmlns="http://www.w3.org/2000/svg" xmlns:xlink="http://www.w3.org/1999/xlink"
xmlns:cml="http://www.xml-cml.org/schema" x="0" y="0" width="200px" height="200px" viewBox="0 0 100 100">
<title> - Open Babel Depiction</title>
<rect x="0" y="0" width="100" height="100" fill="white"/>
<g transform="translate(0,0)">
<svg width="100" height="100" x="0" y="0" viewBox="0 0 411.887 255.896"
font-family="sans-serif" stroke="rgb(0,0,0)" stroke-width="2"  stroke-linecap="round">
<line x1="173.2" y1="111.2" x2="212.3" y2="119.5" stroke="rgb(0,0,0)"  stroke-width="2.0"/>
<line x1="228.6" y1="156.0" x2="215.1" y2="179.4" stroke="rgb(0,0,0)"  stroke-width="2.0"/>
<line x1="332.8" y1="145.1" x2="359.2" y2="150.7" stroke="rgb(0,0,0)"  stroke-width="2.0"/>
<line x1="316.5" y1="108.6" x2="330.0" y2="85.2" stroke="rgb(0,0,0)"  stroke-width="2.0"/>
<line x1="137.4" y1="175.1" x2="155.5" y2="195.1" stroke="rgb(0,0,0)"  stroke-width="2.0"/>
<line x1="132.9" y1="179.1" x2="151.0" y2="199.1" stroke="rgb(0,0,0)"  stroke-width="2.0"/>
<line x1="88.9" y1="192.5" x2="81.9" y2="204.6" stroke="rgb(0,0,0)"  stroke-width="2.0"/>
<line x1="79.1" y1="144.7" x2="52.7" y2="139.1" stroke="rgb(0,0,0)"  stroke-width="2.0"/>
<line x1="114.9" y1="80.8" x2="96.9" y2="60.8" stroke="rgb(0,0,0)"  stroke-width="2.0"/>
<line x1="119.4" y1="76.8" x2="101.3" y2="56.7" stroke="rgb(0,0,0)"  stroke-width="2.0"/>
<line x1="163.4" y1="63.4" x2="170.4" y2="51.3" stroke="rgb(0,0,0)"  stroke-width="2.0"/>
<line x1="268.4" y1="151.9" x2="276.7" y2="112.7" stroke="rgb(0,0,0)"  stroke-width="2.0"/>
<line x1="262.6" y1="144.5" x2="268.4" y2="117.1" stroke="rgb(0,0,0)"  stroke-width="2.0"/>
<line x1="276.7" y1="112.7" x2="253.3" y2="99.2" stroke="rgb(0,0,0)"  stroke-width="2.0"/>
<line x1="232.4" y1="101.4" x2="212.3" y2="119.5" stroke="rgb(0,0,0)"  stroke-width="2.0"/>
<line x1="212.3" y1="119.5" x2="228.6" y2="156.0" stroke="rgb(0,0,0)"  stroke-width="2.0"/>
<line x1="221.4" y1="122.1" x2="232.8" y2="147.6" stroke="rgb(0,0,0)"  stroke-width="2.0"/>
<line x1="228.6" y1="156.0" x2="268.4" y2="151.9" stroke="rgb(0,0,0)"  stroke-width="2.0"/>
<line x1="332.8" y1="145.1" x2="316.5" y2="108.6" stroke="rgb(0,0,0)"  stroke-width="2.0"/>
<line x1="323.7" y1="142.5" x2="312.4" y2="117.0" stroke="rgb(0,0,0)"  stroke-width="2.0"/>
<line x1="316.5" y1="108.6" x2="276.7" y2="112.7" stroke="rgb(0,0,0)"  stroke-width="2.0"/>
<line x1="268.4" y1="151.9" x2="291.8" y2="165.4" stroke="rgb(0,0,0)"  stroke-width="2.0"/>
<line x1="312.7" y1="163.2" x2="332.8" y2="145.1" stroke="rgb(0,0,0)"  stroke-width="2.0"/>
<line x1="135.2" y1="177.1" x2="108.3" y2="179.9" stroke="rgb(0,0,0)"  stroke-width="2.0"/>
<line x1="90.1" y1="169.4" x2="79.1" y2="144.7" stroke="rgb(0,0,0)"  stroke-width="2.0"/>
<line x1="79.1" y1="144.7" x2="108.9" y2="117.9" stroke="rgb(0,0,0)"  stroke-width="2.0"/>
<line x1="88.4" y1="146.0" x2="109.2" y2="127.3" stroke="rgb(0,0,0)"  stroke-width="2.0"/>
<line x1="108.9" y1="117.9" x2="143.5" y2="137.9" stroke="rgb(0,0,0)"  stroke-width="2.0"/>
<line x1="143.5" y1="137.9" x2="135.2" y2="177.1" stroke="rgb(0,0,0)"  stroke-width="2.0"/>
<line x1="108.9" y1="117.9" x2="117.2" y2="78.8" stroke="rgb(0,0,0)"  stroke-width="2.0"/>
<line x1="117.2" y1="78.8" x2="144.0" y2="76.0" stroke="rgb(0,0,0)"  stroke-width="2.0"/>
<line x1="162.2" y1="86.5" x2="173.2" y2="111.2" stroke="rgb(0,0,0)"  stroke-width="2.0"/>
<line x1="173.2" y1="111.2" x2="143.5" y2="137.9" stroke="rgb(0,0,0)"  stroke-width="2.0"/>
<line x1="163.9" y1="109.8" x2="143.1" y2="128.6" stroke="rgb(0,0,0)"  stroke-width="2.0"/>
<text x="172.949040" y="48.000000" fill="rgb(102,102,102)"  stroke="rgb(102,102,102)" stroke-width="1" font-size="16" >CH</text>
<text x="196.949040" y="51.680000" fill="rgb(102,102,102)"  stroke="rgb(102,102,102)" stroke-width="1" font-size="13" >3</text>
<text x="150.949040" y="82.641016" fill="rgb(12,12,255)"  stroke="rgb(12,12,255)" stroke-width="1" font-size="16" >N</text>
<text x="84.402940" y="57.096362" fill="rgb(255,12,12)"  stroke="rgb(255,12,12)" stroke-width="1" font-size="16" >O</text>
<text x="34.000000" y="144.396815" fill="rgb(191,191,191)"  stroke="rgb(191,191,191)" stroke-width="1" font-size="16" >H</text>
<text x="49.395370" y="223.896117" fill="rgb(102,102,102)"  stroke="rgb(102,102,102)" stroke-width="1" font-size="16" >H</text>
<text x="61.395370" y="227.576117" fill="rgb(102,102,102)"  stroke="rgb(102,102,102)" stroke-width="1" font-size="13" >3</text>
<text x="67.895370" y="223.896117" fill="rgb(102,102,102)"  stroke="rgb(102,102,102)" stroke-width="1" font-size="16" >C</text>
<text x="89.395370" y="189.255101" fill="rgb(12,12,255)"  stroke="rgb(12,12,255)" stroke-width="1" font-size="16" >N</text>
<text x="155.941470" y="214.799756" fill="rgb(255,12,12)"  stroke="rgb(255,12,12)" stroke-width="1" font-size="16" >O</text>
<text x="236.070203" y="100.734078" fill="rgb(178,178,0)"  stroke="rgb(178,178,0)" stroke-width="1" font-size="16" >S</text>
<text x="330.492095" y="81.911923" fill="rgb(255,12,12)"  stroke="rgb(255,12,12)" stroke-width="1" font-size="16" >OH</text>
<text x="365.887465" y="161.411225" fill="rgb(191,191,191)"  stroke="rgb(191,191,191)" stroke-width="1" font-size="16" >H</text>
<text x="297.035768" y="179.859982" fill="rgb(178,178,0)"  stroke="rgb(178,178,0)" stroke-width="1" font-size="16" >S</text>
<text x="190.613876" y="198.682137" fill="rgb(255,12,12)"  stroke="rgb(255,12,12)" stroke-width="1" font-size="16" >HO</text>
</svg>
</g>
<text font-size="18.000000" fill ="black" font-family="sans-serif"
x="10.000000" y="20.000000" ></text>
</svg>
