<?xml version="1.0"?>
<svg version="1.1" id="topsvg"
xmlns="http://www.w3.org/2000/svg" xmlns:xlink="http://www.w3.org/1999/xlink"
xmlns:cml="http://www.xml-cml.org/schema" x="0" y="0" width="200px" height="200px" viewBox="0 0 100 100">
<title> - Open Babel Depiction</title>
<rect x="0" y="0" width="100" height="100" fill="white"/>
<g transform="translate(0,0)">
<svg width="100" height="100" x="0" y="0" viewBox="0 0 396.126 311.396"
font-family="sans-serif" stroke="rgb(0,0,0)" stroke-width="2"  stroke-linecap="round">
<line x1="178.1" y1="110.4" x2="139.0" y2="102.1" stroke="rgb(0,0,0)"  stroke-width="2.0"/>
<line x1="83.0" y1="69.7" x2="64.9" y2="49.7" stroke="rgb(0,0,0)"  stroke-width="2.0"/>
<line x1="207.9" y1="83.6" x2="205.0" y2="56.8" stroke="rgb(0,0,0)"  stroke-width="2.0"/>
<line x1="234.2" y1="142.8" x2="260.9" y2="172.5" stroke="rgb(0,0,0)"  stroke-width="2.0"/>
<line x1="317.0" y1="204.9" x2="343.4" y2="210.5" stroke="rgb(0,0,0)"  stroke-width="2.0"/>
<line x1="287.3" y1="231.6" x2="290.1" y2="258.5" stroke="rgb(0,0,0)"  stroke-width="2.0"/>
<line x1="74.6" y1="108.9" x2="83.0" y2="69.7" stroke="rgb(0,0,0)"  stroke-width="2.0"/>
<line x1="82.9" y1="104.5" x2="88.8" y2="77.1" stroke="rgb(0,0,0)"  stroke-width="2.0"/>
<line x1="83.0" y1="69.7" x2="109.8" y2="66.9" stroke="rgb(0,0,0)"  stroke-width="2.0"/>
<line x1="128.0" y1="77.4" x2="139.0" y2="102.1" stroke="rgb(0,0,0)"  stroke-width="2.0"/>
<line x1="139.0" y1="102.1" x2="109.3" y2="128.9" stroke="rgb(0,0,0)"  stroke-width="2.0"/>
<line x1="129.7" y1="100.8" x2="108.9" y2="119.5" stroke="rgb(0,0,0)"  stroke-width="2.0"/>
<line x1="109.3" y1="128.9" x2="74.6" y2="108.9" stroke="rgb(0,0,0)"  stroke-width="2.0"/>
<line x1="239.8" y1="116.5" x2="234.2" y2="142.8" stroke="rgb(0,0,0)"  stroke-width="2.0"/>
<line x1="232.3" y1="117.0" x2="228.4" y2="135.4" stroke="rgb(0,0,0)"  stroke-width="2.0"/>
<line x1="234.2" y1="142.8" x2="207.3" y2="145.6" stroke="rgb(0,0,0)"  stroke-width="2.0"/>
<line x1="189.1" y1="135.1" x2="178.1" y2="110.4" stroke="rgb(0,0,0)"  stroke-width="2.0"/>
<line x1="178.1" y1="110.4" x2="207.9" y2="83.6" stroke="rgb(0,0,0)"  stroke-width="2.0"/>
<line x1="187.4" y1="111.7" x2="208.2" y2="93.0" stroke="rgb(0,0,0)"  stroke-width="2.0"/>
<line x1="207.9" y1="83.6" x2="231.2" y2="97.1" stroke="rgb(0,0,0)"  stroke-width="2.0"/>
<line x1="317.0" y1="204.9" x2="287.3" y2="231.6" stroke="rgb(0,0,0)"  stroke-width="2.0"/>
<line x1="307.7" y1="203.5" x2="286.9" y2="222.2" stroke="rgb(0,0,0)"  stroke-width="2.0"/>
<line x1="287.3" y1="231.6" x2="263.9" y2="218.1" stroke="rgb(0,0,0)"  stroke-width="2.0"/>
<line x1="255.4" y1="198.7" x2="260.9" y2="172.5" stroke="rgb(0,0,0)"  stroke-width="2.0"/>
<line x1="262.8" y1="198.2" x2="266.7" y2="179.9" stroke="rgb(0,0,0)"  stroke-width="2.0"/>
<line x1="260.9" y1="172.5" x2="287.8" y2="169.7" stroke="rgb(0,0,0)"  stroke-width="2.0"/>
<line x1="306.0" y1="180.2" x2="317.0" y2="204.9" stroke="rgb(0,0,0)"  stroke-width="2.0"/>
<line x1="98.0" y1="175.4" x2="74.6" y2="188.9" stroke="rgb(0,0,0)"  stroke-width="2.0"/>
<line x1="74.6" y1="188.9" x2="40.0" y2="168.9" stroke="rgb(0,0,0)"  stroke-width="2.0"/>
<line x1="40.0" y1="168.9" x2="40.0" y2="141.9" stroke="rgb(0,0,0)"  stroke-width="2.0"/>
<line x1="51.3" y1="122.4" x2="74.6" y2="108.9" stroke="rgb(0,0,0)"  stroke-width="2.0"/>
<line x1="109.3" y1="128.9" x2="109.3" y2="155.9" stroke="rgb(0,0,0)"  stroke-width="2.0"/>
<text x="246.632828" y="219.615317" fill="rgb(12,12,255)"  stroke="rgb(12,12,255)" stroke-width="1" font-size="16" >N</text>
<text x="285.454982" y="279.396193" fill="rgb(255,12,12)"  stroke="rgb(255,12,12)" stroke-width="1" font-size="16" >OH</text>
<text x="350.125541" y="221.166561" fill="rgb(191,191,191)"  stroke="rgb(191,191,191)" stroke-width="1" font-size="16" >H</text>
<text x="294.730171" y="176.308275" fill="rgb(178,178,0)"  stroke="rgb(178,178,0)" stroke-width="1" font-size="16" >S</text>
<text x="188.403195" y="154.944759" fill="rgb(178,178,0)"  stroke="rgb(178,178,0)" stroke-width="1" font-size="16" >S</text>
<text x="236.500539" y="111.637716" fill="rgb(12,12,255)"  stroke="rgb(12,12,255)" stroke-width="1" font-size="16" >N</text>
<text x="185.678384" y="51.856840" fill="rgb(255,12,12)"  stroke="rgb(255,12,12)" stroke-width="1" font-size="16" >HO</text>
<text x="116.738360" y="73.544654" fill="rgb(178,178,0)"  stroke="rgb(178,178,0)" stroke-width="1" font-size="16" >S</text>
<text x="50.192260" y="48.000000" fill="rgb(191,191,191)"  stroke="rgb(191,191,191)" stroke-width="1" font-size="16" >H</text>
<text x="34.000000" y="136.851697" fill="rgb(255,12,12)"  stroke="rgb(255,12,12)" stroke-width="1" font-size="16" >O</text>
<text x="103.282032" y="176.851697" fill="rgb(255,12,12)"  stroke="rgb(255,12,12)" stroke-width="1" font-size="16" >O</text>
</svg>
</g>
<text font-size="18.000000" fill ="black" font-family="sans-serif"
x="10.000000" y="20.000000" ></text>
</svg>
