<?xml version="1.0"?>
<svg version="1.1" id="topsvg"
xmlns="http://www.w3.org/2000/svg" xmlns:xlink="http://www.w3.org/1999/xlink"
xmlns:cml="http://www.xml-cml.org/schema" x="0" y="0" width="200px" height="200px" viewBox="0 0 100 100">
<title> - Open Babel Depiction</title>
<rect x="0" y="0" width="100" height="100" fill="white"/>
<g transform="translate(0,0)">
<svg width="100" height="100" x="0" y="0" viewBox="0 0 408.573 250.7"
font-family="sans-serif" stroke="rgb(0,0,0)" stroke-width="2"  stroke-linecap="round">
<line x1="311.0" y1="118.0" x2="277.2" y2="98.5" stroke="rgb(0,0,0)"  stroke-width="2.0"/>
<line x1="175.9" y1="118.0" x2="175.9" y2="144.0" stroke="rgb(0,0,0)"  stroke-width="2.0"/>
<line x1="188.9" y1="157.0" x2="201.9" y2="156.9" stroke="rgb(0,0,0)"  stroke-width="2.0"/>
<line x1="175.9" y1="118.0" x2="153.4" y2="131.0" stroke="rgb(0,0,0)"  stroke-width="2.0"/>
<line x1="142.2" y1="150.5" x2="142.2" y2="163.4" stroke="rgb(0,0,0)"  stroke-width="2.0"/>
<line x1="74.6" y1="98.5" x2="51.3" y2="112.0" stroke="rgb(0,0,0)"  stroke-width="2.0"/>
<line x1="342.5" y1="172.6" x2="347.9" y2="198.0" stroke="rgb(0,0,0)"  stroke-width="2.0"/>
<line x1="293.9" y1="159.7" x2="280.9" y2="159.7" stroke="rgb(0,0,0)"  stroke-width="2.0"/>
<line x1="293.9" y1="153.7" x2="280.9" y2="153.7" stroke="rgb(0,0,0)"  stroke-width="2.0"/>
<line x1="303.0" y1="169.5" x2="296.5" y2="180.7" stroke="rgb(0,0,0)"  stroke-width="2.0"/>
<line x1="297.8" y1="166.5" x2="291.3" y2="177.7" stroke="rgb(0,0,0)"  stroke-width="2.0"/>
<line x1="209.7" y1="98.5" x2="209.7" y2="59.5" stroke="rgb(0,0,0)"  stroke-width="2.0"/>
<line x1="216.9" y1="92.5" x2="216.9" y2="65.5" stroke="rgb(0,0,0)"  stroke-width="2.0"/>
<line x1="209.7" y1="59.5" x2="243.5" y2="40.0" stroke="rgb(0,0,0)"  stroke-width="2.0"/>
<line x1="243.5" y1="40.0" x2="277.2" y2="59.5" stroke="rgb(0,0,0)"  stroke-width="2.0"/>
<line x1="245.0" y1="49.2" x2="268.4" y2="62.7" stroke="rgb(0,0,0)"  stroke-width="2.0"/>
<line x1="277.2" y1="59.5" x2="277.2" y2="98.5" stroke="rgb(0,0,0)"  stroke-width="2.0"/>
<line x1="277.2" y1="98.5" x2="243.5" y2="118.0" stroke="rgb(0,0,0)"  stroke-width="2.0"/>
<line x1="268.4" y1="95.3" x2="245.1" y2="108.7" stroke="rgb(0,0,0)"  stroke-width="2.0"/>
<line x1="243.5" y1="118.0" x2="209.7" y2="98.5" stroke="rgb(0,0,0)"  stroke-width="2.0"/>
<line x1="108.4" y1="118.0" x2="142.2" y2="98.5" stroke="rgb(0,0,0)"  stroke-width="2.0"/>
<line x1="110.0" y1="108.7" x2="133.4" y2="95.3" stroke="rgb(0,0,0)"  stroke-width="2.0"/>
<line x1="142.2" y1="98.5" x2="142.2" y2="59.5" stroke="rgb(0,0,0)"  stroke-width="2.0"/>
<line x1="142.2" y1="59.5" x2="108.4" y2="40.0" stroke="rgb(0,0,0)"  stroke-width="2.0"/>
<line x1="133.4" y1="62.7" x2="110.0" y2="49.2" stroke="rgb(0,0,0)"  stroke-width="2.0"/>
<line x1="108.4" y1="40.0" x2="74.6" y2="59.5" stroke="rgb(0,0,0)"  stroke-width="2.0"/>
<line x1="74.6" y1="59.5" x2="74.6" y2="98.5" stroke="rgb(0,0,0)"  stroke-width="2.0"/>
<line x1="81.8" y1="65.5" x2="81.8" y2="92.5" stroke="rgb(0,0,0)"  stroke-width="2.0"/>
<line x1="74.6" y1="98.5" x2="108.4" y2="118.0" stroke="rgb(0,0,0)"  stroke-width="2.0"/>
<line x1="142.2" y1="59.5" x2="209.7" y2="59.5" stroke="rgb(0,0,0)"  stroke-width="2.0"/>
<line x1="209.7" y1="98.5" x2="175.9" y2="118.0" stroke="rgb(0,0,0)"  stroke-width="2.0"/>
<line x1="175.9" y1="118.0" x2="142.2" y2="98.5" stroke="rgb(0,0,0)"  stroke-width="2.0"/>
<line x1="368.6" y1="143.6" x2="342.5" y2="172.6" stroke="rgb(0,0,0)"  stroke-width="2.0"/>
<line x1="359.2" y1="143.3" x2="341.2" y2="163.3" stroke="rgb(0,0,0)"  stroke-width="2.0"/>
<line x1="342.5" y1="172.6" x2="318.8" y2="162.0" stroke="rgb(0,0,0)"  stroke-width="2.0"/>
<line x1="308.2" y1="143.8" x2="311.0" y2="118.0" stroke="rgb(0,0,0)"  stroke-width="2.0"/>
<line x1="311.0" y1="118.0" x2="349.1" y2="109.9" stroke="rgb(0,0,0)"  stroke-width="2.0"/>
<line x1="318.3" y1="123.8" x2="344.7" y2="118.2" stroke="rgb(0,0,0)"  stroke-width="2.0"/>
<line x1="349.1" y1="109.9" x2="368.6" y2="143.6" stroke="rgb(0,0,0)"  stroke-width="2.0"/>
<text x="281.407758" y="198.483589" fill="rgb(255,12,12)"  stroke="rgb(255,12,12)" stroke-width="1" font-size="16" >O</text>
<text x="261.917797" y="164.733064" fill="rgb(255,12,12)"  stroke="rgb(255,12,12)" stroke-width="1" font-size="16" >O</text>
<text x="300.891590" y="164.729526" fill="rgb(178,178,0)"  stroke="rgb(178,178,0)" stroke-width="1" font-size="16" >S</text>
<text x="344.603928" y="218.699749" fill="rgb(191,191,191)"  stroke="rgb(191,191,191)" stroke-width="1" font-size="16" >H</text>
<text x="34.000000" y="126.498342" fill="rgb(191,191,191)"  stroke="rgb(191,191,191)" stroke-width="1" font-size="16" >H</text>
<text x="138.190236" y="184.444877" fill="rgb(102,102,102)"  stroke="rgb(102,102,102)" stroke-width="1" font-size="16" >CH</text>
<text x="162.190236" y="188.124877" fill="rgb(102,102,102)"  stroke="rgb(102,102,102)" stroke-width="1" font-size="13" >3</text>
<text x="136.185518" y="145.471084" fill="rgb(255,12,12)"  stroke="rgb(255,12,12)" stroke-width="1" font-size="16" >O</text>
<text x="210.916667" y="164.946473" fill="rgb(102,102,102)"  stroke="rgb(102,102,102)" stroke-width="1" font-size="16" >CH</text>
<text x="234.916667" y="168.626473" fill="rgb(102,102,102)"  stroke="rgb(102,102,102)" stroke-width="1" font-size="13" >3</text>
<text x="169.942875" y="164.953895" fill="rgb(255,12,12)"  stroke="rgb(255,12,12)" stroke-width="1" font-size="16" >O</text>
</svg>
</g>
<text font-size="18.000000" fill ="black" font-family="sans-serif"
x="10.000000" y="20.000000" ></text>
</svg>
