<?xml version="1.0"?>
<svg version="1.1" id="topsvg"
xmlns="http://www.w3.org/2000/svg" xmlns:xlink="http://www.w3.org/1999/xlink"
xmlns:cml="http://www.xml-cml.org/schema" x="0" y="0" width="200px" height="200px" viewBox="0 0 100 100">
<title> - Open Babel Depiction</title>
<rect x="0" y="0" width="100" height="100" fill="white"/>
<g transform="translate(0,0)">
<svg width="100" height="100" x="0" y="0" viewBox="0 0 634.907 265.527"
font-family="sans-serif" stroke="rgb(0,0,0)" stroke-width="2"  stroke-linecap="round">
<line x1="245.5" y1="155.1" x2="283.6" y2="142.8" stroke="rgb(0,0,0)"  stroke-width="2.0"/>
<line x1="295.9" y1="104.7" x2="272.4" y2="72.4" stroke="rgb(0,0,0)"  stroke-width="2.0"/>
<line x1="272.4" y1="72.4" x2="256.5" y2="50.5" stroke="rgb(0,0,0)"  stroke-width="2.0"/>
<line x1="269.0" y1="74.8" x2="253.2" y2="53.0" stroke="rgb(0,0,0)"  stroke-width="2.0"/>
<line x1="275.8" y1="69.9" x2="259.9" y2="48.0" stroke="rgb(0,0,0)"  stroke-width="2.0"/>
<line x1="335.9" y1="104.7" x2="351.8" y2="82.9" stroke="rgb(0,0,0)"  stroke-width="2.0"/>
<line x1="348.3" y1="142.8" x2="386.3" y2="155.1" stroke="rgb(0,0,0)"  stroke-width="2.0"/>
<line x1="384.3" y1="152.9" x2="414.1" y2="126.1" stroke="rgb(0,0,0)"  stroke-width="2.0"/>
<line x1="388.3" y1="157.4" x2="418.1" y2="130.6" stroke="rgb(0,0,0)"  stroke-width="2.0"/>
<line x1="416.1" y1="128.4" x2="454.1" y2="140.7" stroke="rgb(0,0,0)"  stroke-width="2.0"/>
<line x1="486.5" y1="117.2" x2="486.5" y2="90.2" stroke="rgb(0,0,0)"  stroke-width="2.0"/>
<line x1="518.8" y1="140.7" x2="556.9" y2="128.4" stroke="rgb(0,0,0)"  stroke-width="2.0"/>
<line x1="556.9" y1="128.4" x2="582.5" y2="120.0" stroke="rgb(0,0,0)"  stroke-width="2.0"/>
<line x1="555.6" y1="124.4" x2="581.2" y2="116.0" stroke="rgb(0,0,0)"  stroke-width="2.0"/>
<line x1="558.2" y1="132.4" x2="583.8" y2="124.0" stroke="rgb(0,0,0)"  stroke-width="2.0"/>
<line x1="506.5" y1="178.8" x2="522.3" y2="200.6" stroke="rgb(0,0,0)"  stroke-width="2.0"/>
<line x1="233.2" y1="193.2" x2="249.0" y2="215.0" stroke="rgb(0,0,0)"  stroke-width="2.0"/>
<line x1="180.8" y1="155.1" x2="142.8" y2="142.8" stroke="rgb(0,0,0)"  stroke-width="2.0"/>
<line x1="78.0" y1="142.8" x2="52.4" y2="151.1" stroke="rgb(0,0,0)"  stroke-width="2.0"/>
<line x1="90.4" y1="104.7" x2="74.5" y2="82.9" stroke="rgb(0,0,0)"  stroke-width="2.0"/>
<line x1="335.9" y1="104.7" x2="348.3" y2="142.8" stroke="rgb(0,0,0)"  stroke-width="2.0"/>
<line x1="330.9" y1="112.7" x2="339.6" y2="139.3" stroke="rgb(0,0,0)"  stroke-width="2.0"/>
<line x1="348.3" y1="142.8" x2="326.4" y2="158.6" stroke="rgb(0,0,0)"  stroke-width="2.0"/>
<line x1="305.4" y1="158.6" x2="283.6" y2="142.8" stroke="rgb(0,0,0)"  stroke-width="2.0"/>
<line x1="283.6" y1="142.8" x2="295.9" y2="104.7" stroke="rgb(0,0,0)"  stroke-width="2.0"/>
<line x1="292.3" y1="139.3" x2="300.9" y2="112.7" stroke="rgb(0,0,0)"  stroke-width="2.0"/>
<line x1="295.9" y1="104.7" x2="335.9" y2="104.7" stroke="rgb(0,0,0)"  stroke-width="2.0"/>
<line x1="518.8" y1="140.7" x2="506.5" y2="178.8" stroke="rgb(0,0,0)"  stroke-width="2.0"/>
<line x1="510.1" y1="144.2" x2="501.5" y2="170.8" stroke="rgb(0,0,0)"  stroke-width="2.0"/>
<line x1="506.5" y1="178.8" x2="479.5" y2="178.8" stroke="rgb(0,0,0)"  stroke-width="2.0"/>
<line x1="462.4" y1="166.4" x2="454.1" y2="140.7" stroke="rgb(0,0,0)"  stroke-width="2.0"/>
<line x1="454.1" y1="140.7" x2="486.5" y2="117.2" stroke="rgb(0,0,0)"  stroke-width="2.0"/>
<line x1="463.2" y1="143.0" x2="485.8" y2="126.6" stroke="rgb(0,0,0)"  stroke-width="2.0"/>
<line x1="486.5" y1="117.2" x2="518.8" y2="140.7" stroke="rgb(0,0,0)"  stroke-width="2.0"/>
<line x1="189.1" y1="180.6" x2="180.8" y2="155.1" stroke="rgb(0,0,0)"  stroke-width="2.0"/>
<line x1="195.3" y1="176.5" x2="189.5" y2="158.6" stroke="rgb(0,0,0)"  stroke-width="2.0"/>
<line x1="180.8" y1="155.1" x2="202.6" y2="139.3" stroke="rgb(0,0,0)"  stroke-width="2.0"/>
<line x1="223.7" y1="139.3" x2="245.5" y2="155.1" stroke="rgb(0,0,0)"  stroke-width="2.0"/>
<line x1="245.5" y1="155.1" x2="233.2" y2="193.2" stroke="rgb(0,0,0)"  stroke-width="2.0"/>
<line x1="236.8" y1="158.6" x2="228.2" y2="185.2" stroke="rgb(0,0,0)"  stroke-width="2.0"/>
<line x1="233.2" y1="193.2" x2="206.2" y2="193.2" stroke="rgb(0,0,0)"  stroke-width="2.0"/>
<line x1="78.0" y1="142.8" x2="90.4" y2="104.7" stroke="rgb(0,0,0)"  stroke-width="2.0"/>
<line x1="86.7" y1="139.3" x2="95.4" y2="112.7" stroke="rgb(0,0,0)"  stroke-width="2.0"/>
<line x1="90.4" y1="104.7" x2="117.4" y2="104.7" stroke="rgb(0,0,0)"  stroke-width="2.0"/>
<line x1="134.5" y1="117.3" x2="142.8" y2="142.8" stroke="rgb(0,0,0)"  stroke-width="2.0"/>
<line x1="128.3" y1="121.4" x2="134.1" y2="139.3" stroke="rgb(0,0,0)"  stroke-width="2.0"/>
<line x1="142.8" y1="142.8" x2="120.9" y2="158.6" stroke="rgb(0,0,0)"  stroke-width="2.0"/>
<line x1="99.9" y1="158.6" x2="78.0" y2="142.8" stroke="rgb(0,0,0)"  stroke-width="2.0"/>
<text x="588.907056" y="123.998396" fill="rgb(12,12,255)"  stroke="rgb(12,12,255)" stroke-width="1" font-size="16" >N</text>
<text x="124.402940" y="112.721360" fill="rgb(12,12,255)"  stroke="rgb(12,12,255)" stroke-width="1" font-size="16" >N</text>
<text x="60.891530" y="80.360680" fill="rgb(191,191,191)"  stroke="rgb(191,191,191)" stroke-width="1" font-size="16" >H</text>
<text x="34.000000" y="163.124300" fill="rgb(191,191,191)"  stroke="rgb(191,191,191)" stroke-width="1" font-size="16" >H</text>
<text x="104.402940" y="174.275030" fill="rgb(178,178,0)"  stroke="rgb(178,178,0)" stroke-width="1" font-size="16" >S</text>
<text x="207.166561" y="139.612890" fill="rgb(178,178,0)"  stroke="rgb(178,178,0)" stroke-width="1" font-size="16" >S</text>
<text x="187.166561" y="201.166561" fill="rgb(12,12,255)"  stroke="rgb(12,12,255)" stroke-width="1" font-size="16" >N</text>
<text x="250.677971" y="233.527240" fill="rgb(191,191,191)"  stroke="rgb(191,191,191)" stroke-width="1" font-size="16" >H</text>
<text x="460.461855" y="186.762016" fill="rgb(178,178,0)"  stroke="rgb(178,178,0)" stroke-width="1" font-size="16" >S</text>
<text x="523.973265" y="219.122696" fill="rgb(191,191,191)"  stroke="rgb(191,191,191)" stroke-width="1" font-size="16" >H</text>
<text x="480.461855" y="85.208345" fill="rgb(30,239,30)"  stroke="rgb(30,239,30)" stroke-width="1" font-size="16" >Cl</text>
<text x="309.930181" y="174.275030" fill="rgb(178,178,0)"  stroke="rgb(178,178,0)" stroke-width="1" font-size="16" >S</text>
<text x="353.441591" y="80.360680" fill="rgb(30,239,30)"  stroke="rgb(30,239,30)" stroke-width="1" font-size="16" >Cl</text>
<text x="242.907361" y="48.000000" fill="rgb(12,12,255)"  stroke="rgb(12,12,255)" stroke-width="1" font-size="16" >N</text>
</svg>
</g>
<text font-size="18.000000" fill ="black" font-family="sans-serif"
x="10.000000" y="20.000000" ></text>
</svg>
