<?xml version="1.0"?>
<svg version="1.1" id="topsvg"
xmlns="http://www.w3.org/2000/svg" xmlns:xlink="http://www.w3.org/1999/xlink"
xmlns:cml="http://www.xml-cml.org/schema" x="0" y="0" width="200px" height="200px" viewBox="0 0 100 100">
<title> - Open Babel Depiction</title>
<rect x="0" y="0" width="100" height="100" fill="white"/>
<g transform="translate(0,0)">
<svg width="100" height="100" x="0" y="0" viewBox="0 0 340.442 263.679"
font-family="sans-serif" stroke="rgb(0,0,0)" stroke-width="2"  stroke-linecap="round">
<line x1="130.4" y1="108.8" x2="163.8" y2="128.1" stroke="rgb(0,0,0)"  stroke-width="2.0"/>
<line x1="164.1" y1="166.6" x2="130.8" y2="186.0" stroke="rgb(0,0,0)"  stroke-width="2.0"/>
<line x1="130.8" y1="186.0" x2="125.5" y2="211.0" stroke="rgb(0,0,0)"  stroke-width="2.0"/>
<line x1="134.9" y1="186.8" x2="129.7" y2="211.8" stroke="rgb(0,0,0)"  stroke-width="2.0"/>
<line x1="126.7" y1="185.1" x2="121.4" y2="210.1" stroke="rgb(0,0,0)"  stroke-width="2.0"/>
<line x1="265.5" y1="185.7" x2="289.1" y2="199.1" stroke="rgb(0,0,0)"  stroke-width="2.0"/>
<line x1="265.3" y1="147.1" x2="298.6" y2="127.8" stroke="rgb(0,0,0)"  stroke-width="2.0"/>
<line x1="298.6" y1="127.8" x2="290.6" y2="103.5" stroke="rgb(0,0,0)"  stroke-width="2.0"/>
<line x1="294.6" y1="129.1" x2="286.6" y2="104.8" stroke="rgb(0,0,0)"  stroke-width="2.0"/>
<line x1="302.6" y1="126.5" x2="294.6" y2="102.2" stroke="rgb(0,0,0)"  stroke-width="2.0"/>
<line x1="71.2" y1="89.6" x2="50.5" y2="74.6" stroke="rgb(0,0,0)"  stroke-width="2.0"/>
<line x1="115.4" y1="66.7" x2="124.7" y2="58.4" stroke="rgb(0,0,0)"  stroke-width="2.0"/>
<line x1="119.5" y1="71.2" x2="128.8" y2="62.8" stroke="rgb(0,0,0)"  stroke-width="2.0"/>
<line x1="102.2" y1="65.6" x2="99.5" y2="53.3" stroke="rgb(0,0,0)"  stroke-width="2.0"/>
<line x1="108.0" y1="64.3" x2="105.4" y2="52.1" stroke="rgb(0,0,0)"  stroke-width="2.0"/>
<line x1="197.8" y1="186.1" x2="231.5" y2="127.7" stroke="rgb(0,0,0)"  stroke-width="2.0"/>
<line x1="194.6" y1="177.3" x2="222.3" y2="129.3" stroke="rgb(0,0,0)"  stroke-width="2.0"/>
<line x1="231.5" y1="127.7" x2="209.0" y2="114.7" stroke="rgb(0,0,0)"  stroke-width="2.0"/>
<line x1="186.6" y1="114.7" x2="163.8" y2="128.1" stroke="rgb(0,0,0)"  stroke-width="2.0"/>
<line x1="163.8" y1="128.1" x2="164.1" y2="166.6" stroke="rgb(0,0,0)"  stroke-width="2.0"/>
<line x1="171.0" y1="134.0" x2="171.2" y2="160.6" stroke="rgb(0,0,0)"  stroke-width="2.0"/>
<line x1="164.1" y1="166.6" x2="197.8" y2="186.1" stroke="rgb(0,0,0)"  stroke-width="2.0"/>
<line x1="265.5" y1="185.7" x2="265.3" y2="147.1" stroke="rgb(0,0,0)"  stroke-width="2.0"/>
<line x1="258.3" y1="179.7" x2="258.1" y2="153.2" stroke="rgb(0,0,0)"  stroke-width="2.0"/>
<line x1="265.3" y1="147.1" x2="231.5" y2="127.7" stroke="rgb(0,0,0)"  stroke-width="2.0"/>
<line x1="197.8" y1="186.1" x2="220.3" y2="199.1" stroke="rgb(0,0,0)"  stroke-width="2.0"/>
<line x1="242.8" y1="199.0" x2="265.5" y2="185.7" stroke="rgb(0,0,0)"  stroke-width="2.0"/>
<line x1="71.2" y1="128.1" x2="71.2" y2="89.6" stroke="rgb(0,0,0)"  stroke-width="2.0"/>
<line x1="78.4" y1="122.1" x2="78.4" y2="95.6" stroke="rgb(0,0,0)"  stroke-width="2.0"/>
<line x1="71.2" y1="89.6" x2="95.4" y2="81.7" stroke="rgb(0,0,0)"  stroke-width="2.0"/>
<line x1="115.4" y1="88.2" x2="130.4" y2="108.8" stroke="rgb(0,0,0)"  stroke-width="2.0"/>
<line x1="130.4" y1="108.8" x2="107.8" y2="140.0" stroke="rgb(0,0,0)"  stroke-width="2.0"/>
<line x1="121.1" y1="109.5" x2="105.5" y2="130.9" stroke="rgb(0,0,0)"  stroke-width="2.0"/>
<line x1="107.8" y1="140.0" x2="71.2" y2="128.1" stroke="rgb(0,0,0)"  stroke-width="2.0"/>
<text x="93.781024" y="48.000000" fill="rgb(255,12,12)"  stroke="rgb(255,12,12)" stroke-width="1" font-size="16" >O</text>
<text x="130.410666" y="59.901692" fill="rgb(255,12,12)"  stroke="rgb(255,12,12)" stroke-width="1" font-size="16" >O</text>
<text x="101.788677" y="85.673047" fill="rgb(178,178,0)"  stroke="rgb(178,178,0)" stroke-width="1" font-size="16" >S</text>
<text x="34.000000" y="74.936375" fill="rgb(191,191,191)"  stroke="rgb(191,191,191)" stroke-width="1" font-size="16" >H</text>
<text x="191.785504" y="116.176031" fill="rgb(178,178,0)"  stroke="rgb(178,178,0)" stroke-width="1" font-size="16" >S</text>
<text x="280.531777" y="99.179278" fill="rgb(12,12,255)"  stroke="rgb(12,12,255)" stroke-width="1" font-size="16" >N</text>
<text x="294.441645" y="213.495678" fill="rgb(191,191,191)"  stroke="rgb(191,191,191)" stroke-width="1" font-size="16" >H</text>
<text x="225.542500" y="213.568477" fill="rgb(178,178,0)"  stroke="rgb(178,178,0)" stroke-width="1" font-size="16" >S</text>
<text x="116.890672" y="231.678634" fill="rgb(12,12,255)"  stroke="rgb(12,12,255)" stroke-width="1" font-size="16" >N</text>
</svg>
</g>
<text font-size="18.000000" fill ="black" font-family="sans-serif"
x="10.000000" y="20.000000" ></text>
</svg>
