<?xml version="1.0"?>
<svg version="1.1" id="topsvg"
xmlns="http://www.w3.org/2000/svg" xmlns:xlink="http://www.w3.org/1999/xlink"
xmlns:cml="http://www.xml-cml.org/schema" x="0" y="0" width="200px" height="200px" viewBox="0 0 100 100">
<title> - Open Babel Depiction</title>
<rect x="0" y="0" width="100" height="100" fill="white"/>
<g transform="translate(0,0)">
<svg width="100" height="100" x="0" y="0" viewBox="0 0 376.954 403.236"
font-family="sans-serif" stroke="rgb(0,0,0)" stroke-width="2"  stroke-linecap="round">
<line x1="174.7" y1="138.4" x2="155.6" y2="171.4" stroke="rgb(0,0,0)"  stroke-width="2.0"/>
<line x1="117.7" y1="175.4" x2="100.8" y2="156.7" stroke="rgb(0,0,0)"  stroke-width="2.0"/>
<line x1="109.7" y1="212.7" x2="74.9" y2="228.3" stroke="rgb(0,0,0)"  stroke-width="2.0"/>
<line x1="74.9" y1="228.3" x2="51.9" y2="238.5" stroke="rgb(0,0,0)"  stroke-width="2.0"/>
<line x1="76.6" y1="232.1" x2="53.6" y2="242.3" stroke="rgb(0,0,0)"  stroke-width="2.0"/>
<line x1="73.2" y1="224.4" x2="50.2" y2="234.7" stroke="rgb(0,0,0)"  stroke-width="2.0"/>
<line x1="142.8" y1="231.8" x2="146.8" y2="269.8" stroke="rgb(0,0,0)"  stroke-width="2.0"/>
<line x1="133.9" y1="330.2" x2="121.4" y2="352.0" stroke="rgb(0,0,0)"  stroke-width="2.0"/>
<line x1="171.9" y1="326.2" x2="188.7" y2="344.9" stroke="rgb(0,0,0)"  stroke-width="2.0"/>
<line x1="179.8" y1="288.9" x2="214.7" y2="273.3" stroke="rgb(0,0,0)"  stroke-width="2.0"/>
<line x1="214.7" y1="273.3" x2="237.7" y2="263.1" stroke="rgb(0,0,0)"  stroke-width="2.0"/>
<line x1="213.0" y1="269.5" x2="236.0" y2="259.3" stroke="rgb(0,0,0)"  stroke-width="2.0"/>
<line x1="216.4" y1="277.2" x2="239.4" y2="266.9" stroke="rgb(0,0,0)"  stroke-width="2.0"/>
<line x1="248.7" y1="153.1" x2="251.3" y2="178.2" stroke="rgb(0,0,0)"  stroke-width="2.0"/>
<line x1="242.7" y1="153.8" x2="245.4" y2="178.8" stroke="rgb(0,0,0)"  stroke-width="2.0"/>
<line x1="286.8" y1="130.6" x2="298.7" y2="133.2" stroke="rgb(0,0,0)"  stroke-width="2.0"/>
<line x1="320.1" y1="126.2" x2="328.3" y2="117.2" stroke="rgb(0,0,0)"  stroke-width="2.0"/>
<line x1="258.6" y1="93.1" x2="271.1" y2="71.3" stroke="rgb(0,0,0)"  stroke-width="2.0"/>
<line x1="184.6" y1="78.3" x2="181.9" y2="53.2" stroke="rgb(0,0,0)"  stroke-width="2.0"/>
<line x1="190.5" y1="77.6" x2="187.9" y2="52.6" stroke="rgb(0,0,0)"  stroke-width="2.0"/>
<line x1="166.7" y1="114.1" x2="210.6" y2="176.6" stroke="rgb(0,0,0)"  stroke-width="2.0"/>
<line x1="205.0" y1="187.2" x2="192.9" y2="187.2" stroke="rgb(0,0,0)"  stroke-width="2.0"/>
<line x1="109.7" y1="212.7" x2="142.8" y2="231.8" stroke="rgb(0,0,0)"  stroke-width="2.0"/>
<line x1="118.5" y1="209.5" x2="141.2" y2="222.6" stroke="rgb(0,0,0)"  stroke-width="2.0"/>
<line x1="142.8" y1="231.8" x2="161.5" y2="215.0" stroke="rgb(0,0,0)"  stroke-width="2.0"/>
<line x1="165.9" y1="194.4" x2="155.6" y2="171.4" stroke="rgb(0,0,0)"  stroke-width="2.0"/>
<line x1="155.6" y1="171.4" x2="117.7" y2="175.4" stroke="rgb(0,0,0)"  stroke-width="2.0"/>
<line x1="150.4" y1="179.2" x2="124.4" y2="181.9" stroke="rgb(0,0,0)"  stroke-width="2.0"/>
<line x1="117.7" y1="175.4" x2="109.7" y2="212.7" stroke="rgb(0,0,0)"  stroke-width="2.0"/>
<line x1="133.9" y1="330.2" x2="171.9" y2="326.2" stroke="rgb(0,0,0)"  stroke-width="2.0"/>
<line x1="139.2" y1="322.4" x2="165.2" y2="319.7" stroke="rgb(0,0,0)"  stroke-width="2.0"/>
<line x1="171.9" y1="326.2" x2="179.8" y2="288.9" stroke="rgb(0,0,0)"  stroke-width="2.0"/>
<line x1="179.8" y1="288.9" x2="146.8" y2="269.8" stroke="rgb(0,0,0)"  stroke-width="2.0"/>
<line x1="171.0" y1="292.1" x2="148.4" y2="279.0" stroke="rgb(0,0,0)"  stroke-width="2.0"/>
<line x1="146.8" y1="269.8" x2="128.1" y2="286.6" stroke="rgb(0,0,0)"  stroke-width="2.0"/>
<line x1="123.7" y1="307.2" x2="133.9" y2="330.2" stroke="rgb(0,0,0)"  stroke-width="2.0"/>
<line x1="245.7" y1="153.5" x2="264.4" y2="136.6" stroke="rgb(0,0,0)"  stroke-width="2.0"/>
<line x1="268.8" y1="116.0" x2="258.6" y2="93.1" stroke="rgb(0,0,0)"  stroke-width="2.0"/>
<line x1="258.6" y1="93.1" x2="220.6" y2="97.0" stroke="rgb(0,0,0)"  stroke-width="2.0"/>
<line x1="253.3" y1="100.8" x2="227.3" y2="103.6" stroke="rgb(0,0,0)"  stroke-width="2.0"/>
<line x1="220.6" y1="97.0" x2="212.7" y2="134.4" stroke="rgb(0,0,0)"  stroke-width="2.0"/>
<line x1="212.7" y1="134.4" x2="245.7" y2="153.5" stroke="rgb(0,0,0)"  stroke-width="2.0"/>
<line x1="220.6" y1="97.0" x2="187.5" y2="78.0" stroke="rgb(0,0,0)"  stroke-width="2.0"/>
<line x1="187.5" y1="78.0" x2="168.8" y2="94.8" stroke="rgb(0,0,0)"  stroke-width="2.0"/>
<line x1="164.5" y1="115.4" x2="174.7" y2="138.4" stroke="rgb(0,0,0)"  stroke-width="2.0"/>
<line x1="174.7" y1="138.4" x2="212.7" y2="134.4" stroke="rgb(0,0,0)"  stroke-width="2.0"/>
<line x1="179.9" y1="130.6" x2="205.9" y2="127.8" stroke="rgb(0,0,0)"  stroke-width="2.0"/>
<text x="153.863331" y="195.226888" fill="rgb(102,102,102)"  stroke="rgb(102,102,102)" stroke-width="1" font-size="16" >H</text>
<text x="165.863331" y="198.906888" fill="rgb(102,102,102)"  stroke="rgb(102,102,102)" stroke-width="1" font-size="13" >3</text>
<text x="172.363331" y="195.226888" fill="rgb(102,102,102)"  stroke="rgb(102,102,102)" stroke-width="1" font-size="16" >C</text>
<text x="212.029795" y="195.226888" fill="rgb(255,12,12)"  stroke="rgb(255,12,12)" stroke-width="1" font-size="16" >O</text>
<text x="153.185768" y="111.495732" fill="rgb(12,12,255)"  stroke="rgb(12,12,255)" stroke-width="1" font-size="16" >N</text>
<text x="177.559496" y="48.000000" fill="rgb(255,12,12)"  stroke="rgb(255,12,12)" stroke-width="1" font-size="16" >O</text>
<text x="271.642720" y="67.998007" fill="rgb(191,191,191)"  stroke="rgb(191,191,191)" stroke-width="1" font-size="16" >H</text>
<text x="332.953971" y="115.489977" fill="rgb(102,102,102)"  stroke="rgb(102,102,102)" stroke-width="1" font-size="16" >CH</text>
<text x="356.953971" y="119.169977" fill="rgb(102,102,102)"  stroke="rgb(102,102,102)" stroke-width="1" font-size="13" >3</text>
<text x="305.415622" y="143.853187" fill="rgb(255,12,12)"  stroke="rgb(255,12,12)" stroke-width="1" font-size="16" >O</text>
<text x="268.083188" y="135.917933" fill="rgb(12,12,255)"  stroke="rgb(12,12,255)" stroke-width="1" font-size="16" >N</text>
<text x="243.709460" y="199.413665" fill="rgb(255,12,12)"  stroke="rgb(255,12,12)" stroke-width="1" font-size="16" >O</text>
<text x="243.562932" y="265.814023" fill="rgb(12,12,255)"  stroke="rgb(12,12,255)" stroke-width="1" font-size="16" >N</text>
<text x="191.432429" y="362.557066" fill="rgb(255,12,12)"  stroke="rgb(255,12,12)" stroke-width="1" font-size="16" >OH</text>
<text x="108.853465" y="371.236465" fill="rgb(191,191,191)"  stroke="rgb(191,191,191)" stroke-width="1" font-size="16" >H</text>
<text x="112.412997" y="303.316539" fill="rgb(178,178,0)"  stroke="rgb(178,178,0)" stroke-width="1" font-size="16" >S</text>
<text x="165.149935" y="214.282458" fill="rgb(178,178,0)"  stroke="rgb(178,178,0)" stroke-width="1" font-size="16" >S</text>
<text x="34.000000" y="251.784973" fill="rgb(12,12,255)"  stroke="rgb(12,12,255)" stroke-width="1" font-size="16" >N</text>
<text x="74.130504" y="155.041930" fill="rgb(255,12,12)"  stroke="rgb(255,12,12)" stroke-width="1" font-size="16" >HO</text>
</svg>
</g>
<text font-size="18.000000" fill ="black" font-family="sans-serif"
x="10.000000" y="20.000000" ></text>
</svg>
