<?xml version="1.0"?>
<svg version="1.1" id="topsvg"
xmlns="http://www.w3.org/2000/svg" xmlns:xlink="http://www.w3.org/1999/xlink"
xmlns:cml="http://www.xml-cml.org/schema" x="0" y="0" width="200px" height="200px" viewBox="0 0 100 100">
<title> - Open Babel Depiction</title>
<rect x="0" y="0" width="100" height="100" fill="white"/>
<g transform="translate(0,0)">
<svg width="100" height="100" x="0" y="0" viewBox="0 0 482.196 243.152"
font-family="sans-serif" stroke="rgb(0,0,0)" stroke-width="2"  stroke-linecap="round">
<line x1="311.9" y1="142.4" x2="278.0" y2="122.8" stroke="rgb(0,0,0)"  stroke-width="2.0"/>
<line x1="176.3" y1="155.4" x2="176.3" y2="181.5" stroke="rgb(0,0,0)"  stroke-width="2.0"/>
<line x1="177.8" y1="184.1" x2="155.2" y2="197.2" stroke="rgb(0,0,0)"  stroke-width="2.0"/>
<line x1="174.8" y1="178.9" x2="152.2" y2="192.0" stroke="rgb(0,0,0)"  stroke-width="2.0"/>
<line x1="176.3" y1="181.5" x2="199.0" y2="194.6" stroke="rgb(0,0,0)"  stroke-width="2.0"/>
<line x1="221.5" y1="194.6" x2="232.8" y2="188.0" stroke="rgb(0,0,0)"  stroke-width="2.0"/>
<line x1="74.6" y1="122.8" x2="51.3" y2="136.3" stroke="rgb(0,0,0)"  stroke-width="2.0"/>
<line x1="346.9" y1="80.0" x2="329.4" y2="60.6" stroke="rgb(0,0,0)"  stroke-width="2.0"/>
<line x1="351.3" y1="76.0" x2="333.9" y2="56.5" stroke="rgb(0,0,0)"  stroke-width="2.0"/>
<line x1="394.5" y1="62.6" x2="401.1" y2="51.3" stroke="rgb(0,0,0)"  stroke-width="2.0"/>
<line x1="404.6" y1="106.7" x2="430.1" y2="112.1" stroke="rgb(0,0,0)"  stroke-width="2.0"/>
<line x1="403.3" y1="112.6" x2="428.9" y2="118.0" stroke="rgb(0,0,0)"  stroke-width="2.0"/>
<line x1="366.7" y1="174.1" x2="384.2" y2="193.5" stroke="rgb(0,0,0)"  stroke-width="2.0"/>
<line x1="142.4" y1="122.8" x2="142.4" y2="83.7" stroke="rgb(0,0,0)"  stroke-width="2.0"/>
<line x1="142.4" y1="83.7" x2="210.2" y2="83.7" stroke="rgb(0,0,0)"  stroke-width="2.0"/>
<line x1="210.2" y1="83.7" x2="210.2" y2="122.8" stroke="rgb(0,0,0)"  stroke-width="2.0"/>
<line x1="203.0" y1="89.7" x2="203.0" y2="116.8" stroke="rgb(0,0,0)"  stroke-width="2.0"/>
<line x1="210.2" y1="122.8" x2="187.6" y2="135.9" stroke="rgb(0,0,0)"  stroke-width="2.0"/>
<line x1="165.1" y1="135.9" x2="142.4" y2="122.8" stroke="rgb(0,0,0)"  stroke-width="2.0"/>
<line x1="374.8" y1="135.8" x2="366.7" y2="174.1" stroke="rgb(0,0,0)"  stroke-width="2.0"/>
<line x1="366.6" y1="140.2" x2="360.9" y2="166.7" stroke="rgb(0,0,0)"  stroke-width="2.0"/>
<line x1="366.7" y1="174.1" x2="340.7" y2="176.8" stroke="rgb(0,0,0)"  stroke-width="2.0"/>
<line x1="322.5" y1="166.3" x2="311.9" y2="142.4" stroke="rgb(0,0,0)"  stroke-width="2.0"/>
<line x1="311.9" y1="142.4" x2="341.0" y2="116.2" stroke="rgb(0,0,0)"  stroke-width="2.0"/>
<line x1="321.2" y1="143.7" x2="341.3" y2="125.6" stroke="rgb(0,0,0)"  stroke-width="2.0"/>
<line x1="341.0" y1="116.2" x2="374.8" y2="135.8" stroke="rgb(0,0,0)"  stroke-width="2.0"/>
<line x1="210.2" y1="83.7" x2="244.1" y2="64.1" stroke="rgb(0,0,0)"  stroke-width="2.0"/>
<line x1="244.1" y1="64.1" x2="278.0" y2="83.7" stroke="rgb(0,0,0)"  stroke-width="2.0"/>
<line x1="245.7" y1="73.4" x2="269.2" y2="86.9" stroke="rgb(0,0,0)"  stroke-width="2.0"/>
<line x1="278.0" y1="83.7" x2="278.0" y2="122.8" stroke="rgb(0,0,0)"  stroke-width="2.0"/>
<line x1="278.0" y1="122.8" x2="244.1" y2="142.4" stroke="rgb(0,0,0)"  stroke-width="2.0"/>
<line x1="269.2" y1="119.6" x2="245.7" y2="133.2" stroke="rgb(0,0,0)"  stroke-width="2.0"/>
<line x1="244.1" y1="142.4" x2="210.2" y2="122.8" stroke="rgb(0,0,0)"  stroke-width="2.0"/>
<line x1="108.5" y1="142.4" x2="142.4" y2="122.8" stroke="rgb(0,0,0)"  stroke-width="2.0"/>
<line x1="110.1" y1="133.1" x2="133.6" y2="119.6" stroke="rgb(0,0,0)"  stroke-width="2.0"/>
<line x1="142.4" y1="83.7" x2="108.5" y2="64.1" stroke="rgb(0,0,0)"  stroke-width="2.0"/>
<line x1="133.6" y1="86.9" x2="110.1" y2="73.3" stroke="rgb(0,0,0)"  stroke-width="2.0"/>
<line x1="108.5" y1="64.1" x2="74.7" y2="83.6" stroke="rgb(0,0,0)"  stroke-width="2.0"/>
<line x1="74.7" y1="83.6" x2="74.6" y2="122.8" stroke="rgb(0,0,0)"  stroke-width="2.0"/>
<line x1="81.9" y1="89.7" x2="81.8" y2="116.8" stroke="rgb(0,0,0)"  stroke-width="2.0"/>
<line x1="74.6" y1="122.8" x2="108.5" y2="142.4" stroke="rgb(0,0,0)"  stroke-width="2.0"/>
<line x1="349.1" y1="78.0" x2="375.1" y2="75.2" stroke="rgb(0,0,0)"  stroke-width="2.0"/>
<line x1="393.3" y1="85.8" x2="403.9" y2="109.6" stroke="rgb(0,0,0)"  stroke-width="2.0"/>
<line x1="403.9" y1="109.6" x2="374.8" y2="135.8" stroke="rgb(0,0,0)"  stroke-width="2.0"/>
<line x1="341.0" y1="116.2" x2="349.1" y2="78.0" stroke="rgb(0,0,0)"  stroke-width="2.0"/>
<text x="321.792140" y="186.154772" fill="rgb(178,178,0)"  stroke="rgb(178,178,0)" stroke-width="1" font-size="16" >S</text>
<text x="386.879785" y="211.152201" fill="rgb(191,191,191)"  stroke="rgb(191,191,191)" stroke-width="1" font-size="16" >H</text>
<text x="436.195704" y="125.767857" fill="rgb(255,12,12)"  stroke="rgb(255,12,12)" stroke-width="1" font-size="16" >O</text>
<text x="403.586973" y="48.000000" fill="rgb(102,102,102)"  stroke="rgb(102,102,102)" stroke-width="1" font-size="16" >CH</text>
<text x="427.586973" y="51.680000" fill="rgb(102,102,102)"  stroke="rgb(102,102,102)" stroke-width="1" font-size="13" >3</text>
<text x="382.018305" y="81.880700" fill="rgb(12,12,255)"  stroke="rgb(12,12,255)" stroke-width="1" font-size="16" >N</text>
<text x="316.930660" y="56.883270" fill="rgb(255,12,12)"  stroke="rgb(255,12,12)" stroke-width="1" font-size="16" >O</text>
<text x="34.000000" y="150.791665" fill="rgb(191,191,191)"  stroke="rgb(191,191,191)" stroke-width="1" font-size="16" >H</text>
<text x="240.096148" y="189.515456" fill="rgb(102,102,102)"  stroke="rgb(102,102,102)" stroke-width="1" font-size="16" >CH</text>
<text x="264.096148" y="193.195456" fill="rgb(102,102,102)"  stroke="rgb(102,102,102)" stroke-width="1" font-size="13" >3</text>
<text x="204.210784" y="209.076046" fill="rgb(255,12,12)"  stroke="rgb(255,12,12)" stroke-width="1" font-size="16" >O</text>
<text x="136.442770" y="209.071344" fill="rgb(255,12,12)"  stroke="rgb(255,12,12)" stroke-width="1" font-size="16" >O</text>
<text x="170.330849" y="150.384874" fill="rgb(12,12,255)"  stroke="rgb(12,12,255)" stroke-width="1" font-size="16" >N</text>
</svg>
</g>
<text font-size="18.000000" fill ="black" font-family="sans-serif"
x="10.000000" y="20.000000" ></text>
</svg>
