<?xml version="1.0"?>
<svg version="1.1" id="topsvg"
xmlns="http://www.w3.org/2000/svg" xmlns:xlink="http://www.w3.org/1999/xlink"
xmlns:cml="http://www.xml-cml.org/schema" x="0" y="0" width="200px" height="200px" viewBox="0 0 100 100">
<title> - Open Babel Depiction</title>
<rect x="0" y="0" width="100" height="100" fill="white"/>
<g transform="translate(0,0)">
<svg width="100" height="100" x="0" y="0" viewBox="0 0 347.949 401.184"
font-family="sans-serif" stroke="rgb(0,0,0)" stroke-width="2"  stroke-linecap="round">
<line x1="196.5" y1="162.4" x2="157.4" y2="154.1" stroke="rgb(0,0,0)"  stroke-width="2.0"/>
<line x1="105.9" y1="107.8" x2="93.5" y2="69.7" stroke="rgb(0,0,0)"  stroke-width="2.0"/>
<line x1="92.9" y1="72.7" x2="66.5" y2="67.0" stroke="rgb(0,0,0)"  stroke-width="2.0"/>
<line x1="94.2" y1="66.8" x2="67.7" y2="61.2" stroke="rgb(0,0,0)"  stroke-width="2.0"/>
<line x1="93.5" y1="69.7" x2="111.6" y2="49.7" stroke="rgb(0,0,0)"  stroke-width="2.0"/>
<line x1="133.0" y1="42.7" x2="146.7" y2="45.6" stroke="rgb(0,0,0)"  stroke-width="2.0"/>
<line x1="79.1" y1="137.5" x2="52.7" y2="131.9" stroke="rgb(0,0,0)"  stroke-width="2.0"/>
<line x1="130.6" y1="183.9" x2="143.0" y2="221.9" stroke="rgb(0,0,0)"  stroke-width="2.0"/>
<line x1="143.6" y1="219.0" x2="170.0" y2="224.6" stroke="rgb(0,0,0)"  stroke-width="2.0"/>
<line x1="142.3" y1="224.8" x2="168.8" y2="230.4" stroke="rgb(0,0,0)"  stroke-width="2.0"/>
<line x1="143.0" y1="221.9" x2="124.9" y2="242.0" stroke="rgb(0,0,0)"  stroke-width="2.0"/>
<line x1="120.2" y1="264.0" x2="124.6" y2="277.3" stroke="rgb(0,0,0)"  stroke-width="2.0"/>
<line x1="205.7" y1="240.9" x2="181.0" y2="251.8" stroke="rgb(0,0,0)"  stroke-width="2.0"/>
<line x1="203.2" y1="235.4" x2="178.6" y2="246.4" stroke="rgb(0,0,0)"  stroke-width="2.0"/>
<line x1="240.5" y1="271.0" x2="243.3" y2="297.9" stroke="rgb(0,0,0)"  stroke-width="2.0"/>
<line x1="244.5" y1="295.2" x2="269.2" y2="306.1" stroke="rgb(0,0,0)"  stroke-width="2.0"/>
<line x1="242.1" y1="300.6" x2="266.7" y2="311.6" stroke="rgb(0,0,0)"  stroke-width="2.0"/>
<line x1="243.3" y1="297.9" x2="221.4" y2="313.8" stroke="rgb(0,0,0)"  stroke-width="2.0"/>
<line x1="212.3" y1="334.3" x2="213.7" y2="348.3" stroke="rgb(0,0,0)"  stroke-width="2.0"/>
<line x1="269.4" y1="228.4" x2="295.9" y2="234.0" stroke="rgb(0,0,0)"  stroke-width="2.0"/>
<line x1="268.2" y1="234.3" x2="294.6" y2="239.9" stroke="rgb(0,0,0)"  stroke-width="2.0"/>
<line x1="260.9" y1="155.7" x2="285.5" y2="144.7" stroke="rgb(0,0,0)"  stroke-width="2.0"/>
<line x1="252.6" y1="194.8" x2="260.9" y2="155.7" stroke="rgb(0,0,0)"  stroke-width="2.0"/>
<line x1="246.8" y1="187.4" x2="252.6" y2="160.0" stroke="rgb(0,0,0)"  stroke-width="2.0"/>
<line x1="260.9" y1="155.7" x2="237.5" y2="142.2" stroke="rgb(0,0,0)"  stroke-width="2.0"/>
<line x1="216.6" y1="144.4" x2="196.5" y2="162.4" stroke="rgb(0,0,0)"  stroke-width="2.0"/>
<line x1="196.5" y1="162.4" x2="212.8" y2="199.0" stroke="rgb(0,0,0)"  stroke-width="2.0"/>
<line x1="205.5" y1="165.0" x2="216.9" y2="190.6" stroke="rgb(0,0,0)"  stroke-width="2.0"/>
<line x1="212.8" y1="199.0" x2="252.6" y2="194.8" stroke="rgb(0,0,0)"  stroke-width="2.0"/>
<line x1="105.9" y1="107.8" x2="79.1" y2="137.5" stroke="rgb(0,0,0)"  stroke-width="2.0"/>
<line x1="107.2" y1="117.0" x2="88.5" y2="137.9" stroke="rgb(0,0,0)"  stroke-width="2.0"/>
<line x1="79.1" y1="137.5" x2="91.5" y2="175.5" stroke="rgb(0,0,0)"  stroke-width="2.0"/>
<line x1="91.5" y1="175.5" x2="130.6" y2="183.9" stroke="rgb(0,0,0)"  stroke-width="2.0"/>
<line x1="98.9" y1="169.7" x2="126.2" y2="175.6" stroke="rgb(0,0,0)"  stroke-width="2.0"/>
<line x1="130.6" y1="183.9" x2="157.4" y2="154.1" stroke="rgb(0,0,0)"  stroke-width="2.0"/>
<line x1="157.4" y1="154.1" x2="145.0" y2="116.1" stroke="rgb(0,0,0)"  stroke-width="2.0"/>
<line x1="148.7" y1="150.6" x2="140.0" y2="124.0" stroke="rgb(0,0,0)"  stroke-width="2.0"/>
<line x1="145.0" y1="116.1" x2="105.9" y2="107.8" stroke="rgb(0,0,0)"  stroke-width="2.0"/>
<line x1="204.5" y1="238.1" x2="227.8" y2="251.6" stroke="rgb(0,0,0)"  stroke-width="2.0"/>
<line x1="248.8" y1="249.4" x2="268.8" y2="231.3" stroke="rgb(0,0,0)"  stroke-width="2.0"/>
<line x1="268.8" y1="231.3" x2="252.6" y2="194.8" stroke="rgb(0,0,0)"  stroke-width="2.0"/>
<line x1="212.8" y1="199.0" x2="204.5" y2="238.1" stroke="rgb(0,0,0)"  stroke-width="2.0"/>
<text x="124.568623" y="297.662889" fill="rgb(102,102,102)"  stroke="rgb(102,102,102)" stroke-width="1" font-size="16" >CH</text>
<text x="148.568623" y="301.342889" fill="rgb(102,102,102)"  stroke="rgb(102,102,102)" stroke-width="1" font-size="13" >3</text>
<text x="220.229409" y="143.678025" fill="rgb(178,178,0)"  stroke="rgb(178,178,0)" stroke-width="1" font-size="16" >S</text>
<text x="291.412244" y="147.408560" fill="rgb(191,191,191)"  stroke="rgb(191,191,191)" stroke-width="1" font-size="16" >H</text>
<text x="301.949327" y="247.662215" fill="rgb(255,12,12)"  stroke="rgb(255,12,12)" stroke-width="1" font-size="16" >O</text>
<text x="211.099228" y="369.184134" fill="rgb(102,102,102)"  stroke="rgb(102,102,102)" stroke-width="1" font-size="16" >CH</text>
<text x="235.099228" y="372.864134" fill="rgb(102,102,102)"  stroke="rgb(102,102,102)" stroke-width="1" font-size="13" >3</text>
<text x="204.918089" y="329.403258" fill="rgb(255,12,12)"  stroke="rgb(255,12,12)" stroke-width="1" font-size="16" >O</text>
<text x="273.820587" y="322.161313" fill="rgb(255,12,12)"  stroke="rgb(255,12,12)" stroke-width="1" font-size="16" >O</text>
<text x="233.097630" y="266.110972" fill="rgb(12,12,255)"  stroke="rgb(12,12,255)" stroke-width="1" font-size="16" >N</text>
<text x="161.914796" y="262.380438" fill="rgb(255,12,12)"  stroke="rgb(255,12,12)" stroke-width="1" font-size="16" >O</text>
<text x="110.207943" y="259.620629" fill="rgb(255,12,12)"  stroke="rgb(255,12,12)" stroke-width="1" font-size="16" >O</text>
<text x="176.099072" y="238.211303" fill="rgb(255,12,12)"  stroke="rgb(255,12,12)" stroke-width="1" font-size="16" >O</text>
<text x="34.000000" y="137.177379" fill="rgb(191,191,191)"  stroke="rgb(191,191,191)" stroke-width="1" font-size="16" >H</text>
<text x="155.421577" y="56.316468" fill="rgb(102,102,102)"  stroke="rgb(102,102,102)" stroke-width="1" font-size="16" >CH</text>
<text x="179.421577" y="59.996468" fill="rgb(102,102,102)"  stroke="rgb(102,102,102)" stroke-width="1" font-size="13" >3</text>
<text x="114.295673" y="48.000000" fill="rgb(255,12,12)"  stroke="rgb(255,12,12)" stroke-width="1" font-size="16" >O</text>
<text x="48.404544" y="69.409325" fill="rgb(255,12,12)"  stroke="rgb(255,12,12)" stroke-width="1" font-size="16" >O</text>
</svg>
</g>
<text font-size="18.000000" fill ="black" font-family="sans-serif"
x="10.000000" y="20.000000" ></text>
</svg>
