<?xml version="1.0"?>
<svg version="1.1" id="topsvg"
xmlns="http://www.w3.org/2000/svg" xmlns:xlink="http://www.w3.org/1999/xlink"
xmlns:cml="http://www.xml-cml.org/schema" x="0" y="0" width="200px" height="200px" viewBox="0 0 100 100">
<title> - Open Babel Depiction</title>
<rect x="0" y="0" width="100" height="100" fill="white"/>
<g transform="translate(0,0)">
<svg width="100" height="100" x="0" y="0" viewBox="0 0 409.032 581.812"
font-family="sans-serif" stroke="rgb(0,0,0)" stroke-width="2"  stroke-linecap="round">
<line x1="175.9" y1="301.7" x2="155.9" y2="336.3" stroke="rgb(0,0,0)"  stroke-width="2.0"/>
<line x1="78.0" y1="406.4" x2="52.4" y2="414.7" stroke="rgb(0,0,0)"  stroke-width="2.0"/>
<line x1="78.0" y1="406.4" x2="58.0" y2="388.3" stroke="rgb(0,0,0)"  stroke-width="2.0"/>
<line x1="120.6" y1="502.0" x2="123.5" y2="528.9" stroke="rgb(0,0,0)"  stroke-width="2.0"/>
<line x1="192.9" y1="170.8" x2="192.9" y2="143.8" stroke="rgb(0,0,0)"  stroke-width="2.0"/>
<line x1="198.9" y1="170.8" x2="198.9" y2="143.8" stroke="rgb(0,0,0)"  stroke-width="2.0"/>
<line x1="151.1" y1="190.3" x2="137.8" y2="186.0" stroke="rgb(0,0,0)"  stroke-width="2.0"/>
<line x1="227.3" y1="191.5" x2="265.3" y2="179.1" stroke="rgb(0,0,0)"  stroke-width="2.0"/>
<line x1="229.2" y1="197.2" x2="267.2" y2="184.8" stroke="rgb(0,0,0)"  stroke-width="2.0"/>
<line x1="301.6" y1="205.5" x2="301.6" y2="232.5" stroke="rgb(0,0,0)"  stroke-width="2.0"/>
<line x1="295.6" y1="205.5" x2="295.6" y2="232.5" stroke="rgb(0,0,0)"  stroke-width="2.0"/>
<line x1="343.4" y1="186.0" x2="356.7" y2="190.3" stroke="rgb(0,0,0)"  stroke-width="2.0"/>
<line x1="318.6" y1="74.6" x2="332.1" y2="51.3" stroke="rgb(0,0,0)"  stroke-width="2.0"/>
<line x1="107.8" y1="379.6" x2="142.4" y2="399.6" stroke="rgb(0,0,0)"  stroke-width="2.0"/>
<line x1="116.6" y1="376.4" x2="140.8" y2="390.4" stroke="rgb(0,0,0)"  stroke-width="2.0"/>
<line x1="142.4" y1="399.6" x2="162.5" y2="381.5" stroke="rgb(0,0,0)"  stroke-width="2.0"/>
<line x1="166.8" y1="361.0" x2="155.9" y2="336.3" stroke="rgb(0,0,0)"  stroke-width="2.0"/>
<line x1="155.9" y1="336.3" x2="116.1" y2="340.5" stroke="rgb(0,0,0)"  stroke-width="2.0"/>
<line x1="150.7" y1="344.1" x2="122.8" y2="347.0" stroke="rgb(0,0,0)"  stroke-width="2.0"/>
<line x1="116.1" y1="340.5" x2="107.8" y2="379.6" stroke="rgb(0,0,0)"  stroke-width="2.0"/>
<line x1="120.6" y1="502.0" x2="140.7" y2="484.0" stroke="rgb(0,0,0)"  stroke-width="2.0"/>
<line x1="145.1" y1="463.4" x2="134.1" y2="438.7" stroke="rgb(0,0,0)"  stroke-width="2.0"/>
<line x1="134.1" y1="438.7" x2="94.3" y2="442.9" stroke="rgb(0,0,0)"  stroke-width="2.0"/>
<line x1="128.9" y1="446.5" x2="101.0" y2="449.4" stroke="rgb(0,0,0)"  stroke-width="2.0"/>
<line x1="94.3" y1="442.9" x2="86.0" y2="482.0" stroke="rgb(0,0,0)"  stroke-width="2.0"/>
<line x1="86.0" y1="482.0" x2="120.6" y2="502.0" stroke="rgb(0,0,0)"  stroke-width="2.0"/>
<line x1="94.8" y1="478.8" x2="119.0" y2="492.8" stroke="rgb(0,0,0)"  stroke-width="2.0"/>
<line x1="235.9" y1="267.0" x2="215.9" y2="232.4" stroke="rgb(0,0,0)"  stroke-width="2.0"/>
<line x1="226.6" y1="265.4" x2="212.6" y2="241.2" stroke="rgb(0,0,0)"  stroke-width="2.0"/>
<line x1="215.9" y1="232.4" x2="175.9" y2="232.4" stroke="rgb(0,0,0)"  stroke-width="2.0"/>
<line x1="175.9" y1="232.4" x2="155.9" y2="267.0" stroke="rgb(0,0,0)"  stroke-width="2.0"/>
<line x1="179.1" y1="241.2" x2="165.1" y2="265.4" stroke="rgb(0,0,0)"  stroke-width="2.0"/>
<line x1="155.9" y1="267.0" x2="175.9" y2="301.7" stroke="rgb(0,0,0)"  stroke-width="2.0"/>
<line x1="175.9" y1="301.7" x2="215.9" y2="301.7" stroke="rgb(0,0,0)"  stroke-width="2.0"/>
<line x1="181.9" y1="294.5" x2="209.9" y2="294.5" stroke="rgb(0,0,0)"  stroke-width="2.0"/>
<line x1="215.9" y1="301.7" x2="235.9" y2="267.0" stroke="rgb(0,0,0)"  stroke-width="2.0"/>
<line x1="278.6" y1="74.6" x2="258.6" y2="109.3" stroke="rgb(0,0,0)"  stroke-width="2.0"/>
<line x1="258.6" y1="109.3" x2="278.6" y2="143.9" stroke="rgb(0,0,0)"  stroke-width="2.0"/>
<line x1="267.9" y1="110.9" x2="281.9" y2="135.1" stroke="rgb(0,0,0)"  stroke-width="2.0"/>
<line x1="278.6" y1="143.9" x2="318.6" y2="143.9" stroke="rgb(0,0,0)"  stroke-width="2.0"/>
<line x1="318.6" y1="143.9" x2="338.6" y2="109.3" stroke="rgb(0,0,0)"  stroke-width="2.0"/>
<line x1="315.4" y1="135.1" x2="329.4" y2="110.9" stroke="rgb(0,0,0)"  stroke-width="2.0"/>
<line x1="338.6" y1="109.3" x2="318.6" y2="74.6" stroke="rgb(0,0,0)"  stroke-width="2.0"/>
<line x1="318.6" y1="74.6" x2="278.6" y2="74.6" stroke="rgb(0,0,0)"  stroke-width="2.0"/>
<line x1="312.6" y1="81.8" x2="284.6" y2="81.8" stroke="rgb(0,0,0)"  stroke-width="2.0"/>
<line x1="134.1" y1="438.7" x2="142.4" y2="399.6" stroke="rgb(0,0,0)"  stroke-width="2.0"/>
<line x1="107.8" y1="379.6" x2="78.0" y2="406.4" stroke="rgb(0,0,0)"  stroke-width="2.0"/>
<line x1="78.0" y1="406.4" x2="94.3" y2="442.9" stroke="rgb(0,0,0)"  stroke-width="2.0"/>
<line x1="195.9" y1="170.8" x2="174.0" y2="186.7" stroke="rgb(0,0,0)"  stroke-width="2.0"/>
<line x1="167.5" y1="206.7" x2="175.9" y2="232.4" stroke="rgb(0,0,0)"  stroke-width="2.0"/>
<line x1="215.9" y1="232.4" x2="228.2" y2="194.3" stroke="rgb(0,0,0)"  stroke-width="2.0"/>
<line x1="228.2" y1="194.3" x2="195.9" y2="170.8" stroke="rgb(0,0,0)"  stroke-width="2.0"/>
<line x1="327.0" y1="169.6" x2="318.6" y2="143.9" stroke="rgb(0,0,0)"  stroke-width="2.0"/>
<line x1="278.6" y1="143.9" x2="266.3" y2="182.0" stroke="rgb(0,0,0)"  stroke-width="2.0"/>
<line x1="266.3" y1="182.0" x2="298.6" y2="205.5" stroke="rgb(0,0,0)"  stroke-width="2.0"/>
<line x1="298.6" y1="205.5" x2="320.5" y2="189.6" stroke="rgb(0,0,0)"  stroke-width="2.0"/>
<text x="324.989697" y="189.965309" fill="rgb(12,12,255)"  stroke="rgb(12,12,255)" stroke-width="1" font-size="16" >N</text>
<text x="189.865397" y="138.814579" fill="rgb(255,12,12)"  stroke="rgb(255,12,12)" stroke-width="1" font-size="16" >O</text>
<text x="157.504717" y="202.325989" fill="rgb(12,12,255)"  stroke="rgb(12,12,255)" stroke-width="1" font-size="16" >N</text>
<text x="119.462457" y="189.965309" fill="rgb(191,191,191)"  stroke="rgb(191,191,191)" stroke-width="1" font-size="16" >H</text>
<text x="292.629017" y="253.476719" fill="rgb(255,12,12)"  stroke="rgb(255,12,12)" stroke-width="1" font-size="16" >O</text>
<text x="363.031958" y="202.325989" fill="rgb(191,191,191)"  stroke="rgb(191,191,191)" stroke-width="1" font-size="16" >H</text>
<text x="332.629017" y="48.000000" fill="rgb(191,191,191)"  stroke="rgb(191,191,191)" stroke-width="1" font-size="16" >H</text>
<text x="34.000000" y="426.724245" fill="rgb(191,191,191)"  stroke="rgb(191,191,191)" stroke-width="1" font-size="16" >H</text>
<text x="166.134863" y="380.833116" fill="rgb(178,178,0)"  stroke="rgb(178,178,0)" stroke-width="1" font-size="16" >S</text>
<text x="42.316468" y="387.598341" fill="rgb(191,191,191)"  stroke="rgb(191,191,191)" stroke-width="1" font-size="16" >H</text>
<text x="118.817413" y="549.812163" fill="rgb(191,191,191)"  stroke="rgb(191,191,191)" stroke-width="1" font-size="16" >H</text>
<text x="144.362068" y="483.266063" fill="rgb(178,178,0)"  stroke="rgb(178,178,0)" stroke-width="1" font-size="16" >S</text>
</svg>
</g>
<text font-size="18.000000" fill ="black" font-family="sans-serif"
x="10.000000" y="20.000000" ></text>
</svg>
