<?xml version="1.0"?>
<svg version="1.1" id="topsvg"
xmlns="http://www.w3.org/2000/svg" xmlns:xlink="http://www.w3.org/1999/xlink"
xmlns:cml="http://www.xml-cml.org/schema" x="0" y="0" width="200px" height="200px" viewBox="0 0 100 100">
<title> - Open Babel Depiction</title>
<rect x="0" y="0" width="100" height="100" fill="white"/>
<g transform="translate(0,0)">
<svg width="100" height="100" x="0" y="0" viewBox="0 0 390.31 541.592"
font-family="sans-serif" stroke="rgb(0,0,0)" stroke-width="2"  stroke-linecap="round">
<line x1="172.6" y1="280.7" x2="154.2" y2="312.5" stroke="rgb(0,0,0)"  stroke-width="2.0"/>
<line x1="82.6" y1="377.0" x2="60.0" y2="384.4" stroke="rgb(0,0,0)"  stroke-width="2.0"/>
<line x1="44.9" y1="401.1" x2="42.7" y2="411.6" stroke="rgb(0,0,0)"  stroke-width="2.0"/>
<line x1="82.6" y1="377.0" x2="212.0" y2="269.7" stroke="rgb(0,0,0)"  stroke-width="2.0"/>
<line x1="209.0" y1="261.4" x2="198.2" y2="261.4" stroke="rgb(0,0,0)"  stroke-width="2.0"/>
<line x1="121.8" y1="465.0" x2="124.3" y2="488.7" stroke="rgb(0,0,0)"  stroke-width="2.0"/>
<line x1="188.0" y1="160.3" x2="188.0" y2="136.5" stroke="rgb(0,0,0)"  stroke-width="2.0"/>
<line x1="194.0" y1="160.3" x2="194.0" y2="136.5" stroke="rgb(0,0,0)"  stroke-width="2.0"/>
<line x1="148.9" y1="177.9" x2="138.6" y2="174.6" stroke="rgb(0,0,0)"  stroke-width="2.0"/>
<line x1="219.9" y1="179.1" x2="254.9" y2="167.7" stroke="rgb(0,0,0)"  stroke-width="2.0"/>
<line x1="221.7" y1="184.8" x2="256.7" y2="173.4" stroke="rgb(0,0,0)"  stroke-width="2.0"/>
<line x1="288.5" y1="192.2" x2="288.5" y2="216.0" stroke="rgb(0,0,0)"  stroke-width="2.0"/>
<line x1="282.5" y1="192.2" x2="282.5" y2="216.0" stroke="rgb(0,0,0)"  stroke-width="2.0"/>
<line x1="327.7" y1="174.6" x2="337.9" y2="177.9" stroke="rgb(0,0,0)"  stroke-width="2.0"/>
<line x1="303.9" y1="71.9" x2="315.8" y2="51.3" stroke="rgb(0,0,0)"  stroke-width="2.0"/>
<line x1="110.0" y1="352.4" x2="141.9" y2="370.8" stroke="rgb(0,0,0)"  stroke-width="2.0"/>
<line x1="118.8" y1="349.1" x2="140.3" y2="361.5" stroke="rgb(0,0,0)"  stroke-width="2.0"/>
<line x1="141.9" y1="370.8" x2="159.5" y2="354.9" stroke="rgb(0,0,0)"  stroke-width="2.0"/>
<line x1="163.9" y1="334.3" x2="154.2" y2="312.5" stroke="rgb(0,0,0)"  stroke-width="2.0"/>
<line x1="154.2" y1="312.5" x2="117.6" y2="316.4" stroke="rgb(0,0,0)"  stroke-width="2.0"/>
<line x1="149.0" y1="320.3" x2="124.4" y2="322.9" stroke="rgb(0,0,0)"  stroke-width="2.0"/>
<line x1="117.6" y1="316.4" x2="110.0" y2="352.4" stroke="rgb(0,0,0)"  stroke-width="2.0"/>
<line x1="121.8" y1="465.0" x2="139.5" y2="449.1" stroke="rgb(0,0,0)"  stroke-width="2.0"/>
<line x1="143.9" y1="428.5" x2="134.2" y2="406.8" stroke="rgb(0,0,0)"  stroke-width="2.0"/>
<line x1="134.2" y1="406.8" x2="97.6" y2="410.6" stroke="rgb(0,0,0)"  stroke-width="2.0"/>
<line x1="129.0" y1="414.6" x2="104.3" y2="417.1" stroke="rgb(0,0,0)"  stroke-width="2.0"/>
<line x1="97.6" y1="410.6" x2="90.0" y2="446.6" stroke="rgb(0,0,0)"  stroke-width="2.0"/>
<line x1="90.0" y1="446.6" x2="121.8" y2="465.0" stroke="rgb(0,0,0)"  stroke-width="2.0"/>
<line x1="98.8" y1="443.4" x2="120.2" y2="455.8" stroke="rgb(0,0,0)"  stroke-width="2.0"/>
<line x1="227.8" y1="248.8" x2="209.4" y2="216.9" stroke="rgb(0,0,0)"  stroke-width="2.0"/>
<line x1="218.6" y1="247.2" x2="206.2" y2="225.7" stroke="rgb(0,0,0)"  stroke-width="2.0"/>
<line x1="209.4" y1="216.9" x2="172.6" y2="216.9" stroke="rgb(0,0,0)"  stroke-width="2.0"/>
<line x1="172.6" y1="216.9" x2="154.2" y2="248.8" stroke="rgb(0,0,0)"  stroke-width="2.0"/>
<line x1="175.9" y1="225.7" x2="163.5" y2="247.2" stroke="rgb(0,0,0)"  stroke-width="2.0"/>
<line x1="154.2" y1="248.8" x2="172.6" y2="280.7" stroke="rgb(0,0,0)"  stroke-width="2.0"/>
<line x1="172.6" y1="280.7" x2="209.4" y2="280.7" stroke="rgb(0,0,0)"  stroke-width="2.0"/>
<line x1="178.6" y1="273.5" x2="203.4" y2="273.5" stroke="rgb(0,0,0)"  stroke-width="2.0"/>
<line x1="209.4" y1="280.7" x2="227.8" y2="248.8" stroke="rgb(0,0,0)"  stroke-width="2.0"/>
<line x1="267.2" y1="71.9" x2="248.8" y2="103.7" stroke="rgb(0,0,0)"  stroke-width="2.0"/>
<line x1="248.8" y1="103.7" x2="267.2" y2="135.6" stroke="rgb(0,0,0)"  stroke-width="2.0"/>
<line x1="258.0" y1="105.3" x2="270.4" y2="126.8" stroke="rgb(0,0,0)"  stroke-width="2.0"/>
<line x1="267.2" y1="135.6" x2="303.9" y2="135.6" stroke="rgb(0,0,0)"  stroke-width="2.0"/>
<line x1="303.9" y1="135.6" x2="322.3" y2="103.7" stroke="rgb(0,0,0)"  stroke-width="2.0"/>
<line x1="300.7" y1="126.8" x2="313.1" y2="105.3" stroke="rgb(0,0,0)"  stroke-width="2.0"/>
<line x1="322.3" y1="103.7" x2="303.9" y2="71.9" stroke="rgb(0,0,0)"  stroke-width="2.0"/>
<line x1="303.9" y1="71.9" x2="267.2" y2="71.9" stroke="rgb(0,0,0)"  stroke-width="2.0"/>
<line x1="297.9" y1="79.1" x2="273.2" y2="79.1" stroke="rgb(0,0,0)"  stroke-width="2.0"/>
<line x1="134.2" y1="406.8" x2="141.9" y2="370.8" stroke="rgb(0,0,0)"  stroke-width="2.0"/>
<line x1="110.0" y1="352.4" x2="82.6" y2="377.0" stroke="rgb(0,0,0)"  stroke-width="2.0"/>
<line x1="82.6" y1="377.0" x2="97.6" y2="410.6" stroke="rgb(0,0,0)"  stroke-width="2.0"/>
<line x1="191.0" y1="160.3" x2="171.8" y2="174.3" stroke="rgb(0,0,0)"  stroke-width="2.0"/>
<line x1="165.3" y1="194.3" x2="172.6" y2="216.9" stroke="rgb(0,0,0)"  stroke-width="2.0"/>
<line x1="209.4" y1="216.9" x2="220.8" y2="182.0" stroke="rgb(0,0,0)"  stroke-width="2.0"/>
<line x1="220.8" y1="182.0" x2="191.0" y2="160.3" stroke="rgb(0,0,0)"  stroke-width="2.0"/>
<line x1="311.3" y1="158.2" x2="303.9" y2="135.6" stroke="rgb(0,0,0)"  stroke-width="2.0"/>
<line x1="267.2" y1="135.6" x2="255.8" y2="170.6" stroke="rgb(0,0,0)"  stroke-width="2.0"/>
<line x1="255.8" y1="170.6" x2="285.5" y2="192.2" stroke="rgb(0,0,0)"  stroke-width="2.0"/>
<line x1="285.5" y1="192.2" x2="304.8" y2="178.2" stroke="rgb(0,0,0)"  stroke-width="2.0"/>
<text x="279.549672" y="237.007658" fill="rgb(255,12,12)"  stroke="rgb(255,12,12)" stroke-width="1" font-size="16" >O</text>
<text x="185.022607" y="131.535745" fill="rgb(255,12,12)"  stroke="rgb(255,12,12)" stroke-width="1" font-size="16" >O</text>
<text x="155.255652" y="189.956685" fill="rgb(12,12,255)"  stroke="rgb(12,12,255)" stroke-width="1" font-size="16" >N</text>
<text x="120.262497" y="178.586719" fill="rgb(191,191,191)"  stroke="rgb(191,191,191)" stroke-width="1" font-size="16" >H</text>
<text x="309.316628" y="178.586719" fill="rgb(12,12,255)"  stroke="rgb(12,12,255)" stroke-width="1" font-size="16" >N</text>
<text x="344.309782" y="189.956685" fill="rgb(191,191,191)"  stroke="rgb(191,191,191)" stroke-width="1" font-size="16" >H</text>
<text x="316.343652" y="48.000000" fill="rgb(191,191,191)"  stroke="rgb(191,191,191)" stroke-width="1" font-size="16" >H</text>
<text x="14.000000" y="432.359252" fill="rgb(102,102,102)"  stroke="rgb(102,102,102)" stroke-width="1" font-size="16" >H</text>
<text x="26.000000" y="436.039252" fill="rgb(102,102,102)"  stroke="rgb(102,102,102)" stroke-width="1" font-size="13" >3</text>
<text x="32.500000" y="432.359252" fill="rgb(102,102,102)"  stroke="rgb(102,102,102)" stroke-width="1" font-size="16" >C</text>
<text x="163.194087" y="354.156377" fill="rgb(178,178,0)"  stroke="rgb(178,178,0)" stroke-width="1" font-size="16" >S</text>
<text x="41.649899" y="396.369309" fill="rgb(255,12,12)"  stroke="rgb(255,12,12)" stroke-width="1" font-size="16" >O</text>
<text x="215.969901" y="269.359745" fill="rgb(255,12,12)"  stroke="rgb(255,12,12)" stroke-width="1" font-size="16" >O</text>
<text x="159.175921" y="269.359745" fill="rgb(102,102,102)"  stroke="rgb(102,102,102)" stroke-width="1" font-size="16" >H</text>
<text x="171.175921" y="273.039745" fill="rgb(102,102,102)"  stroke="rgb(102,102,102)" stroke-width="1" font-size="13" >3</text>
<text x="177.675921" y="269.359745" fill="rgb(102,102,102)"  stroke="rgb(102,102,102)" stroke-width="1" font-size="16" >C</text>
<text x="119.669154" y="509.591670" fill="rgb(191,191,191)"  stroke="rgb(191,191,191)" stroke-width="1" font-size="16" >H</text>
<text x="143.166392" y="448.379273" fill="rgb(178,178,0)"  stroke="rgb(178,178,0)" stroke-width="1" font-size="16" >S</text>
</svg>
</g>
<text font-size="18.000000" fill ="black" font-family="sans-serif"
x="10.000000" y="20.000000" ></text>
</svg>
