<?xml version="1.0"?>
<svg version="1.1" id="topsvg"
xmlns="http://www.w3.org/2000/svg" xmlns:xlink="http://www.w3.org/1999/xlink"
xmlns:cml="http://www.xml-cml.org/schema" x="0" y="0" width="200px" height="200px" viewBox="0 0 100 100">
<title> - Open Babel Depiction</title>
<rect x="0" y="0" width="100" height="100" fill="white"/>
<g transform="translate(0,0)">
<svg width="100" height="100" x="0" y="0" viewBox="0 0 486.004 449.068"
font-family="sans-serif" stroke="rgb(0,0,0)" stroke-width="2"  stroke-linecap="round">
<line x1="210.7" y1="252.9" x2="244.8" y2="233.8" stroke="rgb(0,0,0)"  stroke-width="2.0"/>
<line x1="314.3" y1="158.7" x2="339.4" y2="84.6" stroke="rgb(0,0,0)"  stroke-width="2.0"/>
<line x1="337.2" y1="86.6" x2="320.0" y2="67.0" stroke="rgb(0,0,0)"  stroke-width="2.0"/>
<line x1="341.7" y1="82.7" x2="324.5" y2="63.0" stroke="rgb(0,0,0)"  stroke-width="2.0"/>
<line x1="339.4" y1="84.6" x2="365.0" y2="79.5" stroke="rgb(0,0,0)"  stroke-width="2.0"/>
<line x1="381.9" y1="64.7" x2="386.1" y2="52.3" stroke="rgb(0,0,0)"  stroke-width="2.0"/>
<line x1="314.3" y1="158.7" x2="288.5" y2="129.3" stroke="rgb(0,0,0)"  stroke-width="2.0"/>
<line x1="285.7" y1="128.3" x2="294.0" y2="103.6" stroke="rgb(0,0,0)"  stroke-width="2.0"/>
<line x1="291.3" y1="130.2" x2="299.7" y2="105.5" stroke="rgb(0,0,0)"  stroke-width="2.0"/>
<line x1="288.5" y1="129.3" x2="262.9" y2="134.3" stroke="rgb(0,0,0)"  stroke-width="2.0"/>
<line x1="246.0" y1="149.2" x2="241.8" y2="161.6" stroke="rgb(0,0,0)"  stroke-width="2.0"/>
<line x1="407.2" y1="201.5" x2="433.1" y2="204.6" stroke="rgb(0,0,0)"  stroke-width="2.0"/>
<line x1="177.1" y1="348.4" x2="199.6" y2="361.8" stroke="rgb(0,0,0)"  stroke-width="2.0"/>
<line x1="174.0" y1="353.5" x2="196.5" y2="367.0" stroke="rgb(0,0,0)"  stroke-width="2.0"/>
<line x1="141.3" y1="382.9" x2="141.2" y2="396.1" stroke="rgb(0,0,0)"  stroke-width="2.0"/>
<line x1="108.6" y1="352.7" x2="85.8" y2="365.6" stroke="rgb(0,0,0)"  stroke-width="2.0"/>
<line x1="105.7" y1="347.5" x2="82.9" y2="360.4" stroke="rgb(0,0,0)"  stroke-width="2.0"/>
<line x1="74.1" y1="290.2" x2="51.3" y2="303.2" stroke="rgb(0,0,0)"  stroke-width="2.0"/>
<line x1="107.7" y1="195.2" x2="85.1" y2="181.8" stroke="rgb(0,0,0)"  stroke-width="2.0"/>
<line x1="110.7" y1="190.0" x2="88.2" y2="176.7" stroke="rgb(0,0,0)"  stroke-width="2.0"/>
<line x1="143.7" y1="160.3" x2="143.8" y2="147.1" stroke="rgb(0,0,0)"  stroke-width="2.0"/>
<line x1="176.1" y1="190.9" x2="199.0" y2="178.1" stroke="rgb(0,0,0)"  stroke-width="2.0"/>
<line x1="179.1" y1="196.1" x2="201.9" y2="183.3" stroke="rgb(0,0,0)"  stroke-width="2.0"/>
<line x1="287.7" y1="187.4" x2="306.8" y2="221.5" stroke="rgb(0,0,0)"  stroke-width="2.0"/>
<line x1="284.4" y1="196.1" x2="297.6" y2="219.7" stroke="rgb(0,0,0)"  stroke-width="2.0"/>
<line x1="306.8" y1="221.5" x2="289.1" y2="240.6" stroke="rgb(0,0,0)"  stroke-width="2.0"/>
<line x1="268.5" y1="244.7" x2="244.8" y2="233.8" stroke="rgb(0,0,0)"  stroke-width="2.0"/>
<line x1="244.8" y1="233.8" x2="249.4" y2="195.0" stroke="rgb(0,0,0)"  stroke-width="2.0"/>
<line x1="252.6" y1="228.7" x2="255.8" y2="201.8" stroke="rgb(0,0,0)"  stroke-width="2.0"/>
<line x1="249.4" y1="195.0" x2="287.7" y2="187.4" stroke="rgb(0,0,0)"  stroke-width="2.0"/>
<line x1="407.2" y1="201.5" x2="389.5" y2="220.7" stroke="rgb(0,0,0)"  stroke-width="2.0"/>
<line x1="368.8" y1="224.8" x2="345.1" y2="213.8" stroke="rgb(0,0,0)"  stroke-width="2.0"/>
<line x1="345.1" y1="213.8" x2="349.8" y2="175.0" stroke="rgb(0,0,0)"  stroke-width="2.0"/>
<line x1="353.0" y1="208.7" x2="356.2" y2="181.8" stroke="rgb(0,0,0)"  stroke-width="2.0"/>
<line x1="349.8" y1="175.0" x2="388.1" y2="167.4" stroke="rgb(0,0,0)"  stroke-width="2.0"/>
<line x1="388.1" y1="167.4" x2="407.2" y2="201.5" stroke="rgb(0,0,0)"  stroke-width="2.0"/>
<line x1="384.7" y1="176.2" x2="398.0" y2="199.8" stroke="rgb(0,0,0)"  stroke-width="2.0"/>
<line x1="176.0" y1="311.6" x2="142.0" y2="291.1" stroke="rgb(0,0,0)"  stroke-width="2.0"/>
<line x1="174.6" y1="302.3" x2="150.8" y2="288.1" stroke="rgb(0,0,0)"  stroke-width="2.0"/>
<line x1="142.0" y1="291.1" x2="142.5" y2="252.0" stroke="rgb(0,0,0)"  stroke-width="2.0"/>
<line x1="142.5" y1="252.0" x2="177.1" y2="232.9" stroke="rgb(0,0,0)"  stroke-width="2.0"/>
<line x1="151.2" y1="255.4" x2="175.3" y2="242.1" stroke="rgb(0,0,0)"  stroke-width="2.0"/>
<line x1="177.1" y1="232.9" x2="210.7" y2="252.9" stroke="rgb(0,0,0)"  stroke-width="2.0"/>
<line x1="210.7" y1="252.9" x2="210.1" y2="292.0" stroke="rgb(0,0,0)"  stroke-width="2.0"/>
<line x1="203.4" y1="258.8" x2="203.0" y2="285.9" stroke="rgb(0,0,0)"  stroke-width="2.0"/>
<line x1="210.1" y1="292.0" x2="176.0" y2="311.6" stroke="rgb(0,0,0)"  stroke-width="2.0"/>
<line x1="107.1" y1="350.1" x2="107.7" y2="310.7" stroke="rgb(0,0,0)"  stroke-width="2.0"/>
<line x1="107.7" y1="310.7" x2="142.0" y2="291.1" stroke="rgb(0,0,0)"  stroke-width="2.0"/>
<line x1="176.0" y1="311.6" x2="175.5" y2="351.0" stroke="rgb(0,0,0)"  stroke-width="2.0"/>
<line x1="175.5" y1="351.0" x2="152.8" y2="363.6" stroke="rgb(0,0,0)"  stroke-width="2.0"/>
<line x1="130.2" y1="363.4" x2="107.1" y2="350.1" stroke="rgb(0,0,0)"  stroke-width="2.0"/>
<line x1="74.6" y1="251.1" x2="108.7" y2="232.0" stroke="rgb(0,0,0)"  stroke-width="2.0"/>
<line x1="83.3" y1="254.4" x2="107.0" y2="241.2" stroke="rgb(0,0,0)"  stroke-width="2.0"/>
<line x1="108.7" y1="232.0" x2="142.5" y2="252.0" stroke="rgb(0,0,0)"  stroke-width="2.0"/>
<line x1="107.7" y1="310.7" x2="74.1" y2="290.2" stroke="rgb(0,0,0)"  stroke-width="2.0"/>
<line x1="106.3" y1="301.4" x2="82.9" y2="287.2" stroke="rgb(0,0,0)"  stroke-width="2.0"/>
<line x1="74.1" y1="290.2" x2="74.6" y2="251.1" stroke="rgb(0,0,0)"  stroke-width="2.0"/>
<line x1="154.7" y1="179.9" x2="177.6" y2="193.5" stroke="rgb(0,0,0)"  stroke-width="2.0"/>
<line x1="177.6" y1="193.5" x2="177.1" y2="232.9" stroke="rgb(0,0,0)"  stroke-width="2.0"/>
<line x1="108.7" y1="232.0" x2="109.2" y2="192.6" stroke="rgb(0,0,0)"  stroke-width="2.0"/>
<line x1="109.2" y1="192.6" x2="132.2" y2="179.6" stroke="rgb(0,0,0)"  stroke-width="2.0"/>
<line x1="345.1" y1="213.8" x2="306.8" y2="221.5" stroke="rgb(0,0,0)"  stroke-width="2.0"/>
<line x1="287.7" y1="187.4" x2="314.3" y2="158.7" stroke="rgb(0,0,0)"  stroke-width="2.0"/>
<line x1="314.3" y1="158.7" x2="349.8" y2="175.0" stroke="rgb(0,0,0)"  stroke-width="2.0"/>
<text x="203.174888" y="379.076301" fill="rgb(255,12,12)"  stroke="rgb(255,12,12)" stroke-width="1" font-size="16" >O</text>
<text x="135.434064" y="377.867561" fill="rgb(12,12,255)"  stroke="rgb(12,12,255)" stroke-width="1" font-size="16" >N</text>
<text x="115.095397" y="417.068324" fill="rgb(102,102,102)"  stroke="rgb(102,102,102)" stroke-width="1" font-size="16" >H</text>
<text x="127.095397" y="420.748324" fill="rgb(102,102,102)"  stroke="rgb(102,102,102)" stroke-width="1" font-size="13" >3</text>
<text x="133.595397" y="417.068324" fill="rgb(102,102,102)"  stroke="rgb(102,102,102)" stroke-width="1" font-size="16" >C</text>
<text x="67.062589" y="377.446686" fill="rgb(255,12,12)"  stroke="rgb(255,12,12)" stroke-width="1" font-size="16" >O</text>
<text x="34.000000" y="317.623579" fill="rgb(191,191,191)"  stroke="rgb(191,191,191)" stroke-width="1" font-size="16" >H</text>
<text x="69.480294" y="180.614657" fill="rgb(255,12,12)"  stroke="rgb(255,12,12)" stroke-width="1" font-size="16" >O</text>
<text x="137.533076" y="181.256519" fill="rgb(12,12,255)"  stroke="rgb(12,12,255)" stroke-width="1" font-size="16" >N</text>
<text x="139.987011" y="142.056921" fill="rgb(102,102,102)"  stroke="rgb(102,102,102)" stroke-width="1" font-size="16" >CH</text>
<text x="163.987011" y="145.736921" fill="rgb(102,102,102)"  stroke="rgb(102,102,102)" stroke-width="1" font-size="13" >3</text>
<text x="205.786694" y="182.346252" fill="rgb(255,12,12)"  stroke="rgb(255,12,12)" stroke-width="1" font-size="16" >O</text>
<text x="371.750634" y="85.012773" fill="rgb(255,12,12)"  stroke="rgb(255,12,12)" stroke-width="1" font-size="16" >O</text>
<text x="274.261255" y="258.161229" fill="rgb(178,178,0)"  stroke="rgb(178,178,0)" stroke-width="1" font-size="16" >S</text>
<text x="307.642631" y="63.230556" fill="rgb(255,12,12)"  stroke="rgb(255,12,12)" stroke-width="1" font-size="16" >O</text>
<text x="386.326603" y="48.000000" fill="rgb(102,102,102)"  stroke="rgb(102,102,102)" stroke-width="1" font-size="16" >CH</text>
<text x="410.326603" y="51.680000" fill="rgb(102,102,102)"  stroke="rgb(102,102,102)" stroke-width="1" font-size="13" >3</text>
<text x="295.066662" y="100.243329" fill="rgb(255,12,12)"  stroke="rgb(255,12,12)" stroke-width="1" font-size="16" >O</text>
<text x="244.148708" y="144.871380" fill="rgb(255,12,12)"  stroke="rgb(255,12,12)" stroke-width="1" font-size="16" >O</text>
<text x="211.572739" y="181.884153" fill="rgb(102,102,102)"  stroke="rgb(102,102,102)" stroke-width="1" font-size="16" >H</text>
<text x="223.572739" y="185.564153" fill="rgb(102,102,102)"  stroke="rgb(102,102,102)" stroke-width="1" font-size="13" >3</text>
<text x="230.072739" y="181.884153" fill="rgb(102,102,102)"  stroke="rgb(102,102,102)" stroke-width="1" font-size="16" >C</text>
<text x="440.003694" y="214.132194" fill="rgb(191,191,191)"  stroke="rgb(191,191,191)" stroke-width="1" font-size="16" >H</text>
<text x="374.641878" y="238.224172" fill="rgb(178,178,0)"  stroke="rgb(178,178,0)" stroke-width="1" font-size="16" >S</text>
</svg>
</g>
<text font-size="18.000000" fill ="black" font-family="sans-serif"
x="10.000000" y="20.000000" ></text>
</svg>
