<?xml version="1.0"?>
<svg version="1.1" id="topsvg"
xmlns="http://www.w3.org/2000/svg" xmlns:xlink="http://www.w3.org/1999/xlink"
xmlns:cml="http://www.xml-cml.org/schema" x="0" y="0" width="200px" height="200px" viewBox="0 0 100 100">
<title> - Open Babel Depiction</title>
<rect x="0" y="0" width="100" height="100" fill="white"/>
<g transform="translate(0,0)">
<svg width="100" height="100" x="0" y="0" viewBox="0 0 429.388 400.942"
font-family="sans-serif" stroke="rgb(0,0,0)" stroke-width="2"  stroke-linecap="round">
<line x1="230.4" y1="136.4" x2="211.7" y2="168.8" stroke="rgb(0,0,0)"  stroke-width="2.0"/>
<line x1="138.9" y1="234.3" x2="103.4" y2="245.9" stroke="rgb(0,0,0)"  stroke-width="2.0"/>
<line x1="106.3" y1="246.5" x2="101.2" y2="270.3" stroke="rgb(0,0,0)"  stroke-width="2.0"/>
<line x1="100.4" y1="245.2" x2="95.4" y2="269.1" stroke="rgb(0,0,0)"  stroke-width="2.0"/>
<line x1="103.4" y1="245.9" x2="85.2" y2="229.5" stroke="rgb(0,0,0)"  stroke-width="2.0"/>
<line x1="63.2" y1="224.8" x2="52.4" y2="228.4" stroke="rgb(0,0,0)"  stroke-width="2.0"/>
<line x1="138.9" y1="234.3" x2="267.6" y2="182.2" stroke="rgb(0,0,0)"  stroke-width="2.0"/>
<line x1="266.1" y1="179.6" x2="287.2" y2="167.4" stroke="rgb(0,0,0)"  stroke-width="2.0"/>
<line x1="269.1" y1="184.8" x2="290.2" y2="172.6" stroke="rgb(0,0,0)"  stroke-width="2.0"/>
<line x1="267.6" y1="182.2" x2="246.4" y2="170.0" stroke="rgb(0,0,0)"  stroke-width="2.0"/>
<line x1="223.9" y1="170.0" x2="214.1" y2="175.7" stroke="rgb(0,0,0)"  stroke-width="2.0"/>
<line x1="178.8" y1="323.7" x2="181.3" y2="348.0" stroke="rgb(0,0,0)"  stroke-width="2.0"/>
<line x1="303.0" y1="150.9" x2="305.5" y2="175.1" stroke="rgb(0,0,0)"  stroke-width="2.0"/>
<line x1="297.0" y1="151.5" x2="299.6" y2="175.8" stroke="rgb(0,0,0)"  stroke-width="2.0"/>
<line x1="340.5" y1="128.9" x2="351.6" y2="131.2" stroke="rgb(0,0,0)"  stroke-width="2.0"/>
<line x1="373.1" y1="124.3" x2="380.7" y2="115.8" stroke="rgb(0,0,0)"  stroke-width="2.0"/>
<line x1="312.6" y1="92.0" x2="324.8" y2="70.9" stroke="rgb(0,0,0)"  stroke-width="2.0"/>
<line x1="240.0" y1="77.5" x2="237.4" y2="53.2" stroke="rgb(0,0,0)"  stroke-width="2.0"/>
<line x1="246.0" y1="76.9" x2="243.4" y2="52.6" stroke="rgb(0,0,0)"  stroke-width="2.0"/>
<line x1="202.5" y1="99.5" x2="191.3" y2="97.1" stroke="rgb(0,0,0)"  stroke-width="2.0"/>
<line x1="174.6" y1="82.1" x2="171.1" y2="71.2" stroke="rgb(0,0,0)"  stroke-width="2.0"/>
<line x1="166.7" y1="209.3" x2="199.1" y2="228.0" stroke="rgb(0,0,0)"  stroke-width="2.0"/>
<line x1="175.5" y1="206.0" x2="197.5" y2="218.7" stroke="rgb(0,0,0)"  stroke-width="2.0"/>
<line x1="199.1" y1="228.0" x2="217.3" y2="211.6" stroke="rgb(0,0,0)"  stroke-width="2.0"/>
<line x1="221.6" y1="191.1" x2="211.7" y2="168.8" stroke="rgb(0,0,0)"  stroke-width="2.0"/>
<line x1="211.7" y1="168.8" x2="174.5" y2="172.7" stroke="rgb(0,0,0)"  stroke-width="2.0"/>
<line x1="206.5" y1="176.6" x2="181.2" y2="179.2" stroke="rgb(0,0,0)"  stroke-width="2.0"/>
<line x1="174.5" y1="172.7" x2="166.7" y2="209.3" stroke="rgb(0,0,0)"  stroke-width="2.0"/>
<line x1="178.8" y1="323.7" x2="196.9" y2="307.4" stroke="rgb(0,0,0)"  stroke-width="2.0"/>
<line x1="201.3" y1="286.8" x2="191.3" y2="264.6" stroke="rgb(0,0,0)"  stroke-width="2.0"/>
<line x1="191.3" y1="264.6" x2="154.1" y2="268.5" stroke="rgb(0,0,0)"  stroke-width="2.0"/>
<line x1="186.1" y1="272.3" x2="160.9" y2="275.0" stroke="rgb(0,0,0)"  stroke-width="2.0"/>
<line x1="154.1" y1="268.5" x2="146.4" y2="305.0" stroke="rgb(0,0,0)"  stroke-width="2.0"/>
<line x1="146.4" y1="305.0" x2="178.8" y2="323.7" stroke="rgb(0,0,0)"  stroke-width="2.0"/>
<line x1="155.2" y1="301.8" x2="177.2" y2="314.5" stroke="rgb(0,0,0)"  stroke-width="2.0"/>
<line x1="300.0" y1="151.2" x2="318.1" y2="134.9" stroke="rgb(0,0,0)"  stroke-width="2.0"/>
<line x1="322.5" y1="114.3" x2="312.6" y2="92.0" stroke="rgb(0,0,0)"  stroke-width="2.0"/>
<line x1="312.6" y1="92.0" x2="275.4" y2="95.9" stroke="rgb(0,0,0)"  stroke-width="2.0"/>
<line x1="307.4" y1="99.8" x2="282.1" y2="102.4" stroke="rgb(0,0,0)"  stroke-width="2.0"/>
<line x1="275.4" y1="95.9" x2="267.6" y2="132.5" stroke="rgb(0,0,0)"  stroke-width="2.0"/>
<line x1="267.6" y1="132.5" x2="300.0" y2="151.2" stroke="rgb(0,0,0)"  stroke-width="2.0"/>
<line x1="275.4" y1="95.9" x2="243.0" y2="77.2" stroke="rgb(0,0,0)"  stroke-width="2.0"/>
<line x1="243.0" y1="77.2" x2="224.8" y2="93.5" stroke="rgb(0,0,0)"  stroke-width="2.0"/>
<line x1="220.5" y1="114.1" x2="230.4" y2="136.4" stroke="rgb(0,0,0)"  stroke-width="2.0"/>
<line x1="230.4" y1="136.4" x2="267.6" y2="132.5" stroke="rgb(0,0,0)"  stroke-width="2.0"/>
<line x1="235.6" y1="128.6" x2="260.9" y2="125.9" stroke="rgb(0,0,0)"  stroke-width="2.0"/>
<line x1="191.3" y1="264.6" x2="199.1" y2="228.0" stroke="rgb(0,0,0)"  stroke-width="2.0"/>
<line x1="166.7" y1="209.3" x2="138.9" y2="234.3" stroke="rgb(0,0,0)"  stroke-width="2.0"/>
<line x1="138.9" y1="234.3" x2="154.1" y2="268.5" stroke="rgb(0,0,0)"  stroke-width="2.0"/>
<text x="385.387785" y="114.135434" fill="rgb(102,102,102)"  stroke="rgb(102,102,102)" stroke-width="1" font-size="16" >CH</text>
<text x="409.387785" y="117.815434" fill="rgb(102,102,102)"  stroke="rgb(102,102,102)" stroke-width="1" font-size="13" >3</text>
<text x="176.669134" y="368.942437" fill="rgb(191,191,191)"  stroke="rgb(191,191,191)" stroke-width="1" font-size="16" >H</text>
<text x="200.553674" y="306.721082" fill="rgb(178,178,0)"  stroke="rgb(178,178,0)" stroke-width="1" font-size="16" >S</text>
<text x="297.894296" y="196.374749" fill="rgb(255,12,12)"  stroke="rgb(255,12,12)" stroke-width="1" font-size="16" >O</text>
<text x="321.778836" y="134.153395" fill="rgb(12,12,255)"  stroke="rgb(12,12,255)" stroke-width="1" font-size="16" >N</text>
<text x="358.361998" y="141.929386" fill="rgb(255,12,12)"  stroke="rgb(255,12,12)" stroke-width="1" font-size="16" >O</text>
<text x="325.266928" y="67.596641" fill="rgb(191,191,191)"  stroke="rgb(191,191,191)" stroke-width="1" font-size="16" >H</text>
<text x="233.071981" y="48.000000" fill="rgb(255,12,12)"  stroke="rgb(255,12,12)" stroke-width="1" font-size="16" >O</text>
<text x="209.187441" y="110.221355" fill="rgb(12,12,255)"  stroke="rgb(12,12,255)" stroke-width="1" font-size="16" >N</text>
<text x="172.604279" y="102.445364" fill="rgb(255,12,12)"  stroke="rgb(255,12,12)" stroke-width="1" font-size="16" >O</text>
<text x="141.046904" y="66.875420" fill="rgb(102,102,102)"  stroke="rgb(102,102,102)" stroke-width="1" font-size="16" >H</text>
<text x="153.046904" y="70.555420" fill="rgb(102,102,102)"  stroke="rgb(102,102,102)" stroke-width="1" font-size="13" >3</text>
<text x="159.546904" y="66.875420" fill="rgb(102,102,102)"  stroke="rgb(102,102,102)" stroke-width="1" font-size="16" >C</text>
<text x="220.911483" y="210.945121" fill="rgb(178,178,0)"  stroke="rgb(178,178,0)" stroke-width="1" font-size="16" >S</text>
<text x="89.587904" y="290.437006" fill="rgb(255,12,12)"  stroke="rgb(255,12,12)" stroke-width="1" font-size="16" >O</text>
<text x="69.569943" y="228.828057" fill="rgb(255,12,12)"  stroke="rgb(255,12,12)" stroke-width="1" font-size="16" >O</text>
<text x="14.000000" y="240.385432" fill="rgb(102,102,102)"  stroke="rgb(102,102,102)" stroke-width="1" font-size="16" >H</text>
<text x="26.000000" y="244.065432" fill="rgb(102,102,102)"  stroke="rgb(102,102,102)" stroke-width="1" font-size="13" >3</text>
<text x="32.500000" y="240.385432" fill="rgb(102,102,102)"  stroke="rgb(102,102,102)" stroke-width="1" font-size="16" >C</text>
<text x="293.965405" y="171.519778" fill="rgb(255,12,12)"  stroke="rgb(255,12,12)" stroke-width="1" font-size="16" >O</text>
<text x="229.185922" y="171.519778" fill="rgb(255,12,12)"  stroke="rgb(255,12,12)" stroke-width="1" font-size="16" >O</text>
<text x="176.796181" y="190.220004" fill="rgb(102,102,102)"  stroke="rgb(102,102,102)" stroke-width="1" font-size="16" >H</text>
<text x="188.796181" y="193.900004" fill="rgb(102,102,102)"  stroke="rgb(102,102,102)" stroke-width="1" font-size="13" >3</text>
<text x="195.296181" y="190.220004" fill="rgb(102,102,102)"  stroke="rgb(102,102,102)" stroke-width="1" font-size="16" >C</text>
</svg>
</g>
<text font-size="18.000000" fill ="black" font-family="sans-serif"
x="10.000000" y="20.000000" ></text>
</svg>
