<?xml version="1.0"?>
<svg version="1.1" id="topsvg"
xmlns="http://www.w3.org/2000/svg" xmlns:xlink="http://www.w3.org/1999/xlink"
xmlns:cml="http://www.xml-cml.org/schema" x="0" y="0" width="200px" height="200px" viewBox="0 0 100 100">
<title> - Open Babel Depiction</title>
<rect x="0" y="0" width="100" height="100" fill="white"/>
<g transform="translate(0,0)">
<svg width="100" height="100" x="0" y="0" viewBox="0 0 395.356 498.237"
font-family="sans-serif" stroke="rgb(0,0,0)" stroke-width="2"  stroke-linecap="round">
<line x1="187.8" y1="211.5" x2="166.9" y2="247.7" stroke="rgb(0,0,0)"  stroke-width="2.0"/>
<line x1="125.2" y1="252.1" x2="105.9" y2="230.7" stroke="rgb(0,0,0)"  stroke-width="2.0"/>
<line x1="116.5" y1="293.1" x2="78.3" y2="310.1" stroke="rgb(0,0,0)"  stroke-width="2.0"/>
<line x1="78.3" y1="310.1" x2="51.9" y2="321.9" stroke="rgb(0,0,0)"  stroke-width="2.0"/>
<line x1="80.0" y1="314.0" x2="53.6" y2="325.7" stroke="rgb(0,0,0)"  stroke-width="2.0"/>
<line x1="76.6" y1="306.3" x2="50.2" y2="318.0" stroke="rgb(0,0,0)"  stroke-width="2.0"/>
<line x1="152.8" y1="314.0" x2="157.2" y2="355.7" stroke="rgb(0,0,0)"  stroke-width="2.0"/>
<line x1="143.1" y1="422.0" x2="128.6" y2="447.0" stroke="rgb(0,0,0)"  stroke-width="2.0"/>
<line x1="184.7" y1="417.6" x2="204.1" y2="439.1" stroke="rgb(0,0,0)"  stroke-width="2.0"/>
<line x1="193.4" y1="376.6" x2="231.7" y2="359.6" stroke="rgb(0,0,0)"  stroke-width="2.0"/>
<line x1="231.7" y1="359.6" x2="258.1" y2="347.8" stroke="rgb(0,0,0)"  stroke-width="2.0"/>
<line x1="230.0" y1="355.7" x2="256.4" y2="344.0" stroke="rgb(0,0,0)"  stroke-width="2.0"/>
<line x1="233.4" y1="363.4" x2="259.8" y2="351.7" stroke="rgb(0,0,0)"  stroke-width="2.0"/>
<line x1="295.1" y1="173.7" x2="309.6" y2="198.7" stroke="rgb(0,0,0)"  stroke-width="2.0"/>
<line x1="289.9" y1="176.7" x2="304.4" y2="201.7" stroke="rgb(0,0,0)"  stroke-width="2.0"/>
<line x1="326.5" y1="138.9" x2="342.4" y2="138.9" stroke="rgb(0,0,0)"  stroke-width="2.0"/>
<line x1="289.9" y1="101.2" x2="304.4" y2="76.1" stroke="rgb(0,0,0)"  stroke-width="2.0"/>
<line x1="295.1" y1="104.2" x2="309.6" y2="79.1" stroke="rgb(0,0,0)"  stroke-width="2.0"/>
<line x1="228.7" y1="79.0" x2="239.2" y2="52.1" stroke="rgb(0,0,0)"  stroke-width="2.0"/>
<line x1="145.4" y1="111.2" x2="131.5" y2="85.9" stroke="rgb(0,0,0)"  stroke-width="2.0"/>
<line x1="150.7" y1="108.3" x2="136.7" y2="83.0" stroke="rgb(0,0,0)"  stroke-width="2.0"/>
<line x1="117.7" y1="132.3" x2="102.0" y2="129.6" stroke="rgb(0,0,0)"  stroke-width="2.0"/>
<line x1="140.9" y1="165.8" x2="119.3" y2="185.1" stroke="rgb(0,0,0)"  stroke-width="2.0"/>
<line x1="136.9" y1="161.4" x2="115.4" y2="180.6" stroke="rgb(0,0,0)"  stroke-width="2.0"/>
<line x1="116.5" y1="293.1" x2="152.8" y2="314.0" stroke="rgb(0,0,0)"  stroke-width="2.0"/>
<line x1="125.3" y1="289.8" x2="151.2" y2="304.8" stroke="rgb(0,0,0)"  stroke-width="2.0"/>
<line x1="152.8" y1="314.0" x2="174.3" y2="294.7" stroke="rgb(0,0,0)"  stroke-width="2.0"/>
<line x1="178.6" y1="274.1" x2="166.9" y2="247.7" stroke="rgb(0,0,0)"  stroke-width="2.0"/>
<line x1="166.9" y1="247.7" x2="125.2" y2="252.1" stroke="rgb(0,0,0)"  stroke-width="2.0"/>
<line x1="161.7" y1="255.5" x2="132.0" y2="258.7" stroke="rgb(0,0,0)"  stroke-width="2.0"/>
<line x1="125.2" y1="252.1" x2="116.5" y2="293.1" stroke="rgb(0,0,0)"  stroke-width="2.0"/>
<line x1="143.1" y1="422.0" x2="184.7" y2="417.6" stroke="rgb(0,0,0)"  stroke-width="2.0"/>
<line x1="148.3" y1="414.2" x2="178.0" y2="411.1" stroke="rgb(0,0,0)"  stroke-width="2.0"/>
<line x1="184.7" y1="417.6" x2="193.4" y2="376.6" stroke="rgb(0,0,0)"  stroke-width="2.0"/>
<line x1="193.4" y1="376.6" x2="157.2" y2="355.7" stroke="rgb(0,0,0)"  stroke-width="2.0"/>
<line x1="184.6" y1="379.9" x2="158.8" y2="364.9" stroke="rgb(0,0,0)"  stroke-width="2.0"/>
<line x1="157.2" y1="355.7" x2="135.7" y2="375.0" stroke="rgb(0,0,0)"  stroke-width="2.0"/>
<line x1="131.3" y1="395.6" x2="143.1" y2="422.0" stroke="rgb(0,0,0)"  stroke-width="2.0"/>
<line x1="250.6" y1="175.2" x2="229.7" y2="138.9" stroke="rgb(0,0,0)"  stroke-width="2.0"/>
<line x1="241.4" y1="173.6" x2="226.5" y2="147.7" stroke="rgb(0,0,0)"  stroke-width="2.0"/>
<line x1="229.7" y1="138.9" x2="187.8" y2="138.9" stroke="rgb(0,0,0)"  stroke-width="2.0"/>
<line x1="187.8" y1="138.9" x2="166.9" y2="175.2" stroke="rgb(0,0,0)"  stroke-width="2.0"/>
<line x1="191.1" y1="147.7" x2="176.1" y2="173.6" stroke="rgb(0,0,0)"  stroke-width="2.0"/>
<line x1="166.9" y1="175.2" x2="187.8" y2="211.5" stroke="rgb(0,0,0)"  stroke-width="2.0"/>
<line x1="187.8" y1="211.5" x2="229.7" y2="211.5" stroke="rgb(0,0,0)"  stroke-width="2.0"/>
<line x1="193.8" y1="204.3" x2="223.7" y2="204.3" stroke="rgb(0,0,0)"  stroke-width="2.0"/>
<line x1="229.7" y1="211.5" x2="250.6" y2="175.2" stroke="rgb(0,0,0)"  stroke-width="2.0"/>
<line x1="292.5" y1="102.7" x2="250.6" y2="102.7" stroke="rgb(0,0,0)"  stroke-width="2.0"/>
<line x1="250.6" y1="102.7" x2="229.7" y2="138.9" stroke="rgb(0,0,0)"  stroke-width="2.0"/>
<line x1="250.6" y1="175.2" x2="292.5" y2="175.2" stroke="rgb(0,0,0)"  stroke-width="2.0"/>
<line x1="292.5" y1="175.2" x2="307.0" y2="150.2" stroke="rgb(0,0,0)"  stroke-width="2.0"/>
<line x1="307.0" y1="127.7" x2="292.5" y2="102.7" stroke="rgb(0,0,0)"  stroke-width="2.0"/>
<line x1="196.5" y1="81.4" x2="178.3" y2="108.1" stroke="rgb(0,0,0)"  stroke-width="2.0"/>
<line x1="199.1" y1="90.4" x2="187.6" y2="107.2" stroke="rgb(0,0,0)"  stroke-width="2.0"/>
<line x1="178.3" y1="108.1" x2="187.8" y2="138.9" stroke="rgb(0,0,0)"  stroke-width="2.0"/>
<line x1="250.6" y1="102.7" x2="228.7" y2="79.0" stroke="rgb(0,0,0)"  stroke-width="2.0"/>
<line x1="241.3" y1="103.2" x2="227.5" y2="88.3" stroke="rgb(0,0,0)"  stroke-width="2.0"/>
<line x1="228.7" y1="79.0" x2="196.5" y2="81.4" stroke="rgb(0,0,0)"  stroke-width="2.0"/>
<line x1="134.1" y1="147.0" x2="138.9" y2="163.6" stroke="rgb(0,0,0)"  stroke-width="2.0"/>
<line x1="138.9" y1="163.6" x2="166.9" y2="175.2" stroke="rgb(0,0,0)"  stroke-width="2.0"/>
<line x1="178.3" y1="108.1" x2="148.1" y2="109.8" stroke="rgb(0,0,0)"  stroke-width="2.0"/>
<line x1="148.1" y1="109.8" x2="138.0" y2="123.9" stroke="rgb(0,0,0)"  stroke-width="2.0"/>
<text x="307.473316" y="219.467779" fill="rgb(255,12,12)"  stroke="rgb(255,12,12)" stroke-width="1" font-size="16" >O</text>
<text x="307.473316" y="146.925027" fill="rgb(12,12,255)"  stroke="rgb(12,12,255)" stroke-width="1" font-size="16" >N</text>
<text x="349.355894" y="146.925027" fill="rgb(191,191,191)"  stroke="rgb(191,191,191)" stroke-width="1" font-size="16" >H</text>
<text x="307.473316" y="74.382274" fill="rgb(255,12,12)"  stroke="rgb(255,12,12)" stroke-width="1" font-size="16" >O</text>
<text x="237.991795" y="48.000000" fill="rgb(191,191,191)"  stroke="rgb(191,191,191)" stroke-width="1" font-size="16" >H</text>
<text x="121.806765" y="81.101959" fill="rgb(255,12,12)"  stroke="rgb(255,12,12)" stroke-width="1" font-size="16" >O</text>
<text x="124.512990" y="142.472187" fill="rgb(12,12,255)"  stroke="rgb(12,12,255)" stroke-width="1" font-size="16" >N</text>
<text x="83.224288" y="135.444144" fill="rgb(191,191,191)"  stroke="rgb(191,191,191)" stroke-width="1" font-size="16" >H</text>
<text x="101.654939" y="199.490938" fill="rgb(255,12,12)"  stroke="rgb(255,12,12)" stroke-width="1" font-size="16" >O</text>
<text x="120.047754" y="391.703763" fill="rgb(178,178,0)"  stroke="rgb(178,178,0)" stroke-width="1" font-size="16" >S</text>
<text x="79.206240" y="228.992256" fill="rgb(255,12,12)"  stroke="rgb(255,12,12)" stroke-width="1" font-size="16" >HO</text>
<text x="34.000000" y="335.154777" fill="rgb(12,12,255)"  stroke="rgb(12,12,255)" stroke-width="1" font-size="16" >N</text>
<text x="177.919474" y="294.000793" fill="rgb(178,178,0)"  stroke="rgb(178,178,0)" stroke-width="1" font-size="16" >S</text>
<text x="116.141644" y="466.236777" fill="rgb(191,191,191)"  stroke="rgb(191,191,191)" stroke-width="1" font-size="16" >H</text>
<text x="206.760988" y="456.712300" fill="rgb(255,12,12)"  stroke="rgb(255,12,12)" stroke-width="1" font-size="16" >OH</text>
<text x="263.967227" y="350.549779" fill="rgb(12,12,255)"  stroke="rgb(12,12,255)" stroke-width="1" font-size="16" >N</text>
</svg>
</g>
<text font-size="18.000000" fill ="black" font-family="sans-serif"
x="10.000000" y="20.000000" ></text>
</svg>
