<?xml version="1.0"?>
<svg version="1.1" id="topsvg"
xmlns="http://www.w3.org/2000/svg" xmlns:xlink="http://www.w3.org/1999/xlink"
xmlns:cml="http://www.xml-cml.org/schema" x="0" y="0" width="200px" height="200px" viewBox="0 0 100 100">
<title> - Open Babel Depiction</title>
<rect x="0" y="0" width="100" height="100" fill="white"/>
<g transform="translate(0,0)">
<svg width="100" height="100" x="0" y="0" viewBox="0 0 634.907 268.319"
font-family="sans-serif" stroke="rgb(0,0,0)" stroke-width="2"  stroke-linecap="round">
<line x1="245.5" y1="157.9" x2="283.6" y2="145.6" stroke="rgb(0,0,0)"  stroke-width="2.0"/>
<line x1="295.9" y1="107.5" x2="272.4" y2="75.2" stroke="rgb(0,0,0)"  stroke-width="2.0"/>
<line x1="272.4" y1="75.2" x2="256.5" y2="53.3" stroke="rgb(0,0,0)"  stroke-width="2.0"/>
<line x1="269.0" y1="77.6" x2="253.2" y2="55.8" stroke="rgb(0,0,0)"  stroke-width="2.0"/>
<line x1="275.8" y1="72.7" x2="259.9" y2="50.8" stroke="rgb(0,0,0)"  stroke-width="2.0"/>
<line x1="335.9" y1="107.5" x2="359.4" y2="75.2" stroke="rgb(0,0,0)"  stroke-width="2.0"/>
<line x1="359.4" y1="75.2" x2="375.3" y2="53.3" stroke="rgb(0,0,0)"  stroke-width="2.0"/>
<line x1="356.0" y1="72.7" x2="371.9" y2="50.8" stroke="rgb(0,0,0)"  stroke-width="2.0"/>
<line x1="362.8" y1="77.6" x2="378.7" y2="55.8" stroke="rgb(0,0,0)"  stroke-width="2.0"/>
<line x1="348.3" y1="145.6" x2="386.3" y2="157.9" stroke="rgb(0,0,0)"  stroke-width="2.0"/>
<line x1="384.3" y1="155.7" x2="414.1" y2="128.9" stroke="rgb(0,0,0)"  stroke-width="2.0"/>
<line x1="388.3" y1="160.1" x2="418.1" y2="133.4" stroke="rgb(0,0,0)"  stroke-width="2.0"/>
<line x1="416.1" y1="131.2" x2="454.1" y2="143.5" stroke="rgb(0,0,0)"  stroke-width="2.0"/>
<line x1="486.5" y1="120.0" x2="486.5" y2="80.0" stroke="rgb(0,0,0)"  stroke-width="2.0"/>
<line x1="486.5" y1="80.0" x2="486.5" y2="53.0" stroke="rgb(0,0,0)"  stroke-width="2.0"/>
<line x1="482.3" y1="80.0" x2="482.3" y2="53.0" stroke="rgb(0,0,0)"  stroke-width="2.0"/>
<line x1="490.7" y1="80.0" x2="490.7" y2="53.0" stroke="rgb(0,0,0)"  stroke-width="2.0"/>
<line x1="518.8" y1="143.5" x2="556.9" y2="131.2" stroke="rgb(0,0,0)"  stroke-width="2.0"/>
<line x1="556.9" y1="131.2" x2="582.5" y2="122.8" stroke="rgb(0,0,0)"  stroke-width="2.0"/>
<line x1="555.6" y1="127.2" x2="581.2" y2="118.8" stroke="rgb(0,0,0)"  stroke-width="2.0"/>
<line x1="558.2" y1="135.1" x2="583.8" y2="126.8" stroke="rgb(0,0,0)"  stroke-width="2.0"/>
<line x1="506.5" y1="181.6" x2="522.3" y2="203.4" stroke="rgb(0,0,0)"  stroke-width="2.0"/>
<line x1="233.2" y1="196.0" x2="249.0" y2="217.8" stroke="rgb(0,0,0)"  stroke-width="2.0"/>
<line x1="180.8" y1="157.9" x2="142.8" y2="145.6" stroke="rgb(0,0,0)"  stroke-width="2.0"/>
<line x1="78.0" y1="145.6" x2="52.4" y2="153.9" stroke="rgb(0,0,0)"  stroke-width="2.0"/>
<line x1="90.4" y1="107.5" x2="74.5" y2="85.7" stroke="rgb(0,0,0)"  stroke-width="2.0"/>
<line x1="335.9" y1="107.5" x2="348.3" y2="145.6" stroke="rgb(0,0,0)"  stroke-width="2.0"/>
<line x1="330.9" y1="115.4" x2="339.6" y2="142.1" stroke="rgb(0,0,0)"  stroke-width="2.0"/>
<line x1="348.3" y1="145.6" x2="326.4" y2="161.4" stroke="rgb(0,0,0)"  stroke-width="2.0"/>
<line x1="305.4" y1="161.4" x2="283.6" y2="145.6" stroke="rgb(0,0,0)"  stroke-width="2.0"/>
<line x1="283.6" y1="145.6" x2="295.9" y2="107.5" stroke="rgb(0,0,0)"  stroke-width="2.0"/>
<line x1="292.3" y1="142.1" x2="300.9" y2="115.4" stroke="rgb(0,0,0)"  stroke-width="2.0"/>
<line x1="295.9" y1="107.5" x2="335.9" y2="107.5" stroke="rgb(0,0,0)"  stroke-width="2.0"/>
<line x1="518.8" y1="143.5" x2="506.5" y2="181.6" stroke="rgb(0,0,0)"  stroke-width="2.0"/>
<line x1="510.1" y1="147.0" x2="501.5" y2="173.6" stroke="rgb(0,0,0)"  stroke-width="2.0"/>
<line x1="506.5" y1="181.6" x2="479.5" y2="181.6" stroke="rgb(0,0,0)"  stroke-width="2.0"/>
<line x1="462.4" y1="169.2" x2="454.1" y2="143.5" stroke="rgb(0,0,0)"  stroke-width="2.0"/>
<line x1="454.1" y1="143.5" x2="486.5" y2="120.0" stroke="rgb(0,0,0)"  stroke-width="2.0"/>
<line x1="463.2" y1="145.8" x2="485.8" y2="129.4" stroke="rgb(0,0,0)"  stroke-width="2.0"/>
<line x1="486.5" y1="120.0" x2="518.8" y2="143.5" stroke="rgb(0,0,0)"  stroke-width="2.0"/>
<line x1="189.1" y1="183.4" x2="180.8" y2="157.9" stroke="rgb(0,0,0)"  stroke-width="2.0"/>
<line x1="195.3" y1="179.3" x2="189.5" y2="161.4" stroke="rgb(0,0,0)"  stroke-width="2.0"/>
<line x1="180.8" y1="157.9" x2="202.6" y2="142.0" stroke="rgb(0,0,0)"  stroke-width="2.0"/>
<line x1="223.7" y1="142.0" x2="245.5" y2="157.9" stroke="rgb(0,0,0)"  stroke-width="2.0"/>
<line x1="245.5" y1="157.9" x2="233.2" y2="196.0" stroke="rgb(0,0,0)"  stroke-width="2.0"/>
<line x1="236.8" y1="161.4" x2="228.2" y2="188.0" stroke="rgb(0,0,0)"  stroke-width="2.0"/>
<line x1="233.2" y1="196.0" x2="206.2" y2="196.0" stroke="rgb(0,0,0)"  stroke-width="2.0"/>
<line x1="78.0" y1="145.6" x2="90.4" y2="107.5" stroke="rgb(0,0,0)"  stroke-width="2.0"/>
<line x1="86.7" y1="142.1" x2="95.4" y2="115.4" stroke="rgb(0,0,0)"  stroke-width="2.0"/>
<line x1="90.4" y1="107.5" x2="117.4" y2="107.5" stroke="rgb(0,0,0)"  stroke-width="2.0"/>
<line x1="134.5" y1="120.1" x2="142.8" y2="145.6" stroke="rgb(0,0,0)"  stroke-width="2.0"/>
<line x1="128.3" y1="124.2" x2="134.1" y2="142.1" stroke="rgb(0,0,0)"  stroke-width="2.0"/>
<line x1="142.8" y1="145.6" x2="120.9" y2="161.4" stroke="rgb(0,0,0)"  stroke-width="2.0"/>
<line x1="99.9" y1="161.4" x2="78.0" y2="145.6" stroke="rgb(0,0,0)"  stroke-width="2.0"/>
<text x="207.166561" y="142.404544" fill="rgb(178,178,0)"  stroke="rgb(178,178,0)" stroke-width="1" font-size="16" >S</text>
<text x="588.907056" y="126.790051" fill="rgb(12,12,255)"  stroke="rgb(12,12,255)" stroke-width="1" font-size="16" >N</text>
<text x="523.973265" y="221.914351" fill="rgb(191,191,191)"  stroke="rgb(191,191,191)" stroke-width="1" font-size="16" >H</text>
<text x="460.461855" y="189.553671" fill="rgb(178,178,0)"  stroke="rgb(178,178,0)" stroke-width="1" font-size="16" >S</text>
<text x="250.677971" y="236.318895" fill="rgb(127,178,255)"  stroke="rgb(127,178,255)" stroke-width="1" font-size="16" >F</text>
<text x="187.166561" y="203.958215" fill="rgb(12,12,255)"  stroke="rgb(12,12,255)" stroke-width="1" font-size="16" >N</text>
<text x="104.402940" y="177.066685" fill="rgb(178,178,0)"  stroke="rgb(178,178,0)" stroke-width="1" font-size="16" >S</text>
<text x="34.000000" y="165.915955" fill="rgb(191,191,191)"  stroke="rgb(191,191,191)" stroke-width="1" font-size="16" >H</text>
<text x="60.891530" y="83.152334" fill="rgb(127,178,255)"  stroke="rgb(127,178,255)" stroke-width="1" font-size="16" >F</text>
<text x="124.402940" y="115.513014" fill="rgb(12,12,255)"  stroke="rgb(12,12,255)" stroke-width="1" font-size="16" >N</text>
<text x="309.930181" y="177.066685" fill="rgb(178,178,0)"  stroke="rgb(178,178,0)" stroke-width="1" font-size="16" >S</text>
<text x="242.907361" y="50.791655" fill="rgb(12,12,255)"  stroke="rgb(12,12,255)" stroke-width="1" font-size="16" >N</text>
<text x="376.953001" y="50.791655" fill="rgb(12,12,255)"  stroke="rgb(12,12,255)" stroke-width="1" font-size="16" >N</text>
<text x="480.461855" y="48.000000" fill="rgb(12,12,255)"  stroke="rgb(12,12,255)" stroke-width="1" font-size="16" >N</text>
</svg>
</g>
<text font-size="18.000000" fill ="black" font-family="sans-serif"
x="10.000000" y="20.000000" ></text>
</svg>
