<?xml version="1.0"?>
<svg version="1.1" id="topsvg"
xmlns="http://www.w3.org/2000/svg" xmlns:xlink="http://www.w3.org/1999/xlink"
xmlns:cml="http://www.xml-cml.org/schema" x="0" y="0" width="200px" height="200px" viewBox="0 0 100 100">
<title> - Open Babel Depiction</title>
<rect x="0" y="0" width="100" height="100" fill="white"/>
<g transform="translate(0,0)">
<svg width="100" height="100" x="0" y="0" viewBox="0 0 396.126 387.101"
font-family="sans-serif" stroke="rgb(0,0,0)" stroke-width="2"  stroke-linecap="round">
<line x1="178.1" y1="146.3" x2="139.0" y2="138.0" stroke="rgb(0,0,0)"  stroke-width="2.0"/>
<line x1="83.0" y1="105.6" x2="64.9" y2="85.6" stroke="rgb(0,0,0)"  stroke-width="2.0"/>
<line x1="207.9" y1="119.6" x2="203.7" y2="79.8" stroke="rgb(0,0,0)"  stroke-width="2.0"/>
<line x1="203.7" y1="79.8" x2="200.9" y2="52.9" stroke="rgb(0,0,0)"  stroke-width="2.0"/>
<line x1="199.5" y1="80.2" x2="196.7" y2="53.4" stroke="rgb(0,0,0)"  stroke-width="2.0"/>
<line x1="207.9" y1="79.3" x2="205.0" y2="52.5" stroke="rgb(0,0,0)"  stroke-width="2.0"/>
<line x1="234.2" y1="178.7" x2="260.9" y2="208.4" stroke="rgb(0,0,0)"  stroke-width="2.0"/>
<line x1="317.0" y1="240.8" x2="343.4" y2="246.4" stroke="rgb(0,0,0)"  stroke-width="2.0"/>
<line x1="287.3" y1="267.5" x2="291.5" y2="307.3" stroke="rgb(0,0,0)"  stroke-width="2.0"/>
<line x1="291.5" y1="307.3" x2="294.3" y2="334.2" stroke="rgb(0,0,0)"  stroke-width="2.0"/>
<line x1="295.6" y1="306.9" x2="298.5" y2="333.7" stroke="rgb(0,0,0)"  stroke-width="2.0"/>
<line x1="287.3" y1="307.8" x2="290.1" y2="334.6" stroke="rgb(0,0,0)"  stroke-width="2.0"/>
<line x1="74.6" y1="144.8" x2="83.0" y2="105.6" stroke="rgb(0,0,0)"  stroke-width="2.0"/>
<line x1="82.9" y1="140.4" x2="88.8" y2="113.0" stroke="rgb(0,0,0)"  stroke-width="2.0"/>
<line x1="83.0" y1="105.6" x2="109.8" y2="102.8" stroke="rgb(0,0,0)"  stroke-width="2.0"/>
<line x1="128.0" y1="113.3" x2="139.0" y2="138.0" stroke="rgb(0,0,0)"  stroke-width="2.0"/>
<line x1="139.0" y1="138.0" x2="109.3" y2="164.8" stroke="rgb(0,0,0)"  stroke-width="2.0"/>
<line x1="129.7" y1="136.7" x2="108.9" y2="155.4" stroke="rgb(0,0,0)"  stroke-width="2.0"/>
<line x1="109.3" y1="164.8" x2="74.6" y2="144.8" stroke="rgb(0,0,0)"  stroke-width="2.0"/>
<line x1="239.8" y1="152.5" x2="234.2" y2="178.7" stroke="rgb(0,0,0)"  stroke-width="2.0"/>
<line x1="232.3" y1="152.9" x2="228.4" y2="171.3" stroke="rgb(0,0,0)"  stroke-width="2.0"/>
<line x1="234.2" y1="178.7" x2="207.3" y2="181.5" stroke="rgb(0,0,0)"  stroke-width="2.0"/>
<line x1="189.1" y1="171.0" x2="178.1" y2="146.3" stroke="rgb(0,0,0)"  stroke-width="2.0"/>
<line x1="178.1" y1="146.3" x2="207.9" y2="119.6" stroke="rgb(0,0,0)"  stroke-width="2.0"/>
<line x1="187.4" y1="147.7" x2="208.2" y2="128.9" stroke="rgb(0,0,0)"  stroke-width="2.0"/>
<line x1="207.9" y1="119.6" x2="231.2" y2="133.1" stroke="rgb(0,0,0)"  stroke-width="2.0"/>
<line x1="317.0" y1="240.8" x2="287.3" y2="267.5" stroke="rgb(0,0,0)"  stroke-width="2.0"/>
<line x1="307.7" y1="239.4" x2="286.9" y2="258.2" stroke="rgb(0,0,0)"  stroke-width="2.0"/>
<line x1="287.3" y1="267.5" x2="263.9" y2="254.0" stroke="rgb(0,0,0)"  stroke-width="2.0"/>
<line x1="255.4" y1="234.6" x2="260.9" y2="208.4" stroke="rgb(0,0,0)"  stroke-width="2.0"/>
<line x1="262.8" y1="234.2" x2="266.7" y2="215.8" stroke="rgb(0,0,0)"  stroke-width="2.0"/>
<line x1="260.9" y1="208.4" x2="287.8" y2="205.6" stroke="rgb(0,0,0)"  stroke-width="2.0"/>
<line x1="306.0" y1="216.1" x2="317.0" y2="240.8" stroke="rgb(0,0,0)"  stroke-width="2.0"/>
<line x1="98.0" y1="211.3" x2="74.6" y2="224.8" stroke="rgb(0,0,0)"  stroke-width="2.0"/>
<line x1="74.6" y1="224.8" x2="40.0" y2="204.8" stroke="rgb(0,0,0)"  stroke-width="2.0"/>
<line x1="40.0" y1="204.8" x2="40.0" y2="177.8" stroke="rgb(0,0,0)"  stroke-width="2.0"/>
<line x1="51.3" y1="158.3" x2="74.6" y2="144.8" stroke="rgb(0,0,0)"  stroke-width="2.0"/>
<line x1="109.3" y1="164.8" x2="109.3" y2="191.8" stroke="rgb(0,0,0)"  stroke-width="2.0"/>
<text x="246.632828" y="255.539353" fill="rgb(12,12,255)"  stroke="rgb(12,12,255)" stroke-width="1" font-size="16" >N</text>
<text x="289.636121" y="355.101104" fill="rgb(12,12,255)"  stroke="rgb(12,12,255)" stroke-width="1" font-size="16" >N</text>
<text x="350.125541" y="257.090596" fill="rgb(191,191,191)"  stroke="rgb(191,191,191)" stroke-width="1" font-size="16" >H</text>
<text x="294.730171" y="212.232310" fill="rgb(178,178,0)"  stroke="rgb(178,178,0)" stroke-width="1" font-size="16" >S</text>
<text x="188.403195" y="190.868794" fill="rgb(178,178,0)"  stroke="rgb(178,178,0)" stroke-width="1" font-size="16" >S</text>
<text x="236.500539" y="147.561752" fill="rgb(12,12,255)"  stroke="rgb(12,12,255)" stroke-width="1" font-size="16" >N</text>
<text x="193.497245" y="48.000000" fill="rgb(12,12,255)"  stroke="rgb(12,12,255)" stroke-width="1" font-size="16" >N</text>
<text x="116.738360" y="109.468690" fill="rgb(178,178,0)"  stroke="rgb(178,178,0)" stroke-width="1" font-size="16" >S</text>
<text x="50.192260" y="83.924035" fill="rgb(191,191,191)"  stroke="rgb(191,191,191)" stroke-width="1" font-size="16" >H</text>
<text x="34.000000" y="172.775733" fill="rgb(255,12,12)"  stroke="rgb(255,12,12)" stroke-width="1" font-size="16" >O</text>
<text x="103.282032" y="212.775733" fill="rgb(255,12,12)"  stroke="rgb(255,12,12)" stroke-width="1" font-size="16" >O</text>
</svg>
</g>
<text font-size="18.000000" fill ="black" font-family="sans-serif"
x="10.000000" y="20.000000" ></text>
</svg>
