<?xml version="1.0"?>
<svg version="1.1" id="topsvg"
xmlns="http://www.w3.org/2000/svg" xmlns:xlink="http://www.w3.org/1999/xlink"
xmlns:cml="http://www.xml-cml.org/schema" x="0" y="0" width="200px" height="200px" viewBox="0 0 100 100">
<title> - Open Babel Depiction</title>
<rect x="0" y="0" width="100" height="100" fill="white"/>
<g transform="translate(0,0)">
<svg width="100" height="100" x="0" y="0" viewBox="0 0 561.396 348.811"
font-family="sans-serif" stroke="rgb(0,0,0)" stroke-width="2"  stroke-linecap="round">
<line x1="251.9" y1="220.0" x2="286.5" y2="239.8" stroke="rgb(0,0,0)"  stroke-width="2.0"/>
<line x1="384.3" y1="194.5" x2="397.6" y2="171.1" stroke="rgb(0,0,0)"  stroke-width="2.0"/>
<line x1="384.3" y1="194.5" x2="370.7" y2="171.3" stroke="rgb(0,0,0)"  stroke-width="2.0"/>
<line x1="482.4" y1="238.8" x2="508.7" y2="233.0" stroke="rgb(0,0,0)"  stroke-width="2.0"/>
<line x1="150.7" y1="240.9" x2="150.8" y2="267.9" stroke="rgb(0,0,0)"  stroke-width="2.0"/>
<line x1="144.7" y1="240.9" x2="144.8" y2="267.9" stroke="rgb(0,0,0)"  stroke-width="2.0"/>
<line x1="102.0" y1="227.7" x2="79.0" y2="241.3" stroke="rgb(0,0,0)"  stroke-width="2.0"/>
<line x1="78.4" y1="244.2" x2="52.1" y2="238.9" stroke="rgb(0,0,0)"  stroke-width="2.0"/>
<line x1="79.6" y1="238.4" x2="53.3" y2="233.0" stroke="rgb(0,0,0)"  stroke-width="2.0"/>
<line x1="79.0" y1="241.3" x2="87.5" y2="266.7" stroke="rgb(0,0,0)"  stroke-width="2.0"/>
<line x1="83.0" y1="288.7" x2="73.9" y2="299.1" stroke="rgb(0,0,0)"  stroke-width="2.0"/>
<line x1="111.0" y1="183.3" x2="87.5" y2="170.1" stroke="rgb(0,0,0)"  stroke-width="2.0"/>
<line x1="113.9" y1="178.1" x2="90.4" y2="164.9" stroke="rgb(0,0,0)"  stroke-width="2.0"/>
<line x1="147.4" y1="120.3" x2="123.8" y2="107.1" stroke="rgb(0,0,0)"  stroke-width="2.0"/>
<line x1="248.2" y1="99.6" x2="248.0" y2="72.7" stroke="rgb(0,0,0)"  stroke-width="2.0"/>
<line x1="254.2" y1="99.6" x2="254.0" y2="72.6" stroke="rgb(0,0,0)"  stroke-width="2.0"/>
<line x1="297.4" y1="112.9" x2="320.8" y2="99.1" stroke="rgb(0,0,0)"  stroke-width="2.0"/>
<line x1="322.4" y1="96.5" x2="345.5" y2="110.9" stroke="rgb(0,0,0)"  stroke-width="2.0"/>
<line x1="319.2" y1="101.6" x2="342.3" y2="116.0" stroke="rgb(0,0,0)"  stroke-width="2.0"/>
<line x1="320.8" y1="99.1" x2="321.8" y2="71.9" stroke="rgb(0,0,0)"  stroke-width="2.0"/>
<line x1="333.7" y1="52.8" x2="346.2" y2="46.1" stroke="rgb(0,0,0)"  stroke-width="2.0"/>
<line x1="287.9" y1="157.2" x2="311.3" y2="170.6" stroke="rgb(0,0,0)"  stroke-width="2.0"/>
<line x1="284.9" y1="162.5" x2="308.4" y2="175.8" stroke="rgb(0,0,0)"  stroke-width="2.0"/>
<line x1="352.1" y1="218.1" x2="364.6" y2="255.9" stroke="rgb(0,0,0)"  stroke-width="2.0"/>
<line x1="347.2" y1="226.0" x2="355.9" y2="252.5" stroke="rgb(0,0,0)"  stroke-width="2.0"/>
<line x1="364.6" y1="255.9" x2="338.1" y2="285.7" stroke="rgb(0,0,0)"  stroke-width="2.0"/>
<line x1="338.1" y1="285.7" x2="299.0" y2="277.6" stroke="rgb(0,0,0)"  stroke-width="2.0"/>
<line x1="333.7" y1="277.4" x2="306.4" y2="271.8" stroke="rgb(0,0,0)"  stroke-width="2.0"/>
<line x1="299.0" y1="277.6" x2="286.5" y2="239.8" stroke="rgb(0,0,0)"  stroke-width="2.0"/>
<line x1="286.5" y1="239.8" x2="313.1" y2="210.0" stroke="rgb(0,0,0)"  stroke-width="2.0"/>
<line x1="295.9" y1="240.1" x2="314.4" y2="219.3" stroke="rgb(0,0,0)"  stroke-width="2.0"/>
<line x1="313.1" y1="210.0" x2="352.1" y2="218.1" stroke="rgb(0,0,0)"  stroke-width="2.0"/>
<line x1="455.6" y1="209.3" x2="416.6" y2="217.8" stroke="rgb(0,0,0)"  stroke-width="2.0"/>
<line x1="451.3" y1="217.6" x2="424.0" y2="223.5" stroke="rgb(0,0,0)"  stroke-width="2.0"/>
<line x1="416.6" y1="217.8" x2="404.5" y2="255.7" stroke="rgb(0,0,0)"  stroke-width="2.0"/>
<line x1="404.5" y1="255.7" x2="431.3" y2="285.2" stroke="rgb(0,0,0)"  stroke-width="2.0"/>
<line x1="413.9" y1="255.3" x2="432.6" y2="276.0" stroke="rgb(0,0,0)"  stroke-width="2.0"/>
<line x1="431.3" y1="285.2" x2="470.3" y2="276.8" stroke="rgb(0,0,0)"  stroke-width="2.0"/>
<line x1="470.3" y1="276.8" x2="482.4" y2="238.8" stroke="rgb(0,0,0)"  stroke-width="2.0"/>
<line x1="465.3" y1="268.8" x2="473.7" y2="242.3" stroke="rgb(0,0,0)"  stroke-width="2.0"/>
<line x1="482.4" y1="238.8" x2="455.6" y2="209.3" stroke="rgb(0,0,0)"  stroke-width="2.0"/>
<line x1="182.4" y1="220.7" x2="182.3" y2="180.1" stroke="rgb(0,0,0)"  stroke-width="2.0"/>
<line x1="189.6" y1="214.6" x2="189.5" y2="186.1" stroke="rgb(0,0,0)"  stroke-width="2.0"/>
<line x1="182.3" y1="180.1" x2="216.8" y2="160.0" stroke="rgb(0,0,0)"  stroke-width="2.0"/>
<line x1="216.8" y1="160.0" x2="251.7" y2="180.1" stroke="rgb(0,0,0)"  stroke-width="2.0"/>
<line x1="218.4" y1="169.2" x2="242.9" y2="183.4" stroke="rgb(0,0,0)"  stroke-width="2.0"/>
<line x1="251.7" y1="180.1" x2="251.9" y2="220.0" stroke="rgb(0,0,0)"  stroke-width="2.0"/>
<line x1="251.9" y1="220.0" x2="217.4" y2="240.2" stroke="rgb(0,0,0)"  stroke-width="2.0"/>
<line x1="243.1" y1="216.8" x2="219.0" y2="230.9" stroke="rgb(0,0,0)"  stroke-width="2.0"/>
<line x1="217.4" y1="240.2" x2="182.4" y2="220.7" stroke="rgb(0,0,0)"  stroke-width="2.0"/>
<line x1="112.5" y1="180.7" x2="147.1" y2="160.4" stroke="rgb(0,0,0)"  stroke-width="2.0"/>
<line x1="147.1" y1="160.4" x2="182.3" y2="180.1" stroke="rgb(0,0,0)"  stroke-width="2.0"/>
<line x1="182.4" y1="220.7" x2="147.7" y2="240.9" stroke="rgb(0,0,0)"  stroke-width="2.0"/>
<line x1="147.7" y1="240.9" x2="124.5" y2="227.6" stroke="rgb(0,0,0)"  stroke-width="2.0"/>
<line x1="113.0" y1="208.1" x2="112.5" y2="180.7" stroke="rgb(0,0,0)"  stroke-width="2.0"/>
<line x1="181.8" y1="100.2" x2="216.5" y2="119.9" stroke="rgb(0,0,0)"  stroke-width="2.0"/>
<line x1="183.5" y1="109.4" x2="207.7" y2="123.2" stroke="rgb(0,0,0)"  stroke-width="2.0"/>
<line x1="216.5" y1="119.9" x2="216.8" y2="160.0" stroke="rgb(0,0,0)"  stroke-width="2.0"/>
<line x1="147.1" y1="160.4" x2="147.4" y2="120.3" stroke="rgb(0,0,0)"  stroke-width="2.0"/>
<line x1="154.4" y1="154.5" x2="154.5" y2="126.3" stroke="rgb(0,0,0)"  stroke-width="2.0"/>
<line x1="147.4" y1="120.3" x2="181.8" y2="100.2" stroke="rgb(0,0,0)"  stroke-width="2.0"/>
<line x1="286.2" y1="132.4" x2="286.4" y2="159.9" stroke="rgb(0,0,0)"  stroke-width="2.0"/>
<line x1="286.4" y1="159.9" x2="251.7" y2="180.1" stroke="rgb(0,0,0)"  stroke-width="2.0"/>
<line x1="216.5" y1="119.9" x2="251.2" y2="99.6" stroke="rgb(0,0,0)"  stroke-width="2.0"/>
<line x1="251.2" y1="99.6" x2="274.8" y2="113.0" stroke="rgb(0,0,0)"  stroke-width="2.0"/>
<line x1="404.5" y1="255.7" x2="364.6" y2="255.9" stroke="rgb(0,0,0)"  stroke-width="2.0"/>
<line x1="352.1" y1="218.1" x2="384.3" y2="194.5" stroke="rgb(0,0,0)"  stroke-width="2.0"/>
<line x1="384.3" y1="194.5" x2="416.6" y2="217.8" stroke="rgb(0,0,0)"  stroke-width="2.0"/>
<text x="244.892425" y="67.636767" fill="rgb(255,12,12)"  stroke="rgb(255,12,12)" stroke-width="1" font-size="16" >O</text>
<text x="34.000000" y="241.411426" fill="rgb(255,12,12)"  stroke="rgb(255,12,12)" stroke-width="1" font-size="16" >O</text>
<text x="85.638394" y="286.997071" fill="rgb(255,12,12)"  stroke="rgb(255,12,12)" stroke-width="1" font-size="16" >O</text>
<text x="39.319510" y="316.810511" fill="rgb(102,102,102)"  stroke="rgb(102,102,102)" stroke-width="1" font-size="16" >H</text>
<text x="51.319510" y="320.490511" fill="rgb(102,102,102)"  stroke="rgb(102,102,102)" stroke-width="1" font-size="13" >3</text>
<text x="57.819510" y="316.810511" fill="rgb(102,102,102)"  stroke="rgb(102,102,102)" stroke-width="1" font-size="16" >C</text>
<text x="71.615611" y="169.109261" fill="rgb(255,12,12)"  stroke="rgb(255,12,12)" stroke-width="1" font-size="16" >O</text>
<text x="106.495023" y="108.731401" fill="rgb(191,191,191)"  stroke="rgb(191,191,191)" stroke-width="1" font-size="16" >H</text>
<text x="280.146823" y="127.436465" fill="rgb(12,12,255)"  stroke="rgb(12,12,255)" stroke-width="1" font-size="16" >N</text>
<text x="348.946242" y="128.368347" fill="rgb(255,12,12)"  stroke="rgb(255,12,12)" stroke-width="1" font-size="16" >O</text>
<text x="316.193693" y="66.909693" fill="rgb(255,12,12)"  stroke="rgb(255,12,12)" stroke-width="1" font-size="16" >O</text>
<text x="353.676864" y="48.000000" fill="rgb(102,102,102)"  stroke="rgb(102,102,102)" stroke-width="1" font-size="16" >CH</text>
<text x="377.676864" y="51.680000" fill="rgb(102,102,102)"  stroke="rgb(102,102,102)" stroke-width="1" font-size="13" >3</text>
<text x="315.150184" y="187.612881" fill="rgb(255,12,12)"  stroke="rgb(255,12,12)" stroke-width="1" font-size="16" >O</text>
<text x="398.015833" y="167.842586" fill="rgb(191,191,191)"  stroke="rgb(191,191,191)" stroke-width="1" font-size="16" >H</text>
<text x="358.137969" y="168.045097" fill="rgb(191,191,191)"  stroke="rgb(191,191,191)" stroke-width="1" font-size="16" >H</text>
<text x="515.395842" y="238.276072" fill="rgb(191,191,191)"  stroke="rgb(191,191,191)" stroke-width="1" font-size="16" >H</text>
<text x="141.889199" y="288.923265" fill="rgb(255,12,12)"  stroke="rgb(255,12,12)" stroke-width="1" font-size="16" >O</text>
<text x="107.222245" y="229.076244" fill="rgb(12,12,255)"  stroke="rgb(12,12,255)" stroke-width="1" font-size="16" >N</text>
</svg>
</g>
<text font-size="18.000000" fill ="black" font-family="sans-serif"
x="10.000000" y="20.000000" ></text>
</svg>
