<?xml version="1.0"?>
<svg version="1.1" id="topsvg"
xmlns="http://www.w3.org/2000/svg" xmlns:xlink="http://www.w3.org/1999/xlink"
xmlns:cml="http://www.xml-cml.org/schema" x="0" y="0" width="200px" height="200px" viewBox="0 0 100 100">
<title> - Open Babel Depiction</title>
<rect x="0" y="0" width="100" height="100" fill="white"/>
<g transform="translate(0,0)">
<svg width="100" height="100" x="0" y="0" viewBox="0 0 458.889 335.746"
font-family="sans-serif" stroke="rgb(0,0,0)" stroke-width="2"  stroke-linecap="round">
<line x1="220.2" y1="102.1" x2="259.3" y2="110.4" stroke="rgb(0,0,0)"  stroke-width="2.0"/>
<line x1="275.6" y1="146.9" x2="262.1" y2="170.3" stroke="rgb(0,0,0)"  stroke-width="2.0"/>
<line x1="379.8" y1="136.0" x2="406.2" y2="141.6" stroke="rgb(0,0,0)"  stroke-width="2.0"/>
<line x1="363.5" y1="99.5" x2="377.0" y2="76.1" stroke="rgb(0,0,0)"  stroke-width="2.0"/>
<line x1="192.0" y1="166.3" x2="215.4" y2="179.8" stroke="rgb(0,0,0)"  stroke-width="2.0"/>
<line x1="189.0" y1="171.4" x2="212.4" y2="184.9" stroke="rgb(0,0,0)"  stroke-width="2.0"/>
<line x1="147.5" y1="228.0" x2="165.6" y2="248.0" stroke="rgb(0,0,0)"  stroke-width="2.0"/>
<line x1="170.3" y1="270.1" x2="166.0" y2="283.4" stroke="rgb(0,0,0)"  stroke-width="2.0"/>
<line x1="91.5" y1="195.6" x2="65.1" y2="190.0" stroke="rgb(0,0,0)"  stroke-width="2.0"/>
<line x1="48.3" y1="174.9" x2="44.0" y2="161.6" stroke="rgb(0,0,0)"  stroke-width="2.0"/>
<line x1="119.7" y1="131.4" x2="96.3" y2="117.9" stroke="rgb(0,0,0)"  stroke-width="2.0"/>
<line x1="122.7" y1="126.3" x2="99.3" y2="112.8" stroke="rgb(0,0,0)"  stroke-width="2.0"/>
<line x1="164.2" y1="69.7" x2="146.1" y2="49.7" stroke="rgb(0,0,0)"  stroke-width="2.0"/>
<line x1="315.4" y1="142.8" x2="323.7" y2="103.6" stroke="rgb(0,0,0)"  stroke-width="2.0"/>
<line x1="309.6" y1="135.4" x2="315.4" y2="108.0" stroke="rgb(0,0,0)"  stroke-width="2.0"/>
<line x1="323.7" y1="103.6" x2="300.3" y2="90.1" stroke="rgb(0,0,0)"  stroke-width="2.0"/>
<line x1="279.4" y1="92.3" x2="259.3" y2="110.4" stroke="rgb(0,0,0)"  stroke-width="2.0"/>
<line x1="259.3" y1="110.4" x2="275.6" y2="146.9" stroke="rgb(0,0,0)"  stroke-width="2.0"/>
<line x1="268.4" y1="113.0" x2="279.8" y2="138.5" stroke="rgb(0,0,0)"  stroke-width="2.0"/>
<line x1="275.6" y1="146.9" x2="315.4" y2="142.8" stroke="rgb(0,0,0)"  stroke-width="2.0"/>
<line x1="379.8" y1="136.0" x2="363.5" y2="99.5" stroke="rgb(0,0,0)"  stroke-width="2.0"/>
<line x1="370.7" y1="133.4" x2="359.4" y2="107.9" stroke="rgb(0,0,0)"  stroke-width="2.0"/>
<line x1="363.5" y1="99.5" x2="323.7" y2="103.6" stroke="rgb(0,0,0)"  stroke-width="2.0"/>
<line x1="315.4" y1="142.8" x2="338.8" y2="156.3" stroke="rgb(0,0,0)"  stroke-width="2.0"/>
<line x1="359.7" y1="154.1" x2="379.8" y2="136.0" stroke="rgb(0,0,0)"  stroke-width="2.0"/>
<line x1="102.5" y1="220.3" x2="91.5" y2="195.6" stroke="rgb(0,0,0)"  stroke-width="2.0"/>
<line x1="91.5" y1="195.6" x2="121.2" y2="168.9" stroke="rgb(0,0,0)"  stroke-width="2.0"/>
<line x1="100.8" y1="197.0" x2="121.6" y2="178.2" stroke="rgb(0,0,0)"  stroke-width="2.0"/>
<line x1="121.2" y1="168.9" x2="155.9" y2="188.9" stroke="rgb(0,0,0)"  stroke-width="2.0"/>
<line x1="155.9" y1="188.9" x2="147.5" y2="228.0" stroke="rgb(0,0,0)"  stroke-width="2.0"/>
<line x1="147.6" y1="193.2" x2="141.7" y2="220.6" stroke="rgb(0,0,0)"  stroke-width="2.0"/>
<line x1="147.5" y1="228.0" x2="120.7" y2="230.8" stroke="rgb(0,0,0)"  stroke-width="2.0"/>
<line x1="155.9" y1="108.9" x2="164.2" y2="69.7" stroke="rgb(0,0,0)"  stroke-width="2.0"/>
<line x1="164.1" y1="104.5" x2="170.0" y2="77.1" stroke="rgb(0,0,0)"  stroke-width="2.0"/>
<line x1="164.2" y1="69.7" x2="191.0" y2="66.9" stroke="rgb(0,0,0)"  stroke-width="2.0"/>
<line x1="209.2" y1="77.4" x2="220.2" y2="102.1" stroke="rgb(0,0,0)"  stroke-width="2.0"/>
<line x1="220.2" y1="102.1" x2="190.5" y2="128.9" stroke="rgb(0,0,0)"  stroke-width="2.0"/>
<line x1="210.9" y1="100.8" x2="190.1" y2="119.5" stroke="rgb(0,0,0)"  stroke-width="2.0"/>
<line x1="190.5" y1="128.9" x2="155.9" y2="108.9" stroke="rgb(0,0,0)"  stroke-width="2.0"/>
<line x1="190.5" y1="168.9" x2="155.9" y2="188.9" stroke="rgb(0,0,0)"  stroke-width="2.0"/>
<line x1="121.2" y1="168.9" x2="121.2" y2="128.9" stroke="rgb(0,0,0)"  stroke-width="2.0"/>
<line x1="121.2" y1="128.9" x2="155.9" y2="108.9" stroke="rgb(0,0,0)"  stroke-width="2.0"/>
<line x1="190.5" y1="128.9" x2="190.5" y2="168.9" stroke="rgb(0,0,0)"  stroke-width="2.0"/>
<text x="197.950736" y="73.544654" fill="rgb(178,178,0)"  stroke="rgb(178,178,0)" stroke-width="1" font-size="16" >S</text>
<text x="131.404636" y="48.000000" fill="rgb(191,191,191)"  stroke="rgb(191,191,191)" stroke-width="1" font-size="16" >H</text>
<text x="80.571361" y="116.851697" fill="rgb(255,12,12)"  stroke="rgb(255,12,12)" stroke-width="1" font-size="16" >O</text>
<text x="14.000000" y="157.258193" fill="rgb(102,102,102)"  stroke="rgb(102,102,102)" stroke-width="1" font-size="16" >H</text>
<text x="26.000000" y="160.938193" fill="rgb(102,102,102)"  stroke="rgb(102,102,102)" stroke-width="1" font-size="13" >3</text>
<text x="32.500000" y="157.258193" fill="rgb(102,102,102)"  stroke="rgb(102,102,102)" stroke-width="1" font-size="16" >C</text>
<text x="46.360680" y="195.300454" fill="rgb(255,12,12)"  stroke="rgb(255,12,12)" stroke-width="1" font-size="16" >O</text>
<text x="101.756050" y="240.158740" fill="rgb(178,178,0)"  stroke="rgb(178,178,0)" stroke-width="1" font-size="16" >S</text>
<text x="135.941470" y="303.745655" fill="rgb(102,102,102)"  stroke="rgb(102,102,102)" stroke-width="1" font-size="16" >H</text>
<text x="147.941470" y="307.425655" fill="rgb(102,102,102)"  stroke="rgb(102,102,102)" stroke-width="1" font-size="13" >3</text>
<text x="154.441470" y="303.745655" fill="rgb(102,102,102)"  stroke="rgb(102,102,102)" stroke-width="1" font-size="16" >C</text>
<text x="168.302150" y="265.703394" fill="rgb(255,12,12)"  stroke="rgb(255,12,12)" stroke-width="1" font-size="16" >O</text>
<text x="219.135425" y="196.851697" fill="rgb(255,12,12)"  stroke="rgb(255,12,12)" stroke-width="1" font-size="16" >O</text>
<text x="283.071899" y="91.637716" fill="rgb(178,178,0)"  stroke="rgb(178,178,0)" stroke-width="1" font-size="16" >S</text>
<text x="377.493791" y="72.815561" fill="rgb(127,178,255)"  stroke="rgb(127,178,255)" stroke-width="1" font-size="16" >F</text>
<text x="412.889161" y="152.314864" fill="rgb(191,191,191)"  stroke="rgb(191,191,191)" stroke-width="1" font-size="16" >H</text>
<text x="344.037464" y="170.763620" fill="rgb(178,178,0)"  stroke="rgb(178,178,0)" stroke-width="1" font-size="16" >S</text>
<text x="249.615572" y="189.585775" fill="rgb(127,178,255)"  stroke="rgb(127,178,255)" stroke-width="1" font-size="16" >F</text>
</svg>
</g>
<text font-size="18.000000" fill ="black" font-family="sans-serif"
x="10.000000" y="20.000000" ></text>
</svg>
