<?xml version="1.0"?>
<svg version="1.1" id="topsvg"
xmlns="http://www.w3.org/2000/svg" xmlns:xlink="http://www.w3.org/1999/xlink"
xmlns:cml="http://www.xml-cml.org/schema" x="0" y="0" width="200px" height="200px" viewBox="0 0 100 100">
<title> - Open Babel Depiction</title>
<rect x="0" y="0" width="100" height="100" fill="white"/>
<g transform="translate(0,0)">
<svg width="100" height="100" x="0" y="0" viewBox="0 0 430.637 454.552"
font-family="sans-serif" stroke="rgb(0,0,0)" stroke-width="2"  stroke-linecap="round">
<line x1="214.0" y1="186.7" x2="248.8" y2="167.2" stroke="rgb(0,0,0)"  stroke-width="2.0"/>
<line x1="285.0" y1="183.9" x2="290.2" y2="210.2" stroke="rgb(0,0,0)"  stroke-width="2.0"/>
<line x1="355.9" y1="107.3" x2="379.3" y2="94.2" stroke="rgb(0,0,0)"  stroke-width="2.0"/>
<line x1="319.7" y1="90.6" x2="314.4" y2="64.2" stroke="rgb(0,0,0)"  stroke-width="2.0"/>
<line x1="179.7" y1="284.1" x2="202.9" y2="298.0" stroke="rgb(0,0,0)"  stroke-width="2.0"/>
<line x1="176.7" y1="289.3" x2="199.8" y2="303.1" stroke="rgb(0,0,0)"  stroke-width="2.0"/>
<line x1="143.3" y1="319.0" x2="143.1" y2="345.7" stroke="rgb(0,0,0)"  stroke-width="2.0"/>
<line x1="143.1" y1="348.7" x2="116.3" y2="348.5" stroke="rgb(0,0,0)"  stroke-width="2.0"/>
<line x1="143.1" y1="342.7" x2="116.4" y2="342.5" stroke="rgb(0,0,0)"  stroke-width="2.0"/>
<line x1="143.1" y1="345.7" x2="156.3" y2="369.0" stroke="rgb(0,0,0)"  stroke-width="2.0"/>
<line x1="156.1" y1="391.5" x2="149.1" y2="403.3" stroke="rgb(0,0,0)"  stroke-width="2.0"/>
<line x1="110.0" y1="288.4" x2="86.5" y2="301.7" stroke="rgb(0,0,0)"  stroke-width="2.0"/>
<line x1="107.0" y1="283.2" x2="83.5" y2="296.5" stroke="rgb(0,0,0)"  stroke-width="2.0"/>
<line x1="74.8" y1="224.8" x2="51.3" y2="238.1" stroke="rgb(0,0,0)"  stroke-width="2.0"/>
<line x1="109.0" y1="127.8" x2="85.8" y2="114.0" stroke="rgb(0,0,0)"  stroke-width="2.0"/>
<line x1="112.1" y1="122.6" x2="88.9" y2="108.9" stroke="rgb(0,0,0)"  stroke-width="2.0"/>
<line x1="145.7" y1="92.5" x2="146.0" y2="65.3" stroke="rgb(0,0,0)"  stroke-width="2.0"/>
<line x1="144.2" y1="63.0" x2="165.3" y2="45.8" stroke="rgb(0,0,0)"  stroke-width="2.0"/>
<line x1="147.9" y1="67.6" x2="169.1" y2="50.5" stroke="rgb(0,0,0)"  stroke-width="2.0"/>
<line x1="146.0" y1="65.3" x2="120.7" y2="55.5" stroke="rgb(0,0,0)"  stroke-width="2.0"/>
<line x1="98.4" y1="59.1" x2="87.4" y2="68.0" stroke="rgb(0,0,0)"  stroke-width="2.0"/>
<line x1="178.8" y1="123.5" x2="202.4" y2="110.3" stroke="rgb(0,0,0)"  stroke-width="2.0"/>
<line x1="181.8" y1="128.7" x2="205.3" y2="115.5" stroke="rgb(0,0,0)"  stroke-width="2.0"/>
<line x1="312.1" y1="154.6" x2="292.6" y2="119.8" stroke="rgb(0,0,0)"  stroke-width="2.0"/>
<line x1="302.8" y1="152.9" x2="289.2" y2="128.6" stroke="rgb(0,0,0)"  stroke-width="2.0"/>
<line x1="292.6" y1="119.8" x2="266.2" y2="125.1" stroke="rgb(0,0,0)"  stroke-width="2.0"/>
<line x1="252.0" y1="140.5" x2="248.8" y2="167.2" stroke="rgb(0,0,0)"  stroke-width="2.0"/>
<line x1="248.8" y1="167.2" x2="285.0" y2="183.9" stroke="rgb(0,0,0)"  stroke-width="2.0"/>
<line x1="257.3" y1="163.2" x2="282.6" y2="174.8" stroke="rgb(0,0,0)"  stroke-width="2.0"/>
<line x1="285.0" y1="183.9" x2="312.1" y2="154.6" stroke="rgb(0,0,0)"  stroke-width="2.0"/>
<line x1="355.9" y1="107.3" x2="319.7" y2="90.6" stroke="rgb(0,0,0)"  stroke-width="2.0"/>
<line x1="347.4" y1="111.3" x2="322.1" y2="99.6" stroke="rgb(0,0,0)"  stroke-width="2.0"/>
<line x1="319.7" y1="90.6" x2="292.6" y2="119.8" stroke="rgb(0,0,0)"  stroke-width="2.0"/>
<line x1="312.1" y1="154.6" x2="338.4" y2="149.4" stroke="rgb(0,0,0)"  stroke-width="2.0"/>
<line x1="352.7" y1="134.0" x2="355.9" y2="107.3" stroke="rgb(0,0,0)"  stroke-width="2.0"/>
<line x1="178.7" y1="246.5" x2="144.0" y2="225.7" stroke="rgb(0,0,0)"  stroke-width="2.0"/>
<line x1="177.3" y1="237.3" x2="152.9" y2="222.6" stroke="rgb(0,0,0)"  stroke-width="2.0"/>
<line x1="144.0" y1="225.7" x2="144.5" y2="185.8" stroke="rgb(0,0,0)"  stroke-width="2.0"/>
<line x1="144.5" y1="185.8" x2="179.8" y2="166.3" stroke="rgb(0,0,0)"  stroke-width="2.0"/>
<line x1="153.3" y1="189.2" x2="178.0" y2="175.5" stroke="rgb(0,0,0)"  stroke-width="2.0"/>
<line x1="179.8" y1="166.3" x2="214.0" y2="186.7" stroke="rgb(0,0,0)"  stroke-width="2.0"/>
<line x1="214.0" y1="186.7" x2="213.5" y2="226.6" stroke="rgb(0,0,0)"  stroke-width="2.0"/>
<line x1="206.7" y1="192.6" x2="206.4" y2="220.5" stroke="rgb(0,0,0)"  stroke-width="2.0"/>
<line x1="213.5" y1="226.6" x2="178.7" y2="246.5" stroke="rgb(0,0,0)"  stroke-width="2.0"/>
<line x1="108.5" y1="285.8" x2="109.0" y2="245.6" stroke="rgb(0,0,0)"  stroke-width="2.0"/>
<line x1="109.0" y1="245.6" x2="144.0" y2="225.7" stroke="rgb(0,0,0)"  stroke-width="2.0"/>
<line x1="178.7" y1="246.5" x2="178.2" y2="286.7" stroke="rgb(0,0,0)"  stroke-width="2.0"/>
<line x1="178.2" y1="286.7" x2="154.8" y2="299.7" stroke="rgb(0,0,0)"  stroke-width="2.0"/>
<line x1="132.2" y1="299.5" x2="108.5" y2="285.8" stroke="rgb(0,0,0)"  stroke-width="2.0"/>
<line x1="75.3" y1="184.8" x2="110.0" y2="165.4" stroke="rgb(0,0,0)"  stroke-width="2.0"/>
<line x1="84.0" y1="188.2" x2="108.3" y2="174.6" stroke="rgb(0,0,0)"  stroke-width="2.0"/>
<line x1="110.0" y1="165.4" x2="144.5" y2="185.8" stroke="rgb(0,0,0)"  stroke-width="2.0"/>
<line x1="109.0" y1="245.6" x2="74.8" y2="224.8" stroke="rgb(0,0,0)"  stroke-width="2.0"/>
<line x1="107.6" y1="236.4" x2="83.6" y2="221.7" stroke="rgb(0,0,0)"  stroke-width="2.0"/>
<line x1="74.8" y1="224.8" x2="75.3" y2="184.8" stroke="rgb(0,0,0)"  stroke-width="2.0"/>
<line x1="156.8" y1="112.1" x2="180.3" y2="126.1" stroke="rgb(0,0,0)"  stroke-width="2.0"/>
<line x1="180.3" y1="126.1" x2="179.8" y2="166.3" stroke="rgb(0,0,0)"  stroke-width="2.0"/>
<line x1="110.0" y1="165.4" x2="110.6" y2="125.2" stroke="rgb(0,0,0)"  stroke-width="2.0"/>
<line x1="110.6" y1="125.2" x2="134.3" y2="111.9" stroke="rgb(0,0,0)"  stroke-width="2.0"/>
<text x="139.576843" y="113.476194" fill="rgb(12,12,255)"  stroke="rgb(12,12,255)" stroke-width="1" font-size="16" >N</text>
<text x="67.713177" y="313.530579" fill="rgb(255,12,12)"  stroke="rgb(255,12,12)" stroke-width="1" font-size="16" >O</text>
<text x="34.000000" y="252.530306" fill="rgb(191,191,191)"  stroke="rgb(191,191,191)" stroke-width="1" font-size="16" >H</text>
<text x="70.178524" y="112.817888" fill="rgb(255,12,12)"  stroke="rgb(255,12,12)" stroke-width="1" font-size="16" >O</text>
<text x="116.498338" y="422.551544" fill="rgb(102,102,102)"  stroke="rgb(102,102,102)" stroke-width="1" font-size="16" >H</text>
<text x="128.498338" y="426.231544" fill="rgb(102,102,102)"  stroke="rgb(102,102,102)" stroke-width="1" font-size="13" >3</text>
<text x="134.998338" y="422.551544" fill="rgb(102,102,102)"  stroke="rgb(102,102,102)" stroke-width="1" font-size="16" >C</text>
<text x="171.276364" y="48.000000" fill="rgb(255,12,12)"  stroke="rgb(255,12,12)" stroke-width="1" font-size="16" >O</text>
<text x="102.523407" y="58.885307" fill="rgb(255,12,12)"  stroke="rgb(255,12,12)" stroke-width="1" font-size="16" >O</text>
<text x="51.289246" y="84.175229" fill="rgb(102,102,102)"  stroke="rgb(102,102,102)" stroke-width="1" font-size="16" >H</text>
<text x="63.289246" y="87.855229" fill="rgb(102,102,102)"  stroke="rgb(102,102,102)" stroke-width="1" font-size="13" >3</text>
<text x="69.789246" y="84.175229" fill="rgb(102,102,102)"  stroke="rgb(102,102,102)" stroke-width="1" font-size="16" >C</text>
<text x="209.196528" y="114.574481" fill="rgb(255,12,12)"  stroke="rgb(255,12,12)" stroke-width="1" font-size="16" >O</text>
<text x="286.760611" y="230.990651" fill="rgb(191,191,191)"  stroke="rgb(191,191,191)" stroke-width="1" font-size="16" >H</text>
<text x="345.157415" y="154.866623" fill="rgb(178,178,0)"  stroke="rgb(178,178,0)" stroke-width="1" font-size="16" >S</text>
<text x="384.637195" y="95.817580" fill="rgb(191,191,191)"  stroke="rgb(191,191,191)" stroke-width="1" font-size="16" >H</text>
<text x="305.894756" y="59.489465" fill="rgb(191,191,191)"  stroke="rgb(191,191,191)" stroke-width="1" font-size="16" >H</text>
<text x="247.497953" y="135.613492" fill="rgb(178,178,0)"  stroke="rgb(178,178,0)" stroke-width="1" font-size="16" >S</text>
<text x="206.540761" y="315.206762" fill="rgb(255,12,12)"  stroke="rgb(255,12,12)" stroke-width="1" font-size="16" >O</text>
<text x="137.436528" y="313.956039" fill="rgb(12,12,255)"  stroke="rgb(12,12,255)" stroke-width="1" font-size="16" >N</text>
<text x="97.344413" y="353.361351" fill="rgb(255,12,12)"  stroke="rgb(255,12,12)" stroke-width="1" font-size="16" >O</text>
<text x="156.670089" y="388.299849" fill="rgb(255,12,12)"  stroke="rgb(255,12,12)" stroke-width="1" font-size="16" >O</text>
</svg>
</g>
<text font-size="18.000000" fill ="black" font-family="sans-serif"
x="10.000000" y="20.000000" ></text>
</svg>
