<?xml version="1.0"?>
<svg version="1.1" id="topsvg"
xmlns="http://www.w3.org/2000/svg" xmlns:xlink="http://www.w3.org/1999/xlink"
xmlns:cml="http://www.xml-cml.org/schema" x="0" y="0" width="200px" height="200px" viewBox="0 0 100 100">
<title> - Open Babel Depiction</title>
<rect x="0" y="0" width="100" height="100" fill="white"/>
<g transform="translate(0,0)">
<svg width="100" height="100" x="0" y="0" viewBox="0 0 530.284 306.797"
font-family="sans-serif" stroke="rgb(0,0,0)" stroke-width="2"  stroke-linecap="round">
<line x1="220.8" y1="201.1" x2="255.4" y2="220.8" stroke="rgb(0,0,0)"  stroke-width="2.0"/>
<line x1="353.1" y1="175.6" x2="366.5" y2="152.2" stroke="rgb(0,0,0)"  stroke-width="2.0"/>
<line x1="353.1" y1="175.6" x2="339.6" y2="152.4" stroke="rgb(0,0,0)"  stroke-width="2.0"/>
<line x1="451.3" y1="219.8" x2="477.6" y2="214.1" stroke="rgb(0,0,0)"  stroke-width="2.0"/>
<line x1="119.6" y1="222.0" x2="119.7" y2="249.0" stroke="rgb(0,0,0)"  stroke-width="2.0"/>
<line x1="113.6" y1="222.0" x2="113.7" y2="249.0" stroke="rgb(0,0,0)"  stroke-width="2.0"/>
<line x1="70.9" y1="208.8" x2="59.1" y2="215.8" stroke="rgb(0,0,0)"  stroke-width="2.0"/>
<line x1="45.3" y1="235.1" x2="42.6" y2="248.6" stroke="rgb(0,0,0)"  stroke-width="2.0"/>
<line x1="79.9" y1="164.4" x2="56.4" y2="151.2" stroke="rgb(0,0,0)"  stroke-width="2.0"/>
<line x1="82.9" y1="159.2" x2="59.3" y2="145.9" stroke="rgb(0,0,0)"  stroke-width="2.0"/>
<line x1="116.3" y1="101.4" x2="92.7" y2="88.2" stroke="rgb(0,0,0)"  stroke-width="2.0"/>
<line x1="217.1" y1="80.7" x2="216.9" y2="53.7" stroke="rgb(0,0,0)"  stroke-width="2.0"/>
<line x1="223.1" y1="80.7" x2="222.9" y2="53.7" stroke="rgb(0,0,0)"  stroke-width="2.0"/>
<line x1="266.3" y1="93.9" x2="278.5" y2="86.8" stroke="rgb(0,0,0)"  stroke-width="2.0"/>
<line x1="290.2" y1="67.2" x2="290.6" y2="53.0" stroke="rgb(0,0,0)"  stroke-width="2.0"/>
<line x1="256.8" y1="138.3" x2="280.2" y2="151.7" stroke="rgb(0,0,0)"  stroke-width="2.0"/>
<line x1="253.8" y1="143.5" x2="277.3" y2="156.9" stroke="rgb(0,0,0)"  stroke-width="2.0"/>
<line x1="321.0" y1="199.2" x2="333.5" y2="237.0" stroke="rgb(0,0,0)"  stroke-width="2.0"/>
<line x1="316.1" y1="207.1" x2="324.8" y2="233.6" stroke="rgb(0,0,0)"  stroke-width="2.0"/>
<line x1="333.5" y1="237.0" x2="307.0" y2="266.8" stroke="rgb(0,0,0)"  stroke-width="2.0"/>
<line x1="307.0" y1="266.8" x2="267.9" y2="258.7" stroke="rgb(0,0,0)"  stroke-width="2.0"/>
<line x1="302.6" y1="258.5" x2="275.3" y2="252.9" stroke="rgb(0,0,0)"  stroke-width="2.0"/>
<line x1="267.9" y1="258.7" x2="255.4" y2="220.8" stroke="rgb(0,0,0)"  stroke-width="2.0"/>
<line x1="255.4" y1="220.8" x2="282.0" y2="191.1" stroke="rgb(0,0,0)"  stroke-width="2.0"/>
<line x1="264.8" y1="221.2" x2="283.3" y2="200.3" stroke="rgb(0,0,0)"  stroke-width="2.0"/>
<line x1="282.0" y1="191.1" x2="321.0" y2="199.2" stroke="rgb(0,0,0)"  stroke-width="2.0"/>
<line x1="424.5" y1="190.3" x2="385.5" y2="198.8" stroke="rgb(0,0,0)"  stroke-width="2.0"/>
<line x1="420.2" y1="198.7" x2="392.9" y2="204.6" stroke="rgb(0,0,0)"  stroke-width="2.0"/>
<line x1="385.5" y1="198.8" x2="373.4" y2="236.8" stroke="rgb(0,0,0)"  stroke-width="2.0"/>
<line x1="373.4" y1="236.8" x2="400.2" y2="266.3" stroke="rgb(0,0,0)"  stroke-width="2.0"/>
<line x1="382.8" y1="236.4" x2="401.5" y2="257.0" stroke="rgb(0,0,0)"  stroke-width="2.0"/>
<line x1="400.2" y1="266.3" x2="439.2" y2="257.8" stroke="rgb(0,0,0)"  stroke-width="2.0"/>
<line x1="439.2" y1="257.8" x2="451.3" y2="219.8" stroke="rgb(0,0,0)"  stroke-width="2.0"/>
<line x1="434.2" y1="249.9" x2="442.6" y2="223.4" stroke="rgb(0,0,0)"  stroke-width="2.0"/>
<line x1="451.3" y1="219.8" x2="424.5" y2="190.3" stroke="rgb(0,0,0)"  stroke-width="2.0"/>
<line x1="151.3" y1="201.7" x2="151.2" y2="161.2" stroke="rgb(0,0,0)"  stroke-width="2.0"/>
<line x1="158.5" y1="195.7" x2="158.4" y2="167.2" stroke="rgb(0,0,0)"  stroke-width="2.0"/>
<line x1="151.2" y1="161.2" x2="185.7" y2="141.1" stroke="rgb(0,0,0)"  stroke-width="2.0"/>
<line x1="185.7" y1="141.1" x2="220.6" y2="161.2" stroke="rgb(0,0,0)"  stroke-width="2.0"/>
<line x1="187.3" y1="150.3" x2="211.8" y2="164.4" stroke="rgb(0,0,0)"  stroke-width="2.0"/>
<line x1="220.6" y1="161.2" x2="220.8" y2="201.1" stroke="rgb(0,0,0)"  stroke-width="2.0"/>
<line x1="220.8" y1="201.1" x2="186.3" y2="221.2" stroke="rgb(0,0,0)"  stroke-width="2.0"/>
<line x1="212.0" y1="197.9" x2="187.9" y2="212.0" stroke="rgb(0,0,0)"  stroke-width="2.0"/>
<line x1="186.3" y1="221.2" x2="151.3" y2="201.7" stroke="rgb(0,0,0)"  stroke-width="2.0"/>
<line x1="81.4" y1="161.8" x2="116.1" y2="141.5" stroke="rgb(0,0,0)"  stroke-width="2.0"/>
<line x1="116.1" y1="141.5" x2="151.2" y2="161.2" stroke="rgb(0,0,0)"  stroke-width="2.0"/>
<line x1="151.3" y1="201.7" x2="116.6" y2="222.0" stroke="rgb(0,0,0)"  stroke-width="2.0"/>
<line x1="116.6" y1="222.0" x2="93.4" y2="208.6" stroke="rgb(0,0,0)"  stroke-width="2.0"/>
<line x1="81.9" y1="189.2" x2="81.4" y2="161.8" stroke="rgb(0,0,0)"  stroke-width="2.0"/>
<line x1="150.7" y1="81.2" x2="185.4" y2="101.0" stroke="rgb(0,0,0)"  stroke-width="2.0"/>
<line x1="152.4" y1="90.5" x2="176.6" y2="104.3" stroke="rgb(0,0,0)"  stroke-width="2.0"/>
<line x1="185.4" y1="101.0" x2="185.7" y2="141.1" stroke="rgb(0,0,0)"  stroke-width="2.0"/>
<line x1="116.1" y1="141.5" x2="116.3" y2="101.4" stroke="rgb(0,0,0)"  stroke-width="2.0"/>
<line x1="123.3" y1="135.5" x2="123.4" y2="107.4" stroke="rgb(0,0,0)"  stroke-width="2.0"/>
<line x1="116.3" y1="101.4" x2="150.7" y2="81.2" stroke="rgb(0,0,0)"  stroke-width="2.0"/>
<line x1="255.1" y1="113.5" x2="255.3" y2="140.9" stroke="rgb(0,0,0)"  stroke-width="2.0"/>
<line x1="255.3" y1="140.9" x2="220.6" y2="161.2" stroke="rgb(0,0,0)"  stroke-width="2.0"/>
<line x1="185.4" y1="101.0" x2="220.1" y2="80.7" stroke="rgb(0,0,0)"  stroke-width="2.0"/>
<line x1="220.1" y1="80.7" x2="243.7" y2="94.1" stroke="rgb(0,0,0)"  stroke-width="2.0"/>
<line x1="373.4" y1="236.8" x2="333.5" y2="237.0" stroke="rgb(0,0,0)"  stroke-width="2.0"/>
<line x1="321.0" y1="199.2" x2="353.1" y2="175.6" stroke="rgb(0,0,0)"  stroke-width="2.0"/>
<line x1="353.1" y1="175.6" x2="385.5" y2="198.8" stroke="rgb(0,0,0)"  stroke-width="2.0"/>
<text x="76.127882" y="210.159522" fill="rgb(12,12,255)"  stroke="rgb(12,12,255)" stroke-width="1" font-size="16" >N</text>
<text x="41.885760" y="230.379931" fill="rgb(255,12,12)"  stroke="rgb(255,12,12)" stroke-width="1" font-size="16" >O</text>
<text x="14.000000" y="269.356880" fill="rgb(102,102,102)"  stroke="rgb(102,102,102)" stroke-width="1" font-size="16" >H</text>
<text x="26.000000" y="273.036880" fill="rgb(102,102,102)"  stroke="rgb(102,102,102)" stroke-width="1" font-size="13" >3</text>
<text x="32.500000" y="269.356880" fill="rgb(102,102,102)"  stroke="rgb(102,102,102)" stroke-width="1" font-size="16" >C</text>
<text x="40.513708" y="150.190038" fill="rgb(255,12,12)"  stroke="rgb(255,12,12)" stroke-width="1" font-size="16" >O</text>
<text x="75.391608" y="89.814794" fill="rgb(191,191,191)"  stroke="rgb(191,191,191)" stroke-width="1" font-size="16" >H</text>
<text x="110.793334" y="270.003950" fill="rgb(255,12,12)"  stroke="rgb(255,12,12)" stroke-width="1" font-size="16" >O</text>
<text x="213.792024" y="48.716625" fill="rgb(255,12,12)"  stroke="rgb(255,12,12)" stroke-width="1" font-size="16" >O</text>
<text x="249.044965" y="108.524149" fill="rgb(12,12,255)"  stroke="rgb(12,12,255)" stroke-width="1" font-size="16" >N</text>
<text x="283.725021" y="88.182432" fill="rgb(255,12,12)"  stroke="rgb(255,12,12)" stroke-width="1" font-size="16" >O</text>
<text x="287.090273" y="48.000000" fill="rgb(102,102,102)"  stroke="rgb(102,102,102)" stroke-width="1" font-size="16" >CH</text>
<text x="311.090273" y="51.680000" fill="rgb(102,102,102)"  stroke="rgb(102,102,102)" stroke-width="1" font-size="13" >3</text>
<text x="284.048317" y="168.698813" fill="rgb(255,12,12)"  stroke="rgb(255,12,12)" stroke-width="1" font-size="16" >O</text>
<text x="484.283788" y="219.358952" fill="rgb(191,191,191)"  stroke="rgb(191,191,191)" stroke-width="1" font-size="16" >H</text>
<text x="366.908866" y="148.928519" fill="rgb(191,191,191)"  stroke="rgb(191,191,191)" stroke-width="1" font-size="16" >H</text>
<text x="327.032730" y="149.131021" fill="rgb(191,191,191)"  stroke="rgb(191,191,191)" stroke-width="1" font-size="16" >H</text>
</svg>
</g>
<text font-size="18.000000" fill ="black" font-family="sans-serif"
x="10.000000" y="20.000000" ></text>
</svg>
