<?xml version="1.0"?>
<svg version="1.1" id="topsvg"
xmlns="http://www.w3.org/2000/svg" xmlns:xlink="http://www.w3.org/1999/xlink"
xmlns:cml="http://www.xml-cml.org/schema" x="0" y="0" width="200px" height="200px" viewBox="0 0 100 100">
<title> - Open Babel Depiction</title>
<rect x="0" y="0" width="100" height="100" fill="white"/>
<g transform="translate(0,0)">
<svg width="100" height="100" x="0" y="0" viewBox="0 0 577.327 444.073"
font-family="sans-serif" stroke="rgb(0,0,0)" stroke-width="2"  stroke-linecap="round">
<line x1="301.7" y1="181.2" x2="336.3" y2="161.2" stroke="rgb(0,0,0)"  stroke-width="2.0"/>
<line x1="340.5" y1="121.4" x2="320.4" y2="103.3" stroke="rgb(0,0,0)"  stroke-width="2.0"/>
<line x1="379.6" y1="113.1" x2="395.9" y2="76.5" stroke="rgb(0,0,0)"  stroke-width="2.0"/>
<line x1="395.9" y1="76.5" x2="406.8" y2="51.9" stroke="rgb(0,0,0)"  stroke-width="2.0"/>
<line x1="392.0" y1="74.8" x2="403.0" y2="50.2" stroke="rgb(0,0,0)"  stroke-width="2.0"/>
<line x1="399.7" y1="78.3" x2="410.7" y2="53.6" stroke="rgb(0,0,0)"  stroke-width="2.0"/>
<line x1="399.6" y1="147.7" x2="439.4" y2="151.9" stroke="rgb(0,0,0)"  stroke-width="2.0"/>
<line x1="502.7" y1="138.4" x2="526.1" y2="124.9" stroke="rgb(0,0,0)"  stroke-width="2.0"/>
<line x1="498.5" y1="178.2" x2="518.6" y2="196.3" stroke="rgb(0,0,0)"  stroke-width="2.0"/>
<line x1="459.4" y1="186.5" x2="443.1" y2="223.1" stroke="rgb(0,0,0)"  stroke-width="2.0"/>
<line x1="443.1" y1="223.1" x2="432.1" y2="247.8" stroke="rgb(0,0,0)"  stroke-width="2.0"/>
<line x1="446.9" y1="224.8" x2="436.0" y2="249.5" stroke="rgb(0,0,0)"  stroke-width="2.0"/>
<line x1="439.3" y1="221.4" x2="428.3" y2="246.0" stroke="rgb(0,0,0)"  stroke-width="2.0"/>
<line x1="170.8" y1="204.2" x2="143.8" y2="204.2" stroke="rgb(0,0,0)"  stroke-width="2.0"/>
<line x1="170.8" y1="198.2" x2="143.8" y2="198.2" stroke="rgb(0,0,0)"  stroke-width="2.0"/>
<line x1="190.3" y1="156.5" x2="186.0" y2="143.1" stroke="rgb(0,0,0)"  stroke-width="2.0"/>
<line x1="169.2" y1="128.1" x2="155.6" y2="125.2" stroke="rgb(0,0,0)"  stroke-width="2.0"/>
<line x1="197.2" y1="234.5" x2="184.8" y2="272.5" stroke="rgb(0,0,0)"  stroke-width="2.0"/>
<line x1="191.5" y1="232.6" x2="179.1" y2="270.7" stroke="rgb(0,0,0)"  stroke-width="2.0"/>
<line x1="205.5" y1="300.9" x2="232.5" y2="300.9" stroke="rgb(0,0,0)"  stroke-width="2.0"/>
<line x1="205.5" y1="306.9" x2="232.5" y2="306.9" stroke="rgb(0,0,0)"  stroke-width="2.0"/>
<line x1="186.0" y1="348.7" x2="190.3" y2="362.0" stroke="rgb(0,0,0)"  stroke-width="2.0"/>
<line x1="185.6" y1="384.0" x2="176.3" y2="394.4" stroke="rgb(0,0,0)"  stroke-width="2.0"/>
<line x1="74.6" y1="323.9" x2="51.3" y2="337.4" stroke="rgb(0,0,0)"  stroke-width="2.0"/>
<line x1="379.6" y1="113.1" x2="399.6" y2="147.7" stroke="rgb(0,0,0)"  stroke-width="2.0"/>
<line x1="376.4" y1="121.9" x2="390.4" y2="146.1" stroke="rgb(0,0,0)"  stroke-width="2.0"/>
<line x1="399.6" y1="147.7" x2="381.5" y2="167.8" stroke="rgb(0,0,0)"  stroke-width="2.0"/>
<line x1="361.0" y1="172.2" x2="336.3" y2="161.2" stroke="rgb(0,0,0)"  stroke-width="2.0"/>
<line x1="336.3" y1="161.2" x2="340.5" y2="121.4" stroke="rgb(0,0,0)"  stroke-width="2.0"/>
<line x1="344.1" y1="156.0" x2="347.0" y2="128.1" stroke="rgb(0,0,0)"  stroke-width="2.0"/>
<line x1="340.5" y1="121.4" x2="379.6" y2="113.1" stroke="rgb(0,0,0)"  stroke-width="2.0"/>
<line x1="502.7" y1="138.4" x2="498.5" y2="178.2" stroke="rgb(0,0,0)"  stroke-width="2.0"/>
<line x1="494.9" y1="143.7" x2="492.0" y2="171.5" stroke="rgb(0,0,0)"  stroke-width="2.0"/>
<line x1="498.5" y1="178.2" x2="459.4" y2="186.5" stroke="rgb(0,0,0)"  stroke-width="2.0"/>
<line x1="459.4" y1="186.5" x2="439.4" y2="151.9" stroke="rgb(0,0,0)"  stroke-width="2.0"/>
<line x1="462.6" y1="177.8" x2="448.6" y2="153.5" stroke="rgb(0,0,0)"  stroke-width="2.0"/>
<line x1="439.4" y1="151.9" x2="457.4" y2="131.8" stroke="rgb(0,0,0)"  stroke-width="2.0"/>
<line x1="478.0" y1="127.5" x2="502.7" y2="138.4" stroke="rgb(0,0,0)"  stroke-width="2.0"/>
<line x1="267.0" y1="241.2" x2="232.4" y2="221.2" stroke="rgb(0,0,0)"  stroke-width="2.0"/>
<line x1="265.4" y1="231.9" x2="241.2" y2="217.9" stroke="rgb(0,0,0)"  stroke-width="2.0"/>
<line x1="232.4" y1="221.2" x2="232.4" y2="181.2" stroke="rgb(0,0,0)"  stroke-width="2.0"/>
<line x1="232.4" y1="181.2" x2="267.0" y2="161.2" stroke="rgb(0,0,0)"  stroke-width="2.0"/>
<line x1="241.2" y1="184.4" x2="265.4" y2="170.4" stroke="rgb(0,0,0)"  stroke-width="2.0"/>
<line x1="267.0" y1="161.2" x2="301.7" y2="181.2" stroke="rgb(0,0,0)"  stroke-width="2.0"/>
<line x1="301.7" y1="181.2" x2="301.7" y2="221.2" stroke="rgb(0,0,0)"  stroke-width="2.0"/>
<line x1="294.5" y1="187.2" x2="294.5" y2="215.2" stroke="rgb(0,0,0)"  stroke-width="2.0"/>
<line x1="301.7" y1="221.2" x2="267.0" y2="241.2" stroke="rgb(0,0,0)"  stroke-width="2.0"/>
<line x1="74.6" y1="283.9" x2="109.3" y2="263.9" stroke="rgb(0,0,0)"  stroke-width="2.0"/>
<line x1="109.3" y1="263.9" x2="143.9" y2="283.9" stroke="rgb(0,0,0)"  stroke-width="2.0"/>
<line x1="110.9" y1="273.2" x2="135.1" y2="287.2" stroke="rgb(0,0,0)"  stroke-width="2.0"/>
<line x1="143.9" y1="283.9" x2="143.9" y2="323.9" stroke="rgb(0,0,0)"  stroke-width="2.0"/>
<line x1="143.9" y1="323.9" x2="109.3" y2="343.9" stroke="rgb(0,0,0)"  stroke-width="2.0"/>
<line x1="135.1" y1="320.7" x2="110.9" y2="334.7" stroke="rgb(0,0,0)"  stroke-width="2.0"/>
<line x1="109.3" y1="343.9" x2="74.6" y2="323.9" stroke="rgb(0,0,0)"  stroke-width="2.0"/>
<line x1="74.6" y1="323.9" x2="74.6" y2="283.9" stroke="rgb(0,0,0)"  stroke-width="2.0"/>
<line x1="81.8" y1="317.9" x2="81.8" y2="289.9" stroke="rgb(0,0,0)"  stroke-width="2.0"/>
<line x1="170.8" y1="201.2" x2="186.7" y2="179.3" stroke="rgb(0,0,0)"  stroke-width="2.0"/>
<line x1="206.7" y1="172.8" x2="232.4" y2="181.2" stroke="rgb(0,0,0)"  stroke-width="2.0"/>
<line x1="232.4" y1="221.2" x2="194.3" y2="233.5" stroke="rgb(0,0,0)"  stroke-width="2.0"/>
<line x1="194.3" y1="233.5" x2="170.8" y2="201.2" stroke="rgb(0,0,0)"  stroke-width="2.0"/>
<line x1="169.6" y1="332.3" x2="143.9" y2="323.9" stroke="rgb(0,0,0)"  stroke-width="2.0"/>
<line x1="143.9" y1="283.9" x2="182.0" y2="271.6" stroke="rgb(0,0,0)"  stroke-width="2.0"/>
<line x1="182.0" y1="271.6" x2="205.5" y2="303.9" stroke="rgb(0,0,0)"  stroke-width="2.0"/>
<line x1="205.5" y1="303.9" x2="189.6" y2="325.8" stroke="rgb(0,0,0)"  stroke-width="2.0"/>
<text x="175.965309" y="344.305280" fill="rgb(12,12,255)"  stroke="rgb(12,12,255)" stroke-width="1" font-size="16" >N</text>
<text x="124.814579" y="209.180980" fill="rgb(255,12,12)"  stroke="rgb(255,12,12)" stroke-width="1" font-size="16" >O</text>
<text x="188.325989" y="176.820300" fill="rgb(12,12,255)"  stroke="rgb(12,12,255)" stroke-width="1" font-size="16" >N</text>
<text x="175.965309" y="138.778040" fill="rgb(255,12,12)"  stroke="rgb(255,12,12)" stroke-width="1" font-size="16" >O</text>
<text x="116.839405" y="130.461572" fill="rgb(102,102,102)"  stroke="rgb(102,102,102)" stroke-width="1" font-size="16" >H</text>
<text x="128.839405" y="134.141572" fill="rgb(102,102,102)"  stroke="rgb(102,102,102)" stroke-width="1" font-size="13" >3</text>
<text x="135.339405" y="130.461572" fill="rgb(102,102,102)"  stroke="rgb(102,102,102)" stroke-width="1" font-size="16" >C</text>
<text x="239.476719" y="311.944600" fill="rgb(255,12,12)"  stroke="rgb(255,12,12)" stroke-width="1" font-size="16" >O</text>
<text x="188.325989" y="382.347541" fill="rgb(255,12,12)"  stroke="rgb(255,12,12)" stroke-width="1" font-size="16" >O</text>
<text x="141.560765" y="412.073334" fill="rgb(102,102,102)"  stroke="rgb(102,102,102)" stroke-width="1" font-size="16" >H</text>
<text x="153.560765" y="415.753334" fill="rgb(102,102,102)"  stroke="rgb(102,102,102)" stroke-width="1" font-size="13" >3</text>
<text x="160.060765" y="412.073334" fill="rgb(102,102,102)"  stroke="rgb(102,102,102)" stroke-width="1" font-size="16" >C</text>
<text x="34.000000" y="351.944600" fill="rgb(191,191,191)"  stroke="rgb(191,191,191)" stroke-width="1" font-size="16" >H</text>
<text x="292.746643" y="102.634880" fill="rgb(255,12,12)"  stroke="rgb(255,12,12)" stroke-width="1" font-size="16" >HO</text>
<text x="406.137272" y="48.000000" fill="rgb(12,12,255)"  stroke="rgb(12,12,255)" stroke-width="1" font-size="16" >N</text>
<text x="366.833116" y="185.450446" fill="rgb(178,178,0)"  stroke="rgb(178,178,0)" stroke-width="1" font-size="16" >S</text>
<text x="460.144441" y="130.179998" fill="rgb(178,178,0)"  stroke="rgb(178,178,0)" stroke-width="1" font-size="16" >S</text>
<text x="531.327275" y="126.449464" fill="rgb(191,191,191)"  stroke="rgb(191,191,191)" stroke-width="1" font-size="16" >H</text>
<text x="522.230913" y="212.995564" fill="rgb(255,12,12)"  stroke="rgb(255,12,12)" stroke-width="1" font-size="16" >OH</text>
<text x="420.840285" y="267.630444" fill="rgb(12,12,255)"  stroke="rgb(12,12,255)" stroke-width="1" font-size="16" >N</text>
</svg>
</g>
<text font-size="18.000000" fill ="black" font-family="sans-serif"
x="10.000000" y="20.000000" ></text>
</svg>
