<?xml version="1.0"?>
<svg version="1.1" id="topsvg"
xmlns="http://www.w3.org/2000/svg" xmlns:xlink="http://www.w3.org/1999/xlink"
xmlns:cml="http://www.xml-cml.org/schema" x="0" y="0" width="200px" height="200px" viewBox="0 0 100 100">
<title> - Open Babel Depiction</title>
<rect x="0" y="0" width="100" height="100" fill="white"/>
<g transform="translate(0,0)">
<svg width="100" height="100" x="0" y="0" viewBox="0 0 489.465 344.16"
font-family="sans-serif" stroke="rgb(0,0,0)" stroke-width="2"  stroke-linecap="round">
<line x1="214.3" y1="200.3" x2="248.9" y2="220.1" stroke="rgb(0,0,0)"  stroke-width="2.0"/>
<line x1="253.2" y1="259.7" x2="233.4" y2="277.8" stroke="rgb(0,0,0)"  stroke-width="2.0"/>
<line x1="292.3" y1="267.8" x2="303.3" y2="292.3" stroke="rgb(0,0,0)"  stroke-width="2.0"/>
<line x1="312.0" y1="233.2" x2="351.7" y2="228.8" stroke="rgb(0,0,0)"  stroke-width="2.0"/>
<line x1="414.8" y1="241.9" x2="438.2" y2="255.2" stroke="rgb(0,0,0)"  stroke-width="2.0"/>
<line x1="410.5" y1="202.3" x2="430.3" y2="184.2" stroke="rgb(0,0,0)"  stroke-width="2.0"/>
<line x1="371.4" y1="194.2" x2="360.4" y2="169.7" stroke="rgb(0,0,0)"  stroke-width="2.0"/>
<line x1="113.1" y1="221.3" x2="113.2" y2="248.3" stroke="rgb(0,0,0)"  stroke-width="2.0"/>
<line x1="107.1" y1="221.3" x2="107.2" y2="248.3" stroke="rgb(0,0,0)"  stroke-width="2.0"/>
<line x1="64.4" y1="208.0" x2="52.4" y2="215.2" stroke="rgb(0,0,0)"  stroke-width="2.0"/>
<line x1="73.4" y1="163.7" x2="49.9" y2="150.4" stroke="rgb(0,0,0)"  stroke-width="2.0"/>
<line x1="76.3" y1="158.4" x2="52.8" y2="145.2" stroke="rgb(0,0,0)"  stroke-width="2.0"/>
<line x1="109.7" y1="100.7" x2="86.2" y2="87.5" stroke="rgb(0,0,0)"  stroke-width="2.0"/>
<line x1="210.5" y1="80.0" x2="210.3" y2="53.0" stroke="rgb(0,0,0)"  stroke-width="2.0"/>
<line x1="216.5" y1="80.0" x2="216.3" y2="53.0" stroke="rgb(0,0,0)"  stroke-width="2.0"/>
<line x1="259.7" y1="93.2" x2="271.8" y2="86.2" stroke="rgb(0,0,0)"  stroke-width="2.0"/>
<line x1="250.2" y1="137.6" x2="273.7" y2="151.0" stroke="rgb(0,0,0)"  stroke-width="2.0"/>
<line x1="247.2" y1="142.8" x2="270.7" y2="156.2" stroke="rgb(0,0,0)"  stroke-width="2.0"/>
<line x1="292.3" y1="267.8" x2="312.0" y2="233.2" stroke="rgb(0,0,0)"  stroke-width="2.0"/>
<line x1="289.0" y1="259.0" x2="302.8" y2="234.8" stroke="rgb(0,0,0)"  stroke-width="2.0"/>
<line x1="312.0" y1="233.2" x2="294.0" y2="213.3" stroke="rgb(0,0,0)"  stroke-width="2.0"/>
<line x1="273.4" y1="209.1" x2="248.9" y2="220.1" stroke="rgb(0,0,0)"  stroke-width="2.0"/>
<line x1="248.9" y1="220.1" x2="253.2" y2="259.7" stroke="rgb(0,0,0)"  stroke-width="2.0"/>
<line x1="256.7" y1="225.3" x2="259.7" y2="253.0" stroke="rgb(0,0,0)"  stroke-width="2.0"/>
<line x1="253.2" y1="259.7" x2="292.3" y2="267.8" stroke="rgb(0,0,0)"  stroke-width="2.0"/>
<line x1="414.8" y1="241.9" x2="410.5" y2="202.3" stroke="rgb(0,0,0)"  stroke-width="2.0"/>
<line x1="407.0" y1="236.7" x2="404.0" y2="209.0" stroke="rgb(0,0,0)"  stroke-width="2.0"/>
<line x1="410.5" y1="202.3" x2="371.4" y2="194.2" stroke="rgb(0,0,0)"  stroke-width="2.0"/>
<line x1="371.4" y1="194.2" x2="351.7" y2="228.8" stroke="rgb(0,0,0)"  stroke-width="2.0"/>
<line x1="374.7" y1="203.0" x2="360.9" y2="227.2" stroke="rgb(0,0,0)"  stroke-width="2.0"/>
<line x1="351.7" y1="228.8" x2="369.8" y2="248.7" stroke="rgb(0,0,0)"  stroke-width="2.0"/>
<line x1="390.3" y1="253.0" x2="414.8" y2="241.9" stroke="rgb(0,0,0)"  stroke-width="2.0"/>
<line x1="144.7" y1="201.0" x2="144.7" y2="160.5" stroke="rgb(0,0,0)"  stroke-width="2.0"/>
<line x1="151.9" y1="195.0" x2="151.9" y2="166.5" stroke="rgb(0,0,0)"  stroke-width="2.0"/>
<line x1="144.7" y1="160.5" x2="179.2" y2="140.3" stroke="rgb(0,0,0)"  stroke-width="2.0"/>
<line x1="179.2" y1="140.3" x2="214.1" y2="160.5" stroke="rgb(0,0,0)"  stroke-width="2.0"/>
<line x1="180.8" y1="149.6" x2="205.3" y2="163.7" stroke="rgb(0,0,0)"  stroke-width="2.0"/>
<line x1="214.1" y1="160.5" x2="214.3" y2="200.3" stroke="rgb(0,0,0)"  stroke-width="2.0"/>
<line x1="214.3" y1="200.3" x2="179.8" y2="220.5" stroke="rgb(0,0,0)"  stroke-width="2.0"/>
<line x1="205.4" y1="197.2" x2="181.3" y2="211.3" stroke="rgb(0,0,0)"  stroke-width="2.0"/>
<line x1="179.8" y1="220.5" x2="144.7" y2="201.0" stroke="rgb(0,0,0)"  stroke-width="2.0"/>
<line x1="74.9" y1="161.0" x2="109.5" y2="140.8" stroke="rgb(0,0,0)"  stroke-width="2.0"/>
<line x1="109.5" y1="140.8" x2="144.7" y2="160.5" stroke="rgb(0,0,0)"  stroke-width="2.0"/>
<line x1="144.7" y1="201.0" x2="110.1" y2="221.3" stroke="rgb(0,0,0)"  stroke-width="2.0"/>
<line x1="110.1" y1="221.3" x2="86.9" y2="207.9" stroke="rgb(0,0,0)"  stroke-width="2.0"/>
<line x1="75.4" y1="188.4" x2="74.9" y2="161.0" stroke="rgb(0,0,0)"  stroke-width="2.0"/>
<line x1="144.2" y1="80.5" x2="178.9" y2="100.3" stroke="rgb(0,0,0)"  stroke-width="2.0"/>
<line x1="145.9" y1="89.8" x2="170.1" y2="103.5" stroke="rgb(0,0,0)"  stroke-width="2.0"/>
<line x1="178.9" y1="100.3" x2="179.2" y2="140.3" stroke="rgb(0,0,0)"  stroke-width="2.0"/>
<line x1="109.5" y1="140.8" x2="109.7" y2="100.7" stroke="rgb(0,0,0)"  stroke-width="2.0"/>
<line x1="116.8" y1="134.8" x2="116.9" y2="106.7" stroke="rgb(0,0,0)"  stroke-width="2.0"/>
<line x1="109.7" y1="100.7" x2="144.2" y2="80.5" stroke="rgb(0,0,0)"  stroke-width="2.0"/>
<line x1="248.6" y1="112.8" x2="248.7" y2="140.2" stroke="rgb(0,0,0)"  stroke-width="2.0"/>
<line x1="248.7" y1="140.2" x2="214.1" y2="160.5" stroke="rgb(0,0,0)"  stroke-width="2.0"/>
<line x1="178.9" y1="100.3" x2="213.5" y2="80.0" stroke="rgb(0,0,0)"  stroke-width="2.0"/>
<line x1="213.5" y1="80.0" x2="237.2" y2="93.4" stroke="rgb(0,0,0)"  stroke-width="2.0"/>
<text x="69.622153" y="209.424583" fill="rgb(12,12,255)"  stroke="rgb(12,12,255)" stroke-width="1" font-size="16" >N</text>
<text x="35.179114" y="229.763635" fill="rgb(191,191,191)"  stroke="rgb(191,191,191)" stroke-width="1" font-size="16" >H</text>
<text x="34.000000" y="149.459720" fill="rgb(255,12,12)"  stroke="rgb(255,12,12)" stroke-width="1" font-size="16" >O</text>
<text x="68.869956" y="89.098227" fill="rgb(191,191,191)"  stroke="rgb(191,191,191)" stroke-width="1" font-size="16" >H</text>
<text x="104.207724" y="269.262652" fill="rgb(255,12,12)"  stroke="rgb(255,12,12)" stroke-width="1" font-size="16" >O</text>
<text x="207.254818" y="48.000000" fill="rgb(255,12,12)"  stroke="rgb(255,12,12)" stroke-width="1" font-size="16" >O</text>
<text x="242.499856" y="107.812356" fill="rgb(12,12,255)"  stroke="rgb(12,12,255)" stroke-width="1" font-size="16" >N</text>
<text x="277.002552" y="87.574670" fill="rgb(191,191,191)"  stroke="rgb(191,191,191)" stroke-width="1" font-size="16" >H</text>
<text x="277.475577" y="168.026274" fill="rgb(255,12,12)"  stroke="rgb(255,12,12)" stroke-width="1" font-size="16" >O</text>
<text x="217.757891" y="294.557577" fill="rgb(127,178,255)"  stroke="rgb(127,178,255)" stroke-width="1" font-size="16" >F</text>
<text x="302.687717" y="312.159671" fill="rgb(30,239,30)"  stroke="rgb(30,239,30)" stroke-width="1" font-size="16" >Cl</text>
<text x="279.218847" y="211.703016" fill="rgb(178,178,0)"  stroke="rgb(178,178,0)" stroke-width="1" font-size="16" >S</text>
<text x="372.499783" y="266.317478" fill="rgb(178,178,0)"  stroke="rgb(178,178,0)" stroke-width="1" font-size="16" >S</text>
<text x="443.464912" y="269.675328" fill="rgb(191,191,191)"  stroke="rgb(191,191,191)" stroke-width="1" font-size="16" >H</text>
<text x="433.960739" y="183.462917" fill="rgb(127,178,255)"  stroke="rgb(127,178,255)" stroke-width="1" font-size="16" >F</text>
<text x="337.030913" y="165.860823" fill="rgb(30,239,30)"  stroke="rgb(30,239,30)" stroke-width="1" font-size="16" >Cl</text>
</svg>
</g>
<text font-size="18.000000" fill ="black" font-family="sans-serif"
x="10.000000" y="20.000000" ></text>
</svg>
