<?xml version="1.0"?>
<svg version="1.1" id="topsvg"
xmlns="http://www.w3.org/2000/svg" xmlns:xlink="http://www.w3.org/1999/xlink"
xmlns:cml="http://www.xml-cml.org/schema" x="0" y="0" width="200px" height="200px" viewBox="0 0 100 100">
<title> - Open Babel Depiction</title>
<rect x="0" y="0" width="100" height="100" fill="white"/>
<g transform="translate(0,0)">
<svg width="100" height="100" x="0" y="0" viewBox="0 0 411.887 246.8"
font-family="sans-serif" stroke="rgb(0,0,0)" stroke-width="2"  stroke-linecap="round">
<line x1="173.2" y1="102.1" x2="212.3" y2="110.4" stroke="rgb(0,0,0)"  stroke-width="2.0"/>
<line x1="228.6" y1="146.9" x2="215.1" y2="170.3" stroke="rgb(0,0,0)"  stroke-width="2.0"/>
<line x1="332.8" y1="136.0" x2="359.2" y2="141.6" stroke="rgb(0,0,0)"  stroke-width="2.0"/>
<line x1="316.5" y1="99.5" x2="330.0" y2="76.1" stroke="rgb(0,0,0)"  stroke-width="2.0"/>
<line x1="137.4" y1="166.0" x2="155.5" y2="186.0" stroke="rgb(0,0,0)"  stroke-width="2.0"/>
<line x1="132.9" y1="170.0" x2="151.0" y2="190.0" stroke="rgb(0,0,0)"  stroke-width="2.0"/>
<line x1="88.9" y1="183.4" x2="81.9" y2="195.5" stroke="rgb(0,0,0)"  stroke-width="2.0"/>
<line x1="78.5" y1="138.6" x2="52.1" y2="132.9" stroke="rgb(0,0,0)"  stroke-width="2.0"/>
<line x1="79.7" y1="132.7" x2="53.3" y2="127.1" stroke="rgb(0,0,0)"  stroke-width="2.0"/>
<line x1="117.2" y1="69.7" x2="99.1" y2="49.7" stroke="rgb(0,0,0)"  stroke-width="2.0"/>
<line x1="268.4" y1="142.8" x2="276.7" y2="103.6" stroke="rgb(0,0,0)"  stroke-width="2.0"/>
<line x1="262.6" y1="135.4" x2="268.4" y2="108.0" stroke="rgb(0,0,0)"  stroke-width="2.0"/>
<line x1="276.7" y1="103.6" x2="253.3" y2="90.1" stroke="rgb(0,0,0)"  stroke-width="2.0"/>
<line x1="232.4" y1="92.3" x2="212.3" y2="110.4" stroke="rgb(0,0,0)"  stroke-width="2.0"/>
<line x1="212.3" y1="110.4" x2="228.6" y2="146.9" stroke="rgb(0,0,0)"  stroke-width="2.0"/>
<line x1="221.4" y1="113.0" x2="232.8" y2="138.5" stroke="rgb(0,0,0)"  stroke-width="2.0"/>
<line x1="228.6" y1="146.9" x2="268.4" y2="142.8" stroke="rgb(0,0,0)"  stroke-width="2.0"/>
<line x1="332.8" y1="136.0" x2="316.5" y2="99.5" stroke="rgb(0,0,0)"  stroke-width="2.0"/>
<line x1="323.7" y1="133.4" x2="312.4" y2="107.9" stroke="rgb(0,0,0)"  stroke-width="2.0"/>
<line x1="316.5" y1="99.5" x2="276.7" y2="103.6" stroke="rgb(0,0,0)"  stroke-width="2.0"/>
<line x1="268.4" y1="142.8" x2="291.8" y2="156.3" stroke="rgb(0,0,0)"  stroke-width="2.0"/>
<line x1="312.7" y1="154.1" x2="332.8" y2="136.0" stroke="rgb(0,0,0)"  stroke-width="2.0"/>
<line x1="108.9" y1="108.9" x2="117.2" y2="69.7" stroke="rgb(0,0,0)"  stroke-width="2.0"/>
<line x1="117.1" y1="104.5" x2="123.0" y2="77.1" stroke="rgb(0,0,0)"  stroke-width="2.0"/>
<line x1="117.2" y1="69.7" x2="144.0" y2="66.9" stroke="rgb(0,0,0)"  stroke-width="2.0"/>
<line x1="162.2" y1="77.4" x2="173.2" y2="102.1" stroke="rgb(0,0,0)"  stroke-width="2.0"/>
<line x1="173.2" y1="102.1" x2="143.5" y2="128.9" stroke="rgb(0,0,0)"  stroke-width="2.0"/>
<line x1="163.9" y1="100.8" x2="143.1" y2="119.5" stroke="rgb(0,0,0)"  stroke-width="2.0"/>
<line x1="143.5" y1="128.9" x2="108.9" y2="108.9" stroke="rgb(0,0,0)"  stroke-width="2.0"/>
<line x1="135.2" y1="168.0" x2="108.3" y2="170.8" stroke="rgb(0,0,0)"  stroke-width="2.0"/>
<line x1="90.1" y1="160.3" x2="79.1" y2="135.6" stroke="rgb(0,0,0)"  stroke-width="2.0"/>
<line x1="79.1" y1="135.6" x2="108.9" y2="108.9" stroke="rgb(0,0,0)"  stroke-width="2.0"/>
<line x1="143.5" y1="128.9" x2="135.2" y2="168.0" stroke="rgb(0,0,0)"  stroke-width="2.0"/>
<text x="236.070203" y="91.637716" fill="rgb(178,178,0)"  stroke="rgb(178,178,0)" stroke-width="1" font-size="16" >S</text>
<text x="150.949040" y="73.544654" fill="rgb(178,178,0)"  stroke="rgb(178,178,0)" stroke-width="1" font-size="16" >S</text>
<text x="84.402940" y="48.000000" fill="rgb(191,191,191)"  stroke="rgb(191,191,191)" stroke-width="1" font-size="16" >H</text>
<text x="34.000000" y="135.300454" fill="rgb(255,12,12)"  stroke="rgb(255,12,12)" stroke-width="1" font-size="16" >O</text>
<text x="69.395370" y="214.799756" fill="rgb(191,191,191)"  stroke="rgb(191,191,191)" stroke-width="1" font-size="16" >H</text>
<text x="89.395370" y="180.158740" fill="rgb(12,12,255)"  stroke="rgb(12,12,255)" stroke-width="1" font-size="16" >N</text>
<text x="155.941470" y="205.703394" fill="rgb(255,12,12)"  stroke="rgb(255,12,12)" stroke-width="1" font-size="16" >O</text>
<text x="330.492095" y="72.815561" fill="rgb(191,191,191)"  stroke="rgb(191,191,191)" stroke-width="1" font-size="16" >H</text>
<text x="365.887465" y="152.314864" fill="rgb(191,191,191)"  stroke="rgb(191,191,191)" stroke-width="1" font-size="16" >H</text>
<text x="297.035768" y="170.763620" fill="rgb(178,178,0)"  stroke="rgb(178,178,0)" stroke-width="1" font-size="16" >S</text>
<text x="202.613876" y="189.585775" fill="rgb(191,191,191)"  stroke="rgb(191,191,191)" stroke-width="1" font-size="16" >H</text>
</svg>
</g>
<text font-size="18.000000" fill ="black" font-family="sans-serif"
x="10.000000" y="20.000000" ></text>
</svg>
