<?xml version="1.0"?>
<svg version="1.1" id="topsvg"
xmlns="http://www.w3.org/2000/svg" xmlns:xlink="http://www.w3.org/1999/xlink"
xmlns:cml="http://www.xml-cml.org/schema" x="0" y="0" width="200px" height="200px" viewBox="0 0 100 100">
<title> - Open Babel Depiction</title>
<rect x="0" y="0" width="100" height="100" fill="white"/>
<g transform="translate(0,0)">
<svg width="100" height="100" x="0" y="0" viewBox="0 0 446.154 495.703"
font-family="sans-serif" stroke="rgb(0,0,0)" stroke-width="2"  stroke-linecap="round">
<line x1="218.9" y1="210.3" x2="198.1" y2="246.4" stroke="rgb(0,0,0)"  stroke-width="2.0"/>
<line x1="156.7" y1="250.7" x2="137.6" y2="229.5" stroke="rgb(0,0,0)"  stroke-width="2.0"/>
<line x1="112.1" y1="312.2" x2="76.0" y2="291.4" stroke="rgb(0,0,0)"  stroke-width="2.0"/>
<line x1="77.5" y1="294.0" x2="52.8" y2="308.3" stroke="rgb(0,0,0)"  stroke-width="2.0"/>
<line x1="74.5" y1="288.8" x2="49.8" y2="303.1" stroke="rgb(0,0,0)"  stroke-width="2.0"/>
<line x1="76.0" y1="291.4" x2="76.0" y2="262.8" stroke="rgb(0,0,0)"  stroke-width="2.0"/>
<line x1="64.8" y1="243.3" x2="51.3" y2="235.5" stroke="rgb(0,0,0)"  stroke-width="2.0"/>
<line x1="98.1" y1="419.7" x2="83.8" y2="444.4" stroke="rgb(0,0,0)"  stroke-width="2.0"/>
<line x1="139.4" y1="415.3" x2="158.6" y2="436.6" stroke="rgb(0,0,0)"  stroke-width="2.0"/>
<line x1="184.1" y1="353.8" x2="220.2" y2="374.6" stroke="rgb(0,0,0)"  stroke-width="2.0"/>
<line x1="218.7" y1="372.0" x2="243.4" y2="357.7" stroke="rgb(0,0,0)"  stroke-width="2.0"/>
<line x1="221.7" y1="377.2" x2="246.4" y2="362.9" stroke="rgb(0,0,0)"  stroke-width="2.0"/>
<line x1="220.2" y1="374.6" x2="220.2" y2="403.2" stroke="rgb(0,0,0)"  stroke-width="2.0"/>
<line x1="231.4" y1="422.7" x2="244.9" y2="430.5" stroke="rgb(0,0,0)"  stroke-width="2.0"/>
<line x1="325.5" y1="172.8" x2="339.8" y2="197.6" stroke="rgb(0,0,0)"  stroke-width="2.0"/>
<line x1="320.3" y1="175.8" x2="334.6" y2="200.6" stroke="rgb(0,0,0)"  stroke-width="2.0"/>
<line x1="356.7" y1="138.3" x2="372.4" y2="138.3" stroke="rgb(0,0,0)"  stroke-width="2.0"/>
<line x1="391.9" y1="127.0" x2="399.7" y2="113.5" stroke="rgb(0,0,0)"  stroke-width="2.0"/>
<line x1="320.3" y1="100.7" x2="334.6" y2="76.0" stroke="rgb(0,0,0)"  stroke-width="2.0"/>
<line x1="325.5" y1="103.7" x2="339.8" y2="79.0" stroke="rgb(0,0,0)"  stroke-width="2.0"/>
<line x1="259.5" y1="78.7" x2="270.0" y2="52.1" stroke="rgb(0,0,0)"  stroke-width="2.0"/>
<line x1="176.8" y1="110.8" x2="163.0" y2="85.7" stroke="rgb(0,0,0)"  stroke-width="2.0"/>
<line x1="182.0" y1="107.9" x2="168.2" y2="82.8" stroke="rgb(0,0,0)"  stroke-width="2.0"/>
<line x1="149.2" y1="131.7" x2="133.8" y2="129.0" stroke="rgb(0,0,0)"  stroke-width="2.0"/>
<line x1="116.5" y1="114.7" x2="111.0" y2="100.0" stroke="rgb(0,0,0)"  stroke-width="2.0"/>
<line x1="172.4" y1="160.7" x2="190.8" y2="179.1" stroke="rgb(0,0,0)"  stroke-width="2.0"/>
<line x1="168.2" y1="164.9" x2="186.5" y2="183.4" stroke="rgb(0,0,0)"  stroke-width="2.0"/>
<line x1="148.1" y1="291.4" x2="184.1" y2="312.2" stroke="rgb(0,0,0)"  stroke-width="2.0"/>
<line x1="184.1" y1="312.2" x2="205.4" y2="293.1" stroke="rgb(0,0,0)"  stroke-width="2.0"/>
<line x1="209.8" y1="272.5" x2="198.1" y2="246.4" stroke="rgb(0,0,0)"  stroke-width="2.0"/>
<line x1="198.1" y1="246.4" x2="156.7" y2="250.7" stroke="rgb(0,0,0)"  stroke-width="2.0"/>
<line x1="192.9" y1="254.2" x2="163.5" y2="257.2" stroke="rgb(0,0,0)"  stroke-width="2.0"/>
<line x1="156.7" y1="250.7" x2="148.1" y2="291.4" stroke="rgb(0,0,0)"  stroke-width="2.0"/>
<line x1="98.1" y1="419.7" x2="139.4" y2="415.3" stroke="rgb(0,0,0)"  stroke-width="2.0"/>
<line x1="103.3" y1="411.9" x2="132.7" y2="408.8" stroke="rgb(0,0,0)"  stroke-width="2.0"/>
<line x1="139.4" y1="415.3" x2="148.1" y2="374.6" stroke="rgb(0,0,0)"  stroke-width="2.0"/>
<line x1="148.1" y1="374.6" x2="112.1" y2="353.8" stroke="rgb(0,0,0)"  stroke-width="2.0"/>
<line x1="139.3" y1="377.9" x2="113.7" y2="363.1" stroke="rgb(0,0,0)"  stroke-width="2.0"/>
<line x1="112.1" y1="353.8" x2="90.8" y2="373.0" stroke="rgb(0,0,0)"  stroke-width="2.0"/>
<line x1="86.4" y1="393.5" x2="98.1" y2="419.7" stroke="rgb(0,0,0)"  stroke-width="2.0"/>
<line x1="148.1" y1="374.6" x2="184.1" y2="353.8" stroke="rgb(0,0,0)"  stroke-width="2.0"/>
<line x1="184.1" y1="353.8" x2="184.1" y2="312.2" stroke="rgb(0,0,0)"  stroke-width="2.0"/>
<line x1="176.9" y1="347.8" x2="176.9" y2="318.2" stroke="rgb(0,0,0)"  stroke-width="2.0"/>
<line x1="148.1" y1="291.4" x2="112.1" y2="312.2" stroke="rgb(0,0,0)"  stroke-width="2.0"/>
<line x1="146.5" y1="300.6" x2="120.9" y2="315.5" stroke="rgb(0,0,0)"  stroke-width="2.0"/>
<line x1="112.1" y1="312.2" x2="112.1" y2="353.8" stroke="rgb(0,0,0)"  stroke-width="2.0"/>
<line x1="281.3" y1="174.3" x2="260.5" y2="138.3" stroke="rgb(0,0,0)"  stroke-width="2.0"/>
<line x1="272.1" y1="172.7" x2="257.3" y2="147.1" stroke="rgb(0,0,0)"  stroke-width="2.0"/>
<line x1="260.5" y1="138.3" x2="218.9" y2="138.3" stroke="rgb(0,0,0)"  stroke-width="2.0"/>
<line x1="218.9" y1="138.3" x2="198.1" y2="174.3" stroke="rgb(0,0,0)"  stroke-width="2.0"/>
<line x1="222.2" y1="147.1" x2="207.4" y2="172.7" stroke="rgb(0,0,0)"  stroke-width="2.0"/>
<line x1="198.1" y1="174.3" x2="218.9" y2="210.3" stroke="rgb(0,0,0)"  stroke-width="2.0"/>
<line x1="218.9" y1="210.3" x2="260.5" y2="210.3" stroke="rgb(0,0,0)"  stroke-width="2.0"/>
<line x1="224.9" y1="203.1" x2="254.5" y2="203.1" stroke="rgb(0,0,0)"  stroke-width="2.0"/>
<line x1="260.5" y1="210.3" x2="281.3" y2="174.3" stroke="rgb(0,0,0)"  stroke-width="2.0"/>
<line x1="322.9" y1="102.2" x2="281.3" y2="102.2" stroke="rgb(0,0,0)"  stroke-width="2.0"/>
<line x1="281.3" y1="102.2" x2="260.5" y2="138.3" stroke="rgb(0,0,0)"  stroke-width="2.0"/>
<line x1="281.3" y1="174.3" x2="322.9" y2="174.3" stroke="rgb(0,0,0)"  stroke-width="2.0"/>
<line x1="322.9" y1="174.3" x2="337.2" y2="149.5" stroke="rgb(0,0,0)"  stroke-width="2.0"/>
<line x1="337.2" y1="127.0" x2="322.9" y2="102.2" stroke="rgb(0,0,0)"  stroke-width="2.0"/>
<line x1="227.5" y1="81.1" x2="209.5" y2="107.6" stroke="rgb(0,0,0)"  stroke-width="2.0"/>
<line x1="230.1" y1="90.1" x2="218.8" y2="106.7" stroke="rgb(0,0,0)"  stroke-width="2.0"/>
<line x1="209.5" y1="107.6" x2="218.9" y2="138.3" stroke="rgb(0,0,0)"  stroke-width="2.0"/>
<line x1="281.3" y1="102.2" x2="259.5" y2="78.7" stroke="rgb(0,0,0)"  stroke-width="2.0"/>
<line x1="272.0" y1="102.7" x2="258.3" y2="88.0" stroke="rgb(0,0,0)"  stroke-width="2.0"/>
<line x1="259.5" y1="78.7" x2="227.5" y2="81.1" stroke="rgb(0,0,0)"  stroke-width="2.0"/>
<line x1="165.6" y1="146.3" x2="170.3" y2="162.8" stroke="rgb(0,0,0)"  stroke-width="2.0"/>
<line x1="170.3" y1="162.8" x2="198.1" y2="174.3" stroke="rgb(0,0,0)"  stroke-width="2.0"/>
<line x1="209.5" y1="107.6" x2="179.4" y2="109.3" stroke="rgb(0,0,0)"  stroke-width="2.0"/>
<line x1="179.4" y1="109.3" x2="169.5" y2="123.2" stroke="rgb(0,0,0)"  stroke-width="2.0"/>
<text x="337.745047" y="218.335487" fill="rgb(255,12,12)"  stroke="rgb(255,12,12)" stroke-width="1" font-size="16" >O</text>
<text x="337.745047" y="146.271773" fill="rgb(12,12,255)"  stroke="rgb(12,12,255)" stroke-width="1" font-size="16" >N</text>
<text x="379.351052" y="146.271773" fill="rgb(255,12,12)"  stroke="rgb(255,12,12)" stroke-width="1" font-size="16" >O</text>
<text x="402.154054" y="110.239916" fill="rgb(102,102,102)"  stroke="rgb(102,102,102)" stroke-width="1" font-size="16" >CH</text>
<text x="426.154054" y="113.919916" fill="rgb(102,102,102)"  stroke="rgb(102,102,102)" stroke-width="1" font-size="13" >3</text>
<text x="337.745047" y="74.208058" fill="rgb(255,12,12)"  stroke="rgb(255,12,12)" stroke-width="1" font-size="16" >O</text>
<text x="268.722348" y="48.000000" fill="rgb(191,191,191)"  stroke="rgb(191,191,191)" stroke-width="1" font-size="16" >H</text>
<text x="153.304549" y="80.883369" fill="rgb(255,12,12)"  stroke="rgb(255,12,12)" stroke-width="1" font-size="16" >O</text>
<text x="155.992904" y="141.848337" fill="rgb(12,12,255)"  stroke="rgb(12,12,255)" stroke-width="1" font-size="16" >N</text>
<text x="114.976852" y="134.866705" fill="rgb(255,12,12)"  stroke="rgb(255,12,12)" stroke-width="1" font-size="16" >O</text>
<text x="80.515098" y="95.854946" fill="rgb(102,102,102)"  stroke="rgb(102,102,102)" stroke-width="1" font-size="16" >H</text>
<text x="92.515098" y="99.534946" fill="rgb(102,102,102)"  stroke="rgb(102,102,102)" stroke-width="1" font-size="13" >3</text>
<text x="99.015098" y="95.854946" fill="rgb(102,102,102)"  stroke="rgb(102,102,102)" stroke-width="1" font-size="16" >C</text>
<text x="191.834496" y="198.466970" fill="rgb(255,12,12)"  stroke="rgb(255,12,12)" stroke-width="1" font-size="16" >O</text>
<text x="110.906095" y="227.797069" fill="rgb(255,12,12)"  stroke="rgb(255,12,12)" stroke-width="1" font-size="16" >HO</text>
<text x="34.000000" y="320.216173" fill="rgb(255,12,12)"  stroke="rgb(255,12,12)" stroke-width="1" font-size="16" >O</text>
<text x="70.031857" y="257.807165" fill="rgb(255,12,12)"  stroke="rgb(255,12,12)" stroke-width="1" font-size="16" >O</text>
<text x="14.000000" y="237.004163" fill="rgb(102,102,102)"  stroke="rgb(102,102,102)" stroke-width="1" font-size="16" >H</text>
<text x="26.000000" y="240.684163" fill="rgb(102,102,102)"  stroke="rgb(102,102,102)" stroke-width="1" font-size="13" >3</text>
<text x="32.500000" y="237.004163" fill="rgb(102,102,102)"  stroke="rgb(102,102,102)" stroke-width="1" font-size="16" >C</text>
<text x="75.144427" y="389.662029" fill="rgb(178,178,0)"  stroke="rgb(178,178,0)" stroke-width="1" font-size="16" >S</text>
<text x="71.264112" y="463.702863" fill="rgb(191,191,191)"  stroke="rgb(191,191,191)" stroke-width="1" font-size="16" >H</text>
<text x="161.285048" y="454.241282" fill="rgb(255,12,12)"  stroke="rgb(255,12,12)" stroke-width="1" font-size="16" >OH</text>
<text x="250.191144" y="361.822178" fill="rgb(255,12,12)"  stroke="rgb(255,12,12)" stroke-width="1" font-size="16" >O</text>
<text x="214.159286" y="424.231185" fill="rgb(255,12,12)"  stroke="rgb(255,12,12)" stroke-width="1" font-size="16" >O</text>
<text x="252.191144" y="445.034188" fill="rgb(102,102,102)"  stroke="rgb(102,102,102)" stroke-width="1" font-size="16" >CH</text>
<text x="276.191144" y="448.714188" fill="rgb(102,102,102)"  stroke="rgb(102,102,102)" stroke-width="1" font-size="13" >3</text>
<text x="209.046716" y="292.376322" fill="rgb(178,178,0)"  stroke="rgb(178,178,0)" stroke-width="1" font-size="16" >S</text>
</svg>
</g>
<text font-size="18.000000" fill ="black" font-family="sans-serif"
x="10.000000" y="20.000000" ></text>
</svg>
