<?xml version="1.0"?>
<svg version="1.1" id="topsvg"
xmlns="http://www.w3.org/2000/svg" xmlns:xlink="http://www.w3.org/1999/xlink"
xmlns:cml="http://www.xml-cml.org/schema" x="0" y="0" width="200px" height="200px" viewBox="0 0 100 100">
<title> - Open Babel Depiction</title>
<rect x="0" y="0" width="100" height="100" fill="white"/>
<g transform="translate(0,0)">
<svg width="100" height="100" x="0" y="0" viewBox="0 0 401.441 478.614"
font-family="sans-serif" stroke="rgb(0,0,0)" stroke-width="2"  stroke-linecap="round">
<line x1="143.2" y1="278.4" x2="125.0" y2="309.9" stroke="rgb(0,0,0)"  stroke-width="2.0"/>
<line x1="88.8" y1="313.7" x2="64.4" y2="286.7" stroke="rgb(0,0,0)"  stroke-width="2.0"/>
<line x1="64.4" y1="286.7" x2="48.7" y2="269.2" stroke="rgb(0,0,0)"  stroke-width="2.0"/>
<line x1="61.3" y1="289.5" x2="45.6" y2="272.0" stroke="rgb(0,0,0)"  stroke-width="2.0"/>
<line x1="67.5" y1="283.8" x2="51.8" y2="266.4" stroke="rgb(0,0,0)"  stroke-width="2.0"/>
<line x1="68.9" y1="407.1" x2="57.2" y2="427.4" stroke="rgb(0,0,0)"  stroke-width="2.0"/>
<line x1="105.2" y1="403.2" x2="212.6" y2="230.2" stroke="rgb(0,0,0)"  stroke-width="2.0"/>
<line x1="212.6" y1="230.2" x2="189.2" y2="230.2" stroke="rgb(0,0,0)"  stroke-width="2.0"/>
<line x1="212.6" y1="234.4" x2="189.2" y2="234.4" stroke="rgb(0,0,0)"  stroke-width="2.0"/>
<line x1="212.6" y1="226.0" x2="189.2" y2="226.0" stroke="rgb(0,0,0)"  stroke-width="2.0"/>
<line x1="158.4" y1="159.2" x2="158.4" y2="135.7" stroke="rgb(0,0,0)"  stroke-width="2.0"/>
<line x1="164.4" y1="159.2" x2="164.4" y2="135.7" stroke="rgb(0,0,0)"  stroke-width="2.0"/>
<line x1="119.6" y1="176.6" x2="97.3" y2="169.3" stroke="rgb(0,0,0)"  stroke-width="2.0"/>
<line x1="99.3" y1="171.6" x2="81.9" y2="187.2" stroke="rgb(0,0,0)"  stroke-width="2.0"/>
<line x1="95.3" y1="167.1" x2="77.9" y2="182.8" stroke="rgb(0,0,0)"  stroke-width="2.0"/>
<line x1="97.3" y1="169.3" x2="92.4" y2="146.4" stroke="rgb(0,0,0)"  stroke-width="2.0"/>
<line x1="99.4" y1="125.0" x2="107.2" y2="118.0" stroke="rgb(0,0,0)"  stroke-width="2.0"/>
<line x1="190.0" y1="177.7" x2="224.7" y2="166.5" stroke="rgb(0,0,0)"  stroke-width="2.0"/>
<line x1="191.9" y1="183.4" x2="226.5" y2="172.2" stroke="rgb(0,0,0)"  stroke-width="2.0"/>
<line x1="258.1" y1="190.8" x2="258.1" y2="214.2" stroke="rgb(0,0,0)"  stroke-width="2.0"/>
<line x1="252.1" y1="190.8" x2="252.1" y2="214.2" stroke="rgb(0,0,0)"  stroke-width="2.0"/>
<line x1="296.9" y1="173.4" x2="319.2" y2="180.6" stroke="rgb(0,0,0)"  stroke-width="2.0"/>
<line x1="317.2" y1="178.4" x2="334.6" y2="162.7" stroke="rgb(0,0,0)"  stroke-width="2.0"/>
<line x1="321.2" y1="182.8" x2="338.6" y2="167.1" stroke="rgb(0,0,0)"  stroke-width="2.0"/>
<line x1="319.2" y1="180.6" x2="324.1" y2="203.5" stroke="rgb(0,0,0)"  stroke-width="2.0"/>
<line x1="339.1" y1="220.3" x2="349.1" y2="223.5" stroke="rgb(0,0,0)"  stroke-width="2.0"/>
<line x1="273.3" y1="71.6" x2="285.0" y2="51.3" stroke="rgb(0,0,0)"  stroke-width="2.0"/>
<line x1="81.2" y1="349.4" x2="112.7" y2="367.6" stroke="rgb(0,0,0)"  stroke-width="2.0"/>
<line x1="90.0" y1="346.1" x2="111.2" y2="358.4" stroke="rgb(0,0,0)"  stroke-width="2.0"/>
<line x1="112.7" y1="367.6" x2="130.2" y2="351.9" stroke="rgb(0,0,0)"  stroke-width="2.0"/>
<line x1="134.5" y1="331.3" x2="125.0" y2="309.9" stroke="rgb(0,0,0)"  stroke-width="2.0"/>
<line x1="125.0" y1="309.9" x2="88.8" y2="313.7" stroke="rgb(0,0,0)"  stroke-width="2.0"/>
<line x1="119.8" y1="317.7" x2="95.5" y2="320.3" stroke="rgb(0,0,0)"  stroke-width="2.0"/>
<line x1="88.8" y1="313.7" x2="81.2" y2="349.4" stroke="rgb(0,0,0)"  stroke-width="2.0"/>
<line x1="68.9" y1="407.1" x2="105.2" y2="403.2" stroke="rgb(0,0,0)"  stroke-width="2.0"/>
<line x1="74.1" y1="399.3" x2="98.5" y2="396.7" stroke="rgb(0,0,0)"  stroke-width="2.0"/>
<line x1="105.2" y1="403.2" x2="112.7" y2="367.6" stroke="rgb(0,0,0)"  stroke-width="2.0"/>
<line x1="81.2" y1="349.4" x2="63.8" y2="365.1" stroke="rgb(0,0,0)"  stroke-width="2.0"/>
<line x1="59.4" y1="385.6" x2="68.9" y2="407.1" stroke="rgb(0,0,0)"  stroke-width="2.0"/>
<line x1="197.9" y1="246.8" x2="179.7" y2="215.3" stroke="rgb(0,0,0)"  stroke-width="2.0"/>
<line x1="188.7" y1="245.2" x2="176.4" y2="224.0" stroke="rgb(0,0,0)"  stroke-width="2.0"/>
<line x1="179.7" y1="215.3" x2="143.2" y2="215.3" stroke="rgb(0,0,0)"  stroke-width="2.0"/>
<line x1="143.2" y1="215.3" x2="125.0" y2="246.8" stroke="rgb(0,0,0)"  stroke-width="2.0"/>
<line x1="146.5" y1="224.0" x2="134.2" y2="245.2" stroke="rgb(0,0,0)"  stroke-width="2.0"/>
<line x1="125.0" y1="246.8" x2="143.2" y2="278.4" stroke="rgb(0,0,0)"  stroke-width="2.0"/>
<line x1="143.2" y1="278.4" x2="179.7" y2="278.4" stroke="rgb(0,0,0)"  stroke-width="2.0"/>
<line x1="149.2" y1="271.2" x2="173.7" y2="271.2" stroke="rgb(0,0,0)"  stroke-width="2.0"/>
<line x1="179.7" y1="278.4" x2="197.9" y2="246.8" stroke="rgb(0,0,0)"  stroke-width="2.0"/>
<line x1="236.8" y1="71.6" x2="218.6" y2="103.1" stroke="rgb(0,0,0)"  stroke-width="2.0"/>
<line x1="218.6" y1="103.1" x2="236.8" y2="134.7" stroke="rgb(0,0,0)"  stroke-width="2.0"/>
<line x1="227.9" y1="104.7" x2="240.1" y2="125.9" stroke="rgb(0,0,0)"  stroke-width="2.0"/>
<line x1="236.8" y1="134.7" x2="273.3" y2="134.7" stroke="rgb(0,0,0)"  stroke-width="2.0"/>
<line x1="273.3" y1="134.7" x2="291.5" y2="103.1" stroke="rgb(0,0,0)"  stroke-width="2.0"/>
<line x1="270.1" y1="125.9" x2="282.3" y2="104.7" stroke="rgb(0,0,0)"  stroke-width="2.0"/>
<line x1="291.5" y1="103.1" x2="273.3" y2="71.6" stroke="rgb(0,0,0)"  stroke-width="2.0"/>
<line x1="273.3" y1="71.6" x2="236.8" y2="71.6" stroke="rgb(0,0,0)"  stroke-width="2.0"/>
<line x1="267.3" y1="78.8" x2="242.8" y2="78.8" stroke="rgb(0,0,0)"  stroke-width="2.0"/>
<line x1="161.4" y1="159.2" x2="142.5" y2="173.0" stroke="rgb(0,0,0)"  stroke-width="2.0"/>
<line x1="136.0" y1="193.0" x2="143.2" y2="215.3" stroke="rgb(0,0,0)"  stroke-width="2.0"/>
<line x1="179.7" y1="215.3" x2="190.9" y2="180.6" stroke="rgb(0,0,0)"  stroke-width="2.0"/>
<line x1="190.9" y1="180.6" x2="161.4" y2="159.2" stroke="rgb(0,0,0)"  stroke-width="2.0"/>
<line x1="280.5" y1="157.0" x2="273.3" y2="134.7" stroke="rgb(0,0,0)"  stroke-width="2.0"/>
<line x1="236.8" y1="134.7" x2="225.6" y2="169.3" stroke="rgb(0,0,0)"  stroke-width="2.0"/>
<line x1="225.6" y1="169.3" x2="255.1" y2="190.8" stroke="rgb(0,0,0)"  stroke-width="2.0"/>
<line x1="255.1" y1="190.8" x2="274.0" y2="177.0" stroke="rgb(0,0,0)"  stroke-width="2.0"/>
<text x="340.288321" y="164.210425" fill="rgb(255,12,12)"  stroke="rgb(255,12,12)" stroke-width="1" font-size="16" >O</text>
<text x="64.230008" y="201.716913" fill="rgb(255,12,12)"  stroke="rgb(255,12,12)" stroke-width="1" font-size="16" >O</text>
<text x="83.734335" y="141.688769" fill="rgb(255,12,12)"  stroke="rgb(255,12,12)" stroke-width="1" font-size="16" >O</text>
<text x="112.815131" y="117.305111" fill="rgb(102,102,102)"  stroke="rgb(102,102,102)" stroke-width="1" font-size="16" >CH</text>
<text x="136.815131" y="120.985111" fill="rgb(102,102,102)"  stroke="rgb(102,102,102)" stroke-width="1" font-size="13" >3</text>
<text x="249.069028" y="235.193429" fill="rgb(255,12,12)"  stroke="rgb(255,12,12)" stroke-width="1" font-size="16" >O</text>
<text x="278.550259" y="177.333255" fill="rgb(12,12,255)"  stroke="rgb(12,12,255)" stroke-width="1" font-size="16" >N</text>
<text x="320.783994" y="224.238570" fill="rgb(255,12,12)"  stroke="rgb(255,12,12)" stroke-width="1" font-size="16" >O</text>
<text x="357.441259" y="235.499398" fill="rgb(102,102,102)"  stroke="rgb(102,102,102)" stroke-width="1" font-size="16" >CH</text>
<text x="381.441259" y="239.179398" fill="rgb(102,102,102)"  stroke="rgb(102,102,102)" stroke-width="1" font-size="13" >3</text>
<text x="285.509834" y="48.000000" fill="rgb(191,191,191)"  stroke="rgb(191,191,191)" stroke-width="1" font-size="16" >H</text>
<text x="170.163288" y="238.151596" fill="rgb(12,12,255)"  stroke="rgb(12,12,255)" stroke-width="1" font-size="16" >N</text>
<text x="34.000000" y="267.574848" fill="rgb(12,12,255)"  stroke="rgb(12,12,255)" stroke-width="1" font-size="16" >N</text>
<text x="48.110051" y="381.764585" fill="rgb(178,178,0)"  stroke="rgb(178,178,0)" stroke-width="1" font-size="16" >S</text>
<text x="44.711459" y="446.613580" fill="rgb(191,191,191)"  stroke="rgb(191,191,191)" stroke-width="1" font-size="16" >H</text>
<text x="133.830306" y="351.217671" fill="rgb(178,178,0)"  stroke="rgb(178,178,0)" stroke-width="1" font-size="16" >S</text>
<text x="155.449301" y="130.733910" fill="rgb(255,12,12)"  stroke="rgb(255,12,12)" stroke-width="1" font-size="16" >O</text>
<text x="125.968070" y="188.594083" fill="rgb(12,12,255)"  stroke="rgb(12,12,255)" stroke-width="1" font-size="16" >N</text>
</svg>
</g>
<text font-size="18.000000" fill ="black" font-family="sans-serif"
x="10.000000" y="20.000000" ></text>
</svg>
