<?xml version="1.0"?>
<svg version="1.1" id="topsvg"
xmlns="http://www.w3.org/2000/svg" xmlns:xlink="http://www.w3.org/1999/xlink"
xmlns:cml="http://www.xml-cml.org/schema" x="0" y="0" width="200px" height="200px" viewBox="0 0 100 100">
<title> - Open Babel Depiction</title>
<rect x="0" y="0" width="100" height="100" fill="white"/>
<g transform="translate(0,0)">
<svg width="100" height="100" x="0" y="0" viewBox="0 0 530.868 335.746"
font-family="sans-serif" stroke="rgb(0,0,0)" stroke-width="2"  stroke-linecap="round">
<line x1="257.1" y1="233.7" x2="218.0" y2="225.3" stroke="rgb(0,0,0)"  stroke-width="2.0"/>
<line x1="188.3" y1="252.1" x2="191.1" y2="279.0" stroke="rgb(0,0,0)"  stroke-width="2.0"/>
<line x1="153.6" y1="232.1" x2="129.0" y2="243.1" stroke="rgb(0,0,0)"  stroke-width="2.0"/>
<line x1="161.9" y1="193.0" x2="135.2" y2="163.3" stroke="rgb(0,0,0)"  stroke-width="2.0"/>
<line x1="79.1" y1="130.9" x2="52.7" y2="125.3" stroke="rgb(0,0,0)"  stroke-width="2.0"/>
<line x1="108.9" y1="104.1" x2="106.0" y2="77.3" stroke="rgb(0,0,0)"  stroke-width="2.0"/>
<line x1="143.5" y1="124.1" x2="168.2" y2="113.1" stroke="rgb(0,0,0)"  stroke-width="2.0"/>
<line x1="285.3" y1="169.5" x2="262.0" y2="156.0" stroke="rgb(0,0,0)"  stroke-width="2.0"/>
<line x1="288.3" y1="164.3" x2="265.0" y2="150.8" stroke="rgb(0,0,0)"  stroke-width="2.0"/>
<line x1="329.8" y1="107.8" x2="303.0" y2="78.0" stroke="rgb(0,0,0)"  stroke-width="2.0"/>
<line x1="300.2" y1="77.1" x2="308.5" y2="51.4" stroke="rgb(0,0,0)"  stroke-width="2.0"/>
<line x1="305.9" y1="79.0" x2="314.2" y2="53.3" stroke="rgb(0,0,0)"  stroke-width="2.0"/>
<line x1="303.0" y1="78.0" x2="276.6" y2="83.7" stroke="rgb(0,0,0)"  stroke-width="2.0"/>
<line x1="259.9" y1="98.7" x2="255.6" y2="112.0" stroke="rgb(0,0,0)"  stroke-width="2.0"/>
<line x1="385.9" y1="140.1" x2="425.0" y2="148.4" stroke="rgb(0,0,0)"  stroke-width="2.0"/>
<line x1="427.8" y1="147.5" x2="436.2" y2="173.2" stroke="rgb(0,0,0)"  stroke-width="2.0"/>
<line x1="422.1" y1="149.4" x2="430.5" y2="175.1" stroke="rgb(0,0,0)"  stroke-width="2.0"/>
<line x1="425.0" y1="148.4" x2="443.0" y2="128.4" stroke="rgb(0,0,0)"  stroke-width="2.0"/>
<line x1="464.5" y1="121.4" x2="478.2" y2="124.3" stroke="rgb(0,0,0)"  stroke-width="2.0"/>
<line x1="357.6" y1="204.3" x2="381.0" y2="217.8" stroke="rgb(0,0,0)"  stroke-width="2.0"/>
<line x1="354.6" y1="209.5" x2="378.0" y2="223.0" stroke="rgb(0,0,0)"  stroke-width="2.0"/>
<line x1="313.2" y1="266.0" x2="331.2" y2="286.1" stroke="rgb(0,0,0)"  stroke-width="2.0"/>
<line x1="153.6" y1="232.1" x2="161.9" y2="193.0" stroke="rgb(0,0,0)"  stroke-width="2.0"/>
<line x1="161.9" y1="227.7" x2="167.7" y2="200.3" stroke="rgb(0,0,0)"  stroke-width="2.0"/>
<line x1="161.9" y1="193.0" x2="188.8" y2="190.2" stroke="rgb(0,0,0)"  stroke-width="2.0"/>
<line x1="207.0" y1="200.7" x2="218.0" y2="225.3" stroke="rgb(0,0,0)"  stroke-width="2.0"/>
<line x1="218.0" y1="225.3" x2="188.3" y2="252.1" stroke="rgb(0,0,0)"  stroke-width="2.0"/>
<line x1="208.7" y1="224.0" x2="187.9" y2="242.7" stroke="rgb(0,0,0)"  stroke-width="2.0"/>
<line x1="188.3" y1="252.1" x2="153.6" y2="232.1" stroke="rgb(0,0,0)"  stroke-width="2.0"/>
<line x1="79.1" y1="130.9" x2="108.9" y2="104.1" stroke="rgb(0,0,0)"  stroke-width="2.0"/>
<line x1="88.4" y1="132.2" x2="109.2" y2="113.5" stroke="rgb(0,0,0)"  stroke-width="2.0"/>
<line x1="108.9" y1="104.1" x2="143.5" y2="124.1" stroke="rgb(0,0,0)"  stroke-width="2.0"/>
<line x1="143.5" y1="124.1" x2="135.2" y2="163.3" stroke="rgb(0,0,0)"  stroke-width="2.0"/>
<line x1="135.2" y1="128.5" x2="129.4" y2="155.9" stroke="rgb(0,0,0)"  stroke-width="2.0"/>
<line x1="135.2" y1="163.3" x2="108.3" y2="166.1" stroke="rgb(0,0,0)"  stroke-width="2.0"/>
<line x1="90.1" y1="155.6" x2="79.1" y2="130.9" stroke="rgb(0,0,0)"  stroke-width="2.0"/>
<line x1="374.9" y1="115.5" x2="385.9" y2="140.1" stroke="rgb(0,0,0)"  stroke-width="2.0"/>
<line x1="385.9" y1="140.1" x2="356.1" y2="166.9" stroke="rgb(0,0,0)"  stroke-width="2.0"/>
<line x1="376.6" y1="138.8" x2="355.8" y2="157.5" stroke="rgb(0,0,0)"  stroke-width="2.0"/>
<line x1="356.1" y1="166.9" x2="321.5" y2="146.9" stroke="rgb(0,0,0)"  stroke-width="2.0"/>
<line x1="321.5" y1="146.9" x2="329.8" y2="107.8" stroke="rgb(0,0,0)"  stroke-width="2.0"/>
<line x1="329.8" y1="142.5" x2="335.6" y2="115.1" stroke="rgb(0,0,0)"  stroke-width="2.0"/>
<line x1="329.8" y1="107.8" x2="356.7" y2="104.9" stroke="rgb(0,0,0)"  stroke-width="2.0"/>
<line x1="321.5" y1="226.9" x2="313.2" y2="266.0" stroke="rgb(0,0,0)"  stroke-width="2.0"/>
<line x1="313.2" y1="231.3" x2="307.4" y2="258.7" stroke="rgb(0,0,0)"  stroke-width="2.0"/>
<line x1="313.2" y1="266.0" x2="286.3" y2="268.8" stroke="rgb(0,0,0)"  stroke-width="2.0"/>
<line x1="268.1" y1="258.3" x2="257.1" y2="233.7" stroke="rgb(0,0,0)"  stroke-width="2.0"/>
<line x1="257.1" y1="233.7" x2="286.8" y2="206.9" stroke="rgb(0,0,0)"  stroke-width="2.0"/>
<line x1="266.4" y1="235.0" x2="287.2" y2="216.3" stroke="rgb(0,0,0)"  stroke-width="2.0"/>
<line x1="286.8" y1="206.9" x2="321.5" y2="226.9" stroke="rgb(0,0,0)"  stroke-width="2.0"/>
<line x1="286.8" y1="166.9" x2="321.5" y2="146.9" stroke="rgb(0,0,0)"  stroke-width="2.0"/>
<line x1="356.1" y1="166.9" x2="356.1" y2="206.9" stroke="rgb(0,0,0)"  stroke-width="2.0"/>
<line x1="356.1" y1="206.9" x2="321.5" y2="226.9" stroke="rgb(0,0,0)"  stroke-width="2.0"/>
<line x1="286.8" y1="206.9" x2="286.8" y2="166.9" stroke="rgb(0,0,0)"  stroke-width="2.0"/>
<text x="445.742462" y="126.719408" fill="rgb(255,12,12)"  stroke="rgb(255,12,12)" stroke-width="1" font-size="16" >O</text>
<text x="309.396448" y="48.000000" fill="rgb(255,12,12)"  stroke="rgb(255,12,12)" stroke-width="1" font-size="16" >O</text>
<text x="257.909864" y="94.358728" fill="rgb(255,12,12)"  stroke="rgb(255,12,12)" stroke-width="1" font-size="16" >O</text>
<text x="225.549184" y="132.400989" fill="rgb(102,102,102)"  stroke="rgb(102,102,102)" stroke-width="1" font-size="16" >H</text>
<text x="237.549184" y="136.080989" fill="rgb(102,102,102)"  stroke="rgb(102,102,102)" stroke-width="1" font-size="13" >3</text>
<text x="244.049184" y="132.400989" fill="rgb(102,102,102)"  stroke="rgb(102,102,102)" stroke-width="1" font-size="16" >C</text>
<text x="363.581868" y="111.586915" fill="rgb(178,178,0)"  stroke="rgb(178,178,0)" stroke-width="1" font-size="16" >S</text>
<text x="431.337918" y="194.487462" fill="rgb(255,12,12)"  stroke="rgb(255,12,12)" stroke-width="1" font-size="16" >O</text>
<text x="486.868366" y="135.035876" fill="rgb(102,102,102)"  stroke="rgb(102,102,102)" stroke-width="1" font-size="16" >CH</text>
<text x="510.868366" y="138.715876" fill="rgb(102,102,102)"  stroke="rgb(102,102,102)" stroke-width="1" font-size="13" >3</text>
<text x="384.766557" y="234.893958" fill="rgb(255,12,12)"  stroke="rgb(255,12,12)" stroke-width="1" font-size="16" >O</text>
<text x="333.933281" y="303.745655" fill="rgb(191,191,191)"  stroke="rgb(191,191,191)" stroke-width="1" font-size="16" >H</text>
<text x="267.387181" y="278.201000" fill="rgb(178,178,0)"  stroke="rgb(178,178,0)" stroke-width="1" font-size="16" >S</text>
<text x="186.447157" y="299.888814" fill="rgb(255,12,12)"  stroke="rgb(255,12,12)" stroke-width="1" font-size="16" >OH</text>
<text x="99.083184" y="256.377404" fill="rgb(255,12,12)"  stroke="rgb(255,12,12)" stroke-width="1" font-size="16" >HO</text>
<text x="195.722346" y="196.800896" fill="rgb(178,178,0)"  stroke="rgb(178,178,0)" stroke-width="1" font-size="16" >S</text>
<text x="89.395370" y="175.437380" fill="rgb(178,178,0)"  stroke="rgb(178,178,0)" stroke-width="1" font-size="16" >S</text>
<text x="34.000000" y="130.579094" fill="rgb(191,191,191)"  stroke="rgb(191,191,191)" stroke-width="1" font-size="16" >H</text>
<text x="86.670559" y="72.349462" fill="rgb(255,12,12)"  stroke="rgb(255,12,12)" stroke-width="1" font-size="16" >HO</text>
<text x="174.034532" y="115.860872" fill="rgb(255,12,12)"  stroke="rgb(255,12,12)" stroke-width="1" font-size="16" >OH</text>
<text x="246.202492" y="154.893958" fill="rgb(255,12,12)"  stroke="rgb(255,12,12)" stroke-width="1" font-size="16" >O</text>
</svg>
</g>
<text font-size="18.000000" fill ="black" font-family="sans-serif"
x="10.000000" y="20.000000" ></text>
</svg>
