<?xml version="1.0"?>
<svg version="1.1" id="topsvg"
xmlns="http://www.w3.org/2000/svg" xmlns:xlink="http://www.w3.org/1999/xlink"
xmlns:cml="http://www.xml-cml.org/schema" x="0" y="0" width="200px" height="200px" viewBox="0 0 100 100">
<title> - Open Babel Depiction</title>
<rect x="0" y="0" width="100" height="100" fill="white"/>
<g transform="translate(0,0)">
<svg width="100" height="100" x="0" y="0" viewBox="0 0 473.823 360"
font-family="sans-serif" stroke="rgb(0,0,0)" stroke-width="2"  stroke-linecap="round">
<line x1="295.3" y1="140.0" x2="329.9" y2="160.0" stroke="rgb(0,0,0)"  stroke-width="2.0"/>
<line x1="364.5" y1="220.0" x2="364.5" y2="260.0" stroke="rgb(0,0,0)"  stroke-width="2.0"/>
<line x1="366.0" y1="257.4" x2="389.4" y2="270.9" stroke="rgb(0,0,0)"  stroke-width="2.0"/>
<line x1="363.0" y1="262.6" x2="386.4" y2="276.1" stroke="rgb(0,0,0)"  stroke-width="2.0"/>
<line x1="364.5" y1="260.0" x2="341.2" y2="273.5" stroke="rgb(0,0,0)"  stroke-width="2.0"/>
<line x1="329.9" y1="293.0" x2="329.9" y2="307.0" stroke="rgb(0,0,0)"  stroke-width="2.0"/>
<line x1="399.2" y1="200.0" x2="422.6" y2="213.5" stroke="rgb(0,0,0)"  stroke-width="2.0"/>
<line x1="364.5" y1="140.0" x2="364.5" y2="100.0" stroke="rgb(0,0,0)"  stroke-width="2.0"/>
<line x1="363.0" y1="102.6" x2="339.7" y2="89.1" stroke="rgb(0,0,0)"  stroke-width="2.0"/>
<line x1="366.0" y1="97.4" x2="342.7" y2="83.9" stroke="rgb(0,0,0)"  stroke-width="2.0"/>
<line x1="364.5" y1="100.0" x2="387.9" y2="86.5" stroke="rgb(0,0,0)"  stroke-width="2.0"/>
<line x1="399.2" y1="67.0" x2="399.2" y2="53.0" stroke="rgb(0,0,0)"  stroke-width="2.0"/>
<line x1="248.6" y1="192.3" x2="266.7" y2="212.4" stroke="rgb(0,0,0)"  stroke-width="2.0"/>
<line x1="244.1" y1="196.3" x2="262.2" y2="216.4" stroke="rgb(0,0,0)"  stroke-width="2.0"/>
<line x1="187.2" y1="237.3" x2="203.5" y2="273.8" stroke="rgb(0,0,0)"  stroke-width="2.0"/>
<line x1="205.9" y1="275.6" x2="190.1" y2="297.4" stroke="rgb(0,0,0)"  stroke-width="2.0"/>
<line x1="201.1" y1="272.0" x2="185.2" y2="293.9" stroke="rgb(0,0,0)"  stroke-width="2.0"/>
<line x1="203.5" y1="273.8" x2="230.4" y2="276.6" stroke="rgb(0,0,0)"  stroke-width="2.0"/>
<line x1="248.6" y1="289.9" x2="254.3" y2="302.7" stroke="rgb(0,0,0)"  stroke-width="2.0"/>
<line x1="143.9" y1="189.2" x2="109.3" y2="169.2" stroke="rgb(0,0,0)"  stroke-width="2.0"/>
<line x1="106.3" y1="169.2" x2="106.3" y2="142.2" stroke="rgb(0,0,0)"  stroke-width="2.0"/>
<line x1="112.3" y1="169.2" x2="112.3" y2="142.2" stroke="rgb(0,0,0)"  stroke-width="2.0"/>
<line x1="109.3" y1="169.2" x2="85.9" y2="182.7" stroke="rgb(0,0,0)"  stroke-width="2.0"/>
<line x1="63.4" y1="182.7" x2="51.3" y2="175.7" stroke="rgb(0,0,0)"  stroke-width="2.0"/>
<line x1="190.6" y1="136.9" x2="172.5" y2="116.8" stroke="rgb(0,0,0)"  stroke-width="2.0"/>
<line x1="195.1" y1="132.9" x2="177.0" y2="112.8" stroke="rgb(0,0,0)"  stroke-width="2.0"/>
<line x1="252.0" y1="91.9" x2="241.0" y2="67.2" stroke="rgb(0,0,0)"  stroke-width="2.0"/>
<line x1="146.7" y1="216.0" x2="143.9" y2="189.2" stroke="rgb(0,0,0)"  stroke-width="2.0"/>
<line x1="143.9" y1="189.2" x2="180.5" y2="172.9" stroke="rgb(0,0,0)"  stroke-width="2.0"/>
<line x1="152.3" y1="193.3" x2="177.9" y2="181.9" stroke="rgb(0,0,0)"  stroke-width="2.0"/>
<line x1="180.5" y1="172.9" x2="207.2" y2="202.6" stroke="rgb(0,0,0)"  stroke-width="2.0"/>
<line x1="207.2" y1="202.6" x2="187.2" y2="237.3" stroke="rgb(0,0,0)"  stroke-width="2.0"/>
<line x1="198.0" y1="204.2" x2="184.0" y2="228.5" stroke="rgb(0,0,0)"  stroke-width="2.0"/>
<line x1="187.2" y1="237.3" x2="160.8" y2="231.7" stroke="rgb(0,0,0)"  stroke-width="2.0"/>
<line x1="232.0" y1="126.5" x2="252.0" y2="91.9" stroke="rgb(0,0,0)"  stroke-width="2.0"/>
<line x1="241.2" y1="124.9" x2="255.2" y2="100.7" stroke="rgb(0,0,0)"  stroke-width="2.0"/>
<line x1="252.0" y1="91.9" x2="278.4" y2="97.5" stroke="rgb(0,0,0)"  stroke-width="2.0"/>
<line x1="292.4" y1="113.1" x2="295.3" y2="140.0" stroke="rgb(0,0,0)"  stroke-width="2.0"/>
<line x1="295.3" y1="140.0" x2="258.7" y2="156.3" stroke="rgb(0,0,0)"  stroke-width="2.0"/>
<line x1="286.8" y1="135.9" x2="261.3" y2="147.3" stroke="rgb(0,0,0)"  stroke-width="2.0"/>
<line x1="258.7" y1="156.3" x2="232.0" y2="126.5" stroke="rgb(0,0,0)"  stroke-width="2.0"/>
<line x1="364.5" y1="220.0" x2="399.2" y2="200.0" stroke="rgb(0,0,0)"  stroke-width="2.0"/>
<line x1="366.1" y1="210.8" x2="390.4" y2="196.8" stroke="rgb(0,0,0)"  stroke-width="2.0"/>
<line x1="399.2" y1="200.0" x2="399.2" y2="160.0" stroke="rgb(0,0,0)"  stroke-width="2.0"/>
<line x1="399.2" y1="160.0" x2="364.5" y2="140.0" stroke="rgb(0,0,0)"  stroke-width="2.0"/>
<line x1="390.4" y1="163.2" x2="366.1" y2="149.2" stroke="rgb(0,0,0)"  stroke-width="2.0"/>
<line x1="364.5" y1="140.0" x2="329.9" y2="160.0" stroke="rgb(0,0,0)"  stroke-width="2.0"/>
<line x1="329.9" y1="160.0" x2="329.9" y2="200.0" stroke="rgb(0,0,0)"  stroke-width="2.0"/>
<line x1="337.1" y1="166.0" x2="337.1" y2="194.0" stroke="rgb(0,0,0)"  stroke-width="2.0"/>
<line x1="329.9" y1="200.0" x2="364.5" y2="220.0" stroke="rgb(0,0,0)"  stroke-width="2.0"/>
<line x1="246.4" y1="194.3" x2="207.2" y2="202.6" stroke="rgb(0,0,0)"  stroke-width="2.0"/>
<line x1="180.5" y1="172.9" x2="192.8" y2="134.9" stroke="rgb(0,0,0)"  stroke-width="2.0"/>
<line x1="192.8" y1="134.9" x2="232.0" y2="126.5" stroke="rgb(0,0,0)"  stroke-width="2.0"/>
<line x1="258.7" y1="156.3" x2="246.4" y2="194.3" stroke="rgb(0,0,0)"  stroke-width="2.0"/>
<text x="68.641016" y="197.171867" fill="rgb(255,12,12)"  stroke="rgb(255,12,12)" stroke-width="1" font-size="16" >O</text>
<text x="173.988147" y="314.171708" fill="rgb(255,12,12)"  stroke="rgb(255,12,12)" stroke-width="1" font-size="16" >O</text>
<text x="237.280433" y="285.992167" fill="rgb(255,12,12)"  stroke="rgb(255,12,12)" stroke-width="1" font-size="16" >O</text>
<text x="255.549898" y="322.533985" fill="rgb(102,102,102)"  stroke="rgb(102,102,102)" stroke-width="1" font-size="16" >CH</text>
<text x="279.549898" y="326.213985" fill="rgb(102,102,102)"  stroke="rgb(102,102,102)" stroke-width="1" font-size="13" >3</text>
<text x="142.104187" y="236.952743" fill="rgb(178,178,0)"  stroke="rgb(178,178,0)" stroke-width="1" font-size="16" >S</text>
<text x="103.282032" y="137.171867" fill="rgb(255,12,12)"  stroke="rgb(255,12,12)" stroke-width="1" font-size="16" >O</text>
<text x="14.000000" y="177.171867" fill="rgb(102,102,102)"  stroke="rgb(102,102,102)" stroke-width="1" font-size="16" >H</text>
<text x="26.000000" y="180.851867" fill="rgb(102,102,102)"  stroke="rgb(102,102,102)" stroke-width="1" font-size="13" >3</text>
<text x="32.500000" y="177.171867" fill="rgb(102,102,102)"  stroke="rgb(102,102,102)" stroke-width="1" font-size="16" >C</text>
<text x="160.060322" y="113.134347" fill="rgb(255,12,12)"  stroke="rgb(255,12,12)" stroke-width="1" font-size="16" >O</text>
<text x="229.681985" y="63.360838" fill="rgb(191,191,191)"  stroke="rgb(191,191,191)" stroke-width="1" font-size="16" >H</text>
<text x="285.077355" y="108.219124" fill="rgb(178,178,0)"  stroke="rgb(178,178,0)" stroke-width="1" font-size="16" >S</text>
<text x="393.181542" y="288.000000" fill="rgb(255,12,12)"  stroke="rgb(255,12,12)" stroke-width="1" font-size="16" >O</text>
<text x="323.899509" y="288.000000" fill="rgb(255,12,12)"  stroke="rgb(255,12,12)" stroke-width="1" font-size="16" >O</text>
<text x="325.899509" y="328.000000" fill="rgb(102,102,102)"  stroke="rgb(102,102,102)" stroke-width="1" font-size="16" >CH</text>
<text x="349.899509" y="331.680000" fill="rgb(102,102,102)"  stroke="rgb(102,102,102)" stroke-width="1" font-size="13" >3</text>
<text x="427.822558" y="228.000000" fill="rgb(191,191,191)"  stroke="rgb(191,191,191)" stroke-width="1" font-size="16" >H</text>
<text x="323.899509" y="88.000000" fill="rgb(255,12,12)"  stroke="rgb(255,12,12)" stroke-width="1" font-size="16" >O</text>
<text x="393.181542" y="88.000000" fill="rgb(255,12,12)"  stroke="rgb(255,12,12)" stroke-width="1" font-size="16" >O</text>
<text x="395.181542" y="48.000000" fill="rgb(102,102,102)"  stroke="rgb(102,102,102)" stroke-width="1" font-size="16" >CH</text>
<text x="419.181542" y="51.680000" fill="rgb(102,102,102)"  stroke="rgb(102,102,102)" stroke-width="1" font-size="13" >3</text>
<text x="267.121219" y="232.037519" fill="rgb(255,12,12)"  stroke="rgb(255,12,12)" stroke-width="1" font-size="16" >O</text>
</svg>
</g>
<text font-size="18.000000" fill ="black" font-family="sans-serif"
x="10.000000" y="20.000000" ></text>
</svg>
