<?xml version="1.0"?>
<svg version="1.1" id="topsvg"
xmlns="http://www.w3.org/2000/svg" xmlns:xlink="http://www.w3.org/1999/xlink"
xmlns:cml="http://www.xml-cml.org/schema" x="0" y="0" width="200px" height="200px" viewBox="0 0 100 100">
<title> - Open Babel Depiction</title>
<rect x="0" y="0" width="100" height="100" fill="white"/>
<g transform="translate(0,0)">
<svg width="100" height="100" x="0" y="0" viewBox="0 0 433.864 542.784"
font-family="sans-serif" stroke="rgb(0,0,0)" stroke-width="2"  stroke-linecap="round">
<line x1="173.0" y1="281.3" x2="154.5" y2="313.2" stroke="rgb(0,0,0)"  stroke-width="2.0"/>
<line x1="82.8" y1="377.9" x2="60.0" y2="385.3" stroke="rgb(0,0,0)"  stroke-width="2.0"/>
<line x1="45.0" y1="402.0" x2="42.7" y2="412.6" stroke="rgb(0,0,0)"  stroke-width="2.0"/>
<line x1="82.8" y1="377.9" x2="221.1" y2="258.7" stroke="rgb(0,0,0)"  stroke-width="2.0"/>
<line x1="217.9" y1="250.3" x2="207.0" y2="250.3" stroke="rgb(0,0,0)"  stroke-width="2.0"/>
<line x1="122.0" y1="466.1" x2="124.5" y2="489.9" stroke="rgb(0,0,0)"  stroke-width="2.0"/>
<line x1="188.4" y1="160.6" x2="188.4" y2="136.8" stroke="rgb(0,0,0)"  stroke-width="2.0"/>
<line x1="194.4" y1="160.6" x2="194.4" y2="136.8" stroke="rgb(0,0,0)"  stroke-width="2.0"/>
<line x1="149.2" y1="178.3" x2="126.5" y2="170.9" stroke="rgb(0,0,0)"  stroke-width="2.0"/>
<line x1="128.5" y1="173.2" x2="110.7" y2="189.1" stroke="rgb(0,0,0)"  stroke-width="2.0"/>
<line x1="124.5" y1="168.7" x2="106.7" y2="184.7" stroke="rgb(0,0,0)"  stroke-width="2.0"/>
<line x1="126.5" y1="170.9" x2="121.5" y2="147.6" stroke="rgb(0,0,0)"  stroke-width="2.0"/>
<line x1="128.5" y1="126.1" x2="136.6" y2="118.9" stroke="rgb(0,0,0)"  stroke-width="2.0"/>
<line x1="220.3" y1="179.5" x2="255.4" y2="168.1" stroke="rgb(0,0,0)"  stroke-width="2.0"/>
<line x1="222.2" y1="185.2" x2="257.3" y2="173.8" stroke="rgb(0,0,0)"  stroke-width="2.0"/>
<line x1="289.2" y1="192.6" x2="289.2" y2="216.5" stroke="rgb(0,0,0)"  stroke-width="2.0"/>
<line x1="283.2" y1="192.6" x2="283.2" y2="216.5" stroke="rgb(0,0,0)"  stroke-width="2.0"/>
<line x1="328.4" y1="174.9" x2="351.1" y2="182.3" stroke="rgb(0,0,0)"  stroke-width="2.0"/>
<line x1="349.1" y1="180.1" x2="366.9" y2="164.1" stroke="rgb(0,0,0)"  stroke-width="2.0"/>
<line x1="353.1" y1="184.6" x2="370.9" y2="168.6" stroke="rgb(0,0,0)"  stroke-width="2.0"/>
<line x1="351.1" y1="182.3" x2="356.1" y2="205.7" stroke="rgb(0,0,0)"  stroke-width="2.0"/>
<line x1="371.1" y1="222.4" x2="381.5" y2="225.8" stroke="rgb(0,0,0)"  stroke-width="2.0"/>
<line x1="304.6" y1="71.9" x2="316.6" y2="51.3" stroke="rgb(0,0,0)"  stroke-width="2.0"/>
<line x1="110.2" y1="353.2" x2="142.1" y2="371.6" stroke="rgb(0,0,0)"  stroke-width="2.0"/>
<line x1="119.0" y1="350.0" x2="140.5" y2="362.4" stroke="rgb(0,0,0)"  stroke-width="2.0"/>
<line x1="142.1" y1="371.6" x2="159.9" y2="355.6" stroke="rgb(0,0,0)"  stroke-width="2.0"/>
<line x1="164.2" y1="335.1" x2="154.5" y2="313.2" stroke="rgb(0,0,0)"  stroke-width="2.0"/>
<line x1="154.5" y1="313.2" x2="117.8" y2="317.1" stroke="rgb(0,0,0)"  stroke-width="2.0"/>
<line x1="149.3" y1="321.0" x2="124.6" y2="323.6" stroke="rgb(0,0,0)"  stroke-width="2.0"/>
<line x1="117.8" y1="317.1" x2="110.2" y2="353.2" stroke="rgb(0,0,0)"  stroke-width="2.0"/>
<line x1="122.0" y1="466.1" x2="139.8" y2="450.1" stroke="rgb(0,0,0)"  stroke-width="2.0"/>
<line x1="144.2" y1="429.5" x2="134.4" y2="407.7" stroke="rgb(0,0,0)"  stroke-width="2.0"/>
<line x1="134.4" y1="407.7" x2="97.8" y2="411.6" stroke="rgb(0,0,0)"  stroke-width="2.0"/>
<line x1="129.2" y1="415.5" x2="104.5" y2="418.1" stroke="rgb(0,0,0)"  stroke-width="2.0"/>
<line x1="97.8" y1="411.6" x2="90.1" y2="447.7" stroke="rgb(0,0,0)"  stroke-width="2.0"/>
<line x1="90.1" y1="447.7" x2="122.0" y2="466.1" stroke="rgb(0,0,0)"  stroke-width="2.0"/>
<line x1="98.9" y1="444.4" x2="120.4" y2="456.9" stroke="rgb(0,0,0)"  stroke-width="2.0"/>
<line x1="228.3" y1="249.4" x2="209.9" y2="217.4" stroke="rgb(0,0,0)"  stroke-width="2.0"/>
<line x1="219.1" y1="247.8" x2="206.6" y2="226.2" stroke="rgb(0,0,0)"  stroke-width="2.0"/>
<line x1="209.9" y1="217.4" x2="173.0" y2="217.4" stroke="rgb(0,0,0)"  stroke-width="2.0"/>
<line x1="173.0" y1="217.4" x2="154.5" y2="249.4" stroke="rgb(0,0,0)"  stroke-width="2.0"/>
<line x1="176.2" y1="226.2" x2="163.8" y2="247.8" stroke="rgb(0,0,0)"  stroke-width="2.0"/>
<line x1="154.5" y1="249.4" x2="173.0" y2="281.3" stroke="rgb(0,0,0)"  stroke-width="2.0"/>
<line x1="173.0" y1="281.3" x2="209.9" y2="281.3" stroke="rgb(0,0,0)"  stroke-width="2.0"/>
<line x1="179.0" y1="274.1" x2="203.9" y2="274.1" stroke="rgb(0,0,0)"  stroke-width="2.0"/>
<line x1="209.9" y1="281.3" x2="228.3" y2="249.4" stroke="rgb(0,0,0)"  stroke-width="2.0"/>
<line x1="267.7" y1="71.9" x2="249.3" y2="103.9" stroke="rgb(0,0,0)"  stroke-width="2.0"/>
<line x1="249.3" y1="103.9" x2="267.7" y2="135.8" stroke="rgb(0,0,0)"  stroke-width="2.0"/>
<line x1="258.5" y1="105.5" x2="271.0" y2="127.0" stroke="rgb(0,0,0)"  stroke-width="2.0"/>
<line x1="267.7" y1="135.8" x2="304.6" y2="135.8" stroke="rgb(0,0,0)"  stroke-width="2.0"/>
<line x1="304.6" y1="135.8" x2="323.1" y2="103.9" stroke="rgb(0,0,0)"  stroke-width="2.0"/>
<line x1="301.4" y1="127.0" x2="313.8" y2="105.5" stroke="rgb(0,0,0)"  stroke-width="2.0"/>
<line x1="323.1" y1="103.9" x2="304.6" y2="71.9" stroke="rgb(0,0,0)"  stroke-width="2.0"/>
<line x1="304.6" y1="71.9" x2="267.7" y2="71.9" stroke="rgb(0,0,0)"  stroke-width="2.0"/>
<line x1="298.6" y1="79.1" x2="273.7" y2="79.1" stroke="rgb(0,0,0)"  stroke-width="2.0"/>
<line x1="134.4" y1="407.7" x2="142.1" y2="371.6" stroke="rgb(0,0,0)"  stroke-width="2.0"/>
<line x1="110.2" y1="353.2" x2="82.8" y2="377.9" stroke="rgb(0,0,0)"  stroke-width="2.0"/>
<line x1="82.8" y1="377.9" x2="97.8" y2="411.6" stroke="rgb(0,0,0)"  stroke-width="2.0"/>
<line x1="191.4" y1="160.6" x2="172.1" y2="174.7" stroke="rgb(0,0,0)"  stroke-width="2.0"/>
<line x1="165.6" y1="194.7" x2="173.0" y2="217.4" stroke="rgb(0,0,0)"  stroke-width="2.0"/>
<line x1="209.9" y1="217.4" x2="221.3" y2="182.3" stroke="rgb(0,0,0)"  stroke-width="2.0"/>
<line x1="221.3" y1="182.3" x2="191.4" y2="160.6" stroke="rgb(0,0,0)"  stroke-width="2.0"/>
<line x1="312.0" y1="158.6" x2="304.6" y2="135.8" stroke="rgb(0,0,0)"  stroke-width="2.0"/>
<line x1="267.7" y1="135.8" x2="256.3" y2="170.9" stroke="rgb(0,0,0)"  stroke-width="2.0"/>
<line x1="256.3" y1="170.9" x2="286.2" y2="192.6" stroke="rgb(0,0,0)"  stroke-width="2.0"/>
<line x1="286.2" y1="192.6" x2="305.5" y2="178.6" stroke="rgb(0,0,0)"  stroke-width="2.0"/>
<text x="155.568819" y="190.323317" fill="rgb(12,12,255)"  stroke="rgb(12,12,255)" stroke-width="1" font-size="16" >N</text>
<text x="93.071412" y="203.607551" fill="rgb(255,12,12)"  stroke="rgb(255,12,12)" stroke-width="1" font-size="16" >O</text>
<text x="112.815632" y="142.841091" fill="rgb(255,12,12)"  stroke="rgb(255,12,12)" stroke-width="1" font-size="16" >O</text>
<text x="142.229507" y="118.157527" fill="rgb(102,102,102)"  stroke="rgb(102,102,102)" stroke-width="1" font-size="16" >CH</text>
<text x="166.229507" y="121.837527" fill="rgb(102,102,102)"  stroke="rgb(102,102,102)" stroke-width="1" font-size="13" >3</text>
<text x="280.183855" y="237.495809" fill="rgb(255,12,12)"  stroke="rgb(255,12,12)" stroke-width="1" font-size="16" >O</text>
<text x="310.027689" y="178.923986" fill="rgb(12,12,255)"  stroke="rgb(12,12,255)" stroke-width="1" font-size="16" >N</text>
<text x="185.412654" y="131.751494" fill="rgb(255,12,12)"  stroke="rgb(255,12,12)" stroke-width="1" font-size="16" >O</text>
<text x="372.525096" y="165.639752" fill="rgb(255,12,12)"  stroke="rgb(255,12,12)" stroke-width="1" font-size="16" >O</text>
<text x="352.780877" y="226.406212" fill="rgb(255,12,12)"  stroke="rgb(255,12,12)" stroke-width="1" font-size="16" >O</text>
<text x="389.864408" y="237.805542" fill="rgb(102,102,102)"  stroke="rgb(102,102,102)" stroke-width="1" font-size="16" >CH</text>
<text x="413.864408" y="241.485542" fill="rgb(102,102,102)"  stroke="rgb(102,102,102)" stroke-width="1" font-size="13" >3</text>
<text x="317.072863" y="48.000000" fill="rgb(191,191,191)"  stroke="rgb(191,191,191)" stroke-width="1" font-size="16" >H</text>
<text x="224.928359" y="258.261873" fill="rgb(255,12,12)"  stroke="rgb(255,12,12)" stroke-width="1" font-size="16" >O</text>
<text x="163.527757" y="354.947089" fill="rgb(178,178,0)"  stroke="rgb(178,178,0)" stroke-width="1" font-size="16" >S</text>
<text x="41.669656" y="397.269044" fill="rgb(255,12,12)"  stroke="rgb(255,12,12)" stroke-width="1" font-size="16" >O</text>
<text x="14.000000" y="433.351939" fill="rgb(102,102,102)"  stroke="rgb(102,102,102)" stroke-width="1" font-size="16" >H</text>
<text x="26.000000" y="437.031939" fill="rgb(102,102,102)"  stroke="rgb(102,102,102)" stroke-width="1" font-size="13" >3</text>
<text x="32.500000" y="433.351939" fill="rgb(102,102,102)"  stroke="rgb(102,102,102)" stroke-width="1" font-size="16" >C</text>
<text x="168.039350" y="258.261873" fill="rgb(102,102,102)"  stroke="rgb(102,102,102)" stroke-width="1" font-size="16" >H</text>
<text x="180.039350" y="261.941873" fill="rgb(102,102,102)"  stroke="rgb(102,102,102)" stroke-width="1" font-size="13" >3</text>
<text x="186.539350" y="258.261873" fill="rgb(102,102,102)"  stroke="rgb(102,102,102)" stroke-width="1" font-size="16" >C</text>
<text x="119.890413" y="510.783825" fill="rgb(191,191,191)"  stroke="rgb(191,191,191)" stroke-width="1" font-size="16" >H</text>
<text x="143.448337" y="449.413334" fill="rgb(178,178,0)"  stroke="rgb(178,178,0)" stroke-width="1" font-size="16" >S</text>
</svg>
</g>
<text font-size="18.000000" fill ="black" font-family="sans-serif"
x="10.000000" y="20.000000" ></text>
</svg>
