<?xml version="1.0"?>
<svg version="1.1" id="topsvg"
xmlns="http://www.w3.org/2000/svg" xmlns:xlink="http://www.w3.org/1999/xlink"
xmlns:cml="http://www.xml-cml.org/schema" x="0" y="0" width="200px" height="200px" viewBox="0 0 100 100">
<title> - Open Babel Depiction</title>
<rect x="0" y="0" width="100" height="100" fill="white"/>
<g transform="translate(0,0)">
<svg width="100" height="100" x="0" y="0" viewBox="0 0 567.554 394.439"
font-family="sans-serif" stroke="rgb(0,0,0)" stroke-width="2"  stroke-linecap="round">
<line x1="272.3" y1="214.2" x2="306.9" y2="234.0" stroke="rgb(0,0,0)"  stroke-width="2.0"/>
<line x1="311.3" y1="273.6" x2="281.8" y2="300.5" stroke="rgb(0,0,0)"  stroke-width="2.0"/>
<line x1="281.8" y1="300.5" x2="261.9" y2="318.6" stroke="rgb(0,0,0)"  stroke-width="2.0"/>
<line x1="284.6" y1="303.6" x2="264.7" y2="321.7" stroke="rgb(0,0,0)"  stroke-width="2.0"/>
<line x1="278.9" y1="297.4" x2="259.0" y2="315.5" stroke="rgb(0,0,0)"  stroke-width="2.0"/>
<line x1="350.3" y1="281.7" x2="366.7" y2="318.1" stroke="rgb(0,0,0)"  stroke-width="2.0"/>
<line x1="366.7" y1="318.1" x2="377.8" y2="342.6" stroke="rgb(0,0,0)"  stroke-width="2.0"/>
<line x1="370.6" y1="316.4" x2="381.6" y2="340.9" stroke="rgb(0,0,0)"  stroke-width="2.0"/>
<line x1="362.9" y1="319.8" x2="374.0" y2="344.3" stroke="rgb(0,0,0)"  stroke-width="2.0"/>
<line x1="370.1" y1="247.1" x2="409.7" y2="242.7" stroke="rgb(0,0,0)"  stroke-width="2.0"/>
<line x1="472.9" y1="255.8" x2="496.3" y2="269.1" stroke="rgb(0,0,0)"  stroke-width="2.0"/>
<line x1="468.5" y1="216.2" x2="498.1" y2="189.3" stroke="rgb(0,0,0)"  stroke-width="2.0"/>
<line x1="498.1" y1="189.3" x2="517.9" y2="171.2" stroke="rgb(0,0,0)"  stroke-width="2.0"/>
<line x1="495.2" y1="186.2" x2="515.1" y2="168.1" stroke="rgb(0,0,0)"  stroke-width="2.0"/>
<line x1="500.9" y1="192.4" x2="520.8" y2="174.4" stroke="rgb(0,0,0)"  stroke-width="2.0"/>
<line x1="429.5" y1="208.1" x2="413.1" y2="171.7" stroke="rgb(0,0,0)"  stroke-width="2.0"/>
<line x1="413.1" y1="171.7" x2="402.0" y2="147.2" stroke="rgb(0,0,0)"  stroke-width="2.0"/>
<line x1="409.3" y1="173.5" x2="398.2" y2="149.0" stroke="rgb(0,0,0)"  stroke-width="2.0"/>
<line x1="416.9" y1="170.0" x2="405.9" y2="145.5" stroke="rgb(0,0,0)"  stroke-width="2.0"/>
<line x1="171.0" y1="235.1" x2="171.1" y2="262.1" stroke="rgb(0,0,0)"  stroke-width="2.0"/>
<line x1="165.0" y1="235.2" x2="165.1" y2="262.2" stroke="rgb(0,0,0)"  stroke-width="2.0"/>
<line x1="122.4" y1="221.9" x2="99.3" y2="235.5" stroke="rgb(0,0,0)"  stroke-width="2.0"/>
<line x1="96.7" y1="237.1" x2="83.1" y2="214.0" stroke="rgb(0,0,0)"  stroke-width="2.0"/>
<line x1="101.9" y1="234.0" x2="88.3" y2="211.0" stroke="rgb(0,0,0)"  stroke-width="2.0"/>
<line x1="99.3" y1="235.5" x2="86.2" y2="258.9" stroke="rgb(0,0,0)"  stroke-width="2.0"/>
<line x1="66.8" y1="270.3" x2="53.0" y2="270.4" stroke="rgb(0,0,0)"  stroke-width="2.0"/>
<line x1="131.4" y1="177.5" x2="107.8" y2="164.3" stroke="rgb(0,0,0)"  stroke-width="2.0"/>
<line x1="134.3" y1="172.3" x2="110.8" y2="159.1" stroke="rgb(0,0,0)"  stroke-width="2.0"/>
<line x1="167.7" y1="114.5" x2="144.2" y2="101.3" stroke="rgb(0,0,0)"  stroke-width="2.0"/>
<line x1="268.5" y1="93.9" x2="268.3" y2="66.9" stroke="rgb(0,0,0)"  stroke-width="2.0"/>
<line x1="274.5" y1="93.8" x2="274.3" y2="66.8" stroke="rgb(0,0,0)"  stroke-width="2.0"/>
<line x1="317.7" y1="107.1" x2="341.2" y2="93.3" stroke="rgb(0,0,0)"  stroke-width="2.0"/>
<line x1="342.2" y1="90.5" x2="367.8" y2="99.8" stroke="rgb(0,0,0)"  stroke-width="2.0"/>
<line x1="340.2" y1="96.1" x2="365.8" y2="105.4" stroke="rgb(0,0,0)"  stroke-width="2.0"/>
<line x1="341.2" y1="93.3" x2="336.4" y2="66.5" stroke="rgb(0,0,0)"  stroke-width="2.0"/>
<line x1="322.0" y1="49.3" x2="308.6" y2="44.4" stroke="rgb(0,0,0)"  stroke-width="2.0"/>
<line x1="308.2" y1="151.5" x2="331.7" y2="164.8" stroke="rgb(0,0,0)"  stroke-width="2.0"/>
<line x1="305.3" y1="156.7" x2="328.7" y2="170.1" stroke="rgb(0,0,0)"  stroke-width="2.0"/>
<line x1="350.3" y1="281.7" x2="370.1" y2="247.1" stroke="rgb(0,0,0)"  stroke-width="2.0"/>
<line x1="347.0" y1="273.0" x2="360.9" y2="248.7" stroke="rgb(0,0,0)"  stroke-width="2.0"/>
<line x1="370.1" y1="247.1" x2="352.0" y2="227.2" stroke="rgb(0,0,0)"  stroke-width="2.0"/>
<line x1="331.4" y1="222.9" x2="306.9" y2="234.0" stroke="rgb(0,0,0)"  stroke-width="2.0"/>
<line x1="306.9" y1="234.0" x2="311.3" y2="273.6" stroke="rgb(0,0,0)"  stroke-width="2.0"/>
<line x1="314.7" y1="239.2" x2="317.8" y2="266.9" stroke="rgb(0,0,0)"  stroke-width="2.0"/>
<line x1="311.3" y1="273.6" x2="350.3" y2="281.7" stroke="rgb(0,0,0)"  stroke-width="2.0"/>
<line x1="472.9" y1="255.8" x2="468.5" y2="216.2" stroke="rgb(0,0,0)"  stroke-width="2.0"/>
<line x1="465.1" y1="250.6" x2="462.0" y2="222.9" stroke="rgb(0,0,0)"  stroke-width="2.0"/>
<line x1="468.5" y1="216.2" x2="429.5" y2="208.1" stroke="rgb(0,0,0)"  stroke-width="2.0"/>
<line x1="429.5" y1="208.1" x2="409.7" y2="242.7" stroke="rgb(0,0,0)"  stroke-width="2.0"/>
<line x1="432.8" y1="216.9" x2="419.0" y2="241.1" stroke="rgb(0,0,0)"  stroke-width="2.0"/>
<line x1="409.7" y1="242.7" x2="427.8" y2="262.6" stroke="rgb(0,0,0)"  stroke-width="2.0"/>
<line x1="448.4" y1="266.9" x2="472.9" y2="255.8" stroke="rgb(0,0,0)"  stroke-width="2.0"/>
<line x1="202.7" y1="214.9" x2="202.7" y2="174.4" stroke="rgb(0,0,0)"  stroke-width="2.0"/>
<line x1="209.9" y1="208.9" x2="209.9" y2="180.3" stroke="rgb(0,0,0)"  stroke-width="2.0"/>
<line x1="202.7" y1="174.4" x2="237.2" y2="154.2" stroke="rgb(0,0,0)"  stroke-width="2.0"/>
<line x1="237.2" y1="154.2" x2="272.1" y2="174.3" stroke="rgb(0,0,0)"  stroke-width="2.0"/>
<line x1="238.8" y1="163.4" x2="263.3" y2="177.6" stroke="rgb(0,0,0)"  stroke-width="2.0"/>
<line x1="272.1" y1="174.3" x2="272.3" y2="214.2" stroke="rgb(0,0,0)"  stroke-width="2.0"/>
<line x1="272.3" y1="214.2" x2="237.8" y2="234.4" stroke="rgb(0,0,0)"  stroke-width="2.0"/>
<line x1="263.4" y1="211.0" x2="239.3" y2="225.1" stroke="rgb(0,0,0)"  stroke-width="2.0"/>
<line x1="237.8" y1="234.4" x2="202.7" y2="214.9" stroke="rgb(0,0,0)"  stroke-width="2.0"/>
<line x1="132.8" y1="174.9" x2="167.5" y2="154.6" stroke="rgb(0,0,0)"  stroke-width="2.0"/>
<line x1="167.5" y1="154.6" x2="202.7" y2="174.4" stroke="rgb(0,0,0)"  stroke-width="2.0"/>
<line x1="202.7" y1="214.9" x2="168.0" y2="235.2" stroke="rgb(0,0,0)"  stroke-width="2.0"/>
<line x1="168.0" y1="235.2" x2="144.8" y2="221.8" stroke="rgb(0,0,0)"  stroke-width="2.0"/>
<line x1="133.3" y1="202.3" x2="132.8" y2="174.9" stroke="rgb(0,0,0)"  stroke-width="2.0"/>
<line x1="202.2" y1="94.4" x2="236.8" y2="114.1" stroke="rgb(0,0,0)"  stroke-width="2.0"/>
<line x1="203.8" y1="103.6" x2="228.1" y2="117.4" stroke="rgb(0,0,0)"  stroke-width="2.0"/>
<line x1="236.8" y1="114.1" x2="237.2" y2="154.2" stroke="rgb(0,0,0)"  stroke-width="2.0"/>
<line x1="167.5" y1="154.6" x2="167.7" y2="114.5" stroke="rgb(0,0,0)"  stroke-width="2.0"/>
<line x1="174.7" y1="148.7" x2="174.9" y2="120.6" stroke="rgb(0,0,0)"  stroke-width="2.0"/>
<line x1="167.7" y1="114.5" x2="202.2" y2="94.4" stroke="rgb(0,0,0)"  stroke-width="2.0"/>
<line x1="306.6" y1="126.7" x2="306.7" y2="154.1" stroke="rgb(0,0,0)"  stroke-width="2.0"/>
<line x1="306.7" y1="154.1" x2="272.1" y2="174.3" stroke="rgb(0,0,0)"  stroke-width="2.0"/>
<line x1="236.8" y1="114.1" x2="271.5" y2="93.8" stroke="rgb(0,0,0)"  stroke-width="2.0"/>
<line x1="271.5" y1="93.8" x2="295.2" y2="107.3" stroke="rgb(0,0,0)"  stroke-width="2.0"/>
<text x="73.095338" y="209.286505" fill="rgb(255,12,12)"  stroke="rgb(255,12,12)" stroke-width="1" font-size="16" >O</text>
<text x="73.771518" y="278.172795" fill="rgb(255,12,12)"  stroke="rgb(255,12,12)" stroke-width="1" font-size="16" >O</text>
<text x="14.000000" y="278.563188" fill="rgb(102,102,102)"  stroke="rgb(102,102,102)" stroke-width="1" font-size="16" >H</text>
<text x="26.000000" y="282.243188" fill="rgb(102,102,102)"  stroke="rgb(102,102,102)" stroke-width="1" font-size="13" >3</text>
<text x="32.500000" y="278.563188" fill="rgb(102,102,102)"  stroke="rgb(102,102,102)" stroke-width="1" font-size="16" >C</text>
<text x="91.960123" y="163.338340" fill="rgb(255,12,12)"  stroke="rgb(255,12,12)" stroke-width="1" font-size="16" >O</text>
<text x="126.843958" y="102.952823" fill="rgb(191,191,191)"  stroke="rgb(191,191,191)" stroke-width="1" font-size="16" >H</text>
<text x="127.567136" y="223.310605" fill="rgb(12,12,255)"  stroke="rgb(12,12,255)" stroke-width="1" font-size="16" >N</text>
<text x="265.254807" y="61.855399" fill="rgb(255,12,12)"  stroke="rgb(255,12,12)" stroke-width="1" font-size="16" >O</text>
<text x="300.513644" y="121.657936" fill="rgb(12,12,255)"  stroke="rgb(12,12,255)" stroke-width="1" font-size="16" >N</text>
<text x="372.999910" y="115.030578" fill="rgb(255,12,12)"  stroke="rgb(255,12,12)" stroke-width="1" font-size="16" >O</text>
<text x="328.179428" y="61.717820" fill="rgb(255,12,12)"  stroke="rgb(255,12,12)" stroke-width="1" font-size="16" >O</text>
<text x="270.379119" y="48.000000" fill="rgb(102,102,102)"  stroke="rgb(102,102,102)" stroke-width="1" font-size="16" >H</text>
<text x="282.379119" y="51.680000" fill="rgb(102,102,102)"  stroke="rgb(102,102,102)" stroke-width="1" font-size="13" >3</text>
<text x="288.879119" y="48.000000" fill="rgb(102,102,102)"  stroke="rgb(102,102,102)" stroke-width="1" font-size="16" >C</text>
<text x="335.489455" y="181.887935" fill="rgb(255,12,12)"  stroke="rgb(255,12,12)" stroke-width="1" font-size="16" >O</text>
<text x="246.258569" y="335.314879" fill="rgb(12,12,255)"  stroke="rgb(12,12,255)" stroke-width="1" font-size="16" >N</text>
<text x="377.132333" y="362.439064" fill="rgb(12,12,255)"  stroke="rgb(12,12,255)" stroke-width="1" font-size="16" >N</text>
<text x="337.247250" y="225.589945" fill="rgb(178,178,0)"  stroke="rgb(178,178,0)" stroke-width="1" font-size="16" >S</text>
<text x="430.565312" y="280.226143" fill="rgb(178,178,0)"  stroke="rgb(178,178,0)" stroke-width="1" font-size="16" >S</text>
<text x="501.558686" y="283.585330" fill="rgb(191,191,191)"  stroke="rgb(191,191,191)" stroke-width="1" font-size="16" >H</text>
<text x="521.553992" y="170.501209" fill="rgb(12,12,255)"  stroke="rgb(12,12,255)" stroke-width="1" font-size="16" >N</text>
<text x="390.680229" y="143.377024" fill="rgb(12,12,255)"  stroke="rgb(12,12,255)" stroke-width="1" font-size="16" >N</text>
<text x="162.166428" y="283.159241" fill="rgb(255,12,12)"  stroke="rgb(255,12,12)" stroke-width="1" font-size="16" >O</text>
</svg>
</g>
<text font-size="18.000000" fill ="black" font-family="sans-serif"
x="10.000000" y="20.000000" ></text>
</svg>
