<?xml version="1.0"?>
<svg version="1.1" id="topsvg"
xmlns="http://www.w3.org/2000/svg" xmlns:xlink="http://www.w3.org/1999/xlink"
xmlns:cml="http://www.xml-cml.org/schema" x="0" y="0" width="200px" height="200px" viewBox="0 0 100 100">
<title> - Open Babel Depiction</title>
<rect x="0" y="0" width="100" height="100" fill="white"/>
<g transform="translate(0,0)">
<svg width="100" height="100" x="0" y="0" viewBox="0 0 467.169 352.705"
font-family="sans-serif" stroke="rgb(0,0,0)" stroke-width="2"  stroke-linecap="round">
<line x1="237.1" y1="145.5" x2="198.2" y2="145.5" stroke="rgb(0,0,0)"  stroke-width="2.0"/>
<line x1="178.5" y1="111.9" x2="197.9" y2="78.2" stroke="rgb(0,0,0)"  stroke-width="2.0"/>
<line x1="197.9" y1="78.2" x2="189.9" y2="53.6" stroke="rgb(0,0,0)"  stroke-width="2.0"/>
<line x1="193.9" y1="79.5" x2="185.9" y2="54.9" stroke="rgb(0,0,0)"  stroke-width="2.0"/>
<line x1="201.9" y1="76.9" x2="193.9" y2="52.3" stroke="rgb(0,0,0)"  stroke-width="2.0"/>
<line x1="80.1" y1="146.5" x2="53.0" y2="146.7" stroke="rgb(0,0,0)"  stroke-width="2.0"/>
<line x1="99.8" y1="180.1" x2="80.4" y2="213.8" stroke="rgb(0,0,0)"  stroke-width="2.0"/>
<line x1="80.4" y1="213.8" x2="99.7" y2="231.1" stroke="rgb(0,0,0)"  stroke-width="2.0"/>
<line x1="83.2" y1="210.7" x2="102.5" y2="228.0" stroke="rgb(0,0,0)"  stroke-width="2.0"/>
<line x1="77.6" y1="216.9" x2="96.9" y2="234.2" stroke="rgb(0,0,0)"  stroke-width="2.0"/>
<line x1="259.9" y1="114.0" x2="247.9" y2="77.0" stroke="rgb(0,0,0)"  stroke-width="2.0"/>
<line x1="247.9" y1="77.0" x2="239.9" y2="52.4" stroke="rgb(0,0,0)"  stroke-width="2.0"/>
<line x1="243.9" y1="78.3" x2="235.9" y2="53.7" stroke="rgb(0,0,0)"  stroke-width="2.0"/>
<line x1="251.9" y1="75.7" x2="243.9" y2="51.1" stroke="rgb(0,0,0)"  stroke-width="2.0"/>
<line x1="296.9" y1="164.9" x2="328.4" y2="187.8" stroke="rgb(0,0,0)"  stroke-width="2.0"/>
<line x1="388.3" y1="207.2" x2="414.2" y2="207.2" stroke="rgb(0,0,0)"  stroke-width="2.0"/>
<line x1="365.4" y1="238.7" x2="377.4" y2="275.7" stroke="rgb(0,0,0)"  stroke-width="2.0"/>
<line x1="377.4" y1="275.7" x2="385.4" y2="300.3" stroke="rgb(0,0,0)"  stroke-width="2.0"/>
<line x1="381.4" y1="274.4" x2="389.4" y2="299.0" stroke="rgb(0,0,0)"  stroke-width="2.0"/>
<line x1="373.4" y1="277.0" x2="381.4" y2="301.6" stroke="rgb(0,0,0)"  stroke-width="2.0"/>
<line x1="139.1" y1="111.9" x2="139.1" y2="180.1" stroke="rgb(0,0,0)"  stroke-width="2.0"/>
<line x1="146.3" y1="117.9" x2="146.3" y2="174.1" stroke="rgb(0,0,0)"  stroke-width="2.0"/>
<line x1="139.1" y1="180.1" x2="165.5" y2="180.1" stroke="rgb(0,0,0)"  stroke-width="2.0"/>
<line x1="184.9" y1="168.8" x2="198.2" y2="145.5" stroke="rgb(0,0,0)"  stroke-width="2.0"/>
<line x1="198.2" y1="145.5" x2="178.5" y2="111.9" stroke="rgb(0,0,0)"  stroke-width="2.0"/>
<line x1="188.9" y1="143.9" x2="175.3" y2="120.7" stroke="rgb(0,0,0)"  stroke-width="2.0"/>
<line x1="178.5" y1="111.9" x2="139.1" y2="111.9" stroke="rgb(0,0,0)"  stroke-width="2.0"/>
<line x1="80.1" y1="146.5" x2="99.8" y2="180.1" stroke="rgb(0,0,0)"  stroke-width="2.0"/>
<line x1="89.3" y1="148.0" x2="102.9" y2="171.2" stroke="rgb(0,0,0)"  stroke-width="2.0"/>
<line x1="99.8" y1="180.1" x2="139.1" y2="180.1" stroke="rgb(0,0,0)"  stroke-width="2.0"/>
<line x1="139.1" y1="111.9" x2="112.8" y2="111.9" stroke="rgb(0,0,0)"  stroke-width="2.0"/>
<line x1="93.3" y1="123.2" x2="80.1" y2="146.5" stroke="rgb(0,0,0)"  stroke-width="2.0"/>
<line x1="296.9" y1="138.9" x2="296.9" y2="164.9" stroke="rgb(0,0,0)"  stroke-width="2.0"/>
<line x1="289.7" y1="141.0" x2="289.7" y2="158.9" stroke="rgb(0,0,0)"  stroke-width="2.0"/>
<line x1="296.9" y1="164.9" x2="272.3" y2="172.9" stroke="rgb(0,0,0)"  stroke-width="2.0"/>
<line x1="252.3" y1="166.4" x2="237.1" y2="145.5" stroke="rgb(0,0,0)"  stroke-width="2.0"/>
<line x1="237.1" y1="145.5" x2="259.9" y2="114.0" stroke="rgb(0,0,0)"  stroke-width="2.0"/>
<line x1="246.4" y1="144.8" x2="262.2" y2="123.1" stroke="rgb(0,0,0)"  stroke-width="2.0"/>
<line x1="259.9" y1="114.0" x2="284.6" y2="122.0" stroke="rgb(0,0,0)"  stroke-width="2.0"/>
<line x1="388.3" y1="207.2" x2="365.4" y2="238.7" stroke="rgb(0,0,0)"  stroke-width="2.0"/>
<line x1="378.9" y1="207.9" x2="363.1" y2="229.6" stroke="rgb(0,0,0)"  stroke-width="2.0"/>
<line x1="365.4" y1="238.7" x2="340.8" y2="230.7" stroke="rgb(0,0,0)"  stroke-width="2.0"/>
<line x1="328.4" y1="213.8" x2="328.4" y2="187.8" stroke="rgb(0,0,0)"  stroke-width="2.0"/>
<line x1="335.6" y1="211.7" x2="335.6" y2="193.8" stroke="rgb(0,0,0)"  stroke-width="2.0"/>
<line x1="328.4" y1="187.8" x2="353.0" y2="179.8" stroke="rgb(0,0,0)"  stroke-width="2.0"/>
<line x1="373.0" y1="186.3" x2="388.3" y2="207.2" stroke="rgb(0,0,0)"  stroke-width="2.0"/>
<text x="322.402797" y="234.687655" fill="rgb(12,12,255)"  stroke="rgb(12,12,255)" stroke-width="1" font-size="16" >N</text>
<text x="383.443638" y="320.705152" fill="rgb(12,12,255)"  stroke="rgb(12,12,255)" stroke-width="1" font-size="16" >N</text>
<text x="421.168953" y="215.236629" fill="rgb(191,191,191)"  stroke="rgb(191,191,191)" stroke-width="1" font-size="16" >H</text>
<text x="359.400847" y="183.764207" fill="rgb(178,178,0)"  stroke="rgb(178,178,0)" stroke-width="1" font-size="16" >S</text>
<text x="253.932324" y="184.940945" fill="rgb(178,178,0)"  stroke="rgb(178,178,0)" stroke-width="1" font-size="16" >S</text>
<text x="290.930375" y="134.017497" fill="rgb(12,12,255)"  stroke="rgb(12,12,255)" stroke-width="1" font-size="16" >N</text>
<text x="229.889533" y="48.000000" fill="rgb(12,12,255)"  stroke="rgb(12,12,255)" stroke-width="1" font-size="16" >N</text>
<text x="172.476751" y="188.060360" fill="rgb(178,178,0)"  stroke="rgb(178,178,0)" stroke-width="1" font-size="16" >S</text>
<text x="103.431078" y="247.747452" fill="rgb(12,12,255)"  stroke="rgb(12,12,255)" stroke-width="1" font-size="16" >N</text>
<text x="34.000000" y="154.772610" fill="rgb(191,191,191)"  stroke="rgb(191,191,191)" stroke-width="1" font-size="16" >H</text>
<text x="93.762313" y="119.915977" fill="rgb(178,178,0)"  stroke="rgb(178,178,0)" stroke-width="1" font-size="16" >S</text>
<text x="179.906382" y="49.227761" fill="rgb(12,12,255)"  stroke="rgb(12,12,255)" stroke-width="1" font-size="16" >N</text>
</svg>
</g>
<text font-size="18.000000" fill ="black" font-family="sans-serif"
x="10.000000" y="20.000000" ></text>
</svg>
