<?xml version="1.0"?>
<svg version="1.1" id="topsvg"
xmlns="http://www.w3.org/2000/svg" xmlns:xlink="http://www.w3.org/1999/xlink"
xmlns:cml="http://www.xml-cml.org/schema" x="0" y="0" width="200px" height="200px" viewBox="0 0 100 100">
<title> - Open Babel Depiction</title>
<rect x="0" y="0" width="100" height="100" fill="white"/>
<g transform="translate(0,0)">
<svg width="100" height="100" x="0" y="0" viewBox="0 0 489.484 344.283"
font-family="sans-serif" stroke="rgb(0,0,0)" stroke-width="2"  stroke-linecap="round">
<line x1="214.3" y1="200.5" x2="248.9" y2="220.2" stroke="rgb(0,0,0)"  stroke-width="2.0"/>
<line x1="253.3" y1="259.9" x2="233.4" y2="277.9" stroke="rgb(0,0,0)"  stroke-width="2.0"/>
<line x1="292.3" y1="267.9" x2="303.3" y2="292.4" stroke="rgb(0,0,0)"  stroke-width="2.0"/>
<line x1="312.1" y1="233.3" x2="351.7" y2="228.9" stroke="rgb(0,0,0)"  stroke-width="2.0"/>
<line x1="414.9" y1="242.0" x2="438.2" y2="255.4" stroke="rgb(0,0,0)"  stroke-width="2.0"/>
<line x1="410.5" y1="202.4" x2="430.4" y2="184.3" stroke="rgb(0,0,0)"  stroke-width="2.0"/>
<line x1="371.4" y1="194.3" x2="360.4" y2="169.8" stroke="rgb(0,0,0)"  stroke-width="2.0"/>
<line x1="113.1" y1="221.4" x2="113.2" y2="248.4" stroke="rgb(0,0,0)"  stroke-width="2.0"/>
<line x1="107.1" y1="221.4" x2="107.2" y2="248.4" stroke="rgb(0,0,0)"  stroke-width="2.0"/>
<line x1="64.4" y1="208.2" x2="52.6" y2="215.1" stroke="rgb(0,0,0)"  stroke-width="2.0"/>
<line x1="48.0" y1="233.0" x2="55.0" y2="244.8" stroke="rgb(0,0,0)"  stroke-width="2.0"/>
<line x1="73.4" y1="163.8" x2="49.9" y2="150.6" stroke="rgb(0,0,0)"  stroke-width="2.0"/>
<line x1="76.3" y1="158.5" x2="52.8" y2="145.3" stroke="rgb(0,0,0)"  stroke-width="2.0"/>
<line x1="109.7" y1="100.8" x2="86.2" y2="87.6" stroke="rgb(0,0,0)"  stroke-width="2.0"/>
<line x1="210.5" y1="80.1" x2="210.3" y2="53.1" stroke="rgb(0,0,0)"  stroke-width="2.0"/>
<line x1="216.5" y1="80.1" x2="216.3" y2="53.1" stroke="rgb(0,0,0)"  stroke-width="2.0"/>
<line x1="259.7" y1="93.3" x2="272.0" y2="86.2" stroke="rgb(0,0,0)"  stroke-width="2.0"/>
<line x1="280.9" y1="66.8" x2="278.4" y2="52.8" stroke="rgb(0,0,0)"  stroke-width="2.0"/>
<line x1="250.2" y1="137.7" x2="273.7" y2="151.1" stroke="rgb(0,0,0)"  stroke-width="2.0"/>
<line x1="247.2" y1="142.9" x2="270.7" y2="156.3" stroke="rgb(0,0,0)"  stroke-width="2.0"/>
<line x1="292.3" y1="267.9" x2="312.1" y2="233.3" stroke="rgb(0,0,0)"  stroke-width="2.0"/>
<line x1="289.0" y1="259.2" x2="302.8" y2="235.0" stroke="rgb(0,0,0)"  stroke-width="2.0"/>
<line x1="312.1" y1="233.3" x2="294.0" y2="213.4" stroke="rgb(0,0,0)"  stroke-width="2.0"/>
<line x1="273.4" y1="209.2" x2="248.9" y2="220.2" stroke="rgb(0,0,0)"  stroke-width="2.0"/>
<line x1="248.9" y1="220.2" x2="253.3" y2="259.9" stroke="rgb(0,0,0)"  stroke-width="2.0"/>
<line x1="256.7" y1="225.4" x2="259.8" y2="253.1" stroke="rgb(0,0,0)"  stroke-width="2.0"/>
<line x1="253.3" y1="259.9" x2="292.3" y2="267.9" stroke="rgb(0,0,0)"  stroke-width="2.0"/>
<line x1="414.9" y1="242.0" x2="410.5" y2="202.4" stroke="rgb(0,0,0)"  stroke-width="2.0"/>
<line x1="407.0" y1="236.9" x2="404.0" y2="209.2" stroke="rgb(0,0,0)"  stroke-width="2.0"/>
<line x1="410.5" y1="202.4" x2="371.4" y2="194.3" stroke="rgb(0,0,0)"  stroke-width="2.0"/>
<line x1="371.4" y1="194.3" x2="351.7" y2="228.9" stroke="rgb(0,0,0)"  stroke-width="2.0"/>
<line x1="374.7" y1="203.1" x2="360.9" y2="227.3" stroke="rgb(0,0,0)"  stroke-width="2.0"/>
<line x1="351.7" y1="228.9" x2="369.8" y2="248.8" stroke="rgb(0,0,0)"  stroke-width="2.0"/>
<line x1="390.4" y1="253.1" x2="414.9" y2="242.0" stroke="rgb(0,0,0)"  stroke-width="2.0"/>
<line x1="144.7" y1="201.1" x2="144.7" y2="160.6" stroke="rgb(0,0,0)"  stroke-width="2.0"/>
<line x1="151.9" y1="195.1" x2="151.9" y2="166.6" stroke="rgb(0,0,0)"  stroke-width="2.0"/>
<line x1="144.7" y1="160.6" x2="179.2" y2="140.4" stroke="rgb(0,0,0)"  stroke-width="2.0"/>
<line x1="179.2" y1="140.4" x2="214.1" y2="160.6" stroke="rgb(0,0,0)"  stroke-width="2.0"/>
<line x1="180.8" y1="149.7" x2="205.3" y2="163.8" stroke="rgb(0,0,0)"  stroke-width="2.0"/>
<line x1="214.1" y1="160.6" x2="214.3" y2="200.5" stroke="rgb(0,0,0)"  stroke-width="2.0"/>
<line x1="214.3" y1="200.5" x2="179.8" y2="220.6" stroke="rgb(0,0,0)"  stroke-width="2.0"/>
<line x1="205.4" y1="197.3" x2="181.3" y2="211.4" stroke="rgb(0,0,0)"  stroke-width="2.0"/>
<line x1="179.8" y1="220.6" x2="144.7" y2="201.1" stroke="rgb(0,0,0)"  stroke-width="2.0"/>
<line x1="74.9" y1="161.2" x2="109.5" y2="140.9" stroke="rgb(0,0,0)"  stroke-width="2.0"/>
<line x1="109.5" y1="140.9" x2="144.7" y2="160.6" stroke="rgb(0,0,0)"  stroke-width="2.0"/>
<line x1="144.7" y1="201.1" x2="110.1" y2="221.4" stroke="rgb(0,0,0)"  stroke-width="2.0"/>
<line x1="110.1" y1="221.4" x2="86.9" y2="208.0" stroke="rgb(0,0,0)"  stroke-width="2.0"/>
<line x1="75.4" y1="188.5" x2="74.9" y2="161.2" stroke="rgb(0,0,0)"  stroke-width="2.0"/>
<line x1="144.2" y1="80.6" x2="178.9" y2="100.4" stroke="rgb(0,0,0)"  stroke-width="2.0"/>
<line x1="145.9" y1="89.9" x2="170.1" y2="103.7" stroke="rgb(0,0,0)"  stroke-width="2.0"/>
<line x1="178.9" y1="100.4" x2="179.2" y2="140.4" stroke="rgb(0,0,0)"  stroke-width="2.0"/>
<line x1="109.5" y1="140.9" x2="109.7" y2="100.8" stroke="rgb(0,0,0)"  stroke-width="2.0"/>
<line x1="116.8" y1="134.9" x2="116.9" y2="106.8" stroke="rgb(0,0,0)"  stroke-width="2.0"/>
<line x1="109.7" y1="100.8" x2="144.2" y2="80.6" stroke="rgb(0,0,0)"  stroke-width="2.0"/>
<line x1="248.6" y1="112.9" x2="248.7" y2="140.3" stroke="rgb(0,0,0)"  stroke-width="2.0"/>
<line x1="248.7" y1="140.3" x2="214.1" y2="160.6" stroke="rgb(0,0,0)"  stroke-width="2.0"/>
<line x1="178.9" y1="100.4" x2="213.5" y2="80.1" stroke="rgb(0,0,0)"  stroke-width="2.0"/>
<line x1="213.5" y1="80.1" x2="237.2" y2="93.5" stroke="rgb(0,0,0)"  stroke-width="2.0"/>
<text x="35.377093" y="229.757636" fill="rgb(255,12,12)"  stroke="rgb(255,12,12)" stroke-width="1" font-size="16" >O</text>
<text x="57.594379" y="263.994472" fill="rgb(102,102,102)"  stroke="rgb(102,102,102)" stroke-width="1" font-size="16" >CH</text>
<text x="81.594379" y="267.674472" fill="rgb(102,102,102)"  stroke="rgb(102,102,102)" stroke-width="1" font-size="13" >3</text>
<text x="34.000000" y="149.577173" fill="rgb(255,12,12)"  stroke="rgb(255,12,12)" stroke-width="1" font-size="16" >O</text>
<text x="68.872515" y="89.211250" fill="rgb(191,191,191)"  stroke="rgb(191,191,191)" stroke-width="1" font-size="16" >H</text>
<text x="69.613928" y="209.540350" fill="rgb(12,12,255)"  stroke="rgb(12,12,255)" stroke-width="1" font-size="16" >N</text>
<text x="207.256778" y="48.116351" fill="rgb(255,12,12)"  stroke="rgb(255,12,12)" stroke-width="1" font-size="16" >O</text>
<text x="242.504317" y="107.920666" fill="rgb(12,12,255)"  stroke="rgb(12,12,255)" stroke-width="1" font-size="16" >N</text>
<text x="277.179019" y="87.582090" fill="rgb(255,12,12)"  stroke="rgb(255,12,12)" stroke-width="1" font-size="16" >O</text>
<text x="250.161124" y="48.000000" fill="rgb(102,102,102)"  stroke="rgb(102,102,102)" stroke-width="1" font-size="16" >H</text>
<text x="262.161124" y="51.680000" fill="rgb(102,102,102)"  stroke="rgb(102,102,102)" stroke-width="1" font-size="13" >3</text>
<text x="268.661124" y="48.000000" fill="rgb(102,102,102)"  stroke="rgb(102,102,102)" stroke-width="1" font-size="16" >C</text>
<text x="277.480055" y="168.137549" fill="rgb(255,12,12)"  stroke="rgb(255,12,12)" stroke-width="1" font-size="16" >O</text>
<text x="217.760537" y="294.679591" fill="rgb(191,191,191)"  stroke="rgb(191,191,191)" stroke-width="1" font-size="16" >H</text>
<text x="302.696596" y="312.282976" fill="rgb(191,191,191)"  stroke="rgb(191,191,191)" stroke-width="1" font-size="16" >H</text>
<text x="279.226003" y="211.818950" fill="rgb(178,178,0)"  stroke="rgb(178,178,0)" stroke-width="1" font-size="16" >S</text>
<text x="372.513785" y="266.437419" fill="rgb(178,178,0)"  stroke="rgb(178,178,0)" stroke-width="1" font-size="16" >S</text>
<text x="443.484122" y="269.795516" fill="rgb(191,191,191)"  stroke="rgb(191,191,191)" stroke-width="1" font-size="16" >H</text>
<text x="433.979251" y="183.576779" fill="rgb(191,191,191)"  stroke="rgb(191,191,191)" stroke-width="1" font-size="16" >H</text>
<text x="349.043192" y="165.973393" fill="rgb(191,191,191)"  stroke="rgb(191,191,191)" stroke-width="1" font-size="16" >H</text>
<text x="104.202037" y="269.382810" fill="rgb(255,12,12)"  stroke="rgb(255,12,12)" stroke-width="1" font-size="16" >O</text>
</svg>
</g>
<text font-size="18.000000" fill ="black" font-family="sans-serif"
x="10.000000" y="20.000000" ></text>
</svg>
