<?xml version="1.0"?>
<svg version="1.1" id="topsvg"
xmlns="http://www.w3.org/2000/svg" xmlns:xlink="http://www.w3.org/1999/xlink"
xmlns:cml="http://www.xml-cml.org/schema" x="0" y="0" width="200px" height="200px" viewBox="0 0 100 100">
<title> - Open Babel Depiction</title>
<rect x="0" y="0" width="100" height="100" fill="white"/>
<g transform="translate(0,0)">
<svg width="100" height="100" x="0" y="0" viewBox="0 0 512.464 288.574"
font-family="sans-serif" stroke="rgb(0,0,0)" stroke-width="2"  stroke-linecap="round">
<line x1="369.0" y1="133.7" x2="332.4" y2="150.0" stroke="rgb(0,0,0)"  stroke-width="2.0"/>
<line x1="324.1" y1="189.1" x2="350.9" y2="218.8" stroke="rgb(0,0,0)"  stroke-width="2.0"/>
<line x1="350.9" y1="218.8" x2="368.9" y2="238.9" stroke="rgb(0,0,0)"  stroke-width="2.0"/>
<line x1="354.0" y1="216.0" x2="372.1" y2="236.1" stroke="rgb(0,0,0)"  stroke-width="2.0"/>
<line x1="347.8" y1="221.7" x2="365.8" y2="241.7" stroke="rgb(0,0,0)"  stroke-width="2.0"/>
<line x1="284.3" y1="193.3" x2="270.8" y2="216.7" stroke="rgb(0,0,0)"  stroke-width="2.0"/>
<line x1="268.1" y1="156.8" x2="228.9" y2="148.4" stroke="rgb(0,0,0)"  stroke-width="2.0"/>
<line x1="226.1" y1="149.4" x2="213.7" y2="111.3" stroke="rgb(0,0,0)"  stroke-width="2.0"/>
<line x1="231.8" y1="147.5" x2="219.4" y2="109.5" stroke="rgb(0,0,0)"  stroke-width="2.0"/>
<line x1="216.6" y1="110.4" x2="177.5" y2="102.1" stroke="rgb(0,0,0)"  stroke-width="2.0"/>
<line x1="147.7" y1="128.9" x2="150.5" y2="155.7" stroke="rgb(0,0,0)"  stroke-width="2.0"/>
<line x1="113.1" y1="108.9" x2="76.5" y2="125.1" stroke="rgb(0,0,0)"  stroke-width="2.0"/>
<line x1="76.5" y1="125.1" x2="51.9" y2="136.1" stroke="rgb(0,0,0)"  stroke-width="2.0"/>
<line x1="78.3" y1="129.0" x2="53.6" y2="139.9" stroke="rgb(0,0,0)"  stroke-width="2.0"/>
<line x1="74.8" y1="121.3" x2="50.2" y2="132.3" stroke="rgb(0,0,0)"  stroke-width="2.0"/>
<line x1="121.4" y1="69.7" x2="103.3" y2="49.7" stroke="rgb(0,0,0)"  stroke-width="2.0"/>
<line x1="433.3" y1="127.0" x2="459.7" y2="132.6" stroke="rgb(0,0,0)"  stroke-width="2.0"/>
<line x1="401.1" y1="166.8" x2="395.4" y2="179.6" stroke="rgb(0,0,0)"  stroke-width="2.0"/>
<line x1="395.6" y1="164.4" x2="389.9" y2="177.2" stroke="rgb(0,0,0)"  stroke-width="2.0"/>
<line x1="413.7" y1="162.5" x2="421.9" y2="173.8" stroke="rgb(0,0,0)"  stroke-width="2.0"/>
<line x1="408.8" y1="166.0" x2="417.1" y2="177.3" stroke="rgb(0,0,0)"  stroke-width="2.0"/>
<line x1="284.3" y1="193.3" x2="268.1" y2="156.8" stroke="rgb(0,0,0)"  stroke-width="2.0"/>
<line x1="288.5" y1="184.9" x2="277.1" y2="159.3" stroke="rgb(0,0,0)"  stroke-width="2.0"/>
<line x1="268.1" y1="156.8" x2="288.1" y2="138.7" stroke="rgb(0,0,0)"  stroke-width="2.0"/>
<line x1="309.0" y1="136.5" x2="332.4" y2="150.0" stroke="rgb(0,0,0)"  stroke-width="2.0"/>
<line x1="332.4" y1="150.0" x2="324.1" y2="189.1" stroke="rgb(0,0,0)"  stroke-width="2.0"/>
<line x1="324.1" y1="154.4" x2="318.3" y2="181.8" stroke="rgb(0,0,0)"  stroke-width="2.0"/>
<line x1="324.1" y1="189.1" x2="284.3" y2="193.3" stroke="rgb(0,0,0)"  stroke-width="2.0"/>
<line x1="113.1" y1="108.9" x2="121.4" y2="69.7" stroke="rgb(0,0,0)"  stroke-width="2.0"/>
<line x1="121.4" y1="104.5" x2="127.2" y2="77.1" stroke="rgb(0,0,0)"  stroke-width="2.0"/>
<line x1="121.4" y1="69.7" x2="148.3" y2="66.9" stroke="rgb(0,0,0)"  stroke-width="2.0"/>
<line x1="166.5" y1="77.4" x2="177.5" y2="102.1" stroke="rgb(0,0,0)"  stroke-width="2.0"/>
<line x1="177.5" y1="102.1" x2="147.7" y2="128.9" stroke="rgb(0,0,0)"  stroke-width="2.0"/>
<line x1="168.2" y1="100.8" x2="147.4" y2="119.5" stroke="rgb(0,0,0)"  stroke-width="2.0"/>
<line x1="147.7" y1="128.9" x2="113.1" y2="108.9" stroke="rgb(0,0,0)"  stroke-width="2.0"/>
<line x1="417.1" y1="90.4" x2="433.3" y2="127.0" stroke="rgb(0,0,0)"  stroke-width="2.0"/>
<line x1="412.9" y1="98.8" x2="424.3" y2="124.4" stroke="rgb(0,0,0)"  stroke-width="2.0"/>
<line x1="433.3" y1="127.0" x2="413.3" y2="145.0" stroke="rgb(0,0,0)"  stroke-width="2.0"/>
<line x1="392.4" y1="147.2" x2="369.0" y2="133.7" stroke="rgb(0,0,0)"  stroke-width="2.0"/>
<line x1="369.0" y1="133.7" x2="377.3" y2="94.6" stroke="rgb(0,0,0)"  stroke-width="2.0"/>
<line x1="377.3" y1="129.4" x2="383.1" y2="102.0" stroke="rgb(0,0,0)"  stroke-width="2.0"/>
<line x1="377.3" y1="94.6" x2="417.1" y2="90.4" stroke="rgb(0,0,0)"  stroke-width="2.0"/>
<text x="145.905791" y="176.632573" fill="rgb(127,178,255)"  stroke="rgb(127,178,255)" stroke-width="1" font-size="16" >F</text>
<text x="421.123987" y="194.087659" fill="rgb(255,12,12)"  stroke="rgb(255,12,12)" stroke-width="1" font-size="16" >O</text>
<text x="381.343112" y="198.268797" fill="rgb(255,12,12)"  stroke="rgb(255,12,12)" stroke-width="1" font-size="16" >O</text>
<text x="397.612577" y="161.726979" fill="rgb(178,178,0)"  stroke="rgb(178,178,0)" stroke-width="1" font-size="16" >S</text>
<text x="466.464274" y="143.278222" fill="rgb(191,191,191)"  stroke="rgb(191,191,191)" stroke-width="1" font-size="16" >H</text>
<text x="155.180980" y="73.544654" fill="rgb(178,178,0)"  stroke="rgb(178,178,0)" stroke-width="1" font-size="16" >S</text>
<text x="88.634880" y="48.000000" fill="rgb(191,191,191)"  stroke="rgb(191,191,191)" stroke-width="1" font-size="16" >H</text>
<text x="34.000000" y="149.390628" fill="rgb(12,12,255)"  stroke="rgb(12,12,255)" stroke-width="1" font-size="16" >N</text>
<text x="291.788727" y="137.996444" fill="rgb(178,178,0)"  stroke="rgb(178,178,0)" stroke-width="1" font-size="16" >S</text>
<text x="258.332399" y="235.944503" fill="rgb(127,178,255)"  stroke="rgb(127,178,255)" stroke-width="1" font-size="16" >F</text>
<text x="371.643724" y="256.573935" fill="rgb(12,12,255)"  stroke="rgb(12,12,255)" stroke-width="1" font-size="16" >N</text>
</svg>
</g>
<text font-size="18.000000" fill ="black" font-family="sans-serif"
x="10.000000" y="20.000000" ></text>
</svg>
