<?xml version="1.0"?>
<svg version="1.1" id="topsvg"
xmlns="http://www.w3.org/2000/svg" xmlns:xlink="http://www.w3.org/1999/xlink"
xmlns:cml="http://www.xml-cml.org/schema" x="0" y="0" width="200px" height="200px" viewBox="0 0 100 100">
<title> - Open Babel Depiction</title>
<rect x="0" y="0" width="100" height="100" fill="white"/>
<g transform="translate(0,0)">
<svg width="100" height="100" x="0" y="0" viewBox="0 0 420.709 376.974"
font-family="sans-serif" stroke="rgb(0,0,0)" stroke-width="2"  stroke-linecap="round">
<line x1="142.8" y1="199.6" x2="180.8" y2="212.0" stroke="rgb(0,0,0)"  stroke-width="2.0"/>
<line x1="236.9" y1="311.2" x2="229.9" y2="323.4" stroke="rgb(0,0,0)"  stroke-width="2.0"/>
<line x1="351.0" y1="310.2" x2="371.0" y2="328.3" stroke="rgb(0,0,0)"  stroke-width="2.0"/>
<line x1="141.8" y1="120.7" x2="167.5" y2="112.3" stroke="rgb(0,0,0)"  stroke-width="2.0"/>
<line x1="143.7" y1="126.4" x2="169.4" y2="118.0" stroke="rgb(0,0,0)"  stroke-width="2.0"/>
<line x1="110.4" y1="87.0" x2="110.4" y2="73.0" stroke="rgb(0,0,0)"  stroke-width="2.0"/>
<line x1="99.1" y1="53.5" x2="87.0" y2="46.5" stroke="rgb(0,0,0)"  stroke-width="2.0"/>
<line x1="78.0" y1="123.5" x2="52.4" y2="115.2" stroke="rgb(0,0,0)"  stroke-width="2.0"/>
<line x1="79.0" y1="202.4" x2="53.3" y2="210.8" stroke="rgb(0,0,0)"  stroke-width="2.0"/>
<line x1="77.1" y1="196.7" x2="51.4" y2="205.1" stroke="rgb(0,0,0)"  stroke-width="2.0"/>
<line x1="110.4" y1="236.1" x2="110.4" y2="250.1" stroke="rgb(0,0,0)"  stroke-width="2.0"/>
<line x1="99.1" y1="269.6" x2="87.0" y2="276.6" stroke="rgb(0,0,0)"  stroke-width="2.0"/>
<line x1="283.2" y1="295.8" x2="291.5" y2="256.7" stroke="rgb(0,0,0)"  stroke-width="2.0"/>
<line x1="291.5" y1="256.7" x2="256.9" y2="236.7" stroke="rgb(0,0,0)"  stroke-width="2.0"/>
<line x1="256.9" y1="236.7" x2="227.2" y2="263.4" stroke="rgb(0,0,0)"  stroke-width="2.0"/>
<line x1="257.2" y1="246.0" x2="236.4" y2="264.8" stroke="rgb(0,0,0)"  stroke-width="2.0"/>
<line x1="227.2" y1="263.4" x2="238.1" y2="288.1" stroke="rgb(0,0,0)"  stroke-width="2.0"/>
<line x1="256.4" y1="298.6" x2="283.2" y2="295.8" stroke="rgb(0,0,0)"  stroke-width="2.0"/>
<line x1="142.8" y1="123.5" x2="120.9" y2="107.6" stroke="rgb(0,0,0)"  stroke-width="2.0"/>
<line x1="99.9" y1="107.6" x2="78.0" y2="123.5" stroke="rgb(0,0,0)"  stroke-width="2.0"/>
<line x1="78.0" y1="123.5" x2="90.4" y2="161.6" stroke="rgb(0,0,0)"  stroke-width="2.0"/>
<line x1="86.7" y1="127.0" x2="95.4" y2="153.6" stroke="rgb(0,0,0)"  stroke-width="2.0"/>
<line x1="90.4" y1="161.6" x2="130.4" y2="161.6" stroke="rgb(0,0,0)"  stroke-width="2.0"/>
<line x1="130.4" y1="161.6" x2="142.8" y2="123.5" stroke="rgb(0,0,0)"  stroke-width="2.0"/>
<line x1="90.4" y1="161.6" x2="78.0" y2="199.6" stroke="rgb(0,0,0)"  stroke-width="2.0"/>
<line x1="78.0" y1="199.6" x2="99.9" y2="215.5" stroke="rgb(0,0,0)"  stroke-width="2.0"/>
<line x1="120.9" y1="215.5" x2="142.8" y2="199.6" stroke="rgb(0,0,0)"  stroke-width="2.0"/>
<line x1="142.8" y1="199.6" x2="130.4" y2="161.6" stroke="rgb(0,0,0)"  stroke-width="2.0"/>
<line x1="134.1" y1="196.1" x2="125.4" y2="169.5" stroke="rgb(0,0,0)"  stroke-width="2.0"/>
<line x1="256.9" y1="236.7" x2="248.6" y2="197.6" stroke="rgb(0,0,0)"  stroke-width="2.0"/>
<line x1="248.6" y1="197.6" x2="210.5" y2="185.2" stroke="rgb(0,0,0)"  stroke-width="2.0"/>
<line x1="240.6" y1="202.5" x2="214.0" y2="193.9" stroke="rgb(0,0,0)"  stroke-width="2.0"/>
<line x1="210.5" y1="185.2" x2="180.8" y2="212.0" stroke="rgb(0,0,0)"  stroke-width="2.0"/>
<line x1="180.8" y1="212.0" x2="189.1" y2="251.1" stroke="rgb(0,0,0)"  stroke-width="2.0"/>
<line x1="189.1" y1="216.3" x2="194.9" y2="243.7" stroke="rgb(0,0,0)"  stroke-width="2.0"/>
<line x1="189.1" y1="251.1" x2="227.2" y2="263.4" stroke="rgb(0,0,0)"  stroke-width="2.0"/>
<line x1="312.9" y1="322.6" x2="283.2" y2="295.8" stroke="rgb(0,0,0)"  stroke-width="2.0"/>
<line x1="313.3" y1="313.2" x2="292.5" y2="294.5" stroke="rgb(0,0,0)"  stroke-width="2.0"/>
<line x1="291.5" y1="256.7" x2="329.6" y2="244.3" stroke="rgb(0,0,0)"  stroke-width="2.0"/>
<line x1="299.5" y1="261.7" x2="326.1" y2="253.0" stroke="rgb(0,0,0)"  stroke-width="2.0"/>
<line x1="329.6" y1="244.3" x2="359.3" y2="271.1" stroke="rgb(0,0,0)"  stroke-width="2.0"/>
<line x1="359.3" y1="271.1" x2="351.0" y2="310.2" stroke="rgb(0,0,0)"  stroke-width="2.0"/>
<line x1="351.0" y1="275.5" x2="345.2" y2="302.8" stroke="rgb(0,0,0)"  stroke-width="2.0"/>
<line x1="351.0" y1="310.2" x2="312.9" y2="322.6" stroke="rgb(0,0,0)"  stroke-width="2.0"/>
<text x="49.761924" y="291.107341" fill="rgb(102,102,102)"  stroke="rgb(102,102,102)" stroke-width="1" font-size="16" >H</text>
<text x="61.761924" y="294.787341" fill="rgb(102,102,102)"  stroke="rgb(102,102,102)" stroke-width="1" font-size="13" >3</text>
<text x="68.261924" y="291.107341" fill="rgb(102,102,102)"  stroke="rgb(102,102,102)" stroke-width="1" font-size="16" >C</text>
<text x="104.402940" y="271.107341" fill="rgb(255,12,12)"  stroke="rgb(255,12,12)" stroke-width="1" font-size="16" >O</text>
<text x="104.402940" y="231.107341" fill="rgb(12,12,255)"  stroke="rgb(12,12,255)" stroke-width="1" font-size="16" >N</text>
<text x="34.000000" y="219.956611" fill="rgb(255,12,12)"  stroke="rgb(255,12,12)" stroke-width="1" font-size="16" >O</text>
<text x="34.000000" y="119.150730" fill="rgb(191,191,191)"  stroke="rgb(191,191,191)" stroke-width="1" font-size="16" >H</text>
<text x="49.761924" y="48.000000" fill="rgb(102,102,102)"  stroke="rgb(102,102,102)" stroke-width="1" font-size="16" >H</text>
<text x="61.761924" y="51.680000" fill="rgb(102,102,102)"  stroke="rgb(102,102,102)" stroke-width="1" font-size="13" >3</text>
<text x="68.261924" y="48.000000" fill="rgb(102,102,102)"  stroke="rgb(102,102,102)" stroke-width="1" font-size="16" >C</text>
<text x="104.402940" y="68.000000" fill="rgb(255,12,12)"  stroke="rgb(255,12,12)" stroke-width="1" font-size="16" >O</text>
<text x="104.402940" y="108.000000" fill="rgb(12,12,255)"  stroke="rgb(12,12,255)" stroke-width="1" font-size="16" >N</text>
<text x="174.805881" y="119.150730" fill="rgb(255,12,12)"  stroke="rgb(255,12,12)" stroke-width="1" font-size="16" >O</text>
<text x="374.708797" y="344.973643" fill="rgb(191,191,191)"  stroke="rgb(191,191,191)" stroke-width="1" font-size="16" >H</text>
<text x="197.434075" y="342.626029" fill="rgb(102,102,102)"  stroke="rgb(102,102,102)" stroke-width="1" font-size="16" >H</text>
<text x="209.434075" y="346.306029" fill="rgb(102,102,102)"  stroke="rgb(102,102,102)" stroke-width="1" font-size="13" >3</text>
<text x="215.934075" y="342.626029" fill="rgb(102,102,102)"  stroke="rgb(102,102,102)" stroke-width="1" font-size="16" >C</text>
<text x="237.434075" y="307.985013" fill="rgb(12,12,255)"  stroke="rgb(12,12,255)" stroke-width="1" font-size="16" >N</text>
</svg>
</g>
<text font-size="18.000000" fill ="black" font-family="sans-serif"
x="10.000000" y="20.000000" ></text>
</svg>
