<?xml version="1.0"?>
<svg version="1.1" id="topsvg"
xmlns="http://www.w3.org/2000/svg" xmlns:xlink="http://www.w3.org/1999/xlink"
xmlns:cml="http://www.xml-cml.org/schema" x="0" y="0" width="200px" height="200px" viewBox="0 0 100 100">
<title> - Open Babel Depiction</title>
<rect x="0" y="0" width="100" height="100" fill="white"/>
<g transform="translate(0,0)">
<svg width="100" height="100" x="0" y="0" viewBox="0 0 486.459 243.041"
font-family="sans-serif" stroke="rgb(0,0,0)" stroke-width="2"  stroke-linecap="round">
<line x1="174.7" y1="100.7" x2="208.6" y2="120.3" stroke="rgb(0,0,0)"  stroke-width="2.0"/>
<line x1="310.2" y1="87.7" x2="310.2" y2="74.6" stroke="rgb(0,0,0)"  stroke-width="2.0"/>
<line x1="298.9" y1="55.1" x2="287.6" y2="48.6" stroke="rgb(0,0,0)"  stroke-width="2.0"/>
<line x1="411.8" y1="120.3" x2="435.2" y2="106.8" stroke="rgb(0,0,0)"  stroke-width="2.0"/>
<line x1="139.8" y1="163.1" x2="157.2" y2="182.5" stroke="rgb(0,0,0)"  stroke-width="2.0"/>
<line x1="135.3" y1="167.1" x2="152.8" y2="186.5" stroke="rgb(0,0,0)"  stroke-width="2.0"/>
<line x1="92.2" y1="180.4" x2="85.6" y2="191.8" stroke="rgb(0,0,0)"  stroke-width="2.0"/>
<line x1="66.1" y1="203.0" x2="53.0" y2="203.0" stroke="rgb(0,0,0)"  stroke-width="2.0"/>
<line x1="82.1" y1="136.4" x2="56.6" y2="131.0" stroke="rgb(0,0,0)"  stroke-width="2.0"/>
<line x1="83.4" y1="130.5" x2="57.9" y2="125.1" stroke="rgb(0,0,0)"  stroke-width="2.0"/>
<line x1="120.0" y1="69.1" x2="102.5" y2="49.7" stroke="rgb(0,0,0)"  stroke-width="2.0"/>
<line x1="344.1" y1="120.3" x2="344.1" y2="159.4" stroke="rgb(0,0,0)"  stroke-width="2.0"/>
<line x1="344.1" y1="159.4" x2="276.3" y2="159.4" stroke="rgb(0,0,0)"  stroke-width="2.0"/>
<line x1="276.3" y1="159.4" x2="276.3" y2="120.3" stroke="rgb(0,0,0)"  stroke-width="2.0"/>
<line x1="283.5" y1="153.4" x2="283.5" y2="126.3" stroke="rgb(0,0,0)"  stroke-width="2.0"/>
<line x1="276.3" y1="120.3" x2="298.9" y2="107.2" stroke="rgb(0,0,0)"  stroke-width="2.0"/>
<line x1="321.5" y1="107.2" x2="344.1" y2="120.3" stroke="rgb(0,0,0)"  stroke-width="2.0"/>
<line x1="111.8" y1="107.3" x2="120.0" y2="69.1" stroke="rgb(0,0,0)"  stroke-width="2.0"/>
<line x1="120.1" y1="102.9" x2="125.7" y2="76.4" stroke="rgb(0,0,0)"  stroke-width="2.0"/>
<line x1="120.0" y1="69.1" x2="145.9" y2="66.3" stroke="rgb(0,0,0)"  stroke-width="2.0"/>
<line x1="164.1" y1="76.9" x2="174.7" y2="100.7" stroke="rgb(0,0,0)"  stroke-width="2.0"/>
<line x1="174.7" y1="100.7" x2="145.7" y2="126.9" stroke="rgb(0,0,0)"  stroke-width="2.0"/>
<line x1="165.5" y1="99.4" x2="145.3" y2="117.5" stroke="rgb(0,0,0)"  stroke-width="2.0"/>
<line x1="145.7" y1="126.9" x2="111.8" y2="107.3" stroke="rgb(0,0,0)"  stroke-width="2.0"/>
<line x1="276.3" y1="159.4" x2="242.4" y2="178.9" stroke="rgb(0,0,0)"  stroke-width="2.0"/>
<line x1="242.4" y1="178.9" x2="208.6" y2="159.4" stroke="rgb(0,0,0)"  stroke-width="2.0"/>
<line x1="240.8" y1="169.7" x2="217.4" y2="156.1" stroke="rgb(0,0,0)"  stroke-width="2.0"/>
<line x1="208.6" y1="159.4" x2="208.6" y2="120.3" stroke="rgb(0,0,0)"  stroke-width="2.0"/>
<line x1="208.6" y1="120.3" x2="242.5" y2="100.7" stroke="rgb(0,0,0)"  stroke-width="2.0"/>
<line x1="217.4" y1="123.5" x2="240.9" y2="109.9" stroke="rgb(0,0,0)"  stroke-width="2.0"/>
<line x1="242.5" y1="100.7" x2="276.3" y2="120.3" stroke="rgb(0,0,0)"  stroke-width="2.0"/>
<line x1="378.0" y1="100.7" x2="344.1" y2="120.3" stroke="rgb(0,0,0)"  stroke-width="2.0"/>
<line x1="376.4" y1="110.0" x2="352.9" y2="123.5" stroke="rgb(0,0,0)"  stroke-width="2.0"/>
<line x1="344.1" y1="159.4" x2="377.9" y2="179.0" stroke="rgb(0,0,0)"  stroke-width="2.0"/>
<line x1="352.9" y1="156.2" x2="376.3" y2="169.7" stroke="rgb(0,0,0)"  stroke-width="2.0"/>
<line x1="377.9" y1="179.0" x2="411.8" y2="159.4" stroke="rgb(0,0,0)"  stroke-width="2.0"/>
<line x1="411.8" y1="159.4" x2="411.8" y2="120.3" stroke="rgb(0,0,0)"  stroke-width="2.0"/>
<line x1="404.6" y1="153.4" x2="404.6" y2="126.3" stroke="rgb(0,0,0)"  stroke-width="2.0"/>
<line x1="411.8" y1="120.3" x2="378.0" y2="100.7" stroke="rgb(0,0,0)"  stroke-width="2.0"/>
<line x1="137.5" y1="165.1" x2="111.6" y2="167.8" stroke="rgb(0,0,0)"  stroke-width="2.0"/>
<line x1="93.4" y1="157.3" x2="82.8" y2="133.5" stroke="rgb(0,0,0)"  stroke-width="2.0"/>
<line x1="82.8" y1="133.5" x2="111.8" y2="107.3" stroke="rgb(0,0,0)"  stroke-width="2.0"/>
<line x1="145.7" y1="126.9" x2="137.5" y2="165.1" stroke="rgb(0,0,0)"  stroke-width="2.0"/>
<text x="152.839557" y="72.980370" fill="rgb(178,178,0)"  stroke="rgb(178,178,0)" stroke-width="1" font-size="16" >S</text>
<text x="87.796330" y="48.000000" fill="rgb(191,191,191)"  stroke="rgb(191,191,191)" stroke-width="1" font-size="16" >H</text>
<text x="38.514066" y="133.326075" fill="rgb(255,12,12)"  stroke="rgb(255,12,12)" stroke-width="1" font-size="16" >O</text>
<text x="14.000000" y="211.034251" fill="rgb(102,102,102)"  stroke="rgb(102,102,102)" stroke-width="1" font-size="16" >H</text>
<text x="26.000000" y="214.714251" fill="rgb(102,102,102)"  stroke="rgb(102,102,102)" stroke-width="1" font-size="13" >3</text>
<text x="32.500000" y="211.034251" fill="rgb(102,102,102)"  stroke="rgb(102,102,102)" stroke-width="1" font-size="16" >C</text>
<text x="73.099179" y="211.040860" fill="rgb(255,12,12)"  stroke="rgb(255,12,12)" stroke-width="1" font-size="16" >O</text>
<text x="92.654492" y="177.183281" fill="rgb(12,12,255)"  stroke="rgb(12,12,255)" stroke-width="1" font-size="16" >N</text>
<text x="157.697719" y="202.163652" fill="rgb(255,12,12)"  stroke="rgb(255,12,12)" stroke-width="1" font-size="16" >O</text>
<text x="440.458940" y="108.305700" fill="rgb(191,191,191)"  stroke="rgb(191,191,191)" stroke-width="1" font-size="16" >H</text>
<text x="250.340671" y="50.074739" fill="rgb(102,102,102)"  stroke="rgb(102,102,102)" stroke-width="1" font-size="16" >H</text>
<text x="262.340671" y="53.754739" fill="rgb(102,102,102)"  stroke="rgb(102,102,102)" stroke-width="1" font-size="13" >3</text>
<text x="268.840671" y="50.074739" fill="rgb(102,102,102)"  stroke="rgb(102,102,102)" stroke-width="1" font-size="16" >C</text>
<text x="304.200197" y="69.626678" fill="rgb(255,12,12)"  stroke="rgb(255,12,12)" stroke-width="1" font-size="16" >O</text>
<text x="304.197485" y="108.725858" fill="rgb(12,12,255)"  stroke="rgb(12,12,255)" stroke-width="1" font-size="16" >N</text>
</svg>
</g>
<text font-size="18.000000" fill ="black" font-family="sans-serif"
x="10.000000" y="20.000000" ></text>
</svg>
