<?xml version="1.0"?>
<svg version="1.1" id="topsvg"
xmlns="http://www.w3.org/2000/svg" xmlns:xlink="http://www.w3.org/1999/xlink"
xmlns:cml="http://www.xml-cml.org/schema" x="0" y="0" width="200px" height="200px" viewBox="0 0 100 100">
<title> - Open Babel Depiction</title>
<rect x="0" y="0" width="100" height="100" fill="white"/>
<g transform="translate(0,0)">
<svg width="100" height="100" x="0" y="0" viewBox="0 0 402.719 454.518"
font-family="sans-serif" stroke="rgb(0,0,0)" stroke-width="2"  stroke-linecap="round">
<line x1="214.0" y1="186.6" x2="248.8" y2="167.2" stroke="rgb(0,0,0)"  stroke-width="2.0"/>
<line x1="292.6" y1="119.8" x2="303.8" y2="95.5" stroke="rgb(0,0,0)"  stroke-width="2.0"/>
<line x1="179.7" y1="284.1" x2="202.9" y2="297.9" stroke="rgb(0,0,0)"  stroke-width="2.0"/>
<line x1="176.7" y1="289.2" x2="199.8" y2="303.1" stroke="rgb(0,0,0)"  stroke-width="2.0"/>
<line x1="143.3" y1="318.9" x2="143.1" y2="345.7" stroke="rgb(0,0,0)"  stroke-width="2.0"/>
<line x1="143.1" y1="348.7" x2="116.3" y2="348.4" stroke="rgb(0,0,0)"  stroke-width="2.0"/>
<line x1="143.1" y1="342.7" x2="116.4" y2="342.4" stroke="rgb(0,0,0)"  stroke-width="2.0"/>
<line x1="143.1" y1="345.7" x2="156.3" y2="369.0" stroke="rgb(0,0,0)"  stroke-width="2.0"/>
<line x1="156.1" y1="391.5" x2="149.1" y2="403.3" stroke="rgb(0,0,0)"  stroke-width="2.0"/>
<line x1="109.9" y1="288.4" x2="86.5" y2="301.7" stroke="rgb(0,0,0)"  stroke-width="2.0"/>
<line x1="107.0" y1="283.1" x2="83.5" y2="296.5" stroke="rgb(0,0,0)"  stroke-width="2.0"/>
<line x1="74.8" y1="224.7" x2="51.3" y2="238.1" stroke="rgb(0,0,0)"  stroke-width="2.0"/>
<line x1="109.0" y1="127.8" x2="85.8" y2="114.0" stroke="rgb(0,0,0)"  stroke-width="2.0"/>
<line x1="112.1" y1="122.6" x2="88.9" y2="108.9" stroke="rgb(0,0,0)"  stroke-width="2.0"/>
<line x1="145.7" y1="92.5" x2="146.0" y2="65.3" stroke="rgb(0,0,0)"  stroke-width="2.0"/>
<line x1="144.1" y1="63.0" x2="165.3" y2="45.8" stroke="rgb(0,0,0)"  stroke-width="2.0"/>
<line x1="147.9" y1="67.6" x2="169.1" y2="50.5" stroke="rgb(0,0,0)"  stroke-width="2.0"/>
<line x1="146.0" y1="65.3" x2="120.7" y2="55.5" stroke="rgb(0,0,0)"  stroke-width="2.0"/>
<line x1="98.4" y1="59.1" x2="87.4" y2="68.0" stroke="rgb(0,0,0)"  stroke-width="2.0"/>
<line x1="178.8" y1="123.5" x2="202.4" y2="110.3" stroke="rgb(0,0,0)"  stroke-width="2.0"/>
<line x1="181.8" y1="128.7" x2="205.3" y2="115.5" stroke="rgb(0,0,0)"  stroke-width="2.0"/>
<line x1="312.0" y1="154.6" x2="292.6" y2="119.8" stroke="rgb(0,0,0)"  stroke-width="2.0"/>
<line x1="302.8" y1="152.9" x2="289.2" y2="128.6" stroke="rgb(0,0,0)"  stroke-width="2.0"/>
<line x1="292.6" y1="119.8" x2="266.2" y2="125.1" stroke="rgb(0,0,0)"  stroke-width="2.0"/>
<line x1="252.0" y1="140.5" x2="248.8" y2="167.2" stroke="rgb(0,0,0)"  stroke-width="2.0"/>
<line x1="248.8" y1="167.2" x2="285.0" y2="183.9" stroke="rgb(0,0,0)"  stroke-width="2.0"/>
<line x1="257.3" y1="163.2" x2="282.5" y2="174.8" stroke="rgb(0,0,0)"  stroke-width="2.0"/>
<line x1="285.0" y1="183.9" x2="312.0" y2="154.6" stroke="rgb(0,0,0)"  stroke-width="2.0"/>
<line x1="178.7" y1="246.5" x2="144.0" y2="225.7" stroke="rgb(0,0,0)"  stroke-width="2.0"/>
<line x1="177.3" y1="237.3" x2="152.9" y2="222.6" stroke="rgb(0,0,0)"  stroke-width="2.0"/>
<line x1="144.0" y1="225.7" x2="144.5" y2="185.7" stroke="rgb(0,0,0)"  stroke-width="2.0"/>
<line x1="144.5" y1="185.7" x2="179.8" y2="166.3" stroke="rgb(0,0,0)"  stroke-width="2.0"/>
<line x1="153.3" y1="189.1" x2="178.0" y2="175.5" stroke="rgb(0,0,0)"  stroke-width="2.0"/>
<line x1="179.8" y1="166.3" x2="214.0" y2="186.6" stroke="rgb(0,0,0)"  stroke-width="2.0"/>
<line x1="214.0" y1="186.6" x2="213.5" y2="226.6" stroke="rgb(0,0,0)"  stroke-width="2.0"/>
<line x1="206.7" y1="192.6" x2="206.4" y2="220.5" stroke="rgb(0,0,0)"  stroke-width="2.0"/>
<line x1="213.5" y1="226.6" x2="178.7" y2="246.5" stroke="rgb(0,0,0)"  stroke-width="2.0"/>
<line x1="108.5" y1="285.7" x2="109.0" y2="245.6" stroke="rgb(0,0,0)"  stroke-width="2.0"/>
<line x1="109.0" y1="245.6" x2="144.0" y2="225.7" stroke="rgb(0,0,0)"  stroke-width="2.0"/>
<line x1="178.7" y1="246.5" x2="178.2" y2="286.7" stroke="rgb(0,0,0)"  stroke-width="2.0"/>
<line x1="178.2" y1="286.7" x2="154.8" y2="299.6" stroke="rgb(0,0,0)"  stroke-width="2.0"/>
<line x1="132.2" y1="299.4" x2="108.5" y2="285.7" stroke="rgb(0,0,0)"  stroke-width="2.0"/>
<line x1="75.3" y1="184.8" x2="110.0" y2="165.3" stroke="rgb(0,0,0)"  stroke-width="2.0"/>
<line x1="84.0" y1="188.2" x2="108.3" y2="174.6" stroke="rgb(0,0,0)"  stroke-width="2.0"/>
<line x1="110.0" y1="165.3" x2="144.5" y2="185.7" stroke="rgb(0,0,0)"  stroke-width="2.0"/>
<line x1="109.0" y1="245.6" x2="74.8" y2="224.7" stroke="rgb(0,0,0)"  stroke-width="2.0"/>
<line x1="107.6" y1="236.3" x2="83.6" y2="221.7" stroke="rgb(0,0,0)"  stroke-width="2.0"/>
<line x1="74.8" y1="224.7" x2="75.3" y2="184.8" stroke="rgb(0,0,0)"  stroke-width="2.0"/>
<line x1="156.7" y1="112.1" x2="180.3" y2="126.1" stroke="rgb(0,0,0)"  stroke-width="2.0"/>
<line x1="180.3" y1="126.1" x2="179.8" y2="166.3" stroke="rgb(0,0,0)"  stroke-width="2.0"/>
<line x1="110.0" y1="165.3" x2="110.6" y2="125.2" stroke="rgb(0,0,0)"  stroke-width="2.0"/>
<line x1="110.6" y1="125.2" x2="134.2" y2="111.9" stroke="rgb(0,0,0)"  stroke-width="2.0"/>
<line x1="309.5" y1="224.8" x2="335.7" y2="230.8" stroke="rgb(0,0,0)"  stroke-width="2.0"/>
<line x1="335.7" y1="230.8" x2="362.7" y2="201.5" stroke="rgb(0,0,0)"  stroke-width="2.0"/>
<line x1="362.7" y1="201.5" x2="354.8" y2="175.8" stroke="rgb(0,0,0)"  stroke-width="2.0"/>
<line x1="338.2" y1="160.6" x2="312.0" y2="154.6" stroke="rgb(0,0,0)"  stroke-width="2.0"/>
<line x1="285.0" y1="183.9" x2="292.9" y2="209.5" stroke="rgb(0,0,0)"  stroke-width="2.0"/>
<text x="139.570357" y="113.470288" fill="rgb(12,12,255)"  stroke="rgb(12,12,255)" stroke-width="1" font-size="16" >N</text>
<text x="67.710136" y="313.508356" fill="rgb(255,12,12)"  stroke="rgb(255,12,12)" stroke-width="1" font-size="16" >O</text>
<text x="34.000000" y="252.513585" fill="rgb(191,191,191)"  stroke="rgb(191,191,191)" stroke-width="1" font-size="16" >H</text>
<text x="70.175293" y="112.810260" fill="rgb(255,12,12)"  stroke="rgb(255,12,12)" stroke-width="1" font-size="16" >O</text>
<text x="116.492129" y="422.517760" fill="rgb(102,102,102)"  stroke="rgb(102,102,102)" stroke-width="1" font-size="16" >H</text>
<text x="128.492129" y="426.197760" fill="rgb(102,102,102)"  stroke="rgb(102,102,102)" stroke-width="1" font-size="13" >3</text>
<text x="134.992129" y="422.517760" fill="rgb(102,102,102)"  stroke="rgb(102,102,102)" stroke-width="1" font-size="16" >C</text>
<text x="171.267019" y="48.000000" fill="rgb(255,12,12)"  stroke="rgb(255,12,12)" stroke-width="1" font-size="16" >O</text>
<text x="102.520264" y="58.884325" fill="rgb(255,12,12)"  stroke="rgb(255,12,12)" stroke-width="1" font-size="16" >O</text>
<text x="51.288920" y="84.171966" fill="rgb(102,102,102)"  stroke="rgb(102,102,102)" stroke-width="1" font-size="16" >H</text>
<text x="63.288920" y="87.851966" fill="rgb(102,102,102)"  stroke="rgb(102,102,102)" stroke-width="1" font-size="13" >3</text>
<text x="69.788920" y="84.171966" fill="rgb(102,102,102)"  stroke="rgb(102,102,102)" stroke-width="1" font-size="16" >C</text>
<text x="209.186910" y="114.566713" fill="rgb(255,12,12)"  stroke="rgb(255,12,12)" stroke-width="1" font-size="16" >O</text>
<text x="247.481733" y="135.605590" fill="rgb(178,178,0)"  stroke="rgb(178,178,0)" stroke-width="1" font-size="16" >S</text>
<text x="290.784640" y="229.948387" fill="rgb(255,12,12)"  stroke="rgb(255,12,12)" stroke-width="1" font-size="16" >O</text>
<text x="344.910701" y="171.428782" fill="rgb(255,12,12)"  stroke="rgb(255,12,12)" stroke-width="1" font-size="16" >O</text>
<text x="303.271360" y="91.650501" fill="rgb(191,191,191)"  stroke="rgb(191,191,191)" stroke-width="1" font-size="16" >H</text>
<text x="206.532359" y="315.185126" fill="rgb(255,12,12)"  stroke="rgb(255,12,12)" stroke-width="1" font-size="16" >O</text>
<text x="137.430235" y="313.932051" fill="rgb(12,12,255)"  stroke="rgb(12,12,255)" stroke-width="1" font-size="16" >N</text>
<text x="97.341736" y="353.333809" fill="rgb(255,12,12)"  stroke="rgb(255,12,12)" stroke-width="1" font-size="16" >O</text>
<text x="156.662061" y="388.269155" fill="rgb(255,12,12)"  stroke="rgb(255,12,12)" stroke-width="1" font-size="16" >O</text>
</svg>
</g>
<text font-size="18.000000" fill ="black" font-family="sans-serif"
x="10.000000" y="20.000000" ></text>
</svg>
