<?xml version="1.0"?>
<svg version="1.1" id="topsvg"
xmlns="http://www.w3.org/2000/svg" xmlns:xlink="http://www.w3.org/1999/xlink"
xmlns:cml="http://www.xml-cml.org/schema" x="0" y="0" width="200px" height="200px" viewBox="0 0 100 100">
<title> - Open Babel Depiction</title>
<rect x="0" y="0" width="100" height="100" fill="white"/>
<g transform="translate(0,0)">
<svg width="100" height="100" x="0" y="0" viewBox="0 0 404.541 298.45"
font-family="sans-serif" stroke="rgb(0,0,0)" stroke-width="2"  stroke-linecap="round">
<line x1="226.0" y1="124.6" x2="260.6" y2="144.6" stroke="rgb(0,0,0)"  stroke-width="2.0"/>
<line x1="329.9" y1="144.6" x2="353.3" y2="131.1" stroke="rgb(0,0,0)"  stroke-width="2.0"/>
<line x1="329.9" y1="184.6" x2="353.3" y2="198.1" stroke="rgb(0,0,0)"  stroke-width="2.0"/>
<line x1="260.6" y1="184.6" x2="237.2" y2="198.1" stroke="rgb(0,0,0)"  stroke-width="2.0"/>
<line x1="179.3" y1="176.9" x2="197.4" y2="197.0" stroke="rgb(0,0,0)"  stroke-width="2.0"/>
<line x1="174.8" y1="181.0" x2="192.9" y2="201.0" stroke="rgb(0,0,0)"  stroke-width="2.0"/>
<line x1="117.9" y1="221.9" x2="128.9" y2="246.6" stroke="rgb(0,0,0)"  stroke-width="2.0"/>
<line x1="74.6" y1="173.8" x2="51.3" y2="160.3" stroke="rgb(0,0,0)"  stroke-width="2.0"/>
<line x1="121.3" y1="121.5" x2="103.2" y2="101.4" stroke="rgb(0,0,0)"  stroke-width="2.0"/>
<line x1="125.8" y1="117.5" x2="107.7" y2="97.4" stroke="rgb(0,0,0)"  stroke-width="2.0"/>
<line x1="182.7" y1="76.5" x2="171.7" y2="51.9" stroke="rgb(0,0,0)"  stroke-width="2.0"/>
<line x1="77.5" y1="200.7" x2="74.6" y2="173.8" stroke="rgb(0,0,0)"  stroke-width="2.0"/>
<line x1="74.6" y1="173.8" x2="111.2" y2="157.5" stroke="rgb(0,0,0)"  stroke-width="2.0"/>
<line x1="83.1" y1="177.9" x2="108.6" y2="166.6" stroke="rgb(0,0,0)"  stroke-width="2.0"/>
<line x1="111.2" y1="157.5" x2="137.9" y2="187.3" stroke="rgb(0,0,0)"  stroke-width="2.0"/>
<line x1="137.9" y1="187.3" x2="117.9" y2="221.9" stroke="rgb(0,0,0)"  stroke-width="2.0"/>
<line x1="128.7" y1="188.9" x2="114.7" y2="213.1" stroke="rgb(0,0,0)"  stroke-width="2.0"/>
<line x1="117.9" y1="221.9" x2="91.5" y2="216.3" stroke="rgb(0,0,0)"  stroke-width="2.0"/>
<line x1="162.7" y1="111.2" x2="182.7" y2="76.5" stroke="rgb(0,0,0)"  stroke-width="2.0"/>
<line x1="171.9" y1="109.6" x2="185.9" y2="85.3" stroke="rgb(0,0,0)"  stroke-width="2.0"/>
<line x1="182.7" y1="76.5" x2="209.1" y2="82.2" stroke="rgb(0,0,0)"  stroke-width="2.0"/>
<line x1="223.2" y1="97.8" x2="226.0" y2="124.6" stroke="rgb(0,0,0)"  stroke-width="2.0"/>
<line x1="226.0" y1="124.6" x2="189.4" y2="140.9" stroke="rgb(0,0,0)"  stroke-width="2.0"/>
<line x1="217.6" y1="120.5" x2="192.0" y2="131.9" stroke="rgb(0,0,0)"  stroke-width="2.0"/>
<line x1="189.4" y1="140.9" x2="162.7" y2="111.2" stroke="rgb(0,0,0)"  stroke-width="2.0"/>
<line x1="329.9" y1="144.6" x2="329.9" y2="184.6" stroke="rgb(0,0,0)"  stroke-width="2.0"/>
<line x1="322.7" y1="150.6" x2="322.7" y2="178.6" stroke="rgb(0,0,0)"  stroke-width="2.0"/>
<line x1="329.9" y1="184.6" x2="295.3" y2="204.6" stroke="rgb(0,0,0)"  stroke-width="2.0"/>
<line x1="295.3" y1="204.6" x2="260.6" y2="184.6" stroke="rgb(0,0,0)"  stroke-width="2.0"/>
<line x1="293.7" y1="195.4" x2="269.4" y2="181.4" stroke="rgb(0,0,0)"  stroke-width="2.0"/>
<line x1="260.6" y1="184.6" x2="260.6" y2="144.6" stroke="rgb(0,0,0)"  stroke-width="2.0"/>
<line x1="260.6" y1="144.6" x2="295.3" y2="124.6" stroke="rgb(0,0,0)"  stroke-width="2.0"/>
<line x1="269.4" y1="147.9" x2="293.7" y2="133.9" stroke="rgb(0,0,0)"  stroke-width="2.0"/>
<line x1="295.3" y1="124.6" x2="329.9" y2="144.6" stroke="rgb(0,0,0)"  stroke-width="2.0"/>
<line x1="177.1" y1="179.0" x2="137.9" y2="187.3" stroke="rgb(0,0,0)"  stroke-width="2.0"/>
<line x1="111.2" y1="157.5" x2="123.5" y2="119.5" stroke="rgb(0,0,0)"  stroke-width="2.0"/>
<line x1="123.5" y1="119.5" x2="162.7" y2="111.2" stroke="rgb(0,0,0)"  stroke-width="2.0"/>
<line x1="189.4" y1="140.9" x2="177.1" y2="179.0" stroke="rgb(0,0,0)"  stroke-width="2.0"/>
<text x="215.795322" y="92.858286" fill="rgb(178,178,0)"  stroke="rgb(178,178,0)" stroke-width="1" font-size="16" >S</text>
<text x="160.399953" y="48.000000" fill="rgb(191,191,191)"  stroke="rgb(191,191,191)" stroke-width="1" font-size="16" >H</text>
<text x="90.778290" y="97.773509" fill="rgb(255,12,12)"  stroke="rgb(255,12,12)" stroke-width="1" font-size="16" >O</text>
<text x="14.000000" y="161.811028" fill="rgb(102,102,102)"  stroke="rgb(102,102,102)" stroke-width="1" font-size="16" >H</text>
<text x="26.000000" y="165.491028" fill="rgb(102,102,102)"  stroke="rgb(102,102,102)" stroke-width="1" font-size="13" >3</text>
<text x="32.500000" y="161.811028" fill="rgb(102,102,102)"  stroke="rgb(102,102,102)" stroke-width="1" font-size="16" >C</text>
<text x="72.822155" y="221.591904" fill="rgb(178,178,0)"  stroke="rgb(178,178,0)" stroke-width="1" font-size="16" >S</text>
<text x="130.217524" y="266.450190" fill="rgb(102,102,102)"  stroke="rgb(102,102,102)" stroke-width="1" font-size="16" >CH</text>
<text x="154.217524" y="270.130190" fill="rgb(102,102,102)"  stroke="rgb(102,102,102)" stroke-width="1" font-size="13" >3</text>
<text x="197.839187" y="216.676681" fill="rgb(255,12,12)"  stroke="rgb(255,12,12)" stroke-width="1" font-size="16" >O</text>
<text x="199.976461" y="212.639162" fill="rgb(102,102,102)"  stroke="rgb(102,102,102)" stroke-width="1" font-size="16" >H</text>
<text x="211.976461" y="216.319162" fill="rgb(102,102,102)"  stroke="rgb(102,102,102)" stroke-width="1" font-size="13" >3</text>
<text x="218.476461" y="212.639162" fill="rgb(102,102,102)"  stroke="rgb(102,102,102)" stroke-width="1" font-size="16" >C</text>
<text x="358.540525" y="212.639162" fill="rgb(191,191,191)"  stroke="rgb(191,191,191)" stroke-width="1" font-size="16" >H</text>
<text x="360.540525" y="132.639162" fill="rgb(102,102,102)"  stroke="rgb(102,102,102)" stroke-width="1" font-size="16" >CH</text>
<text x="384.540525" y="136.319162" fill="rgb(102,102,102)"  stroke="rgb(102,102,102)" stroke-width="1" font-size="13" >3</text>
</svg>
</g>
<text font-size="18.000000" fill ="black" font-family="sans-serif"
x="10.000000" y="20.000000" ></text>
</svg>
