<?xml version="1.0"?>
<svg version="1.1" id="topsvg"
xmlns="http://www.w3.org/2000/svg" xmlns:xlink="http://www.w3.org/1999/xlink"
xmlns:cml="http://www.xml-cml.org/schema" x="0" y="0" width="200px" height="200px" viewBox="0 0 100 100">
<title> - Open Babel Depiction</title>
<rect x="0" y="0" width="100" height="100" fill="white"/>
<g transform="translate(0,0)">
<svg width="100" height="100" x="0" y="0" viewBox="0 0 477.454 282.764"
font-family="sans-serif" stroke="rgb(0,0,0)" stroke-width="2"  stroke-linecap="round">
<line x1="165.1" y1="120.0" x2="205.1" y2="120.0" stroke="rgb(0,0,0)"  stroke-width="2.0"/>
<line x1="228.6" y1="87.6" x2="220.2" y2="62.0" stroke="rgb(0,0,0)"  stroke-width="2.0"/>
<line x1="301.3" y1="80.0" x2="301.3" y2="53.0" stroke="rgb(0,0,0)"  stroke-width="2.0"/>
<line x1="397.5" y1="120.0" x2="424.5" y2="120.0" stroke="rgb(0,0,0)"  stroke-width="2.0"/>
<line x1="373.9" y1="152.4" x2="382.3" y2="178.0" stroke="rgb(0,0,0)"  stroke-width="2.0"/>
<line x1="301.3" y1="160.0" x2="301.3" y2="187.0" stroke="rgb(0,0,0)"  stroke-width="2.0"/>
<line x1="143.3" y1="189.9" x2="165.2" y2="205.8" stroke="rgb(0,0,0)"  stroke-width="2.0"/>
<line x1="139.8" y1="194.8" x2="161.6" y2="210.7" stroke="rgb(0,0,0)"  stroke-width="2.0"/>
<line x1="99.5" y1="217.1" x2="95.2" y2="230.4" stroke="rgb(0,0,0)"  stroke-width="2.0"/>
<line x1="80.0" y1="172.4" x2="53.0" y2="172.4" stroke="rgb(0,0,0)"  stroke-width="2.0"/>
<line x1="101.7" y1="102.4" x2="79.9" y2="86.6" stroke="rgb(0,0,0)"  stroke-width="2.0"/>
<line x1="105.3" y1="97.6" x2="83.4" y2="81.7" stroke="rgb(0,0,0)"  stroke-width="2.0"/>
<line x1="145.6" y1="75.3" x2="149.9" y2="62.0" stroke="rgb(0,0,0)"  stroke-width="2.0"/>
<line x1="266.6" y1="100.0" x2="266.6" y2="140.0" stroke="rgb(0,0,0)"  stroke-width="2.0"/>
<line x1="266.6" y1="140.0" x2="240.9" y2="148.3" stroke="rgb(0,0,0)"  stroke-width="2.0"/>
<line x1="220.9" y1="141.8" x2="205.1" y2="120.0" stroke="rgb(0,0,0)"  stroke-width="2.0"/>
<line x1="205.1" y1="120.0" x2="228.6" y2="87.6" stroke="rgb(0,0,0)"  stroke-width="2.0"/>
<line x1="214.4" y1="119.4" x2="230.9" y2="96.7" stroke="rgb(0,0,0)"  stroke-width="2.0"/>
<line x1="228.6" y1="87.6" x2="266.6" y2="100.0" stroke="rgb(0,0,0)"  stroke-width="2.0"/>
<line x1="397.5" y1="120.0" x2="373.9" y2="152.4" stroke="rgb(0,0,0)"  stroke-width="2.0"/>
<line x1="388.1" y1="120.6" x2="371.6" y2="143.3" stroke="rgb(0,0,0)"  stroke-width="2.0"/>
<line x1="373.9" y1="152.4" x2="335.9" y2="140.0" stroke="rgb(0,0,0)"  stroke-width="2.0"/>
<line x1="335.9" y1="140.0" x2="335.9" y2="100.0" stroke="rgb(0,0,0)"  stroke-width="2.0"/>
<line x1="343.1" y1="134.0" x2="343.1" y2="106.0" stroke="rgb(0,0,0)"  stroke-width="2.0"/>
<line x1="335.9" y1="100.0" x2="361.6" y2="91.7" stroke="rgb(0,0,0)"  stroke-width="2.0"/>
<line x1="381.6" y1="98.2" x2="397.5" y2="120.0" stroke="rgb(0,0,0)"  stroke-width="2.0"/>
<line x1="141.6" y1="192.4" x2="115.9" y2="200.7" stroke="rgb(0,0,0)"  stroke-width="2.0"/>
<line x1="95.9" y1="194.2" x2="80.0" y2="172.4" stroke="rgb(0,0,0)"  stroke-width="2.0"/>
<line x1="80.0" y1="172.4" x2="103.5" y2="140.0" stroke="rgb(0,0,0)"  stroke-width="2.0"/>
<line x1="89.4" y1="171.7" x2="105.8" y2="149.1" stroke="rgb(0,0,0)"  stroke-width="2.0"/>
<line x1="103.5" y1="140.0" x2="141.6" y2="152.4" stroke="rgb(0,0,0)"  stroke-width="2.0"/>
<line x1="141.6" y1="152.4" x2="141.6" y2="192.4" stroke="rgb(0,0,0)"  stroke-width="2.0"/>
<line x1="103.5" y1="140.0" x2="103.5" y2="100.0" stroke="rgb(0,0,0)"  stroke-width="2.0"/>
<line x1="103.5" y1="100.0" x2="129.2" y2="91.7" stroke="rgb(0,0,0)"  stroke-width="2.0"/>
<line x1="149.2" y1="98.2" x2="165.1" y2="120.0" stroke="rgb(0,0,0)"  stroke-width="2.0"/>
<line x1="165.1" y1="120.0" x2="141.6" y2="152.4" stroke="rgb(0,0,0)"  stroke-width="2.0"/>
<line x1="155.7" y1="120.6" x2="139.3" y2="143.3" stroke="rgb(0,0,0)"  stroke-width="2.0"/>
<line x1="335.9" y1="140.0" x2="301.3" y2="160.0" stroke="rgb(0,0,0)"  stroke-width="2.0"/>
<line x1="301.3" y1="160.0" x2="266.6" y2="140.0" stroke="rgb(0,0,0)"  stroke-width="2.0"/>
<line x1="299.7" y1="150.8" x2="275.4" y2="136.8" stroke="rgb(0,0,0)"  stroke-width="2.0"/>
<line x1="266.6" y1="100.0" x2="301.3" y2="80.0" stroke="rgb(0,0,0)"  stroke-width="2.0"/>
<line x1="275.4" y1="103.2" x2="299.7" y2="89.2" stroke="rgb(0,0,0)"  stroke-width="2.0"/>
<line x1="301.3" y1="80.0" x2="335.9" y2="100.0" stroke="rgb(0,0,0)"  stroke-width="2.0"/>
<text x="295.259768" y="208.000000" fill="rgb(191,191,191)"  stroke="rgb(191,191,191)" stroke-width="1" font-size="16" >H</text>
<text x="149.914351" y="57.597060" fill="rgb(102,102,102)"  stroke="rgb(102,102,102)" stroke-width="1" font-size="16" >CH</text>
<text x="173.914351" y="61.277060" fill="rgb(102,102,102)"  stroke="rgb(102,102,102)" stroke-width="1" font-size="13" >3</text>
<text x="135.553671" y="95.639320" fill="rgb(12,12,255)"  stroke="rgb(12,12,255)" stroke-width="1" font-size="16" >N</text>
<text x="65.150730" y="84.488590" fill="rgb(255,12,12)"  stroke="rgb(255,12,12)" stroke-width="1" font-size="16" >O</text>
<text x="34.000000" y="180.360680" fill="rgb(191,191,191)"  stroke="rgb(191,191,191)" stroke-width="1" font-size="16" >H</text>
<text x="65.150730" y="250.763620" fill="rgb(102,102,102)"  stroke="rgb(102,102,102)" stroke-width="1" font-size="16" >H</text>
<text x="77.150730" y="254.443620" fill="rgb(102,102,102)"  stroke="rgb(102,102,102)" stroke-width="1" font-size="13" >3</text>
<text x="83.650730" y="250.763620" fill="rgb(102,102,102)"  stroke="rgb(102,102,102)" stroke-width="1" font-size="16" >C</text>
<text x="97.511410" y="212.721360" fill="rgb(12,12,255)"  stroke="rgb(12,12,255)" stroke-width="1" font-size="16" >N</text>
<text x="167.914351" y="223.872090" fill="rgb(255,12,12)"  stroke="rgb(255,12,12)" stroke-width="1" font-size="16" >O</text>
<text x="222.576491" y="160.360680" fill="rgb(178,178,0)"  stroke="rgb(178,178,0)" stroke-width="1" font-size="16" >S</text>
<text x="380.303724" y="198.402940" fill="rgb(30,239,30)"  stroke="rgb(30,239,30)" stroke-width="1" font-size="16" >Cl</text>
<text x="431.454455" y="128.000000" fill="rgb(191,191,191)"  stroke="rgb(191,191,191)" stroke-width="1" font-size="16" >H</text>
<text x="367.943045" y="95.639320" fill="rgb(178,178,0)"  stroke="rgb(178,178,0)" stroke-width="1" font-size="16" >S</text>
<text x="295.259768" y="48.000000" fill="rgb(191,191,191)"  stroke="rgb(191,191,191)" stroke-width="1" font-size="16" >H</text>
<text x="198.215811" y="57.597060" fill="rgb(30,239,30)"  stroke="rgb(30,239,30)" stroke-width="1" font-size="16" >Cl</text>
</svg>
</g>
<text font-size="18.000000" fill ="black" font-family="sans-serif"
x="10.000000" y="20.000000" ></text>
</svg>
