<?xml version="1.0"?>
<svg version="1.1" id="topsvg"
xmlns="http://www.w3.org/2000/svg" xmlns:xlink="http://www.w3.org/1999/xlink"
xmlns:cml="http://www.xml-cml.org/schema" x="0" y="0" width="200px" height="200px" viewBox="0 0 100 100">
<title> - Open Babel Depiction</title>
<rect x="0" y="0" width="100" height="100" fill="white"/>
<g transform="translate(0,0)">
<svg width="100" height="100" x="0" y="0" viewBox="0 0 460.652 308.425"
font-family="sans-serif" stroke="rgb(0,0,0)" stroke-width="2"  stroke-linecap="round">
<line x1="285.5" y1="198.0" x2="247.5" y2="185.7" stroke="rgb(0,0,0)"  stroke-width="2.0"/>
<line x1="162.8" y1="124.1" x2="196.1" y2="102.0" stroke="rgb(0,0,0)"  stroke-width="2.0"/>
<line x1="197.4" y1="99.3" x2="221.6" y2="111.4" stroke="rgb(0,0,0)"  stroke-width="2.0"/>
<line x1="194.8" y1="104.7" x2="218.9" y2="116.7" stroke="rgb(0,0,0)"  stroke-width="2.0"/>
<line x1="196.1" y1="102.0" x2="194.4" y2="75.1" stroke="rgb(0,0,0)"  stroke-width="2.0"/>
<line x1="204.5" y1="54.9" x2="216.2" y2="47.2" stroke="rgb(0,0,0)"  stroke-width="2.0"/>
<line x1="162.8" y1="124.1" x2="134.5" y2="95.8" stroke="rgb(0,0,0)"  stroke-width="2.0"/>
<line x1="131.6" y1="95.0" x2="138.6" y2="69.0" stroke="rgb(0,0,0)"  stroke-width="2.0"/>
<line x1="137.4" y1="96.6" x2="144.4" y2="70.5" stroke="rgb(0,0,0)"  stroke-width="2.0"/>
<line x1="134.5" y1="95.8" x2="108.4" y2="102.8" stroke="rgb(0,0,0)"  stroke-width="2.0"/>
<line x1="86.6" y1="97.0" x2="76.8" y2="87.1" stroke="rgb(0,0,0)"  stroke-width="2.0"/>
<line x1="78.0" y1="185.7" x2="52.4" y2="194.0" stroke="rgb(0,0,0)"  stroke-width="2.0"/>
<line x1="327.8" y1="138.2" x2="312.0" y2="116.4" stroke="rgb(0,0,0)"  stroke-width="2.0"/>
<line x1="332.7" y1="134.7" x2="316.8" y2="112.9" stroke="rgb(0,0,0)"  stroke-width="2.0"/>
<line x1="377.9" y1="126.0" x2="386.1" y2="114.6" stroke="rgb(0,0,0)"  stroke-width="2.0"/>
<line x1="382.6" y1="174.5" x2="408.3" y2="182.9" stroke="rgb(0,0,0)"  stroke-width="2.0"/>
<line x1="340.3" y1="234.3" x2="356.2" y2="256.1" stroke="rgb(0,0,0)"  stroke-width="2.0"/>
<line x1="335.5" y1="237.8" x2="351.3" y2="259.7" stroke="rgb(0,0,0)"  stroke-width="2.0"/>
<line x1="290.2" y1="246.6" x2="282.0" y2="257.9" stroke="rgb(0,0,0)"  stroke-width="2.0"/>
<line x1="195.1" y1="147.6" x2="182.8" y2="185.7" stroke="rgb(0,0,0)"  stroke-width="2.0"/>
<line x1="200.1" y1="155.6" x2="191.5" y2="182.2" stroke="rgb(0,0,0)"  stroke-width="2.0"/>
<line x1="182.8" y1="185.7" x2="204.6" y2="201.5" stroke="rgb(0,0,0)"  stroke-width="2.0"/>
<line x1="225.6" y1="201.5" x2="247.5" y2="185.7" stroke="rgb(0,0,0)"  stroke-width="2.0"/>
<line x1="247.5" y1="185.7" x2="235.1" y2="147.6" stroke="rgb(0,0,0)"  stroke-width="2.0"/>
<line x1="238.8" y1="182.2" x2="230.1" y2="155.6" stroke="rgb(0,0,0)"  stroke-width="2.0"/>
<line x1="235.1" y1="147.6" x2="195.1" y2="147.6" stroke="rgb(0,0,0)"  stroke-width="2.0"/>
<line x1="78.0" y1="185.7" x2="99.9" y2="201.5" stroke="rgb(0,0,0)"  stroke-width="2.0"/>
<line x1="120.9" y1="201.5" x2="142.8" y2="185.7" stroke="rgb(0,0,0)"  stroke-width="2.0"/>
<line x1="142.8" y1="185.7" x2="130.4" y2="147.6" stroke="rgb(0,0,0)"  stroke-width="2.0"/>
<line x1="134.1" y1="182.2" x2="125.4" y2="155.6" stroke="rgb(0,0,0)"  stroke-width="2.0"/>
<line x1="130.4" y1="147.6" x2="90.4" y2="147.6" stroke="rgb(0,0,0)"  stroke-width="2.0"/>
<line x1="90.4" y1="147.6" x2="78.0" y2="185.7" stroke="rgb(0,0,0)"  stroke-width="2.0"/>
<line x1="95.4" y1="155.6" x2="86.7" y2="182.2" stroke="rgb(0,0,0)"  stroke-width="2.0"/>
<line x1="330.2" y1="136.5" x2="357.2" y2="136.5" stroke="rgb(0,0,0)"  stroke-width="2.0"/>
<line x1="374.3" y1="148.8" x2="382.6" y2="174.5" stroke="rgb(0,0,0)"  stroke-width="2.0"/>
<line x1="382.6" y1="174.5" x2="350.2" y2="198.0" stroke="rgb(0,0,0)"  stroke-width="2.0"/>
<line x1="373.5" y1="172.2" x2="350.9" y2="188.7" stroke="rgb(0,0,0)"  stroke-width="2.0"/>
<line x1="350.2" y1="198.0" x2="317.9" y2="174.5" stroke="rgb(0,0,0)"  stroke-width="2.0"/>
<line x1="317.9" y1="174.5" x2="330.2" y2="136.5" stroke="rgb(0,0,0)"  stroke-width="2.0"/>
<line x1="350.2" y1="198.0" x2="337.9" y2="236.1" stroke="rgb(0,0,0)"  stroke-width="2.0"/>
<line x1="337.9" y1="236.1" x2="310.9" y2="236.1" stroke="rgb(0,0,0)"  stroke-width="2.0"/>
<line x1="293.9" y1="223.7" x2="285.5" y2="198.0" stroke="rgb(0,0,0)"  stroke-width="2.0"/>
<line x1="285.5" y1="198.0" x2="317.9" y2="174.5" stroke="rgb(0,0,0)"  stroke-width="2.0"/>
<line x1="294.6" y1="200.3" x2="317.3" y2="183.9" stroke="rgb(0,0,0)"  stroke-width="2.0"/>
<line x1="142.8" y1="185.7" x2="182.8" y2="185.7" stroke="rgb(0,0,0)"  stroke-width="2.0"/>
<line x1="195.1" y1="147.6" x2="162.8" y2="124.1" stroke="rgb(0,0,0)"  stroke-width="2.0"/>
<line x1="162.8" y1="124.1" x2="130.4" y2="147.6" stroke="rgb(0,0,0)"  stroke-width="2.0"/>
<text x="389.760010" y="112.108141" fill="rgb(102,102,102)"  stroke="rgb(102,102,102)" stroke-width="1" font-size="16" >CH</text>
<text x="413.760010" y="115.788141" fill="rgb(102,102,102)"  stroke="rgb(102,102,102)" stroke-width="1" font-size="13" >3</text>
<text x="34.000000" y="206.022491" fill="rgb(191,191,191)"  stroke="rgb(191,191,191)" stroke-width="1" font-size="16" >H</text>
<text x="104.402940" y="217.173222" fill="rgb(178,178,0)"  stroke="rgb(178,178,0)" stroke-width="1" font-size="16" >S</text>
<text x="300.737190" y="112.108141" fill="rgb(255,12,12)"  stroke="rgb(255,12,12)" stroke-width="1" font-size="16" >O</text>
<text x="364.248600" y="144.468821" fill="rgb(12,12,255)"  stroke="rgb(12,12,255)" stroke-width="1" font-size="16" >N</text>
<text x="41.558045" y="85.892360" fill="rgb(102,102,102)"  stroke="rgb(102,102,102)" stroke-width="1" font-size="16" >H</text>
<text x="53.558045" y="89.572360" fill="rgb(102,102,102)"  stroke="rgb(102,102,102)" stroke-width="1" font-size="13" >3</text>
<text x="60.058045" y="85.892360" fill="rgb(102,102,102)"  stroke="rgb(102,102,102)" stroke-width="1" font-size="16" >C</text>
<text x="414.651540" y="194.871761" fill="rgb(191,191,191)"  stroke="rgb(191,191,191)" stroke-width="1" font-size="16" >H</text>
<text x="355.399330" y="276.425432" fill="rgb(255,12,12)"  stroke="rgb(255,12,12)" stroke-width="1" font-size="16" >O</text>
<text x="291.887920" y="244.064752" fill="rgb(12,12,255)"  stroke="rgb(12,12,255)" stroke-width="1" font-size="16" >N</text>
<text x="248.376510" y="276.425432" fill="rgb(102,102,102)"  stroke="rgb(102,102,102)" stroke-width="1" font-size="16" >H</text>
<text x="260.376510" y="280.105432" fill="rgb(102,102,102)"  stroke="rgb(102,102,102)" stroke-width="1" font-size="13" >3</text>
<text x="266.876510" y="276.425432" fill="rgb(102,102,102)"  stroke="rgb(102,102,102)" stroke-width="1" font-size="16" >C</text>
<text x="89.842316" y="114.176631" fill="rgb(255,12,12)"  stroke="rgb(255,12,12)" stroke-width="1" font-size="16" >O</text>
<text x="138.832111" y="65.186837" fill="rgb(255,12,12)"  stroke="rgb(255,12,12)" stroke-width="1" font-size="16" >O</text>
<text x="222.996171" y="48.000000" fill="rgb(102,102,102)"  stroke="rgb(102,102,102)" stroke-width="1" font-size="16" >CH</text>
<text x="246.996171" y="51.680000" fill="rgb(102,102,102)"  stroke="rgb(102,102,102)" stroke-width="1" font-size="13" >3</text>
<text x="187.650291" y="70.091904" fill="rgb(255,12,12)"  stroke="rgb(255,12,12)" stroke-width="1" font-size="16" >O</text>
<text x="225.914592" y="127.848664" fill="rgb(255,12,12)"  stroke="rgb(255,12,12)" stroke-width="1" font-size="16" >O</text>
<text x="209.124300" y="217.173222" fill="rgb(178,178,0)"  stroke="rgb(178,178,0)" stroke-width="1" font-size="16" >S</text>
</svg>
</g>
<text font-size="18.000000" fill ="black" font-family="sans-serif"
x="10.000000" y="20.000000" ></text>
</svg>
