<?xml version="1.0"?>
<svg version="1.1" id="topsvg"
xmlns="http://www.w3.org/2000/svg" xmlns:xlink="http://www.w3.org/1999/xlink"
xmlns:cml="http://www.xml-cml.org/schema" x="0" y="0" width="200px" height="200px" viewBox="0 0 100 100">
<title> - Open Babel Depiction</title>
<rect x="0" y="0" width="100" height="100" fill="white"/>
<g transform="translate(0,0)">
<svg width="100" height="100" x="0" y="0" viewBox="0 0 558.864 381.544"
font-family="sans-serif" stroke="rgb(0,0,0)" stroke-width="2"  stroke-linecap="round">
<line x1="246.5" y1="140.0" x2="286.5" y2="140.0" stroke="rgb(0,0,0)"  stroke-width="2.0"/>
<line x1="310.0" y1="107.6" x2="301.6" y2="82.0" stroke="rgb(0,0,0)"  stroke-width="2.0"/>
<line x1="382.7" y1="100.0" x2="382.7" y2="60.0" stroke="rgb(0,0,0)"  stroke-width="2.0"/>
<line x1="381.2" y1="62.6" x2="357.8" y2="49.1" stroke="rgb(0,0,0)"  stroke-width="2.0"/>
<line x1="384.2" y1="57.4" x2="360.8" y2="43.9" stroke="rgb(0,0,0)"  stroke-width="2.0"/>
<line x1="382.7" y1="60.0" x2="406.1" y2="46.5" stroke="rgb(0,0,0)"  stroke-width="2.0"/>
<line x1="428.6" y1="46.5" x2="440.7" y2="53.5" stroke="rgb(0,0,0)"  stroke-width="2.0"/>
<line x1="478.9" y1="140.0" x2="505.9" y2="140.0" stroke="rgb(0,0,0)"  stroke-width="2.0"/>
<line x1="455.4" y1="172.4" x2="463.7" y2="198.0" stroke="rgb(0,0,0)"  stroke-width="2.0"/>
<line x1="382.7" y1="180.0" x2="382.7" y2="220.0" stroke="rgb(0,0,0)"  stroke-width="2.0"/>
<line x1="384.2" y1="222.6" x2="360.8" y2="236.1" stroke="rgb(0,0,0)"  stroke-width="2.0"/>
<line x1="381.2" y1="217.4" x2="357.8" y2="230.9" stroke="rgb(0,0,0)"  stroke-width="2.0"/>
<line x1="382.7" y1="220.0" x2="406.1" y2="233.5" stroke="rgb(0,0,0)"  stroke-width="2.0"/>
<line x1="417.3" y1="253.0" x2="417.3" y2="267.0" stroke="rgb(0,0,0)"  stroke-width="2.0"/>
<line x1="232.2" y1="208.6" x2="257.9" y2="217.0" stroke="rgb(0,0,0)"  stroke-width="2.0"/>
<line x1="230.4" y1="214.3" x2="256.0" y2="222.7" stroke="rgb(0,0,0)"  stroke-width="2.0"/>
<line x1="201.6" y1="278.3" x2="233.9" y2="301.8" stroke="rgb(0,0,0)"  stroke-width="2.0"/>
<line x1="236.9" y1="302.1" x2="234.1" y2="328.9" stroke="rgb(0,0,0)"  stroke-width="2.0"/>
<line x1="230.9" y1="301.4" x2="228.1" y2="328.3" stroke="rgb(0,0,0)"  stroke-width="2.0"/>
<line x1="233.9" y1="301.8" x2="258.6" y2="290.8" stroke="rgb(0,0,0)"  stroke-width="2.0"/>
<line x1="271.8" y1="272.6" x2="273.3" y2="258.6" stroke="rgb(0,0,0)"  stroke-width="2.0"/>
<line x1="140.0" y1="258.3" x2="100.0" y2="258.3" stroke="rgb(0,0,0)"  stroke-width="2.0"/>
<line x1="97.4" y1="259.8" x2="83.9" y2="236.4" stroke="rgb(0,0,0)"  stroke-width="2.0"/>
<line x1="102.6" y1="256.8" x2="89.1" y2="233.4" stroke="rgb(0,0,0)"  stroke-width="2.0"/>
<line x1="100.0" y1="258.3" x2="86.5" y2="281.6" stroke="rgb(0,0,0)"  stroke-width="2.0"/>
<line x1="67.0" y1="292.9" x2="53.0" y2="292.9" stroke="rgb(0,0,0)"  stroke-width="2.0"/>
<line x1="154.3" y1="189.6" x2="128.6" y2="181.3" stroke="rgb(0,0,0)"  stroke-width="2.0"/>
<line x1="156.1" y1="183.9" x2="130.4" y2="175.6" stroke="rgb(0,0,0)"  stroke-width="2.0"/>
<line x1="184.9" y1="120.0" x2="163.1" y2="104.1" stroke="rgb(0,0,0)"  stroke-width="2.0"/>
<line x1="348.0" y1="120.0" x2="348.0" y2="160.0" stroke="rgb(0,0,0)"  stroke-width="2.0"/>
<line x1="348.0" y1="160.0" x2="322.3" y2="168.3" stroke="rgb(0,0,0)"  stroke-width="2.0"/>
<line x1="302.3" y1="161.8" x2="286.5" y2="140.0" stroke="rgb(0,0,0)"  stroke-width="2.0"/>
<line x1="286.5" y1="140.0" x2="310.0" y2="107.6" stroke="rgb(0,0,0)"  stroke-width="2.0"/>
<line x1="295.8" y1="139.4" x2="312.3" y2="116.7" stroke="rgb(0,0,0)"  stroke-width="2.0"/>
<line x1="310.0" y1="107.6" x2="348.0" y2="120.0" stroke="rgb(0,0,0)"  stroke-width="2.0"/>
<line x1="478.9" y1="140.0" x2="455.4" y2="172.4" stroke="rgb(0,0,0)"  stroke-width="2.0"/>
<line x1="469.5" y1="140.6" x2="453.1" y2="163.3" stroke="rgb(0,0,0)"  stroke-width="2.0"/>
<line x1="455.4" y1="172.4" x2="417.3" y2="160.0" stroke="rgb(0,0,0)"  stroke-width="2.0"/>
<line x1="417.3" y1="160.0" x2="417.3" y2="120.0" stroke="rgb(0,0,0)"  stroke-width="2.0"/>
<line x1="424.5" y1="154.0" x2="424.5" y2="126.0" stroke="rgb(0,0,0)"  stroke-width="2.0"/>
<line x1="417.3" y1="120.0" x2="443.0" y2="111.7" stroke="rgb(0,0,0)"  stroke-width="2.0"/>
<line x1="463.0" y1="118.2" x2="478.9" y2="140.0" stroke="rgb(0,0,0)"  stroke-width="2.0"/>
<line x1="155.9" y1="280.1" x2="140.0" y2="258.3" stroke="rgb(0,0,0)"  stroke-width="2.0"/>
<line x1="140.0" y1="258.3" x2="163.5" y2="225.9" stroke="rgb(0,0,0)"  stroke-width="2.0"/>
<line x1="149.4" y1="257.6" x2="165.8" y2="235.0" stroke="rgb(0,0,0)"  stroke-width="2.0"/>
<line x1="163.5" y1="225.9" x2="201.6" y2="238.3" stroke="rgb(0,0,0)"  stroke-width="2.0"/>
<line x1="201.6" y1="238.3" x2="201.6" y2="278.3" stroke="rgb(0,0,0)"  stroke-width="2.0"/>
<line x1="194.4" y1="244.3" x2="194.4" y2="272.3" stroke="rgb(0,0,0)"  stroke-width="2.0"/>
<line x1="201.6" y1="278.3" x2="175.9" y2="286.6" stroke="rgb(0,0,0)"  stroke-width="2.0"/>
<line x1="184.9" y1="160.0" x2="184.9" y2="120.0" stroke="rgb(0,0,0)"  stroke-width="2.0"/>
<line x1="192.1" y1="154.0" x2="192.1" y2="126.0" stroke="rgb(0,0,0)"  stroke-width="2.0"/>
<line x1="184.9" y1="120.0" x2="210.6" y2="111.7" stroke="rgb(0,0,0)"  stroke-width="2.0"/>
<line x1="230.6" y1="118.2" x2="246.5" y2="140.0" stroke="rgb(0,0,0)"  stroke-width="2.0"/>
<line x1="246.5" y1="140.0" x2="223.0" y2="172.4" stroke="rgb(0,0,0)"  stroke-width="2.0"/>
<line x1="237.1" y1="140.6" x2="220.7" y2="163.3" stroke="rgb(0,0,0)"  stroke-width="2.0"/>
<line x1="223.0" y1="172.4" x2="184.9" y2="160.0" stroke="rgb(0,0,0)"  stroke-width="2.0"/>
<line x1="417.3" y1="160.0" x2="382.7" y2="180.0" stroke="rgb(0,0,0)"  stroke-width="2.0"/>
<line x1="382.7" y1="180.0" x2="348.0" y2="160.0" stroke="rgb(0,0,0)"  stroke-width="2.0"/>
<line x1="381.1" y1="170.8" x2="356.8" y2="156.8" stroke="rgb(0,0,0)"  stroke-width="2.0"/>
<line x1="348.0" y1="120.0" x2="382.7" y2="100.0" stroke="rgb(0,0,0)"  stroke-width="2.0"/>
<line x1="356.8" y1="123.2" x2="381.1" y2="109.2" stroke="rgb(0,0,0)"  stroke-width="2.0"/>
<line x1="382.7" y1="100.0" x2="417.3" y2="120.0" stroke="rgb(0,0,0)"  stroke-width="2.0"/>
<line x1="231.3" y1="211.5" x2="201.6" y2="238.3" stroke="rgb(0,0,0)"  stroke-width="2.0"/>
<line x1="163.5" y1="225.9" x2="155.2" y2="186.8" stroke="rgb(0,0,0)"  stroke-width="2.0"/>
<line x1="155.2" y1="186.8" x2="184.9" y2="160.0" stroke="rgb(0,0,0)"  stroke-width="2.0"/>
<line x1="223.0" y1="172.4" x2="231.3" y2="211.5" stroke="rgb(0,0,0)"  stroke-width="2.0"/>
<text x="263.321724" y="231.847264" fill="rgb(255,12,12)"  stroke="rgb(255,12,12)" stroke-width="1" font-size="16" >O</text>
<text x="223.733212" y="349.544094" fill="rgb(255,12,12)"  stroke="rgb(255,12,12)" stroke-width="1" font-size="16" >O</text>
<text x="264.456169" y="293.493752" fill="rgb(255,12,12)"  stroke="rgb(255,12,12)" stroke-width="1" font-size="16" >O</text>
<text x="270.637307" y="253.712877" fill="rgb(102,102,102)"  stroke="rgb(102,102,102)" stroke-width="1" font-size="16" >CH</text>
<text x="294.637307" y="257.392877" fill="rgb(102,102,102)"  stroke="rgb(102,102,102)" stroke-width="1" font-size="13" >3</text>
<text x="157.511410" y="298.612488" fill="rgb(178,178,0)"  stroke="rgb(178,178,0)" stroke-width="1" font-size="16" >S</text>
<text x="303.985816" y="180.360680" fill="rgb(178,178,0)"  stroke="rgb(178,178,0)" stroke-width="1" font-size="16" >S</text>
<text x="74.000000" y="231.610792" fill="rgb(255,12,12)"  stroke="rgb(255,12,12)" stroke-width="1" font-size="16" >O</text>
<text x="74.000000" y="300.892824" fill="rgb(255,12,12)"  stroke="rgb(255,12,12)" stroke-width="1" font-size="16" >O</text>
<text x="14.000000" y="300.892824" fill="rgb(102,102,102)"  stroke="rgb(102,102,102)" stroke-width="1" font-size="16" >H</text>
<text x="26.000000" y="304.572824" fill="rgb(102,102,102)"  stroke="rgb(102,102,102)" stroke-width="1" font-size="13" >3</text>
<text x="32.500000" y="300.892824" fill="rgb(102,102,102)"  stroke="rgb(102,102,102)" stroke-width="1" font-size="16" >C</text>
<text x="111.152682" y="182.404544" fill="rgb(255,12,12)"  stroke="rgb(255,12,12)" stroke-width="1" font-size="16" >O</text>
<text x="146.560056" y="104.488590" fill="rgb(191,191,191)"  stroke="rgb(191,191,191)" stroke-width="1" font-size="16" >H</text>
<text x="216.962996" y="115.639320" fill="rgb(178,178,0)"  stroke="rgb(178,178,0)" stroke-width="1" font-size="16" >S</text>
<text x="291.625137" y="77.597060" fill="rgb(191,191,191)"  stroke="rgb(191,191,191)" stroke-width="1" font-size="16" >H</text>
<text x="342.028077" y="48.000000" fill="rgb(255,12,12)"  stroke="rgb(255,12,12)" stroke-width="1" font-size="16" >O</text>
<text x="411.310109" y="48.000000" fill="rgb(255,12,12)"  stroke="rgb(255,12,12)" stroke-width="1" font-size="16" >O</text>
<text x="447.951125" y="68.000000" fill="rgb(102,102,102)"  stroke="rgb(102,102,102)" stroke-width="1" font-size="16" >CH</text>
<text x="471.951125" y="71.680000" fill="rgb(102,102,102)"  stroke="rgb(102,102,102)" stroke-width="1" font-size="13" >3</text>
<text x="449.352370" y="115.639320" fill="rgb(178,178,0)"  stroke="rgb(178,178,0)" stroke-width="1" font-size="16" >S</text>
<text x="512.863780" y="148.000000" fill="rgb(191,191,191)"  stroke="rgb(191,191,191)" stroke-width="1" font-size="16" >H</text>
<text x="461.713050" y="218.402940" fill="rgb(191,191,191)"  stroke="rgb(191,191,191)" stroke-width="1" font-size="16" >H</text>
<text x="342.028077" y="248.000000" fill="rgb(255,12,12)"  stroke="rgb(255,12,12)" stroke-width="1" font-size="16" >O</text>
<text x="411.310109" y="248.000000" fill="rgb(255,12,12)"  stroke="rgb(255,12,12)" stroke-width="1" font-size="16" >O</text>
<text x="413.310109" y="288.000000" fill="rgb(102,102,102)"  stroke="rgb(102,102,102)" stroke-width="1" font-size="16" >CH</text>
<text x="437.310109" y="291.680000" fill="rgb(102,102,102)"  stroke="rgb(102,102,102)" stroke-width="1" font-size="13" >3</text>
</svg>
</g>
<text font-size="18.000000" fill ="black" font-family="sans-serif"
x="10.000000" y="20.000000" ></text>
</svg>
