<?xml version="1.0"?>
<svg version="1.1" id="topsvg"
xmlns="http://www.w3.org/2000/svg" xmlns:xlink="http://www.w3.org/1999/xlink"
xmlns:cml="http://www.xml-cml.org/schema" x="0" y="0" width="200px" height="200px" viewBox="0 0 100 100">
<title> - Open Babel Depiction</title>
<rect x="0" y="0" width="100" height="100" fill="white"/>
<g transform="translate(0,0)">
<svg width="100" height="100" x="0" y="0" viewBox="0 0 390.462 518.776"
font-family="sans-serif" stroke="rgb(0,0,0)" stroke-width="2"  stroke-linecap="round">
<line x1="183.4" y1="211.0" x2="162.5" y2="247.1" stroke="rgb(0,0,0)"  stroke-width="2.0"/>
<line x1="121.0" y1="251.5" x2="93.1" y2="220.5" stroke="rgb(0,0,0)"  stroke-width="2.0"/>
<line x1="93.1" y1="220.5" x2="73.8" y2="199.1" stroke="rgb(0,0,0)"  stroke-width="2.0"/>
<line x1="89.9" y1="223.3" x2="70.7" y2="201.9" stroke="rgb(0,0,0)"  stroke-width="2.0"/>
<line x1="96.2" y1="217.7" x2="76.9" y2="196.3" stroke="rgb(0,0,0)"  stroke-width="2.0"/>
<line x1="76.2" y1="313.2" x2="51.3" y2="298.8" stroke="rgb(0,0,0)"  stroke-width="2.0"/>
<line x1="62.1" y1="421.1" x2="47.7" y2="446.0" stroke="rgb(0,0,0)"  stroke-width="2.0"/>
<line x1="103.6" y1="416.7" x2="131.6" y2="447.7" stroke="rgb(0,0,0)"  stroke-width="2.0"/>
<line x1="131.6" y1="447.7" x2="150.8" y2="469.1" stroke="rgb(0,0,0)"  stroke-width="2.0"/>
<line x1="134.7" y1="444.9" x2="154.0" y2="466.3" stroke="rgb(0,0,0)"  stroke-width="2.0"/>
<line x1="128.5" y1="450.6" x2="147.7" y2="471.9" stroke="rgb(0,0,0)"  stroke-width="2.0"/>
<line x1="148.5" y1="355.0" x2="173.4" y2="369.4" stroke="rgb(0,0,0)"  stroke-width="2.0"/>
<line x1="290.4" y1="173.3" x2="304.8" y2="198.2" stroke="rgb(0,0,0)"  stroke-width="2.0"/>
<line x1="285.2" y1="176.3" x2="299.6" y2="201.2" stroke="rgb(0,0,0)"  stroke-width="2.0"/>
<line x1="321.7" y1="138.6" x2="337.5" y2="138.6" stroke="rgb(0,0,0)"  stroke-width="2.0"/>
<line x1="285.2" y1="101.0" x2="299.6" y2="76.1" stroke="rgb(0,0,0)"  stroke-width="2.0"/>
<line x1="290.4" y1="104.0" x2="304.8" y2="79.1" stroke="rgb(0,0,0)"  stroke-width="2.0"/>
<line x1="224.2" y1="78.9" x2="234.7" y2="52.1" stroke="rgb(0,0,0)"  stroke-width="2.0"/>
<line x1="141.1" y1="111.0" x2="127.2" y2="85.8" stroke="rgb(0,0,0)"  stroke-width="2.0"/>
<line x1="146.4" y1="108.1" x2="132.5" y2="82.9" stroke="rgb(0,0,0)"  stroke-width="2.0"/>
<line x1="113.5" y1="132.0" x2="97.9" y2="129.4" stroke="rgb(0,0,0)"  stroke-width="2.0"/>
<line x1="136.6" y1="165.5" x2="115.2" y2="184.6" stroke="rgb(0,0,0)"  stroke-width="2.0"/>
<line x1="132.6" y1="161.0" x2="111.2" y2="180.1" stroke="rgb(0,0,0)"  stroke-width="2.0"/>
<line x1="112.3" y1="292.3" x2="148.5" y2="313.2" stroke="rgb(0,0,0)"  stroke-width="2.0"/>
<line x1="148.5" y1="313.2" x2="169.9" y2="294.0" stroke="rgb(0,0,0)"  stroke-width="2.0"/>
<line x1="174.2" y1="273.4" x2="162.5" y2="247.1" stroke="rgb(0,0,0)"  stroke-width="2.0"/>
<line x1="162.5" y1="247.1" x2="121.0" y2="251.5" stroke="rgb(0,0,0)"  stroke-width="2.0"/>
<line x1="157.3" y1="254.9" x2="127.7" y2="258.0" stroke="rgb(0,0,0)"  stroke-width="2.0"/>
<line x1="121.0" y1="251.5" x2="112.3" y2="292.3" stroke="rgb(0,0,0)"  stroke-width="2.0"/>
<line x1="62.1" y1="421.1" x2="103.6" y2="416.7" stroke="rgb(0,0,0)"  stroke-width="2.0"/>
<line x1="67.3" y1="413.3" x2="96.9" y2="410.2" stroke="rgb(0,0,0)"  stroke-width="2.0"/>
<line x1="103.6" y1="416.7" x2="112.3" y2="375.9" stroke="rgb(0,0,0)"  stroke-width="2.0"/>
<line x1="112.3" y1="375.9" x2="76.2" y2="355.0" stroke="rgb(0,0,0)"  stroke-width="2.0"/>
<line x1="103.5" y1="379.1" x2="77.8" y2="364.2" stroke="rgb(0,0,0)"  stroke-width="2.0"/>
<line x1="76.2" y1="355.0" x2="54.8" y2="374.2" stroke="rgb(0,0,0)"  stroke-width="2.0"/>
<line x1="50.4" y1="394.8" x2="62.1" y2="421.1" stroke="rgb(0,0,0)"  stroke-width="2.0"/>
<line x1="112.3" y1="375.9" x2="148.5" y2="355.0" stroke="rgb(0,0,0)"  stroke-width="2.0"/>
<line x1="148.5" y1="355.0" x2="148.5" y2="313.2" stroke="rgb(0,0,0)"  stroke-width="2.0"/>
<line x1="141.3" y1="349.0" x2="141.3" y2="319.2" stroke="rgb(0,0,0)"  stroke-width="2.0"/>
<line x1="112.3" y1="292.3" x2="76.2" y2="313.2" stroke="rgb(0,0,0)"  stroke-width="2.0"/>
<line x1="110.7" y1="301.6" x2="85.0" y2="316.5" stroke="rgb(0,0,0)"  stroke-width="2.0"/>
<line x1="76.2" y1="313.2" x2="76.2" y2="355.0" stroke="rgb(0,0,0)"  stroke-width="2.0"/>
<line x1="246.1" y1="174.8" x2="225.2" y2="138.6" stroke="rgb(0,0,0)"  stroke-width="2.0"/>
<line x1="236.8" y1="173.2" x2="221.9" y2="147.4" stroke="rgb(0,0,0)"  stroke-width="2.0"/>
<line x1="225.2" y1="138.6" x2="183.4" y2="138.6" stroke="rgb(0,0,0)"  stroke-width="2.0"/>
<line x1="183.4" y1="138.6" x2="162.5" y2="174.8" stroke="rgb(0,0,0)"  stroke-width="2.0"/>
<line x1="186.7" y1="147.4" x2="171.8" y2="173.2" stroke="rgb(0,0,0)"  stroke-width="2.0"/>
<line x1="162.5" y1="174.8" x2="183.4" y2="211.0" stroke="rgb(0,0,0)"  stroke-width="2.0"/>
<line x1="183.4" y1="211.0" x2="225.2" y2="211.0" stroke="rgb(0,0,0)"  stroke-width="2.0"/>
<line x1="189.4" y1="203.8" x2="219.2" y2="203.8" stroke="rgb(0,0,0)"  stroke-width="2.0"/>
<line x1="225.2" y1="211.0" x2="246.1" y2="174.8" stroke="rgb(0,0,0)"  stroke-width="2.0"/>
<line x1="287.8" y1="102.5" x2="246.1" y2="102.5" stroke="rgb(0,0,0)"  stroke-width="2.0"/>
<line x1="246.1" y1="102.5" x2="225.2" y2="138.6" stroke="rgb(0,0,0)"  stroke-width="2.0"/>
<line x1="246.1" y1="174.8" x2="287.8" y2="174.8" stroke="rgb(0,0,0)"  stroke-width="2.0"/>
<line x1="287.8" y1="174.8" x2="302.2" y2="149.9" stroke="rgb(0,0,0)"  stroke-width="2.0"/>
<line x1="302.2" y1="127.4" x2="287.8" y2="102.5" stroke="rgb(0,0,0)"  stroke-width="2.0"/>
<line x1="192.1" y1="81.3" x2="173.9" y2="107.9" stroke="rgb(0,0,0)"  stroke-width="2.0"/>
<line x1="194.6" y1="90.3" x2="183.3" y2="107.0" stroke="rgb(0,0,0)"  stroke-width="2.0"/>
<line x1="173.9" y1="107.9" x2="183.4" y2="138.6" stroke="rgb(0,0,0)"  stroke-width="2.0"/>
<line x1="246.1" y1="102.5" x2="224.2" y2="78.9" stroke="rgb(0,0,0)"  stroke-width="2.0"/>
<line x1="236.7" y1="103.0" x2="223.0" y2="88.2" stroke="rgb(0,0,0)"  stroke-width="2.0"/>
<line x1="224.2" y1="78.9" x2="192.1" y2="81.3" stroke="rgb(0,0,0)"  stroke-width="2.0"/>
<line x1="129.9" y1="146.7" x2="134.6" y2="163.2" stroke="rgb(0,0,0)"  stroke-width="2.0"/>
<line x1="134.6" y1="163.2" x2="162.5" y2="174.8" stroke="rgb(0,0,0)"  stroke-width="2.0"/>
<line x1="173.9" y1="107.9" x2="143.8" y2="109.6" stroke="rgb(0,0,0)"  stroke-width="2.0"/>
<line x1="143.8" y1="109.6" x2="133.8" y2="123.6" stroke="rgb(0,0,0)"  stroke-width="2.0"/>
<text x="302.702396" y="218.964881" fill="rgb(255,12,12)"  stroke="rgb(255,12,12)" stroke-width="1" font-size="16" >O</text>
<text x="302.702396" y="146.634889" fill="rgb(12,12,255)"  stroke="rgb(12,12,255)" stroke-width="1" font-size="16" >N</text>
<text x="346.462136" y="146.634889" fill="rgb(102,102,102)"  stroke="rgb(102,102,102)" stroke-width="1" font-size="16" >CH</text>
<text x="370.462136" y="150.314889" fill="rgb(102,102,102)"  stroke="rgb(102,102,102)" stroke-width="1" font-size="13" >3</text>
<text x="302.702396" y="74.304898" fill="rgb(255,12,12)"  stroke="rgb(255,12,12)" stroke-width="1" font-size="16" >O</text>
<text x="233.424657" y="48.000000" fill="rgb(191,191,191)"  stroke="rgb(191,191,191)" stroke-width="1" font-size="16" >H</text>
<text x="117.580386" y="81.004874" fill="rgb(255,12,12)"  stroke="rgb(255,12,12)" stroke-width="1" font-size="16" >O</text>
<text x="120.278674" y="142.195109" fill="rgb(12,12,255)"  stroke="rgb(12,12,255)" stroke-width="1" font-size="16" >N</text>
<text x="59.111068" y="135.187679" fill="rgb(102,102,102)"  stroke="rgb(102,102,102)" stroke-width="1" font-size="16" >H</text>
<text x="71.111068" y="138.867679" fill="rgb(102,102,102)"  stroke="rgb(102,102,102)" stroke-width="1" font-size="13" >3</text>
<text x="77.611068" y="135.187679" fill="rgb(102,102,102)"  stroke="rgb(102,102,102)" stroke-width="1" font-size="16" >C</text>
<text x="97.487663" y="199.046630" fill="rgb(255,12,12)"  stroke="rgb(255,12,12)" stroke-width="1" font-size="16" >O</text>
<text x="35.236807" y="465.238895" fill="rgb(191,191,191)"  stroke="rgb(191,191,191)" stroke-width="1" font-size="16" >H</text>
<text x="59.126889" y="197.427889" fill="rgb(12,12,255)"  stroke="rgb(12,12,255)" stroke-width="1" font-size="16" >N</text>
<text x="34.000000" y="300.342148" fill="rgb(191,191,191)"  stroke="rgb(191,191,191)" stroke-width="1" font-size="16" >H</text>
<text x="39.131461" y="390.924478" fill="rgb(178,178,0)"  stroke="rgb(178,178,0)" stroke-width="1" font-size="16" >S</text>
<text x="153.533094" y="486.775887" fill="rgb(12,12,255)"  stroke="rgb(12,12,255)" stroke-width="1" font-size="16" >N</text>
<text x="178.659983" y="383.861628" fill="rgb(191,191,191)"  stroke="rgb(191,191,191)" stroke-width="1" font-size="16" >H</text>
<text x="173.528522" y="293.279298" fill="rgb(178,178,0)"  stroke="rgb(178,178,0)" stroke-width="1" font-size="16" >S</text>
</svg>
</g>
<text font-size="18.000000" fill ="black" font-family="sans-serif"
x="10.000000" y="20.000000" ></text>
</svg>
