<?xml version="1.0"?>
<svg version="1.1" id="topsvg"
xmlns="http://www.w3.org/2000/svg" xmlns:xlink="http://www.w3.org/1999/xlink"
xmlns:cml="http://www.xml-cml.org/schema" x="0" y="0" width="200px" height="200px" viewBox="0 0 100 100">
<title> - Open Babel Depiction</title>
<rect x="0" y="0" width="100" height="100" fill="white"/>
<g transform="translate(0,0)">
<svg width="100" height="100" x="0" y="0" viewBox="0 0 475.922 267.945"
font-family="sans-serif" stroke="rgb(0,0,0)" stroke-width="2"  stroke-linecap="round">
<line x1="143.5" y1="134.2" x2="180.0" y2="117.9" stroke="rgb(0,0,0)"  stroke-width="2.0"/>
<line x1="188.4" y1="78.8" x2="170.3" y2="58.8" stroke="rgb(0,0,0)"  stroke-width="2.0"/>
<line x1="228.1" y1="74.6" x2="241.6" y2="51.3" stroke="rgb(0,0,0)"  stroke-width="2.0"/>
<line x1="244.4" y1="111.2" x2="283.5" y2="119.5" stroke="rgb(0,0,0)"  stroke-width="2.0"/>
<line x1="286.4" y1="118.6" x2="298.7" y2="156.6" stroke="rgb(0,0,0)"  stroke-width="2.0"/>
<line x1="280.7" y1="120.4" x2="293.0" y2="158.5" stroke="rgb(0,0,0)"  stroke-width="2.0"/>
<line x1="295.9" y1="157.5" x2="335.0" y2="165.9" stroke="rgb(0,0,0)"  stroke-width="2.0"/>
<line x1="364.7" y1="139.1" x2="361.9" y2="112.2" stroke="rgb(0,0,0)"  stroke-width="2.0"/>
<line x1="399.4" y1="159.1" x2="424.0" y2="148.1" stroke="rgb(0,0,0)"  stroke-width="2.0"/>
<line x1="391.1" y1="198.2" x2="409.1" y2="218.3" stroke="rgb(0,0,0)"  stroke-width="2.0"/>
<line x1="79.1" y1="141.0" x2="52.7" y2="135.4" stroke="rgb(0,0,0)"  stroke-width="2.0"/>
<line x1="111.4" y1="101.1" x2="117.1" y2="88.3" stroke="rgb(0,0,0)"  stroke-width="2.0"/>
<line x1="116.9" y1="103.6" x2="122.6" y2="90.8" stroke="rgb(0,0,0)"  stroke-width="2.0"/>
<line x1="98.8" y1="105.5" x2="90.6" y2="94.1" stroke="rgb(0,0,0)"  stroke-width="2.0"/>
<line x1="103.6" y1="101.9" x2="95.4" y2="90.6" stroke="rgb(0,0,0)"  stroke-width="2.0"/>
<line x1="228.1" y1="74.6" x2="244.4" y2="111.2" stroke="rgb(0,0,0)"  stroke-width="2.0"/>
<line x1="224.0" y1="83.1" x2="235.4" y2="108.6" stroke="rgb(0,0,0)"  stroke-width="2.0"/>
<line x1="244.4" y1="111.2" x2="224.3" y2="129.2" stroke="rgb(0,0,0)"  stroke-width="2.0"/>
<line x1="203.4" y1="131.4" x2="180.0" y2="117.9" stroke="rgb(0,0,0)"  stroke-width="2.0"/>
<line x1="180.0" y1="117.9" x2="188.4" y2="78.8" stroke="rgb(0,0,0)"  stroke-width="2.0"/>
<line x1="188.3" y1="113.6" x2="194.1" y2="86.2" stroke="rgb(0,0,0)"  stroke-width="2.0"/>
<line x1="188.4" y1="78.8" x2="228.1" y2="74.6" stroke="rgb(0,0,0)"  stroke-width="2.0"/>
<line x1="399.4" y1="159.1" x2="391.1" y2="198.2" stroke="rgb(0,0,0)"  stroke-width="2.0"/>
<line x1="391.1" y1="163.5" x2="385.3" y2="190.9" stroke="rgb(0,0,0)"  stroke-width="2.0"/>
<line x1="391.1" y1="198.2" x2="364.2" y2="201.0" stroke="rgb(0,0,0)"  stroke-width="2.0"/>
<line x1="346.0" y1="190.5" x2="335.0" y2="165.9" stroke="rgb(0,0,0)"  stroke-width="2.0"/>
<line x1="335.0" y1="165.9" x2="364.7" y2="139.1" stroke="rgb(0,0,0)"  stroke-width="2.0"/>
<line x1="344.3" y1="167.2" x2="365.1" y2="148.5" stroke="rgb(0,0,0)"  stroke-width="2.0"/>
<line x1="364.7" y1="139.1" x2="399.4" y2="159.1" stroke="rgb(0,0,0)"  stroke-width="2.0"/>
<line x1="95.4" y1="177.5" x2="79.1" y2="141.0" stroke="rgb(0,0,0)"  stroke-width="2.0"/>
<line x1="99.5" y1="169.1" x2="88.1" y2="143.5" stroke="rgb(0,0,0)"  stroke-width="2.0"/>
<line x1="79.1" y1="141.0" x2="99.2" y2="122.9" stroke="rgb(0,0,0)"  stroke-width="2.0"/>
<line x1="120.1" y1="120.7" x2="143.5" y2="134.2" stroke="rgb(0,0,0)"  stroke-width="2.0"/>
<line x1="143.5" y1="134.2" x2="135.2" y2="173.3" stroke="rgb(0,0,0)"  stroke-width="2.0"/>
<line x1="135.2" y1="138.6" x2="129.4" y2="166.0" stroke="rgb(0,0,0)"  stroke-width="2.0"/>
<line x1="135.2" y1="173.3" x2="95.4" y2="177.5" stroke="rgb(0,0,0)"  stroke-width="2.0"/>
<text x="354.558483" y="107.311930" fill="rgb(127,178,255)"  stroke="rgb(127,178,255)" stroke-width="1" font-size="16" >F</text>
<text x="79.340287" y="89.856845" fill="rgb(255,12,12)"  stroke="rgb(255,12,12)" stroke-width="1" font-size="16" >O</text>
<text x="119.121163" y="85.675706" fill="rgb(255,12,12)"  stroke="rgb(255,12,12)" stroke-width="1" font-size="16" >O</text>
<text x="102.851697" y="122.217524" fill="rgb(178,178,0)"  stroke="rgb(178,178,0)" stroke-width="1" font-size="16" >S</text>
<text x="34.000000" y="140.666281" fill="rgb(191,191,191)"  stroke="rgb(191,191,191)" stroke-width="1" font-size="16" >H</text>
<text x="345.283294" y="210.399849" fill="rgb(178,178,0)"  stroke="rgb(178,178,0)" stroke-width="1" font-size="16" >S</text>
<text x="411.829394" y="235.944503" fill="rgb(191,191,191)"  stroke="rgb(191,191,191)" stroke-width="1" font-size="16" >H</text>
<text x="429.922456" y="150.823340" fill="rgb(30,239,30)"  stroke="rgb(30,239,30)" stroke-width="1" font-size="16" >Cl</text>
<text x="208.675548" y="145.948059" fill="rgb(178,178,0)"  stroke="rgb(178,178,0)" stroke-width="1" font-size="16" >S</text>
<text x="242.131875" y="48.000000" fill="rgb(127,178,255)"  stroke="rgb(127,178,255)" stroke-width="1" font-size="16" >F</text>
<text x="143.585775" y="57.096362" fill="rgb(30,239,30)"  stroke="rgb(30,239,30)" stroke-width="1" font-size="16" >Cl</text>
</svg>
</g>
<text font-size="18.000000" fill ="black" font-family="sans-serif"
x="10.000000" y="20.000000" ></text>
</svg>
