<?xml version="1.0"?>
<svg version="1.1" id="topsvg"
xmlns="http://www.w3.org/2000/svg" xmlns:xlink="http://www.w3.org/1999/xlink"
xmlns:cml="http://www.xml-cml.org/schema" x="0" y="0" width="200px" height="200px" viewBox="0 0 100 100">
<title> - Open Babel Depiction</title>
<rect x="0" y="0" width="100" height="100" fill="white"/>
<g transform="translate(0,0)">
<svg width="100" height="100" x="0" y="0" viewBox="0 0 481.394 251.66"
font-family="sans-serif" stroke="rgb(0,0,0)" stroke-width="2"  stroke-linecap="round">
<line x1="311.4" y1="142.2" x2="277.6" y2="122.7" stroke="rgb(0,0,0)"  stroke-width="2.0"/>
<line x1="176.1" y1="155.2" x2="176.1" y2="169.2" stroke="rgb(0,0,0)"  stroke-width="2.0"/>
<line x1="74.6" y1="122.6" x2="51.3" y2="136.1" stroke="rgb(0,0,0)"  stroke-width="2.0"/>
<line x1="346.3" y1="79.9" x2="328.9" y2="60.5" stroke="rgb(0,0,0)"  stroke-width="2.0"/>
<line x1="350.7" y1="75.9" x2="333.3" y2="56.5" stroke="rgb(0,0,0)"  stroke-width="2.0"/>
<line x1="393.8" y1="62.5" x2="400.4" y2="51.3" stroke="rgb(0,0,0)"  stroke-width="2.0"/>
<line x1="403.2" y1="109.5" x2="428.7" y2="114.9" stroke="rgb(0,0,0)"  stroke-width="2.0"/>
<line x1="368.3" y1="171.8" x2="385.7" y2="191.1" stroke="rgb(0,0,0)"  stroke-width="2.0"/>
<line x1="363.8" y1="175.8" x2="381.3" y2="195.1" stroke="rgb(0,0,0)"  stroke-width="2.0"/>
<line x1="320.7" y1="189.1" x2="314.2" y2="200.4" stroke="rgb(0,0,0)"  stroke-width="2.0"/>
<line x1="142.3" y1="122.6" x2="142.3" y2="83.6" stroke="rgb(0,0,0)"  stroke-width="2.0"/>
<line x1="142.3" y1="83.6" x2="209.9" y2="83.6" stroke="rgb(0,0,0)"  stroke-width="2.0"/>
<line x1="209.9" y1="83.6" x2="209.9" y2="122.6" stroke="rgb(0,0,0)"  stroke-width="2.0"/>
<line x1="202.7" y1="89.6" x2="202.7" y2="116.6" stroke="rgb(0,0,0)"  stroke-width="2.0"/>
<line x1="209.9" y1="122.6" x2="187.4" y2="135.7" stroke="rgb(0,0,0)"  stroke-width="2.0"/>
<line x1="164.9" y1="135.7" x2="142.3" y2="122.6" stroke="rgb(0,0,0)"  stroke-width="2.0"/>
<line x1="348.5" y1="77.9" x2="374.4" y2="75.2" stroke="rgb(0,0,0)"  stroke-width="2.0"/>
<line x1="392.6" y1="85.7" x2="403.2" y2="109.5" stroke="rgb(0,0,0)"  stroke-width="2.0"/>
<line x1="403.2" y1="109.5" x2="374.2" y2="135.6" stroke="rgb(0,0,0)"  stroke-width="2.0"/>
<line x1="393.9" y1="108.1" x2="373.8" y2="126.2" stroke="rgb(0,0,0)"  stroke-width="2.0"/>
<line x1="374.2" y1="135.6" x2="340.4" y2="116.1" stroke="rgb(0,0,0)"  stroke-width="2.0"/>
<line x1="340.4" y1="116.1" x2="348.5" y2="77.9" stroke="rgb(0,0,0)"  stroke-width="2.0"/>
<line x1="374.2" y1="135.6" x2="366.1" y2="173.8" stroke="rgb(0,0,0)"  stroke-width="2.0"/>
<line x1="366.1" y1="173.8" x2="340.2" y2="176.5" stroke="rgb(0,0,0)"  stroke-width="2.0"/>
<line x1="322.0" y1="166.0" x2="311.4" y2="142.2" stroke="rgb(0,0,0)"  stroke-width="2.0"/>
<line x1="311.4" y1="142.2" x2="340.4" y2="116.1" stroke="rgb(0,0,0)"  stroke-width="2.0"/>
<line x1="320.6" y1="143.5" x2="340.7" y2="125.4" stroke="rgb(0,0,0)"  stroke-width="2.0"/>
<line x1="209.9" y1="83.6" x2="243.8" y2="64.1" stroke="rgb(0,0,0)"  stroke-width="2.0"/>
<line x1="243.8" y1="64.1" x2="277.6" y2="83.6" stroke="rgb(0,0,0)"  stroke-width="2.0"/>
<line x1="245.4" y1="73.3" x2="268.8" y2="86.8" stroke="rgb(0,0,0)"  stroke-width="2.0"/>
<line x1="277.6" y1="83.6" x2="277.6" y2="122.7" stroke="rgb(0,0,0)"  stroke-width="2.0"/>
<line x1="277.6" y1="122.7" x2="243.7" y2="142.2" stroke="rgb(0,0,0)"  stroke-width="2.0"/>
<line x1="268.8" y1="119.4" x2="245.3" y2="132.9" stroke="rgb(0,0,0)"  stroke-width="2.0"/>
<line x1="243.7" y1="142.2" x2="209.9" y2="122.6" stroke="rgb(0,0,0)"  stroke-width="2.0"/>
<line x1="108.5" y1="142.1" x2="142.3" y2="122.6" stroke="rgb(0,0,0)"  stroke-width="2.0"/>
<line x1="110.1" y1="132.9" x2="133.5" y2="119.4" stroke="rgb(0,0,0)"  stroke-width="2.0"/>
<line x1="142.3" y1="83.6" x2="108.5" y2="64.0" stroke="rgb(0,0,0)"  stroke-width="2.0"/>
<line x1="133.5" y1="86.8" x2="110.1" y2="73.3" stroke="rgb(0,0,0)"  stroke-width="2.0"/>
<line x1="108.5" y1="64.0" x2="74.7" y2="83.6" stroke="rgb(0,0,0)"  stroke-width="2.0"/>
<line x1="74.7" y1="83.6" x2="74.6" y2="122.6" stroke="rgb(0,0,0)"  stroke-width="2.0"/>
<line x1="81.9" y1="89.6" x2="81.8" y2="116.6" stroke="rgb(0,0,0)"  stroke-width="2.0"/>
<line x1="74.6" y1="122.6" x2="108.5" y2="142.1" stroke="rgb(0,0,0)"  stroke-width="2.0"/>
<text x="301.714148" y="219.660342" fill="rgb(191,191,191)"  stroke="rgb(191,191,191)" stroke-width="1" font-size="16" >H</text>
<text x="321.240145" y="185.853521" fill="rgb(12,12,255)"  stroke="rgb(12,12,255)" stroke-width="1" font-size="16" >N</text>
<text x="386.185865" y="210.796442" fill="rgb(255,12,12)"  stroke="rgb(255,12,12)" stroke-width="1" font-size="16" >O</text>
<text x="435.394249" y="125.598281" fill="rgb(191,191,191)"  stroke="rgb(191,191,191)" stroke-width="1" font-size="16" >H</text>
<text x="400.860983" y="48.000000" fill="rgb(191,191,191)"  stroke="rgb(191,191,191)" stroke-width="1" font-size="16" >H</text>
<text x="381.334986" y="81.806822" fill="rgb(12,12,255)"  stroke="rgb(12,12,255)" stroke-width="1" font-size="16" >N</text>
<text x="316.389266" y="56.863900" fill="rgb(255,12,12)"  stroke="rgb(255,12,12)" stroke-width="1" font-size="16" >O</text>
<text x="34.000000" y="150.611118" fill="rgb(191,191,191)"  stroke="rgb(191,191,191)" stroke-width="1" font-size="16" >H</text>
<text x="170.106346" y="190.161620" fill="rgb(191,191,191)"  stroke="rgb(191,191,191)" stroke-width="1" font-size="16" >H</text>
<text x="170.109121" y="150.161620" fill="rgb(12,12,255)"  stroke="rgb(12,12,255)" stroke-width="1" font-size="16" >N</text>
</svg>
</g>
<text font-size="18.000000" fill ="black" font-family="sans-serif"
x="10.000000" y="20.000000" ></text>
</svg>
