<?xml version="1.0"?>
<svg version="1.1" id="topsvg"
xmlns="http://www.w3.org/2000/svg" xmlns:xlink="http://www.w3.org/1999/xlink"
xmlns:cml="http://www.xml-cml.org/schema" x="0" y="0" width="200px" height="200px" viewBox="0 0 100 100">
<title> - Open Babel Depiction</title>
<rect x="0" y="0" width="100" height="100" fill="white"/>
<g transform="translate(0,0)">
<svg width="100" height="100" x="0" y="0" viewBox="0 0 443.476 260.948"
font-family="sans-serif" stroke="rgb(0,0,0)" stroke-width="2"  stroke-linecap="round">
<line x1="305.6" y1="116.5" x2="272.5" y2="97.4" stroke="rgb(0,0,0)"  stroke-width="2.0"/>
<line x1="173.1" y1="116.5" x2="173.1" y2="154.7" stroke="rgb(0,0,0)"  stroke-width="2.0"/>
<line x1="173.1" y1="151.7" x2="198.4" y2="151.7" stroke="rgb(0,0,0)"  stroke-width="2.0"/>
<line x1="173.1" y1="157.7" x2="198.4" y2="157.7" stroke="rgb(0,0,0)"  stroke-width="2.0"/>
<line x1="173.1" y1="154.7" x2="160.5" y2="176.6" stroke="rgb(0,0,0)"  stroke-width="2.0"/>
<line x1="160.5" y1="199.1" x2="166.7" y2="209.7" stroke="rgb(0,0,0)"  stroke-width="2.0"/>
<line x1="173.1" y1="116.5" x2="106.9" y2="154.7" stroke="rgb(0,0,0)"  stroke-width="2.0"/>
<line x1="105.4" y1="157.3" x2="83.6" y2="144.7" stroke="rgb(0,0,0)"  stroke-width="2.0"/>
<line x1="108.4" y1="152.1" x2="86.6" y2="139.5" stroke="rgb(0,0,0)"  stroke-width="2.0"/>
<line x1="106.9" y1="154.7" x2="106.9" y2="180.0" stroke="rgb(0,0,0)"  stroke-width="2.0"/>
<line x1="95.7" y1="199.5" x2="85.1" y2="205.6" stroke="rgb(0,0,0)"  stroke-width="2.0"/>
<line x1="73.8" y1="97.4" x2="51.3" y2="110.4" stroke="rgb(0,0,0)"  stroke-width="2.0"/>
<line x1="362.4" y1="167.6" x2="381.2" y2="184.5" stroke="rgb(0,0,0)"  stroke-width="2.0"/>
<line x1="326.1" y1="179.5" x2="320.8" y2="204.1" stroke="rgb(0,0,0)"  stroke-width="2.0"/>
<line x1="297.6" y1="153.9" x2="273.7" y2="161.7" stroke="rgb(0,0,0)"  stroke-width="2.0"/>
<line x1="370.4" y1="71.1" x2="382.6" y2="72.4" stroke="rgb(0,0,0)"  stroke-width="2.0"/>
<line x1="398.2" y1="86.4" x2="400.8" y2="98.4" stroke="rgb(0,0,0)"  stroke-width="2.0"/>
<line x1="392.5" y1="117.4" x2="370.4" y2="130.2" stroke="rgb(0,0,0)"  stroke-width="2.0"/>
<line x1="387.1" y1="112.3" x2="372.0" y2="121.0" stroke="rgb(0,0,0)"  stroke-width="2.0"/>
<line x1="370.4" y1="130.2" x2="342.0" y2="104.7" stroke="rgb(0,0,0)"  stroke-width="2.0"/>
<line x1="342.0" y1="104.7" x2="352.4" y2="81.3" stroke="rgb(0,0,0)"  stroke-width="2.0"/>
<line x1="351.0" y1="102.1" x2="358.1" y2="86.2" stroke="rgb(0,0,0)"  stroke-width="2.0"/>
<line x1="206.2" y1="97.4" x2="206.2" y2="59.1" stroke="rgb(0,0,0)"  stroke-width="2.0"/>
<line x1="213.4" y1="91.4" x2="213.4" y2="65.1" stroke="rgb(0,0,0)"  stroke-width="2.0"/>
<line x1="206.2" y1="59.1" x2="239.4" y2="40.0" stroke="rgb(0,0,0)"  stroke-width="2.0"/>
<line x1="239.4" y1="40.0" x2="272.5" y2="59.1" stroke="rgb(0,0,0)"  stroke-width="2.0"/>
<line x1="241.0" y1="49.2" x2="263.7" y2="62.4" stroke="rgb(0,0,0)"  stroke-width="2.0"/>
<line x1="272.5" y1="59.1" x2="272.5" y2="97.4" stroke="rgb(0,0,0)"  stroke-width="2.0"/>
<line x1="272.5" y1="97.4" x2="239.4" y2="116.5" stroke="rgb(0,0,0)"  stroke-width="2.0"/>
<line x1="263.7" y1="94.1" x2="241.0" y2="107.3" stroke="rgb(0,0,0)"  stroke-width="2.0"/>
<line x1="239.4" y1="116.5" x2="206.2" y2="97.4" stroke="rgb(0,0,0)"  stroke-width="2.0"/>
<line x1="106.9" y1="116.5" x2="140.0" y2="97.4" stroke="rgb(0,0,0)"  stroke-width="2.0"/>
<line x1="108.5" y1="107.3" x2="131.2" y2="94.1" stroke="rgb(0,0,0)"  stroke-width="2.0"/>
<line x1="140.0" y1="97.4" x2="140.0" y2="59.1" stroke="rgb(0,0,0)"  stroke-width="2.0"/>
<line x1="140.0" y1="59.1" x2="106.9" y2="40.0" stroke="rgb(0,0,0)"  stroke-width="2.0"/>
<line x1="131.2" y1="62.4" x2="108.5" y2="49.2" stroke="rgb(0,0,0)"  stroke-width="2.0"/>
<line x1="106.9" y1="40.0" x2="73.8" y2="59.1" stroke="rgb(0,0,0)"  stroke-width="2.0"/>
<line x1="73.8" y1="59.1" x2="73.8" y2="97.4" stroke="rgb(0,0,0)"  stroke-width="2.0"/>
<line x1="81.0" y1="65.1" x2="81.0" y2="91.4" stroke="rgb(0,0,0)"  stroke-width="2.0"/>
<line x1="73.8" y1="97.4" x2="106.9" y2="116.5" stroke="rgb(0,0,0)"  stroke-width="2.0"/>
<line x1="370.4" y1="130.2" x2="362.4" y2="167.6" stroke="rgb(0,0,0)"  stroke-width="2.0"/>
<line x1="362.4" y1="167.6" x2="326.1" y2="179.5" stroke="rgb(0,0,0)"  stroke-width="2.0"/>
<line x1="354.5" y1="162.7" x2="329.5" y2="170.8" stroke="rgb(0,0,0)"  stroke-width="2.0"/>
<line x1="326.1" y1="179.5" x2="297.6" y2="153.9" stroke="rgb(0,0,0)"  stroke-width="2.0"/>
<line x1="297.6" y1="153.9" x2="305.6" y2="116.5" stroke="rgb(0,0,0)"  stroke-width="2.0"/>
<line x1="305.9" y1="149.5" x2="311.4" y2="123.9" stroke="rgb(0,0,0)"  stroke-width="2.0"/>
<line x1="305.6" y1="116.5" x2="342.0" y2="104.7" stroke="rgb(0,0,0)"  stroke-width="2.0"/>
<line x1="140.0" y1="59.1" x2="206.2" y2="59.1" stroke="rgb(0,0,0)"  stroke-width="2.0"/>
<line x1="206.2" y1="97.4" x2="173.1" y2="116.5" stroke="rgb(0,0,0)"  stroke-width="2.0"/>
<line x1="173.1" y1="116.5" x2="140.0" y2="97.4" stroke="rgb(0,0,0)"  stroke-width="2.0"/>
<text x="397.475522" y="119.128006" fill="rgb(12,12,255)"  stroke="rgb(12,12,255)" stroke-width="1" font-size="16" >N</text>
<text x="351.500224" y="77.739219" fill="rgb(12,12,255)"  stroke="rgb(12,12,255)" stroke-width="1" font-size="16" >N</text>
<text x="389.523230" y="81.732108" fill="rgb(178,178,0)"  stroke="rgb(178,178,0)" stroke-width="1" font-size="16" >S</text>
<text x="384.836098" y="201.224071" fill="rgb(191,191,191)"  stroke="rgb(191,191,191)" stroke-width="1" font-size="16" >H</text>
<text x="300.116501" y="224.859400" fill="rgb(30,239,30)"  stroke="rgb(30,239,30)" stroke-width="1" font-size="16" >Cl</text>
<text x="243.287907" y="173.700046" fill="rgb(30,239,30)"  stroke="rgb(30,239,30)" stroke-width="1" font-size="16" >Cl</text>
<text x="205.375771" y="162.720865" fill="rgb(255,12,12)"  stroke="rgb(255,12,12)" stroke-width="1" font-size="16" >O</text>
<text x="148.033953" y="195.841740" fill="rgb(255,12,12)"  stroke="rgb(255,12,12)" stroke-width="1" font-size="16" >O</text>
<text x="169.156299" y="228.948054" fill="rgb(102,102,102)"  stroke="rgb(102,102,102)" stroke-width="1" font-size="16" >CH</text>
<text x="193.156299" y="232.628054" fill="rgb(102,102,102)"  stroke="rgb(102,102,102)" stroke-width="1" font-size="13" >3</text>
<text x="67.808858" y="143.624128" fill="rgb(255,12,12)"  stroke="rgb(255,12,12)" stroke-width="1" font-size="16" >O</text>
<text x="100.925755" y="200.968244" fill="rgb(255,12,12)"  stroke="rgb(255,12,12)" stroke-width="1" font-size="16" >O</text>
<text x="47.818114" y="220.088293" fill="rgb(102,102,102)"  stroke="rgb(102,102,102)" stroke-width="1" font-size="16" >H</text>
<text x="59.818114" y="223.768293" fill="rgb(102,102,102)"  stroke="rgb(102,102,102)" stroke-width="1" font-size="13" >3</text>
<text x="66.318114" y="220.088293" fill="rgb(102,102,102)"  stroke="rgb(102,102,102)" stroke-width="1" font-size="16" >C</text>
<text x="34.000000" y="124.882000" fill="rgb(191,191,191)"  stroke="rgb(191,191,191)" stroke-width="1" font-size="16" >H</text>
</svg>
</g>
<text font-size="18.000000" fill ="black" font-family="sans-serif"
x="10.000000" y="20.000000" ></text>
</svg>
