<?xml version="1.0"?>
<svg version="1.1" id="topsvg"
xmlns="http://www.w3.org/2000/svg" xmlns:xlink="http://www.w3.org/1999/xlink"
xmlns:cml="http://www.xml-cml.org/schema" x="0" y="0" width="200px" height="200px" viewBox="0 0 100 100">
<title> - Open Babel Depiction</title>
<rect x="0" y="0" width="100" height="100" fill="white"/>
<g transform="translate(0,0)">
<svg width="100" height="100" x="0" y="0" viewBox="0 0 480.726 561.09"
font-family="sans-serif" stroke="rgb(0,0,0)" stroke-width="2"  stroke-linecap="round">
<line x1="212.0" y1="210.3" x2="191.2" y2="246.3" stroke="rgb(0,0,0)"  stroke-width="2.0"/>
<line x1="149.8" y1="250.6" x2="130.7" y2="229.4" stroke="rgb(0,0,0)"  stroke-width="2.0"/>
<line x1="141.2" y1="291.3" x2="103.2" y2="308.2" stroke="rgb(0,0,0)"  stroke-width="2.0"/>
<line x1="103.2" y1="308.2" x2="77.1" y2="319.8" stroke="rgb(0,0,0)"  stroke-width="2.0"/>
<line x1="104.9" y1="312.1" x2="78.8" y2="323.7" stroke="rgb(0,0,0)"  stroke-width="2.0"/>
<line x1="101.5" y1="304.4" x2="75.4" y2="316.0" stroke="rgb(0,0,0)"  stroke-width="2.0"/>
<line x1="177.2" y1="312.1" x2="181.6" y2="353.5" stroke="rgb(0,0,0)"  stroke-width="2.0"/>
<line x1="183.3" y1="355.9" x2="149.7" y2="380.3" stroke="rgb(0,0,0)"  stroke-width="2.0"/>
<line x1="179.8" y1="351.0" x2="146.2" y2="375.5" stroke="rgb(0,0,0)"  stroke-width="2.0"/>
<line x1="147.9" y1="377.9" x2="152.3" y2="419.3" stroke="rgb(0,0,0)"  stroke-width="2.0"/>
<line x1="121.4" y1="447.1" x2="80.7" y2="438.4" stroke="rgb(0,0,0)"  stroke-width="2.0"/>
<line x1="80.7" y1="438.4" x2="52.7" y2="432.5" stroke="rgb(0,0,0)"  stroke-width="2.0"/>
<line x1="79.8" y1="442.5" x2="51.8" y2="436.6" stroke="rgb(0,0,0)"  stroke-width="2.0"/>
<line x1="81.6" y1="434.3" x2="53.6" y2="428.4" stroke="rgb(0,0,0)"  stroke-width="2.0"/>
<line x1="138.3" y1="485.1" x2="124.0" y2="509.8" stroke="rgb(0,0,0)"  stroke-width="2.0"/>
<line x1="179.6" y1="480.7" x2="198.8" y2="502.0" stroke="rgb(0,0,0)"  stroke-width="2.0"/>
<line x1="318.6" y1="172.7" x2="332.9" y2="197.5" stroke="rgb(0,0,0)"  stroke-width="2.0"/>
<line x1="313.4" y1="175.7" x2="327.7" y2="200.5" stroke="rgb(0,0,0)"  stroke-width="2.0"/>
<line x1="349.8" y1="138.2" x2="378.3" y2="138.2" stroke="rgb(0,0,0)"  stroke-width="2.0"/>
<line x1="375.7" y1="136.7" x2="390.0" y2="112.0" stroke="rgb(0,0,0)"  stroke-width="2.0"/>
<line x1="380.9" y1="139.7" x2="395.2" y2="115.0" stroke="rgb(0,0,0)"  stroke-width="2.0"/>
<line x1="378.3" y1="138.2" x2="392.6" y2="163.0" stroke="rgb(0,0,0)"  stroke-width="2.0"/>
<line x1="412.1" y1="174.2" x2="427.7" y2="174.2" stroke="rgb(0,0,0)"  stroke-width="2.0"/>
<line x1="313.4" y1="100.7" x2="327.7" y2="76.0" stroke="rgb(0,0,0)"  stroke-width="2.0"/>
<line x1="318.6" y1="103.7" x2="332.9" y2="79.0" stroke="rgb(0,0,0)"  stroke-width="2.0"/>
<line x1="252.6" y1="78.7" x2="263.0" y2="52.1" stroke="rgb(0,0,0)"  stroke-width="2.0"/>
<line x1="169.9" y1="110.7" x2="156.1" y2="85.7" stroke="rgb(0,0,0)"  stroke-width="2.0"/>
<line x1="175.1" y1="107.8" x2="161.3" y2="82.8" stroke="rgb(0,0,0)"  stroke-width="2.0"/>
<line x1="142.3" y1="131.6" x2="114.1" y2="126.8" stroke="rgb(0,0,0)"  stroke-width="2.0"/>
<line x1="116.4" y1="128.7" x2="98.2" y2="150.7" stroke="rgb(0,0,0)"  stroke-width="2.0"/>
<line x1="111.8" y1="124.9" x2="93.5" y2="146.9" stroke="rgb(0,0,0)"  stroke-width="2.0"/>
<line x1="114.1" y1="126.8" x2="104.2" y2="100.0" stroke="rgb(0,0,0)"  stroke-width="2.0"/>
<line x1="107.9" y1="77.8" x2="117.9" y2="65.8" stroke="rgb(0,0,0)"  stroke-width="2.0"/>
<line x1="165.4" y1="165.0" x2="144.1" y2="184.0" stroke="rgb(0,0,0)"  stroke-width="2.0"/>
<line x1="161.4" y1="160.5" x2="140.1" y2="179.5" stroke="rgb(0,0,0)"  stroke-width="2.0"/>
<line x1="141.2" y1="291.3" x2="177.2" y2="312.1" stroke="rgb(0,0,0)"  stroke-width="2.0"/>
<line x1="150.0" y1="288.1" x2="175.6" y2="302.9" stroke="rgb(0,0,0)"  stroke-width="2.0"/>
<line x1="177.2" y1="312.1" x2="198.5" y2="293.0" stroke="rgb(0,0,0)"  stroke-width="2.0"/>
<line x1="202.8" y1="272.4" x2="191.2" y2="246.3" stroke="rgb(0,0,0)"  stroke-width="2.0"/>
<line x1="191.2" y1="246.3" x2="149.8" y2="250.6" stroke="rgb(0,0,0)"  stroke-width="2.0"/>
<line x1="186.0" y1="254.1" x2="156.6" y2="257.2" stroke="rgb(0,0,0)"  stroke-width="2.0"/>
<line x1="149.8" y1="250.6" x2="141.2" y2="291.3" stroke="rgb(0,0,0)"  stroke-width="2.0"/>
<line x1="138.3" y1="485.1" x2="179.6" y2="480.7" stroke="rgb(0,0,0)"  stroke-width="2.0"/>
<line x1="143.5" y1="477.3" x2="172.9" y2="474.2" stroke="rgb(0,0,0)"  stroke-width="2.0"/>
<line x1="179.6" y1="480.7" x2="185.6" y2="452.8" stroke="rgb(0,0,0)"  stroke-width="2.0"/>
<line x1="177.0" y1="433.5" x2="152.3" y2="419.3" stroke="rgb(0,0,0)"  stroke-width="2.0"/>
<line x1="152.3" y1="419.3" x2="121.4" y2="447.1" stroke="rgb(0,0,0)"  stroke-width="2.0"/>
<line x1="152.6" y1="428.6" x2="130.6" y2="448.4" stroke="rgb(0,0,0)"  stroke-width="2.0"/>
<line x1="121.4" y1="447.1" x2="138.3" y2="485.1" stroke="rgb(0,0,0)"  stroke-width="2.0"/>
<line x1="274.4" y1="174.2" x2="253.6" y2="138.2" stroke="rgb(0,0,0)"  stroke-width="2.0"/>
<line x1="265.1" y1="172.6" x2="250.3" y2="147.0" stroke="rgb(0,0,0)"  stroke-width="2.0"/>
<line x1="253.6" y1="138.2" x2="212.0" y2="138.2" stroke="rgb(0,0,0)"  stroke-width="2.0"/>
<line x1="212.0" y1="138.2" x2="191.2" y2="174.2" stroke="rgb(0,0,0)"  stroke-width="2.0"/>
<line x1="215.2" y1="147.0" x2="200.4" y2="172.6" stroke="rgb(0,0,0)"  stroke-width="2.0"/>
<line x1="191.2" y1="174.2" x2="212.0" y2="210.3" stroke="rgb(0,0,0)"  stroke-width="2.0"/>
<line x1="212.0" y1="210.3" x2="253.6" y2="210.3" stroke="rgb(0,0,0)"  stroke-width="2.0"/>
<line x1="218.0" y1="203.1" x2="247.6" y2="203.1" stroke="rgb(0,0,0)"  stroke-width="2.0"/>
<line x1="253.6" y1="210.3" x2="274.4" y2="174.2" stroke="rgb(0,0,0)"  stroke-width="2.0"/>
<line x1="316.0" y1="102.2" x2="274.4" y2="102.2" stroke="rgb(0,0,0)"  stroke-width="2.0"/>
<line x1="274.4" y1="102.2" x2="253.6" y2="138.2" stroke="rgb(0,0,0)"  stroke-width="2.0"/>
<line x1="274.4" y1="174.2" x2="316.0" y2="174.2" stroke="rgb(0,0,0)"  stroke-width="2.0"/>
<line x1="316.0" y1="174.2" x2="330.3" y2="149.5" stroke="rgb(0,0,0)"  stroke-width="2.0"/>
<line x1="330.3" y1="127.0" x2="316.0" y2="102.2" stroke="rgb(0,0,0)"  stroke-width="2.0"/>
<line x1="220.6" y1="81.1" x2="202.5" y2="107.6" stroke="rgb(0,0,0)"  stroke-width="2.0"/>
<line x1="223.2" y1="90.1" x2="211.9" y2="106.7" stroke="rgb(0,0,0)"  stroke-width="2.0"/>
<line x1="202.5" y1="107.6" x2="212.0" y2="138.2" stroke="rgb(0,0,0)"  stroke-width="2.0"/>
<line x1="274.4" y1="102.2" x2="252.6" y2="78.7" stroke="rgb(0,0,0)"  stroke-width="2.0"/>
<line x1="265.0" y1="102.7" x2="251.4" y2="88.0" stroke="rgb(0,0,0)"  stroke-width="2.0"/>
<line x1="252.6" y1="78.7" x2="220.6" y2="81.1" stroke="rgb(0,0,0)"  stroke-width="2.0"/>
<line x1="158.7" y1="146.3" x2="163.4" y2="162.7" stroke="rgb(0,0,0)"  stroke-width="2.0"/>
<line x1="163.4" y1="162.7" x2="191.2" y2="174.2" stroke="rgb(0,0,0)"  stroke-width="2.0"/>
<line x1="202.5" y1="107.6" x2="172.5" y2="109.3" stroke="rgb(0,0,0)"  stroke-width="2.0"/>
<line x1="172.5" y1="109.3" x2="162.6" y2="123.2" stroke="rgb(0,0,0)"  stroke-width="2.0"/>
<text x="393.138565" y="110.211695" fill="rgb(255,12,12)"  stroke="rgb(255,12,12)" stroke-width="1" font-size="16" >O</text>
<text x="393.138565" y="182.242733" fill="rgb(255,12,12)"  stroke="rgb(255,12,12)" stroke-width="1" font-size="16" >O</text>
<text x="436.725705" y="182.242733" fill="rgb(102,102,102)"  stroke="rgb(102,102,102)" stroke-width="1" font-size="16" >CH</text>
<text x="460.725705" y="185.922733" fill="rgb(102,102,102)"  stroke="rgb(102,102,102)" stroke-width="1" font-size="13" >3</text>
<text x="330.757856" y="74.196175" fill="rgb(255,12,12)"  stroke="rgb(255,12,12)" stroke-width="1" font-size="16" >O</text>
<text x="261.766454" y="48.000000" fill="rgb(191,191,191)"  stroke="rgb(191,191,191)" stroke-width="1" font-size="16" >H</text>
<text x="330.757856" y="146.227214" fill="rgb(12,12,255)"  stroke="rgb(12,12,255)" stroke-width="1" font-size="16" >N</text>
<text x="146.400988" y="80.868459" fill="rgb(255,12,12)"  stroke="rgb(255,12,12)" stroke-width="1" font-size="16" >O</text>
<text x="149.088124" y="141.805784" fill="rgb(12,12,255)"  stroke="rgb(12,12,255)" stroke-width="1" font-size="16" >N</text>
<text x="81.548414" y="166.842920" fill="rgb(255,12,12)"  stroke="rgb(255,12,12)" stroke-width="1" font-size="16" >O</text>
<text x="93.635473" y="95.833248" fill="rgb(255,12,12)"  stroke="rgb(255,12,12)" stroke-width="1" font-size="16" >O</text>
<text x="122.177729" y="63.817645" fill="rgb(102,102,102)"  stroke="rgb(102,102,102)" stroke-width="1" font-size="16" >CH</text>
<text x="146.177729" y="67.497645" fill="rgb(102,102,102)"  stroke="rgb(102,102,102)" stroke-width="1" font-size="13" >3</text>
<text x="126.391312" y="198.422328" fill="rgb(255,12,12)"  stroke="rgb(255,12,12)" stroke-width="1" font-size="16" >O</text>
<text x="116.016318" y="227.715544" fill="rgb(127,178,255)"  stroke="rgb(127,178,255)" stroke-width="1" font-size="16" >F</text>
<text x="59.213608" y="333.129200" fill="rgb(12,12,255)"  stroke="rgb(12,12,255)" stroke-width="1" font-size="16" >N</text>
<text x="202.117880" y="292.265515" fill="rgb(178,178,0)"  stroke="rgb(178,178,0)" stroke-width="1" font-size="16" >S</text>
<text x="34.000000" y="437.790015" fill="rgb(12,12,255)"  stroke="rgb(12,12,255)" stroke-width="1" font-size="16" >N</text>
<text x="111.478166" y="529.090183" fill="rgb(127,178,255)"  stroke="rgb(127,178,255)" stroke-width="1" font-size="16" >F</text>
<text x="201.458285" y="519.632891" fill="rgb(191,191,191)"  stroke="rgb(191,191,191)" stroke-width="1" font-size="16" >H</text>
<text x="182.277509" y="448.049262" fill="rgb(178,178,0)"  stroke="rgb(178,178,0)" stroke-width="1" font-size="16" >S</text>
<text x="330.757856" y="218.258253" fill="rgb(255,12,12)"  stroke="rgb(255,12,12)" stroke-width="1" font-size="16" >O</text>
</svg>
</g>
<text font-size="18.000000" fill ="black" font-family="sans-serif"
x="10.000000" y="20.000000" ></text>
</svg>
