<?xml version="1.0"?>
<svg version="1.1" id="topsvg"
xmlns="http://www.w3.org/2000/svg" xmlns:xlink="http://www.w3.org/1999/xlink"
xmlns:cml="http://www.xml-cml.org/schema" x="0" y="0" width="200px" height="200px" viewBox="0 0 100 100">
<title> - Open Babel Depiction</title>
<rect x="0" y="0" width="100" height="100" fill="white"/>
<g transform="translate(0,0)">
<svg width="100" height="100" x="0" y="0" viewBox="0 0 490.347 305.214"
font-family="sans-serif" stroke="rgb(0,0,0)" stroke-width="2"  stroke-linecap="round">
<line x1="178.6" y1="120.0" x2="143.9" y2="100.0" stroke="rgb(0,0,0)"  stroke-width="2.0"/>
<line x1="74.6" y1="100.0" x2="51.3" y2="113.5" stroke="rgb(0,0,0)"  stroke-width="2.0"/>
<line x1="74.6" y1="60.0" x2="51.3" y2="46.5" stroke="rgb(0,0,0)"  stroke-width="2.0"/>
<line x1="143.9" y1="60.0" x2="167.3" y2="46.5" stroke="rgb(0,0,0)"  stroke-width="2.0"/>
<line x1="263.9" y1="221.8" x2="277.4" y2="245.2" stroke="rgb(0,0,0)"  stroke-width="2.0"/>
<line x1="258.7" y1="224.8" x2="272.2" y2="248.2" stroke="rgb(0,0,0)"  stroke-width="2.0"/>
<line x1="212.8" y1="228.8" x2="203.5" y2="239.2" stroke="rgb(0,0,0)"  stroke-width="2.0"/>
<line x1="182.0" y1="246.1" x2="168.3" y2="243.2" stroke="rgb(0,0,0)"  stroke-width="2.0"/>
<line x1="276.9" y1="183.8" x2="316.1" y2="175.5" stroke="rgb(0,0,0)"  stroke-width="2.0"/>
<line x1="278.2" y1="189.7" x2="317.3" y2="181.4" stroke="rgb(0,0,0)"  stroke-width="2.0"/>
<line x1="330.4" y1="143.4" x2="316.9" y2="120.0" stroke="rgb(0,0,0)"  stroke-width="2.0"/>
<line x1="335.6" y1="140.4" x2="322.1" y2="117.0" stroke="rgb(0,0,0)"  stroke-width="2.0"/>
<line x1="381.4" y1="136.4" x2="390.8" y2="126.0" stroke="rgb(0,0,0)"  stroke-width="2.0"/>
<line x1="412.2" y1="119.1" x2="425.9" y2="122.0" stroke="rgb(0,0,0)"  stroke-width="2.0"/>
<line x1="415.7" y1="245.2" x2="439.1" y2="258.7" stroke="rgb(0,0,0)"  stroke-width="2.0"/>
<line x1="74.6" y1="100.0" x2="74.6" y2="60.0" stroke="rgb(0,0,0)"  stroke-width="2.0"/>
<line x1="81.8" y1="94.0" x2="81.8" y2="66.0" stroke="rgb(0,0,0)"  stroke-width="2.0"/>
<line x1="74.6" y1="60.0" x2="109.3" y2="40.0" stroke="rgb(0,0,0)"  stroke-width="2.0"/>
<line x1="109.3" y1="40.0" x2="143.9" y2="60.0" stroke="rgb(0,0,0)"  stroke-width="2.0"/>
<line x1="110.9" y1="49.2" x2="135.1" y2="63.2" stroke="rgb(0,0,0)"  stroke-width="2.0"/>
<line x1="143.9" y1="60.0" x2="143.9" y2="100.0" stroke="rgb(0,0,0)"  stroke-width="2.0"/>
<line x1="143.9" y1="100.0" x2="109.3" y2="120.0" stroke="rgb(0,0,0)"  stroke-width="2.0"/>
<line x1="135.1" y1="96.8" x2="110.9" y2="110.8" stroke="rgb(0,0,0)"  stroke-width="2.0"/>
<line x1="109.3" y1="120.0" x2="74.6" y2="100.0" stroke="rgb(0,0,0)"  stroke-width="2.0"/>
<line x1="247.8" y1="120.0" x2="247.8" y2="160.0" stroke="rgb(0,0,0)"  stroke-width="2.0"/>
<line x1="240.6" y1="126.0" x2="240.6" y2="154.0" stroke="rgb(0,0,0)"  stroke-width="2.0"/>
<line x1="247.8" y1="160.0" x2="213.2" y2="180.0" stroke="rgb(0,0,0)"  stroke-width="2.0"/>
<line x1="213.2" y1="180.0" x2="178.6" y2="160.0" stroke="rgb(0,0,0)"  stroke-width="2.0"/>
<line x1="211.6" y1="170.8" x2="187.4" y2="156.8" stroke="rgb(0,0,0)"  stroke-width="2.0"/>
<line x1="178.6" y1="160.0" x2="178.6" y2="120.0" stroke="rgb(0,0,0)"  stroke-width="2.0"/>
<line x1="178.6" y1="120.0" x2="213.2" y2="100.0" stroke="rgb(0,0,0)"  stroke-width="2.0"/>
<line x1="187.4" y1="123.2" x2="211.6" y2="109.2" stroke="rgb(0,0,0)"  stroke-width="2.0"/>
<line x1="213.2" y1="100.0" x2="247.8" y2="120.0" stroke="rgb(0,0,0)"  stroke-width="2.0"/>
<line x1="381.1" y1="265.2" x2="346.4" y2="245.2" stroke="rgb(0,0,0)"  stroke-width="2.0"/>
<line x1="346.4" y1="245.2" x2="346.4" y2="205.2" stroke="rgb(0,0,0)"  stroke-width="2.0"/>
<line x1="353.6" y1="239.2" x2="353.6" y2="211.2" stroke="rgb(0,0,0)"  stroke-width="2.0"/>
<line x1="346.4" y1="205.2" x2="381.1" y2="185.2" stroke="rgb(0,0,0)"  stroke-width="2.0"/>
<line x1="381.1" y1="185.2" x2="415.7" y2="205.2" stroke="rgb(0,0,0)"  stroke-width="2.0"/>
<line x1="382.7" y1="194.4" x2="406.9" y2="208.4" stroke="rgb(0,0,0)"  stroke-width="2.0"/>
<line x1="415.7" y1="205.2" x2="415.7" y2="245.2" stroke="rgb(0,0,0)"  stroke-width="2.0"/>
<line x1="415.7" y1="245.2" x2="381.1" y2="265.2" stroke="rgb(0,0,0)"  stroke-width="2.0"/>
<line x1="406.9" y1="242.0" x2="382.7" y2="256.0" stroke="rgb(0,0,0)"  stroke-width="2.0"/>
<line x1="261.3" y1="223.3" x2="234.5" y2="220.5" stroke="rgb(0,0,0)"  stroke-width="2.0"/>
<line x1="218.8" y1="206.4" x2="213.2" y2="180.0" stroke="rgb(0,0,0)"  stroke-width="2.0"/>
<line x1="247.8" y1="160.0" x2="277.6" y2="186.8" stroke="rgb(0,0,0)"  stroke-width="2.0"/>
<line x1="277.6" y1="186.8" x2="261.3" y2="223.3" stroke="rgb(0,0,0)"  stroke-width="2.0"/>
<line x1="375.5" y1="158.8" x2="381.1" y2="185.2" stroke="rgb(0,0,0)"  stroke-width="2.0"/>
<line x1="346.4" y1="205.2" x2="316.7" y2="178.4" stroke="rgb(0,0,0)"  stroke-width="2.0"/>
<line x1="316.7" y1="178.4" x2="333.0" y2="141.9" stroke="rgb(0,0,0)"  stroke-width="2.0"/>
<line x1="333.0" y1="141.9" x2="359.8" y2="144.7" stroke="rgb(0,0,0)"  stroke-width="2.0"/>
<text x="434.639264" y="132.678751" fill="rgb(102,102,102)"  stroke="rgb(102,102,102)" stroke-width="1" font-size="16" >CH</text>
<text x="458.639264" y="136.358751" fill="rgb(102,102,102)"  stroke="rgb(102,102,102)" stroke-width="1" font-size="13" >3</text>
<text x="129.630420" y="248.535229" fill="rgb(102,102,102)"  stroke="rgb(102,102,102)" stroke-width="1" font-size="16" >H</text>
<text x="141.630420" y="252.215229" fill="rgb(102,102,102)"  stroke="rgb(102,102,102)" stroke-width="1" font-size="13" >3</text>
<text x="148.130420" y="248.535229" fill="rgb(102,102,102)"  stroke="rgb(102,102,102)" stroke-width="1" font-size="16" >C</text>
<text x="306.967260" y="115.265922" fill="rgb(255,12,12)"  stroke="rgb(255,12,12)" stroke-width="1" font-size="16" >O</text>
<text x="366.748135" y="154.088077" fill="rgb(12,12,255)"  stroke="rgb(12,12,255)" stroke-width="1" font-size="16" >N</text>
<text x="393.513360" y="124.362284" fill="rgb(255,12,12)"  stroke="rgb(255,12,12)" stroke-width="1" font-size="16" >O</text>
<text x="188.756324" y="256.851697" fill="rgb(255,12,12)"  stroke="rgb(255,12,12)" stroke-width="1" font-size="16" >O</text>
<text x="444.346635" y="273.213981" fill="rgb(191,191,191)"  stroke="rgb(191,191,191)" stroke-width="1" font-size="16" >H</text>
<text x="174.564065" y="48.000000" fill="rgb(102,102,102)"  stroke="rgb(102,102,102)" stroke-width="1" font-size="16" >CH</text>
<text x="198.564065" y="51.680000" fill="rgb(102,102,102)"  stroke="rgb(102,102,102)" stroke-width="1" font-size="13" >3</text>
<text x="14.000000" y="128.000000" fill="rgb(102,102,102)"  stroke="rgb(102,102,102)" stroke-width="1" font-size="16" >H</text>
<text x="26.000000" y="131.680000" fill="rgb(102,102,102)"  stroke="rgb(102,102,102)" stroke-width="1" font-size="13" >3</text>
<text x="32.500000" y="128.000000" fill="rgb(102,102,102)"  stroke="rgb(102,102,102)" stroke-width="1" font-size="16" >C</text>
<text x="34.000000" y="48.000000" fill="rgb(191,191,191)"  stroke="rgb(191,191,191)" stroke-width="1" font-size="16" >H</text>
<text x="275.302424" y="265.948059" fill="rgb(255,12,12)"  stroke="rgb(255,12,12)" stroke-width="1" font-size="16" >O</text>
<text x="215.521548" y="227.125904" fill="rgb(12,12,255)"  stroke="rgb(12,12,255)" stroke-width="1" font-size="16" >N</text>
</svg>
</g>
<text font-size="18.000000" fill ="black" font-family="sans-serif"
x="10.000000" y="20.000000" ></text>
</svg>
