<?xml version="1.0"?>
<svg version="1.1" id="topsvg"
xmlns="http://www.w3.org/2000/svg" xmlns:xlink="http://www.w3.org/1999/xlink"
xmlns:cml="http://www.xml-cml.org/schema" x="0" y="0" width="200px" height="200px" viewBox="0 0 100 100">
<title> - Open Babel Depiction</title>
<rect x="0" y="0" width="100" height="100" fill="white"/>
<g transform="translate(0,0)">
<svg width="100" height="100" x="0" y="0" viewBox="0 0 309.949 404.03"
font-family="sans-serif" stroke="rgb(0,0,0)" stroke-width="2"  stroke-linecap="round">
<line x1="175.8" y1="137.9" x2="156.9" y2="170.5" stroke="rgb(0,0,0)"  stroke-width="2.0"/>
<line x1="83.7" y1="236.5" x2="60.2" y2="244.1" stroke="rgb(0,0,0)"  stroke-width="2.0"/>
<line x1="45.1" y1="260.8" x2="42.7" y2="272.2" stroke="rgb(0,0,0)"  stroke-width="2.0"/>
<line x1="83.7" y1="236.5" x2="168.9" y2="195.4" stroke="rgb(0,0,0)"  stroke-width="2.0"/>
<line x1="167.6" y1="189.8" x2="156.0" y2="189.8" stroke="rgb(0,0,0)"  stroke-width="2.0"/>
<line x1="123.8" y1="326.6" x2="126.3" y2="351.1" stroke="rgb(0,0,0)"  stroke-width="2.0"/>
<line x1="213.4" y1="137.9" x2="225.8" y2="159.2" stroke="rgb(0,0,0)"  stroke-width="2.0"/>
<line x1="232.3" y1="105.2" x2="256.9" y2="105.2" stroke="rgb(0,0,0)"  stroke-width="2.0"/>
<line x1="213.4" y1="72.6" x2="225.8" y2="51.3" stroke="rgb(0,0,0)"  stroke-width="2.0"/>
<line x1="175.8" y1="72.6" x2="163.4" y2="51.3" stroke="rgb(0,0,0)"  stroke-width="2.0"/>
<line x1="156.9" y1="105.2" x2="132.3" y2="105.2" stroke="rgb(0,0,0)"  stroke-width="2.0"/>
<line x1="111.6" y1="211.3" x2="144.3" y2="230.1" stroke="rgb(0,0,0)"  stroke-width="2.0"/>
<line x1="120.4" y1="208.0" x2="142.7" y2="220.9" stroke="rgb(0,0,0)"  stroke-width="2.0"/>
<line x1="144.3" y1="230.1" x2="162.6" y2="213.6" stroke="rgb(0,0,0)"  stroke-width="2.0"/>
<line x1="167.0" y1="193.0" x2="156.9" y2="170.5" stroke="rgb(0,0,0)"  stroke-width="2.0"/>
<line x1="156.9" y1="170.5" x2="119.5" y2="174.4" stroke="rgb(0,0,0)"  stroke-width="2.0"/>
<line x1="151.7" y1="178.3" x2="126.2" y2="181.0" stroke="rgb(0,0,0)"  stroke-width="2.0"/>
<line x1="119.5" y1="174.4" x2="111.6" y2="211.3" stroke="rgb(0,0,0)"  stroke-width="2.0"/>
<line x1="123.8" y1="326.6" x2="142.1" y2="310.1" stroke="rgb(0,0,0)"  stroke-width="2.0"/>
<line x1="146.5" y1="289.5" x2="136.4" y2="267.0" stroke="rgb(0,0,0)"  stroke-width="2.0"/>
<line x1="136.4" y1="267.0" x2="99.0" y2="270.9" stroke="rgb(0,0,0)"  stroke-width="2.0"/>
<line x1="131.2" y1="274.7" x2="105.7" y2="277.4" stroke="rgb(0,0,0)"  stroke-width="2.0"/>
<line x1="99.0" y1="270.9" x2="91.1" y2="307.7" stroke="rgb(0,0,0)"  stroke-width="2.0"/>
<line x1="91.1" y1="307.7" x2="123.8" y2="326.6" stroke="rgb(0,0,0)"  stroke-width="2.0"/>
<line x1="99.9" y1="304.5" x2="122.2" y2="317.3" stroke="rgb(0,0,0)"  stroke-width="2.0"/>
<line x1="232.3" y1="105.2" x2="213.4" y2="72.6" stroke="rgb(0,0,0)"  stroke-width="2.0"/>
<line x1="223.0" y1="103.6" x2="210.2" y2="81.4" stroke="rgb(0,0,0)"  stroke-width="2.0"/>
<line x1="213.4" y1="72.6" x2="175.8" y2="72.6" stroke="rgb(0,0,0)"  stroke-width="2.0"/>
<line x1="175.8" y1="72.6" x2="156.9" y2="105.2" stroke="rgb(0,0,0)"  stroke-width="2.0"/>
<line x1="179.0" y1="81.4" x2="166.2" y2="103.6" stroke="rgb(0,0,0)"  stroke-width="2.0"/>
<line x1="156.9" y1="105.2" x2="175.8" y2="137.9" stroke="rgb(0,0,0)"  stroke-width="2.0"/>
<line x1="175.8" y1="137.9" x2="213.4" y2="137.9" stroke="rgb(0,0,0)"  stroke-width="2.0"/>
<line x1="181.8" y1="130.7" x2="207.4" y2="130.7" stroke="rgb(0,0,0)"  stroke-width="2.0"/>
<line x1="213.4" y1="137.9" x2="232.3" y2="105.2" stroke="rgb(0,0,0)"  stroke-width="2.0"/>
<line x1="136.4" y1="267.0" x2="144.3" y2="230.1" stroke="rgb(0,0,0)"  stroke-width="2.0"/>
<line x1="111.6" y1="211.3" x2="83.7" y2="236.5" stroke="rgb(0,0,0)"  stroke-width="2.0"/>
<line x1="83.7" y1="236.5" x2="99.0" y2="270.9" stroke="rgb(0,0,0)"  stroke-width="2.0"/>
<text x="113.275223" y="113.243846" fill="rgb(127,178,255)"  stroke="rgb(127,178,255)" stroke-width="1" font-size="16" >F</text>
<text x="150.943775" y="48.000000" fill="rgb(127,178,255)"  stroke="rgb(127,178,255)" stroke-width="1" font-size="16" >F</text>
<text x="226.280879" y="48.000000" fill="rgb(191,191,191)"  stroke="rgb(191,191,191)" stroke-width="1" font-size="16" >H</text>
<text x="263.949431" y="113.243846" fill="rgb(127,178,255)"  stroke="rgb(127,178,255)" stroke-width="1" font-size="16" >F</text>
<text x="226.280879" y="178.487691" fill="rgb(127,178,255)"  stroke="rgb(127,178,255)" stroke-width="1" font-size="16" >F</text>
<text x="145.761214" y="309.362145" fill="rgb(178,178,0)"  stroke="rgb(178,178,0)" stroke-width="1" font-size="16" >S</text>
<text x="121.705461" y="372.029525" fill="rgb(191,191,191)"  stroke="rgb(191,191,191)" stroke-width="1" font-size="16" >H</text>
<text x="116.955745" y="197.810756" fill="rgb(102,102,102)"  stroke="rgb(102,102,102)" stroke-width="1" font-size="16" >H</text>
<text x="128.955745" y="201.490756" fill="rgb(102,102,102)"  stroke="rgb(102,102,102)" stroke-width="1" font-size="13" >3</text>
<text x="135.455745" y="197.810756" fill="rgb(102,102,102)"  stroke="rgb(102,102,102)" stroke-width="1" font-size="16" >C</text>
<text x="174.624297" y="197.810756" fill="rgb(255,12,12)"  stroke="rgb(255,12,12)" stroke-width="1" font-size="16" >O</text>
<text x="14.000000" y="292.961338" fill="rgb(102,102,102)"  stroke="rgb(102,102,102)" stroke-width="1" font-size="16" >H</text>
<text x="26.000000" y="296.641338" fill="rgb(102,102,102)"  stroke="rgb(102,102,102)" stroke-width="1" font-size="13" >3</text>
<text x="32.500000" y="292.961338" fill="rgb(102,102,102)"  stroke="rgb(102,102,102)" stroke-width="1" font-size="16" >C</text>
<text x="41.831732" y="256.115934" fill="rgb(255,12,12)"  stroke="rgb(255,12,12)" stroke-width="1" font-size="16" >O</text>
<text x="166.264955" y="212.899626" fill="rgb(178,178,0)"  stroke="rgb(178,178,0)" stroke-width="1" font-size="16" >S</text>
</svg>
</g>
<text font-size="18.000000" fill ="black" font-family="sans-serif"
x="10.000000" y="20.000000" ></text>
</svg>
