<?xml version="1.0"?>
<svg version="1.1" id="topsvg"
xmlns="http://www.w3.org/2000/svg" xmlns:xlink="http://www.w3.org/1999/xlink"
xmlns:cml="http://www.xml-cml.org/schema" x="0" y="0" width="200px" height="200px" viewBox="0 0 100 100">
<title> - Open Babel Depiction</title>
<rect x="0" y="0" width="100" height="100" fill="white"/>
<g transform="translate(0,0)">
<svg width="100" height="100" x="0" y="0" viewBox="0 0 634.907 297.888"
font-family="sans-serif" stroke="rgb(0,0,0)" stroke-width="2"  stroke-linecap="round">
<line x1="389.4" y1="142.8" x2="351.3" y2="155.1" stroke="rgb(0,0,0)"  stroke-width="2.0"/>
<line x1="339.0" y1="193.2" x2="362.5" y2="225.5" stroke="rgb(0,0,0)"  stroke-width="2.0"/>
<line x1="362.5" y1="225.5" x2="378.4" y2="247.4" stroke="rgb(0,0,0)"  stroke-width="2.0"/>
<line x1="365.9" y1="223.1" x2="381.8" y2="244.9" stroke="rgb(0,0,0)"  stroke-width="2.0"/>
<line x1="359.1" y1="228.0" x2="375.0" y2="249.8" stroke="rgb(0,0,0)"  stroke-width="2.0"/>
<line x1="299.0" y1="193.2" x2="283.1" y2="215.0" stroke="rgb(0,0,0)"  stroke-width="2.0"/>
<line x1="286.6" y1="155.1" x2="248.6" y2="142.8" stroke="rgb(0,0,0)"  stroke-width="2.0"/>
<line x1="250.6" y1="145.0" x2="220.9" y2="171.8" stroke="rgb(0,0,0)"  stroke-width="2.0"/>
<line x1="246.6" y1="140.5" x2="216.8" y2="167.3" stroke="rgb(0,0,0)"  stroke-width="2.0"/>
<line x1="218.8" y1="169.5" x2="180.8" y2="157.2" stroke="rgb(0,0,0)"  stroke-width="2.0"/>
<line x1="148.4" y1="180.7" x2="148.4" y2="207.7" stroke="rgb(0,0,0)"  stroke-width="2.0"/>
<line x1="116.1" y1="157.2" x2="78.0" y2="169.5" stroke="rgb(0,0,0)"  stroke-width="2.0"/>
<line x1="78.0" y1="169.5" x2="52.4" y2="177.9" stroke="rgb(0,0,0)"  stroke-width="2.0"/>
<line x1="79.3" y1="173.5" x2="53.7" y2="181.9" stroke="rgb(0,0,0)"  stroke-width="2.0"/>
<line x1="76.7" y1="165.5" x2="51.1" y2="173.9" stroke="rgb(0,0,0)"  stroke-width="2.0"/>
<line x1="128.4" y1="119.1" x2="112.6" y2="97.3" stroke="rgb(0,0,0)"  stroke-width="2.0"/>
<line x1="401.7" y1="104.7" x2="378.2" y2="72.4" stroke="rgb(0,0,0)"  stroke-width="2.0"/>
<line x1="378.2" y1="72.4" x2="362.4" y2="50.5" stroke="rgb(0,0,0)"  stroke-width="2.0"/>
<line x1="374.8" y1="74.8" x2="359.0" y2="53.0" stroke="rgb(0,0,0)"  stroke-width="2.0"/>
<line x1="381.6" y1="69.9" x2="365.8" y2="48.0" stroke="rgb(0,0,0)"  stroke-width="2.0"/>
<line x1="454.1" y1="142.8" x2="492.1" y2="155.1" stroke="rgb(0,0,0)"  stroke-width="2.0"/>
<line x1="556.9" y1="155.1" x2="582.5" y2="146.8" stroke="rgb(0,0,0)"  stroke-width="2.0"/>
<line x1="544.5" y1="193.2" x2="568.0" y2="225.5" stroke="rgb(0,0,0)"  stroke-width="2.0"/>
<line x1="568.0" y1="225.5" x2="583.9" y2="247.4" stroke="rgb(0,0,0)"  stroke-width="2.0"/>
<line x1="571.4" y1="223.1" x2="587.3" y2="244.9" stroke="rgb(0,0,0)"  stroke-width="2.0"/>
<line x1="564.6" y1="228.0" x2="580.5" y2="249.8" stroke="rgb(0,0,0)"  stroke-width="2.0"/>
<line x1="299.0" y1="193.2" x2="286.6" y2="155.1" stroke="rgb(0,0,0)"  stroke-width="2.0"/>
<line x1="304.0" y1="185.2" x2="295.3" y2="158.6" stroke="rgb(0,0,0)"  stroke-width="2.0"/>
<line x1="286.6" y1="155.1" x2="308.5" y2="139.3" stroke="rgb(0,0,0)"  stroke-width="2.0"/>
<line x1="329.5" y1="139.3" x2="351.3" y2="155.1" stroke="rgb(0,0,0)"  stroke-width="2.0"/>
<line x1="351.3" y1="155.1" x2="339.0" y2="193.2" stroke="rgb(0,0,0)"  stroke-width="2.0"/>
<line x1="342.6" y1="158.6" x2="334.0" y2="185.2" stroke="rgb(0,0,0)"  stroke-width="2.0"/>
<line x1="339.0" y1="193.2" x2="299.0" y2="193.2" stroke="rgb(0,0,0)"  stroke-width="2.0"/>
<line x1="116.1" y1="157.2" x2="128.4" y2="119.1" stroke="rgb(0,0,0)"  stroke-width="2.0"/>
<line x1="124.8" y1="153.7" x2="133.4" y2="127.1" stroke="rgb(0,0,0)"  stroke-width="2.0"/>
<line x1="128.4" y1="119.1" x2="155.4" y2="119.1" stroke="rgb(0,0,0)"  stroke-width="2.0"/>
<line x1="172.5" y1="131.5" x2="180.8" y2="157.2" stroke="rgb(0,0,0)"  stroke-width="2.0"/>
<line x1="180.8" y1="157.2" x2="148.4" y2="180.7" stroke="rgb(0,0,0)"  stroke-width="2.0"/>
<line x1="171.7" y1="154.9" x2="149.1" y2="171.3" stroke="rgb(0,0,0)"  stroke-width="2.0"/>
<line x1="148.4" y1="180.7" x2="116.1" y2="157.2" stroke="rgb(0,0,0)"  stroke-width="2.0"/>
<line x1="445.8" y1="117.3" x2="454.1" y2="142.8" stroke="rgb(0,0,0)"  stroke-width="2.0"/>
<line x1="439.6" y1="121.4" x2="445.4" y2="139.3" stroke="rgb(0,0,0)"  stroke-width="2.0"/>
<line x1="454.1" y1="142.8" x2="432.3" y2="158.6" stroke="rgb(0,0,0)"  stroke-width="2.0"/>
<line x1="411.2" y1="158.6" x2="389.4" y2="142.8" stroke="rgb(0,0,0)"  stroke-width="2.0"/>
<line x1="389.4" y1="142.8" x2="401.7" y2="104.7" stroke="rgb(0,0,0)"  stroke-width="2.0"/>
<line x1="398.1" y1="139.3" x2="406.7" y2="112.7" stroke="rgb(0,0,0)"  stroke-width="2.0"/>
<line x1="401.7" y1="104.7" x2="428.7" y2="104.7" stroke="rgb(0,0,0)"  stroke-width="2.0"/>
<line x1="556.9" y1="155.1" x2="544.5" y2="193.2" stroke="rgb(0,0,0)"  stroke-width="2.0"/>
<line x1="548.2" y1="158.6" x2="539.5" y2="185.2" stroke="rgb(0,0,0)"  stroke-width="2.0"/>
<line x1="544.5" y1="193.2" x2="517.5" y2="193.2" stroke="rgb(0,0,0)"  stroke-width="2.0"/>
<line x1="500.4" y1="180.6" x2="492.1" y2="155.1" stroke="rgb(0,0,0)"  stroke-width="2.0"/>
<line x1="506.7" y1="176.5" x2="500.8" y2="158.6" stroke="rgb(0,0,0)"  stroke-width="2.0"/>
<line x1="492.1" y1="155.1" x2="514.0" y2="139.3" stroke="rgb(0,0,0)"  stroke-width="2.0"/>
<line x1="535.0" y1="139.3" x2="556.9" y2="155.1" stroke="rgb(0,0,0)"  stroke-width="2.0"/>
<text x="98.933791" y="94.765224" fill="rgb(191,191,191)"  stroke="rgb(191,191,191)" stroke-width="1" font-size="16" >H</text>
<text x="162.445201" y="127.125904" fill="rgb(178,178,0)"  stroke="rgb(178,178,0)" stroke-width="1" font-size="16" >S</text>
<text x="348.717675" y="48.000000" fill="rgb(12,12,255)"  stroke="rgb(12,12,255)" stroke-width="1" font-size="16" >N</text>
<text x="435.740495" y="112.721360" fill="rgb(12,12,255)"  stroke="rgb(12,12,255)" stroke-width="1" font-size="16" >N</text>
<text x="415.740495" y="174.275030" fill="rgb(178,178,0)"  stroke="rgb(178,178,0)" stroke-width="1" font-size="16" >S</text>
<text x="518.504115" y="139.612890" fill="rgb(178,178,0)"  stroke="rgb(178,178,0)" stroke-width="1" font-size="16" >S</text>
<text x="588.907056" y="150.763620" fill="rgb(191,191,191)"  stroke="rgb(191,191,191)" stroke-width="1" font-size="16" >H</text>
<text x="585.526936" y="265.887920" fill="rgb(12,12,255)"  stroke="rgb(12,12,255)" stroke-width="1" font-size="16" >N</text>
<text x="498.504115" y="201.166561" fill="rgb(12,12,255)"  stroke="rgb(12,12,255)" stroke-width="1" font-size="16" >N</text>
<text x="379.999695" y="265.887920" fill="rgb(12,12,255)"  stroke="rgb(12,12,255)" stroke-width="1" font-size="16" >N</text>
<text x="257.465465" y="233.527240" fill="rgb(255,12,12)"  stroke="rgb(255,12,12)" stroke-width="1" font-size="16" >HO</text>
<text x="312.976875" y="139.612890" fill="rgb(178,178,0)"  stroke="rgb(178,178,0)" stroke-width="1" font-size="16" >S</text>
<text x="142.445201" y="228.679575" fill="rgb(255,12,12)"  stroke="rgb(255,12,12)" stroke-width="1" font-size="16" >OH</text>
<text x="34.000000" y="189.889524" fill="rgb(12,12,255)"  stroke="rgb(12,12,255)" stroke-width="1" font-size="16" >N</text>
</svg>
</g>
<text font-size="18.000000" fill ="black" font-family="sans-serif"
x="10.000000" y="20.000000" ></text>
</svg>
