<?xml version="1.0"?>
<svg version="1.1" id="topsvg"
xmlns="http://www.w3.org/2000/svg" xmlns:xlink="http://www.w3.org/1999/xlink"
xmlns:cml="http://www.xml-cml.org/schema" x="0" y="0" width="200px" height="200px" viewBox="0 0 100 100">
<title> - Open Babel Depiction</title>
<rect x="0" y="0" width="100" height="100" fill="white"/>
<g transform="translate(0,0)">
<svg width="100" height="100" x="0" y="0" viewBox="0 0 486.624 494.544"
font-family="sans-serif" stroke="rgb(0,0,0)" stroke-width="2"  stroke-linecap="round">
<line x1="218.4" y1="209.9" x2="197.7" y2="245.8" stroke="rgb(0,0,0)"  stroke-width="2.0"/>
<line x1="156.4" y1="250.1" x2="137.4" y2="229.0" stroke="rgb(0,0,0)"  stroke-width="2.0"/>
<line x1="111.9" y1="311.5" x2="75.9" y2="290.7" stroke="rgb(0,0,0)"  stroke-width="2.0"/>
<line x1="77.4" y1="293.3" x2="52.8" y2="307.6" stroke="rgb(0,0,0)"  stroke-width="2.0"/>
<line x1="74.4" y1="288.1" x2="49.8" y2="302.4" stroke="rgb(0,0,0)"  stroke-width="2.0"/>
<line x1="75.9" y1="290.7" x2="75.9" y2="262.2" stroke="rgb(0,0,0)"  stroke-width="2.0"/>
<line x1="64.7" y1="242.7" x2="51.3" y2="235.0" stroke="rgb(0,0,0)"  stroke-width="2.0"/>
<line x1="97.9" y1="418.6" x2="83.7" y2="443.3" stroke="rgb(0,0,0)"  stroke-width="2.0"/>
<line x1="139.2" y1="414.3" x2="158.2" y2="435.4" stroke="rgb(0,0,0)"  stroke-width="2.0"/>
<line x1="183.7" y1="352.9" x2="219.7" y2="373.7" stroke="rgb(0,0,0)"  stroke-width="2.0"/>
<line x1="218.2" y1="371.1" x2="242.8" y2="356.8" stroke="rgb(0,0,0)"  stroke-width="2.0"/>
<line x1="221.2" y1="376.3" x2="245.8" y2="362.0" stroke="rgb(0,0,0)"  stroke-width="2.0"/>
<line x1="219.7" y1="373.7" x2="219.7" y2="402.2" stroke="rgb(0,0,0)"  stroke-width="2.0"/>
<line x1="230.9" y1="421.7" x2="244.3" y2="429.4" stroke="rgb(0,0,0)"  stroke-width="2.0"/>
<line x1="324.8" y1="172.4" x2="339.0" y2="197.1" stroke="rgb(0,0,0)"  stroke-width="2.0"/>
<line x1="319.6" y1="175.4" x2="333.8" y2="200.1" stroke="rgb(0,0,0)"  stroke-width="2.0"/>
<line x1="355.9" y1="138.0" x2="384.4" y2="138.0" stroke="rgb(0,0,0)"  stroke-width="2.0"/>
<line x1="381.8" y1="136.5" x2="396.0" y2="111.8" stroke="rgb(0,0,0)"  stroke-width="2.0"/>
<line x1="387.0" y1="139.5" x2="401.2" y2="114.8" stroke="rgb(0,0,0)"  stroke-width="2.0"/>
<line x1="384.4" y1="138.0" x2="398.6" y2="162.7" stroke="rgb(0,0,0)"  stroke-width="2.0"/>
<line x1="418.1" y1="173.9" x2="433.6" y2="173.9" stroke="rgb(0,0,0)"  stroke-width="2.0"/>
<line x1="319.6" y1="100.6" x2="333.8" y2="75.9" stroke="rgb(0,0,0)"  stroke-width="2.0"/>
<line x1="324.8" y1="103.6" x2="339.0" y2="78.9" stroke="rgb(0,0,0)"  stroke-width="2.0"/>
<line x1="258.9" y1="78.6" x2="269.3" y2="52.1" stroke="rgb(0,0,0)"  stroke-width="2.0"/>
<line x1="176.4" y1="110.6" x2="162.6" y2="85.6" stroke="rgb(0,0,0)"  stroke-width="2.0"/>
<line x1="181.7" y1="107.7" x2="167.9" y2="82.7" stroke="rgb(0,0,0)"  stroke-width="2.0"/>
<line x1="148.8" y1="131.4" x2="120.8" y2="126.6" stroke="rgb(0,0,0)"  stroke-width="2.0"/>
<line x1="123.1" y1="128.5" x2="104.9" y2="150.5" stroke="rgb(0,0,0)"  stroke-width="2.0"/>
<line x1="118.4" y1="124.7" x2="100.3" y2="146.6" stroke="rgb(0,0,0)"  stroke-width="2.0"/>
<line x1="120.8" y1="126.6" x2="110.8" y2="99.9" stroke="rgb(0,0,0)"  stroke-width="2.0"/>
<line x1="114.6" y1="77.7" x2="124.5" y2="65.8" stroke="rgb(0,0,0)"  stroke-width="2.0"/>
<line x1="172.1" y1="160.3" x2="190.4" y2="178.7" stroke="rgb(0,0,0)"  stroke-width="2.0"/>
<line x1="167.8" y1="164.6" x2="186.2" y2="183.0" stroke="rgb(0,0,0)"  stroke-width="2.0"/>
<line x1="147.8" y1="290.7" x2="183.7" y2="311.5" stroke="rgb(0,0,0)"  stroke-width="2.0"/>
<line x1="183.7" y1="311.5" x2="204.9" y2="292.4" stroke="rgb(0,0,0)"  stroke-width="2.0"/>
<line x1="209.3" y1="271.8" x2="197.7" y2="245.8" stroke="rgb(0,0,0)"  stroke-width="2.0"/>
<line x1="197.7" y1="245.8" x2="156.4" y2="250.1" stroke="rgb(0,0,0)"  stroke-width="2.0"/>
<line x1="192.5" y1="253.6" x2="163.1" y2="256.7" stroke="rgb(0,0,0)"  stroke-width="2.0"/>
<line x1="156.4" y1="250.1" x2="147.8" y2="290.7" stroke="rgb(0,0,0)"  stroke-width="2.0"/>
<line x1="97.9" y1="418.6" x2="139.2" y2="414.3" stroke="rgb(0,0,0)"  stroke-width="2.0"/>
<line x1="103.1" y1="410.8" x2="132.4" y2="407.7" stroke="rgb(0,0,0)"  stroke-width="2.0"/>
<line x1="139.2" y1="414.3" x2="147.8" y2="373.7" stroke="rgb(0,0,0)"  stroke-width="2.0"/>
<line x1="147.8" y1="373.7" x2="111.9" y2="352.9" stroke="rgb(0,0,0)"  stroke-width="2.0"/>
<line x1="139.0" y1="376.9" x2="113.5" y2="362.2" stroke="rgb(0,0,0)"  stroke-width="2.0"/>
<line x1="111.9" y1="352.9" x2="90.7" y2="372.0" stroke="rgb(0,0,0)"  stroke-width="2.0"/>
<line x1="86.3" y1="392.6" x2="97.9" y2="418.6" stroke="rgb(0,0,0)"  stroke-width="2.0"/>
<line x1="147.8" y1="373.7" x2="183.7" y2="352.9" stroke="rgb(0,0,0)"  stroke-width="2.0"/>
<line x1="183.7" y1="352.9" x2="183.7" y2="311.5" stroke="rgb(0,0,0)"  stroke-width="2.0"/>
<line x1="176.5" y1="346.9" x2="176.5" y2="317.5" stroke="rgb(0,0,0)"  stroke-width="2.0"/>
<line x1="147.8" y1="290.7" x2="111.9" y2="311.5" stroke="rgb(0,0,0)"  stroke-width="2.0"/>
<line x1="146.2" y1="299.9" x2="120.7" y2="314.7" stroke="rgb(0,0,0)"  stroke-width="2.0"/>
<line x1="111.9" y1="311.5" x2="111.9" y2="352.9" stroke="rgb(0,0,0)"  stroke-width="2.0"/>
<line x1="280.7" y1="173.9" x2="259.9" y2="138.0" stroke="rgb(0,0,0)"  stroke-width="2.0"/>
<line x1="271.4" y1="172.3" x2="256.7" y2="146.8" stroke="rgb(0,0,0)"  stroke-width="2.0"/>
<line x1="259.9" y1="138.0" x2="218.4" y2="138.0" stroke="rgb(0,0,0)"  stroke-width="2.0"/>
<line x1="218.4" y1="138.0" x2="197.7" y2="173.9" stroke="rgb(0,0,0)"  stroke-width="2.0"/>
<line x1="221.7" y1="146.8" x2="206.9" y2="172.3" stroke="rgb(0,0,0)"  stroke-width="2.0"/>
<line x1="197.7" y1="173.9" x2="218.4" y2="209.9" stroke="rgb(0,0,0)"  stroke-width="2.0"/>
<line x1="218.4" y1="209.9" x2="259.9" y2="209.9" stroke="rgb(0,0,0)"  stroke-width="2.0"/>
<line x1="224.4" y1="202.7" x2="253.9" y2="202.7" stroke="rgb(0,0,0)"  stroke-width="2.0"/>
<line x1="259.9" y1="209.9" x2="280.7" y2="173.9" stroke="rgb(0,0,0)"  stroke-width="2.0"/>
<line x1="322.2" y1="102.1" x2="280.7" y2="102.1" stroke="rgb(0,0,0)"  stroke-width="2.0"/>
<line x1="280.7" y1="102.1" x2="259.9" y2="138.0" stroke="rgb(0,0,0)"  stroke-width="2.0"/>
<line x1="280.7" y1="173.9" x2="322.2" y2="173.9" stroke="rgb(0,0,0)"  stroke-width="2.0"/>
<line x1="322.2" y1="173.9" x2="336.4" y2="149.3" stroke="rgb(0,0,0)"  stroke-width="2.0"/>
<line x1="336.4" y1="126.7" x2="322.2" y2="102.1" stroke="rgb(0,0,0)"  stroke-width="2.0"/>
<line x1="227.0" y1="81.0" x2="209.0" y2="107.4" stroke="rgb(0,0,0)"  stroke-width="2.0"/>
<line x1="229.6" y1="90.0" x2="218.3" y2="106.5" stroke="rgb(0,0,0)"  stroke-width="2.0"/>
<line x1="209.0" y1="107.4" x2="218.4" y2="138.0" stroke="rgb(0,0,0)"  stroke-width="2.0"/>
<line x1="280.7" y1="102.1" x2="258.9" y2="78.6" stroke="rgb(0,0,0)"  stroke-width="2.0"/>
<line x1="271.3" y1="102.6" x2="257.7" y2="87.9" stroke="rgb(0,0,0)"  stroke-width="2.0"/>
<line x1="258.9" y1="78.6" x2="227.0" y2="81.0" stroke="rgb(0,0,0)"  stroke-width="2.0"/>
<line x1="165.2" y1="146.1" x2="170.0" y2="162.4" stroke="rgb(0,0,0)"  stroke-width="2.0"/>
<line x1="170.0" y1="162.4" x2="197.7" y2="173.9" stroke="rgb(0,0,0)"  stroke-width="2.0"/>
<line x1="209.0" y1="107.4" x2="179.0" y2="109.1" stroke="rgb(0,0,0)"  stroke-width="2.0"/>
<line x1="179.0" y1="109.1" x2="169.2" y2="123.0" stroke="rgb(0,0,0)"  stroke-width="2.0"/>
<text x="336.898426" y="217.860715" fill="rgb(255,12,12)"  stroke="rgb(255,12,12)" stroke-width="1" font-size="16" >O</text>
<text x="336.898426" y="145.997862" fill="rgb(12,12,255)"  stroke="rgb(12,12,255)" stroke-width="1" font-size="16" >N</text>
<text x="399.133482" y="110.066436" fill="rgb(255,12,12)"  stroke="rgb(255,12,12)" stroke-width="1" font-size="16" >O</text>
<text x="399.133482" y="181.929289" fill="rgb(255,12,12)"  stroke="rgb(255,12,12)" stroke-width="1" font-size="16" >O</text>
<text x="442.623520" y="181.929289" fill="rgb(102,102,102)"  stroke="rgb(102,102,102)" stroke-width="1" font-size="16" >CH</text>
<text x="466.623520" y="185.609289" fill="rgb(102,102,102)"  stroke="rgb(102,102,102)" stroke-width="1" font-size="13" >3</text>
<text x="336.898426" y="74.135009" fill="rgb(255,12,12)"  stroke="rgb(255,12,12)" stroke-width="1" font-size="16" >O</text>
<text x="268.068112" y="48.000000" fill="rgb(191,191,191)"  stroke="rgb(191,191,191)" stroke-width="1" font-size="16" >H</text>
<text x="152.972014" y="80.791714" fill="rgb(255,12,12)"  stroke="rgb(255,12,12)" stroke-width="1" font-size="16" >O</text>
<text x="155.652876" y="141.586756" fill="rgb(12,12,255)"  stroke="rgb(12,12,255)" stroke-width="1" font-size="16" >N</text>
<text x="88.270865" y="166.565433" fill="rgb(255,12,12)"  stroke="rgb(255,12,12)" stroke-width="1" font-size="16" >O</text>
<text x="100.329702" y="95.721561" fill="rgb(255,12,12)"  stroke="rgb(255,12,12)" stroke-width="1" font-size="16" >O</text>
<text x="128.809985" y="63.780712" fill="rgb(102,102,102)"  stroke="rgb(102,102,102)" stroke-width="1" font-size="16" >CH</text>
<text x="152.809985" y="67.460712" fill="rgb(102,102,102)"  stroke="rgb(102,102,102)" stroke-width="1" font-size="13" >3</text>
<text x="191.480175" y="198.047542" fill="rgb(255,12,12)"  stroke="rgb(255,12,12)" stroke-width="1" font-size="16" >O</text>
<text x="71.160246" y="462.544185" fill="rgb(191,191,191)"  stroke="rgb(191,191,191)" stroke-width="1" font-size="16" >H</text>
<text x="110.658289" y="227.295925" fill="rgb(30,239,30)"  stroke="rgb(30,239,30)" stroke-width="1" font-size="16" >Cl</text>
<text x="34.000000" y="319.457431" fill="rgb(255,12,12)"  stroke="rgb(255,12,12)" stroke-width="1" font-size="16" >O</text>
<text x="69.931427" y="257.222375" fill="rgb(255,12,12)"  stroke="rgb(255,12,12)" stroke-width="1" font-size="16" >O</text>
<text x="14.000000" y="236.477356" fill="rgb(102,102,102)"  stroke="rgb(102,102,102)" stroke-width="1" font-size="16" >H</text>
<text x="26.000000" y="240.157356" fill="rgb(102,102,102)"  stroke="rgb(102,102,102)" stroke-width="1" font-size="13" >3</text>
<text x="32.500000" y="236.477356" fill="rgb(102,102,102)"  stroke="rgb(102,102,102)" stroke-width="1" font-size="16" >C</text>
<text x="75.029746" y="388.709723" fill="rgb(178,178,0)"  stroke="rgb(178,178,0)" stroke-width="1" font-size="16" >S</text>
<text x="160.930270" y="453.108975" fill="rgb(30,239,30)"  stroke="rgb(30,239,30)" stroke-width="1" font-size="16" >Cl</text>
<text x="249.588559" y="360.947469" fill="rgb(255,12,12)"  stroke="rgb(255,12,12)" stroke-width="1" font-size="16" >O</text>
<text x="213.657133" y="423.182525" fill="rgb(255,12,12)"  stroke="rgb(255,12,12)" stroke-width="1" font-size="16" >O</text>
<text x="251.588559" y="443.927544" fill="rgb(102,102,102)"  stroke="rgb(102,102,102)" stroke-width="1" font-size="16" >CH</text>
<text x="275.588559" y="447.607544" fill="rgb(102,102,102)"  stroke="rgb(102,102,102)" stroke-width="1" font-size="13" >3</text>
<text x="208.558813" y="291.695177" fill="rgb(178,178,0)"  stroke="rgb(178,178,0)" stroke-width="1" font-size="16" >S</text>
</svg>
</g>
<text font-size="18.000000" fill ="black" font-family="sans-serif"
x="10.000000" y="20.000000" ></text>
</svg>
