<?xml version="1.0"?>
<svg version="1.1" id="topsvg"
xmlns="http://www.w3.org/2000/svg" xmlns:xlink="http://www.w3.org/1999/xlink"
xmlns:cml="http://www.xml-cml.org/schema" x="0" y="0" width="200px" height="200px" viewBox="0 0 100 100">
<title> - Open Babel Depiction</title>
<rect x="0" y="0" width="100" height="100" fill="white"/>
<g transform="translate(0,0)">
<svg width="100" height="100" x="0" y="0" viewBox="0 0 558.622 310.101"
font-family="sans-serif" stroke="rgb(0,0,0)" stroke-width="2"  stroke-linecap="round">
<line x1="231.5" y1="133.2" x2="272.4" y2="124.5" stroke="rgb(0,0,0)"  stroke-width="2.0"/>
<line x1="375.1" y1="171.4" x2="389.5" y2="196.4" stroke="rgb(0,0,0)"  stroke-width="2.0"/>
<line x1="409.0" y1="207.6" x2="424.8" y2="207.6" stroke="rgb(0,0,0)"  stroke-width="2.0"/>
<line x1="375.1" y1="171.4" x2="360.7" y2="196.4" stroke="rgb(0,0,0)"  stroke-width="2.0"/>
<line x1="341.2" y1="207.6" x2="325.4" y2="207.6" stroke="rgb(0,0,0)"  stroke-width="2.0"/>
<line x1="477.7" y1="124.5" x2="505.9" y2="130.5" stroke="rgb(0,0,0)"  stroke-width="2.0"/>
<line x1="131.8" y1="78.8" x2="140.7" y2="51.4" stroke="rgb(0,0,0)"  stroke-width="2.0"/>
<line x1="137.5" y1="80.7" x2="146.4" y2="53.3" stroke="rgb(0,0,0)"  stroke-width="2.0"/>
<line x1="85.1" y1="78.8" x2="74.5" y2="67.0" stroke="rgb(0,0,0)"  stroke-width="2.0"/>
<line x1="81.5" y1="131.1" x2="53.3" y2="137.1" stroke="rgb(0,0,0)"  stroke-width="2.0"/>
<line x1="80.3" y1="125.3" x2="52.1" y2="131.2" stroke="rgb(0,0,0)"  stroke-width="2.0"/>
<line x1="106.0" y1="191.3" x2="79.0" y2="201.5" stroke="rgb(0,0,0)"  stroke-width="2.0"/>
<line x1="185.5" y1="231.6" x2="176.1" y2="258.8" stroke="rgb(0,0,0)"  stroke-width="2.0"/>
<line x1="179.8" y1="229.6" x2="170.4" y2="256.8" stroke="rgb(0,0,0)"  stroke-width="2.0"/>
<line x1="219.6" y1="238.1" x2="228.1" y2="251.4" stroke="rgb(0,0,0)"  stroke-width="2.0"/>
<line x1="229.0" y1="198.5" x2="257.6" y2="201.6" stroke="rgb(0,0,0)"  stroke-width="2.0"/>
<line x1="228.4" y1="204.4" x2="257.0" y2="207.6" stroke="rgb(0,0,0)"  stroke-width="2.0"/>
<line x1="341.3" y1="146.9" x2="354.2" y2="107.1" stroke="rgb(0,0,0)"  stroke-width="2.0"/>
<line x1="336.3" y1="138.9" x2="345.5" y2="110.6" stroke="rgb(0,0,0)"  stroke-width="2.0"/>
<line x1="354.2" y1="107.1" x2="326.2" y2="76.1" stroke="rgb(0,0,0)"  stroke-width="2.0"/>
<line x1="326.2" y1="76.1" x2="285.3" y2="84.7" stroke="rgb(0,0,0)"  stroke-width="2.0"/>
<line x1="321.8" y1="84.3" x2="292.7" y2="90.5" stroke="rgb(0,0,0)"  stroke-width="2.0"/>
<line x1="285.3" y1="84.7" x2="272.4" y2="124.5" stroke="rgb(0,0,0)"  stroke-width="2.0"/>
<line x1="272.4" y1="124.5" x2="300.4" y2="155.6" stroke="rgb(0,0,0)"  stroke-width="2.0"/>
<line x1="281.8" y1="124.1" x2="301.7" y2="146.3" stroke="rgb(0,0,0)"  stroke-width="2.0"/>
<line x1="300.4" y1="155.6" x2="341.3" y2="146.9" stroke="rgb(0,0,0)"  stroke-width="2.0"/>
<line x1="449.8" y1="155.6" x2="408.9" y2="146.9" stroke="rgb(0,0,0)"  stroke-width="2.0"/>
<line x1="445.4" y1="147.3" x2="416.2" y2="141.1" stroke="rgb(0,0,0)"  stroke-width="2.0"/>
<line x1="408.9" y1="146.9" x2="396.0" y2="107.1" stroke="rgb(0,0,0)"  stroke-width="2.0"/>
<line x1="396.0" y1="107.1" x2="423.9" y2="76.1" stroke="rgb(0,0,0)"  stroke-width="2.0"/>
<line x1="405.3" y1="107.5" x2="425.3" y2="85.3" stroke="rgb(0,0,0)"  stroke-width="2.0"/>
<line x1="423.9" y1="76.1" x2="464.8" y2="84.7" stroke="rgb(0,0,0)"  stroke-width="2.0"/>
<line x1="464.8" y1="84.7" x2="477.7" y2="124.5" stroke="rgb(0,0,0)"  stroke-width="2.0"/>
<line x1="459.8" y1="92.7" x2="469.0" y2="121.0" stroke="rgb(0,0,0)"  stroke-width="2.0"/>
<line x1="477.7" y1="124.5" x2="449.8" y2="155.6" stroke="rgb(0,0,0)"  stroke-width="2.0"/>
<line x1="162.7" y1="110.8" x2="149.7" y2="150.6" stroke="rgb(0,0,0)"  stroke-width="2.0"/>
<line x1="167.6" y1="118.7" x2="158.4" y2="147.1" stroke="rgb(0,0,0)"  stroke-width="2.0"/>
<line x1="149.7" y1="150.6" x2="177.7" y2="181.6" stroke="rgb(0,0,0)"  stroke-width="2.0"/>
<line x1="177.7" y1="181.6" x2="218.6" y2="172.9" stroke="rgb(0,0,0)"  stroke-width="2.0"/>
<line x1="182.1" y1="173.3" x2="211.2" y2="167.1" stroke="rgb(0,0,0)"  stroke-width="2.0"/>
<line x1="218.6" y1="172.9" x2="231.5" y2="133.2" stroke="rgb(0,0,0)"  stroke-width="2.0"/>
<line x1="231.5" y1="133.2" x2="203.5" y2="102.1" stroke="rgb(0,0,0)"  stroke-width="2.0"/>
<line x1="222.1" y1="133.5" x2="202.2" y2="111.4" stroke="rgb(0,0,0)"  stroke-width="2.0"/>
<line x1="203.5" y1="102.1" x2="162.7" y2="110.8" stroke="rgb(0,0,0)"  stroke-width="2.0"/>
<line x1="80.9" y1="128.2" x2="108.9" y2="159.3" stroke="rgb(0,0,0)"  stroke-width="2.0"/>
<line x1="108.9" y1="159.3" x2="149.7" y2="150.6" stroke="rgb(0,0,0)"  stroke-width="2.0"/>
<line x1="162.7" y1="110.8" x2="134.7" y2="79.8" stroke="rgb(0,0,0)"  stroke-width="2.0"/>
<line x1="134.7" y1="79.8" x2="106.5" y2="85.7" stroke="rgb(0,0,0)"  stroke-width="2.0"/>
<line x1="89.8" y1="100.8" x2="80.9" y2="128.2" stroke="rgb(0,0,0)"  stroke-width="2.0"/>
<line x1="129.3" y1="213.6" x2="161.2" y2="209.3" stroke="rgb(0,0,0)"  stroke-width="2.0"/>
<line x1="134.2" y1="205.7" x2="154.3" y2="203.0" stroke="rgb(0,0,0)"  stroke-width="2.0"/>
<line x1="161.2" y1="209.3" x2="177.7" y2="181.6" stroke="rgb(0,0,0)"  stroke-width="2.0"/>
<line x1="108.9" y1="159.3" x2="106.0" y2="191.3" stroke="rgb(0,0,0)"  stroke-width="2.0"/>
<line x1="115.5" y1="165.9" x2="113.7" y2="186.0" stroke="rgb(0,0,0)"  stroke-width="2.0"/>
<line x1="106.0" y1="191.3" x2="129.3" y2="213.6" stroke="rgb(0,0,0)"  stroke-width="2.0"/>
<line x1="219.6" y1="216.1" x2="228.7" y2="201.5" stroke="rgb(0,0,0)"  stroke-width="2.0"/>
<line x1="228.7" y1="201.5" x2="218.6" y2="172.9" stroke="rgb(0,0,0)"  stroke-width="2.0"/>
<line x1="161.2" y1="209.3" x2="182.6" y2="230.6" stroke="rgb(0,0,0)"  stroke-width="2.0"/>
<line x1="182.6" y1="230.6" x2="199.8" y2="228.6" stroke="rgb(0,0,0)"  stroke-width="2.0"/>
<line x1="396.0" y1="107.1" x2="354.2" y2="107.1" stroke="rgb(0,0,0)"  stroke-width="2.0"/>
<line x1="341.3" y1="146.9" x2="375.1" y2="171.4" stroke="rgb(0,0,0)"  stroke-width="2.0"/>
<line x1="375.1" y1="171.4" x2="408.9" y2="146.9" stroke="rgb(0,0,0)"  stroke-width="2.0"/>
<text x="141.604039" y="48.000000" fill="rgb(255,12,12)"  stroke="rgb(255,12,12)" stroke-width="1" font-size="16" >O</text>
<text x="87.802019" y="96.443556" fill="rgb(12,12,255)"  stroke="rgb(12,12,255)" stroke-width="1" font-size="16" >N</text>
<text x="39.833119" y="65.380945" fill="rgb(102,102,102)"  stroke="rgb(102,102,102)" stroke-width="1" font-size="16" >H</text>
<text x="51.833119" y="69.060945" fill="rgb(102,102,102)"  stroke="rgb(102,102,102)" stroke-width="1" font-size="13" >3</text>
<text x="58.333119" y="65.380945" fill="rgb(102,102,102)"  stroke="rgb(102,102,102)" stroke-width="1" font-size="16" >C</text>
<text x="34.000000" y="144.887112" fill="rgb(255,12,12)"  stroke="rgb(255,12,12)" stroke-width="1" font-size="16" >O</text>
<text x="60.832623" y="214.036643" fill="rgb(191,191,191)"  stroke="rgb(191,191,191)" stroke-width="1" font-size="16" >H</text>
<text x="162.970576" y="278.101109" fill="rgb(255,12,12)"  stroke="rgb(255,12,12)" stroke-width="1" font-size="16" >O</text>
<text x="206.679188" y="235.111391" fill="rgb(12,12,255)"  stroke="rgb(12,12,255)" stroke-width="1" font-size="16" >N</text>
<text x="231.039088" y="270.426827" fill="rgb(102,102,102)"  stroke="rgb(102,102,102)" stroke-width="1" font-size="16" >CH</text>
<text x="255.039088" y="274.106827" fill="rgb(102,102,102)"  stroke="rgb(102,102,102)" stroke-width="1" font-size="13" >3</text>
<text x="264.232136" y="213.987548" fill="rgb(255,12,12)"  stroke="rgb(255,12,12)" stroke-width="1" font-size="16" >O</text>
<text x="389.965983" y="215.637132" fill="rgb(255,12,12)"  stroke="rgb(255,12,12)" stroke-width="1" font-size="16" >O</text>
<text x="433.764848" y="215.637132" fill="rgb(102,102,102)"  stroke="rgb(102,102,102)" stroke-width="1" font-size="16" >CH</text>
<text x="457.764848" y="219.317132" fill="rgb(102,102,102)"  stroke="rgb(102,102,102)" stroke-width="1" font-size="13" >3</text>
<text x="348.167118" y="215.637132" fill="rgb(255,12,12)"  stroke="rgb(255,12,12)" stroke-width="1" font-size="16" >O</text>
<text x="286.368253" y="215.637132" fill="rgb(102,102,102)"  stroke="rgb(102,102,102)" stroke-width="1" font-size="16" >H</text>
<text x="298.368253" y="219.317132" fill="rgb(102,102,102)"  stroke="rgb(102,102,102)" stroke-width="1" font-size="13" >3</text>
<text x="304.868253" y="215.637132" fill="rgb(102,102,102)"  stroke="rgb(102,102,102)" stroke-width="1" font-size="16" >C</text>
<text x="512.622362" y="141.187831" fill="rgb(191,191,191)"  stroke="rgb(191,191,191)" stroke-width="1" font-size="16" >H</text>
</svg>
</g>
<text font-size="18.000000" fill ="black" font-family="sans-serif"
x="10.000000" y="20.000000" ></text>
</svg>
