<?xml version="1.0"?>
<svg version="1.1" id="topsvg"
xmlns="http://www.w3.org/2000/svg" xmlns:xlink="http://www.w3.org/1999/xlink"
xmlns:cml="http://www.xml-cml.org/schema" x="0" y="0" width="200px" height="200px" viewBox="0 0 100 100">
<title> - Open Babel Depiction</title>
<rect x="0" y="0" width="100" height="100" fill="white"/>
<g transform="translate(0,0)">
<svg width="100" height="100" x="0" y="0" viewBox="0 0 582.355 371.67"
font-family="sans-serif" stroke="rgb(0,0,0)" stroke-width="2"  stroke-linecap="round">
<line x1="220.2" y1="138.0" x2="259.3" y2="146.3" stroke="rgb(0,0,0)"  stroke-width="2.0"/>
<line x1="289.1" y1="119.6" x2="284.9" y2="79.8" stroke="rgb(0,0,0)"  stroke-width="2.0"/>
<line x1="284.9" y1="79.8" x2="282.1" y2="52.9" stroke="rgb(0,0,0)"  stroke-width="2.0"/>
<line x1="280.7" y1="80.2" x2="277.9" y2="53.4" stroke="rgb(0,0,0)"  stroke-width="2.0"/>
<line x1="289.1" y1="79.3" x2="286.2" y2="52.5" stroke="rgb(0,0,0)"  stroke-width="2.0"/>
<line x1="323.7" y1="139.6" x2="348.4" y2="128.6" stroke="rgb(0,0,0)"  stroke-width="2.0"/>
<line x1="315.4" y1="178.7" x2="342.2" y2="208.4" stroke="rgb(0,0,0)"  stroke-width="2.0"/>
<line x1="341.5" y1="205.5" x2="380.7" y2="197.2" stroke="rgb(0,0,0)"  stroke-width="2.0"/>
<line x1="342.8" y1="211.3" x2="381.9" y2="203.0" stroke="rgb(0,0,0)"  stroke-width="2.0"/>
<line x1="381.3" y1="200.1" x2="408.1" y2="229.8" stroke="rgb(0,0,0)"  stroke-width="2.0"/>
<line x1="447.8" y1="225.6" x2="461.3" y2="202.3" stroke="rgb(0,0,0)"  stroke-width="2.0"/>
<line x1="464.1" y1="262.2" x2="503.2" y2="270.5" stroke="rgb(0,0,0)"  stroke-width="2.0"/>
<line x1="503.2" y1="270.5" x2="529.6" y2="276.1" stroke="rgb(0,0,0)"  stroke-width="2.0"/>
<line x1="504.1" y1="266.4" x2="530.5" y2="272.0" stroke="rgb(0,0,0)"  stroke-width="2.0"/>
<line x1="502.4" y1="274.6" x2="528.8" y2="280.2" stroke="rgb(0,0,0)"  stroke-width="2.0"/>
<line x1="434.4" y1="288.9" x2="437.2" y2="315.8" stroke="rgb(0,0,0)"  stroke-width="2.0"/>
<line x1="192.0" y1="202.2" x2="215.4" y2="215.7" stroke="rgb(0,0,0)"  stroke-width="2.0"/>
<line x1="189.0" y1="207.4" x2="212.4" y2="220.9" stroke="rgb(0,0,0)"  stroke-width="2.0"/>
<line x1="147.5" y1="263.9" x2="165.6" y2="284.0" stroke="rgb(0,0,0)"  stroke-width="2.0"/>
<line x1="170.3" y1="306.0" x2="166.0" y2="319.3" stroke="rgb(0,0,0)"  stroke-width="2.0"/>
<line x1="91.5" y1="231.5" x2="65.1" y2="225.9" stroke="rgb(0,0,0)"  stroke-width="2.0"/>
<line x1="48.3" y1="210.9" x2="44.0" y2="197.5" stroke="rgb(0,0,0)"  stroke-width="2.0"/>
<line x1="119.7" y1="167.4" x2="96.3" y2="153.9" stroke="rgb(0,0,0)"  stroke-width="2.0"/>
<line x1="122.7" y1="162.2" x2="99.3" y2="148.7" stroke="rgb(0,0,0)"  stroke-width="2.0"/>
<line x1="164.2" y1="105.6" x2="146.1" y2="85.6" stroke="rgb(0,0,0)"  stroke-width="2.0"/>
<line x1="323.7" y1="139.6" x2="315.4" y2="178.7" stroke="rgb(0,0,0)"  stroke-width="2.0"/>
<line x1="315.4" y1="143.9" x2="309.6" y2="171.3" stroke="rgb(0,0,0)"  stroke-width="2.0"/>
<line x1="315.4" y1="178.7" x2="288.5" y2="181.5" stroke="rgb(0,0,0)"  stroke-width="2.0"/>
<line x1="270.3" y1="171.0" x2="259.3" y2="146.3" stroke="rgb(0,0,0)"  stroke-width="2.0"/>
<line x1="259.3" y1="146.3" x2="289.1" y2="119.6" stroke="rgb(0,0,0)"  stroke-width="2.0"/>
<line x1="268.6" y1="147.7" x2="289.4" y2="128.9" stroke="rgb(0,0,0)"  stroke-width="2.0"/>
<line x1="289.1" y1="119.6" x2="323.7" y2="139.6" stroke="rgb(0,0,0)"  stroke-width="2.0"/>
<line x1="464.1" y1="262.2" x2="434.4" y2="288.9" stroke="rgb(0,0,0)"  stroke-width="2.0"/>
<line x1="454.8" y1="260.8" x2="434.0" y2="279.6" stroke="rgb(0,0,0)"  stroke-width="2.0"/>
<line x1="434.4" y1="288.9" x2="411.0" y2="275.4" stroke="rgb(0,0,0)"  stroke-width="2.0"/>
<line x1="402.4" y1="256.2" x2="408.1" y2="229.8" stroke="rgb(0,0,0)"  stroke-width="2.0"/>
<line x1="408.1" y1="229.8" x2="447.8" y2="225.6" stroke="rgb(0,0,0)"  stroke-width="2.0"/>
<line x1="414.8" y1="236.4" x2="442.6" y2="233.4" stroke="rgb(0,0,0)"  stroke-width="2.0"/>
<line x1="447.8" y1="225.6" x2="464.1" y2="262.2" stroke="rgb(0,0,0)"  stroke-width="2.0"/>
<line x1="102.5" y1="256.2" x2="91.5" y2="231.5" stroke="rgb(0,0,0)"  stroke-width="2.0"/>
<line x1="91.5" y1="231.5" x2="121.2" y2="204.8" stroke="rgb(0,0,0)"  stroke-width="2.0"/>
<line x1="100.8" y1="232.9" x2="121.6" y2="214.1" stroke="rgb(0,0,0)"  stroke-width="2.0"/>
<line x1="121.2" y1="204.8" x2="155.9" y2="224.8" stroke="rgb(0,0,0)"  stroke-width="2.0"/>
<line x1="155.9" y1="224.8" x2="147.5" y2="263.9" stroke="rgb(0,0,0)"  stroke-width="2.0"/>
<line x1="147.6" y1="229.1" x2="141.7" y2="256.5" stroke="rgb(0,0,0)"  stroke-width="2.0"/>
<line x1="147.5" y1="263.9" x2="120.7" y2="266.7" stroke="rgb(0,0,0)"  stroke-width="2.0"/>
<line x1="155.9" y1="144.8" x2="164.2" y2="105.6" stroke="rgb(0,0,0)"  stroke-width="2.0"/>
<line x1="164.1" y1="140.4" x2="170.0" y2="113.0" stroke="rgb(0,0,0)"  stroke-width="2.0"/>
<line x1="164.2" y1="105.6" x2="191.0" y2="102.8" stroke="rgb(0,0,0)"  stroke-width="2.0"/>
<line x1="209.2" y1="113.3" x2="220.2" y2="138.0" stroke="rgb(0,0,0)"  stroke-width="2.0"/>
<line x1="220.2" y1="138.0" x2="190.5" y2="164.8" stroke="rgb(0,0,0)"  stroke-width="2.0"/>
<line x1="210.9" y1="136.7" x2="190.1" y2="155.4" stroke="rgb(0,0,0)"  stroke-width="2.0"/>
<line x1="190.5" y1="164.8" x2="155.9" y2="144.8" stroke="rgb(0,0,0)"  stroke-width="2.0"/>
<line x1="190.5" y1="204.8" x2="155.9" y2="224.8" stroke="rgb(0,0,0)"  stroke-width="2.0"/>
<line x1="121.2" y1="204.8" x2="121.2" y2="164.8" stroke="rgb(0,0,0)"  stroke-width="2.0"/>
<line x1="121.2" y1="164.8" x2="155.9" y2="144.8" stroke="rgb(0,0,0)"  stroke-width="2.0"/>
<line x1="190.5" y1="164.8" x2="190.5" y2="204.8" stroke="rgb(0,0,0)"  stroke-width="2.0"/>
<text x="46.360680" y="231.224489" fill="rgb(255,12,12)"  stroke="rgb(255,12,12)" stroke-width="1" font-size="16" >O</text>
<text x="219.135425" y="232.775733" fill="rgb(255,12,12)"  stroke="rgb(255,12,12)" stroke-width="1" font-size="16" >O</text>
<text x="168.302150" y="301.627430" fill="rgb(255,12,12)"  stroke="rgb(255,12,12)" stroke-width="1" font-size="16" >O</text>
<text x="135.941470" y="339.669690" fill="rgb(102,102,102)"  stroke="rgb(102,102,102)" stroke-width="1" font-size="16" >H</text>
<text x="147.941470" y="343.349690" fill="rgb(102,102,102)"  stroke="rgb(102,102,102)" stroke-width="1" font-size="13" >3</text>
<text x="154.441470" y="339.669690" fill="rgb(102,102,102)"  stroke="rgb(102,102,102)" stroke-width="1" font-size="16" >C</text>
<text x="101.756050" y="276.082775" fill="rgb(178,178,0)"  stroke="rgb(178,178,0)" stroke-width="1" font-size="16" >S</text>
<text x="393.736333" y="276.948678" fill="rgb(178,178,0)"  stroke="rgb(178,178,0)" stroke-width="1" font-size="16" >S</text>
<text x="14.000000" y="193.182228" fill="rgb(102,102,102)"  stroke="rgb(102,102,102)" stroke-width="1" font-size="16" >H</text>
<text x="26.000000" y="196.862228" fill="rgb(102,102,102)"  stroke="rgb(102,102,102)" stroke-width="1" font-size="13" >3</text>
<text x="32.500000" y="193.182228" fill="rgb(102,102,102)"  stroke="rgb(102,102,102)" stroke-width="1" font-size="16" >C</text>
<text x="80.571361" y="152.775733" fill="rgb(255,12,12)"  stroke="rgb(255,12,12)" stroke-width="1" font-size="16" >O</text>
<text x="131.404636" y="83.924035" fill="rgb(191,191,191)"  stroke="rgb(191,191,191)" stroke-width="1" font-size="16" >H</text>
<text x="197.950736" y="109.468690" fill="rgb(178,178,0)"  stroke="rgb(178,178,0)" stroke-width="1" font-size="16" >S</text>
<text x="274.709622" y="48.000000" fill="rgb(12,12,255)"  stroke="rgb(12,12,255)" stroke-width="1" font-size="16" >N</text>
<text x="354.254734" y="131.292286" fill="rgb(127,178,255)"  stroke="rgb(127,178,255)" stroke-width="1" font-size="16" >F</text>
<text x="269.615572" y="190.868794" fill="rgb(178,178,0)"  stroke="rgb(178,178,0)" stroke-width="1" font-size="16" >S</text>
<text x="461.833676" y="199.000619" fill="rgb(127,178,255)"  stroke="rgb(127,178,255)" stroke-width="1" font-size="16" >F</text>
<text x="536.354950" y="286.816389" fill="rgb(12,12,255)"  stroke="rgb(12,12,255)" stroke-width="1" font-size="16" >N</text>
<text x="432.558487" y="336.729554" fill="rgb(191,191,191)"  stroke="rgb(191,191,191)" stroke-width="1" font-size="16" >H</text>
</svg>
</g>
<text font-size="18.000000" fill ="black" font-family="sans-serif"
x="10.000000" y="20.000000" ></text>
</svg>
