<?xml version="1.0"?>
<svg version="1.1" id="topsvg"
xmlns="http://www.w3.org/2000/svg" xmlns:xlink="http://www.w3.org/1999/xlink"
xmlns:cml="http://www.xml-cml.org/schema" x="0" y="0" width="200px" height="200px" viewBox="0 0 100 100">
<title> - Open Babel Depiction</title>
<rect x="0" y="0" width="100" height="100" fill="white"/>
<g transform="translate(0,0)">
<svg width="100" height="100" x="0" y="0" viewBox="0 0 398.872 495.091"
font-family="sans-serif" stroke="rgb(0,0,0)" stroke-width="2"  stroke-linecap="round">
<line x1="197.2" y1="138.0" x2="178.2" y2="170.9" stroke="rgb(0,0,0)"  stroke-width="2.0"/>
<line x1="140.4" y1="174.9" x2="115.0" y2="146.6" stroke="rgb(0,0,0)"  stroke-width="2.0"/>
<line x1="115.0" y1="146.6" x2="98.2" y2="128.0" stroke="rgb(0,0,0)"  stroke-width="2.0"/>
<line x1="111.9" y1="149.4" x2="95.1" y2="130.8" stroke="rgb(0,0,0)"  stroke-width="2.0"/>
<line x1="118.1" y1="143.8" x2="101.4" y2="125.2" stroke="rgb(0,0,0)"  stroke-width="2.0"/>
<line x1="132.5" y1="212.1" x2="97.8" y2="227.5" stroke="rgb(0,0,0)"  stroke-width="2.0"/>
<line x1="97.8" y1="227.5" x2="74.9" y2="237.7" stroke="rgb(0,0,0)"  stroke-width="2.0"/>
<line x1="99.5" y1="231.4" x2="76.6" y2="241.6" stroke="rgb(0,0,0)"  stroke-width="2.0"/>
<line x1="96.1" y1="223.7" x2="73.2" y2="233.9" stroke="rgb(0,0,0)"  stroke-width="2.0"/>
<line x1="165.4" y1="231.1" x2="169.4" y2="268.9" stroke="rgb(0,0,0)"  stroke-width="2.0"/>
<line x1="171.2" y1="271.3" x2="140.4" y2="293.7" stroke="rgb(0,0,0)"  stroke-width="2.0"/>
<line x1="167.7" y1="266.5" x2="136.9" y2="288.8" stroke="rgb(0,0,0)"  stroke-width="2.0"/>
<line x1="138.7" y1="291.2" x2="142.6" y2="329.1" stroke="rgb(0,0,0)"  stroke-width="2.0"/>
<line x1="114.4" y1="354.5" x2="77.2" y2="346.6" stroke="rgb(0,0,0)"  stroke-width="2.0"/>
<line x1="77.2" y1="346.6" x2="52.7" y2="341.4" stroke="rgb(0,0,0)"  stroke-width="2.0"/>
<line x1="76.3" y1="350.7" x2="51.8" y2="345.5" stroke="rgb(0,0,0)"  stroke-width="2.0"/>
<line x1="78.1" y1="342.5" x2="53.6" y2="337.3" stroke="rgb(0,0,0)"  stroke-width="2.0"/>
<line x1="129.8" y1="389.2" x2="110.8" y2="422.2" stroke="rgb(0,0,0)"  stroke-width="2.0"/>
<line x1="110.8" y1="422.2" x2="98.3" y2="443.8" stroke="rgb(0,0,0)"  stroke-width="2.0"/>
<line x1="114.5" y1="424.3" x2="102.0" y2="445.9" stroke="rgb(0,0,0)"  stroke-width="2.0"/>
<line x1="107.2" y1="420.1" x2="94.7" y2="441.7" stroke="rgb(0,0,0)"  stroke-width="2.0"/>
<line x1="167.7" y1="385.3" x2="184.4" y2="403.9" stroke="rgb(0,0,0)"  stroke-width="2.0"/>
<line x1="271.0" y1="152.7" x2="273.6" y2="177.6" stroke="rgb(0,0,0)"  stroke-width="2.0"/>
<line x1="265.0" y1="153.3" x2="267.6" y2="178.2" stroke="rgb(0,0,0)"  stroke-width="2.0"/>
<line x1="309.0" y1="130.3" x2="320.7" y2="132.8" stroke="rgb(0,0,0)"  stroke-width="2.0"/>
<line x1="342.1" y1="125.8" x2="350.2" y2="116.9" stroke="rgb(0,0,0)"  stroke-width="2.0"/>
<line x1="280.8" y1="92.8" x2="293.3" y2="71.2" stroke="rgb(0,0,0)"  stroke-width="2.0"/>
<line x1="207.1" y1="78.1" x2="204.4" y2="53.2" stroke="rgb(0,0,0)"  stroke-width="2.0"/>
<line x1="213.0" y1="77.5" x2="210.4" y2="52.6" stroke="rgb(0,0,0)"  stroke-width="2.0"/>
<line x1="185.6" y1="115.7" x2="211.6" y2="201.0" stroke="rgb(0,0,0)"  stroke-width="2.0"/>
<line x1="202.4" y1="213.4" x2="190.4" y2="213.4" stroke="rgb(0,0,0)"  stroke-width="2.0"/>
<line x1="132.5" y1="212.1" x2="165.4" y2="231.1" stroke="rgb(0,0,0)"  stroke-width="2.0"/>
<line x1="141.3" y1="208.8" x2="163.8" y2="221.9" stroke="rgb(0,0,0)"  stroke-width="2.0"/>
<line x1="165.4" y1="231.1" x2="184.0" y2="214.3" stroke="rgb(0,0,0)"  stroke-width="2.0"/>
<line x1="188.4" y1="193.8" x2="178.2" y2="170.9" stroke="rgb(0,0,0)"  stroke-width="2.0"/>
<line x1="178.2" y1="170.9" x2="140.4" y2="174.9" stroke="rgb(0,0,0)"  stroke-width="2.0"/>
<line x1="173.0" y1="178.7" x2="147.1" y2="181.4" stroke="rgb(0,0,0)"  stroke-width="2.0"/>
<line x1="140.4" y1="174.9" x2="132.5" y2="212.1" stroke="rgb(0,0,0)"  stroke-width="2.0"/>
<line x1="129.8" y1="389.2" x2="167.7" y2="385.3" stroke="rgb(0,0,0)"  stroke-width="2.0"/>
<line x1="135.1" y1="381.4" x2="160.9" y2="378.7" stroke="rgb(0,0,0)"  stroke-width="2.0"/>
<line x1="167.7" y1="385.3" x2="172.9" y2="360.8" stroke="rgb(0,0,0)"  stroke-width="2.0"/>
<line x1="164.3" y1="341.6" x2="142.6" y2="329.1" stroke="rgb(0,0,0)"  stroke-width="2.0"/>
<line x1="142.6" y1="329.1" x2="114.4" y2="354.5" stroke="rgb(0,0,0)"  stroke-width="2.0"/>
<line x1="143.0" y1="338.4" x2="123.7" y2="355.8" stroke="rgb(0,0,0)"  stroke-width="2.0"/>
<line x1="114.4" y1="354.5" x2="129.8" y2="389.2" stroke="rgb(0,0,0)"  stroke-width="2.0"/>
<line x1="268.0" y1="153.0" x2="286.6" y2="136.3" stroke="rgb(0,0,0)"  stroke-width="2.0"/>
<line x1="291.0" y1="115.7" x2="280.8" y2="92.8" stroke="rgb(0,0,0)"  stroke-width="2.0"/>
<line x1="280.8" y1="92.8" x2="243.0" y2="96.8" stroke="rgb(0,0,0)"  stroke-width="2.0"/>
<line x1="275.6" y1="100.6" x2="249.7" y2="103.4" stroke="rgb(0,0,0)"  stroke-width="2.0"/>
<line x1="243.0" y1="96.8" x2="235.1" y2="134.0" stroke="rgb(0,0,0)"  stroke-width="2.0"/>
<line x1="235.1" y1="134.0" x2="268.0" y2="153.0" stroke="rgb(0,0,0)"  stroke-width="2.0"/>
<line x1="243.0" y1="96.8" x2="210.0" y2="77.8" stroke="rgb(0,0,0)"  stroke-width="2.0"/>
<line x1="210.0" y1="77.8" x2="191.4" y2="94.6" stroke="rgb(0,0,0)"  stroke-width="2.0"/>
<line x1="187.1" y1="115.1" x2="197.2" y2="138.0" stroke="rgb(0,0,0)"  stroke-width="2.0"/>
<line x1="197.2" y1="138.0" x2="235.1" y2="134.0" stroke="rgb(0,0,0)"  stroke-width="2.0"/>
<line x1="202.5" y1="130.2" x2="228.3" y2="127.5" stroke="rgb(0,0,0)"  stroke-width="2.0"/>
<text x="354.872283" y="115.232452" fill="rgb(102,102,102)"  stroke="rgb(102,102,102)" stroke-width="1" font-size="16" >CH</text>
<text x="378.872283" y="118.912452" fill="rgb(102,102,102)"  stroke="rgb(102,102,102)" stroke-width="1" font-size="13" >3</text>
<text x="187.097881" y="421.517428" fill="rgb(191,191,191)"  stroke="rgb(191,191,191)" stroke-width="1" font-size="16" >H</text>
<text x="169.561955" y="356.072461" fill="rgb(178,178,0)"  stroke="rgb(178,178,0)" stroke-width="1" font-size="16" >S</text>
<text x="265.960675" y="198.835909" fill="rgb(255,12,12)"  stroke="rgb(255,12,12)" stroke-width="1" font-size="16" >O</text>
<text x="290.241399" y="135.582460" fill="rgb(12,12,255)"  stroke="rgb(12,12,255)" stroke-width="1" font-size="16" >N</text>
<text x="327.431382" y="143.487435" fill="rgb(255,12,12)"  stroke="rgb(255,12,12)" stroke-width="1" font-size="16" >O</text>
<text x="85.823602" y="463.090713" fill="rgb(12,12,255)"  stroke="rgb(12,12,255)" stroke-width="1" font-size="16" >N</text>
<text x="293.787349" y="67.921699" fill="rgb(191,191,191)"  stroke="rgb(191,191,191)" stroke-width="1" font-size="16" >H</text>
<text x="200.063123" y="48.000000" fill="rgb(255,12,12)"  stroke="rgb(255,12,12)" stroke-width="1" font-size="16" >O</text>
<text x="175.782398" y="111.253449" fill="rgb(12,12,255)"  stroke="rgb(12,12,255)" stroke-width="1" font-size="16" >N</text>
<text x="209.421891" y="221.441353" fill="rgb(255,12,12)"  stroke="rgb(255,12,12)" stroke-width="1" font-size="16" >O</text>
<text x="151.401061" y="221.441353" fill="rgb(102,102,102)"  stroke="rgb(102,102,102)" stroke-width="1" font-size="16" >H</text>
<text x="163.401061" y="225.121353" fill="rgb(102,102,102)"  stroke="rgb(102,102,102)" stroke-width="1" font-size="13" >3</text>
<text x="169.901061" y="221.441353" fill="rgb(102,102,102)"  stroke="rgb(102,102,102)" stroke-width="1" font-size="16" >C</text>
<text x="187.700913" y="213.647966" fill="rgb(178,178,0)"  stroke="rgb(178,178,0)" stroke-width="1" font-size="16" >S</text>
<text x="83.542098" y="126.378503" fill="rgb(12,12,255)"  stroke="rgb(12,12,255)" stroke-width="1" font-size="16" >N</text>
<text x="57.051412" y="251.007382" fill="rgb(12,12,255)"  stroke="rgb(12,12,255)" stroke-width="1" font-size="16" >N</text>
<text x="34.000000" y="346.692997" fill="rgb(12,12,255)"  stroke="rgb(12,12,255)" stroke-width="1" font-size="16" >N</text>
</svg>
</g>
<text font-size="18.000000" fill ="black" font-family="sans-serif"
x="10.000000" y="20.000000" ></text>
</svg>
