<?xml version="1.0"?>
<svg version="1.1" id="topsvg"
xmlns="http://www.w3.org/2000/svg" xmlns:xlink="http://www.w3.org/1999/xlink"
xmlns:cml="http://www.xml-cml.org/schema" x="0" y="0" width="200px" height="200px" viewBox="0 0 100 100">
<title> - Open Babel Depiction</title>
<rect x="0" y="0" width="100" height="100" fill="white"/>
<g transform="translate(0,0)">
<svg width="100" height="100" x="0" y="0" viewBox="0 0 435.468 317.837"
font-family="sans-serif" stroke="rgb(0,0,0)" stroke-width="2"  stroke-linecap="round">
<line x1="200.0" y1="143.9" x2="160.0" y2="143.9" stroke="rgb(0,0,0)"  stroke-width="2.0"/>
<line x1="100.0" y1="178.6" x2="86.5" y2="201.9" stroke="rgb(0,0,0)"  stroke-width="2.0"/>
<line x1="67.0" y1="213.2" x2="53.0" y2="213.2" stroke="rgb(0,0,0)"  stroke-width="2.0"/>
<line x1="80.0" y1="143.9" x2="53.0" y2="143.9" stroke="rgb(0,0,0)"  stroke-width="2.0"/>
<line x1="140.0" y1="109.3" x2="153.5" y2="85.9" stroke="rgb(0,0,0)"  stroke-width="2.0"/>
<line x1="153.5" y1="63.4" x2="146.5" y2="51.3" stroke="rgb(0,0,0)"  stroke-width="2.0"/>
<line x1="223.5" y1="111.6" x2="215.2" y2="85.9" stroke="rgb(0,0,0)"  stroke-width="2.0"/>
<line x1="261.6" y1="163.9" x2="293.9" y2="187.4" stroke="rgb(0,0,0)"  stroke-width="2.0"/>
<line x1="355.5" y1="207.4" x2="382.5" y2="207.4" stroke="rgb(0,0,0)"  stroke-width="2.0"/>
<line x1="332.0" y1="239.8" x2="340.3" y2="265.5" stroke="rgb(0,0,0)"  stroke-width="2.0"/>
<line x1="261.6" y1="137.1" x2="261.6" y2="163.9" stroke="rgb(0,0,0)"  stroke-width="2.0"/>
<line x1="254.4" y1="139.1" x2="254.4" y2="157.9" stroke="rgb(0,0,0)"  stroke-width="2.0"/>
<line x1="261.6" y1="163.9" x2="235.9" y2="172.3" stroke="rgb(0,0,0)"  stroke-width="2.0"/>
<line x1="215.9" y1="165.8" x2="200.0" y2="143.9" stroke="rgb(0,0,0)"  stroke-width="2.0"/>
<line x1="200.0" y1="143.9" x2="223.5" y2="111.6" stroke="rgb(0,0,0)"  stroke-width="2.0"/>
<line x1="209.4" y1="143.3" x2="225.8" y2="120.6" stroke="rgb(0,0,0)"  stroke-width="2.0"/>
<line x1="223.5" y1="111.6" x2="249.2" y2="119.9" stroke="rgb(0,0,0)"  stroke-width="2.0"/>
<line x1="355.5" y1="207.4" x2="332.0" y2="239.8" stroke="rgb(0,0,0)"  stroke-width="2.0"/>
<line x1="346.1" y1="208.1" x2="329.7" y2="230.7" stroke="rgb(0,0,0)"  stroke-width="2.0"/>
<line x1="332.0" y1="239.8" x2="306.3" y2="231.5" stroke="rgb(0,0,0)"  stroke-width="2.0"/>
<line x1="293.9" y1="214.2" x2="293.9" y2="187.4" stroke="rgb(0,0,0)"  stroke-width="2.0"/>
<line x1="301.1" y1="212.2" x2="301.1" y2="193.4" stroke="rgb(0,0,0)"  stroke-width="2.0"/>
<line x1="293.9" y1="187.4" x2="319.6" y2="179.1" stroke="rgb(0,0,0)"  stroke-width="2.0"/>
<line x1="339.6" y1="185.6" x2="355.5" y2="207.4" stroke="rgb(0,0,0)"  stroke-width="2.0"/>
<line x1="100.0" y1="178.6" x2="80.0" y2="143.9" stroke="rgb(0,0,0)"  stroke-width="2.0"/>
<line x1="103.2" y1="169.8" x2="89.2" y2="145.5" stroke="rgb(0,0,0)"  stroke-width="2.0"/>
<line x1="80.0" y1="143.9" x2="100.0" y2="109.3" stroke="rgb(0,0,0)"  stroke-width="2.0"/>
<line x1="100.0" y1="109.3" x2="140.0" y2="109.3" stroke="rgb(0,0,0)"  stroke-width="2.0"/>
<line x1="106.0" y1="116.5" x2="134.0" y2="116.5" stroke="rgb(0,0,0)"  stroke-width="2.0"/>
<line x1="140.0" y1="109.3" x2="160.0" y2="143.9" stroke="rgb(0,0,0)"  stroke-width="2.0"/>
<line x1="160.0" y1="143.9" x2="140.0" y2="178.6" stroke="rgb(0,0,0)"  stroke-width="2.0"/>
<line x1="150.8" y1="145.5" x2="136.8" y2="169.8" stroke="rgb(0,0,0)"  stroke-width="2.0"/>
<line x1="140.0" y1="178.6" x2="100.0" y2="178.6" stroke="rgb(0,0,0)"  stroke-width="2.0"/>
<text x="287.914351" y="235.434459" fill="rgb(12,12,255)"  stroke="rgb(12,12,255)" stroke-width="1" font-size="16" >N</text>
<text x="338.317291" y="285.837399" fill="rgb(127,178,255)"  stroke="rgb(127,178,255)" stroke-width="1" font-size="16" >F</text>
<text x="389.468021" y="215.434459" fill="rgb(191,191,191)"  stroke="rgb(191,191,191)" stroke-width="1" font-size="16" >H</text>
<text x="325.956611" y="183.073779" fill="rgb(178,178,0)"  stroke="rgb(178,178,0)" stroke-width="1" font-size="16" >S</text>
<text x="217.511410" y="184.283728" fill="rgb(178,178,0)"  stroke="rgb(178,178,0)" stroke-width="1" font-size="16" >S</text>
<text x="255.553671" y="131.923048" fill="rgb(12,12,255)"  stroke="rgb(12,12,255)" stroke-width="1" font-size="16" >N</text>
<text x="205.150730" y="81.520108" fill="rgb(127,178,255)"  stroke="rgb(127,178,255)" stroke-width="1" font-size="16" >F</text>
<text x="114.000000" y="48.000000" fill="rgb(102,102,102)"  stroke="rgb(102,102,102)" stroke-width="1" font-size="16" >H</text>
<text x="126.000000" y="51.680000" fill="rgb(102,102,102)"  stroke="rgb(102,102,102)" stroke-width="1" font-size="13" >3</text>
<text x="132.500000" y="48.000000" fill="rgb(102,102,102)"  stroke="rgb(102,102,102)" stroke-width="1" font-size="16" >C</text>
<text x="154.000000" y="82.641016" fill="rgb(255,12,12)"  stroke="rgb(255,12,12)" stroke-width="1" font-size="16" >O</text>
<text x="34.000000" y="151.923048" fill="rgb(191,191,191)"  stroke="rgb(191,191,191)" stroke-width="1" font-size="16" >H</text>
<text x="14.000000" y="221.205081" fill="rgb(102,102,102)"  stroke="rgb(102,102,102)" stroke-width="1" font-size="16" >H</text>
<text x="26.000000" y="224.885081" fill="rgb(102,102,102)"  stroke="rgb(102,102,102)" stroke-width="1" font-size="13" >3</text>
<text x="32.500000" y="221.205081" fill="rgb(102,102,102)"  stroke="rgb(102,102,102)" stroke-width="1" font-size="16" >C</text>
<text x="74.000000" y="221.205081" fill="rgb(255,12,12)"  stroke="rgb(255,12,12)" stroke-width="1" font-size="16" >O</text>
</svg>
</g>
<text font-size="18.000000" fill ="black" font-family="sans-serif"
x="10.000000" y="20.000000" ></text>
</svg>
