<?xml version="1.0"?>
<svg version="1.1" id="topsvg"
xmlns="http://www.w3.org/2000/svg" xmlns:xlink="http://www.w3.org/1999/xlink"
xmlns:cml="http://www.xml-cml.org/schema" x="0" y="0" width="200px" height="200px" viewBox="0 0 100 100">
<title> - Open Babel Depiction</title>
<rect x="0" y="0" width="100" height="100" fill="white"/>
<g transform="translate(0,0)">
<svg width="100" height="100" x="0" y="0" viewBox="0 0 435.468 360.402"
font-family="sans-serif" stroke="rgb(0,0,0)" stroke-width="2"  stroke-linecap="round">
<line x1="160.0" y1="148.4" x2="200.0" y2="148.4" stroke="rgb(0,0,0)"  stroke-width="2.0"/>
<line x1="223.5" y1="116.1" x2="211.2" y2="78.0" stroke="rgb(0,0,0)"  stroke-width="2.0"/>
<line x1="211.2" y1="78.0" x2="202.8" y2="52.4" stroke="rgb(0,0,0)"  stroke-width="2.0"/>
<line x1="207.2" y1="79.3" x2="198.8" y2="53.7" stroke="rgb(0,0,0)"  stroke-width="2.0"/>
<line x1="215.1" y1="76.7" x2="206.8" y2="51.1" stroke="rgb(0,0,0)"  stroke-width="2.0"/>
<line x1="261.6" y1="128.4" x2="283.4" y2="112.6" stroke="rgb(0,0,0)"  stroke-width="2.0"/>
<line x1="261.6" y1="168.4" x2="293.9" y2="192.0" stroke="rgb(0,0,0)"  stroke-width="2.0"/>
<line x1="355.5" y1="212.0" x2="382.5" y2="212.0" stroke="rgb(0,0,0)"  stroke-width="2.0"/>
<line x1="332.0" y1="244.3" x2="344.3" y2="282.4" stroke="rgb(0,0,0)"  stroke-width="2.0"/>
<line x1="344.3" y1="282.4" x2="352.7" y2="308.0" stroke="rgb(0,0,0)"  stroke-width="2.0"/>
<line x1="348.3" y1="281.1" x2="356.7" y2="306.7" stroke="rgb(0,0,0)"  stroke-width="2.0"/>
<line x1="340.3" y1="283.7" x2="348.7" y2="309.3" stroke="rgb(0,0,0)"  stroke-width="2.0"/>
<line x1="293.9" y1="232.0" x2="272.1" y2="247.8" stroke="rgb(0,0,0)"  stroke-width="2.0"/>
<line x1="80.0" y1="148.4" x2="53.0" y2="148.4" stroke="rgb(0,0,0)"  stroke-width="2.0"/>
<line x1="100.0" y1="113.8" x2="86.5" y2="90.4" stroke="rgb(0,0,0)"  stroke-width="2.0"/>
<line x1="140.0" y1="113.8" x2="153.5" y2="90.4" stroke="rgb(0,0,0)"  stroke-width="2.0"/>
<line x1="261.6" y1="128.4" x2="261.6" y2="168.4" stroke="rgb(0,0,0)"  stroke-width="2.0"/>
<line x1="254.4" y1="134.4" x2="254.4" y2="162.4" stroke="rgb(0,0,0)"  stroke-width="2.0"/>
<line x1="261.6" y1="168.4" x2="235.9" y2="176.8" stroke="rgb(0,0,0)"  stroke-width="2.0"/>
<line x1="215.9" y1="170.3" x2="200.0" y2="148.4" stroke="rgb(0,0,0)"  stroke-width="2.0"/>
<line x1="200.0" y1="148.4" x2="223.5" y2="116.1" stroke="rgb(0,0,0)"  stroke-width="2.0"/>
<line x1="209.4" y1="147.8" x2="225.8" y2="125.2" stroke="rgb(0,0,0)"  stroke-width="2.0"/>
<line x1="223.5" y1="116.1" x2="261.6" y2="128.4" stroke="rgb(0,0,0)"  stroke-width="2.0"/>
<line x1="355.5" y1="212.0" x2="332.0" y2="244.3" stroke="rgb(0,0,0)"  stroke-width="2.0"/>
<line x1="346.1" y1="212.6" x2="329.7" y2="235.2" stroke="rgb(0,0,0)"  stroke-width="2.0"/>
<line x1="332.0" y1="244.3" x2="293.9" y2="232.0" stroke="rgb(0,0,0)"  stroke-width="2.0"/>
<line x1="293.9" y1="232.0" x2="293.9" y2="192.0" stroke="rgb(0,0,0)"  stroke-width="2.0"/>
<line x1="301.1" y1="226.0" x2="301.1" y2="198.0" stroke="rgb(0,0,0)"  stroke-width="2.0"/>
<line x1="293.9" y1="192.0" x2="319.6" y2="183.6" stroke="rgb(0,0,0)"  stroke-width="2.0"/>
<line x1="339.6" y1="190.1" x2="355.5" y2="212.0" stroke="rgb(0,0,0)"  stroke-width="2.0"/>
<line x1="141.8" y1="228.8" x2="130.5" y2="237.0" stroke="rgb(0,0,0)"  stroke-width="2.0"/>
<line x1="109.5" y1="237.0" x2="98.2" y2="228.8" stroke="rgb(0,0,0)"  stroke-width="2.0"/>
<line x1="91.7" y1="208.6" x2="100.0" y2="183.1" stroke="rgb(0,0,0)"  stroke-width="2.0"/>
<line x1="99.2" y1="208.9" x2="105.0" y2="191.0" stroke="rgb(0,0,0)"  stroke-width="2.0"/>
<line x1="100.0" y1="183.1" x2="140.0" y2="183.1" stroke="rgb(0,0,0)"  stroke-width="2.0"/>
<line x1="140.0" y1="183.1" x2="148.3" y2="208.6" stroke="rgb(0,0,0)"  stroke-width="2.0"/>
<line x1="135.0" y1="191.0" x2="140.8" y2="208.9" stroke="rgb(0,0,0)"  stroke-width="2.0"/>
<line x1="100.0" y1="183.1" x2="80.0" y2="148.4" stroke="rgb(0,0,0)"  stroke-width="2.0"/>
<line x1="80.0" y1="148.4" x2="100.0" y2="113.8" stroke="rgb(0,0,0)"  stroke-width="2.0"/>
<line x1="89.2" y1="146.8" x2="103.2" y2="122.6" stroke="rgb(0,0,0)"  stroke-width="2.0"/>
<line x1="100.0" y1="113.8" x2="140.0" y2="113.8" stroke="rgb(0,0,0)"  stroke-width="2.0"/>
<line x1="140.0" y1="113.8" x2="160.0" y2="148.4" stroke="rgb(0,0,0)"  stroke-width="2.0"/>
<line x1="136.8" y1="122.6" x2="150.8" y2="146.8" stroke="rgb(0,0,0)"  stroke-width="2.0"/>
<line x1="160.0" y1="148.4" x2="140.0" y2="183.1" stroke="rgb(0,0,0)"  stroke-width="2.0"/>
<text x="154.000000" y="87.163169" fill="rgb(255,12,12)"  stroke="rgb(255,12,12)" stroke-width="1" font-size="16" >OH</text>
<text x="62.000000" y="87.163169" fill="rgb(255,12,12)"  stroke="rgb(255,12,12)" stroke-width="1" font-size="16" >HO</text>
<text x="34.000000" y="156.445201" fill="rgb(191,191,191)"  stroke="rgb(191,191,191)" stroke-width="1" font-size="16" >H</text>
<text x="81.639320" y="229.128478" fill="rgb(12,12,255)"  stroke="rgb(12,12,255)" stroke-width="1" font-size="16" >N</text>
<text x="114.000000" y="252.639888" fill="rgb(178,178,0)"  stroke="rgb(178,178,0)" stroke-width="1" font-size="16" >S</text>
<text x="146.360680" y="229.128478" fill="rgb(12,12,255)"  stroke="rgb(12,12,255)" stroke-width="1" font-size="16" >N</text>
<text x="255.553671" y="263.468021" fill="rgb(191,191,191)"  stroke="rgb(191,191,191)" stroke-width="1" font-size="16" >H</text>
<text x="350.677971" y="328.401812" fill="rgb(12,12,255)"  stroke="rgb(12,12,255)" stroke-width="1" font-size="16" >N</text>
<text x="389.468021" y="219.956611" fill="rgb(191,191,191)"  stroke="rgb(191,191,191)" stroke-width="1" font-size="16" >H</text>
<text x="325.956611" y="187.595931" fill="rgb(178,178,0)"  stroke="rgb(178,178,0)" stroke-width="1" font-size="16" >S</text>
<text x="217.511410" y="188.805881" fill="rgb(178,178,0)"  stroke="rgb(178,178,0)" stroke-width="1" font-size="16" >S</text>
<text x="287.914351" y="112.933791" fill="rgb(191,191,191)"  stroke="rgb(191,191,191)" stroke-width="1" font-size="16" >H</text>
<text x="192.790051" y="48.000000" fill="rgb(12,12,255)"  stroke="rgb(12,12,255)" stroke-width="1" font-size="16" >N</text>
</svg>
</g>
<text font-size="18.000000" fill ="black" font-family="sans-serif"
x="10.000000" y="20.000000" ></text>
</svg>
