<?xml version="1.0"?>
<svg version="1.1" id="topsvg"
xmlns="http://www.w3.org/2000/svg" xmlns:xlink="http://www.w3.org/1999/xlink"
xmlns:cml="http://www.xml-cml.org/schema" x="0" y="0" width="200px" height="200px" viewBox="0 0 100 100">
<title> - Open Babel Depiction</title>
<rect x="0" y="0" width="100" height="100" fill="white"/>
<g transform="translate(0,0)">
<svg width="100" height="100" x="0" y="0" viewBox="0 0 485.147 250.992"
font-family="sans-serif" stroke="rgb(0,0,0)" stroke-width="2"  stroke-linecap="round">
<line x1="173.8" y1="132.9" x2="207.6" y2="152.4" stroke="rgb(0,0,0)"  stroke-width="2.0"/>
<line x1="309.0" y1="132.9" x2="309.0" y2="105.9" stroke="rgb(0,0,0)"  stroke-width="2.0"/>
<line x1="309.0" y1="132.9" x2="332.4" y2="119.4" stroke="rgb(0,0,0)"  stroke-width="2.0"/>
<line x1="410.5" y1="152.4" x2="433.9" y2="138.9" stroke="rgb(0,0,0)"  stroke-width="2.0"/>
<line x1="112.4" y1="169.4" x2="117.8" y2="194.9" stroke="rgb(0,0,0)"  stroke-width="2.0"/>
<line x1="106.5" y1="170.6" x2="112.0" y2="196.1" stroke="rgb(0,0,0)"  stroke-width="2.0"/>
<line x1="62.6" y1="160.7" x2="51.3" y2="167.2" stroke="rgb(0,0,0)"  stroke-width="2.0"/>
<line x1="77.9" y1="115.3" x2="58.5" y2="97.9" stroke="rgb(0,0,0)"  stroke-width="2.0"/>
<line x1="139.3" y1="78.8" x2="133.8" y2="53.3" stroke="rgb(0,0,0)"  stroke-width="2.0"/>
<line x1="145.1" y1="77.6" x2="139.7" y2="52.1" stroke="rgb(0,0,0)"  stroke-width="2.0"/>
<line x1="189.1" y1="87.6" x2="200.4" y2="81.0" stroke="rgb(0,0,0)"  stroke-width="2.0"/>
<line x1="109.5" y1="170.0" x2="85.7" y2="159.4" stroke="rgb(0,0,0)"  stroke-width="2.0"/>
<line x1="75.2" y1="141.2" x2="77.9" y2="115.3" stroke="rgb(0,0,0)"  stroke-width="2.0"/>
<line x1="77.9" y1="115.3" x2="116.1" y2="107.2" stroke="rgb(0,0,0)"  stroke-width="2.0"/>
<line x1="85.3" y1="121.1" x2="111.7" y2="115.5" stroke="rgb(0,0,0)"  stroke-width="2.0"/>
<line x1="116.1" y1="107.2" x2="135.6" y2="141.0" stroke="rgb(0,0,0)"  stroke-width="2.0"/>
<line x1="135.6" y1="141.0" x2="109.5" y2="170.0" stroke="rgb(0,0,0)"  stroke-width="2.0"/>
<line x1="116.1" y1="107.2" x2="142.2" y2="78.2" stroke="rgb(0,0,0)"  stroke-width="2.0"/>
<line x1="142.2" y1="78.2" x2="166.0" y2="88.8" stroke="rgb(0,0,0)"  stroke-width="2.0"/>
<line x1="176.5" y1="107.0" x2="173.8" y2="132.9" stroke="rgb(0,0,0)"  stroke-width="2.0"/>
<line x1="173.8" y1="132.9" x2="135.6" y2="141.0" stroke="rgb(0,0,0)"  stroke-width="2.0"/>
<line x1="166.4" y1="127.1" x2="140.0" y2="132.7" stroke="rgb(0,0,0)"  stroke-width="2.0"/>
<line x1="275.2" y1="152.4" x2="275.2" y2="191.5" stroke="rgb(0,0,0)"  stroke-width="2.0"/>
<line x1="268.0" y1="158.4" x2="268.0" y2="185.5" stroke="rgb(0,0,0)"  stroke-width="2.0"/>
<line x1="275.2" y1="191.5" x2="241.4" y2="211.0" stroke="rgb(0,0,0)"  stroke-width="2.0"/>
<line x1="241.4" y1="211.0" x2="207.6" y2="191.5" stroke="rgb(0,0,0)"  stroke-width="2.0"/>
<line x1="239.8" y1="201.8" x2="216.4" y2="188.2" stroke="rgb(0,0,0)"  stroke-width="2.0"/>
<line x1="207.6" y1="191.5" x2="207.6" y2="152.4" stroke="rgb(0,0,0)"  stroke-width="2.0"/>
<line x1="207.6" y1="152.4" x2="241.4" y2="132.9" stroke="rgb(0,0,0)"  stroke-width="2.0"/>
<line x1="216.4" y1="155.6" x2="239.8" y2="142.1" stroke="rgb(0,0,0)"  stroke-width="2.0"/>
<line x1="241.4" y1="132.9" x2="275.2" y2="152.4" stroke="rgb(0,0,0)"  stroke-width="2.0"/>
<line x1="376.7" y1="132.9" x2="342.9" y2="152.4" stroke="rgb(0,0,0)"  stroke-width="2.0"/>
<line x1="375.1" y1="142.1" x2="351.7" y2="155.6" stroke="rgb(0,0,0)"  stroke-width="2.0"/>
<line x1="342.9" y1="152.4" x2="342.9" y2="191.5" stroke="rgb(0,0,0)"  stroke-width="2.0"/>
<line x1="342.9" y1="191.5" x2="376.7" y2="211.0" stroke="rgb(0,0,0)"  stroke-width="2.0"/>
<line x1="351.7" y1="188.2" x2="375.1" y2="201.7" stroke="rgb(0,0,0)"  stroke-width="2.0"/>
<line x1="376.7" y1="211.0" x2="410.5" y2="191.5" stroke="rgb(0,0,0)"  stroke-width="2.0"/>
<line x1="410.5" y1="191.5" x2="410.5" y2="152.4" stroke="rgb(0,0,0)"  stroke-width="2.0"/>
<line x1="403.3" y1="185.5" x2="403.3" y2="158.4" stroke="rgb(0,0,0)"  stroke-width="2.0"/>
<line x1="410.5" y1="152.4" x2="376.7" y2="132.9" stroke="rgb(0,0,0)"  stroke-width="2.0"/>
<line x1="342.9" y1="191.5" x2="275.2" y2="191.5" stroke="rgb(0,0,0)"  stroke-width="2.0"/>
<line x1="275.2" y1="152.4" x2="309.0" y2="132.9" stroke="rgb(0,0,0)"  stroke-width="2.0"/>
<line x1="309.0" y1="132.9" x2="342.9" y2="152.4" stroke="rgb(0,0,0)"  stroke-width="2.0"/>
<text x="207.668099" y="82.539337" fill="rgb(102,102,102)"  stroke="rgb(102,102,102)" stroke-width="1" font-size="16" >CH</text>
<text x="231.668099" y="86.219337" fill="rgb(102,102,102)"  stroke="rgb(102,102,102)" stroke-width="1" font-size="13" >3</text>
<text x="171.859749" y="102.062689" fill="rgb(12,12,255)"  stroke="rgb(12,12,255)" stroke-width="1" font-size="16" >N</text>
<text x="128.072520" y="48.000000" fill="rgb(255,12,12)"  stroke="rgb(255,12,12)" stroke-width="1" font-size="16" >O</text>
<text x="42.870509" y="97.201718" fill="rgb(191,191,191)"  stroke="rgb(191,191,191)" stroke-width="1" font-size="16" >H</text>
<text x="14.000000" y="181.672741" fill="rgb(102,102,102)"  stroke="rgb(102,102,102)" stroke-width="1" font-size="16" >H</text>
<text x="26.000000" y="185.352741" fill="rgb(102,102,102)"  stroke="rgb(102,102,102)" stroke-width="1" font-size="13" >3</text>
<text x="32.500000" y="181.672741" fill="rgb(102,102,102)"  stroke="rgb(102,102,102)" stroke-width="1" font-size="16" >C</text>
<text x="67.808349" y="162.149389" fill="rgb(12,12,255)"  stroke="rgb(12,12,255)" stroke-width="1" font-size="16" >N</text>
<text x="111.595579" y="216.212078" fill="rgb(255,12,12)"  stroke="rgb(255,12,12)" stroke-width="1" font-size="16" >O</text>
<text x="439.147434" y="140.390495" fill="rgb(191,191,191)"  stroke="rgb(191,191,191)" stroke-width="1" font-size="16" >H</text>
<text x="339.678845" y="120.874308" fill="rgb(102,102,102)"  stroke="rgb(102,102,102)" stroke-width="1" font-size="16" >CH</text>
<text x="363.678845" y="124.554308" fill="rgb(102,102,102)"  stroke="rgb(102,102,102)" stroke-width="1" font-size="13" >3</text>
<text x="305.032633" y="100.878502" fill="rgb(102,102,102)"  stroke="rgb(102,102,102)" stroke-width="1" font-size="16" >CH</text>
<text x="329.032633" y="104.558502" fill="rgb(102,102,102)"  stroke="rgb(102,102,102)" stroke-width="1" font-size="13" >3</text>
</svg>
</g>
<text font-size="18.000000" fill ="black" font-family="sans-serif"
x="10.000000" y="20.000000" ></text>
</svg>
