<?xml version="1.0"?>
<svg version="1.1" id="topsvg"
xmlns="http://www.w3.org/2000/svg" xmlns:xlink="http://www.w3.org/1999/xlink"
xmlns:cml="http://www.xml-cml.org/schema" x="0" y="0" width="200px" height="200px" viewBox="0 0 100 100">
<title> - Open Babel Depiction</title>
<rect x="0" y="0" width="100" height="100" fill="white"/>
<g transform="translate(0,0)">
<svg width="100" height="100" x="0" y="0" viewBox="0 0 431.781 397.904"
font-family="sans-serif" stroke="rgb(0,0,0)" stroke-width="2"  stroke-linecap="round">
<line x1="173.5" y1="135.5" x2="155.0" y2="167.6" stroke="rgb(0,0,0)"  stroke-width="2.0"/>
<line x1="82.9" y1="232.5" x2="60.1" y2="239.9" stroke="rgb(0,0,0)"  stroke-width="2.0"/>
<line x1="45.0" y1="256.6" x2="42.7" y2="267.4" stroke="rgb(0,0,0)"  stroke-width="2.0"/>
<line x1="82.9" y1="232.5" x2="226.9" y2="177.9" stroke="rgb(0,0,0)"  stroke-width="2.0"/>
<line x1="226.1" y1="173.3" x2="215.1" y2="173.3" stroke="rgb(0,0,0)"  stroke-width="2.0"/>
<line x1="122.4" y1="321.1" x2="124.9" y2="345.0" stroke="rgb(0,0,0)"  stroke-width="2.0"/>
<line x1="240.8" y1="157.0" x2="235.8" y2="180.5" stroke="rgb(0,0,0)"  stroke-width="2.0"/>
<line x1="235.0" y1="155.8" x2="230.0" y2="179.3" stroke="rgb(0,0,0)"  stroke-width="2.0"/>
<line x1="305.2" y1="163.5" x2="309.1" y2="200.3" stroke="rgb(0,0,0)"  stroke-width="2.0"/>
<line x1="310.3" y1="197.6" x2="332.3" y2="207.4" stroke="rgb(0,0,0)"  stroke-width="2.0"/>
<line x1="307.9" y1="203.1" x2="329.8" y2="212.8" stroke="rgb(0,0,0)"  stroke-width="2.0"/>
<line x1="309.1" y1="200.3" x2="289.6" y2="214.4" stroke="rgb(0,0,0)"  stroke-width="2.0"/>
<line x1="267.3" y1="216.8" x2="257.2" y2="212.3" stroke="rgb(0,0,0)"  stroke-width="2.0"/>
<line x1="317.7" y1="104.8" x2="336.2" y2="72.8" stroke="rgb(0,0,0)"  stroke-width="2.0"/>
<line x1="333.6" y1="74.3" x2="321.6" y2="53.4" stroke="rgb(0,0,0)"  stroke-width="2.0"/>
<line x1="338.8" y1="71.3" x2="326.8" y2="50.4" stroke="rgb(0,0,0)"  stroke-width="2.0"/>
<line x1="336.2" y1="72.8" x2="360.3" y2="72.8" stroke="rgb(0,0,0)"  stroke-width="2.0"/>
<line x1="379.8" y1="61.5" x2="385.3" y2="51.9" stroke="rgb(0,0,0)"  stroke-width="2.0"/>
<line x1="250.4" y1="83.3" x2="255.4" y2="59.8" stroke="rgb(0,0,0)"  stroke-width="2.0"/>
<line x1="256.2" y1="84.5" x2="261.2" y2="61.0" stroke="rgb(0,0,0)"  stroke-width="2.0"/>
<line x1="186.0" y1="76.8" x2="183.5" y2="52.9" stroke="rgb(0,0,0)"  stroke-width="2.0"/>
<line x1="110.5" y1="207.7" x2="142.5" y2="226.2" stroke="rgb(0,0,0)"  stroke-width="2.0"/>
<line x1="119.3" y1="204.4" x2="141.0" y2="217.0" stroke="rgb(0,0,0)"  stroke-width="2.0"/>
<line x1="142.5" y1="226.2" x2="160.4" y2="210.1" stroke="rgb(0,0,0)"  stroke-width="2.0"/>
<line x1="164.8" y1="189.5" x2="155.0" y2="167.6" stroke="rgb(0,0,0)"  stroke-width="2.0"/>
<line x1="155.0" y1="167.6" x2="118.2" y2="171.4" stroke="rgb(0,0,0)"  stroke-width="2.0"/>
<line x1="149.8" y1="175.3" x2="124.9" y2="178.0" stroke="rgb(0,0,0)"  stroke-width="2.0"/>
<line x1="118.2" y1="171.4" x2="110.5" y2="207.7" stroke="rgb(0,0,0)"  stroke-width="2.0"/>
<line x1="122.4" y1="321.1" x2="140.3" y2="305.0" stroke="rgb(0,0,0)"  stroke-width="2.0"/>
<line x1="144.6" y1="284.4" x2="134.8" y2="262.4" stroke="rgb(0,0,0)"  stroke-width="2.0"/>
<line x1="134.8" y1="262.4" x2="98.0" y2="266.3" stroke="rgb(0,0,0)"  stroke-width="2.0"/>
<line x1="129.6" y1="270.2" x2="104.7" y2="272.8" stroke="rgb(0,0,0)"  stroke-width="2.0"/>
<line x1="98.0" y1="266.3" x2="90.3" y2="302.5" stroke="rgb(0,0,0)"  stroke-width="2.0"/>
<line x1="90.3" y1="302.5" x2="122.4" y2="321.1" stroke="rgb(0,0,0)"  stroke-width="2.0"/>
<line x1="99.1" y1="299.3" x2="120.8" y2="311.8" stroke="rgb(0,0,0)"  stroke-width="2.0"/>
<line x1="327.5" y1="126.8" x2="317.7" y2="104.8" stroke="rgb(0,0,0)"  stroke-width="2.0"/>
<line x1="317.7" y1="104.8" x2="280.8" y2="108.7" stroke="rgb(0,0,0)"  stroke-width="2.0"/>
<line x1="312.5" y1="112.6" x2="287.6" y2="115.2" stroke="rgb(0,0,0)"  stroke-width="2.0"/>
<line x1="280.8" y1="108.7" x2="273.1" y2="144.9" stroke="rgb(0,0,0)"  stroke-width="2.0"/>
<line x1="273.1" y1="144.9" x2="305.2" y2="163.5" stroke="rgb(0,0,0)"  stroke-width="2.0"/>
<line x1="281.9" y1="141.7" x2="303.6" y2="154.2" stroke="rgb(0,0,0)"  stroke-width="2.0"/>
<line x1="305.2" y1="163.5" x2="323.1" y2="147.4" stroke="rgb(0,0,0)"  stroke-width="2.0"/>
<line x1="218.1" y1="95.4" x2="186.0" y2="76.8" stroke="rgb(0,0,0)"  stroke-width="2.0"/>
<line x1="209.3" y1="98.6" x2="187.6" y2="86.1" stroke="rgb(0,0,0)"  stroke-width="2.0"/>
<line x1="186.0" y1="76.8" x2="168.1" y2="92.9" stroke="rgb(0,0,0)"  stroke-width="2.0"/>
<line x1="163.8" y1="113.5" x2="173.5" y2="135.5" stroke="rgb(0,0,0)"  stroke-width="2.0"/>
<line x1="173.5" y1="135.5" x2="210.4" y2="131.6" stroke="rgb(0,0,0)"  stroke-width="2.0"/>
<line x1="178.7" y1="127.7" x2="203.7" y2="125.1" stroke="rgb(0,0,0)"  stroke-width="2.0"/>
<line x1="210.4" y1="131.6" x2="218.1" y2="95.4" stroke="rgb(0,0,0)"  stroke-width="2.0"/>
<line x1="134.8" y1="262.4" x2="142.5" y2="226.2" stroke="rgb(0,0,0)"  stroke-width="2.0"/>
<line x1="110.5" y1="207.7" x2="82.9" y2="232.5" stroke="rgb(0,0,0)"  stroke-width="2.0"/>
<line x1="82.9" y1="232.5" x2="98.0" y2="266.3" stroke="rgb(0,0,0)"  stroke-width="2.0"/>
<line x1="237.9" y1="156.4" x2="273.1" y2="144.9" stroke="rgb(0,0,0)"  stroke-width="2.0"/>
<line x1="280.8" y1="108.7" x2="253.3" y2="83.9" stroke="rgb(0,0,0)"  stroke-width="2.0"/>
<line x1="253.3" y1="83.9" x2="218.1" y2="95.4" stroke="rgb(0,0,0)"  stroke-width="2.0"/>
<line x1="210.4" y1="131.6" x2="237.9" y2="156.4" stroke="rgb(0,0,0)"  stroke-width="2.0"/>
<text x="311.688625" y="48.668918" fill="rgb(255,12,12)"  stroke="rgb(255,12,12)" stroke-width="1" font-size="16" >O</text>
<text x="336.941868" y="223.379072" fill="rgb(255,12,12)"  stroke="rgb(255,12,12)" stroke-width="1" font-size="16" >O</text>
<text x="273.127177" y="230.086267" fill="rgb(255,12,12)"  stroke="rgb(255,12,12)" stroke-width="1" font-size="16" >O</text>
<text x="219.283632" y="215.018149" fill="rgb(102,102,102)"  stroke="rgb(102,102,102)" stroke-width="1" font-size="16" >H</text>
<text x="231.283632" y="218.698149" fill="rgb(102,102,102)"  stroke="rgb(102,102,102)" stroke-width="1" font-size="13" >3</text>
<text x="237.783632" y="215.018149" fill="rgb(102,102,102)"  stroke="rgb(102,102,102)" stroke-width="1" font-size="16" >C</text>
<text x="326.756743" y="146.678664" fill="rgb(178,178,0)"  stroke="rgb(178,178,0)" stroke-width="1" font-size="16" >S</text>
<text x="224.207254" y="200.629119" fill="rgb(255,12,12)"  stroke="rgb(255,12,12)" stroke-width="1" font-size="16" >O</text>
<text x="367.258185" y="80.752018" fill="rgb(255,12,12)"  stroke="rgb(255,12,12)" stroke-width="1" font-size="16" >O</text>
<text x="387.781371" y="48.668918" fill="rgb(102,102,102)"  stroke="rgb(102,102,102)" stroke-width="1" font-size="16" >CH</text>
<text x="411.781371" y="52.348918" fill="rgb(102,102,102)"  stroke="rgb(102,102,102)" stroke-width="1" font-size="13" >3</text>
<text x="255.016750" y="55.681836" fill="rgb(255,12,12)"  stroke="rgb(255,12,12)" stroke-width="1" font-size="16" >O</text>
<text x="176.125681" y="48.000000" fill="rgb(191,191,191)"  stroke="rgb(191,191,191)" stroke-width="1" font-size="16" >H</text>
<text x="152.467261" y="109.632291" fill="rgb(178,178,0)"  stroke="rgb(178,178,0)" stroke-width="1" font-size="16" >S</text>
<text x="14.000000" y="288.141800" fill="rgb(102,102,102)"  stroke="rgb(102,102,102)" stroke-width="1" font-size="16" >H</text>
<text x="26.000000" y="291.821800" fill="rgb(102,102,102)"  stroke="rgb(102,102,102)" stroke-width="1" font-size="13" >3</text>
<text x="32.500000" y="288.141800" fill="rgb(102,102,102)"  stroke="rgb(102,102,102)" stroke-width="1" font-size="16" >C</text>
<text x="164.080309" y="209.402483" fill="rgb(178,178,0)"  stroke="rgb(178,178,0)" stroke-width="1" font-size="16" >S</text>
<text x="41.702374" y="251.904979" fill="rgb(255,12,12)"  stroke="rgb(255,12,12)" stroke-width="1" font-size="16" >O</text>
<text x="233.104954" y="181.278352" fill="rgb(255,12,12)"  stroke="rgb(255,12,12)" stroke-width="1" font-size="16" >O</text>
<text x="176.058581" y="181.278352" fill="rgb(102,102,102)"  stroke="rgb(102,102,102)" stroke-width="1" font-size="16" >H</text>
<text x="188.058581" y="184.958352" fill="rgb(102,102,102)"  stroke="rgb(102,102,102)" stroke-width="1" font-size="13" >3</text>
<text x="194.558581" y="181.278352" fill="rgb(102,102,102)"  stroke="rgb(102,102,102)" stroke-width="1" font-size="16" >C</text>
<text x="120.256812" y="365.904002" fill="rgb(191,191,191)"  stroke="rgb(191,191,191)" stroke-width="1" font-size="16" >H</text>
<text x="143.915232" y="304.271711" fill="rgb(178,178,0)"  stroke="rgb(178,178,0)" stroke-width="1" font-size="16" >S</text>
</svg>
</g>
<text font-size="18.000000" fill ="black" font-family="sans-serif"
x="10.000000" y="20.000000" ></text>
</svg>
