<?xml version="1.0"?>
<svg version="1.1" id="topsvg"
xmlns="http://www.w3.org/2000/svg" xmlns:xlink="http://www.w3.org/1999/xlink"
xmlns:cml="http://www.xml-cml.org/schema" x="0" y="0" width="200px" height="200px" viewBox="0 0 100 100">
<title> - Open Babel Depiction</title>
<rect x="0" y="0" width="100" height="100" fill="white"/>
<g transform="translate(0,0)">
<svg width="100" height="100" x="0" y="0" viewBox="0 0 435.468 284.317"
font-family="sans-serif" stroke="rgb(0,0,0)" stroke-width="2"  stroke-linecap="round">
<line x1="235.5" y1="173.9" x2="275.5" y2="173.9" stroke="rgb(0,0,0)"  stroke-width="2.0"/>
<line x1="335.5" y1="139.3" x2="349.0" y2="115.9" stroke="rgb(0,0,0)"  stroke-width="2.0"/>
<line x1="355.5" y1="173.9" x2="382.5" y2="173.9" stroke="rgb(0,0,0)"  stroke-width="2.0"/>
<line x1="295.5" y1="208.6" x2="282.0" y2="231.9" stroke="rgb(0,0,0)"  stroke-width="2.0"/>
<line x1="212.0" y1="206.3" x2="220.3" y2="232.0" stroke="rgb(0,0,0)"  stroke-width="2.0"/>
<line x1="173.9" y1="153.9" x2="141.6" y2="130.4" stroke="rgb(0,0,0)"  stroke-width="2.0"/>
<line x1="80.0" y1="110.4" x2="53.0" y2="110.4" stroke="rgb(0,0,0)"  stroke-width="2.0"/>
<line x1="103.5" y1="78.0" x2="95.2" y2="52.4" stroke="rgb(0,0,0)"  stroke-width="2.0"/>
<line x1="173.9" y1="180.7" x2="173.9" y2="153.9" stroke="rgb(0,0,0)"  stroke-width="2.0"/>
<line x1="181.1" y1="178.7" x2="181.1" y2="159.9" stroke="rgb(0,0,0)"  stroke-width="2.0"/>
<line x1="173.9" y1="153.9" x2="199.6" y2="145.6" stroke="rgb(0,0,0)"  stroke-width="2.0"/>
<line x1="219.6" y1="152.1" x2="235.5" y2="173.9" stroke="rgb(0,0,0)"  stroke-width="2.0"/>
<line x1="235.5" y1="173.9" x2="212.0" y2="206.3" stroke="rgb(0,0,0)"  stroke-width="2.0"/>
<line x1="226.1" y1="174.5" x2="209.7" y2="197.2" stroke="rgb(0,0,0)"  stroke-width="2.0"/>
<line x1="212.0" y1="206.3" x2="186.3" y2="197.9" stroke="rgb(0,0,0)"  stroke-width="2.0"/>
<line x1="80.0" y1="110.4" x2="103.5" y2="78.0" stroke="rgb(0,0,0)"  stroke-width="2.0"/>
<line x1="89.4" y1="109.8" x2="105.8" y2="87.1" stroke="rgb(0,0,0)"  stroke-width="2.0"/>
<line x1="103.5" y1="78.0" x2="129.2" y2="86.4" stroke="rgb(0,0,0)"  stroke-width="2.0"/>
<line x1="141.6" y1="103.6" x2="141.6" y2="130.4" stroke="rgb(0,0,0)"  stroke-width="2.0"/>
<line x1="134.4" y1="105.6" x2="134.4" y2="124.4" stroke="rgb(0,0,0)"  stroke-width="2.0"/>
<line x1="141.6" y1="130.4" x2="115.9" y2="138.7" stroke="rgb(0,0,0)"  stroke-width="2.0"/>
<line x1="95.9" y1="132.2" x2="80.0" y2="110.4" stroke="rgb(0,0,0)"  stroke-width="2.0"/>
<line x1="335.5" y1="139.3" x2="355.5" y2="173.9" stroke="rgb(0,0,0)"  stroke-width="2.0"/>
<line x1="332.2" y1="148.1" x2="346.2" y2="172.3" stroke="rgb(0,0,0)"  stroke-width="2.0"/>
<line x1="355.5" y1="173.9" x2="335.5" y2="208.6" stroke="rgb(0,0,0)"  stroke-width="2.0"/>
<line x1="335.5" y1="208.6" x2="295.5" y2="208.6" stroke="rgb(0,0,0)"  stroke-width="2.0"/>
<line x1="329.5" y1="201.4" x2="301.5" y2="201.4" stroke="rgb(0,0,0)"  stroke-width="2.0"/>
<line x1="295.5" y1="208.6" x2="275.5" y2="173.9" stroke="rgb(0,0,0)"  stroke-width="2.0"/>
<line x1="275.5" y1="173.9" x2="295.5" y2="139.3" stroke="rgb(0,0,0)"  stroke-width="2.0"/>
<line x1="284.7" y1="172.3" x2="298.7" y2="148.1" stroke="rgb(0,0,0)"  stroke-width="2.0"/>
<line x1="295.5" y1="139.3" x2="335.5" y2="139.3" stroke="rgb(0,0,0)"  stroke-width="2.0"/>
<text x="218.317291" y="252.317291" fill="rgb(127,178,255)"  stroke="rgb(127,178,255)" stroke-width="1" font-size="16" >F</text>
<text x="135.553671" y="98.402940" fill="rgb(12,12,255)"  stroke="rgb(12,12,255)" stroke-width="1" font-size="16" >N</text>
<text x="85.150730" y="48.000000" fill="rgb(127,178,255)"  stroke="rgb(127,178,255)" stroke-width="1" font-size="16" >F</text>
<text x="34.000000" y="118.402940" fill="rgb(191,191,191)"  stroke="rgb(191,191,191)" stroke-width="1" font-size="16" >H</text>
<text x="97.511410" y="150.763620" fill="rgb(178,178,0)"  stroke="rgb(178,178,0)" stroke-width="1" font-size="16" >S</text>
<text x="205.956611" y="149.553671" fill="rgb(178,178,0)"  stroke="rgb(178,178,0)" stroke-width="1" font-size="16" >S</text>
<text x="167.914351" y="201.914351" fill="rgb(12,12,255)"  stroke="rgb(12,12,255)" stroke-width="1" font-size="16" >N</text>
<text x="269.468021" y="251.196383" fill="rgb(191,191,191)"  stroke="rgb(191,191,191)" stroke-width="1" font-size="16" >H</text>
<text x="389.468021" y="181.914351" fill="rgb(191,191,191)"  stroke="rgb(191,191,191)" stroke-width="1" font-size="16" >H</text>
<text x="349.468021" y="112.632318" fill="rgb(191,191,191)"  stroke="rgb(191,191,191)" stroke-width="1" font-size="16" >H</text>
</svg>
</g>
<text font-size="18.000000" fill ="black" font-family="sans-serif"
x="10.000000" y="20.000000" ></text>
</svg>
