<?xml version="1.0"?>
<svg version="1.1" id="topsvg"
xmlns="http://www.w3.org/2000/svg" xmlns:xlink="http://www.w3.org/1999/xlink"
xmlns:cml="http://www.xml-cml.org/schema" x="0" y="0" width="200px" height="200px" viewBox="0 0 100 100">
<title> - Open Babel Depiction</title>
<rect x="0" y="0" width="100" height="100" fill="white"/>
<g transform="translate(0,0)">
<svg width="100" height="100" x="0" y="0" viewBox="0 0 489.859 389.432"
font-family="sans-serif" stroke="rgb(0,0,0)" stroke-width="2"  stroke-linecap="round">
<line x1="214.1" y1="181.7" x2="248.9" y2="162.2" stroke="rgb(0,0,0)"  stroke-width="2.0"/>
<line x1="306.2" y1="64.0" x2="299.4" y2="51.9" stroke="rgb(0,0,0)"  stroke-width="2.0"/>
<line x1="280.1" y1="40.4" x2="266.2" y2="40.2" stroke="rgb(0,0,0)"  stroke-width="2.0"/>
<line x1="419.9" y1="66.6" x2="440.1" y2="48.9" stroke="rgb(0,0,0)"  stroke-width="2.0"/>
<line x1="179.8" y1="279.2" x2="203.0" y2="293.1" stroke="rgb(0,0,0)"  stroke-width="2.0"/>
<line x1="176.8" y1="284.4" x2="199.9" y2="298.2" stroke="rgb(0,0,0)"  stroke-width="2.0"/>
<line x1="143.4" y1="314.1" x2="143.3" y2="327.8" stroke="rgb(0,0,0)"  stroke-width="2.0"/>
<line x1="155.9" y1="343.6" x2="169.3" y2="346.6" stroke="rgb(0,0,0)"  stroke-width="2.0"/>
<line x1="110.0" y1="283.5" x2="86.5" y2="296.8" stroke="rgb(0,0,0)"  stroke-width="2.0"/>
<line x1="107.1" y1="278.3" x2="83.6" y2="291.5" stroke="rgb(0,0,0)"  stroke-width="2.0"/>
<line x1="74.8" y1="219.8" x2="51.3" y2="233.1" stroke="rgb(0,0,0)"  stroke-width="2.0"/>
<line x1="109.1" y1="122.8" x2="85.9" y2="109.1" stroke="rgb(0,0,0)"  stroke-width="2.0"/>
<line x1="112.2" y1="117.7" x2="88.9" y2="103.9" stroke="rgb(0,0,0)"  stroke-width="2.0"/>
<line x1="145.8" y1="87.5" x2="146.0" y2="73.3" stroke="rgb(0,0,0)"  stroke-width="2.0"/>
<line x1="133.1" y1="59.6" x2="119.0" y2="58.9" stroke="rgb(0,0,0)"  stroke-width="2.0"/>
<line x1="178.9" y1="118.5" x2="202.5" y2="105.3" stroke="rgb(0,0,0)"  stroke-width="2.0"/>
<line x1="181.9" y1="123.8" x2="205.4" y2="110.6" stroke="rgb(0,0,0)"  stroke-width="2.0"/>
<line x1="352.1" y1="80.0" x2="359.9" y2="119.1" stroke="rgb(0,0,0)"  stroke-width="2.0"/>
<line x1="359.9" y1="119.1" x2="325.1" y2="138.6" stroke="rgb(0,0,0)"  stroke-width="2.0"/>
<line x1="325.1" y1="138.6" x2="295.8" y2="111.5" stroke="rgb(0,0,0)"  stroke-width="2.0"/>
<line x1="325.6" y1="129.3" x2="305.1" y2="110.3" stroke="rgb(0,0,0)"  stroke-width="2.0"/>
<line x1="295.8" y1="111.5" x2="307.1" y2="87.1" stroke="rgb(0,0,0)"  stroke-width="2.0"/>
<line x1="325.4" y1="76.9" x2="352.1" y2="80.0" stroke="rgb(0,0,0)"  stroke-width="2.0"/>
<line x1="325.1" y1="138.6" x2="316.3" y2="177.5" stroke="rgb(0,0,0)"  stroke-width="2.0"/>
<line x1="316.3" y1="177.5" x2="278.2" y2="189.3" stroke="rgb(0,0,0)"  stroke-width="2.0"/>
<line x1="308.4" y1="172.4" x2="281.8" y2="180.7" stroke="rgb(0,0,0)"  stroke-width="2.0"/>
<line x1="278.2" y1="189.3" x2="248.9" y2="162.2" stroke="rgb(0,0,0)"  stroke-width="2.0"/>
<line x1="248.9" y1="162.2" x2="257.7" y2="123.4" stroke="rgb(0,0,0)"  stroke-width="2.0"/>
<line x1="257.3" y1="158.0" x2="263.4" y2="130.8" stroke="rgb(0,0,0)"  stroke-width="2.0"/>
<line x1="257.7" y1="123.4" x2="295.8" y2="111.5" stroke="rgb(0,0,0)"  stroke-width="2.0"/>
<line x1="382.1" y1="53.7" x2="352.1" y2="80.0" stroke="rgb(0,0,0)"  stroke-width="2.0"/>
<line x1="382.3" y1="63.1" x2="361.4" y2="81.5" stroke="rgb(0,0,0)"  stroke-width="2.0"/>
<line x1="359.9" y1="119.1" x2="397.7" y2="132.0" stroke="rgb(0,0,0)"  stroke-width="2.0"/>
<line x1="367.9" y1="114.3" x2="394.3" y2="123.2" stroke="rgb(0,0,0)"  stroke-width="2.0"/>
<line x1="397.7" y1="132.0" x2="427.6" y2="105.7" stroke="rgb(0,0,0)"  stroke-width="2.0"/>
<line x1="427.6" y1="105.7" x2="419.9" y2="66.6" stroke="rgb(0,0,0)"  stroke-width="2.0"/>
<line x1="419.4" y1="101.2" x2="414.0" y2="73.9" stroke="rgb(0,0,0)"  stroke-width="2.0"/>
<line x1="419.9" y1="66.6" x2="382.1" y2="53.7" stroke="rgb(0,0,0)"  stroke-width="2.0"/>
<line x1="178.8" y1="241.6" x2="144.1" y2="220.7" stroke="rgb(0,0,0)"  stroke-width="2.0"/>
<line x1="177.4" y1="232.4" x2="152.9" y2="217.7" stroke="rgb(0,0,0)"  stroke-width="2.0"/>
<line x1="144.1" y1="220.7" x2="144.6" y2="180.8" stroke="rgb(0,0,0)"  stroke-width="2.0"/>
<line x1="144.6" y1="180.8" x2="179.9" y2="161.3" stroke="rgb(0,0,0)"  stroke-width="2.0"/>
<line x1="153.3" y1="184.2" x2="178.1" y2="170.5" stroke="rgb(0,0,0)"  stroke-width="2.0"/>
<line x1="179.9" y1="161.3" x2="214.1" y2="181.7" stroke="rgb(0,0,0)"  stroke-width="2.0"/>
<line x1="214.1" y1="181.7" x2="213.6" y2="221.7" stroke="rgb(0,0,0)"  stroke-width="2.0"/>
<line x1="206.8" y1="187.6" x2="206.5" y2="215.6" stroke="rgb(0,0,0)"  stroke-width="2.0"/>
<line x1="213.6" y1="221.7" x2="178.8" y2="241.6" stroke="rgb(0,0,0)"  stroke-width="2.0"/>
<line x1="108.5" y1="280.9" x2="109.1" y2="240.7" stroke="rgb(0,0,0)"  stroke-width="2.0"/>
<line x1="109.1" y1="240.7" x2="144.1" y2="220.7" stroke="rgb(0,0,0)"  stroke-width="2.0"/>
<line x1="178.8" y1="241.6" x2="178.3" y2="281.8" stroke="rgb(0,0,0)"  stroke-width="2.0"/>
<line x1="178.3" y1="281.8" x2="154.9" y2="294.8" stroke="rgb(0,0,0)"  stroke-width="2.0"/>
<line x1="132.3" y1="294.6" x2="108.5" y2="280.9" stroke="rgb(0,0,0)"  stroke-width="2.0"/>
<line x1="75.3" y1="179.9" x2="110.1" y2="160.4" stroke="rgb(0,0,0)"  stroke-width="2.0"/>
<line x1="84.1" y1="183.2" x2="108.4" y2="169.6" stroke="rgb(0,0,0)"  stroke-width="2.0"/>
<line x1="110.1" y1="160.4" x2="144.6" y2="180.8" stroke="rgb(0,0,0)"  stroke-width="2.0"/>
<line x1="109.1" y1="240.7" x2="74.8" y2="219.8" stroke="rgb(0,0,0)"  stroke-width="2.0"/>
<line x1="107.7" y1="231.4" x2="83.7" y2="216.8" stroke="rgb(0,0,0)"  stroke-width="2.0"/>
<line x1="74.8" y1="219.8" x2="75.3" y2="179.9" stroke="rgb(0,0,0)"  stroke-width="2.0"/>
<line x1="156.8" y1="107.1" x2="180.4" y2="121.2" stroke="rgb(0,0,0)"  stroke-width="2.0"/>
<line x1="180.4" y1="121.2" x2="179.9" y2="161.3" stroke="rgb(0,0,0)"  stroke-width="2.0"/>
<line x1="110.1" y1="160.4" x2="110.6" y2="120.2" stroke="rgb(0,0,0)"  stroke-width="2.0"/>
<line x1="110.6" y1="120.2" x2="134.3" y2="106.9" stroke="rgb(0,0,0)"  stroke-width="2.0"/>
<text x="137.514748" y="309.062692" fill="rgb(12,12,255)"  stroke="rgb(12,12,255)" stroke-width="1" font-size="16" >N</text>
<text x="137.171205" y="348.827875" fill="rgb(255,12,12)"  stroke="rgb(255,12,12)" stroke-width="1" font-size="16" >O</text>
<text x="177.995996" y="357.431558" fill="rgb(102,102,102)"  stroke="rgb(102,102,102)" stroke-width="1" font-size="16" >CH</text>
<text x="201.995996" y="361.111558" fill="rgb(102,102,102)"  stroke="rgb(102,102,102)" stroke-width="1" font-size="13" >3</text>
<text x="67.727146" y="308.560500" fill="rgb(255,12,12)"  stroke="rgb(255,12,12)" stroke-width="1" font-size="16" >O</text>
<text x="34.000000" y="247.534952" fill="rgb(191,191,191)"  stroke="rgb(191,191,191)" stroke-width="1" font-size="16" >H</text>
<text x="206.627418" y="310.301860" fill="rgb(255,12,12)"  stroke="rgb(255,12,12)" stroke-width="1" font-size="16" >O</text>
<text x="70.234911" y="107.844779" fill="rgb(255,12,12)"  stroke="rgb(255,12,12)" stroke-width="1" font-size="16" >O</text>
<text x="139.655951" y="108.499779" fill="rgb(12,12,255)"  stroke="rgb(12,12,255)" stroke-width="1" font-size="16" >N</text>
<text x="140.121504" y="68.296856" fill="rgb(255,12,12)"  stroke="rgb(255,12,12)" stroke-width="1" font-size="16" >O</text>
<text x="79.971108" y="66.190326" fill="rgb(102,102,102)"  stroke="rgb(102,102,102)" stroke-width="1" font-size="16" >H</text>
<text x="91.971108" y="69.870326" fill="rgb(102,102,102)"  stroke="rgb(102,102,102)" stroke-width="1" font-size="13" >3</text>
<text x="98.471108" y="66.190326" fill="rgb(102,102,102)"  stroke="rgb(102,102,102)" stroke-width="1" font-size="16" >C</text>
<text x="209.290022" y="109.606621" fill="rgb(255,12,12)"  stroke="rgb(255,12,12)" stroke-width="1" font-size="16" >O</text>
<text x="443.859146" y="48.290450" fill="rgb(191,191,191)"  stroke="rgb(191,191,191)" stroke-width="1" font-size="16" >H</text>
<text x="306.526753" y="83.331189" fill="rgb(12,12,255)"  stroke="rgb(12,12,255)" stroke-width="1" font-size="16" >N</text>
<text x="287.052142" y="48.533391" fill="rgb(255,12,12)"  stroke="rgb(255,12,12)" stroke-width="1" font-size="16" >O</text>
<text x="227.179060" y="48.000000" fill="rgb(102,102,102)"  stroke="rgb(102,102,102)" stroke-width="1" font-size="16" >H</text>
<text x="239.179060" y="51.680000" fill="rgb(102,102,102)"  stroke="rgb(102,102,102)" stroke-width="1" font-size="13" >3</text>
<text x="245.679060" y="48.000000" fill="rgb(102,102,102)"  stroke="rgb(102,102,102)" stroke-width="1" font-size="16" >C</text>
</svg>
</g>
<text font-size="18.000000" fill ="black" font-family="sans-serif"
x="10.000000" y="20.000000" ></text>
</svg>
