<?xml version="1.0"?>
<svg version="1.1" id="topsvg"
xmlns="http://www.w3.org/2000/svg" xmlns:xlink="http://www.w3.org/1999/xlink"
xmlns:cml="http://www.xml-cml.org/schema" x="0" y="0" width="200px" height="200px" viewBox="0 0 100 100">
<title> - Open Babel Depiction</title>
<rect x="0" y="0" width="100" height="100" fill="white"/>
<g transform="translate(0,0)">
<svg width="100" height="100" x="0" y="0" viewBox="0 0 543.765 302.958"
font-family="sans-serif" stroke="rgb(0,0,0)" stroke-width="2"  stroke-linecap="round">
<line x1="225.6" y1="130.3" x2="265.2" y2="121.9" stroke="rgb(0,0,0)"  stroke-width="2.0"/>
<line x1="364.7" y1="167.4" x2="384.9" y2="202.4" stroke="rgb(0,0,0)"  stroke-width="2.0"/>
<line x1="384.9" y1="199.4" x2="412.4" y2="199.4" stroke="rgb(0,0,0)"  stroke-width="2.0"/>
<line x1="384.9" y1="205.4" x2="412.4" y2="205.4" stroke="rgb(0,0,0)"  stroke-width="2.0"/>
<line x1="384.9" y1="202.4" x2="371.2" y2="226.3" stroke="rgb(0,0,0)"  stroke-width="2.0"/>
<line x1="351.7" y1="237.5" x2="337.2" y2="237.5" stroke="rgb(0,0,0)"  stroke-width="2.0"/>
<line x1="364.7" y1="167.4" x2="344.4" y2="202.4" stroke="rgb(0,0,0)"  stroke-width="2.0"/>
<line x1="347.0" y1="200.9" x2="360.8" y2="224.8" stroke="rgb(0,0,0)"  stroke-width="2.0"/>
<line x1="341.8" y1="203.9" x2="355.6" y2="227.8" stroke="rgb(0,0,0)"  stroke-width="2.0"/>
<line x1="344.4" y1="202.4" x2="316.9" y2="202.4" stroke="rgb(0,0,0)"  stroke-width="2.0"/>
<line x1="297.4" y1="191.2" x2="290.2" y2="178.6" stroke="rgb(0,0,0)"  stroke-width="2.0"/>
<line x1="464.1" y1="121.9" x2="491.0" y2="127.6" stroke="rgb(0,0,0)"  stroke-width="2.0"/>
<line x1="128.9" y1="77.6" x2="137.4" y2="51.4" stroke="rgb(0,0,0)"  stroke-width="2.0"/>
<line x1="134.6" y1="79.4" x2="143.1" y2="53.3" stroke="rgb(0,0,0)"  stroke-width="2.0"/>
<line x1="83.4" y1="77.3" x2="73.7" y2="66.5" stroke="rgb(0,0,0)"  stroke-width="2.0"/>
<line x1="80.2" y1="128.4" x2="53.3" y2="134.1" stroke="rgb(0,0,0)"  stroke-width="2.0"/>
<line x1="79.0" y1="122.5" x2="52.1" y2="128.2" stroke="rgb(0,0,0)"  stroke-width="2.0"/>
<line x1="103.9" y1="186.7" x2="78.2" y2="196.3" stroke="rgb(0,0,0)"  stroke-width="2.0"/>
<line x1="181.0" y1="225.7" x2="172.1" y2="251.7" stroke="rgb(0,0,0)"  stroke-width="2.0"/>
<line x1="175.4" y1="223.7" x2="166.4" y2="249.7" stroke="rgb(0,0,0)"  stroke-width="2.0"/>
<line x1="214.3" y1="232.3" x2="222.0" y2="244.5" stroke="rgb(0,0,0)"  stroke-width="2.0"/>
<line x1="223.9" y1="193.6" x2="302.5" y2="222.7" stroke="rgb(0,0,0)"  stroke-width="2.0"/>
<line x1="221.8" y1="199.3" x2="300.4" y2="228.3" stroke="rgb(0,0,0)"  stroke-width="2.0"/>
<line x1="331.9" y1="143.6" x2="344.4" y2="105.0" stroke="rgb(0,0,0)"  stroke-width="2.0"/>
<line x1="326.9" y1="135.6" x2="335.7" y2="108.5" stroke="rgb(0,0,0)"  stroke-width="2.0"/>
<line x1="344.4" y1="105.0" x2="317.3" y2="74.9" stroke="rgb(0,0,0)"  stroke-width="2.0"/>
<line x1="317.3" y1="74.9" x2="277.7" y2="83.4" stroke="rgb(0,0,0)"  stroke-width="2.0"/>
<line x1="312.9" y1="83.2" x2="285.1" y2="89.2" stroke="rgb(0,0,0)"  stroke-width="2.0"/>
<line x1="277.7" y1="83.4" x2="265.2" y2="121.9" stroke="rgb(0,0,0)"  stroke-width="2.0"/>
<line x1="265.2" y1="121.9" x2="292.3" y2="152.0" stroke="rgb(0,0,0)"  stroke-width="2.0"/>
<line x1="274.5" y1="121.5" x2="293.6" y2="142.7" stroke="rgb(0,0,0)"  stroke-width="2.0"/>
<line x1="292.3" y1="152.0" x2="331.9" y2="143.6" stroke="rgb(0,0,0)"  stroke-width="2.0"/>
<line x1="437.0" y1="152.0" x2="397.4" y2="143.6" stroke="rgb(0,0,0)"  stroke-width="2.0"/>
<line x1="432.7" y1="143.7" x2="404.8" y2="137.8" stroke="rgb(0,0,0)"  stroke-width="2.0"/>
<line x1="397.4" y1="143.6" x2="384.9" y2="105.0" stroke="rgb(0,0,0)"  stroke-width="2.0"/>
<line x1="384.9" y1="105.0" x2="412.0" y2="74.9" stroke="rgb(0,0,0)"  stroke-width="2.0"/>
<line x1="394.3" y1="105.4" x2="413.4" y2="84.2" stroke="rgb(0,0,0)"  stroke-width="2.0"/>
<line x1="412.0" y1="74.9" x2="451.6" y2="83.4" stroke="rgb(0,0,0)"  stroke-width="2.0"/>
<line x1="451.6" y1="83.4" x2="464.1" y2="121.9" stroke="rgb(0,0,0)"  stroke-width="2.0"/>
<line x1="446.6" y1="91.3" x2="455.4" y2="118.4" stroke="rgb(0,0,0)"  stroke-width="2.0"/>
<line x1="464.1" y1="121.9" x2="437.0" y2="152.0" stroke="rgb(0,0,0)"  stroke-width="2.0"/>
<line x1="158.8" y1="108.6" x2="146.3" y2="147.1" stroke="rgb(0,0,0)"  stroke-width="2.0"/>
<line x1="163.8" y1="116.5" x2="155.0" y2="143.7" stroke="rgb(0,0,0)"  stroke-width="2.0"/>
<line x1="146.3" y1="147.1" x2="173.4" y2="177.2" stroke="rgb(0,0,0)"  stroke-width="2.0"/>
<line x1="173.4" y1="177.2" x2="213.1" y2="168.8" stroke="rgb(0,0,0)"  stroke-width="2.0"/>
<line x1="177.8" y1="168.9" x2="205.7" y2="163.0" stroke="rgb(0,0,0)"  stroke-width="2.0"/>
<line x1="213.1" y1="168.8" x2="225.6" y2="130.3" stroke="rgb(0,0,0)"  stroke-width="2.0"/>
<line x1="225.6" y1="130.3" x2="198.5" y2="100.2" stroke="rgb(0,0,0)"  stroke-width="2.0"/>
<line x1="216.2" y1="130.7" x2="197.1" y2="109.5" stroke="rgb(0,0,0)"  stroke-width="2.0"/>
<line x1="198.5" y1="100.2" x2="158.8" y2="108.6" stroke="rgb(0,0,0)"  stroke-width="2.0"/>
<line x1="79.6" y1="125.5" x2="106.7" y2="155.6" stroke="rgb(0,0,0)"  stroke-width="2.0"/>
<line x1="106.7" y1="155.6" x2="146.3" y2="147.1" stroke="rgb(0,0,0)"  stroke-width="2.0"/>
<line x1="158.8" y1="108.6" x2="131.7" y2="78.5" stroke="rgb(0,0,0)"  stroke-width="2.0"/>
<line x1="131.7" y1="78.5" x2="104.8" y2="84.2" stroke="rgb(0,0,0)"  stroke-width="2.0"/>
<line x1="88.1" y1="99.3" x2="79.6" y2="125.5" stroke="rgb(0,0,0)"  stroke-width="2.0"/>
<line x1="126.5" y1="208.2" x2="157.4" y2="204.0" stroke="rgb(0,0,0)"  stroke-width="2.0"/>
<line x1="131.5" y1="200.3" x2="150.5" y2="197.7" stroke="rgb(0,0,0)"  stroke-width="2.0"/>
<line x1="157.4" y1="204.0" x2="173.4" y2="177.2" stroke="rgb(0,0,0)"  stroke-width="2.0"/>
<line x1="106.7" y1="155.6" x2="103.9" y2="186.7" stroke="rgb(0,0,0)"  stroke-width="2.0"/>
<line x1="113.4" y1="162.2" x2="111.6" y2="181.3" stroke="rgb(0,0,0)"  stroke-width="2.0"/>
<line x1="103.9" y1="186.7" x2="126.5" y2="208.2" stroke="rgb(0,0,0)"  stroke-width="2.0"/>
<line x1="214.2" y1="210.3" x2="222.8" y2="196.4" stroke="rgb(0,0,0)"  stroke-width="2.0"/>
<line x1="222.8" y1="196.4" x2="213.1" y2="168.8" stroke="rgb(0,0,0)"  stroke-width="2.0"/>
<line x1="157.4" y1="204.0" x2="178.2" y2="224.7" stroke="rgb(0,0,0)"  stroke-width="2.0"/>
<line x1="178.2" y1="224.7" x2="194.4" y2="222.8" stroke="rgb(0,0,0)"  stroke-width="2.0"/>
<line x1="384.9" y1="105.0" x2="344.4" y2="105.0" stroke="rgb(0,0,0)"  stroke-width="2.0"/>
<line x1="331.9" y1="143.6" x2="364.7" y2="167.4" stroke="rgb(0,0,0)"  stroke-width="2.0"/>
<line x1="364.7" y1="167.4" x2="397.4" y2="143.6" stroke="rgb(0,0,0)"  stroke-width="2.0"/>
<text x="138.263850" y="48.000000" fill="rgb(255,12,12)"  stroke="rgb(255,12,12)" stroke-width="1" font-size="16" >O</text>
<text x="86.131925" y="94.939796" fill="rgb(12,12,255)"  stroke="rgb(12,12,255)" stroke-width="1" font-size="16" >N</text>
<text x="39.031221" y="64.841415" fill="rgb(102,102,102)"  stroke="rgb(102,102,102)" stroke-width="1" font-size="16" >H</text>
<text x="51.031221" y="68.521415" fill="rgb(102,102,102)"  stroke="rgb(102,102,102)" stroke-width="1" font-size="13" >3</text>
<text x="57.531221" y="64.841415" fill="rgb(102,102,102)"  stroke="rgb(102,102,102)" stroke-width="1" font-size="16" >C</text>
<text x="34.000000" y="141.879592" fill="rgb(255,12,12)"  stroke="rgb(255,12,12)" stroke-width="1" font-size="16" >O</text>
<text x="59.999699" y="208.882620" fill="rgb(191,191,191)"  stroke="rgb(191,191,191)" stroke-width="1" font-size="16" >H</text>
<text x="158.967138" y="270.958430" fill="rgb(255,12,12)"  stroke="rgb(255,12,12)" stroke-width="1" font-size="16" >O</text>
<text x="201.318970" y="229.303176" fill="rgb(12,12,255)"  stroke="rgb(12,12,255)" stroke-width="1" font-size="16" >N</text>
<text x="224.984786" y="263.522369" fill="rgb(102,102,102)"  stroke="rgb(102,102,102)" stroke-width="1" font-size="16" >CH</text>
<text x="248.984786" y="267.202369" fill="rgb(102,102,102)"  stroke="rgb(102,102,102)" stroke-width="1" font-size="13" >3</text>
<text x="307.671511" y="238.013785" fill="rgb(255,12,12)"  stroke="rgb(255,12,12)" stroke-width="1" font-size="16" >O</text>
<text x="297.913539" y="210.433427" fill="rgb(255,12,12)"  stroke="rgb(255,12,12)" stroke-width="1" font-size="16" >O</text>
<text x="419.417639" y="210.433427" fill="rgb(255,12,12)"  stroke="rgb(255,12,12)" stroke-width="1" font-size="16" >O</text>
<text x="358.665589" y="245.508639" fill="rgb(255,12,12)"  stroke="rgb(255,12,12)" stroke-width="1" font-size="16" >O</text>
<text x="298.164222" y="245.508639" fill="rgb(102,102,102)"  stroke="rgb(102,102,102)" stroke-width="1" font-size="16" >H</text>
<text x="310.164222" y="249.188639" fill="rgb(102,102,102)"  stroke="rgb(102,102,102)" stroke-width="1" font-size="13" >3</text>
<text x="316.664222" y="245.508639" fill="rgb(102,102,102)"  stroke="rgb(102,102,102)" stroke-width="1" font-size="16" >C</text>
<text x="358.665589" y="245.508639" fill="rgb(255,12,12)"  stroke="rgb(255,12,12)" stroke-width="1" font-size="16" >O</text>
<text x="257.662856" y="175.358215" fill="rgb(102,102,102)"  stroke="rgb(102,102,102)" stroke-width="1" font-size="16" >H</text>
<text x="269.662856" y="179.038215" fill="rgb(102,102,102)"  stroke="rgb(102,102,102)" stroke-width="1" font-size="13" >3</text>
<text x="276.162856" y="175.358215" fill="rgb(102,102,102)"  stroke="rgb(102,102,102)" stroke-width="1" font-size="16" >C</text>
<text x="497.765215" y="138.295143" fill="rgb(191,191,191)"  stroke="rgb(191,191,191)" stroke-width="1" font-size="16" >H</text>
</svg>
</g>
<text font-size="18.000000" fill ="black" font-family="sans-serif"
x="10.000000" y="20.000000" ></text>
</svg>
