<?xml version="1.0"?>
<svg version="1.1" id="topsvg"
xmlns="http://www.w3.org/2000/svg" xmlns:xlink="http://www.w3.org/1999/xlink"
xmlns:cml="http://www.xml-cml.org/schema" x="0" y="0" width="200px" height="200px" viewBox="0 0 100 100">
<title> - Open Babel Depiction</title>
<rect x="0" y="0" width="100" height="100" fill="white"/>
<g transform="translate(0,0)">
<svg width="100" height="100" x="0" y="0" viewBox="0 0 587.679 397.234"
font-family="sans-serif" stroke="rgb(0,0,0)" stroke-width="2"  stroke-linecap="round">
<line x1="311.8" y1="185.2" x2="346.4" y2="205.2" stroke="rgb(0,0,0)"  stroke-width="2.0"/>
<line x1="383.0" y1="188.9" x2="388.6" y2="162.5" stroke="rgb(0,0,0)"  stroke-width="2.0"/>
<line x1="449.7" y1="218.7" x2="463.2" y2="195.3" stroke="rgb(0,0,0)"  stroke-width="2.0"/>
<line x1="482.7" y1="184.0" x2="496.7" y2="184.0" stroke="rgb(0,0,0)"  stroke-width="2.0"/>
<line x1="513.0" y1="301.4" x2="536.4" y2="314.9" stroke="rgb(0,0,0)"  stroke-width="2.0"/>
<line x1="476.5" y1="317.7" x2="470.9" y2="344.1" stroke="rgb(0,0,0)"  stroke-width="2.0"/>
<line x1="409.7" y1="288.0" x2="396.2" y2="311.3" stroke="rgb(0,0,0)"  stroke-width="2.0"/>
<line x1="396.2" y1="333.9" x2="403.2" y2="346.0" stroke="rgb(0,0,0)"  stroke-width="2.0"/>
<line x1="226.4" y1="83.4" x2="212.9" y2="60.0" stroke="rgb(0,0,0)"  stroke-width="2.0"/>
<line x1="231.6" y1="80.4" x2="218.1" y2="57.0" stroke="rgb(0,0,0)"  stroke-width="2.0"/>
<line x1="277.5" y1="76.4" x2="286.9" y2="66.0" stroke="rgb(0,0,0)"  stroke-width="2.0"/>
<line x1="213.4" y1="121.4" x2="174.3" y2="129.7" stroke="rgb(0,0,0)"  stroke-width="2.0"/>
<line x1="212.2" y1="115.5" x2="173.0" y2="123.8" stroke="rgb(0,0,0)"  stroke-width="2.0"/>
<line x1="160.0" y1="161.8" x2="173.5" y2="185.2" stroke="rgb(0,0,0)"  stroke-width="2.0"/>
<line x1="154.8" y1="164.8" x2="168.3" y2="188.2" stroke="rgb(0,0,0)"  stroke-width="2.0"/>
<line x1="108.9" y1="168.8" x2="99.5" y2="179.2" stroke="rgb(0,0,0)"  stroke-width="2.0"/>
<line x1="74.6" y1="60.0" x2="51.3" y2="46.5" stroke="rgb(0,0,0)"  stroke-width="2.0"/>
<line x1="409.7" y1="218.7" x2="389.7" y2="253.3" stroke="rgb(0,0,0)"  stroke-width="2.0"/>
<line x1="389.7" y1="253.3" x2="363.3" y2="247.7" stroke="rgb(0,0,0)"  stroke-width="2.0"/>
<line x1="349.2" y1="232.1" x2="346.4" y2="205.2" stroke="rgb(0,0,0)"  stroke-width="2.0"/>
<line x1="346.4" y1="205.2" x2="383.0" y2="188.9" stroke="rgb(0,0,0)"  stroke-width="2.0"/>
<line x1="354.8" y1="209.4" x2="380.4" y2="198.0" stroke="rgb(0,0,0)"  stroke-width="2.0"/>
<line x1="383.0" y1="188.9" x2="409.7" y2="218.7" stroke="rgb(0,0,0)"  stroke-width="2.0"/>
<line x1="513.0" y1="301.4" x2="476.5" y2="317.7" stroke="rgb(0,0,0)"  stroke-width="2.0"/>
<line x1="504.6" y1="297.3" x2="479.0" y2="308.7" stroke="rgb(0,0,0)"  stroke-width="2.0"/>
<line x1="476.5" y1="317.7" x2="449.7" y2="288.0" stroke="rgb(0,0,0)"  stroke-width="2.0"/>
<line x1="449.7" y1="288.0" x2="469.7" y2="253.3" stroke="rgb(0,0,0)"  stroke-width="2.0"/>
<line x1="459.0" y1="286.4" x2="473.0" y2="262.1" stroke="rgb(0,0,0)"  stroke-width="2.0"/>
<line x1="469.7" y1="253.3" x2="496.1" y2="258.9" stroke="rgb(0,0,0)"  stroke-width="2.0"/>
<line x1="510.2" y1="274.6" x2="513.0" y2="301.4" stroke="rgb(0,0,0)"  stroke-width="2.0"/>
<line x1="449.7" y1="288.0" x2="409.7" y2="288.0" stroke="rgb(0,0,0)"  stroke-width="2.0"/>
<line x1="409.7" y1="288.0" x2="389.7" y2="253.3" stroke="rgb(0,0,0)"  stroke-width="2.0"/>
<line x1="413.0" y1="279.2" x2="399.0" y2="254.9" stroke="rgb(0,0,0)"  stroke-width="2.0"/>
<line x1="409.7" y1="218.7" x2="449.7" y2="218.7" stroke="rgb(0,0,0)"  stroke-width="2.0"/>
<line x1="415.7" y1="225.9" x2="443.7" y2="225.9" stroke="rgb(0,0,0)"  stroke-width="2.0"/>
<line x1="449.7" y1="218.7" x2="469.7" y2="253.3" stroke="rgb(0,0,0)"  stroke-width="2.0"/>
<line x1="242.5" y1="185.2" x2="242.5" y2="145.2" stroke="rgb(0,0,0)"  stroke-width="2.0"/>
<line x1="249.7" y1="179.2" x2="249.7" y2="151.2" stroke="rgb(0,0,0)"  stroke-width="2.0"/>
<line x1="242.5" y1="145.2" x2="277.1" y2="125.2" stroke="rgb(0,0,0)"  stroke-width="2.0"/>
<line x1="277.1" y1="125.2" x2="311.8" y2="145.2" stroke="rgb(0,0,0)"  stroke-width="2.0"/>
<line x1="278.7" y1="134.4" x2="303.0" y2="148.4" stroke="rgb(0,0,0)"  stroke-width="2.0"/>
<line x1="311.8" y1="145.2" x2="311.8" y2="185.2" stroke="rgb(0,0,0)"  stroke-width="2.0"/>
<line x1="311.8" y1="185.2" x2="277.1" y2="205.2" stroke="rgb(0,0,0)"  stroke-width="2.0"/>
<line x1="303.0" y1="182.0" x2="278.7" y2="196.0" stroke="rgb(0,0,0)"  stroke-width="2.0"/>
<line x1="277.1" y1="205.2" x2="242.5" y2="185.2" stroke="rgb(0,0,0)"  stroke-width="2.0"/>
<line x1="109.3" y1="40.0" x2="143.9" y2="60.0" stroke="rgb(0,0,0)"  stroke-width="2.0"/>
<line x1="143.9" y1="60.0" x2="143.9" y2="100.0" stroke="rgb(0,0,0)"  stroke-width="2.0"/>
<line x1="136.7" y1="66.0" x2="136.7" y2="94.0" stroke="rgb(0,0,0)"  stroke-width="2.0"/>
<line x1="143.9" y1="100.0" x2="109.3" y2="120.0" stroke="rgb(0,0,0)"  stroke-width="2.0"/>
<line x1="109.3" y1="120.0" x2="74.6" y2="100.0" stroke="rgb(0,0,0)"  stroke-width="2.0"/>
<line x1="107.7" y1="110.8" x2="83.4" y2="96.8" stroke="rgb(0,0,0)"  stroke-width="2.0"/>
<line x1="74.6" y1="100.0" x2="74.6" y2="60.0" stroke="rgb(0,0,0)"  stroke-width="2.0"/>
<line x1="74.6" y1="60.0" x2="109.3" y2="40.0" stroke="rgb(0,0,0)"  stroke-width="2.0"/>
<line x1="83.4" y1="63.2" x2="107.7" y2="49.2" stroke="rgb(0,0,0)"  stroke-width="2.0"/>
<line x1="229.0" y1="81.9" x2="255.9" y2="84.7" stroke="rgb(0,0,0)"  stroke-width="2.0"/>
<line x1="271.5" y1="98.8" x2="277.1" y2="125.2" stroke="rgb(0,0,0)"  stroke-width="2.0"/>
<line x1="242.5" y1="145.2" x2="212.8" y2="118.4" stroke="rgb(0,0,0)"  stroke-width="2.0"/>
<line x1="212.8" y1="118.4" x2="229.0" y2="81.9" stroke="rgb(0,0,0)"  stroke-width="2.0"/>
<line x1="114.9" y1="146.4" x2="109.3" y2="120.0" stroke="rgb(0,0,0)"  stroke-width="2.0"/>
<line x1="143.9" y1="100.0" x2="173.6" y2="126.8" stroke="rgb(0,0,0)"  stroke-width="2.0"/>
<line x1="173.6" y1="126.8" x2="157.4" y2="163.3" stroke="rgb(0,0,0)"  stroke-width="2.0"/>
<line x1="157.4" y1="163.3" x2="130.5" y2="160.5" stroke="rgb(0,0,0)"  stroke-width="2.0"/>
<text x="171.379376" y="205.948059" fill="rgb(255,12,12)"  stroke="rgb(255,12,12)" stroke-width="1" font-size="16" >O</text>
<text x="203.044211" y="55.265922" fill="rgb(255,12,12)"  stroke="rgb(255,12,12)" stroke-width="1" font-size="16" >O</text>
<text x="262.825087" y="94.088077" fill="rgb(12,12,255)"  stroke="rgb(12,12,255)" stroke-width="1" font-size="16" >N</text>
<text x="291.590311" y="64.362284" fill="rgb(102,102,102)"  stroke="rgb(102,102,102)" stroke-width="1" font-size="16" >CH</text>
<text x="315.590311" y="68.042284" fill="rgb(102,102,102)"  stroke="rgb(102,102,102)" stroke-width="1" font-size="13" >3</text>
<text x="111.598500" y="167.125904" fill="rgb(12,12,255)"  stroke="rgb(12,12,255)" stroke-width="1" font-size="16" >N</text>
<text x="64.833276" y="196.851697" fill="rgb(102,102,102)"  stroke="rgb(102,102,102)" stroke-width="1" font-size="16" >H</text>
<text x="76.833276" y="200.531697" fill="rgb(102,102,102)"  stroke="rgb(102,102,102)" stroke-width="1" font-size="13" >3</text>
<text x="83.333276" y="196.851697" fill="rgb(102,102,102)"  stroke="rgb(102,102,102)" stroke-width="1" font-size="16" >C</text>
<text x="34.000000" y="48.000000" fill="rgb(191,191,191)"  stroke="rgb(191,191,191)" stroke-width="1" font-size="16" >H</text>
<text x="541.678688" y="329.408668" fill="rgb(191,191,191)"  stroke="rgb(191,191,191)" stroke-width="1" font-size="16" >H</text>
<text x="385.281873" y="157.818611" fill="rgb(255,12,12)"  stroke="rgb(255,12,12)" stroke-width="1" font-size="16" >OH</text>
<text x="463.730630" y="192.029292" fill="rgb(255,12,12)"  stroke="rgb(255,12,12)" stroke-width="1" font-size="16" >O</text>
<text x="505.730630" y="192.029292" fill="rgb(102,102,102)"  stroke="rgb(102,102,102)" stroke-width="1" font-size="16" >CH</text>
<text x="529.730630" y="195.709292" fill="rgb(102,102,102)"  stroke="rgb(102,102,102)" stroke-width="1" font-size="13" >3</text>
<text x="502.856534" y="269.627792" fill="rgb(178,178,0)"  stroke="rgb(178,178,0)" stroke-width="1" font-size="16" >S</text>
<text x="450.179386" y="364.804038" fill="rgb(255,12,12)"  stroke="rgb(255,12,12)" stroke-width="1" font-size="16" >HO</text>
<text x="383.730630" y="330.593357" fill="rgb(255,12,12)"  stroke="rgb(255,12,12)" stroke-width="1" font-size="16" >O</text>
<text x="405.730630" y="365.234373" fill="rgb(102,102,102)"  stroke="rgb(102,102,102)" stroke-width="1" font-size="16" >CH</text>
<text x="429.730630" y="368.914373" fill="rgb(102,102,102)"  stroke="rgb(102,102,102)" stroke-width="1" font-size="13" >3</text>
<text x="344.604726" y="252.994857" fill="rgb(178,178,0)"  stroke="rgb(178,178,0)" stroke-width="1" font-size="16" >S</text>
</svg>
</g>
<text font-size="18.000000" fill ="black" font-family="sans-serif"
x="10.000000" y="20.000000" ></text>
</svg>
