<?xml version="1.0"?>
<svg version="1.1" id="topsvg"
xmlns="http://www.w3.org/2000/svg" xmlns:xlink="http://www.w3.org/1999/xlink"
xmlns:cml="http://www.xml-cml.org/schema" x="0" y="0" width="200px" height="200px" viewBox="0 0 100 100">
<title> - Open Babel Depiction</title>
<rect x="0" y="0" width="100" height="100" fill="white"/>
<g transform="translate(0,0)">
<svg width="100" height="100" x="0" y="0" viewBox="0 0 460.652 252.602"
font-family="sans-serif" stroke="rgb(0,0,0)" stroke-width="2"  stroke-linecap="round">
<line x1="285.5" y1="142.2" x2="247.5" y2="129.8" stroke="rgb(0,0,0)"  stroke-width="2.0"/>
<line x1="162.8" y1="68.3" x2="185.3" y2="53.4" stroke="rgb(0,0,0)"  stroke-width="2.0"/>
<line x1="162.8" y1="68.3" x2="143.7" y2="49.2" stroke="rgb(0,0,0)"  stroke-width="2.0"/>
<line x1="78.0" y1="129.8" x2="52.4" y2="138.2" stroke="rgb(0,0,0)"  stroke-width="2.0"/>
<line x1="327.8" y1="82.4" x2="312.0" y2="60.6" stroke="rgb(0,0,0)"  stroke-width="2.0"/>
<line x1="332.7" y1="78.9" x2="316.8" y2="57.0" stroke="rgb(0,0,0)"  stroke-width="2.0"/>
<line x1="377.9" y1="70.1" x2="386.1" y2="58.8" stroke="rgb(0,0,0)"  stroke-width="2.0"/>
<line x1="382.6" y1="118.7" x2="408.3" y2="127.0" stroke="rgb(0,0,0)"  stroke-width="2.0"/>
<line x1="340.3" y1="178.5" x2="356.2" y2="200.3" stroke="rgb(0,0,0)"  stroke-width="2.0"/>
<line x1="335.5" y1="182.0" x2="351.3" y2="203.8" stroke="rgb(0,0,0)"  stroke-width="2.0"/>
<line x1="290.2" y1="190.8" x2="282.0" y2="202.1" stroke="rgb(0,0,0)"  stroke-width="2.0"/>
<line x1="195.1" y1="91.8" x2="182.8" y2="129.8" stroke="rgb(0,0,0)"  stroke-width="2.0"/>
<line x1="200.1" y1="99.7" x2="191.5" y2="126.4" stroke="rgb(0,0,0)"  stroke-width="2.0"/>
<line x1="182.8" y1="129.8" x2="204.6" y2="145.7" stroke="rgb(0,0,0)"  stroke-width="2.0"/>
<line x1="225.6" y1="145.7" x2="247.5" y2="129.8" stroke="rgb(0,0,0)"  stroke-width="2.0"/>
<line x1="247.5" y1="129.8" x2="235.1" y2="91.8" stroke="rgb(0,0,0)"  stroke-width="2.0"/>
<line x1="238.8" y1="126.4" x2="230.1" y2="99.7" stroke="rgb(0,0,0)"  stroke-width="2.0"/>
<line x1="235.1" y1="91.8" x2="195.1" y2="91.8" stroke="rgb(0,0,0)"  stroke-width="2.0"/>
<line x1="78.0" y1="129.8" x2="99.9" y2="145.7" stroke="rgb(0,0,0)"  stroke-width="2.0"/>
<line x1="120.9" y1="145.7" x2="142.8" y2="129.8" stroke="rgb(0,0,0)"  stroke-width="2.0"/>
<line x1="142.8" y1="129.8" x2="130.4" y2="91.8" stroke="rgb(0,0,0)"  stroke-width="2.0"/>
<line x1="134.1" y1="126.4" x2="125.4" y2="99.7" stroke="rgb(0,0,0)"  stroke-width="2.0"/>
<line x1="130.4" y1="91.8" x2="90.4" y2="91.8" stroke="rgb(0,0,0)"  stroke-width="2.0"/>
<line x1="90.4" y1="91.8" x2="78.0" y2="129.8" stroke="rgb(0,0,0)"  stroke-width="2.0"/>
<line x1="95.4" y1="99.7" x2="86.7" y2="126.4" stroke="rgb(0,0,0)"  stroke-width="2.0"/>
<line x1="330.2" y1="80.6" x2="357.2" y2="80.6" stroke="rgb(0,0,0)"  stroke-width="2.0"/>
<line x1="374.3" y1="93.0" x2="382.6" y2="118.7" stroke="rgb(0,0,0)"  stroke-width="2.0"/>
<line x1="382.6" y1="118.7" x2="350.2" y2="142.2" stroke="rgb(0,0,0)"  stroke-width="2.0"/>
<line x1="373.5" y1="116.4" x2="350.9" y2="132.8" stroke="rgb(0,0,0)"  stroke-width="2.0"/>
<line x1="350.2" y1="142.2" x2="317.9" y2="118.7" stroke="rgb(0,0,0)"  stroke-width="2.0"/>
<line x1="317.9" y1="118.7" x2="330.2" y2="80.6" stroke="rgb(0,0,0)"  stroke-width="2.0"/>
<line x1="350.2" y1="142.2" x2="337.9" y2="180.2" stroke="rgb(0,0,0)"  stroke-width="2.0"/>
<line x1="337.9" y1="180.2" x2="310.9" y2="180.2" stroke="rgb(0,0,0)"  stroke-width="2.0"/>
<line x1="293.9" y1="167.9" x2="285.5" y2="142.2" stroke="rgb(0,0,0)"  stroke-width="2.0"/>
<line x1="285.5" y1="142.2" x2="317.9" y2="118.7" stroke="rgb(0,0,0)"  stroke-width="2.0"/>
<line x1="294.6" y1="144.5" x2="317.3" y2="128.0" stroke="rgb(0,0,0)"  stroke-width="2.0"/>
<line x1="142.8" y1="129.8" x2="182.8" y2="129.8" stroke="rgb(0,0,0)"  stroke-width="2.0"/>
<line x1="195.1" y1="91.8" x2="162.8" y2="68.3" stroke="rgb(0,0,0)"  stroke-width="2.0"/>
<line x1="162.8" y1="68.3" x2="130.4" y2="91.8" stroke="rgb(0,0,0)"  stroke-width="2.0"/>
<text x="34.000000" y="150.198622" fill="rgb(191,191,191)"  stroke="rgb(191,191,191)" stroke-width="1" font-size="16" >H</text>
<text x="268.376510" y="220.601562" fill="rgb(191,191,191)"  stroke="rgb(191,191,191)" stroke-width="1" font-size="16" >H</text>
<text x="291.887920" y="188.240882" fill="rgb(12,12,255)"  stroke="rgb(12,12,255)" stroke-width="1" font-size="16" >N</text>
<text x="355.399330" y="220.601562" fill="rgb(255,12,12)"  stroke="rgb(255,12,12)" stroke-width="1" font-size="16" >O</text>
<text x="414.651540" y="139.047891" fill="rgb(191,191,191)"  stroke="rgb(191,191,191)" stroke-width="1" font-size="16" >H</text>
<text x="387.760010" y="56.284271" fill="rgb(191,191,191)"  stroke="rgb(191,191,191)" stroke-width="1" font-size="16" >H</text>
<text x="364.248600" y="88.644951" fill="rgb(12,12,255)"  stroke="rgb(12,12,255)" stroke-width="1" font-size="16" >N</text>
<text x="300.737190" y="56.284271" fill="rgb(255,12,12)"  stroke="rgb(255,12,12)" stroke-width="1" font-size="16" >O</text>
<text x="104.402940" y="161.349352" fill="rgb(178,178,0)"  stroke="rgb(178,178,0)" stroke-width="1" font-size="16" >S</text>
<text x="108.479349" y="48.000000" fill="rgb(102,102,102)"  stroke="rgb(102,102,102)" stroke-width="1" font-size="16" >H</text>
<text x="120.479349" y="51.680000" fill="rgb(102,102,102)"  stroke="rgb(102,102,102)" stroke-width="1" font-size="13" >3</text>
<text x="126.979349" y="48.000000" fill="rgb(102,102,102)"  stroke="rgb(102,102,102)" stroke-width="1" font-size="16" >C</text>
<text x="192.109501" y="54.192367" fill="rgb(102,102,102)"  stroke="rgb(102,102,102)" stroke-width="1" font-size="16" >CH</text>
<text x="216.109501" y="57.872367" fill="rgb(102,102,102)"  stroke="rgb(102,102,102)" stroke-width="1" font-size="13" >3</text>
<text x="209.124300" y="161.349352" fill="rgb(178,178,0)"  stroke="rgb(178,178,0)" stroke-width="1" font-size="16" >S</text>
</svg>
</g>
<text font-size="18.000000" fill ="black" font-family="sans-serif"
x="10.000000" y="20.000000" ></text>
</svg>
