<?xml version="1.0"?>
<svg version="1.1" id="topsvg"
xmlns="http://www.w3.org/2000/svg" xmlns:xlink="http://www.w3.org/1999/xlink"
xmlns:cml="http://www.xml-cml.org/schema" x="0" y="0" width="200px" height="200px" viewBox="0 0 100 100">
<title> - Open Babel Depiction</title>
<rect x="0" y="0" width="100" height="100" fill="white"/>
<g transform="translate(0,0)">
<svg width="100" height="100" x="0" y="0" viewBox="0 0 607.718 416.303"
font-family="sans-serif" stroke="rgb(0,0,0)" stroke-width="2"  stroke-linecap="round">
<line x1="329.8" y1="206.6" x2="367.8" y2="219.0" stroke="rgb(0,0,0)"  stroke-width="2.0"/>
<line x1="423.9" y1="318.3" x2="410.4" y2="341.7" stroke="rgb(0,0,0)"  stroke-width="2.0"/>
<line x1="413.0" y1="340.2" x2="426.5" y2="363.5" stroke="rgb(0,0,0)"  stroke-width="2.0"/>
<line x1="407.8" y1="343.2" x2="421.3" y2="366.5" stroke="rgb(0,0,0)"  stroke-width="2.0"/>
<line x1="410.4" y1="341.7" x2="383.4" y2="341.7" stroke="rgb(0,0,0)"  stroke-width="2.0"/>
<line x1="363.9" y1="330.4" x2="356.9" y2="318.3" stroke="rgb(0,0,0)"  stroke-width="2.0"/>
<line x1="538.0" y1="317.2" x2="558.1" y2="335.3" stroke="rgb(0,0,0)"  stroke-width="2.0"/>
<line x1="198.3" y1="217.2" x2="171.9" y2="222.8" stroke="rgb(0,0,0)"  stroke-width="2.0"/>
<line x1="197.0" y1="211.3" x2="170.6" y2="216.9" stroke="rgb(0,0,0)"  stroke-width="2.0"/>
<line x1="226.0" y1="254.0" x2="224.5" y2="267.9" stroke="rgb(0,0,0)"  stroke-width="2.0"/>
<line x1="211.3" y1="179.2" x2="191.3" y2="144.6" stroke="rgb(0,0,0)"  stroke-width="2.0"/>
<line x1="216.5" y1="176.2" x2="196.5" y2="141.6" stroke="rgb(0,0,0)"  stroke-width="2.0"/>
<line x1="209.6" y1="103.6" x2="236.0" y2="98.0" stroke="rgb(0,0,0)"  stroke-width="2.0"/>
<line x1="210.8" y1="109.5" x2="237.2" y2="103.9" stroke="rgb(0,0,0)"  stroke-width="2.0"/>
<line x1="181.8" y1="66.9" x2="183.3" y2="52.9" stroke="rgb(0,0,0)"  stroke-width="2.0"/>
<line x1="78.0" y1="114.2" x2="52.4" y2="105.8" stroke="rgb(0,0,0)"  stroke-width="2.0"/>
<line x1="470.2" y1="302.8" x2="478.5" y2="263.7" stroke="rgb(0,0,0)"  stroke-width="2.0"/>
<line x1="478.5" y1="263.7" x2="443.9" y2="243.7" stroke="rgb(0,0,0)"  stroke-width="2.0"/>
<line x1="443.9" y1="243.7" x2="414.2" y2="270.5" stroke="rgb(0,0,0)"  stroke-width="2.0"/>
<line x1="444.3" y1="253.1" x2="423.5" y2="271.8" stroke="rgb(0,0,0)"  stroke-width="2.0"/>
<line x1="414.2" y1="270.5" x2="425.2" y2="295.1" stroke="rgb(0,0,0)"  stroke-width="2.0"/>
<line x1="443.4" y1="305.7" x2="470.2" y2="302.8" stroke="rgb(0,0,0)"  stroke-width="2.0"/>
<line x1="443.9" y1="243.7" x2="435.6" y2="204.6" stroke="rgb(0,0,0)"  stroke-width="2.0"/>
<line x1="435.6" y1="204.6" x2="397.5" y2="192.2" stroke="rgb(0,0,0)"  stroke-width="2.0"/>
<line x1="427.7" y1="209.6" x2="401.0" y2="200.9" stroke="rgb(0,0,0)"  stroke-width="2.0"/>
<line x1="397.5" y1="192.2" x2="367.8" y2="219.0" stroke="rgb(0,0,0)"  stroke-width="2.0"/>
<line x1="367.8" y1="219.0" x2="376.1" y2="258.1" stroke="rgb(0,0,0)"  stroke-width="2.0"/>
<line x1="376.1" y1="223.4" x2="381.9" y2="250.8" stroke="rgb(0,0,0)"  stroke-width="2.0"/>
<line x1="376.1" y1="258.1" x2="414.2" y2="270.5" stroke="rgb(0,0,0)"  stroke-width="2.0"/>
<line x1="500.0" y1="329.6" x2="470.2" y2="302.8" stroke="rgb(0,0,0)"  stroke-width="2.0"/>
<line x1="500.3" y1="320.2" x2="479.5" y2="301.5" stroke="rgb(0,0,0)"  stroke-width="2.0"/>
<line x1="478.5" y1="263.7" x2="516.6" y2="251.4" stroke="rgb(0,0,0)"  stroke-width="2.0"/>
<line x1="486.5" y1="268.7" x2="513.1" y2="260.1" stroke="rgb(0,0,0)"  stroke-width="2.0"/>
<line x1="516.6" y1="251.4" x2="546.3" y2="278.1" stroke="rgb(0,0,0)"  stroke-width="2.0"/>
<line x1="546.3" y1="278.1" x2="538.0" y2="317.2" stroke="rgb(0,0,0)"  stroke-width="2.0"/>
<line x1="538.0" y1="282.5" x2="532.2" y2="309.9" stroke="rgb(0,0,0)"  stroke-width="2.0"/>
<line x1="538.0" y1="317.2" x2="500.0" y2="329.6" stroke="rgb(0,0,0)"  stroke-width="2.0"/>
<line x1="283.4" y1="155.1" x2="253.7" y2="181.9" stroke="rgb(0,0,0)"  stroke-width="2.0"/>
<line x1="283.8" y1="164.5" x2="263.0" y2="183.2" stroke="rgb(0,0,0)"  stroke-width="2.0"/>
<line x1="253.7" y1="181.9" x2="262.0" y2="221.0" stroke="rgb(0,0,0)"  stroke-width="2.0"/>
<line x1="262.0" y1="221.0" x2="300.0" y2="233.4" stroke="rgb(0,0,0)"  stroke-width="2.0"/>
<line x1="269.9" y1="216.0" x2="296.6" y2="224.7" stroke="rgb(0,0,0)"  stroke-width="2.0"/>
<line x1="300.0" y1="233.4" x2="329.8" y2="206.6" stroke="rgb(0,0,0)"  stroke-width="2.0"/>
<line x1="329.8" y1="206.6" x2="321.5" y2="167.5" stroke="rgb(0,0,0)"  stroke-width="2.0"/>
<line x1="321.5" y1="202.3" x2="315.7" y2="174.9" stroke="rgb(0,0,0)"  stroke-width="2.0"/>
<line x1="321.5" y1="167.5" x2="283.4" y2="155.1" stroke="rgb(0,0,0)"  stroke-width="2.0"/>
<line x1="86.4" y1="153.3" x2="124.4" y2="165.7" stroke="rgb(0,0,0)"  stroke-width="2.0"/>
<line x1="124.4" y1="165.7" x2="154.1" y2="138.9" stroke="rgb(0,0,0)"  stroke-width="2.0"/>
<line x1="124.0" y1="156.3" x2="144.9" y2="137.6" stroke="rgb(0,0,0)"  stroke-width="2.0"/>
<line x1="154.1" y1="138.9" x2="145.8" y2="99.8" stroke="rgb(0,0,0)"  stroke-width="2.0"/>
<line x1="145.8" y1="99.8" x2="107.8" y2="87.4" stroke="rgb(0,0,0)"  stroke-width="2.0"/>
<line x1="137.9" y1="104.8" x2="111.2" y2="96.1" stroke="rgb(0,0,0)"  stroke-width="2.0"/>
<line x1="107.8" y1="87.4" x2="78.0" y2="114.2" stroke="rgb(0,0,0)"  stroke-width="2.0"/>
<line x1="78.0" y1="114.2" x2="86.4" y2="153.3" stroke="rgb(0,0,0)"  stroke-width="2.0"/>
<line x1="86.3" y1="118.6" x2="92.2" y2="145.9" stroke="rgb(0,0,0)"  stroke-width="2.0"/>
<line x1="197.6" y1="214.3" x2="217.7" y2="232.3" stroke="rgb(0,0,0)"  stroke-width="2.0"/>
<line x1="238.6" y1="234.5" x2="262.0" y2="221.0" stroke="rgb(0,0,0)"  stroke-width="2.0"/>
<line x1="253.7" y1="181.9" x2="213.9" y2="177.7" stroke="rgb(0,0,0)"  stroke-width="2.0"/>
<line x1="213.9" y1="177.7" x2="197.6" y2="214.3" stroke="rgb(0,0,0)"  stroke-width="2.0"/>
<line x1="169.2" y1="86.3" x2="145.8" y2="99.8" stroke="rgb(0,0,0)"  stroke-width="2.0"/>
<line x1="154.1" y1="138.9" x2="193.9" y2="143.1" stroke="rgb(0,0,0)"  stroke-width="2.0"/>
<line x1="193.9" y1="143.1" x2="210.2" y2="106.5" stroke="rgb(0,0,0)"  stroke-width="2.0"/>
<line x1="210.2" y1="106.5" x2="190.1" y2="88.5" stroke="rgb(0,0,0)"  stroke-width="2.0"/>
<text x="243.303028" y="106.229632" fill="rgb(255,12,12)"  stroke="rgb(255,12,12)" stroke-width="1" font-size="16" >O</text>
<text x="152.512288" y="230.587220" fill="rgb(255,12,12)"  stroke="rgb(255,12,12)" stroke-width="1" font-size="16" >O</text>
<text x="221.363985" y="249.035977" fill="rgb(12,12,255)"  stroke="rgb(12,12,255)" stroke-width="1" font-size="16" >N</text>
<text x="197.182847" y="288.816853" fill="rgb(102,102,102)"  stroke="rgb(102,102,102)" stroke-width="1" font-size="16" >H</text>
<text x="209.182847" y="292.496853" fill="rgb(102,102,102)"  stroke="rgb(102,102,102)" stroke-width="1" font-size="13" >3</text>
<text x="215.682847" y="288.816853" fill="rgb(102,102,102)"  stroke="rgb(102,102,102)" stroke-width="1" font-size="16" >C</text>
<text x="174.451330" y="87.780876" fill="rgb(12,12,255)"  stroke="rgb(12,12,255)" stroke-width="1" font-size="16" >N</text>
<text x="180.632469" y="48.000000" fill="rgb(102,102,102)"  stroke="rgb(102,102,102)" stroke-width="1" font-size="16" >CH</text>
<text x="204.632469" y="51.680000" fill="rgb(102,102,102)"  stroke="rgb(102,102,102)" stroke-width="1" font-size="13" >3</text>
<text x="34.000000" y="109.824741" fill="rgb(191,191,191)"  stroke="rgb(191,191,191)" stroke-width="1" font-size="16" >H</text>
<text x="424.443510" y="315.020514" fill="rgb(12,12,255)"  stroke="rgb(12,12,255)" stroke-width="1" font-size="16" >N</text>
<text x="424.443510" y="384.302547" fill="rgb(255,12,12)"  stroke="rgb(255,12,12)" stroke-width="1" font-size="16" >O</text>
<text x="364.443510" y="349.661531" fill="rgb(255,12,12)"  stroke="rgb(255,12,12)" stroke-width="1" font-size="16" >O</text>
<text x="324.443510" y="315.020514" fill="rgb(102,102,102)"  stroke="rgb(102,102,102)" stroke-width="1" font-size="16" >H</text>
<text x="336.443510" y="318.700514" fill="rgb(102,102,102)"  stroke="rgb(102,102,102)" stroke-width="1" font-size="13" >3</text>
<text x="342.943510" y="315.020514" fill="rgb(102,102,102)"  stroke="rgb(102,102,102)" stroke-width="1" font-size="16" >C</text>
<text x="561.718232" y="352.009145" fill="rgb(191,191,191)"  stroke="rgb(191,191,191)" stroke-width="1" font-size="16" >H</text>
</svg>
</g>
<text font-size="18.000000" fill ="black" font-family="sans-serif"
x="10.000000" y="20.000000" ></text>
</svg>
