<?xml version="1.0"?>
<svg version="1.1" id="topsvg"
xmlns="http://www.w3.org/2000/svg" xmlns:xlink="http://www.w3.org/1999/xlink"
xmlns:cml="http://www.xml-cml.org/schema" x="0" y="0" width="200px" height="200px" viewBox="0 0 100 100">
<title> - Open Babel Depiction</title>
<rect x="0" y="0" width="100" height="100" fill="white"/>
<g transform="translate(0,0)">
<svg width="100" height="100" x="0" y="0" viewBox="0 0 506.902 433.112"
font-family="sans-serif" stroke="rgb(0,0,0)" stroke-width="2"  stroke-linecap="round">
<line x1="218.7" y1="216.1" x2="258.4" y2="229.0" stroke="rgb(0,0,0)"  stroke-width="2.0"/>
<line x1="317.2" y1="332.1" x2="302.9" y2="357.0" stroke="rgb(0,0,0)"  stroke-width="2.0"/>
<line x1="305.5" y1="355.5" x2="319.8" y2="380.4" stroke="rgb(0,0,0)"  stroke-width="2.0"/>
<line x1="300.3" y1="358.5" x2="314.6" y2="383.4" stroke="rgb(0,0,0)"  stroke-width="2.0"/>
<line x1="302.9" y1="357.0" x2="274.1" y2="357.0" stroke="rgb(0,0,0)"  stroke-width="2.0"/>
<line x1="254.6" y1="345.7" x2="246.8" y2="332.1" stroke="rgb(0,0,0)"  stroke-width="2.0"/>
<line x1="435.9" y1="331.5" x2="457.2" y2="350.7" stroke="rgb(0,0,0)"  stroke-width="2.0"/>
<line x1="159.7" y1="119.4" x2="181.0" y2="100.2" stroke="rgb(0,0,0)"  stroke-width="2.0"/>
<line x1="163.7" y1="123.9" x2="185.0" y2="104.6" stroke="rgb(0,0,0)"  stroke-width="2.0"/>
<line x1="119.3" y1="96.0" x2="116.0" y2="80.6" stroke="rgb(0,0,0)"  stroke-width="2.0"/>
<line x1="123.0" y1="59.2" x2="134.7" y2="48.7" stroke="rgb(0,0,0)"  stroke-width="2.0"/>
<line x1="90.1" y1="139.5" x2="62.8" y2="130.6" stroke="rgb(0,0,0)"  stroke-width="2.0"/>
<line x1="91.9" y1="133.8" x2="64.6" y2="124.9" stroke="rgb(0,0,0)"  stroke-width="2.0"/>
<line x1="81.2" y1="203.8" x2="52.8" y2="199.0" stroke="rgb(0,0,0)"  stroke-width="2.0"/>
<line x1="129.8" y1="278.2" x2="108.1" y2="297.0" stroke="rgb(0,0,0)"  stroke-width="2.0"/>
<line x1="125.9" y1="273.7" x2="104.2" y2="292.5" stroke="rgb(0,0,0)"  stroke-width="2.0"/>
<line x1="156.1" y1="300.9" x2="156.7" y2="316.6" stroke="rgb(0,0,0)"  stroke-width="2.0"/>
<line x1="168.8" y1="335.7" x2="182.7" y2="342.9" stroke="rgb(0,0,0)"  stroke-width="2.0"/>
<line x1="184.0" y1="271.3" x2="207.1" y2="288.3" stroke="rgb(0,0,0)"  stroke-width="2.0"/>
<line x1="180.4" y1="276.2" x2="203.6" y2="293.1" stroke="rgb(0,0,0)"  stroke-width="2.0"/>
<line x1="365.2" y1="316.5" x2="373.9" y2="275.7" stroke="rgb(0,0,0)"  stroke-width="2.0"/>
<line x1="373.9" y1="275.7" x2="337.8" y2="254.8" stroke="rgb(0,0,0)"  stroke-width="2.0"/>
<line x1="337.8" y1="254.8" x2="306.7" y2="282.7" stroke="rgb(0,0,0)"  stroke-width="2.0"/>
<line x1="338.1" y1="264.2" x2="316.0" y2="284.1" stroke="rgb(0,0,0)"  stroke-width="2.0"/>
<line x1="306.7" y1="282.7" x2="318.4" y2="309.0" stroke="rgb(0,0,0)"  stroke-width="2.0"/>
<line x1="336.6" y1="319.5" x2="365.2" y2="316.5" stroke="rgb(0,0,0)"  stroke-width="2.0"/>
<line x1="337.8" y1="254.8" x2="329.1" y2="214.0" stroke="rgb(0,0,0)"  stroke-width="2.0"/>
<line x1="329.1" y1="214.0" x2="289.4" y2="201.1" stroke="rgb(0,0,0)"  stroke-width="2.0"/>
<line x1="321.1" y1="219.0" x2="292.9" y2="209.8" stroke="rgb(0,0,0)"  stroke-width="2.0"/>
<line x1="289.4" y1="201.1" x2="258.4" y2="229.0" stroke="rgb(0,0,0)"  stroke-width="2.0"/>
<line x1="258.4" y1="229.0" x2="267.1" y2="269.8" stroke="rgb(0,0,0)"  stroke-width="2.0"/>
<line x1="266.7" y1="233.4" x2="272.9" y2="262.5" stroke="rgb(0,0,0)"  stroke-width="2.0"/>
<line x1="267.1" y1="269.8" x2="306.7" y2="282.7" stroke="rgb(0,0,0)"  stroke-width="2.0"/>
<line x1="396.2" y1="344.4" x2="365.2" y2="316.5" stroke="rgb(0,0,0)"  stroke-width="2.0"/>
<line x1="396.6" y1="335.0" x2="374.5" y2="315.1" stroke="rgb(0,0,0)"  stroke-width="2.0"/>
<line x1="373.9" y1="275.7" x2="413.6" y2="262.8" stroke="rgb(0,0,0)"  stroke-width="2.0"/>
<line x1="381.8" y1="280.7" x2="410.1" y2="271.5" stroke="rgb(0,0,0)"  stroke-width="2.0"/>
<line x1="413.6" y1="262.8" x2="444.6" y2="290.7" stroke="rgb(0,0,0)"  stroke-width="2.0"/>
<line x1="444.6" y1="290.7" x2="435.9" y2="331.5" stroke="rgb(0,0,0)"  stroke-width="2.0"/>
<line x1="436.3" y1="295.1" x2="430.1" y2="324.1" stroke="rgb(0,0,0)"  stroke-width="2.0"/>
<line x1="435.9" y1="331.5" x2="396.2" y2="344.4" stroke="rgb(0,0,0)"  stroke-width="2.0"/>
<line x1="170.4" y1="162.4" x2="139.4" y2="190.3" stroke="rgb(0,0,0)"  stroke-width="2.0"/>
<line x1="170.7" y1="171.8" x2="148.6" y2="191.7" stroke="rgb(0,0,0)"  stroke-width="2.0"/>
<line x1="139.4" y1="190.3" x2="148.0" y2="231.2" stroke="rgb(0,0,0)"  stroke-width="2.0"/>
<line x1="148.0" y1="231.2" x2="187.7" y2="244.1" stroke="rgb(0,0,0)"  stroke-width="2.0"/>
<line x1="156.0" y1="226.2" x2="184.2" y2="235.4" stroke="rgb(0,0,0)"  stroke-width="2.0"/>
<line x1="187.7" y1="244.1" x2="218.7" y2="216.1" stroke="rgb(0,0,0)"  stroke-width="2.0"/>
<line x1="218.7" y1="216.1" x2="210.0" y2="175.3" stroke="rgb(0,0,0)"  stroke-width="2.0"/>
<line x1="210.4" y1="211.8" x2="204.2" y2="182.7" stroke="rgb(0,0,0)"  stroke-width="2.0"/>
<line x1="210.0" y1="175.3" x2="170.4" y2="162.4" stroke="rgb(0,0,0)"  stroke-width="2.0"/>
<line x1="91.0" y1="136.6" x2="99.7" y2="177.5" stroke="rgb(0,0,0)"  stroke-width="2.0"/>
<line x1="99.7" y1="177.5" x2="139.4" y2="190.3" stroke="rgb(0,0,0)"  stroke-width="2.0"/>
<line x1="170.4" y1="162.4" x2="161.7" y2="121.6" stroke="rgb(0,0,0)"  stroke-width="2.0"/>
<line x1="161.7" y1="121.6" x2="134.4" y2="112.7" stroke="rgb(0,0,0)"  stroke-width="2.0"/>
<line x1="112.3" y1="117.4" x2="91.0" y2="136.6" stroke="rgb(0,0,0)"  stroke-width="2.0"/>
<line x1="90.2" y1="234.6" x2="119.9" y2="246.8" stroke="rgb(0,0,0)"  stroke-width="2.0"/>
<line x1="98.5" y1="230.2" x2="117.1" y2="237.9" stroke="rgb(0,0,0)"  stroke-width="2.0"/>
<line x1="119.9" y1="246.8" x2="148.0" y2="231.2" stroke="rgb(0,0,0)"  stroke-width="2.0"/>
<line x1="99.7" y1="177.5" x2="81.2" y2="203.8" stroke="rgb(0,0,0)"  stroke-width="2.0"/>
<line x1="102.1" y1="186.5" x2="90.5" y2="203.0" stroke="rgb(0,0,0)"  stroke-width="2.0"/>
<line x1="81.2" y1="203.8" x2="90.2" y2="234.6" stroke="rgb(0,0,0)"  stroke-width="2.0"/>
<line x1="167.0" y1="281.8" x2="182.2" y2="273.7" stroke="rgb(0,0,0)"  stroke-width="2.0"/>
<line x1="182.2" y1="273.7" x2="187.7" y2="244.1" stroke="rgb(0,0,0)"  stroke-width="2.0"/>
<line x1="119.9" y1="246.8" x2="127.8" y2="276.0" stroke="rgb(0,0,0)"  stroke-width="2.0"/>
<line x1="127.8" y1="276.0" x2="143.6" y2="282.8" stroke="rgb(0,0,0)"  stroke-width="2.0"/>
<text x="186.688149" y="101.703443" fill="rgb(255,12,12)"  stroke="rgb(255,12,12)" stroke-width="1" font-size="16" >O</text>
<text x="116.002205" y="116.728204" fill="rgb(12,12,255)"  stroke="rgb(12,12,255)" stroke-width="1" font-size="16" >N</text>
<text x="107.327655" y="75.917655" fill="rgb(255,12,12)"  stroke="rgb(255,12,12)" stroke-width="1" font-size="16" >O</text>
<text x="140.333352" y="48.000000" fill="rgb(102,102,102)"  stroke="rgb(102,102,102)" stroke-width="1" font-size="16" >CH</text>
<text x="164.333352" y="51.680000" fill="rgb(102,102,102)"  stroke="rgb(102,102,102)" stroke-width="1" font-size="13" >3</text>
<text x="45.316261" y="131.752965" fill="rgb(255,12,12)"  stroke="rgb(255,12,12)" stroke-width="1" font-size="16" >O</text>
<text x="34.000000" y="204.920223" fill="rgb(191,191,191)"  stroke="rgb(191,191,191)" stroke-width="1" font-size="16" >H</text>
<text x="90.318453" y="311.275431" fill="rgb(255,12,12)"  stroke="rgb(255,12,12)" stroke-width="1" font-size="16" >O</text>
<text x="149.557342" y="295.927721" fill="rgb(12,12,255)"  stroke="rgb(12,12,255)" stroke-width="1" font-size="16" >N</text>
<text x="151.260739" y="337.615215" fill="rgb(255,12,12)"  stroke="rgb(255,12,12)" stroke-width="1" font-size="16" >O</text>
<text x="190.214866" y="356.983777" fill="rgb(102,102,102)"  stroke="rgb(102,102,102)" stroke-width="1" font-size="16" >CH</text>
<text x="214.214866" y="360.663777" fill="rgb(102,102,102)"  stroke="rgb(102,102,102)" stroke-width="1" font-size="13" >3</text>
<text x="209.850905" y="306.391204" fill="rgb(255,12,12)"  stroke="rgb(255,12,12)" stroke-width="1" font-size="16" >O</text>
<text x="317.716823" y="328.846625" fill="rgb(12,12,255)"  stroke="rgb(12,12,255)" stroke-width="1" font-size="16" >N</text>
<text x="317.716823" y="401.111735" fill="rgb(255,12,12)"  stroke="rgb(255,12,12)" stroke-width="1" font-size="16" >O</text>
<text x="255.133402" y="364.979180" fill="rgb(255,12,12)"  stroke="rgb(255,12,12)" stroke-width="1" font-size="16" >O</text>
<text x="214.272261" y="328.846625" fill="rgb(102,102,102)"  stroke="rgb(102,102,102)" stroke-width="1" font-size="16" >H</text>
<text x="226.272261" y="332.526625" fill="rgb(102,102,102)"  stroke="rgb(102,102,102)" stroke-width="1" font-size="13" >3</text>
<text x="232.772261" y="328.846625" fill="rgb(102,102,102)"  stroke="rgb(102,102,102)" stroke-width="1" font-size="16" >C</text>
<text x="460.902185" y="367.427876" fill="rgb(191,191,191)"  stroke="rgb(191,191,191)" stroke-width="1" font-size="16" >H</text>
</svg>
</g>
<text font-size="18.000000" fill ="black" font-family="sans-serif"
x="10.000000" y="20.000000" ></text>
</svg>
