<?xml version="1.0"?>
<svg version="1.1" id="topsvg"
xmlns="http://www.w3.org/2000/svg" xmlns:xlink="http://www.w3.org/1999/xlink"
xmlns:cml="http://www.xml-cml.org/schema" x="0" y="0" width="200px" height="200px" viewBox="0 0 100 100">
<title> - Open Babel Depiction</title>
<rect x="0" y="0" width="100" height="100" fill="white"/>
<g transform="translate(0,0)">
<svg width="100" height="100" x="0" y="0" viewBox="0 0 439.878 277.433"
font-family="sans-serif" stroke="rgb(0,0,0)" stroke-width="2"  stroke-linecap="round">
<line x1="263.0" y1="149.7" x2="229.5" y2="169.2" stroke="rgb(0,0,0)"  stroke-width="2.0"/>
<line x1="206.9" y1="200.6" x2="214.9" y2="225.1" stroke="rgb(0,0,0)"  stroke-width="2.0"/>
<line x1="170.0" y1="188.8" x2="149.2" y2="204.0" stroke="rgb(0,0,0)"  stroke-width="2.0"/>
<line x1="169.8" y1="150.0" x2="138.4" y2="127.4" stroke="rgb(0,0,0)"  stroke-width="2.0"/>
<line x1="78.7" y1="108.2" x2="53.0" y2="108.3" stroke="rgb(0,0,0)"  stroke-width="2.0"/>
<line x1="101.4" y1="76.8" x2="93.4" y2="52.3" stroke="rgb(0,0,0)"  stroke-width="2.0"/>
<line x1="138.3" y1="88.6" x2="159.1" y2="73.4" stroke="rgb(0,0,0)"  stroke-width="2.0"/>
<line x1="333.9" y1="188.9" x2="334.0" y2="215.9" stroke="rgb(0,0,0)"  stroke-width="2.0"/>
<line x1="327.9" y1="188.9" x2="328.0" y2="215.9" stroke="rgb(0,0,0)"  stroke-width="2.0"/>
<line x1="376.4" y1="175.3" x2="388.6" y2="182.2" stroke="rgb(0,0,0)"  stroke-width="2.0"/>
<line x1="364.8" y1="130.1" x2="388.2" y2="116.6" stroke="rgb(0,0,0)"  stroke-width="2.0"/>
<line x1="293.9" y1="91.0" x2="293.9" y2="64.0" stroke="rgb(0,0,0)"  stroke-width="2.0"/>
<line x1="299.9" y1="90.9" x2="299.9" y2="63.9" stroke="rgb(0,0,0)"  stroke-width="2.0"/>
<line x1="251.4" y1="104.6" x2="239.3" y2="97.6" stroke="rgb(0,0,0)"  stroke-width="2.0"/>
<line x1="170.0" y1="188.8" x2="169.8" y2="150.0" stroke="rgb(0,0,0)"  stroke-width="2.0"/>
<line x1="177.2" y1="182.8" x2="177.1" y2="156.0" stroke="rgb(0,0,0)"  stroke-width="2.0"/>
<line x1="169.8" y1="150.0" x2="194.3" y2="142.0" stroke="rgb(0,0,0)"  stroke-width="2.0"/>
<line x1="214.3" y1="148.4" x2="229.5" y2="169.2" stroke="rgb(0,0,0)"  stroke-width="2.0"/>
<line x1="229.5" y1="169.2" x2="206.9" y2="200.6" stroke="rgb(0,0,0)"  stroke-width="2.0"/>
<line x1="220.2" y1="169.9" x2="204.5" y2="191.6" stroke="rgb(0,0,0)"  stroke-width="2.0"/>
<line x1="206.9" y1="200.6" x2="170.0" y2="188.8" stroke="rgb(0,0,0)"  stroke-width="2.0"/>
<line x1="78.7" y1="108.2" x2="101.4" y2="76.8" stroke="rgb(0,0,0)"  stroke-width="2.0"/>
<line x1="88.1" y1="107.6" x2="103.7" y2="85.9" stroke="rgb(0,0,0)"  stroke-width="2.0"/>
<line x1="101.4" y1="76.8" x2="138.3" y2="88.6" stroke="rgb(0,0,0)"  stroke-width="2.0"/>
<line x1="138.3" y1="88.6" x2="138.4" y2="127.4" stroke="rgb(0,0,0)"  stroke-width="2.0"/>
<line x1="131.1" y1="94.7" x2="131.2" y2="121.4" stroke="rgb(0,0,0)"  stroke-width="2.0"/>
<line x1="138.4" y1="127.4" x2="114.0" y2="135.4" stroke="rgb(0,0,0)"  stroke-width="2.0"/>
<line x1="93.9" y1="129.0" x2="78.7" y2="108.2" stroke="rgb(0,0,0)"  stroke-width="2.0"/>
<line x1="330.9" y1="188.9" x2="353.9" y2="175.5" stroke="rgb(0,0,0)"  stroke-width="2.0"/>
<line x1="365.0" y1="155.9" x2="364.8" y2="130.1" stroke="rgb(0,0,0)"  stroke-width="2.0"/>
<line x1="364.8" y1="130.1" x2="330.9" y2="110.5" stroke="rgb(0,0,0)"  stroke-width="2.0"/>
<line x1="356.0" y1="133.4" x2="332.5" y2="119.8" stroke="rgb(0,0,0)"  stroke-width="2.0"/>
<line x1="330.9" y1="110.5" x2="297.0" y2="169.3" stroke="rgb(0,0,0)"  stroke-width="2.0"/>
<line x1="297.0" y1="169.3" x2="330.9" y2="188.9" stroke="rgb(0,0,0)"  stroke-width="2.0"/>
<line x1="330.9" y1="110.5" x2="296.9" y2="90.9" stroke="rgb(0,0,0)"  stroke-width="2.0"/>
<line x1="296.9" y1="90.9" x2="274.0" y2="104.4" stroke="rgb(0,0,0)"  stroke-width="2.0"/>
<line x1="262.8" y1="124.0" x2="263.0" y2="149.7" stroke="rgb(0,0,0)"  stroke-width="2.0"/>
<line x1="263.0" y1="149.7" x2="297.0" y2="169.3" stroke="rgb(0,0,0)"  stroke-width="2.0"/>
<line x1="271.8" y1="146.5" x2="295.4" y2="160.1" stroke="rgb(0,0,0)"  stroke-width="2.0"/>
<text x="201.969883" y="99.208549" fill="rgb(102,102,102)"  stroke="rgb(102,102,102)" stroke-width="1" font-size="16" >H</text>
<text x="213.969883" y="102.888549" fill="rgb(102,102,102)"  stroke="rgb(102,102,102)" stroke-width="1" font-size="13" >3</text>
<text x="220.469883" y="99.208549" fill="rgb(102,102,102)"  stroke="rgb(102,102,102)" stroke-width="1" font-size="16" >C</text>
<text x="256.742291" y="118.979225" fill="rgb(12,12,255)"  stroke="rgb(12,12,255)" stroke-width="1" font-size="16" >N</text>
<text x="290.822459" y="58.948869" fill="rgb(255,12,12)"  stroke="rgb(255,12,12)" stroke-width="1" font-size="16" >O</text>
<text x="393.403554" y="118.021556" fill="rgb(191,191,191)"  stroke="rgb(191,191,191)" stroke-width="1" font-size="16" >H</text>
<text x="395.877927" y="196.654230" fill="rgb(102,102,102)"  stroke="rgb(102,102,102)" stroke-width="1" font-size="16" >CH</text>
<text x="419.877927" y="200.334230" fill="rgb(102,102,102)"  stroke="rgb(102,102,102)" stroke-width="1" font-size="13" >3</text>
<text x="359.105519" y="176.883553" fill="rgb(12,12,255)"  stroke="rgb(12,12,255)" stroke-width="1" font-size="16" >N</text>
<text x="325.025351" y="236.913909" fill="rgb(255,12,12)"  stroke="rgb(255,12,12)" stroke-width="1" font-size="16" >O</text>
<text x="163.551331" y="73.763286" fill="rgb(191,191,191)"  stroke="rgb(191,191,191)" stroke-width="1" font-size="16" >H</text>
<text x="83.301044" y="48.000000" fill="rgb(127,178,255)"  stroke="rgb(127,178,255)" stroke-width="1" font-size="16" >F</text>
<text x="34.000000" y="116.361265" fill="rgb(191,191,191)"  stroke="rgb(191,191,191)" stroke-width="1" font-size="16" >H</text>
<text x="95.622649" y="147.487129" fill="rgb(178,178,0)"  stroke="rgb(178,178,0)" stroke-width="1" font-size="16" >S</text>
<text x="200.650511" y="145.945945" fill="rgb(178,178,0)"  stroke="rgb(178,178,0)" stroke-width="1" font-size="16" >S</text>
<text x="132.721829" y="219.669787" fill="rgb(191,191,191)"  stroke="rgb(191,191,191)" stroke-width="1" font-size="16" >H</text>
<text x="212.972116" y="245.433074" fill="rgb(127,178,255)"  stroke="rgb(127,178,255)" stroke-width="1" font-size="16" >F</text>
</svg>
</g>
<text font-size="18.000000" fill ="black" font-family="sans-serif"
x="10.000000" y="20.000000" ></text>
</svg>
