<?xml version="1.0"?>
<svg version="1.1" id="topsvg"
xmlns="http://www.w3.org/2000/svg" xmlns:xlink="http://www.w3.org/1999/xlink"
xmlns:cml="http://www.xml-cml.org/schema" x="0" y="0" width="200px" height="200px" viewBox="0 0 100 100">
<title> - Open Babel Depiction</title>
<rect x="0" y="0" width="100" height="100" fill="white"/>
<g transform="translate(0,0)">
<svg width="100" height="100" x="0" y="0" viewBox="0 0 446.304 296.89"
font-family="sans-serif" stroke="rgb(0,0,0)" stroke-width="2"  stroke-linecap="round">
<line x1="133.9" y1="148.4" x2="173.9" y2="148.4" stroke="rgb(0,0,0)"  stroke-width="2.0"/>
<line x1="197.4" y1="116.1" x2="185.1" y2="78.0" stroke="rgb(0,0,0)"  stroke-width="2.0"/>
<line x1="185.1" y1="78.0" x2="176.7" y2="52.4" stroke="rgb(0,0,0)"  stroke-width="2.0"/>
<line x1="181.1" y1="79.3" x2="172.7" y2="53.7" stroke="rgb(0,0,0)"  stroke-width="2.0"/>
<line x1="189.1" y1="76.7" x2="180.7" y2="51.1" stroke="rgb(0,0,0)"  stroke-width="2.0"/>
<line x1="270.1" y1="108.4" x2="270.1" y2="81.4" stroke="rgb(0,0,0)"  stroke-width="2.0"/>
<line x1="281.4" y1="61.9" x2="293.5" y2="54.9" stroke="rgb(0,0,0)"  stroke-width="2.0"/>
<line x1="366.3" y1="148.4" x2="393.3" y2="148.4" stroke="rgb(0,0,0)"  stroke-width="2.0"/>
<line x1="342.8" y1="180.8" x2="355.2" y2="218.8" stroke="rgb(0,0,0)"  stroke-width="2.0"/>
<line x1="355.2" y1="218.8" x2="363.5" y2="244.5" stroke="rgb(0,0,0)"  stroke-width="2.0"/>
<line x1="359.1" y1="217.6" x2="367.5" y2="243.2" stroke="rgb(0,0,0)"  stroke-width="2.0"/>
<line x1="351.2" y1="220.1" x2="359.5" y2="245.8" stroke="rgb(0,0,0)"  stroke-width="2.0"/>
<line x1="270.1" y1="188.4" x2="270.1" y2="215.4" stroke="rgb(0,0,0)"  stroke-width="2.0"/>
<line x1="281.4" y1="234.9" x2="293.5" y2="241.9" stroke="rgb(0,0,0)"  stroke-width="2.0"/>
<line x1="72.4" y1="128.4" x2="50.5" y2="112.6" stroke="rgb(0,0,0)"  stroke-width="2.0"/>
<line x1="118.1" y1="105.2" x2="128.5" y2="95.8" stroke="rgb(0,0,0)"  stroke-width="2.0"/>
<line x1="122.1" y1="109.6" x2="132.5" y2="100.2" stroke="rgb(0,0,0)"  stroke-width="2.0"/>
<line x1="104.8" y1="104.0" x2="101.9" y2="90.3" stroke="rgb(0,0,0)"  stroke-width="2.0"/>
<line x1="110.6" y1="102.7" x2="107.7" y2="89.1" stroke="rgb(0,0,0)"  stroke-width="2.0"/>
<line x1="235.5" y1="128.4" x2="235.5" y2="168.4" stroke="rgb(0,0,0)"  stroke-width="2.0"/>
<line x1="235.5" y1="168.4" x2="209.8" y2="176.8" stroke="rgb(0,0,0)"  stroke-width="2.0"/>
<line x1="189.8" y1="170.3" x2="173.9" y2="148.4" stroke="rgb(0,0,0)"  stroke-width="2.0"/>
<line x1="173.9" y1="148.4" x2="197.4" y2="116.1" stroke="rgb(0,0,0)"  stroke-width="2.0"/>
<line x1="183.3" y1="147.8" x2="199.7" y2="125.2" stroke="rgb(0,0,0)"  stroke-width="2.0"/>
<line x1="197.4" y1="116.1" x2="235.5" y2="128.4" stroke="rgb(0,0,0)"  stroke-width="2.0"/>
<line x1="366.3" y1="148.4" x2="342.8" y2="180.8" stroke="rgb(0,0,0)"  stroke-width="2.0"/>
<line x1="357.0" y1="149.1" x2="340.5" y2="171.7" stroke="rgb(0,0,0)"  stroke-width="2.0"/>
<line x1="342.8" y1="180.8" x2="304.8" y2="168.4" stroke="rgb(0,0,0)"  stroke-width="2.0"/>
<line x1="304.8" y1="168.4" x2="304.8" y2="128.4" stroke="rgb(0,0,0)"  stroke-width="2.0"/>
<line x1="312.0" y1="162.4" x2="312.0" y2="134.4" stroke="rgb(0,0,0)"  stroke-width="2.0"/>
<line x1="304.8" y1="128.4" x2="330.4" y2="120.1" stroke="rgb(0,0,0)"  stroke-width="2.0"/>
<line x1="350.4" y1="126.6" x2="366.3" y2="148.4" stroke="rgb(0,0,0)"  stroke-width="2.0"/>
<line x1="304.8" y1="168.4" x2="270.1" y2="188.4" stroke="rgb(0,0,0)"  stroke-width="2.0"/>
<line x1="270.1" y1="188.4" x2="235.5" y2="168.4" stroke="rgb(0,0,0)"  stroke-width="2.0"/>
<line x1="268.5" y1="179.2" x2="244.3" y2="165.2" stroke="rgb(0,0,0)"  stroke-width="2.0"/>
<line x1="235.5" y1="128.4" x2="270.1" y2="108.4" stroke="rgb(0,0,0)"  stroke-width="2.0"/>
<line x1="244.3" y1="131.7" x2="268.5" y2="117.7" stroke="rgb(0,0,0)"  stroke-width="2.0"/>
<line x1="270.1" y1="108.4" x2="304.8" y2="128.4" stroke="rgb(0,0,0)"  stroke-width="2.0"/>
<line x1="72.4" y1="168.4" x2="72.4" y2="128.4" stroke="rgb(0,0,0)"  stroke-width="2.0"/>
<line x1="79.6" y1="162.4" x2="79.6" y2="134.4" stroke="rgb(0,0,0)"  stroke-width="2.0"/>
<line x1="72.4" y1="128.4" x2="98.0" y2="120.1" stroke="rgb(0,0,0)"  stroke-width="2.0"/>
<line x1="118.0" y1="126.6" x2="133.9" y2="148.4" stroke="rgb(0,0,0)"  stroke-width="2.0"/>
<line x1="133.9" y1="148.4" x2="110.4" y2="180.8" stroke="rgb(0,0,0)"  stroke-width="2.0"/>
<line x1="124.6" y1="149.1" x2="108.1" y2="171.7" stroke="rgb(0,0,0)"  stroke-width="2.0"/>
<line x1="110.4" y1="180.8" x2="72.4" y2="168.4" stroke="rgb(0,0,0)"  stroke-width="2.0"/>
<text x="96.086473" y="84.958617" fill="rgb(255,12,12)"  stroke="rgb(255,12,12)" stroke-width="1" font-size="16" >O</text>
<text x="134.128733" y="97.319297" fill="rgb(255,12,12)"  stroke="rgb(255,12,12)" stroke-width="1" font-size="16" >O</text>
<text x="104.402940" y="124.084521" fill="rgb(178,178,0)"  stroke="rgb(178,178,0)" stroke-width="1" font-size="16" >S</text>
<text x="34.000000" y="112.933791" fill="rgb(191,191,191)"  stroke="rgb(191,191,191)" stroke-width="1" font-size="16" >H</text>
<text x="191.425761" y="188.805881" fill="rgb(178,178,0)"  stroke="rgb(178,178,0)" stroke-width="1" font-size="16" >S</text>
<text x="300.750054" y="256.445201" fill="rgb(102,102,102)"  stroke="rgb(102,102,102)" stroke-width="1" font-size="16" >CH</text>
<text x="324.750054" y="260.125201" fill="rgb(102,102,102)"  stroke="rgb(102,102,102)" stroke-width="1" font-size="13" >3</text>
<text x="264.109037" y="236.445201" fill="rgb(255,12,12)"  stroke="rgb(255,12,12)" stroke-width="1" font-size="16" >O</text>
<text x="361.513674" y="264.890402" fill="rgb(12,12,255)"  stroke="rgb(12,12,255)" stroke-width="1" font-size="16" >N</text>
<text x="400.303724" y="156.445201" fill="rgb(191,191,191)"  stroke="rgb(191,191,191)" stroke-width="1" font-size="16" >H</text>
<text x="336.792314" y="124.084521" fill="rgb(178,178,0)"  stroke="rgb(178,178,0)" stroke-width="1" font-size="16" >S</text>
<text x="300.750054" y="56.445201" fill="rgb(102,102,102)"  stroke="rgb(102,102,102)" stroke-width="1" font-size="16" >CH</text>
<text x="324.750054" y="60.125201" fill="rgb(102,102,102)"  stroke="rgb(102,102,102)" stroke-width="1" font-size="13" >3</text>
<text x="264.109037" y="76.445201" fill="rgb(255,12,12)"  stroke="rgb(255,12,12)" stroke-width="1" font-size="16" >O</text>
<text x="166.704401" y="48.000000" fill="rgb(12,12,255)"  stroke="rgb(12,12,255)" stroke-width="1" font-size="16" >N</text>
</svg>
</g>
<text font-size="18.000000" fill ="black" font-family="sans-serif"
x="10.000000" y="20.000000" ></text>
</svg>
