<?xml version="1.0"?>
<svg version="1.1" id="topsvg"
xmlns="http://www.w3.org/2000/svg" xmlns:xlink="http://www.w3.org/1999/xlink"
xmlns:cml="http://www.xml-cml.org/schema" x="0" y="0" width="200px" height="200px" viewBox="0 0 100 100">
<title> - Open Babel Depiction</title>
<rect x="0" y="0" width="100" height="100" fill="white"/>
<g transform="translate(0,0)">
<svg width="100" height="100" x="0" y="0" viewBox="0 0 364.39 337.538"
font-family="sans-serif" stroke="rgb(0,0,0)" stroke-width="2"  stroke-linecap="round">
<line x1="144.6" y1="135.2" x2="126.1" y2="167.1" stroke="rgb(0,0,0)"  stroke-width="2.0"/>
<line x1="89.4" y1="171.0" x2="64.7" y2="143.6" stroke="rgb(0,0,0)"  stroke-width="2.0"/>
<line x1="64.7" y1="143.6" x2="48.7" y2="125.8" stroke="rgb(0,0,0)"  stroke-width="2.0"/>
<line x1="61.6" y1="146.4" x2="45.6" y2="128.6" stroke="rgb(0,0,0)"  stroke-width="2.0"/>
<line x1="67.8" y1="140.8" x2="51.8" y2="123.0" stroke="rgb(0,0,0)"  stroke-width="2.0"/>
<line x1="69.3" y1="265.6" x2="57.4" y2="286.3" stroke="rgb(0,0,0)"  stroke-width="2.0"/>
<line x1="106.0" y1="261.7" x2="198.0" y2="166.7" stroke="rgb(0,0,0)"  stroke-width="2.0"/>
<line x1="198.0" y1="166.7" x2="174.1" y2="166.7" stroke="rgb(0,0,0)"  stroke-width="2.0"/>
<line x1="198.0" y1="170.9" x2="174.1" y2="170.9" stroke="rgb(0,0,0)"  stroke-width="2.0"/>
<line x1="198.0" y1="162.5" x2="174.1" y2="162.5" stroke="rgb(0,0,0)"  stroke-width="2.0"/>
<line x1="216.3" y1="149.5" x2="218.8" y2="173.2" stroke="rgb(0,0,0)"  stroke-width="2.0"/>
<line x1="210.3" y1="150.1" x2="212.8" y2="173.9" stroke="rgb(0,0,0)"  stroke-width="2.0"/>
<line x1="253.5" y1="127.8" x2="276.9" y2="132.7" stroke="rgb(0,0,0)"  stroke-width="2.0"/>
<line x1="274.6" y1="130.7" x2="290.6" y2="112.9" stroke="rgb(0,0,0)"  stroke-width="2.0"/>
<line x1="279.1" y1="134.7" x2="295.1" y2="117.0" stroke="rgb(0,0,0)"  stroke-width="2.0"/>
<line x1="276.9" y1="132.7" x2="284.3" y2="155.5" stroke="rgb(0,0,0)"  stroke-width="2.0"/>
<line x1="301.0" y1="170.6" x2="311.7" y2="172.8" stroke="rgb(0,0,0)"  stroke-width="2.0"/>
<line x1="223.1" y1="89.8" x2="235.1" y2="69.1" stroke="rgb(0,0,0)"  stroke-width="2.0"/>
<line x1="228.3" y1="92.8" x2="240.3" y2="72.1" stroke="rgb(0,0,0)"  stroke-width="2.0"/>
<line x1="157.0" y1="76.7" x2="154.5" y2="52.9" stroke="rgb(0,0,0)"  stroke-width="2.0"/>
<line x1="81.7" y1="207.1" x2="113.7" y2="225.6" stroke="rgb(0,0,0)"  stroke-width="2.0"/>
<line x1="90.5" y1="203.9" x2="112.1" y2="216.3" stroke="rgb(0,0,0)"  stroke-width="2.0"/>
<line x1="113.7" y1="225.6" x2="131.5" y2="209.6" stroke="rgb(0,0,0)"  stroke-width="2.0"/>
<line x1="135.9" y1="189.0" x2="126.1" y2="167.1" stroke="rgb(0,0,0)"  stroke-width="2.0"/>
<line x1="126.1" y1="167.1" x2="89.4" y2="171.0" stroke="rgb(0,0,0)"  stroke-width="2.0"/>
<line x1="120.9" y1="174.9" x2="96.1" y2="177.5" stroke="rgb(0,0,0)"  stroke-width="2.0"/>
<line x1="89.4" y1="171.0" x2="81.7" y2="207.1" stroke="rgb(0,0,0)"  stroke-width="2.0"/>
<line x1="69.3" y1="265.6" x2="106.0" y2="261.7" stroke="rgb(0,0,0)"  stroke-width="2.0"/>
<line x1="74.5" y1="257.8" x2="99.3" y2="255.2" stroke="rgb(0,0,0)"  stroke-width="2.0"/>
<line x1="106.0" y1="261.7" x2="113.7" y2="225.6" stroke="rgb(0,0,0)"  stroke-width="2.0"/>
<line x1="81.7" y1="207.1" x2="64.0" y2="223.1" stroke="rgb(0,0,0)"  stroke-width="2.0"/>
<line x1="59.6" y1="243.7" x2="69.3" y2="265.6" stroke="rgb(0,0,0)"  stroke-width="2.0"/>
<line x1="189.0" y1="95.2" x2="157.0" y2="76.7" stroke="rgb(0,0,0)"  stroke-width="2.0"/>
<line x1="180.2" y1="98.4" x2="158.6" y2="86.0" stroke="rgb(0,0,0)"  stroke-width="2.0"/>
<line x1="157.0" y1="76.7" x2="139.2" y2="92.7" stroke="rgb(0,0,0)"  stroke-width="2.0"/>
<line x1="134.9" y1="113.3" x2="144.6" y2="135.2" stroke="rgb(0,0,0)"  stroke-width="2.0"/>
<line x1="144.6" y1="135.2" x2="181.3" y2="131.3" stroke="rgb(0,0,0)"  stroke-width="2.0"/>
<line x1="149.8" y1="127.4" x2="174.6" y2="124.8" stroke="rgb(0,0,0)"  stroke-width="2.0"/>
<line x1="181.3" y1="131.3" x2="189.0" y2="95.2" stroke="rgb(0,0,0)"  stroke-width="2.0"/>
<line x1="213.3" y1="149.8" x2="231.1" y2="133.8" stroke="rgb(0,0,0)"  stroke-width="2.0"/>
<line x1="235.5" y1="113.2" x2="225.7" y2="91.3" stroke="rgb(0,0,0)"  stroke-width="2.0"/>
<line x1="225.7" y1="91.3" x2="189.0" y2="95.2" stroke="rgb(0,0,0)"  stroke-width="2.0"/>
<line x1="181.3" y1="131.3" x2="213.3" y2="149.8" stroke="rgb(0,0,0)"  stroke-width="2.0"/>
<text x="123.582161" y="109.430640" fill="rgb(178,178,0)"  stroke="rgb(178,178,0)" stroke-width="1" font-size="16" >S</text>
<text x="147.163175" y="48.000000" fill="rgb(191,191,191)"  stroke="rgb(191,191,191)" stroke-width="1" font-size="16" >H</text>
<text x="238.186499" y="67.347605" fill="rgb(255,12,12)"  stroke="rgb(255,12,12)" stroke-width="1" font-size="16" >O</text>
<text x="320.389757" y="183.530812" fill="rgb(102,102,102)"  stroke="rgb(102,102,102)" stroke-width="1" font-size="16" >CH</text>
<text x="344.389757" y="187.210812" fill="rgb(102,102,102)"  stroke="rgb(102,102,102)" stroke-width="1" font-size="13" >3</text>
<text x="282.271497" y="175.853639" fill="rgb(255,12,12)"  stroke="rgb(255,12,12)" stroke-width="1" font-size="16" >O</text>
<text x="295.568751" y="113.294978" fill="rgb(255,12,12)"  stroke="rgb(255,12,12)" stroke-width="1" font-size="16" >O</text>
<text x="234.742735" y="133.058549" fill="rgb(12,12,255)"  stroke="rgb(12,12,255)" stroke-width="1" font-size="16" >N</text>
<text x="211.161721" y="194.489189" fill="rgb(255,12,12)"  stroke="rgb(255,12,12)" stroke-width="1" font-size="16" >O</text>
<text x="135.157214" y="208.874399" fill="rgb(178,178,0)"  stroke="rgb(178,178,0)" stroke-width="1" font-size="16" >S</text>
<text x="155.088738" y="174.677049" fill="rgb(12,12,255)"  stroke="rgb(12,12,255)" stroke-width="1" font-size="16" >N</text>
<text x="44.853832" y="305.538276" fill="rgb(191,191,191)"  stroke="rgb(191,191,191)" stroke-width="1" font-size="16" >H</text>
<text x="48.297597" y="239.827331" fill="rgb(178,178,0)"  stroke="rgb(178,178,0)" stroke-width="1" font-size="16" >S</text>
<text x="34.000000" y="124.119827" fill="rgb(12,12,255)"  stroke="rgb(12,12,255)" stroke-width="1" font-size="16" >N</text>
</svg>
</g>
<text font-size="18.000000" fill ="black" font-family="sans-serif"
x="10.000000" y="20.000000" ></text>
</svg>
