<?xml version="1.0"?>
<svg version="1.1" id="topsvg"
xmlns="http://www.w3.org/2000/svg" xmlns:xlink="http://www.w3.org/1999/xlink"
xmlns:cml="http://www.xml-cml.org/schema" x="0" y="0" width="200px" height="200px" viewBox="0 0 100 100">
<title> - Open Babel Depiction</title>
<rect x="0" y="0" width="100" height="100" fill="white"/>
<g transform="translate(0,0)">
<svg width="100" height="100" x="0" y="0" viewBox="0 0 610.741 379.018"
font-family="sans-serif" stroke="rgb(0,0,0)" stroke-width="2"  stroke-linecap="round">
<line x1="272.2" y1="214.2" x2="306.9" y2="234.0" stroke="rgb(0,0,0)"  stroke-width="2.0"/>
<line x1="311.2" y1="273.6" x2="291.3" y2="291.7" stroke="rgb(0,0,0)"  stroke-width="2.0"/>
<line x1="350.3" y1="281.7" x2="361.3" y2="306.2" stroke="rgb(0,0,0)"  stroke-width="2.0"/>
<line x1="370.0" y1="247.1" x2="409.7" y2="242.7" stroke="rgb(0,0,0)"  stroke-width="2.0"/>
<line x1="412.1" y1="240.9" x2="435.7" y2="273.1" stroke="rgb(0,0,0)"  stroke-width="2.0"/>
<line x1="407.3" y1="244.5" x2="430.9" y2="276.6" stroke="rgb(0,0,0)"  stroke-width="2.0"/>
<line x1="433.3" y1="274.8" x2="472.9" y2="270.5" stroke="rgb(0,0,0)"  stroke-width="2.0"/>
<line x1="499.8" y1="300.0" x2="494.3" y2="326.3" stroke="rgb(0,0,0)"  stroke-width="2.0"/>
<line x1="536.1" y1="283.6" x2="559.4" y2="296.9" stroke="rgb(0,0,0)"  stroke-width="2.0"/>
<line x1="531.7" y1="243.9" x2="551.6" y2="225.8" stroke="rgb(0,0,0)"  stroke-width="2.0"/>
<line x1="171.0" y1="235.1" x2="171.1" y2="262.1" stroke="rgb(0,0,0)"  stroke-width="2.0"/>
<line x1="165.0" y1="235.1" x2="165.1" y2="262.1" stroke="rgb(0,0,0)"  stroke-width="2.0"/>
<line x1="122.4" y1="221.9" x2="99.3" y2="235.5" stroke="rgb(0,0,0)"  stroke-width="2.0"/>
<line x1="96.7" y1="237.0" x2="83.1" y2="214.0" stroke="rgb(0,0,0)"  stroke-width="2.0"/>
<line x1="101.9" y1="234.0" x2="88.3" y2="210.9" stroke="rgb(0,0,0)"  stroke-width="2.0"/>
<line x1="99.3" y1="235.5" x2="86.2" y2="258.8" stroke="rgb(0,0,0)"  stroke-width="2.0"/>
<line x1="66.8" y1="270.3" x2="53.0" y2="270.4" stroke="rgb(0,0,0)"  stroke-width="2.0"/>
<line x1="131.3" y1="177.5" x2="107.8" y2="164.3" stroke="rgb(0,0,0)"  stroke-width="2.0"/>
<line x1="134.3" y1="172.3" x2="110.8" y2="159.1" stroke="rgb(0,0,0)"  stroke-width="2.0"/>
<line x1="167.7" y1="114.5" x2="144.2" y2="101.3" stroke="rgb(0,0,0)"  stroke-width="2.0"/>
<line x1="268.5" y1="93.9" x2="268.3" y2="66.9" stroke="rgb(0,0,0)"  stroke-width="2.0"/>
<line x1="274.5" y1="93.8" x2="274.3" y2="66.8" stroke="rgb(0,0,0)"  stroke-width="2.0"/>
<line x1="317.7" y1="107.1" x2="341.2" y2="93.3" stroke="rgb(0,0,0)"  stroke-width="2.0"/>
<line x1="342.2" y1="90.5" x2="367.8" y2="99.8" stroke="rgb(0,0,0)"  stroke-width="2.0"/>
<line x1="340.1" y1="96.1" x2="365.7" y2="105.4" stroke="rgb(0,0,0)"  stroke-width="2.0"/>
<line x1="341.2" y1="93.3" x2="336.4" y2="66.5" stroke="rgb(0,0,0)"  stroke-width="2.0"/>
<line x1="321.9" y1="49.3" x2="308.6" y2="44.4" stroke="rgb(0,0,0)"  stroke-width="2.0"/>
<line x1="308.2" y1="151.5" x2="331.6" y2="164.8" stroke="rgb(0,0,0)"  stroke-width="2.0"/>
<line x1="305.2" y1="156.7" x2="328.7" y2="170.0" stroke="rgb(0,0,0)"  stroke-width="2.0"/>
<line x1="350.3" y1="281.7" x2="370.0" y2="247.1" stroke="rgb(0,0,0)"  stroke-width="2.0"/>
<line x1="347.0" y1="272.9" x2="360.8" y2="248.7" stroke="rgb(0,0,0)"  stroke-width="2.0"/>
<line x1="370.0" y1="247.1" x2="352.0" y2="227.2" stroke="rgb(0,0,0)"  stroke-width="2.0"/>
<line x1="331.4" y1="222.9" x2="306.9" y2="234.0" stroke="rgb(0,0,0)"  stroke-width="2.0"/>
<line x1="306.9" y1="234.0" x2="311.2" y2="273.6" stroke="rgb(0,0,0)"  stroke-width="2.0"/>
<line x1="314.7" y1="239.1" x2="317.7" y2="266.9" stroke="rgb(0,0,0)"  stroke-width="2.0"/>
<line x1="311.2" y1="273.6" x2="350.3" y2="281.7" stroke="rgb(0,0,0)"  stroke-width="2.0"/>
<line x1="536.1" y1="283.6" x2="531.7" y2="243.9" stroke="rgb(0,0,0)"  stroke-width="2.0"/>
<line x1="528.3" y1="278.4" x2="525.2" y2="250.7" stroke="rgb(0,0,0)"  stroke-width="2.0"/>
<line x1="531.7" y1="243.9" x2="505.4" y2="238.5" stroke="rgb(0,0,0)"  stroke-width="2.0"/>
<line x1="486.2" y1="247.1" x2="472.9" y2="270.5" stroke="rgb(0,0,0)"  stroke-width="2.0"/>
<line x1="472.9" y1="270.5" x2="499.8" y2="300.0" stroke="rgb(0,0,0)"  stroke-width="2.0"/>
<line x1="482.3" y1="270.1" x2="501.0" y2="290.7" stroke="rgb(0,0,0)"  stroke-width="2.0"/>
<line x1="499.8" y1="300.0" x2="536.1" y2="283.6" stroke="rgb(0,0,0)"  stroke-width="2.0"/>
<line x1="202.7" y1="214.9" x2="202.7" y2="174.3" stroke="rgb(0,0,0)"  stroke-width="2.0"/>
<line x1="209.9" y1="208.9" x2="209.9" y2="180.3" stroke="rgb(0,0,0)"  stroke-width="2.0"/>
<line x1="202.7" y1="174.3" x2="237.1" y2="154.2" stroke="rgb(0,0,0)"  stroke-width="2.0"/>
<line x1="237.1" y1="154.2" x2="272.0" y2="174.3" stroke="rgb(0,0,0)"  stroke-width="2.0"/>
<line x1="238.7" y1="163.4" x2="263.2" y2="177.6" stroke="rgb(0,0,0)"  stroke-width="2.0"/>
<line x1="272.0" y1="174.3" x2="272.2" y2="214.2" stroke="rgb(0,0,0)"  stroke-width="2.0"/>
<line x1="272.2" y1="214.2" x2="237.7" y2="234.4" stroke="rgb(0,0,0)"  stroke-width="2.0"/>
<line x1="263.4" y1="211.0" x2="239.3" y2="225.1" stroke="rgb(0,0,0)"  stroke-width="2.0"/>
<line x1="237.7" y1="234.4" x2="202.7" y2="214.9" stroke="rgb(0,0,0)"  stroke-width="2.0"/>
<line x1="132.8" y1="174.9" x2="167.5" y2="154.6" stroke="rgb(0,0,0)"  stroke-width="2.0"/>
<line x1="167.5" y1="154.6" x2="202.7" y2="174.3" stroke="rgb(0,0,0)"  stroke-width="2.0"/>
<line x1="202.7" y1="214.9" x2="168.0" y2="235.1" stroke="rgb(0,0,0)"  stroke-width="2.0"/>
<line x1="168.0" y1="235.1" x2="144.8" y2="221.8" stroke="rgb(0,0,0)"  stroke-width="2.0"/>
<line x1="133.3" y1="202.3" x2="132.8" y2="174.9" stroke="rgb(0,0,0)"  stroke-width="2.0"/>
<line x1="202.2" y1="94.4" x2="236.8" y2="114.1" stroke="rgb(0,0,0)"  stroke-width="2.0"/>
<line x1="203.8" y1="103.6" x2="228.0" y2="117.4" stroke="rgb(0,0,0)"  stroke-width="2.0"/>
<line x1="236.8" y1="114.1" x2="237.1" y2="154.2" stroke="rgb(0,0,0)"  stroke-width="2.0"/>
<line x1="167.5" y1="154.6" x2="167.7" y2="114.5" stroke="rgb(0,0,0)"  stroke-width="2.0"/>
<line x1="174.7" y1="148.7" x2="174.9" y2="120.6" stroke="rgb(0,0,0)"  stroke-width="2.0"/>
<line x1="167.7" y1="114.5" x2="202.2" y2="94.4" stroke="rgb(0,0,0)"  stroke-width="2.0"/>
<line x1="306.6" y1="126.6" x2="306.7" y2="154.1" stroke="rgb(0,0,0)"  stroke-width="2.0"/>
<line x1="306.7" y1="154.1" x2="272.0" y2="174.3" stroke="rgb(0,0,0)"  stroke-width="2.0"/>
<line x1="236.8" y1="114.1" x2="271.5" y2="93.8" stroke="rgb(0,0,0)"  stroke-width="2.0"/>
<line x1="271.5" y1="93.8" x2="295.2" y2="107.2" stroke="rgb(0,0,0)"  stroke-width="2.0"/>
<text x="265.225451" y="61.848898" fill="rgb(255,12,12)"  stroke="rgb(255,12,12)" stroke-width="1" font-size="16" >O</text>
<text x="73.090381" y="209.266054" fill="rgb(255,12,12)"  stroke="rgb(255,12,12)" stroke-width="1" font-size="16" >O</text>
<text x="73.766475" y="278.143609" fill="rgb(255,12,12)"  stroke="rgb(255,12,12)" stroke-width="1" font-size="16" >O</text>
<text x="14.000000" y="278.533952" fill="rgb(102,102,102)"  stroke="rgb(102,102,102)" stroke-width="1" font-size="16" >H</text>
<text x="26.000000" y="282.213952" fill="rgb(102,102,102)"  stroke="rgb(102,102,102)" stroke-width="1" font-size="13" >3</text>
<text x="32.500000" y="278.533952" fill="rgb(102,102,102)"  stroke="rgb(102,102,102)" stroke-width="1" font-size="16" >C</text>
<text x="91.948638" y="163.321393" fill="rgb(255,12,12)"  stroke="rgb(255,12,12)" stroke-width="1" font-size="16" >O</text>
<text x="126.828049" y="102.943532" fill="rgb(191,191,191)"  stroke="rgb(191,191,191)" stroke-width="1" font-size="16" >H</text>
<text x="300.479849" y="121.648596" fill="rgb(12,12,255)"  stroke="rgb(12,12,255)" stroke-width="1" font-size="16" >N</text>
<text x="372.956924" y="115.022078" fill="rgb(255,12,12)"  stroke="rgb(255,12,12)" stroke-width="1" font-size="16" >O</text>
<text x="328.142125" y="61.716081" fill="rgb(255,12,12)"  stroke="rgb(255,12,12)" stroke-width="1" font-size="16" >O</text>
<text x="270.346609" y="48.000000" fill="rgb(102,102,102)"  stroke="rgb(102,102,102)" stroke-width="1" font-size="16" >H</text>
<text x="282.346609" y="51.680000" fill="rgb(102,102,102)"  stroke="rgb(102,102,102)" stroke-width="1" font-size="13" >3</text>
<text x="288.846609" y="48.000000" fill="rgb(102,102,102)"  stroke="rgb(102,102,102)" stroke-width="1" font-size="16" >C</text>
<text x="335.455632" y="181.873469" fill="rgb(255,12,12)"  stroke="rgb(255,12,12)" stroke-width="1" font-size="16" >O</text>
<text x="485.663734" y="347.018301" fill="rgb(191,191,191)"  stroke="rgb(191,191,191)" stroke-width="1" font-size="16" >H</text>
<text x="275.731176" y="308.444453" fill="rgb(127,178,255)"  stroke="rgb(127,178,255)" stroke-width="1" font-size="16" >F</text>
<text x="360.684031" y="326.051319" fill="rgb(191,191,191)"  stroke="rgb(191,191,191)" stroke-width="1" font-size="16" >H</text>
<text x="337.208797" y="225.567426" fill="rgb(178,178,0)"  stroke="rgb(178,178,0)" stroke-width="1" font-size="16" >S</text>
<text x="564.741094" y="311.328520" fill="rgb(127,178,255)"  stroke="rgb(127,178,255)" stroke-width="1" font-size="16" >F</text>
<text x="555.234343" y="225.092733" fill="rgb(191,191,191)"  stroke="rgb(191,191,191)" stroke-width="1" font-size="16" >H</text>
<text x="486.686280" y="243.833739" fill="rgb(178,178,0)"  stroke="rgb(178,178,0)" stroke-width="1" font-size="16" >S</text>
<text x="162.150197" y="283.135697" fill="rgb(255,12,12)"  stroke="rgb(255,12,12)" stroke-width="1" font-size="16" >O</text>
<text x="127.555271" y="223.288375" fill="rgb(12,12,255)"  stroke="rgb(12,12,255)" stroke-width="1" font-size="16" >N</text>
</svg>
</g>
<text font-size="18.000000" fill ="black" font-family="sans-serif"
x="10.000000" y="20.000000" ></text>
</svg>
