<?xml version="1.0"?>
<svg version="1.1" id="topsvg"
xmlns="http://www.w3.org/2000/svg" xmlns:xlink="http://www.w3.org/1999/xlink"
xmlns:cml="http://www.xml-cml.org/schema" x="0" y="0" width="200px" height="200px" viewBox="0 0 100 100">
<title> - Open Babel Depiction</title>
<rect x="0" y="0" width="100" height="100" fill="white"/>
<g transform="translate(0,0)">
<svg width="100" height="100" x="0" y="0" viewBox="0 0 446.861 496.506"
font-family="sans-serif" stroke="rgb(0,0,0)" stroke-width="2"  stroke-linecap="round">
<line x1="219.3" y1="210.7" x2="198.4" y2="246.8" stroke="rgb(0,0,0)"  stroke-width="2.0"/>
<line x1="157.0" y1="251.1" x2="137.8" y2="229.8" stroke="rgb(0,0,0)"  stroke-width="2.0"/>
<line x1="112.2" y1="312.7" x2="87.4" y2="298.4" stroke="rgb(0,0,0)"  stroke-width="2.0"/>
<line x1="64.8" y1="298.4" x2="51.3" y2="306.2" stroke="rgb(0,0,0)"  stroke-width="2.0"/>
<line x1="98.2" y1="420.4" x2="83.8" y2="445.2" stroke="rgb(0,0,0)"  stroke-width="2.0"/>
<line x1="139.6" y1="416.0" x2="158.8" y2="437.4" stroke="rgb(0,0,0)"  stroke-width="2.0"/>
<line x1="184.4" y1="354.4" x2="209.2" y2="368.8" stroke="rgb(0,0,0)"  stroke-width="2.0"/>
<line x1="220.5" y1="388.3" x2="220.5" y2="404.0" stroke="rgb(0,0,0)"  stroke-width="2.0"/>
<line x1="326.1" y1="173.1" x2="340.4" y2="197.9" stroke="rgb(0,0,0)"  stroke-width="2.0"/>
<line x1="320.9" y1="176.1" x2="335.2" y2="200.9" stroke="rgb(0,0,0)"  stroke-width="2.0"/>
<line x1="357.3" y1="138.5" x2="373.0" y2="138.5" stroke="rgb(0,0,0)"  stroke-width="2.0"/>
<line x1="392.5" y1="127.2" x2="400.4" y2="113.6" stroke="rgb(0,0,0)"  stroke-width="2.0"/>
<line x1="320.9" y1="100.9" x2="335.2" y2="76.0" stroke="rgb(0,0,0)"  stroke-width="2.0"/>
<line x1="326.1" y1="103.9" x2="340.4" y2="79.0" stroke="rgb(0,0,0)"  stroke-width="2.0"/>
<line x1="259.9" y1="78.8" x2="270.4" y2="52.1" stroke="rgb(0,0,0)"  stroke-width="2.0"/>
<line x1="177.1" y1="110.9" x2="163.2" y2="85.8" stroke="rgb(0,0,0)"  stroke-width="2.0"/>
<line x1="182.3" y1="108.0" x2="168.4" y2="82.9" stroke="rgb(0,0,0)"  stroke-width="2.0"/>
<line x1="149.4" y1="131.8" x2="133.9" y2="129.2" stroke="rgb(0,0,0)"  stroke-width="2.0"/>
<line x1="116.6" y1="114.8" x2="111.2" y2="100.1" stroke="rgb(0,0,0)"  stroke-width="2.0"/>
<line x1="172.6" y1="165.3" x2="151.2" y2="184.4" stroke="rgb(0,0,0)"  stroke-width="2.0"/>
<line x1="168.6" y1="160.8" x2="147.2" y2="179.9" stroke="rgb(0,0,0)"  stroke-width="2.0"/>
<line x1="148.3" y1="291.9" x2="184.4" y2="312.7" stroke="rgb(0,0,0)"  stroke-width="2.0"/>
<line x1="184.4" y1="312.7" x2="205.7" y2="293.5" stroke="rgb(0,0,0)"  stroke-width="2.0"/>
<line x1="210.1" y1="273.0" x2="198.4" y2="246.8" stroke="rgb(0,0,0)"  stroke-width="2.0"/>
<line x1="198.4" y1="246.8" x2="157.0" y2="251.1" stroke="rgb(0,0,0)"  stroke-width="2.0"/>
<line x1="193.2" y1="254.6" x2="163.7" y2="257.7" stroke="rgb(0,0,0)"  stroke-width="2.0"/>
<line x1="157.0" y1="251.1" x2="148.3" y2="291.9" stroke="rgb(0,0,0)"  stroke-width="2.0"/>
<line x1="98.2" y1="420.4" x2="139.6" y2="416.0" stroke="rgb(0,0,0)"  stroke-width="2.0"/>
<line x1="103.4" y1="412.6" x2="132.9" y2="409.5" stroke="rgb(0,0,0)"  stroke-width="2.0"/>
<line x1="139.6" y1="416.0" x2="148.3" y2="375.3" stroke="rgb(0,0,0)"  stroke-width="2.0"/>
<line x1="148.3" y1="375.3" x2="112.2" y2="354.4" stroke="rgb(0,0,0)"  stroke-width="2.0"/>
<line x1="139.5" y1="378.5" x2="113.8" y2="363.7" stroke="rgb(0,0,0)"  stroke-width="2.0"/>
<line x1="112.2" y1="354.4" x2="90.9" y2="373.6" stroke="rgb(0,0,0)"  stroke-width="2.0"/>
<line x1="86.5" y1="394.2" x2="98.2" y2="420.4" stroke="rgb(0,0,0)"  stroke-width="2.0"/>
<line x1="148.3" y1="375.3" x2="184.4" y2="354.4" stroke="rgb(0,0,0)"  stroke-width="2.0"/>
<line x1="184.4" y1="354.4" x2="184.4" y2="312.7" stroke="rgb(0,0,0)"  stroke-width="2.0"/>
<line x1="177.2" y1="348.4" x2="177.2" y2="318.7" stroke="rgb(0,0,0)"  stroke-width="2.0"/>
<line x1="148.3" y1="291.9" x2="112.2" y2="312.7" stroke="rgb(0,0,0)"  stroke-width="2.0"/>
<line x1="146.7" y1="301.1" x2="121.0" y2="316.0" stroke="rgb(0,0,0)"  stroke-width="2.0"/>
<line x1="112.2" y1="312.7" x2="112.2" y2="354.4" stroke="rgb(0,0,0)"  stroke-width="2.0"/>
<line x1="281.8" y1="174.6" x2="261.0" y2="138.5" stroke="rgb(0,0,0)"  stroke-width="2.0"/>
<line x1="272.6" y1="173.0" x2="257.7" y2="147.3" stroke="rgb(0,0,0)"  stroke-width="2.0"/>
<line x1="261.0" y1="138.5" x2="219.3" y2="138.5" stroke="rgb(0,0,0)"  stroke-width="2.0"/>
<line x1="219.3" y1="138.5" x2="198.4" y2="174.6" stroke="rgb(0,0,0)"  stroke-width="2.0"/>
<line x1="222.5" y1="147.3" x2="207.7" y2="173.0" stroke="rgb(0,0,0)"  stroke-width="2.0"/>
<line x1="198.4" y1="174.6" x2="219.3" y2="210.7" stroke="rgb(0,0,0)"  stroke-width="2.0"/>
<line x1="219.3" y1="210.7" x2="261.0" y2="210.7" stroke="rgb(0,0,0)"  stroke-width="2.0"/>
<line x1="225.3" y1="203.5" x2="255.0" y2="203.5" stroke="rgb(0,0,0)"  stroke-width="2.0"/>
<line x1="261.0" y1="210.7" x2="281.8" y2="174.6" stroke="rgb(0,0,0)"  stroke-width="2.0"/>
<line x1="323.5" y1="102.4" x2="281.8" y2="102.4" stroke="rgb(0,0,0)"  stroke-width="2.0"/>
<line x1="281.8" y1="102.4" x2="261.0" y2="138.5" stroke="rgb(0,0,0)"  stroke-width="2.0"/>
<line x1="281.8" y1="174.6" x2="323.5" y2="174.6" stroke="rgb(0,0,0)"  stroke-width="2.0"/>
<line x1="323.5" y1="174.6" x2="337.8" y2="149.7" stroke="rgb(0,0,0)"  stroke-width="2.0"/>
<line x1="337.8" y1="127.2" x2="323.5" y2="102.4" stroke="rgb(0,0,0)"  stroke-width="2.0"/>
<line x1="227.9" y1="81.2" x2="209.8" y2="107.8" stroke="rgb(0,0,0)"  stroke-width="2.0"/>
<line x1="230.5" y1="90.2" x2="219.1" y2="106.9" stroke="rgb(0,0,0)"  stroke-width="2.0"/>
<line x1="209.8" y1="107.8" x2="219.3" y2="138.5" stroke="rgb(0,0,0)"  stroke-width="2.0"/>
<line x1="281.8" y1="102.4" x2="259.9" y2="78.8" stroke="rgb(0,0,0)"  stroke-width="2.0"/>
<line x1="272.4" y1="102.9" x2="258.7" y2="88.1" stroke="rgb(0,0,0)"  stroke-width="2.0"/>
<line x1="259.9" y1="78.8" x2="227.9" y2="81.2" stroke="rgb(0,0,0)"  stroke-width="2.0"/>
<line x1="165.8" y1="146.5" x2="170.6" y2="163.0" stroke="rgb(0,0,0)"  stroke-width="2.0"/>
<line x1="170.6" y1="163.0" x2="198.4" y2="174.6" stroke="rgb(0,0,0)"  stroke-width="2.0"/>
<line x1="209.8" y1="107.8" x2="179.7" y2="109.4" stroke="rgb(0,0,0)"  stroke-width="2.0"/>
<line x1="179.7" y1="109.4" x2="169.8" y2="123.4" stroke="rgb(0,0,0)"  stroke-width="2.0"/>
<text x="338.331847" y="218.664556" fill="rgb(255,12,12)"  stroke="rgb(255,12,12)" stroke-width="1" font-size="16" >O</text>
<text x="338.331847" y="146.461622" fill="rgb(12,12,255)"  stroke="rgb(12,12,255)" stroke-width="1" font-size="16" >N</text>
<text x="380.018230" y="146.461622" fill="rgb(255,12,12)"  stroke="rgb(255,12,12)" stroke-width="1" font-size="16" >O</text>
<text x="402.861421" y="110.360156" fill="rgb(102,102,102)"  stroke="rgb(102,102,102)" stroke-width="1" font-size="16" >CH</text>
<text x="426.861421" y="114.040156" fill="rgb(102,102,102)"  stroke="rgb(102,102,102)" stroke-width="1" font-size="13" >3</text>
<text x="338.331847" y="74.258689" fill="rgb(255,12,12)"  stroke="rgb(255,12,12)" stroke-width="1" font-size="16" >O</text>
<text x="269.175804" y="48.000000" fill="rgb(191,191,191)"  stroke="rgb(191,191,191)" stroke-width="1" font-size="16" >H</text>
<text x="153.535031" y="80.946896" fill="rgb(255,12,12)"  stroke="rgb(255,12,12)" stroke-width="1" font-size="16" >O</text>
<text x="156.228580" y="142.029641" fill="rgb(12,12,255)"  stroke="rgb(12,12,255)" stroke-width="1" font-size="16" >N</text>
<text x="115.133290" y="135.034521" fill="rgb(255,12,12)"  stroke="rgb(255,12,12)" stroke-width="1" font-size="16" >O</text>
<text x="80.643597" y="95.947397" fill="rgb(102,102,102)"  stroke="rgb(102,102,102)" stroke-width="1" font-size="16" >H</text>
<text x="92.643597" y="99.627397" fill="rgb(102,102,102)"  stroke="rgb(102,102,102)" stroke-width="1" font-size="13" >3</text>
<text x="99.143597" y="95.947397" fill="rgb(102,102,102)"  stroke="rgb(102,102,102)" stroke-width="1" font-size="16" >C</text>
<text x="133.477604" y="198.781294" fill="rgb(255,12,12)"  stroke="rgb(255,12,12)" stroke-width="1" font-size="16" >O</text>
<text x="71.336101" y="464.505952" fill="rgb(191,191,191)"  stroke="rgb(191,191,191)" stroke-width="1" font-size="16" >H</text>
<text x="123.077851" y="228.144416" fill="rgb(127,178,255)"  stroke="rgb(127,178,255)" stroke-width="1" font-size="16" >F</text>
<text x="70.101467" y="299.898871" fill="rgb(255,12,12)"  stroke="rgb(255,12,12)" stroke-width="1" font-size="16" >O</text>
<text x="14.000000" y="320.742063" fill="rgb(102,102,102)"  stroke="rgb(102,102,102)" stroke-width="1" font-size="16" >H</text>
<text x="26.000000" y="324.422063" fill="rgb(102,102,102)"  stroke="rgb(102,102,102)" stroke-width="1" font-size="13" >3</text>
<text x="32.500000" y="320.742063" fill="rgb(102,102,102)"  stroke="rgb(102,102,102)" stroke-width="1" font-size="16" >C</text>
<text x="75.223913" y="390.322080" fill="rgb(178,178,0)"  stroke="rgb(178,178,0)" stroke-width="1" font-size="16" >S</text>
<text x="161.530948" y="455.026092" fill="rgb(127,178,255)"  stroke="rgb(127,178,255)" stroke-width="1" font-size="16" >F</text>
<text x="214.507333" y="383.271637" fill="rgb(255,12,12)"  stroke="rgb(255,12,12)" stroke-width="1" font-size="16" >O</text>
<text x="216.507333" y="424.958020" fill="rgb(102,102,102)"  stroke="rgb(102,102,102)" stroke-width="1" font-size="16" >CH</text>
<text x="240.507333" y="428.638020" fill="rgb(102,102,102)"  stroke="rgb(102,102,102)" stroke-width="1" font-size="13" >3</text>
<text x="209.384886" y="292.848428" fill="rgb(178,178,0)"  stroke="rgb(178,178,0)" stroke-width="1" font-size="16" >S</text>
</svg>
</g>
<text font-size="18.000000" fill ="black" font-family="sans-serif"
x="10.000000" y="20.000000" ></text>
</svg>
