<?xml version="1.0"?>
<svg version="1.1" id="topsvg"
xmlns="http://www.w3.org/2000/svg" xmlns:xlink="http://www.w3.org/1999/xlink"
xmlns:cml="http://www.xml-cml.org/schema" x="0" y="0" width="200px" height="200px" viewBox="0 0 100 100">
<title> - Open Babel Depiction</title>
<rect x="0" y="0" width="100" height="100" fill="white"/>
<g transform="translate(0,0)">
<svg width="100" height="100" x="0" y="0" viewBox="0 0 384.873 476.771"
font-family="sans-serif" stroke="rgb(0,0,0)" stroke-width="2"  stroke-linecap="round">
<line x1="142.8" y1="277.3" x2="124.6" y2="308.7" stroke="rgb(0,0,0)"  stroke-width="2.0"/>
<line x1="88.5" y1="312.5" x2="64.3" y2="285.5" stroke="rgb(0,0,0)"  stroke-width="2.0"/>
<line x1="64.3" y1="285.5" x2="48.7" y2="268.2" stroke="rgb(0,0,0)"  stroke-width="2.0"/>
<line x1="61.1" y1="288.3" x2="45.6" y2="271.0" stroke="rgb(0,0,0)"  stroke-width="2.0"/>
<line x1="67.4" y1="282.7" x2="51.8" y2="265.4" stroke="rgb(0,0,0)"  stroke-width="2.0"/>
<line x1="68.8" y1="405.4" x2="57.2" y2="425.5" stroke="rgb(0,0,0)"  stroke-width="2.0"/>
<line x1="104.9" y1="401.6" x2="207.3" y2="233.8" stroke="rgb(0,0,0)"  stroke-width="2.0"/>
<line x1="207.3" y1="233.8" x2="184.1" y2="233.8" stroke="rgb(0,0,0)"  stroke-width="2.0"/>
<line x1="207.3" y1="238.0" x2="184.1" y2="238.0" stroke="rgb(0,0,0)"  stroke-width="2.0"/>
<line x1="207.3" y1="229.6" x2="184.1" y2="229.6" stroke="rgb(0,0,0)"  stroke-width="2.0"/>
<line x1="157.9" y1="158.6" x2="157.9" y2="135.4" stroke="rgb(0,0,0)"  stroke-width="2.0"/>
<line x1="163.9" y1="158.6" x2="163.9" y2="135.4" stroke="rgb(0,0,0)"  stroke-width="2.0"/>
<line x1="119.2" y1="175.9" x2="109.4" y2="172.8" stroke="rgb(0,0,0)"  stroke-width="2.0"/>
<line x1="94.3" y1="156.0" x2="92.2" y2="146.0" stroke="rgb(0,0,0)"  stroke-width="2.0"/>
<line x1="189.3" y1="177.1" x2="223.8" y2="165.9" stroke="rgb(0,0,0)"  stroke-width="2.0"/>
<line x1="191.2" y1="182.8" x2="225.7" y2="171.6" stroke="rgb(0,0,0)"  stroke-width="2.0"/>
<line x1="257.1" y1="190.1" x2="257.1" y2="213.3" stroke="rgb(0,0,0)"  stroke-width="2.0"/>
<line x1="251.1" y1="190.1" x2="251.1" y2="213.3" stroke="rgb(0,0,0)"  stroke-width="2.0"/>
<line x1="295.8" y1="172.8" x2="305.6" y2="175.9" stroke="rgb(0,0,0)"  stroke-width="2.0"/>
<line x1="327.6" y1="171.2" x2="335.2" y2="164.4" stroke="rgb(0,0,0)"  stroke-width="2.0"/>
<line x1="272.2" y1="71.4" x2="283.8" y2="51.3" stroke="rgb(0,0,0)"  stroke-width="2.0"/>
<line x1="81.0" y1="348.0" x2="112.4" y2="366.1" stroke="rgb(0,0,0)"  stroke-width="2.0"/>
<line x1="89.8" y1="344.7" x2="110.8" y2="356.9" stroke="rgb(0,0,0)"  stroke-width="2.0"/>
<line x1="112.4" y1="366.1" x2="129.7" y2="350.5" stroke="rgb(0,0,0)"  stroke-width="2.0"/>
<line x1="134.1" y1="329.9" x2="124.6" y2="308.7" stroke="rgb(0,0,0)"  stroke-width="2.0"/>
<line x1="124.6" y1="308.7" x2="88.5" y2="312.5" stroke="rgb(0,0,0)"  stroke-width="2.0"/>
<line x1="119.4" y1="316.5" x2="95.3" y2="319.0" stroke="rgb(0,0,0)"  stroke-width="2.0"/>
<line x1="88.5" y1="312.5" x2="81.0" y2="348.0" stroke="rgb(0,0,0)"  stroke-width="2.0"/>
<line x1="68.8" y1="405.4" x2="104.9" y2="401.6" stroke="rgb(0,0,0)"  stroke-width="2.0"/>
<line x1="74.0" y1="397.6" x2="98.2" y2="395.0" stroke="rgb(0,0,0)"  stroke-width="2.0"/>
<line x1="104.9" y1="401.6" x2="112.4" y2="366.1" stroke="rgb(0,0,0)"  stroke-width="2.0"/>
<line x1="81.0" y1="348.0" x2="63.7" y2="363.5" stroke="rgb(0,0,0)"  stroke-width="2.0"/>
<line x1="59.3" y1="384.1" x2="68.8" y2="405.4" stroke="rgb(0,0,0)"  stroke-width="2.0"/>
<line x1="197.2" y1="245.9" x2="179.0" y2="214.4" stroke="rgb(0,0,0)"  stroke-width="2.0"/>
<line x1="187.9" y1="244.3" x2="175.8" y2="223.2" stroke="rgb(0,0,0)"  stroke-width="2.0"/>
<line x1="179.0" y1="214.4" x2="142.8" y2="214.4" stroke="rgb(0,0,0)"  stroke-width="2.0"/>
<line x1="142.8" y1="214.4" x2="124.6" y2="245.9" stroke="rgb(0,0,0)"  stroke-width="2.0"/>
<line x1="146.0" y1="223.2" x2="133.9" y2="244.3" stroke="rgb(0,0,0)"  stroke-width="2.0"/>
<line x1="124.6" y1="245.9" x2="142.8" y2="277.3" stroke="rgb(0,0,0)"  stroke-width="2.0"/>
<line x1="142.8" y1="277.3" x2="179.0" y2="277.3" stroke="rgb(0,0,0)"  stroke-width="2.0"/>
<line x1="148.8" y1="270.1" x2="173.0" y2="270.1" stroke="rgb(0,0,0)"  stroke-width="2.0"/>
<line x1="179.0" y1="277.3" x2="197.2" y2="245.9" stroke="rgb(0,0,0)"  stroke-width="2.0"/>
<line x1="235.9" y1="71.4" x2="217.8" y2="102.8" stroke="rgb(0,0,0)"  stroke-width="2.0"/>
<line x1="217.8" y1="102.8" x2="235.9" y2="134.2" stroke="rgb(0,0,0)"  stroke-width="2.0"/>
<line x1="227.0" y1="104.4" x2="239.2" y2="125.4" stroke="rgb(0,0,0)"  stroke-width="2.0"/>
<line x1="235.9" y1="134.2" x2="272.2" y2="134.2" stroke="rgb(0,0,0)"  stroke-width="2.0"/>
<line x1="272.2" y1="134.2" x2="290.3" y2="102.8" stroke="rgb(0,0,0)"  stroke-width="2.0"/>
<line x1="269.0" y1="125.4" x2="281.1" y2="104.4" stroke="rgb(0,0,0)"  stroke-width="2.0"/>
<line x1="290.3" y1="102.8" x2="272.2" y2="71.4" stroke="rgb(0,0,0)"  stroke-width="2.0"/>
<line x1="272.2" y1="71.4" x2="235.9" y2="71.4" stroke="rgb(0,0,0)"  stroke-width="2.0"/>
<line x1="266.2" y1="78.6" x2="241.9" y2="78.6" stroke="rgb(0,0,0)"  stroke-width="2.0"/>
<line x1="160.9" y1="158.6" x2="142.1" y2="172.3" stroke="rgb(0,0,0)"  stroke-width="2.0"/>
<line x1="135.6" y1="192.3" x2="142.8" y2="214.4" stroke="rgb(0,0,0)"  stroke-width="2.0"/>
<line x1="179.0" y1="214.4" x2="190.2" y2="179.9" stroke="rgb(0,0,0)"  stroke-width="2.0"/>
<line x1="190.2" y1="179.9" x2="160.9" y2="158.6" stroke="rgb(0,0,0)"  stroke-width="2.0"/>
<line x1="279.4" y1="156.4" x2="272.2" y2="134.2" stroke="rgb(0,0,0)"  stroke-width="2.0"/>
<line x1="235.9" y1="134.2" x2="224.7" y2="168.7" stroke="rgb(0,0,0)"  stroke-width="2.0"/>
<line x1="224.7" y1="168.7" x2="254.1" y2="190.1" stroke="rgb(0,0,0)"  stroke-width="2.0"/>
<line x1="254.1" y1="190.1" x2="272.9" y2="176.4" stroke="rgb(0,0,0)"  stroke-width="2.0"/>
<text x="311.916995" y="187.944242" fill="rgb(255,12,12)"  stroke="rgb(255,12,12)" stroke-width="1" font-size="16" >O</text>
<text x="125.542983" y="187.944242" fill="rgb(12,12,255)"  stroke="rgb(12,12,255)" stroke-width="1" font-size="16" >N</text>
<text x="91.045907" y="176.735462" fill="rgb(255,12,12)"  stroke="rgb(255,12,12)" stroke-width="1" font-size="16" >O</text>
<text x="63.504457" y="141.255729" fill="rgb(102,102,102)"  stroke="rgb(102,102,102)" stroke-width="1" font-size="16" >H</text>
<text x="75.504457" y="144.935729" fill="rgb(102,102,102)"  stroke="rgb(102,102,102)" stroke-width="1" font-size="13" >3</text>
<text x="82.004457" y="141.255729" fill="rgb(102,102,102)"  stroke="rgb(102,102,102)" stroke-width="1" font-size="16" >C</text>
<text x="248.074955" y="234.328199" fill="rgb(255,12,12)"  stroke="rgb(255,12,12)" stroke-width="1" font-size="16" >O</text>
<text x="277.419920" y="176.735462" fill="rgb(12,12,255)"  stroke="rgb(12,12,255)" stroke-width="1" font-size="16" >N</text>
<text x="154.887948" y="130.351504" fill="rgb(255,12,12)"  stroke="rgb(255,12,12)" stroke-width="1" font-size="16" >O</text>
<text x="340.872621" y="163.673287" fill="rgb(102,102,102)"  stroke="rgb(102,102,102)" stroke-width="1" font-size="16" >CH</text>
<text x="364.872621" y="167.353287" fill="rgb(102,102,102)"  stroke="rgb(102,102,102)" stroke-width="1" font-size="13" >3</text>
<text x="284.347326" y="48.000000" fill="rgb(191,191,191)"  stroke="rgb(191,191,191)" stroke-width="1" font-size="16" >H</text>
<text x="34.000000" y="266.559948" fill="rgb(12,12,255)"  stroke="rgb(12,12,255)" stroke-width="1" font-size="16" >N</text>
<text x="48.044833" y="380.221887" fill="rgb(178,178,0)"  stroke="rgb(178,178,0)" stroke-width="1" font-size="16" >S</text>
<text x="44.661950" y="444.771143" fill="rgb(191,191,191)"  stroke="rgb(191,191,191)" stroke-width="1" font-size="16" >H</text>
<text x="165.064751" y="241.826453" fill="rgb(12,12,255)"  stroke="rgb(12,12,255)" stroke-width="1" font-size="16" >N</text>
<text x="133.368879" y="349.816164" fill="rgb(178,178,0)"  stroke="rgb(178,178,0)" stroke-width="1" font-size="16" >S</text>
</svg>
</g>
<text font-size="18.000000" fill ="black" font-family="sans-serif"
x="10.000000" y="20.000000" ></text>
</svg>
