<?xml version="1.0"?>
<svg version="1.1" id="topsvg"
xmlns="http://www.w3.org/2000/svg" xmlns:xlink="http://www.w3.org/1999/xlink"
xmlns:cml="http://www.xml-cml.org/schema" x="0" y="0" width="200px" height="200px" viewBox="0 0 100 100">
<title> - Open Babel Depiction</title>
<rect x="0" y="0" width="100" height="100" fill="white"/>
<g transform="translate(0,0)">
<svg width="100" height="100" x="0" y="0" viewBox="0 0 402.866 216.53"
font-family="sans-serif" stroke="rgb(0,0,0)" stroke-width="2"  stroke-linecap="round">
<line x1="272.6" y1="107.7" x2="234.2" y2="107.7" stroke="rgb(0,0,0)"  stroke-width="2.0"/>
<line x1="137.0" y1="74.6" x2="123.4" y2="51.2" stroke="rgb(0,0,0)"  stroke-width="2.0"/>
<line x1="137.0" y1="74.6" x2="110.0" y2="74.6" stroke="rgb(0,0,0)"  stroke-width="2.0"/>
<line x1="76.3" y1="155.3" x2="51.2" y2="170.0" stroke="rgb(0,0,0)"  stroke-width="2.0"/>
<line x1="331.8" y1="126.9" x2="352.3" y2="141.9" stroke="rgb(0,0,0)"  stroke-width="2.0"/>
<line x1="287.6" y1="149.7" x2="278.3" y2="158.1" stroke="rgb(0,0,0)"  stroke-width="2.0"/>
<line x1="283.6" y1="145.3" x2="274.3" y2="153.6" stroke="rgb(0,0,0)"  stroke-width="2.0"/>
<line x1="300.9" y1="150.9" x2="303.4" y2="163.1" stroke="rgb(0,0,0)"  stroke-width="2.0"/>
<line x1="295.0" y1="152.2" x2="297.6" y2="164.3" stroke="rgb(0,0,0)"  stroke-width="2.0"/>
<line x1="175.9" y1="74.6" x2="175.9" y2="141.9" stroke="rgb(0,0,0)"  stroke-width="2.0"/>
<line x1="183.1" y1="80.6" x2="183.1" y2="135.9" stroke="rgb(0,0,0)"  stroke-width="2.0"/>
<line x1="175.9" y1="141.9" x2="201.8" y2="141.9" stroke="rgb(0,0,0)"  stroke-width="2.0"/>
<line x1="221.2" y1="130.6" x2="234.2" y2="107.7" stroke="rgb(0,0,0)"  stroke-width="2.0"/>
<line x1="234.2" y1="107.7" x2="214.8" y2="74.6" stroke="rgb(0,0,0)"  stroke-width="2.0"/>
<line x1="225.0" y1="106.2" x2="211.6" y2="83.4" stroke="rgb(0,0,0)"  stroke-width="2.0"/>
<line x1="214.8" y1="74.6" x2="175.9" y2="74.6" stroke="rgb(0,0,0)"  stroke-width="2.0"/>
<line x1="76.3" y1="155.3" x2="99.6" y2="165.4" stroke="rgb(0,0,0)"  stroke-width="2.0"/>
<line x1="120.1" y1="160.9" x2="137.0" y2="141.9" stroke="rgb(0,0,0)"  stroke-width="2.0"/>
<line x1="137.0" y1="141.9" x2="117.5" y2="108.8" stroke="rgb(0,0,0)"  stroke-width="2.0"/>
<line x1="127.7" y1="140.4" x2="114.4" y2="117.6" stroke="rgb(0,0,0)"  stroke-width="2.0"/>
<line x1="117.5" y1="108.8" x2="80.0" y2="117.0" stroke="rgb(0,0,0)"  stroke-width="2.0"/>
<line x1="80.0" y1="117.0" x2="76.3" y2="155.3" stroke="rgb(0,0,0)"  stroke-width="2.0"/>
<line x1="86.6" y1="123.7" x2="84.0" y2="150.0" stroke="rgb(0,0,0)"  stroke-width="2.0"/>
<line x1="137.0" y1="141.9" x2="175.9" y2="141.9" stroke="rgb(0,0,0)"  stroke-width="2.0"/>
<line x1="175.9" y1="74.6" x2="137.0" y2="74.6" stroke="rgb(0,0,0)"  stroke-width="2.0"/>
<line x1="137.0" y1="74.6" x2="117.5" y2="108.8" stroke="rgb(0,0,0)"  stroke-width="2.0"/>
<line x1="331.8" y1="88.5" x2="331.8" y2="126.9" stroke="rgb(0,0,0)"  stroke-width="2.0"/>
<line x1="324.6" y1="94.5" x2="324.6" y2="120.9" stroke="rgb(0,0,0)"  stroke-width="2.0"/>
<line x1="331.8" y1="126.9" x2="307.6" y2="134.8" stroke="rgb(0,0,0)"  stroke-width="2.0"/>
<line x1="287.6" y1="128.3" x2="272.6" y2="107.7" stroke="rgb(0,0,0)"  stroke-width="2.0"/>
<line x1="272.6" y1="107.7" x2="295.2" y2="76.6" stroke="rgb(0,0,0)"  stroke-width="2.0"/>
<line x1="282.0" y1="107.1" x2="297.5" y2="85.7" stroke="rgb(0,0,0)"  stroke-width="2.0"/>
<line x1="295.2" y1="76.6" x2="331.8" y2="88.5" stroke="rgb(0,0,0)"  stroke-width="2.0"/>
<text x="297.213951" y="184.409481" fill="rgb(255,12,12)"  stroke="rgb(255,12,12)" stroke-width="1" font-size="16" >O</text>
<text x="260.663301" y="172.533455" fill="rgb(255,12,12)"  stroke="rgb(255,12,12)" stroke-width="1" font-size="16" >O</text>
<text x="289.223566" y="146.817677" fill="rgb(178,178,0)"  stroke="rgb(178,178,0)" stroke-width="1" font-size="16" >S</text>
<text x="356.866057" y="157.531195" fill="rgb(191,191,191)"  stroke="rgb(191,191,191)" stroke-width="1" font-size="16" >H</text>
<text x="105.476122" y="178.639772" fill="rgb(178,178,0)"  stroke="rgb(178,178,0)" stroke-width="1" font-size="16" >S</text>
<text x="34.000000" y="184.530455" fill="rgb(191,191,191)"  stroke="rgb(191,191,191)" stroke-width="1" font-size="16" >H</text>
<text x="70.990418" y="82.579026" fill="rgb(102,102,102)"  stroke="rgb(102,102,102)" stroke-width="1" font-size="16" >H</text>
<text x="82.990418" y="86.259026" fill="rgb(102,102,102)"  stroke="rgb(102,102,102)" stroke-width="1" font-size="13" >3</text>
<text x="89.490418" y="82.579026" fill="rgb(102,102,102)"  stroke="rgb(102,102,102)" stroke-width="1" font-size="16" >C</text>
<text x="90.883431" y="48.000000" fill="rgb(102,102,102)"  stroke="rgb(102,102,102)" stroke-width="1" font-size="16" >H</text>
<text x="102.883431" y="51.680000" fill="rgb(102,102,102)"  stroke="rgb(102,102,102)" stroke-width="1" font-size="13" >3</text>
<text x="109.383431" y="48.000000" fill="rgb(102,102,102)"  stroke="rgb(102,102,102)" stroke-width="1" font-size="16" >C</text>
<text x="208.752999" y="149.899370" fill="rgb(178,178,0)"  stroke="rgb(178,178,0)" stroke-width="1" font-size="16" >S</text>
</svg>
</g>
<text font-size="18.000000" fill ="black" font-family="sans-serif"
x="10.000000" y="20.000000" ></text>
</svg>
