<?xml version="1.0"?>
<svg version="1.1" id="topsvg"
xmlns="http://www.w3.org/2000/svg" xmlns:xlink="http://www.w3.org/1999/xlink"
xmlns:cml="http://www.xml-cml.org/schema" x="0" y="0" width="200px" height="200px" viewBox="0 0 100 100">
<title> - Open Babel Depiction</title>
<rect x="0" y="0" width="100" height="100" fill="white"/>
<g transform="translate(0,0)">
<svg width="100" height="100" x="0" y="0" viewBox="0 0 472.389 256.195"
font-family="sans-serif" stroke="rgb(0,0,0)" stroke-width="2"  stroke-linecap="round">
<line x1="312.4" y1="136.2" x2="272.4" y2="136.2" stroke="rgb(0,0,0)"  stroke-width="2.0"/>
<line x1="248.9" y1="168.6" x2="257.2" y2="194.2" stroke="rgb(0,0,0)"  stroke-width="2.0"/>
<line x1="176.2" y1="176.2" x2="176.2" y2="203.2" stroke="rgb(0,0,0)"  stroke-width="2.0"/>
<line x1="80.0" y1="136.2" x2="53.0" y2="136.2" stroke="rgb(0,0,0)"  stroke-width="2.0"/>
<line x1="103.5" y1="103.8" x2="95.2" y2="78.2" stroke="rgb(0,0,0)"  stroke-width="2.0"/>
<line x1="176.2" y1="96.2" x2="176.2" y2="69.2" stroke="rgb(0,0,0)"  stroke-width="2.0"/>
<line x1="392.4" y1="136.2" x2="419.4" y2="136.2" stroke="rgb(0,0,0)"  stroke-width="2.0"/>
<line x1="372.4" y1="170.8" x2="385.9" y2="194.2" stroke="rgb(0,0,0)"  stroke-width="2.0"/>
<line x1="332.4" y1="170.8" x2="318.9" y2="194.2" stroke="rgb(0,0,0)"  stroke-width="2.0"/>
<line x1="210.8" y1="156.2" x2="210.8" y2="116.2" stroke="rgb(0,0,0)"  stroke-width="2.0"/>
<line x1="210.8" y1="116.2" x2="236.5" y2="107.9" stroke="rgb(0,0,0)"  stroke-width="2.0"/>
<line x1="256.5" y1="114.4" x2="272.4" y2="136.2" stroke="rgb(0,0,0)"  stroke-width="2.0"/>
<line x1="272.4" y1="136.2" x2="248.9" y2="168.6" stroke="rgb(0,0,0)"  stroke-width="2.0"/>
<line x1="263.0" y1="136.8" x2="246.6" y2="159.5" stroke="rgb(0,0,0)"  stroke-width="2.0"/>
<line x1="248.9" y1="168.6" x2="210.8" y2="156.2" stroke="rgb(0,0,0)"  stroke-width="2.0"/>
<line x1="80.0" y1="136.2" x2="103.5" y2="103.8" stroke="rgb(0,0,0)"  stroke-width="2.0"/>
<line x1="89.4" y1="135.6" x2="105.8" y2="112.9" stroke="rgb(0,0,0)"  stroke-width="2.0"/>
<line x1="103.5" y1="103.8" x2="141.6" y2="116.2" stroke="rgb(0,0,0)"  stroke-width="2.0"/>
<line x1="141.6" y1="116.2" x2="141.6" y2="156.2" stroke="rgb(0,0,0)"  stroke-width="2.0"/>
<line x1="134.4" y1="122.2" x2="134.4" y2="150.2" stroke="rgb(0,0,0)"  stroke-width="2.0"/>
<line x1="141.6" y1="156.2" x2="115.9" y2="164.5" stroke="rgb(0,0,0)"  stroke-width="2.0"/>
<line x1="95.9" y1="158.0" x2="80.0" y2="136.2" stroke="rgb(0,0,0)"  stroke-width="2.0"/>
<line x1="330.5" y1="55.9" x2="341.9" y2="47.6" stroke="rgb(0,0,0)"  stroke-width="2.0"/>
<line x1="362.9" y1="47.6" x2="374.2" y2="55.9" stroke="rgb(0,0,0)"  stroke-width="2.0"/>
<line x1="380.7" y1="76.1" x2="372.4" y2="101.6" stroke="rgb(0,0,0)"  stroke-width="2.0"/>
<line x1="373.2" y1="75.7" x2="367.4" y2="93.6" stroke="rgb(0,0,0)"  stroke-width="2.0"/>
<line x1="372.4" y1="101.6" x2="332.4" y2="101.6" stroke="rgb(0,0,0)"  stroke-width="2.0"/>
<line x1="332.4" y1="101.6" x2="324.1" y2="76.1" stroke="rgb(0,0,0)"  stroke-width="2.0"/>
<line x1="337.4" y1="93.6" x2="331.6" y2="75.7" stroke="rgb(0,0,0)"  stroke-width="2.0"/>
<line x1="141.6" y1="116.2" x2="176.2" y2="96.2" stroke="rgb(0,0,0)"  stroke-width="2.0"/>
<line x1="176.2" y1="96.2" x2="210.8" y2="116.2" stroke="rgb(0,0,0)"  stroke-width="2.0"/>
<line x1="177.8" y1="105.4" x2="202.0" y2="119.4" stroke="rgb(0,0,0)"  stroke-width="2.0"/>
<line x1="210.8" y1="156.2" x2="176.2" y2="176.2" stroke="rgb(0,0,0)"  stroke-width="2.0"/>
<line x1="202.0" y1="153.0" x2="177.8" y2="167.0" stroke="rgb(0,0,0)"  stroke-width="2.0"/>
<line x1="176.2" y1="176.2" x2="141.6" y2="156.2" stroke="rgb(0,0,0)"  stroke-width="2.0"/>
<line x1="372.4" y1="101.6" x2="392.4" y2="136.2" stroke="rgb(0,0,0)"  stroke-width="2.0"/>
<line x1="392.4" y1="136.2" x2="372.4" y2="170.8" stroke="rgb(0,0,0)"  stroke-width="2.0"/>
<line x1="383.2" y1="137.8" x2="369.2" y2="162.0" stroke="rgb(0,0,0)"  stroke-width="2.0"/>
<line x1="372.4" y1="170.8" x2="332.4" y2="170.8" stroke="rgb(0,0,0)"  stroke-width="2.0"/>
<line x1="332.4" y1="170.8" x2="312.4" y2="136.2" stroke="rgb(0,0,0)"  stroke-width="2.0"/>
<line x1="335.6" y1="162.0" x2="321.6" y2="137.8" stroke="rgb(0,0,0)"  stroke-width="2.0"/>
<line x1="312.4" y1="136.2" x2="332.4" y2="101.6" stroke="rgb(0,0,0)"  stroke-width="2.0"/>
<text x="294.389374" y="213.476719" fill="rgb(30,239,30)"  stroke="rgb(30,239,30)" stroke-width="1" font-size="16" >Cl</text>
<text x="386.389374" y="213.476719" fill="rgb(30,239,30)"  stroke="rgb(30,239,30)" stroke-width="1" font-size="16" >Cl</text>
<text x="426.389374" y="144.194687" fill="rgb(191,191,191)"  stroke="rgb(191,191,191)" stroke-width="1" font-size="16" >H</text>
<text x="378.750054" y="71.511410" fill="rgb(12,12,255)"  stroke="rgb(12,12,255)" stroke-width="1" font-size="16" >N</text>
<text x="346.389374" y="48.000000" fill="rgb(178,178,0)"  stroke="rgb(178,178,0)" stroke-width="1" font-size="16" >S</text>
<text x="314.028694" y="71.511410" fill="rgb(12,12,255)"  stroke="rgb(12,12,255)" stroke-width="1" font-size="16" >N</text>
<text x="242.877964" y="111.834007" fill="rgb(178,178,0)"  stroke="rgb(178,178,0)" stroke-width="1" font-size="16" >S</text>
<text x="172.194687" y="64.194687" fill="rgb(102,102,102)"  stroke="rgb(102,102,102)" stroke-width="1" font-size="16" >CH</text>
<text x="196.194687" y="67.874687" fill="rgb(102,102,102)"  stroke="rgb(102,102,102)" stroke-width="1" font-size="13" >3</text>
<text x="85.150730" y="73.791746" fill="rgb(191,191,191)"  stroke="rgb(191,191,191)" stroke-width="1" font-size="16" >H</text>
<text x="34.000000" y="144.194687" fill="rgb(191,191,191)"  stroke="rgb(191,191,191)" stroke-width="1" font-size="16" >H</text>
<text x="97.511410" y="176.555367" fill="rgb(178,178,0)"  stroke="rgb(178,178,0)" stroke-width="1" font-size="16" >S</text>
<text x="172.194687" y="224.194687" fill="rgb(102,102,102)"  stroke="rgb(102,102,102)" stroke-width="1" font-size="16" >CH</text>
<text x="196.194687" y="227.874687" fill="rgb(102,102,102)"  stroke="rgb(102,102,102)" stroke-width="1" font-size="13" >3</text>
<text x="255.238643" y="214.597627" fill="rgb(191,191,191)"  stroke="rgb(191,191,191)" stroke-width="1" font-size="16" >H</text>
</svg>
</g>
<text font-size="18.000000" fill ="black" font-family="sans-serif"
x="10.000000" y="20.000000" ></text>
</svg>
