<?xml version="1.0"?>
<svg version="1.1" id="topsvg"
xmlns="http://www.w3.org/2000/svg" xmlns:xlink="http://www.w3.org/1999/xlink"
xmlns:cml="http://www.xml-cml.org/schema" x="0" y="0" width="200px" height="200px" viewBox="0 0 100 100">
<title> - Open Babel Depiction</title>
<rect x="0" y="0" width="100" height="100" fill="white"/>
<g transform="translate(0,0)">
<svg width="100" height="100" x="0" y="0" viewBox="0 0 494.174 471.862"
font-family="sans-serif" stroke="rgb(0,0,0)" stroke-width="2"  stroke-linecap="round">
<line x1="214.1" y1="203.9" x2="248.9" y2="184.4" stroke="rgb(0,0,0)"  stroke-width="2.0"/>
<line x1="319.8" y1="107.7" x2="328.4" y2="82.3" stroke="rgb(0,0,0)"  stroke-width="2.0"/>
<line x1="345.4" y1="67.5" x2="359.0" y2="64.8" stroke="rgb(0,0,0)"  stroke-width="2.0"/>
<line x1="319.8" y1="107.7" x2="302.1" y2="87.5" stroke="rgb(0,0,0)"  stroke-width="2.0"/>
<line x1="297.7" y1="65.4" x2="302.1" y2="52.3" stroke="rgb(0,0,0)"  stroke-width="2.0"/>
<line x1="414.6" y1="151.5" x2="441.3" y2="154.7" stroke="rgb(0,0,0)"  stroke-width="2.0"/>
<line x1="179.8" y1="301.4" x2="203.0" y2="315.2" stroke="rgb(0,0,0)"  stroke-width="2.0"/>
<line x1="176.7" y1="306.5" x2="199.9" y2="320.4" stroke="rgb(0,0,0)"  stroke-width="2.0"/>
<line x1="143.4" y1="336.2" x2="143.1" y2="363.0" stroke="rgb(0,0,0)"  stroke-width="2.0"/>
<line x1="143.1" y1="366.0" x2="116.3" y2="365.8" stroke="rgb(0,0,0)"  stroke-width="2.0"/>
<line x1="143.2" y1="360.0" x2="116.4" y2="359.8" stroke="rgb(0,0,0)"  stroke-width="2.0"/>
<line x1="143.1" y1="363.0" x2="156.3" y2="386.3" stroke="rgb(0,0,0)"  stroke-width="2.0"/>
<line x1="156.1" y1="408.8" x2="149.1" y2="420.7" stroke="rgb(0,0,0)"  stroke-width="2.0"/>
<line x1="110.0" y1="305.6" x2="86.5" y2="319.0" stroke="rgb(0,0,0)"  stroke-width="2.0"/>
<line x1="107.0" y1="300.4" x2="83.5" y2="313.7" stroke="rgb(0,0,0)"  stroke-width="2.0"/>
<line x1="74.8" y1="242.0" x2="51.3" y2="255.3" stroke="rgb(0,0,0)"  stroke-width="2.0"/>
<line x1="109.1" y1="145.0" x2="85.8" y2="131.2" stroke="rgb(0,0,0)"  stroke-width="2.0"/>
<line x1="112.1" y1="139.8" x2="88.9" y2="126.0" stroke="rgb(0,0,0)"  stroke-width="2.0"/>
<line x1="145.8" y1="109.6" x2="146.1" y2="82.4" stroke="rgb(0,0,0)"  stroke-width="2.0"/>
<line x1="144.2" y1="80.1" x2="165.3" y2="63.0" stroke="rgb(0,0,0)"  stroke-width="2.0"/>
<line x1="148.0" y1="84.8" x2="169.1" y2="67.7" stroke="rgb(0,0,0)"  stroke-width="2.0"/>
<line x1="146.1" y1="82.4" x2="120.7" y2="72.7" stroke="rgb(0,0,0)"  stroke-width="2.0"/>
<line x1="98.4" y1="76.2" x2="87.4" y2="85.2" stroke="rgb(0,0,0)"  stroke-width="2.0"/>
<line x1="178.9" y1="140.7" x2="202.4" y2="127.5" stroke="rgb(0,0,0)"  stroke-width="2.0"/>
<line x1="181.8" y1="145.9" x2="205.4" y2="132.7" stroke="rgb(0,0,0)"  stroke-width="2.0"/>
<line x1="292.7" y1="137.0" x2="312.2" y2="171.8" stroke="rgb(0,0,0)"  stroke-width="2.0"/>
<line x1="289.3" y1="145.8" x2="303.0" y2="170.1" stroke="rgb(0,0,0)"  stroke-width="2.0"/>
<line x1="312.2" y1="171.8" x2="293.9" y2="191.6" stroke="rgb(0,0,0)"  stroke-width="2.0"/>
<line x1="273.3" y1="195.7" x2="248.9" y2="184.4" stroke="rgb(0,0,0)"  stroke-width="2.0"/>
<line x1="248.9" y1="184.4" x2="253.6" y2="144.8" stroke="rgb(0,0,0)"  stroke-width="2.0"/>
<line x1="256.7" y1="179.3" x2="260.0" y2="151.6" stroke="rgb(0,0,0)"  stroke-width="2.0"/>
<line x1="253.6" y1="144.8" x2="292.7" y2="137.0" stroke="rgb(0,0,0)"  stroke-width="2.0"/>
<line x1="414.6" y1="151.5" x2="396.3" y2="171.2" stroke="rgb(0,0,0)"  stroke-width="2.0"/>
<line x1="375.7" y1="175.3" x2="351.3" y2="164.1" stroke="rgb(0,0,0)"  stroke-width="2.0"/>
<line x1="351.3" y1="164.1" x2="356.0" y2="124.5" stroke="rgb(0,0,0)"  stroke-width="2.0"/>
<line x1="359.1" y1="158.9" x2="362.4" y2="131.3" stroke="rgb(0,0,0)"  stroke-width="2.0"/>
<line x1="356.0" y1="124.5" x2="395.1" y2="116.7" stroke="rgb(0,0,0)"  stroke-width="2.0"/>
<line x1="395.1" y1="116.7" x2="414.6" y2="151.5" stroke="rgb(0,0,0)"  stroke-width="2.0"/>
<line x1="391.7" y1="125.4" x2="405.4" y2="149.8" stroke="rgb(0,0,0)"  stroke-width="2.0"/>
<line x1="178.8" y1="263.8" x2="144.0" y2="242.9" stroke="rgb(0,0,0)"  stroke-width="2.0"/>
<line x1="177.3" y1="254.5" x2="152.9" y2="239.8" stroke="rgb(0,0,0)"  stroke-width="2.0"/>
<line x1="144.0" y1="242.9" x2="144.6" y2="203.0" stroke="rgb(0,0,0)"  stroke-width="2.0"/>
<line x1="144.6" y1="203.0" x2="179.8" y2="183.5" stroke="rgb(0,0,0)"  stroke-width="2.0"/>
<line x1="153.3" y1="206.4" x2="178.1" y2="192.7" stroke="rgb(0,0,0)"  stroke-width="2.0"/>
<line x1="179.8" y1="183.5" x2="214.1" y2="203.9" stroke="rgb(0,0,0)"  stroke-width="2.0"/>
<line x1="214.1" y1="203.9" x2="213.6" y2="243.8" stroke="rgb(0,0,0)"  stroke-width="2.0"/>
<line x1="206.8" y1="209.8" x2="206.4" y2="237.7" stroke="rgb(0,0,0)"  stroke-width="2.0"/>
<line x1="213.6" y1="243.8" x2="178.8" y2="263.8" stroke="rgb(0,0,0)"  stroke-width="2.0"/>
<line x1="108.5" y1="303.0" x2="109.0" y2="262.9" stroke="rgb(0,0,0)"  stroke-width="2.0"/>
<line x1="109.0" y1="262.9" x2="144.0" y2="242.9" stroke="rgb(0,0,0)"  stroke-width="2.0"/>
<line x1="178.8" y1="263.8" x2="178.2" y2="303.9" stroke="rgb(0,0,0)"  stroke-width="2.0"/>
<line x1="178.2" y1="303.9" x2="154.8" y2="316.9" stroke="rgb(0,0,0)"  stroke-width="2.0"/>
<line x1="132.2" y1="316.7" x2="108.5" y2="303.0" stroke="rgb(0,0,0)"  stroke-width="2.0"/>
<line x1="75.3" y1="202.1" x2="110.1" y2="182.5" stroke="rgb(0,0,0)"  stroke-width="2.0"/>
<line x1="84.0" y1="205.4" x2="108.3" y2="191.8" stroke="rgb(0,0,0)"  stroke-width="2.0"/>
<line x1="110.1" y1="182.5" x2="144.6" y2="203.0" stroke="rgb(0,0,0)"  stroke-width="2.0"/>
<line x1="109.0" y1="262.9" x2="74.8" y2="242.0" stroke="rgb(0,0,0)"  stroke-width="2.0"/>
<line x1="107.6" y1="253.6" x2="83.6" y2="239.0" stroke="rgb(0,0,0)"  stroke-width="2.0"/>
<line x1="74.8" y1="242.0" x2="75.3" y2="202.1" stroke="rgb(0,0,0)"  stroke-width="2.0"/>
<line x1="156.8" y1="129.3" x2="180.3" y2="143.3" stroke="rgb(0,0,0)"  stroke-width="2.0"/>
<line x1="180.3" y1="143.3" x2="179.8" y2="183.5" stroke="rgb(0,0,0)"  stroke-width="2.0"/>
<line x1="110.1" y1="182.5" x2="110.6" y2="142.4" stroke="rgb(0,0,0)"  stroke-width="2.0"/>
<line x1="110.6" y1="142.4" x2="134.3" y2="129.0" stroke="rgb(0,0,0)"  stroke-width="2.0"/>
<line x1="351.3" y1="164.1" x2="312.2" y2="171.8" stroke="rgb(0,0,0)"  stroke-width="2.0"/>
<line x1="292.7" y1="137.0" x2="319.8" y2="107.7" stroke="rgb(0,0,0)"  stroke-width="2.0"/>
<line x1="319.8" y1="107.7" x2="356.0" y2="124.5" stroke="rgb(0,0,0)"  stroke-width="2.0"/>
<text x="70.194924" y="129.995418" fill="rgb(255,12,12)"  stroke="rgb(255,12,12)" stroke-width="1" font-size="16" >O</text>
<text x="97.358251" y="370.640087" fill="rgb(255,12,12)"  stroke="rgb(255,12,12)" stroke-width="1" font-size="16" >O</text>
<text x="156.711080" y="405.594577" fill="rgb(255,12,12)"  stroke="rgb(255,12,12)" stroke-width="1" font-size="16" >O</text>
<text x="116.530097" y="439.861949" fill="rgb(102,102,102)"  stroke="rgb(102,102,102)" stroke-width="1" font-size="16" >H</text>
<text x="128.530097" y="443.541949" fill="rgb(102,102,102)"  stroke="rgb(102,102,102)" stroke-width="1" font-size="13" >3</text>
<text x="135.030097" y="439.861949" fill="rgb(102,102,102)"  stroke="rgb(102,102,102)" stroke-width="1" font-size="16" >C</text>
<text x="67.728608" y="330.782466" fill="rgb(255,12,12)"  stroke="rgb(255,12,12)" stroke-width="1" font-size="16" >O</text>
<text x="34.000000" y="269.754272" fill="rgb(191,191,191)"  stroke="rgb(191,191,191)" stroke-width="1" font-size="16" >H</text>
<text x="139.610011" y="130.645133" fill="rgb(12,12,255)"  stroke="rgb(12,12,255)" stroke-width="1" font-size="16" >N</text>
<text x="171.324041" y="65.138970" fill="rgb(255,12,12)"  stroke="rgb(255,12,12)" stroke-width="1" font-size="16" >O</text>
<text x="102.539616" y="76.029259" fill="rgb(255,12,12)"  stroke="rgb(255,12,12)" stroke-width="1" font-size="16" >O</text>
<text x="51.291159" y="101.330757" fill="rgb(102,102,102)"  stroke="rgb(102,102,102)" stroke-width="1" font-size="16" >H</text>
<text x="63.291159" y="105.010757" fill="rgb(102,102,102)"  stroke="rgb(102,102,102)" stroke-width="1" font-size="13" >3</text>
<text x="69.791159" y="101.330757" fill="rgb(102,102,102)"  stroke="rgb(102,102,102)" stroke-width="1" font-size="16" >C</text>
<text x="209.245588" y="131.752870" fill="rgb(255,12,12)"  stroke="rgb(255,12,12)" stroke-width="1" font-size="16" >O</text>
<text x="287.487678" y="85.758364" fill="rgb(255,12,12)"  stroke="rgb(255,12,12)" stroke-width="1" font-size="16" >O</text>
<text x="279.092465" y="209.099024" fill="rgb(178,178,0)"  stroke="rgb(178,178,0)" stroke-width="1" font-size="16" >S</text>
<text x="326.602031" y="77.989683" fill="rgb(255,12,12)"  stroke="rgb(255,12,12)" stroke-width="1" font-size="16" >O</text>
<text x="367.716385" y="70.221001" fill="rgb(102,102,102)"  stroke="rgb(102,102,102)" stroke-width="1" font-size="16" >CH</text>
<text x="391.716385" y="73.901001" fill="rgb(102,102,102)"  stroke="rgb(102,102,102)" stroke-width="1" font-size="13" >3</text>
<text x="302.316979" y="48.000000" fill="rgb(102,102,102)"  stroke="rgb(102,102,102)" stroke-width="1" font-size="16" >CH</text>
<text x="326.316979" y="51.680000" fill="rgb(102,102,102)"  stroke="rgb(102,102,102)" stroke-width="1" font-size="13" >3</text>
<text x="448.173646" y="164.183061" fill="rgb(191,191,191)"  stroke="rgb(191,191,191)" stroke-width="1" font-size="16" >H</text>
<text x="381.495171" y="188.760352" fill="rgb(178,178,0)"  stroke="rgb(178,178,0)" stroke-width="1" font-size="16" >S</text>
<text x="206.584381" y="332.455961" fill="rgb(255,12,12)"  stroke="rgb(255,12,12)" stroke-width="1" font-size="16" >O</text>
<text x="137.468716" y="331.216739" fill="rgb(12,12,255)"  stroke="rgb(12,12,255)" stroke-width="1" font-size="16" >N</text>
</svg>
</g>
<text font-size="18.000000" fill ="black" font-family="sans-serif"
x="10.000000" y="20.000000" ></text>
</svg>
