<?xml version="1.0"?>
<svg version="1.1" id="topsvg"
xmlns="http://www.w3.org/2000/svg" xmlns:xlink="http://www.w3.org/1999/xlink"
xmlns:cml="http://www.xml-cml.org/schema" x="0" y="0" width="200px" height="200px" viewBox="0 0 100 100">
<title> - Open Babel Depiction</title>
<rect x="0" y="0" width="100" height="100" fill="white"/>
<g transform="translate(0,0)">
<svg width="100" height="100" x="0" y="0" viewBox="0 0 635.885 371.67"
font-family="sans-serif" stroke="rgb(0,0,0)" stroke-width="2"  stroke-linecap="round">
<line x1="362.1" y1="233.7" x2="323.0" y2="225.3" stroke="rgb(0,0,0)"  stroke-width="2.0"/>
<line x1="293.3" y1="252.1" x2="297.5" y2="291.9" stroke="rgb(0,0,0)"  stroke-width="2.0"/>
<line x1="297.5" y1="291.9" x2="300.3" y2="318.7" stroke="rgb(0,0,0)"  stroke-width="2.0"/>
<line x1="301.6" y1="291.4" x2="304.5" y2="318.3" stroke="rgb(0,0,0)"  stroke-width="2.0"/>
<line x1="293.3" y1="292.3" x2="296.1" y2="319.2" stroke="rgb(0,0,0)"  stroke-width="2.0"/>
<line x1="258.6" y1="232.1" x2="234.0" y2="243.1" stroke="rgb(0,0,0)"  stroke-width="2.0"/>
<line x1="267.0" y1="193.0" x2="240.2" y2="163.3" stroke="rgb(0,0,0)"  stroke-width="2.0"/>
<line x1="240.8" y1="166.2" x2="201.7" y2="174.5" stroke="rgb(0,0,0)"  stroke-width="2.0"/>
<line x1="239.6" y1="160.3" x2="200.4" y2="168.6" stroke="rgb(0,0,0)"  stroke-width="2.0"/>
<line x1="201.1" y1="171.6" x2="174.3" y2="141.8" stroke="rgb(0,0,0)"  stroke-width="2.0"/>
<line x1="134.5" y1="146.0" x2="121.0" y2="169.4" stroke="rgb(0,0,0)"  stroke-width="2.0"/>
<line x1="118.3" y1="109.5" x2="79.1" y2="101.2" stroke="rgb(0,0,0)"  stroke-width="2.0"/>
<line x1="79.1" y1="101.2" x2="52.7" y2="95.6" stroke="rgb(0,0,0)"  stroke-width="2.0"/>
<line x1="78.3" y1="105.3" x2="51.8" y2="99.7" stroke="rgb(0,0,0)"  stroke-width="2.0"/>
<line x1="80.0" y1="97.1" x2="53.6" y2="91.4" stroke="rgb(0,0,0)"  stroke-width="2.0"/>
<line x1="148.0" y1="82.7" x2="145.2" y2="55.9" stroke="rgb(0,0,0)"  stroke-width="2.0"/>
<line x1="390.4" y1="169.5" x2="367.0" y2="156.0" stroke="rgb(0,0,0)"  stroke-width="2.0"/>
<line x1="393.4" y1="164.3" x2="370.0" y2="150.8" stroke="rgb(0,0,0)"  stroke-width="2.0"/>
<line x1="434.8" y1="107.8" x2="408.1" y2="78.0" stroke="rgb(0,0,0)"  stroke-width="2.0"/>
<line x1="405.2" y1="77.1" x2="413.5" y2="51.4" stroke="rgb(0,0,0)"  stroke-width="2.0"/>
<line x1="410.9" y1="79.0" x2="419.2" y2="53.3" stroke="rgb(0,0,0)"  stroke-width="2.0"/>
<line x1="408.1" y1="78.0" x2="381.6" y2="83.7" stroke="rgb(0,0,0)"  stroke-width="2.0"/>
<line x1="364.9" y1="98.7" x2="360.6" y2="112.0" stroke="rgb(0,0,0)"  stroke-width="2.0"/>
<line x1="490.9" y1="140.1" x2="530.0" y2="148.4" stroke="rgb(0,0,0)"  stroke-width="2.0"/>
<line x1="532.8" y1="147.5" x2="541.2" y2="173.2" stroke="rgb(0,0,0)"  stroke-width="2.0"/>
<line x1="527.1" y1="149.4" x2="535.5" y2="175.1" stroke="rgb(0,0,0)"  stroke-width="2.0"/>
<line x1="530.0" y1="148.4" x2="548.1" y2="128.4" stroke="rgb(0,0,0)"  stroke-width="2.0"/>
<line x1="569.5" y1="121.4" x2="583.2" y2="124.3" stroke="rgb(0,0,0)"  stroke-width="2.0"/>
<line x1="462.6" y1="204.3" x2="486.0" y2="217.8" stroke="rgb(0,0,0)"  stroke-width="2.0"/>
<line x1="459.6" y1="209.5" x2="483.0" y2="223.0" stroke="rgb(0,0,0)"  stroke-width="2.0"/>
<line x1="418.2" y1="266.0" x2="436.3" y2="286.1" stroke="rgb(0,0,0)"  stroke-width="2.0"/>
<line x1="258.6" y1="232.1" x2="267.0" y2="193.0" stroke="rgb(0,0,0)"  stroke-width="2.0"/>
<line x1="266.9" y1="227.7" x2="272.8" y2="200.3" stroke="rgb(0,0,0)"  stroke-width="2.0"/>
<line x1="267.0" y1="193.0" x2="293.8" y2="190.2" stroke="rgb(0,0,0)"  stroke-width="2.0"/>
<line x1="312.0" y1="200.7" x2="323.0" y2="225.3" stroke="rgb(0,0,0)"  stroke-width="2.0"/>
<line x1="323.0" y1="225.3" x2="293.3" y2="252.1" stroke="rgb(0,0,0)"  stroke-width="2.0"/>
<line x1="313.7" y1="224.0" x2="292.9" y2="242.7" stroke="rgb(0,0,0)"  stroke-width="2.0"/>
<line x1="293.3" y1="252.1" x2="258.6" y2="232.1" stroke="rgb(0,0,0)"  stroke-width="2.0"/>
<line x1="118.3" y1="109.5" x2="148.0" y2="82.7" stroke="rgb(0,0,0)"  stroke-width="2.0"/>
<line x1="127.5" y1="110.8" x2="148.3" y2="92.1" stroke="rgb(0,0,0)"  stroke-width="2.0"/>
<line x1="148.0" y1="82.7" x2="171.4" y2="96.2" stroke="rgb(0,0,0)"  stroke-width="2.0"/>
<line x1="179.9" y1="115.4" x2="174.3" y2="141.8" stroke="rgb(0,0,0)"  stroke-width="2.0"/>
<line x1="174.3" y1="141.8" x2="134.5" y2="146.0" stroke="rgb(0,0,0)"  stroke-width="2.0"/>
<line x1="167.6" y1="135.3" x2="139.7" y2="138.2" stroke="rgb(0,0,0)"  stroke-width="2.0"/>
<line x1="134.5" y1="146.0" x2="118.3" y2="109.5" stroke="rgb(0,0,0)"  stroke-width="2.0"/>
<line x1="479.9" y1="115.5" x2="490.9" y2="140.1" stroke="rgb(0,0,0)"  stroke-width="2.0"/>
<line x1="490.9" y1="140.1" x2="461.1" y2="166.9" stroke="rgb(0,0,0)"  stroke-width="2.0"/>
<line x1="481.6" y1="138.8" x2="460.8" y2="157.5" stroke="rgb(0,0,0)"  stroke-width="2.0"/>
<line x1="461.1" y1="166.9" x2="426.5" y2="146.9" stroke="rgb(0,0,0)"  stroke-width="2.0"/>
<line x1="426.5" y1="146.9" x2="434.8" y2="107.8" stroke="rgb(0,0,0)"  stroke-width="2.0"/>
<line x1="434.8" y1="142.5" x2="440.6" y2="115.1" stroke="rgb(0,0,0)"  stroke-width="2.0"/>
<line x1="434.8" y1="107.8" x2="461.7" y2="104.9" stroke="rgb(0,0,0)"  stroke-width="2.0"/>
<line x1="426.5" y1="226.9" x2="418.2" y2="266.0" stroke="rgb(0,0,0)"  stroke-width="2.0"/>
<line x1="418.2" y1="231.3" x2="412.4" y2="258.7" stroke="rgb(0,0,0)"  stroke-width="2.0"/>
<line x1="418.2" y1="266.0" x2="391.3" y2="268.8" stroke="rgb(0,0,0)"  stroke-width="2.0"/>
<line x1="373.1" y1="258.3" x2="362.1" y2="233.7" stroke="rgb(0,0,0)"  stroke-width="2.0"/>
<line x1="362.1" y1="233.7" x2="391.9" y2="206.9" stroke="rgb(0,0,0)"  stroke-width="2.0"/>
<line x1="371.4" y1="235.0" x2="392.2" y2="216.3" stroke="rgb(0,0,0)"  stroke-width="2.0"/>
<line x1="391.9" y1="206.9" x2="426.5" y2="226.9" stroke="rgb(0,0,0)"  stroke-width="2.0"/>
<line x1="391.9" y1="166.9" x2="426.5" y2="146.9" stroke="rgb(0,0,0)"  stroke-width="2.0"/>
<line x1="461.1" y1="166.9" x2="461.1" y2="206.9" stroke="rgb(0,0,0)"  stroke-width="2.0"/>
<line x1="461.1" y1="206.9" x2="426.5" y2="226.9" stroke="rgb(0,0,0)"  stroke-width="2.0"/>
<line x1="391.9" y1="206.9" x2="391.9" y2="166.9" stroke="rgb(0,0,0)"  stroke-width="2.0"/>
<text x="536.354950" y="194.487462" fill="rgb(255,12,12)"  stroke="rgb(255,12,12)" stroke-width="1" font-size="16" >O</text>
<text x="351.219525" y="154.893958" fill="rgb(255,12,12)"  stroke="rgb(255,12,12)" stroke-width="1" font-size="16" >O</text>
<text x="414.413480" y="48.000000" fill="rgb(255,12,12)"  stroke="rgb(255,12,12)" stroke-width="1" font-size="16" >O</text>
<text x="362.926896" y="94.358728" fill="rgb(255,12,12)"  stroke="rgb(255,12,12)" stroke-width="1" font-size="16" >O</text>
<text x="330.566216" y="132.400989" fill="rgb(102,102,102)"  stroke="rgb(102,102,102)" stroke-width="1" font-size="16" >H</text>
<text x="342.566216" y="136.080989" fill="rgb(102,102,102)"  stroke="rgb(102,102,102)" stroke-width="1" font-size="13" >3</text>
<text x="349.066216" y="132.400989" fill="rgb(102,102,102)"  stroke="rgb(102,102,102)" stroke-width="1" font-size="16" >C</text>
<text x="468.598900" y="111.586915" fill="rgb(178,178,0)"  stroke="rgb(178,178,0)" stroke-width="1" font-size="16" >S</text>
<text x="550.759494" y="126.719408" fill="rgb(255,12,12)"  stroke="rgb(255,12,12)" stroke-width="1" font-size="16" >O</text>
<text x="591.885398" y="135.035876" fill="rgb(102,102,102)"  stroke="rgb(102,102,102)" stroke-width="1" font-size="16" >CH</text>
<text x="615.885398" y="138.715876" fill="rgb(102,102,102)"  stroke="rgb(102,102,102)" stroke-width="1" font-size="13" >3</text>
<text x="489.783589" y="234.893958" fill="rgb(255,12,12)"  stroke="rgb(255,12,12)" stroke-width="1" font-size="16" >O</text>
<text x="438.950313" y="303.745655" fill="rgb(191,191,191)"  stroke="rgb(191,191,191)" stroke-width="1" font-size="16" >H</text>
<text x="372.404213" y="278.201000" fill="rgb(178,178,0)"  stroke="rgb(178,178,0)" stroke-width="1" font-size="16" >S</text>
<text x="295.645328" y="339.669690" fill="rgb(12,12,255)"  stroke="rgb(12,12,255)" stroke-width="1" font-size="16" >N</text>
<text x="216.100216" y="256.377404" fill="rgb(127,178,255)"  stroke="rgb(127,178,255)" stroke-width="1" font-size="16" >F</text>
<text x="300.739378" y="196.800896" fill="rgb(178,178,0)"  stroke="rgb(178,178,0)" stroke-width="1" font-size="16" >S</text>
<text x="108.521274" y="188.669071" fill="rgb(127,178,255)"  stroke="rgb(127,178,255)" stroke-width="1" font-size="16" >F</text>
<text x="34.000000" y="100.853301" fill="rgb(12,12,255)"  stroke="rgb(12,12,255)" stroke-width="1" font-size="16" >N</text>
<text x="137.796463" y="50.940136" fill="rgb(191,191,191)"  stroke="rgb(191,191,191)" stroke-width="1" font-size="16" >H</text>
<text x="176.618617" y="110.721012" fill="rgb(178,178,0)"  stroke="rgb(178,178,0)" stroke-width="1" font-size="16" >S</text>
</svg>
</g>
<text font-size="18.000000" fill ="black" font-family="sans-serif"
x="10.000000" y="20.000000" ></text>
</svg>
