<?xml version="1.0"?>
<svg version="1.1" id="topsvg"
xmlns="http://www.w3.org/2000/svg" xmlns:xlink="http://www.w3.org/1999/xlink"
xmlns:cml="http://www.xml-cml.org/schema" x="0" y="0" width="200px" height="200px" viewBox="0 0 100 100">
<title> - Open Babel Depiction</title>
<rect x="0" y="0" width="100" height="100" fill="white"/>
<g transform="translate(0,0)">
<svg width="100" height="100" x="0" y="0" viewBox="0 0 277.714 339.359"
font-family="sans-serif" stroke="rgb(0,0,0)" stroke-width="2"  stroke-linecap="round">
<line x1="145.0" y1="136.3" x2="126.5" y2="168.4" stroke="rgb(0,0,0)"  stroke-width="2.0"/>
<line x1="89.6" y1="172.3" x2="64.8" y2="144.8" stroke="rgb(0,0,0)"  stroke-width="2.0"/>
<line x1="64.8" y1="144.8" x2="48.7" y2="126.9" stroke="rgb(0,0,0)"  stroke-width="2.0"/>
<line x1="61.7" y1="147.6" x2="45.6" y2="129.7" stroke="rgb(0,0,0)"  stroke-width="2.0"/>
<line x1="67.9" y1="141.9" x2="51.8" y2="124.1" stroke="rgb(0,0,0)"  stroke-width="2.0"/>
<line x1="69.4" y1="267.3" x2="57.4" y2="288.1" stroke="rgb(0,0,0)"  stroke-width="2.0"/>
<line x1="106.3" y1="263.4" x2="164.7" y2="166.5" stroke="rgb(0,0,0)"  stroke-width="2.0"/>
<line x1="164.7" y1="166.5" x2="140.6" y2="166.5" stroke="rgb(0,0,0)"  stroke-width="2.0"/>
<line x1="164.7" y1="170.7" x2="140.6" y2="170.7" stroke="rgb(0,0,0)"  stroke-width="2.0"/>
<line x1="164.7" y1="162.3" x2="140.6" y2="162.3" stroke="rgb(0,0,0)"  stroke-width="2.0"/>
<line x1="182.1" y1="136.3" x2="194.1" y2="157.2" stroke="rgb(0,0,0)"  stroke-width="2.0"/>
<line x1="200.6" y1="104.2" x2="224.7" y2="104.2" stroke="rgb(0,0,0)"  stroke-width="2.0"/>
<line x1="182.1" y1="72.1" x2="194.1" y2="51.3" stroke="rgb(0,0,0)"  stroke-width="2.0"/>
<line x1="145.0" y1="72.1" x2="133.0" y2="51.3" stroke="rgb(0,0,0)"  stroke-width="2.0"/>
<line x1="126.5" y1="104.2" x2="102.4" y2="104.2" stroke="rgb(0,0,0)"  stroke-width="2.0"/>
<line x1="81.9" y1="208.6" x2="114.0" y2="227.1" stroke="rgb(0,0,0)"  stroke-width="2.0"/>
<line x1="90.7" y1="205.3" x2="112.4" y2="217.9" stroke="rgb(0,0,0)"  stroke-width="2.0"/>
<line x1="114.0" y1="227.1" x2="131.9" y2="211.0" stroke="rgb(0,0,0)"  stroke-width="2.0"/>
<line x1="136.3" y1="190.4" x2="126.5" y2="168.4" stroke="rgb(0,0,0)"  stroke-width="2.0"/>
<line x1="126.5" y1="168.4" x2="89.6" y2="172.3" stroke="rgb(0,0,0)"  stroke-width="2.0"/>
<line x1="121.3" y1="176.2" x2="96.3" y2="178.8" stroke="rgb(0,0,0)"  stroke-width="2.0"/>
<line x1="89.6" y1="172.3" x2="81.9" y2="208.6" stroke="rgb(0,0,0)"  stroke-width="2.0"/>
<line x1="69.4" y1="267.3" x2="106.3" y2="263.4" stroke="rgb(0,0,0)"  stroke-width="2.0"/>
<line x1="74.7" y1="259.5" x2="99.6" y2="256.8" stroke="rgb(0,0,0)"  stroke-width="2.0"/>
<line x1="106.3" y1="263.4" x2="114.0" y2="227.1" stroke="rgb(0,0,0)"  stroke-width="2.0"/>
<line x1="81.9" y1="208.6" x2="64.0" y2="224.7" stroke="rgb(0,0,0)"  stroke-width="2.0"/>
<line x1="59.6" y1="245.3" x2="69.4" y2="267.3" stroke="rgb(0,0,0)"  stroke-width="2.0"/>
<line x1="200.6" y1="104.2" x2="182.1" y2="72.1" stroke="rgb(0,0,0)"  stroke-width="2.0"/>
<line x1="191.4" y1="102.6" x2="178.9" y2="80.9" stroke="rgb(0,0,0)"  stroke-width="2.0"/>
<line x1="182.1" y1="72.1" x2="145.0" y2="72.1" stroke="rgb(0,0,0)"  stroke-width="2.0"/>
<line x1="145.0" y1="72.1" x2="126.5" y2="104.2" stroke="rgb(0,0,0)"  stroke-width="2.0"/>
<line x1="148.3" y1="80.9" x2="135.7" y2="102.6" stroke="rgb(0,0,0)"  stroke-width="2.0"/>
<line x1="126.5" y1="104.2" x2="145.0" y2="136.3" stroke="rgb(0,0,0)"  stroke-width="2.0"/>
<line x1="145.0" y1="136.3" x2="182.1" y2="136.3" stroke="rgb(0,0,0)"  stroke-width="2.0"/>
<line x1="151.0" y1="129.1" x2="176.1" y2="129.1" stroke="rgb(0,0,0)"  stroke-width="2.0"/>
<line x1="182.1" y1="136.3" x2="200.6" y2="104.2" stroke="rgb(0,0,0)"  stroke-width="2.0"/>
<text x="83.413182" y="112.216106" fill="rgb(127,178,255)"  stroke="rgb(127,178,255)" stroke-width="1" font-size="16" >F</text>
<text x="120.488368" y="48.000000" fill="rgb(127,178,255)"  stroke="rgb(127,178,255)" stroke-width="1" font-size="16" >F</text>
<text x="194.638741" y="48.000000" fill="rgb(191,191,191)"  stroke="rgb(191,191,191)" stroke-width="1" font-size="16" >H</text>
<text x="231.713927" y="112.216106" fill="rgb(127,178,255)"  stroke="rgb(127,178,255)" stroke-width="1" font-size="16" >F</text>
<text x="194.638741" y="176.432213" fill="rgb(127,178,255)"  stroke="rgb(127,178,255)" stroke-width="1" font-size="16" >F</text>
<text x="135.568205" y="210.302081" fill="rgb(178,178,0)"  stroke="rgb(178,178,0)" stroke-width="1" font-size="16" >S</text>
<text x="121.613148" y="174.484036" fill="rgb(12,12,255)"  stroke="rgb(12,12,255)" stroke-width="1" font-size="16" >N</text>
<text x="44.897930" y="307.358692" fill="rgb(191,191,191)"  stroke="rgb(191,191,191)" stroke-width="1" font-size="16" >H</text>
<text x="48.355686" y="241.380771" fill="rgb(178,178,0)"  stroke="rgb(178,178,0)" stroke-width="1" font-size="16" >S</text>
<text x="34.000000" y="125.203159" fill="rgb(12,12,255)"  stroke="rgb(12,12,255)" stroke-width="1" font-size="16" >N</text>
</svg>
</g>
<text font-size="18.000000" fill ="black" font-family="sans-serif"
x="10.000000" y="20.000000" ></text>
</svg>
