<?xml version="1.0"?>
<svg version="1.1" id="topsvg"
xmlns="http://www.w3.org/2000/svg" xmlns:xlink="http://www.w3.org/1999/xlink"
xmlns:cml="http://www.xml-cml.org/schema" x="0" y="0" width="200px" height="200px" viewBox="0 0 100 100">
<title> - Open Babel Depiction</title>
<rect x="0" y="0" width="100" height="100" fill="white"/>
<g transform="translate(0,0)">
<svg width="100" height="100" x="0" y="0" viewBox="0 0 421.17 399.805"
font-family="sans-serif" stroke="rgb(0,0,0)" stroke-width="2"  stroke-linecap="round">
<line x1="236.9" y1="152.4" x2="249.2" y2="190.4" stroke="rgb(0,0,0)"  stroke-width="2.0"/>
<line x1="249.2" y1="295.1" x2="223.9" y2="285.7" stroke="rgb(0,0,0)"  stroke-width="2.0"/>
<line x1="209.6" y1="268.3" x2="207.3" y2="254.5" stroke="rgb(0,0,0)"  stroke-width="2.0"/>
<line x1="249.2" y1="295.1" x2="245.0" y2="321.8" stroke="rgb(0,0,0)"  stroke-width="2.0"/>
<line x1="253.1" y1="342.8" x2="263.9" y2="351.6" stroke="rgb(0,0,0)"  stroke-width="2.0"/>
<line x1="348.8" y1="327.5" x2="370.7" y2="343.4" stroke="rgb(0,0,0)"  stroke-width="2.0"/>
<line x1="167.2" y1="160.0" x2="167.2" y2="187.0" stroke="rgb(0,0,0)"  stroke-width="2.0"/>
<line x1="161.2" y1="160.0" x2="161.2" y2="187.0" stroke="rgb(0,0,0)"  stroke-width="2.0"/>
<line x1="91.5" y1="152.4" x2="83.1" y2="178.0" stroke="rgb(0,0,0)"  stroke-width="2.0"/>
<line x1="66.4" y1="193.1" x2="52.7" y2="196.0" stroke="rgb(0,0,0)"  stroke-width="2.0"/>
<line x1="91.5" y1="87.6" x2="83.1" y2="62.0" stroke="rgb(0,0,0)"  stroke-width="2.0"/>
<line x1="66.4" y1="46.9" x2="52.7" y2="44.0" stroke="rgb(0,0,0)"  stroke-width="2.0"/>
<line x1="161.2" y1="80.0" x2="161.2" y2="53.0" stroke="rgb(0,0,0)"  stroke-width="2.0"/>
<line x1="167.2" y1="80.0" x2="167.2" y2="53.0" stroke="rgb(0,0,0)"  stroke-width="2.0"/>
<line x1="236.9" y1="87.6" x2="245.2" y2="62.0" stroke="rgb(0,0,0)"  stroke-width="2.0"/>
<line x1="249.2" y1="255.1" x2="287.3" y2="242.8" stroke="rgb(0,0,0)"  stroke-width="2.0"/>
<line x1="252.7" y1="246.4" x2="279.3" y2="237.8" stroke="rgb(0,0,0)"  stroke-width="2.0"/>
<line x1="287.3" y1="242.8" x2="287.3" y2="215.8" stroke="rgb(0,0,0)"  stroke-width="2.0"/>
<line x1="274.9" y1="198.7" x2="249.2" y2="190.4" stroke="rgb(0,0,0)"  stroke-width="2.0"/>
<line x1="249.2" y1="190.4" x2="225.7" y2="222.8" stroke="rgb(0,0,0)"  stroke-width="2.0"/>
<line x1="251.5" y1="199.5" x2="235.1" y2="222.1" stroke="rgb(0,0,0)"  stroke-width="2.0"/>
<line x1="225.7" y1="222.8" x2="249.2" y2="255.1" stroke="rgb(0,0,0)"  stroke-width="2.0"/>
<line x1="348.8" y1="327.5" x2="348.8" y2="300.5" stroke="rgb(0,0,0)"  stroke-width="2.0"/>
<line x1="336.4" y1="283.5" x2="310.8" y2="275.1" stroke="rgb(0,0,0)"  stroke-width="2.0"/>
<line x1="310.8" y1="275.1" x2="287.3" y2="307.5" stroke="rgb(0,0,0)"  stroke-width="2.0"/>
<line x1="313.1" y1="284.2" x2="296.6" y2="306.9" stroke="rgb(0,0,0)"  stroke-width="2.0"/>
<line x1="287.3" y1="307.5" x2="310.8" y2="339.8" stroke="rgb(0,0,0)"  stroke-width="2.0"/>
<line x1="310.8" y1="339.8" x2="348.8" y2="327.5" stroke="rgb(0,0,0)"  stroke-width="2.0"/>
<line x1="314.2" y1="331.1" x2="340.9" y2="322.5" stroke="rgb(0,0,0)"  stroke-width="2.0"/>
<line x1="75.6" y1="109.5" x2="91.5" y2="87.6" stroke="rgb(0,0,0)"  stroke-width="2.0"/>
<line x1="91.5" y1="87.6" x2="129.5" y2="100.0" stroke="rgb(0,0,0)"  stroke-width="2.0"/>
<line x1="95.0" y1="96.3" x2="121.6" y2="105.0" stroke="rgb(0,0,0)"  stroke-width="2.0"/>
<line x1="129.5" y1="100.0" x2="129.5" y2="140.0" stroke="rgb(0,0,0)"  stroke-width="2.0"/>
<line x1="129.5" y1="140.0" x2="91.5" y2="152.4" stroke="rgb(0,0,0)"  stroke-width="2.0"/>
<line x1="121.6" y1="135.0" x2="95.0" y2="143.7" stroke="rgb(0,0,0)"  stroke-width="2.0"/>
<line x1="91.5" y1="152.4" x2="75.6" y2="130.5" stroke="rgb(0,0,0)"  stroke-width="2.0"/>
<line x1="198.8" y1="100.0" x2="236.9" y2="87.6" stroke="rgb(0,0,0)"  stroke-width="2.0"/>
<line x1="206.7" y1="105.0" x2="233.4" y2="96.3" stroke="rgb(0,0,0)"  stroke-width="2.0"/>
<line x1="236.9" y1="87.6" x2="252.7" y2="109.5" stroke="rgb(0,0,0)"  stroke-width="2.0"/>
<line x1="252.7" y1="130.5" x2="236.9" y2="152.4" stroke="rgb(0,0,0)"  stroke-width="2.0"/>
<line x1="236.9" y1="152.4" x2="198.8" y2="140.0" stroke="rgb(0,0,0)"  stroke-width="2.0"/>
<line x1="233.4" y1="143.7" x2="206.7" y2="135.0" stroke="rgb(0,0,0)"  stroke-width="2.0"/>
<line x1="198.8" y1="140.0" x2="198.8" y2="100.0" stroke="rgb(0,0,0)"  stroke-width="2.0"/>
<line x1="310.8" y1="275.1" x2="287.3" y2="242.8" stroke="rgb(0,0,0)"  stroke-width="2.0"/>
<line x1="249.2" y1="255.1" x2="249.2" y2="295.1" stroke="rgb(0,0,0)"  stroke-width="2.0"/>
<line x1="249.2" y1="295.1" x2="287.3" y2="307.5" stroke="rgb(0,0,0)"  stroke-width="2.0"/>
<line x1="164.2" y1="160.0" x2="129.5" y2="140.0" stroke="rgb(0,0,0)"  stroke-width="2.0"/>
<line x1="129.5" y1="100.0" x2="164.2" y2="80.0" stroke="rgb(0,0,0)"  stroke-width="2.0"/>
<line x1="164.2" y1="80.0" x2="198.8" y2="100.0" stroke="rgb(0,0,0)"  stroke-width="2.0"/>
<line x1="198.8" y1="140.0" x2="164.2" y2="160.0" stroke="rgb(0,0,0)"  stroke-width="2.0"/>
<text x="73.125904" y="57.597060" fill="rgb(255,12,12)"  stroke="rgb(255,12,12)" stroke-width="1" font-size="16" >O</text>
<text x="158.169861" y="208.000000" fill="rgb(255,12,12)"  stroke="rgb(255,12,12)" stroke-width="1" font-size="16" >O</text>
<text x="73.125904" y="198.402940" fill="rgb(255,12,12)"  stroke="rgb(255,12,12)" stroke-width="1" font-size="16" >O</text>
<text x="14.000000" y="206.719408" fill="rgb(102,102,102)"  stroke="rgb(102,102,102)" stroke-width="1" font-size="16" >H</text>
<text x="26.000000" y="210.399408" fill="rgb(102,102,102)"  stroke="rgb(102,102,102)" stroke-width="1" font-size="13" >3</text>
<text x="32.500000" y="206.719408" fill="rgb(102,102,102)"  stroke="rgb(102,102,102)" stroke-width="1" font-size="16" >C</text>
<text x="61.975174" y="128.000000" fill="rgb(178,178,0)"  stroke="rgb(178,178,0)" stroke-width="1" font-size="16" >S</text>
<text x="14.000000" y="49.280592" fill="rgb(102,102,102)"  stroke="rgb(102,102,102)" stroke-width="1" font-size="16" >H</text>
<text x="26.000000" y="52.960592" fill="rgb(102,102,102)"  stroke="rgb(102,102,102)" stroke-width="1" font-size="13" >3</text>
<text x="32.500000" y="49.280592" fill="rgb(102,102,102)"  stroke="rgb(102,102,102)" stroke-width="1" font-size="16" >C</text>
<text x="158.169861" y="48.000000" fill="rgb(255,12,12)"  stroke="rgb(255,12,12)" stroke-width="1" font-size="16" >O</text>
<text x="243.213817" y="57.597060" fill="rgb(191,191,191)"  stroke="rgb(191,191,191)" stroke-width="1" font-size="16" >H</text>
<text x="254.364548" y="128.000000" fill="rgb(178,178,0)"  stroke="rgb(178,178,0)" stroke-width="1" font-size="16" >S</text>
<text x="205.740874" y="289.132211" fill="rgb(255,12,12)"  stroke="rgb(255,12,12)" stroke-width="1" font-size="16" >O</text>
<text x="281.256078" y="210.763620" fill="rgb(178,178,0)"  stroke="rgb(178,178,0)" stroke-width="1" font-size="16" >S</text>
<text x="179.121907" y="249.683647" fill="rgb(102,102,102)"  stroke="rgb(102,102,102)" stroke-width="1" font-size="16" >H</text>
<text x="191.121907" y="253.363647" fill="rgb(102,102,102)"  stroke="rgb(102,102,102)" stroke-width="1" font-size="13" >3</text>
<text x="197.621907" y="249.683647" fill="rgb(102,102,102)"  stroke="rgb(102,102,102)" stroke-width="1" font-size="16" >C</text>
<text x="236.956439" y="342.631834" fill="rgb(255,12,12)"  stroke="rgb(255,12,12)" stroke-width="1" font-size="16" >O</text>
<text x="270.042277" y="367.804649" fill="rgb(102,102,102)"  stroke="rgb(102,102,102)" stroke-width="1" font-size="16" >CH</text>
<text x="294.042277" y="371.484649" fill="rgb(102,102,102)"  stroke="rgb(102,102,102)" stroke-width="1" font-size="13" >3</text>
<text x="375.170428" y="358.996390" fill="rgb(191,191,191)"  stroke="rgb(191,191,191)" stroke-width="1" font-size="16" >H</text>
<text x="342.809749" y="295.484980" fill="rgb(178,178,0)"  stroke="rgb(178,178,0)" stroke-width="1" font-size="16" >S</text>
</svg>
</g>
<text font-size="18.000000" fill ="black" font-family="sans-serif"
x="10.000000" y="20.000000" ></text>
</svg>
