<?xml version="1.0"?>
<svg version="1.1" id="topsvg"
xmlns="http://www.w3.org/2000/svg" xmlns:xlink="http://www.w3.org/1999/xlink"
xmlns:cml="http://www.xml-cml.org/schema" x="0" y="0" width="200px" height="200px" viewBox="0 0 100 100">
<title> - Open Babel Depiction</title>
<rect x="0" y="0" width="100" height="100" fill="white"/>
<g transform="translate(0,0)">
<svg width="100" height="100" x="0" y="0" viewBox="0 0 486.838 251.772"
font-family="sans-serif" stroke="rgb(0,0,0)" stroke-width="2"  stroke-linecap="round">
<line x1="312.4" y1="118.5" x2="278.5" y2="98.9" stroke="rgb(0,0,0)"  stroke-width="2.0"/>
<line x1="176.6" y1="118.5" x2="176.6" y2="157.7" stroke="rgb(0,0,0)"  stroke-width="2.0"/>
<line x1="178.1" y1="160.3" x2="155.4" y2="173.4" stroke="rgb(0,0,0)"  stroke-width="2.0"/>
<line x1="175.1" y1="155.1" x2="152.4" y2="168.2" stroke="rgb(0,0,0)"  stroke-width="2.0"/>
<line x1="176.6" y1="157.7" x2="199.3" y2="170.8" stroke="rgb(0,0,0)"  stroke-width="2.0"/>
<line x1="221.8" y1="170.8" x2="233.3" y2="164.2" stroke="rgb(0,0,0)"  stroke-width="2.0"/>
<line x1="176.6" y1="118.5" x2="142.6" y2="138.1" stroke="rgb(0,0,0)"  stroke-width="2.0"/>
<line x1="140.0" y1="139.6" x2="126.9" y2="116.9" stroke="rgb(0,0,0)"  stroke-width="2.0"/>
<line x1="145.2" y1="136.6" x2="132.1" y2="113.9" stroke="rgb(0,0,0)"  stroke-width="2.0"/>
<line x1="142.6" y1="138.1" x2="129.5" y2="160.8" stroke="rgb(0,0,0)"  stroke-width="2.0"/>
<line x1="129.5" y1="183.3" x2="136.1" y2="194.8" stroke="rgb(0,0,0)"  stroke-width="2.0"/>
<line x1="74.6" y1="98.9" x2="51.3" y2="112.4" stroke="rgb(0,0,0)"  stroke-width="2.0"/>
<line x1="374.1" y1="81.8" x2="368.7" y2="56.1" stroke="rgb(0,0,0)"  stroke-width="2.0"/>
<line x1="380.0" y1="80.5" x2="374.5" y2="54.9" stroke="rgb(0,0,0)"  stroke-width="2.0"/>
<line x1="424.1" y1="90.6" x2="435.6" y2="84.0" stroke="rgb(0,0,0)"  stroke-width="2.0"/>
<line x1="410.8" y1="133.9" x2="430.3" y2="151.4" stroke="rgb(0,0,0)"  stroke-width="2.0"/>
<line x1="406.8" y1="138.3" x2="426.3" y2="155.9" stroke="rgb(0,0,0)"  stroke-width="2.0"/>
<line x1="344.2" y1="173.4" x2="349.6" y2="199.1" stroke="rgb(0,0,0)"  stroke-width="2.0"/>
<line x1="370.4" y1="144.3" x2="344.2" y2="173.4" stroke="rgb(0,0,0)"  stroke-width="2.0"/>
<line x1="361.1" y1="143.9" x2="342.8" y2="164.1" stroke="rgb(0,0,0)"  stroke-width="2.0"/>
<line x1="344.2" y1="173.4" x2="320.2" y2="162.7" stroke="rgb(0,0,0)"  stroke-width="2.0"/>
<line x1="309.7" y1="144.5" x2="312.4" y2="118.5" stroke="rgb(0,0,0)"  stroke-width="2.0"/>
<line x1="312.4" y1="118.5" x2="350.8" y2="110.3" stroke="rgb(0,0,0)"  stroke-width="2.0"/>
<line x1="319.8" y1="124.3" x2="346.4" y2="118.6" stroke="rgb(0,0,0)"  stroke-width="2.0"/>
<line x1="350.8" y1="110.3" x2="370.4" y2="144.3" stroke="rgb(0,0,0)"  stroke-width="2.0"/>
<line x1="210.5" y1="98.9" x2="210.5" y2="59.6" stroke="rgb(0,0,0)"  stroke-width="2.0"/>
<line x1="217.7" y1="92.9" x2="217.7" y2="65.6" stroke="rgb(0,0,0)"  stroke-width="2.0"/>
<line x1="210.5" y1="59.6" x2="244.5" y2="40.0" stroke="rgb(0,0,0)"  stroke-width="2.0"/>
<line x1="244.5" y1="40.0" x2="278.5" y2="59.6" stroke="rgb(0,0,0)"  stroke-width="2.0"/>
<line x1="246.1" y1="49.2" x2="269.7" y2="62.8" stroke="rgb(0,0,0)"  stroke-width="2.0"/>
<line x1="278.5" y1="59.6" x2="278.5" y2="98.9" stroke="rgb(0,0,0)"  stroke-width="2.0"/>
<line x1="278.5" y1="98.9" x2="244.5" y2="118.5" stroke="rgb(0,0,0)"  stroke-width="2.0"/>
<line x1="269.7" y1="95.6" x2="246.1" y2="109.2" stroke="rgb(0,0,0)"  stroke-width="2.0"/>
<line x1="244.5" y1="118.5" x2="210.5" y2="98.9" stroke="rgb(0,0,0)"  stroke-width="2.0"/>
<line x1="108.6" y1="118.5" x2="142.6" y2="98.9" stroke="rgb(0,0,0)"  stroke-width="2.0"/>
<line x1="110.2" y1="109.2" x2="133.8" y2="95.6" stroke="rgb(0,0,0)"  stroke-width="2.0"/>
<line x1="142.6" y1="98.9" x2="142.6" y2="59.6" stroke="rgb(0,0,0)"  stroke-width="2.0"/>
<line x1="142.6" y1="59.6" x2="108.6" y2="40.0" stroke="rgb(0,0,0)"  stroke-width="2.0"/>
<line x1="133.8" y1="62.9" x2="110.2" y2="49.2" stroke="rgb(0,0,0)"  stroke-width="2.0"/>
<line x1="108.6" y1="40.0" x2="74.6" y2="59.6" stroke="rgb(0,0,0)"  stroke-width="2.0"/>
<line x1="74.6" y1="59.6" x2="74.6" y2="98.9" stroke="rgb(0,0,0)"  stroke-width="2.0"/>
<line x1="81.8" y1="65.6" x2="81.8" y2="92.9" stroke="rgb(0,0,0)"  stroke-width="2.0"/>
<line x1="74.6" y1="98.9" x2="108.6" y2="118.5" stroke="rgb(0,0,0)"  stroke-width="2.0"/>
<line x1="142.6" y1="59.6" x2="210.5" y2="59.6" stroke="rgb(0,0,0)"  stroke-width="2.0"/>
<line x1="210.5" y1="98.9" x2="176.6" y2="118.5" stroke="rgb(0,0,0)"  stroke-width="2.0"/>
<line x1="176.6" y1="118.5" x2="142.6" y2="98.9" stroke="rgb(0,0,0)"  stroke-width="2.0"/>
<line x1="377.0" y1="81.2" x2="401.0" y2="91.8" stroke="rgb(0,0,0)"  stroke-width="2.0"/>
<line x1="411.5" y1="110.0" x2="408.8" y2="136.1" stroke="rgb(0,0,0)"  stroke-width="2.0"/>
<line x1="408.8" y1="136.1" x2="370.4" y2="144.3" stroke="rgb(0,0,0)"  stroke-width="2.0"/>
<line x1="350.8" y1="110.3" x2="377.0" y2="81.2" stroke="rgb(0,0,0)"  stroke-width="2.0"/>
<text x="406.875767" y="105.101936" fill="rgb(12,12,255)"  stroke="rgb(12,12,255)" stroke-width="1" font-size="16" >N</text>
<text x="362.888930" y="50.792800" fill="rgb(255,12,12)"  stroke="rgb(255,12,12)" stroke-width="1" font-size="16" >O</text>
<text x="440.838233" y="85.489586" fill="rgb(191,191,191)"  stroke="rgb(191,191,191)" stroke-width="1" font-size="16" >H</text>
<text x="431.927288" y="170.345675" fill="rgb(255,12,12)"  stroke="rgb(255,12,12)" stroke-width="1" font-size="16" >O</text>
<text x="346.336879" y="219.771681" fill="rgb(191,191,191)"  stroke="rgb(191,191,191)" stroke-width="1" font-size="16" >H</text>
<text x="302.350043" y="165.462545" fill="rgb(178,178,0)"  stroke="rgb(178,178,0)" stroke-width="1" font-size="16" >S</text>
<text x="136.618506" y="185.304057" fill="rgb(255,12,12)"  stroke="rgb(255,12,12)" stroke-width="1" font-size="16" >O</text>
<text x="204.546998" y="185.291121" fill="rgb(255,12,12)"  stroke="rgb(255,12,12)" stroke-width="1" font-size="16" >O</text>
<text x="240.507510" y="165.675387" fill="rgb(102,102,102)"  stroke="rgb(102,102,102)" stroke-width="1" font-size="16" >CH</text>
<text x="264.507510" y="169.355387" fill="rgb(102,102,102)"  stroke="rgb(102,102,102)" stroke-width="1" font-size="13" >3</text>
<text x="116.996298" y="112.121295" fill="rgb(255,12,12)"  stroke="rgb(255,12,12)" stroke-width="1" font-size="16" >O</text>
<text x="117.004521" y="180.049788" fill="rgb(255,12,12)"  stroke="rgb(255,12,12)" stroke-width="1" font-size="16" >O</text>
<text x="138.617899" y="214.011661" fill="rgb(102,102,102)"  stroke="rgb(102,102,102)" stroke-width="1" font-size="16" >CH</text>
<text x="162.617899" y="217.691661" fill="rgb(102,102,102)"  stroke="rgb(102,102,102)" stroke-width="1" font-size="13" >3</text>
<text x="34.000000" y="126.865684" fill="rgb(191,191,191)"  stroke="rgb(191,191,191)" stroke-width="1" font-size="16" >H</text>
</svg>
</g>
<text font-size="18.000000" fill ="black" font-family="sans-serif"
x="10.000000" y="20.000000" ></text>
</svg>
