<?xml version="1.0"?>
<svg version="1.1" id="topsvg"
xmlns="http://www.w3.org/2000/svg" xmlns:xlink="http://www.w3.org/1999/xlink"
xmlns:cml="http://www.xml-cml.org/schema" x="0" y="0" width="200px" height="200px" viewBox="0 0 100 100">
<title> - Open Babel Depiction</title>
<rect x="0" y="0" width="100" height="100" fill="white"/>
<g transform="translate(0,0)">
<svg width="100" height="100" x="0" y="0" viewBox="0 0 477.454 408.703"
font-family="sans-serif" stroke="rgb(0,0,0)" stroke-width="2"  stroke-linecap="round">
<line x1="312.4" y1="230.5" x2="272.4" y2="230.5" stroke="rgb(0,0,0)"  stroke-width="2.0"/>
<line x1="248.9" y1="262.9" x2="257.2" y2="288.6" stroke="rgb(0,0,0)"  stroke-width="2.0"/>
<line x1="176.2" y1="270.5" x2="176.2" y2="297.5" stroke="rgb(0,0,0)"  stroke-width="2.0"/>
<line x1="80.0" y1="230.5" x2="53.0" y2="230.5" stroke="rgb(0,0,0)"  stroke-width="2.0"/>
<line x1="103.5" y1="198.2" x2="95.2" y2="172.5" stroke="rgb(0,0,0)"  stroke-width="2.0"/>
<line x1="176.2" y1="190.5" x2="176.2" y2="163.5" stroke="rgb(0,0,0)"  stroke-width="2.0"/>
<line x1="334.1" y1="160.6" x2="312.3" y2="144.7" stroke="rgb(0,0,0)"  stroke-width="2.0"/>
<line x1="337.7" y1="155.7" x2="315.8" y2="139.9" stroke="rgb(0,0,0)"  stroke-width="2.0"/>
<line x1="378.0" y1="133.4" x2="386.3" y2="107.8" stroke="rgb(0,0,0)"  stroke-width="2.0"/>
<line x1="385.7" y1="104.8" x2="412.1" y2="99.2" stroke="rgb(0,0,0)"  stroke-width="2.0"/>
<line x1="386.9" y1="110.7" x2="413.3" y2="105.1" stroke="rgb(0,0,0)"  stroke-width="2.0"/>
<line x1="386.3" y1="107.8" x2="368.2" y2="87.7" stroke="rgb(0,0,0)"  stroke-width="2.0"/>
<line x1="363.6" y1="65.7" x2="367.9" y2="52.4" stroke="rgb(0,0,0)"  stroke-width="2.0"/>
<line x1="397.5" y1="178.2" x2="424.5" y2="178.2" stroke="rgb(0,0,0)"  stroke-width="2.0"/>
<line x1="375.7" y1="248.1" x2="397.5" y2="264.0" stroke="rgb(0,0,0)"  stroke-width="2.0"/>
<line x1="372.2" y1="253.0" x2="394.0" y2="268.8" stroke="rgb(0,0,0)"  stroke-width="2.0"/>
<line x1="331.9" y1="275.3" x2="323.5" y2="300.9" stroke="rgb(0,0,0)"  stroke-width="2.0"/>
<line x1="324.2" y1="303.9" x2="297.8" y2="309.5" stroke="rgb(0,0,0)"  stroke-width="2.0"/>
<line x1="322.9" y1="298.0" x2="296.5" y2="303.6" stroke="rgb(0,0,0)"  stroke-width="2.0"/>
<line x1="323.5" y1="300.9" x2="341.6" y2="321.0" stroke="rgb(0,0,0)"  stroke-width="2.0"/>
<line x1="346.3" y1="343.0" x2="342.0" y2="356.3" stroke="rgb(0,0,0)"  stroke-width="2.0"/>
<line x1="210.8" y1="250.5" x2="210.8" y2="210.5" stroke="rgb(0,0,0)"  stroke-width="2.0"/>
<line x1="210.8" y1="210.5" x2="236.5" y2="202.2" stroke="rgb(0,0,0)"  stroke-width="2.0"/>
<line x1="256.5" y1="208.7" x2="272.4" y2="230.5" stroke="rgb(0,0,0)"  stroke-width="2.0"/>
<line x1="272.4" y1="230.5" x2="248.9" y2="262.9" stroke="rgb(0,0,0)"  stroke-width="2.0"/>
<line x1="263.0" y1="231.2" x2="246.6" y2="253.8" stroke="rgb(0,0,0)"  stroke-width="2.0"/>
<line x1="248.9" y1="262.9" x2="210.8" y2="250.5" stroke="rgb(0,0,0)"  stroke-width="2.0"/>
<line x1="80.0" y1="230.5" x2="103.5" y2="198.2" stroke="rgb(0,0,0)"  stroke-width="2.0"/>
<line x1="89.4" y1="229.9" x2="105.8" y2="207.3" stroke="rgb(0,0,0)"  stroke-width="2.0"/>
<line x1="103.5" y1="198.2" x2="141.6" y2="210.5" stroke="rgb(0,0,0)"  stroke-width="2.0"/>
<line x1="141.6" y1="210.5" x2="141.6" y2="250.5" stroke="rgb(0,0,0)"  stroke-width="2.0"/>
<line x1="134.4" y1="216.5" x2="134.4" y2="244.5" stroke="rgb(0,0,0)"  stroke-width="2.0"/>
<line x1="141.6" y1="250.5" x2="115.9" y2="258.9" stroke="rgb(0,0,0)"  stroke-width="2.0"/>
<line x1="95.9" y1="252.4" x2="80.0" y2="230.5" stroke="rgb(0,0,0)"  stroke-width="2.0"/>
<line x1="335.9" y1="158.2" x2="361.6" y2="149.8" stroke="rgb(0,0,0)"  stroke-width="2.0"/>
<line x1="381.6" y1="156.3" x2="397.5" y2="178.2" stroke="rgb(0,0,0)"  stroke-width="2.0"/>
<line x1="397.5" y1="178.2" x2="373.9" y2="210.5" stroke="rgb(0,0,0)"  stroke-width="2.0"/>
<line x1="388.1" y1="178.8" x2="371.6" y2="201.4" stroke="rgb(0,0,0)"  stroke-width="2.0"/>
<line x1="373.9" y1="210.5" x2="335.9" y2="198.2" stroke="rgb(0,0,0)"  stroke-width="2.0"/>
<line x1="335.9" y1="198.2" x2="335.9" y2="158.2" stroke="rgb(0,0,0)"  stroke-width="2.0"/>
<line x1="373.9" y1="210.5" x2="373.9" y2="250.5" stroke="rgb(0,0,0)"  stroke-width="2.0"/>
<line x1="373.9" y1="250.5" x2="348.3" y2="258.9" stroke="rgb(0,0,0)"  stroke-width="2.0"/>
<line x1="328.3" y1="252.4" x2="312.4" y2="230.5" stroke="rgb(0,0,0)"  stroke-width="2.0"/>
<line x1="312.4" y1="230.5" x2="335.9" y2="198.2" stroke="rgb(0,0,0)"  stroke-width="2.0"/>
<line x1="321.7" y1="229.9" x2="338.2" y2="207.3" stroke="rgb(0,0,0)"  stroke-width="2.0"/>
<line x1="141.6" y1="210.5" x2="176.2" y2="190.5" stroke="rgb(0,0,0)"  stroke-width="2.0"/>
<line x1="176.2" y1="190.5" x2="210.8" y2="210.5" stroke="rgb(0,0,0)"  stroke-width="2.0"/>
<line x1="177.8" y1="199.8" x2="202.0" y2="213.8" stroke="rgb(0,0,0)"  stroke-width="2.0"/>
<line x1="210.8" y1="250.5" x2="176.2" y2="270.5" stroke="rgb(0,0,0)"  stroke-width="2.0"/>
<line x1="202.0" y1="247.3" x2="177.8" y2="261.3" stroke="rgb(0,0,0)"  stroke-width="2.0"/>
<line x1="176.2" y1="270.5" x2="141.6" y2="250.5" stroke="rgb(0,0,0)"  stroke-width="2.0"/>
<text x="431.454455" y="186.170994" fill="rgb(191,191,191)"  stroke="rgb(191,191,191)" stroke-width="1" font-size="16" >H</text>
<text x="297.540104" y="142.659584" fill="rgb(255,12,12)"  stroke="rgb(255,12,12)" stroke-width="1" font-size="16" >O</text>
<text x="367.943045" y="153.810314" fill="rgb(12,12,255)"  stroke="rgb(12,12,255)" stroke-width="1" font-size="16" >N</text>
<text x="419.429628" y="107.451586" fill="rgb(255,12,12)"  stroke="rgb(255,12,12)" stroke-width="1" font-size="16" >O</text>
<text x="353.538500" y="86.042261" fill="rgb(255,12,12)"  stroke="rgb(255,12,12)" stroke-width="1" font-size="16" >O</text>
<text x="367.899180" y="48.000000" fill="rgb(102,102,102)"  stroke="rgb(102,102,102)" stroke-width="1" font-size="16" >CH</text>
<text x="391.899180" y="51.680000" fill="rgb(102,102,102)"  stroke="rgb(102,102,102)" stroke-width="1" font-size="13" >3</text>
<text x="400.303724" y="282.043084" fill="rgb(255,12,12)"  stroke="rgb(255,12,12)" stroke-width="1" font-size="16" >O</text>
<text x="329.900784" y="270.892354" fill="rgb(12,12,255)"  stroke="rgb(12,12,255)" stroke-width="1" font-size="16" >N</text>
<text x="278.414200" y="317.251082" fill="rgb(255,12,12)"  stroke="rgb(255,12,12)" stroke-width="1" font-size="16" >O</text>
<text x="344.305328" y="338.660407" fill="rgb(255,12,12)"  stroke="rgb(255,12,12)" stroke-width="1" font-size="16" >O</text>
<text x="311.944649" y="376.702668" fill="rgb(102,102,102)"  stroke="rgb(102,102,102)" stroke-width="1" font-size="16" >H</text>
<text x="323.944649" y="380.382668" fill="rgb(102,102,102)"  stroke="rgb(102,102,102)" stroke-width="1" font-size="13" >3</text>
<text x="330.444649" y="376.702668" fill="rgb(102,102,102)"  stroke="rgb(102,102,102)" stroke-width="1" font-size="16" >C</text>
<text x="255.238643" y="308.934614" fill="rgb(191,191,191)"  stroke="rgb(191,191,191)" stroke-width="1" font-size="16" >H</text>
<text x="170.194687" y="318.531674" fill="rgb(191,191,191)"  stroke="rgb(191,191,191)" stroke-width="1" font-size="16" >H</text>
<text x="97.511410" y="270.892354" fill="rgb(178,178,0)"  stroke="rgb(178,178,0)" stroke-width="1" font-size="16" >S</text>
<text x="34.000000" y="238.531674" fill="rgb(191,191,191)"  stroke="rgb(191,191,191)" stroke-width="1" font-size="16" >H</text>
<text x="85.150730" y="168.128733" fill="rgb(191,191,191)"  stroke="rgb(191,191,191)" stroke-width="1" font-size="16" >H</text>
<text x="170.194687" y="158.531674" fill="rgb(191,191,191)"  stroke="rgb(191,191,191)" stroke-width="1" font-size="16" >H</text>
<text x="242.877964" y="206.170994" fill="rgb(178,178,0)"  stroke="rgb(178,178,0)" stroke-width="1" font-size="16" >S</text>
</svg>
</g>
<text font-size="18.000000" fill ="black" font-family="sans-serif"
x="10.000000" y="20.000000" ></text>
</svg>
