<?xml version="1.0"?>
<svg version="1.1" id="topsvg"
xmlns="http://www.w3.org/2000/svg" xmlns:xlink="http://www.w3.org/1999/xlink"
xmlns:cml="http://www.xml-cml.org/schema" x="0" y="0" width="200px" height="200px" viewBox="0 0 100 100">
<title> - Open Babel Depiction</title>
<rect x="0" y="0" width="100" height="100" fill="white"/>
<g transform="translate(0,0)">
<svg width="100" height="100" x="0" y="0" viewBox="0 0 523.472 352.435"
font-family="sans-serif" stroke="rgb(0,0,0)" stroke-width="2"  stroke-linecap="round">
<line x1="245.5" y1="142.8" x2="283.6" y2="155.1" stroke="rgb(0,0,0)"  stroke-width="2.0"/>
<line x1="339.7" y1="254.4" x2="326.2" y2="277.8" stroke="rgb(0,0,0)"  stroke-width="2.0"/>
<line x1="328.8" y1="276.3" x2="342.3" y2="299.7" stroke="rgb(0,0,0)"  stroke-width="2.0"/>
<line x1="323.6" y1="279.3" x2="337.1" y2="302.7" stroke="rgb(0,0,0)"  stroke-width="2.0"/>
<line x1="326.2" y1="277.8" x2="299.2" y2="277.8" stroke="rgb(0,0,0)"  stroke-width="2.0"/>
<line x1="279.7" y1="266.5" x2="272.7" y2="254.4" stroke="rgb(0,0,0)"  stroke-width="2.0"/>
<line x1="453.7" y1="253.4" x2="473.8" y2="271.4" stroke="rgb(0,0,0)"  stroke-width="2.0"/>
<line x1="233.2" y1="104.7" x2="256.7" y2="72.4" stroke="rgb(0,0,0)"  stroke-width="2.0"/>
<line x1="256.7" y1="72.4" x2="272.5" y2="50.5" stroke="rgb(0,0,0)"  stroke-width="2.0"/>
<line x1="253.3" y1="69.9" x2="269.2" y2="48.0" stroke="rgb(0,0,0)"  stroke-width="2.0"/>
<line x1="260.1" y1="74.8" x2="275.9" y2="53.0" stroke="rgb(0,0,0)"  stroke-width="2.0"/>
<line x1="180.8" y1="142.8" x2="142.8" y2="155.1" stroke="rgb(0,0,0)"  stroke-width="2.0"/>
<line x1="78.0" y1="155.1" x2="52.4" y2="146.8" stroke="rgb(0,0,0)"  stroke-width="2.0"/>
<line x1="90.4" y1="193.2" x2="66.9" y2="225.5" stroke="rgb(0,0,0)"  stroke-width="2.0"/>
<line x1="66.9" y1="225.5" x2="51.0" y2="247.4" stroke="rgb(0,0,0)"  stroke-width="2.0"/>
<line x1="70.3" y1="228.0" x2="54.4" y2="249.8" stroke="rgb(0,0,0)"  stroke-width="2.0"/>
<line x1="63.5" y1="223.1" x2="47.6" y2="244.9" stroke="rgb(0,0,0)"  stroke-width="2.0"/>
<line x1="386.0" y1="239.0" x2="394.3" y2="199.8" stroke="rgb(0,0,0)"  stroke-width="2.0"/>
<line x1="394.3" y1="199.8" x2="359.7" y2="179.8" stroke="rgb(0,0,0)"  stroke-width="2.0"/>
<line x1="359.7" y1="179.8" x2="329.9" y2="206.6" stroke="rgb(0,0,0)"  stroke-width="2.0"/>
<line x1="360.0" y1="189.2" x2="339.2" y2="207.9" stroke="rgb(0,0,0)"  stroke-width="2.0"/>
<line x1="329.9" y1="206.6" x2="340.9" y2="231.3" stroke="rgb(0,0,0)"  stroke-width="2.0"/>
<line x1="359.1" y1="241.8" x2="386.0" y2="239.0" stroke="rgb(0,0,0)"  stroke-width="2.0"/>
<line x1="189.1" y1="117.3" x2="180.8" y2="142.8" stroke="rgb(0,0,0)"  stroke-width="2.0"/>
<line x1="195.3" y1="121.4" x2="189.5" y2="139.3" stroke="rgb(0,0,0)"  stroke-width="2.0"/>
<line x1="180.8" y1="142.8" x2="202.6" y2="158.6" stroke="rgb(0,0,0)"  stroke-width="2.0"/>
<line x1="223.7" y1="158.6" x2="245.5" y2="142.8" stroke="rgb(0,0,0)"  stroke-width="2.0"/>
<line x1="245.5" y1="142.8" x2="233.2" y2="104.7" stroke="rgb(0,0,0)"  stroke-width="2.0"/>
<line x1="236.8" y1="139.3" x2="228.2" y2="112.7" stroke="rgb(0,0,0)"  stroke-width="2.0"/>
<line x1="233.2" y1="104.7" x2="206.2" y2="104.7" stroke="rgb(0,0,0)"  stroke-width="2.0"/>
<line x1="78.0" y1="155.1" x2="90.4" y2="193.2" stroke="rgb(0,0,0)"  stroke-width="2.0"/>
<line x1="86.7" y1="158.6" x2="95.4" y2="185.2" stroke="rgb(0,0,0)"  stroke-width="2.0"/>
<line x1="90.4" y1="193.2" x2="117.4" y2="193.2" stroke="rgb(0,0,0)"  stroke-width="2.0"/>
<line x1="134.5" y1="180.6" x2="142.8" y2="155.1" stroke="rgb(0,0,0)"  stroke-width="2.0"/>
<line x1="128.3" y1="176.5" x2="134.1" y2="158.6" stroke="rgb(0,0,0)"  stroke-width="2.0"/>
<line x1="142.8" y1="155.1" x2="120.9" y2="139.3" stroke="rgb(0,0,0)"  stroke-width="2.0"/>
<line x1="99.9" y1="139.3" x2="78.0" y2="155.1" stroke="rgb(0,0,0)"  stroke-width="2.0"/>
<line x1="359.7" y1="179.8" x2="351.3" y2="140.7" stroke="rgb(0,0,0)"  stroke-width="2.0"/>
<line x1="351.3" y1="140.7" x2="313.3" y2="128.4" stroke="rgb(0,0,0)"  stroke-width="2.0"/>
<line x1="343.4" y1="145.7" x2="316.8" y2="137.1" stroke="rgb(0,0,0)"  stroke-width="2.0"/>
<line x1="313.3" y1="128.4" x2="283.6" y2="155.1" stroke="rgb(0,0,0)"  stroke-width="2.0"/>
<line x1="283.6" y1="155.1" x2="291.9" y2="194.3" stroke="rgb(0,0,0)"  stroke-width="2.0"/>
<line x1="291.9" y1="159.5" x2="297.7" y2="186.9" stroke="rgb(0,0,0)"  stroke-width="2.0"/>
<line x1="291.9" y1="194.3" x2="329.9" y2="206.6" stroke="rgb(0,0,0)"  stroke-width="2.0"/>
<line x1="415.7" y1="265.7" x2="386.0" y2="239.0" stroke="rgb(0,0,0)"  stroke-width="2.0"/>
<line x1="416.1" y1="256.4" x2="395.3" y2="237.6" stroke="rgb(0,0,0)"  stroke-width="2.0"/>
<line x1="394.3" y1="199.8" x2="432.3" y2="187.5" stroke="rgb(0,0,0)"  stroke-width="2.0"/>
<line x1="402.2" y1="204.8" x2="428.9" y2="196.2" stroke="rgb(0,0,0)"  stroke-width="2.0"/>
<line x1="432.3" y1="187.5" x2="462.1" y2="214.3" stroke="rgb(0,0,0)"  stroke-width="2.0"/>
<line x1="462.1" y1="214.3" x2="453.7" y2="253.4" stroke="rgb(0,0,0)"  stroke-width="2.0"/>
<line x1="453.8" y1="218.6" x2="448.0" y2="246.0" stroke="rgb(0,0,0)"  stroke-width="2.0"/>
<line x1="453.7" y1="253.4" x2="415.7" y2="265.7" stroke="rgb(0,0,0)"  stroke-width="2.0"/>
<text x="274.189381" y="48.000000" fill="rgb(12,12,255)"  stroke="rgb(12,12,255)" stroke-width="1" font-size="16" >N</text>
<text x="187.166561" y="112.721360" fill="rgb(12,12,255)"  stroke="rgb(12,12,255)" stroke-width="1" font-size="16" >N</text>
<text x="207.166561" y="174.275030" fill="rgb(178,178,0)"  stroke="rgb(178,178,0)" stroke-width="1" font-size="16" >S</text>
<text x="104.402940" y="139.612890" fill="rgb(178,178,0)"  stroke="rgb(178,178,0)" stroke-width="1" font-size="16" >S</text>
<text x="34.000000" y="150.763620" fill="rgb(191,191,191)"  stroke="rgb(191,191,191)" stroke-width="1" font-size="16" >H</text>
<text x="37.380120" y="265.887920" fill="rgb(12,12,255)"  stroke="rgb(12,12,255)" stroke-width="1" font-size="16" >N</text>
<text x="124.402940" y="201.166561" fill="rgb(12,12,255)"  stroke="rgb(12,12,255)" stroke-width="1" font-size="16" >N</text>
<text x="477.472418" y="288.141332" fill="rgb(191,191,191)"  stroke="rgb(191,191,191)" stroke-width="1" font-size="16" >H</text>
<text x="240.197695" y="251.152702" fill="rgb(102,102,102)"  stroke="rgb(102,102,102)" stroke-width="1" font-size="16" >H</text>
<text x="252.197695" y="254.832702" fill="rgb(102,102,102)"  stroke="rgb(102,102,102)" stroke-width="1" font-size="13" >3</text>
<text x="258.697695" y="251.152702" fill="rgb(102,102,102)"  stroke="rgb(102,102,102)" stroke-width="1" font-size="16" >C</text>
<text x="280.197695" y="285.793718" fill="rgb(255,12,12)"  stroke="rgb(255,12,12)" stroke-width="1" font-size="16" >O</text>
<text x="340.197695" y="320.434734" fill="rgb(255,12,12)"  stroke="rgb(255,12,12)" stroke-width="1" font-size="16" >O</text>
<text x="340.197695" y="251.152702" fill="rgb(12,12,255)"  stroke="rgb(12,12,255)" stroke-width="1" font-size="16" >N</text>
</svg>
</g>
<text font-size="18.000000" fill ="black" font-family="sans-serif"
x="10.000000" y="20.000000" ></text>
</svg>
