<?xml version="1.0"?>
<svg version="1.1" id="topsvg"
xmlns="http://www.w3.org/2000/svg" xmlns:xlink="http://www.w3.org/1999/xlink"
xmlns:cml="http://www.xml-cml.org/schema" x="0" y="0" width="200px" height="200px" viewBox="0 0 100 100">
<title> - Open Babel Depiction</title>
<rect x="0" y="0" width="100" height="100" fill="white"/>
<g transform="translate(0,0)">
<svg width="100" height="100" x="0" y="0" viewBox="0 0 547.435 358.013"
font-family="sans-serif" stroke="rgb(0,0,0)" stroke-width="2"  stroke-linecap="round">
<line x1="272.2" y1="214.2" x2="306.8" y2="233.9" stroke="rgb(0,0,0)"  stroke-width="2.0"/>
<line x1="311.2" y1="273.6" x2="291.3" y2="291.7" stroke="rgb(0,0,0)"  stroke-width="2.0"/>
<line x1="350.2" y1="281.7" x2="361.3" y2="306.2" stroke="rgb(0,0,0)"  stroke-width="2.0"/>
<line x1="370.0" y1="247.0" x2="409.6" y2="242.7" stroke="rgb(0,0,0)"  stroke-width="2.0"/>
<line x1="472.8" y1="255.8" x2="496.1" y2="269.1" stroke="rgb(0,0,0)"  stroke-width="2.0"/>
<line x1="468.4" y1="216.1" x2="488.3" y2="198.0" stroke="rgb(0,0,0)"  stroke-width="2.0"/>
<line x1="429.4" y1="208.0" x2="418.3" y2="183.5" stroke="rgb(0,0,0)"  stroke-width="2.0"/>
<line x1="171.0" y1="235.1" x2="171.1" y2="262.1" stroke="rgb(0,0,0)"  stroke-width="2.0"/>
<line x1="165.0" y1="235.1" x2="165.1" y2="262.1" stroke="rgb(0,0,0)"  stroke-width="2.0"/>
<line x1="122.3" y1="221.9" x2="99.3" y2="235.5" stroke="rgb(0,0,0)"  stroke-width="2.0"/>
<line x1="96.7" y1="237.0" x2="83.1" y2="214.0" stroke="rgb(0,0,0)"  stroke-width="2.0"/>
<line x1="101.9" y1="234.0" x2="88.3" y2="210.9" stroke="rgb(0,0,0)"  stroke-width="2.0"/>
<line x1="99.3" y1="235.5" x2="86.2" y2="258.8" stroke="rgb(0,0,0)"  stroke-width="2.0"/>
<line x1="66.8" y1="270.2" x2="53.0" y2="270.4" stroke="rgb(0,0,0)"  stroke-width="2.0"/>
<line x1="131.3" y1="177.5" x2="107.8" y2="164.3" stroke="rgb(0,0,0)"  stroke-width="2.0"/>
<line x1="134.3" y1="172.3" x2="110.7" y2="159.1" stroke="rgb(0,0,0)"  stroke-width="2.0"/>
<line x1="167.7" y1="114.5" x2="144.1" y2="101.3" stroke="rgb(0,0,0)"  stroke-width="2.0"/>
<line x1="268.5" y1="93.8" x2="268.3" y2="66.9" stroke="rgb(0,0,0)"  stroke-width="2.0"/>
<line x1="274.5" y1="93.8" x2="274.3" y2="66.8" stroke="rgb(0,0,0)"  stroke-width="2.0"/>
<line x1="317.7" y1="107.1" x2="341.1" y2="93.3" stroke="rgb(0,0,0)"  stroke-width="2.0"/>
<line x1="342.1" y1="90.5" x2="367.7" y2="99.8" stroke="rgb(0,0,0)"  stroke-width="2.0"/>
<line x1="340.1" y1="96.1" x2="365.7" y2="105.4" stroke="rgb(0,0,0)"  stroke-width="2.0"/>
<line x1="341.1" y1="93.3" x2="336.4" y2="66.5" stroke="rgb(0,0,0)"  stroke-width="2.0"/>
<line x1="321.9" y1="49.3" x2="308.5" y2="44.4" stroke="rgb(0,0,0)"  stroke-width="2.0"/>
<line x1="308.2" y1="151.4" x2="331.6" y2="164.8" stroke="rgb(0,0,0)"  stroke-width="2.0"/>
<line x1="305.2" y1="156.7" x2="328.6" y2="170.0" stroke="rgb(0,0,0)"  stroke-width="2.0"/>
<line x1="350.2" y1="281.7" x2="370.0" y2="247.0" stroke="rgb(0,0,0)"  stroke-width="2.0"/>
<line x1="347.0" y1="272.9" x2="360.8" y2="248.7" stroke="rgb(0,0,0)"  stroke-width="2.0"/>
<line x1="370.0" y1="247.0" x2="351.9" y2="227.2" stroke="rgb(0,0,0)"  stroke-width="2.0"/>
<line x1="331.3" y1="222.9" x2="306.8" y2="233.9" stroke="rgb(0,0,0)"  stroke-width="2.0"/>
<line x1="306.8" y1="233.9" x2="311.2" y2="273.6" stroke="rgb(0,0,0)"  stroke-width="2.0"/>
<line x1="314.6" y1="239.1" x2="317.7" y2="266.8" stroke="rgb(0,0,0)"  stroke-width="2.0"/>
<line x1="311.2" y1="273.6" x2="350.2" y2="281.7" stroke="rgb(0,0,0)"  stroke-width="2.0"/>
<line x1="472.8" y1="255.8" x2="468.4" y2="216.1" stroke="rgb(0,0,0)"  stroke-width="2.0"/>
<line x1="465.0" y1="250.6" x2="461.9" y2="222.9" stroke="rgb(0,0,0)"  stroke-width="2.0"/>
<line x1="468.4" y1="216.1" x2="429.4" y2="208.0" stroke="rgb(0,0,0)"  stroke-width="2.0"/>
<line x1="429.4" y1="208.0" x2="409.6" y2="242.7" stroke="rgb(0,0,0)"  stroke-width="2.0"/>
<line x1="432.7" y1="216.8" x2="418.9" y2="241.0" stroke="rgb(0,0,0)"  stroke-width="2.0"/>
<line x1="409.6" y1="242.7" x2="427.7" y2="262.5" stroke="rgb(0,0,0)"  stroke-width="2.0"/>
<line x1="448.3" y1="266.8" x2="472.8" y2="255.8" stroke="rgb(0,0,0)"  stroke-width="2.0"/>
<line x1="202.7" y1="214.8" x2="202.6" y2="174.3" stroke="rgb(0,0,0)"  stroke-width="2.0"/>
<line x1="209.9" y1="208.8" x2="209.8" y2="180.3" stroke="rgb(0,0,0)"  stroke-width="2.0"/>
<line x1="202.6" y1="174.3" x2="237.1" y2="154.2" stroke="rgb(0,0,0)"  stroke-width="2.0"/>
<line x1="237.1" y1="154.2" x2="272.0" y2="174.3" stroke="rgb(0,0,0)"  stroke-width="2.0"/>
<line x1="238.7" y1="163.4" x2="263.2" y2="177.5" stroke="rgb(0,0,0)"  stroke-width="2.0"/>
<line x1="272.0" y1="174.3" x2="272.2" y2="214.2" stroke="rgb(0,0,0)"  stroke-width="2.0"/>
<line x1="272.2" y1="214.2" x2="237.7" y2="234.3" stroke="rgb(0,0,0)"  stroke-width="2.0"/>
<line x1="263.4" y1="211.0" x2="239.3" y2="225.1" stroke="rgb(0,0,0)"  stroke-width="2.0"/>
<line x1="237.7" y1="234.3" x2="202.7" y2="214.8" stroke="rgb(0,0,0)"  stroke-width="2.0"/>
<line x1="132.8" y1="174.9" x2="167.5" y2="154.6" stroke="rgb(0,0,0)"  stroke-width="2.0"/>
<line x1="167.5" y1="154.6" x2="202.6" y2="174.3" stroke="rgb(0,0,0)"  stroke-width="2.0"/>
<line x1="202.7" y1="214.8" x2="168.0" y2="235.1" stroke="rgb(0,0,0)"  stroke-width="2.0"/>
<line x1="168.0" y1="235.1" x2="144.8" y2="221.8" stroke="rgb(0,0,0)"  stroke-width="2.0"/>
<line x1="133.3" y1="202.3" x2="132.8" y2="174.9" stroke="rgb(0,0,0)"  stroke-width="2.0"/>
<line x1="202.1" y1="94.4" x2="236.8" y2="114.1" stroke="rgb(0,0,0)"  stroke-width="2.0"/>
<line x1="203.8" y1="103.6" x2="228.0" y2="117.4" stroke="rgb(0,0,0)"  stroke-width="2.0"/>
<line x1="236.8" y1="114.1" x2="237.1" y2="154.2" stroke="rgb(0,0,0)"  stroke-width="2.0"/>
<line x1="167.5" y1="154.6" x2="167.7" y2="114.5" stroke="rgb(0,0,0)"  stroke-width="2.0"/>
<line x1="174.7" y1="148.7" x2="174.8" y2="120.5" stroke="rgb(0,0,0)"  stroke-width="2.0"/>
<line x1="167.7" y1="114.5" x2="202.1" y2="94.4" stroke="rgb(0,0,0)"  stroke-width="2.0"/>
<line x1="306.5" y1="126.6" x2="306.7" y2="154.0" stroke="rgb(0,0,0)"  stroke-width="2.0"/>
<line x1="306.7" y1="154.0" x2="272.0" y2="174.3" stroke="rgb(0,0,0)"  stroke-width="2.0"/>
<line x1="236.8" y1="114.1" x2="271.5" y2="93.8" stroke="rgb(0,0,0)"  stroke-width="2.0"/>
<line x1="271.5" y1="93.8" x2="295.1" y2="107.2" stroke="rgb(0,0,0)"  stroke-width="2.0"/>
<text x="265.193400" y="61.841758" fill="rgb(255,12,12)"  stroke="rgb(255,12,12)" stroke-width="1" font-size="16" >O</text>
<text x="73.760969" y="278.111742" fill="rgb(255,12,12)"  stroke="rgb(255,12,12)" stroke-width="1" font-size="16" >O</text>
<text x="14.000000" y="278.502032" fill="rgb(102,102,102)"  stroke="rgb(102,102,102)" stroke-width="1" font-size="16" >H</text>
<text x="26.000000" y="282.182032" fill="rgb(102,102,102)"  stroke="rgb(102,102,102)" stroke-width="1" font-size="13" >3</text>
<text x="32.500000" y="278.502032" fill="rgb(102,102,102)"  stroke="rgb(102,102,102)" stroke-width="1" font-size="16" >C</text>
<text x="91.936060" y="163.302868" fill="rgb(255,12,12)"  stroke="rgb(255,12,12)" stroke-width="1" font-size="16" >O</text>
<text x="126.810642" y="102.933367" fill="rgb(191,191,191)"  stroke="rgb(191,191,191)" stroke-width="1" font-size="16" >H</text>
<text x="73.084968" y="209.243724" fill="rgb(255,12,12)"  stroke="rgb(255,12,12)" stroke-width="1" font-size="16" >O</text>
<text x="300.442952" y="121.638399" fill="rgb(12,12,255)"  stroke="rgb(12,12,255)" stroke-width="1" font-size="16" >N</text>
<text x="372.909991" y="115.012798" fill="rgb(255,12,12)"  stroke="rgb(255,12,12)" stroke-width="1" font-size="16" >O</text>
<text x="328.101397" y="61.714181" fill="rgb(255,12,12)"  stroke="rgb(255,12,12)" stroke-width="1" font-size="16" >O</text>
<text x="270.311115" y="48.000000" fill="rgb(102,102,102)"  stroke="rgb(102,102,102)" stroke-width="1" font-size="16" >H</text>
<text x="282.311115" y="51.680000" fill="rgb(102,102,102)"  stroke="rgb(102,102,102)" stroke-width="1" font-size="13" >3</text>
<text x="288.811115" y="48.000000" fill="rgb(102,102,102)"  stroke="rgb(102,102,102)" stroke-width="1" font-size="16" >C</text>
<text x="335.418703" y="181.857676" fill="rgb(255,12,12)"  stroke="rgb(255,12,12)" stroke-width="1" font-size="16" >O</text>
<text x="501.434667" y="283.522841" fill="rgb(191,191,191)"  stroke="rgb(191,191,191)" stroke-width="1" font-size="16" >H</text>
<text x="275.697705" y="308.408391" fill="rgb(191,191,191)"  stroke="rgb(191,191,191)" stroke-width="1" font-size="16" >H</text>
<text x="360.638797" y="326.012820" fill="rgb(191,191,191)"  stroke="rgb(191,191,191)" stroke-width="1" font-size="16" >H</text>
<text x="337.166814" y="225.542840" fill="rgb(178,178,0)"  stroke="rgb(178,178,0)" stroke-width="1" font-size="16" >S</text>
<text x="430.460124" y="280.164546" fill="rgb(178,178,0)"  stroke="rgb(178,178,0)" stroke-width="1" font-size="16" >S</text>
<text x="491.929233" y="197.298995" fill="rgb(191,191,191)"  stroke="rgb(191,191,191)" stroke-width="1" font-size="16" >H</text>
<text x="406.988141" y="179.694566" fill="rgb(191,191,191)"  stroke="rgb(191,191,191)" stroke-width="1" font-size="16" >H</text>
<text x="162.132475" y="283.110111" fill="rgb(255,12,12)"  stroke="rgb(255,12,12)" stroke-width="1" font-size="16" >O</text>
<text x="127.542317" y="223.264104" fill="rgb(12,12,255)"  stroke="rgb(12,12,255)" stroke-width="1" font-size="16" >N</text>
</svg>
</g>
<text font-size="18.000000" fill ="black" font-family="sans-serif"
x="10.000000" y="20.000000" ></text>
</svg>
