<?xml version="1.0"?>
<svg version="1.1" id="topsvg"
xmlns="http://www.w3.org/2000/svg" xmlns:xlink="http://www.w3.org/1999/xlink"
xmlns:cml="http://www.xml-cml.org/schema" x="0" y="0" width="200px" height="200px" viewBox="0 0 100 100">
<title> - Open Babel Depiction</title>
<rect x="0" y="0" width="100" height="100" fill="white"/>
<g transform="translate(0,0)">
<svg width="100" height="100" x="0" y="0" viewBox="0 0 547.857 293.914"
font-family="sans-serif" stroke="rgb(0,0,0)" stroke-width="2"  stroke-linecap="round">
<line x1="312.4" y1="120.0" x2="272.4" y2="120.0" stroke="rgb(0,0,0)"  stroke-width="2.0"/>
<line x1="248.9" y1="152.4" x2="257.2" y2="178.0" stroke="rgb(0,0,0)"  stroke-width="2.0"/>
<line x1="176.2" y1="160.0" x2="176.2" y2="187.0" stroke="rgb(0,0,0)"  stroke-width="2.0"/>
<line x1="80.0" y1="120.0" x2="53.0" y2="120.0" stroke="rgb(0,0,0)"  stroke-width="2.0"/>
<line x1="103.5" y1="87.6" x2="95.2" y2="62.0" stroke="rgb(0,0,0)"  stroke-width="2.0"/>
<line x1="176.2" y1="80.0" x2="176.2" y2="53.0" stroke="rgb(0,0,0)"  stroke-width="2.0"/>
<line x1="335.9" y1="87.6" x2="327.6" y2="62.0" stroke="rgb(0,0,0)"  stroke-width="2.0"/>
<line x1="373.9" y1="140.0" x2="406.3" y2="163.5" stroke="rgb(0,0,0)"  stroke-width="2.0"/>
<line x1="467.9" y1="183.5" x2="494.9" y2="183.5" stroke="rgb(0,0,0)"  stroke-width="2.0"/>
<line x1="444.3" y1="215.9" x2="452.7" y2="241.6" stroke="rgb(0,0,0)"  stroke-width="2.0"/>
<line x1="210.8" y1="140.0" x2="210.8" y2="100.0" stroke="rgb(0,0,0)"  stroke-width="2.0"/>
<line x1="210.8" y1="100.0" x2="236.5" y2="91.7" stroke="rgb(0,0,0)"  stroke-width="2.0"/>
<line x1="256.5" y1="98.2" x2="272.4" y2="120.0" stroke="rgb(0,0,0)"  stroke-width="2.0"/>
<line x1="272.4" y1="120.0" x2="248.9" y2="152.4" stroke="rgb(0,0,0)"  stroke-width="2.0"/>
<line x1="263.0" y1="120.6" x2="246.6" y2="143.3" stroke="rgb(0,0,0)"  stroke-width="2.0"/>
<line x1="248.9" y1="152.4" x2="210.8" y2="140.0" stroke="rgb(0,0,0)"  stroke-width="2.0"/>
<line x1="80.0" y1="120.0" x2="103.5" y2="87.6" stroke="rgb(0,0,0)"  stroke-width="2.0"/>
<line x1="89.4" y1="119.4" x2="105.8" y2="96.7" stroke="rgb(0,0,0)"  stroke-width="2.0"/>
<line x1="103.5" y1="87.6" x2="141.6" y2="100.0" stroke="rgb(0,0,0)"  stroke-width="2.0"/>
<line x1="141.6" y1="100.0" x2="141.6" y2="140.0" stroke="rgb(0,0,0)"  stroke-width="2.0"/>
<line x1="134.4" y1="106.0" x2="134.4" y2="134.0" stroke="rgb(0,0,0)"  stroke-width="2.0"/>
<line x1="141.6" y1="140.0" x2="115.9" y2="148.3" stroke="rgb(0,0,0)"  stroke-width="2.0"/>
<line x1="95.9" y1="141.8" x2="80.0" y2="120.0" stroke="rgb(0,0,0)"  stroke-width="2.0"/>
<line x1="373.9" y1="113.2" x2="373.9" y2="140.0" stroke="rgb(0,0,0)"  stroke-width="2.0"/>
<line x1="366.7" y1="115.2" x2="366.7" y2="134.0" stroke="rgb(0,0,0)"  stroke-width="2.0"/>
<line x1="373.9" y1="140.0" x2="348.3" y2="148.3" stroke="rgb(0,0,0)"  stroke-width="2.0"/>
<line x1="328.3" y1="141.8" x2="312.4" y2="120.0" stroke="rgb(0,0,0)"  stroke-width="2.0"/>
<line x1="312.4" y1="120.0" x2="335.9" y2="87.6" stroke="rgb(0,0,0)"  stroke-width="2.0"/>
<line x1="321.7" y1="119.4" x2="338.2" y2="96.7" stroke="rgb(0,0,0)"  stroke-width="2.0"/>
<line x1="335.9" y1="87.6" x2="361.6" y2="96.0" stroke="rgb(0,0,0)"  stroke-width="2.0"/>
<line x1="467.9" y1="183.5" x2="444.3" y2="215.9" stroke="rgb(0,0,0)"  stroke-width="2.0"/>
<line x1="458.5" y1="184.1" x2="442.0" y2="206.8" stroke="rgb(0,0,0)"  stroke-width="2.0"/>
<line x1="444.3" y1="215.9" x2="418.7" y2="207.5" stroke="rgb(0,0,0)"  stroke-width="2.0"/>
<line x1="406.3" y1="190.3" x2="406.3" y2="163.5" stroke="rgb(0,0,0)"  stroke-width="2.0"/>
<line x1="413.5" y1="188.3" x2="413.5" y2="169.5" stroke="rgb(0,0,0)"  stroke-width="2.0"/>
<line x1="406.3" y1="163.5" x2="432.0" y2="155.2" stroke="rgb(0,0,0)"  stroke-width="2.0"/>
<line x1="452.0" y1="161.7" x2="467.9" y2="183.5" stroke="rgb(0,0,0)"  stroke-width="2.0"/>
<line x1="141.6" y1="100.0" x2="176.2" y2="80.0" stroke="rgb(0,0,0)"  stroke-width="2.0"/>
<line x1="176.2" y1="80.0" x2="210.8" y2="100.0" stroke="rgb(0,0,0)"  stroke-width="2.0"/>
<line x1="177.8" y1="89.2" x2="202.0" y2="103.2" stroke="rgb(0,0,0)"  stroke-width="2.0"/>
<line x1="210.8" y1="140.0" x2="176.2" y2="160.0" stroke="rgb(0,0,0)"  stroke-width="2.0"/>
<line x1="202.0" y1="136.8" x2="177.8" y2="150.8" stroke="rgb(0,0,0)"  stroke-width="2.0"/>
<line x1="176.2" y1="160.0" x2="141.6" y2="140.0" stroke="rgb(0,0,0)"  stroke-width="2.0"/>
<text x="170.194687" y="48.000000" fill="rgb(191,191,191)"  stroke="rgb(191,191,191)" stroke-width="1" font-size="16" >H</text>
<text x="400.303724" y="211.511410" fill="rgb(12,12,255)"  stroke="rgb(12,12,255)" stroke-width="1" font-size="16" >N</text>
<text x="450.706665" y="261.914351" fill="rgb(255,12,12)"  stroke="rgb(255,12,12)" stroke-width="1" font-size="16" >OH</text>
<text x="501.857395" y="191.511410" fill="rgb(191,191,191)"  stroke="rgb(191,191,191)" stroke-width="1" font-size="16" >H</text>
<text x="438.345985" y="159.150730" fill="rgb(178,178,0)"  stroke="rgb(178,178,0)" stroke-width="1" font-size="16" >S</text>
<text x="329.900784" y="160.360680" fill="rgb(178,178,0)"  stroke="rgb(178,178,0)" stroke-width="1" font-size="16" >S</text>
<text x="367.943045" y="108.000000" fill="rgb(12,12,255)"  stroke="rgb(12,12,255)" stroke-width="1" font-size="16" >N</text>
<text x="305.540104" y="57.597060" fill="rgb(255,12,12)"  stroke="rgb(255,12,12)" stroke-width="1" font-size="16" >HO</text>
<text x="242.877964" y="95.639320" fill="rgb(178,178,0)"  stroke="rgb(178,178,0)" stroke-width="1" font-size="16" >S</text>
<text x="85.150730" y="57.597060" fill="rgb(127,178,255)"  stroke="rgb(127,178,255)" stroke-width="1" font-size="16" >F</text>
<text x="34.000000" y="128.000000" fill="rgb(191,191,191)"  stroke="rgb(191,191,191)" stroke-width="1" font-size="16" >H</text>
<text x="97.511410" y="160.360680" fill="rgb(178,178,0)"  stroke="rgb(178,178,0)" stroke-width="1" font-size="16" >S</text>
<text x="170.194687" y="208.000000" fill="rgb(191,191,191)"  stroke="rgb(191,191,191)" stroke-width="1" font-size="16" >H</text>
<text x="255.238643" y="198.402940" fill="rgb(127,178,255)"  stroke="rgb(127,178,255)" stroke-width="1" font-size="16" >F</text>
</svg>
</g>
<text font-size="18.000000" fill ="black" font-family="sans-serif"
x="10.000000" y="20.000000" ></text>
</svg>
