<?xml version="1.0"?>
<svg version="1.1" id="topsvg"
xmlns="http://www.w3.org/2000/svg" xmlns:xlink="http://www.w3.org/1999/xlink"
xmlns:cml="http://www.xml-cml.org/schema" x="0" y="0" width="200px" height="200px" viewBox="0 0 100 100">
<title> - Open Babel Depiction</title>
<rect x="0" y="0" width="100" height="100" fill="white"/>
<g transform="translate(0,0)">
<svg width="100" height="100" x="0" y="0" viewBox="0 0 587.679 418.914"
font-family="sans-serif" stroke="rgb(0,0,0)" stroke-width="2"  stroke-linecap="round">
<line x1="275.9" y1="212.0" x2="241.3" y2="192.0" stroke="rgb(0,0,0)"  stroke-width="2.0"/>
<line x1="204.7" y1="208.3" x2="199.1" y2="234.7" stroke="rgb(0,0,0)"  stroke-width="2.0"/>
<line x1="137.9" y1="178.6" x2="124.4" y2="201.9" stroke="rgb(0,0,0)"  stroke-width="2.0"/>
<line x1="104.9" y1="213.2" x2="90.9" y2="213.2" stroke="rgb(0,0,0)"  stroke-width="2.0"/>
<line x1="74.6" y1="95.8" x2="51.3" y2="82.3" stroke="rgb(0,0,0)"  stroke-width="2.0"/>
<line x1="111.2" y1="79.6" x2="116.8" y2="53.1" stroke="rgb(0,0,0)"  stroke-width="2.0"/>
<line x1="177.9" y1="109.3" x2="191.4" y2="85.9" stroke="rgb(0,0,0)"  stroke-width="2.0"/>
<line x1="191.4" y1="63.4" x2="184.4" y2="51.3" stroke="rgb(0,0,0)"  stroke-width="2.0"/>
<line x1="361.2" y1="313.8" x2="374.7" y2="337.2" stroke="rgb(0,0,0)"  stroke-width="2.0"/>
<line x1="356.0" y1="316.8" x2="369.5" y2="340.2" stroke="rgb(0,0,0)"  stroke-width="2.0"/>
<line x1="310.2" y1="320.8" x2="300.8" y2="331.2" stroke="rgb(0,0,0)"  stroke-width="2.0"/>
<line x1="296.1" y1="353.2" x2="300.4" y2="366.6" stroke="rgb(0,0,0)"  stroke-width="2.0"/>
<line x1="374.3" y1="275.9" x2="413.4" y2="267.5" stroke="rgb(0,0,0)"  stroke-width="2.0"/>
<line x1="375.5" y1="281.7" x2="414.7" y2="273.4" stroke="rgb(0,0,0)"  stroke-width="2.0"/>
<line x1="427.7" y1="235.4" x2="414.2" y2="212.0" stroke="rgb(0,0,0)"  stroke-width="2.0"/>
<line x1="432.9" y1="232.4" x2="419.4" y2="209.0" stroke="rgb(0,0,0)"  stroke-width="2.0"/>
<line x1="478.8" y1="228.4" x2="488.1" y2="218.0" stroke="rgb(0,0,0)"  stroke-width="2.0"/>
<line x1="509.6" y1="211.1" x2="523.3" y2="214.0" stroke="rgb(0,0,0)"  stroke-width="2.0"/>
<line x1="513.0" y1="337.2" x2="536.4" y2="350.7" stroke="rgb(0,0,0)"  stroke-width="2.0"/>
<line x1="177.9" y1="178.6" x2="197.9" y2="143.9" stroke="rgb(0,0,0)"  stroke-width="2.0"/>
<line x1="197.9" y1="143.9" x2="224.4" y2="149.5" stroke="rgb(0,0,0)"  stroke-width="2.0"/>
<line x1="238.4" y1="165.2" x2="241.3" y2="192.0" stroke="rgb(0,0,0)"  stroke-width="2.0"/>
<line x1="241.3" y1="192.0" x2="204.7" y2="208.3" stroke="rgb(0,0,0)"  stroke-width="2.0"/>
<line x1="232.8" y1="187.9" x2="207.3" y2="199.3" stroke="rgb(0,0,0)"  stroke-width="2.0"/>
<line x1="204.7" y1="208.3" x2="177.9" y2="178.6" stroke="rgb(0,0,0)"  stroke-width="2.0"/>
<line x1="74.6" y1="95.8" x2="111.2" y2="79.6" stroke="rgb(0,0,0)"  stroke-width="2.0"/>
<line x1="83.1" y1="100.0" x2="108.6" y2="88.6" stroke="rgb(0,0,0)"  stroke-width="2.0"/>
<line x1="111.2" y1="79.6" x2="137.9" y2="109.3" stroke="rgb(0,0,0)"  stroke-width="2.0"/>
<line x1="137.9" y1="109.3" x2="117.9" y2="143.9" stroke="rgb(0,0,0)"  stroke-width="2.0"/>
<line x1="128.7" y1="110.9" x2="114.7" y2="135.1" stroke="rgb(0,0,0)"  stroke-width="2.0"/>
<line x1="117.9" y1="143.9" x2="91.5" y2="138.3" stroke="rgb(0,0,0)"  stroke-width="2.0"/>
<line x1="77.5" y1="122.7" x2="74.6" y2="95.8" stroke="rgb(0,0,0)"  stroke-width="2.0"/>
<line x1="137.9" y1="109.3" x2="177.9" y2="109.3" stroke="rgb(0,0,0)"  stroke-width="2.0"/>
<line x1="177.9" y1="109.3" x2="197.9" y2="143.9" stroke="rgb(0,0,0)"  stroke-width="2.0"/>
<line x1="174.7" y1="118.1" x2="188.7" y2="142.3" stroke="rgb(0,0,0)"  stroke-width="2.0"/>
<line x1="177.9" y1="178.6" x2="137.9" y2="178.6" stroke="rgb(0,0,0)"  stroke-width="2.0"/>
<line x1="171.9" y1="171.4" x2="143.9" y2="171.4" stroke="rgb(0,0,0)"  stroke-width="2.0"/>
<line x1="137.9" y1="178.6" x2="117.9" y2="143.9" stroke="rgb(0,0,0)"  stroke-width="2.0"/>
<line x1="345.2" y1="212.0" x2="345.2" y2="252.0" stroke="rgb(0,0,0)"  stroke-width="2.0"/>
<line x1="338.0" y1="218.0" x2="338.0" y2="246.0" stroke="rgb(0,0,0)"  stroke-width="2.0"/>
<line x1="345.2" y1="252.0" x2="310.5" y2="272.0" stroke="rgb(0,0,0)"  stroke-width="2.0"/>
<line x1="310.5" y1="272.0" x2="275.9" y2="252.0" stroke="rgb(0,0,0)"  stroke-width="2.0"/>
<line x1="308.9" y1="262.8" x2="284.7" y2="248.8" stroke="rgb(0,0,0)"  stroke-width="2.0"/>
<line x1="275.9" y1="252.0" x2="275.9" y2="212.0" stroke="rgb(0,0,0)"  stroke-width="2.0"/>
<line x1="275.9" y1="212.0" x2="310.5" y2="192.0" stroke="rgb(0,0,0)"  stroke-width="2.0"/>
<line x1="284.7" y1="215.3" x2="308.9" y2="201.3" stroke="rgb(0,0,0)"  stroke-width="2.0"/>
<line x1="310.5" y1="192.0" x2="345.2" y2="212.0" stroke="rgb(0,0,0)"  stroke-width="2.0"/>
<line x1="478.4" y1="357.2" x2="443.8" y2="337.2" stroke="rgb(0,0,0)"  stroke-width="2.0"/>
<line x1="443.8" y1="337.2" x2="443.8" y2="297.2" stroke="rgb(0,0,0)"  stroke-width="2.0"/>
<line x1="451.0" y1="331.2" x2="451.0" y2="303.2" stroke="rgb(0,0,0)"  stroke-width="2.0"/>
<line x1="443.8" y1="297.2" x2="478.4" y2="277.2" stroke="rgb(0,0,0)"  stroke-width="2.0"/>
<line x1="478.4" y1="277.2" x2="513.0" y2="297.2" stroke="rgb(0,0,0)"  stroke-width="2.0"/>
<line x1="480.0" y1="286.5" x2="504.2" y2="300.5" stroke="rgb(0,0,0)"  stroke-width="2.0"/>
<line x1="513.0" y1="297.2" x2="513.0" y2="337.2" stroke="rgb(0,0,0)"  stroke-width="2.0"/>
<line x1="513.0" y1="337.2" x2="478.4" y2="357.2" stroke="rgb(0,0,0)"  stroke-width="2.0"/>
<line x1="504.2" y1="334.0" x2="480.0" y2="348.0" stroke="rgb(0,0,0)"  stroke-width="2.0"/>
<line x1="358.6" y1="315.3" x2="331.8" y2="312.5" stroke="rgb(0,0,0)"  stroke-width="2.0"/>
<line x1="316.2" y1="298.4" x2="310.5" y2="272.0" stroke="rgb(0,0,0)"  stroke-width="2.0"/>
<line x1="345.2" y1="252.0" x2="374.9" y2="278.8" stroke="rgb(0,0,0)"  stroke-width="2.0"/>
<line x1="374.9" y1="278.8" x2="358.6" y2="315.3" stroke="rgb(0,0,0)"  stroke-width="2.0"/>
<line x1="472.8" y1="250.8" x2="478.4" y2="277.2" stroke="rgb(0,0,0)"  stroke-width="2.0"/>
<line x1="443.8" y1="297.2" x2="414.0" y2="270.5" stroke="rgb(0,0,0)"  stroke-width="2.0"/>
<line x1="414.0" y1="270.5" x2="430.3" y2="233.9" stroke="rgb(0,0,0)"  stroke-width="2.0"/>
<line x1="430.3" y1="233.9" x2="457.2" y2="236.7" stroke="rgb(0,0,0)"  stroke-width="2.0"/>
<text x="404.299312" y="207.286314" fill="rgb(255,12,12)"  stroke="rgb(255,12,12)" stroke-width="1" font-size="16" >O</text>
<text x="372.634477" y="357.968451" fill="rgb(255,12,12)"  stroke="rgb(255,12,12)" stroke-width="1" font-size="16" >O</text>
<text x="312.853601" y="319.146296" fill="rgb(12,12,255)"  stroke="rgb(12,12,255)" stroke-width="1" font-size="16" >N</text>
<text x="286.088377" y="348.872089" fill="rgb(255,12,12)"  stroke="rgb(255,12,12)" stroke-width="1" font-size="16" >O</text>
<text x="300.449057" y="386.914350" fill="rgb(102,102,102)"  stroke="rgb(102,102,102)" stroke-width="1" font-size="16" >CH</text>
<text x="324.449057" y="390.594350" fill="rgb(102,102,102)"  stroke="rgb(102,102,102)" stroke-width="1" font-size="13" >3</text>
<text x="464.080188" y="246.108469" fill="rgb(12,12,255)"  stroke="rgb(12,12,255)" stroke-width="1" font-size="16" >N</text>
<text x="490.845413" y="216.382676" fill="rgb(255,12,12)"  stroke="rgb(255,12,12)" stroke-width="1" font-size="16" >O</text>
<text x="531.971317" y="224.699143" fill="rgb(102,102,102)"  stroke="rgb(102,102,102)" stroke-width="1" font-size="16" >CH</text>
<text x="555.971317" y="228.379143" fill="rgb(102,102,102)"  stroke="rgb(102,102,102)" stroke-width="1" font-size="13" >3</text>
<text x="541.678688" y="365.234373" fill="rgb(191,191,191)"  stroke="rgb(191,191,191)" stroke-width="1" font-size="16" >H</text>
<text x="34.000000" y="83.825705" fill="rgb(191,191,191)"  stroke="rgb(191,191,191)" stroke-width="1" font-size="16" >H</text>
<text x="190.396815" y="255.415762" fill="rgb(191,191,191)"  stroke="rgb(191,191,191)" stroke-width="1" font-size="16" >H</text>
<text x="111.948059" y="221.205081" fill="rgb(255,12,12)"  stroke="rgb(255,12,12)" stroke-width="1" font-size="16" >O</text>
<text x="51.948059" y="221.205081" fill="rgb(102,102,102)"  stroke="rgb(102,102,102)" stroke-width="1" font-size="16" >H</text>
<text x="63.948059" y="224.885081" fill="rgb(102,102,102)"  stroke="rgb(102,102,102)" stroke-width="1" font-size="13" >3</text>
<text x="70.448059" y="221.205081" fill="rgb(102,102,102)"  stroke="rgb(102,102,102)" stroke-width="1" font-size="16" >C</text>
<text x="72.822155" y="143.606581" fill="rgb(178,178,0)"  stroke="rgb(178,178,0)" stroke-width="1" font-size="16" >S</text>
<text x="113.499302" y="48.430335" fill="rgb(191,191,191)"  stroke="rgb(191,191,191)" stroke-width="1" font-size="16" >H</text>
<text x="191.948059" y="82.641016" fill="rgb(255,12,12)"  stroke="rgb(255,12,12)" stroke-width="1" font-size="16" >O</text>
<text x="151.948059" y="48.000000" fill="rgb(102,102,102)"  stroke="rgb(102,102,102)" stroke-width="1" font-size="16" >H</text>
<text x="163.948059" y="51.680000" fill="rgb(102,102,102)"  stroke="rgb(102,102,102)" stroke-width="1" font-size="13" >3</text>
<text x="170.448059" y="48.000000" fill="rgb(102,102,102)"  stroke="rgb(102,102,102)" stroke-width="1" font-size="16" >C</text>
<text x="231.073963" y="160.239516" fill="rgb(178,178,0)"  stroke="rgb(178,178,0)" stroke-width="1" font-size="16" >S</text>
</svg>
</g>
<text font-size="18.000000" fill ="black" font-family="sans-serif"
x="10.000000" y="20.000000" ></text>
</svg>
