<?xml version="1.0"?>
<svg version="1.1" id="topsvg"
xmlns="http://www.w3.org/2000/svg" xmlns:xlink="http://www.w3.org/1999/xlink"
xmlns:cml="http://www.xml-cml.org/schema" x="0" y="0" width="200px" height="200px" viewBox="0 0 100 100">
<title> - Open Babel Depiction</title>
<rect x="0" y="0" width="100" height="100" fill="white"/>
<g transform="translate(0,0)">
<svg width="100" height="100" x="0" y="0" viewBox="0 0 393.082 394.856"
font-family="sans-serif" stroke="rgb(0,0,0)" stroke-width="2"  stroke-linecap="round">
<line x1="214.0" y1="175.7" x2="248.8" y2="156.3" stroke="rgb(0,0,0)"  stroke-width="2.0"/>
<line x1="284.1" y1="97.0" x2="284.4" y2="70.1" stroke="rgb(0,0,0)"  stroke-width="2.0"/>
<line x1="318.3" y1="117.3" x2="341.7" y2="104.2" stroke="rgb(0,0,0)"  stroke-width="2.0"/>
<line x1="283.0" y1="176.6" x2="282.7" y2="203.5" stroke="rgb(0,0,0)"  stroke-width="2.0"/>
<line x1="179.7" y1="273.1" x2="202.9" y2="287.0" stroke="rgb(0,0,0)"  stroke-width="2.0"/>
<line x1="176.7" y1="278.3" x2="199.8" y2="292.1" stroke="rgb(0,0,0)"  stroke-width="2.0"/>
<line x1="143.3" y1="308.0" x2="143.2" y2="321.7" stroke="rgb(0,0,0)"  stroke-width="2.0"/>
<line x1="154.3" y1="341.3" x2="166.1" y2="348.3" stroke="rgb(0,0,0)"  stroke-width="2.0"/>
<line x1="110.0" y1="277.4" x2="86.5" y2="290.7" stroke="rgb(0,0,0)"  stroke-width="2.0"/>
<line x1="107.0" y1="272.2" x2="83.5" y2="285.5" stroke="rgb(0,0,0)"  stroke-width="2.0"/>
<line x1="74.8" y1="213.8" x2="51.3" y2="227.1" stroke="rgb(0,0,0)"  stroke-width="2.0"/>
<line x1="109.1" y1="116.9" x2="85.9" y2="103.1" stroke="rgb(0,0,0)"  stroke-width="2.0"/>
<line x1="112.1" y1="111.7" x2="88.9" y2="97.9" stroke="rgb(0,0,0)"  stroke-width="2.0"/>
<line x1="145.7" y1="81.6" x2="145.9" y2="67.4" stroke="rgb(0,0,0)"  stroke-width="2.0"/>
<line x1="133.9" y1="49.7" x2="120.7" y2="44.7" stroke="rgb(0,0,0)"  stroke-width="2.0"/>
<line x1="178.8" y1="112.6" x2="202.4" y2="99.4" stroke="rgb(0,0,0)"  stroke-width="2.0"/>
<line x1="181.8" y1="117.8" x2="205.3" y2="104.6" stroke="rgb(0,0,0)"  stroke-width="2.0"/>
<line x1="284.1" y1="97.0" x2="318.3" y2="117.3" stroke="rgb(0,0,0)"  stroke-width="2.0"/>
<line x1="285.6" y1="106.2" x2="309.5" y2="120.5" stroke="rgb(0,0,0)"  stroke-width="2.0"/>
<line x1="318.3" y1="117.3" x2="317.8" y2="157.2" stroke="rgb(0,0,0)"  stroke-width="2.0"/>
<line x1="317.8" y1="157.2" x2="283.0" y2="176.6" stroke="rgb(0,0,0)"  stroke-width="2.0"/>
<line x1="309.0" y1="153.8" x2="284.7" y2="167.4" stroke="rgb(0,0,0)"  stroke-width="2.0"/>
<line x1="283.0" y1="176.6" x2="248.8" y2="156.3" stroke="rgb(0,0,0)"  stroke-width="2.0"/>
<line x1="248.8" y1="156.3" x2="249.3" y2="116.4" stroke="rgb(0,0,0)"  stroke-width="2.0"/>
<line x1="256.1" y1="150.4" x2="256.4" y2="122.5" stroke="rgb(0,0,0)"  stroke-width="2.0"/>
<line x1="249.3" y1="116.4" x2="284.1" y2="97.0" stroke="rgb(0,0,0)"  stroke-width="2.0"/>
<line x1="178.7" y1="235.6" x2="144.0" y2="214.7" stroke="rgb(0,0,0)"  stroke-width="2.0"/>
<line x1="177.3" y1="226.3" x2="152.9" y2="211.6" stroke="rgb(0,0,0)"  stroke-width="2.0"/>
<line x1="144.0" y1="214.7" x2="144.5" y2="174.8" stroke="rgb(0,0,0)"  stroke-width="2.0"/>
<line x1="144.5" y1="174.8" x2="179.8" y2="155.3" stroke="rgb(0,0,0)"  stroke-width="2.0"/>
<line x1="153.3" y1="178.2" x2="178.0" y2="164.5" stroke="rgb(0,0,0)"  stroke-width="2.0"/>
<line x1="179.8" y1="155.3" x2="214.0" y2="175.7" stroke="rgb(0,0,0)"  stroke-width="2.0"/>
<line x1="214.0" y1="175.7" x2="213.5" y2="215.6" stroke="rgb(0,0,0)"  stroke-width="2.0"/>
<line x1="206.7" y1="181.6" x2="206.4" y2="209.5" stroke="rgb(0,0,0)"  stroke-width="2.0"/>
<line x1="213.5" y1="215.6" x2="178.7" y2="235.6" stroke="rgb(0,0,0)"  stroke-width="2.0"/>
<line x1="108.5" y1="274.8" x2="109.0" y2="234.7" stroke="rgb(0,0,0)"  stroke-width="2.0"/>
<line x1="109.0" y1="234.7" x2="144.0" y2="214.7" stroke="rgb(0,0,0)"  stroke-width="2.0"/>
<line x1="178.7" y1="235.6" x2="178.2" y2="275.7" stroke="rgb(0,0,0)"  stroke-width="2.0"/>
<line x1="178.2" y1="275.7" x2="154.8" y2="288.7" stroke="rgb(0,0,0)"  stroke-width="2.0"/>
<line x1="132.2" y1="288.5" x2="108.5" y2="274.8" stroke="rgb(0,0,0)"  stroke-width="2.0"/>
<line x1="75.3" y1="173.9" x2="110.1" y2="154.4" stroke="rgb(0,0,0)"  stroke-width="2.0"/>
<line x1="84.1" y1="177.3" x2="108.4" y2="163.6" stroke="rgb(0,0,0)"  stroke-width="2.0"/>
<line x1="110.1" y1="154.4" x2="144.5" y2="174.8" stroke="rgb(0,0,0)"  stroke-width="2.0"/>
<line x1="109.0" y1="234.7" x2="74.8" y2="213.8" stroke="rgb(0,0,0)"  stroke-width="2.0"/>
<line x1="107.6" y1="225.4" x2="83.7" y2="210.8" stroke="rgb(0,0,0)"  stroke-width="2.0"/>
<line x1="74.8" y1="213.8" x2="75.3" y2="173.9" stroke="rgb(0,0,0)"  stroke-width="2.0"/>
<line x1="156.8" y1="101.2" x2="180.3" y2="115.2" stroke="rgb(0,0,0)"  stroke-width="2.0"/>
<line x1="180.3" y1="115.2" x2="179.8" y2="155.3" stroke="rgb(0,0,0)"  stroke-width="2.0"/>
<line x1="110.1" y1="154.4" x2="110.6" y2="114.3" stroke="rgb(0,0,0)"  stroke-width="2.0"/>
<line x1="110.6" y1="114.3" x2="134.3" y2="101.0" stroke="rgb(0,0,0)"  stroke-width="2.0"/>
<text x="139.595805" y="102.567459" fill="rgb(12,12,255)"  stroke="rgb(12,12,255)" stroke-width="1" font-size="16" >N</text>
<text x="67.698708" y="302.475872" fill="rgb(255,12,12)"  stroke="rgb(255,12,12)" stroke-width="1" font-size="16" >O</text>
<text x="34.000000" y="241.501779" fill="rgb(191,191,191)"  stroke="rgb(191,191,191)" stroke-width="1" font-size="16" >H</text>
<text x="70.204698" y="101.896049" fill="rgb(255,12,12)"  stroke="rgb(255,12,12)" stroke-width="1" font-size="16" >O</text>
<text x="140.060966" y="62.398434" fill="rgb(255,12,12)"  stroke="rgb(255,12,12)" stroke-width="1" font-size="16" >O</text>
<text x="82.558272" y="48.000000" fill="rgb(102,102,102)"  stroke="rgb(102,102,102)" stroke-width="1" font-size="16" >H</text>
<text x="94.558272" y="51.680000" fill="rgb(102,102,102)"  stroke="rgb(102,102,102)" stroke-width="1" font-size="13" >3</text>
<text x="101.058272" y="48.000000" fill="rgb(102,102,102)"  stroke="rgb(102,102,102)" stroke-width="1" font-size="16" >C</text>
<text x="209.200588" y="103.656884" fill="rgb(255,12,12)"  stroke="rgb(255,12,12)" stroke-width="1" font-size="16" >O</text>
<text x="276.478793" y="224.481501" fill="rgb(191,191,191)"  stroke="rgb(191,191,191)" stroke-width="1" font-size="16" >H</text>
<text x="278.610559" y="65.123651" fill="rgb(191,191,191)"  stroke="rgb(191,191,191)" stroke-width="1" font-size="16" >H</text>
<text x="347.081590" y="105.886195" fill="rgb(191,191,191)"  stroke="rgb(191,191,191)" stroke-width="1" font-size="16" >H</text>
<text x="206.544205" y="304.219353" fill="rgb(255,12,12)"  stroke="rgb(255,12,12)" stroke-width="1" font-size="16" >O</text>
<text x="137.456408" y="302.961264" fill="rgb(12,12,255)"  stroke="rgb(12,12,255)" stroke-width="1" font-size="16" >N</text>
<text x="137.113154" y="342.692918" fill="rgb(255,12,12)"  stroke="rgb(255,12,12)" stroke-width="1" font-size="16" >O</text>
<text x="173.350149" y="362.856012" fill="rgb(102,102,102)"  stroke="rgb(102,102,102)" stroke-width="1" font-size="16" >CH</text>
<text x="197.350149" y="366.536012" fill="rgb(102,102,102)"  stroke="rgb(102,102,102)" stroke-width="1" font-size="13" >3</text>
</svg>
</g>
<text font-size="18.000000" fill ="black" font-family="sans-serif"
x="10.000000" y="20.000000" ></text>
</svg>
