<?xml version="1.0"?>
<svg version="1.1" id="topsvg"
xmlns="http://www.w3.org/2000/svg" xmlns:xlink="http://www.w3.org/1999/xlink"
xmlns:cml="http://www.xml-cml.org/schema" x="0" y="0" width="200px" height="200px" viewBox="0 0 100 100">
<title> - Open Babel Depiction</title>
<rect x="0" y="0" width="100" height="100" fill="white"/>
<g transform="translate(0,0)">
<svg width="100" height="100" x="0" y="0" viewBox="0 0 350.362 422.92"
font-family="sans-serif" stroke="rgb(0,0,0)" stroke-width="2"  stroke-linecap="round">
<line x1="148.1" y1="138.4" x2="129.0" y2="171.4" stroke="rgb(0,0,0)"  stroke-width="2.0"/>
<line x1="91.1" y1="175.4" x2="65.5" y2="147.0" stroke="rgb(0,0,0)"  stroke-width="2.0"/>
<line x1="65.5" y1="147.0" x2="48.7" y2="128.3" stroke="rgb(0,0,0)"  stroke-width="2.0"/>
<line x1="62.4" y1="149.9" x2="45.6" y2="131.1" stroke="rgb(0,0,0)"  stroke-width="2.0"/>
<line x1="68.7" y1="144.2" x2="51.8" y2="125.5" stroke="rgb(0,0,0)"  stroke-width="2.0"/>
<line x1="83.1" y1="212.7" x2="60.2" y2="223.0" stroke="rgb(0,0,0)"  stroke-width="2.0"/>
<line x1="116.2" y1="231.8" x2="120.2" y2="269.8" stroke="rgb(0,0,0)"  stroke-width="2.0"/>
<line x1="107.3" y1="330.2" x2="94.8" y2="352.0" stroke="rgb(0,0,0)"  stroke-width="2.0"/>
<line x1="145.3" y1="326.2" x2="170.8" y2="354.6" stroke="rgb(0,0,0)"  stroke-width="2.0"/>
<line x1="170.8" y1="354.6" x2="187.7" y2="373.3" stroke="rgb(0,0,0)"  stroke-width="2.0"/>
<line x1="174.0" y1="351.7" x2="190.8" y2="370.4" stroke="rgb(0,0,0)"  stroke-width="2.0"/>
<line x1="167.7" y1="357.4" x2="184.6" y2="376.1" stroke="rgb(0,0,0)"  stroke-width="2.0"/>
<line x1="153.2" y1="288.9" x2="176.2" y2="278.6" stroke="rgb(0,0,0)"  stroke-width="2.0"/>
<line x1="222.1" y1="153.1" x2="224.7" y2="178.2" stroke="rgb(0,0,0)"  stroke-width="2.0"/>
<line x1="216.1" y1="153.8" x2="218.8" y2="178.8" stroke="rgb(0,0,0)"  stroke-width="2.0"/>
<line x1="260.2" y1="130.6" x2="272.1" y2="133.2" stroke="rgb(0,0,0)"  stroke-width="2.0"/>
<line x1="293.5" y1="126.2" x2="301.7" y2="117.2" stroke="rgb(0,0,0)"  stroke-width="2.0"/>
<line x1="232.0" y1="93.1" x2="244.6" y2="71.3" stroke="rgb(0,0,0)"  stroke-width="2.0"/>
<line x1="158.0" y1="78.3" x2="155.3" y2="53.2" stroke="rgb(0,0,0)"  stroke-width="2.0"/>
<line x1="163.9" y1="77.6" x2="161.3" y2="52.6" stroke="rgb(0,0,0)"  stroke-width="2.0"/>
<line x1="140.1" y1="114.1" x2="184.0" y2="176.6" stroke="rgb(0,0,0)"  stroke-width="2.0"/>
<line x1="178.4" y1="187.2" x2="166.3" y2="187.2" stroke="rgb(0,0,0)"  stroke-width="2.0"/>
<line x1="83.1" y1="212.7" x2="116.2" y2="231.8" stroke="rgb(0,0,0)"  stroke-width="2.0"/>
<line x1="91.9" y1="209.5" x2="114.6" y2="222.6" stroke="rgb(0,0,0)"  stroke-width="2.0"/>
<line x1="116.2" y1="231.8" x2="134.9" y2="215.0" stroke="rgb(0,0,0)"  stroke-width="2.0"/>
<line x1="139.3" y1="194.4" x2="129.0" y2="171.4" stroke="rgb(0,0,0)"  stroke-width="2.0"/>
<line x1="129.0" y1="171.4" x2="91.1" y2="175.4" stroke="rgb(0,0,0)"  stroke-width="2.0"/>
<line x1="123.8" y1="179.2" x2="97.8" y2="181.9" stroke="rgb(0,0,0)"  stroke-width="2.0"/>
<line x1="91.1" y1="175.4" x2="83.1" y2="212.7" stroke="rgb(0,0,0)"  stroke-width="2.0"/>
<line x1="107.3" y1="330.2" x2="145.3" y2="326.2" stroke="rgb(0,0,0)"  stroke-width="2.0"/>
<line x1="112.6" y1="322.4" x2="138.6" y2="319.7" stroke="rgb(0,0,0)"  stroke-width="2.0"/>
<line x1="145.3" y1="326.2" x2="153.2" y2="288.9" stroke="rgb(0,0,0)"  stroke-width="2.0"/>
<line x1="153.2" y1="288.9" x2="120.2" y2="269.8" stroke="rgb(0,0,0)"  stroke-width="2.0"/>
<line x1="144.4" y1="292.1" x2="121.8" y2="279.0" stroke="rgb(0,0,0)"  stroke-width="2.0"/>
<line x1="120.2" y1="269.8" x2="101.5" y2="286.6" stroke="rgb(0,0,0)"  stroke-width="2.0"/>
<line x1="97.1" y1="307.2" x2="107.3" y2="330.2" stroke="rgb(0,0,0)"  stroke-width="2.0"/>
<line x1="219.1" y1="153.5" x2="237.8" y2="136.6" stroke="rgb(0,0,0)"  stroke-width="2.0"/>
<line x1="242.2" y1="116.0" x2="232.0" y2="93.1" stroke="rgb(0,0,0)"  stroke-width="2.0"/>
<line x1="232.0" y1="93.1" x2="194.0" y2="97.0" stroke="rgb(0,0,0)"  stroke-width="2.0"/>
<line x1="226.8" y1="100.8" x2="200.7" y2="103.6" stroke="rgb(0,0,0)"  stroke-width="2.0"/>
<line x1="194.0" y1="97.0" x2="186.1" y2="134.4" stroke="rgb(0,0,0)"  stroke-width="2.0"/>
<line x1="186.1" y1="134.4" x2="219.1" y2="153.5" stroke="rgb(0,0,0)"  stroke-width="2.0"/>
<line x1="194.0" y1="97.0" x2="161.0" y2="78.0" stroke="rgb(0,0,0)"  stroke-width="2.0"/>
<line x1="161.0" y1="78.0" x2="142.3" y2="94.8" stroke="rgb(0,0,0)"  stroke-width="2.0"/>
<line x1="137.9" y1="115.4" x2="148.1" y2="138.4" stroke="rgb(0,0,0)"  stroke-width="2.0"/>
<line x1="148.1" y1="138.4" x2="186.1" y2="134.4" stroke="rgb(0,0,0)"  stroke-width="2.0"/>
<line x1="153.3" y1="130.6" x2="179.4" y2="127.8" stroke="rgb(0,0,0)"  stroke-width="2.0"/>
<text x="127.271176" y="195.226888" fill="rgb(102,102,102)"  stroke="rgb(102,102,102)" stroke-width="1" font-size="16" >H</text>
<text x="139.271176" y="198.906888" fill="rgb(102,102,102)"  stroke="rgb(102,102,102)" stroke-width="1" font-size="13" >3</text>
<text x="145.771176" y="195.226888" fill="rgb(102,102,102)"  stroke="rgb(102,102,102)" stroke-width="1" font-size="16" >C</text>
<text x="185.437640" y="195.226888" fill="rgb(255,12,12)"  stroke="rgb(255,12,12)" stroke-width="1" font-size="16" >O</text>
<text x="126.593614" y="111.495732" fill="rgb(12,12,255)"  stroke="rgb(12,12,255)" stroke-width="1" font-size="16" >N</text>
<text x="150.967342" y="48.000000" fill="rgb(255,12,12)"  stroke="rgb(255,12,12)" stroke-width="1" font-size="16" >O</text>
<text x="245.050565" y="67.998007" fill="rgb(191,191,191)"  stroke="rgb(191,191,191)" stroke-width="1" font-size="16" >H</text>
<text x="306.361816" y="115.489977" fill="rgb(102,102,102)"  stroke="rgb(102,102,102)" stroke-width="1" font-size="16" >CH</text>
<text x="330.361816" y="119.169977" fill="rgb(102,102,102)"  stroke="rgb(102,102,102)" stroke-width="1" font-size="13" >3</text>
<text x="278.823467" y="143.853187" fill="rgb(255,12,12)"  stroke="rgb(255,12,12)" stroke-width="1" font-size="16" >O</text>
<text x="241.491033" y="135.917933" fill="rgb(12,12,255)"  stroke="rgb(12,12,255)" stroke-width="1" font-size="16" >N</text>
<text x="217.117305" y="199.413665" fill="rgb(255,12,12)"  stroke="rgb(255,12,12)" stroke-width="1" font-size="16" >O</text>
<text x="182.103978" y="281.337722" fill="rgb(30,239,30)"  stroke="rgb(30,239,30)" stroke-width="1" font-size="16" >Cl</text>
<text x="190.378623" y="390.920276" fill="rgb(12,12,255)"  stroke="rgb(12,12,255)" stroke-width="1" font-size="16" >N</text>
<text x="82.261310" y="371.236465" fill="rgb(191,191,191)"  stroke="rgb(191,191,191)" stroke-width="1" font-size="16" >H</text>
<text x="85.820842" y="303.316539" fill="rgb(178,178,0)"  stroke="rgb(178,178,0)" stroke-width="1" font-size="16" >S</text>
<text x="138.557780" y="214.282458" fill="rgb(178,178,0)"  stroke="rgb(178,178,0)" stroke-width="1" font-size="16" >S</text>
<text x="30.274644" y="236.261274" fill="rgb(30,239,30)"  stroke="rgb(30,239,30)" stroke-width="1" font-size="16" >Cl</text>
<text x="34.000000" y="126.678721" fill="rgb(12,12,255)"  stroke="rgb(12,12,255)" stroke-width="1" font-size="16" >N</text>
</svg>
</g>
<text font-size="18.000000" fill ="black" font-family="sans-serif"
x="10.000000" y="20.000000" ></text>
</svg>
