<?xml version="1.0"?>
<svg version="1.1" id="topsvg"
xmlns="http://www.w3.org/2000/svg" xmlns:xlink="http://www.w3.org/1999/xlink"
xmlns:cml="http://www.xml-cml.org/schema" x="0" y="0" width="200px" height="200px" viewBox="0 0 100 100">
<title> - Open Babel Depiction</title>
<rect x="0" y="0" width="100" height="100" fill="white"/>
<g transform="translate(0,0)">
<svg width="100" height="100" x="0" y="0" viewBox="0 0 477.454 282.764"
font-family="sans-serif" stroke="rgb(0,0,0)" stroke-width="2"  stroke-linecap="round">
<line x1="312.4" y1="120.0" x2="272.4" y2="120.0" stroke="rgb(0,0,0)"  stroke-width="2.0"/>
<line x1="248.9" y1="152.4" x2="257.2" y2="178.0" stroke="rgb(0,0,0)"  stroke-width="2.0"/>
<line x1="176.2" y1="160.0" x2="176.2" y2="187.0" stroke="rgb(0,0,0)"  stroke-width="2.0"/>
<line x1="80.0" y1="120.0" x2="53.0" y2="120.0" stroke="rgb(0,0,0)"  stroke-width="2.0"/>
<line x1="103.5" y1="87.6" x2="95.2" y2="62.0" stroke="rgb(0,0,0)"  stroke-width="2.0"/>
<line x1="176.2" y1="80.0" x2="176.2" y2="53.0" stroke="rgb(0,0,0)"  stroke-width="2.0"/>
<line x1="337.7" y1="194.8" x2="315.8" y2="210.7" stroke="rgb(0,0,0)"  stroke-width="2.0"/>
<line x1="334.1" y1="189.9" x2="312.3" y2="205.8" stroke="rgb(0,0,0)"  stroke-width="2.0"/>
<line x1="378.0" y1="217.1" x2="382.3" y2="230.4" stroke="rgb(0,0,0)"  stroke-width="2.0"/>
<line x1="397.5" y1="169.4" x2="424.5" y2="169.4" stroke="rgb(0,0,0)"  stroke-width="2.0"/>
<line x1="397.5" y1="175.4" x2="424.5" y2="175.4" stroke="rgb(0,0,0)"  stroke-width="2.0"/>
<line x1="373.9" y1="100.0" x2="395.8" y2="84.1" stroke="rgb(0,0,0)"  stroke-width="2.0"/>
<line x1="210.8" y1="140.0" x2="210.8" y2="100.0" stroke="rgb(0,0,0)"  stroke-width="2.0"/>
<line x1="210.8" y1="100.0" x2="236.5" y2="91.7" stroke="rgb(0,0,0)"  stroke-width="2.0"/>
<line x1="256.5" y1="98.2" x2="272.4" y2="120.0" stroke="rgb(0,0,0)"  stroke-width="2.0"/>
<line x1="272.4" y1="120.0" x2="248.9" y2="152.4" stroke="rgb(0,0,0)"  stroke-width="2.0"/>
<line x1="263.0" y1="120.6" x2="246.6" y2="143.3" stroke="rgb(0,0,0)"  stroke-width="2.0"/>
<line x1="248.9" y1="152.4" x2="210.8" y2="140.0" stroke="rgb(0,0,0)"  stroke-width="2.0"/>
<line x1="80.0" y1="120.0" x2="103.5" y2="87.6" stroke="rgb(0,0,0)"  stroke-width="2.0"/>
<line x1="89.4" y1="119.4" x2="105.8" y2="96.7" stroke="rgb(0,0,0)"  stroke-width="2.0"/>
<line x1="103.5" y1="87.6" x2="141.6" y2="100.0" stroke="rgb(0,0,0)"  stroke-width="2.0"/>
<line x1="141.6" y1="100.0" x2="141.6" y2="140.0" stroke="rgb(0,0,0)"  stroke-width="2.0"/>
<line x1="134.4" y1="106.0" x2="134.4" y2="134.0" stroke="rgb(0,0,0)"  stroke-width="2.0"/>
<line x1="141.6" y1="140.0" x2="115.9" y2="148.3" stroke="rgb(0,0,0)"  stroke-width="2.0"/>
<line x1="95.9" y1="141.8" x2="80.0" y2="120.0" stroke="rgb(0,0,0)"  stroke-width="2.0"/>
<line x1="373.9" y1="140.0" x2="373.9" y2="100.0" stroke="rgb(0,0,0)"  stroke-width="2.0"/>
<line x1="366.7" y1="134.0" x2="366.7" y2="106.0" stroke="rgb(0,0,0)"  stroke-width="2.0"/>
<line x1="373.9" y1="100.0" x2="348.3" y2="91.7" stroke="rgb(0,0,0)"  stroke-width="2.0"/>
<line x1="328.3" y1="98.2" x2="312.4" y2="120.0" stroke="rgb(0,0,0)"  stroke-width="2.0"/>
<line x1="312.4" y1="120.0" x2="335.9" y2="152.4" stroke="rgb(0,0,0)"  stroke-width="2.0"/>
<line x1="321.7" y1="120.6" x2="338.2" y2="143.3" stroke="rgb(0,0,0)"  stroke-width="2.0"/>
<line x1="335.9" y1="152.4" x2="373.9" y2="140.0" stroke="rgb(0,0,0)"  stroke-width="2.0"/>
<line x1="141.6" y1="100.0" x2="176.2" y2="80.0" stroke="rgb(0,0,0)"  stroke-width="2.0"/>
<line x1="176.2" y1="80.0" x2="210.8" y2="100.0" stroke="rgb(0,0,0)"  stroke-width="2.0"/>
<line x1="177.8" y1="89.2" x2="202.0" y2="103.2" stroke="rgb(0,0,0)"  stroke-width="2.0"/>
<line x1="210.8" y1="140.0" x2="176.2" y2="160.0" stroke="rgb(0,0,0)"  stroke-width="2.0"/>
<line x1="202.0" y1="136.8" x2="177.8" y2="150.8" stroke="rgb(0,0,0)"  stroke-width="2.0"/>
<line x1="176.2" y1="160.0" x2="141.6" y2="140.0" stroke="rgb(0,0,0)"  stroke-width="2.0"/>
<line x1="335.9" y1="192.4" x2="361.6" y2="200.7" stroke="rgb(0,0,0)"  stroke-width="2.0"/>
<line x1="381.6" y1="194.2" x2="397.5" y2="172.4" stroke="rgb(0,0,0)"  stroke-width="2.0"/>
<line x1="397.5" y1="172.4" x2="373.9" y2="140.0" stroke="rgb(0,0,0)"  stroke-width="2.0"/>
<line x1="335.9" y1="152.4" x2="335.9" y2="192.4" stroke="rgb(0,0,0)"  stroke-width="2.0"/>
<text x="329.900784" y="95.639320" fill="rgb(178,178,0)"  stroke="rgb(178,178,0)" stroke-width="1" font-size="16" >S</text>
<text x="400.303724" y="84.488590" fill="rgb(191,191,191)"  stroke="rgb(191,191,191)" stroke-width="1" font-size="16" >H</text>
<text x="431.454455" y="180.360680" fill="rgb(255,12,12)"  stroke="rgb(255,12,12)" stroke-width="1" font-size="16" >O</text>
<text x="380.303724" y="250.763620" fill="rgb(191,191,191)"  stroke="rgb(191,191,191)" stroke-width="1" font-size="16" >H</text>
<text x="367.943045" y="212.721360" fill="rgb(12,12,255)"  stroke="rgb(12,12,255)" stroke-width="1" font-size="16" >N</text>
<text x="297.540104" y="223.872090" fill="rgb(255,12,12)"  stroke="rgb(255,12,12)" stroke-width="1" font-size="16" >O</text>
<text x="242.877964" y="95.639320" fill="rgb(178,178,0)"  stroke="rgb(178,178,0)" stroke-width="1" font-size="16" >S</text>
<text x="172.194687" y="48.000000" fill="rgb(102,102,102)"  stroke="rgb(102,102,102)" stroke-width="1" font-size="16" >CH</text>
<text x="196.194687" y="51.680000" fill="rgb(102,102,102)"  stroke="rgb(102,102,102)" stroke-width="1" font-size="13" >3</text>
<text x="85.150730" y="57.597060" fill="rgb(191,191,191)"  stroke="rgb(191,191,191)" stroke-width="1" font-size="16" >H</text>
<text x="34.000000" y="128.000000" fill="rgb(191,191,191)"  stroke="rgb(191,191,191)" stroke-width="1" font-size="16" >H</text>
<text x="97.511410" y="160.360680" fill="rgb(178,178,0)"  stroke="rgb(178,178,0)" stroke-width="1" font-size="16" >S</text>
<text x="172.194687" y="208.000000" fill="rgb(102,102,102)"  stroke="rgb(102,102,102)" stroke-width="1" font-size="16" >CH</text>
<text x="196.194687" y="211.680000" fill="rgb(102,102,102)"  stroke="rgb(102,102,102)" stroke-width="1" font-size="13" >3</text>
<text x="255.238643" y="198.402940" fill="rgb(191,191,191)"  stroke="rgb(191,191,191)" stroke-width="1" font-size="16" >H</text>
</svg>
</g>
<text font-size="18.000000" fill ="black" font-family="sans-serif"
x="10.000000" y="20.000000" ></text>
</svg>
