<?xml version="1.0"?>
<svg version="1.1" id="topsvg"
xmlns="http://www.w3.org/2000/svg" xmlns:xlink="http://www.w3.org/1999/xlink"
xmlns:cml="http://www.xml-cml.org/schema" x="0" y="0" width="200px" height="200px" viewBox="0 0 100 100">
<title> - Open Babel Depiction</title>
<rect x="0" y="0" width="100" height="100" fill="white"/>
<g transform="translate(0,0)">
<svg width="100" height="100" x="0" y="0" viewBox="0 0 351.592 358.984"
font-family="sans-serif" stroke="rgb(0,0,0)" stroke-width="2"  stroke-linecap="round">
<line x1="141.6" y1="143.1" x2="121.6" y2="177.7" stroke="rgb(0,0,0)"  stroke-width="2.0"/>
<line x1="81.8" y1="181.9" x2="63.7" y2="161.8" stroke="rgb(0,0,0)"  stroke-width="2.0"/>
<line x1="60.0" y1="284.3" x2="46.5" y2="307.7" stroke="rgb(0,0,0)"  stroke-width="2.0"/>
<line x1="99.8" y1="280.2" x2="117.8" y2="300.2" stroke="rgb(0,0,0)"  stroke-width="2.0"/>
<line x1="219.0" y1="158.6" x2="221.8" y2="185.4" stroke="rgb(0,0,0)"  stroke-width="2.0"/>
<line x1="213.0" y1="159.2" x2="215.8" y2="186.1" stroke="rgb(0,0,0)"  stroke-width="2.0"/>
<line x1="258.4" y1="134.8" x2="272.1" y2="137.8" stroke="rgb(0,0,0)"  stroke-width="2.0"/>
<line x1="293.5" y1="130.8" x2="302.9" y2="120.4" stroke="rgb(0,0,0)"  stroke-width="2.0"/>
<line x1="229.4" y1="95.6" x2="242.9" y2="72.2" stroke="rgb(0,0,0)"  stroke-width="2.0"/>
<line x1="152.0" y1="80.1" x2="149.2" y2="53.2" stroke="rgb(0,0,0)"  stroke-width="2.0"/>
<line x1="158.0" y1="79.5" x2="155.2" y2="52.6" stroke="rgb(0,0,0)"  stroke-width="2.0"/>
<line x1="112.6" y1="103.8" x2="98.9" y2="100.9" stroke="rgb(0,0,0)"  stroke-width="2.0"/>
<line x1="82.1" y1="85.9" x2="77.8" y2="72.6" stroke="rgb(0,0,0)"  stroke-width="2.0"/>
<line x1="73.5" y1="221.0" x2="108.1" y2="241.0" stroke="rgb(0,0,0)"  stroke-width="2.0"/>
<line x1="82.3" y1="217.8" x2="106.5" y2="231.8" stroke="rgb(0,0,0)"  stroke-width="2.0"/>
<line x1="108.1" y1="241.0" x2="128.2" y2="223.0" stroke="rgb(0,0,0)"  stroke-width="2.0"/>
<line x1="132.5" y1="202.4" x2="121.6" y2="177.7" stroke="rgb(0,0,0)"  stroke-width="2.0"/>
<line x1="121.6" y1="177.7" x2="81.8" y2="181.9" stroke="rgb(0,0,0)"  stroke-width="2.0"/>
<line x1="116.3" y1="185.5" x2="88.5" y2="188.4" stroke="rgb(0,0,0)"  stroke-width="2.0"/>
<line x1="81.8" y1="181.9" x2="73.5" y2="221.0" stroke="rgb(0,0,0)"  stroke-width="2.0"/>
<line x1="60.0" y1="284.3" x2="99.8" y2="280.2" stroke="rgb(0,0,0)"  stroke-width="2.0"/>
<line x1="65.2" y1="276.6" x2="93.1" y2="273.6" stroke="rgb(0,0,0)"  stroke-width="2.0"/>
<line x1="99.8" y1="280.2" x2="108.1" y2="241.0" stroke="rgb(0,0,0)"  stroke-width="2.0"/>
<line x1="73.5" y1="221.0" x2="53.4" y2="239.1" stroke="rgb(0,0,0)"  stroke-width="2.0"/>
<line x1="49.0" y1="259.7" x2="60.0" y2="284.3" stroke="rgb(0,0,0)"  stroke-width="2.0"/>
<line x1="216.0" y1="158.9" x2="236.0" y2="140.8" stroke="rgb(0,0,0)"  stroke-width="2.0"/>
<line x1="240.4" y1="120.3" x2="229.4" y2="95.6" stroke="rgb(0,0,0)"  stroke-width="2.0"/>
<line x1="229.4" y1="95.6" x2="189.7" y2="99.8" stroke="rgb(0,0,0)"  stroke-width="2.0"/>
<line x1="224.2" y1="103.4" x2="196.4" y2="106.3" stroke="rgb(0,0,0)"  stroke-width="2.0"/>
<line x1="189.7" y1="99.8" x2="181.3" y2="138.9" stroke="rgb(0,0,0)"  stroke-width="2.0"/>
<line x1="181.3" y1="138.9" x2="216.0" y2="158.9" stroke="rgb(0,0,0)"  stroke-width="2.0"/>
<line x1="189.7" y1="99.8" x2="155.0" y2="79.8" stroke="rgb(0,0,0)"  stroke-width="2.0"/>
<line x1="155.0" y1="79.8" x2="134.9" y2="97.8" stroke="rgb(0,0,0)"  stroke-width="2.0"/>
<line x1="130.6" y1="118.4" x2="141.6" y2="143.1" stroke="rgb(0,0,0)"  stroke-width="2.0"/>
<line x1="141.6" y1="143.1" x2="181.3" y2="138.9" stroke="rgb(0,0,0)"  stroke-width="2.0"/>
<line x1="146.8" y1="135.3" x2="174.6" y2="132.4" stroke="rgb(0,0,0)"  stroke-width="2.0"/>
<text x="47.797621" y="68.187372" fill="rgb(102,102,102)"  stroke="rgb(102,102,102)" stroke-width="1" font-size="16" >H</text>
<text x="59.797621" y="71.867372" fill="rgb(102,102,102)"  stroke="rgb(102,102,102)" stroke-width="1" font-size="13" >3</text>
<text x="66.297621" y="68.187372" fill="rgb(102,102,102)"  stroke="rgb(102,102,102)" stroke-width="1" font-size="16" >C</text>
<text x="80.158301" y="106.229632" fill="rgb(255,12,12)"  stroke="rgb(255,12,12)" stroke-width="1" font-size="16" >O</text>
<text x="119.284205" y="114.546100" fill="rgb(12,12,255)"  stroke="rgb(12,12,255)" stroke-width="1" font-size="16" >N</text>
<text x="144.828860" y="48.000000" fill="rgb(255,12,12)"  stroke="rgb(255,12,12)" stroke-width="1" font-size="16" >O</text>
<text x="243.431890" y="68.958721" fill="rgb(191,191,191)"  stroke="rgb(191,191,191)" stroke-width="1" font-size="16" >H</text>
<text x="307.592484" y="118.732230" fill="rgb(102,102,102)"  stroke="rgb(102,102,102)" stroke-width="1" font-size="16" >CH</text>
<text x="331.592484" y="122.412230" fill="rgb(102,102,102)"  stroke="rgb(102,102,102)" stroke-width="1" font-size="13" >3</text>
<text x="278.827260" y="148.458023" fill="rgb(255,12,12)"  stroke="rgb(255,12,12)" stroke-width="1" font-size="16" >O</text>
<text x="239.701356" y="140.141556" fill="rgb(12,12,255)"  stroke="rgb(12,12,255)" stroke-width="1" font-size="16" >N</text>
<text x="214.156701" y="206.687656" fill="rgb(255,12,12)"  stroke="rgb(255,12,12)" stroke-width="1" font-size="16" >O</text>
<text x="131.823136" y="222.270753" fill="rgb(178,178,0)"  stroke="rgb(178,178,0)" stroke-width="1" font-size="16" >S</text>
<text x="120.546100" y="317.887674" fill="rgb(191,191,191)"  stroke="rgb(191,191,191)" stroke-width="1" font-size="16" >H</text>
<text x="34.000000" y="326.984036" fill="rgb(191,191,191)"  stroke="rgb(191,191,191)" stroke-width="1" font-size="16" >H</text>
<text x="37.730534" y="255.801201" fill="rgb(178,178,0)"  stroke="rgb(178,178,0)" stroke-width="1" font-size="16" >S</text>
<text x="49.007571" y="160.184280" fill="rgb(191,191,191)"  stroke="rgb(191,191,191)" stroke-width="1" font-size="16" >H</text>
</svg>
</g>
<text font-size="18.000000" fill ="black" font-family="sans-serif"
x="10.000000" y="20.000000" ></text>
</svg>
