<?xml version="1.0"?>
<svg version="1.1" id="topsvg"
xmlns="http://www.w3.org/2000/svg" xmlns:xlink="http://www.w3.org/1999/xlink"
xmlns:cml="http://www.xml-cml.org/schema" x="0" y="0" width="200px" height="200px" viewBox="0 0 100 100">
<title> - Open Babel Depiction</title>
<rect x="0" y="0" width="100" height="100" fill="white"/>
<g transform="translate(0,0)">
<svg width="100" height="100" x="0" y="0" viewBox="0 0 446.304 280"
font-family="sans-serif" stroke="rgb(0,0,0)" stroke-width="2"  stroke-linecap="round">
<line x1="312.4" y1="140.0" x2="272.4" y2="140.0" stroke="rgb(0,0,0)"  stroke-width="2.0"/>
<line x1="248.9" y1="172.4" x2="257.2" y2="198.0" stroke="rgb(0,0,0)"  stroke-width="2.0"/>
<line x1="176.2" y1="180.0" x2="176.2" y2="207.0" stroke="rgb(0,0,0)"  stroke-width="2.0"/>
<line x1="164.9" y1="226.5" x2="152.8" y2="233.5" stroke="rgb(0,0,0)"  stroke-width="2.0"/>
<line x1="80.0" y1="140.0" x2="53.0" y2="140.0" stroke="rgb(0,0,0)"  stroke-width="2.0"/>
<line x1="103.5" y1="107.6" x2="95.2" y2="82.0" stroke="rgb(0,0,0)"  stroke-width="2.0"/>
<line x1="176.2" y1="100.0" x2="176.2" y2="73.0" stroke="rgb(0,0,0)"  stroke-width="2.0"/>
<line x1="164.9" y1="53.5" x2="152.8" y2="46.5" stroke="rgb(0,0,0)"  stroke-width="2.0"/>
<line x1="373.9" y1="160.0" x2="395.8" y2="175.9" stroke="rgb(0,0,0)"  stroke-width="2.0"/>
<line x1="328.2" y1="183.3" x2="317.8" y2="192.7" stroke="rgb(0,0,0)"  stroke-width="2.0"/>
<line x1="324.2" y1="178.8" x2="313.8" y2="188.2" stroke="rgb(0,0,0)"  stroke-width="2.0"/>
<line x1="341.5" y1="184.5" x2="344.4" y2="198.1" stroke="rgb(0,0,0)"  stroke-width="2.0"/>
<line x1="335.7" y1="185.7" x2="338.6" y2="199.4" stroke="rgb(0,0,0)"  stroke-width="2.0"/>
<line x1="210.8" y1="160.0" x2="210.8" y2="120.0" stroke="rgb(0,0,0)"  stroke-width="2.0"/>
<line x1="210.8" y1="120.0" x2="236.5" y2="111.7" stroke="rgb(0,0,0)"  stroke-width="2.0"/>
<line x1="256.5" y1="118.2" x2="272.4" y2="140.0" stroke="rgb(0,0,0)"  stroke-width="2.0"/>
<line x1="272.4" y1="140.0" x2="248.9" y2="172.4" stroke="rgb(0,0,0)"  stroke-width="2.0"/>
<line x1="263.0" y1="140.6" x2="246.6" y2="163.3" stroke="rgb(0,0,0)"  stroke-width="2.0"/>
<line x1="248.9" y1="172.4" x2="210.8" y2="160.0" stroke="rgb(0,0,0)"  stroke-width="2.0"/>
<line x1="80.0" y1="140.0" x2="103.5" y2="107.6" stroke="rgb(0,0,0)"  stroke-width="2.0"/>
<line x1="89.4" y1="139.4" x2="105.8" y2="116.7" stroke="rgb(0,0,0)"  stroke-width="2.0"/>
<line x1="103.5" y1="107.6" x2="141.6" y2="120.0" stroke="rgb(0,0,0)"  stroke-width="2.0"/>
<line x1="141.6" y1="120.0" x2="141.6" y2="160.0" stroke="rgb(0,0,0)"  stroke-width="2.0"/>
<line x1="134.4" y1="126.0" x2="134.4" y2="154.0" stroke="rgb(0,0,0)"  stroke-width="2.0"/>
<line x1="141.6" y1="160.0" x2="115.9" y2="168.3" stroke="rgb(0,0,0)"  stroke-width="2.0"/>
<line x1="95.9" y1="161.8" x2="80.0" y2="140.0" stroke="rgb(0,0,0)"  stroke-width="2.0"/>
<line x1="141.6" y1="120.0" x2="176.2" y2="100.0" stroke="rgb(0,0,0)"  stroke-width="2.0"/>
<line x1="176.2" y1="100.0" x2="210.8" y2="120.0" stroke="rgb(0,0,0)"  stroke-width="2.0"/>
<line x1="177.8" y1="109.2" x2="202.0" y2="123.2" stroke="rgb(0,0,0)"  stroke-width="2.0"/>
<line x1="210.8" y1="160.0" x2="176.2" y2="180.0" stroke="rgb(0,0,0)"  stroke-width="2.0"/>
<line x1="202.0" y1="156.8" x2="177.8" y2="170.8" stroke="rgb(0,0,0)"  stroke-width="2.0"/>
<line x1="176.2" y1="180.0" x2="141.6" y2="160.0" stroke="rgb(0,0,0)"  stroke-width="2.0"/>
<line x1="373.9" y1="120.0" x2="373.9" y2="160.0" stroke="rgb(0,0,0)"  stroke-width="2.0"/>
<line x1="366.7" y1="126.0" x2="366.7" y2="154.0" stroke="rgb(0,0,0)"  stroke-width="2.0"/>
<line x1="373.9" y1="160.0" x2="348.3" y2="168.3" stroke="rgb(0,0,0)"  stroke-width="2.0"/>
<line x1="328.3" y1="161.8" x2="312.4" y2="140.0" stroke="rgb(0,0,0)"  stroke-width="2.0"/>
<line x1="312.4" y1="140.0" x2="335.9" y2="107.6" stroke="rgb(0,0,0)"  stroke-width="2.0"/>
<line x1="321.7" y1="139.4" x2="338.2" y2="116.7" stroke="rgb(0,0,0)"  stroke-width="2.0"/>
<line x1="335.9" y1="107.6" x2="373.9" y2="120.0" stroke="rgb(0,0,0)"  stroke-width="2.0"/>
<text x="73.150730" y="77.597060" fill="rgb(30,239,30)"  stroke="rgb(30,239,30)" stroke-width="1" font-size="16" >Cl</text>
<text x="338.217252" y="219.486584" fill="rgb(255,12,12)"  stroke="rgb(255,12,12)" stroke-width="1" font-size="16" >O</text>
<text x="300.174991" y="207.125904" fill="rgb(255,12,12)"  stroke="rgb(255,12,12)" stroke-width="1" font-size="16" >O</text>
<text x="329.900784" y="180.360680" fill="rgb(178,178,0)"  stroke="rgb(178,178,0)" stroke-width="1" font-size="16" >S</text>
<text x="400.303724" y="191.511410" fill="rgb(191,191,191)"  stroke="rgb(191,191,191)" stroke-width="1" font-size="16" >H</text>
<text x="242.877964" y="115.639320" fill="rgb(178,178,0)"  stroke="rgb(178,178,0)" stroke-width="1" font-size="16" >S</text>
<text x="115.553671" y="48.000000" fill="rgb(102,102,102)"  stroke="rgb(102,102,102)" stroke-width="1" font-size="16" >H</text>
<text x="127.553671" y="51.680000" fill="rgb(102,102,102)"  stroke="rgb(102,102,102)" stroke-width="1" font-size="13" >3</text>
<text x="134.053671" y="48.000000" fill="rgb(102,102,102)"  stroke="rgb(102,102,102)" stroke-width="1" font-size="16" >C</text>
<text x="170.194687" y="68.000000" fill="rgb(255,12,12)"  stroke="rgb(255,12,12)" stroke-width="1" font-size="16" >O</text>
<text x="34.000000" y="148.000000" fill="rgb(191,191,191)"  stroke="rgb(191,191,191)" stroke-width="1" font-size="16" >H</text>
<text x="97.511410" y="180.360680" fill="rgb(178,178,0)"  stroke="rgb(178,178,0)" stroke-width="1" font-size="16" >S</text>
<text x="115.553671" y="248.000000" fill="rgb(102,102,102)"  stroke="rgb(102,102,102)" stroke-width="1" font-size="16" >H</text>
<text x="127.553671" y="251.680000" fill="rgb(102,102,102)"  stroke="rgb(102,102,102)" stroke-width="1" font-size="13" >3</text>
<text x="134.053671" y="248.000000" fill="rgb(102,102,102)"  stroke="rgb(102,102,102)" stroke-width="1" font-size="16" >C</text>
<text x="170.194687" y="228.000000" fill="rgb(255,12,12)"  stroke="rgb(255,12,12)" stroke-width="1" font-size="16" >O</text>
<text x="255.238643" y="218.402940" fill="rgb(30,239,30)"  stroke="rgb(30,239,30)" stroke-width="1" font-size="16" >Cl</text>
</svg>
</g>
<text font-size="18.000000" fill ="black" font-family="sans-serif"
x="10.000000" y="20.000000" ></text>
</svg>
