<?xml version="1.0"?>
<svg version="1.1" id="topsvg"
xmlns="http://www.w3.org/2000/svg" xmlns:xlink="http://www.w3.org/1999/xlink"
xmlns:cml="http://www.xml-cml.org/schema" x="0" y="0" width="200px" height="200px" viewBox="0 0 100 100">
<title> - Open Babel Depiction</title>
<rect x="0" y="0" width="100" height="100" fill="white"/>
<g transform="translate(0,0)">
<svg width="100" height="100" x="0" y="0" viewBox="0 0 421.17 390.996"
font-family="sans-serif" stroke="rgb(0,0,0)" stroke-width="2"  stroke-linecap="round">
<line x1="184.3" y1="238.6" x2="172.0" y2="200.6" stroke="rgb(0,0,0)"  stroke-width="2.0"/>
<line x1="172.0" y1="95.9" x2="197.3" y2="105.3" stroke="rgb(0,0,0)"  stroke-width="2.0"/>
<line x1="172.0" y1="95.9" x2="176.2" y2="69.2" stroke="rgb(0,0,0)"  stroke-width="2.0"/>
<line x1="72.4" y1="63.5" x2="50.5" y2="47.6" stroke="rgb(0,0,0)"  stroke-width="2.0"/>
<line x1="254.0" y1="231.0" x2="254.0" y2="204.0" stroke="rgb(0,0,0)"  stroke-width="2.0"/>
<line x1="260.0" y1="231.0" x2="260.0" y2="204.0" stroke="rgb(0,0,0)"  stroke-width="2.0"/>
<line x1="329.7" y1="238.6" x2="338.0" y2="213.0" stroke="rgb(0,0,0)"  stroke-width="2.0"/>
<line x1="354.8" y1="197.9" x2="368.5" y2="195.0" stroke="rgb(0,0,0)"  stroke-width="2.0"/>
<line x1="329.7" y1="303.4" x2="338.0" y2="329.0" stroke="rgb(0,0,0)"  stroke-width="2.0"/>
<line x1="354.8" y1="344.1" x2="368.5" y2="347.0" stroke="rgb(0,0,0)"  stroke-width="2.0"/>
<line x1="260.0" y1="311.0" x2="260.0" y2="338.0" stroke="rgb(0,0,0)"  stroke-width="2.0"/>
<line x1="254.0" y1="311.0" x2="254.0" y2="338.0" stroke="rgb(0,0,0)"  stroke-width="2.0"/>
<line x1="184.3" y1="303.4" x2="176.0" y2="329.0" stroke="rgb(0,0,0)"  stroke-width="2.0"/>
<line x1="172.0" y1="135.9" x2="133.9" y2="148.2" stroke="rgb(0,0,0)"  stroke-width="2.0"/>
<line x1="168.5" y1="144.6" x2="141.8" y2="153.2" stroke="rgb(0,0,0)"  stroke-width="2.0"/>
<line x1="133.9" y1="148.2" x2="133.9" y2="175.2" stroke="rgb(0,0,0)"  stroke-width="2.0"/>
<line x1="146.3" y1="192.2" x2="172.0" y2="200.6" stroke="rgb(0,0,0)"  stroke-width="2.0"/>
<line x1="172.0" y1="200.6" x2="195.5" y2="168.2" stroke="rgb(0,0,0)"  stroke-width="2.0"/>
<line x1="169.7" y1="191.5" x2="186.1" y2="168.9" stroke="rgb(0,0,0)"  stroke-width="2.0"/>
<line x1="195.5" y1="168.2" x2="172.0" y2="135.9" stroke="rgb(0,0,0)"  stroke-width="2.0"/>
<line x1="72.4" y1="63.5" x2="72.4" y2="90.5" stroke="rgb(0,0,0)"  stroke-width="2.0"/>
<line x1="84.7" y1="107.5" x2="110.4" y2="115.9" stroke="rgb(0,0,0)"  stroke-width="2.0"/>
<line x1="110.4" y1="115.9" x2="133.9" y2="83.5" stroke="rgb(0,0,0)"  stroke-width="2.0"/>
<line x1="108.1" y1="106.8" x2="124.6" y2="84.1" stroke="rgb(0,0,0)"  stroke-width="2.0"/>
<line x1="133.9" y1="83.5" x2="110.4" y2="51.2" stroke="rgb(0,0,0)"  stroke-width="2.0"/>
<line x1="110.4" y1="51.2" x2="72.4" y2="63.5" stroke="rgb(0,0,0)"  stroke-width="2.0"/>
<line x1="106.9" y1="59.9" x2="80.3" y2="68.5" stroke="rgb(0,0,0)"  stroke-width="2.0"/>
<line x1="345.6" y1="281.5" x2="329.7" y2="303.4" stroke="rgb(0,0,0)"  stroke-width="2.0"/>
<line x1="329.7" y1="303.4" x2="291.6" y2="291.0" stroke="rgb(0,0,0)"  stroke-width="2.0"/>
<line x1="326.2" y1="294.7" x2="299.6" y2="286.0" stroke="rgb(0,0,0)"  stroke-width="2.0"/>
<line x1="291.6" y1="291.0" x2="291.6" y2="251.0" stroke="rgb(0,0,0)"  stroke-width="2.0"/>
<line x1="291.6" y1="251.0" x2="329.7" y2="238.6" stroke="rgb(0,0,0)"  stroke-width="2.0"/>
<line x1="299.6" y1="256.0" x2="326.2" y2="247.3" stroke="rgb(0,0,0)"  stroke-width="2.0"/>
<line x1="329.7" y1="238.6" x2="345.6" y2="260.5" stroke="rgb(0,0,0)"  stroke-width="2.0"/>
<line x1="222.4" y1="291.0" x2="184.3" y2="303.4" stroke="rgb(0,0,0)"  stroke-width="2.0"/>
<line x1="214.4" y1="286.0" x2="187.8" y2="294.7" stroke="rgb(0,0,0)"  stroke-width="2.0"/>
<line x1="184.3" y1="303.4" x2="168.4" y2="281.5" stroke="rgb(0,0,0)"  stroke-width="2.0"/>
<line x1="168.4" y1="260.5" x2="184.3" y2="238.6" stroke="rgb(0,0,0)"  stroke-width="2.0"/>
<line x1="184.3" y1="238.6" x2="222.4" y2="251.0" stroke="rgb(0,0,0)"  stroke-width="2.0"/>
<line x1="187.8" y1="247.3" x2="214.4" y2="256.0" stroke="rgb(0,0,0)"  stroke-width="2.0"/>
<line x1="222.4" y1="251.0" x2="222.4" y2="291.0" stroke="rgb(0,0,0)"  stroke-width="2.0"/>
<line x1="110.4" y1="115.9" x2="133.9" y2="148.2" stroke="rgb(0,0,0)"  stroke-width="2.0"/>
<line x1="172.0" y1="135.9" x2="172.0" y2="95.9" stroke="rgb(0,0,0)"  stroke-width="2.0"/>
<line x1="172.0" y1="95.9" x2="133.9" y2="83.5" stroke="rgb(0,0,0)"  stroke-width="2.0"/>
<line x1="257.0" y1="231.0" x2="291.6" y2="251.0" stroke="rgb(0,0,0)"  stroke-width="2.0"/>
<line x1="291.6" y1="291.0" x2="257.0" y2="311.0" stroke="rgb(0,0,0)"  stroke-width="2.0"/>
<line x1="257.0" y1="311.0" x2="222.4" y2="291.0" stroke="rgb(0,0,0)"  stroke-width="2.0"/>
<line x1="222.4" y1="251.0" x2="257.0" y2="231.0" stroke="rgb(0,0,0)"  stroke-width="2.0"/>
<text x="377.170428" y="357.715798" fill="rgb(102,102,102)"  stroke="rgb(102,102,102)" stroke-width="1" font-size="16" >CH</text>
<text x="401.170428" y="361.395798" fill="rgb(102,102,102)"  stroke="rgb(102,102,102)" stroke-width="1" font-size="13" >3</text>
<text x="251.000568" y="198.996390" fill="rgb(255,12,12)"  stroke="rgb(255,12,12)" stroke-width="1" font-size="16" >O</text>
<text x="336.044524" y="208.593449" fill="rgb(255,12,12)"  stroke="rgb(255,12,12)" stroke-width="1" font-size="16" >O</text>
<text x="377.170428" y="200.276982" fill="rgb(102,102,102)"  stroke="rgb(102,102,102)" stroke-width="1" font-size="16" >CH</text>
<text x="401.170428" y="203.956982" fill="rgb(102,102,102)"  stroke="rgb(102,102,102)" stroke-width="1" font-size="13" >3</text>
<text x="347.195255" y="278.996390" fill="rgb(178,178,0)"  stroke="rgb(178,178,0)" stroke-width="1" font-size="16" >S</text>
<text x="336.044524" y="349.399330" fill="rgb(255,12,12)"  stroke="rgb(255,12,12)" stroke-width="1" font-size="16" >O</text>
<text x="251.000568" y="358.996390" fill="rgb(255,12,12)"  stroke="rgb(255,12,12)" stroke-width="1" font-size="16" >O</text>
<text x="165.956611" y="349.399330" fill="rgb(191,191,191)"  stroke="rgb(191,191,191)" stroke-width="1" font-size="16" >H</text>
<text x="154.805881" y="278.996390" fill="rgb(178,178,0)"  stroke="rgb(178,178,0)" stroke-width="1" font-size="16" >S</text>
<text x="66.360680" y="111.511410" fill="rgb(178,178,0)"  stroke="rgb(178,178,0)" stroke-width="1" font-size="16" >S</text>
<text x="34.000000" y="48.000000" fill="rgb(191,191,191)"  stroke="rgb(191,191,191)" stroke-width="1" font-size="16" >H</text>
<text x="172.213990" y="64.364556" fill="rgb(191,191,191)"  stroke="rgb(191,191,191)" stroke-width="1" font-size="16" >H</text>
<text x="203.429554" y="117.864178" fill="rgb(191,191,191)"  stroke="rgb(191,191,191)" stroke-width="1" font-size="16" >H</text>
<text x="127.914351" y="196.232770" fill="rgb(178,178,0)"  stroke="rgb(178,178,0)" stroke-width="1" font-size="16" >S</text>
</svg>
</g>
<text font-size="18.000000" fill ="black" font-family="sans-serif"
x="10.000000" y="20.000000" ></text>
</svg>
