<?xml version="1.0"?>
<svg version="1.1" id="topsvg"
xmlns="http://www.w3.org/2000/svg" xmlns:xlink="http://www.w3.org/1999/xlink"
xmlns:cml="http://www.xml-cml.org/schema" x="0" y="0" width="200px" height="200px" viewBox="0 0 100 100">
<title> - Open Babel Depiction</title>
<rect x="0" y="0" width="100" height="100" fill="white"/>
<g transform="translate(0,0)">
<svg width="100" height="100" x="0" y="0" viewBox="0 0 509.583 380.584"
font-family="sans-serif" stroke="rgb(0,0,0)" stroke-width="2"  stroke-linecap="round">
<line x1="214.3" y1="200.4" x2="248.9" y2="220.1" stroke="rgb(0,0,0)"  stroke-width="2.0"/>
<line x1="253.3" y1="259.8" x2="223.8" y2="286.6" stroke="rgb(0,0,0)"  stroke-width="2.0"/>
<line x1="223.8" y1="286.6" x2="203.9" y2="304.7" stroke="rgb(0,0,0)"  stroke-width="2.0"/>
<line x1="226.6" y1="289.7" x2="206.7" y2="307.8" stroke="rgb(0,0,0)"  stroke-width="2.0"/>
<line x1="221.0" y1="283.5" x2="201.1" y2="301.6" stroke="rgb(0,0,0)"  stroke-width="2.0"/>
<line x1="292.4" y1="267.9" x2="308.8" y2="304.2" stroke="rgb(0,0,0)"  stroke-width="2.0"/>
<line x1="308.8" y1="304.2" x2="319.8" y2="328.7" stroke="rgb(0,0,0)"  stroke-width="2.0"/>
<line x1="312.6" y1="302.5" x2="323.7" y2="327.0" stroke="rgb(0,0,0)"  stroke-width="2.0"/>
<line x1="304.9" y1="306.0" x2="316.0" y2="330.5" stroke="rgb(0,0,0)"  stroke-width="2.0"/>
<line x1="312.1" y1="233.2" x2="351.8" y2="228.9" stroke="rgb(0,0,0)"  stroke-width="2.0"/>
<line x1="415.0" y1="242.0" x2="438.3" y2="255.3" stroke="rgb(0,0,0)"  stroke-width="2.0"/>
<line x1="410.6" y1="202.3" x2="440.1" y2="175.5" stroke="rgb(0,0,0)"  stroke-width="2.0"/>
<line x1="440.1" y1="175.5" x2="460.0" y2="157.4" stroke="rgb(0,0,0)"  stroke-width="2.0"/>
<line x1="437.3" y1="172.4" x2="457.1" y2="154.3" stroke="rgb(0,0,0)"  stroke-width="2.0"/>
<line x1="442.9" y1="178.6" x2="462.8" y2="160.5" stroke="rgb(0,0,0)"  stroke-width="2.0"/>
<line x1="371.5" y1="194.2" x2="355.1" y2="157.9" stroke="rgb(0,0,0)"  stroke-width="2.0"/>
<line x1="355.1" y1="157.9" x2="344.1" y2="133.4" stroke="rgb(0,0,0)"  stroke-width="2.0"/>
<line x1="351.3" y1="159.6" x2="340.2" y2="135.1" stroke="rgb(0,0,0)"  stroke-width="2.0"/>
<line x1="359.0" y1="156.2" x2="347.9" y2="131.7" stroke="rgb(0,0,0)"  stroke-width="2.0"/>
<line x1="113.1" y1="221.3" x2="113.2" y2="248.3" stroke="rgb(0,0,0)"  stroke-width="2.0"/>
<line x1="107.1" y1="221.3" x2="107.2" y2="248.3" stroke="rgb(0,0,0)"  stroke-width="2.0"/>
<line x1="64.4" y1="208.1" x2="52.4" y2="215.2" stroke="rgb(0,0,0)"  stroke-width="2.0"/>
<line x1="73.4" y1="163.7" x2="49.9" y2="150.5" stroke="rgb(0,0,0)"  stroke-width="2.0"/>
<line x1="76.3" y1="158.5" x2="52.8" y2="145.2" stroke="rgb(0,0,0)"  stroke-width="2.0"/>
<line x1="109.8" y1="100.7" x2="86.2" y2="87.5" stroke="rgb(0,0,0)"  stroke-width="2.0"/>
<line x1="210.6" y1="80.0" x2="210.4" y2="53.0" stroke="rgb(0,0,0)"  stroke-width="2.0"/>
<line x1="216.6" y1="80.0" x2="216.4" y2="53.0" stroke="rgb(0,0,0)"  stroke-width="2.0"/>
<line x1="259.8" y1="93.2" x2="271.8" y2="86.2" stroke="rgb(0,0,0)"  stroke-width="2.0"/>
<line x1="250.3" y1="137.6" x2="273.7" y2="151.0" stroke="rgb(0,0,0)"  stroke-width="2.0"/>
<line x1="247.3" y1="142.8" x2="270.8" y2="156.2" stroke="rgb(0,0,0)"  stroke-width="2.0"/>
<line x1="292.4" y1="267.9" x2="312.1" y2="233.2" stroke="rgb(0,0,0)"  stroke-width="2.0"/>
<line x1="289.1" y1="259.1" x2="302.9" y2="234.9" stroke="rgb(0,0,0)"  stroke-width="2.0"/>
<line x1="312.1" y1="233.2" x2="294.0" y2="213.4" stroke="rgb(0,0,0)"  stroke-width="2.0"/>
<line x1="273.4" y1="209.1" x2="248.9" y2="220.1" stroke="rgb(0,0,0)"  stroke-width="2.0"/>
<line x1="248.9" y1="220.1" x2="253.3" y2="259.8" stroke="rgb(0,0,0)"  stroke-width="2.0"/>
<line x1="256.8" y1="225.3" x2="259.8" y2="253.0" stroke="rgb(0,0,0)"  stroke-width="2.0"/>
<line x1="253.3" y1="259.8" x2="292.4" y2="267.9" stroke="rgb(0,0,0)"  stroke-width="2.0"/>
<line x1="415.0" y1="242.0" x2="410.6" y2="202.3" stroke="rgb(0,0,0)"  stroke-width="2.0"/>
<line x1="407.1" y1="236.8" x2="404.1" y2="209.1" stroke="rgb(0,0,0)"  stroke-width="2.0"/>
<line x1="410.6" y1="202.3" x2="371.5" y2="194.2" stroke="rgb(0,0,0)"  stroke-width="2.0"/>
<line x1="371.5" y1="194.2" x2="351.8" y2="228.9" stroke="rgb(0,0,0)"  stroke-width="2.0"/>
<line x1="374.8" y1="203.0" x2="361.0" y2="227.2" stroke="rgb(0,0,0)"  stroke-width="2.0"/>
<line x1="351.8" y1="228.9" x2="369.9" y2="248.8" stroke="rgb(0,0,0)"  stroke-width="2.0"/>
<line x1="390.4" y1="253.0" x2="415.0" y2="242.0" stroke="rgb(0,0,0)"  stroke-width="2.0"/>
<line x1="144.8" y1="201.0" x2="144.7" y2="160.5" stroke="rgb(0,0,0)"  stroke-width="2.0"/>
<line x1="152.0" y1="195.0" x2="151.9" y2="166.5" stroke="rgb(0,0,0)"  stroke-width="2.0"/>
<line x1="144.7" y1="160.5" x2="179.2" y2="140.4" stroke="rgb(0,0,0)"  stroke-width="2.0"/>
<line x1="179.2" y1="140.4" x2="214.1" y2="160.5" stroke="rgb(0,0,0)"  stroke-width="2.0"/>
<line x1="180.8" y1="149.6" x2="205.3" y2="163.7" stroke="rgb(0,0,0)"  stroke-width="2.0"/>
<line x1="214.1" y1="160.5" x2="214.3" y2="200.4" stroke="rgb(0,0,0)"  stroke-width="2.0"/>
<line x1="214.3" y1="200.4" x2="179.8" y2="220.5" stroke="rgb(0,0,0)"  stroke-width="2.0"/>
<line x1="205.5" y1="197.2" x2="181.4" y2="211.3" stroke="rgb(0,0,0)"  stroke-width="2.0"/>
<line x1="179.8" y1="220.5" x2="144.8" y2="201.0" stroke="rgb(0,0,0)"  stroke-width="2.0"/>
<line x1="74.9" y1="161.1" x2="109.6" y2="140.8" stroke="rgb(0,0,0)"  stroke-width="2.0"/>
<line x1="109.6" y1="140.8" x2="144.7" y2="160.5" stroke="rgb(0,0,0)"  stroke-width="2.0"/>
<line x1="144.8" y1="201.0" x2="110.1" y2="221.3" stroke="rgb(0,0,0)"  stroke-width="2.0"/>
<line x1="110.1" y1="221.3" x2="86.9" y2="208.0" stroke="rgb(0,0,0)"  stroke-width="2.0"/>
<line x1="75.4" y1="188.5" x2="74.9" y2="161.1" stroke="rgb(0,0,0)"  stroke-width="2.0"/>
<line x1="144.2" y1="80.5" x2="178.9" y2="100.3" stroke="rgb(0,0,0)"  stroke-width="2.0"/>
<line x1="145.9" y1="89.8" x2="170.1" y2="103.6" stroke="rgb(0,0,0)"  stroke-width="2.0"/>
<line x1="178.9" y1="100.3" x2="179.2" y2="140.4" stroke="rgb(0,0,0)"  stroke-width="2.0"/>
<line x1="109.6" y1="140.8" x2="109.8" y2="100.7" stroke="rgb(0,0,0)"  stroke-width="2.0"/>
<line x1="116.8" y1="134.8" x2="116.9" y2="106.7" stroke="rgb(0,0,0)"  stroke-width="2.0"/>
<line x1="109.8" y1="100.7" x2="144.2" y2="80.5" stroke="rgb(0,0,0)"  stroke-width="2.0"/>
<line x1="248.6" y1="112.8" x2="248.8" y2="140.2" stroke="rgb(0,0,0)"  stroke-width="2.0"/>
<line x1="248.8" y1="140.2" x2="214.1" y2="160.5" stroke="rgb(0,0,0)"  stroke-width="2.0"/>
<line x1="178.9" y1="100.3" x2="213.6" y2="80.0" stroke="rgb(0,0,0)"  stroke-width="2.0"/>
<line x1="213.6" y1="80.0" x2="237.2" y2="93.4" stroke="rgb(0,0,0)"  stroke-width="2.0"/>
<text x="104.219382" y="269.309437" fill="rgb(255,12,12)"  stroke="rgb(255,12,12)" stroke-width="1" font-size="16" >O</text>
<text x="69.622400" y="209.464798" fill="rgb(12,12,255)"  stroke="rgb(12,12,255)" stroke-width="1" font-size="16" >N</text>
<text x="35.179361" y="229.803850" fill="rgb(191,191,191)"  stroke="rgb(191,191,191)" stroke-width="1" font-size="16" >H</text>
<text x="34.000000" y="149.486562" fill="rgb(255,12,12)"  stroke="rgb(255,12,12)" stroke-width="1" font-size="16" >O</text>
<text x="68.881505" y="89.105078" fill="rgb(191,191,191)"  stroke="rgb(191,191,191)" stroke-width="1" font-size="16" >H</text>
<text x="207.300738" y="48.000000" fill="rgb(255,12,12)"  stroke="rgb(255,12,12)" stroke-width="1" font-size="16" >O</text>
<text x="242.557358" y="107.818918" fill="rgb(12,12,255)"  stroke="rgb(12,12,255)" stroke-width="1" font-size="16" >N</text>
<text x="277.060054" y="87.581232" fill="rgb(191,191,191)"  stroke="rgb(191,191,191)" stroke-width="1" font-size="16" >H</text>
<text x="277.533154" y="168.046217" fill="rgb(255,12,12)"  stroke="rgb(255,12,12)" stroke-width="1" font-size="16" >O</text>
<text x="372.600340" y="266.376535" fill="rgb(178,178,0)"  stroke="rgb(178,178,0)" stroke-width="1" font-size="16" >S</text>
<text x="188.305907" y="321.461592" fill="rgb(12,12,255)"  stroke="rgb(12,12,255)" stroke-width="1" font-size="16" >N</text>
<text x="319.170929" y="348.583965" fill="rgb(12,12,255)"  stroke="rgb(12,12,255)" stroke-width="1" font-size="16" >N</text>
<text x="279.288510" y="211.743986" fill="rgb(178,178,0)"  stroke="rgb(178,178,0)" stroke-width="1" font-size="16" >S</text>
<text x="443.588972" y="269.735497" fill="rgb(191,191,191)"  stroke="rgb(191,191,191)" stroke-width="1" font-size="16" >H</text>
<text x="463.582943" y="156.658929" fill="rgb(12,12,255)"  stroke="rgb(12,12,255)" stroke-width="1" font-size="16" >N</text>
<text x="332.717921" y="129.536556" fill="rgb(12,12,255)"  stroke="rgb(12,12,255)" stroke-width="1" font-size="16" >N</text>
</svg>
</g>
<text font-size="18.000000" fill ="black" font-family="sans-serif"
x="10.000000" y="20.000000" ></text>
</svg>
