<?xml version="1.0"?>
<svg version="1.1" id="topsvg"
xmlns="http://www.w3.org/2000/svg" xmlns:xlink="http://www.w3.org/1999/xlink"
xmlns:cml="http://www.xml-cml.org/schema" x="0" y="0" width="200px" height="200px" viewBox="0 0 100 100">
<title> - Open Babel Depiction</title>
<rect x="0" y="0" width="100" height="100" fill="white"/>
<g transform="translate(0,0)">
<svg width="100" height="100" x="0" y="0" viewBox="0 0 587.679 426.8"
font-family="sans-serif" stroke="rgb(0,0,0)" stroke-width="2"  stroke-linecap="round">
<line x1="311.8" y1="215.2" x2="346.4" y2="235.2" stroke="rgb(0,0,0)"  stroke-width="2.0"/>
<line x1="383.0" y1="218.9" x2="388.6" y2="192.5" stroke="rgb(0,0,0)"  stroke-width="2.0"/>
<line x1="449.7" y1="248.7" x2="463.2" y2="225.3" stroke="rgb(0,0,0)"  stroke-width="2.0"/>
<line x1="513.0" y1="331.4" x2="536.4" y2="344.9" stroke="rgb(0,0,0)"  stroke-width="2.0"/>
<line x1="476.5" y1="347.7" x2="470.9" y2="374.1" stroke="rgb(0,0,0)"  stroke-width="2.0"/>
<line x1="409.7" y1="317.9" x2="396.2" y2="341.3" stroke="rgb(0,0,0)"  stroke-width="2.0"/>
<line x1="226.4" y1="113.4" x2="212.9" y2="90.0" stroke="rgb(0,0,0)"  stroke-width="2.0"/>
<line x1="231.6" y1="110.4" x2="218.1" y2="87.0" stroke="rgb(0,0,0)"  stroke-width="2.0"/>
<line x1="277.5" y1="106.4" x2="295.6" y2="86.4" stroke="rgb(0,0,0)"  stroke-width="2.0"/>
<line x1="296.2" y1="83.4" x2="322.6" y2="89.0" stroke="rgb(0,0,0)"  stroke-width="2.0"/>
<line x1="295.0" y1="89.3" x2="321.4" y2="94.9" stroke="rgb(0,0,0)"  stroke-width="2.0"/>
<line x1="295.6" y1="86.4" x2="287.2" y2="60.7" stroke="rgb(0,0,0)"  stroke-width="2.0"/>
<line x1="270.5" y1="45.6" x2="256.8" y2="42.7" stroke="rgb(0,0,0)"  stroke-width="2.0"/>
<line x1="213.4" y1="151.4" x2="174.3" y2="159.7" stroke="rgb(0,0,0)"  stroke-width="2.0"/>
<line x1="212.2" y1="145.5" x2="173.0" y2="153.8" stroke="rgb(0,0,0)"  stroke-width="2.0"/>
<line x1="160.0" y1="191.8" x2="173.5" y2="215.2" stroke="rgb(0,0,0)"  stroke-width="2.0"/>
<line x1="154.8" y1="194.8" x2="168.3" y2="218.2" stroke="rgb(0,0,0)"  stroke-width="2.0"/>
<line x1="108.9" y1="198.8" x2="90.8" y2="218.8" stroke="rgb(0,0,0)"  stroke-width="2.0"/>
<line x1="90.2" y1="221.8" x2="63.8" y2="216.2" stroke="rgb(0,0,0)"  stroke-width="2.0"/>
<line x1="91.5" y1="215.9" x2="65.0" y2="210.3" stroke="rgb(0,0,0)"  stroke-width="2.0"/>
<line x1="90.8" y1="218.8" x2="99.2" y2="244.5" stroke="rgb(0,0,0)"  stroke-width="2.0"/>
<line x1="94.5" y1="266.6" x2="85.1" y2="277.0" stroke="rgb(0,0,0)"  stroke-width="2.0"/>
<line x1="74.6" y1="90.0" x2="51.3" y2="76.5" stroke="rgb(0,0,0)"  stroke-width="2.0"/>
<line x1="409.7" y1="248.7" x2="389.7" y2="283.3" stroke="rgb(0,0,0)"  stroke-width="2.0"/>
<line x1="389.7" y1="283.3" x2="363.3" y2="277.7" stroke="rgb(0,0,0)"  stroke-width="2.0"/>
<line x1="349.2" y1="262.1" x2="346.4" y2="235.2" stroke="rgb(0,0,0)"  stroke-width="2.0"/>
<line x1="346.4" y1="235.2" x2="383.0" y2="218.9" stroke="rgb(0,0,0)"  stroke-width="2.0"/>
<line x1="354.8" y1="239.3" x2="380.4" y2="228.0" stroke="rgb(0,0,0)"  stroke-width="2.0"/>
<line x1="383.0" y1="218.9" x2="409.7" y2="248.7" stroke="rgb(0,0,0)"  stroke-width="2.0"/>
<line x1="513.0" y1="331.4" x2="476.5" y2="347.7" stroke="rgb(0,0,0)"  stroke-width="2.0"/>
<line x1="504.6" y1="327.3" x2="479.0" y2="338.7" stroke="rgb(0,0,0)"  stroke-width="2.0"/>
<line x1="476.5" y1="347.7" x2="449.7" y2="317.9" stroke="rgb(0,0,0)"  stroke-width="2.0"/>
<line x1="449.7" y1="317.9" x2="469.7" y2="283.3" stroke="rgb(0,0,0)"  stroke-width="2.0"/>
<line x1="459.0" y1="316.4" x2="473.0" y2="292.1" stroke="rgb(0,0,0)"  stroke-width="2.0"/>
<line x1="469.7" y1="283.3" x2="496.1" y2="288.9" stroke="rgb(0,0,0)"  stroke-width="2.0"/>
<line x1="510.2" y1="304.6" x2="513.0" y2="331.4" stroke="rgb(0,0,0)"  stroke-width="2.0"/>
<line x1="449.7" y1="317.9" x2="409.7" y2="317.9" stroke="rgb(0,0,0)"  stroke-width="2.0"/>
<line x1="409.7" y1="317.9" x2="389.7" y2="283.3" stroke="rgb(0,0,0)"  stroke-width="2.0"/>
<line x1="413.0" y1="309.2" x2="399.0" y2="284.9" stroke="rgb(0,0,0)"  stroke-width="2.0"/>
<line x1="409.7" y1="248.7" x2="449.7" y2="248.7" stroke="rgb(0,0,0)"  stroke-width="2.0"/>
<line x1="415.7" y1="255.9" x2="443.7" y2="255.9" stroke="rgb(0,0,0)"  stroke-width="2.0"/>
<line x1="449.7" y1="248.7" x2="469.7" y2="283.3" stroke="rgb(0,0,0)"  stroke-width="2.0"/>
<line x1="242.5" y1="215.2" x2="242.5" y2="175.2" stroke="rgb(0,0,0)"  stroke-width="2.0"/>
<line x1="249.7" y1="209.2" x2="249.7" y2="181.2" stroke="rgb(0,0,0)"  stroke-width="2.0"/>
<line x1="242.5" y1="175.2" x2="277.1" y2="155.2" stroke="rgb(0,0,0)"  stroke-width="2.0"/>
<line x1="277.1" y1="155.2" x2="311.8" y2="175.2" stroke="rgb(0,0,0)"  stroke-width="2.0"/>
<line x1="278.7" y1="164.4" x2="303.0" y2="178.4" stroke="rgb(0,0,0)"  stroke-width="2.0"/>
<line x1="311.8" y1="175.2" x2="311.8" y2="215.2" stroke="rgb(0,0,0)"  stroke-width="2.0"/>
<line x1="311.8" y1="215.2" x2="277.1" y2="235.2" stroke="rgb(0,0,0)"  stroke-width="2.0"/>
<line x1="303.0" y1="212.0" x2="278.7" y2="226.0" stroke="rgb(0,0,0)"  stroke-width="2.0"/>
<line x1="277.1" y1="235.2" x2="242.5" y2="215.2" stroke="rgb(0,0,0)"  stroke-width="2.0"/>
<line x1="109.3" y1="70.0" x2="143.9" y2="90.0" stroke="rgb(0,0,0)"  stroke-width="2.0"/>
<line x1="143.9" y1="90.0" x2="143.9" y2="130.0" stroke="rgb(0,0,0)"  stroke-width="2.0"/>
<line x1="136.7" y1="96.0" x2="136.7" y2="124.0" stroke="rgb(0,0,0)"  stroke-width="2.0"/>
<line x1="143.9" y1="130.0" x2="109.3" y2="150.0" stroke="rgb(0,0,0)"  stroke-width="2.0"/>
<line x1="109.3" y1="150.0" x2="74.6" y2="130.0" stroke="rgb(0,0,0)"  stroke-width="2.0"/>
<line x1="107.7" y1="140.8" x2="83.4" y2="126.8" stroke="rgb(0,0,0)"  stroke-width="2.0"/>
<line x1="74.6" y1="130.0" x2="74.6" y2="90.0" stroke="rgb(0,0,0)"  stroke-width="2.0"/>
<line x1="74.6" y1="90.0" x2="109.3" y2="70.0" stroke="rgb(0,0,0)"  stroke-width="2.0"/>
<line x1="83.4" y1="93.2" x2="107.7" y2="79.2" stroke="rgb(0,0,0)"  stroke-width="2.0"/>
<line x1="229.0" y1="111.9" x2="255.9" y2="114.7" stroke="rgb(0,0,0)"  stroke-width="2.0"/>
<line x1="271.5" y1="128.8" x2="277.1" y2="155.2" stroke="rgb(0,0,0)"  stroke-width="2.0"/>
<line x1="242.5" y1="175.2" x2="212.8" y2="148.4" stroke="rgb(0,0,0)"  stroke-width="2.0"/>
<line x1="212.8" y1="148.4" x2="229.0" y2="111.9" stroke="rgb(0,0,0)"  stroke-width="2.0"/>
<line x1="114.9" y1="176.4" x2="109.3" y2="150.0" stroke="rgb(0,0,0)"  stroke-width="2.0"/>
<line x1="143.9" y1="130.0" x2="173.6" y2="156.8" stroke="rgb(0,0,0)"  stroke-width="2.0"/>
<line x1="173.6" y1="156.8" x2="157.4" y2="193.3" stroke="rgb(0,0,0)"  stroke-width="2.0"/>
<line x1="157.4" y1="193.3" x2="130.5" y2="190.5" stroke="rgb(0,0,0)"  stroke-width="2.0"/>
<text x="262.825087" y="124.084521" fill="rgb(12,12,255)"  stroke="rgb(12,12,255)" stroke-width="1" font-size="16" >N</text>
<text x="328.716215" y="102.675196" fill="rgb(255,12,12)"  stroke="rgb(255,12,12)" stroke-width="1" font-size="16" >O</text>
<text x="277.229632" y="56.316468" fill="rgb(255,12,12)"  stroke="rgb(255,12,12)" stroke-width="1" font-size="16" >O</text>
<text x="218.103727" y="48.000000" fill="rgb(102,102,102)"  stroke="rgb(102,102,102)" stroke-width="1" font-size="16" >H</text>
<text x="230.103727" y="51.680000" fill="rgb(102,102,102)"  stroke="rgb(102,102,102)" stroke-width="1" font-size="13" >3</text>
<text x="236.603727" y="48.000000" fill="rgb(102,102,102)"  stroke="rgb(102,102,102)" stroke-width="1" font-size="16" >C</text>
<text x="171.379376" y="235.944503" fill="rgb(255,12,12)"  stroke="rgb(255,12,12)" stroke-width="1" font-size="16" >O</text>
<text x="111.598500" y="197.122348" fill="rgb(12,12,255)"  stroke="rgb(12,12,255)" stroke-width="1" font-size="16" >N</text>
<text x="203.044211" y="85.262367" fill="rgb(255,12,12)"  stroke="rgb(255,12,12)" stroke-width="1" font-size="16" >O</text>
<text x="45.707372" y="218.531674" fill="rgb(255,12,12)"  stroke="rgb(255,12,12)" stroke-width="1" font-size="16" >O</text>
<text x="97.193955" y="264.890402" fill="rgb(255,12,12)"  stroke="rgb(255,12,12)" stroke-width="1" font-size="16" >O</text>
<text x="50.428731" y="294.616195" fill="rgb(102,102,102)"  stroke="rgb(102,102,102)" stroke-width="1" font-size="16" >H</text>
<text x="62.428731" y="298.296195" fill="rgb(102,102,102)"  stroke="rgb(102,102,102)" stroke-width="1" font-size="13" >3</text>
<text x="68.928731" y="294.616195" fill="rgb(102,102,102)"  stroke="rgb(102,102,102)" stroke-width="1" font-size="16" >C</text>
<text x="34.000000" y="77.996444" fill="rgb(191,191,191)"  stroke="rgb(191,191,191)" stroke-width="1" font-size="16" >H</text>
<text x="462.179386" y="394.800482" fill="rgb(127,178,255)"  stroke="rgb(127,178,255)" stroke-width="1" font-size="16" >F</text>
<text x="385.281873" y="187.815056" fill="rgb(127,178,255)"  stroke="rgb(127,178,255)" stroke-width="1" font-size="16" >F</text>
<text x="463.730630" y="222.025736" fill="rgb(191,191,191)"  stroke="rgb(191,191,191)" stroke-width="1" font-size="16" >H</text>
<text x="502.856534" y="299.624236" fill="rgb(178,178,0)"  stroke="rgb(178,178,0)" stroke-width="1" font-size="16" >S</text>
<text x="541.678688" y="359.405112" fill="rgb(191,191,191)"  stroke="rgb(191,191,191)" stroke-width="1" font-size="16" >H</text>
<text x="383.730630" y="360.589801" fill="rgb(191,191,191)"  stroke="rgb(191,191,191)" stroke-width="1" font-size="16" >H</text>
<text x="344.604726" y="282.991301" fill="rgb(178,178,0)"  stroke="rgb(178,178,0)" stroke-width="1" font-size="16" >S</text>
</svg>
</g>
<text font-size="18.000000" fill ="black" font-family="sans-serif"
x="10.000000" y="20.000000" ></text>
</svg>
