<?xml version="1.0"?>
<svg version="1.1" id="topsvg"
xmlns="http://www.w3.org/2000/svg" xmlns:xlink="http://www.w3.org/1999/xlink"
xmlns:cml="http://www.xml-cml.org/schema" x="0" y="0" width="200px" height="200px" viewBox="0 0 100 100">
<title> - Open Babel Depiction</title>
<rect x="0" y="0" width="100" height="100" fill="white"/>
<g transform="translate(0,0)">
<svg width="100" height="100" x="0" y="0" viewBox="0 0 380.449 333.311"
font-family="sans-serif" stroke="rgb(0,0,0)" stroke-width="2"  stroke-linecap="round">
<line x1="236.5" y1="153.3" x2="201.9" y2="133.3" stroke="rgb(0,0,0)"  stroke-width="2.0"/>
<line x1="197.7" y1="93.5" x2="227.4" y2="66.8" stroke="rgb(0,0,0)"  stroke-width="2.0"/>
<line x1="227.4" y1="66.8" x2="247.5" y2="48.7" stroke="rgb(0,0,0)"  stroke-width="2.0"/>
<line x1="224.6" y1="63.6" x2="244.7" y2="45.6" stroke="rgb(0,0,0)"  stroke-width="2.0"/>
<line x1="230.2" y1="69.9" x2="250.3" y2="51.8" stroke="rgb(0,0,0)"  stroke-width="2.0"/>
<line x1="95.3" y1="71.8" x2="71.9" y2="58.3" stroke="rgb(0,0,0)"  stroke-width="2.0"/>
<line x1="99.5" y1="111.5" x2="69.7" y2="138.3" stroke="rgb(0,0,0)"  stroke-width="2.0"/>
<line x1="69.7" y1="138.3" x2="49.7" y2="156.4" stroke="rgb(0,0,0)"  stroke-width="2.0"/>
<line x1="72.5" y1="141.4" x2="52.5" y2="159.5" stroke="rgb(0,0,0)"  stroke-width="2.0"/>
<line x1="66.9" y1="135.2" x2="46.9" y2="153.2" stroke="rgb(0,0,0)"  stroke-width="2.0"/>
<line x1="305.8" y1="193.3" x2="329.2" y2="206.8" stroke="rgb(0,0,0)"  stroke-width="2.0"/>
<line x1="271.2" y1="213.3" x2="271.2" y2="253.3" stroke="rgb(0,0,0)"  stroke-width="2.0"/>
<line x1="271.2" y1="253.3" x2="271.2" y2="280.3" stroke="rgb(0,0,0)"  stroke-width="2.0"/>
<line x1="275.4" y1="253.3" x2="275.4" y2="280.3" stroke="rgb(0,0,0)"  stroke-width="2.0"/>
<line x1="267.0" y1="253.3" x2="267.0" y2="280.3" stroke="rgb(0,0,0)"  stroke-width="2.0"/>
<line x1="236.5" y1="193.3" x2="201.9" y2="213.3" stroke="rgb(0,0,0)"  stroke-width="2.0"/>
<line x1="201.9" y1="213.3" x2="178.5" y2="226.8" stroke="rgb(0,0,0)"  stroke-width="2.0"/>
<line x1="204.0" y1="216.9" x2="180.6" y2="230.4" stroke="rgb(0,0,0)"  stroke-width="2.0"/>
<line x1="199.8" y1="209.7" x2="176.4" y2="223.2" stroke="rgb(0,0,0)"  stroke-width="2.0"/>
<line x1="158.6" y1="85.2" x2="138.6" y2="119.9" stroke="rgb(0,0,0)"  stroke-width="2.0"/>
<line x1="161.8" y1="94.0" x2="147.8" y2="118.3" stroke="rgb(0,0,0)"  stroke-width="2.0"/>
<line x1="138.6" y1="119.9" x2="156.6" y2="139.9" stroke="rgb(0,0,0)"  stroke-width="2.0"/>
<line x1="177.2" y1="144.3" x2="201.9" y2="133.3" stroke="rgb(0,0,0)"  stroke-width="2.0"/>
<line x1="201.9" y1="133.3" x2="197.7" y2="93.5" stroke="rgb(0,0,0)"  stroke-width="2.0"/>
<line x1="194.1" y1="128.1" x2="191.2" y2="100.3" stroke="rgb(0,0,0)"  stroke-width="2.0"/>
<line x1="197.7" y1="93.5" x2="158.6" y2="85.2" stroke="rgb(0,0,0)"  stroke-width="2.0"/>
<line x1="95.3" y1="71.8" x2="99.5" y2="111.5" stroke="rgb(0,0,0)"  stroke-width="2.0"/>
<line x1="103.1" y1="77.0" x2="106.0" y2="104.8" stroke="rgb(0,0,0)"  stroke-width="2.0"/>
<line x1="99.5" y1="111.5" x2="138.6" y2="119.9" stroke="rgb(0,0,0)"  stroke-width="2.0"/>
<line x1="158.6" y1="85.2" x2="140.5" y2="65.1" stroke="rgb(0,0,0)"  stroke-width="2.0"/>
<line x1="119.9" y1="60.8" x2="95.3" y2="71.8" stroke="rgb(0,0,0)"  stroke-width="2.0"/>
<line x1="292.4" y1="92.8" x2="306.3" y2="91.4" stroke="rgb(0,0,0)"  stroke-width="2.0"/>
<line x1="324.6" y1="101.9" x2="330.2" y2="114.7" stroke="rgb(0,0,0)"  stroke-width="2.0"/>
<line x1="325.7" y1="135.4" x2="305.8" y2="153.3" stroke="rgb(0,0,0)"  stroke-width="2.0"/>
<line x1="319.4" y1="131.4" x2="305.4" y2="143.9" stroke="rgb(0,0,0)"  stroke-width="2.0"/>
<line x1="305.8" y1="153.3" x2="271.2" y2="133.3" stroke="rgb(0,0,0)"  stroke-width="2.0"/>
<line x1="271.2" y1="133.3" x2="276.7" y2="107.1" stroke="rgb(0,0,0)"  stroke-width="2.0"/>
<line x1="279.5" y1="128.9" x2="283.4" y2="110.6" stroke="rgb(0,0,0)"  stroke-width="2.0"/>
<line x1="305.8" y1="153.3" x2="305.8" y2="193.3" stroke="rgb(0,0,0)"  stroke-width="2.0"/>
<line x1="305.8" y1="193.3" x2="271.2" y2="213.3" stroke="rgb(0,0,0)"  stroke-width="2.0"/>
<line x1="297.0" y1="190.1" x2="272.8" y2="204.1" stroke="rgb(0,0,0)"  stroke-width="2.0"/>
<line x1="271.2" y1="213.3" x2="236.5" y2="193.3" stroke="rgb(0,0,0)"  stroke-width="2.0"/>
<line x1="236.5" y1="193.3" x2="236.5" y2="153.3" stroke="rgb(0,0,0)"  stroke-width="2.0"/>
<line x1="243.7" y1="187.3" x2="243.7" y2="159.3" stroke="rgb(0,0,0)"  stroke-width="2.0"/>
<line x1="236.5" y1="153.3" x2="271.2" y2="133.3" stroke="rgb(0,0,0)"  stroke-width="2.0"/>
<text x="159.342714" y="157.580790" fill="rgb(178,178,0)"  stroke="rgb(178,178,0)" stroke-width="1" font-size="16" >S</text>
<text x="161.243516" y="241.311324" fill="rgb(12,12,255)"  stroke="rgb(12,12,255)" stroke-width="1" font-size="16" >N</text>
<text x="265.166565" y="301.311324" fill="rgb(12,12,255)"  stroke="rgb(12,12,255)" stroke-width="1" font-size="16" >N</text>
<text x="334.448597" y="221.311324" fill="rgb(191,191,191)"  stroke="rgb(191,191,191)" stroke-width="1" font-size="16" >H</text>
<text x="329.533374" y="134.546100" fill="rgb(12,12,255)"  stroke="rgb(12,12,255)" stroke-width="1" font-size="16" >N</text>
<text x="313.263908" y="98.004282" fill="rgb(178,178,0)"  stroke="rgb(178,178,0)" stroke-width="1" font-size="16" >S</text>
<text x="273.483033" y="102.185420" fill="rgb(12,12,255)"  stroke="rgb(12,12,255)" stroke-width="1" font-size="16" >N</text>
<text x="34.000000" y="173.068978" fill="rgb(12,12,255)"  stroke="rgb(12,12,255)" stroke-width="1" font-size="16" >N</text>
<text x="54.629431" y="59.757654" fill="rgb(191,191,191)"  stroke="rgb(191,191,191)" stroke-width="1" font-size="16" >H</text>
<text x="125.812266" y="63.488188" fill="rgb(178,178,0)"  stroke="rgb(178,178,0)" stroke-width="1" font-size="16" >S</text>
<text x="251.154980" y="48.000000" fill="rgb(12,12,255)"  stroke="rgb(12,12,255)" stroke-width="1" font-size="16" >N</text>
</svg>
</g>
<text font-size="18.000000" fill ="black" font-family="sans-serif"
x="10.000000" y="20.000000" ></text>
</svg>
