<?xml version="1.0"?>
<svg version="1.1" id="topsvg"
xmlns="http://www.w3.org/2000/svg" xmlns:xlink="http://www.w3.org/1999/xlink"
xmlns:cml="http://www.xml-cml.org/schema" x="0" y="0" width="200px" height="200px" viewBox="0 0 100 100">
<title> - Open Babel Depiction</title>
<rect x="0" y="0" width="100" height="100" fill="white"/>
<g transform="translate(0,0)">
<svg width="100" height="100" x="0" y="0" viewBox="0 0 359.819 281.554"
font-family="sans-serif" stroke="rgb(0,0,0)" stroke-width="2"  stroke-linecap="round">
<line x1="143.9" y1="140.0" x2="178.6" y2="160.0" stroke="rgb(0,0,0)"  stroke-width="2.0"/>
<line x1="182.7" y1="199.8" x2="162.7" y2="217.8" stroke="rgb(0,0,0)"  stroke-width="2.0"/>
<line x1="285.2" y1="221.6" x2="308.6" y2="235.1" stroke="rgb(0,0,0)"  stroke-width="2.0"/>
<line x1="281.0" y1="181.8" x2="301.1" y2="163.7" stroke="rgb(0,0,0)"  stroke-width="2.0"/>
<line x1="74.6" y1="100.0" x2="51.3" y2="86.5" stroke="rgb(0,0,0)"  stroke-width="2.0"/>
<line x1="109.3" y1="80.0" x2="109.3" y2="53.0" stroke="rgb(0,0,0)"  stroke-width="2.0"/>
<line x1="143.9" y1="100.0" x2="167.3" y2="86.5" stroke="rgb(0,0,0)"  stroke-width="2.0"/>
<line x1="221.9" y1="208.1" x2="241.9" y2="173.5" stroke="rgb(0,0,0)"  stroke-width="2.0"/>
<line x1="218.6" y1="199.3" x2="232.6" y2="175.1" stroke="rgb(0,0,0)"  stroke-width="2.0"/>
<line x1="241.9" y1="173.5" x2="223.8" y2="153.4" stroke="rgb(0,0,0)"  stroke-width="2.0"/>
<line x1="203.2" y1="149.0" x2="178.6" y2="160.0" stroke="rgb(0,0,0)"  stroke-width="2.0"/>
<line x1="178.6" y1="160.0" x2="182.7" y2="199.8" stroke="rgb(0,0,0)"  stroke-width="2.0"/>
<line x1="186.4" y1="165.2" x2="189.3" y2="193.1" stroke="rgb(0,0,0)"  stroke-width="2.0"/>
<line x1="182.7" y1="199.8" x2="221.9" y2="208.1" stroke="rgb(0,0,0)"  stroke-width="2.0"/>
<line x1="285.2" y1="221.6" x2="281.0" y2="181.8" stroke="rgb(0,0,0)"  stroke-width="2.0"/>
<line x1="277.4" y1="216.3" x2="274.5" y2="188.5" stroke="rgb(0,0,0)"  stroke-width="2.0"/>
<line x1="281.0" y1="181.8" x2="241.9" y2="173.5" stroke="rgb(0,0,0)"  stroke-width="2.0"/>
<line x1="221.9" y1="208.1" x2="239.9" y2="228.2" stroke="rgb(0,0,0)"  stroke-width="2.0"/>
<line x1="260.5" y1="232.5" x2="285.2" y2="221.6" stroke="rgb(0,0,0)"  stroke-width="2.0"/>
<line x1="88.0" y1="200.5" x2="74.1" y2="201.9" stroke="rgb(0,0,0)"  stroke-width="2.0"/>
<line x1="55.9" y1="191.4" x2="50.2" y2="178.6" stroke="rgb(0,0,0)"  stroke-width="2.0"/>
<line x1="54.7" y1="157.9" x2="74.6" y2="140.0" stroke="rgb(0,0,0)"  stroke-width="2.0"/>
<line x1="61.0" y1="161.9" x2="75.0" y2="149.4" stroke="rgb(0,0,0)"  stroke-width="2.0"/>
<line x1="74.6" y1="140.0" x2="109.3" y2="160.0" stroke="rgb(0,0,0)"  stroke-width="2.0"/>
<line x1="109.3" y1="160.0" x2="103.7" y2="186.2" stroke="rgb(0,0,0)"  stroke-width="2.0"/>
<line x1="101.0" y1="164.4" x2="97.1" y2="182.8" stroke="rgb(0,0,0)"  stroke-width="2.0"/>
<line x1="74.6" y1="140.0" x2="74.6" y2="100.0" stroke="rgb(0,0,0)"  stroke-width="2.0"/>
<line x1="74.6" y1="100.0" x2="109.3" y2="80.0" stroke="rgb(0,0,0)"  stroke-width="2.0"/>
<line x1="83.4" y1="103.2" x2="107.7" y2="89.2" stroke="rgb(0,0,0)"  stroke-width="2.0"/>
<line x1="109.3" y1="80.0" x2="143.9" y2="100.0" stroke="rgb(0,0,0)"  stroke-width="2.0"/>
<line x1="143.9" y1="100.0" x2="143.9" y2="140.0" stroke="rgb(0,0,0)"  stroke-width="2.0"/>
<line x1="136.7" y1="106.0" x2="136.7" y2="134.0" stroke="rgb(0,0,0)"  stroke-width="2.0"/>
<line x1="143.9" y1="140.0" x2="109.3" y2="160.0" stroke="rgb(0,0,0)"  stroke-width="2.0"/>
<text x="209.105883" y="151.730534" fill="rgb(178,178,0)"  stroke="rgb(178,178,0)" stroke-width="1" font-size="16" >S</text>
<text x="172.564065" y="88.000000" fill="rgb(255,12,12)"  stroke="rgb(255,12,12)" stroke-width="1" font-size="16" >OH</text>
<text x="103.282032" y="48.000000" fill="rgb(255,12,12)"  stroke="rgb(255,12,12)" stroke-width="1" font-size="16" >OH</text>
<text x="34.000000" y="88.000000" fill="rgb(191,191,191)"  stroke="rgb(191,191,191)" stroke-width="1" font-size="16" >H</text>
<text x="38.915223" y="174.765224" fill="rgb(12,12,255)"  stroke="rgb(12,12,255)" stroke-width="1" font-size="16" >N</text>
<text x="55.184689" y="211.307043" fill="rgb(178,178,0)"  stroke="rgb(178,178,0)" stroke-width="1" font-size="16" >S</text>
<text x="94.965565" y="207.125904" fill="rgb(12,12,255)"  stroke="rgb(12,12,255)" stroke-width="1" font-size="16" >N</text>
<text x="304.722804" y="163.007571" fill="rgb(30,239,30)"  stroke="rgb(30,239,30)" stroke-width="1" font-size="16" >Cl</text>
<text x="313.819166" y="249.553671" fill="rgb(191,191,191)"  stroke="rgb(191,191,191)" stroke-width="1" font-size="16" >H</text>
<text x="242.636331" y="245.823136" fill="rgb(178,178,0)"  stroke="rgb(178,178,0)" stroke-width="1" font-size="16" >S</text>
<text x="135.019410" y="234.546100" fill="rgb(30,239,30)"  stroke="rgb(30,239,30)" stroke-width="1" font-size="16" >Cl</text>
</svg>
</g>
<text font-size="18.000000" fill ="black" font-family="sans-serif"
x="10.000000" y="20.000000" ></text>
</svg>
