<?xml version="1.0"?>
<svg version="1.1" id="topsvg"
xmlns="http://www.w3.org/2000/svg" xmlns:xlink="http://www.w3.org/1999/xlink"
xmlns:cml="http://www.xml-cml.org/schema" x="0" y="0" width="200px" height="200px" viewBox="0 0 100 100">
<title> - Open Babel Depiction</title>
<rect x="0" y="0" width="100" height="100" fill="white"/>
<g transform="translate(0,0)">
<svg width="100" height="100" x="0" y="0" viewBox="0 0 426.333 297.888"
font-family="sans-serif" stroke="rgb(0,0,0)" stroke-width="2"  stroke-linecap="round">
<line x1="142.8" y1="155.1" x2="180.8" y2="142.8" stroke="rgb(0,0,0)"  stroke-width="2.0"/>
<line x1="193.2" y1="104.7" x2="177.3" y2="82.9" stroke="rgb(0,0,0)"  stroke-width="2.0"/>
<line x1="233.2" y1="104.7" x2="256.7" y2="72.4" stroke="rgb(0,0,0)"  stroke-width="2.0"/>
<line x1="256.7" y1="72.4" x2="272.5" y2="50.5" stroke="rgb(0,0,0)"  stroke-width="2.0"/>
<line x1="253.3" y1="69.9" x2="269.2" y2="48.0" stroke="rgb(0,0,0)"  stroke-width="2.0"/>
<line x1="260.1" y1="74.8" x2="275.9" y2="53.0" stroke="rgb(0,0,0)"  stroke-width="2.0"/>
<line x1="245.5" y1="142.8" x2="283.6" y2="155.1" stroke="rgb(0,0,0)"  stroke-width="2.0"/>
<line x1="348.3" y1="155.1" x2="374.0" y2="146.8" stroke="rgb(0,0,0)"  stroke-width="2.0"/>
<line x1="335.9" y1="193.2" x2="351.8" y2="215.0" stroke="rgb(0,0,0)"  stroke-width="2.0"/>
<line x1="295.9" y1="193.2" x2="272.4" y2="225.5" stroke="rgb(0,0,0)"  stroke-width="2.0"/>
<line x1="272.4" y1="225.5" x2="256.5" y2="247.4" stroke="rgb(0,0,0)"  stroke-width="2.0"/>
<line x1="275.8" y1="228.0" x2="259.9" y2="249.8" stroke="rgb(0,0,0)"  stroke-width="2.0"/>
<line x1="269.0" y1="223.1" x2="253.2" y2="244.9" stroke="rgb(0,0,0)"  stroke-width="2.0"/>
<line x1="78.0" y1="155.1" x2="52.4" y2="146.8" stroke="rgb(0,0,0)"  stroke-width="2.0"/>
<line x1="114.3" y1="118.9" x2="121.3" y2="106.7" stroke="rgb(0,0,0)"  stroke-width="2.0"/>
<line x1="119.5" y1="121.9" x2="126.5" y2="109.7" stroke="rgb(0,0,0)"  stroke-width="2.0"/>
<line x1="101.3" y1="121.9" x2="94.3" y2="109.7" stroke="rgb(0,0,0)"  stroke-width="2.0"/>
<line x1="106.5" y1="118.9" x2="99.5" y2="106.7" stroke="rgb(0,0,0)"  stroke-width="2.0"/>
<line x1="233.2" y1="104.7" x2="245.5" y2="142.8" stroke="rgb(0,0,0)"  stroke-width="2.0"/>
<line x1="228.2" y1="112.7" x2="236.8" y2="139.3" stroke="rgb(0,0,0)"  stroke-width="2.0"/>
<line x1="245.5" y1="142.8" x2="223.7" y2="158.6" stroke="rgb(0,0,0)"  stroke-width="2.0"/>
<line x1="202.6" y1="158.6" x2="180.8" y2="142.8" stroke="rgb(0,0,0)"  stroke-width="2.0"/>
<line x1="180.8" y1="142.8" x2="193.2" y2="104.7" stroke="rgb(0,0,0)"  stroke-width="2.0"/>
<line x1="189.5" y1="139.3" x2="198.2" y2="112.7" stroke="rgb(0,0,0)"  stroke-width="2.0"/>
<line x1="193.2" y1="104.7" x2="233.2" y2="104.7" stroke="rgb(0,0,0)"  stroke-width="2.0"/>
<line x1="348.3" y1="155.1" x2="335.9" y2="193.2" stroke="rgb(0,0,0)"  stroke-width="2.0"/>
<line x1="339.6" y1="158.6" x2="330.9" y2="185.2" stroke="rgb(0,0,0)"  stroke-width="2.0"/>
<line x1="335.9" y1="193.2" x2="295.9" y2="193.2" stroke="rgb(0,0,0)"  stroke-width="2.0"/>
<line x1="295.9" y1="193.2" x2="283.6" y2="155.1" stroke="rgb(0,0,0)"  stroke-width="2.0"/>
<line x1="300.9" y1="185.2" x2="292.3" y2="158.6" stroke="rgb(0,0,0)"  stroke-width="2.0"/>
<line x1="283.6" y1="155.1" x2="305.4" y2="139.3" stroke="rgb(0,0,0)"  stroke-width="2.0"/>
<line x1="326.4" y1="139.3" x2="348.3" y2="155.1" stroke="rgb(0,0,0)"  stroke-width="2.0"/>
<line x1="90.4" y1="193.2" x2="78.0" y2="155.1" stroke="rgb(0,0,0)"  stroke-width="2.0"/>
<line x1="95.4" y1="185.2" x2="86.7" y2="158.6" stroke="rgb(0,0,0)"  stroke-width="2.0"/>
<line x1="78.0" y1="155.1" x2="99.9" y2="139.3" stroke="rgb(0,0,0)"  stroke-width="2.0"/>
<line x1="120.9" y1="139.3" x2="142.8" y2="155.1" stroke="rgb(0,0,0)"  stroke-width="2.0"/>
<line x1="142.8" y1="155.1" x2="130.4" y2="193.2" stroke="rgb(0,0,0)"  stroke-width="2.0"/>
<line x1="134.1" y1="158.6" x2="125.4" y2="185.2" stroke="rgb(0,0,0)"  stroke-width="2.0"/>
<line x1="130.4" y1="193.2" x2="90.4" y2="193.2" stroke="rgb(0,0,0)"  stroke-width="2.0"/>
<text x="380.333121" y="150.763620" fill="rgb(191,191,191)"  stroke="rgb(191,191,191)" stroke-width="1" font-size="16" >H</text>
<text x="84.402940" y="104.971874" fill="rgb(255,12,12)"  stroke="rgb(255,12,12)" stroke-width="1" font-size="16" >O</text>
<text x="124.402940" y="104.971874" fill="rgb(255,12,12)"  stroke="rgb(255,12,12)" stroke-width="1" font-size="16" >O</text>
<text x="104.402940" y="139.612890" fill="rgb(178,178,0)"  stroke="rgb(178,178,0)" stroke-width="1" font-size="16" >S</text>
<text x="34.000000" y="150.763620" fill="rgb(191,191,191)"  stroke="rgb(191,191,191)" stroke-width="1" font-size="16" >H</text>
<text x="242.907361" y="265.887920" fill="rgb(12,12,255)"  stroke="rgb(12,12,255)" stroke-width="1" font-size="16" >N</text>
<text x="353.441591" y="233.527240" fill="rgb(127,178,255)"  stroke="rgb(127,178,255)" stroke-width="1" font-size="16" >F</text>
<text x="309.930181" y="139.612890" fill="rgb(178,178,0)"  stroke="rgb(178,178,0)" stroke-width="1" font-size="16" >S</text>
<text x="207.166561" y="174.275030" fill="rgb(178,178,0)"  stroke="rgb(178,178,0)" stroke-width="1" font-size="16" >S</text>
<text x="274.189381" y="48.000000" fill="rgb(12,12,255)"  stroke="rgb(12,12,255)" stroke-width="1" font-size="16" >N</text>
<text x="163.655151" y="80.360680" fill="rgb(127,178,255)"  stroke="rgb(127,178,255)" stroke-width="1" font-size="16" >F</text>
</svg>
</g>
<text font-size="18.000000" fill ="black" font-family="sans-serif"
x="10.000000" y="20.000000" ></text>
</svg>
