<?xml version="1.0"?>
<svg version="1.1" id="topsvg"
xmlns="http://www.w3.org/2000/svg" xmlns:xlink="http://www.w3.org/1999/xlink"
xmlns:cml="http://www.xml-cml.org/schema" x="0" y="0" width="200px" height="200px" viewBox="0 0 100 100">
<title> - Open Babel Depiction</title>
<rect x="0" y="0" width="100" height="100" fill="white"/>
<g transform="translate(0,0)">
<svg width="100" height="100" x="0" y="0" viewBox="0 0 338.133 360.781"
font-family="sans-serif" stroke="rgb(0,0,0)" stroke-width="2"  stroke-linecap="round">
<line x1="190.8" y1="129.3" x2="153.1" y2="121.3" stroke="rgb(0,0,0)"  stroke-width="2.0"/>
<line x1="103.5" y1="76.6" x2="95.6" y2="52.4" stroke="rgb(0,0,0)"  stroke-width="2.0"/>
<line x1="77.7" y1="105.3" x2="52.7" y2="100.0" stroke="rgb(0,0,0)"  stroke-width="2.0"/>
<line x1="127.3" y1="149.9" x2="135.2" y2="174.2" stroke="rgb(0,0,0)"  stroke-width="2.0"/>
<line x1="199.7" y1="205.0" x2="176.3" y2="215.3" stroke="rgb(0,0,0)"  stroke-width="2.0"/>
<line x1="197.2" y1="199.5" x2="173.9" y2="209.9" stroke="rgb(0,0,0)"  stroke-width="2.0"/>
<line x1="233.2" y1="234.4" x2="235.8" y2="259.8" stroke="rgb(0,0,0)"  stroke-width="2.0"/>
<line x1="237.1" y1="257.1" x2="260.4" y2="267.5" stroke="rgb(0,0,0)"  stroke-width="2.0"/>
<line x1="234.6" y1="262.5" x2="257.9" y2="272.9" stroke="rgb(0,0,0)"  stroke-width="2.0"/>
<line x1="235.8" y1="259.8" x2="215.2" y2="274.8" stroke="rgb(0,0,0)"  stroke-width="2.0"/>
<line x1="206.0" y1="295.4" x2="207.3" y2="307.9" stroke="rgb(0,0,0)"  stroke-width="2.0"/>
<line x1="260.4" y1="195.7" x2="285.4" y2="201.0" stroke="rgb(0,0,0)"  stroke-width="2.0"/>
<line x1="251.6" y1="120.1" x2="274.9" y2="109.7" stroke="rgb(0,0,0)"  stroke-width="2.0"/>
<line x1="254.0" y1="125.5" x2="277.3" y2="115.2" stroke="rgb(0,0,0)"  stroke-width="2.0"/>
<line x1="223.9" y1="115.7" x2="247.9" y2="181.0" stroke="rgb(0,0,0)"  stroke-width="2.0"/>
<line x1="245.3" y1="179.5" x2="258.0" y2="157.3" stroke="rgb(0,0,0)"  stroke-width="2.0"/>
<line x1="250.5" y1="182.5" x2="263.2" y2="160.3" stroke="rgb(0,0,0)"  stroke-width="2.0"/>
<line x1="247.9" y1="181.0" x2="222.3" y2="181.0" stroke="rgb(0,0,0)"  stroke-width="2.0"/>
<line x1="202.8" y1="169.7" x2="196.6" y2="158.8" stroke="rgb(0,0,0)"  stroke-width="2.0"/>
<line x1="198.4" y1="202.2" x2="220.5" y2="215.0" stroke="rgb(0,0,0)"  stroke-width="2.0"/>
<line x1="241.5" y1="212.8" x2="260.4" y2="195.7" stroke="rgb(0,0,0)"  stroke-width="2.0"/>
<line x1="260.4" y1="195.7" x2="244.8" y2="160.5" stroke="rgb(0,0,0)"  stroke-width="2.0"/>
<line x1="251.4" y1="193.1" x2="240.6" y2="168.9" stroke="rgb(0,0,0)"  stroke-width="2.0"/>
<line x1="244.8" y1="160.5" x2="206.4" y2="164.5" stroke="rgb(0,0,0)"  stroke-width="2.0"/>
<line x1="206.4" y1="164.5" x2="198.4" y2="202.2" stroke="rgb(0,0,0)"  stroke-width="2.0"/>
<line x1="244.8" y1="160.5" x2="252.8" y2="122.8" stroke="rgb(0,0,0)"  stroke-width="2.0"/>
<line x1="252.8" y1="122.8" x2="230.7" y2="110.0" stroke="rgb(0,0,0)"  stroke-width="2.0"/>
<line x1="209.7" y1="112.2" x2="190.8" y2="129.3" stroke="rgb(0,0,0)"  stroke-width="2.0"/>
<line x1="190.8" y1="129.3" x2="206.4" y2="164.5" stroke="rgb(0,0,0)"  stroke-width="2.0"/>
<line x1="199.8" y1="131.9" x2="210.6" y2="156.1" stroke="rgb(0,0,0)"  stroke-width="2.0"/>
<line x1="103.5" y1="76.6" x2="77.7" y2="105.3" stroke="rgb(0,0,0)"  stroke-width="2.0"/>
<line x1="104.8" y1="85.9" x2="87.1" y2="105.6" stroke="rgb(0,0,0)"  stroke-width="2.0"/>
<line x1="77.7" y1="105.3" x2="89.6" y2="141.9" stroke="rgb(0,0,0)"  stroke-width="2.0"/>
<line x1="89.6" y1="141.9" x2="127.3" y2="149.9" stroke="rgb(0,0,0)"  stroke-width="2.0"/>
<line x1="97.0" y1="136.1" x2="122.9" y2="141.7" stroke="rgb(0,0,0)"  stroke-width="2.0"/>
<line x1="127.3" y1="149.9" x2="153.1" y2="121.3" stroke="rgb(0,0,0)"  stroke-width="2.0"/>
<line x1="153.1" y1="121.3" x2="141.2" y2="84.7" stroke="rgb(0,0,0)"  stroke-width="2.0"/>
<line x1="144.4" y1="117.8" x2="136.2" y2="92.6" stroke="rgb(0,0,0)"  stroke-width="2.0"/>
<line x1="141.2" y1="84.7" x2="103.5" y2="76.6" stroke="rgb(0,0,0)"  stroke-width="2.0"/>
<text x="164.075505" y="155.590837" fill="rgb(102,102,102)"  stroke="rgb(102,102,102)" stroke-width="1" font-size="16" >H</text>
<text x="176.075505" y="159.270837" fill="rgb(102,102,102)"  stroke="rgb(102,102,102)" stroke-width="1" font-size="13" >3</text>
<text x="182.575505" y="155.590837" fill="rgb(102,102,102)"  stroke="rgb(102,102,102)" stroke-width="1" font-size="16" >C</text>
<text x="203.342830" y="188.962823" fill="rgb(255,12,12)"  stroke="rgb(255,12,12)" stroke-width="1" font-size="16" >O</text>
<text x="261.144804" y="155.590837" fill="rgb(255,12,12)"  stroke="rgb(255,12,12)" stroke-width="1" font-size="16" >O</text>
<text x="213.407127" y="111.536155" fill="rgb(12,12,255)"  stroke="rgb(12,12,255)" stroke-width="1" font-size="16" >N</text>
<text x="281.982268" y="115.130025" fill="rgb(255,12,12)"  stroke="rgb(255,12,12)" stroke-width="1" font-size="16" >O</text>
<text x="292.133339" y="211.711014" fill="rgb(191,191,191)"  stroke="rgb(191,191,191)" stroke-width="1" font-size="16" >H</text>
<text x="204.684686" y="328.781128" fill="rgb(102,102,102)"  stroke="rgb(102,102,102)" stroke-width="1" font-size="16" >CH</text>
<text x="228.684686" y="332.461128" fill="rgb(102,102,102)"  stroke="rgb(102,102,102)" stroke-width="1" font-size="13" >3</text>
<text x="198.656718" y="290.457575" fill="rgb(255,12,12)"  stroke="rgb(255,12,12)" stroke-width="1" font-size="16" >O</text>
<text x="265.035060" y="283.480930" fill="rgb(255,12,12)"  stroke="rgb(255,12,12)" stroke-width="1" font-size="16" >O</text>
<text x="225.803937" y="229.483923" fill="rgb(12,12,255)"  stroke="rgb(12,12,255)" stroke-width="1" font-size="16" >N</text>
<text x="157.228797" y="225.890052" fill="rgb(255,12,12)"  stroke="rgb(255,12,12)" stroke-width="1" font-size="16" >O</text>
<text x="133.200874" y="194.594520" fill="rgb(191,191,191)"  stroke="rgb(191,191,191)" stroke-width="1" font-size="16" >H</text>
<text x="34.000000" y="105.273651" fill="rgb(191,191,191)"  stroke="rgb(191,191,191)" stroke-width="1" font-size="16" >H</text>
<text x="85.569427" y="48.000000" fill="rgb(191,191,191)"  stroke="rgb(191,191,191)" stroke-width="1" font-size="16" >H</text>
</svg>
</g>
<text font-size="18.000000" fill ="black" font-family="sans-serif"
x="10.000000" y="20.000000" ></text>
</svg>
