<?xml version="1.0"?>
<svg version="1.1" id="topsvg"
xmlns="http://www.w3.org/2000/svg" xmlns:xlink="http://www.w3.org/1999/xlink"
xmlns:cml="http://www.xml-cml.org/schema" x="0" y="0" width="200px" height="200px" viewBox="0 0 100 100">
<title> - Open Babel Depiction</title>
<rect x="0" y="0" width="100" height="100" fill="white"/>
<g transform="translate(0,0)">
<svg width="100" height="100" x="0" y="0" viewBox="0 0 410.626 432.788"
font-family="sans-serif" stroke="rgb(0,0,0)" stroke-width="2"  stroke-linecap="round">
<line x1="175.9" y1="152.6" x2="155.9" y2="187.3" stroke="rgb(0,0,0)"  stroke-width="2.0"/>
<line x1="78.0" y1="257.3" x2="52.4" y2="265.7" stroke="rgb(0,0,0)"  stroke-width="2.0"/>
<line x1="78.0" y1="257.3" x2="58.0" y2="239.3" stroke="rgb(0,0,0)"  stroke-width="2.0"/>
<line x1="120.6" y1="353.0" x2="123.5" y2="379.9" stroke="rgb(0,0,0)"  stroke-width="2.0"/>
<line x1="253.3" y1="168.1" x2="256.1" y2="195.0" stroke="rgb(0,0,0)"  stroke-width="2.0"/>
<line x1="247.3" y1="168.8" x2="250.1" y2="195.6" stroke="rgb(0,0,0)"  stroke-width="2.0"/>
<line x1="292.7" y1="144.4" x2="319.1" y2="150.0" stroke="rgb(0,0,0)"  stroke-width="2.0"/>
<line x1="316.9" y1="148.0" x2="335.0" y2="127.9" stroke="rgb(0,0,0)"  stroke-width="2.0"/>
<line x1="321.4" y1="152.0" x2="339.4" y2="131.9" stroke="rgb(0,0,0)"  stroke-width="2.0"/>
<line x1="319.1" y1="150.0" x2="327.5" y2="175.7" stroke="rgb(0,0,0)"  stroke-width="2.0"/>
<line x1="344.2" y1="190.7" x2="357.9" y2="193.7" stroke="rgb(0,0,0)"  stroke-width="2.0"/>
<line x1="263.7" y1="105.1" x2="277.2" y2="81.8" stroke="rgb(0,0,0)"  stroke-width="2.0"/>
<line x1="186.3" y1="89.6" x2="183.5" y2="62.8" stroke="rgb(0,0,0)"  stroke-width="2.0"/>
<line x1="192.3" y1="89.0" x2="189.5" y2="62.2" stroke="rgb(0,0,0)"  stroke-width="2.0"/>
<line x1="146.9" y1="113.4" x2="120.5" y2="107.8" stroke="rgb(0,0,0)"  stroke-width="2.0"/>
<line x1="122.7" y1="109.8" x2="104.6" y2="129.8" stroke="rgb(0,0,0)"  stroke-width="2.0"/>
<line x1="118.2" y1="105.8" x2="100.2" y2="125.8" stroke="rgb(0,0,0)"  stroke-width="2.0"/>
<line x1="120.5" y1="107.8" x2="112.1" y2="82.1" stroke="rgb(0,0,0)"  stroke-width="2.0"/>
<line x1="116.8" y1="60.1" x2="126.2" y2="49.7" stroke="rgb(0,0,0)"  stroke-width="2.0"/>
<line x1="107.8" y1="230.6" x2="142.4" y2="250.6" stroke="rgb(0,0,0)"  stroke-width="2.0"/>
<line x1="116.6" y1="227.3" x2="140.8" y2="241.3" stroke="rgb(0,0,0)"  stroke-width="2.0"/>
<line x1="142.4" y1="250.6" x2="162.5" y2="232.5" stroke="rgb(0,0,0)"  stroke-width="2.0"/>
<line x1="166.8" y1="211.9" x2="155.9" y2="187.3" stroke="rgb(0,0,0)"  stroke-width="2.0"/>
<line x1="155.9" y1="187.3" x2="116.1" y2="191.4" stroke="rgb(0,0,0)"  stroke-width="2.0"/>
<line x1="150.7" y1="195.1" x2="122.8" y2="198.0" stroke="rgb(0,0,0)"  stroke-width="2.0"/>
<line x1="116.1" y1="191.4" x2="107.8" y2="230.6" stroke="rgb(0,0,0)"  stroke-width="2.0"/>
<line x1="120.6" y1="353.0" x2="140.7" y2="334.9" stroke="rgb(0,0,0)"  stroke-width="2.0"/>
<line x1="145.1" y1="314.4" x2="134.1" y2="289.7" stroke="rgb(0,0,0)"  stroke-width="2.0"/>
<line x1="134.1" y1="289.7" x2="94.3" y2="293.9" stroke="rgb(0,0,0)"  stroke-width="2.0"/>
<line x1="128.9" y1="297.5" x2="101.0" y2="300.4" stroke="rgb(0,0,0)"  stroke-width="2.0"/>
<line x1="94.3" y1="293.9" x2="86.0" y2="333.0" stroke="rgb(0,0,0)"  stroke-width="2.0"/>
<line x1="86.0" y1="333.0" x2="120.6" y2="353.0" stroke="rgb(0,0,0)"  stroke-width="2.0"/>
<line x1="94.8" y1="329.8" x2="119.0" y2="343.8" stroke="rgb(0,0,0)"  stroke-width="2.0"/>
<line x1="250.3" y1="168.4" x2="270.4" y2="150.4" stroke="rgb(0,0,0)"  stroke-width="2.0"/>
<line x1="274.7" y1="129.8" x2="263.7" y2="105.1" stroke="rgb(0,0,0)"  stroke-width="2.0"/>
<line x1="263.7" y1="105.1" x2="224.0" y2="109.3" stroke="rgb(0,0,0)"  stroke-width="2.0"/>
<line x1="258.5" y1="112.9" x2="230.7" y2="115.9" stroke="rgb(0,0,0)"  stroke-width="2.0"/>
<line x1="224.0" y1="109.3" x2="215.6" y2="148.4" stroke="rgb(0,0,0)"  stroke-width="2.0"/>
<line x1="215.6" y1="148.4" x2="250.3" y2="168.4" stroke="rgb(0,0,0)"  stroke-width="2.0"/>
<line x1="224.0" y1="109.3" x2="189.3" y2="89.3" stroke="rgb(0,0,0)"  stroke-width="2.0"/>
<line x1="189.3" y1="89.3" x2="169.3" y2="107.4" stroke="rgb(0,0,0)"  stroke-width="2.0"/>
<line x1="164.9" y1="128.0" x2="175.9" y2="152.6" stroke="rgb(0,0,0)"  stroke-width="2.0"/>
<line x1="175.9" y1="152.6" x2="215.6" y2="148.4" stroke="rgb(0,0,0)"  stroke-width="2.0"/>
<line x1="181.1" y1="144.8" x2="208.9" y2="141.9" stroke="rgb(0,0,0)"  stroke-width="2.0"/>
<line x1="134.1" y1="289.7" x2="142.4" y2="250.6" stroke="rgb(0,0,0)"  stroke-width="2.0"/>
<line x1="107.8" y1="230.6" x2="78.0" y2="257.3" stroke="rgb(0,0,0)"  stroke-width="2.0"/>
<line x1="78.0" y1="257.3" x2="94.3" y2="293.9" stroke="rgb(0,0,0)"  stroke-width="2.0"/>
<text x="248.468428" y="216.226077" fill="rgb(255,12,12)"  stroke="rgb(255,12,12)" stroke-width="1" font-size="16" >O</text>
<text x="274.013082" y="149.679977" fill="rgb(12,12,255)"  stroke="rgb(12,12,255)" stroke-width="1" font-size="16" >N</text>
<text x="339.904210" y="128.270651" fill="rgb(255,12,12)"  stroke="rgb(255,12,12)" stroke-width="1" font-size="16" >O</text>
<text x="325.499666" y="196.038705" fill="rgb(255,12,12)"  stroke="rgb(255,12,12)" stroke-width="1" font-size="16" >O</text>
<text x="366.625570" y="204.355173" fill="rgb(102,102,102)"  stroke="rgb(102,102,102)" stroke-width="1" font-size="16" >CH</text>
<text x="390.625570" y="208.035173" fill="rgb(102,102,102)"  stroke="rgb(102,102,102)" stroke-width="1" font-size="13" >3</text>
<text x="277.743616" y="78.497142" fill="rgb(191,191,191)"  stroke="rgb(191,191,191)" stroke-width="1" font-size="16" >H</text>
<text x="179.140586" y="57.538421" fill="rgb(255,12,12)"  stroke="rgb(255,12,12)" stroke-width="1" font-size="16" >O</text>
<text x="153.595931" y="124.084521" fill="rgb(12,12,255)"  stroke="rgb(12,12,255)" stroke-width="1" font-size="16" >N</text>
<text x="87.704803" y="145.493847" fill="rgb(255,12,12)"  stroke="rgb(255,12,12)" stroke-width="1" font-size="16" >O</text>
<text x="102.109348" y="77.725793" fill="rgb(255,12,12)"  stroke="rgb(255,12,12)" stroke-width="1" font-size="16" >O</text>
<text x="130.874572" y="48.000000" fill="rgb(102,102,102)"  stroke="rgb(102,102,102)" stroke-width="1" font-size="16" >CH</text>
<text x="154.874572" y="51.680000" fill="rgb(102,102,102)"  stroke="rgb(102,102,102)" stroke-width="1" font-size="13" >3</text>
<text x="144.362068" y="334.242121" fill="rgb(178,178,0)"  stroke="rgb(178,178,0)" stroke-width="1" font-size="16" >S</text>
<text x="118.817413" y="400.788221" fill="rgb(191,191,191)"  stroke="rgb(191,191,191)" stroke-width="1" font-size="16" >H</text>
<text x="22.316468" y="238.574398" fill="rgb(102,102,102)"  stroke="rgb(102,102,102)" stroke-width="1" font-size="16" >H</text>
<text x="34.316468" y="242.254398" fill="rgb(102,102,102)"  stroke="rgb(102,102,102)" stroke-width="1" font-size="13" >3</text>
<text x="40.816468" y="238.574398" fill="rgb(102,102,102)"  stroke="rgb(102,102,102)" stroke-width="1" font-size="16" >C</text>
<text x="14.000000" y="277.700302" fill="rgb(102,102,102)"  stroke="rgb(102,102,102)" stroke-width="1" font-size="16" >H</text>
<text x="26.000000" y="281.380302" fill="rgb(102,102,102)"  stroke="rgb(102,102,102)" stroke-width="1" font-size="13" >3</text>
<text x="32.500000" y="277.700302" fill="rgb(102,102,102)"  stroke="rgb(102,102,102)" stroke-width="1" font-size="16" >C</text>
<text x="166.134863" y="231.809174" fill="rgb(178,178,0)"  stroke="rgb(178,178,0)" stroke-width="1" font-size="16" >S</text>
</svg>
</g>
<text font-size="18.000000" fill ="black" font-family="sans-serif"
x="10.000000" y="20.000000" ></text>
</svg>
