<?xml version="1.0"?>
<svg version="1.1" id="topsvg"
xmlns="http://www.w3.org/2000/svg" xmlns:xlink="http://www.w3.org/1999/xlink"
xmlns:cml="http://www.xml-cml.org/schema" x="0" y="0" width="200px" height="200px" viewBox="0 0 100 100">
<title> - Open Babel Depiction</title>
<rect x="0" y="0" width="100" height="100" fill="white"/>
<g transform="translate(0,0)">
<svg width="100" height="100" x="0" y="0" viewBox="0 0 607.718 472.353"
font-family="sans-serif" stroke="rgb(0,0,0)" stroke-width="2"  stroke-linecap="round">
<line x1="329.8" y1="262.7" x2="367.8" y2="275.0" stroke="rgb(0,0,0)"  stroke-width="2.0"/>
<line x1="423.9" y1="374.3" x2="410.4" y2="397.7" stroke="rgb(0,0,0)"  stroke-width="2.0"/>
<line x1="413.0" y1="396.2" x2="426.5" y2="419.6" stroke="rgb(0,0,0)"  stroke-width="2.0"/>
<line x1="407.8" y1="399.2" x2="421.3" y2="422.6" stroke="rgb(0,0,0)"  stroke-width="2.0"/>
<line x1="410.4" y1="397.7" x2="383.4" y2="397.7" stroke="rgb(0,0,0)"  stroke-width="2.0"/>
<line x1="363.9" y1="386.5" x2="356.9" y2="374.3" stroke="rgb(0,0,0)"  stroke-width="2.0"/>
<line x1="538.0" y1="373.3" x2="558.1" y2="391.4" stroke="rgb(0,0,0)"  stroke-width="2.0"/>
<line x1="198.3" y1="273.3" x2="171.9" y2="278.9" stroke="rgb(0,0,0)"  stroke-width="2.0"/>
<line x1="197.0" y1="267.4" x2="170.6" y2="273.0" stroke="rgb(0,0,0)"  stroke-width="2.0"/>
<line x1="226.0" y1="310.0" x2="223.2" y2="336.9" stroke="rgb(0,0,0)"  stroke-width="2.0"/>
<line x1="224.9" y1="334.4" x2="246.8" y2="350.3" stroke="rgb(0,0,0)"  stroke-width="2.0"/>
<line x1="221.4" y1="339.3" x2="243.3" y2="355.2" stroke="rgb(0,0,0)"  stroke-width="2.0"/>
<line x1="223.2" y1="336.9" x2="198.5" y2="347.8" stroke="rgb(0,0,0)"  stroke-width="2.0"/>
<line x1="185.3" y1="366.1" x2="183.8" y2="380.0" stroke="rgb(0,0,0)"  stroke-width="2.0"/>
<line x1="211.3" y1="235.3" x2="191.3" y2="200.6" stroke="rgb(0,0,0)"  stroke-width="2.0"/>
<line x1="216.5" y1="232.3" x2="196.5" y2="197.6" stroke="rgb(0,0,0)"  stroke-width="2.0"/>
<line x1="209.6" y1="159.7" x2="236.0" y2="154.0" stroke="rgb(0,0,0)"  stroke-width="2.0"/>
<line x1="210.8" y1="165.5" x2="237.2" y2="159.9" stroke="rgb(0,0,0)"  stroke-width="2.0"/>
<line x1="181.8" y1="122.9" x2="184.6" y2="96.1" stroke="rgb(0,0,0)"  stroke-width="2.0"/>
<line x1="182.9" y1="98.5" x2="161.0" y2="82.6" stroke="rgb(0,0,0)"  stroke-width="2.0"/>
<line x1="186.4" y1="93.6" x2="164.6" y2="77.8" stroke="rgb(0,0,0)"  stroke-width="2.0"/>
<line x1="184.6" y1="96.1" x2="209.3" y2="85.1" stroke="rgb(0,0,0)"  stroke-width="2.0"/>
<line x1="222.5" y1="66.9" x2="224.0" y2="52.9" stroke="rgb(0,0,0)"  stroke-width="2.0"/>
<line x1="78.0" y1="170.2" x2="52.4" y2="161.9" stroke="rgb(0,0,0)"  stroke-width="2.0"/>
<line x1="470.2" y1="358.9" x2="478.5" y2="319.8" stroke="rgb(0,0,0)"  stroke-width="2.0"/>
<line x1="478.5" y1="319.8" x2="443.9" y2="299.8" stroke="rgb(0,0,0)"  stroke-width="2.0"/>
<line x1="443.9" y1="299.8" x2="414.2" y2="326.5" stroke="rgb(0,0,0)"  stroke-width="2.0"/>
<line x1="444.3" y1="309.1" x2="423.5" y2="327.9" stroke="rgb(0,0,0)"  stroke-width="2.0"/>
<line x1="414.2" y1="326.5" x2="425.2" y2="351.2" stroke="rgb(0,0,0)"  stroke-width="2.0"/>
<line x1="443.4" y1="361.7" x2="470.2" y2="358.9" stroke="rgb(0,0,0)"  stroke-width="2.0"/>
<line x1="443.9" y1="299.8" x2="435.6" y2="260.6" stroke="rgb(0,0,0)"  stroke-width="2.0"/>
<line x1="435.6" y1="260.6" x2="397.5" y2="248.3" stroke="rgb(0,0,0)"  stroke-width="2.0"/>
<line x1="427.7" y1="265.6" x2="401.0" y2="257.0" stroke="rgb(0,0,0)"  stroke-width="2.0"/>
<line x1="397.5" y1="248.3" x2="367.8" y2="275.0" stroke="rgb(0,0,0)"  stroke-width="2.0"/>
<line x1="367.8" y1="275.0" x2="376.1" y2="314.2" stroke="rgb(0,0,0)"  stroke-width="2.0"/>
<line x1="376.1" y1="279.4" x2="381.9" y2="306.8" stroke="rgb(0,0,0)"  stroke-width="2.0"/>
<line x1="376.1" y1="314.2" x2="414.2" y2="326.5" stroke="rgb(0,0,0)"  stroke-width="2.0"/>
<line x1="500.0" y1="385.7" x2="470.2" y2="358.9" stroke="rgb(0,0,0)"  stroke-width="2.0"/>
<line x1="500.3" y1="376.3" x2="479.5" y2="357.6" stroke="rgb(0,0,0)"  stroke-width="2.0"/>
<line x1="478.5" y1="319.8" x2="516.6" y2="307.4" stroke="rgb(0,0,0)"  stroke-width="2.0"/>
<line x1="486.5" y1="324.8" x2="513.1" y2="316.1" stroke="rgb(0,0,0)"  stroke-width="2.0"/>
<line x1="516.6" y1="307.4" x2="546.3" y2="334.2" stroke="rgb(0,0,0)"  stroke-width="2.0"/>
<line x1="546.3" y1="334.2" x2="538.0" y2="373.3" stroke="rgb(0,0,0)"  stroke-width="2.0"/>
<line x1="538.0" y1="338.5" x2="532.2" y2="365.9" stroke="rgb(0,0,0)"  stroke-width="2.0"/>
<line x1="538.0" y1="373.3" x2="500.0" y2="385.7" stroke="rgb(0,0,0)"  stroke-width="2.0"/>
<line x1="283.4" y1="211.2" x2="253.7" y2="238.0" stroke="rgb(0,0,0)"  stroke-width="2.0"/>
<line x1="283.8" y1="220.6" x2="263.0" y2="239.3" stroke="rgb(0,0,0)"  stroke-width="2.0"/>
<line x1="253.7" y1="238.0" x2="262.0" y2="277.1" stroke="rgb(0,0,0)"  stroke-width="2.0"/>
<line x1="262.0" y1="277.1" x2="300.0" y2="289.4" stroke="rgb(0,0,0)"  stroke-width="2.0"/>
<line x1="269.9" y1="272.1" x2="296.6" y2="280.7" stroke="rgb(0,0,0)"  stroke-width="2.0"/>
<line x1="300.0" y1="289.4" x2="329.8" y2="262.7" stroke="rgb(0,0,0)"  stroke-width="2.0"/>
<line x1="329.8" y1="262.7" x2="321.5" y2="223.6" stroke="rgb(0,0,0)"  stroke-width="2.0"/>
<line x1="321.5" y1="258.3" x2="315.7" y2="230.9" stroke="rgb(0,0,0)"  stroke-width="2.0"/>
<line x1="321.5" y1="223.6" x2="283.4" y2="211.2" stroke="rgb(0,0,0)"  stroke-width="2.0"/>
<line x1="86.4" y1="209.4" x2="124.4" y2="221.7" stroke="rgb(0,0,0)"  stroke-width="2.0"/>
<line x1="124.4" y1="221.7" x2="154.1" y2="195.0" stroke="rgb(0,0,0)"  stroke-width="2.0"/>
<line x1="124.0" y1="212.4" x2="144.9" y2="193.6" stroke="rgb(0,0,0)"  stroke-width="2.0"/>
<line x1="154.1" y1="195.0" x2="145.8" y2="155.8" stroke="rgb(0,0,0)"  stroke-width="2.0"/>
<line x1="145.8" y1="155.8" x2="107.8" y2="143.5" stroke="rgb(0,0,0)"  stroke-width="2.0"/>
<line x1="137.9" y1="160.8" x2="111.2" y2="152.2" stroke="rgb(0,0,0)"  stroke-width="2.0"/>
<line x1="107.8" y1="143.5" x2="78.0" y2="170.2" stroke="rgb(0,0,0)"  stroke-width="2.0"/>
<line x1="78.0" y1="170.2" x2="86.4" y2="209.4" stroke="rgb(0,0,0)"  stroke-width="2.0"/>
<line x1="86.3" y1="174.6" x2="92.2" y2="202.0" stroke="rgb(0,0,0)"  stroke-width="2.0"/>
<line x1="197.6" y1="270.3" x2="217.7" y2="288.4" stroke="rgb(0,0,0)"  stroke-width="2.0"/>
<line x1="238.6" y1="290.6" x2="262.0" y2="277.1" stroke="rgb(0,0,0)"  stroke-width="2.0"/>
<line x1="253.7" y1="238.0" x2="213.9" y2="233.8" stroke="rgb(0,0,0)"  stroke-width="2.0"/>
<line x1="213.9" y1="233.8" x2="197.6" y2="270.3" stroke="rgb(0,0,0)"  stroke-width="2.0"/>
<line x1="169.2" y1="142.3" x2="145.8" y2="155.8" stroke="rgb(0,0,0)"  stroke-width="2.0"/>
<line x1="154.1" y1="195.0" x2="193.9" y2="199.1" stroke="rgb(0,0,0)"  stroke-width="2.0"/>
<line x1="193.9" y1="199.1" x2="210.2" y2="162.6" stroke="rgb(0,0,0)"  stroke-width="2.0"/>
<line x1="210.2" y1="162.6" x2="190.1" y2="144.5" stroke="rgb(0,0,0)"  stroke-width="2.0"/>
<text x="174.451330" y="143.831217" fill="rgb(12,12,255)"  stroke="rgb(12,12,255)" stroke-width="1" font-size="16" >N</text>
<text x="152.512288" y="286.637562" fill="rgb(255,12,12)"  stroke="rgb(255,12,12)" stroke-width="1" font-size="16" >O</text>
<text x="221.363985" y="305.086319" fill="rgb(12,12,255)"  stroke="rgb(12,12,255)" stroke-width="1" font-size="16" >N</text>
<text x="249.543526" y="368.378605" fill="rgb(255,12,12)"  stroke="rgb(255,12,12)" stroke-width="1" font-size="16" >O</text>
<text x="180.641028" y="361.136660" fill="rgb(255,12,12)"  stroke="rgb(255,12,12)" stroke-width="1" font-size="16" >O</text>
<text x="156.459890" y="400.917536" fill="rgb(102,102,102)"  stroke="rgb(102,102,102)" stroke-width="1" font-size="16" >H</text>
<text x="168.459890" y="404.597536" fill="rgb(102,102,102)"  stroke="rgb(102,102,102)" stroke-width="1" font-size="13" >3</text>
<text x="174.959890" y="400.917536" fill="rgb(102,102,102)"  stroke="rgb(102,102,102)" stroke-width="1" font-size="16" >C</text>
<text x="243.303028" y="162.279974" fill="rgb(255,12,12)"  stroke="rgb(255,12,12)" stroke-width="1" font-size="16" >O</text>
<text x="146.271789" y="80.538931" fill="rgb(255,12,12)"  stroke="rgb(255,12,12)" stroke-width="1" font-size="16" >O</text>
<text x="215.174287" y="87.780876" fill="rgb(255,12,12)"  stroke="rgb(255,12,12)" stroke-width="1" font-size="16" >O</text>
<text x="221.355426" y="48.000000" fill="rgb(102,102,102)"  stroke="rgb(102,102,102)" stroke-width="1" font-size="16" >CH</text>
<text x="245.355426" y="51.680000" fill="rgb(102,102,102)"  stroke="rgb(102,102,102)" stroke-width="1" font-size="13" >3</text>
<text x="34.000000" y="165.875082" fill="rgb(191,191,191)"  stroke="rgb(191,191,191)" stroke-width="1" font-size="16" >H</text>
<text x="561.718232" y="408.059486" fill="rgb(191,191,191)"  stroke="rgb(191,191,191)" stroke-width="1" font-size="16" >H</text>
<text x="424.443510" y="371.070856" fill="rgb(12,12,255)"  stroke="rgb(12,12,255)" stroke-width="1" font-size="16" >N</text>
<text x="424.443510" y="440.352888" fill="rgb(255,12,12)"  stroke="rgb(255,12,12)" stroke-width="1" font-size="16" >O</text>
<text x="364.443510" y="405.711872" fill="rgb(255,12,12)"  stroke="rgb(255,12,12)" stroke-width="1" font-size="16" >O</text>
<text x="324.443510" y="371.070856" fill="rgb(102,102,102)"  stroke="rgb(102,102,102)" stroke-width="1" font-size="16" >H</text>
<text x="336.443510" y="374.750856" fill="rgb(102,102,102)"  stroke="rgb(102,102,102)" stroke-width="1" font-size="13" >3</text>
<text x="342.943510" y="371.070856" fill="rgb(102,102,102)"  stroke="rgb(102,102,102)" stroke-width="1" font-size="16" >C</text>
</svg>
</g>
<text font-size="18.000000" fill ="black" font-family="sans-serif"
x="10.000000" y="20.000000" ></text>
</svg>
