<?xml version="1.0"?>
<svg version="1.1" id="topsvg"
xmlns="http://www.w3.org/2000/svg" xmlns:xlink="http://www.w3.org/1999/xlink"
xmlns:cml="http://www.xml-cml.org/schema" x="0" y="0" width="200px" height="200px" viewBox="0 0 100 100">
<title> - Open Babel Depiction</title>
<rect x="0" y="0" width="100" height="100" fill="white"/>
<g transform="translate(0,0)">
<svg width="100" height="100" x="0" y="0" viewBox="0 0 498.864 341.763"
font-family="sans-serif" stroke="rgb(0,0,0)" stroke-width="2"  stroke-linecap="round">
<line x1="186.5" y1="140.0" x2="226.5" y2="140.0" stroke="rgb(0,0,0)"  stroke-width="2.0"/>
<line x1="250.0" y1="107.6" x2="241.6" y2="82.0" stroke="rgb(0,0,0)"  stroke-width="2.0"/>
<line x1="322.7" y1="100.0" x2="322.7" y2="73.0" stroke="rgb(0,0,0)"  stroke-width="2.0"/>
<line x1="333.9" y1="53.5" x2="346.1" y2="46.5" stroke="rgb(0,0,0)"  stroke-width="2.0"/>
<line x1="418.9" y1="140.0" x2="445.9" y2="140.0" stroke="rgb(0,0,0)"  stroke-width="2.0"/>
<line x1="395.4" y1="172.4" x2="403.7" y2="198.0" stroke="rgb(0,0,0)"  stroke-width="2.0"/>
<line x1="322.7" y1="180.0" x2="322.7" y2="207.0" stroke="rgb(0,0,0)"  stroke-width="2.0"/>
<line x1="333.9" y1="226.5" x2="346.1" y2="233.5" stroke="rgb(0,0,0)"  stroke-width="2.0"/>
<line x1="172.2" y1="208.6" x2="197.9" y2="217.0" stroke="rgb(0,0,0)"  stroke-width="2.0"/>
<line x1="170.4" y1="214.3" x2="196.0" y2="222.7" stroke="rgb(0,0,0)"  stroke-width="2.0"/>
<line x1="141.6" y1="278.3" x2="163.4" y2="294.1" stroke="rgb(0,0,0)"  stroke-width="2.0"/>
<line x1="80.0" y1="258.3" x2="53.0" y2="258.3" stroke="rgb(0,0,0)"  stroke-width="2.0"/>
<line x1="94.3" y1="189.6" x2="68.6" y2="181.3" stroke="rgb(0,0,0)"  stroke-width="2.0"/>
<line x1="96.1" y1="183.9" x2="70.4" y2="175.6" stroke="rgb(0,0,0)"  stroke-width="2.0"/>
<line x1="124.9" y1="120.0" x2="103.1" y2="104.1" stroke="rgb(0,0,0)"  stroke-width="2.0"/>
<line x1="288.0" y1="120.0" x2="288.0" y2="160.0" stroke="rgb(0,0,0)"  stroke-width="2.0"/>
<line x1="288.0" y1="160.0" x2="262.3" y2="168.3" stroke="rgb(0,0,0)"  stroke-width="2.0"/>
<line x1="242.3" y1="161.8" x2="226.5" y2="140.0" stroke="rgb(0,0,0)"  stroke-width="2.0"/>
<line x1="226.5" y1="140.0" x2="250.0" y2="107.6" stroke="rgb(0,0,0)"  stroke-width="2.0"/>
<line x1="235.8" y1="139.4" x2="252.3" y2="116.7" stroke="rgb(0,0,0)"  stroke-width="2.0"/>
<line x1="250.0" y1="107.6" x2="288.0" y2="120.0" stroke="rgb(0,0,0)"  stroke-width="2.0"/>
<line x1="418.9" y1="140.0" x2="395.4" y2="172.4" stroke="rgb(0,0,0)"  stroke-width="2.0"/>
<line x1="409.5" y1="140.6" x2="393.1" y2="163.3" stroke="rgb(0,0,0)"  stroke-width="2.0"/>
<line x1="395.4" y1="172.4" x2="357.3" y2="160.0" stroke="rgb(0,0,0)"  stroke-width="2.0"/>
<line x1="357.3" y1="160.0" x2="357.3" y2="120.0" stroke="rgb(0,0,0)"  stroke-width="2.0"/>
<line x1="364.5" y1="154.0" x2="364.5" y2="126.0" stroke="rgb(0,0,0)"  stroke-width="2.0"/>
<line x1="357.3" y1="120.0" x2="383.0" y2="111.7" stroke="rgb(0,0,0)"  stroke-width="2.0"/>
<line x1="403.0" y1="118.2" x2="418.9" y2="140.0" stroke="rgb(0,0,0)"  stroke-width="2.0"/>
<line x1="95.9" y1="280.1" x2="80.0" y2="258.3" stroke="rgb(0,0,0)"  stroke-width="2.0"/>
<line x1="80.0" y1="258.3" x2="103.5" y2="225.9" stroke="rgb(0,0,0)"  stroke-width="2.0"/>
<line x1="89.4" y1="257.6" x2="105.8" y2="235.0" stroke="rgb(0,0,0)"  stroke-width="2.0"/>
<line x1="103.5" y1="225.9" x2="141.6" y2="238.3" stroke="rgb(0,0,0)"  stroke-width="2.0"/>
<line x1="141.6" y1="238.3" x2="141.6" y2="278.3" stroke="rgb(0,0,0)"  stroke-width="2.0"/>
<line x1="134.4" y1="244.3" x2="134.4" y2="272.3" stroke="rgb(0,0,0)"  stroke-width="2.0"/>
<line x1="141.6" y1="278.3" x2="115.9" y2="286.6" stroke="rgb(0,0,0)"  stroke-width="2.0"/>
<line x1="124.9" y1="160.0" x2="124.9" y2="120.0" stroke="rgb(0,0,0)"  stroke-width="2.0"/>
<line x1="132.1" y1="154.0" x2="132.1" y2="126.0" stroke="rgb(0,0,0)"  stroke-width="2.0"/>
<line x1="124.9" y1="120.0" x2="150.6" y2="111.7" stroke="rgb(0,0,0)"  stroke-width="2.0"/>
<line x1="170.6" y1="118.2" x2="186.5" y2="140.0" stroke="rgb(0,0,0)"  stroke-width="2.0"/>
<line x1="186.5" y1="140.0" x2="163.0" y2="172.4" stroke="rgb(0,0,0)"  stroke-width="2.0"/>
<line x1="177.1" y1="140.6" x2="160.7" y2="163.3" stroke="rgb(0,0,0)"  stroke-width="2.0"/>
<line x1="163.0" y1="172.4" x2="124.9" y2="160.0" stroke="rgb(0,0,0)"  stroke-width="2.0"/>
<line x1="357.3" y1="160.0" x2="322.7" y2="180.0" stroke="rgb(0,0,0)"  stroke-width="2.0"/>
<line x1="322.7" y1="180.0" x2="288.0" y2="160.0" stroke="rgb(0,0,0)"  stroke-width="2.0"/>
<line x1="321.1" y1="170.8" x2="296.8" y2="156.8" stroke="rgb(0,0,0)"  stroke-width="2.0"/>
<line x1="288.0" y1="120.0" x2="322.7" y2="100.0" stroke="rgb(0,0,0)"  stroke-width="2.0"/>
<line x1="296.8" y1="123.2" x2="321.1" y2="109.2" stroke="rgb(0,0,0)"  stroke-width="2.0"/>
<line x1="322.7" y1="100.0" x2="357.3" y2="120.0" stroke="rgb(0,0,0)"  stroke-width="2.0"/>
<line x1="171.3" y1="211.5" x2="141.6" y2="238.3" stroke="rgb(0,0,0)"  stroke-width="2.0"/>
<line x1="103.5" y1="225.9" x2="95.2" y2="186.8" stroke="rgb(0,0,0)"  stroke-width="2.0"/>
<line x1="95.2" y1="186.8" x2="124.9" y2="160.0" stroke="rgb(0,0,0)"  stroke-width="2.0"/>
<line x1="163.0" y1="172.4" x2="171.3" y2="211.5" stroke="rgb(0,0,0)"  stroke-width="2.0"/>
<text x="243.985816" y="180.360680" fill="rgb(178,178,0)"  stroke="rgb(178,178,0)" stroke-width="1" font-size="16" >S</text>
<text x="203.321724" y="231.847264" fill="rgb(255,12,12)"  stroke="rgb(255,12,12)" stroke-width="1" font-size="16" >O</text>
<text x="167.914351" y="309.763218" fill="rgb(191,191,191)"  stroke="rgb(191,191,191)" stroke-width="1" font-size="16" >H</text>
<text x="97.511410" y="298.612488" fill="rgb(178,178,0)"  stroke="rgb(178,178,0)" stroke-width="1" font-size="16" >S</text>
<text x="34.000000" y="266.251808" fill="rgb(191,191,191)"  stroke="rgb(191,191,191)" stroke-width="1" font-size="16" >H</text>
<text x="51.152682" y="182.404544" fill="rgb(255,12,12)"  stroke="rgb(255,12,12)" stroke-width="1" font-size="16" >O</text>
<text x="86.560056" y="104.488590" fill="rgb(191,191,191)"  stroke="rgb(191,191,191)" stroke-width="1" font-size="16" >H</text>
<text x="156.962996" y="115.639320" fill="rgb(178,178,0)"  stroke="rgb(178,178,0)" stroke-width="1" font-size="16" >S</text>
<text x="389.352370" y="115.639320" fill="rgb(178,178,0)"  stroke="rgb(178,178,0)" stroke-width="1" font-size="16" >S</text>
<text x="231.625137" y="77.597060" fill="rgb(191,191,191)"  stroke="rgb(191,191,191)" stroke-width="1" font-size="16" >H</text>
<text x="316.669093" y="68.000000" fill="rgb(255,12,12)"  stroke="rgb(255,12,12)" stroke-width="1" font-size="16" >O</text>
<text x="353.310109" y="48.000000" fill="rgb(102,102,102)"  stroke="rgb(102,102,102)" stroke-width="1" font-size="16" >CH</text>
<text x="377.310109" y="51.680000" fill="rgb(102,102,102)"  stroke="rgb(102,102,102)" stroke-width="1" font-size="13" >3</text>
<text x="452.863780" y="148.000000" fill="rgb(191,191,191)"  stroke="rgb(191,191,191)" stroke-width="1" font-size="16" >H</text>
<text x="401.713050" y="218.402940" fill="rgb(191,191,191)"  stroke="rgb(191,191,191)" stroke-width="1" font-size="16" >H</text>
<text x="316.669093" y="228.000000" fill="rgb(255,12,12)"  stroke="rgb(255,12,12)" stroke-width="1" font-size="16" >O</text>
<text x="353.310109" y="248.000000" fill="rgb(102,102,102)"  stroke="rgb(102,102,102)" stroke-width="1" font-size="16" >CH</text>
<text x="377.310109" y="251.680000" fill="rgb(102,102,102)"  stroke="rgb(102,102,102)" stroke-width="1" font-size="13" >3</text>
</svg>
</g>
<text font-size="18.000000" fill ="black" font-family="sans-serif"
x="10.000000" y="20.000000" ></text>
</svg>
