<?xml version="1.0"?>
<svg version="1.1" id="topsvg"
xmlns="http://www.w3.org/2000/svg" xmlns:xlink="http://www.w3.org/1999/xlink"
xmlns:cml="http://www.xml-cml.org/schema" x="0" y="0" width="200px" height="200px" viewBox="0 0 100 100">
<title> - Open Babel Depiction</title>
<rect x="0" y="0" width="100" height="100" fill="white"/>
<g transform="translate(0,0)">
<svg width="100" height="100" x="0" y="0" viewBox="0 0 658.11 269.278"
font-family="sans-serif" stroke="rgb(0,0,0)" stroke-width="2"  stroke-linecap="round">
<line x1="343.4" y1="111.7" x2="382.5" y2="103.4" stroke="rgb(0,0,0)"  stroke-width="2.0"/>
<line x1="480.7" y1="148.3" x2="494.2" y2="171.7" stroke="rgb(0,0,0)"  stroke-width="2.0"/>
<line x1="480.7" y1="148.3" x2="467.2" y2="171.7" stroke="rgb(0,0,0)"  stroke-width="2.0"/>
<line x1="579.0" y1="103.4" x2="605.4" y2="109.0" stroke="rgb(0,0,0)"  stroke-width="2.0"/>
<line x1="234.7" y1="186.6" x2="214.7" y2="204.7" stroke="rgb(0,0,0)"  stroke-width="2.0"/>
<line x1="230.7" y1="182.2" x2="210.7" y2="200.3" stroke="rgb(0,0,0)"  stroke-width="2.0"/>
<line x1="277.2" y1="204.6" x2="282.8" y2="217.4" stroke="rgb(0,0,0)"  stroke-width="2.0"/>
<line x1="227.1" y1="147.2" x2="192.4" y2="127.2" stroke="rgb(0,0,0)"  stroke-width="2.0"/>
<line x1="230.1" y1="142.0" x2="195.4" y2="122.0" stroke="rgb(0,0,0)"  stroke-width="2.0"/>
<line x1="187.7" y1="82.6" x2="207.8" y2="64.6" stroke="rgb(0,0,0)"  stroke-width="2.0"/>
<line x1="191.7" y1="87.1" x2="211.8" y2="69.0" stroke="rgb(0,0,0)"  stroke-width="2.0"/>
<line x1="145.3" y1="64.7" x2="139.6" y2="51.9" stroke="rgb(0,0,0)"  stroke-width="2.0"/>
<line x1="79.1" y1="157.5" x2="52.7" y2="163.2" stroke="rgb(0,0,0)"  stroke-width="2.0"/>
<line x1="448.4" y1="124.8" x2="460.7" y2="86.8" stroke="rgb(0,0,0)"  stroke-width="2.0"/>
<line x1="443.4" y1="116.9" x2="452.0" y2="90.3" stroke="rgb(0,0,0)"  stroke-width="2.0"/>
<line x1="460.7" y1="86.8" x2="434.0" y2="57.1" stroke="rgb(0,0,0)"  stroke-width="2.0"/>
<line x1="434.0" y1="57.1" x2="394.8" y2="65.4" stroke="rgb(0,0,0)"  stroke-width="2.0"/>
<line x1="429.6" y1="65.4" x2="402.2" y2="71.2" stroke="rgb(0,0,0)"  stroke-width="2.0"/>
<line x1="394.8" y1="65.4" x2="382.5" y2="103.4" stroke="rgb(0,0,0)"  stroke-width="2.0"/>
<line x1="382.5" y1="103.4" x2="409.2" y2="133.1" stroke="rgb(0,0,0)"  stroke-width="2.0"/>
<line x1="391.8" y1="103.1" x2="410.6" y2="123.9" stroke="rgb(0,0,0)"  stroke-width="2.0"/>
<line x1="409.2" y1="133.1" x2="448.4" y2="124.8" stroke="rgb(0,0,0)"  stroke-width="2.0"/>
<line x1="552.2" y1="133.1" x2="513.1" y2="124.8" stroke="rgb(0,0,0)"  stroke-width="2.0"/>
<line x1="547.8" y1="124.9" x2="520.5" y2="119.0" stroke="rgb(0,0,0)"  stroke-width="2.0"/>
<line x1="513.1" y1="124.8" x2="500.7" y2="86.8" stroke="rgb(0,0,0)"  stroke-width="2.0"/>
<line x1="500.7" y1="86.8" x2="527.5" y2="57.1" stroke="rgb(0,0,0)"  stroke-width="2.0"/>
<line x1="510.1" y1="87.1" x2="528.8" y2="66.3" stroke="rgb(0,0,0)"  stroke-width="2.0"/>
<line x1="527.5" y1="57.1" x2="566.6" y2="65.4" stroke="rgb(0,0,0)"  stroke-width="2.0"/>
<line x1="566.6" y1="65.4" x2="579.0" y2="103.4" stroke="rgb(0,0,0)"  stroke-width="2.0"/>
<line x1="561.6" y1="73.3" x2="570.3" y2="99.9" stroke="rgb(0,0,0)"  stroke-width="2.0"/>
<line x1="579.0" y1="103.4" x2="552.2" y2="133.1" stroke="rgb(0,0,0)"  stroke-width="2.0"/>
<line x1="277.5" y1="90.3" x2="265.1" y2="128.4" stroke="rgb(0,0,0)"  stroke-width="2.0"/>
<line x1="282.5" y1="98.3" x2="273.8" y2="124.9" stroke="rgb(0,0,0)"  stroke-width="2.0"/>
<line x1="265.1" y1="128.4" x2="291.9" y2="158.1" stroke="rgb(0,0,0)"  stroke-width="2.0"/>
<line x1="291.9" y1="158.1" x2="331.0" y2="149.8" stroke="rgb(0,0,0)"  stroke-width="2.0"/>
<line x1="296.2" y1="149.8" x2="323.6" y2="144.0" stroke="rgb(0,0,0)"  stroke-width="2.0"/>
<line x1="331.0" y1="149.8" x2="343.4" y2="111.7" stroke="rgb(0,0,0)"  stroke-width="2.0"/>
<line x1="343.4" y1="111.7" x2="316.6" y2="82.0" stroke="rgb(0,0,0)"  stroke-width="2.0"/>
<line x1="334.0" y1="112.1" x2="315.3" y2="91.3" stroke="rgb(0,0,0)"  stroke-width="2.0"/>
<line x1="316.6" y1="82.0" x2="277.5" y2="90.3" stroke="rgb(0,0,0)"  stroke-width="2.0"/>
<line x1="105.9" y1="187.3" x2="145.0" y2="179.0" stroke="rgb(0,0,0)"  stroke-width="2.0"/>
<line x1="145.0" y1="179.0" x2="157.4" y2="140.9" stroke="rgb(0,0,0)"  stroke-width="2.0"/>
<line x1="140.0" y1="171.0" x2="148.7" y2="144.4" stroke="rgb(0,0,0)"  stroke-width="2.0"/>
<line x1="157.4" y1="140.9" x2="130.6" y2="111.2" stroke="rgb(0,0,0)"  stroke-width="2.0"/>
<line x1="130.6" y1="111.2" x2="91.5" y2="119.5" stroke="rgb(0,0,0)"  stroke-width="2.0"/>
<line x1="126.2" y1="119.5" x2="98.9" y2="125.3" stroke="rgb(0,0,0)"  stroke-width="2.0"/>
<line x1="91.5" y1="119.5" x2="79.1" y2="157.5" stroke="rgb(0,0,0)"  stroke-width="2.0"/>
<line x1="79.1" y1="157.5" x2="105.9" y2="187.3" stroke="rgb(0,0,0)"  stroke-width="2.0"/>
<line x1="88.5" y1="157.2" x2="107.2" y2="178.0" stroke="rgb(0,0,0)"  stroke-width="2.0"/>
<line x1="500.7" y1="86.8" x2="460.7" y2="86.8" stroke="rgb(0,0,0)"  stroke-width="2.0"/>
<line x1="448.4" y1="124.8" x2="480.7" y2="148.3" stroke="rgb(0,0,0)"  stroke-width="2.0"/>
<line x1="480.7" y1="148.3" x2="513.1" y2="124.8" stroke="rgb(0,0,0)"  stroke-width="2.0"/>
<line x1="232.7" y1="184.4" x2="259.2" y2="190.0" stroke="rgb(0,0,0)"  stroke-width="2.0"/>
<line x1="278.4" y1="181.5" x2="291.9" y2="158.1" stroke="rgb(0,0,0)"  stroke-width="2.0"/>
<line x1="265.1" y1="128.4" x2="228.6" y2="144.6" stroke="rgb(0,0,0)"  stroke-width="2.0"/>
<line x1="228.6" y1="144.6" x2="232.7" y2="184.4" stroke="rgb(0,0,0)"  stroke-width="2.0"/>
<line x1="144.1" y1="87.8" x2="130.6" y2="111.2" stroke="rgb(0,0,0)"  stroke-width="2.0"/>
<line x1="157.4" y1="140.9" x2="193.9" y2="124.6" stroke="rgb(0,0,0)"  stroke-width="2.0"/>
<line x1="193.9" y1="124.6" x2="189.7" y2="84.9" stroke="rgb(0,0,0)"  stroke-width="2.0"/>
<line x1="189.7" y1="84.9" x2="163.3" y2="79.2" stroke="rgb(0,0,0)"  stroke-width="2.0"/>
<text x="213.464185" y="66.093062" fill="rgb(255,12,12)"  stroke="rgb(255,12,12)" stroke-width="1" font-size="16" >O</text>
<text x="197.015892" y="219.185262" fill="rgb(255,12,12)"  stroke="rgb(255,12,12)" stroke-width="1" font-size="16" >O</text>
<text x="265.867589" y="200.736505" fill="rgb(12,12,255)"  stroke="rgb(12,12,255)" stroke-width="1" font-size="16" >N</text>
<text x="284.137055" y="237.278324" fill="rgb(102,102,102)"  stroke="rgb(102,102,102)" stroke-width="1" font-size="16" >CH</text>
<text x="308.137055" y="240.958324" fill="rgb(102,102,102)"  stroke="rgb(102,102,102)" stroke-width="1" font-size="13" >3</text>
<text x="144.612488" y="84.541818" fill="rgb(12,12,255)"  stroke="rgb(12,12,255)" stroke-width="1" font-size="16" >N</text>
<text x="108.343022" y="48.000000" fill="rgb(102,102,102)"  stroke="rgb(102,102,102)" stroke-width="1" font-size="16" >H</text>
<text x="120.343022" y="51.680000" fill="rgb(102,102,102)"  stroke="rgb(102,102,102)" stroke-width="1" font-size="13" >3</text>
<text x="126.843022" y="48.000000" fill="rgb(102,102,102)"  stroke="rgb(102,102,102)" stroke-width="1" font-size="16" >C</text>
<text x="34.000000" y="173.858030" fill="rgb(191,191,191)"  stroke="rgb(191,191,191)" stroke-width="1" font-size="16" >H</text>
<text x="612.109597" y="119.736761" fill="rgb(191,191,191)"  stroke="rgb(191,191,191)" stroke-width="1" font-size="16" >H</text>
<text x="496.731885" y="190.982045" fill="rgb(102,102,102)"  stroke="rgb(102,102,102)" stroke-width="1" font-size="16" >CH</text>
<text x="520.731885" y="194.662045" fill="rgb(102,102,102)"  stroke="rgb(102,102,102)" stroke-width="1" font-size="13" >3</text>
<text x="434.731885" y="190.982045" fill="rgb(102,102,102)"  stroke="rgb(102,102,102)" stroke-width="1" font-size="16" >H</text>
<text x="446.731885" y="194.662045" fill="rgb(102,102,102)"  stroke="rgb(102,102,102)" stroke-width="1" font-size="13" >3</text>
<text x="453.231885" y="190.982045" fill="rgb(102,102,102)"  stroke="rgb(102,102,102)" stroke-width="1" font-size="16" >C</text>
</svg>
</g>
<text font-size="18.000000" fill ="black" font-family="sans-serif"
x="10.000000" y="20.000000" ></text>
</svg>
