<?xml version="1.0"?>
<svg version="1.1" id="topsvg"
xmlns="http://www.w3.org/2000/svg" xmlns:xlink="http://www.w3.org/1999/xlink"
xmlns:cml="http://www.xml-cml.org/schema" x="0" y="0" width="200px" height="200px" viewBox="0 0 100 100">
<title> - Open Babel Depiction</title>
<rect x="0" y="0" width="100" height="100" fill="white"/>
<g transform="translate(0,0)">
<svg width="100" height="100" x="0" y="0" viewBox="0 0 587.679 457.61"
font-family="sans-serif" stroke="rgb(0,0,0)" stroke-width="2"  stroke-linecap="round">
<line x1="311.8" y1="206.9" x2="346.4" y2="226.9" stroke="rgb(0,0,0)"  stroke-width="2.0"/>
<line x1="383.0" y1="210.6" x2="391.3" y2="171.5" stroke="rgb(0,0,0)"  stroke-width="2.0"/>
<line x1="391.3" y1="171.5" x2="396.9" y2="145.1" stroke="rgb(0,0,0)"  stroke-width="2.0"/>
<line x1="387.2" y1="170.6" x2="392.8" y2="144.2" stroke="rgb(0,0,0)"  stroke-width="2.0"/>
<line x1="395.4" y1="172.4" x2="401.0" y2="146.0" stroke="rgb(0,0,0)"  stroke-width="2.0"/>
<line x1="449.7" y1="240.4" x2="469.7" y2="205.7" stroke="rgb(0,0,0)"  stroke-width="2.0"/>
<line x1="467.1" y1="207.2" x2="453.6" y2="183.8" stroke="rgb(0,0,0)"  stroke-width="2.0"/>
<line x1="472.3" y1="204.2" x2="458.8" y2="180.8" stroke="rgb(0,0,0)"  stroke-width="2.0"/>
<line x1="469.7" y1="205.7" x2="496.7" y2="205.7" stroke="rgb(0,0,0)"  stroke-width="2.0"/>
<line x1="516.2" y1="217.0" x2="523.2" y2="229.1" stroke="rgb(0,0,0)"  stroke-width="2.0"/>
<line x1="513.0" y1="323.1" x2="536.4" y2="336.6" stroke="rgb(0,0,0)"  stroke-width="2.0"/>
<line x1="476.5" y1="339.4" x2="468.2" y2="378.5" stroke="rgb(0,0,0)"  stroke-width="2.0"/>
<line x1="468.2" y1="378.5" x2="462.6" y2="404.9" stroke="rgb(0,0,0)"  stroke-width="2.0"/>
<line x1="472.3" y1="379.4" x2="466.7" y2="405.8" stroke="rgb(0,0,0)"  stroke-width="2.0"/>
<line x1="464.1" y1="377.6" x2="458.5" y2="404.0" stroke="rgb(0,0,0)"  stroke-width="2.0"/>
<line x1="409.7" y1="309.6" x2="389.7" y2="344.3" stroke="rgb(0,0,0)"  stroke-width="2.0"/>
<line x1="389.7" y1="347.3" x2="362.7" y2="347.3" stroke="rgb(0,0,0)"  stroke-width="2.0"/>
<line x1="389.7" y1="341.3" x2="362.7" y2="341.3" stroke="rgb(0,0,0)"  stroke-width="2.0"/>
<line x1="389.7" y1="344.3" x2="403.2" y2="367.7" stroke="rgb(0,0,0)"  stroke-width="2.0"/>
<line x1="403.2" y1="390.2" x2="396.2" y2="402.3" stroke="rgb(0,0,0)"  stroke-width="2.0"/>
<line x1="226.4" y1="105.1" x2="212.9" y2="81.7" stroke="rgb(0,0,0)"  stroke-width="2.0"/>
<line x1="231.6" y1="102.1" x2="218.1" y2="78.7" stroke="rgb(0,0,0)"  stroke-width="2.0"/>
<line x1="277.5" y1="98.1" x2="286.9" y2="87.7" stroke="rgb(0,0,0)"  stroke-width="2.0"/>
<line x1="291.6" y1="65.7" x2="287.2" y2="52.4" stroke="rgb(0,0,0)"  stroke-width="2.0"/>
<line x1="213.4" y1="143.1" x2="174.3" y2="151.4" stroke="rgb(0,0,0)"  stroke-width="2.0"/>
<line x1="212.2" y1="137.2" x2="173.0" y2="145.5" stroke="rgb(0,0,0)"  stroke-width="2.0"/>
<line x1="160.0" y1="183.5" x2="173.5" y2="206.9" stroke="rgb(0,0,0)"  stroke-width="2.0"/>
<line x1="154.8" y1="186.5" x2="168.3" y2="209.9" stroke="rgb(0,0,0)"  stroke-width="2.0"/>
<line x1="108.9" y1="190.5" x2="99.5" y2="200.9" stroke="rgb(0,0,0)"  stroke-width="2.0"/>
<line x1="78.1" y1="207.8" x2="64.4" y2="204.9" stroke="rgb(0,0,0)"  stroke-width="2.0"/>
<line x1="74.6" y1="81.7" x2="51.3" y2="68.2" stroke="rgb(0,0,0)"  stroke-width="2.0"/>
<line x1="409.7" y1="240.4" x2="389.7" y2="275.0" stroke="rgb(0,0,0)"  stroke-width="2.0"/>
<line x1="389.7" y1="275.0" x2="363.3" y2="269.4" stroke="rgb(0,0,0)"  stroke-width="2.0"/>
<line x1="349.2" y1="253.7" x2="346.4" y2="226.9" stroke="rgb(0,0,0)"  stroke-width="2.0"/>
<line x1="346.4" y1="226.9" x2="383.0" y2="210.6" stroke="rgb(0,0,0)"  stroke-width="2.0"/>
<line x1="354.8" y1="231.0" x2="380.4" y2="219.6" stroke="rgb(0,0,0)"  stroke-width="2.0"/>
<line x1="383.0" y1="210.6" x2="409.7" y2="240.4" stroke="rgb(0,0,0)"  stroke-width="2.0"/>
<line x1="513.0" y1="323.1" x2="476.5" y2="339.4" stroke="rgb(0,0,0)"  stroke-width="2.0"/>
<line x1="504.6" y1="319.0" x2="479.0" y2="330.3" stroke="rgb(0,0,0)"  stroke-width="2.0"/>
<line x1="476.5" y1="339.4" x2="449.7" y2="309.6" stroke="rgb(0,0,0)"  stroke-width="2.0"/>
<line x1="449.7" y1="309.6" x2="469.7" y2="275.0" stroke="rgb(0,0,0)"  stroke-width="2.0"/>
<line x1="459.0" y1="308.0" x2="473.0" y2="283.8" stroke="rgb(0,0,0)"  stroke-width="2.0"/>
<line x1="469.7" y1="275.0" x2="496.1" y2="280.6" stroke="rgb(0,0,0)"  stroke-width="2.0"/>
<line x1="510.2" y1="296.2" x2="513.0" y2="323.1" stroke="rgb(0,0,0)"  stroke-width="2.0"/>
<line x1="449.7" y1="309.6" x2="409.7" y2="309.6" stroke="rgb(0,0,0)"  stroke-width="2.0"/>
<line x1="409.7" y1="309.6" x2="389.7" y2="275.0" stroke="rgb(0,0,0)"  stroke-width="2.0"/>
<line x1="413.0" y1="300.8" x2="399.0" y2="276.6" stroke="rgb(0,0,0)"  stroke-width="2.0"/>
<line x1="409.7" y1="240.4" x2="449.7" y2="240.4" stroke="rgb(0,0,0)"  stroke-width="2.0"/>
<line x1="415.7" y1="247.6" x2="443.7" y2="247.6" stroke="rgb(0,0,0)"  stroke-width="2.0"/>
<line x1="449.7" y1="240.4" x2="469.7" y2="275.0" stroke="rgb(0,0,0)"  stroke-width="2.0"/>
<line x1="242.5" y1="206.9" x2="242.5" y2="166.9" stroke="rgb(0,0,0)"  stroke-width="2.0"/>
<line x1="249.7" y1="200.9" x2="249.7" y2="172.9" stroke="rgb(0,0,0)"  stroke-width="2.0"/>
<line x1="242.5" y1="166.9" x2="277.1" y2="146.9" stroke="rgb(0,0,0)"  stroke-width="2.0"/>
<line x1="277.1" y1="146.9" x2="311.8" y2="166.9" stroke="rgb(0,0,0)"  stroke-width="2.0"/>
<line x1="278.7" y1="156.1" x2="303.0" y2="170.1" stroke="rgb(0,0,0)"  stroke-width="2.0"/>
<line x1="311.8" y1="166.9" x2="311.8" y2="206.9" stroke="rgb(0,0,0)"  stroke-width="2.0"/>
<line x1="311.8" y1="206.9" x2="277.1" y2="226.9" stroke="rgb(0,0,0)"  stroke-width="2.0"/>
<line x1="303.0" y1="203.7" x2="278.7" y2="217.7" stroke="rgb(0,0,0)"  stroke-width="2.0"/>
<line x1="277.1" y1="226.9" x2="242.5" y2="206.9" stroke="rgb(0,0,0)"  stroke-width="2.0"/>
<line x1="109.3" y1="61.7" x2="143.9" y2="81.7" stroke="rgb(0,0,0)"  stroke-width="2.0"/>
<line x1="143.9" y1="81.7" x2="143.9" y2="121.7" stroke="rgb(0,0,0)"  stroke-width="2.0"/>
<line x1="136.7" y1="87.7" x2="136.7" y2="115.7" stroke="rgb(0,0,0)"  stroke-width="2.0"/>
<line x1="143.9" y1="121.7" x2="109.3" y2="141.7" stroke="rgb(0,0,0)"  stroke-width="2.0"/>
<line x1="109.3" y1="141.7" x2="74.6" y2="121.7" stroke="rgb(0,0,0)"  stroke-width="2.0"/>
<line x1="107.7" y1="132.4" x2="83.4" y2="118.4" stroke="rgb(0,0,0)"  stroke-width="2.0"/>
<line x1="74.6" y1="121.7" x2="74.6" y2="81.7" stroke="rgb(0,0,0)"  stroke-width="2.0"/>
<line x1="74.6" y1="81.7" x2="109.3" y2="61.7" stroke="rgb(0,0,0)"  stroke-width="2.0"/>
<line x1="83.4" y1="84.9" x2="107.7" y2="70.9" stroke="rgb(0,0,0)"  stroke-width="2.0"/>
<line x1="229.0" y1="103.6" x2="255.9" y2="106.4" stroke="rgb(0,0,0)"  stroke-width="2.0"/>
<line x1="271.5" y1="120.5" x2="277.1" y2="146.9" stroke="rgb(0,0,0)"  stroke-width="2.0"/>
<line x1="242.5" y1="166.9" x2="212.8" y2="140.1" stroke="rgb(0,0,0)"  stroke-width="2.0"/>
<line x1="212.8" y1="140.1" x2="229.0" y2="103.6" stroke="rgb(0,0,0)"  stroke-width="2.0"/>
<line x1="114.9" y1="168.1" x2="109.3" y2="141.7" stroke="rgb(0,0,0)"  stroke-width="2.0"/>
<line x1="143.9" y1="121.7" x2="173.6" y2="148.4" stroke="rgb(0,0,0)"  stroke-width="2.0"/>
<line x1="173.6" y1="148.4" x2="157.4" y2="185.0" stroke="rgb(0,0,0)"  stroke-width="2.0"/>
<line x1="157.4" y1="185.0" x2="130.5" y2="182.2" stroke="rgb(0,0,0)"  stroke-width="2.0"/>
<text x="203.044211" y="76.945899" fill="rgb(255,12,12)"  stroke="rgb(255,12,12)" stroke-width="1" font-size="16" >O</text>
<text x="262.825087" y="115.768054" fill="rgb(12,12,255)"  stroke="rgb(12,12,255)" stroke-width="1" font-size="16" >N</text>
<text x="289.590311" y="86.042261" fill="rgb(255,12,12)"  stroke="rgb(255,12,12)" stroke-width="1" font-size="16" >O</text>
<text x="257.229632" y="48.000000" fill="rgb(102,102,102)"  stroke="rgb(102,102,102)" stroke-width="1" font-size="16" >H</text>
<text x="269.229632" y="51.680000" fill="rgb(102,102,102)"  stroke="rgb(102,102,102)" stroke-width="1" font-size="13" >3</text>
<text x="275.729632" y="48.000000" fill="rgb(102,102,102)"  stroke="rgb(102,102,102)" stroke-width="1" font-size="16" >C</text>
<text x="344.604726" y="274.674834" fill="rgb(178,178,0)"  stroke="rgb(178,178,0)" stroke-width="1" font-size="16" >S</text>
<text x="171.379376" y="227.628036" fill="rgb(255,12,12)"  stroke="rgb(255,12,12)" stroke-width="1" font-size="16" >O</text>
<text x="111.598500" y="188.805881" fill="rgb(12,12,255)"  stroke="rgb(12,12,255)" stroke-width="1" font-size="16" >N</text>
<text x="84.833276" y="218.531674" fill="rgb(255,12,12)"  stroke="rgb(255,12,12)" stroke-width="1" font-size="16" >O</text>
<text x="25.707372" y="210.215206" fill="rgb(102,102,102)"  stroke="rgb(102,102,102)" stroke-width="1" font-size="16" >H</text>
<text x="37.707372" y="213.895206" fill="rgb(102,102,102)"  stroke="rgb(102,102,102)" stroke-width="1" font-size="13" >3</text>
<text x="44.207372" y="210.215206" fill="rgb(102,102,102)"  stroke="rgb(102,102,102)" stroke-width="1" font-size="16" >C</text>
<text x="34.000000" y="69.679977" fill="rgb(191,191,191)"  stroke="rgb(191,191,191)" stroke-width="1" font-size="16" >H</text>
<text x="393.598341" y="140.372684" fill="rgb(12,12,255)"  stroke="rgb(12,12,255)" stroke-width="1" font-size="16" >N</text>
<text x="443.730630" y="179.068253" fill="rgb(255,12,12)"  stroke="rgb(255,12,12)" stroke-width="1" font-size="16" >O</text>
<text x="503.730630" y="213.709269" fill="rgb(255,12,12)"  stroke="rgb(255,12,12)" stroke-width="1" font-size="16" >O</text>
<text x="525.730630" y="248.350285" fill="rgb(102,102,102)"  stroke="rgb(102,102,102)" stroke-width="1" font-size="16" >CH</text>
<text x="549.730630" y="252.030285" fill="rgb(102,102,102)"  stroke="rgb(102,102,102)" stroke-width="1" font-size="13" >3</text>
<text x="502.856534" y="291.307769" fill="rgb(178,178,0)"  stroke="rgb(178,178,0)" stroke-width="1" font-size="16" >S</text>
<text x="541.678688" y="351.088645" fill="rgb(191,191,191)"  stroke="rgb(191,191,191)" stroke-width="1" font-size="16" >H</text>
<text x="453.862919" y="425.609918" fill="rgb(12,12,255)"  stroke="rgb(12,12,255)" stroke-width="1" font-size="16" >N</text>
<text x="343.730630" y="352.273333" fill="rgb(255,12,12)"  stroke="rgb(255,12,12)" stroke-width="1" font-size="16" >O</text>
<text x="403.730630" y="386.914350" fill="rgb(255,12,12)"  stroke="rgb(255,12,12)" stroke-width="1" font-size="16" >O</text>
<text x="363.730630" y="421.555366" fill="rgb(102,102,102)"  stroke="rgb(102,102,102)" stroke-width="1" font-size="16" >H</text>
<text x="375.730630" y="425.235366" fill="rgb(102,102,102)"  stroke="rgb(102,102,102)" stroke-width="1" font-size="13" >3</text>
<text x="382.230630" y="421.555366" fill="rgb(102,102,102)"  stroke="rgb(102,102,102)" stroke-width="1" font-size="16" >C</text>
</svg>
</g>
<text font-size="18.000000" fill ="black" font-family="sans-serif"
x="10.000000" y="20.000000" ></text>
</svg>
