<?xml version="1.0"?>
<svg version="1.1" id="topsvg"
xmlns="http://www.w3.org/2000/svg" xmlns:xlink="http://www.w3.org/1999/xlink"
xmlns:cml="http://www.xml-cml.org/schema" x="0" y="0" width="200px" height="200px" viewBox="0 0 100 100">
<title> - Open Babel Depiction</title>
<rect x="0" y="0" width="100" height="100" fill="white"/>
<g transform="translate(0,0)">
<svg width="100" height="100" x="0" y="0" viewBox="0 0 481.945 251.918"
font-family="sans-serif" stroke="rgb(0,0,0)" stroke-width="2"  stroke-linecap="round">
<line x1="311.7" y1="142.3" x2="277.9" y2="122.8" stroke="rgb(0,0,0)"  stroke-width="2.0"/>
<line x1="176.3" y1="155.3" x2="176.3" y2="168.4" stroke="rgb(0,0,0)"  stroke-width="2.0"/>
<line x1="187.5" y1="187.9" x2="198.9" y2="194.5" stroke="rgb(0,0,0)"  stroke-width="2.0"/>
<line x1="74.6" y1="122.7" x2="51.3" y2="136.2" stroke="rgb(0,0,0)"  stroke-width="2.0"/>
<line x1="346.7" y1="79.9" x2="329.2" y2="60.5" stroke="rgb(0,0,0)"  stroke-width="2.0"/>
<line x1="351.1" y1="75.9" x2="333.7" y2="56.5" stroke="rgb(0,0,0)"  stroke-width="2.0"/>
<line x1="394.3" y1="62.6" x2="400.9" y2="51.3" stroke="rgb(0,0,0)"  stroke-width="2.0"/>
<line x1="403.7" y1="109.6" x2="429.2" y2="115.0" stroke="rgb(0,0,0)"  stroke-width="2.0"/>
<line x1="368.7" y1="172.0" x2="386.2" y2="191.4" stroke="rgb(0,0,0)"  stroke-width="2.0"/>
<line x1="364.3" y1="176.0" x2="381.7" y2="195.4" stroke="rgb(0,0,0)"  stroke-width="2.0"/>
<line x1="321.1" y1="189.3" x2="314.6" y2="200.7" stroke="rgb(0,0,0)"  stroke-width="2.0"/>
<line x1="142.4" y1="122.8" x2="142.4" y2="83.6" stroke="rgb(0,0,0)"  stroke-width="2.0"/>
<line x1="142.4" y1="83.6" x2="210.1" y2="83.6" stroke="rgb(0,0,0)"  stroke-width="2.0"/>
<line x1="210.1" y1="83.6" x2="210.1" y2="122.8" stroke="rgb(0,0,0)"  stroke-width="2.0"/>
<line x1="202.9" y1="89.6" x2="202.9" y2="116.8" stroke="rgb(0,0,0)"  stroke-width="2.0"/>
<line x1="210.1" y1="122.8" x2="187.5" y2="135.8" stroke="rgb(0,0,0)"  stroke-width="2.0"/>
<line x1="165.0" y1="135.8" x2="142.4" y2="122.8" stroke="rgb(0,0,0)"  stroke-width="2.0"/>
<line x1="348.9" y1="77.9" x2="374.9" y2="75.2" stroke="rgb(0,0,0)"  stroke-width="2.0"/>
<line x1="393.1" y1="85.7" x2="403.7" y2="109.6" stroke="rgb(0,0,0)"  stroke-width="2.0"/>
<line x1="403.7" y1="109.6" x2="374.6" y2="135.7" stroke="rgb(0,0,0)"  stroke-width="2.0"/>
<line x1="394.4" y1="108.2" x2="374.3" y2="126.4" stroke="rgb(0,0,0)"  stroke-width="2.0"/>
<line x1="374.6" y1="135.7" x2="340.8" y2="116.2" stroke="rgb(0,0,0)"  stroke-width="2.0"/>
<line x1="340.8" y1="116.2" x2="348.9" y2="77.9" stroke="rgb(0,0,0)"  stroke-width="2.0"/>
<line x1="374.6" y1="135.7" x2="366.5" y2="174.0" stroke="rgb(0,0,0)"  stroke-width="2.0"/>
<line x1="366.5" y1="174.0" x2="340.5" y2="176.7" stroke="rgb(0,0,0)"  stroke-width="2.0"/>
<line x1="322.3" y1="166.2" x2="311.7" y2="142.3" stroke="rgb(0,0,0)"  stroke-width="2.0"/>
<line x1="311.7" y1="142.3" x2="340.8" y2="116.2" stroke="rgb(0,0,0)"  stroke-width="2.0"/>
<line x1="321.0" y1="143.7" x2="341.1" y2="125.5" stroke="rgb(0,0,0)"  stroke-width="2.0"/>
<line x1="210.1" y1="83.6" x2="244.0" y2="64.1" stroke="rgb(0,0,0)"  stroke-width="2.0"/>
<line x1="244.0" y1="64.1" x2="277.9" y2="83.7" stroke="rgb(0,0,0)"  stroke-width="2.0"/>
<line x1="245.6" y1="73.3" x2="269.1" y2="86.9" stroke="rgb(0,0,0)"  stroke-width="2.0"/>
<line x1="277.9" y1="83.7" x2="277.9" y2="122.8" stroke="rgb(0,0,0)"  stroke-width="2.0"/>
<line x1="277.9" y1="122.8" x2="244.0" y2="142.3" stroke="rgb(0,0,0)"  stroke-width="2.0"/>
<line x1="269.1" y1="119.5" x2="245.6" y2="133.1" stroke="rgb(0,0,0)"  stroke-width="2.0"/>
<line x1="244.0" y1="142.3" x2="210.1" y2="122.8" stroke="rgb(0,0,0)"  stroke-width="2.0"/>
<line x1="108.5" y1="142.3" x2="142.4" y2="122.8" stroke="rgb(0,0,0)"  stroke-width="2.0"/>
<line x1="110.1" y1="133.1" x2="133.6" y2="119.5" stroke="rgb(0,0,0)"  stroke-width="2.0"/>
<line x1="142.4" y1="83.6" x2="108.5" y2="64.1" stroke="rgb(0,0,0)"  stroke-width="2.0"/>
<line x1="133.6" y1="86.9" x2="110.1" y2="73.3" stroke="rgb(0,0,0)"  stroke-width="2.0"/>
<line x1="108.5" y1="64.1" x2="74.7" y2="83.6" stroke="rgb(0,0,0)"  stroke-width="2.0"/>
<line x1="74.7" y1="83.6" x2="74.6" y2="122.7" stroke="rgb(0,0,0)"  stroke-width="2.0"/>
<line x1="81.9" y1="89.6" x2="81.8" y2="116.7" stroke="rgb(0,0,0)"  stroke-width="2.0"/>
<line x1="74.6" y1="122.7" x2="108.5" y2="142.3" stroke="rgb(0,0,0)"  stroke-width="2.0"/>
<text x="302.064069" y="219.918067" fill="rgb(191,191,191)"  stroke="rgb(191,191,191)" stroke-width="1" font-size="16" >H</text>
<text x="321.619382" y="186.060489" fill="rgb(12,12,255)"  stroke="rgb(12,12,255)" stroke-width="1" font-size="16" >N</text>
<text x="386.662609" y="211.040860" fill="rgb(255,12,12)"  stroke="rgb(255,12,12)" stroke-width="1" font-size="16" >O</text>
<text x="435.944873" y="125.714785" fill="rgb(191,191,191)"  stroke="rgb(191,191,191)" stroke-width="1" font-size="16" >H</text>
<text x="401.359760" y="48.000000" fill="rgb(191,191,191)"  stroke="rgb(191,191,191)" stroke-width="1" font-size="16" >H</text>
<text x="381.804447" y="81.857578" fill="rgb(12,12,255)"  stroke="rgb(12,12,255)" stroke-width="1" font-size="16" >N</text>
<text x="316.761220" y="56.877208" fill="rgb(255,12,12)"  stroke="rgb(255,12,12)" stroke-width="1" font-size="16" >O</text>
<text x="34.000000" y="150.735159" fill="rgb(191,191,191)"  stroke="rgb(191,191,191)" stroke-width="1" font-size="16" >H</text>
<text x="206.118269" y="208.966121" fill="rgb(102,102,102)"  stroke="rgb(102,102,102)" stroke-width="1" font-size="16" >CH</text>
<text x="230.118269" y="212.646121" fill="rgb(102,102,102)"  stroke="rgb(102,102,102)" stroke-width="1" font-size="13" >3</text>
<text x="170.258742" y="189.414182" fill="rgb(255,12,12)"  stroke="rgb(255,12,12)" stroke-width="1" font-size="16" >O</text>
<text x="170.261455" y="150.315002" fill="rgb(12,12,255)"  stroke="rgb(12,12,255)" stroke-width="1" font-size="16" >N</text>
</svg>
</g>
<text font-size="18.000000" fill ="black" font-family="sans-serif"
x="10.000000" y="20.000000" ></text>
</svg>
