<?xml version="1.0"?>
<svg version="1.1" id="topsvg"
xmlns="http://www.w3.org/2000/svg" xmlns:xlink="http://www.w3.org/1999/xlink"
xmlns:cml="http://www.xml-cml.org/schema" x="0" y="0" width="200px" height="200px" viewBox="0 0 100 100">
<title> - Open Babel Depiction</title>
<rect x="0" y="0" width="100" height="100" fill="white"/>
<g transform="translate(0,0)">
<svg width="100" height="100" x="0" y="0" viewBox="0 0 374.107 401.278"
font-family="sans-serif" stroke="rgb(0,0,0)" stroke-width="2"  stroke-linecap="round">
<line x1="175.0" y1="136.5" x2="156.2" y2="168.9" stroke="rgb(0,0,0)"  stroke-width="2.0"/>
<line x1="83.4" y1="234.5" x2="60.1" y2="242.1" stroke="rgb(0,0,0)"  stroke-width="2.0"/>
<line x1="45.1" y1="258.8" x2="42.7" y2="270.0" stroke="rgb(0,0,0)"  stroke-width="2.0"/>
<line x1="83.4" y1="234.5" x2="186.6" y2="186.0" stroke="rgb(0,0,0)"  stroke-width="2.0"/>
<line x1="185.4" y1="180.5" x2="174.0" y2="180.5" stroke="rgb(0,0,0)"  stroke-width="2.0"/>
<line x1="123.3" y1="324.0" x2="125.8" y2="348.3" stroke="rgb(0,0,0)"  stroke-width="2.0"/>
<line x1="247.6" y1="151.0" x2="250.1" y2="175.3" stroke="rgb(0,0,0)"  stroke-width="2.0"/>
<line x1="241.6" y1="151.6" x2="244.2" y2="175.9" stroke="rgb(0,0,0)"  stroke-width="2.0"/>
<line x1="285.1" y1="128.9" x2="296.3" y2="131.3" stroke="rgb(0,0,0)"  stroke-width="2.0"/>
<line x1="317.8" y1="124.4" x2="325.4" y2="115.9" stroke="rgb(0,0,0)"  stroke-width="2.0"/>
<line x1="257.2" y1="92.0" x2="269.4" y2="70.9" stroke="rgb(0,0,0)"  stroke-width="2.0"/>
<line x1="184.6" y1="77.5" x2="182.0" y2="53.2" stroke="rgb(0,0,0)"  stroke-width="2.0"/>
<line x1="190.5" y1="76.9" x2="188.0" y2="52.6" stroke="rgb(0,0,0)"  stroke-width="2.0"/>
<line x1="147.0" y1="99.6" x2="135.8" y2="97.2" stroke="rgb(0,0,0)"  stroke-width="2.0"/>
<line x1="119.1" y1="82.1" x2="115.6" y2="71.3" stroke="rgb(0,0,0)"  stroke-width="2.0"/>
<line x1="111.2" y1="209.4" x2="143.6" y2="228.2" stroke="rgb(0,0,0)"  stroke-width="2.0"/>
<line x1="120.0" y1="206.2" x2="142.0" y2="218.9" stroke="rgb(0,0,0)"  stroke-width="2.0"/>
<line x1="143.6" y1="228.2" x2="161.8" y2="211.8" stroke="rgb(0,0,0)"  stroke-width="2.0"/>
<line x1="166.2" y1="191.2" x2="156.2" y2="168.9" stroke="rgb(0,0,0)"  stroke-width="2.0"/>
<line x1="156.2" y1="168.9" x2="119.0" y2="172.8" stroke="rgb(0,0,0)"  stroke-width="2.0"/>
<line x1="151.0" y1="176.7" x2="125.7" y2="179.4" stroke="rgb(0,0,0)"  stroke-width="2.0"/>
<line x1="119.0" y1="172.8" x2="111.2" y2="209.4" stroke="rgb(0,0,0)"  stroke-width="2.0"/>
<line x1="123.3" y1="324.0" x2="141.4" y2="307.7" stroke="rgb(0,0,0)"  stroke-width="2.0"/>
<line x1="145.8" y1="287.1" x2="135.9" y2="264.8" stroke="rgb(0,0,0)"  stroke-width="2.0"/>
<line x1="135.9" y1="264.8" x2="98.6" y2="268.7" stroke="rgb(0,0,0)"  stroke-width="2.0"/>
<line x1="130.6" y1="272.6" x2="105.3" y2="275.2" stroke="rgb(0,0,0)"  stroke-width="2.0"/>
<line x1="98.6" y1="268.7" x2="90.8" y2="305.3" stroke="rgb(0,0,0)"  stroke-width="2.0"/>
<line x1="90.8" y1="305.3" x2="123.3" y2="324.0" stroke="rgb(0,0,0)"  stroke-width="2.0"/>
<line x1="99.6" y1="302.1" x2="121.7" y2="314.8" stroke="rgb(0,0,0)"  stroke-width="2.0"/>
<line x1="244.6" y1="151.3" x2="262.8" y2="134.9" stroke="rgb(0,0,0)"  stroke-width="2.0"/>
<line x1="267.1" y1="114.4" x2="257.2" y2="92.0" stroke="rgb(0,0,0)"  stroke-width="2.0"/>
<line x1="257.2" y1="92.0" x2="220.0" y2="96.0" stroke="rgb(0,0,0)"  stroke-width="2.0"/>
<line x1="252.0" y1="99.8" x2="226.7" y2="102.5" stroke="rgb(0,0,0)"  stroke-width="2.0"/>
<line x1="220.0" y1="96.0" x2="212.2" y2="132.6" stroke="rgb(0,0,0)"  stroke-width="2.0"/>
<line x1="212.2" y1="132.6" x2="244.6" y2="151.3" stroke="rgb(0,0,0)"  stroke-width="2.0"/>
<line x1="220.0" y1="96.0" x2="187.5" y2="77.2" stroke="rgb(0,0,0)"  stroke-width="2.0"/>
<line x1="187.5" y1="77.2" x2="169.4" y2="93.6" stroke="rgb(0,0,0)"  stroke-width="2.0"/>
<line x1="165.0" y1="114.2" x2="175.0" y2="136.5" stroke="rgb(0,0,0)"  stroke-width="2.0"/>
<line x1="175.0" y1="136.5" x2="212.2" y2="132.6" stroke="rgb(0,0,0)"  stroke-width="2.0"/>
<line x1="180.2" y1="128.7" x2="205.5" y2="126.0" stroke="rgb(0,0,0)"  stroke-width="2.0"/>
<line x1="135.9" y1="264.8" x2="143.6" y2="228.2" stroke="rgb(0,0,0)"  stroke-width="2.0"/>
<line x1="111.2" y1="209.4" x2="83.4" y2="234.5" stroke="rgb(0,0,0)"  stroke-width="2.0"/>
<line x1="83.4" y1="234.5" x2="98.6" y2="268.7" stroke="rgb(0,0,0)"  stroke-width="2.0"/>
<text x="121.172386" y="369.278397" fill="rgb(191,191,191)"  stroke="rgb(191,191,191)" stroke-width="1" font-size="16" >H</text>
<text x="85.533803" y="66.895179" fill="rgb(102,102,102)"  stroke="rgb(102,102,102)" stroke-width="1" font-size="16" >H</text>
<text x="97.533803" y="70.575179" fill="rgb(102,102,102)"  stroke="rgb(102,102,102)" stroke-width="1" font-size="13" >3</text>
<text x="104.033803" y="66.895179" fill="rgb(102,102,102)"  stroke="rgb(102,102,102)" stroke-width="1" font-size="16" >C</text>
<text x="117.103276" y="102.502357" fill="rgb(255,12,12)"  stroke="rgb(255,12,12)" stroke-width="1" font-size="16" >O</text>
<text x="153.724733" y="110.286488" fill="rgb(12,12,255)"  stroke="rgb(12,12,255)" stroke-width="1" font-size="16" >N</text>
<text x="177.634275" y="48.000000" fill="rgb(255,12,12)"  stroke="rgb(255,12,12)" stroke-width="1" font-size="16" >O</text>
<text x="269.925731" y="67.617154" fill="rgb(191,191,191)"  stroke="rgb(191,191,191)" stroke-width="1" font-size="16" >H</text>
<text x="330.107428" y="114.204664" fill="rgb(102,102,102)"  stroke="rgb(102,102,102)" stroke-width="1" font-size="16" >CH</text>
<text x="354.107428" y="117.884664" fill="rgb(102,102,102)"  stroke="rgb(102,102,102)" stroke-width="1" font-size="13" >3</text>
<text x="303.055445" y="142.027710" fill="rgb(255,12,12)"  stroke="rgb(255,12,12)" stroke-width="1" font-size="16" >O</text>
<text x="266.433988" y="134.243579" fill="rgb(12,12,255)"  stroke="rgb(12,12,255)" stroke-width="1" font-size="16" >N</text>
<text x="242.524445" y="196.530067" fill="rgb(255,12,12)"  stroke="rgb(255,12,12)" stroke-width="1" font-size="16" >O</text>
<text x="145.081929" y="306.991910" fill="rgb(178,178,0)"  stroke="rgb(178,178,0)" stroke-width="1" font-size="16" >S</text>
<text x="134.954536" y="188.491072" fill="rgb(102,102,102)"  stroke="rgb(102,102,102)" stroke-width="1" font-size="16" >H</text>
<text x="146.954536" y="192.171072" fill="rgb(102,102,102)"  stroke="rgb(102,102,102)" stroke-width="1" font-size="13" >3</text>
<text x="153.454536" y="188.491072" fill="rgb(102,102,102)"  stroke="rgb(102,102,102)" stroke-width="1" font-size="16" >C</text>
<text x="192.394138" y="188.491072" fill="rgb(255,12,12)"  stroke="rgb(255,12,12)" stroke-width="1" font-size="16" >O</text>
<text x="14.000000" y="290.690787" fill="rgb(102,102,102)"  stroke="rgb(102,102,102)" stroke-width="1" font-size="16" >H</text>
<text x="26.000000" y="294.370787" fill="rgb(102,102,102)"  stroke="rgb(102,102,102)" stroke-width="1" font-size="13" >3</text>
<text x="32.500000" y="290.690787" fill="rgb(102,102,102)"  stroke="rgb(102,102,102)" stroke-width="1" font-size="16" >C</text>
<text x="41.784131" y="254.069330" fill="rgb(255,12,12)"  stroke="rgb(255,12,12)" stroke-width="1" font-size="16" >O</text>
<text x="165.461048" y="211.115691" fill="rgb(178,178,0)"  stroke="rgb(178,178,0)" stroke-width="1" font-size="16" >S</text>
</svg>
</g>
<text font-size="18.000000" fill ="black" font-family="sans-serif"
x="10.000000" y="20.000000" ></text>
</svg>
