<?xml version="1.0"?>
<svg version="1.1" id="topsvg"
xmlns="http://www.w3.org/2000/svg" xmlns:xlink="http://www.w3.org/1999/xlink"
xmlns:cml="http://www.xml-cml.org/schema" x="0" y="0" width="200px" height="200px" viewBox="0 0 100 100">
<title> - Open Babel Depiction</title>
<rect x="0" y="0" width="100" height="100" fill="white"/>
<g transform="translate(0,0)">
<svg width="100" height="100" x="0" y="0" viewBox="0 0 365.065 315.003"
font-family="sans-serif" stroke="rgb(0,0,0)" stroke-width="2"  stroke-linecap="round">
<line x1="200.0" y1="171.1" x2="160.0" y2="171.1" stroke="rgb(0,0,0)"  stroke-width="2.0"/>
<line x1="100.0" y1="205.7" x2="86.5" y2="229.1" stroke="rgb(0,0,0)"  stroke-width="2.0"/>
<line x1="86.5" y1="251.6" x2="93.5" y2="263.7" stroke="rgb(0,0,0)"  stroke-width="2.0"/>
<line x1="80.0" y1="171.1" x2="53.0" y2="171.1" stroke="rgb(0,0,0)"  stroke-width="2.0"/>
<line x1="140.0" y1="136.4" x2="153.5" y2="113.1" stroke="rgb(0,0,0)"  stroke-width="2.0"/>
<line x1="173.0" y1="101.8" x2="187.0" y2="101.8" stroke="rgb(0,0,0)"  stroke-width="2.0"/>
<line x1="221.7" y1="101.1" x2="199.9" y2="85.3" stroke="rgb(0,0,0)"  stroke-width="2.0"/>
<line x1="225.3" y1="96.3" x2="203.4" y2="80.4" stroke="rgb(0,0,0)"  stroke-width="2.0"/>
<line x1="265.6" y1="74.0" x2="269.9" y2="60.7" stroke="rgb(0,0,0)"  stroke-width="2.0"/>
<line x1="286.6" y1="45.6" x2="300.3" y2="42.7" stroke="rgb(0,0,0)"  stroke-width="2.0"/>
<line x1="285.1" y1="118.7" x2="312.1" y2="118.7" stroke="rgb(0,0,0)"  stroke-width="2.0"/>
<line x1="263.3" y1="188.7" x2="285.2" y2="204.5" stroke="rgb(0,0,0)"  stroke-width="2.0"/>
<line x1="259.8" y1="193.5" x2="281.6" y2="209.4" stroke="rgb(0,0,0)"  stroke-width="2.0"/>
<line x1="219.5" y1="215.8" x2="215.2" y2="229.1" stroke="rgb(0,0,0)"  stroke-width="2.0"/>
<line x1="219.8" y1="251.1" x2="229.2" y2="261.5" stroke="rgb(0,0,0)"  stroke-width="2.0"/>
<line x1="223.5" y1="98.7" x2="249.2" y2="90.4" stroke="rgb(0,0,0)"  stroke-width="2.0"/>
<line x1="269.2" y1="96.9" x2="285.1" y2="118.7" stroke="rgb(0,0,0)"  stroke-width="2.0"/>
<line x1="285.1" y1="118.7" x2="261.6" y2="151.1" stroke="rgb(0,0,0)"  stroke-width="2.0"/>
<line x1="275.7" y1="119.3" x2="259.3" y2="142.0" stroke="rgb(0,0,0)"  stroke-width="2.0"/>
<line x1="261.6" y1="151.1" x2="223.5" y2="138.7" stroke="rgb(0,0,0)"  stroke-width="2.0"/>
<line x1="223.5" y1="138.7" x2="223.5" y2="98.7" stroke="rgb(0,0,0)"  stroke-width="2.0"/>
<line x1="261.6" y1="151.1" x2="261.6" y2="191.1" stroke="rgb(0,0,0)"  stroke-width="2.0"/>
<line x1="261.6" y1="191.1" x2="235.9" y2="199.4" stroke="rgb(0,0,0)"  stroke-width="2.0"/>
<line x1="215.9" y1="192.9" x2="200.0" y2="171.1" stroke="rgb(0,0,0)"  stroke-width="2.0"/>
<line x1="200.0" y1="171.1" x2="223.5" y2="138.7" stroke="rgb(0,0,0)"  stroke-width="2.0"/>
<line x1="209.4" y1="170.5" x2="225.8" y2="147.8" stroke="rgb(0,0,0)"  stroke-width="2.0"/>
<line x1="100.0" y1="205.7" x2="80.0" y2="171.1" stroke="rgb(0,0,0)"  stroke-width="2.0"/>
<line x1="103.2" y1="196.9" x2="89.2" y2="172.7" stroke="rgb(0,0,0)"  stroke-width="2.0"/>
<line x1="80.0" y1="171.1" x2="100.0" y2="136.4" stroke="rgb(0,0,0)"  stroke-width="2.0"/>
<line x1="100.0" y1="136.4" x2="140.0" y2="136.4" stroke="rgb(0,0,0)"  stroke-width="2.0"/>
<line x1="106.0" y1="143.6" x2="134.0" y2="143.6" stroke="rgb(0,0,0)"  stroke-width="2.0"/>
<line x1="140.0" y1="136.4" x2="160.0" y2="171.1" stroke="rgb(0,0,0)"  stroke-width="2.0"/>
<line x1="160.0" y1="171.1" x2="140.0" y2="205.7" stroke="rgb(0,0,0)"  stroke-width="2.0"/>
<line x1="150.8" y1="172.7" x2="136.8" y2="196.9" stroke="rgb(0,0,0)"  stroke-width="2.0"/>
<line x1="140.0" y1="205.7" x2="100.0" y2="205.7" stroke="rgb(0,0,0)"  stroke-width="2.0"/>
<text x="233.915955" y="279.208821" fill="rgb(102,102,102)"  stroke="rgb(102,102,102)" stroke-width="1" font-size="16" >CH</text>
<text x="257.915955" y="282.888821" fill="rgb(102,102,102)"  stroke="rgb(102,102,102)" stroke-width="1" font-size="13" >3</text>
<text x="205.150730" y="249.483028" fill="rgb(255,12,12)"  stroke="rgb(255,12,12)" stroke-width="1" font-size="16" >O</text>
<text x="217.511410" y="211.440768" fill="rgb(12,12,255)"  stroke="rgb(12,12,255)" stroke-width="1" font-size="16" >N</text>
<text x="287.914351" y="222.591498" fill="rgb(255,12,12)"  stroke="rgb(255,12,12)" stroke-width="1" font-size="16" >O</text>
<text x="319.065081" y="126.719408" fill="rgb(191,191,191)"  stroke="rgb(191,191,191)" stroke-width="1" font-size="16" >H</text>
<text x="309.040255" y="48.000000" fill="rgb(102,102,102)"  stroke="rgb(102,102,102)" stroke-width="1" font-size="16" >CH</text>
<text x="333.040255" y="51.680000" fill="rgb(102,102,102)"  stroke="rgb(102,102,102)" stroke-width="1" font-size="13" >3</text>
<text x="267.914351" y="56.316468" fill="rgb(255,12,12)"  stroke="rgb(255,12,12)" stroke-width="1" font-size="16" >O</text>
<text x="255.553671" y="94.358728" fill="rgb(12,12,255)"  stroke="rgb(12,12,255)" stroke-width="1" font-size="16" >N</text>
<text x="185.150730" y="83.207998" fill="rgb(255,12,12)"  stroke="rgb(255,12,12)" stroke-width="1" font-size="16" >O</text>
<text x="196.000000" y="109.798056" fill="rgb(102,102,102)"  stroke="rgb(102,102,102)" stroke-width="1" font-size="16" >CH</text>
<text x="220.000000" y="113.478056" fill="rgb(102,102,102)"  stroke="rgb(102,102,102)" stroke-width="1" font-size="13" >3</text>
<text x="154.000000" y="109.798056" fill="rgb(255,12,12)"  stroke="rgb(255,12,12)" stroke-width="1" font-size="16" >O</text>
<text x="34.000000" y="179.080088" fill="rgb(191,191,191)"  stroke="rgb(191,191,191)" stroke-width="1" font-size="16" >H</text>
<text x="96.000000" y="283.003136" fill="rgb(102,102,102)"  stroke="rgb(102,102,102)" stroke-width="1" font-size="16" >CH</text>
<text x="120.000000" y="286.683136" fill="rgb(102,102,102)"  stroke="rgb(102,102,102)" stroke-width="1" font-size="13" >3</text>
<text x="74.000000" y="248.362120" fill="rgb(255,12,12)"  stroke="rgb(255,12,12)" stroke-width="1" font-size="16" >O</text>
</svg>
</g>
<text font-size="18.000000" fill ="black" font-family="sans-serif"
x="10.000000" y="20.000000" ></text>
</svg>
