<?xml version="1.0"?>
<svg version="1.1" id="topsvg"
xmlns="http://www.w3.org/2000/svg" xmlns:xlink="http://www.w3.org/1999/xlink"
xmlns:cml="http://www.xml-cml.org/schema" x="0" y="0" width="200px" height="200px" viewBox="0 0 100 100">
<title> - Open Babel Depiction</title>
<rect x="0" y="0" width="100" height="100" fill="white"/>
<g transform="translate(0,0)">
<svg width="100" height="100" x="0" y="0" viewBox="0 0 529.097 233.167"
font-family="sans-serif" stroke="rgb(0,0,0)" stroke-width="2"  stroke-linecap="round">
<line x1="245.5" y1="122.8" x2="283.6" y2="110.4" stroke="rgb(0,0,0)"  stroke-width="2.0"/>
<line x1="295.9" y1="72.4" x2="280.1" y2="50.5" stroke="rgb(0,0,0)"  stroke-width="2.0"/>
<line x1="335.9" y1="72.4" x2="351.8" y2="50.5" stroke="rgb(0,0,0)"  stroke-width="2.0"/>
<line x1="348.3" y1="110.4" x2="386.3" y2="122.8" stroke="rgb(0,0,0)"  stroke-width="2.0"/>
<line x1="451.1" y1="122.8" x2="476.7" y2="114.4" stroke="rgb(0,0,0)"  stroke-width="2.0"/>
<line x1="438.7" y1="160.8" x2="454.6" y2="182.6" stroke="rgb(0,0,0)"  stroke-width="2.0"/>
<line x1="398.7" y1="160.8" x2="382.8" y2="182.6" stroke="rgb(0,0,0)"  stroke-width="2.0"/>
<line x1="233.2" y1="160.8" x2="249.0" y2="182.6" stroke="rgb(0,0,0)"  stroke-width="2.0"/>
<line x1="180.8" y1="122.8" x2="142.8" y2="110.4" stroke="rgb(0,0,0)"  stroke-width="2.0"/>
<line x1="78.0" y1="110.4" x2="52.4" y2="118.7" stroke="rgb(0,0,0)"  stroke-width="2.0"/>
<line x1="90.4" y1="72.4" x2="74.5" y2="50.5" stroke="rgb(0,0,0)"  stroke-width="2.0"/>
<line x1="335.9" y1="72.4" x2="348.3" y2="110.4" stroke="rgb(0,0,0)"  stroke-width="2.0"/>
<line x1="330.9" y1="80.3" x2="339.6" y2="106.9" stroke="rgb(0,0,0)"  stroke-width="2.0"/>
<line x1="348.3" y1="110.4" x2="326.4" y2="126.3" stroke="rgb(0,0,0)"  stroke-width="2.0"/>
<line x1="305.4" y1="126.3" x2="283.6" y2="110.4" stroke="rgb(0,0,0)"  stroke-width="2.0"/>
<line x1="283.6" y1="110.4" x2="295.9" y2="72.4" stroke="rgb(0,0,0)"  stroke-width="2.0"/>
<line x1="292.3" y1="106.9" x2="300.9" y2="80.3" stroke="rgb(0,0,0)"  stroke-width="2.0"/>
<line x1="295.9" y1="72.4" x2="335.9" y2="72.4" stroke="rgb(0,0,0)"  stroke-width="2.0"/>
<line x1="451.1" y1="122.8" x2="438.7" y2="160.8" stroke="rgb(0,0,0)"  stroke-width="2.0"/>
<line x1="442.4" y1="126.2" x2="433.7" y2="152.9" stroke="rgb(0,0,0)"  stroke-width="2.0"/>
<line x1="438.7" y1="160.8" x2="398.7" y2="160.8" stroke="rgb(0,0,0)"  stroke-width="2.0"/>
<line x1="398.7" y1="160.8" x2="386.3" y2="122.8" stroke="rgb(0,0,0)"  stroke-width="2.0"/>
<line x1="403.7" y1="152.9" x2="395.0" y2="126.2" stroke="rgb(0,0,0)"  stroke-width="2.0"/>
<line x1="386.3" y1="122.8" x2="408.2" y2="106.9" stroke="rgb(0,0,0)"  stroke-width="2.0"/>
<line x1="429.2" y1="106.9" x2="451.1" y2="122.8" stroke="rgb(0,0,0)"  stroke-width="2.0"/>
<line x1="189.1" y1="148.3" x2="180.8" y2="122.8" stroke="rgb(0,0,0)"  stroke-width="2.0"/>
<line x1="195.3" y1="144.1" x2="189.5" y2="126.2" stroke="rgb(0,0,0)"  stroke-width="2.0"/>
<line x1="180.8" y1="122.8" x2="202.6" y2="106.9" stroke="rgb(0,0,0)"  stroke-width="2.0"/>
<line x1="223.7" y1="106.9" x2="245.5" y2="122.8" stroke="rgb(0,0,0)"  stroke-width="2.0"/>
<line x1="245.5" y1="122.8" x2="233.2" y2="160.8" stroke="rgb(0,0,0)"  stroke-width="2.0"/>
<line x1="236.8" y1="126.2" x2="228.2" y2="152.9" stroke="rgb(0,0,0)"  stroke-width="2.0"/>
<line x1="233.2" y1="160.8" x2="206.2" y2="160.8" stroke="rgb(0,0,0)"  stroke-width="2.0"/>
<line x1="78.0" y1="110.4" x2="90.4" y2="72.4" stroke="rgb(0,0,0)"  stroke-width="2.0"/>
<line x1="86.7" y1="106.9" x2="95.4" y2="80.3" stroke="rgb(0,0,0)"  stroke-width="2.0"/>
<line x1="90.4" y1="72.4" x2="117.4" y2="72.4" stroke="rgb(0,0,0)"  stroke-width="2.0"/>
<line x1="134.5" y1="84.9" x2="142.8" y2="110.4" stroke="rgb(0,0,0)"  stroke-width="2.0"/>
<line x1="128.3" y1="89.0" x2="134.1" y2="106.9" stroke="rgb(0,0,0)"  stroke-width="2.0"/>
<line x1="142.8" y1="110.4" x2="120.9" y2="126.3" stroke="rgb(0,0,0)"  stroke-width="2.0"/>
<line x1="99.9" y1="126.3" x2="78.0" y2="110.4" stroke="rgb(0,0,0)"  stroke-width="2.0"/>
<text x="124.402940" y="80.360680" fill="rgb(12,12,255)"  stroke="rgb(12,12,255)" stroke-width="1" font-size="16" >N</text>
<text x="48.891530" y="48.000000" fill="rgb(255,12,12)"  stroke="rgb(255,12,12)" stroke-width="1" font-size="16" >HO</text>
<text x="34.000000" y="130.763620" fill="rgb(191,191,191)"  stroke="rgb(191,191,191)" stroke-width="1" font-size="16" >H</text>
<text x="104.402940" y="141.914351" fill="rgb(178,178,0)"  stroke="rgb(178,178,0)" stroke-width="1" font-size="16" >S</text>
<text x="207.166561" y="107.252210" fill="rgb(178,178,0)"  stroke="rgb(178,178,0)" stroke-width="1" font-size="16" >S</text>
<text x="187.166561" y="168.805881" fill="rgb(12,12,255)"  stroke="rgb(12,12,255)" stroke-width="1" font-size="16" >N</text>
<text x="250.677971" y="201.166561" fill="rgb(255,12,12)"  stroke="rgb(255,12,12)" stroke-width="1" font-size="16" >OH</text>
<text x="357.182391" y="201.166561" fill="rgb(255,12,12)"  stroke="rgb(255,12,12)" stroke-width="1" font-size="16" >HO</text>
<text x="456.205211" y="201.166561" fill="rgb(255,12,12)"  stroke="rgb(255,12,12)" stroke-width="1" font-size="16" >OH</text>
<text x="483.096741" y="118.402940" fill="rgb(191,191,191)"  stroke="rgb(191,191,191)" stroke-width="1" font-size="16" >H</text>
<text x="412.693801" y="107.252210" fill="rgb(178,178,0)"  stroke="rgb(178,178,0)" stroke-width="1" font-size="16" >S</text>
<text x="309.930181" y="141.914351" fill="rgb(178,178,0)"  stroke="rgb(178,178,0)" stroke-width="1" font-size="16" >S</text>
<text x="353.441591" y="48.000000" fill="rgb(255,12,12)"  stroke="rgb(255,12,12)" stroke-width="1" font-size="16" >OH</text>
<text x="254.418771" y="48.000000" fill="rgb(255,12,12)"  stroke="rgb(255,12,12)" stroke-width="1" font-size="16" >HO</text>
</svg>
</g>
<text font-size="18.000000" fill ="black" font-family="sans-serif"
x="10.000000" y="20.000000" ></text>
</svg>
