<?xml version="1.0"?>
<svg version="1.1" id="topsvg"
xmlns="http://www.w3.org/2000/svg" xmlns:xlink="http://www.w3.org/1999/xlink"
xmlns:cml="http://www.xml-cml.org/schema" x="0" y="0" width="200px" height="200px" viewBox="0 0 100 100">
<title> - Open Babel Depiction</title>
<rect x="0" y="0" width="100" height="100" fill="white"/>
<g transform="translate(0,0)">
<svg width="100" height="100" x="0" y="0" viewBox="0 0 466.2 240.598"
font-family="sans-serif" stroke="rgb(0,0,0)" stroke-width="2"  stroke-linecap="round">
<line x1="154.7" y1="122.4" x2="188.5" y2="142.0" stroke="rgb(0,0,0)"  stroke-width="2.0"/>
<line x1="290.0" y1="109.4" x2="290.0" y2="83.4" stroke="rgb(0,0,0)"  stroke-width="2.0"/>
<line x1="290.0" y1="80.4" x2="316.1" y2="80.3" stroke="rgb(0,0,0)"  stroke-width="2.0"/>
<line x1="290.0" y1="86.4" x2="316.1" y2="86.3" stroke="rgb(0,0,0)"  stroke-width="2.0"/>
<line x1="290.0" y1="83.4" x2="277.0" y2="60.8" stroke="rgb(0,0,0)"  stroke-width="2.0"/>
<line x1="257.5" y1="49.5" x2="244.4" y2="49.5" stroke="rgb(0,0,0)"  stroke-width="2.0"/>
<line x1="391.6" y1="142.0" x2="414.9" y2="128.5" stroke="rgb(0,0,0)"  stroke-width="2.0"/>
<line x1="128.5" y1="151.5" x2="136.6" y2="176.3" stroke="rgb(0,0,0)"  stroke-width="2.0"/>
<line x1="90.3" y1="143.4" x2="72.9" y2="162.7" stroke="rgb(0,0,0)"  stroke-width="2.0"/>
<line x1="78.2" y1="106.2" x2="52.7" y2="100.8" stroke="rgb(0,0,0)"  stroke-width="2.0"/>
<line x1="104.4" y1="77.2" x2="96.3" y2="52.4" stroke="rgb(0,0,0)"  stroke-width="2.0"/>
<line x1="142.6" y1="85.3" x2="160.0" y2="65.9" stroke="rgb(0,0,0)"  stroke-width="2.0"/>
<line x1="323.9" y1="142.0" x2="323.9" y2="181.1" stroke="rgb(0,0,0)"  stroke-width="2.0"/>
<line x1="323.9" y1="181.1" x2="256.2" y2="181.1" stroke="rgb(0,0,0)"  stroke-width="2.0"/>
<line x1="256.2" y1="181.1" x2="256.2" y2="142.0" stroke="rgb(0,0,0)"  stroke-width="2.0"/>
<line x1="263.4" y1="175.1" x2="263.4" y2="148.0" stroke="rgb(0,0,0)"  stroke-width="2.0"/>
<line x1="256.2" y1="142.0" x2="278.8" y2="128.9" stroke="rgb(0,0,0)"  stroke-width="2.0"/>
<line x1="301.3" y1="128.9" x2="323.9" y2="142.0" stroke="rgb(0,0,0)"  stroke-width="2.0"/>
<line x1="256.2" y1="181.1" x2="222.3" y2="200.6" stroke="rgb(0,0,0)"  stroke-width="2.0"/>
<line x1="222.3" y1="200.6" x2="188.5" y2="181.1" stroke="rgb(0,0,0)"  stroke-width="2.0"/>
<line x1="220.7" y1="191.4" x2="197.3" y2="177.8" stroke="rgb(0,0,0)"  stroke-width="2.0"/>
<line x1="188.5" y1="181.1" x2="188.5" y2="142.0" stroke="rgb(0,0,0)"  stroke-width="2.0"/>
<line x1="188.5" y1="142.0" x2="222.3" y2="122.4" stroke="rgb(0,0,0)"  stroke-width="2.0"/>
<line x1="197.3" y1="145.2" x2="220.7" y2="131.7" stroke="rgb(0,0,0)"  stroke-width="2.0"/>
<line x1="222.3" y1="122.4" x2="256.2" y2="142.0" stroke="rgb(0,0,0)"  stroke-width="2.0"/>
<line x1="357.7" y1="122.4" x2="323.9" y2="142.0" stroke="rgb(0,0,0)"  stroke-width="2.0"/>
<line x1="356.1" y1="131.7" x2="332.7" y2="145.2" stroke="rgb(0,0,0)"  stroke-width="2.0"/>
<line x1="323.9" y1="181.1" x2="357.7" y2="200.6" stroke="rgb(0,0,0)"  stroke-width="2.0"/>
<line x1="332.7" y1="177.8" x2="356.1" y2="191.4" stroke="rgb(0,0,0)"  stroke-width="2.0"/>
<line x1="357.7" y1="200.6" x2="391.6" y2="181.0" stroke="rgb(0,0,0)"  stroke-width="2.0"/>
<line x1="391.6" y1="181.0" x2="391.6" y2="142.0" stroke="rgb(0,0,0)"  stroke-width="2.0"/>
<line x1="384.4" y1="175.1" x2="384.4" y2="148.0" stroke="rgb(0,0,0)"  stroke-width="2.0"/>
<line x1="391.6" y1="142.0" x2="357.7" y2="122.4" stroke="rgb(0,0,0)"  stroke-width="2.0"/>
<line x1="90.3" y1="143.4" x2="78.2" y2="106.2" stroke="rgb(0,0,0)"  stroke-width="2.0"/>
<line x1="95.3" y1="135.4" x2="86.9" y2="109.7" stroke="rgb(0,0,0)"  stroke-width="2.0"/>
<line x1="78.2" y1="106.2" x2="104.4" y2="77.2" stroke="rgb(0,0,0)"  stroke-width="2.0"/>
<line x1="104.4" y1="77.2" x2="142.6" y2="85.3" stroke="rgb(0,0,0)"  stroke-width="2.0"/>
<line x1="108.7" y1="85.4" x2="135.2" y2="91.1" stroke="rgb(0,0,0)"  stroke-width="2.0"/>
<line x1="142.6" y1="85.3" x2="154.7" y2="122.4" stroke="rgb(0,0,0)"  stroke-width="2.0"/>
<line x1="154.7" y1="122.4" x2="128.5" y2="151.5" stroke="rgb(0,0,0)"  stroke-width="2.0"/>
<line x1="145.3" y1="122.1" x2="127.2" y2="142.2" stroke="rgb(0,0,0)"  stroke-width="2.0"/>
<line x1="128.5" y1="151.5" x2="90.3" y2="143.4" stroke="rgb(0,0,0)"  stroke-width="2.0"/>
<text x="162.717145" y="64.239611" fill="rgb(127,178,255)"  stroke="rgb(127,178,255)" stroke-width="1" font-size="16" >F</text>
<text x="86.281659" y="48.000000" fill="rgb(127,178,255)"  stroke="rgb(127,178,255)" stroke-width="1" font-size="16" >F</text>
<text x="34.000000" y="106.075267" fill="rgb(191,191,191)"  stroke="rgb(191,191,191)" stroke-width="1" font-size="16" >H</text>
<text x="58.153827" y="180.390145" fill="rgb(127,178,255)"  stroke="rgb(127,178,255)" stroke-width="1" font-size="16" >F</text>
<text x="134.589313" y="196.629756" fill="rgb(127,178,255)"  stroke="rgb(127,178,255)" stroke-width="1" font-size="16" >F</text>
<text x="420.200156" y="129.948122" fill="rgb(191,191,191)"  stroke="rgb(191,191,191)" stroke-width="1" font-size="16" >H</text>
<text x="205.395713" y="57.527482" fill="rgb(102,102,102)"  stroke="rgb(102,102,102)" stroke-width="1" font-size="16" >H</text>
<text x="217.395713" y="61.207482" fill="rgb(102,102,102)"  stroke="rgb(102,102,102)" stroke-width="1" font-size="13" >3</text>
<text x="223.895713" y="57.527482" fill="rgb(102,102,102)"  stroke="rgb(102,102,102)" stroke-width="1" font-size="16" >C</text>
<text x="264.466508" y="57.520042" fill="rgb(255,12,12)"  stroke="rgb(255,12,12)" stroke-width="1" font-size="16" >O</text>
<text x="323.079145" y="91.345183" fill="rgb(255,12,12)"  stroke="rgb(255,12,12)" stroke-width="1" font-size="16" >O</text>
<text x="284.015790" y="130.423419" fill="rgb(12,12,255)"  stroke="rgb(12,12,255)" stroke-width="1" font-size="16" >N</text>
</svg>
</g>
<text font-size="18.000000" fill ="black" font-family="sans-serif"
x="10.000000" y="20.000000" ></text>
</svg>
