<?xml version="1.0"?>
<svg version="1.1" id="topsvg"
xmlns="http://www.w3.org/2000/svg" xmlns:xlink="http://www.w3.org/1999/xlink"
xmlns:cml="http://www.xml-cml.org/schema" x="0" y="0" width="200px" height="200px" viewBox="0 0 100 100">
<title> - Open Babel Depiction</title>
<rect x="0" y="0" width="100" height="100" fill="white"/>
<g transform="translate(0,0)">
<svg width="100" height="100" x="0" y="0" viewBox="0 0 426.627 497.239"
font-family="sans-serif" stroke="rgb(0,0,0)" stroke-width="2"  stroke-linecap="round">
<line x1="219.6" y1="211.0" x2="198.7" y2="247.1" stroke="rgb(0,0,0)"  stroke-width="2.0"/>
<line x1="157.2" y1="251.5" x2="137.9" y2="230.1" stroke="rgb(0,0,0)"  stroke-width="2.0"/>
<line x1="112.3" y1="313.2" x2="87.4" y2="298.8" stroke="rgb(0,0,0)"  stroke-width="2.0"/>
<line x1="64.9" y1="298.8" x2="51.3" y2="306.7" stroke="rgb(0,0,0)"  stroke-width="2.0"/>
<line x1="98.3" y1="421.1" x2="83.9" y2="446.0" stroke="rgb(0,0,0)"  stroke-width="2.0"/>
<line x1="139.8" y1="416.7" x2="159.1" y2="438.1" stroke="rgb(0,0,0)"  stroke-width="2.0"/>
<line x1="184.7" y1="355.0" x2="209.6" y2="369.4" stroke="rgb(0,0,0)"  stroke-width="2.0"/>
<line x1="220.8" y1="388.9" x2="220.8" y2="404.6" stroke="rgb(0,0,0)"  stroke-width="2.0"/>
<line x1="326.6" y1="173.3" x2="341.0" y2="198.2" stroke="rgb(0,0,0)"  stroke-width="2.0"/>
<line x1="321.4" y1="176.3" x2="335.8" y2="201.2" stroke="rgb(0,0,0)"  stroke-width="2.0"/>
<line x1="357.9" y1="138.6" x2="373.6" y2="138.6" stroke="rgb(0,0,0)"  stroke-width="2.0"/>
<line x1="321.4" y1="101.0" x2="335.8" y2="76.1" stroke="rgb(0,0,0)"  stroke-width="2.0"/>
<line x1="326.6" y1="104.0" x2="341.0" y2="79.1" stroke="rgb(0,0,0)"  stroke-width="2.0"/>
<line x1="260.3" y1="78.9" x2="270.8" y2="52.1" stroke="rgb(0,0,0)"  stroke-width="2.0"/>
<line x1="177.3" y1="111.0" x2="163.4" y2="85.8" stroke="rgb(0,0,0)"  stroke-width="2.0"/>
<line x1="182.6" y1="108.1" x2="168.7" y2="82.9" stroke="rgb(0,0,0)"  stroke-width="2.0"/>
<line x1="149.6" y1="132.0" x2="134.1" y2="129.4" stroke="rgb(0,0,0)"  stroke-width="2.0"/>
<line x1="172.8" y1="165.5" x2="151.3" y2="184.6" stroke="rgb(0,0,0)"  stroke-width="2.0"/>
<line x1="168.8" y1="161.0" x2="147.4" y2="180.1" stroke="rgb(0,0,0)"  stroke-width="2.0"/>
<line x1="148.5" y1="292.3" x2="184.7" y2="313.2" stroke="rgb(0,0,0)"  stroke-width="2.0"/>
<line x1="184.7" y1="313.2" x2="206.0" y2="294.0" stroke="rgb(0,0,0)"  stroke-width="2.0"/>
<line x1="210.4" y1="273.4" x2="198.7" y2="247.1" stroke="rgb(0,0,0)"  stroke-width="2.0"/>
<line x1="198.7" y1="247.1" x2="157.2" y2="251.5" stroke="rgb(0,0,0)"  stroke-width="2.0"/>
<line x1="193.5" y1="254.9" x2="163.9" y2="258.0" stroke="rgb(0,0,0)"  stroke-width="2.0"/>
<line x1="157.2" y1="251.5" x2="148.5" y2="292.3" stroke="rgb(0,0,0)"  stroke-width="2.0"/>
<line x1="98.3" y1="421.1" x2="139.8" y2="416.7" stroke="rgb(0,0,0)"  stroke-width="2.0"/>
<line x1="103.5" y1="413.3" x2="133.1" y2="410.2" stroke="rgb(0,0,0)"  stroke-width="2.0"/>
<line x1="139.8" y1="416.7" x2="148.5" y2="375.9" stroke="rgb(0,0,0)"  stroke-width="2.0"/>
<line x1="148.5" y1="375.9" x2="112.3" y2="355.0" stroke="rgb(0,0,0)"  stroke-width="2.0"/>
<line x1="139.7" y1="379.1" x2="113.9" y2="364.2" stroke="rgb(0,0,0)"  stroke-width="2.0"/>
<line x1="112.3" y1="355.0" x2="91.0" y2="374.2" stroke="rgb(0,0,0)"  stroke-width="2.0"/>
<line x1="86.6" y1="394.8" x2="98.3" y2="421.1" stroke="rgb(0,0,0)"  stroke-width="2.0"/>
<line x1="148.5" y1="375.9" x2="184.7" y2="355.0" stroke="rgb(0,0,0)"  stroke-width="2.0"/>
<line x1="184.7" y1="355.0" x2="184.7" y2="313.2" stroke="rgb(0,0,0)"  stroke-width="2.0"/>
<line x1="177.5" y1="349.0" x2="177.5" y2="319.2" stroke="rgb(0,0,0)"  stroke-width="2.0"/>
<line x1="148.5" y1="292.3" x2="112.3" y2="313.2" stroke="rgb(0,0,0)"  stroke-width="2.0"/>
<line x1="146.9" y1="301.6" x2="121.1" y2="316.5" stroke="rgb(0,0,0)"  stroke-width="2.0"/>
<line x1="112.3" y1="313.2" x2="112.3" y2="355.0" stroke="rgb(0,0,0)"  stroke-width="2.0"/>
<line x1="282.2" y1="174.8" x2="261.3" y2="138.6" stroke="rgb(0,0,0)"  stroke-width="2.0"/>
<line x1="273.0" y1="173.2" x2="258.1" y2="147.4" stroke="rgb(0,0,0)"  stroke-width="2.0"/>
<line x1="261.3" y1="138.6" x2="219.6" y2="138.6" stroke="rgb(0,0,0)"  stroke-width="2.0"/>
<line x1="219.6" y1="138.6" x2="198.7" y2="174.8" stroke="rgb(0,0,0)"  stroke-width="2.0"/>
<line x1="222.8" y1="147.4" x2="207.9" y2="173.2" stroke="rgb(0,0,0)"  stroke-width="2.0"/>
<line x1="198.7" y1="174.8" x2="219.6" y2="211.0" stroke="rgb(0,0,0)"  stroke-width="2.0"/>
<line x1="219.6" y1="211.0" x2="261.3" y2="211.0" stroke="rgb(0,0,0)"  stroke-width="2.0"/>
<line x1="225.6" y1="203.8" x2="255.3" y2="203.8" stroke="rgb(0,0,0)"  stroke-width="2.0"/>
<line x1="261.3" y1="211.0" x2="282.2" y2="174.8" stroke="rgb(0,0,0)"  stroke-width="2.0"/>
<line x1="324.0" y1="102.5" x2="282.2" y2="102.5" stroke="rgb(0,0,0)"  stroke-width="2.0"/>
<line x1="282.2" y1="102.5" x2="261.3" y2="138.6" stroke="rgb(0,0,0)"  stroke-width="2.0"/>
<line x1="282.2" y1="174.8" x2="324.0" y2="174.8" stroke="rgb(0,0,0)"  stroke-width="2.0"/>
<line x1="324.0" y1="174.8" x2="338.4" y2="149.9" stroke="rgb(0,0,0)"  stroke-width="2.0"/>
<line x1="338.4" y1="127.4" x2="324.0" y2="102.5" stroke="rgb(0,0,0)"  stroke-width="2.0"/>
<line x1="228.2" y1="81.3" x2="210.1" y2="107.9" stroke="rgb(0,0,0)"  stroke-width="2.0"/>
<line x1="230.8" y1="90.3" x2="219.4" y2="107.0" stroke="rgb(0,0,0)"  stroke-width="2.0"/>
<line x1="210.1" y1="107.9" x2="219.6" y2="138.6" stroke="rgb(0,0,0)"  stroke-width="2.0"/>
<line x1="282.2" y1="102.5" x2="260.3" y2="78.9" stroke="rgb(0,0,0)"  stroke-width="2.0"/>
<line x1="272.9" y1="103.0" x2="259.1" y2="88.2" stroke="rgb(0,0,0)"  stroke-width="2.0"/>
<line x1="260.3" y1="78.9" x2="228.2" y2="81.3" stroke="rgb(0,0,0)"  stroke-width="2.0"/>
<line x1="166.0" y1="146.7" x2="170.8" y2="163.2" stroke="rgb(0,0,0)"  stroke-width="2.0"/>
<line x1="170.8" y1="163.2" x2="198.7" y2="174.8" stroke="rgb(0,0,0)"  stroke-width="2.0"/>
<line x1="210.1" y1="107.9" x2="179.9" y2="109.6" stroke="rgb(0,0,0)"  stroke-width="2.0"/>
<line x1="179.9" y1="109.6" x2="170.0" y2="123.6" stroke="rgb(0,0,0)"  stroke-width="2.0"/>
<text x="338.867392" y="218.964881" fill="rgb(255,12,12)"  stroke="rgb(255,12,12)" stroke-width="1" font-size="16" >O</text>
<text x="338.867392" y="146.634889" fill="rgb(12,12,255)"  stroke="rgb(12,12,255)" stroke-width="1" font-size="16" >N</text>
<text x="382.627132" y="146.634889" fill="rgb(102,102,102)"  stroke="rgb(102,102,102)" stroke-width="1" font-size="16" >CH</text>
<text x="406.627132" y="150.314889" fill="rgb(102,102,102)"  stroke="rgb(102,102,102)" stroke-width="1" font-size="13" >3</text>
<text x="338.867392" y="74.304898" fill="rgb(255,12,12)"  stroke="rgb(255,12,12)" stroke-width="1" font-size="16" >O</text>
<text x="269.589653" y="48.000000" fill="rgb(191,191,191)"  stroke="rgb(191,191,191)" stroke-width="1" font-size="16" >H</text>
<text x="153.745382" y="81.004874" fill="rgb(255,12,12)"  stroke="rgb(255,12,12)" stroke-width="1" font-size="16" >O</text>
<text x="156.443670" y="142.195109" fill="rgb(12,12,255)"  stroke="rgb(12,12,255)" stroke-width="1" font-size="16" >N</text>
<text x="95.276064" y="135.187679" fill="rgb(102,102,102)"  stroke="rgb(102,102,102)" stroke-width="1" font-size="16" >H</text>
<text x="107.276064" y="138.867679" fill="rgb(102,102,102)"  stroke="rgb(102,102,102)" stroke-width="1" font-size="13" >3</text>
<text x="113.776064" y="135.187679" fill="rgb(102,102,102)"  stroke="rgb(102,102,102)" stroke-width="1" font-size="16" >C</text>
<text x="133.652659" y="199.046630" fill="rgb(255,12,12)"  stroke="rgb(255,12,12)" stroke-width="1" font-size="16" >O</text>
<text x="71.401803" y="465.238895" fill="rgb(191,191,191)"  stroke="rgb(191,191,191)" stroke-width="1" font-size="16" >H</text>
<text x="123.234605" y="228.461423" fill="rgb(191,191,191)"  stroke="rgb(191,191,191)" stroke-width="1" font-size="16" >H</text>
<text x="70.164996" y="300.342148" fill="rgb(255,12,12)"  stroke="rgb(255,12,12)" stroke-width="1" font-size="16" >O</text>
<text x="14.000000" y="321.222018" fill="rgb(102,102,102)"  stroke="rgb(102,102,102)" stroke-width="1" font-size="16" >H</text>
<text x="26.000000" y="324.902018" fill="rgb(102,102,102)"  stroke="rgb(102,102,102)" stroke-width="1" font-size="13" >3</text>
<text x="32.500000" y="321.222018" fill="rgb(102,102,102)"  stroke="rgb(102,102,102)" stroke-width="1" font-size="16" >C</text>
<text x="75.296457" y="390.924478" fill="rgb(178,178,0)"  stroke="rgb(178,178,0)" stroke-width="1" font-size="16" >S</text>
<text x="161.755369" y="455.742352" fill="rgb(191,191,191)"  stroke="rgb(191,191,191)" stroke-width="1" font-size="16" >H</text>
<text x="214.824979" y="383.861628" fill="rgb(255,12,12)"  stroke="rgb(255,12,12)" stroke-width="1" font-size="16" >O</text>
<text x="216.824979" y="425.621368" fill="rgb(102,102,102)"  stroke="rgb(102,102,102)" stroke-width="1" font-size="16" >CH</text>
<text x="240.824979" y="429.301368" fill="rgb(102,102,102)"  stroke="rgb(102,102,102)" stroke-width="1" font-size="13" >3</text>
<text x="209.693518" y="293.279298" fill="rgb(178,178,0)"  stroke="rgb(178,178,0)" stroke-width="1" font-size="16" >S</text>
</svg>
</g>
<text font-size="18.000000" fill ="black" font-family="sans-serif"
x="10.000000" y="20.000000" ></text>
</svg>
