<?xml version="1.0"?>
<svg version="1.1" id="topsvg"
xmlns="http://www.w3.org/2000/svg" xmlns:xlink="http://www.w3.org/1999/xlink"
xmlns:cml="http://www.xml-cml.org/schema" x="0" y="0" width="200px" height="200px" viewBox="0 0 100 100">
<title> - Open Babel Depiction</title>
<rect x="0" y="0" width="100" height="100" fill="white"/>
<g transform="translate(0,0)">
<svg width="100" height="100" x="0" y="0" viewBox="0 0 504.9 289.53"
font-family="sans-serif" stroke="rgb(0,0,0)" stroke-width="2"  stroke-linecap="round">
<line x1="275.1" y1="119.5" x2="236.3" y2="119.5" stroke="rgb(0,0,0)"  stroke-width="2.0"/>
<line x1="138.0" y1="86.0" x2="124.8" y2="63.3" stroke="rgb(0,0,0)"  stroke-width="2.0"/>
<line x1="105.9" y1="48.0" x2="93.2" y2="44.0" stroke="rgb(0,0,0)"  stroke-width="2.0"/>
<line x1="138.0" y1="86.0" x2="111.7" y2="86.0" stroke="rgb(0,0,0)"  stroke-width="2.0"/>
<line x1="89.1" y1="77.3" x2="79.2" y2="68.4" stroke="rgb(0,0,0)"  stroke-width="2.0"/>
<line x1="76.6" y1="167.5" x2="51.2" y2="182.5" stroke="rgb(0,0,0)"  stroke-width="2.0"/>
<line x1="297.9" y1="88.1" x2="289.9" y2="63.5" stroke="rgb(0,0,0)"  stroke-width="2.0"/>
<line x1="334.9" y1="138.9" x2="366.3" y2="161.8" stroke="rgb(0,0,0)"  stroke-width="2.0"/>
<line x1="426.1" y1="181.2" x2="451.9" y2="181.2" stroke="rgb(0,0,0)"  stroke-width="2.0"/>
<line x1="403.2" y1="212.6" x2="411.2" y2="237.2" stroke="rgb(0,0,0)"  stroke-width="2.0"/>
<line x1="177.3" y1="86.0" x2="177.3" y2="154.0" stroke="rgb(0,0,0)"  stroke-width="2.0"/>
<line x1="184.5" y1="92.0" x2="184.5" y2="148.0" stroke="rgb(0,0,0)"  stroke-width="2.0"/>
<line x1="177.3" y1="154.0" x2="203.6" y2="154.0" stroke="rgb(0,0,0)"  stroke-width="2.0"/>
<line x1="223.0" y1="142.7" x2="236.3" y2="119.5" stroke="rgb(0,0,0)"  stroke-width="2.0"/>
<line x1="236.3" y1="119.5" x2="216.6" y2="86.0" stroke="rgb(0,0,0)"  stroke-width="2.0"/>
<line x1="227.0" y1="118.0" x2="213.4" y2="94.8" stroke="rgb(0,0,0)"  stroke-width="2.0"/>
<line x1="216.6" y1="86.0" x2="177.3" y2="86.0" stroke="rgb(0,0,0)"  stroke-width="2.0"/>
<line x1="76.6" y1="167.5" x2="100.3" y2="177.9" stroke="rgb(0,0,0)"  stroke-width="2.0"/>
<line x1="120.9" y1="173.4" x2="138.0" y2="154.0" stroke="rgb(0,0,0)"  stroke-width="2.0"/>
<line x1="138.0" y1="154.0" x2="118.4" y2="120.5" stroke="rgb(0,0,0)"  stroke-width="2.0"/>
<line x1="128.8" y1="152.5" x2="115.2" y2="129.4" stroke="rgb(0,0,0)"  stroke-width="2.0"/>
<line x1="118.4" y1="120.5" x2="80.4" y2="128.9" stroke="rgb(0,0,0)"  stroke-width="2.0"/>
<line x1="80.4" y1="128.9" x2="76.6" y2="167.5" stroke="rgb(0,0,0)"  stroke-width="2.0"/>
<line x1="87.0" y1="135.6" x2="84.4" y2="162.3" stroke="rgb(0,0,0)"  stroke-width="2.0"/>
<line x1="334.9" y1="112.9" x2="334.9" y2="138.9" stroke="rgb(0,0,0)"  stroke-width="2.0"/>
<line x1="327.7" y1="115.0" x2="327.7" y2="132.9" stroke="rgb(0,0,0)"  stroke-width="2.0"/>
<line x1="334.9" y1="138.9" x2="310.3" y2="146.9" stroke="rgb(0,0,0)"  stroke-width="2.0"/>
<line x1="290.3" y1="140.4" x2="275.1" y2="119.5" stroke="rgb(0,0,0)"  stroke-width="2.0"/>
<line x1="275.1" y1="119.5" x2="297.9" y2="88.1" stroke="rgb(0,0,0)"  stroke-width="2.0"/>
<line x1="284.5" y1="118.9" x2="300.2" y2="97.2" stroke="rgb(0,0,0)"  stroke-width="2.0"/>
<line x1="297.9" y1="88.1" x2="322.5" y2="96.1" stroke="rgb(0,0,0)"  stroke-width="2.0"/>
<line x1="426.1" y1="181.2" x2="403.2" y2="212.6" stroke="rgb(0,0,0)"  stroke-width="2.0"/>
<line x1="416.7" y1="181.8" x2="400.9" y2="203.5" stroke="rgb(0,0,0)"  stroke-width="2.0"/>
<line x1="403.2" y1="212.6" x2="378.7" y2="204.6" stroke="rgb(0,0,0)"  stroke-width="2.0"/>
<line x1="366.3" y1="187.8" x2="366.3" y2="161.8" stroke="rgb(0,0,0)"  stroke-width="2.0"/>
<line x1="373.5" y1="185.7" x2="373.5" y2="167.8" stroke="rgb(0,0,0)"  stroke-width="2.0"/>
<line x1="366.3" y1="161.8" x2="390.9" y2="153.8" stroke="rgb(0,0,0)"  stroke-width="2.0"/>
<line x1="410.9" y1="160.3" x2="426.1" y2="181.2" stroke="rgb(0,0,0)"  stroke-width="2.0"/>
<line x1="138.0" y1="154.0" x2="177.3" y2="154.0" stroke="rgb(0,0,0)"  stroke-width="2.0"/>
<line x1="177.3" y1="86.0" x2="138.0" y2="86.0" stroke="rgb(0,0,0)"  stroke-width="2.0"/>
<line x1="138.0" y1="86.0" x2="118.4" y2="120.5" stroke="rgb(0,0,0)"  stroke-width="2.0"/>
<text x="360.292558" y="208.589570" fill="rgb(12,12,255)"  stroke="rgb(12,12,255)" stroke-width="1" font-size="16" >N</text>
<text x="409.233175" y="257.530187" fill="rgb(255,12,12)"  stroke="rgb(255,12,12)" stroke-width="1" font-size="16" >OH</text>
<text x="458.899887" y="189.169823" fill="rgb(191,191,191)"  stroke="rgb(191,191,191)" stroke-width="1" font-size="16" >H</text>
<text x="397.231111" y="157.748012" fill="rgb(178,178,0)"  stroke="rgb(178,178,0)" stroke-width="1" font-size="16" >S</text>
<text x="291.932194" y="158.922858" fill="rgb(178,178,0)"  stroke="rgb(178,178,0)" stroke-width="1" font-size="16" >S</text>
<text x="328.870747" y="108.081301" fill="rgb(12,12,255)"  stroke="rgb(12,12,255)" stroke-width="1" font-size="16" >N</text>
<text x="267.930130" y="59.140683" fill="rgb(255,12,12)"  stroke="rgb(255,12,12)" stroke-width="1" font-size="16" >HO</text>
<text x="106.234682" y="191.082673" fill="rgb(178,178,0)"  stroke="rgb(178,178,0)" stroke-width="1" font-size="16" >S</text>
<text x="34.000000" y="197.035873" fill="rgb(191,191,191)"  stroke="rgb(191,191,191)" stroke-width="1" font-size="16" >H</text>
<text x="43.514471" y="67.705743" fill="rgb(102,102,102)"  stroke="rgb(102,102,102)" stroke-width="1" font-size="16" >H</text>
<text x="55.514471" y="71.385743" fill="rgb(102,102,102)"  stroke="rgb(102,102,102)" stroke-width="1" font-size="13" >3</text>
<text x="62.014471" y="67.705743" fill="rgb(102,102,102)"  stroke="rgb(102,102,102)" stroke-width="1" font-size="16" >C</text>
<text x="92.719931" y="94.002458" fill="rgb(255,12,12)"  stroke="rgb(255,12,12)" stroke-width="1" font-size="16" >O</text>
<text x="54.851013" y="48.000000" fill="rgb(102,102,102)"  stroke="rgb(102,102,102)" stroke-width="1" font-size="16" >H</text>
<text x="66.851013" y="51.680000" fill="rgb(102,102,102)"  stroke="rgb(102,102,102)" stroke-width="1" font-size="13" >3</text>
<text x="73.351013" y="48.000000" fill="rgb(102,102,102)"  stroke="rgb(102,102,102)" stroke-width="1" font-size="16" >C</text>
<text x="112.264728" y="60.028717" fill="rgb(255,12,12)"  stroke="rgb(255,12,12)" stroke-width="1" font-size="16" >O</text>
<text x="210.607611" y="162.037256" fill="rgb(178,178,0)"  stroke="rgb(178,178,0)" stroke-width="1" font-size="16" >S</text>
</svg>
</g>
<text font-size="18.000000" fill ="black" font-family="sans-serif"
x="10.000000" y="20.000000" ></text>
</svg>
