<?xml version="1.0"?>
<svg version="1.1" id="topsvg"
xmlns="http://www.w3.org/2000/svg" xmlns:xlink="http://www.w3.org/1999/xlink"
xmlns:cml="http://www.xml-cml.org/schema" x="0" y="0" width="200px" height="200px" viewBox="0 0 100 100">
<title> - Open Babel Depiction</title>
<rect x="0" y="0" width="100" height="100" fill="white"/>
<g transform="translate(0,0)">
<svg width="100" height="100" x="0" y="0" viewBox="0 0 452.612 409.958"
font-family="sans-serif" stroke="rgb(0,0,0)" stroke-width="2"  stroke-linecap="round">
<line x1="230.5" y1="145.3" x2="211.7" y2="177.7" stroke="rgb(0,0,0)"  stroke-width="2.0"/>
<line x1="139.0" y1="243.3" x2="103.4" y2="254.8" stroke="rgb(0,0,0)"  stroke-width="2.0"/>
<line x1="106.3" y1="255.5" x2="101.2" y2="279.3" stroke="rgb(0,0,0)"  stroke-width="2.0"/>
<line x1="100.4" y1="254.2" x2="95.4" y2="278.1" stroke="rgb(0,0,0)"  stroke-width="2.0"/>
<line x1="103.4" y1="254.8" x2="85.2" y2="238.5" stroke="rgb(0,0,0)"  stroke-width="2.0"/>
<line x1="63.2" y1="233.8" x2="52.4" y2="237.3" stroke="rgb(0,0,0)"  stroke-width="2.0"/>
<line x1="139.0" y1="243.3" x2="275.9" y2="185.3" stroke="rgb(0,0,0)"  stroke-width="2.0"/>
<line x1="274.4" y1="182.7" x2="295.6" y2="170.5" stroke="rgb(0,0,0)"  stroke-width="2.0"/>
<line x1="277.4" y1="187.9" x2="298.6" y2="175.7" stroke="rgb(0,0,0)"  stroke-width="2.0"/>
<line x1="275.9" y1="185.3" x2="254.8" y2="173.1" stroke="rgb(0,0,0)"  stroke-width="2.0"/>
<line x1="232.3" y1="173.1" x2="222.4" y2="178.8" stroke="rgb(0,0,0)"  stroke-width="2.0"/>
<line x1="178.8" y1="332.8" x2="181.4" y2="357.0" stroke="rgb(0,0,0)"  stroke-width="2.0"/>
<line x1="303.0" y1="159.8" x2="305.6" y2="184.1" stroke="rgb(0,0,0)"  stroke-width="2.0"/>
<line x1="297.1" y1="160.4" x2="299.6" y2="184.7" stroke="rgb(0,0,0)"  stroke-width="2.0"/>
<line x1="340.6" y1="137.8" x2="364.5" y2="142.9" stroke="rgb(0,0,0)"  stroke-width="2.0"/>
<line x1="362.2" y1="140.9" x2="378.6" y2="122.7" stroke="rgb(0,0,0)"  stroke-width="2.0"/>
<line x1="366.7" y1="144.9" x2="383.0" y2="126.7" stroke="rgb(0,0,0)"  stroke-width="2.0"/>
<line x1="364.5" y1="142.9" x2="372.0" y2="166.1" stroke="rgb(0,0,0)"  stroke-width="2.0"/>
<line x1="388.7" y1="181.2" x2="399.9" y2="183.5" stroke="rgb(0,0,0)"  stroke-width="2.0"/>
<line x1="312.6" y1="100.9" x2="324.9" y2="79.8" stroke="rgb(0,0,0)"  stroke-width="2.0"/>
<line x1="240.1" y1="86.4" x2="237.5" y2="62.2" stroke="rgb(0,0,0)"  stroke-width="2.0"/>
<line x1="246.0" y1="85.8" x2="243.5" y2="61.5" stroke="rgb(0,0,0)"  stroke-width="2.0"/>
<line x1="202.5" y1="108.5" x2="178.6" y2="103.4" stroke="rgb(0,0,0)"  stroke-width="2.0"/>
<line x1="180.9" y1="105.4" x2="164.5" y2="123.5" stroke="rgb(0,0,0)"  stroke-width="2.0"/>
<line x1="176.4" y1="101.4" x2="160.1" y2="119.5" stroke="rgb(0,0,0)"  stroke-width="2.0"/>
<line x1="178.6" y1="103.4" x2="171.1" y2="80.2" stroke="rgb(0,0,0)"  stroke-width="2.0"/>
<line x1="175.8" y1="58.1" x2="183.4" y2="49.7" stroke="rgb(0,0,0)"  stroke-width="2.0"/>
<line x1="166.8" y1="218.2" x2="199.2" y2="236.9" stroke="rgb(0,0,0)"  stroke-width="2.0"/>
<line x1="175.6" y1="215.0" x2="197.6" y2="227.7" stroke="rgb(0,0,0)"  stroke-width="2.0"/>
<line x1="199.2" y1="236.9" x2="217.3" y2="220.6" stroke="rgb(0,0,0)"  stroke-width="2.0"/>
<line x1="221.7" y1="200.0" x2="211.7" y2="177.7" stroke="rgb(0,0,0)"  stroke-width="2.0"/>
<line x1="211.7" y1="177.7" x2="174.5" y2="181.6" stroke="rgb(0,0,0)"  stroke-width="2.0"/>
<line x1="206.5" y1="185.5" x2="181.3" y2="188.2" stroke="rgb(0,0,0)"  stroke-width="2.0"/>
<line x1="174.5" y1="181.6" x2="166.8" y2="218.2" stroke="rgb(0,0,0)"  stroke-width="2.0"/>
<line x1="178.8" y1="332.8" x2="196.9" y2="316.4" stroke="rgb(0,0,0)"  stroke-width="2.0"/>
<line x1="201.3" y1="295.8" x2="191.4" y2="273.5" stroke="rgb(0,0,0)"  stroke-width="2.0"/>
<line x1="191.4" y1="273.5" x2="154.2" y2="277.5" stroke="rgb(0,0,0)"  stroke-width="2.0"/>
<line x1="186.2" y1="281.3" x2="160.9" y2="284.0" stroke="rgb(0,0,0)"  stroke-width="2.0"/>
<line x1="154.2" y1="277.5" x2="146.4" y2="314.0" stroke="rgb(0,0,0)"  stroke-width="2.0"/>
<line x1="146.4" y1="314.0" x2="178.8" y2="332.8" stroke="rgb(0,0,0)"  stroke-width="2.0"/>
<line x1="155.2" y1="310.8" x2="177.2" y2="323.5" stroke="rgb(0,0,0)"  stroke-width="2.0"/>
<line x1="300.1" y1="160.1" x2="318.2" y2="143.8" stroke="rgb(0,0,0)"  stroke-width="2.0"/>
<line x1="322.6" y1="123.2" x2="312.6" y2="100.9" stroke="rgb(0,0,0)"  stroke-width="2.0"/>
<line x1="312.6" y1="100.9" x2="275.4" y2="104.8" stroke="rgb(0,0,0)"  stroke-width="2.0"/>
<line x1="307.4" y1="108.7" x2="282.2" y2="111.4" stroke="rgb(0,0,0)"  stroke-width="2.0"/>
<line x1="275.4" y1="104.8" x2="267.7" y2="141.4" stroke="rgb(0,0,0)"  stroke-width="2.0"/>
<line x1="267.7" y1="141.4" x2="300.1" y2="160.1" stroke="rgb(0,0,0)"  stroke-width="2.0"/>
<line x1="275.4" y1="104.8" x2="243.0" y2="86.1" stroke="rgb(0,0,0)"  stroke-width="2.0"/>
<line x1="243.0" y1="86.1" x2="224.9" y2="102.5" stroke="rgb(0,0,0)"  stroke-width="2.0"/>
<line x1="220.5" y1="123.0" x2="230.5" y2="145.3" stroke="rgb(0,0,0)"  stroke-width="2.0"/>
<line x1="230.5" y1="145.3" x2="267.7" y2="141.4" stroke="rgb(0,0,0)"  stroke-width="2.0"/>
<line x1="235.7" y1="137.6" x2="260.9" y2="134.9" stroke="rgb(0,0,0)"  stroke-width="2.0"/>
<line x1="191.4" y1="273.5" x2="199.2" y2="236.9" stroke="rgb(0,0,0)"  stroke-width="2.0"/>
<line x1="166.8" y1="218.2" x2="139.0" y2="243.3" stroke="rgb(0,0,0)"  stroke-width="2.0"/>
<line x1="139.0" y1="243.3" x2="154.2" y2="277.5" stroke="rgb(0,0,0)"  stroke-width="2.0"/>
<text x="200.602537" y="315.718133" fill="rgb(178,178,0)"  stroke="rgb(178,178,0)" stroke-width="1" font-size="16" >S</text>
<text x="297.971716" y="205.339427" fill="rgb(255,12,12)"  stroke="rgb(255,12,12)" stroke-width="1" font-size="16" >O</text>
<text x="321.863263" y="143.099818" fill="rgb(12,12,255)"  stroke="rgb(12,12,255)" stroke-width="1" font-size="16" >N</text>
<text x="383.490287" y="123.075984" fill="rgb(255,12,12)"  stroke="rgb(255,12,12)" stroke-width="1" font-size="16" >O</text>
<text x="370.017924" y="186.458469" fill="rgb(255,12,12)"  stroke="rgb(255,12,12)" stroke-width="1" font-size="16" >O</text>
<text x="408.611818" y="194.236741" fill="rgb(102,102,102)"  stroke="rgb(102,102,102)" stroke-width="1" font-size="16" >CH</text>
<text x="432.611818" y="197.916741" fill="rgb(102,102,102)"  stroke="rgb(102,102,102)" stroke-width="1" font-size="13" >3</text>
<text x="176.710990" y="377.957742" fill="rgb(191,191,191)"  stroke="rgb(191,191,191)" stroke-width="1" font-size="16" >H</text>
<text x="325.352378" y="76.523538" fill="rgb(191,191,191)"  stroke="rgb(191,191,191)" stroke-width="1" font-size="16" >H</text>
<text x="233.130384" y="56.921148" fill="rgb(255,12,12)"  stroke="rgb(255,12,12)" stroke-width="1" font-size="16" >O</text>
<text x="209.238837" y="119.160757" fill="rgb(12,12,255)"  stroke="rgb(12,12,255)" stroke-width="1" font-size="16" >N</text>
<text x="147.611813" y="139.184591" fill="rgb(255,12,12)"  stroke="rgb(255,12,12)" stroke-width="1" font-size="16" >O</text>
<text x="161.084176" y="75.802106" fill="rgb(255,12,12)"  stroke="rgb(255,12,12)" stroke-width="1" font-size="16" >O</text>
<text x="188.117305" y="48.000000" fill="rgb(102,102,102)"  stroke="rgb(102,102,102)" stroke-width="1" font-size="16" >CH</text>
<text x="212.117305" y="51.680000" fill="rgb(102,102,102)"  stroke="rgb(102,102,102)" stroke-width="1" font-size="13" >3</text>
<text x="89.604212" y="299.429279" fill="rgb(255,12,12)"  stroke="rgb(255,12,12)" stroke-width="1" font-size="16" >O</text>
<text x="220.966319" y="219.914073" fill="rgb(178,178,0)"  stroke="rgb(178,178,0)" stroke-width="1" font-size="16" >S</text>
<text x="69.580378" y="237.802256" fill="rgb(255,12,12)"  stroke="rgb(255,12,12)" stroke-width="1" font-size="16" >O</text>
<text x="14.000000" y="249.363022" fill="rgb(102,102,102)"  stroke="rgb(102,102,102)" stroke-width="1" font-size="16" >H</text>
<text x="26.000000" y="253.043022" fill="rgb(102,102,102)"  stroke="rgb(102,102,102)" stroke-width="1" font-size="13" >3</text>
<text x="32.500000" y="249.363022" fill="rgb(102,102,102)"  stroke="rgb(102,102,102)" stroke-width="1" font-size="16" >C</text>
<text x="302.323290" y="174.609171" fill="rgb(255,12,12)"  stroke="rgb(255,12,12)" stroke-width="1" font-size="16" >O</text>
<text x="237.524803" y="174.609171" fill="rgb(255,12,12)"  stroke="rgb(255,12,12)" stroke-width="1" font-size="16" >O</text>
<text x="185.125560" y="193.314883" fill="rgb(102,102,102)"  stroke="rgb(102,102,102)" stroke-width="1" font-size="16" >H</text>
<text x="197.125560" y="196.994883" fill="rgb(102,102,102)"  stroke="rgb(102,102,102)" stroke-width="1" font-size="13" >3</text>
<text x="203.625560" y="193.314883" fill="rgb(102,102,102)"  stroke="rgb(102,102,102)" stroke-width="1" font-size="16" >C</text>
</svg>
</g>
<text font-size="18.000000" fill ="black" font-family="sans-serif"
x="10.000000" y="20.000000" ></text>
</svg>
