<?xml version="1.0"?>
<svg version="1.1" id="topsvg"
xmlns="http://www.w3.org/2000/svg" xmlns:xlink="http://www.w3.org/1999/xlink"
xmlns:cml="http://www.xml-cml.org/schema" x="0" y="0" width="200px" height="200px" viewBox="0 0 100 100">
<title> - Open Babel Depiction</title>
<rect x="0" y="0" width="100" height="100" fill="white"/>
<g transform="translate(0,0)">
<svg width="100" height="100" x="0" y="0" viewBox="0 0 460.652 308.425"
font-family="sans-serif" stroke="rgb(0,0,0)" stroke-width="2"  stroke-linecap="round">
<line x1="175.1" y1="110.4" x2="213.2" y2="122.8" stroke="rgb(0,0,0)"  stroke-width="2.0"/>
<line x1="297.9" y1="184.3" x2="264.5" y2="206.4" stroke="rgb(0,0,0)"  stroke-width="2.0"/>
<line x1="263.2" y1="209.1" x2="239.0" y2="197.1" stroke="rgb(0,0,0)"  stroke-width="2.0"/>
<line x1="265.9" y1="203.7" x2="241.7" y2="191.7" stroke="rgb(0,0,0)"  stroke-width="2.0"/>
<line x1="264.5" y1="206.4" x2="266.2" y2="233.4" stroke="rgb(0,0,0)"  stroke-width="2.0"/>
<line x1="256.2" y1="253.5" x2="244.5" y2="261.2" stroke="rgb(0,0,0)"  stroke-width="2.0"/>
<line x1="297.9" y1="184.3" x2="326.2" y2="212.6" stroke="rgb(0,0,0)"  stroke-width="2.0"/>
<line x1="329.1" y1="213.4" x2="322.1" y2="239.5" stroke="rgb(0,0,0)"  stroke-width="2.0"/>
<line x1="323.3" y1="211.8" x2="316.3" y2="237.9" stroke="rgb(0,0,0)"  stroke-width="2.0"/>
<line x1="326.2" y1="212.6" x2="352.3" y2="205.6" stroke="rgb(0,0,0)"  stroke-width="2.0"/>
<line x1="374.0" y1="211.4" x2="383.9" y2="221.3" stroke="rgb(0,0,0)"  stroke-width="2.0"/>
<line x1="382.6" y1="122.8" x2="408.3" y2="114.4" stroke="rgb(0,0,0)"  stroke-width="2.0"/>
<line x1="132.8" y1="170.2" x2="148.7" y2="192.0" stroke="rgb(0,0,0)"  stroke-width="2.0"/>
<line x1="128.0" y1="173.7" x2="143.8" y2="195.6" stroke="rgb(0,0,0)"  stroke-width="2.0"/>
<line x1="82.8" y1="182.5" x2="74.5" y2="193.8" stroke="rgb(0,0,0)"  stroke-width="2.0"/>
<line x1="77.1" y1="136.8" x2="51.4" y2="128.4" stroke="rgb(0,0,0)"  stroke-width="2.0"/>
<line x1="79.0" y1="131.1" x2="53.3" y2="122.7" stroke="rgb(0,0,0)"  stroke-width="2.0"/>
<line x1="122.8" y1="72.4" x2="106.9" y2="50.5" stroke="rgb(0,0,0)"  stroke-width="2.0"/>
<line x1="265.5" y1="160.8" x2="277.9" y2="122.8" stroke="rgb(0,0,0)"  stroke-width="2.0"/>
<line x1="260.5" y1="152.9" x2="269.2" y2="126.2" stroke="rgb(0,0,0)"  stroke-width="2.0"/>
<line x1="277.9" y1="122.8" x2="256.0" y2="106.9" stroke="rgb(0,0,0)"  stroke-width="2.0"/>
<line x1="235.0" y1="106.9" x2="213.2" y2="122.8" stroke="rgb(0,0,0)"  stroke-width="2.0"/>
<line x1="213.2" y1="122.8" x2="225.5" y2="160.8" stroke="rgb(0,0,0)"  stroke-width="2.0"/>
<line x1="221.9" y1="126.2" x2="230.5" y2="152.9" stroke="rgb(0,0,0)"  stroke-width="2.0"/>
<line x1="225.5" y1="160.8" x2="265.5" y2="160.8" stroke="rgb(0,0,0)"  stroke-width="2.0"/>
<line x1="382.6" y1="122.8" x2="360.8" y2="106.9" stroke="rgb(0,0,0)"  stroke-width="2.0"/>
<line x1="339.7" y1="106.9" x2="317.9" y2="122.8" stroke="rgb(0,0,0)"  stroke-width="2.0"/>
<line x1="317.9" y1="122.8" x2="330.2" y2="160.8" stroke="rgb(0,0,0)"  stroke-width="2.0"/>
<line x1="326.6" y1="126.2" x2="335.2" y2="152.9" stroke="rgb(0,0,0)"  stroke-width="2.0"/>
<line x1="330.2" y1="160.8" x2="370.2" y2="160.8" stroke="rgb(0,0,0)"  stroke-width="2.0"/>
<line x1="370.2" y1="160.8" x2="382.6" y2="122.8" stroke="rgb(0,0,0)"  stroke-width="2.0"/>
<line x1="365.3" y1="152.9" x2="373.9" y2="126.2" stroke="rgb(0,0,0)"  stroke-width="2.0"/>
<line x1="110.4" y1="110.4" x2="122.8" y2="72.4" stroke="rgb(0,0,0)"  stroke-width="2.0"/>
<line x1="119.1" y1="106.9" x2="127.8" y2="80.3" stroke="rgb(0,0,0)"  stroke-width="2.0"/>
<line x1="122.8" y1="72.4" x2="149.8" y2="72.4" stroke="rgb(0,0,0)"  stroke-width="2.0"/>
<line x1="166.8" y1="84.7" x2="175.1" y2="110.4" stroke="rgb(0,0,0)"  stroke-width="2.0"/>
<line x1="175.1" y1="110.4" x2="142.8" y2="133.9" stroke="rgb(0,0,0)"  stroke-width="2.0"/>
<line x1="166.0" y1="108.1" x2="143.4" y2="124.6" stroke="rgb(0,0,0)"  stroke-width="2.0"/>
<line x1="142.8" y1="133.9" x2="110.4" y2="110.4" stroke="rgb(0,0,0)"  stroke-width="2.0"/>
<line x1="317.9" y1="122.8" x2="277.9" y2="122.8" stroke="rgb(0,0,0)"  stroke-width="2.0"/>
<line x1="265.5" y1="160.8" x2="297.9" y2="184.3" stroke="rgb(0,0,0)"  stroke-width="2.0"/>
<line x1="297.9" y1="184.3" x2="330.2" y2="160.8" stroke="rgb(0,0,0)"  stroke-width="2.0"/>
<line x1="130.4" y1="172.0" x2="103.4" y2="172.0" stroke="rgb(0,0,0)"  stroke-width="2.0"/>
<line x1="86.4" y1="159.6" x2="78.0" y2="133.9" stroke="rgb(0,0,0)"  stroke-width="2.0"/>
<line x1="78.0" y1="133.9" x2="110.4" y2="110.4" stroke="rgb(0,0,0)"  stroke-width="2.0"/>
<line x1="142.8" y1="133.9" x2="130.4" y2="172.0" stroke="rgb(0,0,0)"  stroke-width="2.0"/>
<text x="389.093496" y="238.533072" fill="rgb(102,102,102)"  stroke="rgb(102,102,102)" stroke-width="1" font-size="16" >CH</text>
<text x="413.093496" y="242.213072" fill="rgb(102,102,102)"  stroke="rgb(102,102,102)" stroke-width="1" font-size="13" >3</text>
<text x="156.763620" y="80.360680" fill="rgb(178,178,0)"  stroke="rgb(178,178,0)" stroke-width="1" font-size="16" >S</text>
<text x="93.252210" y="48.000000" fill="rgb(191,191,191)"  stroke="rgb(191,191,191)" stroke-width="1" font-size="16" >H</text>
<text x="34.000000" y="129.553671" fill="rgb(255,12,12)"  stroke="rgb(255,12,12)" stroke-width="1" font-size="16" >O</text>
<text x="40.891530" y="212.317291" fill="rgb(102,102,102)"  stroke="rgb(102,102,102)" stroke-width="1" font-size="16" >H</text>
<text x="52.891530" y="215.997291" fill="rgb(102,102,102)"  stroke="rgb(102,102,102)" stroke-width="1" font-size="13" >3</text>
<text x="59.391530" y="212.317291" fill="rgb(102,102,102)"  stroke="rgb(102,102,102)" stroke-width="1" font-size="16" >C</text>
<text x="84.402940" y="179.956611" fill="rgb(12,12,255)"  stroke="rgb(12,12,255)" stroke-width="1" font-size="16" >N</text>
<text x="147.914351" y="212.317291" fill="rgb(255,12,12)"  stroke="rgb(255,12,12)" stroke-width="1" font-size="16" >O</text>
<text x="344.248600" y="107.252210" fill="rgb(178,178,0)"  stroke="rgb(178,178,0)" stroke-width="1" font-size="16" >S</text>
<text x="414.651540" y="118.402940" fill="rgb(191,191,191)"  stroke="rgb(191,191,191)" stroke-width="1" font-size="16" >H</text>
<text x="358.809224" y="210.248800" fill="rgb(255,12,12)"  stroke="rgb(255,12,12)" stroke-width="1" font-size="16" >O</text>
<text x="309.819430" y="259.238595" fill="rgb(255,12,12)"  stroke="rgb(255,12,12)" stroke-width="1" font-size="16" >O</text>
<text x="207.655369" y="276.425432" fill="rgb(102,102,102)"  stroke="rgb(102,102,102)" stroke-width="1" font-size="16" >H</text>
<text x="219.655369" y="280.105432" fill="rgb(102,102,102)"  stroke="rgb(102,102,102)" stroke-width="1" font-size="13" >3</text>
<text x="226.155369" y="276.425432" fill="rgb(102,102,102)"  stroke="rgb(102,102,102)" stroke-width="1" font-size="16" >C</text>
<text x="261.001250" y="254.333527" fill="rgb(255,12,12)"  stroke="rgb(255,12,12)" stroke-width="1" font-size="16" >O</text>
<text x="222.736949" y="196.576768" fill="rgb(255,12,12)"  stroke="rgb(255,12,12)" stroke-width="1" font-size="16" >O</text>
<text x="239.527240" y="107.252210" fill="rgb(178,178,0)"  stroke="rgb(178,178,0)" stroke-width="1" font-size="16" >S</text>
</svg>
</g>
<text font-size="18.000000" fill ="black" font-family="sans-serif"
x="10.000000" y="20.000000" ></text>
</svg>
