<?xml version="1.0"?>
<svg version="1.1" id="topsvg"
xmlns="http://www.w3.org/2000/svg" xmlns:xlink="http://www.w3.org/1999/xlink"
xmlns:cml="http://www.xml-cml.org/schema" x="0" y="0" width="200px" height="200px" viewBox="0 0 100 100">
<title> - Open Babel Depiction</title>
<rect x="0" y="0" width="100" height="100" fill="white"/>
<g transform="translate(0,0)">
<svg width="100" height="100" x="0" y="0" viewBox="0 0 422.467 495.207"
font-family="sans-serif" stroke="rgb(0,0,0)" stroke-width="2"  stroke-linecap="round">
<line x1="197.3" y1="138.0" x2="178.3" y2="171.0" stroke="rgb(0,0,0)"  stroke-width="2.0"/>
<line x1="140.5" y1="174.9" x2="115.0" y2="146.7" stroke="rgb(0,0,0)"  stroke-width="2.0"/>
<line x1="115.0" y1="146.7" x2="98.3" y2="128.1" stroke="rgb(0,0,0)"  stroke-width="2.0"/>
<line x1="111.9" y1="149.5" x2="95.1" y2="130.9" stroke="rgb(0,0,0)"  stroke-width="2.0"/>
<line x1="118.1" y1="143.9" x2="101.4" y2="125.3" stroke="rgb(0,0,0)"  stroke-width="2.0"/>
<line x1="132.5" y1="212.1" x2="97.8" y2="227.6" stroke="rgb(0,0,0)"  stroke-width="2.0"/>
<line x1="97.8" y1="227.6" x2="74.9" y2="237.8" stroke="rgb(0,0,0)"  stroke-width="2.0"/>
<line x1="99.5" y1="231.4" x2="76.6" y2="241.6" stroke="rgb(0,0,0)"  stroke-width="2.0"/>
<line x1="96.1" y1="223.8" x2="73.2" y2="233.9" stroke="rgb(0,0,0)"  stroke-width="2.0"/>
<line x1="165.5" y1="231.1" x2="169.5" y2="269.0" stroke="rgb(0,0,0)"  stroke-width="2.0"/>
<line x1="171.2" y1="271.4" x2="140.5" y2="293.7" stroke="rgb(0,0,0)"  stroke-width="2.0"/>
<line x1="167.7" y1="266.5" x2="136.9" y2="288.9" stroke="rgb(0,0,0)"  stroke-width="2.0"/>
<line x1="138.7" y1="291.3" x2="142.7" y2="329.1" stroke="rgb(0,0,0)"  stroke-width="2.0"/>
<line x1="114.4" y1="354.6" x2="77.2" y2="346.7" stroke="rgb(0,0,0)"  stroke-width="2.0"/>
<line x1="77.2" y1="346.7" x2="52.7" y2="341.5" stroke="rgb(0,0,0)"  stroke-width="2.0"/>
<line x1="76.3" y1="350.8" x2="51.8" y2="345.6" stroke="rgb(0,0,0)"  stroke-width="2.0"/>
<line x1="78.1" y1="342.6" x2="53.6" y2="337.4" stroke="rgb(0,0,0)"  stroke-width="2.0"/>
<line x1="129.9" y1="389.3" x2="110.9" y2="422.3" stroke="rgb(0,0,0)"  stroke-width="2.0"/>
<line x1="110.9" y1="422.3" x2="98.3" y2="443.9" stroke="rgb(0,0,0)"  stroke-width="2.0"/>
<line x1="114.5" y1="424.4" x2="102.0" y2="446.0" stroke="rgb(0,0,0)"  stroke-width="2.0"/>
<line x1="107.2" y1="420.2" x2="94.7" y2="441.8" stroke="rgb(0,0,0)"  stroke-width="2.0"/>
<line x1="167.7" y1="385.4" x2="184.4" y2="404.0" stroke="rgb(0,0,0)"  stroke-width="2.0"/>
<line x1="271.0" y1="152.7" x2="273.7" y2="177.6" stroke="rgb(0,0,0)"  stroke-width="2.0"/>
<line x1="265.1" y1="153.4" x2="267.7" y2="178.3" stroke="rgb(0,0,0)"  stroke-width="2.0"/>
<line x1="309.0" y1="130.3" x2="333.5" y2="135.5" stroke="rgb(0,0,0)"  stroke-width="2.0"/>
<line x1="331.3" y1="133.5" x2="348.0" y2="114.9" stroke="rgb(0,0,0)"  stroke-width="2.0"/>
<line x1="335.7" y1="137.5" x2="352.5" y2="118.9" stroke="rgb(0,0,0)"  stroke-width="2.0"/>
<line x1="333.5" y1="135.5" x2="341.2" y2="159.3" stroke="rgb(0,0,0)"  stroke-width="2.0"/>
<line x1="358.0" y1="174.4" x2="369.8" y2="176.9" stroke="rgb(0,0,0)"  stroke-width="2.0"/>
<line x1="280.8" y1="92.9" x2="293.4" y2="71.2" stroke="rgb(0,0,0)"  stroke-width="2.0"/>
<line x1="207.1" y1="78.1" x2="204.5" y2="53.2" stroke="rgb(0,0,0)"  stroke-width="2.0"/>
<line x1="213.1" y1="77.5" x2="210.5" y2="52.6" stroke="rgb(0,0,0)"  stroke-width="2.0"/>
<line x1="189.1" y1="114.0" x2="250.7" y2="204.8" stroke="rgb(0,0,0)"  stroke-width="2.0"/>
<line x1="249.2" y1="202.2" x2="270.9" y2="189.7" stroke="rgb(0,0,0)"  stroke-width="2.0"/>
<line x1="252.2" y1="207.4" x2="273.9" y2="194.9" stroke="rgb(0,0,0)"  stroke-width="2.0"/>
<line x1="250.7" y1="204.8" x2="229.0" y2="192.3" stroke="rgb(0,0,0)"  stroke-width="2.0"/>
<line x1="206.5" y1="192.3" x2="196.1" y2="198.3" stroke="rgb(0,0,0)"  stroke-width="2.0"/>
<line x1="132.5" y1="212.1" x2="165.5" y2="231.1" stroke="rgb(0,0,0)"  stroke-width="2.0"/>
<line x1="141.3" y1="208.9" x2="163.9" y2="221.9" stroke="rgb(0,0,0)"  stroke-width="2.0"/>
<line x1="165.5" y1="231.1" x2="184.1" y2="214.4" stroke="rgb(0,0,0)"  stroke-width="2.0"/>
<line x1="188.5" y1="193.8" x2="178.3" y2="171.0" stroke="rgb(0,0,0)"  stroke-width="2.0"/>
<line x1="178.3" y1="171.0" x2="140.5" y2="174.9" stroke="rgb(0,0,0)"  stroke-width="2.0"/>
<line x1="173.1" y1="178.7" x2="147.2" y2="181.5" stroke="rgb(0,0,0)"  stroke-width="2.0"/>
<line x1="140.5" y1="174.9" x2="132.5" y2="212.1" stroke="rgb(0,0,0)"  stroke-width="2.0"/>
<line x1="129.9" y1="389.3" x2="167.7" y2="385.4" stroke="rgb(0,0,0)"  stroke-width="2.0"/>
<line x1="135.1" y1="381.5" x2="161.0" y2="378.8" stroke="rgb(0,0,0)"  stroke-width="2.0"/>
<line x1="167.7" y1="385.4" x2="172.9" y2="360.9" stroke="rgb(0,0,0)"  stroke-width="2.0"/>
<line x1="164.3" y1="341.7" x2="142.7" y2="329.1" stroke="rgb(0,0,0)"  stroke-width="2.0"/>
<line x1="142.7" y1="329.1" x2="114.4" y2="354.6" stroke="rgb(0,0,0)"  stroke-width="2.0"/>
<line x1="143.0" y1="338.5" x2="123.7" y2="355.9" stroke="rgb(0,0,0)"  stroke-width="2.0"/>
<line x1="114.4" y1="354.6" x2="129.9" y2="389.3" stroke="rgb(0,0,0)"  stroke-width="2.0"/>
<line x1="268.1" y1="153.1" x2="286.7" y2="136.3" stroke="rgb(0,0,0)"  stroke-width="2.0"/>
<line x1="291.0" y1="115.7" x2="280.8" y2="92.9" stroke="rgb(0,0,0)"  stroke-width="2.0"/>
<line x1="280.8" y1="92.9" x2="243.0" y2="96.8" stroke="rgb(0,0,0)"  stroke-width="2.0"/>
<line x1="275.6" y1="100.7" x2="249.7" y2="103.4" stroke="rgb(0,0,0)"  stroke-width="2.0"/>
<line x1="243.0" y1="96.8" x2="235.1" y2="134.0" stroke="rgb(0,0,0)"  stroke-width="2.0"/>
<line x1="235.1" y1="134.0" x2="268.1" y2="153.1" stroke="rgb(0,0,0)"  stroke-width="2.0"/>
<line x1="243.0" y1="96.8" x2="210.1" y2="77.8" stroke="rgb(0,0,0)"  stroke-width="2.0"/>
<line x1="210.1" y1="77.8" x2="191.5" y2="94.6" stroke="rgb(0,0,0)"  stroke-width="2.0"/>
<line x1="187.1" y1="115.1" x2="197.3" y2="138.0" stroke="rgb(0,0,0)"  stroke-width="2.0"/>
<line x1="197.3" y1="138.0" x2="235.1" y2="134.0" stroke="rgb(0,0,0)"  stroke-width="2.0"/>
<line x1="202.5" y1="130.2" x2="228.4" y2="127.5" stroke="rgb(0,0,0)"  stroke-width="2.0"/>
<text x="169.600074" y="356.159090" fill="rgb(178,178,0)"  stroke="rgb(178,178,0)" stroke-width="1" font-size="16" >S</text>
<text x="266.025901" y="198.878324" fill="rgb(255,12,12)"  stroke="rgb(255,12,12)" stroke-width="1" font-size="16" >O</text>
<text x="290.313452" y="135.607088" fill="rgb(12,12,255)"  stroke="rgb(12,12,255)" stroke-width="1" font-size="16" >N</text>
<text x="352.961949" y="115.251358" fill="rgb(255,12,12)"  stroke="rgb(255,12,12)" stroke-width="1" font-size="16" >O</text>
<text x="339.266280" y="179.684412" fill="rgb(255,12,12)"  stroke="rgb(255,12,12)" stroke-width="1" font-size="16" >O</text>
<text x="378.466721" y="187.591610" fill="rgb(102,102,102)"  stroke="rgb(102,102,102)" stroke-width="1" font-size="16" >CH</text>
<text x="402.466721" y="191.271610" fill="rgb(102,102,102)"  stroke="rgb(102,102,102)" stroke-width="1" font-size="13" >3</text>
<text x="187.140931" y="421.622459" fill="rgb(191,191,191)"  stroke="rgb(191,191,191)" stroke-width="1" font-size="16" >H</text>
<text x="293.860400" y="67.927301" fill="rgb(191,191,191)"  stroke="rgb(191,191,191)" stroke-width="1" font-size="16" >H</text>
<text x="200.109819" y="48.000000" fill="rgb(255,12,12)"  stroke="rgb(255,12,12)" stroke-width="1" font-size="16" >O</text>
<text x="175.822267" y="111.271235" fill="rgb(12,12,255)"  stroke="rgb(12,12,255)" stroke-width="1" font-size="16" >N</text>
<text x="277.635125" y="193.771200" fill="rgb(255,12,12)"  stroke="rgb(255,12,12)" stroke-width="1" font-size="16" >O</text>
<text x="211.762598" y="193.771200" fill="rgb(255,12,12)"  stroke="rgb(255,12,12)" stroke-width="1" font-size="16" >O</text>
<text x="158.826334" y="212.786961" fill="rgb(102,102,102)"  stroke="rgb(102,102,102)" stroke-width="1" font-size="16" >H</text>
<text x="170.826334" y="216.466961" fill="rgb(102,102,102)"  stroke="rgb(102,102,102)" stroke-width="1" font-size="13" >3</text>
<text x="177.326334" y="212.786961" fill="rgb(102,102,102)"  stroke="rgb(102,102,102)" stroke-width="1" font-size="16" >C</text>
<text x="83.556029" y="126.400542" fill="rgb(12,12,255)"  stroke="rgb(12,12,255)" stroke-width="1" font-size="16" >N</text>
<text x="57.057894" y="251.064467" fill="rgb(12,12,255)"  stroke="rgb(12,12,255)" stroke-width="1" font-size="16" >N</text>
<text x="187.744133" y="213.694546" fill="rgb(178,178,0)"  stroke="rgb(178,178,0)" stroke-width="1" font-size="16" >S</text>
<text x="34.000000" y="346.776988" fill="rgb(12,12,255)"  stroke="rgb(12,12,255)" stroke-width="1" font-size="16" >N</text>
<text x="85.838175" y="463.207434" fill="rgb(12,12,255)"  stroke="rgb(12,12,255)" stroke-width="1" font-size="16" >N</text>
</svg>
</g>
<text font-size="18.000000" fill ="black" font-family="sans-serif"
x="10.000000" y="20.000000" ></text>
</svg>
