<?xml version="1.0"?>
<svg version="1.1" id="topsvg"
xmlns="http://www.w3.org/2000/svg" xmlns:xlink="http://www.w3.org/1999/xlink"
xmlns:cml="http://www.xml-cml.org/schema" x="0" y="0" width="200px" height="200px" viewBox="0 0 100 100">
<title> - Open Babel Depiction</title>
<rect x="0" y="0" width="100" height="100" fill="white"/>
<g transform="translate(0,0)">
<svg width="100" height="100" x="0" y="0" viewBox="0 0 675.261 399.473"
font-family="sans-serif" stroke="rgb(0,0,0)" stroke-width="2"  stroke-linecap="round">
<line x1="373.6" y1="233.2" x2="339.0" y2="253.2" stroke="rgb(0,0,0)"  stroke-width="2.0"/>
<line x1="334.8" y1="292.9" x2="364.5" y2="319.7" stroke="rgb(0,0,0)"  stroke-width="2.0"/>
<line x1="364.5" y1="319.7" x2="384.6" y2="337.8" stroke="rgb(0,0,0)"  stroke-width="2.0"/>
<line x1="367.3" y1="316.6" x2="387.4" y2="334.7" stroke="rgb(0,0,0)"  stroke-width="2.0"/>
<line x1="361.7" y1="322.8" x2="381.8" y2="340.9" stroke="rgb(0,0,0)"  stroke-width="2.0"/>
<line x1="295.7" y1="301.3" x2="284.7" y2="325.9" stroke="rgb(0,0,0)"  stroke-width="2.0"/>
<line x1="275.7" y1="266.6" x2="235.9" y2="262.4" stroke="rgb(0,0,0)"  stroke-width="2.0"/>
<line x1="238.3" y1="264.2" x2="214.8" y2="296.6" stroke="rgb(0,0,0)"  stroke-width="2.0"/>
<line x1="233.5" y1="260.7" x2="209.9" y2="293.0" stroke="rgb(0,0,0)"  stroke-width="2.0"/>
<line x1="212.4" y1="294.8" x2="172.6" y2="290.6" stroke="rgb(0,0,0)"  stroke-width="2.0"/>
<line x1="145.8" y1="320.3" x2="151.4" y2="346.8" stroke="rgb(0,0,0)"  stroke-width="2.0"/>
<line x1="109.3" y1="304.1" x2="74.6" y2="324.1" stroke="rgb(0,0,0)"  stroke-width="2.0"/>
<line x1="74.6" y1="324.1" x2="51.3" y2="337.6" stroke="rgb(0,0,0)"  stroke-width="2.0"/>
<line x1="76.7" y1="327.7" x2="53.4" y2="341.2" stroke="rgb(0,0,0)"  stroke-width="2.0"/>
<line x1="72.5" y1="320.4" x2="49.2" y2="333.9" stroke="rgb(0,0,0)"  stroke-width="2.0"/>
<line x1="113.5" y1="264.3" x2="93.4" y2="246.2" stroke="rgb(0,0,0)"  stroke-width="2.0"/>
<line x1="504.4" y1="210.2" x2="531.4" y2="210.2" stroke="rgb(0,0,0)"  stroke-width="2.0"/>
<line x1="504.4" y1="216.2" x2="531.4" y2="216.2" stroke="rgb(0,0,0)"  stroke-width="2.0"/>
<line x1="485.0" y1="257.9" x2="489.3" y2="271.2" stroke="rgb(0,0,0)"  stroke-width="2.0"/>
<line x1="478.1" y1="179.9" x2="490.4" y2="141.8" stroke="rgb(0,0,0)"  stroke-width="2.0"/>
<line x1="483.8" y1="181.7" x2="496.1" y2="143.7" stroke="rgb(0,0,0)"  stroke-width="2.0"/>
<line x1="469.8" y1="113.4" x2="442.8" y2="113.4" stroke="rgb(0,0,0)"  stroke-width="2.0"/>
<line x1="469.8" y1="107.4" x2="442.8" y2="107.4" stroke="rgb(0,0,0)"  stroke-width="2.0"/>
<line x1="489.3" y1="65.7" x2="485.0" y2="52.4" stroke="rgb(0,0,0)"  stroke-width="2.0"/>
<line x1="600.6" y1="90.4" x2="624.0" y2="76.9" stroke="rgb(0,0,0)"  stroke-width="2.0"/>
<line x1="295.7" y1="301.3" x2="275.7" y2="266.6" stroke="rgb(0,0,0)"  stroke-width="2.0"/>
<line x1="298.9" y1="292.5" x2="284.9" y2="268.2" stroke="rgb(0,0,0)"  stroke-width="2.0"/>
<line x1="275.7" y1="266.6" x2="293.7" y2="246.6" stroke="rgb(0,0,0)"  stroke-width="2.0"/>
<line x1="314.3" y1="242.2" x2="339.0" y2="253.2" stroke="rgb(0,0,0)"  stroke-width="2.0"/>
<line x1="339.0" y1="253.2" x2="334.8" y2="292.9" stroke="rgb(0,0,0)"  stroke-width="2.0"/>
<line x1="331.2" y1="258.4" x2="328.3" y2="286.2" stroke="rgb(0,0,0)"  stroke-width="2.0"/>
<line x1="334.8" y1="292.9" x2="295.7" y2="301.3" stroke="rgb(0,0,0)"  stroke-width="2.0"/>
<line x1="109.3" y1="304.1" x2="113.5" y2="264.3" stroke="rgb(0,0,0)"  stroke-width="2.0"/>
<line x1="117.1" y1="298.9" x2="120.0" y2="271.0" stroke="rgb(0,0,0)"  stroke-width="2.0"/>
<line x1="113.5" y1="264.3" x2="139.9" y2="258.7" stroke="rgb(0,0,0)"  stroke-width="2.0"/>
<line x1="159.1" y1="267.2" x2="172.6" y2="290.6" stroke="rgb(0,0,0)"  stroke-width="2.0"/>
<line x1="172.6" y1="290.6" x2="145.8" y2="320.3" stroke="rgb(0,0,0)"  stroke-width="2.0"/>
<line x1="163.2" y1="290.3" x2="144.5" y2="311.1" stroke="rgb(0,0,0)"  stroke-width="2.0"/>
<line x1="145.8" y1="320.3" x2="109.3" y2="304.1" stroke="rgb(0,0,0)"  stroke-width="2.0"/>
<line x1="408.3" y1="173.2" x2="442.9" y2="193.2" stroke="rgb(0,0,0)"  stroke-width="2.0"/>
<line x1="409.8" y1="182.4" x2="434.1" y2="196.4" stroke="rgb(0,0,0)"  stroke-width="2.0"/>
<line x1="442.9" y1="193.2" x2="442.9" y2="233.2" stroke="rgb(0,0,0)"  stroke-width="2.0"/>
<line x1="442.9" y1="233.2" x2="408.3" y2="253.2" stroke="rgb(0,0,0)"  stroke-width="2.0"/>
<line x1="434.1" y1="229.9" x2="409.8" y2="243.9" stroke="rgb(0,0,0)"  stroke-width="2.0"/>
<line x1="408.3" y1="253.2" x2="373.6" y2="233.2" stroke="rgb(0,0,0)"  stroke-width="2.0"/>
<line x1="373.6" y1="233.2" x2="373.6" y2="193.2" stroke="rgb(0,0,0)"  stroke-width="2.0"/>
<line x1="380.8" y1="227.2" x2="380.8" y2="199.2" stroke="rgb(0,0,0)"  stroke-width="2.0"/>
<line x1="373.6" y1="193.2" x2="408.3" y2="173.2" stroke="rgb(0,0,0)"  stroke-width="2.0"/>
<line x1="600.6" y1="130.4" x2="566.0" y2="150.4" stroke="rgb(0,0,0)"  stroke-width="2.0"/>
<line x1="566.0" y1="150.4" x2="531.3" y2="130.4" stroke="rgb(0,0,0)"  stroke-width="2.0"/>
<line x1="564.4" y1="141.2" x2="540.1" y2="127.2" stroke="rgb(0,0,0)"  stroke-width="2.0"/>
<line x1="531.3" y1="130.4" x2="531.3" y2="90.4" stroke="rgb(0,0,0)"  stroke-width="2.0"/>
<line x1="531.3" y1="90.4" x2="566.0" y2="70.4" stroke="rgb(0,0,0)"  stroke-width="2.0"/>
<line x1="540.1" y1="93.6" x2="564.4" y2="79.6" stroke="rgb(0,0,0)"  stroke-width="2.0"/>
<line x1="566.0" y1="70.4" x2="600.6" y2="90.4" stroke="rgb(0,0,0)"  stroke-width="2.0"/>
<line x1="600.6" y1="90.4" x2="600.6" y2="130.4" stroke="rgb(0,0,0)"  stroke-width="2.0"/>
<line x1="593.4" y1="96.4" x2="593.4" y2="124.4" stroke="rgb(0,0,0)"  stroke-width="2.0"/>
<line x1="504.4" y1="213.2" x2="488.6" y2="235.0" stroke="rgb(0,0,0)"  stroke-width="2.0"/>
<line x1="468.6" y1="241.5" x2="442.9" y2="233.2" stroke="rgb(0,0,0)"  stroke-width="2.0"/>
<line x1="442.9" y1="193.2" x2="480.9" y2="180.8" stroke="rgb(0,0,0)"  stroke-width="2.0"/>
<line x1="480.9" y1="180.8" x2="504.4" y2="213.2" stroke="rgb(0,0,0)"  stroke-width="2.0"/>
<line x1="505.7" y1="82.1" x2="531.3" y2="90.4" stroke="rgb(0,0,0)"  stroke-width="2.0"/>
<line x1="531.3" y1="130.4" x2="493.3" y2="142.8" stroke="rgb(0,0,0)"  stroke-width="2.0"/>
<line x1="493.3" y1="142.8" x2="469.8" y2="110.4" stroke="rgb(0,0,0)"  stroke-width="2.0"/>
<line x1="469.8" y1="110.4" x2="485.7" y2="88.6" stroke="rgb(0,0,0)"  stroke-width="2.0"/>
<text x="423.783858" y="118.402940" fill="rgb(255,12,12)"  stroke="rgb(255,12,12)" stroke-width="1" font-size="16" >O</text>
<text x="538.445998" y="221.166561" fill="rgb(255,12,12)"  stroke="rgb(255,12,12)" stroke-width="1" font-size="16" >O</text>
<text x="474.934588" y="253.527240" fill="rgb(12,12,255)"  stroke="rgb(12,12,255)" stroke-width="1" font-size="16" >N</text>
<text x="487.295268" y="291.569501" fill="rgb(191,191,191)"  stroke="rgb(191,191,191)" stroke-width="1" font-size="16" >H</text>
<text x="487.295268" y="86.042261" fill="rgb(12,12,255)"  stroke="rgb(12,12,255)" stroke-width="1" font-size="16" >N</text>
<text x="474.934588" y="48.000000" fill="rgb(191,191,191)"  stroke="rgb(191,191,191)" stroke-width="1" font-size="16" >H</text>
<text x="629.260577" y="78.402940" fill="rgb(191,191,191)"  stroke="rgb(191,191,191)" stroke-width="1" font-size="16" >H</text>
<text x="388.239727" y="354.477885" fill="rgb(12,12,255)"  stroke="rgb(12,12,255)" stroke-width="1" font-size="16" >N</text>
<text x="261.392771" y="345.805722" fill="rgb(255,12,12)"  stroke="rgb(255,12,12)" stroke-width="1" font-size="16" >HO</text>
<text x="296.427461" y="244.897095" fill="rgb(178,178,0)"  stroke="rgb(178,178,0)" stroke-width="1" font-size="16" >S</text>
<text x="148.140318" y="367.472988" fill="rgb(255,12,12)"  stroke="rgb(255,12,12)" stroke-width="1" font-size="16" >OH</text>
<text x="34.000000" y="352.077618" fill="rgb(12,12,255)"  stroke="rgb(12,12,255)" stroke-width="1" font-size="16" >N</text>
<text x="77.737378" y="245.531518" fill="rgb(191,191,191)"  stroke="rgb(191,191,191)" stroke-width="1" font-size="16" >H</text>
<text x="146.589075" y="263.980274" fill="rgb(178,178,0)"  stroke="rgb(178,178,0)" stroke-width="1" font-size="16" >S</text>
</svg>
</g>
<text font-size="18.000000" fill ="black" font-family="sans-serif"
x="10.000000" y="20.000000" ></text>
</svg>
