<?xml version="1.0"?>
<svg version="1.1" id="topsvg"
xmlns="http://www.w3.org/2000/svg" xmlns:xlink="http://www.w3.org/1999/xlink"
xmlns:cml="http://www.xml-cml.org/schema" x="0" y="0" width="200px" height="200px" viewBox="0 0 100 100">
<title> - Open Babel Depiction</title>
<rect x="0" y="0" width="100" height="100" fill="white"/>
<g transform="translate(0,0)">
<svg width="100" height="100" x="0" y="0" viewBox="0 0 472.389 240"
font-family="sans-serif" stroke="rgb(0,0,0)" stroke-width="2"  stroke-linecap="round">
<line x1="160.0" y1="120.0" x2="200.0" y2="120.0" stroke="rgb(0,0,0)"  stroke-width="2.0"/>
<line x1="223.5" y1="87.6" x2="215.2" y2="62.0" stroke="rgb(0,0,0)"  stroke-width="2.0"/>
<line x1="296.2" y1="80.0" x2="296.2" y2="53.0" stroke="rgb(0,0,0)"  stroke-width="2.0"/>
<line x1="392.4" y1="120.0" x2="419.4" y2="120.0" stroke="rgb(0,0,0)"  stroke-width="2.0"/>
<line x1="368.9" y1="152.4" x2="377.2" y2="178.0" stroke="rgb(0,0,0)"  stroke-width="2.0"/>
<line x1="296.2" y1="160.0" x2="296.2" y2="187.0" stroke="rgb(0,0,0)"  stroke-width="2.0"/>
<line x1="140.0" y1="154.6" x2="153.5" y2="178.0" stroke="rgb(0,0,0)"  stroke-width="2.0"/>
<line x1="100.0" y1="154.6" x2="86.5" y2="178.0" stroke="rgb(0,0,0)"  stroke-width="2.0"/>
<line x1="80.0" y1="120.0" x2="53.0" y2="120.0" stroke="rgb(0,0,0)"  stroke-width="2.0"/>
<line x1="100.0" y1="85.4" x2="86.5" y2="62.0" stroke="rgb(0,0,0)"  stroke-width="2.0"/>
<line x1="140.0" y1="85.4" x2="153.5" y2="62.0" stroke="rgb(0,0,0)"  stroke-width="2.0"/>
<line x1="261.6" y1="100.0" x2="261.6" y2="140.0" stroke="rgb(0,0,0)"  stroke-width="2.0"/>
<line x1="261.6" y1="140.0" x2="235.9" y2="148.3" stroke="rgb(0,0,0)"  stroke-width="2.0"/>
<line x1="215.9" y1="141.8" x2="200.0" y2="120.0" stroke="rgb(0,0,0)"  stroke-width="2.0"/>
<line x1="200.0" y1="120.0" x2="223.5" y2="87.6" stroke="rgb(0,0,0)"  stroke-width="2.0"/>
<line x1="209.4" y1="119.4" x2="225.8" y2="96.7" stroke="rgb(0,0,0)"  stroke-width="2.0"/>
<line x1="223.5" y1="87.6" x2="261.6" y2="100.0" stroke="rgb(0,0,0)"  stroke-width="2.0"/>
<line x1="392.4" y1="120.0" x2="368.9" y2="152.4" stroke="rgb(0,0,0)"  stroke-width="2.0"/>
<line x1="383.0" y1="120.6" x2="366.6" y2="143.3" stroke="rgb(0,0,0)"  stroke-width="2.0"/>
<line x1="368.9" y1="152.4" x2="330.8" y2="140.0" stroke="rgb(0,0,0)"  stroke-width="2.0"/>
<line x1="330.8" y1="140.0" x2="330.8" y2="100.0" stroke="rgb(0,0,0)"  stroke-width="2.0"/>
<line x1="338.0" y1="134.0" x2="338.0" y2="106.0" stroke="rgb(0,0,0)"  stroke-width="2.0"/>
<line x1="330.8" y1="100.0" x2="356.5" y2="91.7" stroke="rgb(0,0,0)"  stroke-width="2.0"/>
<line x1="376.5" y1="98.2" x2="392.4" y2="120.0" stroke="rgb(0,0,0)"  stroke-width="2.0"/>
<line x1="330.8" y1="140.0" x2="296.2" y2="160.0" stroke="rgb(0,0,0)"  stroke-width="2.0"/>
<line x1="296.2" y1="160.0" x2="261.6" y2="140.0" stroke="rgb(0,0,0)"  stroke-width="2.0"/>
<line x1="294.6" y1="150.8" x2="270.3" y2="136.8" stroke="rgb(0,0,0)"  stroke-width="2.0"/>
<line x1="261.6" y1="100.0" x2="296.2" y2="80.0" stroke="rgb(0,0,0)"  stroke-width="2.0"/>
<line x1="270.3" y1="103.2" x2="294.6" y2="89.2" stroke="rgb(0,0,0)"  stroke-width="2.0"/>
<line x1="296.2" y1="80.0" x2="330.8" y2="100.0" stroke="rgb(0,0,0)"  stroke-width="2.0"/>
<line x1="100.0" y1="154.6" x2="80.0" y2="120.0" stroke="rgb(0,0,0)"  stroke-width="2.0"/>
<line x1="103.2" y1="145.8" x2="89.2" y2="121.6" stroke="rgb(0,0,0)"  stroke-width="2.0"/>
<line x1="80.0" y1="120.0" x2="100.0" y2="85.4" stroke="rgb(0,0,0)"  stroke-width="2.0"/>
<line x1="100.0" y1="85.4" x2="140.0" y2="85.4" stroke="rgb(0,0,0)"  stroke-width="2.0"/>
<line x1="106.0" y1="92.6" x2="134.0" y2="92.6" stroke="rgb(0,0,0)"  stroke-width="2.0"/>
<line x1="140.0" y1="85.4" x2="160.0" y2="120.0" stroke="rgb(0,0,0)"  stroke-width="2.0"/>
<line x1="160.0" y1="120.0" x2="140.0" y2="154.6" stroke="rgb(0,0,0)"  stroke-width="2.0"/>
<line x1="150.8" y1="121.6" x2="136.8" y2="145.8" stroke="rgb(0,0,0)"  stroke-width="2.0"/>
<line x1="140.0" y1="154.6" x2="100.0" y2="154.6" stroke="rgb(0,0,0)"  stroke-width="2.0"/>
<text x="154.000000" y="58.717968" fill="rgb(127,178,255)"  stroke="rgb(127,178,255)" stroke-width="1" font-size="16" >F</text>
<text x="74.000000" y="58.717968" fill="rgb(127,178,255)"  stroke="rgb(127,178,255)" stroke-width="1" font-size="16" >F</text>
<text x="34.000000" y="128.000000" fill="rgb(191,191,191)"  stroke="rgb(191,191,191)" stroke-width="1" font-size="16" >H</text>
<text x="74.000000" y="197.282032" fill="rgb(127,178,255)"  stroke="rgb(127,178,255)" stroke-width="1" font-size="16" >F</text>
<text x="154.000000" y="197.282032" fill="rgb(127,178,255)"  stroke="rgb(127,178,255)" stroke-width="1" font-size="16" >F</text>
<text x="217.511410" y="160.360680" fill="rgb(178,178,0)"  stroke="rgb(178,178,0)" stroke-width="1" font-size="16" >S</text>
<text x="290.194687" y="208.000000" fill="rgb(191,191,191)"  stroke="rgb(191,191,191)" stroke-width="1" font-size="16" >H</text>
<text x="375.238643" y="198.402940" fill="rgb(255,12,12)"  stroke="rgb(255,12,12)" stroke-width="1" font-size="16" >OH</text>
<text x="426.389374" y="128.000000" fill="rgb(191,191,191)"  stroke="rgb(191,191,191)" stroke-width="1" font-size="16" >H</text>
<text x="362.877964" y="95.639320" fill="rgb(178,178,0)"  stroke="rgb(178,178,0)" stroke-width="1" font-size="16" >S</text>
<text x="290.194687" y="48.000000" fill="rgb(191,191,191)"  stroke="rgb(191,191,191)" stroke-width="1" font-size="16" >H</text>
<text x="193.150730" y="57.597060" fill="rgb(255,12,12)"  stroke="rgb(255,12,12)" stroke-width="1" font-size="16" >HO</text>
</svg>
</g>
<text font-size="18.000000" fill ="black" font-family="sans-serif"
x="10.000000" y="20.000000" ></text>
</svg>
