<?xml version="1.0"?>
<svg version="1.1" id="topsvg"
xmlns="http://www.w3.org/2000/svg" xmlns:xlink="http://www.w3.org/1999/xlink"
xmlns:cml="http://www.xml-cml.org/schema" x="0" y="0" width="200px" height="200px" viewBox="0 0 100 100">
<title> - Open Babel Depiction</title>
<rect x="0" y="0" width="100" height="100" fill="white"/>
<g transform="translate(0,0)">
<svg width="100" height="100" x="0" y="0" viewBox="0 0 451.039 260.45"
font-family="sans-serif" stroke="rgb(0,0,0)" stroke-width="2"  stroke-linecap="round">
<line x1="139.9" y1="142.4" x2="173.7" y2="161.9" stroke="rgb(0,0,0)"  stroke-width="2.0"/>
<line x1="275.0" y1="142.4" x2="275.0" y2="115.4" stroke="rgb(0,0,0)"  stroke-width="2.0"/>
<line x1="275.0" y1="142.4" x2="298.4" y2="128.9" stroke="rgb(0,0,0)"  stroke-width="2.0"/>
<line x1="376.4" y1="161.9" x2="399.8" y2="148.4" stroke="rgb(0,0,0)"  stroke-width="2.0"/>
<line x1="81.9" y1="90.2" x2="62.6" y2="72.8" stroke="rgb(0,0,0)"  stroke-width="2.0"/>
<line x1="119.0" y1="78.2" x2="124.4" y2="52.7" stroke="rgb(0,0,0)"  stroke-width="2.0"/>
<line x1="148.0" y1="104.3" x2="172.7" y2="96.2" stroke="rgb(0,0,0)"  stroke-width="2.0"/>
<line x1="74.0" y1="188.7" x2="61.0" y2="187.4" stroke="rgb(0,0,0)"  stroke-width="2.0"/>
<line x1="45.4" y1="173.3" x2="42.7" y2="160.6" stroke="rgb(0,0,0)"  stroke-width="2.0"/>
<line x1="51.1" y1="141.4" x2="73.8" y2="128.4" stroke="rgb(0,0,0)"  stroke-width="2.0"/>
<line x1="56.6" y1="146.6" x2="72.2" y2="137.6" stroke="rgb(0,0,0)"  stroke-width="2.0"/>
<line x1="73.8" y1="128.4" x2="102.8" y2="154.5" stroke="rgb(0,0,0)"  stroke-width="2.0"/>
<line x1="102.8" y1="154.5" x2="92.1" y2="178.3" stroke="rgb(0,0,0)"  stroke-width="2.0"/>
<line x1="93.8" y1="157.0" x2="86.4" y2="173.5" stroke="rgb(0,0,0)"  stroke-width="2.0"/>
<line x1="241.2" y1="161.9" x2="241.2" y2="200.9" stroke="rgb(0,0,0)"  stroke-width="2.0"/>
<line x1="234.0" y1="167.9" x2="234.0" y2="194.9" stroke="rgb(0,0,0)"  stroke-width="2.0"/>
<line x1="241.2" y1="200.9" x2="207.4" y2="220.5" stroke="rgb(0,0,0)"  stroke-width="2.0"/>
<line x1="207.4" y1="220.5" x2="173.7" y2="200.9" stroke="rgb(0,0,0)"  stroke-width="2.0"/>
<line x1="205.8" y1="211.2" x2="182.5" y2="197.7" stroke="rgb(0,0,0)"  stroke-width="2.0"/>
<line x1="173.7" y1="200.9" x2="173.7" y2="161.9" stroke="rgb(0,0,0)"  stroke-width="2.0"/>
<line x1="173.7" y1="161.9" x2="207.4" y2="142.4" stroke="rgb(0,0,0)"  stroke-width="2.0"/>
<line x1="182.5" y1="165.1" x2="205.8" y2="151.6" stroke="rgb(0,0,0)"  stroke-width="2.0"/>
<line x1="207.4" y1="142.4" x2="241.2" y2="161.9" stroke="rgb(0,0,0)"  stroke-width="2.0"/>
<line x1="342.6" y1="142.4" x2="308.8" y2="161.9" stroke="rgb(0,0,0)"  stroke-width="2.0"/>
<line x1="341.0" y1="151.6" x2="317.6" y2="165.1" stroke="rgb(0,0,0)"  stroke-width="2.0"/>
<line x1="308.8" y1="161.9" x2="308.8" y2="200.9" stroke="rgb(0,0,0)"  stroke-width="2.0"/>
<line x1="308.8" y1="200.9" x2="342.6" y2="220.4" stroke="rgb(0,0,0)"  stroke-width="2.0"/>
<line x1="317.6" y1="197.7" x2="341.0" y2="211.2" stroke="rgb(0,0,0)"  stroke-width="2.0"/>
<line x1="342.6" y1="220.4" x2="376.4" y2="200.9" stroke="rgb(0,0,0)"  stroke-width="2.0"/>
<line x1="376.4" y1="200.9" x2="376.4" y2="161.9" stroke="rgb(0,0,0)"  stroke-width="2.0"/>
<line x1="369.2" y1="194.9" x2="369.2" y2="167.9" stroke="rgb(0,0,0)"  stroke-width="2.0"/>
<line x1="376.4" y1="161.9" x2="342.6" y2="142.4" stroke="rgb(0,0,0)"  stroke-width="2.0"/>
<line x1="73.8" y1="128.4" x2="81.9" y2="90.2" stroke="rgb(0,0,0)"  stroke-width="2.0"/>
<line x1="81.9" y1="90.2" x2="119.0" y2="78.2" stroke="rgb(0,0,0)"  stroke-width="2.0"/>
<line x1="89.8" y1="95.2" x2="115.5" y2="86.9" stroke="rgb(0,0,0)"  stroke-width="2.0"/>
<line x1="119.0" y1="78.2" x2="148.0" y2="104.3" stroke="rgb(0,0,0)"  stroke-width="2.0"/>
<line x1="148.0" y1="104.3" x2="139.9" y2="142.4" stroke="rgb(0,0,0)"  stroke-width="2.0"/>
<line x1="139.7" y1="108.6" x2="134.1" y2="135.0" stroke="rgb(0,0,0)"  stroke-width="2.0"/>
<line x1="139.9" y1="142.4" x2="102.8" y2="154.5" stroke="rgb(0,0,0)"  stroke-width="2.0"/>
<line x1="308.8" y1="200.9" x2="241.2" y2="200.9" stroke="rgb(0,0,0)"  stroke-width="2.0"/>
<line x1="241.2" y1="161.9" x2="275.0" y2="142.4" stroke="rgb(0,0,0)"  stroke-width="2.0"/>
<line x1="275.0" y1="142.4" x2="308.8" y2="161.9" stroke="rgb(0,0,0)"  stroke-width="2.0"/>
<text x="179.074425" y="100.198034" fill="rgb(191,191,191)"  stroke="rgb(191,191,191)" stroke-width="1" font-size="16" >H</text>
<text x="121.092051" y="48.000000" fill="rgb(191,191,191)"  stroke="rgb(191,191,191)" stroke-width="1" font-size="16" >H</text>
<text x="46.896040" y="72.115193" fill="rgb(191,191,191)"  stroke="rgb(191,191,191)" stroke-width="1" font-size="16" >H</text>
<text x="34.000000" y="155.878041" fill="rgb(12,12,255)"  stroke="rgb(12,12,255)" stroke-width="1" font-size="16" >N</text>
<text x="42.113746" y="194.033181" fill="rgb(178,178,0)"  stroke="rgb(178,178,0)" stroke-width="1" font-size="16" >S</text>
<text x="80.908727" y="198.107137" fill="rgb(12,12,255)"  stroke="rgb(12,12,255)" stroke-width="1" font-size="16" >N</text>
<text x="405.038977" y="149.896863" fill="rgb(191,191,191)"  stroke="rgb(191,191,191)" stroke-width="1" font-size="16" >H</text>
<text x="305.654244" y="130.396803" fill="rgb(102,102,102)"  stroke="rgb(102,102,102)" stroke-width="1" font-size="16" >CH</text>
<text x="329.654244" y="134.076803" fill="rgb(102,102,102)"  stroke="rgb(102,102,102)" stroke-width="1" font-size="13" >3</text>
<text x="271.008032" y="110.400997" fill="rgb(102,102,102)"  stroke="rgb(102,102,102)" stroke-width="1" font-size="16" >CH</text>
<text x="295.008032" y="114.080997" fill="rgb(102,102,102)"  stroke="rgb(102,102,102)" stroke-width="1" font-size="13" >3</text>
</svg>
</g>
<text font-size="18.000000" fill ="black" font-family="sans-serif"
x="10.000000" y="20.000000" ></text>
</svg>
