<?xml version="1.0"?>
<svg version="1.1" id="topsvg"
xmlns="http://www.w3.org/2000/svg" xmlns:xlink="http://www.w3.org/1999/xlink"
xmlns:cml="http://www.xml-cml.org/schema" x="0" y="0" width="200px" height="200px" viewBox="0 0 100 100">
<title> - Open Babel Depiction</title>
<rect x="0" y="0" width="100" height="100" fill="white"/>
<g transform="translate(0,0)">
<svg width="100" height="100" x="0" y="0" viewBox="0 0 379.182 599.738"
font-family="sans-serif" stroke="rgb(0,0,0)" stroke-width="2"  stroke-linecap="round">
<line x1="172.0" y1="211.1" x2="151.1" y2="247.3" stroke="rgb(0,0,0)"  stroke-width="2.0"/>
<line x1="109.5" y1="251.7" x2="81.5" y2="220.6" stroke="rgb(0,0,0)"  stroke-width="2.0"/>
<line x1="81.5" y1="220.6" x2="62.3" y2="199.2" stroke="rgb(0,0,0)"  stroke-width="2.0"/>
<line x1="78.4" y1="223.4" x2="59.2" y2="202.0" stroke="rgb(0,0,0)"  stroke-width="2.0"/>
<line x1="84.7" y1="217.8" x2="65.4" y2="196.4" stroke="rgb(0,0,0)"  stroke-width="2.0"/>
<line x1="100.8" y1="292.6" x2="74.5" y2="304.3" stroke="rgb(0,0,0)"  stroke-width="2.0"/>
<line x1="137.0" y1="313.5" x2="141.4" y2="355.0" stroke="rgb(0,0,0)"  stroke-width="2.0"/>
<line x1="143.2" y1="357.5" x2="109.3" y2="382.0" stroke="rgb(0,0,0)"  stroke-width="2.0"/>
<line x1="139.6" y1="352.6" x2="105.8" y2="377.2" stroke="rgb(0,0,0)"  stroke-width="2.0"/>
<line x1="107.6" y1="379.6" x2="111.9" y2="421.2" stroke="rgb(0,0,0)"  stroke-width="2.0"/>
<line x1="80.9" y1="449.2" x2="52.7" y2="443.2" stroke="rgb(0,0,0)"  stroke-width="2.0"/>
<line x1="97.9" y1="487.3" x2="77.0" y2="523.5" stroke="rgb(0,0,0)"  stroke-width="2.0"/>
<line x1="77.0" y1="523.5" x2="62.6" y2="548.5" stroke="rgb(0,0,0)"  stroke-width="2.0"/>
<line x1="80.6" y1="525.6" x2="66.2" y2="550.6" stroke="rgb(0,0,0)"  stroke-width="2.0"/>
<line x1="73.3" y1="521.4" x2="59.0" y2="546.4" stroke="rgb(0,0,0)"  stroke-width="2.0"/>
<line x1="139.5" y1="483.0" x2="158.7" y2="504.4" stroke="rgb(0,0,0)"  stroke-width="2.0"/>
<line x1="279.1" y1="173.4" x2="293.5" y2="198.4" stroke="rgb(0,0,0)"  stroke-width="2.0"/>
<line x1="273.9" y1="176.4" x2="288.3" y2="201.4" stroke="rgb(0,0,0)"  stroke-width="2.0"/>
<line x1="310.4" y1="138.7" x2="326.2" y2="138.7" stroke="rgb(0,0,0)"  stroke-width="2.0"/>
<line x1="273.9" y1="101.0" x2="288.3" y2="76.1" stroke="rgb(0,0,0)"  stroke-width="2.0"/>
<line x1="279.1" y1="104.0" x2="293.5" y2="79.1" stroke="rgb(0,0,0)"  stroke-width="2.0"/>
<line x1="212.8" y1="78.9" x2="223.3" y2="52.1" stroke="rgb(0,0,0)"  stroke-width="2.0"/>
<line x1="129.7" y1="111.1" x2="115.7" y2="85.9" stroke="rgb(0,0,0)"  stroke-width="2.0"/>
<line x1="134.9" y1="108.2" x2="121.0" y2="83.0" stroke="rgb(0,0,0)"  stroke-width="2.0"/>
<line x1="102.0" y1="132.1" x2="86.4" y2="129.5" stroke="rgb(0,0,0)"  stroke-width="2.0"/>
<line x1="125.1" y1="165.6" x2="103.7" y2="184.8" stroke="rgb(0,0,0)"  stroke-width="2.0"/>
<line x1="121.2" y1="161.1" x2="99.7" y2="180.3" stroke="rgb(0,0,0)"  stroke-width="2.0"/>
<line x1="100.8" y1="292.6" x2="137.0" y2="313.5" stroke="rgb(0,0,0)"  stroke-width="2.0"/>
<line x1="109.6" y1="289.3" x2="135.4" y2="304.2" stroke="rgb(0,0,0)"  stroke-width="2.0"/>
<line x1="137.0" y1="313.5" x2="158.4" y2="294.2" stroke="rgb(0,0,0)"  stroke-width="2.0"/>
<line x1="162.8" y1="273.6" x2="151.1" y2="247.3" stroke="rgb(0,0,0)"  stroke-width="2.0"/>
<line x1="151.1" y1="247.3" x2="109.5" y2="251.7" stroke="rgb(0,0,0)"  stroke-width="2.0"/>
<line x1="145.9" y1="255.1" x2="116.2" y2="258.2" stroke="rgb(0,0,0)"  stroke-width="2.0"/>
<line x1="109.5" y1="251.7" x2="100.8" y2="292.6" stroke="rgb(0,0,0)"  stroke-width="2.0"/>
<line x1="97.9" y1="487.3" x2="139.5" y2="483.0" stroke="rgb(0,0,0)"  stroke-width="2.0"/>
<line x1="103.1" y1="479.6" x2="132.7" y2="476.4" stroke="rgb(0,0,0)"  stroke-width="2.0"/>
<line x1="139.5" y1="483.0" x2="145.4" y2="454.8" stroke="rgb(0,0,0)"  stroke-width="2.0"/>
<line x1="136.9" y1="435.6" x2="111.9" y2="421.2" stroke="rgb(0,0,0)"  stroke-width="2.0"/>
<line x1="111.9" y1="421.2" x2="80.9" y2="449.2" stroke="rgb(0,0,0)"  stroke-width="2.0"/>
<line x1="112.3" y1="430.6" x2="90.2" y2="450.5" stroke="rgb(0,0,0)"  stroke-width="2.0"/>
<line x1="80.9" y1="449.2" x2="97.9" y2="487.3" stroke="rgb(0,0,0)"  stroke-width="2.0"/>
<line x1="234.7" y1="174.9" x2="213.8" y2="138.7" stroke="rgb(0,0,0)"  stroke-width="2.0"/>
<line x1="225.4" y1="173.3" x2="210.6" y2="147.5" stroke="rgb(0,0,0)"  stroke-width="2.0"/>
<line x1="213.8" y1="138.7" x2="172.0" y2="138.7" stroke="rgb(0,0,0)"  stroke-width="2.0"/>
<line x1="172.0" y1="138.7" x2="151.1" y2="174.9" stroke="rgb(0,0,0)"  stroke-width="2.0"/>
<line x1="175.2" y1="147.5" x2="160.3" y2="173.3" stroke="rgb(0,0,0)"  stroke-width="2.0"/>
<line x1="151.1" y1="174.9" x2="172.0" y2="211.1" stroke="rgb(0,0,0)"  stroke-width="2.0"/>
<line x1="172.0" y1="211.1" x2="213.8" y2="211.1" stroke="rgb(0,0,0)"  stroke-width="2.0"/>
<line x1="178.0" y1="203.9" x2="207.8" y2="203.9" stroke="rgb(0,0,0)"  stroke-width="2.0"/>
<line x1="213.8" y1="211.1" x2="234.7" y2="174.9" stroke="rgb(0,0,0)"  stroke-width="2.0"/>
<line x1="276.5" y1="102.5" x2="234.7" y2="102.5" stroke="rgb(0,0,0)"  stroke-width="2.0"/>
<line x1="234.7" y1="102.5" x2="213.8" y2="138.7" stroke="rgb(0,0,0)"  stroke-width="2.0"/>
<line x1="234.7" y1="174.9" x2="276.5" y2="174.9" stroke="rgb(0,0,0)"  stroke-width="2.0"/>
<line x1="276.5" y1="174.9" x2="290.9" y2="150.0" stroke="rgb(0,0,0)"  stroke-width="2.0"/>
<line x1="290.9" y1="127.5" x2="276.5" y2="102.5" stroke="rgb(0,0,0)"  stroke-width="2.0"/>
<line x1="180.6" y1="81.3" x2="162.5" y2="107.9" stroke="rgb(0,0,0)"  stroke-width="2.0"/>
<line x1="183.2" y1="90.3" x2="171.8" y2="107.0" stroke="rgb(0,0,0)"  stroke-width="2.0"/>
<line x1="162.5" y1="107.9" x2="172.0" y2="138.7" stroke="rgb(0,0,0)"  stroke-width="2.0"/>
<line x1="234.7" y1="102.5" x2="212.8" y2="78.9" stroke="rgb(0,0,0)"  stroke-width="2.0"/>
<line x1="225.3" y1="103.0" x2="211.6" y2="88.2" stroke="rgb(0,0,0)"  stroke-width="2.0"/>
<line x1="212.8" y1="78.9" x2="180.6" y2="81.3" stroke="rgb(0,0,0)"  stroke-width="2.0"/>
<line x1="118.4" y1="146.8" x2="123.2" y2="163.3" stroke="rgb(0,0,0)"  stroke-width="2.0"/>
<line x1="123.2" y1="163.3" x2="151.1" y2="174.9" stroke="rgb(0,0,0)"  stroke-width="2.0"/>
<line x1="162.5" y1="107.9" x2="132.3" y2="109.6" stroke="rgb(0,0,0)"  stroke-width="2.0"/>
<line x1="132.3" y1="109.6" x2="122.3" y2="123.7" stroke="rgb(0,0,0)"  stroke-width="2.0"/>
<text x="291.383228" y="219.125059" fill="rgb(255,12,12)"  stroke="rgb(255,12,12)" stroke-width="1" font-size="16" >O</text>
<text x="291.383228" y="146.727301" fill="rgb(12,12,255)"  stroke="rgb(12,12,255)" stroke-width="1" font-size="16" >N</text>
<text x="333.182094" y="146.727301" fill="rgb(191,191,191)"  stroke="rgb(191,191,191)" stroke-width="1" font-size="16" >H</text>
<text x="291.383228" y="74.329543" fill="rgb(255,12,12)"  stroke="rgb(255,12,12)" stroke-width="1" font-size="16" >O</text>
<text x="222.040582" y="48.000000" fill="rgb(191,191,191)"  stroke="rgb(191,191,191)" stroke-width="1" font-size="16" >H</text>
<text x="106.087776" y="81.035797" fill="rgb(255,12,12)"  stroke="rgb(255,12,12)" stroke-width="1" font-size="16" >O</text>
<text x="108.788592" y="142.283361" fill="rgb(12,12,255)"  stroke="rgb(12,12,255)" stroke-width="1" font-size="16" >N</text>
<text x="67.582416" y="135.269366" fill="rgb(191,191,191)"  stroke="rgb(191,191,191)" stroke-width="1" font-size="16" >H</text>
<text x="85.976228" y="199.188147" fill="rgb(255,12,12)"  stroke="rgb(255,12,12)" stroke-width="1" font-size="16" >O</text>
<text x="47.579514" y="197.567889" fill="rgb(12,12,255)"  stroke="rgb(12,12,255)" stroke-width="1" font-size="16" >N</text>
<text x="44.641678" y="317.579699" fill="rgb(30,239,30)"  stroke="rgb(30,239,30)" stroke-width="1" font-size="16" >Cl</text>
<text x="162.088330" y="293.509102" fill="rgb(178,178,0)"  stroke="rgb(178,178,0)" stroke-width="1" font-size="16" >S</text>
<text x="22.000000" y="448.464959" fill="rgb(30,239,30)"  stroke="rgb(30,239,30)" stroke-width="1" font-size="16" >Cl</text>
<text x="50.087725" y="567.738353" fill="rgb(12,12,255)"  stroke="rgb(12,12,255)" stroke-width="1" font-size="16" >N</text>
<text x="161.425376" y="522.034034" fill="rgb(191,191,191)"  stroke="rgb(191,191,191)" stroke-width="1" font-size="16" >H</text>
<text x="142.146949" y="450.085964" fill="rgb(178,178,0)"  stroke="rgb(178,178,0)" stroke-width="1" font-size="16" >S</text>
</svg>
</g>
<text font-size="18.000000" fill ="black" font-family="sans-serif"
x="10.000000" y="20.000000" ></text>
</svg>
