<?xml version="1.0"?>
<svg version="1.1" id="topsvg"
xmlns="http://www.w3.org/2000/svg" xmlns:xlink="http://www.w3.org/1999/xlink"
xmlns:cml="http://www.xml-cml.org/schema" x="0" y="0" width="200px" height="200px" viewBox="0 0 100 100">
<title> - Open Babel Depiction</title>
<rect x="0" y="0" width="100" height="100" fill="white"/>
<g transform="translate(0,0)">
<svg width="100" height="100" x="0" y="0" viewBox="0 0 349.58 482.057"
font-family="sans-serif" stroke="rgb(0,0,0)" stroke-width="2"  stroke-linecap="round">
<line x1="166.3" y1="143.1" x2="146.3" y2="177.7" stroke="rgb(0,0,0)"  stroke-width="2.0"/>
<line x1="106.5" y1="181.9" x2="88.5" y2="161.8" stroke="rgb(0,0,0)"  stroke-width="2.0"/>
<line x1="98.2" y1="221.0" x2="73.5" y2="232.0" stroke="rgb(0,0,0)"  stroke-width="2.0"/>
<line x1="132.9" y1="241.0" x2="137.0" y2="280.8" stroke="rgb(0,0,0)"  stroke-width="2.0"/>
<line x1="138.8" y1="283.2" x2="106.4" y2="306.8" stroke="rgb(0,0,0)"  stroke-width="2.0"/>
<line x1="135.3" y1="278.4" x2="102.9" y2="301.9" stroke="rgb(0,0,0)"  stroke-width="2.0"/>
<line x1="104.7" y1="304.3" x2="108.9" y2="344.1" stroke="rgb(0,0,0)"  stroke-width="2.0"/>
<line x1="79.1" y1="370.9" x2="52.7" y2="365.3" stroke="rgb(0,0,0)"  stroke-width="2.0"/>
<line x1="95.4" y1="407.4" x2="81.9" y2="430.8" stroke="rgb(0,0,0)"  stroke-width="2.0"/>
<line x1="135.2" y1="403.2" x2="153.2" y2="423.3" stroke="rgb(0,0,0)"  stroke-width="2.0"/>
<line x1="243.7" y1="158.6" x2="246.5" y2="185.4" stroke="rgb(0,0,0)"  stroke-width="2.0"/>
<line x1="237.7" y1="159.2" x2="240.6" y2="186.1" stroke="rgb(0,0,0)"  stroke-width="2.0"/>
<line x1="283.2" y1="134.8" x2="296.9" y2="137.8" stroke="rgb(0,0,0)"  stroke-width="2.0"/>
<line x1="254.2" y1="95.6" x2="267.7" y2="72.2" stroke="rgb(0,0,0)"  stroke-width="2.0"/>
<line x1="176.8" y1="80.1" x2="174.0" y2="53.2" stroke="rgb(0,0,0)"  stroke-width="2.0"/>
<line x1="182.7" y1="79.5" x2="179.9" y2="52.6" stroke="rgb(0,0,0)"  stroke-width="2.0"/>
<line x1="137.3" y1="103.8" x2="123.6" y2="100.9" stroke="rgb(0,0,0)"  stroke-width="2.0"/>
<line x1="98.2" y1="221.0" x2="132.9" y2="241.0" stroke="rgb(0,0,0)"  stroke-width="2.0"/>
<line x1="107.0" y1="217.8" x2="131.3" y2="231.8" stroke="rgb(0,0,0)"  stroke-width="2.0"/>
<line x1="132.9" y1="241.0" x2="152.9" y2="223.0" stroke="rgb(0,0,0)"  stroke-width="2.0"/>
<line x1="157.3" y1="202.4" x2="146.3" y2="177.7" stroke="rgb(0,0,0)"  stroke-width="2.0"/>
<line x1="146.3" y1="177.7" x2="106.5" y2="181.9" stroke="rgb(0,0,0)"  stroke-width="2.0"/>
<line x1="141.1" y1="185.5" x2="113.2" y2="188.4" stroke="rgb(0,0,0)"  stroke-width="2.0"/>
<line x1="106.5" y1="181.9" x2="98.2" y2="221.0" stroke="rgb(0,0,0)"  stroke-width="2.0"/>
<line x1="95.4" y1="407.4" x2="135.2" y2="403.2" stroke="rgb(0,0,0)"  stroke-width="2.0"/>
<line x1="100.6" y1="399.6" x2="128.5" y2="396.7" stroke="rgb(0,0,0)"  stroke-width="2.0"/>
<line x1="135.2" y1="403.2" x2="140.8" y2="376.8" stroke="rgb(0,0,0)"  stroke-width="2.0"/>
<line x1="132.2" y1="357.6" x2="108.9" y2="344.1" stroke="rgb(0,0,0)"  stroke-width="2.0"/>
<line x1="108.9" y1="344.1" x2="79.1" y2="370.9" stroke="rgb(0,0,0)"  stroke-width="2.0"/>
<line x1="109.2" y1="353.5" x2="88.4" y2="372.2" stroke="rgb(0,0,0)"  stroke-width="2.0"/>
<line x1="79.1" y1="370.9" x2="95.4" y2="407.4" stroke="rgb(0,0,0)"  stroke-width="2.0"/>
<line x1="240.7" y1="158.9" x2="260.8" y2="140.8" stroke="rgb(0,0,0)"  stroke-width="2.0"/>
<line x1="265.2" y1="120.3" x2="254.2" y2="95.6" stroke="rgb(0,0,0)"  stroke-width="2.0"/>
<line x1="254.2" y1="95.6" x2="214.4" y2="99.8" stroke="rgb(0,0,0)"  stroke-width="2.0"/>
<line x1="249.0" y1="103.4" x2="221.1" y2="106.3" stroke="rgb(0,0,0)"  stroke-width="2.0"/>
<line x1="214.4" y1="99.8" x2="206.1" y2="138.9" stroke="rgb(0,0,0)"  stroke-width="2.0"/>
<line x1="206.1" y1="138.9" x2="240.7" y2="158.9" stroke="rgb(0,0,0)"  stroke-width="2.0"/>
<line x1="214.4" y1="99.8" x2="179.8" y2="79.8" stroke="rgb(0,0,0)"  stroke-width="2.0"/>
<line x1="179.8" y1="79.8" x2="159.7" y2="97.8" stroke="rgb(0,0,0)"  stroke-width="2.0"/>
<line x1="155.3" y1="118.4" x2="166.3" y2="143.1" stroke="rgb(0,0,0)"  stroke-width="2.0"/>
<line x1="166.3" y1="143.1" x2="206.1" y2="138.9" stroke="rgb(0,0,0)"  stroke-width="2.0"/>
<line x1="171.5" y1="135.3" x2="199.4" y2="132.4" stroke="rgb(0,0,0)"  stroke-width="2.0"/>
<text x="84.911057" y="106.229632" fill="rgb(102,102,102)"  stroke="rgb(102,102,102)" stroke-width="1" font-size="16" >H</text>
<text x="96.911057" y="109.909632" fill="rgb(102,102,102)"  stroke="rgb(102,102,102)" stroke-width="1" font-size="13" >3</text>
<text x="103.411057" y="106.229632" fill="rgb(102,102,102)"  stroke="rgb(102,102,102)" stroke-width="1" font-size="16" >C</text>
<text x="144.036961" y="114.546100" fill="rgb(12,12,255)"  stroke="rgb(12,12,255)" stroke-width="1" font-size="16" >N</text>
<text x="169.581616" y="48.000000" fill="rgb(255,12,12)"  stroke="rgb(255,12,12)" stroke-width="1" font-size="16" >O</text>
<text x="268.184646" y="68.958721" fill="rgb(191,191,191)"  stroke="rgb(191,191,191)" stroke-width="1" font-size="16" >H</text>
<text x="305.580016" y="148.458023" fill="rgb(102,102,102)"  stroke="rgb(102,102,102)" stroke-width="1" font-size="16" >CH</text>
<text x="329.580016" y="152.138023" fill="rgb(102,102,102)"  stroke="rgb(102,102,102)" stroke-width="1" font-size="13" >3</text>
<text x="264.454112" y="140.141556" fill="rgb(12,12,255)"  stroke="rgb(12,12,255)" stroke-width="1" font-size="16" >N</text>
<text x="238.909458" y="206.687656" fill="rgb(255,12,12)"  stroke="rgb(255,12,12)" stroke-width="1" font-size="16" >O</text>
<text x="137.492713" y="372.109139" fill="rgb(178,178,0)"  stroke="rgb(178,178,0)" stroke-width="1" font-size="16" >S</text>
<text x="155.941470" y="440.960836" fill="rgb(191,191,191)"  stroke="rgb(191,191,191)" stroke-width="1" font-size="16" >H</text>
<text x="57.395370" y="450.057198" fill="rgb(30,239,30)"  stroke="rgb(30,239,30)" stroke-width="1" font-size="16" >Cl</text>
<text x="34.000000" y="370.557895" fill="rgb(127,178,255)"  stroke="rgb(127,178,255)" stroke-width="1" font-size="16" >F</text>
<text x="156.575893" y="222.270753" fill="rgb(178,178,0)"  stroke="rgb(178,178,0)" stroke-width="1" font-size="16" >S</text>
<text x="55.667265" y="245.305443" fill="rgb(127,178,255)"  stroke="rgb(127,178,255)" stroke-width="1" font-size="16" >F</text>
<text x="61.760327" y="160.184280" fill="rgb(30,239,30)"  stroke="rgb(30,239,30)" stroke-width="1" font-size="16" >Cl</text>
</svg>
</g>
<text font-size="18.000000" fill ="black" font-family="sans-serif"
x="10.000000" y="20.000000" ></text>
</svg>
