<?xml version="1.0"?>
<svg version="1.1" id="topsvg"
xmlns="http://www.w3.org/2000/svg" xmlns:xlink="http://www.w3.org/1999/xlink"
xmlns:cml="http://www.xml-cml.org/schema" x="0" y="0" width="200px" height="200px" viewBox="0 0 100 100">
<title> - Open Babel Depiction</title>
<rect x="0" y="0" width="100" height="100" fill="white"/>
<g transform="translate(0,0)">
<svg width="100" height="100" x="0" y="0" viewBox="0 0 468.937 278.215"
font-family="sans-serif" stroke="rgb(0,0,0)" stroke-width="2"  stroke-linecap="round">
<line x1="205.0" y1="128.1" x2="238.7" y2="108.5" stroke="rgb(0,0,0)"  stroke-width="2.0"/>
<line x1="261.4" y1="76.9" x2="253.3" y2="52.3" stroke="rgb(0,0,0)"  stroke-width="2.0"/>
<line x1="298.4" y1="88.8" x2="319.3" y2="73.5" stroke="rgb(0,0,0)"  stroke-width="2.0"/>
<line x1="298.6" y1="127.7" x2="330.1" y2="150.5" stroke="rgb(0,0,0)"  stroke-width="2.0"/>
<line x1="390.0" y1="169.7" x2="415.9" y2="169.6" stroke="rgb(0,0,0)"  stroke-width="2.0"/>
<line x1="367.3" y1="201.3" x2="375.4" y2="225.9" stroke="rgb(0,0,0)"  stroke-width="2.0"/>
<line x1="330.3" y1="189.4" x2="309.4" y2="204.7" stroke="rgb(0,0,0)"  stroke-width="2.0"/>
<line x1="133.9" y1="88.7" x2="133.8" y2="61.6" stroke="rgb(0,0,0)"  stroke-width="2.0"/>
<line x1="139.9" y1="88.7" x2="139.8" y2="61.5" stroke="rgb(0,0,0)"  stroke-width="2.0"/>
<line x1="91.2" y1="102.4" x2="80.0" y2="96.0" stroke="rgb(0,0,0)"  stroke-width="2.0"/>
<line x1="59.1" y1="98.4" x2="49.6" y2="107.1" stroke="rgb(0,0,0)"  stroke-width="2.0"/>
<line x1="102.8" y1="147.7" x2="79.4" y2="161.3" stroke="rgb(0,0,0)"  stroke-width="2.0"/>
<line x1="174.0" y1="187.1" x2="174.1" y2="214.1" stroke="rgb(0,0,0)"  stroke-width="2.0"/>
<line x1="168.0" y1="187.1" x2="168.1" y2="214.1" stroke="rgb(0,0,0)"  stroke-width="2.0"/>
<line x1="216.6" y1="173.4" x2="227.8" y2="179.8" stroke="rgb(0,0,0)"  stroke-width="2.0"/>
<line x1="248.7" y1="177.4" x2="258.3" y2="168.7" stroke="rgb(0,0,0)"  stroke-width="2.0"/>
<line x1="298.4" y1="88.8" x2="298.6" y2="127.7" stroke="rgb(0,0,0)"  stroke-width="2.0"/>
<line x1="291.3" y1="94.9" x2="291.4" y2="121.8" stroke="rgb(0,0,0)"  stroke-width="2.0"/>
<line x1="298.6" y1="127.7" x2="274.0" y2="135.8" stroke="rgb(0,0,0)"  stroke-width="2.0"/>
<line x1="253.9" y1="129.4" x2="238.7" y2="108.5" stroke="rgb(0,0,0)"  stroke-width="2.0"/>
<line x1="238.7" y1="108.5" x2="261.4" y2="76.9" stroke="rgb(0,0,0)"  stroke-width="2.0"/>
<line x1="248.0" y1="107.8" x2="263.7" y2="86.0" stroke="rgb(0,0,0)"  stroke-width="2.0"/>
<line x1="261.4" y1="76.9" x2="298.4" y2="88.8" stroke="rgb(0,0,0)"  stroke-width="2.0"/>
<line x1="390.0" y1="169.7" x2="367.3" y2="201.3" stroke="rgb(0,0,0)"  stroke-width="2.0"/>
<line x1="380.7" y1="170.4" x2="365.0" y2="192.2" stroke="rgb(0,0,0)"  stroke-width="2.0"/>
<line x1="367.3" y1="201.3" x2="330.3" y2="189.4" stroke="rgb(0,0,0)"  stroke-width="2.0"/>
<line x1="330.3" y1="189.4" x2="330.1" y2="150.5" stroke="rgb(0,0,0)"  stroke-width="2.0"/>
<line x1="337.4" y1="183.4" x2="337.3" y2="156.5" stroke="rgb(0,0,0)"  stroke-width="2.0"/>
<line x1="330.1" y1="150.5" x2="354.7" y2="142.4" stroke="rgb(0,0,0)"  stroke-width="2.0"/>
<line x1="374.7" y1="148.8" x2="390.0" y2="169.7" stroke="rgb(0,0,0)"  stroke-width="2.0"/>
<line x1="136.9" y1="88.7" x2="113.8" y2="102.3" stroke="rgb(0,0,0)"  stroke-width="2.0"/>
<line x1="102.6" y1="121.8" x2="102.8" y2="147.7" stroke="rgb(0,0,0)"  stroke-width="2.0"/>
<line x1="102.8" y1="147.7" x2="136.9" y2="167.4" stroke="rgb(0,0,0)"  stroke-width="2.0"/>
<line x1="111.6" y1="144.5" x2="135.3" y2="158.2" stroke="rgb(0,0,0)"  stroke-width="2.0"/>
<line x1="136.9" y1="167.4" x2="171.0" y2="108.4" stroke="rgb(0,0,0)"  stroke-width="2.0"/>
<line x1="171.0" y1="108.4" x2="136.9" y2="88.7" stroke="rgb(0,0,0)"  stroke-width="2.0"/>
<line x1="136.9" y1="167.4" x2="171.0" y2="187.1" stroke="rgb(0,0,0)"  stroke-width="2.0"/>
<line x1="171.0" y1="187.1" x2="194.1" y2="173.5" stroke="rgb(0,0,0)"  stroke-width="2.0"/>
<line x1="205.2" y1="154.0" x2="205.0" y2="128.1" stroke="rgb(0,0,0)"  stroke-width="2.0"/>
<line x1="205.0" y1="128.1" x2="171.0" y2="108.4" stroke="rgb(0,0,0)"  stroke-width="2.0"/>
<line x1="196.2" y1="131.3" x2="172.6" y2="117.6" stroke="rgb(0,0,0)"  stroke-width="2.0"/>
<text x="280.872309" y="220.349854" fill="rgb(30,239,30)"  stroke="rgb(30,239,30)" stroke-width="1" font-size="16" >Cl</text>
<text x="263.855612" y="167.963099" fill="rgb(102,102,102)"  stroke="rgb(102,102,102)" stroke-width="1" font-size="16" >CH</text>
<text x="287.855612" y="171.643099" fill="rgb(102,102,102)"  stroke="rgb(102,102,102)" stroke-width="1" font-size="13" >3</text>
<text x="233.123775" y="194.179179" fill="rgb(255,12,12)"  stroke="rgb(255,12,12)" stroke-width="1" font-size="16" >O</text>
<text x="199.312175" y="174.954793" fill="rgb(12,12,255)"  stroke="rgb(12,12,255)" stroke-width="1" font-size="16" >N</text>
<text x="165.096729" y="235.135806" fill="rgb(255,12,12)"  stroke="rgb(255,12,12)" stroke-width="1" font-size="16" >O</text>
<text x="62.184854" y="175.872415" fill="rgb(191,191,191)"  stroke="rgb(191,191,191)" stroke-width="1" font-size="16" >H</text>
<text x="14.000000" y="123.812772" fill="rgb(102,102,102)"  stroke="rgb(102,102,102)" stroke-width="1" font-size="16" >H</text>
<text x="26.000000" y="127.492772" fill="rgb(102,102,102)"  stroke="rgb(102,102,102)" stroke-width="1" font-size="13" >3</text>
<text x="32.500000" y="123.812772" fill="rgb(102,102,102)"  stroke="rgb(102,102,102)" stroke-width="1" font-size="16" >C</text>
<text x="62.731837" y="97.596691" fill="rgb(255,12,12)"  stroke="rgb(255,12,12)" stroke-width="1" font-size="16" >O</text>
<text x="96.543437" y="116.821078" fill="rgb(12,12,255)"  stroke="rgb(12,12,255)" stroke-width="1" font-size="16" >N</text>
<text x="130.758613" y="56.552913" fill="rgb(255,12,12)"  stroke="rgb(255,12,12)" stroke-width="1" font-size="16" >O</text>
<text x="373.440506" y="246.215201" fill="rgb(127,178,255)"  stroke="rgb(127,178,255)" stroke-width="1" font-size="16" >F</text>
<text x="422.936855" y="177.583124" fill="rgb(191,191,191)"  stroke="rgb(191,191,191)" stroke-width="1" font-size="16" >H</text>
<text x="361.070089" y="146.333956" fill="rgb(178,178,0)"  stroke="rgb(178,178,0)" stroke-width="1" font-size="16" >S</text>
<text x="255.626162" y="147.881245" fill="rgb(178,178,0)"  stroke="rgb(178,178,0)" stroke-width="1" font-size="16" >S</text>
<text x="323.823942" y="73.865347" fill="rgb(30,239,30)"  stroke="rgb(30,239,30)" stroke-width="1" font-size="16" >Cl</text>
<text x="243.255745" y="48.000000" fill="rgb(127,178,255)"  stroke="rgb(127,178,255)" stroke-width="1" font-size="16" >F</text>
</svg>
</g>
<text font-size="18.000000" fill ="black" font-family="sans-serif"
x="10.000000" y="20.000000" ></text>
</svg>
