<?xml version="1.0"?>
<svg version="1.1" id="topsvg"
xmlns="http://www.w3.org/2000/svg" xmlns:xlink="http://www.w3.org/1999/xlink"
xmlns:cml="http://www.xml-cml.org/schema" x="0" y="0" width="200px" height="200px" viewBox="0 0 100 100">
<title> - Open Babel Depiction</title>
<rect x="0" y="0" width="100" height="100" fill="white"/>
<g transform="translate(0,0)">
<svg width="100" height="100" x="0" y="0" viewBox="0 0 410.626 320.817"
font-family="sans-serif" stroke="rgb(0,0,0)" stroke-width="2"  stroke-linecap="round">
<line x1="175.9" y1="143.1" x2="155.9" y2="177.7" stroke="rgb(0,0,0)"  stroke-width="2.0"/>
<line x1="142.4" y1="241.0" x2="145.2" y2="267.9" stroke="rgb(0,0,0)"  stroke-width="2.0"/>
<line x1="253.3" y1="158.6" x2="256.1" y2="185.4" stroke="rgb(0,0,0)"  stroke-width="2.0"/>
<line x1="247.3" y1="159.2" x2="250.1" y2="186.1" stroke="rgb(0,0,0)"  stroke-width="2.0"/>
<line x1="292.7" y1="134.8" x2="319.1" y2="140.5" stroke="rgb(0,0,0)"  stroke-width="2.0"/>
<line x1="316.9" y1="138.5" x2="335.0" y2="118.4" stroke="rgb(0,0,0)"  stroke-width="2.0"/>
<line x1="321.4" y1="142.5" x2="339.4" y2="122.4" stroke="rgb(0,0,0)"  stroke-width="2.0"/>
<line x1="319.1" y1="140.5" x2="327.5" y2="166.1" stroke="rgb(0,0,0)"  stroke-width="2.0"/>
<line x1="344.2" y1="181.2" x2="357.9" y2="184.1" stroke="rgb(0,0,0)"  stroke-width="2.0"/>
<line x1="261.1" y1="94.1" x2="274.6" y2="70.7" stroke="rgb(0,0,0)"  stroke-width="2.0"/>
<line x1="266.3" y1="97.1" x2="279.8" y2="73.7" stroke="rgb(0,0,0)"  stroke-width="2.0"/>
<line x1="189.3" y1="79.8" x2="186.5" y2="52.9" stroke="rgb(0,0,0)"  stroke-width="2.0"/>
<line x1="107.8" y1="221.0" x2="142.4" y2="241.0" stroke="rgb(0,0,0)"  stroke-width="2.0"/>
<line x1="116.6" y1="217.8" x2="140.8" y2="231.8" stroke="rgb(0,0,0)"  stroke-width="2.0"/>
<line x1="142.4" y1="241.0" x2="162.5" y2="223.0" stroke="rgb(0,0,0)"  stroke-width="2.0"/>
<line x1="166.8" y1="202.4" x2="155.9" y2="177.7" stroke="rgb(0,0,0)"  stroke-width="2.0"/>
<line x1="155.9" y1="177.7" x2="116.1" y2="181.9" stroke="rgb(0,0,0)"  stroke-width="2.0"/>
<line x1="150.7" y1="185.5" x2="122.8" y2="188.4" stroke="rgb(0,0,0)"  stroke-width="2.0"/>
<line x1="116.1" y1="181.9" x2="107.8" y2="221.0" stroke="rgb(0,0,0)"  stroke-width="2.0"/>
<line x1="224.0" y1="99.8" x2="189.3" y2="79.8" stroke="rgb(0,0,0)"  stroke-width="2.0"/>
<line x1="215.2" y1="103.0" x2="190.9" y2="89.0" stroke="rgb(0,0,0)"  stroke-width="2.0"/>
<line x1="189.3" y1="79.8" x2="169.3" y2="97.8" stroke="rgb(0,0,0)"  stroke-width="2.0"/>
<line x1="164.9" y1="118.4" x2="175.9" y2="143.1" stroke="rgb(0,0,0)"  stroke-width="2.0"/>
<line x1="175.9" y1="143.1" x2="215.6" y2="138.9" stroke="rgb(0,0,0)"  stroke-width="2.0"/>
<line x1="181.1" y1="135.3" x2="208.9" y2="132.4" stroke="rgb(0,0,0)"  stroke-width="2.0"/>
<line x1="215.6" y1="138.9" x2="224.0" y2="99.8" stroke="rgb(0,0,0)"  stroke-width="2.0"/>
<line x1="250.3" y1="158.9" x2="270.4" y2="140.8" stroke="rgb(0,0,0)"  stroke-width="2.0"/>
<line x1="274.7" y1="120.3" x2="263.7" y2="95.6" stroke="rgb(0,0,0)"  stroke-width="2.0"/>
<line x1="263.7" y1="95.6" x2="224.0" y2="99.8" stroke="rgb(0,0,0)"  stroke-width="2.0"/>
<line x1="215.6" y1="138.9" x2="250.3" y2="158.9" stroke="rgb(0,0,0)"  stroke-width="2.0"/>
<line x1="74.0" y1="159.2" x2="48.3" y2="167.5" stroke="rgb(0,0,0)"  stroke-width="2.0"/>
<line x1="48.3" y1="167.5" x2="40.0" y2="206.6" stroke="rgb(0,0,0)"  stroke-width="2.0"/>
<line x1="40.0" y1="206.6" x2="60.1" y2="224.7" stroke="rgb(0,0,0)"  stroke-width="2.0"/>
<line x1="82.1" y1="229.4" x2="107.8" y2="221.0" stroke="rgb(0,0,0)"  stroke-width="2.0"/>
<line x1="116.1" y1="181.9" x2="96.0" y2="163.8" stroke="rgb(0,0,0)"  stroke-width="2.0"/>
<text x="153.595931" y="114.546100" fill="rgb(178,178,0)"  stroke="rgb(178,178,0)" stroke-width="1" font-size="16" >S</text>
<text x="179.140586" y="48.000000" fill="rgb(191,191,191)"  stroke="rgb(191,191,191)" stroke-width="1" font-size="16" >H</text>
<text x="277.743616" y="68.958721" fill="rgb(255,12,12)"  stroke="rgb(255,12,12)" stroke-width="1" font-size="16" >O</text>
<text x="366.625570" y="194.816752" fill="rgb(102,102,102)"  stroke="rgb(102,102,102)" stroke-width="1" font-size="16" >CH</text>
<text x="390.625570" y="198.496752" fill="rgb(102,102,102)"  stroke="rgb(102,102,102)" stroke-width="1" font-size="13" >3</text>
<text x="325.499666" y="186.500284" fill="rgb(255,12,12)"  stroke="rgb(255,12,12)" stroke-width="1" font-size="16" >O</text>
<text x="339.904210" y="118.732230" fill="rgb(255,12,12)"  stroke="rgb(255,12,12)" stroke-width="1" font-size="16" >O</text>
<text x="274.013082" y="140.141556" fill="rgb(12,12,255)"  stroke="rgb(12,12,255)" stroke-width="1" font-size="16" >N</text>
<text x="248.468428" y="206.687656" fill="rgb(255,12,12)"  stroke="rgb(255,12,12)" stroke-width="1" font-size="16" >O</text>
<text x="166.134863" y="222.270753" fill="rgb(178,178,0)"  stroke="rgb(178,178,0)" stroke-width="1" font-size="16" >S</text>
<text x="140.590208" y="288.816853" fill="rgb(191,191,191)"  stroke="rgb(191,191,191)" stroke-width="1" font-size="16" >H</text>
<text x="63.725793" y="241.396657" fill="rgb(255,12,12)"  stroke="rgb(255,12,12)" stroke-width="1" font-size="16" >O</text>
<text x="80.358728" y="163.144849" fill="rgb(255,12,12)"  stroke="rgb(255,12,12)" stroke-width="1" font-size="16" >O</text>
</svg>
</g>
<text font-size="18.000000" fill ="black" font-family="sans-serif"
x="10.000000" y="20.000000" ></text>
</svg>
