<?xml version="1.0"?>
<svg version="1.1" id="topsvg"
xmlns="http://www.w3.org/2000/svg" xmlns:xlink="http://www.w3.org/1999/xlink"
xmlns:cml="http://www.xml-cml.org/schema" x="0" y="0" width="200px" height="200px" viewBox="0 0 100 100">
<title> - Open Babel Depiction</title>
<rect x="0" y="0" width="100" height="100" fill="white"/>
<g transform="translate(0,0)">
<svg width="100" height="100" x="0" y="0" viewBox="0 0 464.998 240.047"
font-family="sans-serif" stroke="rgb(0,0,0)" stroke-width="2"  stroke-linecap="round">
<line x1="310.7" y1="117.9" x2="277.0" y2="98.4" stroke="rgb(0,0,0)"  stroke-width="2.0"/>
<line x1="175.8" y1="130.9" x2="175.8" y2="144.9" stroke="rgb(0,0,0)"  stroke-width="2.0"/>
<line x1="74.6" y1="98.4" x2="51.3" y2="111.9" stroke="rgb(0,0,0)"  stroke-width="2.0"/>
<line x1="336.8" y1="89.0" x2="328.8" y2="64.3" stroke="rgb(0,0,0)"  stroke-width="2.0"/>
<line x1="374.9" y1="97.0" x2="392.2" y2="77.8" stroke="rgb(0,0,0)"  stroke-width="2.0"/>
<line x1="386.9" y1="134.1" x2="412.3" y2="139.5" stroke="rgb(0,0,0)"  stroke-width="2.0"/>
<line x1="360.9" y1="163.0" x2="368.9" y2="187.7" stroke="rgb(0,0,0)"  stroke-width="2.0"/>
<line x1="322.8" y1="154.9" x2="305.4" y2="174.2" stroke="rgb(0,0,0)"  stroke-width="2.0"/>
<line x1="142.1" y1="98.4" x2="142.1" y2="59.5" stroke="rgb(0,0,0)"  stroke-width="2.0"/>
<line x1="142.1" y1="59.5" x2="209.6" y2="59.5" stroke="rgb(0,0,0)"  stroke-width="2.0"/>
<line x1="209.6" y1="59.5" x2="209.6" y2="98.4" stroke="rgb(0,0,0)"  stroke-width="2.0"/>
<line x1="202.4" y1="65.5" x2="202.4" y2="92.4" stroke="rgb(0,0,0)"  stroke-width="2.0"/>
<line x1="209.6" y1="98.4" x2="187.1" y2="111.4" stroke="rgb(0,0,0)"  stroke-width="2.0"/>
<line x1="164.6" y1="111.4" x2="142.1" y2="98.4" stroke="rgb(0,0,0)"  stroke-width="2.0"/>
<line x1="209.6" y1="59.5" x2="243.3" y2="40.0" stroke="rgb(0,0,0)"  stroke-width="2.0"/>
<line x1="243.3" y1="40.0" x2="277.0" y2="59.5" stroke="rgb(0,0,0)"  stroke-width="2.0"/>
<line x1="244.9" y1="49.2" x2="268.2" y2="62.7" stroke="rgb(0,0,0)"  stroke-width="2.0"/>
<line x1="277.0" y1="59.5" x2="277.0" y2="98.4" stroke="rgb(0,0,0)"  stroke-width="2.0"/>
<line x1="277.0" y1="98.4" x2="243.3" y2="117.9" stroke="rgb(0,0,0)"  stroke-width="2.0"/>
<line x1="268.2" y1="95.2" x2="244.9" y2="108.7" stroke="rgb(0,0,0)"  stroke-width="2.0"/>
<line x1="243.3" y1="117.9" x2="209.6" y2="98.4" stroke="rgb(0,0,0)"  stroke-width="2.0"/>
<line x1="108.4" y1="117.9" x2="142.1" y2="98.4" stroke="rgb(0,0,0)"  stroke-width="2.0"/>
<line x1="110.0" y1="108.7" x2="133.3" y2="95.2" stroke="rgb(0,0,0)"  stroke-width="2.0"/>
<line x1="142.1" y1="59.5" x2="108.4" y2="40.0" stroke="rgb(0,0,0)"  stroke-width="2.0"/>
<line x1="133.3" y1="62.7" x2="110.0" y2="49.2" stroke="rgb(0,0,0)"  stroke-width="2.0"/>
<line x1="108.4" y1="40.0" x2="74.6" y2="59.5" stroke="rgb(0,0,0)"  stroke-width="2.0"/>
<line x1="74.6" y1="59.5" x2="74.6" y2="98.4" stroke="rgb(0,0,0)"  stroke-width="2.0"/>
<line x1="81.8" y1="65.5" x2="81.8" y2="92.4" stroke="rgb(0,0,0)"  stroke-width="2.0"/>
<line x1="74.6" y1="98.4" x2="108.4" y2="117.9" stroke="rgb(0,0,0)"  stroke-width="2.0"/>
<line x1="374.9" y1="97.0" x2="386.9" y2="134.1" stroke="rgb(0,0,0)"  stroke-width="2.0"/>
<line x1="369.9" y1="105.0" x2="378.2" y2="130.6" stroke="rgb(0,0,0)"  stroke-width="2.0"/>
<line x1="386.9" y1="134.1" x2="360.9" y2="163.0" stroke="rgb(0,0,0)"  stroke-width="2.0"/>
<line x1="360.9" y1="163.0" x2="322.8" y2="154.9" stroke="rgb(0,0,0)"  stroke-width="2.0"/>
<line x1="356.5" y1="154.7" x2="330.1" y2="149.1" stroke="rgb(0,0,0)"  stroke-width="2.0"/>
<line x1="322.8" y1="154.9" x2="310.7" y2="117.9" stroke="rgb(0,0,0)"  stroke-width="2.0"/>
<line x1="310.7" y1="117.9" x2="336.8" y2="89.0" stroke="rgb(0,0,0)"  stroke-width="2.0"/>
<line x1="320.1" y1="118.3" x2="338.1" y2="98.2" stroke="rgb(0,0,0)"  stroke-width="2.0"/>
<line x1="336.8" y1="89.0" x2="374.9" y2="97.0" stroke="rgb(0,0,0)"  stroke-width="2.0"/>
<text x="290.721923" y="191.862894" fill="rgb(127,178,255)"  stroke="rgb(127,178,255)" stroke-width="1" font-size="16" >F</text>
<text x="366.895259" y="208.046809" fill="rgb(127,178,255)"  stroke="rgb(127,178,255)" stroke-width="1" font-size="16" >F</text>
<text x="418.997607" y="150.170722" fill="rgb(191,191,191)"  stroke="rgb(191,191,191)" stroke-width="1" font-size="16" >H</text>
<text x="394.926621" y="76.110721" fill="rgb(127,178,255)"  stroke="rgb(127,178,255)" stroke-width="1" font-size="16" >F</text>
<text x="318.753285" y="59.926807" fill="rgb(127,178,255)"  stroke="rgb(127,178,255)" stroke-width="1" font-size="16" >F</text>
<text x="34.000000" y="126.442812" fill="rgb(191,191,191)"  stroke="rgb(191,191,191)" stroke-width="1" font-size="16" >H</text>
<text x="169.846912" y="165.906076" fill="rgb(191,191,191)"  stroke="rgb(191,191,191)" stroke-width="1" font-size="16" >H</text>
<text x="169.839295" y="125.906077" fill="rgb(12,12,255)"  stroke="rgb(12,12,255)" stroke-width="1" font-size="16" >N</text>
</svg>
</g>
<text font-size="18.000000" fill ="black" font-family="sans-serif"
x="10.000000" y="20.000000" ></text>
</svg>
