<?xml version="1.0"?>
<svg version="1.1" id="topsvg"
xmlns="http://www.w3.org/2000/svg" xmlns:xlink="http://www.w3.org/1999/xlink"
xmlns:cml="http://www.xml-cml.org/schema" x="0" y="0" width="200px" height="200px" viewBox="0 0 100 100">
<title> - Open Babel Depiction</title>
<rect x="0" y="0" width="100" height="100" fill="white"/>
<g transform="translate(0,0)">
<svg width="100" height="100" x="0" y="0" viewBox="0 0 341.161 393.047"
font-family="sans-serif" stroke="rgb(0,0,0)" stroke-width="2"  stroke-linecap="round">
<line x1="192.5" y1="159.3" x2="154.4" y2="151.2" stroke="rgb(0,0,0)"  stroke-width="2.0"/>
<line x1="104.2" y1="106.1" x2="92.2" y2="69.0" stroke="rgb(0,0,0)"  stroke-width="2.0"/>
<line x1="91.6" y1="71.9" x2="66.1" y2="66.5" stroke="rgb(0,0,0)"  stroke-width="2.0"/>
<line x1="92.8" y1="66.0" x2="67.4" y2="60.6" stroke="rgb(0,0,0)"  stroke-width="2.0"/>
<line x1="92.2" y1="69.0" x2="109.6" y2="49.7" stroke="rgb(0,0,0)"  stroke-width="2.0"/>
<line x1="131.0" y1="42.7" x2="143.7" y2="45.4" stroke="rgb(0,0,0)"  stroke-width="2.0"/>
<line x1="78.1" y1="135.0" x2="52.7" y2="129.6" stroke="rgb(0,0,0)"  stroke-width="2.0"/>
<line x1="128.3" y1="180.2" x2="140.4" y2="217.3" stroke="rgb(0,0,0)"  stroke-width="2.0"/>
<line x1="141.0" y1="214.4" x2="166.4" y2="219.8" stroke="rgb(0,0,0)"  stroke-width="2.0"/>
<line x1="139.7" y1="220.2" x2="165.2" y2="225.6" stroke="rgb(0,0,0)"  stroke-width="2.0"/>
<line x1="140.4" y1="217.3" x2="123.0" y2="236.6" stroke="rgb(0,0,0)"  stroke-width="2.0"/>
<line x1="118.3" y1="258.6" x2="122.3" y2="271.0" stroke="rgb(0,0,0)"  stroke-width="2.0"/>
<line x1="201.5" y1="235.8" x2="177.8" y2="246.4" stroke="rgb(0,0,0)"  stroke-width="2.0"/>
<line x1="199.1" y1="230.4" x2="175.3" y2="240.9" stroke="rgb(0,0,0)"  stroke-width="2.0"/>
<line x1="235.4" y1="265.5" x2="238.1" y2="291.4" stroke="rgb(0,0,0)"  stroke-width="2.0"/>
<line x1="239.3" y1="288.6" x2="263.1" y2="299.2" stroke="rgb(0,0,0)"  stroke-width="2.0"/>
<line x1="236.9" y1="294.1" x2="260.6" y2="304.7" stroke="rgb(0,0,0)"  stroke-width="2.0"/>
<line x1="238.1" y1="291.4" x2="217.1" y2="306.6" stroke="rgb(0,0,0)"  stroke-width="2.0"/>
<line x1="207.9" y1="327.2" x2="209.3" y2="340.1" stroke="rgb(0,0,0)"  stroke-width="2.0"/>
<line x1="263.0" y1="226.5" x2="288.4" y2="231.9" stroke="rgb(0,0,0)"  stroke-width="2.0"/>
<line x1="254.1" y1="150.0" x2="277.8" y2="139.4" stroke="rgb(0,0,0)"  stroke-width="2.0"/>
<line x1="256.5" y1="155.5" x2="280.2" y2="144.9" stroke="rgb(0,0,0)"  stroke-width="2.0"/>
<line x1="224.4" y1="145.9" x2="238.5" y2="206.8" stroke="rgb(0,0,0)"  stroke-width="2.0"/>
<line x1="235.9" y1="205.3" x2="248.9" y2="182.8" stroke="rgb(0,0,0)"  stroke-width="2.0"/>
<line x1="241.1" y1="208.3" x2="254.0" y2="185.8" stroke="rgb(0,0,0)"  stroke-width="2.0"/>
<line x1="238.5" y1="206.8" x2="212.5" y2="206.8" stroke="rgb(0,0,0)"  stroke-width="2.0"/>
<line x1="193.0" y1="195.5" x2="186.5" y2="184.3" stroke="rgb(0,0,0)"  stroke-width="2.0"/>
<line x1="200.3" y1="233.1" x2="222.8" y2="246.1" stroke="rgb(0,0,0)"  stroke-width="2.0"/>
<line x1="243.7" y1="243.9" x2="263.0" y2="226.5" stroke="rgb(0,0,0)"  stroke-width="2.0"/>
<line x1="263.0" y1="226.5" x2="247.2" y2="190.9" stroke="rgb(0,0,0)"  stroke-width="2.0"/>
<line x1="254.0" y1="223.9" x2="243.0" y2="199.3" stroke="rgb(0,0,0)"  stroke-width="2.0"/>
<line x1="247.2" y1="190.9" x2="208.4" y2="195.0" stroke="rgb(0,0,0)"  stroke-width="2.0"/>
<line x1="208.4" y1="195.0" x2="200.3" y2="233.1" stroke="rgb(0,0,0)"  stroke-width="2.0"/>
<line x1="247.2" y1="190.9" x2="255.3" y2="152.7" stroke="rgb(0,0,0)"  stroke-width="2.0"/>
<line x1="255.3" y1="152.7" x2="232.8" y2="139.8" stroke="rgb(0,0,0)"  stroke-width="2.0"/>
<line x1="211.9" y1="142.0" x2="192.5" y2="159.3" stroke="rgb(0,0,0)"  stroke-width="2.0"/>
<line x1="192.5" y1="159.3" x2="208.4" y2="195.0" stroke="rgb(0,0,0)"  stroke-width="2.0"/>
<line x1="201.6" y1="161.9" x2="212.5" y2="186.5" stroke="rgb(0,0,0)"  stroke-width="2.0"/>
<line x1="104.2" y1="106.1" x2="78.1" y2="135.0" stroke="rgb(0,0,0)"  stroke-width="2.0"/>
<line x1="105.6" y1="115.3" x2="87.5" y2="135.4" stroke="rgb(0,0,0)"  stroke-width="2.0"/>
<line x1="78.1" y1="135.0" x2="90.2" y2="172.1" stroke="rgb(0,0,0)"  stroke-width="2.0"/>
<line x1="90.2" y1="172.1" x2="128.3" y2="180.2" stroke="rgb(0,0,0)"  stroke-width="2.0"/>
<line x1="97.5" y1="166.3" x2="123.9" y2="171.9" stroke="rgb(0,0,0)"  stroke-width="2.0"/>
<line x1="128.3" y1="180.2" x2="154.4" y2="151.2" stroke="rgb(0,0,0)"  stroke-width="2.0"/>
<line x1="154.4" y1="151.2" x2="142.4" y2="114.2" stroke="rgb(0,0,0)"  stroke-width="2.0"/>
<line x1="145.7" y1="147.8" x2="137.4" y2="122.1" stroke="rgb(0,0,0)"  stroke-width="2.0"/>
<line x1="142.4" y1="114.2" x2="104.2" y2="106.1" stroke="rgb(0,0,0)"  stroke-width="2.0"/>
<text x="158.674172" y="256.949273" fill="rgb(255,12,12)"  stroke="rgb(255,12,12)" stroke-width="1" font-size="16" >O</text>
<text x="228.053644" y="260.585297" fill="rgb(12,12,255)"  stroke="rgb(12,12,255)" stroke-width="1" font-size="16" >N</text>
<text x="267.744916" y="315.215646" fill="rgb(255,12,12)"  stroke="rgb(255,12,12)" stroke-width="1" font-size="16" >O</text>
<text x="200.588010" y="322.274122" fill="rgb(255,12,12)"  stroke="rgb(255,12,12)" stroke-width="1" font-size="16" >O</text>
<text x="206.663223" y="361.047179" fill="rgb(102,102,102)"  stroke="rgb(102,102,102)" stroke-width="1" font-size="16" >CH</text>
<text x="230.663223" y="364.727179" fill="rgb(102,102,102)"  stroke="rgb(102,102,102)" stroke-width="1" font-size="13" >3</text>
<text x="295.161036" y="242.603926" fill="rgb(191,191,191)"  stroke="rgb(191,191,191)" stroke-width="1" font-size="16" >H</text>
<text x="284.890901" y="144.890120" fill="rgb(255,12,12)"  stroke="rgb(255,12,12)" stroke-width="1" font-size="16" >O</text>
<text x="215.511430" y="141.254096" fill="rgb(12,12,255)"  stroke="rgb(12,12,255)" stroke-width="1" font-size="16" >N</text>
<text x="251.949730" y="181.031663" fill="rgb(255,12,12)"  stroke="rgb(255,12,12)" stroke-width="1" font-size="16" >O</text>
<text x="193.469784" y="214.795076" fill="rgb(255,12,12)"  stroke="rgb(255,12,12)" stroke-width="1" font-size="16" >O</text>
<text x="153.976469" y="181.031663" fill="rgb(102,102,102)"  stroke="rgb(102,102,102)" stroke-width="1" font-size="16" >H</text>
<text x="165.976469" y="184.711663" fill="rgb(102,102,102)"  stroke="rgb(102,102,102)" stroke-width="1" font-size="13" >3</text>
<text x="172.476469" y="181.031663" fill="rgb(102,102,102)"  stroke="rgb(102,102,102)" stroke-width="1" font-size="16" >C</text>
<text x="34.000000" y="134.918138" fill="rgb(191,191,191)"  stroke="rgb(191,191,191)" stroke-width="1" font-size="16" >H</text>
<text x="48.039616" y="68.866937" fill="rgb(255,12,12)"  stroke="rgb(255,12,12)" stroke-width="1" font-size="16" >O</text>
<text x="112.261443" y="48.000000" fill="rgb(255,12,12)"  stroke="rgb(255,12,12)" stroke-width="1" font-size="16" >O</text>
<text x="152.396123" y="56.105776" fill="rgb(102,102,102)"  stroke="rgb(102,102,102)" stroke-width="1" font-size="16" >CH</text>
<text x="176.396123" y="59.785776" fill="rgb(102,102,102)"  stroke="rgb(102,102,102)" stroke-width="1" font-size="13" >3</text>
<text x="172.499100" y="233.392445" fill="rgb(255,12,12)"  stroke="rgb(255,12,12)" stroke-width="1" font-size="16" >O</text>
<text x="108.277273" y="254.259382" fill="rgb(255,12,12)"  stroke="rgb(255,12,12)" stroke-width="1" font-size="16" >O</text>
<text x="122.324805" y="291.337871" fill="rgb(102,102,102)"  stroke="rgb(102,102,102)" stroke-width="1" font-size="16" >CH</text>
<text x="146.324805" y="295.017871" fill="rgb(102,102,102)"  stroke="rgb(102,102,102)" stroke-width="1" font-size="13" >3</text>
</svg>
</g>
<text font-size="18.000000" fill ="black" font-family="sans-serif"
x="10.000000" y="20.000000" ></text>
</svg>
