<?xml version="1.0"?>
<svg version="1.1" id="topsvg"
xmlns="http://www.w3.org/2000/svg" xmlns:xlink="http://www.w3.org/1999/xlink"
xmlns:cml="http://www.xml-cml.org/schema" x="0" y="0" width="200px" height="200px" viewBox="0 0 100 100">
<title> - Open Babel Depiction</title>
<rect x="0" y="0" width="100" height="100" fill="white"/>
<g transform="translate(0,0)">
<svg width="100" height="100" x="0" y="0" viewBox="0 0 597.957 444.073"
font-family="sans-serif" stroke="rgb(0,0,0)" stroke-width="2"  stroke-linecap="round">
<line x1="296.3" y1="262.9" x2="261.7" y2="282.9" stroke="rgb(0,0,0)"  stroke-width="2.0"/>
<line x1="257.5" y1="322.7" x2="287.2" y2="349.4" stroke="rgb(0,0,0)"  stroke-width="2.0"/>
<line x1="287.2" y1="349.4" x2="307.3" y2="367.5" stroke="rgb(0,0,0)"  stroke-width="2.0"/>
<line x1="290.0" y1="346.3" x2="310.1" y2="364.4" stroke="rgb(0,0,0)"  stroke-width="2.0"/>
<line x1="284.4" y1="352.6" x2="304.5" y2="370.6" stroke="rgb(0,0,0)"  stroke-width="2.0"/>
<line x1="218.4" y1="331.0" x2="202.1" y2="367.5" stroke="rgb(0,0,0)"  stroke-width="2.0"/>
<line x1="202.1" y1="367.5" x2="191.1" y2="392.2" stroke="rgb(0,0,0)"  stroke-width="2.0"/>
<line x1="205.9" y1="369.2" x2="194.9" y2="393.9" stroke="rgb(0,0,0)"  stroke-width="2.0"/>
<line x1="198.3" y1="365.8" x2="187.3" y2="390.5" stroke="rgb(0,0,0)"  stroke-width="2.0"/>
<line x1="198.4" y1="296.3" x2="158.6" y2="292.2" stroke="rgb(0,0,0)"  stroke-width="2.0"/>
<line x1="95.3" y1="305.6" x2="71.9" y2="319.1" stroke="rgb(0,0,0)"  stroke-width="2.0"/>
<line x1="99.5" y1="265.8" x2="69.7" y2="239.1" stroke="rgb(0,0,0)"  stroke-width="2.0"/>
<line x1="69.7" y1="239.1" x2="49.7" y2="221.0" stroke="rgb(0,0,0)"  stroke-width="2.0"/>
<line x1="66.9" y1="242.2" x2="46.9" y2="224.1" stroke="rgb(0,0,0)"  stroke-width="2.0"/>
<line x1="72.5" y1="236.0" x2="52.5" y2="217.9" stroke="rgb(0,0,0)"  stroke-width="2.0"/>
<line x1="138.6" y1="257.5" x2="154.8" y2="221.0" stroke="rgb(0,0,0)"  stroke-width="2.0"/>
<line x1="154.8" y1="221.0" x2="165.8" y2="196.3" stroke="rgb(0,0,0)"  stroke-width="2.0"/>
<line x1="151.0" y1="219.3" x2="162.0" y2="194.6" stroke="rgb(0,0,0)"  stroke-width="2.0"/>
<line x1="158.7" y1="222.7" x2="169.7" y2="198.0" stroke="rgb(0,0,0)"  stroke-width="2.0"/>
<line x1="427.1" y1="239.9" x2="454.1" y2="239.9" stroke="rgb(0,0,0)"  stroke-width="2.0"/>
<line x1="427.1" y1="245.9" x2="454.1" y2="245.9" stroke="rgb(0,0,0)"  stroke-width="2.0"/>
<line x1="407.6" y1="287.6" x2="412.0" y2="300.9" stroke="rgb(0,0,0)"  stroke-width="2.0"/>
<line x1="428.7" y1="316.0" x2="442.4" y2="318.9" stroke="rgb(0,0,0)"  stroke-width="2.0"/>
<line x1="400.8" y1="209.6" x2="413.1" y2="171.6" stroke="rgb(0,0,0)"  stroke-width="2.0"/>
<line x1="406.5" y1="211.5" x2="418.8" y2="173.4" stroke="rgb(0,0,0)"  stroke-width="2.0"/>
<line x1="392.5" y1="143.1" x2="365.5" y2="143.1" stroke="rgb(0,0,0)"  stroke-width="2.0"/>
<line x1="392.5" y1="137.1" x2="365.5" y2="137.1" stroke="rgb(0,0,0)"  stroke-width="2.0"/>
<line x1="412.0" y1="95.4" x2="407.6" y2="82.1" stroke="rgb(0,0,0)"  stroke-width="2.0"/>
<line x1="412.3" y1="60.1" x2="421.7" y2="49.7" stroke="rgb(0,0,0)"  stroke-width="2.0"/>
<line x1="523.3" y1="120.1" x2="546.7" y2="106.6" stroke="rgb(0,0,0)"  stroke-width="2.0"/>
<line x1="218.4" y1="331.0" x2="198.4" y2="296.3" stroke="rgb(0,0,0)"  stroke-width="2.0"/>
<line x1="221.6" y1="322.2" x2="207.6" y2="297.9" stroke="rgb(0,0,0)"  stroke-width="2.0"/>
<line x1="198.4" y1="296.3" x2="216.4" y2="276.3" stroke="rgb(0,0,0)"  stroke-width="2.0"/>
<line x1="237.0" y1="271.9" x2="261.7" y2="282.9" stroke="rgb(0,0,0)"  stroke-width="2.0"/>
<line x1="261.7" y1="282.9" x2="257.5" y2="322.7" stroke="rgb(0,0,0)"  stroke-width="2.0"/>
<line x1="253.9" y1="288.1" x2="251.0" y2="316.0" stroke="rgb(0,0,0)"  stroke-width="2.0"/>
<line x1="257.5" y1="322.7" x2="218.4" y2="331.0" stroke="rgb(0,0,0)"  stroke-width="2.0"/>
<line x1="95.3" y1="305.6" x2="99.5" y2="265.8" stroke="rgb(0,0,0)"  stroke-width="2.0"/>
<line x1="103.1" y1="300.4" x2="106.0" y2="272.6" stroke="rgb(0,0,0)"  stroke-width="2.0"/>
<line x1="99.5" y1="265.8" x2="138.6" y2="257.5" stroke="rgb(0,0,0)"  stroke-width="2.0"/>
<line x1="138.6" y1="257.5" x2="158.6" y2="292.2" stroke="rgb(0,0,0)"  stroke-width="2.0"/>
<line x1="135.3" y1="266.3" x2="149.3" y2="290.6" stroke="rgb(0,0,0)"  stroke-width="2.0"/>
<line x1="158.6" y1="292.2" x2="140.5" y2="312.2" stroke="rgb(0,0,0)"  stroke-width="2.0"/>
<line x1="119.9" y1="316.6" x2="95.3" y2="305.6" stroke="rgb(0,0,0)"  stroke-width="2.0"/>
<line x1="330.9" y1="202.9" x2="365.6" y2="222.9" stroke="rgb(0,0,0)"  stroke-width="2.0"/>
<line x1="332.5" y1="212.1" x2="356.8" y2="226.1" stroke="rgb(0,0,0)"  stroke-width="2.0"/>
<line x1="365.6" y1="222.9" x2="365.6" y2="262.9" stroke="rgb(0,0,0)"  stroke-width="2.0"/>
<line x1="365.6" y1="262.9" x2="330.9" y2="282.9" stroke="rgb(0,0,0)"  stroke-width="2.0"/>
<line x1="356.8" y1="259.7" x2="332.5" y2="273.7" stroke="rgb(0,0,0)"  stroke-width="2.0"/>
<line x1="330.9" y1="282.9" x2="296.3" y2="262.9" stroke="rgb(0,0,0)"  stroke-width="2.0"/>
<line x1="296.3" y1="262.9" x2="296.3" y2="222.9" stroke="rgb(0,0,0)"  stroke-width="2.0"/>
<line x1="303.5" y1="256.9" x2="303.5" y2="228.9" stroke="rgb(0,0,0)"  stroke-width="2.0"/>
<line x1="296.3" y1="222.9" x2="330.9" y2="202.9" stroke="rgb(0,0,0)"  stroke-width="2.0"/>
<line x1="523.3" y1="160.1" x2="488.7" y2="180.1" stroke="rgb(0,0,0)"  stroke-width="2.0"/>
<line x1="488.7" y1="180.1" x2="454.0" y2="160.1" stroke="rgb(0,0,0)"  stroke-width="2.0"/>
<line x1="487.1" y1="170.9" x2="462.8" y2="156.9" stroke="rgb(0,0,0)"  stroke-width="2.0"/>
<line x1="454.0" y1="160.1" x2="454.0" y2="120.1" stroke="rgb(0,0,0)"  stroke-width="2.0"/>
<line x1="454.0" y1="120.1" x2="488.7" y2="100.1" stroke="rgb(0,0,0)"  stroke-width="2.0"/>
<line x1="462.8" y1="123.4" x2="487.1" y2="109.4" stroke="rgb(0,0,0)"  stroke-width="2.0"/>
<line x1="488.7" y1="100.1" x2="523.3" y2="120.1" stroke="rgb(0,0,0)"  stroke-width="2.0"/>
<line x1="523.3" y1="120.1" x2="523.3" y2="160.1" stroke="rgb(0,0,0)"  stroke-width="2.0"/>
<line x1="516.1" y1="126.1" x2="516.1" y2="154.1" stroke="rgb(0,0,0)"  stroke-width="2.0"/>
<line x1="427.1" y1="242.9" x2="411.3" y2="264.7" stroke="rgb(0,0,0)"  stroke-width="2.0"/>
<line x1="391.3" y1="271.2" x2="365.6" y2="262.9" stroke="rgb(0,0,0)"  stroke-width="2.0"/>
<line x1="365.6" y1="222.9" x2="403.6" y2="210.5" stroke="rgb(0,0,0)"  stroke-width="2.0"/>
<line x1="403.6" y1="210.5" x2="427.1" y2="242.9" stroke="rgb(0,0,0)"  stroke-width="2.0"/>
<line x1="428.4" y1="111.8" x2="454.0" y2="120.1" stroke="rgb(0,0,0)"  stroke-width="2.0"/>
<line x1="454.0" y1="160.1" x2="416.0" y2="172.5" stroke="rgb(0,0,0)"  stroke-width="2.0"/>
<line x1="416.0" y1="172.5" x2="392.5" y2="140.1" stroke="rgb(0,0,0)"  stroke-width="2.0"/>
<line x1="392.5" y1="140.1" x2="408.4" y2="118.3" stroke="rgb(0,0,0)"  stroke-width="2.0"/>
<text x="346.479987" y="148.128733" fill="rgb(255,12,12)"  stroke="rgb(255,12,12)" stroke-width="1" font-size="16" >O</text>
<text x="461.142128" y="250.892354" fill="rgb(255,12,12)"  stroke="rgb(255,12,12)" stroke-width="1" font-size="16" >O</text>
<text x="397.630718" y="283.253033" fill="rgb(12,12,255)"  stroke="rgb(12,12,255)" stroke-width="1" font-size="16" >N</text>
<text x="409.991397" y="321.295294" fill="rgb(255,12,12)"  stroke="rgb(255,12,12)" stroke-width="1" font-size="16" >O</text>
<text x="451.117301" y="329.611762" fill="rgb(102,102,102)"  stroke="rgb(102,102,102)" stroke-width="1" font-size="16" >CH</text>
<text x="475.117301" y="333.291762" fill="rgb(102,102,102)"  stroke="rgb(102,102,102)" stroke-width="1" font-size="13" >3</text>
<text x="409.991397" y="115.768054" fill="rgb(12,12,255)"  stroke="rgb(12,12,255)" stroke-width="1" font-size="16" >N</text>
<text x="397.630718" y="77.725793" fill="rgb(255,12,12)"  stroke="rgb(255,12,12)" stroke-width="1" font-size="16" >O</text>
<text x="426.395942" y="48.000000" fill="rgb(102,102,102)"  stroke="rgb(102,102,102)" stroke-width="1" font-size="16" >CH</text>
<text x="450.395942" y="51.680000" fill="rgb(102,102,102)"  stroke="rgb(102,102,102)" stroke-width="1" font-size="13" >3</text>
<text x="551.956706" y="108.128733" fill="rgb(191,191,191)"  stroke="rgb(191,191,191)" stroke-width="1" font-size="16" >H</text>
<text x="125.812266" y="329.893335" fill="rgb(178,178,0)"  stroke="rgb(178,178,0)" stroke-width="1" font-size="16" >S</text>
<text x="310.935856" y="384.203678" fill="rgb(12,12,255)"  stroke="rgb(12,12,255)" stroke-width="1" font-size="16" >N</text>
<text x="179.819434" y="412.073334" fill="rgb(12,12,255)"  stroke="rgb(12,12,255)" stroke-width="1" font-size="16" >N</text>
<text x="219.123590" y="274.622888" fill="rgb(178,178,0)"  stroke="rgb(178,178,0)" stroke-width="1" font-size="16" >S</text>
<text x="54.629431" y="333.623870" fill="rgb(191,191,191)"  stroke="rgb(191,191,191)" stroke-width="1" font-size="16" >H</text>
<text x="34.000000" y="220.312545" fill="rgb(12,12,255)"  stroke="rgb(12,12,255)" stroke-width="1" font-size="16" >N</text>
<text x="165.116422" y="192.442890" fill="rgb(12,12,255)"  stroke="rgb(12,12,255)" stroke-width="1" font-size="16" >N</text>
</svg>
</g>
<text font-size="18.000000" fill ="black" font-family="sans-serif"
x="10.000000" y="20.000000" ></text>
</svg>
