<?xml version="1.0"?>
<svg version="1.1" id="topsvg"
xmlns="http://www.w3.org/2000/svg" xmlns:xlink="http://www.w3.org/1999/xlink"
xmlns:cml="http://www.xml-cml.org/schema" x="0" y="0" width="200px" height="200px" viewBox="0 0 100 100">
<title> - Open Babel Depiction</title>
<rect x="0" y="0" width="100" height="100" fill="white"/>
<g transform="translate(0,0)">
<svg width="100" height="100" x="0" y="0" viewBox="0 0 640.62 438.599"
font-family="sans-serif" stroke="rgb(0,0,0)" stroke-width="2"  stroke-linecap="round">
<line x1="301.7" y1="205.4" x2="336.3" y2="185.4" stroke="rgb(0,0,0)"  stroke-width="2.0"/>
<line x1="340.5" y1="145.7" x2="320.4" y2="127.6" stroke="rgb(0,0,0)"  stroke-width="2.0"/>
<line x1="379.6" y1="137.3" x2="395.9" y2="100.8" stroke="rgb(0,0,0)"  stroke-width="2.0"/>
<line x1="395.9" y1="100.8" x2="406.8" y2="76.1" stroke="rgb(0,0,0)"  stroke-width="2.0"/>
<line x1="392.0" y1="99.1" x2="403.0" y2="74.4" stroke="rgb(0,0,0)"  stroke-width="2.0"/>
<line x1="399.7" y1="102.5" x2="410.7" y2="77.8" stroke="rgb(0,0,0)"  stroke-width="2.0"/>
<line x1="399.6" y1="172.0" x2="439.4" y2="176.2" stroke="rgb(0,0,0)"  stroke-width="2.0"/>
<line x1="437.0" y1="174.4" x2="460.5" y2="142.0" stroke="rgb(0,0,0)"  stroke-width="2.0"/>
<line x1="441.8" y1="177.9" x2="465.3" y2="145.6" stroke="rgb(0,0,0)"  stroke-width="2.0"/>
<line x1="462.9" y1="143.8" x2="502.7" y2="148.0" stroke="rgb(0,0,0)"  stroke-width="2.0"/>
<line x1="529.4" y1="118.3" x2="521.1" y2="79.1" stroke="rgb(0,0,0)"  stroke-width="2.0"/>
<line x1="521.1" y1="79.1" x2="515.5" y2="52.7" stroke="rgb(0,0,0)"  stroke-width="2.0"/>
<line x1="517.0" y1="80.0" x2="511.4" y2="53.6" stroke="rgb(0,0,0)"  stroke-width="2.0"/>
<line x1="525.2" y1="78.3" x2="519.6" y2="51.8" stroke="rgb(0,0,0)"  stroke-width="2.0"/>
<line x1="566.0" y1="134.5" x2="589.4" y2="121.0" stroke="rgb(0,0,0)"  stroke-width="2.0"/>
<line x1="561.8" y1="174.3" x2="581.9" y2="192.4" stroke="rgb(0,0,0)"  stroke-width="2.0"/>
<line x1="170.8" y1="228.4" x2="143.8" y2="228.4" stroke="rgb(0,0,0)"  stroke-width="2.0"/>
<line x1="170.8" y1="222.4" x2="143.8" y2="222.4" stroke="rgb(0,0,0)"  stroke-width="2.0"/>
<line x1="190.3" y1="180.7" x2="186.0" y2="167.4" stroke="rgb(0,0,0)"  stroke-width="2.0"/>
<line x1="197.2" y1="258.7" x2="184.8" y2="296.8" stroke="rgb(0,0,0)"  stroke-width="2.0"/>
<line x1="191.5" y1="256.9" x2="179.1" y2="294.9" stroke="rgb(0,0,0)"  stroke-width="2.0"/>
<line x1="205.5" y1="325.2" x2="232.5" y2="325.2" stroke="rgb(0,0,0)"  stroke-width="2.0"/>
<line x1="205.5" y1="331.2" x2="232.5" y2="331.2" stroke="rgb(0,0,0)"  stroke-width="2.0"/>
<line x1="186.0" y1="372.9" x2="190.3" y2="386.2" stroke="rgb(0,0,0)"  stroke-width="2.0"/>
<line x1="74.6" y1="348.2" x2="51.3" y2="361.7" stroke="rgb(0,0,0)"  stroke-width="2.0"/>
<line x1="379.6" y1="137.3" x2="399.6" y2="172.0" stroke="rgb(0,0,0)"  stroke-width="2.0"/>
<line x1="376.4" y1="146.1" x2="390.4" y2="170.4" stroke="rgb(0,0,0)"  stroke-width="2.0"/>
<line x1="399.6" y1="172.0" x2="381.5" y2="192.0" stroke="rgb(0,0,0)"  stroke-width="2.0"/>
<line x1="361.0" y1="196.4" x2="336.3" y2="185.4" stroke="rgb(0,0,0)"  stroke-width="2.0"/>
<line x1="336.3" y1="185.4" x2="340.5" y2="145.7" stroke="rgb(0,0,0)"  stroke-width="2.0"/>
<line x1="344.1" y1="180.2" x2="347.0" y2="152.4" stroke="rgb(0,0,0)"  stroke-width="2.0"/>
<line x1="340.5" y1="145.7" x2="379.6" y2="137.3" stroke="rgb(0,0,0)"  stroke-width="2.0"/>
<line x1="566.0" y1="134.5" x2="561.8" y2="174.3" stroke="rgb(0,0,0)"  stroke-width="2.0"/>
<line x1="558.2" y1="139.7" x2="555.3" y2="167.6" stroke="rgb(0,0,0)"  stroke-width="2.0"/>
<line x1="561.8" y1="174.3" x2="535.4" y2="179.9" stroke="rgb(0,0,0)"  stroke-width="2.0"/>
<line x1="516.2" y1="171.4" x2="502.7" y2="148.0" stroke="rgb(0,0,0)"  stroke-width="2.0"/>
<line x1="502.7" y1="148.0" x2="529.4" y2="118.3" stroke="rgb(0,0,0)"  stroke-width="2.0"/>
<line x1="512.0" y1="148.3" x2="530.8" y2="127.5" stroke="rgb(0,0,0)"  stroke-width="2.0"/>
<line x1="529.4" y1="118.3" x2="566.0" y2="134.5" stroke="rgb(0,0,0)"  stroke-width="2.0"/>
<line x1="267.0" y1="265.4" x2="232.4" y2="245.4" stroke="rgb(0,0,0)"  stroke-width="2.0"/>
<line x1="265.4" y1="256.2" x2="241.2" y2="242.2" stroke="rgb(0,0,0)"  stroke-width="2.0"/>
<line x1="232.4" y1="245.4" x2="232.4" y2="205.4" stroke="rgb(0,0,0)"  stroke-width="2.0"/>
<line x1="232.4" y1="205.4" x2="267.0" y2="185.4" stroke="rgb(0,0,0)"  stroke-width="2.0"/>
<line x1="241.2" y1="208.7" x2="265.4" y2="194.7" stroke="rgb(0,0,0)"  stroke-width="2.0"/>
<line x1="267.0" y1="185.4" x2="301.7" y2="205.4" stroke="rgb(0,0,0)"  stroke-width="2.0"/>
<line x1="301.7" y1="205.4" x2="301.7" y2="245.4" stroke="rgb(0,0,0)"  stroke-width="2.0"/>
<line x1="294.5" y1="211.4" x2="294.5" y2="239.4" stroke="rgb(0,0,0)"  stroke-width="2.0"/>
<line x1="301.7" y1="245.4" x2="267.0" y2="265.4" stroke="rgb(0,0,0)"  stroke-width="2.0"/>
<line x1="74.6" y1="308.2" x2="109.3" y2="288.2" stroke="rgb(0,0,0)"  stroke-width="2.0"/>
<line x1="109.3" y1="288.2" x2="143.9" y2="308.2" stroke="rgb(0,0,0)"  stroke-width="2.0"/>
<line x1="110.9" y1="297.4" x2="135.1" y2="311.4" stroke="rgb(0,0,0)"  stroke-width="2.0"/>
<line x1="143.9" y1="308.2" x2="143.9" y2="348.2" stroke="rgb(0,0,0)"  stroke-width="2.0"/>
<line x1="143.9" y1="348.2" x2="109.3" y2="368.2" stroke="rgb(0,0,0)"  stroke-width="2.0"/>
<line x1="135.1" y1="345.0" x2="110.9" y2="359.0" stroke="rgb(0,0,0)"  stroke-width="2.0"/>
<line x1="109.3" y1="368.2" x2="74.6" y2="348.2" stroke="rgb(0,0,0)"  stroke-width="2.0"/>
<line x1="74.6" y1="348.2" x2="74.6" y2="308.2" stroke="rgb(0,0,0)"  stroke-width="2.0"/>
<line x1="81.8" y1="342.2" x2="81.8" y2="314.2" stroke="rgb(0,0,0)"  stroke-width="2.0"/>
<line x1="170.8" y1="225.4" x2="186.7" y2="203.6" stroke="rgb(0,0,0)"  stroke-width="2.0"/>
<line x1="206.7" y1="197.1" x2="232.4" y2="205.4" stroke="rgb(0,0,0)"  stroke-width="2.0"/>
<line x1="232.4" y1="245.4" x2="194.3" y2="257.8" stroke="rgb(0,0,0)"  stroke-width="2.0"/>
<line x1="194.3" y1="257.8" x2="170.8" y2="225.4" stroke="rgb(0,0,0)"  stroke-width="2.0"/>
<line x1="169.6" y1="356.5" x2="143.9" y2="348.2" stroke="rgb(0,0,0)"  stroke-width="2.0"/>
<line x1="143.9" y1="308.2" x2="182.0" y2="295.8" stroke="rgb(0,0,0)"  stroke-width="2.0"/>
<line x1="182.0" y1="295.8" x2="205.5" y2="328.2" stroke="rgb(0,0,0)"  stroke-width="2.0"/>
<line x1="205.5" y1="328.2" x2="189.6" y2="350.0" stroke="rgb(0,0,0)"  stroke-width="2.0"/>
<text x="239.476719" y="336.195951" fill="rgb(255,12,12)"  stroke="rgb(255,12,12)" stroke-width="1" font-size="16" >O</text>
<text x="124.814579" y="233.432331" fill="rgb(255,12,12)"  stroke="rgb(255,12,12)" stroke-width="1" font-size="16" >O</text>
<text x="188.325989" y="201.071651" fill="rgb(12,12,255)"  stroke="rgb(12,12,255)" stroke-width="1" font-size="16" >N</text>
<text x="155.965309" y="163.029391" fill="rgb(102,102,102)"  stroke="rgb(102,102,102)" stroke-width="1" font-size="16" >H</text>
<text x="167.965309" y="166.709391" fill="rgb(102,102,102)"  stroke="rgb(102,102,102)" stroke-width="1" font-size="13" >3</text>
<text x="174.465309" y="163.029391" fill="rgb(102,102,102)"  stroke="rgb(102,102,102)" stroke-width="1" font-size="16" >C</text>
<text x="175.965309" y="368.556631" fill="rgb(12,12,255)"  stroke="rgb(12,12,255)" stroke-width="1" font-size="16" >N</text>
<text x="190.325989" y="406.598892" fill="rgb(102,102,102)"  stroke="rgb(102,102,102)" stroke-width="1" font-size="16" >CH</text>
<text x="214.325989" y="410.278892" fill="rgb(102,102,102)"  stroke="rgb(102,102,102)" stroke-width="1" font-size="13" >3</text>
<text x="34.000000" y="376.195951" fill="rgb(191,191,191)"  stroke="rgb(191,191,191)" stroke-width="1" font-size="16" >H</text>
<text x="304.746643" y="126.886231" fill="rgb(127,178,255)"  stroke="rgb(127,178,255)" stroke-width="1" font-size="16" >F</text>
<text x="406.137272" y="72.251351" fill="rgb(12,12,255)"  stroke="rgb(12,12,255)" stroke-width="1" font-size="16" >N</text>
<text x="366.833116" y="209.701797" fill="rgb(178,178,0)"  stroke="rgb(178,178,0)" stroke-width="1" font-size="16" >S</text>
<text x="506.803791" y="48.000000" fill="rgb(12,12,255)"  stroke="rgb(12,12,255)" stroke-width="1" font-size="16" >N</text>
<text x="594.619561" y="122.521274" fill="rgb(127,178,255)"  stroke="rgb(127,178,255)" stroke-width="1" font-size="16" >F</text>
<text x="585.523199" y="209.067374" fill="rgb(191,191,191)"  stroke="rgb(191,191,191)" stroke-width="1" font-size="16" >H</text>
<text x="516.671502" y="190.618617" fill="rgb(178,178,0)"  stroke="rgb(178,178,0)" stroke-width="1" font-size="16" >S</text>
</svg>
</g>
<text font-size="18.000000" fill ="black" font-family="sans-serif"
x="10.000000" y="20.000000" ></text>
</svg>
