<?xml version="1.0"?>
<svg version="1.1" id="topsvg"
xmlns="http://www.w3.org/2000/svg" xmlns:xlink="http://www.w3.org/1999/xlink"
xmlns:cml="http://www.xml-cml.org/schema" x="0" y="0" width="200px" height="200px" viewBox="0 0 100 100">
<title> - Open Babel Depiction</title>
<rect x="0" y="0" width="100" height="100" fill="white"/>
<g transform="translate(0,0)">
<svg width="100" height="100" x="0" y="0" viewBox="0 0 394.821 398.822"
font-family="sans-serif" stroke="rgb(0,0,0)" stroke-width="2"  stroke-linecap="round">
<line x1="173.9" y1="135.8" x2="155.3" y2="167.9" stroke="rgb(0,0,0)"  stroke-width="2.0"/>
<line x1="83.1" y1="233.0" x2="60.1" y2="240.5" stroke="rgb(0,0,0)"  stroke-width="2.0"/>
<line x1="45.0" y1="257.2" x2="42.7" y2="268.1" stroke="rgb(0,0,0)"  stroke-width="2.0"/>
<line x1="83.1" y1="233.0" x2="199.2" y2="190.1" stroke="rgb(0,0,0)"  stroke-width="2.0"/>
<line x1="198.4" y1="185.6" x2="187.2" y2="185.6" stroke="rgb(0,0,0)"  stroke-width="2.0"/>
<line x1="122.6" y1="321.9" x2="125.1" y2="345.9" stroke="rgb(0,0,0)"  stroke-width="2.0"/>
<line x1="246.0" y1="150.1" x2="248.6" y2="174.2" stroke="rgb(0,0,0)"  stroke-width="2.0"/>
<line x1="240.1" y1="150.8" x2="242.6" y2="174.8" stroke="rgb(0,0,0)"  stroke-width="2.0"/>
<line x1="283.4" y1="128.3" x2="307.0" y2="133.3" stroke="rgb(0,0,0)"  stroke-width="2.0"/>
<line x1="304.8" y1="131.3" x2="320.9" y2="113.4" stroke="rgb(0,0,0)"  stroke-width="2.0"/>
<line x1="309.2" y1="135.3" x2="325.4" y2="117.4" stroke="rgb(0,0,0)"  stroke-width="2.0"/>
<line x1="307.0" y1="133.3" x2="314.5" y2="156.3" stroke="rgb(0,0,0)"  stroke-width="2.0"/>
<line x1="331.2" y1="171.3" x2="342.1" y2="173.7" stroke="rgb(0,0,0)"  stroke-width="2.0"/>
<line x1="252.9" y1="90.1" x2="265.0" y2="69.2" stroke="rgb(0,0,0)"  stroke-width="2.0"/>
<line x1="258.1" y1="93.1" x2="270.2" y2="72.2" stroke="rgb(0,0,0)"  stroke-width="2.0"/>
<line x1="186.4" y1="76.9" x2="183.9" y2="52.9" stroke="rgb(0,0,0)"  stroke-width="2.0"/>
<line x1="110.7" y1="208.2" x2="142.8" y2="226.7" stroke="rgb(0,0,0)"  stroke-width="2.0"/>
<line x1="119.5" y1="204.9" x2="141.2" y2="217.5" stroke="rgb(0,0,0)"  stroke-width="2.0"/>
<line x1="142.8" y1="226.7" x2="160.8" y2="210.6" stroke="rgb(0,0,0)"  stroke-width="2.0"/>
<line x1="165.2" y1="190.0" x2="155.3" y2="167.9" stroke="rgb(0,0,0)"  stroke-width="2.0"/>
<line x1="155.3" y1="167.9" x2="118.4" y2="171.8" stroke="rgb(0,0,0)"  stroke-width="2.0"/>
<line x1="150.1" y1="175.7" x2="125.1" y2="178.3" stroke="rgb(0,0,0)"  stroke-width="2.0"/>
<line x1="118.4" y1="171.8" x2="110.7" y2="208.2" stroke="rgb(0,0,0)"  stroke-width="2.0"/>
<line x1="122.6" y1="321.9" x2="140.6" y2="305.7" stroke="rgb(0,0,0)"  stroke-width="2.0"/>
<line x1="144.9" y1="285.1" x2="135.1" y2="263.1" stroke="rgb(0,0,0)"  stroke-width="2.0"/>
<line x1="135.1" y1="263.1" x2="98.2" y2="267.0" stroke="rgb(0,0,0)"  stroke-width="2.0"/>
<line x1="129.9" y1="270.9" x2="104.9" y2="273.5" stroke="rgb(0,0,0)"  stroke-width="2.0"/>
<line x1="98.2" y1="267.0" x2="90.4" y2="303.3" stroke="rgb(0,0,0)"  stroke-width="2.0"/>
<line x1="90.4" y1="303.3" x2="122.6" y2="321.9" stroke="rgb(0,0,0)"  stroke-width="2.0"/>
<line x1="99.2" y1="300.1" x2="121.0" y2="312.6" stroke="rgb(0,0,0)"  stroke-width="2.0"/>
<line x1="218.6" y1="95.5" x2="186.4" y2="76.9" stroke="rgb(0,0,0)"  stroke-width="2.0"/>
<line x1="209.8" y1="98.8" x2="188.0" y2="86.2" stroke="rgb(0,0,0)"  stroke-width="2.0"/>
<line x1="186.4" y1="76.9" x2="168.5" y2="93.1" stroke="rgb(0,0,0)"  stroke-width="2.0"/>
<line x1="164.1" y1="113.7" x2="173.9" y2="135.8" stroke="rgb(0,0,0)"  stroke-width="2.0"/>
<line x1="173.9" y1="135.8" x2="210.9" y2="131.9" stroke="rgb(0,0,0)"  stroke-width="2.0"/>
<line x1="179.1" y1="128.0" x2="204.2" y2="125.3" stroke="rgb(0,0,0)"  stroke-width="2.0"/>
<line x1="210.9" y1="131.9" x2="218.6" y2="95.5" stroke="rgb(0,0,0)"  stroke-width="2.0"/>
<line x1="135.1" y1="263.1" x2="142.8" y2="226.7" stroke="rgb(0,0,0)"  stroke-width="2.0"/>
<line x1="110.7" y1="208.2" x2="83.1" y2="233.0" stroke="rgb(0,0,0)"  stroke-width="2.0"/>
<line x1="83.1" y1="233.0" x2="98.2" y2="267.0" stroke="rgb(0,0,0)"  stroke-width="2.0"/>
<line x1="243.0" y1="150.4" x2="261.0" y2="134.3" stroke="rgb(0,0,0)"  stroke-width="2.0"/>
<line x1="265.4" y1="113.7" x2="255.5" y2="91.6" stroke="rgb(0,0,0)"  stroke-width="2.0"/>
<line x1="255.5" y1="91.6" x2="218.6" y2="95.5" stroke="rgb(0,0,0)"  stroke-width="2.0"/>
<line x1="210.9" y1="131.9" x2="243.0" y2="150.4" stroke="rgb(0,0,0)"  stroke-width="2.0"/>
<text x="120.505892" y="366.821997" fill="rgb(191,191,191)"  stroke="rgb(191,191,191)" stroke-width="1" font-size="16" >H</text>
<text x="152.809353" y="109.810263" fill="rgb(178,178,0)"  stroke="rgb(178,178,0)" stroke-width="1" font-size="16" >S</text>
<text x="176.536090" y="48.000000" fill="rgb(191,191,191)"  stroke="rgb(191,191,191)" stroke-width="1" font-size="16" >H</text>
<text x="268.121912" y="67.467167" fill="rgb(255,12,12)"  stroke="rgb(255,12,12)" stroke-width="1" font-size="16" >O</text>
<text x="350.820802" y="184.368353" fill="rgb(102,102,102)"  stroke="rgb(102,102,102)" stroke-width="1" font-size="16" >CH</text>
<text x="374.820802" y="188.048353" fill="rgb(102,102,102)"  stroke="rgb(102,102,102)" stroke-width="1" font-size="13" >3</text>
<text x="312.479342" y="176.643737" fill="rgb(255,12,12)"  stroke="rgb(255,12,12)" stroke-width="1" font-size="16" >O</text>
<text x="325.858769" y="113.698482" fill="rgb(255,12,12)"  stroke="rgb(255,12,12)" stroke-width="1" font-size="16" >O</text>
<text x="264.656866" y="133.584186" fill="rgb(12,12,255)"  stroke="rgb(12,12,255)" stroke-width="1" font-size="16" >N</text>
<text x="240.930129" y="195.394450" fill="rgb(255,12,12)"  stroke="rgb(255,12,12)" stroke-width="1" font-size="16" >O</text>
<text x="144.232629" y="305.011733" fill="rgb(178,178,0)"  stroke="rgb(178,178,0)" stroke-width="1" font-size="16" >S</text>
<text x="148.218314" y="193.616135" fill="rgb(102,102,102)"  stroke="rgb(102,102,102)" stroke-width="1" font-size="16" >H</text>
<text x="160.218314" y="197.296135" fill="rgb(102,102,102)"  stroke="rgb(102,102,102)" stroke-width="1" font-size="13" >3</text>
<text x="166.718314" y="193.616135" fill="rgb(102,102,102)"  stroke="rgb(102,102,102)" stroke-width="1" font-size="16" >C</text>
<text x="205.371664" y="193.616135" fill="rgb(255,12,12)"  stroke="rgb(255,12,12)" stroke-width="1" font-size="16" >O</text>
<text x="14.000000" y="288.835245" fill="rgb(102,102,102)"  stroke="rgb(102,102,102)" stroke-width="1" font-size="16" >H</text>
<text x="26.000000" y="292.515245" fill="rgb(102,102,102)"  stroke="rgb(102,102,102)" stroke-width="1" font-size="13" >3</text>
<text x="32.500000" y="288.835245" fill="rgb(102,102,102)"  stroke="rgb(102,102,102)" stroke-width="1" font-size="16" >C</text>
<text x="41.724616" y="252.493785" fill="rgb(255,12,12)"  stroke="rgb(255,12,12)" stroke-width="1" font-size="16" >O</text>
<text x="164.455935" y="209.868556" fill="rgb(178,178,0)"  stroke="rgb(178,178,0)" stroke-width="1" font-size="16" >S</text>
</svg>
</g>
<text font-size="18.000000" fill ="black" font-family="sans-serif"
x="10.000000" y="20.000000" ></text>
</svg>
