<?xml version="1.0"?>
<svg version="1.1" id="topsvg"
xmlns="http://www.w3.org/2000/svg" xmlns:xlink="http://www.w3.org/1999/xlink"
xmlns:cml="http://www.xml-cml.org/schema" x="0" y="0" width="200px" height="200px" viewBox="0 0 100 100">
<title> - Open Babel Depiction</title>
<rect x="0" y="0" width="100" height="100" fill="white"/>
<g transform="translate(0,0)">
<svg width="100" height="100" x="0" y="0" viewBox="0 0 431.655 232.546"
font-family="sans-serif" stroke="rgb(0,0,0)" stroke-width="2"  stroke-linecap="round">
<line x1="120.7" y1="114.6" x2="154.5" y2="134.1" stroke="rgb(0,0,0)"  stroke-width="2.0"/>
<line x1="255.7" y1="101.6" x2="255.7" y2="75.6" stroke="rgb(0,0,0)"  stroke-width="2.0"/>
<line x1="255.7" y1="72.6" x2="281.7" y2="72.6" stroke="rgb(0,0,0)"  stroke-width="2.0"/>
<line x1="255.7" y1="78.6" x2="281.7" y2="78.6" stroke="rgb(0,0,0)"  stroke-width="2.0"/>
<line x1="255.7" y1="75.6" x2="242.7" y2="53.1" stroke="rgb(0,0,0)"  stroke-width="2.0"/>
<line x1="223.2" y1="41.8" x2="210.2" y2="41.8" stroke="rgb(0,0,0)"  stroke-width="2.0"/>
<line x1="357.0" y1="134.0" x2="380.4" y2="120.5" stroke="rgb(0,0,0)"  stroke-width="2.0"/>
<line x1="66.1" y1="83.1" x2="48.7" y2="63.8" stroke="rgb(0,0,0)"  stroke-width="2.0"/>
<line x1="114.6" y1="69.9" x2="125.8" y2="63.4" stroke="rgb(0,0,0)"  stroke-width="2.0"/>
<line x1="117.6" y1="75.1" x2="128.8" y2="68.6" stroke="rgb(0,0,0)"  stroke-width="2.0"/>
<line x1="101.8" y1="66.0" x2="101.8" y2="53.0" stroke="rgb(0,0,0)"  stroke-width="2.0"/>
<line x1="107.8" y1="66.0" x2="107.8" y2="53.0" stroke="rgb(0,0,0)"  stroke-width="2.0"/>
<line x1="289.5" y1="134.1" x2="289.5" y2="173.1" stroke="rgb(0,0,0)"  stroke-width="2.0"/>
<line x1="289.5" y1="173.1" x2="222.0" y2="173.1" stroke="rgb(0,0,0)"  stroke-width="2.0"/>
<line x1="222.0" y1="173.1" x2="222.0" y2="134.1" stroke="rgb(0,0,0)"  stroke-width="2.0"/>
<line x1="229.2" y1="167.1" x2="229.2" y2="140.1" stroke="rgb(0,0,0)"  stroke-width="2.0"/>
<line x1="222.0" y1="134.1" x2="244.5" y2="121.1" stroke="rgb(0,0,0)"  stroke-width="2.0"/>
<line x1="267.0" y1="121.1" x2="289.5" y2="134.1" stroke="rgb(0,0,0)"  stroke-width="2.0"/>
<line x1="222.0" y1="173.1" x2="188.2" y2="192.5" stroke="rgb(0,0,0)"  stroke-width="2.0"/>
<line x1="188.2" y1="192.5" x2="154.5" y2="173.1" stroke="rgb(0,0,0)"  stroke-width="2.0"/>
<line x1="186.6" y1="183.3" x2="163.2" y2="169.8" stroke="rgb(0,0,0)"  stroke-width="2.0"/>
<line x1="154.5" y1="173.1" x2="154.5" y2="134.1" stroke="rgb(0,0,0)"  stroke-width="2.0"/>
<line x1="154.5" y1="134.1" x2="188.2" y2="114.6" stroke="rgb(0,0,0)"  stroke-width="2.0"/>
<line x1="163.2" y1="137.3" x2="186.6" y2="123.8" stroke="rgb(0,0,0)"  stroke-width="2.0"/>
<line x1="188.2" y1="114.6" x2="222.0" y2="134.1" stroke="rgb(0,0,0)"  stroke-width="2.0"/>
<line x1="323.3" y1="114.6" x2="289.5" y2="134.1" stroke="rgb(0,0,0)"  stroke-width="2.0"/>
<line x1="321.7" y1="123.8" x2="298.3" y2="137.3" stroke="rgb(0,0,0)"  stroke-width="2.0"/>
<line x1="289.5" y1="173.1" x2="323.3" y2="192.5" stroke="rgb(0,0,0)"  stroke-width="2.0"/>
<line x1="298.3" y1="169.8" x2="321.7" y2="183.3" stroke="rgb(0,0,0)"  stroke-width="2.0"/>
<line x1="323.3" y1="192.5" x2="357.0" y2="173.0" stroke="rgb(0,0,0)"  stroke-width="2.0"/>
<line x1="357.0" y1="173.0" x2="357.0" y2="134.0" stroke="rgb(0,0,0)"  stroke-width="2.0"/>
<line x1="349.8" y1="167.0" x2="349.8" y2="140.0" stroke="rgb(0,0,0)"  stroke-width="2.0"/>
<line x1="357.0" y1="134.0" x2="323.3" y2="114.6" stroke="rgb(0,0,0)"  stroke-width="2.0"/>
<line x1="58.0" y1="121.2" x2="66.1" y2="83.1" stroke="rgb(0,0,0)"  stroke-width="2.0"/>
<line x1="66.3" y1="116.8" x2="71.9" y2="90.4" stroke="rgb(0,0,0)"  stroke-width="2.0"/>
<line x1="66.1" y1="83.1" x2="91.9" y2="80.3" stroke="rgb(0,0,0)"  stroke-width="2.0"/>
<line x1="110.1" y1="90.8" x2="120.7" y2="114.6" stroke="rgb(0,0,0)"  stroke-width="2.0"/>
<line x1="120.7" y1="114.6" x2="91.7" y2="140.7" stroke="rgb(0,0,0)"  stroke-width="2.0"/>
<line x1="111.4" y1="113.2" x2="91.4" y2="131.3" stroke="rgb(0,0,0)"  stroke-width="2.0"/>
<line x1="91.7" y1="140.7" x2="58.0" y2="121.2" stroke="rgb(0,0,0)"  stroke-width="2.0"/>
<text x="98.837569" y="48.000000" fill="rgb(255,12,12)"  stroke="rgb(255,12,12)" stroke-width="1" font-size="16" >O</text>
<text x="132.591633" y="67.483832" fill="rgb(255,12,12)"  stroke="rgb(255,12,12)" stroke-width="1" font-size="16" >O</text>
<text x="98.841107" y="86.973793" fill="rgb(178,178,0)"  stroke="rgb(178,178,0)" stroke-width="1" font-size="16" >S</text>
<text x="34.000000" y="62.090378" fill="rgb(191,191,191)"  stroke="rgb(191,191,191)" stroke-width="1" font-size="16" >H</text>
<text x="385.655147" y="122.041660" fill="rgb(191,191,191)"  stroke="rgb(191,191,191)" stroke-width="1" font-size="16" >H</text>
<text x="171.248360" y="49.850495" fill="rgb(102,102,102)"  stroke="rgb(102,102,102)" stroke-width="1" font-size="16" >H</text>
<text x="183.248360" y="53.530495" fill="rgb(102,102,102)"  stroke="rgb(102,102,102)" stroke-width="1" font-size="13" >3</text>
<text x="189.748360" y="49.850495" fill="rgb(102,102,102)"  stroke="rgb(102,102,102)" stroke-width="1" font-size="16" >C</text>
<text x="230.222152" y="49.843073" fill="rgb(255,12,12)"  stroke="rgb(255,12,12)" stroke-width="1" font-size="16" >O</text>
<text x="288.689268" y="83.584234" fill="rgb(255,12,12)"  stroke="rgb(255,12,12)" stroke-width="1" font-size="16" >O</text>
<text x="249.722898" y="122.565448" fill="rgb(12,12,255)"  stroke="rgb(12,12,255)" stroke-width="1" font-size="16" >N</text>
</svg>
</g>
<text font-size="18.000000" fill ="black" font-family="sans-serif"
x="10.000000" y="20.000000" ></text>
</svg>
