<?xml version="1.0"?>
<svg version="1.1" id="topsvg"
xmlns="http://www.w3.org/2000/svg" xmlns:xlink="http://www.w3.org/1999/xlink"
xmlns:cml="http://www.xml-cml.org/schema" x="0" y="0" width="200px" height="200px" viewBox="0 0 100 100">
<title> - Open Babel Depiction</title>
<rect x="0" y="0" width="100" height="100" fill="white"/>
<g transform="translate(0,0)">
<svg width="100" height="100" x="0" y="0" viewBox="0 0 398.402 401.079"
font-family="sans-serif" stroke="rgb(0,0,0)" stroke-width="2"  stroke-linecap="round">
<line x1="173.8" y1="137.7" x2="154.9" y2="170.5" stroke="rgb(0,0,0)"  stroke-width="2.0"/>
<line x1="117.2" y1="174.5" x2="100.5" y2="156.0" stroke="rgb(0,0,0)"  stroke-width="2.0"/>
<line x1="109.3" y1="211.6" x2="74.6" y2="227.0" stroke="rgb(0,0,0)"  stroke-width="2.0"/>
<line x1="74.6" y1="227.0" x2="51.9" y2="237.1" stroke="rgb(0,0,0)"  stroke-width="2.0"/>
<line x1="76.3" y1="230.8" x2="53.6" y2="241.0" stroke="rgb(0,0,0)"  stroke-width="2.0"/>
<line x1="72.9" y1="223.2" x2="50.2" y2="233.3" stroke="rgb(0,0,0)"  stroke-width="2.0"/>
<line x1="142.1" y1="230.5" x2="146.1" y2="268.2" stroke="rgb(0,0,0)"  stroke-width="2.0"/>
<line x1="133.3" y1="328.2" x2="120.9" y2="349.8" stroke="rgb(0,0,0)"  stroke-width="2.0"/>
<line x1="171.0" y1="324.3" x2="187.7" y2="342.8" stroke="rgb(0,0,0)"  stroke-width="2.0"/>
<line x1="178.9" y1="287.2" x2="213.5" y2="271.8" stroke="rgb(0,0,0)"  stroke-width="2.0"/>
<line x1="213.5" y1="271.8" x2="236.3" y2="261.6" stroke="rgb(0,0,0)"  stroke-width="2.0"/>
<line x1="211.8" y1="267.9" x2="234.6" y2="257.8" stroke="rgb(0,0,0)"  stroke-width="2.0"/>
<line x1="215.2" y1="275.6" x2="238.0" y2="265.5" stroke="rgb(0,0,0)"  stroke-width="2.0"/>
<line x1="247.3" y1="152.4" x2="249.9" y2="177.2" stroke="rgb(0,0,0)"  stroke-width="2.0"/>
<line x1="241.4" y1="153.0" x2="244.0" y2="177.8" stroke="rgb(0,0,0)"  stroke-width="2.0"/>
<line x1="285.2" y1="130.0" x2="309.6" y2="135.2" stroke="rgb(0,0,0)"  stroke-width="2.0"/>
<line x1="307.4" y1="133.2" x2="324.0" y2="114.7" stroke="rgb(0,0,0)"  stroke-width="2.0"/>
<line x1="311.8" y1="137.2" x2="328.5" y2="118.7" stroke="rgb(0,0,0)"  stroke-width="2.0"/>
<line x1="309.6" y1="135.2" x2="317.3" y2="158.9" stroke="rgb(0,0,0)"  stroke-width="2.0"/>
<line x1="334.0" y1="174.0" x2="345.7" y2="176.4" stroke="rgb(0,0,0)"  stroke-width="2.0"/>
<line x1="257.1" y1="92.7" x2="269.6" y2="71.1" stroke="rgb(0,0,0)"  stroke-width="2.0"/>
<line x1="183.6" y1="78.0" x2="181.0" y2="53.2" stroke="rgb(0,0,0)"  stroke-width="2.0"/>
<line x1="189.5" y1="77.4" x2="186.9" y2="52.6" stroke="rgb(0,0,0)"  stroke-width="2.0"/>
<line x1="168.4" y1="111.4" x2="250.0" y2="179.6" stroke="rgb(0,0,0)"  stroke-width="2.0"/>
<line x1="248.5" y1="177.0" x2="270.1" y2="164.5" stroke="rgb(0,0,0)"  stroke-width="2.0"/>
<line x1="251.5" y1="182.2" x2="273.1" y2="169.7" stroke="rgb(0,0,0)"  stroke-width="2.0"/>
<line x1="250.0" y1="179.6" x2="228.4" y2="167.1" stroke="rgb(0,0,0)"  stroke-width="2.0"/>
<line x1="205.9" y1="167.1" x2="195.6" y2="173.1" stroke="rgb(0,0,0)"  stroke-width="2.0"/>
<line x1="109.3" y1="211.6" x2="142.1" y2="230.5" stroke="rgb(0,0,0)"  stroke-width="2.0"/>
<line x1="118.1" y1="208.3" x2="140.5" y2="221.3" stroke="rgb(0,0,0)"  stroke-width="2.0"/>
<line x1="142.1" y1="230.5" x2="160.6" y2="213.9" stroke="rgb(0,0,0)"  stroke-width="2.0"/>
<line x1="165.0" y1="193.3" x2="154.9" y2="170.5" stroke="rgb(0,0,0)"  stroke-width="2.0"/>
<line x1="154.9" y1="170.5" x2="117.2" y2="174.5" stroke="rgb(0,0,0)"  stroke-width="2.0"/>
<line x1="149.6" y1="178.3" x2="123.9" y2="181.0" stroke="rgb(0,0,0)"  stroke-width="2.0"/>
<line x1="117.2" y1="174.5" x2="109.3" y2="211.6" stroke="rgb(0,0,0)"  stroke-width="2.0"/>
<line x1="133.3" y1="328.2" x2="171.0" y2="324.3" stroke="rgb(0,0,0)"  stroke-width="2.0"/>
<line x1="138.5" y1="320.5" x2="164.3" y2="317.7" stroke="rgb(0,0,0)"  stroke-width="2.0"/>
<line x1="171.0" y1="324.3" x2="178.9" y2="287.2" stroke="rgb(0,0,0)"  stroke-width="2.0"/>
<line x1="178.9" y1="287.2" x2="146.1" y2="268.2" stroke="rgb(0,0,0)"  stroke-width="2.0"/>
<line x1="170.1" y1="290.4" x2="147.7" y2="277.5" stroke="rgb(0,0,0)"  stroke-width="2.0"/>
<line x1="146.1" y1="268.2" x2="127.6" y2="284.9" stroke="rgb(0,0,0)"  stroke-width="2.0"/>
<line x1="123.2" y1="305.5" x2="133.3" y2="328.2" stroke="rgb(0,0,0)"  stroke-width="2.0"/>
<line x1="244.3" y1="152.7" x2="262.9" y2="136.0" stroke="rgb(0,0,0)"  stroke-width="2.0"/>
<line x1="267.2" y1="115.5" x2="257.1" y2="92.7" stroke="rgb(0,0,0)"  stroke-width="2.0"/>
<line x1="257.1" y1="92.7" x2="219.4" y2="96.7" stroke="rgb(0,0,0)"  stroke-width="2.0"/>
<line x1="251.9" y1="100.5" x2="226.1" y2="103.2" stroke="rgb(0,0,0)"  stroke-width="2.0"/>
<line x1="219.4" y1="96.7" x2="211.5" y2="133.7" stroke="rgb(0,0,0)"  stroke-width="2.0"/>
<line x1="211.5" y1="133.7" x2="244.3" y2="152.7" stroke="rgb(0,0,0)"  stroke-width="2.0"/>
<line x1="219.4" y1="96.7" x2="186.6" y2="77.7" stroke="rgb(0,0,0)"  stroke-width="2.0"/>
<line x1="186.6" y1="77.7" x2="168.1" y2="94.4" stroke="rgb(0,0,0)"  stroke-width="2.0"/>
<line x1="163.7" y1="114.9" x2="173.8" y2="137.7" stroke="rgb(0,0,0)"  stroke-width="2.0"/>
<line x1="173.8" y1="137.7" x2="211.5" y2="133.7" stroke="rgb(0,0,0)"  stroke-width="2.0"/>
<line x1="179.0" y1="129.9" x2="204.8" y2="127.2" stroke="rgb(0,0,0)"  stroke-width="2.0"/>
<text x="270.056221" y="67.864500" fill="rgb(191,191,191)"  stroke="rgb(191,191,191)" stroke-width="1" font-size="16" >H</text>
<text x="242.309443" y="198.402830" fill="rgb(255,12,12)"  stroke="rgb(255,12,12)" stroke-width="1" font-size="16" >O</text>
<text x="266.520452" y="135.330994" fill="rgb(12,12,255)"  stroke="rgb(12,12,255)" stroke-width="1" font-size="16" >N</text>
<text x="328.971511" y="115.039415" fill="rgb(255,12,12)"  stroke="rgb(255,12,12)" stroke-width="1" font-size="16" >O</text>
<text x="315.319005" y="179.269408" fill="rgb(255,12,12)"  stroke="rgb(255,12,12)" stroke-width="1" font-size="16" >O</text>
<text x="354.402208" y="187.151686" fill="rgb(102,102,102)"  stroke="rgb(102,102,102)" stroke-width="1" font-size="16" >CH</text>
<text x="378.402208" y="190.831686" fill="rgb(102,102,102)"  stroke="rgb(102,102,102)" stroke-width="1" font-size="13" >3</text>
<text x="176.601096" y="48.000000" fill="rgb(255,12,12)"  stroke="rgb(255,12,12)" stroke-width="1" font-size="16" >O</text>
<text x="152.390086" y="111.071836" fill="rgb(12,12,255)"  stroke="rgb(12,12,255)" stroke-width="1" font-size="16" >N</text>
<text x="276.840922" y="168.615062" fill="rgb(255,12,12)"  stroke="rgb(255,12,12)" stroke-width="1" font-size="16" >O</text>
<text x="211.175993" y="168.615062" fill="rgb(255,12,12)"  stroke="rgb(255,12,12)" stroke-width="1" font-size="16" >O</text>
<text x="158.343528" y="187.570894" fill="rgb(102,102,102)"  stroke="rgb(102,102,102)" stroke-width="1" font-size="16" >H</text>
<text x="170.343528" y="191.250894" fill="rgb(102,102,102)"  stroke="rgb(102,102,102)" stroke-width="1" font-size="13" >3</text>
<text x="176.843528" y="187.570894" fill="rgb(102,102,102)"  stroke="rgb(102,102,102)" stroke-width="1" font-size="16" >C</text>
<text x="73.782481" y="154.327320" fill="rgb(255,12,12)"  stroke="rgb(255,12,12)" stroke-width="1" font-size="16" >HO</text>
<text x="34.000000" y="250.424508" fill="rgb(12,12,255)"  stroke="rgb(12,12,255)" stroke-width="1" font-size="16" >N</text>
<text x="164.274380" y="213.172359" fill="rgb(178,178,0)"  stroke="rgb(178,178,0)" stroke-width="1" font-size="16" >S</text>
<text x="111.889513" y="301.612050" fill="rgb(178,178,0)"  stroke="rgb(178,178,0)" stroke-width="1" font-size="16" >S</text>
<text x="108.353744" y="369.078543" fill="rgb(191,191,191)"  stroke="rgb(191,191,191)" stroke-width="1" font-size="16" >H</text>
<text x="190.381412" y="360.457088" fill="rgb(255,12,12)"  stroke="rgb(255,12,12)" stroke-width="1" font-size="16" >OH</text>
<text x="242.163894" y="264.359900" fill="rgb(12,12,255)"  stroke="rgb(12,12,255)" stroke-width="1" font-size="16" >N</text>
</svg>
</g>
<text font-size="18.000000" fill ="black" font-family="sans-serif"
x="10.000000" y="20.000000" ></text>
</svg>
