<?xml version="1.0"?>
<svg version="1.1" id="topsvg"
xmlns="http://www.w3.org/2000/svg" xmlns:xlink="http://www.w3.org/1999/xlink"
xmlns:cml="http://www.xml-cml.org/schema" x="0" y="0" width="200px" height="200px" viewBox="0 0 100 100">
<title> - Open Babel Depiction</title>
<rect x="0" y="0" width="100" height="100" fill="white"/>
<g transform="translate(0,0)">
<svg width="100" height="100" x="0" y="0" viewBox="0 0 393.194 418.212"
font-family="sans-serif" stroke="rgb(0,0,0)" stroke-width="2"  stroke-linecap="round">
<line x1="214.0" y1="218.9" x2="248.8" y2="199.4" stroke="rgb(0,0,0)"  stroke-width="2.0"/>
<line x1="284.2" y1="140.1" x2="284.7" y2="100.3" stroke="rgb(0,0,0)"  stroke-width="2.0"/>
<line x1="283.2" y1="97.6" x2="306.7" y2="84.5" stroke="rgb(0,0,0)"  stroke-width="2.0"/>
<line x1="286.2" y1="102.9" x2="309.6" y2="89.8" stroke="rgb(0,0,0)"  stroke-width="2.0"/>
<line x1="284.7" y1="100.3" x2="261.6" y2="86.5" stroke="rgb(0,0,0)"  stroke-width="2.0"/>
<line x1="250.6" y1="66.9" x2="250.8" y2="53.0" stroke="rgb(0,0,0)"  stroke-width="2.0"/>
<line x1="318.4" y1="160.5" x2="341.8" y2="147.4" stroke="rgb(0,0,0)"  stroke-width="2.0"/>
<line x1="283.1" y1="219.8" x2="282.6" y2="259.7" stroke="rgb(0,0,0)"  stroke-width="2.0"/>
<line x1="284.0" y1="262.3" x2="260.6" y2="275.4" stroke="rgb(0,0,0)"  stroke-width="2.0"/>
<line x1="281.1" y1="257.1" x2="257.6" y2="270.2" stroke="rgb(0,0,0)"  stroke-width="2.0"/>
<line x1="282.6" y1="259.7" x2="305.6" y2="273.4" stroke="rgb(0,0,0)"  stroke-width="2.0"/>
<line x1="316.6" y1="293.1" x2="316.4" y2="306.9" stroke="rgb(0,0,0)"  stroke-width="2.0"/>
<line x1="179.8" y1="316.4" x2="202.9" y2="330.2" stroke="rgb(0,0,0)"  stroke-width="2.0"/>
<line x1="176.7" y1="321.5" x2="199.9" y2="335.4" stroke="rgb(0,0,0)"  stroke-width="2.0"/>
<line x1="143.3" y1="351.2" x2="143.2" y2="365.2" stroke="rgb(0,0,0)"  stroke-width="2.0"/>
<line x1="110.0" y1="320.6" x2="86.5" y2="334.0" stroke="rgb(0,0,0)"  stroke-width="2.0"/>
<line x1="107.0" y1="315.4" x2="83.5" y2="328.8" stroke="rgb(0,0,0)"  stroke-width="2.0"/>
<line x1="74.8" y1="257.0" x2="51.3" y2="270.4" stroke="rgb(0,0,0)"  stroke-width="2.0"/>
<line x1="109.1" y1="160.0" x2="85.8" y2="146.3" stroke="rgb(0,0,0)"  stroke-width="2.0"/>
<line x1="112.1" y1="154.9" x2="88.9" y2="141.1" stroke="rgb(0,0,0)"  stroke-width="2.0"/>
<line x1="145.8" y1="124.7" x2="145.9" y2="110.7" stroke="rgb(0,0,0)"  stroke-width="2.0"/>
<line x1="178.9" y1="155.7" x2="202.4" y2="142.6" stroke="rgb(0,0,0)"  stroke-width="2.0"/>
<line x1="181.8" y1="161.0" x2="205.3" y2="147.8" stroke="rgb(0,0,0)"  stroke-width="2.0"/>
<line x1="284.2" y1="140.1" x2="318.4" y2="160.5" stroke="rgb(0,0,0)"  stroke-width="2.0"/>
<line x1="285.6" y1="149.4" x2="309.6" y2="163.6" stroke="rgb(0,0,0)"  stroke-width="2.0"/>
<line x1="318.4" y1="160.5" x2="317.9" y2="200.4" stroke="rgb(0,0,0)"  stroke-width="2.0"/>
<line x1="317.9" y1="200.4" x2="283.1" y2="219.8" stroke="rgb(0,0,0)"  stroke-width="2.0"/>
<line x1="309.1" y1="197.0" x2="284.8" y2="210.6" stroke="rgb(0,0,0)"  stroke-width="2.0"/>
<line x1="283.1" y1="219.8" x2="248.8" y2="199.4" stroke="rgb(0,0,0)"  stroke-width="2.0"/>
<line x1="248.8" y1="199.4" x2="249.4" y2="159.6" stroke="rgb(0,0,0)"  stroke-width="2.0"/>
<line x1="256.1" y1="193.5" x2="256.5" y2="165.7" stroke="rgb(0,0,0)"  stroke-width="2.0"/>
<line x1="249.4" y1="159.6" x2="284.2" y2="140.1" stroke="rgb(0,0,0)"  stroke-width="2.0"/>
<line x1="178.8" y1="278.8" x2="144.0" y2="257.9" stroke="rgb(0,0,0)"  stroke-width="2.0"/>
<line x1="177.3" y1="269.5" x2="152.9" y2="254.8" stroke="rgb(0,0,0)"  stroke-width="2.0"/>
<line x1="144.0" y1="257.9" x2="144.5" y2="218.0" stroke="rgb(0,0,0)"  stroke-width="2.0"/>
<line x1="144.5" y1="218.0" x2="179.8" y2="198.5" stroke="rgb(0,0,0)"  stroke-width="2.0"/>
<line x1="153.3" y1="221.4" x2="178.0" y2="207.7" stroke="rgb(0,0,0)"  stroke-width="2.0"/>
<line x1="179.8" y1="198.5" x2="214.0" y2="218.9" stroke="rgb(0,0,0)"  stroke-width="2.0"/>
<line x1="214.0" y1="218.9" x2="213.5" y2="258.8" stroke="rgb(0,0,0)"  stroke-width="2.0"/>
<line x1="206.8" y1="224.8" x2="206.4" y2="252.7" stroke="rgb(0,0,0)"  stroke-width="2.0"/>
<line x1="213.5" y1="258.8" x2="178.8" y2="278.8" stroke="rgb(0,0,0)"  stroke-width="2.0"/>
<line x1="108.5" y1="318.0" x2="109.0" y2="277.9" stroke="rgb(0,0,0)"  stroke-width="2.0"/>
<line x1="109.0" y1="277.9" x2="144.0" y2="257.9" stroke="rgb(0,0,0)"  stroke-width="2.0"/>
<line x1="178.8" y1="278.8" x2="178.2" y2="318.9" stroke="rgb(0,0,0)"  stroke-width="2.0"/>
<line x1="178.2" y1="318.9" x2="154.8" y2="331.9" stroke="rgb(0,0,0)"  stroke-width="2.0"/>
<line x1="132.2" y1="331.7" x2="108.5" y2="318.0" stroke="rgb(0,0,0)"  stroke-width="2.0"/>
<line x1="75.3" y1="217.1" x2="110.1" y2="197.6" stroke="rgb(0,0,0)"  stroke-width="2.0"/>
<line x1="84.0" y1="220.4" x2="108.4" y2="206.8" stroke="rgb(0,0,0)"  stroke-width="2.0"/>
<line x1="110.1" y1="197.6" x2="144.5" y2="218.0" stroke="rgb(0,0,0)"  stroke-width="2.0"/>
<line x1="109.0" y1="277.9" x2="74.8" y2="257.0" stroke="rgb(0,0,0)"  stroke-width="2.0"/>
<line x1="107.6" y1="268.6" x2="83.6" y2="254.0" stroke="rgb(0,0,0)"  stroke-width="2.0"/>
<line x1="74.8" y1="257.0" x2="75.3" y2="217.1" stroke="rgb(0,0,0)"  stroke-width="2.0"/>
<line x1="156.8" y1="144.4" x2="180.3" y2="158.4" stroke="rgb(0,0,0)"  stroke-width="2.0"/>
<line x1="180.3" y1="158.4" x2="179.8" y2="198.5" stroke="rgb(0,0,0)"  stroke-width="2.0"/>
<line x1="110.1" y1="197.6" x2="110.6" y2="157.5" stroke="rgb(0,0,0)"  stroke-width="2.0"/>
<line x1="110.6" y1="157.5" x2="134.3" y2="144.1" stroke="rgb(0,0,0)"  stroke-width="2.0"/>
<text x="137.459266" y="346.213724" fill="rgb(12,12,255)"  stroke="rgb(12,12,255)" stroke-width="1" font-size="16" >N</text>
<text x="117.113707" y="386.212232" fill="rgb(102,102,102)"  stroke="rgb(102,102,102)" stroke-width="1" font-size="16" >H</text>
<text x="129.113707" y="389.892232" fill="rgb(102,102,102)"  stroke="rgb(102,102,102)" stroke-width="1" font-size="13" >3</text>
<text x="135.613707" y="386.212232" fill="rgb(102,102,102)"  stroke="rgb(102,102,102)" stroke-width="1" font-size="16" >C</text>
<text x="67.716275" y="345.795750" fill="rgb(255,12,12)"  stroke="rgb(255,12,12)" stroke-width="1" font-size="16" >O</text>
<text x="34.000000" y="284.789870" fill="rgb(191,191,191)"  stroke="rgb(191,191,191)" stroke-width="1" font-size="16" >H</text>
<text x="206.558890" y="347.458010" fill="rgb(255,12,12)"  stroke="rgb(255,12,12)" stroke-width="1" font-size="16" >O</text>
<text x="70.181988" y="145.049323" fill="rgb(255,12,12)"  stroke="rgb(255,12,12)" stroke-width="1" font-size="16" >O</text>
<text x="139.599778" y="145.715454" fill="rgb(12,12,255)"  stroke="rgb(12,12,255)" stroke-width="1" font-size="16" >N</text>
<text x="142.062950" y="105.718136" fill="rgb(102,102,102)"  stroke="rgb(102,102,102)" stroke-width="1" font-size="16" >CH</text>
<text x="166.062950" y="109.398136" fill="rgb(102,102,102)"  stroke="rgb(102,102,102)" stroke-width="1" font-size="13" >3</text>
<text x="209.222654" y="146.815639" fill="rgb(255,12,12)"  stroke="rgb(255,12,12)" stroke-width="1" font-size="16" >O</text>
<text x="313.473582" y="88.783793" fill="rgb(255,12,12)"  stroke="rgb(255,12,12)" stroke-width="1" font-size="16" >O</text>
<text x="244.433637" y="87.860231" fill="rgb(255,12,12)"  stroke="rgb(255,12,12)" stroke-width="1" font-size="16" >O</text>
<text x="246.966856" y="48.000000" fill="rgb(102,102,102)"  stroke="rgb(102,102,102)" stroke-width="1" font-size="16" >CH</text>
<text x="270.966856" y="51.680000" fill="rgb(102,102,102)"  stroke="rgb(102,102,102)" stroke-width="1" font-size="13" >3</text>
<text x="347.193725" y="149.035921" fill="rgb(191,191,191)"  stroke="rgb(191,191,191)" stroke-width="1" font-size="16" >H</text>
<text x="241.767541" y="287.161384" fill="rgb(255,12,12)"  stroke="rgb(255,12,12)" stroke-width="1" font-size="16" >O</text>
<text x="310.807486" y="288.084947" fill="rgb(255,12,12)"  stroke="rgb(255,12,12)" stroke-width="1" font-size="16" >O</text>
<text x="290.274266" y="327.945178" fill="rgb(102,102,102)"  stroke="rgb(102,102,102)" stroke-width="1" font-size="16" >H</text>
<text x="302.274266" y="331.625178" fill="rgb(102,102,102)"  stroke="rgb(102,102,102)" stroke-width="1" font-size="13" >3</text>
<text x="308.774266" y="327.945178" fill="rgb(102,102,102)"  stroke="rgb(102,102,102)" stroke-width="1" font-size="16" >C</text>
</svg>
</g>
<text font-size="18.000000" fill ="black" font-family="sans-serif"
x="10.000000" y="20.000000" ></text>
</svg>
