<?xml version="1.0"?>
<svg version="1.1" id="topsvg"
xmlns="http://www.w3.org/2000/svg" xmlns:xlink="http://www.w3.org/1999/xlink"
xmlns:cml="http://www.xml-cml.org/schema" x="0" y="0" width="200px" height="200px" viewBox="0 0 100 100">
<title> - Open Babel Depiction</title>
<rect x="0" y="0" width="100" height="100" fill="white"/>
<g transform="translate(0,0)">
<svg width="100" height="100" x="0" y="0" viewBox="0 0 363.89 216.279"
font-family="sans-serif" stroke="rgb(0,0,0)" stroke-width="2"  stroke-linecap="round">
<line x1="129.7" y1="108.7" x2="167.9" y2="108.7" stroke="rgb(0,0,0)"  stroke-width="2.0"/>
<line x1="187.2" y1="141.6" x2="173.7" y2="165.0" stroke="rgb(0,0,0)"  stroke-width="2.0"/>
<line x1="283.9" y1="107.7" x2="310.9" y2="107.5" stroke="rgb(0,0,0)"  stroke-width="2.0"/>
<line x1="264.6" y1="74.7" x2="278.0" y2="51.3" stroke="rgb(0,0,0)"  stroke-width="2.0"/>
<line x1="70.9" y1="89.6" x2="50.5" y2="74.8" stroke="rgb(0,0,0)"  stroke-width="2.0"/>
<line x1="114.9" y1="66.8" x2="124.0" y2="58.7" stroke="rgb(0,0,0)"  stroke-width="2.0"/>
<line x1="118.9" y1="71.3" x2="128.0" y2="63.1" stroke="rgb(0,0,0)"  stroke-width="2.0"/>
<line x1="101.6" y1="65.7" x2="99.1" y2="53.7" stroke="rgb(0,0,0)"  stroke-width="2.0"/>
<line x1="107.5" y1="64.4" x2="104.9" y2="52.5" stroke="rgb(0,0,0)"  stroke-width="2.0"/>
<line x1="225.9" y1="141.6" x2="225.9" y2="74.7" stroke="rgb(0,0,0)"  stroke-width="2.0"/>
<line x1="218.7" y1="135.6" x2="218.7" y2="80.7" stroke="rgb(0,0,0)"  stroke-width="2.0"/>
<line x1="225.9" y1="74.7" x2="200.2" y2="74.7" stroke="rgb(0,0,0)"  stroke-width="2.0"/>
<line x1="180.8" y1="86.0" x2="167.9" y2="108.7" stroke="rgb(0,0,0)"  stroke-width="2.0"/>
<line x1="167.9" y1="108.7" x2="187.2" y2="141.6" stroke="rgb(0,0,0)"  stroke-width="2.0"/>
<line x1="177.2" y1="110.2" x2="190.4" y2="132.8" stroke="rgb(0,0,0)"  stroke-width="2.0"/>
<line x1="187.2" y1="141.6" x2="225.9" y2="141.6" stroke="rgb(0,0,0)"  stroke-width="2.0"/>
<line x1="283.9" y1="107.7" x2="264.6" y2="74.7" stroke="rgb(0,0,0)"  stroke-width="2.0"/>
<line x1="274.6" y1="106.1" x2="261.4" y2="83.5" stroke="rgb(0,0,0)"  stroke-width="2.0"/>
<line x1="264.6" y1="74.7" x2="225.9" y2="74.7" stroke="rgb(0,0,0)"  stroke-width="2.0"/>
<line x1="225.9" y1="141.6" x2="251.6" y2="141.6" stroke="rgb(0,0,0)"  stroke-width="2.0"/>
<line x1="271.0" y1="130.3" x2="283.9" y2="107.7" stroke="rgb(0,0,0)"  stroke-width="2.0"/>
<line x1="70.9" y1="127.8" x2="70.9" y2="89.6" stroke="rgb(0,0,0)"  stroke-width="2.0"/>
<line x1="78.1" y1="121.8" x2="78.1" y2="95.6" stroke="rgb(0,0,0)"  stroke-width="2.0"/>
<line x1="70.9" y1="89.6" x2="94.9" y2="81.8" stroke="rgb(0,0,0)"  stroke-width="2.0"/>
<line x1="114.9" y1="88.3" x2="129.7" y2="108.7" stroke="rgb(0,0,0)"  stroke-width="2.0"/>
<line x1="129.7" y1="108.7" x2="107.2" y2="139.6" stroke="rgb(0,0,0)"  stroke-width="2.0"/>
<line x1="120.4" y1="109.3" x2="104.9" y2="130.5" stroke="rgb(0,0,0)"  stroke-width="2.0"/>
<line x1="107.2" y1="139.6" x2="70.9" y2="127.8" stroke="rgb(0,0,0)"  stroke-width="2.0"/>
<text x="278.433013" y="48.000000" fill="rgb(255,12,12)"  stroke="rgb(255,12,12)" stroke-width="1" font-size="16" >OH</text>
<text x="93.303319" y="48.402795" fill="rgb(255,12,12)"  stroke="rgb(255,12,12)" stroke-width="1" font-size="16" >O</text>
<text x="129.640257" y="60.209382" fill="rgb(255,12,12)"  stroke="rgb(255,12,12)" stroke-width="1" font-size="16" >O</text>
<text x="101.246984" y="85.774800" fill="rgb(178,178,0)"  stroke="rgb(178,178,0)" stroke-width="1" font-size="16" >S</text>
<text x="34.000000" y="75.123925" fill="rgb(191,191,191)"  stroke="rgb(191,191,191)" stroke-width="1" font-size="16" >H</text>
<text x="181.247040" y="82.711126" fill="rgb(178,178,0)"  stroke="rgb(178,178,0)" stroke-width="1" font-size="16" >S</text>
<text x="317.889743" y="115.399831" fill="rgb(191,191,191)"  stroke="rgb(191,191,191)" stroke-width="1" font-size="16" >H</text>
<text x="258.554942" y="149.637847" fill="rgb(178,178,0)"  stroke="rgb(178,178,0)" stroke-width="1" font-size="16" >S</text>
<text x="149.247040" y="184.278863" fill="rgb(255,12,12)"  stroke="rgb(255,12,12)" stroke-width="1" font-size="16" >HO</text>
</svg>
</g>
<text font-size="18.000000" fill ="black" font-family="sans-serif"
x="10.000000" y="20.000000" ></text>
</svg>
