<?xml version="1.0"?>
<svg version="1.1" id="topsvg"
xmlns="http://www.w3.org/2000/svg" xmlns:xlink="http://www.w3.org/1999/xlink"
xmlns:cml="http://www.xml-cml.org/schema" x="0" y="0" width="200px" height="200px" viewBox="0 0 100 100">
<title> - Open Babel Depiction</title>
<rect x="0" y="0" width="100" height="100" fill="white"/>
<g transform="translate(0,0)">
<svg width="100" height="100" x="0" y="0" viewBox="0 0 393.22 486.881"
font-family="sans-serif" stroke="rgb(0,0,0)" stroke-width="2"  stroke-linecap="round">
<line x1="214.1" y1="218.9" x2="248.8" y2="199.5" stroke="rgb(0,0,0)"  stroke-width="2.0"/>
<line x1="284.2" y1="140.1" x2="284.7" y2="100.3" stroke="rgb(0,0,0)"  stroke-width="2.0"/>
<line x1="283.2" y1="97.6" x2="306.7" y2="84.5" stroke="rgb(0,0,0)"  stroke-width="2.0"/>
<line x1="286.2" y1="102.9" x2="309.6" y2="89.8" stroke="rgb(0,0,0)"  stroke-width="2.0"/>
<line x1="284.7" y1="100.3" x2="261.6" y2="86.5" stroke="rgb(0,0,0)"  stroke-width="2.0"/>
<line x1="250.6" y1="66.9" x2="250.8" y2="53.0" stroke="rgb(0,0,0)"  stroke-width="2.0"/>
<line x1="318.4" y1="160.5" x2="341.9" y2="147.4" stroke="rgb(0,0,0)"  stroke-width="2.0"/>
<line x1="283.1" y1="219.9" x2="282.6" y2="259.7" stroke="rgb(0,0,0)"  stroke-width="2.0"/>
<line x1="284.0" y1="262.3" x2="260.6" y2="275.5" stroke="rgb(0,0,0)"  stroke-width="2.0"/>
<line x1="281.1" y1="257.1" x2="257.7" y2="270.2" stroke="rgb(0,0,0)"  stroke-width="2.0"/>
<line x1="282.6" y1="259.7" x2="305.7" y2="273.5" stroke="rgb(0,0,0)"  stroke-width="2.0"/>
<line x1="316.7" y1="293.1" x2="316.5" y2="307.0" stroke="rgb(0,0,0)"  stroke-width="2.0"/>
<line x1="179.8" y1="316.4" x2="202.9" y2="330.3" stroke="rgb(0,0,0)"  stroke-width="2.0"/>
<line x1="176.7" y1="321.6" x2="199.9" y2="335.4" stroke="rgb(0,0,0)"  stroke-width="2.0"/>
<line x1="143.3" y1="351.3" x2="143.1" y2="378.0" stroke="rgb(0,0,0)"  stroke-width="2.0"/>
<line x1="143.1" y1="381.0" x2="116.3" y2="380.8" stroke="rgb(0,0,0)"  stroke-width="2.0"/>
<line x1="143.1" y1="375.0" x2="116.4" y2="374.8" stroke="rgb(0,0,0)"  stroke-width="2.0"/>
<line x1="143.1" y1="378.0" x2="156.3" y2="401.3" stroke="rgb(0,0,0)"  stroke-width="2.0"/>
<line x1="156.1" y1="423.8" x2="149.1" y2="435.7" stroke="rgb(0,0,0)"  stroke-width="2.0"/>
<line x1="110.0" y1="320.7" x2="86.5" y2="334.0" stroke="rgb(0,0,0)"  stroke-width="2.0"/>
<line x1="107.0" y1="315.5" x2="83.5" y2="328.8" stroke="rgb(0,0,0)"  stroke-width="2.0"/>
<line x1="74.8" y1="257.1" x2="51.3" y2="270.4" stroke="rgb(0,0,0)"  stroke-width="2.0"/>
<line x1="109.0" y1="160.1" x2="85.8" y2="146.3" stroke="rgb(0,0,0)"  stroke-width="2.0"/>
<line x1="112.1" y1="154.9" x2="88.9" y2="141.1" stroke="rgb(0,0,0)"  stroke-width="2.0"/>
<line x1="145.7" y1="124.7" x2="146.1" y2="97.5" stroke="rgb(0,0,0)"  stroke-width="2.0"/>
<line x1="144.2" y1="95.2" x2="165.3" y2="78.1" stroke="rgb(0,0,0)"  stroke-width="2.0"/>
<line x1="147.9" y1="99.9" x2="169.1" y2="82.8" stroke="rgb(0,0,0)"  stroke-width="2.0"/>
<line x1="146.1" y1="97.5" x2="120.7" y2="87.8" stroke="rgb(0,0,0)"  stroke-width="2.0"/>
<line x1="98.4" y1="91.3" x2="87.4" y2="100.2" stroke="rgb(0,0,0)"  stroke-width="2.0"/>
<line x1="178.9" y1="155.8" x2="202.4" y2="142.6" stroke="rgb(0,0,0)"  stroke-width="2.0"/>
<line x1="181.8" y1="161.0" x2="205.3" y2="147.8" stroke="rgb(0,0,0)"  stroke-width="2.0"/>
<line x1="284.2" y1="140.1" x2="318.4" y2="160.5" stroke="rgb(0,0,0)"  stroke-width="2.0"/>
<line x1="285.6" y1="149.4" x2="309.6" y2="163.6" stroke="rgb(0,0,0)"  stroke-width="2.0"/>
<line x1="318.4" y1="160.5" x2="317.9" y2="200.4" stroke="rgb(0,0,0)"  stroke-width="2.0"/>
<line x1="317.9" y1="200.4" x2="283.1" y2="219.9" stroke="rgb(0,0,0)"  stroke-width="2.0"/>
<line x1="309.1" y1="197.0" x2="284.8" y2="210.6" stroke="rgb(0,0,0)"  stroke-width="2.0"/>
<line x1="283.1" y1="219.9" x2="248.8" y2="199.5" stroke="rgb(0,0,0)"  stroke-width="2.0"/>
<line x1="248.8" y1="199.5" x2="249.4" y2="159.6" stroke="rgb(0,0,0)"  stroke-width="2.0"/>
<line x1="256.1" y1="193.6" x2="256.5" y2="165.7" stroke="rgb(0,0,0)"  stroke-width="2.0"/>
<line x1="249.4" y1="159.6" x2="284.2" y2="140.1" stroke="rgb(0,0,0)"  stroke-width="2.0"/>
<line x1="178.8" y1="278.8" x2="144.0" y2="258.0" stroke="rgb(0,0,0)"  stroke-width="2.0"/>
<line x1="177.3" y1="269.6" x2="152.9" y2="254.9" stroke="rgb(0,0,0)"  stroke-width="2.0"/>
<line x1="144.0" y1="258.0" x2="144.5" y2="218.0" stroke="rgb(0,0,0)"  stroke-width="2.0"/>
<line x1="144.5" y1="218.0" x2="179.8" y2="198.5" stroke="rgb(0,0,0)"  stroke-width="2.0"/>
<line x1="153.3" y1="221.4" x2="178.0" y2="207.7" stroke="rgb(0,0,0)"  stroke-width="2.0"/>
<line x1="179.8" y1="198.5" x2="214.1" y2="218.9" stroke="rgb(0,0,0)"  stroke-width="2.0"/>
<line x1="214.1" y1="218.9" x2="213.5" y2="258.9" stroke="rgb(0,0,0)"  stroke-width="2.0"/>
<line x1="206.8" y1="224.8" x2="206.4" y2="252.8" stroke="rgb(0,0,0)"  stroke-width="2.0"/>
<line x1="213.5" y1="258.9" x2="178.8" y2="278.8" stroke="rgb(0,0,0)"  stroke-width="2.0"/>
<line x1="108.5" y1="318.1" x2="109.0" y2="277.9" stroke="rgb(0,0,0)"  stroke-width="2.0"/>
<line x1="109.0" y1="277.9" x2="144.0" y2="258.0" stroke="rgb(0,0,0)"  stroke-width="2.0"/>
<line x1="178.8" y1="278.8" x2="178.2" y2="319.0" stroke="rgb(0,0,0)"  stroke-width="2.0"/>
<line x1="178.2" y1="319.0" x2="154.8" y2="332.0" stroke="rgb(0,0,0)"  stroke-width="2.0"/>
<line x1="132.2" y1="331.8" x2="108.5" y2="318.1" stroke="rgb(0,0,0)"  stroke-width="2.0"/>
<line x1="75.3" y1="217.1" x2="110.1" y2="197.6" stroke="rgb(0,0,0)"  stroke-width="2.0"/>
<line x1="84.0" y1="220.5" x2="108.3" y2="206.8" stroke="rgb(0,0,0)"  stroke-width="2.0"/>
<line x1="110.1" y1="197.6" x2="144.5" y2="218.0" stroke="rgb(0,0,0)"  stroke-width="2.0"/>
<line x1="109.0" y1="277.9" x2="74.8" y2="257.1" stroke="rgb(0,0,0)"  stroke-width="2.0"/>
<line x1="107.6" y1="268.6" x2="83.6" y2="254.0" stroke="rgb(0,0,0)"  stroke-width="2.0"/>
<line x1="74.8" y1="257.1" x2="75.3" y2="217.1" stroke="rgb(0,0,0)"  stroke-width="2.0"/>
<line x1="156.8" y1="144.4" x2="180.3" y2="158.4" stroke="rgb(0,0,0)"  stroke-width="2.0"/>
<line x1="180.3" y1="158.4" x2="179.8" y2="198.5" stroke="rgb(0,0,0)"  stroke-width="2.0"/>
<line x1="110.1" y1="197.6" x2="110.6" y2="157.5" stroke="rgb(0,0,0)"  stroke-width="2.0"/>
<line x1="110.6" y1="157.5" x2="134.3" y2="144.1" stroke="rgb(0,0,0)"  stroke-width="2.0"/>
<text x="70.187303" y="145.076740" fill="rgb(255,12,12)"  stroke="rgb(255,12,12)" stroke-width="1" font-size="16" >O</text>
<text x="156.691980" y="420.621411" fill="rgb(255,12,12)"  stroke="rgb(255,12,12)" stroke-width="1" font-size="16" >O</text>
<text x="116.515287" y="454.881498" fill="rgb(102,102,102)"  stroke="rgb(102,102,102)" stroke-width="1" font-size="16" >H</text>
<text x="128.515287" y="458.561498" fill="rgb(102,102,102)"  stroke="rgb(102,102,102)" stroke-width="1" font-size="13" >3</text>
<text x="135.015287" y="454.881498" fill="rgb(102,102,102)"  stroke="rgb(102,102,102)" stroke-width="1" font-size="16" >C</text>
<text x="67.721438" y="345.829176" fill="rgb(255,12,12)"  stroke="rgb(255,12,12)" stroke-width="1" font-size="16" >O</text>
<text x="34.000000" y="284.813956" fill="rgb(191,191,191)"  stroke="rgb(191,191,191)" stroke-width="1" font-size="16" >H</text>
<text x="97.351768" y="385.674352" fill="rgb(255,12,12)"  stroke="rgb(255,12,12)" stroke-width="1" font-size="16" >O</text>
<text x="139.594546" y="145.730416" fill="rgb(12,12,255)"  stroke="rgb(12,12,255)" stroke-width="1" font-size="16" >N</text>
<text x="171.301835" y="80.238178" fill="rgb(255,12,12)"  stroke="rgb(255,12,12)" stroke-width="1" font-size="16" >O</text>
<text x="102.532032" y="91.126152" fill="rgb(255,12,12)"  stroke="rgb(255,12,12)" stroke-width="1" font-size="16" >O</text>
<text x="51.290217" y="116.422271" fill="rgb(102,102,102)"  stroke="rgb(102,102,102)" stroke-width="1" font-size="16" >H</text>
<text x="63.290217" y="120.102271" fill="rgb(102,102,102)"  stroke="rgb(102,102,102)" stroke-width="1" font-size="13" >3</text>
<text x="69.790217" y="116.422271" fill="rgb(102,102,102)"  stroke="rgb(102,102,102)" stroke-width="1" font-size="16" >C</text>
<text x="209.222739" y="146.833762" fill="rgb(255,12,12)"  stroke="rgb(255,12,12)" stroke-width="1" font-size="16" >O</text>
<text x="313.494972" y="88.790038" fill="rgb(255,12,12)"  stroke="rgb(255,12,12)" stroke-width="1" font-size="16" >O</text>
<text x="244.444456" y="87.866334" fill="rgb(255,12,12)"  stroke="rgb(255,12,12)" stroke-width="1" font-size="16" >O</text>
<text x="246.977757" y="48.000000" fill="rgb(102,102,102)"  stroke="rgb(102,102,102)" stroke-width="1" font-size="16" >CH</text>
<text x="270.977757" y="51.680000" fill="rgb(102,102,102)"  stroke="rgb(102,102,102)" stroke-width="1" font-size="13" >3</text>
<text x="347.220279" y="149.051391" fill="rgb(191,191,191)"  stroke="rgb(191,191,191)" stroke-width="1" font-size="16" >H</text>
<text x="241.777952" y="287.198003" fill="rgb(255,12,12)"  stroke="rgb(255,12,12)" stroke-width="1" font-size="16" >O</text>
<text x="310.828468" y="288.121707" fill="rgb(255,12,12)"  stroke="rgb(255,12,12)" stroke-width="1" font-size="16" >O</text>
<text x="290.295167" y="327.988041" fill="rgb(102,102,102)"  stroke="rgb(102,102,102)" stroke-width="1" font-size="16" >H</text>
<text x="302.295167" y="331.668041" fill="rgb(102,102,102)"  stroke="rgb(102,102,102)" stroke-width="1" font-size="13" >3</text>
<text x="308.795167" y="327.988041" fill="rgb(102,102,102)"  stroke="rgb(102,102,102)" stroke-width="1" font-size="16" >C</text>
<text x="206.563910" y="347.503861" fill="rgb(255,12,12)"  stroke="rgb(255,12,12)" stroke-width="1" font-size="16" >O</text>
<text x="137.453707" y="346.259385" fill="rgb(12,12,255)"  stroke="rgb(12,12,255)" stroke-width="1" font-size="16" >N</text>
</svg>
</g>
<text font-size="18.000000" fill ="black" font-family="sans-serif"
x="10.000000" y="20.000000" ></text>
</svg>
