<?xml version="1.0"?>
<svg version="1.1" id="topsvg"
xmlns="http://www.w3.org/2000/svg" xmlns:xlink="http://www.w3.org/1999/xlink"
xmlns:cml="http://www.xml-cml.org/schema" x="0" y="0" width="200px" height="200px" viewBox="0 0 100 100">
<title> - Open Babel Depiction</title>
<rect x="0" y="0" width="100" height="100" fill="white"/>
<g transform="translate(0,0)">
<svg width="100" height="100" x="0" y="0" viewBox="0 0 596.759 335.746"
font-family="sans-serif" stroke="rgb(0,0,0)" stroke-width="2"  stroke-linecap="round">
<line x1="323.0" y1="233.7" x2="283.9" y2="225.3" stroke="rgb(0,0,0)"  stroke-width="2.0"/>
<line x1="254.2" y1="252.1" x2="257.0" y2="279.0" stroke="rgb(0,0,0)"  stroke-width="2.0"/>
<line x1="219.5" y1="232.1" x2="183.0" y2="248.4" stroke="rgb(0,0,0)"  stroke-width="2.0"/>
<line x1="183.0" y1="248.4" x2="158.3" y2="259.4" stroke="rgb(0,0,0)"  stroke-width="2.0"/>
<line x1="184.7" y1="252.2" x2="160.0" y2="263.2" stroke="rgb(0,0,0)"  stroke-width="2.0"/>
<line x1="181.3" y1="244.5" x2="156.6" y2="255.5" stroke="rgb(0,0,0)"  stroke-width="2.0"/>
<line x1="227.8" y1="193.0" x2="201.1" y2="163.3" stroke="rgb(0,0,0)"  stroke-width="2.0"/>
<line x1="201.7" y1="166.2" x2="162.6" y2="174.5" stroke="rgb(0,0,0)"  stroke-width="2.0"/>
<line x1="200.4" y1="160.3" x2="161.3" y2="168.6" stroke="rgb(0,0,0)"  stroke-width="2.0"/>
<line x1="161.9" y1="171.6" x2="135.2" y2="141.8" stroke="rgb(0,0,0)"  stroke-width="2.0"/>
<line x1="95.4" y1="146.0" x2="75.4" y2="180.7" stroke="rgb(0,0,0)"  stroke-width="2.0"/>
<line x1="75.4" y1="180.7" x2="61.9" y2="204.1" stroke="rgb(0,0,0)"  stroke-width="2.0"/>
<line x1="79.0" y1="182.8" x2="65.5" y2="206.2" stroke="rgb(0,0,0)"  stroke-width="2.0"/>
<line x1="71.8" y1="178.6" x2="58.3" y2="202.0" stroke="rgb(0,0,0)"  stroke-width="2.0"/>
<line x1="79.1" y1="109.5" x2="52.7" y2="103.9" stroke="rgb(0,0,0)"  stroke-width="2.0"/>
<line x1="108.9" y1="82.7" x2="106.0" y2="55.9" stroke="rgb(0,0,0)"  stroke-width="2.0"/>
<line x1="351.2" y1="169.5" x2="327.9" y2="156.0" stroke="rgb(0,0,0)"  stroke-width="2.0"/>
<line x1="354.2" y1="164.3" x2="330.9" y2="150.8" stroke="rgb(0,0,0)"  stroke-width="2.0"/>
<line x1="395.7" y1="107.8" x2="368.9" y2="78.0" stroke="rgb(0,0,0)"  stroke-width="2.0"/>
<line x1="366.1" y1="77.1" x2="374.4" y2="51.4" stroke="rgb(0,0,0)"  stroke-width="2.0"/>
<line x1="371.8" y1="79.0" x2="380.1" y2="53.3" stroke="rgb(0,0,0)"  stroke-width="2.0"/>
<line x1="368.9" y1="78.0" x2="342.5" y2="83.7" stroke="rgb(0,0,0)"  stroke-width="2.0"/>
<line x1="325.8" y1="98.7" x2="321.5" y2="112.0" stroke="rgb(0,0,0)"  stroke-width="2.0"/>
<line x1="451.7" y1="140.1" x2="490.9" y2="148.4" stroke="rgb(0,0,0)"  stroke-width="2.0"/>
<line x1="493.7" y1="147.5" x2="502.1" y2="173.2" stroke="rgb(0,0,0)"  stroke-width="2.0"/>
<line x1="488.0" y1="149.4" x2="496.4" y2="175.1" stroke="rgb(0,0,0)"  stroke-width="2.0"/>
<line x1="490.9" y1="148.4" x2="508.9" y2="128.4" stroke="rgb(0,0,0)"  stroke-width="2.0"/>
<line x1="530.3" y1="121.4" x2="544.0" y2="124.3" stroke="rgb(0,0,0)"  stroke-width="2.0"/>
<line x1="423.5" y1="204.3" x2="446.9" y2="217.8" stroke="rgb(0,0,0)"  stroke-width="2.0"/>
<line x1="420.5" y1="209.5" x2="443.9" y2="223.0" stroke="rgb(0,0,0)"  stroke-width="2.0"/>
<line x1="379.1" y1="266.0" x2="397.1" y2="286.1" stroke="rgb(0,0,0)"  stroke-width="2.0"/>
<line x1="219.5" y1="232.1" x2="227.8" y2="193.0" stroke="rgb(0,0,0)"  stroke-width="2.0"/>
<line x1="227.8" y1="227.7" x2="233.6" y2="200.3" stroke="rgb(0,0,0)"  stroke-width="2.0"/>
<line x1="227.8" y1="193.0" x2="254.7" y2="190.2" stroke="rgb(0,0,0)"  stroke-width="2.0"/>
<line x1="272.9" y1="200.7" x2="283.9" y2="225.3" stroke="rgb(0,0,0)"  stroke-width="2.0"/>
<line x1="283.9" y1="225.3" x2="254.2" y2="252.1" stroke="rgb(0,0,0)"  stroke-width="2.0"/>
<line x1="274.6" y1="224.0" x2="253.8" y2="242.7" stroke="rgb(0,0,0)"  stroke-width="2.0"/>
<line x1="254.2" y1="252.1" x2="219.5" y2="232.1" stroke="rgb(0,0,0)"  stroke-width="2.0"/>
<line x1="79.1" y1="109.5" x2="108.9" y2="82.7" stroke="rgb(0,0,0)"  stroke-width="2.0"/>
<line x1="88.4" y1="110.8" x2="109.2" y2="92.1" stroke="rgb(0,0,0)"  stroke-width="2.0"/>
<line x1="108.9" y1="82.7" x2="132.2" y2="96.2" stroke="rgb(0,0,0)"  stroke-width="2.0"/>
<line x1="140.8" y1="115.4" x2="135.2" y2="141.8" stroke="rgb(0,0,0)"  stroke-width="2.0"/>
<line x1="135.2" y1="141.8" x2="95.4" y2="146.0" stroke="rgb(0,0,0)"  stroke-width="2.0"/>
<line x1="128.5" y1="135.3" x2="100.6" y2="138.2" stroke="rgb(0,0,0)"  stroke-width="2.0"/>
<line x1="95.4" y1="146.0" x2="79.1" y2="109.5" stroke="rgb(0,0,0)"  stroke-width="2.0"/>
<line x1="440.8" y1="115.5" x2="451.7" y2="140.1" stroke="rgb(0,0,0)"  stroke-width="2.0"/>
<line x1="451.7" y1="140.1" x2="422.0" y2="166.9" stroke="rgb(0,0,0)"  stroke-width="2.0"/>
<line x1="442.5" y1="138.8" x2="421.7" y2="157.5" stroke="rgb(0,0,0)"  stroke-width="2.0"/>
<line x1="422.0" y1="166.9" x2="387.4" y2="146.9" stroke="rgb(0,0,0)"  stroke-width="2.0"/>
<line x1="387.4" y1="146.9" x2="395.7" y2="107.8" stroke="rgb(0,0,0)"  stroke-width="2.0"/>
<line x1="395.7" y1="142.5" x2="401.5" y2="115.1" stroke="rgb(0,0,0)"  stroke-width="2.0"/>
<line x1="395.7" y1="107.8" x2="422.5" y2="104.9" stroke="rgb(0,0,0)"  stroke-width="2.0"/>
<line x1="387.4" y1="226.9" x2="379.1" y2="266.0" stroke="rgb(0,0,0)"  stroke-width="2.0"/>
<line x1="379.1" y1="231.3" x2="373.3" y2="258.7" stroke="rgb(0,0,0)"  stroke-width="2.0"/>
<line x1="379.1" y1="266.0" x2="352.2" y2="268.8" stroke="rgb(0,0,0)"  stroke-width="2.0"/>
<line x1="334.0" y1="258.3" x2="323.0" y2="233.7" stroke="rgb(0,0,0)"  stroke-width="2.0"/>
<line x1="323.0" y1="233.7" x2="352.7" y2="206.9" stroke="rgb(0,0,0)"  stroke-width="2.0"/>
<line x1="332.3" y1="235.0" x2="353.1" y2="216.3" stroke="rgb(0,0,0)"  stroke-width="2.0"/>
<line x1="352.7" y1="206.9" x2="387.4" y2="226.9" stroke="rgb(0,0,0)"  stroke-width="2.0"/>
<line x1="352.7" y1="166.9" x2="387.4" y2="146.9" stroke="rgb(0,0,0)"  stroke-width="2.0"/>
<line x1="422.0" y1="166.9" x2="422.0" y2="206.9" stroke="rgb(0,0,0)"  stroke-width="2.0"/>
<line x1="422.0" y1="206.9" x2="387.4" y2="226.9" stroke="rgb(0,0,0)"  stroke-width="2.0"/>
<line x1="352.7" y1="206.9" x2="352.7" y2="166.9" stroke="rgb(0,0,0)"  stroke-width="2.0"/>
<text x="497.229046" y="194.487462" fill="rgb(255,12,12)"  stroke="rgb(255,12,12)" stroke-width="1" font-size="16" >O</text>
<text x="312.093621" y="154.893958" fill="rgb(255,12,12)"  stroke="rgb(255,12,12)" stroke-width="1" font-size="16" >O</text>
<text x="375.287576" y="48.000000" fill="rgb(255,12,12)"  stroke="rgb(255,12,12)" stroke-width="1" font-size="16" >O</text>
<text x="323.800992" y="94.358728" fill="rgb(255,12,12)"  stroke="rgb(255,12,12)" stroke-width="1" font-size="16" >O</text>
<text x="291.440312" y="132.400989" fill="rgb(102,102,102)"  stroke="rgb(102,102,102)" stroke-width="1" font-size="16" >H</text>
<text x="303.440312" y="136.080989" fill="rgb(102,102,102)"  stroke="rgb(102,102,102)" stroke-width="1" font-size="13" >3</text>
<text x="309.940312" y="132.400989" fill="rgb(102,102,102)"  stroke="rgb(102,102,102)" stroke-width="1" font-size="16" >C</text>
<text x="429.472996" y="111.586915" fill="rgb(178,178,0)"  stroke="rgb(178,178,0)" stroke-width="1" font-size="16" >S</text>
<text x="511.633590" y="126.719408" fill="rgb(255,12,12)"  stroke="rgb(255,12,12)" stroke-width="1" font-size="16" >O</text>
<text x="552.759494" y="135.035876" fill="rgb(102,102,102)"  stroke="rgb(102,102,102)" stroke-width="1" font-size="16" >CH</text>
<text x="576.759494" y="138.715876" fill="rgb(102,102,102)"  stroke="rgb(102,102,102)" stroke-width="1" font-size="13" >3</text>
<text x="450.657685" y="234.893958" fill="rgb(255,12,12)"  stroke="rgb(255,12,12)" stroke-width="1" font-size="16" >O</text>
<text x="399.824409" y="303.745655" fill="rgb(191,191,191)"  stroke="rgb(191,191,191)" stroke-width="1" font-size="16" >H</text>
<text x="333.278309" y="278.201000" fill="rgb(178,178,0)"  stroke="rgb(178,178,0)" stroke-width="1" font-size="16" >S</text>
<text x="252.338285" y="299.888814" fill="rgb(255,12,12)"  stroke="rgb(255,12,12)" stroke-width="1" font-size="16" >OH</text>
<text x="140.432494" y="272.646870" fill="rgb(12,12,255)"  stroke="rgb(12,12,255)" stroke-width="1" font-size="16" >N</text>
<text x="261.613474" y="196.800896" fill="rgb(178,178,0)"  stroke="rgb(178,178,0)" stroke-width="1" font-size="16" >S</text>
<text x="49.395370" y="223.310087" fill="rgb(12,12,255)"  stroke="rgb(12,12,255)" stroke-width="1" font-size="16" >N</text>
<text x="22.000000" y="109.169769" fill="rgb(255,12,12)"  stroke="rgb(255,12,12)" stroke-width="1" font-size="16" >HO</text>
<text x="98.670559" y="50.940136" fill="rgb(191,191,191)"  stroke="rgb(191,191,191)" stroke-width="1" font-size="16" >H</text>
<text x="137.492713" y="110.721012" fill="rgb(178,178,0)"  stroke="rgb(178,178,0)" stroke-width="1" font-size="16" >S</text>
</svg>
</g>
<text font-size="18.000000" fill ="black" font-family="sans-serif"
x="10.000000" y="20.000000" ></text>
</svg>
