<?xml version="1.0"?>
<svg version="1.1" id="topsvg"
xmlns="http://www.w3.org/2000/svg" xmlns:xlink="http://www.w3.org/1999/xlink"
xmlns:cml="http://www.xml-cml.org/schema" x="0" y="0" width="200px" height="200px" viewBox="0 0 100 100">
<title> - Open Babel Depiction</title>
<rect x="0" y="0" width="100" height="100" fill="white"/>
<g transform="translate(0,0)">
<svg width="100" height="100" x="0" y="0" viewBox="0 0 341.81 337.776"
font-family="sans-serif" stroke="rgb(0,0,0)" stroke-width="2"  stroke-linecap="round">
<line x1="144.7" y1="135.3" x2="126.2" y2="167.3" stroke="rgb(0,0,0)"  stroke-width="2.0"/>
<line x1="89.5" y1="171.1" x2="64.7" y2="143.7" stroke="rgb(0,0,0)"  stroke-width="2.0"/>
<line x1="64.7" y1="143.7" x2="48.7" y2="125.9" stroke="rgb(0,0,0)"  stroke-width="2.0"/>
<line x1="61.6" y1="146.5" x2="45.6" y2="128.7" stroke="rgb(0,0,0)"  stroke-width="2.0"/>
<line x1="67.9" y1="140.8" x2="51.8" y2="123.0" stroke="rgb(0,0,0)"  stroke-width="2.0"/>
<line x1="69.3" y1="265.8" x2="57.4" y2="286.5" stroke="rgb(0,0,0)"  stroke-width="2.0"/>
<line x1="106.1" y1="261.9" x2="187.0" y2="166.4" stroke="rgb(0,0,0)"  stroke-width="2.0"/>
<line x1="187.0" y1="166.4" x2="163.0" y2="166.4" stroke="rgb(0,0,0)"  stroke-width="2.0"/>
<line x1="187.0" y1="170.6" x2="163.0" y2="170.6" stroke="rgb(0,0,0)"  stroke-width="2.0"/>
<line x1="187.0" y1="162.2" x2="163.0" y2="162.2" stroke="rgb(0,0,0)"  stroke-width="2.0"/>
<line x1="216.4" y1="149.6" x2="218.9" y2="173.4" stroke="rgb(0,0,0)"  stroke-width="2.0"/>
<line x1="210.5" y1="150.2" x2="213.0" y2="174.0" stroke="rgb(0,0,0)"  stroke-width="2.0"/>
<line x1="253.6" y1="127.8" x2="264.4" y2="130.1" stroke="rgb(0,0,0)"  stroke-width="2.0"/>
<line x1="285.8" y1="123.2" x2="293.1" y2="115.0" stroke="rgb(0,0,0)"  stroke-width="2.0"/>
<line x1="223.3" y1="89.9" x2="235.3" y2="69.1" stroke="rgb(0,0,0)"  stroke-width="2.0"/>
<line x1="228.5" y1="92.9" x2="240.5" y2="72.1" stroke="rgb(0,0,0)"  stroke-width="2.0"/>
<line x1="157.1" y1="76.8" x2="154.6" y2="52.9" stroke="rgb(0,0,0)"  stroke-width="2.0"/>
<line x1="81.8" y1="207.3" x2="113.8" y2="225.8" stroke="rgb(0,0,0)"  stroke-width="2.0"/>
<line x1="90.6" y1="204.0" x2="112.2" y2="216.5" stroke="rgb(0,0,0)"  stroke-width="2.0"/>
<line x1="113.8" y1="225.8" x2="131.6" y2="209.7" stroke="rgb(0,0,0)"  stroke-width="2.0"/>
<line x1="136.0" y1="189.1" x2="126.2" y2="167.3" stroke="rgb(0,0,0)"  stroke-width="2.0"/>
<line x1="126.2" y1="167.3" x2="89.5" y2="171.1" stroke="rgb(0,0,0)"  stroke-width="2.0"/>
<line x1="121.0" y1="175.0" x2="96.2" y2="177.7" stroke="rgb(0,0,0)"  stroke-width="2.0"/>
<line x1="89.5" y1="171.1" x2="81.8" y2="207.3" stroke="rgb(0,0,0)"  stroke-width="2.0"/>
<line x1="69.3" y1="265.8" x2="106.1" y2="261.9" stroke="rgb(0,0,0)"  stroke-width="2.0"/>
<line x1="74.6" y1="258.0" x2="99.4" y2="255.4" stroke="rgb(0,0,0)"  stroke-width="2.0"/>
<line x1="106.1" y1="261.9" x2="113.8" y2="225.8" stroke="rgb(0,0,0)"  stroke-width="2.0"/>
<line x1="81.8" y1="207.3" x2="64.0" y2="223.3" stroke="rgb(0,0,0)"  stroke-width="2.0"/>
<line x1="59.6" y1="243.9" x2="69.3" y2="265.8" stroke="rgb(0,0,0)"  stroke-width="2.0"/>
<line x1="189.1" y1="95.2" x2="157.1" y2="76.8" stroke="rgb(0,0,0)"  stroke-width="2.0"/>
<line x1="180.3" y1="98.5" x2="158.7" y2="86.0" stroke="rgb(0,0,0)"  stroke-width="2.0"/>
<line x1="157.1" y1="76.8" x2="139.3" y2="92.8" stroke="rgb(0,0,0)"  stroke-width="2.0"/>
<line x1="135.0" y1="113.4" x2="144.7" y2="135.3" stroke="rgb(0,0,0)"  stroke-width="2.0"/>
<line x1="144.7" y1="135.3" x2="181.5" y2="131.4" stroke="rgb(0,0,0)"  stroke-width="2.0"/>
<line x1="149.9" y1="127.5" x2="174.7" y2="124.9" stroke="rgb(0,0,0)"  stroke-width="2.0"/>
<line x1="181.5" y1="131.4" x2="189.1" y2="95.2" stroke="rgb(0,0,0)"  stroke-width="2.0"/>
<line x1="213.5" y1="149.9" x2="231.3" y2="133.8" stroke="rgb(0,0,0)"  stroke-width="2.0"/>
<line x1="235.6" y1="113.3" x2="225.9" y2="91.4" stroke="rgb(0,0,0)"  stroke-width="2.0"/>
<line x1="225.9" y1="91.4" x2="189.1" y2="95.2" stroke="rgb(0,0,0)"  stroke-width="2.0"/>
<line x1="181.5" y1="131.4" x2="213.5" y2="149.9" stroke="rgb(0,0,0)"  stroke-width="2.0"/>
<text x="135.250422" y="209.022632" fill="rgb(178,178,0)"  stroke="rgb(178,178,0)" stroke-width="1" font-size="16" >S</text>
<text x="123.664704" y="109.487243" fill="rgb(178,178,0)"  stroke="rgb(178,178,0)" stroke-width="1" font-size="16" >S</text>
<text x="147.267445" y="48.000000" fill="rgb(191,191,191)"  stroke="rgb(191,191,191)" stroke-width="1" font-size="16" >H</text>
<text x="238.374641" y="67.365432" fill="rgb(255,12,12)"  stroke="rgb(255,12,12)" stroke-width="1" font-size="16" >O</text>
<text x="297.809765" y="113.355142" fill="rgb(102,102,102)"  stroke="rgb(102,102,102)" stroke-width="1" font-size="16" >CH</text>
<text x="321.809765" y="117.035142" fill="rgb(102,102,102)"  stroke="rgb(102,102,102)" stroke-width="1" font-size="13" >3</text>
<text x="271.079242" y="140.821171" fill="rgb(255,12,12)"  stroke="rgb(255,12,12)" stroke-width="1" font-size="16" >O</text>
<text x="234.927703" y="133.136924" fill="rgb(12,12,255)"  stroke="rgb(12,12,255)" stroke-width="1" font-size="16" >N</text>
<text x="211.324961" y="194.624167" fill="rgb(255,12,12)"  stroke="rgb(255,12,12)" stroke-width="1" font-size="16" >O</text>
<text x="144.017564" y="174.407633" fill="rgb(12,12,255)"  stroke="rgb(12,12,255)" stroke-width="1" font-size="16" >N</text>
<text x="44.863833" y="305.775576" fill="rgb(191,191,191)"  stroke="rgb(191,191,191)" stroke-width="1" font-size="16" >H</text>
<text x="48.310771" y="240.004085" fill="rgb(178,178,0)"  stroke="rgb(178,178,0)" stroke-width="1" font-size="16" >S</text>
<text x="34.000000" y="124.189965" fill="rgb(12,12,255)"  stroke="rgb(12,12,255)" stroke-width="1" font-size="16" >N</text>
</svg>
</g>
<text font-size="18.000000" fill ="black" font-family="sans-serif"
x="10.000000" y="20.000000" ></text>
</svg>
