<?xml version="1.0"?>
<svg version="1.1" id="topsvg"
xmlns="http://www.w3.org/2000/svg" xmlns:xlink="http://www.w3.org/1999/xlink"
xmlns:cml="http://www.xml-cml.org/schema" x="0" y="0" width="200px" height="200px" viewBox="0 0 100 100">
<title> - Open Babel Depiction</title>
<rect x="0" y="0" width="100" height="100" fill="white"/>
<g transform="translate(0,0)">
<svg width="100" height="100" x="0" y="0" viewBox="0 0 473.686 543.176"
font-family="sans-serif" stroke="rgb(0,0,0)" stroke-width="2"  stroke-linecap="round">
<line x1="228.0" y1="281.5" x2="209.5" y2="313.5" stroke="rgb(0,0,0)"  stroke-width="2.0"/>
<line x1="137.7" y1="378.2" x2="102.6" y2="389.6" stroke="rgb(0,0,0)"  stroke-width="2.0"/>
<line x1="105.5" y1="390.2" x2="100.5" y2="413.6" stroke="rgb(0,0,0)"  stroke-width="2.0"/>
<line x1="99.6" y1="388.9" x2="94.6" y2="412.3" stroke="rgb(0,0,0)"  stroke-width="2.0"/>
<line x1="102.6" y1="389.6" x2="84.8" y2="373.6" stroke="rgb(0,0,0)"  stroke-width="2.0"/>
<line x1="62.7" y1="368.9" x2="52.4" y2="372.3" stroke="rgb(0,0,0)"  stroke-width="2.0"/>
<line x1="137.7" y1="378.2" x2="294.5" y2="264.0" stroke="rgb(0,0,0)"  stroke-width="2.0"/>
<line x1="293.0" y1="261.4" x2="313.7" y2="249.4" stroke="rgb(0,0,0)"  stroke-width="2.0"/>
<line x1="296.0" y1="266.6" x2="316.7" y2="254.6" stroke="rgb(0,0,0)"  stroke-width="2.0"/>
<line x1="294.5" y1="264.0" x2="273.8" y2="252.0" stroke="rgb(0,0,0)"  stroke-width="2.0"/>
<line x1="251.3" y1="252.0" x2="241.8" y2="257.5" stroke="rgb(0,0,0)"  stroke-width="2.0"/>
<line x1="177.0" y1="466.5" x2="179.5" y2="490.2" stroke="rgb(0,0,0)"  stroke-width="2.0"/>
<line x1="243.4" y1="160.7" x2="243.4" y2="136.8" stroke="rgb(0,0,0)"  stroke-width="2.0"/>
<line x1="249.4" y1="160.7" x2="249.4" y2="136.8" stroke="rgb(0,0,0)"  stroke-width="2.0"/>
<line x1="204.2" y1="178.4" x2="193.8" y2="175.1" stroke="rgb(0,0,0)"  stroke-width="2.0"/>
<line x1="178.7" y1="158.3" x2="176.5" y2="147.6" stroke="rgb(0,0,0)"  stroke-width="2.0"/>
<line x1="275.4" y1="179.6" x2="310.5" y2="168.2" stroke="rgb(0,0,0)"  stroke-width="2.0"/>
<line x1="277.2" y1="185.3" x2="312.3" y2="173.9" stroke="rgb(0,0,0)"  stroke-width="2.0"/>
<line x1="344.3" y1="192.7" x2="344.3" y2="216.7" stroke="rgb(0,0,0)"  stroke-width="2.0"/>
<line x1="338.3" y1="192.7" x2="338.3" y2="216.7" stroke="rgb(0,0,0)"  stroke-width="2.0"/>
<line x1="383.5" y1="175.1" x2="393.9" y2="178.4" stroke="rgb(0,0,0)"  stroke-width="2.0"/>
<line x1="415.9" y1="173.7" x2="424.0" y2="166.4" stroke="rgb(0,0,0)"  stroke-width="2.0"/>
<line x1="359.7" y1="72.0" x2="371.7" y2="51.3" stroke="rgb(0,0,0)"  stroke-width="2.0"/>
<line x1="165.1" y1="353.5" x2="197.1" y2="371.9" stroke="rgb(0,0,0)"  stroke-width="2.0"/>
<line x1="173.9" y1="350.2" x2="195.5" y2="362.7" stroke="rgb(0,0,0)"  stroke-width="2.0"/>
<line x1="197.1" y1="371.9" x2="214.9" y2="355.9" stroke="rgb(0,0,0)"  stroke-width="2.0"/>
<line x1="219.2" y1="335.3" x2="209.5" y2="313.5" stroke="rgb(0,0,0)"  stroke-width="2.0"/>
<line x1="209.5" y1="313.5" x2="172.8" y2="317.3" stroke="rgb(0,0,0)"  stroke-width="2.0"/>
<line x1="204.3" y1="321.3" x2="179.5" y2="323.9" stroke="rgb(0,0,0)"  stroke-width="2.0"/>
<line x1="172.8" y1="317.3" x2="165.1" y2="353.5" stroke="rgb(0,0,0)"  stroke-width="2.0"/>
<line x1="177.0" y1="466.5" x2="194.8" y2="450.5" stroke="rgb(0,0,0)"  stroke-width="2.0"/>
<line x1="199.1" y1="429.9" x2="189.4" y2="408.0" stroke="rgb(0,0,0)"  stroke-width="2.0"/>
<line x1="189.4" y1="408.0" x2="152.7" y2="411.9" stroke="rgb(0,0,0)"  stroke-width="2.0"/>
<line x1="184.2" y1="415.8" x2="159.4" y2="418.4" stroke="rgb(0,0,0)"  stroke-width="2.0"/>
<line x1="152.7" y1="411.9" x2="145.0" y2="448.0" stroke="rgb(0,0,0)"  stroke-width="2.0"/>
<line x1="145.0" y1="448.0" x2="177.0" y2="466.5" stroke="rgb(0,0,0)"  stroke-width="2.0"/>
<line x1="153.8" y1="444.8" x2="175.4" y2="457.2" stroke="rgb(0,0,0)"  stroke-width="2.0"/>
<line x1="283.3" y1="249.5" x2="264.9" y2="217.6" stroke="rgb(0,0,0)"  stroke-width="2.0"/>
<line x1="274.1" y1="247.9" x2="261.6" y2="226.4" stroke="rgb(0,0,0)"  stroke-width="2.0"/>
<line x1="264.9" y1="217.6" x2="228.0" y2="217.6" stroke="rgb(0,0,0)"  stroke-width="2.0"/>
<line x1="228.0" y1="217.6" x2="209.5" y2="249.5" stroke="rgb(0,0,0)"  stroke-width="2.0"/>
<line x1="231.2" y1="226.4" x2="218.7" y2="247.9" stroke="rgb(0,0,0)"  stroke-width="2.0"/>
<line x1="209.5" y1="249.5" x2="228.0" y2="281.5" stroke="rgb(0,0,0)"  stroke-width="2.0"/>
<line x1="228.0" y1="281.5" x2="264.9" y2="281.5" stroke="rgb(0,0,0)"  stroke-width="2.0"/>
<line x1="234.0" y1="274.3" x2="258.9" y2="274.3" stroke="rgb(0,0,0)"  stroke-width="2.0"/>
<line x1="264.9" y1="281.5" x2="283.3" y2="249.5" stroke="rgb(0,0,0)"  stroke-width="2.0"/>
<line x1="322.8" y1="72.0" x2="304.3" y2="103.9" stroke="rgb(0,0,0)"  stroke-width="2.0"/>
<line x1="304.3" y1="103.9" x2="322.8" y2="135.9" stroke="rgb(0,0,0)"  stroke-width="2.0"/>
<line x1="313.6" y1="105.5" x2="326.0" y2="127.1" stroke="rgb(0,0,0)"  stroke-width="2.0"/>
<line x1="322.8" y1="135.9" x2="359.7" y2="135.9" stroke="rgb(0,0,0)"  stroke-width="2.0"/>
<line x1="359.7" y1="135.9" x2="378.2" y2="103.9" stroke="rgb(0,0,0)"  stroke-width="2.0"/>
<line x1="356.5" y1="127.1" x2="369.0" y2="105.5" stroke="rgb(0,0,0)"  stroke-width="2.0"/>
<line x1="378.2" y1="103.9" x2="359.7" y2="72.0" stroke="rgb(0,0,0)"  stroke-width="2.0"/>
<line x1="359.7" y1="72.0" x2="322.8" y2="72.0" stroke="rgb(0,0,0)"  stroke-width="2.0"/>
<line x1="353.7" y1="79.2" x2="328.8" y2="79.2" stroke="rgb(0,0,0)"  stroke-width="2.0"/>
<line x1="189.4" y1="408.0" x2="197.1" y2="371.9" stroke="rgb(0,0,0)"  stroke-width="2.0"/>
<line x1="165.1" y1="353.5" x2="137.7" y2="378.2" stroke="rgb(0,0,0)"  stroke-width="2.0"/>
<line x1="137.7" y1="378.2" x2="152.7" y2="411.9" stroke="rgb(0,0,0)"  stroke-width="2.0"/>
<line x1="246.4" y1="160.7" x2="227.1" y2="174.8" stroke="rgb(0,0,0)"  stroke-width="2.0"/>
<line x1="220.6" y1="194.8" x2="228.0" y2="217.6" stroke="rgb(0,0,0)"  stroke-width="2.0"/>
<line x1="264.9" y1="217.6" x2="276.3" y2="182.4" stroke="rgb(0,0,0)"  stroke-width="2.0"/>
<line x1="276.3" y1="182.4" x2="246.4" y2="160.7" stroke="rgb(0,0,0)"  stroke-width="2.0"/>
<line x1="367.1" y1="158.7" x2="359.7" y2="135.9" stroke="rgb(0,0,0)"  stroke-width="2.0"/>
<line x1="322.8" y1="135.9" x2="311.4" y2="171.0" stroke="rgb(0,0,0)"  stroke-width="2.0"/>
<line x1="311.4" y1="171.0" x2="341.3" y2="192.7" stroke="rgb(0,0,0)"  stroke-width="2.0"/>
<line x1="341.3" y1="192.7" x2="360.6" y2="178.7" stroke="rgb(0,0,0)"  stroke-width="2.0"/>
<text x="335.266698" y="237.656398" fill="rgb(255,12,12)"  stroke="rgb(255,12,12)" stroke-width="1" font-size="16" >O</text>
<text x="240.415184" y="131.822469" fill="rgb(255,12,12)"  stroke="rgb(255,12,12)" stroke-width="1" font-size="16" >O</text>
<text x="210.546058" y="190.443929" fill="rgb(12,12,255)"  stroke="rgb(12,12,255)" stroke-width="1" font-size="16" >N</text>
<text x="175.432795" y="179.034938" fill="rgb(255,12,12)"  stroke="rgb(255,12,12)" stroke-width="1" font-size="16" >O</text>
<text x="147.756639" y="142.921465" fill="rgb(102,102,102)"  stroke="rgb(102,102,102)" stroke-width="1" font-size="16" >H</text>
<text x="159.756639" y="146.601465" fill="rgb(102,102,102)"  stroke="rgb(102,102,102)" stroke-width="1" font-size="13" >3</text>
<text x="166.256639" y="142.921465" fill="rgb(102,102,102)"  stroke="rgb(102,102,102)" stroke-width="1" font-size="16" >C</text>
<text x="365.135824" y="179.034938" fill="rgb(12,12,255)"  stroke="rgb(12,12,255)" stroke-width="1" font-size="16" >N</text>
<text x="400.249087" y="190.443929" fill="rgb(255,12,12)"  stroke="rgb(255,12,12)" stroke-width="1" font-size="16" >O</text>
<text x="429.686195" y="165.739446" fill="rgb(102,102,102)"  stroke="rgb(102,102,102)" stroke-width="1" font-size="16" >CH</text>
<text x="453.686195" y="169.419446" fill="rgb(102,102,102)"  stroke="rgb(102,102,102)" stroke-width="1" font-size="13" >3</text>
<text x="372.186968" y="48.000000" fill="rgb(191,191,191)"  stroke="rgb(191,191,191)" stroke-width="1" font-size="16" >H</text>
<text x="69.113263" y="372.860550" fill="rgb(255,12,12)"  stroke="rgb(255,12,12)" stroke-width="1" font-size="16" >O</text>
<text x="218.511741" y="355.207212" fill="rgb(178,178,0)"  stroke="rgb(178,178,0)" stroke-width="1" font-size="16" >S</text>
<text x="88.874215" y="433.678506" fill="rgb(255,12,12)"  stroke="rgb(255,12,12)" stroke-width="1" font-size="16" >O</text>
<text x="14.000000" y="384.269541" fill="rgb(102,102,102)"  stroke="rgb(102,102,102)" stroke-width="1" font-size="16" >H</text>
<text x="26.000000" y="387.949541" fill="rgb(102,102,102)"  stroke="rgb(102,102,102)" stroke-width="1" font-size="13" >3</text>
<text x="32.500000" y="384.269541" fill="rgb(102,102,102)"  stroke="rgb(102,102,102)" stroke-width="1" font-size="16" >C</text>
<text x="320.474197" y="253.533638" fill="rgb(255,12,12)"  stroke="rgb(255,12,12)" stroke-width="1" font-size="16" >O</text>
<text x="256.526414" y="253.533638" fill="rgb(255,12,12)"  stroke="rgb(255,12,12)" stroke-width="1" font-size="16" >O</text>
<text x="204.552522" y="271.993772" fill="rgb(102,102,102)"  stroke="rgb(102,102,102)" stroke-width="1" font-size="16" >H</text>
<text x="216.552522" y="275.673772" fill="rgb(102,102,102)"  stroke="rgb(102,102,102)" stroke-width="1" font-size="13" >3</text>
<text x="223.052522" y="271.993772" fill="rgb(102,102,102)"  stroke="rgb(102,102,102)" stroke-width="1" font-size="16" >C</text>
<text x="174.837415" y="511.176012" fill="rgb(191,191,191)"  stroke="rgb(191,191,191)" stroke-width="1" font-size="16" >H</text>
<text x="198.415304" y="449.753512" fill="rgb(178,178,0)"  stroke="rgb(178,178,0)" stroke-width="1" font-size="16" >S</text>
</svg>
</g>
<text font-size="18.000000" fill ="black" font-family="sans-serif"
x="10.000000" y="20.000000" ></text>
</svg>
