<?xml version="1.0"?>
<svg version="1.1" id="topsvg"
xmlns="http://www.w3.org/2000/svg" xmlns:xlink="http://www.w3.org/1999/xlink"
xmlns:cml="http://www.xml-cml.org/schema" x="0" y="0" width="200px" height="200px" viewBox="0 0 100 100">
<title> - Open Babel Depiction</title>
<rect x="0" y="0" width="100" height="100" fill="white"/>
<g transform="translate(0,0)">
<svg width="100" height="100" x="0" y="0" viewBox="0 0 577.327 377.806"
font-family="sans-serif" stroke="rgb(0,0,0)" stroke-width="2"  stroke-linecap="round">
<line x1="301.7" y1="144.6" x2="336.3" y2="124.6" stroke="rgb(0,0,0)"  stroke-width="2.0"/>
<line x1="340.5" y1="84.9" x2="320.4" y2="66.8" stroke="rgb(0,0,0)"  stroke-width="2.0"/>
<line x1="379.6" y1="76.5" x2="390.6" y2="51.9" stroke="rgb(0,0,0)"  stroke-width="2.0"/>
<line x1="399.6" y1="111.2" x2="439.4" y2="115.4" stroke="rgb(0,0,0)"  stroke-width="2.0"/>
<line x1="502.7" y1="101.9" x2="526.1" y2="88.4" stroke="rgb(0,0,0)"  stroke-width="2.0"/>
<line x1="498.5" y1="141.7" x2="518.6" y2="159.8" stroke="rgb(0,0,0)"  stroke-width="2.0"/>
<line x1="459.4" y1="150.0" x2="448.4" y2="174.7" stroke="rgb(0,0,0)"  stroke-width="2.0"/>
<line x1="170.8" y1="167.6" x2="143.8" y2="167.6" stroke="rgb(0,0,0)"  stroke-width="2.0"/>
<line x1="170.8" y1="161.6" x2="143.8" y2="161.6" stroke="rgb(0,0,0)"  stroke-width="2.0"/>
<line x1="190.3" y1="119.9" x2="186.0" y2="106.6" stroke="rgb(0,0,0)"  stroke-width="2.0"/>
<line x1="197.2" y1="197.9" x2="184.8" y2="236.0" stroke="rgb(0,0,0)"  stroke-width="2.0"/>
<line x1="191.5" y1="196.1" x2="179.1" y2="234.1" stroke="rgb(0,0,0)"  stroke-width="2.0"/>
<line x1="205.5" y1="264.4" x2="232.5" y2="264.4" stroke="rgb(0,0,0)"  stroke-width="2.0"/>
<line x1="205.5" y1="270.4" x2="232.5" y2="270.4" stroke="rgb(0,0,0)"  stroke-width="2.0"/>
<line x1="186.0" y1="312.1" x2="190.3" y2="325.4" stroke="rgb(0,0,0)"  stroke-width="2.0"/>
<line x1="74.6" y1="287.4" x2="51.3" y2="300.9" stroke="rgb(0,0,0)"  stroke-width="2.0"/>
<line x1="379.6" y1="76.5" x2="399.6" y2="111.2" stroke="rgb(0,0,0)"  stroke-width="2.0"/>
<line x1="376.4" y1="85.3" x2="390.4" y2="109.6" stroke="rgb(0,0,0)"  stroke-width="2.0"/>
<line x1="399.6" y1="111.2" x2="381.5" y2="131.2" stroke="rgb(0,0,0)"  stroke-width="2.0"/>
<line x1="361.0" y1="135.6" x2="336.3" y2="124.6" stroke="rgb(0,0,0)"  stroke-width="2.0"/>
<line x1="336.3" y1="124.6" x2="340.5" y2="84.9" stroke="rgb(0,0,0)"  stroke-width="2.0"/>
<line x1="344.1" y1="119.4" x2="347.0" y2="91.6" stroke="rgb(0,0,0)"  stroke-width="2.0"/>
<line x1="340.5" y1="84.9" x2="379.6" y2="76.5" stroke="rgb(0,0,0)"  stroke-width="2.0"/>
<line x1="502.7" y1="101.9" x2="498.5" y2="141.7" stroke="rgb(0,0,0)"  stroke-width="2.0"/>
<line x1="494.9" y1="107.1" x2="492.0" y2="135.0" stroke="rgb(0,0,0)"  stroke-width="2.0"/>
<line x1="498.5" y1="141.7" x2="459.4" y2="150.0" stroke="rgb(0,0,0)"  stroke-width="2.0"/>
<line x1="459.4" y1="150.0" x2="439.4" y2="115.4" stroke="rgb(0,0,0)"  stroke-width="2.0"/>
<line x1="462.6" y1="141.2" x2="448.6" y2="117.0" stroke="rgb(0,0,0)"  stroke-width="2.0"/>
<line x1="439.4" y1="115.4" x2="457.4" y2="95.3" stroke="rgb(0,0,0)"  stroke-width="2.0"/>
<line x1="478.0" y1="90.9" x2="502.7" y2="101.9" stroke="rgb(0,0,0)"  stroke-width="2.0"/>
<line x1="267.0" y1="204.6" x2="232.4" y2="184.6" stroke="rgb(0,0,0)"  stroke-width="2.0"/>
<line x1="265.4" y1="195.4" x2="241.2" y2="181.4" stroke="rgb(0,0,0)"  stroke-width="2.0"/>
<line x1="232.4" y1="184.6" x2="232.4" y2="144.6" stroke="rgb(0,0,0)"  stroke-width="2.0"/>
<line x1="232.4" y1="144.6" x2="267.0" y2="124.6" stroke="rgb(0,0,0)"  stroke-width="2.0"/>
<line x1="241.2" y1="147.9" x2="265.4" y2="133.9" stroke="rgb(0,0,0)"  stroke-width="2.0"/>
<line x1="267.0" y1="124.6" x2="301.7" y2="144.6" stroke="rgb(0,0,0)"  stroke-width="2.0"/>
<line x1="301.7" y1="144.6" x2="301.7" y2="184.6" stroke="rgb(0,0,0)"  stroke-width="2.0"/>
<line x1="294.5" y1="150.6" x2="294.5" y2="178.6" stroke="rgb(0,0,0)"  stroke-width="2.0"/>
<line x1="301.7" y1="184.6" x2="267.0" y2="204.6" stroke="rgb(0,0,0)"  stroke-width="2.0"/>
<line x1="74.6" y1="247.4" x2="109.3" y2="227.4" stroke="rgb(0,0,0)"  stroke-width="2.0"/>
<line x1="109.3" y1="227.4" x2="143.9" y2="247.4" stroke="rgb(0,0,0)"  stroke-width="2.0"/>
<line x1="110.9" y1="236.6" x2="135.1" y2="250.6" stroke="rgb(0,0,0)"  stroke-width="2.0"/>
<line x1="143.9" y1="247.4" x2="143.9" y2="287.4" stroke="rgb(0,0,0)"  stroke-width="2.0"/>
<line x1="143.9" y1="287.4" x2="109.3" y2="307.4" stroke="rgb(0,0,0)"  stroke-width="2.0"/>
<line x1="135.1" y1="284.2" x2="110.9" y2="298.2" stroke="rgb(0,0,0)"  stroke-width="2.0"/>
<line x1="109.3" y1="307.4" x2="74.6" y2="287.4" stroke="rgb(0,0,0)"  stroke-width="2.0"/>
<line x1="74.6" y1="287.4" x2="74.6" y2="247.4" stroke="rgb(0,0,0)"  stroke-width="2.0"/>
<line x1="81.8" y1="281.4" x2="81.8" y2="253.4" stroke="rgb(0,0,0)"  stroke-width="2.0"/>
<line x1="170.8" y1="164.6" x2="186.7" y2="142.8" stroke="rgb(0,0,0)"  stroke-width="2.0"/>
<line x1="206.7" y1="136.3" x2="232.4" y2="144.6" stroke="rgb(0,0,0)"  stroke-width="2.0"/>
<line x1="232.4" y1="184.6" x2="194.3" y2="197.0" stroke="rgb(0,0,0)"  stroke-width="2.0"/>
<line x1="194.3" y1="197.0" x2="170.8" y2="164.6" stroke="rgb(0,0,0)"  stroke-width="2.0"/>
<line x1="169.6" y1="295.7" x2="143.9" y2="287.4" stroke="rgb(0,0,0)"  stroke-width="2.0"/>
<line x1="143.9" y1="247.4" x2="182.0" y2="235.0" stroke="rgb(0,0,0)"  stroke-width="2.0"/>
<line x1="182.0" y1="235.0" x2="205.5" y2="267.4" stroke="rgb(0,0,0)"  stroke-width="2.0"/>
<line x1="205.5" y1="267.4" x2="189.6" y2="289.2" stroke="rgb(0,0,0)"  stroke-width="2.0"/>
<text x="175.965309" y="307.763462" fill="rgb(12,12,255)"  stroke="rgb(12,12,255)" stroke-width="1" font-size="16" >N</text>
<text x="124.814579" y="172.639162" fill="rgb(255,12,12)"  stroke="rgb(255,12,12)" stroke-width="1" font-size="16" >O</text>
<text x="188.325989" y="140.278482" fill="rgb(12,12,255)"  stroke="rgb(12,12,255)" stroke-width="1" font-size="16" >N</text>
<text x="155.965309" y="102.236221" fill="rgb(102,102,102)"  stroke="rgb(102,102,102)" stroke-width="1" font-size="16" >H</text>
<text x="167.965309" y="105.916221" fill="rgb(102,102,102)"  stroke="rgb(102,102,102)" stroke-width="1" font-size="13" >3</text>
<text x="174.465309" y="102.236221" fill="rgb(102,102,102)"  stroke="rgb(102,102,102)" stroke-width="1" font-size="16" >C</text>
<text x="239.476719" y="275.402782" fill="rgb(255,12,12)"  stroke="rgb(255,12,12)" stroke-width="1" font-size="16" >O</text>
<text x="190.325989" y="345.805722" fill="rgb(102,102,102)"  stroke="rgb(102,102,102)" stroke-width="1" font-size="16" >CH</text>
<text x="214.325989" y="349.485722" fill="rgb(102,102,102)"  stroke="rgb(102,102,102)" stroke-width="1" font-size="13" >3</text>
<text x="34.000000" y="315.402782" fill="rgb(191,191,191)"  stroke="rgb(191,191,191)" stroke-width="1" font-size="16" >H</text>
<text x="304.746643" y="66.093062" fill="rgb(127,178,255)"  stroke="rgb(127,178,255)" stroke-width="1" font-size="16" >F</text>
<text x="389.867806" y="48.000000" fill="rgb(30,239,30)"  stroke="rgb(30,239,30)" stroke-width="1" font-size="16" >Cl</text>
<text x="366.833116" y="148.908627" fill="rgb(178,178,0)"  stroke="rgb(178,178,0)" stroke-width="1" font-size="16" >S</text>
<text x="460.144441" y="93.638180" fill="rgb(178,178,0)"  stroke="rgb(178,178,0)" stroke-width="1" font-size="16" >S</text>
<text x="531.327275" y="89.907646" fill="rgb(191,191,191)"  stroke="rgb(191,191,191)" stroke-width="1" font-size="16" >H</text>
<text x="522.230913" y="176.453746" fill="rgb(127,178,255)"  stroke="rgb(127,178,255)" stroke-width="1" font-size="16" >F</text>
<text x="425.109751" y="194.546807" fill="rgb(30,239,30)"  stroke="rgb(30,239,30)" stroke-width="1" font-size="16" >Cl</text>
</svg>
</g>
<text font-size="18.000000" fill ="black" font-family="sans-serif"
x="10.000000" y="20.000000" ></text>
</svg>
