<?xml version="1.0"?>
<svg version="1.1" id="topsvg"
xmlns="http://www.w3.org/2000/svg" xmlns:xlink="http://www.w3.org/1999/xlink"
xmlns:cml="http://www.xml-cml.org/schema" x="0" y="0" width="200px" height="200px" viewBox="0 0 100 100">
<title> - Open Babel Depiction</title>
<rect x="0" y="0" width="100" height="100" fill="white"/>
<g transform="translate(0,0)">
<svg width="100" height="100" x="0" y="0" viewBox="0 0 402.549 337.871"
font-family="sans-serif" stroke="rgb(0,0,0)" stroke-width="2"  stroke-linecap="round">
<line x1="144.7" y1="135.3" x2="126.2" y2="167.3" stroke="rgb(0,0,0)"  stroke-width="2.0"/>
<line x1="89.5" y1="171.2" x2="64.7" y2="143.7" stroke="rgb(0,0,0)"  stroke-width="2.0"/>
<line x1="64.7" y1="143.7" x2="48.7" y2="125.9" stroke="rgb(0,0,0)"  stroke-width="2.0"/>
<line x1="61.6" y1="146.5" x2="45.6" y2="128.7" stroke="rgb(0,0,0)"  stroke-width="2.0"/>
<line x1="67.9" y1="140.9" x2="51.8" y2="123.1" stroke="rgb(0,0,0)"  stroke-width="2.0"/>
<line x1="69.4" y1="265.9" x2="57.4" y2="286.6" stroke="rgb(0,0,0)"  stroke-width="2.0"/>
<line x1="106.1" y1="262.0" x2="225.1" y2="158.0" stroke="rgb(0,0,0)"  stroke-width="2.0"/>
<line x1="225.1" y1="158.0" x2="201.2" y2="158.0" stroke="rgb(0,0,0)"  stroke-width="2.0"/>
<line x1="225.1" y1="162.2" x2="201.2" y2="162.2" stroke="rgb(0,0,0)"  stroke-width="2.0"/>
<line x1="225.1" y1="153.8" x2="201.2" y2="153.8" stroke="rgb(0,0,0)"  stroke-width="2.0"/>
<line x1="211.9" y1="156.8" x2="206.9" y2="180.2" stroke="rgb(0,0,0)"  stroke-width="2.0"/>
<line x1="206.0" y1="155.5" x2="201.1" y2="179.0" stroke="rgb(0,0,0)"  stroke-width="2.0"/>
<line x1="276.2" y1="163.2" x2="280.0" y2="200.0" stroke="rgb(0,0,0)"  stroke-width="2.0"/>
<line x1="281.3" y1="197.3" x2="303.2" y2="207.0" stroke="rgb(0,0,0)"  stroke-width="2.0"/>
<line x1="278.8" y1="202.7" x2="300.7" y2="212.5" stroke="rgb(0,0,0)"  stroke-width="2.0"/>
<line x1="280.0" y1="200.0" x2="260.6" y2="214.1" stroke="rgb(0,0,0)"  stroke-width="2.0"/>
<line x1="238.2" y1="216.4" x2="228.2" y2="212.0" stroke="rgb(0,0,0)"  stroke-width="2.0"/>
<line x1="288.6" y1="104.7" x2="307.1" y2="72.7" stroke="rgb(0,0,0)"  stroke-width="2.0"/>
<line x1="304.5" y1="74.2" x2="292.5" y2="53.4" stroke="rgb(0,0,0)"  stroke-width="2.0"/>
<line x1="309.7" y1="71.2" x2="297.7" y2="50.4" stroke="rgb(0,0,0)"  stroke-width="2.0"/>
<line x1="307.1" y1="72.7" x2="331.1" y2="72.7" stroke="rgb(0,0,0)"  stroke-width="2.0"/>
<line x1="350.6" y1="61.4" x2="356.0" y2="51.9" stroke="rgb(0,0,0)"  stroke-width="2.0"/>
<line x1="221.4" y1="83.2" x2="226.4" y2="59.8" stroke="rgb(0,0,0)"  stroke-width="2.0"/>
<line x1="227.3" y1="84.5" x2="232.3" y2="61.0" stroke="rgb(0,0,0)"  stroke-width="2.0"/>
<line x1="157.2" y1="76.8" x2="154.7" y2="52.9" stroke="rgb(0,0,0)"  stroke-width="2.0"/>
<line x1="81.8" y1="207.3" x2="113.8" y2="225.8" stroke="rgb(0,0,0)"  stroke-width="2.0"/>
<line x1="90.6" y1="204.1" x2="112.2" y2="216.6" stroke="rgb(0,0,0)"  stroke-width="2.0"/>
<line x1="113.8" y1="225.8" x2="131.6" y2="209.8" stroke="rgb(0,0,0)"  stroke-width="2.0"/>
<line x1="136.0" y1="189.2" x2="126.2" y2="167.3" stroke="rgb(0,0,0)"  stroke-width="2.0"/>
<line x1="126.2" y1="167.3" x2="89.5" y2="171.2" stroke="rgb(0,0,0)"  stroke-width="2.0"/>
<line x1="121.0" y1="175.1" x2="96.2" y2="177.7" stroke="rgb(0,0,0)"  stroke-width="2.0"/>
<line x1="89.5" y1="171.2" x2="81.8" y2="207.3" stroke="rgb(0,0,0)"  stroke-width="2.0"/>
<line x1="69.4" y1="265.9" x2="106.1" y2="262.0" stroke="rgb(0,0,0)"  stroke-width="2.0"/>
<line x1="74.6" y1="258.1" x2="99.4" y2="255.5" stroke="rgb(0,0,0)"  stroke-width="2.0"/>
<line x1="106.1" y1="262.0" x2="113.8" y2="225.8" stroke="rgb(0,0,0)"  stroke-width="2.0"/>
<line x1="81.8" y1="207.3" x2="64.0" y2="223.4" stroke="rgb(0,0,0)"  stroke-width="2.0"/>
<line x1="59.6" y1="244.0" x2="69.4" y2="265.9" stroke="rgb(0,0,0)"  stroke-width="2.0"/>
<line x1="298.4" y1="126.6" x2="288.6" y2="104.7" stroke="rgb(0,0,0)"  stroke-width="2.0"/>
<line x1="288.6" y1="104.7" x2="251.8" y2="108.6" stroke="rgb(0,0,0)"  stroke-width="2.0"/>
<line x1="283.4" y1="112.5" x2="258.6" y2="115.1" stroke="rgb(0,0,0)"  stroke-width="2.0"/>
<line x1="251.8" y1="108.6" x2="244.1" y2="144.7" stroke="rgb(0,0,0)"  stroke-width="2.0"/>
<line x1="244.1" y1="144.7" x2="276.2" y2="163.2" stroke="rgb(0,0,0)"  stroke-width="2.0"/>
<line x1="252.9" y1="141.5" x2="274.6" y2="154.0" stroke="rgb(0,0,0)"  stroke-width="2.0"/>
<line x1="276.2" y1="163.2" x2="294.0" y2="147.2" stroke="rgb(0,0,0)"  stroke-width="2.0"/>
<line x1="189.2" y1="95.3" x2="157.2" y2="76.8" stroke="rgb(0,0,0)"  stroke-width="2.0"/>
<line x1="180.4" y1="98.5" x2="158.8" y2="86.0" stroke="rgb(0,0,0)"  stroke-width="2.0"/>
<line x1="157.2" y1="76.8" x2="139.4" y2="92.8" stroke="rgb(0,0,0)"  stroke-width="2.0"/>
<line x1="135.0" y1="113.4" x2="144.7" y2="135.3" stroke="rgb(0,0,0)"  stroke-width="2.0"/>
<line x1="144.7" y1="135.3" x2="181.5" y2="131.4" stroke="rgb(0,0,0)"  stroke-width="2.0"/>
<line x1="150.0" y1="127.5" x2="174.8" y2="124.9" stroke="rgb(0,0,0)"  stroke-width="2.0"/>
<line x1="181.5" y1="131.4" x2="189.2" y2="95.3" stroke="rgb(0,0,0)"  stroke-width="2.0"/>
<line x1="209.0" y1="156.2" x2="244.1" y2="144.7" stroke="rgb(0,0,0)"  stroke-width="2.0"/>
<line x1="251.8" y1="108.6" x2="224.4" y2="83.8" stroke="rgb(0,0,0)"  stroke-width="2.0"/>
<line x1="224.4" y1="83.8" x2="189.2" y2="95.3" stroke="rgb(0,0,0)"  stroke-width="2.0"/>
<line x1="181.5" y1="131.4" x2="209.0" y2="156.2" stroke="rgb(0,0,0)"  stroke-width="2.0"/>
<text x="338.062483" y="80.687016" fill="rgb(255,12,12)"  stroke="rgb(255,12,12)" stroke-width="1" font-size="16" >O</text>
<text x="307.806335" y="223.031003" fill="rgb(255,12,12)"  stroke="rgb(255,12,12)" stroke-width="1" font-size="16" >O</text>
<text x="244.118295" y="229.724886" fill="rgb(255,12,12)"  stroke="rgb(255,12,12)" stroke-width="1" font-size="16" >O</text>
<text x="190.341917" y="214.686674" fill="rgb(102,102,102)"  stroke="rgb(102,102,102)" stroke-width="1" font-size="16" >H</text>
<text x="202.341917" y="218.366674" fill="rgb(102,102,102)"  stroke="rgb(102,102,102)" stroke-width="1" font-size="13" >3</text>
<text x="208.841917" y="214.686674" fill="rgb(102,102,102)"  stroke="rgb(102,102,102)" stroke-width="1" font-size="16" >C</text>
<text x="297.641423" y="146.482820" fill="rgb(178,178,0)"  stroke="rgb(178,178,0)" stroke-width="1" font-size="16" >S</text>
<text x="282.603211" y="48.667590" fill="rgb(255,12,12)"  stroke="rgb(255,12,12)" stroke-width="1" font-size="16" >O</text>
<text x="358.548907" y="48.667590" fill="rgb(102,102,102)"  stroke="rgb(102,102,102)" stroke-width="1" font-size="16" >CH</text>
<text x="382.548907" y="52.347590" fill="rgb(102,102,102)"  stroke="rgb(102,102,102)" stroke-width="1" font-size="13" >3</text>
<text x="226.043810" y="55.666590" fill="rgb(255,12,12)"  stroke="rgb(255,12,12)" stroke-width="1" font-size="16" >O</text>
<text x="147.309314" y="48.000000" fill="rgb(191,191,191)"  stroke="rgb(191,191,191)" stroke-width="1" font-size="16" >H</text>
<text x="123.697848" y="109.509972" fill="rgb(178,178,0)"  stroke="rgb(178,178,0)" stroke-width="1" font-size="16" >S</text>
<text x="34.000000" y="124.218128" fill="rgb(12,12,255)"  stroke="rgb(12,12,255)" stroke-width="1" font-size="16" >N</text>
<text x="48.316060" y="240.075057" fill="rgb(178,178,0)"  stroke="rgb(178,178,0)" stroke-width="1" font-size="16" >S</text>
<text x="44.867849" y="305.870861" fill="rgb(191,191,191)"  stroke="rgb(191,191,191)" stroke-width="1" font-size="16" >H</text>
<text x="182.160451" y="165.969673" fill="rgb(12,12,255)"  stroke="rgb(12,12,255)" stroke-width="1" font-size="16" >N</text>
<text x="135.287848" y="209.082153" fill="rgb(178,178,0)"  stroke="rgb(178,178,0)" stroke-width="1" font-size="16" >S</text>
<text x="195.295461" y="200.326201" fill="rgb(255,12,12)"  stroke="rgb(255,12,12)" stroke-width="1" font-size="16" >O</text>
</svg>
</g>
<text font-size="18.000000" fill ="black" font-family="sans-serif"
x="10.000000" y="20.000000" ></text>
</svg>
