<?xml version="1.0"?>
<svg version="1.1" id="topsvg"
xmlns="http://www.w3.org/2000/svg" xmlns:xlink="http://www.w3.org/1999/xlink"
xmlns:cml="http://www.xml-cml.org/schema" x="0" y="0" width="200px" height="200px" viewBox="0 0 100 100">
<title> - Open Babel Depiction</title>
<rect x="0" y="0" width="100" height="100" fill="white"/>
<g transform="translate(0,0)">
<svg width="100" height="100" x="0" y="0" viewBox="0 0 525.711 315.577"
font-family="sans-serif" stroke="rgb(0,0,0)" stroke-width="2"  stroke-linecap="round">
<line x1="214.0" y1="197.4" x2="247.9" y2="216.9" stroke="rgb(0,0,0)"  stroke-width="2.0"/>
<line x1="349.5" y1="184.3" x2="349.4" y2="171.2" stroke="rgb(0,0,0)"  stroke-width="2.0"/>
<line x1="342.9" y1="147.0" x2="336.4" y2="135.6" stroke="rgb(0,0,0)"  stroke-width="2.0"/>
<line x1="451.1" y1="216.9" x2="474.5" y2="203.4" stroke="rgb(0,0,0)"  stroke-width="2.0"/>
<line x1="184.9" y1="223.5" x2="187.7" y2="249.5" stroke="rgb(0,0,0)"  stroke-width="2.0"/>
<line x1="159.2" y1="165.7" x2="133.0" y2="136.7" stroke="rgb(0,0,0)"  stroke-width="2.0"/>
<line x1="78.2" y1="105.0" x2="52.7" y2="99.6" stroke="rgb(0,0,0)"  stroke-width="2.0"/>
<line x1="107.3" y1="78.9" x2="104.6" y2="52.9" stroke="rgb(0,0,0)"  stroke-width="2.0"/>
<line x1="383.3" y1="216.9" x2="383.3" y2="256.0" stroke="rgb(0,0,0)"  stroke-width="2.0"/>
<line x1="383.3" y1="256.0" x2="315.6" y2="256.0" stroke="rgb(0,0,0)"  stroke-width="2.0"/>
<line x1="315.6" y1="256.0" x2="315.6" y2="216.9" stroke="rgb(0,0,0)"  stroke-width="2.0"/>
<line x1="322.8" y1="250.0" x2="322.8" y2="222.9" stroke="rgb(0,0,0)"  stroke-width="2.0"/>
<line x1="315.6" y1="216.9" x2="338.2" y2="203.8" stroke="rgb(0,0,0)"  stroke-width="2.0"/>
<line x1="360.7" y1="203.8" x2="383.3" y2="216.9" stroke="rgb(0,0,0)"  stroke-width="2.0"/>
<line x1="153.8" y1="191.4" x2="159.2" y2="165.7" stroke="rgb(0,0,0)"  stroke-width="2.0"/>
<line x1="161.2" y1="190.8" x2="165.0" y2="173.1" stroke="rgb(0,0,0)"  stroke-width="2.0"/>
<line x1="159.2" y1="165.7" x2="185.2" y2="163.0" stroke="rgb(0,0,0)"  stroke-width="2.0"/>
<line x1="203.4" y1="173.5" x2="214.0" y2="197.4" stroke="rgb(0,0,0)"  stroke-width="2.0"/>
<line x1="214.0" y1="197.4" x2="184.9" y2="223.5" stroke="rgb(0,0,0)"  stroke-width="2.0"/>
<line x1="204.7" y1="196.0" x2="184.6" y2="214.2" stroke="rgb(0,0,0)"  stroke-width="2.0"/>
<line x1="184.9" y1="223.5" x2="162.3" y2="210.5" stroke="rgb(0,0,0)"  stroke-width="2.0"/>
<line x1="78.2" y1="105.0" x2="107.3" y2="78.9" stroke="rgb(0,0,0)"  stroke-width="2.0"/>
<line x1="87.5" y1="106.4" x2="107.7" y2="88.3" stroke="rgb(0,0,0)"  stroke-width="2.0"/>
<line x1="107.3" y1="78.9" x2="129.9" y2="91.9" stroke="rgb(0,0,0)"  stroke-width="2.0"/>
<line x1="138.5" y1="111.1" x2="133.0" y2="136.7" stroke="rgb(0,0,0)"  stroke-width="2.0"/>
<line x1="131.0" y1="111.6" x2="127.2" y2="129.3" stroke="rgb(0,0,0)"  stroke-width="2.0"/>
<line x1="133.0" y1="136.7" x2="107.1" y2="139.4" stroke="rgb(0,0,0)"  stroke-width="2.0"/>
<line x1="88.9" y1="128.9" x2="78.2" y2="105.0" stroke="rgb(0,0,0)"  stroke-width="2.0"/>
<line x1="315.6" y1="256.0" x2="281.7" y2="275.6" stroke="rgb(0,0,0)"  stroke-width="2.0"/>
<line x1="281.7" y1="275.6" x2="247.9" y2="256.0" stroke="rgb(0,0,0)"  stroke-width="2.0"/>
<line x1="280.1" y1="266.3" x2="256.7" y2="252.8" stroke="rgb(0,0,0)"  stroke-width="2.0"/>
<line x1="247.9" y1="256.0" x2="247.9" y2="216.9" stroke="rgb(0,0,0)"  stroke-width="2.0"/>
<line x1="247.9" y1="216.9" x2="281.7" y2="197.4" stroke="rgb(0,0,0)"  stroke-width="2.0"/>
<line x1="256.7" y1="220.1" x2="280.1" y2="206.6" stroke="rgb(0,0,0)"  stroke-width="2.0"/>
<line x1="281.7" y1="197.4" x2="315.6" y2="216.9" stroke="rgb(0,0,0)"  stroke-width="2.0"/>
<line x1="417.2" y1="197.3" x2="383.3" y2="216.9" stroke="rgb(0,0,0)"  stroke-width="2.0"/>
<line x1="415.6" y1="206.6" x2="392.1" y2="220.1" stroke="rgb(0,0,0)"  stroke-width="2.0"/>
<line x1="383.3" y1="256.0" x2="417.2" y2="275.6" stroke="rgb(0,0,0)"  stroke-width="2.0"/>
<line x1="392.1" y1="252.8" x2="415.6" y2="266.3" stroke="rgb(0,0,0)"  stroke-width="2.0"/>
<line x1="417.2" y1="275.6" x2="451.1" y2="256.0" stroke="rgb(0,0,0)"  stroke-width="2.0"/>
<line x1="451.1" y1="256.0" x2="451.1" y2="216.9" stroke="rgb(0,0,0)"  stroke-width="2.0"/>
<line x1="443.9" y1="250.0" x2="443.9" y2="222.9" stroke="rgb(0,0,0)"  stroke-width="2.0"/>
<line x1="451.1" y1="216.9" x2="417.2" y2="197.3" stroke="rgb(0,0,0)"  stroke-width="2.0"/>
<text x="135.162143" y="106.431135" fill="rgb(12,12,255)"  stroke="rgb(12,12,255)" stroke-width="1" font-size="16" >N</text>
<text x="97.208977" y="48.000000" fill="rgb(127,178,255)"  stroke="rgb(127,178,255)" stroke-width="1" font-size="16" >F</text>
<text x="34.000000" y="104.924011" fill="rgb(191,191,191)"  stroke="rgb(191,191,191)" stroke-width="1" font-size="16" >H</text>
<text x="88.151819" y="148.767149" fill="rgb(178,178,0)"  stroke="rgb(178,178,0)" stroke-width="1" font-size="16" >S</text>
<text x="192.086153" y="169.640112" fill="rgb(178,178,0)"  stroke="rgb(178,178,0)" stroke-width="1" font-size="16" >S</text>
<text x="145.075830" y="211.976127" fill="rgb(12,12,255)"  stroke="rgb(12,12,255)" stroke-width="1" font-size="16" >N</text>
<text x="183.028995" y="270.407262" fill="rgb(127,178,255)"  stroke="rgb(127,178,255)" stroke-width="1" font-size="16" >F</text>
<text x="479.711500" y="204.885166" fill="rgb(191,191,191)"  stroke="rgb(191,191,191)" stroke-width="1" font-size="16" >H</text>
<text x="303.889879" y="132.389935" fill="rgb(102,102,102)"  stroke="rgb(102,102,102)" stroke-width="1" font-size="16" >H</text>
<text x="315.889879" y="136.069935" fill="rgb(102,102,102)"  stroke="rgb(102,102,102)" stroke-width="1" font-size="13" >3</text>
<text x="322.389879" y="132.389935" fill="rgb(102,102,102)"  stroke="rgb(102,102,102)" stroke-width="1" font-size="16" >C</text>
<text x="343.445917" y="166.247094" fill="rgb(255,12,12)"  stroke="rgb(255,12,12)" stroke-width="1" font-size="16" >O</text>
<text x="343.453363" y="205.346274" fill="rgb(12,12,255)"  stroke="rgb(12,12,255)" stroke-width="1" font-size="16" >N</text>
</svg>
</g>
<text font-size="18.000000" fill ="black" font-family="sans-serif"
x="10.000000" y="20.000000" ></text>
</svg>
