<?xml version="1.0"?>
<svg version="1.1" id="topsvg"
xmlns="http://www.w3.org/2000/svg" xmlns:xlink="http://www.w3.org/1999/xlink"
xmlns:cml="http://www.xml-cml.org/schema" x="0" y="0" width="200px" height="200px" viewBox="0 0 100 100">
<title> - Open Babel Depiction</title>
<rect x="0" y="0" width="100" height="100" fill="white"/>
<g transform="translate(0,0)">
<svg width="100" height="100" x="0" y="0" viewBox="0 0 489.831 391.011"
font-family="sans-serif" stroke="rgb(0,0,0)" stroke-width="2"  stroke-linecap="round">
<line x1="214.1" y1="183.3" x2="248.9" y2="163.8" stroke="rgb(0,0,0)"  stroke-width="2.0"/>
<line x1="306.2" y1="65.6" x2="299.4" y2="53.5" stroke="rgb(0,0,0)"  stroke-width="2.0"/>
<line x1="419.8" y1="68.2" x2="440.1" y2="50.5" stroke="rgb(0,0,0)"  stroke-width="2.0"/>
<line x1="179.8" y1="280.8" x2="203.0" y2="294.6" stroke="rgb(0,0,0)"  stroke-width="2.0"/>
<line x1="176.7" y1="285.9" x2="199.9" y2="299.8" stroke="rgb(0,0,0)"  stroke-width="2.0"/>
<line x1="143.4" y1="315.6" x2="143.3" y2="329.4" stroke="rgb(0,0,0)"  stroke-width="2.0"/>
<line x1="155.9" y1="345.2" x2="169.3" y2="348.2" stroke="rgb(0,0,0)"  stroke-width="2.0"/>
<line x1="110.0" y1="285.1" x2="86.5" y2="298.4" stroke="rgb(0,0,0)"  stroke-width="2.0"/>
<line x1="107.1" y1="279.8" x2="83.6" y2="293.1" stroke="rgb(0,0,0)"  stroke-width="2.0"/>
<line x1="74.8" y1="221.4" x2="51.3" y2="234.7" stroke="rgb(0,0,0)"  stroke-width="2.0"/>
<line x1="109.1" y1="124.4" x2="85.9" y2="110.7" stroke="rgb(0,0,0)"  stroke-width="2.0"/>
<line x1="112.2" y1="119.3" x2="88.9" y2="105.5" stroke="rgb(0,0,0)"  stroke-width="2.0"/>
<line x1="145.8" y1="89.1" x2="146.0" y2="74.9" stroke="rgb(0,0,0)"  stroke-width="2.0"/>
<line x1="135.2" y1="54.8" x2="123.3" y2="47.1" stroke="rgb(0,0,0)"  stroke-width="2.0"/>
<line x1="178.9" y1="120.1" x2="202.5" y2="106.9" stroke="rgb(0,0,0)"  stroke-width="2.0"/>
<line x1="181.9" y1="125.4" x2="205.4" y2="112.2" stroke="rgb(0,0,0)"  stroke-width="2.0"/>
<line x1="352.1" y1="81.6" x2="359.9" y2="120.7" stroke="rgb(0,0,0)"  stroke-width="2.0"/>
<line x1="359.9" y1="120.7" x2="325.1" y2="140.2" stroke="rgb(0,0,0)"  stroke-width="2.0"/>
<line x1="325.1" y1="140.2" x2="295.8" y2="113.1" stroke="rgb(0,0,0)"  stroke-width="2.0"/>
<line x1="325.6" y1="130.9" x2="305.1" y2="111.9" stroke="rgb(0,0,0)"  stroke-width="2.0"/>
<line x1="295.8" y1="113.1" x2="307.1" y2="88.7" stroke="rgb(0,0,0)"  stroke-width="2.0"/>
<line x1="325.4" y1="78.5" x2="352.1" y2="81.6" stroke="rgb(0,0,0)"  stroke-width="2.0"/>
<line x1="325.1" y1="140.2" x2="316.3" y2="179.1" stroke="rgb(0,0,0)"  stroke-width="2.0"/>
<line x1="316.3" y1="179.1" x2="278.2" y2="190.9" stroke="rgb(0,0,0)"  stroke-width="2.0"/>
<line x1="308.4" y1="174.0" x2="281.8" y2="182.3" stroke="rgb(0,0,0)"  stroke-width="2.0"/>
<line x1="278.2" y1="190.9" x2="248.9" y2="163.8" stroke="rgb(0,0,0)"  stroke-width="2.0"/>
<line x1="248.9" y1="163.8" x2="257.7" y2="125.0" stroke="rgb(0,0,0)"  stroke-width="2.0"/>
<line x1="257.3" y1="159.6" x2="263.4" y2="132.4" stroke="rgb(0,0,0)"  stroke-width="2.0"/>
<line x1="257.7" y1="125.0" x2="295.8" y2="113.1" stroke="rgb(0,0,0)"  stroke-width="2.0"/>
<line x1="382.1" y1="55.3" x2="352.1" y2="81.6" stroke="rgb(0,0,0)"  stroke-width="2.0"/>
<line x1="382.3" y1="64.7" x2="361.4" y2="83.1" stroke="rgb(0,0,0)"  stroke-width="2.0"/>
<line x1="359.9" y1="120.7" x2="397.6" y2="133.6" stroke="rgb(0,0,0)"  stroke-width="2.0"/>
<line x1="367.9" y1="115.9" x2="394.3" y2="124.8" stroke="rgb(0,0,0)"  stroke-width="2.0"/>
<line x1="397.6" y1="133.6" x2="427.6" y2="107.3" stroke="rgb(0,0,0)"  stroke-width="2.0"/>
<line x1="427.6" y1="107.3" x2="419.8" y2="68.2" stroke="rgb(0,0,0)"  stroke-width="2.0"/>
<line x1="419.4" y1="102.8" x2="414.0" y2="75.5" stroke="rgb(0,0,0)"  stroke-width="2.0"/>
<line x1="419.8" y1="68.2" x2="382.1" y2="55.3" stroke="rgb(0,0,0)"  stroke-width="2.0"/>
<line x1="178.8" y1="243.2" x2="144.1" y2="222.3" stroke="rgb(0,0,0)"  stroke-width="2.0"/>
<line x1="177.4" y1="233.9" x2="152.9" y2="219.3" stroke="rgb(0,0,0)"  stroke-width="2.0"/>
<line x1="144.1" y1="222.3" x2="144.6" y2="182.4" stroke="rgb(0,0,0)"  stroke-width="2.0"/>
<line x1="144.6" y1="182.4" x2="179.9" y2="162.9" stroke="rgb(0,0,0)"  stroke-width="2.0"/>
<line x1="153.3" y1="185.8" x2="178.1" y2="172.1" stroke="rgb(0,0,0)"  stroke-width="2.0"/>
<line x1="179.9" y1="162.9" x2="214.1" y2="183.3" stroke="rgb(0,0,0)"  stroke-width="2.0"/>
<line x1="214.1" y1="183.3" x2="213.6" y2="223.2" stroke="rgb(0,0,0)"  stroke-width="2.0"/>
<line x1="206.8" y1="189.2" x2="206.5" y2="217.1" stroke="rgb(0,0,0)"  stroke-width="2.0"/>
<line x1="213.6" y1="223.2" x2="178.8" y2="243.2" stroke="rgb(0,0,0)"  stroke-width="2.0"/>
<line x1="108.5" y1="282.4" x2="109.1" y2="242.3" stroke="rgb(0,0,0)"  stroke-width="2.0"/>
<line x1="109.1" y1="242.3" x2="144.1" y2="222.3" stroke="rgb(0,0,0)"  stroke-width="2.0"/>
<line x1="178.8" y1="243.2" x2="178.3" y2="283.4" stroke="rgb(0,0,0)"  stroke-width="2.0"/>
<line x1="178.3" y1="283.4" x2="154.9" y2="296.3" stroke="rgb(0,0,0)"  stroke-width="2.0"/>
<line x1="132.3" y1="296.1" x2="108.5" y2="282.4" stroke="rgb(0,0,0)"  stroke-width="2.0"/>
<line x1="75.3" y1="181.5" x2="110.1" y2="162.0" stroke="rgb(0,0,0)"  stroke-width="2.0"/>
<line x1="84.1" y1="184.8" x2="108.4" y2="171.2" stroke="rgb(0,0,0)"  stroke-width="2.0"/>
<line x1="110.1" y1="162.0" x2="144.6" y2="182.4" stroke="rgb(0,0,0)"  stroke-width="2.0"/>
<line x1="109.1" y1="242.3" x2="74.8" y2="221.4" stroke="rgb(0,0,0)"  stroke-width="2.0"/>
<line x1="107.7" y1="233.0" x2="83.7" y2="218.4" stroke="rgb(0,0,0)"  stroke-width="2.0"/>
<line x1="74.8" y1="221.4" x2="75.3" y2="181.5" stroke="rgb(0,0,0)"  stroke-width="2.0"/>
<line x1="156.8" y1="108.7" x2="180.4" y2="122.8" stroke="rgb(0,0,0)"  stroke-width="2.0"/>
<line x1="180.4" y1="122.8" x2="179.9" y2="162.9" stroke="rgb(0,0,0)"  stroke-width="2.0"/>
<line x1="110.1" y1="162.0" x2="110.6" y2="121.8" stroke="rgb(0,0,0)"  stroke-width="2.0"/>
<line x1="110.6" y1="121.8" x2="134.3" y2="108.5" stroke="rgb(0,0,0)"  stroke-width="2.0"/>
<text x="137.165990" y="350.407753" fill="rgb(255,12,12)"  stroke="rgb(255,12,12)" stroke-width="1" font-size="16" >O</text>
<text x="177.987858" y="359.010789" fill="rgb(102,102,102)"  stroke="rgb(102,102,102)" stroke-width="1" font-size="16" >CH</text>
<text x="201.987858" y="362.690789" fill="rgb(102,102,102)"  stroke="rgb(102,102,102)" stroke-width="1" font-size="13" >3</text>
<text x="67.724606" y="310.144856" fill="rgb(255,12,12)"  stroke="rgb(255,12,12)" stroke-width="1" font-size="16" >O</text>
<text x="34.000000" y="249.123902" fill="rgb(191,191,191)"  stroke="rgb(191,191,191)" stroke-width="1" font-size="16" >H</text>
<text x="137.509508" y="310.645565" fill="rgb(12,12,255)"  stroke="rgb(12,12,255)" stroke-width="1" font-size="16" >N</text>
<text x="70.232213" y="109.441305" fill="rgb(255,12,12)"  stroke="rgb(255,12,12)" stroke-width="1" font-size="16" >O</text>
<text x="139.650549" y="110.097753" fill="rgb(12,12,255)"  stroke="rgb(12,12,255)" stroke-width="1" font-size="16" >N</text>
<text x="140.116067" y="69.897858" fill="rgb(255,12,12)"  stroke="rgb(255,12,12)" stroke-width="1" font-size="16" >O</text>
<text x="86.400609" y="48.000000" fill="rgb(102,102,102)"  stroke="rgb(102,102,102)" stroke-width="1" font-size="16" >H</text>
<text x="98.400609" y="51.680000" fill="rgb(102,102,102)"  stroke="rgb(102,102,102)" stroke-width="1" font-size="13" >3</text>
<text x="104.900609" y="48.000000" fill="rgb(102,102,102)"  stroke="rgb(102,102,102)" stroke-width="1" font-size="16" >C</text>
<text x="209.282005" y="111.203040" fill="rgb(255,12,12)"  stroke="rgb(255,12,12)" stroke-width="1" font-size="16" >O</text>
<text x="306.508786" y="84.931058" fill="rgb(12,12,255)"  stroke="rgb(12,12,255)" stroke-width="1" font-size="16" >N</text>
<text x="267.035642" y="50.135881" fill="rgb(102,102,102)"  stroke="rgb(102,102,102)" stroke-width="1" font-size="16" >H</text>
<text x="279.035642" y="53.815881" fill="rgb(102,102,102)"  stroke="rgb(102,102,102)" stroke-width="1" font-size="13" >3</text>
<text x="285.535642" y="50.135881" fill="rgb(102,102,102)"  stroke="rgb(102,102,102)" stroke-width="1" font-size="16" >C</text>
<text x="443.830838" y="49.892958" fill="rgb(191,191,191)"  stroke="rgb(191,191,191)" stroke-width="1" font-size="16" >H</text>
<text x="206.619885" y="311.886380" fill="rgb(255,12,12)"  stroke="rgb(255,12,12)" stroke-width="1" font-size="16" >O</text>
</svg>
</g>
<text font-size="18.000000" fill ="black" font-family="sans-serif"
x="10.000000" y="20.000000" ></text>
</svg>
