<?xml version="1.0"?>
<svg version="1.1" id="topsvg"
xmlns="http://www.w3.org/2000/svg" xmlns:xlink="http://www.w3.org/1999/xlink"
xmlns:cml="http://www.xml-cml.org/schema" x="0" y="0" width="200px" height="200px" viewBox="0 0 100 100">
<title> - Open Babel Depiction</title>
<rect x="0" y="0" width="100" height="100" fill="white"/>
<g transform="translate(0,0)">
<svg width="100" height="100" x="0" y="0" viewBox="0 0 371.988 420.631"
font-family="sans-serif" stroke="rgb(0,0,0)" stroke-width="2"  stroke-linecap="round">
<line x1="147.4" y1="137.7" x2="128.4" y2="170.5" stroke="rgb(0,0,0)"  stroke-width="2.0"/>
<line x1="90.7" y1="174.5" x2="65.4" y2="146.3" stroke="rgb(0,0,0)"  stroke-width="2.0"/>
<line x1="65.4" y1="146.3" x2="48.7" y2="127.8" stroke="rgb(0,0,0)"  stroke-width="2.0"/>
<line x1="62.2" y1="149.1" x2="45.6" y2="130.6" stroke="rgb(0,0,0)"  stroke-width="2.0"/>
<line x1="68.5" y1="143.5" x2="51.8" y2="125.0" stroke="rgb(0,0,0)"  stroke-width="2.0"/>
<line x1="82.9" y1="211.6" x2="60.1" y2="221.7" stroke="rgb(0,0,0)"  stroke-width="2.0"/>
<line x1="115.7" y1="230.5" x2="119.6" y2="268.2" stroke="rgb(0,0,0)"  stroke-width="2.0"/>
<line x1="106.9" y1="328.2" x2="94.4" y2="349.8" stroke="rgb(0,0,0)"  stroke-width="2.0"/>
<line x1="144.6" y1="324.3" x2="170.0" y2="352.5" stroke="rgb(0,0,0)"  stroke-width="2.0"/>
<line x1="170.0" y1="352.5" x2="186.6" y2="371.0" stroke="rgb(0,0,0)"  stroke-width="2.0"/>
<line x1="173.1" y1="349.6" x2="189.8" y2="368.2" stroke="rgb(0,0,0)"  stroke-width="2.0"/>
<line x1="166.8" y1="355.3" x2="183.5" y2="373.8" stroke="rgb(0,0,0)"  stroke-width="2.0"/>
<line x1="152.5" y1="287.2" x2="175.2" y2="277.1" stroke="rgb(0,0,0)"  stroke-width="2.0"/>
<line x1="220.9" y1="152.4" x2="223.5" y2="177.2" stroke="rgb(0,0,0)"  stroke-width="2.0"/>
<line x1="214.9" y1="153.0" x2="217.6" y2="177.8" stroke="rgb(0,0,0)"  stroke-width="2.0"/>
<line x1="258.8" y1="130.0" x2="283.2" y2="135.2" stroke="rgb(0,0,0)"  stroke-width="2.0"/>
<line x1="281.0" y1="133.2" x2="297.6" y2="114.7" stroke="rgb(0,0,0)"  stroke-width="2.0"/>
<line x1="285.4" y1="137.2" x2="302.1" y2="118.7" stroke="rgb(0,0,0)"  stroke-width="2.0"/>
<line x1="283.2" y1="135.2" x2="290.9" y2="158.9" stroke="rgb(0,0,0)"  stroke-width="2.0"/>
<line x1="307.6" y1="174.0" x2="319.3" y2="176.4" stroke="rgb(0,0,0)"  stroke-width="2.0"/>
<line x1="230.7" y1="92.7" x2="243.1" y2="71.1" stroke="rgb(0,0,0)"  stroke-width="2.0"/>
<line x1="157.2" y1="78.0" x2="154.6" y2="53.2" stroke="rgb(0,0,0)"  stroke-width="2.0"/>
<line x1="163.1" y1="77.4" x2="160.5" y2="52.6" stroke="rgb(0,0,0)"  stroke-width="2.0"/>
<line x1="142.0" y1="111.4" x2="223.6" y2="179.6" stroke="rgb(0,0,0)"  stroke-width="2.0"/>
<line x1="222.1" y1="177.0" x2="243.7" y2="164.5" stroke="rgb(0,0,0)"  stroke-width="2.0"/>
<line x1="225.1" y1="182.2" x2="246.7" y2="169.7" stroke="rgb(0,0,0)"  stroke-width="2.0"/>
<line x1="223.6" y1="179.6" x2="202.0" y2="167.1" stroke="rgb(0,0,0)"  stroke-width="2.0"/>
<line x1="179.5" y1="167.1" x2="169.2" y2="173.1" stroke="rgb(0,0,0)"  stroke-width="2.0"/>
<line x1="82.9" y1="211.6" x2="115.7" y2="230.5" stroke="rgb(0,0,0)"  stroke-width="2.0"/>
<line x1="91.6" y1="208.3" x2="114.1" y2="221.3" stroke="rgb(0,0,0)"  stroke-width="2.0"/>
<line x1="115.7" y1="230.5" x2="134.2" y2="213.9" stroke="rgb(0,0,0)"  stroke-width="2.0"/>
<line x1="138.6" y1="193.3" x2="128.4" y2="170.5" stroke="rgb(0,0,0)"  stroke-width="2.0"/>
<line x1="128.4" y1="170.5" x2="90.7" y2="174.5" stroke="rgb(0,0,0)"  stroke-width="2.0"/>
<line x1="123.2" y1="178.3" x2="97.5" y2="181.0" stroke="rgb(0,0,0)"  stroke-width="2.0"/>
<line x1="90.7" y1="174.5" x2="82.9" y2="211.6" stroke="rgb(0,0,0)"  stroke-width="2.0"/>
<line x1="106.9" y1="328.2" x2="144.6" y2="324.3" stroke="rgb(0,0,0)"  stroke-width="2.0"/>
<line x1="112.1" y1="320.5" x2="137.9" y2="317.7" stroke="rgb(0,0,0)"  stroke-width="2.0"/>
<line x1="144.6" y1="324.3" x2="152.5" y2="287.2" stroke="rgb(0,0,0)"  stroke-width="2.0"/>
<line x1="152.5" y1="287.2" x2="119.6" y2="268.2" stroke="rgb(0,0,0)"  stroke-width="2.0"/>
<line x1="143.7" y1="290.4" x2="121.2" y2="277.5" stroke="rgb(0,0,0)"  stroke-width="2.0"/>
<line x1="119.6" y1="268.2" x2="101.1" y2="284.9" stroke="rgb(0,0,0)"  stroke-width="2.0"/>
<line x1="96.8" y1="305.5" x2="106.9" y2="328.2" stroke="rgb(0,0,0)"  stroke-width="2.0"/>
<line x1="217.9" y1="152.7" x2="236.4" y2="136.0" stroke="rgb(0,0,0)"  stroke-width="2.0"/>
<line x1="240.8" y1="115.5" x2="230.7" y2="92.7" stroke="rgb(0,0,0)"  stroke-width="2.0"/>
<line x1="230.7" y1="92.7" x2="193.0" y2="96.7" stroke="rgb(0,0,0)"  stroke-width="2.0"/>
<line x1="225.5" y1="100.5" x2="199.7" y2="103.2" stroke="rgb(0,0,0)"  stroke-width="2.0"/>
<line x1="193.0" y1="96.7" x2="185.1" y2="133.7" stroke="rgb(0,0,0)"  stroke-width="2.0"/>
<line x1="185.1" y1="133.7" x2="217.9" y2="152.7" stroke="rgb(0,0,0)"  stroke-width="2.0"/>
<line x1="193.0" y1="96.7" x2="160.1" y2="77.7" stroke="rgb(0,0,0)"  stroke-width="2.0"/>
<line x1="160.1" y1="77.7" x2="141.6" y2="94.4" stroke="rgb(0,0,0)"  stroke-width="2.0"/>
<line x1="137.3" y1="114.9" x2="147.4" y2="137.7" stroke="rgb(0,0,0)"  stroke-width="2.0"/>
<line x1="147.4" y1="137.7" x2="185.1" y2="133.7" stroke="rgb(0,0,0)"  stroke-width="2.0"/>
<line x1="152.6" y1="129.9" x2="178.4" y2="127.2" stroke="rgb(0,0,0)"  stroke-width="2.0"/>
<text x="243.641595" y="67.864500" fill="rgb(191,191,191)"  stroke="rgb(191,191,191)" stroke-width="1" font-size="16" >H</text>
<text x="215.894817" y="198.402830" fill="rgb(255,12,12)"  stroke="rgb(255,12,12)" stroke-width="1" font-size="16" >O</text>
<text x="240.105826" y="135.330994" fill="rgb(12,12,255)"  stroke="rgb(12,12,255)" stroke-width="1" font-size="16" >N</text>
<text x="302.556885" y="115.039415" fill="rgb(255,12,12)"  stroke="rgb(255,12,12)" stroke-width="1" font-size="16" >O</text>
<text x="288.904379" y="179.269408" fill="rgb(255,12,12)"  stroke="rgb(255,12,12)" stroke-width="1" font-size="16" >O</text>
<text x="327.987582" y="187.151686" fill="rgb(102,102,102)"  stroke="rgb(102,102,102)" stroke-width="1" font-size="16" >CH</text>
<text x="351.987582" y="190.831686" fill="rgb(102,102,102)"  stroke="rgb(102,102,102)" stroke-width="1" font-size="13" >3</text>
<text x="150.186469" y="48.000000" fill="rgb(255,12,12)"  stroke="rgb(255,12,12)" stroke-width="1" font-size="16" >O</text>
<text x="125.975460" y="111.071836" fill="rgb(12,12,255)"  stroke="rgb(12,12,255)" stroke-width="1" font-size="16" >N</text>
<text x="250.426296" y="168.615062" fill="rgb(255,12,12)"  stroke="rgb(255,12,12)" stroke-width="1" font-size="16" >O</text>
<text x="184.761367" y="168.615062" fill="rgb(255,12,12)"  stroke="rgb(255,12,12)" stroke-width="1" font-size="16" >O</text>
<text x="131.928902" y="187.570894" fill="rgb(102,102,102)"  stroke="rgb(102,102,102)" stroke-width="1" font-size="16" >H</text>
<text x="143.928902" y="191.250894" fill="rgb(102,102,102)"  stroke="rgb(102,102,102)" stroke-width="1" font-size="13" >3</text>
<text x="150.428902" y="187.570894" fill="rgb(102,102,102)"  stroke="rgb(102,102,102)" stroke-width="1" font-size="16" >C</text>
<text x="34.000000" y="126.153463" fill="rgb(12,12,255)"  stroke="rgb(12,12,255)" stroke-width="1" font-size="16" >N</text>
<text x="30.219403" y="235.004445" fill="rgb(30,239,30)"  stroke="rgb(30,239,30)" stroke-width="1" font-size="16" >Cl</text>
<text x="137.859754" y="213.172359" fill="rgb(178,178,0)"  stroke="rgb(178,178,0)" stroke-width="1" font-size="16" >S</text>
<text x="85.474887" y="301.612050" fill="rgb(178,178,0)"  stroke="rgb(178,178,0)" stroke-width="1" font-size="16" >S</text>
<text x="81.939118" y="369.078543" fill="rgb(191,191,191)"  stroke="rgb(191,191,191)" stroke-width="1" font-size="16" >H</text>
<text x="189.334642" y="388.630945" fill="rgb(12,12,255)"  stroke="rgb(12,12,255)" stroke-width="1" font-size="16" >N</text>
<text x="181.115239" y="279.779963" fill="rgb(30,239,30)"  stroke="rgb(30,239,30)" stroke-width="1" font-size="16" >Cl</text>
</svg>
</g>
<text font-size="18.000000" fill ="black" font-family="sans-serif"
x="10.000000" y="20.000000" ></text>
</svg>
