<?xml version="1.0"?>
<svg version="1.1" id="topsvg"
xmlns="http://www.w3.org/2000/svg" xmlns:xlink="http://www.w3.org/1999/xlink"
xmlns:cml="http://www.xml-cml.org/schema" x="0" y="0" width="200px" height="200px" viewBox="0 0 100 100">
<title> - Open Babel Depiction</title>
<rect x="0" y="0" width="100" height="100" fill="white"/>
<g transform="translate(0,0)">
<svg width="100" height="100" x="0" y="0" viewBox="0 0 366.175 519.837"
font-family="sans-serif" stroke="rgb(0,0,0)" stroke-width="2"  stroke-linecap="round">
<line x1="158.6" y1="211.5" x2="137.7" y2="247.7" stroke="rgb(0,0,0)"  stroke-width="2.0"/>
<line x1="96.0" y1="252.1" x2="68.0" y2="221.0" stroke="rgb(0,0,0)"  stroke-width="2.0"/>
<line x1="68.0" y1="221.0" x2="48.7" y2="199.5" stroke="rgb(0,0,0)"  stroke-width="2.0"/>
<line x1="64.9" y1="223.8" x2="45.6" y2="202.3" stroke="rgb(0,0,0)"  stroke-width="2.0"/>
<line x1="71.1" y1="218.2" x2="51.8" y2="196.7" stroke="rgb(0,0,0)"  stroke-width="2.0"/>
<line x1="87.3" y1="293.1" x2="61.0" y2="304.8" stroke="rgb(0,0,0)"  stroke-width="2.0"/>
<line x1="123.6" y1="314.0" x2="128.0" y2="355.7" stroke="rgb(0,0,0)"  stroke-width="2.0"/>
<line x1="113.9" y1="422.0" x2="99.5" y2="447.0" stroke="rgb(0,0,0)"  stroke-width="2.0"/>
<line x1="155.6" y1="417.6" x2="183.6" y2="448.7" stroke="rgb(0,0,0)"  stroke-width="2.0"/>
<line x1="183.6" y1="448.7" x2="202.9" y2="470.2" stroke="rgb(0,0,0)"  stroke-width="2.0"/>
<line x1="186.7" y1="445.9" x2="206.0" y2="467.4" stroke="rgb(0,0,0)"  stroke-width="2.0"/>
<line x1="180.5" y1="451.5" x2="199.8" y2="473.0" stroke="rgb(0,0,0)"  stroke-width="2.0"/>
<line x1="164.3" y1="376.6" x2="190.6" y2="364.9" stroke="rgb(0,0,0)"  stroke-width="2.0"/>
<line x1="265.9" y1="173.7" x2="280.4" y2="198.7" stroke="rgb(0,0,0)"  stroke-width="2.0"/>
<line x1="260.8" y1="176.7" x2="275.2" y2="201.7" stroke="rgb(0,0,0)"  stroke-width="2.0"/>
<line x1="297.3" y1="138.9" x2="313.2" y2="138.9" stroke="rgb(0,0,0)"  stroke-width="2.0"/>
<line x1="260.8" y1="101.2" x2="275.2" y2="76.1" stroke="rgb(0,0,0)"  stroke-width="2.0"/>
<line x1="265.9" y1="104.2" x2="280.4" y2="79.1" stroke="rgb(0,0,0)"  stroke-width="2.0"/>
<line x1="199.5" y1="79.0" x2="210.1" y2="52.1" stroke="rgb(0,0,0)"  stroke-width="2.0"/>
<line x1="116.2" y1="111.2" x2="102.3" y2="85.9" stroke="rgb(0,0,0)"  stroke-width="2.0"/>
<line x1="121.5" y1="108.3" x2="107.5" y2="83.0" stroke="rgb(0,0,0)"  stroke-width="2.0"/>
<line x1="88.5" y1="132.3" x2="72.9" y2="129.6" stroke="rgb(0,0,0)"  stroke-width="2.0"/>
<line x1="111.7" y1="165.8" x2="90.2" y2="185.1" stroke="rgb(0,0,0)"  stroke-width="2.0"/>
<line x1="107.7" y1="161.4" x2="86.2" y2="180.6" stroke="rgb(0,0,0)"  stroke-width="2.0"/>
<line x1="87.3" y1="293.1" x2="123.6" y2="314.0" stroke="rgb(0,0,0)"  stroke-width="2.0"/>
<line x1="96.1" y1="289.8" x2="122.0" y2="304.8" stroke="rgb(0,0,0)"  stroke-width="2.0"/>
<line x1="123.6" y1="314.0" x2="145.1" y2="294.7" stroke="rgb(0,0,0)"  stroke-width="2.0"/>
<line x1="149.5" y1="274.1" x2="137.7" y2="247.7" stroke="rgb(0,0,0)"  stroke-width="2.0"/>
<line x1="137.7" y1="247.7" x2="96.0" y2="252.1" stroke="rgb(0,0,0)"  stroke-width="2.0"/>
<line x1="132.5" y1="255.5" x2="102.8" y2="258.7" stroke="rgb(0,0,0)"  stroke-width="2.0"/>
<line x1="96.0" y1="252.1" x2="87.3" y2="293.1" stroke="rgb(0,0,0)"  stroke-width="2.0"/>
<line x1="113.9" y1="422.0" x2="155.6" y2="417.6" stroke="rgb(0,0,0)"  stroke-width="2.0"/>
<line x1="119.1" y1="414.2" x2="148.8" y2="411.1" stroke="rgb(0,0,0)"  stroke-width="2.0"/>
<line x1="155.6" y1="417.6" x2="164.3" y2="376.6" stroke="rgb(0,0,0)"  stroke-width="2.0"/>
<line x1="164.3" y1="376.6" x2="128.0" y2="355.7" stroke="rgb(0,0,0)"  stroke-width="2.0"/>
<line x1="155.5" y1="379.9" x2="129.6" y2="364.9" stroke="rgb(0,0,0)"  stroke-width="2.0"/>
<line x1="128.0" y1="355.7" x2="106.5" y2="375.0" stroke="rgb(0,0,0)"  stroke-width="2.0"/>
<line x1="102.2" y1="395.6" x2="113.9" y2="422.0" stroke="rgb(0,0,0)"  stroke-width="2.0"/>
<line x1="221.5" y1="175.2" x2="200.5" y2="138.9" stroke="rgb(0,0,0)"  stroke-width="2.0"/>
<line x1="212.2" y1="173.6" x2="197.3" y2="147.7" stroke="rgb(0,0,0)"  stroke-width="2.0"/>
<line x1="200.5" y1="138.9" x2="158.6" y2="138.9" stroke="rgb(0,0,0)"  stroke-width="2.0"/>
<line x1="158.6" y1="138.9" x2="137.7" y2="175.2" stroke="rgb(0,0,0)"  stroke-width="2.0"/>
<line x1="161.9" y1="147.7" x2="146.9" y2="173.6" stroke="rgb(0,0,0)"  stroke-width="2.0"/>
<line x1="137.7" y1="175.2" x2="158.6" y2="211.5" stroke="rgb(0,0,0)"  stroke-width="2.0"/>
<line x1="158.6" y1="211.5" x2="200.5" y2="211.5" stroke="rgb(0,0,0)"  stroke-width="2.0"/>
<line x1="164.6" y1="204.3" x2="194.5" y2="204.3" stroke="rgb(0,0,0)"  stroke-width="2.0"/>
<line x1="200.5" y1="211.5" x2="221.5" y2="175.2" stroke="rgb(0,0,0)"  stroke-width="2.0"/>
<line x1="263.4" y1="102.7" x2="221.5" y2="102.7" stroke="rgb(0,0,0)"  stroke-width="2.0"/>
<line x1="221.5" y1="102.7" x2="200.5" y2="138.9" stroke="rgb(0,0,0)"  stroke-width="2.0"/>
<line x1="221.5" y1="175.2" x2="263.4" y2="175.2" stroke="rgb(0,0,0)"  stroke-width="2.0"/>
<line x1="263.4" y1="175.2" x2="277.8" y2="150.2" stroke="rgb(0,0,0)"  stroke-width="2.0"/>
<line x1="277.8" y1="127.7" x2="263.4" y2="102.7" stroke="rgb(0,0,0)"  stroke-width="2.0"/>
<line x1="167.3" y1="81.4" x2="149.1" y2="108.1" stroke="rgb(0,0,0)"  stroke-width="2.0"/>
<line x1="169.9" y1="90.4" x2="158.5" y2="107.2" stroke="rgb(0,0,0)"  stroke-width="2.0"/>
<line x1="149.1" y1="108.1" x2="158.6" y2="138.9" stroke="rgb(0,0,0)"  stroke-width="2.0"/>
<line x1="221.5" y1="102.7" x2="199.5" y2="79.0" stroke="rgb(0,0,0)"  stroke-width="2.0"/>
<line x1="212.1" y1="103.2" x2="198.3" y2="88.3" stroke="rgb(0,0,0)"  stroke-width="2.0"/>
<line x1="199.5" y1="79.0" x2="167.3" y2="81.4" stroke="rgb(0,0,0)"  stroke-width="2.0"/>
<line x1="104.9" y1="147.0" x2="109.7" y2="163.6" stroke="rgb(0,0,0)"  stroke-width="2.0"/>
<line x1="109.7" y1="163.6" x2="137.7" y2="175.2" stroke="rgb(0,0,0)"  stroke-width="2.0"/>
<line x1="149.1" y1="108.1" x2="118.9" y2="109.8" stroke="rgb(0,0,0)"  stroke-width="2.0"/>
<line x1="118.9" y1="109.8" x2="108.9" y2="123.9" stroke="rgb(0,0,0)"  stroke-width="2.0"/>
<text x="278.291991" y="219.467779" fill="rgb(255,12,12)"  stroke="rgb(255,12,12)" stroke-width="1" font-size="16" >O</text>
<text x="278.291991" y="146.925027" fill="rgb(12,12,255)"  stroke="rgb(12,12,255)" stroke-width="1" font-size="16" >N</text>
<text x="320.174568" y="146.925027" fill="rgb(191,191,191)"  stroke="rgb(191,191,191)" stroke-width="1" font-size="16" >H</text>
<text x="278.291991" y="74.382274" fill="rgb(255,12,12)"  stroke="rgb(255,12,12)" stroke-width="1" font-size="16" >O</text>
<text x="208.810469" y="48.000000" fill="rgb(191,191,191)"  stroke="rgb(191,191,191)" stroke-width="1" font-size="16" >H</text>
<text x="92.625439" y="81.101959" fill="rgb(255,12,12)"  stroke="rgb(255,12,12)" stroke-width="1" font-size="16" >O</text>
<text x="95.331665" y="142.472187" fill="rgb(12,12,255)"  stroke="rgb(12,12,255)" stroke-width="1" font-size="16" >N</text>
<text x="54.042963" y="135.444144" fill="rgb(191,191,191)"  stroke="rgb(191,191,191)" stroke-width="1" font-size="16" >H</text>
<text x="72.473613" y="199.490938" fill="rgb(255,12,12)"  stroke="rgb(255,12,12)" stroke-width="1" font-size="16" >O</text>
<text x="90.866428" y="391.703763" fill="rgb(178,178,0)"  stroke="rgb(178,178,0)" stroke-width="1" font-size="16" >S</text>
<text x="34.000000" y="197.867435" fill="rgb(12,12,255)"  stroke="rgb(12,12,255)" stroke-width="1" font-size="16" >N</text>
<text x="31.080313" y="318.119598" fill="rgb(255,12,12)"  stroke="rgb(255,12,12)" stroke-width="1" font-size="16" >HO</text>
<text x="148.738148" y="294.000793" fill="rgb(178,178,0)"  stroke="rgb(178,178,0)" stroke-width="1" font-size="16" >S</text>
<text x="86.960318" y="466.236777" fill="rgb(191,191,191)"  stroke="rgb(191,191,191)" stroke-width="1" font-size="16" >H</text>
<text x="205.604577" y="487.837121" fill="rgb(12,12,255)"  stroke="rgb(12,12,255)" stroke-width="1" font-size="16" >N</text>
<text x="196.524264" y="367.584958" fill="rgb(255,12,12)"  stroke="rgb(255,12,12)" stroke-width="1" font-size="16" >OH</text>
</svg>
</g>
<text font-size="18.000000" fill ="black" font-family="sans-serif"
x="10.000000" y="20.000000" ></text>
</svg>
