<?xml version="1.0"?>
<svg version="1.1" id="topsvg"
xmlns="http://www.w3.org/2000/svg" xmlns:xlink="http://www.w3.org/1999/xlink"
xmlns:cml="http://www.xml-cml.org/schema" x="0" y="0" width="200px" height="200px" viewBox="0 0 100 100">
<title> - Open Babel Depiction</title>
<rect x="0" y="0" width="100" height="100" fill="white"/>
<g transform="translate(0,0)">
<svg width="100" height="100" x="0" y="0" viewBox="0 0 652.282 278.691"
font-family="sans-serif" stroke="rgb(0,0,0)" stroke-width="2"  stroke-linecap="round">
<line x1="338.8" y1="159.9" x2="372.9" y2="179.6" stroke="rgb(0,0,0)"  stroke-width="2.0"/>
<line x1="475.3" y1="146.9" x2="475.2" y2="120.5" stroke="rgb(0,0,0)"  stroke-width="2.0"/>
<line x1="475.2" y1="117.5" x2="501.6" y2="117.5" stroke="rgb(0,0,0)"  stroke-width="2.0"/>
<line x1="475.2" y1="123.5" x2="501.6" y2="123.5" stroke="rgb(0,0,0)"  stroke-width="2.0"/>
<line x1="475.2" y1="120.5" x2="462.0" y2="97.6" stroke="rgb(0,0,0)"  stroke-width="2.0"/>
<line x1="442.5" y1="86.4" x2="429.1" y2="86.4" stroke="rgb(0,0,0)"  stroke-width="2.0"/>
<line x1="577.6" y1="179.6" x2="601.0" y2="166.1" stroke="rgb(0,0,0)"  stroke-width="2.0"/>
<line x1="227.8" y1="90.5" x2="208.2" y2="72.9" stroke="rgb(0,0,0)"  stroke-width="2.0"/>
<line x1="231.8" y1="86.1" x2="212.2" y2="68.4" stroke="rgb(0,0,0)"  stroke-width="2.0"/>
<line x1="273.6" y1="68.2" x2="279.1" y2="56.0" stroke="rgb(0,0,0)"  stroke-width="2.0"/>
<line x1="297.3" y1="42.8" x2="310.6" y2="41.4" stroke="rgb(0,0,0)"  stroke-width="2.0"/>
<line x1="227.2" y1="130.1" x2="193.1" y2="149.8" stroke="rgb(0,0,0)"  stroke-width="2.0"/>
<line x1="224.2" y1="124.9" x2="190.1" y2="144.6" stroke="rgb(0,0,0)"  stroke-width="2.0"/>
<line x1="189.5" y1="184.1" x2="209.1" y2="201.8" stroke="rgb(0,0,0)"  stroke-width="2.0"/>
<line x1="185.5" y1="188.6" x2="205.1" y2="206.3" stroke="rgb(0,0,0)"  stroke-width="2.0"/>
<line x1="143.7" y1="206.4" x2="138.2" y2="218.7" stroke="rgb(0,0,0)"  stroke-width="2.0"/>
<line x1="120.0" y1="231.9" x2="106.7" y2="233.3" stroke="rgb(0,0,0)"  stroke-width="2.0"/>
<line x1="78.5" y1="114.8" x2="52.7" y2="109.3" stroke="rgb(0,0,0)"  stroke-width="2.0"/>
<line x1="509.4" y1="179.6" x2="509.4" y2="219.0" stroke="rgb(0,0,0)"  stroke-width="2.0"/>
<line x1="509.4" y1="219.0" x2="441.1" y2="219.0" stroke="rgb(0,0,0)"  stroke-width="2.0"/>
<line x1="441.1" y1="219.0" x2="441.1" y2="179.6" stroke="rgb(0,0,0)"  stroke-width="2.0"/>
<line x1="448.3" y1="213.0" x2="448.3" y2="185.6" stroke="rgb(0,0,0)"  stroke-width="2.0"/>
<line x1="441.1" y1="179.6" x2="464.0" y2="166.4" stroke="rgb(0,0,0)"  stroke-width="2.0"/>
<line x1="486.5" y1="166.4" x2="509.4" y2="179.6" stroke="rgb(0,0,0)"  stroke-width="2.0"/>
<line x1="441.1" y1="219.0" x2="407.0" y2="238.7" stroke="rgb(0,0,0)"  stroke-width="2.0"/>
<line x1="407.0" y1="238.7" x2="372.9" y2="219.0" stroke="rgb(0,0,0)"  stroke-width="2.0"/>
<line x1="405.4" y1="229.5" x2="381.7" y2="215.8" stroke="rgb(0,0,0)"  stroke-width="2.0"/>
<line x1="372.9" y1="219.0" x2="372.9" y2="179.6" stroke="rgb(0,0,0)"  stroke-width="2.0"/>
<line x1="372.9" y1="179.6" x2="407.0" y2="159.9" stroke="rgb(0,0,0)"  stroke-width="2.0"/>
<line x1="381.7" y1="182.8" x2="405.4" y2="169.1" stroke="rgb(0,0,0)"  stroke-width="2.0"/>
<line x1="407.0" y1="159.9" x2="441.1" y2="179.6" stroke="rgb(0,0,0)"  stroke-width="2.0"/>
<line x1="543.5" y1="159.9" x2="509.4" y2="179.6" stroke="rgb(0,0,0)"  stroke-width="2.0"/>
<line x1="541.9" y1="169.1" x2="518.2" y2="182.8" stroke="rgb(0,0,0)"  stroke-width="2.0"/>
<line x1="509.4" y1="219.0" x2="543.5" y2="238.7" stroke="rgb(0,0,0)"  stroke-width="2.0"/>
<line x1="518.2" y1="215.7" x2="541.9" y2="229.4" stroke="rgb(0,0,0)"  stroke-width="2.0"/>
<line x1="543.5" y1="238.7" x2="577.6" y2="219.0" stroke="rgb(0,0,0)"  stroke-width="2.0"/>
<line x1="577.6" y1="219.0" x2="577.6" y2="179.6" stroke="rgb(0,0,0)"  stroke-width="2.0"/>
<line x1="570.4" y1="213.0" x2="570.4" y2="185.6" stroke="rgb(0,0,0)"  stroke-width="2.0"/>
<line x1="577.6" y1="179.6" x2="543.5" y2="159.9" stroke="rgb(0,0,0)"  stroke-width="2.0"/>
<line x1="273.9" y1="181.0" x2="261.7" y2="143.5" stroke="rgb(0,0,0)"  stroke-width="2.0"/>
<line x1="278.9" y1="173.0" x2="270.4" y2="147.0" stroke="rgb(0,0,0)"  stroke-width="2.0"/>
<line x1="261.7" y1="143.5" x2="288.1" y2="114.2" stroke="rgb(0,0,0)"  stroke-width="2.0"/>
<line x1="288.1" y1="114.2" x2="326.6" y2="122.4" stroke="rgb(0,0,0)"  stroke-width="2.0"/>
<line x1="292.4" y1="122.5" x2="319.2" y2="128.2" stroke="rgb(0,0,0)"  stroke-width="2.0"/>
<line x1="326.6" y1="122.4" x2="338.8" y2="159.9" stroke="rgb(0,0,0)"  stroke-width="2.0"/>
<line x1="338.8" y1="159.9" x2="312.4" y2="189.2" stroke="rgb(0,0,0)"  stroke-width="2.0"/>
<line x1="329.4" y1="159.5" x2="311.1" y2="179.9" stroke="rgb(0,0,0)"  stroke-width="2.0"/>
<line x1="312.4" y1="189.2" x2="273.9" y2="181.0" stroke="rgb(0,0,0)"  stroke-width="2.0"/>
<line x1="104.9" y1="85.5" x2="143.4" y2="93.7" stroke="rgb(0,0,0)"  stroke-width="2.0"/>
<line x1="143.4" y1="93.7" x2="155.6" y2="131.2" stroke="rgb(0,0,0)"  stroke-width="2.0"/>
<line x1="138.4" y1="101.6" x2="146.9" y2="127.7" stroke="rgb(0,0,0)"  stroke-width="2.0"/>
<line x1="155.6" y1="131.2" x2="129.2" y2="160.4" stroke="rgb(0,0,0)"  stroke-width="2.0"/>
<line x1="129.2" y1="160.4" x2="90.7" y2="152.3" stroke="rgb(0,0,0)"  stroke-width="2.0"/>
<line x1="124.9" y1="152.2" x2="98.1" y2="146.5" stroke="rgb(0,0,0)"  stroke-width="2.0"/>
<line x1="90.7" y1="152.3" x2="78.5" y2="114.8" stroke="rgb(0,0,0)"  stroke-width="2.0"/>
<line x1="78.5" y1="114.8" x2="104.9" y2="85.5" stroke="rgb(0,0,0)"  stroke-width="2.0"/>
<line x1="87.9" y1="115.1" x2="106.2" y2="94.8" stroke="rgb(0,0,0)"  stroke-width="2.0"/>
<line x1="229.8" y1="88.3" x2="255.6" y2="82.8" stroke="rgb(0,0,0)"  stroke-width="2.0"/>
<line x1="274.9" y1="91.4" x2="288.1" y2="114.2" stroke="rgb(0,0,0)"  stroke-width="2.0"/>
<line x1="261.7" y1="143.5" x2="225.7" y2="127.5" stroke="rgb(0,0,0)"  stroke-width="2.0"/>
<line x1="225.7" y1="127.5" x2="229.8" y2="88.3" stroke="rgb(0,0,0)"  stroke-width="2.0"/>
<line x1="142.4" y1="183.3" x2="129.2" y2="160.4" stroke="rgb(0,0,0)"  stroke-width="2.0"/>
<line x1="155.6" y1="131.2" x2="191.6" y2="147.2" stroke="rgb(0,0,0)"  stroke-width="2.0"/>
<line x1="191.6" y1="147.2" x2="187.5" y2="186.4" stroke="rgb(0,0,0)"  stroke-width="2.0"/>
<line x1="187.5" y1="186.4" x2="161.7" y2="191.9" stroke="rgb(0,0,0)"  stroke-width="2.0"/>
<text x="210.759025" y="220.723290" fill="rgb(255,12,12)"  stroke="rgb(255,12,12)" stroke-width="1" font-size="16" >O</text>
<text x="194.545860" y="69.948421" fill="rgb(255,12,12)"  stroke="rgb(255,12,12)" stroke-width="1" font-size="16" >O</text>
<text x="262.357671" y="88.111943" fill="rgb(12,12,255)"  stroke="rgb(12,12,255)" stroke-width="1" font-size="16" >N</text>
<text x="278.377758" y="52.121446" fill="rgb(255,12,12)"  stroke="rgb(255,12,12)" stroke-width="1" font-size="16" >O</text>
<text x="319.556485" y="48.000000" fill="rgb(102,102,102)"  stroke="rgb(102,102,102)" stroke-width="1" font-size="16" >CH</text>
<text x="343.556485" y="51.680000" fill="rgb(102,102,102)"  stroke="rgb(102,102,102)" stroke-width="1" font-size="13" >3</text>
<text x="142.947213" y="202.559768" fill="rgb(12,12,255)"  stroke="rgb(12,12,255)" stroke-width="1" font-size="16" >N</text>
<text x="126.927127" y="238.550265" fill="rgb(255,12,12)"  stroke="rgb(255,12,12)" stroke-width="1" font-size="16" >O</text>
<text x="67.748400" y="242.671711" fill="rgb(102,102,102)"  stroke="rgb(102,102,102)" stroke-width="1" font-size="16" >H</text>
<text x="79.748400" y="246.351711" fill="rgb(102,102,102)"  stroke="rgb(102,102,102)" stroke-width="1" font-size="13" >3</text>
<text x="86.248400" y="242.671711" fill="rgb(102,102,102)"  stroke="rgb(102,102,102)" stroke-width="1" font-size="16" >C</text>
<text x="34.000000" y="114.604553" fill="rgb(191,191,191)"  stroke="rgb(191,191,191)" stroke-width="1" font-size="16" >H</text>
<text x="469.255575" y="167.868636" fill="rgb(12,12,255)"  stroke="rgb(12,12,255)" stroke-width="1" font-size="16" >N</text>
<text x="508.642983" y="128.466223" fill="rgb(255,12,12)"  stroke="rgb(255,12,12)" stroke-width="1" font-size="16" >O</text>
<text x="449.544121" y="94.360483" fill="rgb(255,12,12)"  stroke="rgb(255,12,12)" stroke-width="1" font-size="16" >O</text>
<text x="390.149211" y="94.367985" fill="rgb(102,102,102)"  stroke="rgb(102,102,102)" stroke-width="1" font-size="16" >H</text>
<text x="402.149211" y="98.047985" fill="rgb(102,102,102)"  stroke="rgb(102,102,102)" stroke-width="1" font-size="13" >3</text>
<text x="408.649211" y="94.367985" fill="rgb(102,102,102)"  stroke="rgb(102,102,102)" stroke-width="1" font-size="16" >C</text>
<text x="606.282334" y="167.555362" fill="rgb(191,191,191)"  stroke="rgb(191,191,191)" stroke-width="1" font-size="16" >H</text>
</svg>
</g>
<text font-size="18.000000" fill ="black" font-family="sans-serif"
x="10.000000" y="20.000000" ></text>
</svg>
