<?xml version="1.0"?>
<svg version="1.1" id="topsvg"
xmlns="http://www.w3.org/2000/svg" xmlns:xlink="http://www.w3.org/1999/xlink"
xmlns:cml="http://www.xml-cml.org/schema" x="0" y="0" width="200px" height="200px" viewBox="0 0 100 100">
<title> - Open Babel Depiction</title>
<rect x="0" y="0" width="100" height="100" fill="white"/>
<g transform="translate(0,0)">
<svg width="100" height="100" x="0" y="0" viewBox="0 0 597.957 386.478"
font-family="sans-serif" stroke="rgb(0,0,0)" stroke-width="2"  stroke-linecap="round">
<line x1="301.7" y1="153.3" x2="336.3" y2="133.3" stroke="rgb(0,0,0)"  stroke-width="2.0"/>
<line x1="340.5" y1="93.5" x2="310.7" y2="66.8" stroke="rgb(0,0,0)"  stroke-width="2.0"/>
<line x1="310.7" y1="66.8" x2="290.7" y2="48.7" stroke="rgb(0,0,0)"  stroke-width="2.0"/>
<line x1="307.9" y1="69.9" x2="287.9" y2="51.8" stroke="rgb(0,0,0)"  stroke-width="2.0"/>
<line x1="313.6" y1="63.6" x2="293.5" y2="45.6" stroke="rgb(0,0,0)"  stroke-width="2.0"/>
<line x1="379.6" y1="85.2" x2="390.6" y2="60.5" stroke="rgb(0,0,0)"  stroke-width="2.0"/>
<line x1="399.6" y1="119.9" x2="439.4" y2="124.0" stroke="rgb(0,0,0)"  stroke-width="2.0"/>
<line x1="502.7" y1="110.6" x2="526.1" y2="97.1" stroke="rgb(0,0,0)"  stroke-width="2.0"/>
<line x1="498.5" y1="150.4" x2="528.2" y2="177.1" stroke="rgb(0,0,0)"  stroke-width="2.0"/>
<line x1="528.2" y1="177.1" x2="548.3" y2="195.2" stroke="rgb(0,0,0)"  stroke-width="2.0"/>
<line x1="531.0" y1="174.0" x2="551.1" y2="192.1" stroke="rgb(0,0,0)"  stroke-width="2.0"/>
<line x1="525.4" y1="180.2" x2="545.5" y2="198.3" stroke="rgb(0,0,0)"  stroke-width="2.0"/>
<line x1="459.4" y1="158.7" x2="448.4" y2="183.3" stroke="rgb(0,0,0)"  stroke-width="2.0"/>
<line x1="170.8" y1="176.3" x2="143.8" y2="176.3" stroke="rgb(0,0,0)"  stroke-width="2.0"/>
<line x1="170.8" y1="170.3" x2="143.8" y2="170.3" stroke="rgb(0,0,0)"  stroke-width="2.0"/>
<line x1="190.3" y1="128.6" x2="186.0" y2="115.3" stroke="rgb(0,0,0)"  stroke-width="2.0"/>
<line x1="197.2" y1="206.6" x2="184.8" y2="244.6" stroke="rgb(0,0,0)"  stroke-width="2.0"/>
<line x1="191.5" y1="204.7" x2="179.1" y2="242.8" stroke="rgb(0,0,0)"  stroke-width="2.0"/>
<line x1="205.5" y1="273.1" x2="232.5" y2="273.1" stroke="rgb(0,0,0)"  stroke-width="2.0"/>
<line x1="205.5" y1="279.1" x2="232.5" y2="279.1" stroke="rgb(0,0,0)"  stroke-width="2.0"/>
<line x1="186.0" y1="320.8" x2="190.3" y2="334.1" stroke="rgb(0,0,0)"  stroke-width="2.0"/>
<line x1="74.6" y1="296.1" x2="51.3" y2="309.6" stroke="rgb(0,0,0)"  stroke-width="2.0"/>
<line x1="379.6" y1="85.2" x2="399.6" y2="119.9" stroke="rgb(0,0,0)"  stroke-width="2.0"/>
<line x1="376.4" y1="94.0" x2="390.4" y2="118.3" stroke="rgb(0,0,0)"  stroke-width="2.0"/>
<line x1="399.6" y1="119.9" x2="381.5" y2="139.9" stroke="rgb(0,0,0)"  stroke-width="2.0"/>
<line x1="361.0" y1="144.3" x2="336.3" y2="133.3" stroke="rgb(0,0,0)"  stroke-width="2.0"/>
<line x1="336.3" y1="133.3" x2="340.5" y2="93.5" stroke="rgb(0,0,0)"  stroke-width="2.0"/>
<line x1="344.1" y1="128.1" x2="347.0" y2="100.3" stroke="rgb(0,0,0)"  stroke-width="2.0"/>
<line x1="340.5" y1="93.5" x2="379.6" y2="85.2" stroke="rgb(0,0,0)"  stroke-width="2.0"/>
<line x1="502.7" y1="110.6" x2="498.5" y2="150.4" stroke="rgb(0,0,0)"  stroke-width="2.0"/>
<line x1="494.9" y1="115.8" x2="492.0" y2="143.6" stroke="rgb(0,0,0)"  stroke-width="2.0"/>
<line x1="498.5" y1="150.4" x2="459.4" y2="158.7" stroke="rgb(0,0,0)"  stroke-width="2.0"/>
<line x1="459.4" y1="158.7" x2="439.4" y2="124.0" stroke="rgb(0,0,0)"  stroke-width="2.0"/>
<line x1="462.6" y1="149.9" x2="448.6" y2="125.6" stroke="rgb(0,0,0)"  stroke-width="2.0"/>
<line x1="439.4" y1="124.0" x2="457.4" y2="104.0" stroke="rgb(0,0,0)"  stroke-width="2.0"/>
<line x1="478.0" y1="99.6" x2="502.7" y2="110.6" stroke="rgb(0,0,0)"  stroke-width="2.0"/>
<line x1="267.0" y1="213.3" x2="232.4" y2="193.3" stroke="rgb(0,0,0)"  stroke-width="2.0"/>
<line x1="265.4" y1="204.1" x2="241.2" y2="190.1" stroke="rgb(0,0,0)"  stroke-width="2.0"/>
<line x1="232.4" y1="193.3" x2="232.4" y2="153.3" stroke="rgb(0,0,0)"  stroke-width="2.0"/>
<line x1="232.4" y1="153.3" x2="267.0" y2="133.3" stroke="rgb(0,0,0)"  stroke-width="2.0"/>
<line x1="241.2" y1="156.5" x2="265.4" y2="142.5" stroke="rgb(0,0,0)"  stroke-width="2.0"/>
<line x1="267.0" y1="133.3" x2="301.7" y2="153.3" stroke="rgb(0,0,0)"  stroke-width="2.0"/>
<line x1="301.7" y1="153.3" x2="301.7" y2="193.3" stroke="rgb(0,0,0)"  stroke-width="2.0"/>
<line x1="294.5" y1="159.3" x2="294.5" y2="187.3" stroke="rgb(0,0,0)"  stroke-width="2.0"/>
<line x1="301.7" y1="193.3" x2="267.0" y2="213.3" stroke="rgb(0,0,0)"  stroke-width="2.0"/>
<line x1="74.6" y1="256.1" x2="109.3" y2="236.1" stroke="rgb(0,0,0)"  stroke-width="2.0"/>
<line x1="109.3" y1="236.1" x2="143.9" y2="256.1" stroke="rgb(0,0,0)"  stroke-width="2.0"/>
<line x1="110.9" y1="245.3" x2="135.1" y2="259.3" stroke="rgb(0,0,0)"  stroke-width="2.0"/>
<line x1="143.9" y1="256.1" x2="143.9" y2="296.1" stroke="rgb(0,0,0)"  stroke-width="2.0"/>
<line x1="143.9" y1="296.1" x2="109.3" y2="316.1" stroke="rgb(0,0,0)"  stroke-width="2.0"/>
<line x1="135.1" y1="292.8" x2="110.9" y2="306.8" stroke="rgb(0,0,0)"  stroke-width="2.0"/>
<line x1="109.3" y1="316.1" x2="74.6" y2="296.1" stroke="rgb(0,0,0)"  stroke-width="2.0"/>
<line x1="74.6" y1="296.1" x2="74.6" y2="256.1" stroke="rgb(0,0,0)"  stroke-width="2.0"/>
<line x1="81.8" y1="290.1" x2="81.8" y2="262.1" stroke="rgb(0,0,0)"  stroke-width="2.0"/>
<line x1="170.8" y1="173.3" x2="186.7" y2="151.5" stroke="rgb(0,0,0)"  stroke-width="2.0"/>
<line x1="206.7" y1="145.0" x2="232.4" y2="153.3" stroke="rgb(0,0,0)"  stroke-width="2.0"/>
<line x1="232.4" y1="193.3" x2="194.3" y2="205.7" stroke="rgb(0,0,0)"  stroke-width="2.0"/>
<line x1="194.3" y1="205.7" x2="170.8" y2="173.3" stroke="rgb(0,0,0)"  stroke-width="2.0"/>
<line x1="169.6" y1="304.4" x2="143.9" y2="296.1" stroke="rgb(0,0,0)"  stroke-width="2.0"/>
<line x1="143.9" y1="256.1" x2="182.0" y2="243.7" stroke="rgb(0,0,0)"  stroke-width="2.0"/>
<line x1="182.0" y1="243.7" x2="205.5" y2="276.1" stroke="rgb(0,0,0)"  stroke-width="2.0"/>
<line x1="205.5" y1="276.1" x2="189.6" y2="297.9" stroke="rgb(0,0,0)"  stroke-width="2.0"/>
<text x="239.476719" y="284.074945" fill="rgb(255,12,12)"  stroke="rgb(255,12,12)" stroke-width="1" font-size="16" >O</text>
<text x="124.814579" y="181.311324" fill="rgb(255,12,12)"  stroke="rgb(255,12,12)" stroke-width="1" font-size="16" >O</text>
<text x="188.325989" y="148.950645" fill="rgb(12,12,255)"  stroke="rgb(12,12,255)" stroke-width="1" font-size="16" >N</text>
<text x="155.965309" y="110.908384" fill="rgb(102,102,102)"  stroke="rgb(102,102,102)" stroke-width="1" font-size="16" >H</text>
<text x="167.965309" y="114.588384" fill="rgb(102,102,102)"  stroke="rgb(102,102,102)" stroke-width="1" font-size="13" >3</text>
<text x="174.465309" y="110.908384" fill="rgb(102,102,102)"  stroke="rgb(102,102,102)" stroke-width="1" font-size="16" >C</text>
<text x="175.965309" y="316.435624" fill="rgb(12,12,255)"  stroke="rgb(12,12,255)" stroke-width="1" font-size="16" >N</text>
<text x="190.325989" y="354.477885" fill="rgb(102,102,102)"  stroke="rgb(102,102,102)" stroke-width="1" font-size="16" >CH</text>
<text x="214.325989" y="358.157885" fill="rgb(102,102,102)"  stroke="rgb(102,102,102)" stroke-width="1" font-size="13" >3</text>
<text x="34.000000" y="324.074945" fill="rgb(191,191,191)"  stroke="rgb(191,191,191)" stroke-width="1" font-size="16" >H</text>
<text x="460.144441" y="102.310343" fill="rgb(178,178,0)"  stroke="rgb(178,178,0)" stroke-width="1" font-size="16" >S</text>
<text x="275.020850" y="48.000000" fill="rgb(12,12,255)"  stroke="rgb(12,12,255)" stroke-width="1" font-size="16" >N</text>
<text x="389.867806" y="56.672163" fill="rgb(30,239,30)"  stroke="rgb(30,239,30)" stroke-width="1" font-size="16" >Cl</text>
<text x="366.833116" y="157.580790" fill="rgb(178,178,0)"  stroke="rgb(178,178,0)" stroke-width="1" font-size="16" >S</text>
<text x="531.327275" y="98.579808" fill="rgb(191,191,191)"  stroke="rgb(191,191,191)" stroke-width="1" font-size="16" >H</text>
<text x="551.956706" y="211.891133" fill="rgb(12,12,255)"  stroke="rgb(12,12,255)" stroke-width="1" font-size="16" >N</text>
<text x="425.109751" y="203.218970" fill="rgb(30,239,30)"  stroke="rgb(30,239,30)" stroke-width="1" font-size="16" >Cl</text>
</svg>
</g>
<text font-size="18.000000" fill ="black" font-family="sans-serif"
x="10.000000" y="20.000000" ></text>
</svg>
