<?xml version="1.0"?>
<svg version="1.1" id="topsvg"
xmlns="http://www.w3.org/2000/svg" xmlns:xlink="http://www.w3.org/1999/xlink"
xmlns:cml="http://www.xml-cml.org/schema" x="0" y="0" width="200px" height="200px" viewBox="0 0 100 100">
<title> - Open Babel Depiction</title>
<rect x="0" y="0" width="100" height="100" fill="white"/>
<g transform="translate(0,0)">
<svg width="100" height="100" x="0" y="0" viewBox="0 0 281.554 359.819"
font-family="sans-serif" stroke="rgb(0,0,0)" stroke-width="2"  stroke-linecap="round">
<line x1="141.6" y1="143.9" x2="121.6" y2="178.6" stroke="rgb(0,0,0)"  stroke-width="2.0"/>
<line x1="81.8" y1="182.7" x2="63.7" y2="162.7" stroke="rgb(0,0,0)"  stroke-width="2.0"/>
<line x1="60.0" y1="285.2" x2="46.5" y2="308.6" stroke="rgb(0,0,0)"  stroke-width="2.0"/>
<line x1="99.8" y1="281.0" x2="117.8" y2="301.1" stroke="rgb(0,0,0)"  stroke-width="2.0"/>
<line x1="181.6" y1="143.9" x2="195.1" y2="167.3" stroke="rgb(0,0,0)"  stroke-width="2.0"/>
<line x1="201.6" y1="109.3" x2="228.6" y2="109.3" stroke="rgb(0,0,0)"  stroke-width="2.0"/>
<line x1="181.6" y1="74.6" x2="195.1" y2="51.3" stroke="rgb(0,0,0)"  stroke-width="2.0"/>
<line x1="141.6" y1="74.6" x2="128.1" y2="51.3" stroke="rgb(0,0,0)"  stroke-width="2.0"/>
<line x1="121.6" y1="109.3" x2="94.6" y2="109.3" stroke="rgb(0,0,0)"  stroke-width="2.0"/>
<line x1="73.5" y1="221.9" x2="108.1" y2="241.9" stroke="rgb(0,0,0)"  stroke-width="2.0"/>
<line x1="82.3" y1="218.6" x2="106.5" y2="232.6" stroke="rgb(0,0,0)"  stroke-width="2.0"/>
<line x1="108.1" y1="241.9" x2="128.2" y2="223.8" stroke="rgb(0,0,0)"  stroke-width="2.0"/>
<line x1="132.5" y1="203.2" x2="121.6" y2="178.6" stroke="rgb(0,0,0)"  stroke-width="2.0"/>
<line x1="121.6" y1="178.6" x2="81.8" y2="182.7" stroke="rgb(0,0,0)"  stroke-width="2.0"/>
<line x1="116.3" y1="186.4" x2="88.5" y2="189.3" stroke="rgb(0,0,0)"  stroke-width="2.0"/>
<line x1="81.8" y1="182.7" x2="73.5" y2="221.9" stroke="rgb(0,0,0)"  stroke-width="2.0"/>
<line x1="60.0" y1="285.2" x2="99.8" y2="281.0" stroke="rgb(0,0,0)"  stroke-width="2.0"/>
<line x1="65.2" y1="277.4" x2="93.1" y2="274.5" stroke="rgb(0,0,0)"  stroke-width="2.0"/>
<line x1="99.8" y1="281.0" x2="108.1" y2="241.9" stroke="rgb(0,0,0)"  stroke-width="2.0"/>
<line x1="73.5" y1="221.9" x2="53.4" y2="239.9" stroke="rgb(0,0,0)"  stroke-width="2.0"/>
<line x1="49.0" y1="260.5" x2="60.0" y2="285.2" stroke="rgb(0,0,0)"  stroke-width="2.0"/>
<line x1="201.6" y1="109.3" x2="181.6" y2="74.6" stroke="rgb(0,0,0)"  stroke-width="2.0"/>
<line x1="192.3" y1="107.7" x2="178.3" y2="83.4" stroke="rgb(0,0,0)"  stroke-width="2.0"/>
<line x1="181.6" y1="74.6" x2="141.6" y2="74.6" stroke="rgb(0,0,0)"  stroke-width="2.0"/>
<line x1="141.6" y1="74.6" x2="121.6" y2="109.3" stroke="rgb(0,0,0)"  stroke-width="2.0"/>
<line x1="144.8" y1="83.4" x2="130.8" y2="107.7" stroke="rgb(0,0,0)"  stroke-width="2.0"/>
<line x1="121.6" y1="109.3" x2="141.6" y2="143.9" stroke="rgb(0,0,0)"  stroke-width="2.0"/>
<line x1="141.6" y1="143.9" x2="181.6" y2="143.9" stroke="rgb(0,0,0)"  stroke-width="2.0"/>
<line x1="147.6" y1="136.7" x2="175.6" y2="136.7" stroke="rgb(0,0,0)"  stroke-width="2.0"/>
<line x1="181.6" y1="143.9" x2="201.6" y2="109.3" stroke="rgb(0,0,0)"  stroke-width="2.0"/>
<text x="131.823136" y="223.105883" fill="rgb(178,178,0)"  stroke="rgb(178,178,0)" stroke-width="1" font-size="16" >S</text>
<text x="75.553671" y="117.282032" fill="rgb(127,178,255)"  stroke="rgb(127,178,255)" stroke-width="1" font-size="16" >F</text>
<text x="115.553671" y="48.000000" fill="rgb(127,178,255)"  stroke="rgb(127,178,255)" stroke-width="1" font-size="16" >F</text>
<text x="195.553671" y="48.000000" fill="rgb(191,191,191)"  stroke="rgb(191,191,191)" stroke-width="1" font-size="16" >H</text>
<text x="235.553671" y="117.282032" fill="rgb(127,178,255)"  stroke="rgb(127,178,255)" stroke-width="1" font-size="16" >F</text>
<text x="195.553671" y="186.564065" fill="rgb(127,178,255)"  stroke="rgb(127,178,255)" stroke-width="1" font-size="16" >F</text>
<text x="120.546100" y="318.722804" fill="rgb(127,178,255)"  stroke="rgb(127,178,255)" stroke-width="1" font-size="16" >F</text>
<text x="34.000000" y="327.819166" fill="rgb(191,191,191)"  stroke="rgb(191,191,191)" stroke-width="1" font-size="16" >H</text>
<text x="37.730534" y="256.636331" fill="rgb(178,178,0)"  stroke="rgb(178,178,0)" stroke-width="1" font-size="16" >S</text>
<text x="49.007571" y="161.019410" fill="rgb(127,178,255)"  stroke="rgb(127,178,255)" stroke-width="1" font-size="16" >F</text>
</svg>
</g>
<text font-size="18.000000" fill ="black" font-family="sans-serif"
x="10.000000" y="20.000000" ></text>
</svg>
