<?xml version="1.0"?>
<svg version="1.1" id="topsvg"
xmlns="http://www.w3.org/2000/svg" xmlns:xlink="http://www.w3.org/1999/xlink"
xmlns:cml="http://www.xml-cml.org/schema" x="0" y="0" width="200px" height="200px" viewBox="0 0 100 100">
<title> - Open Babel Depiction</title>
<rect x="0" y="0" width="100" height="100" fill="white"/>
<g transform="translate(0,0)">
<svg width="100" height="100" x="0" y="0" viewBox="0 0 417.732 541.699"
font-family="sans-serif" stroke="rgb(0,0,0)" stroke-width="2"  stroke-linecap="round">
<line x1="172.7" y1="280.7" x2="154.3" y2="312.6" stroke="rgb(0,0,0)"  stroke-width="2.0"/>
<line x1="82.7" y1="377.1" x2="60.0" y2="384.4" stroke="rgb(0,0,0)"  stroke-width="2.0"/>
<line x1="44.9" y1="401.2" x2="42.7" y2="411.7" stroke="rgb(0,0,0)"  stroke-width="2.0"/>
<line x1="82.7" y1="377.1" x2="215.2" y2="264.2" stroke="rgb(0,0,0)"  stroke-width="2.0"/>
<line x1="212.1" y1="255.8" x2="201.3" y2="255.8" stroke="rgb(0,0,0)"  stroke-width="2.0"/>
<line x1="121.8" y1="465.1" x2="124.3" y2="488.8" stroke="rgb(0,0,0)"  stroke-width="2.0"/>
<line x1="188.1" y1="160.4" x2="188.1" y2="136.6" stroke="rgb(0,0,0)"  stroke-width="2.0"/>
<line x1="194.1" y1="160.4" x2="194.1" y2="136.6" stroke="rgb(0,0,0)"  stroke-width="2.0"/>
<line x1="148.9" y1="178.0" x2="138.6" y2="174.6" stroke="rgb(0,0,0)"  stroke-width="2.0"/>
<line x1="123.6" y1="157.9" x2="121.3" y2="147.3" stroke="rgb(0,0,0)"  stroke-width="2.0"/>
<line x1="219.9" y1="179.1" x2="254.9" y2="167.8" stroke="rgb(0,0,0)"  stroke-width="2.0"/>
<line x1="221.8" y1="184.8" x2="256.8" y2="173.5" stroke="rgb(0,0,0)"  stroke-width="2.0"/>
<line x1="288.6" y1="192.2" x2="288.6" y2="216.1" stroke="rgb(0,0,0)"  stroke-width="2.0"/>
<line x1="282.6" y1="192.2" x2="282.6" y2="216.1" stroke="rgb(0,0,0)"  stroke-width="2.0"/>
<line x1="327.7" y1="174.6" x2="338.0" y2="178.0" stroke="rgb(0,0,0)"  stroke-width="2.0"/>
<line x1="360.0" y1="173.3" x2="368.1" y2="166.1" stroke="rgb(0,0,0)"  stroke-width="2.0"/>
<line x1="304.0" y1="71.9" x2="315.9" y2="51.3" stroke="rgb(0,0,0)"  stroke-width="2.0"/>
<line x1="110.0" y1="352.5" x2="141.9" y2="370.9" stroke="rgb(0,0,0)"  stroke-width="2.0"/>
<line x1="118.8" y1="349.2" x2="140.3" y2="361.6" stroke="rgb(0,0,0)"  stroke-width="2.0"/>
<line x1="141.9" y1="370.9" x2="159.6" y2="354.9" stroke="rgb(0,0,0)"  stroke-width="2.0"/>
<line x1="163.9" y1="334.4" x2="154.3" y2="312.6" stroke="rgb(0,0,0)"  stroke-width="2.0"/>
<line x1="154.3" y1="312.6" x2="117.7" y2="316.5" stroke="rgb(0,0,0)"  stroke-width="2.0"/>
<line x1="149.0" y1="320.4" x2="124.4" y2="323.0" stroke="rgb(0,0,0)"  stroke-width="2.0"/>
<line x1="117.7" y1="316.5" x2="110.0" y2="352.5" stroke="rgb(0,0,0)"  stroke-width="2.0"/>
<line x1="121.8" y1="465.1" x2="139.5" y2="449.2" stroke="rgb(0,0,0)"  stroke-width="2.0"/>
<line x1="143.9" y1="428.6" x2="134.2" y2="406.9" stroke="rgb(0,0,0)"  stroke-width="2.0"/>
<line x1="134.2" y1="406.9" x2="97.6" y2="410.7" stroke="rgb(0,0,0)"  stroke-width="2.0"/>
<line x1="129.0" y1="414.6" x2="104.3" y2="417.2" stroke="rgb(0,0,0)"  stroke-width="2.0"/>
<line x1="97.6" y1="410.7" x2="90.0" y2="446.7" stroke="rgb(0,0,0)"  stroke-width="2.0"/>
<line x1="90.0" y1="446.7" x2="121.8" y2="465.1" stroke="rgb(0,0,0)"  stroke-width="2.0"/>
<line x1="98.8" y1="443.5" x2="120.2" y2="455.9" stroke="rgb(0,0,0)"  stroke-width="2.0"/>
<line x1="227.9" y1="248.9" x2="209.5" y2="217.0" stroke="rgb(0,0,0)"  stroke-width="2.0"/>
<line x1="218.6" y1="247.3" x2="206.2" y2="225.8" stroke="rgb(0,0,0)"  stroke-width="2.0"/>
<line x1="209.5" y1="217.0" x2="172.7" y2="217.0" stroke="rgb(0,0,0)"  stroke-width="2.0"/>
<line x1="172.7" y1="217.0" x2="154.3" y2="248.9" stroke="rgb(0,0,0)"  stroke-width="2.0"/>
<line x1="175.9" y1="225.8" x2="163.5" y2="247.3" stroke="rgb(0,0,0)"  stroke-width="2.0"/>
<line x1="154.3" y1="248.9" x2="172.7" y2="280.7" stroke="rgb(0,0,0)"  stroke-width="2.0"/>
<line x1="172.7" y1="280.7" x2="209.5" y2="280.7" stroke="rgb(0,0,0)"  stroke-width="2.0"/>
<line x1="178.7" y1="273.5" x2="203.5" y2="273.5" stroke="rgb(0,0,0)"  stroke-width="2.0"/>
<line x1="209.5" y1="280.7" x2="227.9" y2="248.9" stroke="rgb(0,0,0)"  stroke-width="2.0"/>
<line x1="267.2" y1="71.9" x2="248.8" y2="103.7" stroke="rgb(0,0,0)"  stroke-width="2.0"/>
<line x1="248.8" y1="103.7" x2="267.2" y2="135.6" stroke="rgb(0,0,0)"  stroke-width="2.0"/>
<line x1="258.0" y1="105.3" x2="270.4" y2="126.8" stroke="rgb(0,0,0)"  stroke-width="2.0"/>
<line x1="267.2" y1="135.6" x2="304.0" y2="135.6" stroke="rgb(0,0,0)"  stroke-width="2.0"/>
<line x1="304.0" y1="135.6" x2="322.4" y2="103.7" stroke="rgb(0,0,0)"  stroke-width="2.0"/>
<line x1="300.8" y1="126.8" x2="313.2" y2="105.3" stroke="rgb(0,0,0)"  stroke-width="2.0"/>
<line x1="322.4" y1="103.7" x2="304.0" y2="71.9" stroke="rgb(0,0,0)"  stroke-width="2.0"/>
<line x1="304.0" y1="71.9" x2="267.2" y2="71.9" stroke="rgb(0,0,0)"  stroke-width="2.0"/>
<line x1="298.0" y1="79.1" x2="273.2" y2="79.1" stroke="rgb(0,0,0)"  stroke-width="2.0"/>
<line x1="134.2" y1="406.9" x2="141.9" y2="370.9" stroke="rgb(0,0,0)"  stroke-width="2.0"/>
<line x1="110.0" y1="352.5" x2="82.7" y2="377.1" stroke="rgb(0,0,0)"  stroke-width="2.0"/>
<line x1="82.7" y1="377.1" x2="97.6" y2="410.7" stroke="rgb(0,0,0)"  stroke-width="2.0"/>
<line x1="191.1" y1="160.4" x2="171.8" y2="174.3" stroke="rgb(0,0,0)"  stroke-width="2.0"/>
<line x1="165.3" y1="194.4" x2="172.7" y2="217.0" stroke="rgb(0,0,0)"  stroke-width="2.0"/>
<line x1="209.5" y1="217.0" x2="220.8" y2="182.0" stroke="rgb(0,0,0)"  stroke-width="2.0"/>
<line x1="220.8" y1="182.0" x2="191.1" y2="160.4" stroke="rgb(0,0,0)"  stroke-width="2.0"/>
<line x1="311.4" y1="158.3" x2="304.0" y2="135.6" stroke="rgb(0,0,0)"  stroke-width="2.0"/>
<line x1="267.2" y1="135.6" x2="255.8" y2="170.6" stroke="rgb(0,0,0)"  stroke-width="2.0"/>
<line x1="255.8" y1="170.6" x2="285.6" y2="192.2" stroke="rgb(0,0,0)"  stroke-width="2.0"/>
<line x1="285.6" y1="192.2" x2="304.9" y2="178.3" stroke="rgb(0,0,0)"  stroke-width="2.0"/>
<text x="309.380915" y="178.617212" fill="rgb(12,12,255)"  stroke="rgb(12,12,255)" stroke-width="1" font-size="16" >N</text>
<text x="185.057872" y="131.555251" fill="rgb(255,12,12)"  stroke="rgb(255,12,12)" stroke-width="1" font-size="16" >O</text>
<text x="155.283966" y="189.989832" fill="rgb(12,12,255)"  stroke="rgb(12,12,255)" stroke-width="1" font-size="16" >N</text>
<text x="120.282640" y="178.617212" fill="rgb(255,12,12)"  stroke="rgb(255,12,12)" stroke-width="1" font-size="16" >O</text>
<text x="92.630955" y="142.618865" fill="rgb(102,102,102)"  stroke="rgb(102,102,102)" stroke-width="1" font-size="16" >H</text>
<text x="104.630955" y="146.298865" fill="rgb(102,102,102)"  stroke="rgb(102,102,102)" stroke-width="1" font-size="13" >3</text>
<text x="111.130955" y="142.618865" fill="rgb(102,102,102)"  stroke="rgb(102,102,102)" stroke-width="1" font-size="16" >C</text>
<text x="279.607009" y="237.051793" fill="rgb(255,12,12)"  stroke="rgb(255,12,12)" stroke-width="1" font-size="16" >O</text>
<text x="344.382241" y="189.989832" fill="rgb(255,12,12)"  stroke="rgb(255,12,12)" stroke-width="1" font-size="16" >O</text>
<text x="373.731882" y="165.364105" fill="rgb(102,102,102)"  stroke="rgb(102,102,102)" stroke-width="1" font-size="16" >CH</text>
<text x="397.731882" y="169.044105" fill="rgb(102,102,102)"  stroke="rgb(102,102,102)" stroke-width="1" font-size="13" >3</text>
<text x="316.409581" y="48.000000" fill="rgb(191,191,191)"  stroke="rgb(191,191,191)" stroke-width="1" font-size="16" >H</text>
<text x="14.000000" y="432.449002" fill="rgb(102,102,102)"  stroke="rgb(102,102,102)" stroke-width="1" font-size="16" >H</text>
<text x="26.000000" y="436.129002" fill="rgb(102,102,102)"  stroke="rgb(102,102,102)" stroke-width="1" font-size="13" >3</text>
<text x="32.500000" y="432.449002" fill="rgb(102,102,102)"  stroke="rgb(102,102,102)" stroke-width="1" font-size="16" >C</text>
<text x="163.224254" y="354.227866" fill="rgb(178,178,0)"  stroke="rgb(178,178,0)" stroke-width="1" font-size="16" >S</text>
<text x="41.651685" y="396.450655" fill="rgb(255,12,12)"  stroke="rgb(255,12,12)" stroke-width="1" font-size="16" >O</text>
<text x="219.084177" y="263.781192" fill="rgb(255,12,12)"  stroke="rgb(255,12,12)" stroke-width="1" font-size="16" >O</text>
<text x="162.281606" y="263.781192" fill="rgb(102,102,102)"  stroke="rgb(102,102,102)" stroke-width="1" font-size="16" >H</text>
<text x="174.281606" y="267.461192" fill="rgb(102,102,102)"  stroke="rgb(102,102,102)" stroke-width="1" font-size="13" >3</text>
<text x="180.781606" y="263.781192" fill="rgb(102,102,102)"  stroke="rgb(102,102,102)" stroke-width="1" font-size="16" >C</text>
<text x="119.689159" y="509.699454" fill="rgb(191,191,191)"  stroke="rgb(191,191,191)" stroke-width="1" font-size="16" >H</text>
<text x="143.191883" y="448.472763" fill="rgb(178,178,0)"  stroke="rgb(178,178,0)" stroke-width="1" font-size="16" >S</text>
</svg>
</g>
<text font-size="18.000000" fill ="black" font-family="sans-serif"
x="10.000000" y="20.000000" ></text>
</svg>
