<?xml version="1.0"?>
<svg version="1.1" id="topsvg"
xmlns="http://www.w3.org/2000/svg" xmlns:xlink="http://www.w3.org/1999/xlink"
xmlns:cml="http://www.xml-cml.org/schema" x="0" y="0" width="200px" height="200px" viewBox="0 0 100 100">
<title> - Open Babel Depiction</title>
<rect x="0" y="0" width="100" height="100" fill="white"/>
<g transform="translate(0,0)">
<svg width="100" height="100" x="0" y="0" viewBox="0 0 466.498 314.018"
font-family="sans-serif" stroke="rgb(0,0,0)" stroke-width="2"  stroke-linecap="round">
<line x1="236.8" y1="144.0" x2="197.9" y2="144.0" stroke="rgb(0,0,0)"  stroke-width="2.0"/>
<line x1="178.3" y1="110.5" x2="197.7" y2="76.9" stroke="rgb(0,0,0)"  stroke-width="2.0"/>
<line x1="197.7" y1="76.9" x2="189.7" y2="52.4" stroke="rgb(0,0,0)"  stroke-width="2.0"/>
<line x1="193.7" y1="78.2" x2="185.7" y2="53.7" stroke="rgb(0,0,0)"  stroke-width="2.0"/>
<line x1="201.7" y1="75.6" x2="193.7" y2="51.1" stroke="rgb(0,0,0)"  stroke-width="2.0"/>
<line x1="80.1" y1="145.1" x2="53.0" y2="145.3" stroke="rgb(0,0,0)"  stroke-width="2.0"/>
<line x1="99.7" y1="178.6" x2="80.4" y2="212.3" stroke="rgb(0,0,0)"  stroke-width="2.0"/>
<line x1="80.4" y1="212.3" x2="99.7" y2="229.5" stroke="rgb(0,0,0)"  stroke-width="2.0"/>
<line x1="83.2" y1="209.1" x2="102.5" y2="226.3" stroke="rgb(0,0,0)"  stroke-width="2.0"/>
<line x1="77.6" y1="215.4" x2="96.9" y2="232.6" stroke="rgb(0,0,0)"  stroke-width="2.0"/>
<line x1="259.6" y1="112.6" x2="251.6" y2="88.1" stroke="rgb(0,0,0)"  stroke-width="2.0"/>
<line x1="296.5" y1="163.4" x2="327.9" y2="186.3" stroke="rgb(0,0,0)"  stroke-width="2.0"/>
<line x1="387.7" y1="205.7" x2="413.5" y2="205.7" stroke="rgb(0,0,0)"  stroke-width="2.0"/>
<line x1="364.9" y1="237.1" x2="372.8" y2="261.7" stroke="rgb(0,0,0)"  stroke-width="2.0"/>
<line x1="139.0" y1="110.5" x2="139.0" y2="178.6" stroke="rgb(0,0,0)"  stroke-width="2.0"/>
<line x1="146.2" y1="116.5" x2="146.2" y2="172.6" stroke="rgb(0,0,0)"  stroke-width="2.0"/>
<line x1="139.0" y1="178.6" x2="165.3" y2="178.6" stroke="rgb(0,0,0)"  stroke-width="2.0"/>
<line x1="184.7" y1="167.3" x2="197.9" y2="144.0" stroke="rgb(0,0,0)"  stroke-width="2.0"/>
<line x1="197.9" y1="144.0" x2="178.3" y2="110.5" stroke="rgb(0,0,0)"  stroke-width="2.0"/>
<line x1="188.7" y1="142.5" x2="175.1" y2="119.4" stroke="rgb(0,0,0)"  stroke-width="2.0"/>
<line x1="178.3" y1="110.5" x2="139.0" y2="110.5" stroke="rgb(0,0,0)"  stroke-width="2.0"/>
<line x1="80.1" y1="145.1" x2="99.7" y2="178.6" stroke="rgb(0,0,0)"  stroke-width="2.0"/>
<line x1="89.3" y1="146.6" x2="102.9" y2="169.7" stroke="rgb(0,0,0)"  stroke-width="2.0"/>
<line x1="99.7" y1="178.6" x2="139.0" y2="178.6" stroke="rgb(0,0,0)"  stroke-width="2.0"/>
<line x1="139.0" y1="110.5" x2="112.7" y2="110.5" stroke="rgb(0,0,0)"  stroke-width="2.0"/>
<line x1="93.3" y1="121.8" x2="80.1" y2="145.1" stroke="rgb(0,0,0)"  stroke-width="2.0"/>
<line x1="296.5" y1="137.4" x2="296.5" y2="163.4" stroke="rgb(0,0,0)"  stroke-width="2.0"/>
<line x1="289.3" y1="139.6" x2="289.3" y2="157.4" stroke="rgb(0,0,0)"  stroke-width="2.0"/>
<line x1="296.5" y1="163.4" x2="272.0" y2="171.4" stroke="rgb(0,0,0)"  stroke-width="2.0"/>
<line x1="251.9" y1="164.9" x2="236.8" y2="144.0" stroke="rgb(0,0,0)"  stroke-width="2.0"/>
<line x1="236.8" y1="144.0" x2="259.6" y2="112.6" stroke="rgb(0,0,0)"  stroke-width="2.0"/>
<line x1="246.1" y1="143.4" x2="261.9" y2="121.7" stroke="rgb(0,0,0)"  stroke-width="2.0"/>
<line x1="259.6" y1="112.6" x2="284.2" y2="120.6" stroke="rgb(0,0,0)"  stroke-width="2.0"/>
<line x1="387.7" y1="205.7" x2="364.9" y2="237.1" stroke="rgb(0,0,0)"  stroke-width="2.0"/>
<line x1="378.3" y1="206.3" x2="362.6" y2="228.0" stroke="rgb(0,0,0)"  stroke-width="2.0"/>
<line x1="364.9" y1="237.1" x2="340.3" y2="229.1" stroke="rgb(0,0,0)"  stroke-width="2.0"/>
<line x1="327.9" y1="212.3" x2="327.9" y2="186.3" stroke="rgb(0,0,0)"  stroke-width="2.0"/>
<line x1="335.1" y1="210.2" x2="335.1" y2="192.3" stroke="rgb(0,0,0)"  stroke-width="2.0"/>
<line x1="327.9" y1="186.3" x2="352.5" y2="178.3" stroke="rgb(0,0,0)"  stroke-width="2.0"/>
<line x1="372.5" y1="184.8" x2="387.7" y2="205.7" stroke="rgb(0,0,0)"  stroke-width="2.0"/>
<text x="172.294475" y="186.559520" fill="rgb(178,178,0)"  stroke="rgb(178,178,0)" stroke-width="1" font-size="16" >S</text>
<text x="321.925621" y="233.095102" fill="rgb(12,12,255)"  stroke="rgb(12,12,255)" stroke-width="1" font-size="16" >N</text>
<text x="370.848648" y="282.018128" fill="rgb(191,191,191)"  stroke="rgb(191,191,191)" stroke-width="1" font-size="16" >H</text>
<text x="420.497508" y="213.682335" fill="rgb(191,191,191)"  stroke="rgb(191,191,191)" stroke-width="1" font-size="16" >H</text>
<text x="358.850898" y="182.271818" fill="rgb(178,178,0)"  stroke="rgb(178,178,0)" stroke-width="1" font-size="16" >S</text>
<text x="253.589827" y="183.446241" fill="rgb(178,178,0)"  stroke="rgb(178,178,0)" stroke-width="1" font-size="16" >S</text>
<text x="290.515104" y="132.622958" fill="rgb(12,12,255)"  stroke="rgb(12,12,255)" stroke-width="1" font-size="16" >N</text>
<text x="241.592078" y="83.699931" fill="rgb(191,191,191)"  stroke="rgb(191,191,191)" stroke-width="1" font-size="16" >H</text>
<text x="103.384612" y="246.129210" fill="rgb(12,12,255)"  stroke="rgb(12,12,255)" stroke-width="1" font-size="16" >N</text>
<text x="34.000000" y="153.337841" fill="rgb(191,191,191)"  stroke="rgb(191,191,191)" stroke-width="1" font-size="16" >H</text>
<text x="93.734865" y="118.549175" fill="rgb(178,178,0)"  stroke="rgb(178,178,0)" stroke-width="1" font-size="16" >S</text>
<text x="179.709492" y="48.000000" fill="rgb(12,12,255)"  stroke="rgb(12,12,255)" stroke-width="1" font-size="16" >N</text>
</svg>
</g>
<text font-size="18.000000" fill ="black" font-family="sans-serif"
x="10.000000" y="20.000000" ></text>
</svg>
