<?xml version="1.0"?>
<svg version="1.1" id="topsvg"
xmlns="http://www.w3.org/2000/svg" xmlns:xlink="http://www.w3.org/1999/xlink"
xmlns:cml="http://www.xml-cml.org/schema" x="0" y="0" width="200px" height="200px" viewBox="0 0 100 100">
<title> - Open Babel Depiction</title>
<rect x="0" y="0" width="100" height="100" fill="white"/>
<g transform="translate(0,0)">
<svg width="100" height="100" x="0" y="0" viewBox="0 0 404.541 298.45"
font-family="sans-serif" stroke="rgb(0,0,0)" stroke-width="2"  stroke-linecap="round">
<line x1="178.6" y1="173.8" x2="143.9" y2="153.8" stroke="rgb(0,0,0)"  stroke-width="2.0"/>
<line x1="74.6" y1="153.8" x2="51.3" y2="167.3" stroke="rgb(0,0,0)"  stroke-width="2.0"/>
<line x1="40.0" y1="186.8" x2="40.0" y2="200.8" stroke="rgb(0,0,0)"  stroke-width="2.0"/>
<line x1="74.6" y1="113.8" x2="51.3" y2="100.3" stroke="rgb(0,0,0)"  stroke-width="2.0"/>
<line x1="143.9" y1="113.8" x2="167.3" y2="100.3" stroke="rgb(0,0,0)"  stroke-width="2.0"/>
<line x1="178.6" y1="80.8" x2="178.6" y2="66.8" stroke="rgb(0,0,0)"  stroke-width="2.0"/>
<line x1="225.2" y1="121.5" x2="207.2" y2="101.4" stroke="rgb(0,0,0)"  stroke-width="2.0"/>
<line x1="229.7" y1="117.5" x2="211.6" y2="97.4" stroke="rgb(0,0,0)"  stroke-width="2.0"/>
<line x1="286.6" y1="76.5" x2="275.6" y2="51.9" stroke="rgb(0,0,0)"  stroke-width="2.0"/>
<line x1="329.9" y1="124.6" x2="353.3" y2="138.1" stroke="rgb(0,0,0)"  stroke-width="2.0"/>
<line x1="283.2" y1="176.9" x2="301.3" y2="197.0" stroke="rgb(0,0,0)"  stroke-width="2.0"/>
<line x1="278.8" y1="181.0" x2="296.8" y2="201.0" stroke="rgb(0,0,0)"  stroke-width="2.0"/>
<line x1="221.9" y1="221.9" x2="232.9" y2="246.6" stroke="rgb(0,0,0)"  stroke-width="2.0"/>
<line x1="327.1" y1="97.8" x2="329.9" y2="124.6" stroke="rgb(0,0,0)"  stroke-width="2.0"/>
<line x1="329.9" y1="124.6" x2="293.4" y2="140.9" stroke="rgb(0,0,0)"  stroke-width="2.0"/>
<line x1="321.5" y1="120.5" x2="295.9" y2="131.9" stroke="rgb(0,0,0)"  stroke-width="2.0"/>
<line x1="293.4" y1="140.9" x2="266.6" y2="111.2" stroke="rgb(0,0,0)"  stroke-width="2.0"/>
<line x1="266.6" y1="111.2" x2="286.6" y2="76.5" stroke="rgb(0,0,0)"  stroke-width="2.0"/>
<line x1="275.8" y1="109.6" x2="289.8" y2="85.3" stroke="rgb(0,0,0)"  stroke-width="2.0"/>
<line x1="286.6" y1="76.5" x2="313.0" y2="82.2" stroke="rgb(0,0,0)"  stroke-width="2.0"/>
<line x1="241.9" y1="187.3" x2="221.9" y2="221.9" stroke="rgb(0,0,0)"  stroke-width="2.0"/>
<line x1="232.6" y1="188.9" x2="218.6" y2="213.1" stroke="rgb(0,0,0)"  stroke-width="2.0"/>
<line x1="221.9" y1="221.9" x2="195.5" y2="216.3" stroke="rgb(0,0,0)"  stroke-width="2.0"/>
<line x1="181.4" y1="200.7" x2="178.6" y2="173.8" stroke="rgb(0,0,0)"  stroke-width="2.0"/>
<line x1="178.6" y1="173.8" x2="215.1" y2="157.5" stroke="rgb(0,0,0)"  stroke-width="2.0"/>
<line x1="187.0" y1="177.9" x2="212.6" y2="166.6" stroke="rgb(0,0,0)"  stroke-width="2.0"/>
<line x1="215.1" y1="157.5" x2="241.9" y2="187.3" stroke="rgb(0,0,0)"  stroke-width="2.0"/>
<line x1="74.6" y1="153.8" x2="74.6" y2="113.8" stroke="rgb(0,0,0)"  stroke-width="2.0"/>
<line x1="81.8" y1="147.8" x2="81.8" y2="119.8" stroke="rgb(0,0,0)"  stroke-width="2.0"/>
<line x1="74.6" y1="113.8" x2="109.3" y2="93.8" stroke="rgb(0,0,0)"  stroke-width="2.0"/>
<line x1="109.3" y1="93.8" x2="143.9" y2="113.8" stroke="rgb(0,0,0)"  stroke-width="2.0"/>
<line x1="110.9" y1="103.0" x2="135.1" y2="117.0" stroke="rgb(0,0,0)"  stroke-width="2.0"/>
<line x1="143.9" y1="113.8" x2="143.9" y2="153.8" stroke="rgb(0,0,0)"  stroke-width="2.0"/>
<line x1="143.9" y1="153.8" x2="109.3" y2="173.8" stroke="rgb(0,0,0)"  stroke-width="2.0"/>
<line x1="135.1" y1="150.6" x2="110.9" y2="164.6" stroke="rgb(0,0,0)"  stroke-width="2.0"/>
<line x1="109.3" y1="173.8" x2="74.6" y2="153.8" stroke="rgb(0,0,0)"  stroke-width="2.0"/>
<line x1="227.5" y1="119.5" x2="266.6" y2="111.2" stroke="rgb(0,0,0)"  stroke-width="2.0"/>
<line x1="293.4" y1="140.9" x2="281.0" y2="179.0" stroke="rgb(0,0,0)"  stroke-width="2.0"/>
<line x1="281.0" y1="179.0" x2="241.9" y2="187.3" stroke="rgb(0,0,0)"  stroke-width="2.0"/>
<line x1="215.1" y1="157.5" x2="227.5" y2="119.5" stroke="rgb(0,0,0)"  stroke-width="2.0"/>
<text x="194.701338" y="97.773509" fill="rgb(255,12,12)"  stroke="rgb(255,12,12)" stroke-width="1" font-size="16" >O</text>
<text x="176.745203" y="221.591904" fill="rgb(178,178,0)"  stroke="rgb(178,178,0)" stroke-width="1" font-size="16" >S</text>
<text x="232.140573" y="266.450190" fill="rgb(191,191,191)"  stroke="rgb(191,191,191)" stroke-width="1" font-size="16" >H</text>
<text x="301.762235" y="216.676681" fill="rgb(255,12,12)"  stroke="rgb(255,12,12)" stroke-width="1" font-size="16" >O</text>
<text x="358.540525" y="152.639162" fill="rgb(191,191,191)"  stroke="rgb(191,191,191)" stroke-width="1" font-size="16" >H</text>
<text x="319.718371" y="92.858286" fill="rgb(178,178,0)"  stroke="rgb(178,178,0)" stroke-width="1" font-size="16" >S</text>
<text x="264.323001" y="48.000000" fill="rgb(191,191,191)"  stroke="rgb(191,191,191)" stroke-width="1" font-size="16" >H</text>
<text x="174.564065" y="61.811028" fill="rgb(102,102,102)"  stroke="rgb(102,102,102)" stroke-width="1" font-size="16" >CH</text>
<text x="198.564065" y="65.491028" fill="rgb(102,102,102)"  stroke="rgb(102,102,102)" stroke-width="1" font-size="13" >3</text>
<text x="172.564065" y="101.811028" fill="rgb(255,12,12)"  stroke="rgb(255,12,12)" stroke-width="1" font-size="16" >O</text>
<text x="34.000000" y="101.811028" fill="rgb(191,191,191)"  stroke="rgb(191,191,191)" stroke-width="1" font-size="16" >H</text>
<text x="36.000000" y="221.811028" fill="rgb(102,102,102)"  stroke="rgb(102,102,102)" stroke-width="1" font-size="16" >CH</text>
<text x="60.000000" y="225.491028" fill="rgb(102,102,102)"  stroke="rgb(102,102,102)" stroke-width="1" font-size="13" >3</text>
<text x="34.000000" y="181.811028" fill="rgb(255,12,12)"  stroke="rgb(255,12,12)" stroke-width="1" font-size="16" >O</text>
</svg>
</g>
<text font-size="18.000000" fill ="black" font-family="sans-serif"
x="10.000000" y="20.000000" ></text>
</svg>
