<?xml version="1.0"?>
<svg version="1.1" id="topsvg"
xmlns="http://www.w3.org/2000/svg" xmlns:xlink="http://www.w3.org/1999/xlink"
xmlns:cml="http://www.xml-cml.org/schema" x="0" y="0" width="200px" height="200px" viewBox="0 0 100 100">
<title> - Open Babel Depiction</title>
<rect x="0" y="0" width="100" height="100" fill="white"/>
<g transform="translate(0,0)">
<svg width="100" height="100" x="0" y="0" viewBox="0 0 603.106 354.334"
font-family="sans-serif" stroke="rgb(0,0,0)" stroke-width="2"  stroke-linecap="round">
<line x1="289.6" y1="235.5" x2="323.7" y2="255.2" stroke="rgb(0,0,0)"  stroke-width="2.0"/>
<line x1="426.1" y1="235.5" x2="426.1" y2="209.1" stroke="rgb(0,0,0)"  stroke-width="2.0"/>
<line x1="414.8" y1="189.6" x2="403.2" y2="182.9" stroke="rgb(0,0,0)"  stroke-width="2.0"/>
<line x1="426.1" y1="235.5" x2="448.9" y2="222.3" stroke="rgb(0,0,0)"  stroke-width="2.0"/>
<line x1="460.2" y1="202.8" x2="460.2" y2="189.4" stroke="rgb(0,0,0)"  stroke-width="2.0"/>
<line x1="528.5" y1="255.2" x2="551.8" y2="241.7" stroke="rgb(0,0,0)"  stroke-width="2.0"/>
<line x1="228.2" y1="120.0" x2="220.0" y2="94.9" stroke="rgb(0,0,0)"  stroke-width="2.0"/>
<line x1="233.9" y1="118.1" x2="225.7" y2="93.0" stroke="rgb(0,0,0)"  stroke-width="2.0"/>
<line x1="279.0" y1="123.6" x2="289.8" y2="115.7" stroke="rgb(0,0,0)"  stroke-width="2.0"/>
<line x1="299.0" y1="95.1" x2="297.6" y2="81.8" stroke="rgb(0,0,0)"  stroke-width="2.0"/>
<line x1="207.9" y1="153.9" x2="168.5" y2="153.9" stroke="rgb(0,0,0)"  stroke-width="2.0"/>
<line x1="207.9" y1="147.9" x2="168.5" y2="147.9" stroke="rgb(0,0,0)"  stroke-width="2.0"/>
<line x1="148.2" y1="181.9" x2="156.3" y2="207.0" stroke="rgb(0,0,0)"  stroke-width="2.0"/>
<line x1="142.5" y1="183.7" x2="150.6" y2="208.8" stroke="rgb(0,0,0)"  stroke-width="2.0"/>
<line x1="97.3" y1="178.3" x2="86.5" y2="186.2" stroke="rgb(0,0,0)"  stroke-width="2.0"/>
<line x1="64.1" y1="188.5" x2="51.9" y2="183.1" stroke="rgb(0,0,0)"  stroke-width="2.0"/>
<line x1="86.8" y1="66.4" x2="67.1" y2="48.7" stroke="rgb(0,0,0)"  stroke-width="2.0"/>
<line x1="392.0" y1="255.2" x2="392.0" y2="294.6" stroke="rgb(0,0,0)"  stroke-width="2.0"/>
<line x1="384.8" y1="261.2" x2="384.8" y2="288.6" stroke="rgb(0,0,0)"  stroke-width="2.0"/>
<line x1="392.0" y1="294.6" x2="357.8" y2="314.3" stroke="rgb(0,0,0)"  stroke-width="2.0"/>
<line x1="357.8" y1="314.3" x2="323.7" y2="294.6" stroke="rgb(0,0,0)"  stroke-width="2.0"/>
<line x1="356.2" y1="305.1" x2="332.5" y2="291.4" stroke="rgb(0,0,0)"  stroke-width="2.0"/>
<line x1="323.7" y1="294.6" x2="323.7" y2="255.2" stroke="rgb(0,0,0)"  stroke-width="2.0"/>
<line x1="323.7" y1="255.2" x2="357.8" y2="235.5" stroke="rgb(0,0,0)"  stroke-width="2.0"/>
<line x1="332.5" y1="258.5" x2="356.2" y2="244.8" stroke="rgb(0,0,0)"  stroke-width="2.0"/>
<line x1="357.8" y1="235.5" x2="392.0" y2="255.2" stroke="rgb(0,0,0)"  stroke-width="2.0"/>
<line x1="494.3" y1="235.5" x2="460.2" y2="255.2" stroke="rgb(0,0,0)"  stroke-width="2.0"/>
<line x1="492.8" y1="244.7" x2="469.0" y2="258.4" stroke="rgb(0,0,0)"  stroke-width="2.0"/>
<line x1="460.2" y1="255.2" x2="460.2" y2="294.6" stroke="rgb(0,0,0)"  stroke-width="2.0"/>
<line x1="460.2" y1="294.6" x2="494.4" y2="314.3" stroke="rgb(0,0,0)"  stroke-width="2.0"/>
<line x1="469.0" y1="291.4" x2="492.8" y2="305.1" stroke="rgb(0,0,0)"  stroke-width="2.0"/>
<line x1="494.4" y1="314.3" x2="528.5" y2="294.6" stroke="rgb(0,0,0)"  stroke-width="2.0"/>
<line x1="528.5" y1="294.6" x2="528.5" y2="255.2" stroke="rgb(0,0,0)"  stroke-width="2.0"/>
<line x1="521.3" y1="288.6" x2="521.3" y2="261.2" stroke="rgb(0,0,0)"  stroke-width="2.0"/>
<line x1="528.5" y1="255.2" x2="494.3" y2="235.5" stroke="rgb(0,0,0)"  stroke-width="2.0"/>
<line x1="222.8" y1="221.3" x2="231.0" y2="182.8" stroke="rgb(0,0,0)"  stroke-width="2.0"/>
<line x1="231.1" y1="217.0" x2="236.8" y2="190.2" stroke="rgb(0,0,0)"  stroke-width="2.0"/>
<line x1="231.0" y1="182.8" x2="268.5" y2="170.6" stroke="rgb(0,0,0)"  stroke-width="2.0"/>
<line x1="268.5" y1="170.6" x2="297.8" y2="197.0" stroke="rgb(0,0,0)"  stroke-width="2.0"/>
<line x1="268.1" y1="180.0" x2="288.5" y2="198.3" stroke="rgb(0,0,0)"  stroke-width="2.0"/>
<line x1="297.8" y1="197.0" x2="289.6" y2="235.5" stroke="rgb(0,0,0)"  stroke-width="2.0"/>
<line x1="289.6" y1="235.5" x2="252.1" y2="247.7" stroke="rgb(0,0,0)"  stroke-width="2.0"/>
<line x1="281.7" y1="230.5" x2="255.6" y2="239.0" stroke="rgb(0,0,0)"  stroke-width="2.0"/>
<line x1="252.1" y1="247.7" x2="222.8" y2="221.3" stroke="rgb(0,0,0)"  stroke-width="2.0"/>
<line x1="124.2" y1="54.2" x2="153.5" y2="80.5" stroke="rgb(0,0,0)"  stroke-width="2.0"/>
<line x1="153.5" y1="80.5" x2="145.3" y2="119.1" stroke="rgb(0,0,0)"  stroke-width="2.0"/>
<line x1="145.2" y1="84.9" x2="139.5" y2="111.7" stroke="rgb(0,0,0)"  stroke-width="2.0"/>
<line x1="145.3" y1="119.1" x2="107.9" y2="131.3" stroke="rgb(0,0,0)"  stroke-width="2.0"/>
<line x1="107.9" y1="131.3" x2="78.6" y2="104.9" stroke="rgb(0,0,0)"  stroke-width="2.0"/>
<line x1="108.2" y1="121.9" x2="87.9" y2="103.6" stroke="rgb(0,0,0)"  stroke-width="2.0"/>
<line x1="78.6" y1="104.9" x2="86.8" y2="66.4" stroke="rgb(0,0,0)"  stroke-width="2.0"/>
<line x1="86.8" y1="66.4" x2="124.2" y2="54.2" stroke="rgb(0,0,0)"  stroke-width="2.0"/>
<line x1="94.7" y1="71.4" x2="120.7" y2="62.9" stroke="rgb(0,0,0)"  stroke-width="2.0"/>
<line x1="460.2" y1="294.6" x2="392.0" y2="294.6" stroke="rgb(0,0,0)"  stroke-width="2.0"/>
<line x1="392.0" y1="255.2" x2="426.1" y2="235.5" stroke="rgb(0,0,0)"  stroke-width="2.0"/>
<line x1="426.1" y1="235.5" x2="460.2" y2="255.2" stroke="rgb(0,0,0)"  stroke-width="2.0"/>
<line x1="231.0" y1="119.1" x2="256.1" y2="127.2" stroke="rgb(0,0,0)"  stroke-width="2.0"/>
<line x1="268.5" y1="144.2" x2="268.5" y2="170.6" stroke="rgb(0,0,0)"  stroke-width="2.0"/>
<line x1="231.0" y1="182.8" x2="207.9" y2="150.9" stroke="rgb(0,0,0)"  stroke-width="2.0"/>
<line x1="207.9" y1="150.9" x2="231.0" y2="119.1" stroke="rgb(0,0,0)"  stroke-width="2.0"/>
<line x1="107.9" y1="157.6" x2="107.9" y2="131.3" stroke="rgb(0,0,0)"  stroke-width="2.0"/>
<line x1="145.3" y1="119.1" x2="168.5" y2="150.9" stroke="rgb(0,0,0)"  stroke-width="2.0"/>
<line x1="168.5" y1="150.9" x2="145.3" y2="182.8" stroke="rgb(0,0,0)"  stroke-width="2.0"/>
<line x1="145.3" y1="182.8" x2="120.2" y2="174.7" stroke="rgb(0,0,0)"  stroke-width="2.0"/>
<text x="151.504537" y="228.281034" fill="rgb(255,12,12)"  stroke="rgb(255,12,12)" stroke-width="1" font-size="16" >O</text>
<text x="212.850959" y="89.599585" fill="rgb(255,12,12)"  stroke="rgb(255,12,12)" stroke-width="1" font-size="16" >O</text>
<text x="262.495949" y="139.235562" fill="rgb(12,12,255)"  stroke="rgb(12,12,255)" stroke-width="1" font-size="16" >N</text>
<text x="294.364999" y="116.076921" fill="rgb(255,12,12)"  stroke="rgb(255,12,12)" stroke-width="1" font-size="16" >O</text>
<text x="270.243553" y="76.898194" fill="rgb(102,102,102)"  stroke="rgb(102,102,102)" stroke-width="1" font-size="16" >H</text>
<text x="282.243553" y="80.578194" fill="rgb(102,102,102)"  stroke="rgb(102,102,102)" stroke-width="1" font-size="13" >3</text>
<text x="288.743553" y="76.898194" fill="rgb(102,102,102)"  stroke="rgb(102,102,102)" stroke-width="1" font-size="16" >C</text>
<text x="101.859547" y="178.645057" fill="rgb(12,12,255)"  stroke="rgb(12,12,255)" stroke-width="1" font-size="16" >N</text>
<text x="69.990497" y="201.803698" fill="rgb(255,12,12)"  stroke="rgb(255,12,12)" stroke-width="1" font-size="16" >O</text>
<text x="14.000000" y="185.783612" fill="rgb(102,102,102)"  stroke="rgb(102,102,102)" stroke-width="1" font-size="16" >H</text>
<text x="26.000000" y="189.463612" fill="rgb(102,102,102)"  stroke="rgb(102,102,102)" stroke-width="1" font-size="13" >3</text>
<text x="32.500000" y="185.783612" fill="rgb(102,102,102)"  stroke="rgb(102,102,102)" stroke-width="1" font-size="16" >C</text>
<text x="51.486099" y="48.000000" fill="rgb(191,191,191)"  stroke="rgb(191,191,191)" stroke-width="1" font-size="16" >H</text>
<text x="420.068848" y="204.116668" fill="rgb(255,12,12)"  stroke="rgb(255,12,12)" stroke-width="1" font-size="16" >O</text>
<text x="365.948104" y="184.425710" fill="rgb(102,102,102)"  stroke="rgb(102,102,102)" stroke-width="1" font-size="16" >H</text>
<text x="377.948104" y="188.105710" fill="rgb(102,102,102)"  stroke="rgb(102,102,102)" stroke-width="1" font-size="13" >3</text>
<text x="384.448104" y="184.425710" fill="rgb(102,102,102)"  stroke="rgb(102,102,102)" stroke-width="1" font-size="16" >C</text>
<text x="454.190959" y="223.809993" fill="rgb(255,12,12)"  stroke="rgb(255,12,12)" stroke-width="1" font-size="16" >O</text>
<text x="456.186191" y="184.415083" fill="rgb(102,102,102)"  stroke="rgb(102,102,102)" stroke-width="1" font-size="16" >CH</text>
<text x="480.186191" y="188.095083" fill="rgb(102,102,102)"  stroke="rgb(102,102,102)" stroke-width="1" font-size="13" >3</text>
<text x="557.106313" y="243.203853" fill="rgb(191,191,191)"  stroke="rgb(191,191,191)" stroke-width="1" font-size="16" >H</text>
</svg>
</g>
<text font-size="18.000000" fill ="black" font-family="sans-serif"
x="10.000000" y="20.000000" ></text>
</svg>
