<?xml version="1.0"?>
<svg version="1.1" id="topsvg"
xmlns="http://www.w3.org/2000/svg" xmlns:xlink="http://www.w3.org/1999/xlink"
xmlns:cml="http://www.xml-cml.org/schema" x="0" y="0" width="200px" height="200px" viewBox="0 0 100 100">
<title> - Open Babel Depiction</title>
<rect x="0" y="0" width="100" height="100" fill="white"/>
<g transform="translate(0,0)">
<svg width="100" height="100" x="0" y="0" viewBox="0 0 466.194 246.225"
font-family="sans-serif" stroke="rgb(0,0,0)" stroke-width="2"  stroke-linecap="round">
<line x1="311.5" y1="123.8" x2="277.7" y2="104.2" stroke="rgb(0,0,0)"  stroke-width="2.0"/>
<line x1="176.2" y1="136.7" x2="176.2" y2="149.8" stroke="rgb(0,0,0)"  stroke-width="2.0"/>
<line x1="182.7" y1="174.1" x2="189.2" y2="185.4" stroke="rgb(0,0,0)"  stroke-width="2.0"/>
<line x1="74.6" y1="104.2" x2="51.3" y2="117.7" stroke="rgb(0,0,0)"  stroke-width="2.0"/>
<line x1="388.0" y1="140.0" x2="413.5" y2="145.5" stroke="rgb(0,0,0)"  stroke-width="2.0"/>
<line x1="361.8" y1="169.1" x2="369.9" y2="193.9" stroke="rgb(0,0,0)"  stroke-width="2.0"/>
<line x1="323.6" y1="160.9" x2="306.2" y2="180.3" stroke="rgb(0,0,0)"  stroke-width="2.0"/>
<line x1="142.3" y1="104.2" x2="142.3" y2="65.1" stroke="rgb(0,0,0)"  stroke-width="2.0"/>
<line x1="142.3" y1="65.1" x2="210.0" y2="65.1" stroke="rgb(0,0,0)"  stroke-width="2.0"/>
<line x1="210.0" y1="65.1" x2="210.0" y2="104.2" stroke="rgb(0,0,0)"  stroke-width="2.0"/>
<line x1="202.8" y1="71.1" x2="202.8" y2="98.2" stroke="rgb(0,0,0)"  stroke-width="2.0"/>
<line x1="210.0" y1="104.2" x2="187.4" y2="117.3" stroke="rgb(0,0,0)"  stroke-width="2.0"/>
<line x1="164.9" y1="117.2" x2="142.3" y2="104.2" stroke="rgb(0,0,0)"  stroke-width="2.0"/>
<line x1="345.5" y1="50.6" x2="357.4" y2="45.3" stroke="rgb(0,0,0)"  stroke-width="2.0"/>
<line x1="378.0" y1="49.7" x2="386.8" y2="59.4" stroke="rgb(0,0,0)"  stroke-width="2.0"/>
<line x1="389.0" y1="80.2" x2="375.9" y2="102.9" stroke="rgb(0,0,0)"  stroke-width="2.0"/>
<line x1="381.7" y1="78.4" x2="372.7" y2="94.1" stroke="rgb(0,0,0)"  stroke-width="2.0"/>
<line x1="375.9" y1="102.9" x2="337.7" y2="94.7" stroke="rgb(0,0,0)"  stroke-width="2.0"/>
<line x1="337.7" y1="94.7" x2="335.0" y2="68.7" stroke="rgb(0,0,0)"  stroke-width="2.0"/>
<line x1="344.2" y1="88.0" x2="342.3" y2="70.0" stroke="rgb(0,0,0)"  stroke-width="2.0"/>
<line x1="210.0" y1="65.1" x2="243.9" y2="45.6" stroke="rgb(0,0,0)"  stroke-width="2.0"/>
<line x1="243.9" y1="45.6" x2="277.7" y2="65.1" stroke="rgb(0,0,0)"  stroke-width="2.0"/>
<line x1="245.5" y1="54.8" x2="268.9" y2="68.4" stroke="rgb(0,0,0)"  stroke-width="2.0"/>
<line x1="277.7" y1="65.1" x2="277.7" y2="104.2" stroke="rgb(0,0,0)"  stroke-width="2.0"/>
<line x1="277.7" y1="104.2" x2="243.9" y2="123.8" stroke="rgb(0,0,0)"  stroke-width="2.0"/>
<line x1="268.9" y1="101.0" x2="245.5" y2="114.5" stroke="rgb(0,0,0)"  stroke-width="2.0"/>
<line x1="243.9" y1="123.8" x2="210.0" y2="104.2" stroke="rgb(0,0,0)"  stroke-width="2.0"/>
<line x1="108.5" y1="123.7" x2="142.3" y2="104.2" stroke="rgb(0,0,0)"  stroke-width="2.0"/>
<line x1="110.1" y1="114.5" x2="133.5" y2="101.0" stroke="rgb(0,0,0)"  stroke-width="2.0"/>
<line x1="142.3" y1="65.1" x2="108.5" y2="45.6" stroke="rgb(0,0,0)"  stroke-width="2.0"/>
<line x1="133.5" y1="68.3" x2="110.1" y2="54.8" stroke="rgb(0,0,0)"  stroke-width="2.0"/>
<line x1="108.5" y1="45.6" x2="74.7" y2="65.1" stroke="rgb(0,0,0)"  stroke-width="2.0"/>
<line x1="74.7" y1="65.1" x2="74.6" y2="104.2" stroke="rgb(0,0,0)"  stroke-width="2.0"/>
<line x1="81.8" y1="71.1" x2="81.8" y2="98.2" stroke="rgb(0,0,0)"  stroke-width="2.0"/>
<line x1="74.6" y1="104.2" x2="108.5" y2="123.7" stroke="rgb(0,0,0)"  stroke-width="2.0"/>
<line x1="375.9" y1="102.9" x2="388.0" y2="140.0" stroke="rgb(0,0,0)"  stroke-width="2.0"/>
<line x1="388.0" y1="140.0" x2="361.8" y2="169.1" stroke="rgb(0,0,0)"  stroke-width="2.0"/>
<line x1="378.6" y1="139.7" x2="360.5" y2="159.8" stroke="rgb(0,0,0)"  stroke-width="2.0"/>
<line x1="361.8" y1="169.1" x2="323.6" y2="160.9" stroke="rgb(0,0,0)"  stroke-width="2.0"/>
<line x1="323.6" y1="160.9" x2="311.5" y2="123.8" stroke="rgb(0,0,0)"  stroke-width="2.0"/>
<line x1="328.6" y1="153.0" x2="320.2" y2="127.3" stroke="rgb(0,0,0)"  stroke-width="2.0"/>
<line x1="311.5" y1="123.8" x2="337.7" y2="94.7" stroke="rgb(0,0,0)"  stroke-width="2.0"/>
<text x="291.465931" y="197.965200" fill="rgb(191,191,191)"  stroke="rgb(191,191,191)" stroke-width="1" font-size="16" >H</text>
<text x="367.897195" y="214.224670" fill="rgb(191,191,191)"  stroke="rgb(191,191,191)" stroke-width="1" font-size="16" >H</text>
<text x="420.193941" y="156.162988" fill="rgb(191,191,191)"  stroke="rgb(191,191,191)" stroke-width="1" font-size="16" >H</text>
<text x="389.452166" y="77.039679" fill="rgb(12,12,255)"  stroke="rgb(12,12,255)" stroke-width="1" font-size="16" >N</text>
<text x="363.313609" y="48.000000" fill="rgb(178,178,0)"  stroke="rgb(178,178,0)" stroke-width="1" font-size="16" >S</text>
<text x="327.617975" y="63.885491" fill="rgb(12,12,255)"  stroke="rgb(12,12,255)" stroke-width="1" font-size="16" >N</text>
<text x="34.000000" y="132.189794" fill="rgb(191,191,191)"  stroke="rgb(191,191,191)" stroke-width="1" font-size="16" >H</text>
<text x="191.714825" y="204.658333" fill="rgb(102,102,102)"  stroke="rgb(102,102,102)" stroke-width="1" font-size="16" >CH</text>
<text x="215.714825" y="208.338333" fill="rgb(102,102,102)"  stroke="rgb(102,102,102)" stroke-width="1" font-size="13" >3</text>
<text x="170.181775" y="170.820676" fill="rgb(255,12,12)"  stroke="rgb(255,12,12)" stroke-width="1" font-size="16" >O</text>
<text x="170.184485" y="131.749880" fill="rgb(12,12,255)"  stroke="rgb(12,12,255)" stroke-width="1" font-size="16" >N</text>
</svg>
</g>
<text font-size="18.000000" fill ="black" font-family="sans-serif"
x="10.000000" y="20.000000" ></text>
</svg>
