<?xml version="1.0"?>
<svg version="1.1" id="topsvg"
xmlns="http://www.w3.org/2000/svg" xmlns:xlink="http://www.w3.org/1999/xlink"
xmlns:cml="http://www.xml-cml.org/schema" x="0" y="0" width="200px" height="200px" viewBox="0 0 100 100">
<title> - Open Babel Depiction</title>
<rect x="0" y="0" width="100" height="100" fill="white"/>
<g transform="translate(0,0)">
<svg width="100" height="100" x="0" y="0" viewBox="0 0 377.153 313.928"
font-family="sans-serif" stroke="rgb(0,0,0)" stroke-width="2"  stroke-linecap="round">
<line x1="172.0" y1="140.1" x2="152.6" y2="173.8" stroke="rgb(0,0,0)"  stroke-width="2.0"/>
<line x1="139.5" y1="235.3" x2="142.2" y2="261.0" stroke="rgb(0,0,0)"  stroke-width="2.0"/>
<line x1="247.3" y1="155.2" x2="250.0" y2="180.9" stroke="rgb(0,0,0)"  stroke-width="2.0"/>
<line x1="241.3" y1="155.8" x2="244.0" y2="181.5" stroke="rgb(0,0,0)"  stroke-width="2.0"/>
<line x1="285.9" y1="132.2" x2="298.4" y2="134.9" stroke="rgb(0,0,0)"  stroke-width="2.0"/>
<line x1="319.9" y1="127.9" x2="328.5" y2="118.4" stroke="rgb(0,0,0)"  stroke-width="2.0"/>
<line x1="257.3" y1="94.0" x2="270.3" y2="71.6" stroke="rgb(0,0,0)"  stroke-width="2.0"/>
<line x1="182.1" y1="79.0" x2="179.4" y2="53.2" stroke="rgb(0,0,0)"  stroke-width="2.0"/>
<line x1="188.0" y1="78.3" x2="185.3" y2="52.6" stroke="rgb(0,0,0)"  stroke-width="2.0"/>
<line x1="166.7" y1="112.3" x2="202.8" y2="138.9" stroke="rgb(0,0,0)"  stroke-width="2.0"/>
<line x1="200.3" y1="146.6" x2="187.5" y2="146.6" stroke="rgb(0,0,0)"  stroke-width="2.0"/>
<line x1="105.8" y1="215.9" x2="139.5" y2="235.3" stroke="rgb(0,0,0)"  stroke-width="2.0"/>
<line x1="114.6" y1="212.6" x2="137.9" y2="226.0" stroke="rgb(0,0,0)"  stroke-width="2.0"/>
<line x1="139.5" y1="235.3" x2="158.7" y2="218.0" stroke="rgb(0,0,0)"  stroke-width="2.0"/>
<line x1="163.1" y1="197.4" x2="152.6" y2="173.8" stroke="rgb(0,0,0)"  stroke-width="2.0"/>
<line x1="152.6" y1="173.8" x2="113.9" y2="177.9" stroke="rgb(0,0,0)"  stroke-width="2.0"/>
<line x1="147.3" y1="181.6" x2="120.6" y2="184.4" stroke="rgb(0,0,0)"  stroke-width="2.0"/>
<line x1="113.9" y1="177.9" x2="105.8" y2="215.9" stroke="rgb(0,0,0)"  stroke-width="2.0"/>
<line x1="244.3" y1="155.5" x2="263.5" y2="138.2" stroke="rgb(0,0,0)"  stroke-width="2.0"/>
<line x1="267.9" y1="117.6" x2="257.3" y2="94.0" stroke="rgb(0,0,0)"  stroke-width="2.0"/>
<line x1="257.3" y1="94.0" x2="218.7" y2="98.1" stroke="rgb(0,0,0)"  stroke-width="2.0"/>
<line x1="252.1" y1="101.8" x2="225.4" y2="104.6" stroke="rgb(0,0,0)"  stroke-width="2.0"/>
<line x1="218.7" y1="98.1" x2="210.6" y2="136.1" stroke="rgb(0,0,0)"  stroke-width="2.0"/>
<line x1="210.6" y1="136.1" x2="244.3" y2="155.5" stroke="rgb(0,0,0)"  stroke-width="2.0"/>
<line x1="218.7" y1="98.1" x2="185.0" y2="78.6" stroke="rgb(0,0,0)"  stroke-width="2.0"/>
<line x1="185.0" y1="78.6" x2="165.8" y2="95.9" stroke="rgb(0,0,0)"  stroke-width="2.0"/>
<line x1="161.5" y1="116.5" x2="172.0" y2="140.1" stroke="rgb(0,0,0)"  stroke-width="2.0"/>
<line x1="172.0" y1="140.1" x2="210.6" y2="136.1" stroke="rgb(0,0,0)"  stroke-width="2.0"/>
<line x1="177.2" y1="132.4" x2="203.9" y2="129.5" stroke="rgb(0,0,0)"  stroke-width="2.0"/>
<line x1="72.7" y1="155.9" x2="48.1" y2="163.9" stroke="rgb(0,0,0)"  stroke-width="2.0"/>
<line x1="48.1" y1="163.9" x2="40.0" y2="201.9" stroke="rgb(0,0,0)"  stroke-width="2.0"/>
<line x1="40.0" y1="201.9" x2="59.2" y2="219.2" stroke="rgb(0,0,0)"  stroke-width="2.0"/>
<line x1="81.2" y1="223.8" x2="105.8" y2="215.9" stroke="rgb(0,0,0)"  stroke-width="2.0"/>
<line x1="113.9" y1="177.9" x2="94.7" y2="160.5" stroke="rgb(0,0,0)"  stroke-width="2.0"/>
<text x="148.466512" y="154.599867" fill="rgb(102,102,102)"  stroke="rgb(102,102,102)" stroke-width="1" font-size="16" >H</text>
<text x="160.466512" y="158.279867" fill="rgb(102,102,102)"  stroke="rgb(102,102,102)" stroke-width="1" font-size="13" >3</text>
<text x="166.966512" y="154.599867" fill="rgb(102,102,102)"  stroke="rgb(102,102,102)" stroke-width="1" font-size="16" >C</text>
<text x="207.322205" y="154.599867" fill="rgb(255,12,12)"  stroke="rgb(255,12,12)" stroke-width="1" font-size="16" >O</text>
<text x="150.174570" y="112.642371" fill="rgb(12,12,255)"  stroke="rgb(12,12,255)" stroke-width="1" font-size="16" >N</text>
<text x="174.988451" y="48.000000" fill="rgb(255,12,12)"  stroke="rgb(255,12,12)" stroke-width="1" font-size="16" >O</text>
<text x="270.770678" y="68.359141" fill="rgb(191,191,191)"  stroke="rgb(191,191,191)" stroke-width="1" font-size="16" >H</text>
<text x="333.153002" y="116.708746" fill="rgb(102,102,102)"  stroke="rgb(102,102,102)" stroke-width="1" font-size="16" >CH</text>
<text x="357.153002" y="120.388746" fill="rgb(102,102,102)"  stroke="rgb(102,102,102)" stroke-width="1" font-size="13" >3</text>
<text x="305.153469" y="145.584153" fill="rgb(255,12,12)"  stroke="rgb(255,12,12)" stroke-width="1" font-size="16" >O</text>
<text x="267.146866" y="137.505600" fill="rgb(12,12,255)"  stroke="rgb(12,12,255)" stroke-width="1" font-size="16" >N</text>
<text x="242.332985" y="202.147971" fill="rgb(255,12,12)"  stroke="rgb(255,12,12)" stroke-width="1" font-size="16" >O</text>
<text x="162.354792" y="217.285272" fill="rgb(178,178,0)"  stroke="rgb(178,178,0)" stroke-width="1" font-size="16" >S</text>
<text x="137.540910" y="281.927643" fill="rgb(191,191,191)"  stroke="rgb(191,191,191)" stroke-width="1" font-size="16" >H</text>
<text x="62.875407" y="235.864028" fill="rgb(255,12,12)"  stroke="rgb(255,12,12)" stroke-width="1" font-size="16" >O</text>
<text x="79.032513" y="159.850822" fill="rgb(255,12,12)"  stroke="rgb(255,12,12)" stroke-width="1" font-size="16" >O</text>
</svg>
</g>
<text font-size="18.000000" fill ="black" font-family="sans-serif"
x="10.000000" y="20.000000" ></text>
</svg>
