<?xml version="1.0"?>
<svg version="1.1" id="topsvg"
xmlns="http://www.w3.org/2000/svg" xmlns:xlink="http://www.w3.org/1999/xlink"
xmlns:cml="http://www.xml-cml.org/schema" x="0" y="0" width="200px" height="200px" viewBox="0 0 100 100">
<title> - Open Babel Depiction</title>
<rect x="0" y="0" width="100" height="100" fill="white"/>
<g transform="translate(0,0)">
<svg width="100" height="100" x="0" y="0" viewBox="0 0 439.878 277.433"
font-family="sans-serif" stroke="rgb(0,0,0)" stroke-width="2"  stroke-linecap="round">
<line x1="176.9" y1="127.7" x2="210.3" y2="108.2" stroke="rgb(0,0,0)"  stroke-width="2.0"/>
<line x1="233.0" y1="76.8" x2="225.0" y2="52.3" stroke="rgb(0,0,0)"  stroke-width="2.0"/>
<line x1="269.9" y1="88.6" x2="290.7" y2="73.4" stroke="rgb(0,0,0)"  stroke-width="2.0"/>
<line x1="270.0" y1="127.4" x2="301.5" y2="150.0" stroke="rgb(0,0,0)"  stroke-width="2.0"/>
<line x1="361.1" y1="169.2" x2="386.9" y2="169.1" stroke="rgb(0,0,0)"  stroke-width="2.0"/>
<line x1="338.5" y1="200.6" x2="346.5" y2="225.1" stroke="rgb(0,0,0)"  stroke-width="2.0"/>
<line x1="301.6" y1="188.8" x2="280.8" y2="204.0" stroke="rgb(0,0,0)"  stroke-width="2.0"/>
<line x1="106.0" y1="88.5" x2="105.9" y2="61.5" stroke="rgb(0,0,0)"  stroke-width="2.0"/>
<line x1="112.0" y1="88.5" x2="111.9" y2="61.5" stroke="rgb(0,0,0)"  stroke-width="2.0"/>
<line x1="63.5" y1="102.1" x2="51.3" y2="95.2" stroke="rgb(0,0,0)"  stroke-width="2.0"/>
<line x1="76.6" y1="149.9" x2="53.2" y2="163.5" stroke="rgb(0,0,0)"  stroke-width="2.0"/>
<line x1="73.5" y1="144.7" x2="50.2" y2="158.3" stroke="rgb(0,0,0)"  stroke-width="2.0"/>
<line x1="142.9" y1="186.5" x2="143.0" y2="213.5" stroke="rgb(0,0,0)"  stroke-width="2.0"/>
<line x1="269.9" y1="88.6" x2="270.0" y2="127.4" stroke="rgb(0,0,0)"  stroke-width="2.0"/>
<line x1="262.7" y1="94.7" x2="262.8" y2="121.4" stroke="rgb(0,0,0)"  stroke-width="2.0"/>
<line x1="270.0" y1="127.4" x2="245.6" y2="135.4" stroke="rgb(0,0,0)"  stroke-width="2.0"/>
<line x1="225.5" y1="129.0" x2="210.3" y2="108.2" stroke="rgb(0,0,0)"  stroke-width="2.0"/>
<line x1="210.3" y1="108.2" x2="233.0" y2="76.8" stroke="rgb(0,0,0)"  stroke-width="2.0"/>
<line x1="219.7" y1="107.6" x2="235.3" y2="85.9" stroke="rgb(0,0,0)"  stroke-width="2.0"/>
<line x1="233.0" y1="76.8" x2="269.9" y2="88.6" stroke="rgb(0,0,0)"  stroke-width="2.0"/>
<line x1="361.1" y1="169.2" x2="338.5" y2="200.6" stroke="rgb(0,0,0)"  stroke-width="2.0"/>
<line x1="351.8" y1="169.9" x2="336.1" y2="191.6" stroke="rgb(0,0,0)"  stroke-width="2.0"/>
<line x1="338.5" y1="200.6" x2="301.6" y2="188.8" stroke="rgb(0,0,0)"  stroke-width="2.0"/>
<line x1="301.6" y1="188.8" x2="301.5" y2="150.0" stroke="rgb(0,0,0)"  stroke-width="2.0"/>
<line x1="308.8" y1="182.8" x2="308.7" y2="156.0" stroke="rgb(0,0,0)"  stroke-width="2.0"/>
<line x1="301.5" y1="150.0" x2="325.9" y2="142.0" stroke="rgb(0,0,0)"  stroke-width="2.0"/>
<line x1="345.9" y1="148.4" x2="361.1" y2="169.2" stroke="rgb(0,0,0)"  stroke-width="2.0"/>
<line x1="109.0" y1="166.9" x2="142.9" y2="186.5" stroke="rgb(0,0,0)"  stroke-width="2.0"/>
<line x1="117.8" y1="163.7" x2="141.3" y2="177.2" stroke="rgb(0,0,0)"  stroke-width="2.0"/>
<line x1="142.9" y1="186.5" x2="165.9" y2="173.0" stroke="rgb(0,0,0)"  stroke-width="2.0"/>
<line x1="177.0" y1="153.5" x2="176.9" y2="127.7" stroke="rgb(0,0,0)"  stroke-width="2.0"/>
<line x1="176.9" y1="127.7" x2="142.9" y2="108.1" stroke="rgb(0,0,0)"  stroke-width="2.0"/>
<line x1="168.1" y1="130.9" x2="144.5" y2="117.4" stroke="rgb(0,0,0)"  stroke-width="2.0"/>
<line x1="142.9" y1="108.1" x2="109.0" y2="166.9" stroke="rgb(0,0,0)"  stroke-width="2.0"/>
<line x1="109.0" y1="88.5" x2="86.0" y2="102.0" stroke="rgb(0,0,0)"  stroke-width="2.0"/>
<line x1="74.9" y1="121.5" x2="75.0" y2="147.3" stroke="rgb(0,0,0)"  stroke-width="2.0"/>
<line x1="75.0" y1="147.3" x2="109.0" y2="166.9" stroke="rgb(0,0,0)"  stroke-width="2.0"/>
<line x1="142.9" y1="108.1" x2="109.0" y2="88.5" stroke="rgb(0,0,0)"  stroke-width="2.0"/>
<text x="344.576883" y="245.433074" fill="rgb(127,178,255)"  stroke="rgb(127,178,255)" stroke-width="1" font-size="16" >F</text>
<text x="171.135635" y="174.453848" fill="rgb(178,178,0)"  stroke="rgb(178,178,0)" stroke-width="1" font-size="16" >S</text>
<text x="137.055467" y="234.484204" fill="rgb(191,191,191)"  stroke="rgb(191,191,191)" stroke-width="1" font-size="16" >H</text>
<text x="34.474373" y="175.411518" fill="rgb(255,12,12)"  stroke="rgb(255,12,12)" stroke-width="1" font-size="16" >O</text>
<text x="14.000000" y="96.778844" fill="rgb(102,102,102)"  stroke="rgb(102,102,102)" stroke-width="1" font-size="16" >H</text>
<text x="26.000000" y="100.458844" fill="rgb(102,102,102)"  stroke="rgb(102,102,102)" stroke-width="1" font-size="13" >3</text>
<text x="32.500000" y="96.778844" fill="rgb(102,102,102)"  stroke="rgb(102,102,102)" stroke-width="1" font-size="16" >C</text>
<text x="68.772408" y="116.549520" fill="rgb(12,12,255)"  stroke="rgb(12,12,255)" stroke-width="1" font-size="16" >N</text>
<text x="102.852576" y="56.519164" fill="rgb(255,12,12)"  stroke="rgb(255,12,12)" stroke-width="1" font-size="16" >O</text>
<text x="252.326596" y="219.669787" fill="rgb(30,239,30)"  stroke="rgb(30,239,30)" stroke-width="1" font-size="16" >Cl</text>
<text x="393.877927" y="177.071808" fill="rgb(191,191,191)"  stroke="rgb(191,191,191)" stroke-width="1" font-size="16" >H</text>
<text x="332.255277" y="145.945945" fill="rgb(178,178,0)"  stroke="rgb(178,178,0)" stroke-width="1" font-size="16" >S</text>
<text x="227.227416" y="147.487129" fill="rgb(178,178,0)"  stroke="rgb(178,178,0)" stroke-width="1" font-size="16" >S</text>
<text x="295.156098" y="73.763286" fill="rgb(30,239,30)"  stroke="rgb(30,239,30)" stroke-width="1" font-size="16" >Cl</text>
<text x="214.905811" y="48.000000" fill="rgb(127,178,255)"  stroke="rgb(127,178,255)" stroke-width="1" font-size="16" >F</text>
</svg>
</g>
<text font-size="18.000000" fill ="black" font-family="sans-serif"
x="10.000000" y="20.000000" ></text>
</svg>
