<?xml version="1.0"?>
<svg version="1.1" id="topsvg"
xmlns="http://www.w3.org/2000/svg" xmlns:xlink="http://www.w3.org/1999/xlink"
xmlns:cml="http://www.xml-cml.org/schema" x="0" y="0" width="200px" height="200px" viewBox="0 0 100 100">
<title> - Open Babel Depiction</title>
<rect x="0" y="0" width="100" height="100" fill="white"/>
<g transform="translate(0,0)">
<svg width="100" height="100" x="0" y="0" viewBox="0 0 484.841 250.851"
font-family="sans-serif" stroke="rgb(0,0,0)" stroke-width="2"  stroke-linecap="round">
<line x1="311.2" y1="118.0" x2="277.4" y2="98.5" stroke="rgb(0,0,0)"  stroke-width="2.0"/>
<line x1="176.0" y1="118.0" x2="176.0" y2="145.0" stroke="rgb(0,0,0)"  stroke-width="2.0"/>
<line x1="176.0" y1="118.0" x2="152.6" y2="131.6" stroke="rgb(0,0,0)"  stroke-width="2.0"/>
<line x1="74.6" y1="98.5" x2="51.3" y2="112.1" stroke="rgb(0,0,0)"  stroke-width="2.0"/>
<line x1="372.5" y1="81.6" x2="367.1" y2="56.1" stroke="rgb(0,0,0)"  stroke-width="2.0"/>
<line x1="378.4" y1="80.3" x2="372.9" y2="54.9" stroke="rgb(0,0,0)"  stroke-width="2.0"/>
<line x1="422.3" y1="90.3" x2="433.6" y2="83.8" stroke="rgb(0,0,0)"  stroke-width="2.0"/>
<line x1="409.0" y1="133.4" x2="428.3" y2="150.8" stroke="rgb(0,0,0)"  stroke-width="2.0"/>
<line x1="405.0" y1="137.8" x2="424.3" y2="155.2" stroke="rgb(0,0,0)"  stroke-width="2.0"/>
<line x1="342.7" y1="172.7" x2="348.1" y2="198.1" stroke="rgb(0,0,0)"  stroke-width="2.0"/>
<line x1="368.8" y1="143.7" x2="342.7" y2="172.7" stroke="rgb(0,0,0)"  stroke-width="2.0"/>
<line x1="359.5" y1="143.3" x2="341.4" y2="163.4" stroke="rgb(0,0,0)"  stroke-width="2.0"/>
<line x1="342.7" y1="172.7" x2="319.0" y2="162.1" stroke="rgb(0,0,0)"  stroke-width="2.0"/>
<line x1="308.5" y1="143.9" x2="311.2" y2="118.0" stroke="rgb(0,0,0)"  stroke-width="2.0"/>
<line x1="311.2" y1="118.0" x2="349.3" y2="109.9" stroke="rgb(0,0,0)"  stroke-width="2.0"/>
<line x1="318.5" y1="123.8" x2="345.0" y2="118.2" stroke="rgb(0,0,0)"  stroke-width="2.0"/>
<line x1="349.3" y1="109.9" x2="368.8" y2="143.7" stroke="rgb(0,0,0)"  stroke-width="2.0"/>
<line x1="209.8" y1="98.5" x2="209.8" y2="59.5" stroke="rgb(0,0,0)"  stroke-width="2.0"/>
<line x1="217.0" y1="92.5" x2="217.0" y2="65.5" stroke="rgb(0,0,0)"  stroke-width="2.0"/>
<line x1="209.8" y1="59.5" x2="243.6" y2="40.0" stroke="rgb(0,0,0)"  stroke-width="2.0"/>
<line x1="243.6" y1="40.0" x2="277.4" y2="59.5" stroke="rgb(0,0,0)"  stroke-width="2.0"/>
<line x1="245.2" y1="49.2" x2="268.6" y2="62.7" stroke="rgb(0,0,0)"  stroke-width="2.0"/>
<line x1="277.4" y1="59.5" x2="277.4" y2="98.5" stroke="rgb(0,0,0)"  stroke-width="2.0"/>
<line x1="277.4" y1="98.5" x2="243.6" y2="118.0" stroke="rgb(0,0,0)"  stroke-width="2.0"/>
<line x1="268.6" y1="95.3" x2="245.2" y2="108.8" stroke="rgb(0,0,0)"  stroke-width="2.0"/>
<line x1="243.6" y1="118.0" x2="209.8" y2="98.5" stroke="rgb(0,0,0)"  stroke-width="2.0"/>
<line x1="108.4" y1="118.1" x2="142.2" y2="98.5" stroke="rgb(0,0,0)"  stroke-width="2.0"/>
<line x1="110.0" y1="108.8" x2="133.4" y2="95.3" stroke="rgb(0,0,0)"  stroke-width="2.0"/>
<line x1="142.2" y1="98.5" x2="142.2" y2="59.5" stroke="rgb(0,0,0)"  stroke-width="2.0"/>
<line x1="142.2" y1="59.5" x2="108.4" y2="40.0" stroke="rgb(0,0,0)"  stroke-width="2.0"/>
<line x1="133.4" y1="62.8" x2="110.0" y2="49.2" stroke="rgb(0,0,0)"  stroke-width="2.0"/>
<line x1="108.4" y1="40.0" x2="74.6" y2="59.5" stroke="rgb(0,0,0)"  stroke-width="2.0"/>
<line x1="74.6" y1="59.5" x2="74.6" y2="98.5" stroke="rgb(0,0,0)"  stroke-width="2.0"/>
<line x1="81.8" y1="65.5" x2="81.8" y2="92.5" stroke="rgb(0,0,0)"  stroke-width="2.0"/>
<line x1="74.6" y1="98.5" x2="108.4" y2="118.1" stroke="rgb(0,0,0)"  stroke-width="2.0"/>
<line x1="142.2" y1="59.5" x2="209.8" y2="59.5" stroke="rgb(0,0,0)"  stroke-width="2.0"/>
<line x1="209.8" y1="98.5" x2="176.0" y2="118.0" stroke="rgb(0,0,0)"  stroke-width="2.0"/>
<line x1="176.0" y1="118.0" x2="142.2" y2="98.5" stroke="rgb(0,0,0)"  stroke-width="2.0"/>
<line x1="375.4" y1="80.9" x2="399.2" y2="91.5" stroke="rgb(0,0,0)"  stroke-width="2.0"/>
<line x1="409.7" y1="109.7" x2="407.0" y2="135.6" stroke="rgb(0,0,0)"  stroke-width="2.0"/>
<line x1="407.0" y1="135.6" x2="368.8" y2="143.7" stroke="rgb(0,0,0)"  stroke-width="2.0"/>
<line x1="349.3" y1="109.9" x2="375.4" y2="80.9" stroke="rgb(0,0,0)"  stroke-width="2.0"/>
<text x="301.095419" y="164.832883" fill="rgb(178,178,0)"  stroke="rgb(178,178,0)" stroke-width="1" font-size="16" >S</text>
<text x="344.846463" y="218.850894" fill="rgb(191,191,191)"  stroke="rgb(191,191,191)" stroke-width="1" font-size="16" >H</text>
<text x="429.978061" y="169.689837" fill="rgb(255,12,12)"  stroke="rgb(255,12,12)" stroke-width="1" font-size="16" >O</text>
<text x="440.841239" y="85.288622" fill="rgb(102,102,102)"  stroke="rgb(102,102,102)" stroke-width="1" font-size="16" >CH</text>
<text x="464.841239" y="88.968622" fill="rgb(102,102,102)"  stroke="rgb(102,102,102)" stroke-width="1" font-size="13" >3</text>
<text x="405.060830" y="104.795840" fill="rgb(12,12,255)"  stroke="rgb(12,12,255)" stroke-width="1" font-size="16" >N</text>
<text x="361.309786" y="50.777829" fill="rgb(255,12,12)"  stroke="rgb(255,12,12)" stroke-width="1" font-size="16" >O</text>
<text x="34.000000" y="126.553283" fill="rgb(191,191,191)"  stroke="rgb(191,191,191)" stroke-width="1" font-size="16" >H</text>
<text x="135.384734" y="146.053343" fill="rgb(191,191,191)"  stroke="rgb(191,191,191)" stroke-width="1" font-size="16" >H</text>
<text x="170.030946" y="166.049149" fill="rgb(191,191,191)"  stroke="rgb(191,191,191)" stroke-width="1" font-size="16" >H</text>
</svg>
</g>
<text font-size="18.000000" fill ="black" font-family="sans-serif"
x="10.000000" y="20.000000" ></text>
</svg>
