<?xml version="1.0"?>
<svg version="1.1" id="topsvg"
xmlns="http://www.w3.org/2000/svg" xmlns:xlink="http://www.w3.org/1999/xlink"
xmlns:cml="http://www.xml-cml.org/schema" x="0" y="0" width="200px" height="200px" viewBox="0 0 100 100">
<title> - Open Babel Depiction</title>
<rect x="0" y="0" width="100" height="100" fill="white"/>
<g transform="translate(0,0)">
<svg width="100" height="100" x="0" y="0" viewBox="0 0 399.059 421.333"
font-family="sans-serif" stroke="rgb(0,0,0)" stroke-width="2"  stroke-linecap="round">
<line x1="174.1" y1="137.9" x2="155.1" y2="170.8" stroke="rgb(0,0,0)"  stroke-width="2.0"/>
<line x1="117.3" y1="174.8" x2="91.9" y2="146.5" stroke="rgb(0,0,0)"  stroke-width="2.0"/>
<line x1="91.9" y1="146.5" x2="75.2" y2="128.0" stroke="rgb(0,0,0)"  stroke-width="2.0"/>
<line x1="88.8" y1="149.4" x2="72.0" y2="130.8" stroke="rgb(0,0,0)"  stroke-width="2.0"/>
<line x1="95.0" y1="143.7" x2="78.3" y2="125.2" stroke="rgb(0,0,0)"  stroke-width="2.0"/>
<line x1="109.4" y1="211.9" x2="74.7" y2="227.4" stroke="rgb(0,0,0)"  stroke-width="2.0"/>
<line x1="74.7" y1="227.4" x2="51.9" y2="237.6" stroke="rgb(0,0,0)"  stroke-width="2.0"/>
<line x1="76.4" y1="231.2" x2="53.6" y2="241.4" stroke="rgb(0,0,0)"  stroke-width="2.0"/>
<line x1="73.0" y1="223.6" x2="50.2" y2="233.7" stroke="rgb(0,0,0)"  stroke-width="2.0"/>
<line x1="142.3" y1="230.9" x2="146.3" y2="268.7" stroke="rgb(0,0,0)"  stroke-width="2.0"/>
<line x1="133.5" y1="328.8" x2="121.0" y2="350.5" stroke="rgb(0,0,0)"  stroke-width="2.0"/>
<line x1="171.3" y1="324.9" x2="196.7" y2="353.1" stroke="rgb(0,0,0)"  stroke-width="2.0"/>
<line x1="196.7" y1="353.1" x2="213.4" y2="371.7" stroke="rgb(0,0,0)"  stroke-width="2.0"/>
<line x1="199.8" y1="350.3" x2="216.5" y2="368.9" stroke="rgb(0,0,0)"  stroke-width="2.0"/>
<line x1="193.6" y1="355.9" x2="210.3" y2="374.5" stroke="rgb(0,0,0)"  stroke-width="2.0"/>
<line x1="179.2" y1="287.7" x2="213.9" y2="272.3" stroke="rgb(0,0,0)"  stroke-width="2.0"/>
<line x1="213.9" y1="272.3" x2="236.7" y2="262.1" stroke="rgb(0,0,0)"  stroke-width="2.0"/>
<line x1="212.2" y1="268.4" x2="235.0" y2="258.3" stroke="rgb(0,0,0)"  stroke-width="2.0"/>
<line x1="215.6" y1="276.1" x2="238.4" y2="265.9" stroke="rgb(0,0,0)"  stroke-width="2.0"/>
<line x1="247.8" y1="152.6" x2="250.4" y2="177.5" stroke="rgb(0,0,0)"  stroke-width="2.0"/>
<line x1="241.8" y1="153.2" x2="244.4" y2="178.1" stroke="rgb(0,0,0)"  stroke-width="2.0"/>
<line x1="285.7" y1="130.2" x2="310.2" y2="135.4" stroke="rgb(0,0,0)"  stroke-width="2.0"/>
<line x1="307.9" y1="133.4" x2="324.7" y2="114.8" stroke="rgb(0,0,0)"  stroke-width="2.0"/>
<line x1="312.4" y1="137.4" x2="329.1" y2="118.8" stroke="rgb(0,0,0)"  stroke-width="2.0"/>
<line x1="310.2" y1="135.4" x2="317.9" y2="159.2" stroke="rgb(0,0,0)"  stroke-width="2.0"/>
<line x1="334.6" y1="174.2" x2="346.3" y2="176.7" stroke="rgb(0,0,0)"  stroke-width="2.0"/>
<line x1="257.5" y1="92.8" x2="270.0" y2="71.2" stroke="rgb(0,0,0)"  stroke-width="2.0"/>
<line x1="183.9" y1="78.1" x2="181.3" y2="53.2" stroke="rgb(0,0,0)"  stroke-width="2.0"/>
<line x1="189.8" y1="77.5" x2="187.2" y2="52.6" stroke="rgb(0,0,0)"  stroke-width="2.0"/>
<line x1="168.3" y1="111.9" x2="248.3" y2="183.5" stroke="rgb(0,0,0)"  stroke-width="2.0"/>
<line x1="246.8" y1="180.9" x2="268.5" y2="168.4" stroke="rgb(0,0,0)"  stroke-width="2.0"/>
<line x1="249.8" y1="186.1" x2="271.5" y2="173.6" stroke="rgb(0,0,0)"  stroke-width="2.0"/>
<line x1="248.3" y1="183.5" x2="226.7" y2="171.0" stroke="rgb(0,0,0)"  stroke-width="2.0"/>
<line x1="204.2" y1="171.0" x2="193.8" y2="177.0" stroke="rgb(0,0,0)"  stroke-width="2.0"/>
<line x1="109.4" y1="211.9" x2="142.3" y2="230.9" stroke="rgb(0,0,0)"  stroke-width="2.0"/>
<line x1="118.2" y1="208.7" x2="140.7" y2="221.7" stroke="rgb(0,0,0)"  stroke-width="2.0"/>
<line x1="142.3" y1="230.9" x2="160.9" y2="214.2" stroke="rgb(0,0,0)"  stroke-width="2.0"/>
<line x1="165.3" y1="193.6" x2="155.1" y2="170.8" stroke="rgb(0,0,0)"  stroke-width="2.0"/>
<line x1="155.1" y1="170.8" x2="117.3" y2="174.8" stroke="rgb(0,0,0)"  stroke-width="2.0"/>
<line x1="149.9" y1="178.6" x2="124.0" y2="181.3" stroke="rgb(0,0,0)"  stroke-width="2.0"/>
<line x1="117.3" y1="174.8" x2="109.4" y2="211.9" stroke="rgb(0,0,0)"  stroke-width="2.0"/>
<line x1="133.5" y1="328.8" x2="171.3" y2="324.9" stroke="rgb(0,0,0)"  stroke-width="2.0"/>
<line x1="138.7" y1="321.1" x2="164.6" y2="318.3" stroke="rgb(0,0,0)"  stroke-width="2.0"/>
<line x1="171.3" y1="324.9" x2="179.2" y2="287.7" stroke="rgb(0,0,0)"  stroke-width="2.0"/>
<line x1="179.2" y1="287.7" x2="146.3" y2="268.7" stroke="rgb(0,0,0)"  stroke-width="2.0"/>
<line x1="170.4" y1="290.9" x2="147.9" y2="278.0" stroke="rgb(0,0,0)"  stroke-width="2.0"/>
<line x1="146.3" y1="268.7" x2="127.7" y2="285.4" stroke="rgb(0,0,0)"  stroke-width="2.0"/>
<line x1="123.3" y1="306.0" x2="133.5" y2="328.8" stroke="rgb(0,0,0)"  stroke-width="2.0"/>
<line x1="244.8" y1="152.9" x2="263.3" y2="136.2" stroke="rgb(0,0,0)"  stroke-width="2.0"/>
<line x1="267.7" y1="115.6" x2="257.5" y2="92.8" stroke="rgb(0,0,0)"  stroke-width="2.0"/>
<line x1="257.5" y1="92.8" x2="219.8" y2="96.8" stroke="rgb(0,0,0)"  stroke-width="2.0"/>
<line x1="252.3" y1="100.6" x2="226.5" y2="103.3" stroke="rgb(0,0,0)"  stroke-width="2.0"/>
<line x1="219.8" y1="96.8" x2="211.9" y2="133.9" stroke="rgb(0,0,0)"  stroke-width="2.0"/>
<line x1="211.9" y1="133.9" x2="244.8" y2="152.9" stroke="rgb(0,0,0)"  stroke-width="2.0"/>
<line x1="219.8" y1="96.8" x2="186.9" y2="77.8" stroke="rgb(0,0,0)"  stroke-width="2.0"/>
<line x1="186.9" y1="77.8" x2="168.3" y2="94.5" stroke="rgb(0,0,0)"  stroke-width="2.0"/>
<line x1="163.9" y1="115.1" x2="174.1" y2="137.9" stroke="rgb(0,0,0)"  stroke-width="2.0"/>
<line x1="174.1" y1="137.9" x2="211.9" y2="133.9" stroke="rgb(0,0,0)"  stroke-width="2.0"/>
<line x1="179.3" y1="130.1" x2="205.1" y2="127.4" stroke="rgb(0,0,0)"  stroke-width="2.0"/>
<text x="270.543048" y="67.905467" fill="rgb(191,191,191)"  stroke="rgb(191,191,191)" stroke-width="1" font-size="16" >H</text>
<text x="242.739046" y="198.713010" fill="rgb(255,12,12)"  stroke="rgb(255,12,12)" stroke-width="1" font-size="16" >O</text>
<text x="266.999987" y="135.511100" fill="rgb(12,12,255)"  stroke="rgb(12,12,255)" stroke-width="1" font-size="16" >N</text>
<text x="329.579841" y="115.177672" fill="rgb(255,12,12)"  stroke="rgb(255,12,12)" stroke-width="1" font-size="16" >O</text>
<text x="315.899178" y="179.540129" fill="rgb(255,12,12)"  stroke="rgb(255,12,12)" stroke-width="1" font-size="16" >O</text>
<text x="355.058860" y="187.438663" fill="rgb(102,102,102)"  stroke="rgb(102,102,102)" stroke-width="1" font-size="16" >CH</text>
<text x="379.058860" y="191.118663" fill="rgb(102,102,102)"  stroke="rgb(102,102,102)" stroke-width="1" font-size="13" >3</text>
<text x="242.593197" y="264.806106" fill="rgb(12,12,255)"  stroke="rgb(12,12,255)" stroke-width="1" font-size="16" >N</text>
<text x="176.895186" y="48.000000" fill="rgb(255,12,12)"  stroke="rgb(255,12,12)" stroke-width="1" font-size="16" >O</text>
<text x="152.634246" y="111.201911" fill="rgb(12,12,255)"  stroke="rgb(12,12,255)" stroke-width="1" font-size="16" >N</text>
<text x="275.218340" y="172.546195" fill="rgb(255,12,12)"  stroke="rgb(255,12,12)" stroke-width="1" font-size="16" >O</text>
<text x="209.417988" y="172.546195" fill="rgb(255,12,12)"  stroke="rgb(255,12,12)" stroke-width="1" font-size="16" >O</text>
<text x="156.517812" y="191.541120" fill="rgb(102,102,102)"  stroke="rgb(102,102,102)" stroke-width="1" font-size="16" >H</text>
<text x="168.517812" y="195.221120" fill="rgb(102,102,102)"  stroke="rgb(102,102,102)" stroke-width="1" font-size="13" >3</text>
<text x="175.017812" y="191.541120" fill="rgb(102,102,102)"  stroke="rgb(102,102,102)" stroke-width="1" font-size="16" >C</text>
<text x="60.469102" y="126.314641" fill="rgb(12,12,255)"  stroke="rgb(12,12,255)" stroke-width="1" font-size="16" >N</text>
<text x="34.000000" y="250.841975" fill="rgb(12,12,255)"  stroke="rgb(12,12,255)" stroke-width="1" font-size="16" >N</text>
<text x="164.543049" y="213.512999" fill="rgb(178,178,0)"  stroke="rgb(178,178,0)" stroke-width="1" font-size="16" >S</text>
<text x="112.050148" y="302.135082" fill="rgb(178,178,0)"  stroke="rgb(178,178,0)" stroke-width="1" font-size="16" >S</text>
<text x="108.507086" y="369.740714" fill="rgb(191,191,191)"  stroke="rgb(191,191,191)" stroke-width="1" font-size="16" >H</text>
<text x="216.124095" y="389.333440" fill="rgb(12,12,255)"  stroke="rgb(12,12,255)" stroke-width="1" font-size="16" >N</text>
</svg>
</g>
<text font-size="18.000000" fill ="black" font-family="sans-serif"
x="10.000000" y="20.000000" ></text>
</svg>
