<?xml version="1.0"?>
<svg version="1.1" id="topsvg"
xmlns="http://www.w3.org/2000/svg" xmlns:xlink="http://www.w3.org/1999/xlink"
xmlns:cml="http://www.xml-cml.org/schema" x="0" y="0" width="200px" height="200px" viewBox="0 0 100 100">
<title> - Open Babel Depiction</title>
<rect x="0" y="0" width="100" height="100" fill="white"/>
<g transform="translate(0,0)">
<svg width="100" height="100" x="0" y="0" viewBox="0 0 482.429 255.512"
font-family="sans-serif" stroke="rgb(0,0,0)" stroke-width="2"  stroke-linecap="round">
<line x1="170.4" y1="113.0" x2="204.3" y2="132.6" stroke="rgb(0,0,0)"  stroke-width="2.0"/>
<line x1="306.0" y1="100.1" x2="306.0" y2="73.9" stroke="rgb(0,0,0)"  stroke-width="2.0"/>
<line x1="306.0" y1="70.9" x2="332.2" y2="70.9" stroke="rgb(0,0,0)"  stroke-width="2.0"/>
<line x1="306.0" y1="76.9" x2="332.2" y2="76.9" stroke="rgb(0,0,0)"  stroke-width="2.0"/>
<line x1="306.0" y1="73.9" x2="293.0" y2="51.3" stroke="rgb(0,0,0)"  stroke-width="2.0"/>
<line x1="273.5" y1="40.0" x2="260.3" y2="40.0" stroke="rgb(0,0,0)"  stroke-width="2.0"/>
<line x1="407.8" y1="132.7" x2="431.2" y2="119.2" stroke="rgb(0,0,0)"  stroke-width="2.0"/>
<line x1="135.4" y1="175.5" x2="152.9" y2="195.0" stroke="rgb(0,0,0)"  stroke-width="2.0"/>
<line x1="130.9" y1="179.5" x2="148.4" y2="199.0" stroke="rgb(0,0,0)"  stroke-width="2.0"/>
<line x1="87.7" y1="192.9" x2="81.1" y2="204.3" stroke="rgb(0,0,0)"  stroke-width="2.0"/>
<line x1="78.3" y1="145.8" x2="52.7" y2="140.4" stroke="rgb(0,0,0)"  stroke-width="2.0"/>
<line x1="113.3" y1="83.4" x2="95.8" y2="63.9" stroke="rgb(0,0,0)"  stroke-width="2.0"/>
<line x1="117.8" y1="79.3" x2="100.3" y2="59.9" stroke="rgb(0,0,0)"  stroke-width="2.0"/>
<line x1="161.0" y1="66.0" x2="167.6" y2="54.6" stroke="rgb(0,0,0)"  stroke-width="2.0"/>
<line x1="340.0" y1="132.6" x2="339.9" y2="171.8" stroke="rgb(0,0,0)"  stroke-width="2.0"/>
<line x1="339.9" y1="171.8" x2="272.1" y2="171.8" stroke="rgb(0,0,0)"  stroke-width="2.0"/>
<line x1="272.1" y1="171.8" x2="272.1" y2="132.6" stroke="rgb(0,0,0)"  stroke-width="2.0"/>
<line x1="279.3" y1="165.8" x2="279.3" y2="138.6" stroke="rgb(0,0,0)"  stroke-width="2.0"/>
<line x1="272.1" y1="132.6" x2="294.8" y2="119.6" stroke="rgb(0,0,0)"  stroke-width="2.0"/>
<line x1="317.3" y1="119.6" x2="340.0" y2="132.6" stroke="rgb(0,0,0)"  stroke-width="2.0"/>
<line x1="133.1" y1="177.5" x2="107.1" y2="180.3" stroke="rgb(0,0,0)"  stroke-width="2.0"/>
<line x1="88.9" y1="169.7" x2="78.3" y2="145.8" stroke="rgb(0,0,0)"  stroke-width="2.0"/>
<line x1="78.3" y1="145.8" x2="107.4" y2="119.6" stroke="rgb(0,0,0)"  stroke-width="2.0"/>
<line x1="87.6" y1="147.2" x2="107.8" y2="129.0" stroke="rgb(0,0,0)"  stroke-width="2.0"/>
<line x1="107.4" y1="119.6" x2="141.3" y2="139.2" stroke="rgb(0,0,0)"  stroke-width="2.0"/>
<line x1="141.3" y1="139.2" x2="133.1" y2="177.5" stroke="rgb(0,0,0)"  stroke-width="2.0"/>
<line x1="107.4" y1="119.6" x2="115.5" y2="81.4" stroke="rgb(0,0,0)"  stroke-width="2.0"/>
<line x1="115.5" y1="81.4" x2="141.5" y2="78.6" stroke="rgb(0,0,0)"  stroke-width="2.0"/>
<line x1="159.8" y1="89.1" x2="170.4" y2="113.0" stroke="rgb(0,0,0)"  stroke-width="2.0"/>
<line x1="170.4" y1="113.0" x2="141.3" y2="139.2" stroke="rgb(0,0,0)"  stroke-width="2.0"/>
<line x1="161.1" y1="111.7" x2="140.9" y2="129.9" stroke="rgb(0,0,0)"  stroke-width="2.0"/>
<line x1="272.1" y1="171.8" x2="238.2" y2="191.4" stroke="rgb(0,0,0)"  stroke-width="2.0"/>
<line x1="238.2" y1="191.4" x2="204.3" y2="171.8" stroke="rgb(0,0,0)"  stroke-width="2.0"/>
<line x1="236.6" y1="182.1" x2="213.1" y2="168.6" stroke="rgb(0,0,0)"  stroke-width="2.0"/>
<line x1="204.3" y1="171.8" x2="204.3" y2="132.6" stroke="rgb(0,0,0)"  stroke-width="2.0"/>
<line x1="204.3" y1="132.6" x2="238.2" y2="113.0" stroke="rgb(0,0,0)"  stroke-width="2.0"/>
<line x1="213.1" y1="135.9" x2="236.6" y2="122.3" stroke="rgb(0,0,0)"  stroke-width="2.0"/>
<line x1="238.2" y1="113.0" x2="272.1" y2="132.6" stroke="rgb(0,0,0)"  stroke-width="2.0"/>
<line x1="373.9" y1="113.1" x2="340.0" y2="132.6" stroke="rgb(0,0,0)"  stroke-width="2.0"/>
<line x1="372.3" y1="122.3" x2="348.8" y2="135.9" stroke="rgb(0,0,0)"  stroke-width="2.0"/>
<line x1="339.9" y1="171.8" x2="373.9" y2="191.4" stroke="rgb(0,0,0)"  stroke-width="2.0"/>
<line x1="348.7" y1="168.6" x2="372.3" y2="182.2" stroke="rgb(0,0,0)"  stroke-width="2.0"/>
<line x1="373.9" y1="191.4" x2="407.8" y2="171.8" stroke="rgb(0,0,0)"  stroke-width="2.0"/>
<line x1="407.8" y1="171.8" x2="407.8" y2="132.7" stroke="rgb(0,0,0)"  stroke-width="2.0"/>
<line x1="400.6" y1="165.8" x2="400.6" y2="138.7" stroke="rgb(0,0,0)"  stroke-width="2.0"/>
<line x1="407.8" y1="132.7" x2="373.9" y2="113.1" stroke="rgb(0,0,0)"  stroke-width="2.0"/>
<text x="170.058396" y="51.365525" fill="rgb(102,102,102)"  stroke="rgb(102,102,102)" stroke-width="1" font-size="16" >CH</text>
<text x="194.058396" y="55.045525" fill="rgb(102,102,102)"  stroke="rgb(102,102,102)" stroke-width="1" font-size="13" >3</text>
<text x="148.477143" y="85.268015" fill="rgb(12,12,255)"  stroke="rgb(12,12,255)" stroke-width="1" font-size="16" >N</text>
<text x="83.347636" y="60.254508" fill="rgb(255,12,12)"  stroke="rgb(255,12,12)" stroke-width="1" font-size="16" >O</text>
<text x="34.000000" y="145.693768" fill="rgb(191,191,191)"  stroke="rgb(191,191,191)" stroke-width="1" font-size="16" >H</text>
<text x="48.630990" y="223.511640" fill="rgb(102,102,102)"  stroke="rgb(102,102,102)" stroke-width="1" font-size="16" >H</text>
<text x="60.630990" y="227.191640" fill="rgb(102,102,102)"  stroke="rgb(102,102,102)" stroke-width="1" font-size="13" >3</text>
<text x="67.130990" y="223.511640" fill="rgb(102,102,102)"  stroke="rgb(102,102,102)" stroke-width="1" font-size="16" >C</text>
<text x="88.212243" y="189.609150" fill="rgb(12,12,255)"  stroke="rgb(12,12,255)" stroke-width="1" font-size="16" >N</text>
<text x="153.341749" y="214.622657" fill="rgb(255,12,12)"  stroke="rgb(255,12,12)" stroke-width="1" font-size="16" >O</text>
<text x="436.428890" y="120.661174" fill="rgb(191,191,191)"  stroke="rgb(191,191,191)" stroke-width="1" font-size="16" >H</text>
<text x="221.314347" y="48.000000" fill="rgb(102,102,102)"  stroke="rgb(102,102,102)" stroke-width="1" font-size="16" >H</text>
<text x="233.314347" y="51.680000" fill="rgb(102,102,102)"  stroke="rgb(102,102,102)" stroke-width="1" font-size="13" >3</text>
<text x="239.814347" y="48.000000" fill="rgb(102,102,102)"  stroke="rgb(102,102,102)" stroke-width="1" font-size="16" >C</text>
<text x="280.465392" y="48.002716" fill="rgb(255,12,12)"  stroke="rgb(255,12,12)" stroke-width="1" font-size="16" >O</text>
<text x="339.189606" y="81.912590" fill="rgb(255,12,12)"  stroke="rgb(255,12,12)" stroke-width="1" font-size="16" >O</text>
<text x="300.035845" y="121.060918" fill="rgb(12,12,255)"  stroke="rgb(12,12,255)" stroke-width="1" font-size="16" >N</text>
</svg>
</g>
<text font-size="18.000000" fill ="black" font-family="sans-serif"
x="10.000000" y="20.000000" ></text>
</svg>
