<?xml version="1.0"?>
<svg version="1.1" id="topsvg"
xmlns="http://www.w3.org/2000/svg" xmlns:xlink="http://www.w3.org/1999/xlink"
xmlns:cml="http://www.xml-cml.org/schema" x="0" y="0" width="200px" height="200px" viewBox="0 0 100 100">
<title> - Open Babel Depiction</title>
<rect x="0" y="0" width="100" height="100" fill="white"/>
<g transform="translate(0,0)">
<svg width="100" height="100" x="0" y="0" viewBox="0 0 532.747 387.101"
font-family="sans-serif" stroke="rgb(0,0,0)" stroke-width="2"  stroke-linecap="round">
<line x1="218.0" y1="146.3" x2="257.1" y2="138.0" stroke="rgb(0,0,0)"  stroke-width="2.0"/>
<line x1="355.4" y1="182.9" x2="368.9" y2="206.3" stroke="rgb(0,0,0)"  stroke-width="2.0"/>
<line x1="355.4" y1="182.9" x2="341.9" y2="206.3" stroke="rgb(0,0,0)"  stroke-width="2.0"/>
<line x1="453.6" y1="138.0" x2="480.0" y2="143.6" stroke="rgb(0,0,0)"  stroke-width="2.0"/>
<line x1="188.3" y1="119.6" x2="192.4" y2="79.8" stroke="rgb(0,0,0)"  stroke-width="2.0"/>
<line x1="192.4" y1="79.8" x2="195.3" y2="52.9" stroke="rgb(0,0,0)"  stroke-width="2.0"/>
<line x1="188.3" y1="79.3" x2="191.1" y2="52.5" stroke="rgb(0,0,0)"  stroke-width="2.0"/>
<line x1="196.6" y1="80.2" x2="199.4" y2="53.4" stroke="rgb(0,0,0)"  stroke-width="2.0"/>
<line x1="161.9" y1="178.7" x2="135.2" y2="208.4" stroke="rgb(0,0,0)"  stroke-width="2.0"/>
<line x1="79.1" y1="240.8" x2="52.7" y2="246.4" stroke="rgb(0,0,0)"  stroke-width="2.0"/>
<line x1="108.9" y1="267.5" x2="104.7" y2="307.3" stroke="rgb(0,0,0)"  stroke-width="2.0"/>
<line x1="104.7" y1="307.3" x2="101.8" y2="334.2" stroke="rgb(0,0,0)"  stroke-width="2.0"/>
<line x1="108.8" y1="307.8" x2="106.0" y2="334.6" stroke="rgb(0,0,0)"  stroke-width="2.0"/>
<line x1="100.5" y1="306.9" x2="97.7" y2="333.7" stroke="rgb(0,0,0)"  stroke-width="2.0"/>
<line x1="156.4" y1="152.5" x2="161.9" y2="178.7" stroke="rgb(0,0,0)"  stroke-width="2.0"/>
<line x1="163.8" y1="152.9" x2="167.7" y2="171.3" stroke="rgb(0,0,0)"  stroke-width="2.0"/>
<line x1="161.9" y1="178.7" x2="188.8" y2="181.5" stroke="rgb(0,0,0)"  stroke-width="2.0"/>
<line x1="207.0" y1="171.0" x2="218.0" y2="146.3" stroke="rgb(0,0,0)"  stroke-width="2.0"/>
<line x1="218.0" y1="146.3" x2="188.3" y2="119.6" stroke="rgb(0,0,0)"  stroke-width="2.0"/>
<line x1="208.7" y1="147.7" x2="187.9" y2="128.9" stroke="rgb(0,0,0)"  stroke-width="2.0"/>
<line x1="188.3" y1="119.6" x2="164.9" y2="133.1" stroke="rgb(0,0,0)"  stroke-width="2.0"/>
<line x1="79.1" y1="240.8" x2="108.9" y2="267.5" stroke="rgb(0,0,0)"  stroke-width="2.0"/>
<line x1="88.4" y1="239.4" x2="109.2" y2="258.2" stroke="rgb(0,0,0)"  stroke-width="2.0"/>
<line x1="108.9" y1="267.5" x2="132.2" y2="254.0" stroke="rgb(0,0,0)"  stroke-width="2.0"/>
<line x1="140.7" y1="234.6" x2="135.2" y2="208.4" stroke="rgb(0,0,0)"  stroke-width="2.0"/>
<line x1="133.3" y1="234.2" x2="129.4" y2="215.8" stroke="rgb(0,0,0)"  stroke-width="2.0"/>
<line x1="135.2" y1="208.4" x2="108.3" y2="205.6" stroke="rgb(0,0,0)"  stroke-width="2.0"/>
<line x1="90.1" y1="216.1" x2="79.1" y2="240.8" stroke="rgb(0,0,0)"  stroke-width="2.0"/>
<line x1="323.0" y1="159.4" x2="335.4" y2="121.4" stroke="rgb(0,0,0)"  stroke-width="2.0"/>
<line x1="318.0" y1="151.5" x2="326.7" y2="124.9" stroke="rgb(0,0,0)"  stroke-width="2.0"/>
<line x1="335.4" y1="121.4" x2="308.6" y2="91.7" stroke="rgb(0,0,0)"  stroke-width="2.0"/>
<line x1="308.6" y1="91.7" x2="269.5" y2="100.0" stroke="rgb(0,0,0)"  stroke-width="2.0"/>
<line x1="304.2" y1="99.9" x2="276.8" y2="105.8" stroke="rgb(0,0,0)"  stroke-width="2.0"/>
<line x1="269.5" y1="100.0" x2="257.1" y2="138.0" stroke="rgb(0,0,0)"  stroke-width="2.0"/>
<line x1="257.1" y1="138.0" x2="283.9" y2="167.7" stroke="rgb(0,0,0)"  stroke-width="2.0"/>
<line x1="266.5" y1="137.7" x2="285.2" y2="158.5" stroke="rgb(0,0,0)"  stroke-width="2.0"/>
<line x1="283.9" y1="167.7" x2="323.0" y2="159.4" stroke="rgb(0,0,0)"  stroke-width="2.0"/>
<line x1="426.9" y1="167.7" x2="387.7" y2="159.4" stroke="rgb(0,0,0)"  stroke-width="2.0"/>
<line x1="422.5" y1="159.4" x2="395.1" y2="153.6" stroke="rgb(0,0,0)"  stroke-width="2.0"/>
<line x1="387.7" y1="159.4" x2="375.4" y2="121.4" stroke="rgb(0,0,0)"  stroke-width="2.0"/>
<line x1="375.4" y1="121.4" x2="402.1" y2="91.7" stroke="rgb(0,0,0)"  stroke-width="2.0"/>
<line x1="384.7" y1="121.7" x2="403.5" y2="100.9" stroke="rgb(0,0,0)"  stroke-width="2.0"/>
<line x1="402.1" y1="91.7" x2="441.3" y2="100.0" stroke="rgb(0,0,0)"  stroke-width="2.0"/>
<line x1="441.3" y1="100.0" x2="453.6" y2="138.0" stroke="rgb(0,0,0)"  stroke-width="2.0"/>
<line x1="436.3" y1="107.9" x2="444.9" y2="134.5" stroke="rgb(0,0,0)"  stroke-width="2.0"/>
<line x1="453.6" y1="138.0" x2="426.9" y2="167.7" stroke="rgb(0,0,0)"  stroke-width="2.0"/>
<line x1="375.4" y1="121.4" x2="335.4" y2="121.4" stroke="rgb(0,0,0)"  stroke-width="2.0"/>
<line x1="323.0" y1="159.4" x2="355.4" y2="182.9" stroke="rgb(0,0,0)"  stroke-width="2.0"/>
<line x1="355.4" y1="182.9" x2="387.7" y2="159.4" stroke="rgb(0,0,0)"  stroke-width="2.0"/>
<text x="137.492713" y="255.539353" fill="rgb(12,12,255)"  stroke="rgb(12,12,255)" stroke-width="1" font-size="16" >N</text>
<text x="94.489420" y="355.101104" fill="rgb(12,12,255)"  stroke="rgb(12,12,255)" stroke-width="1" font-size="16" >N</text>
<text x="34.000000" y="257.090596" fill="rgb(191,191,191)"  stroke="rgb(191,191,191)" stroke-width="1" font-size="16" >H</text>
<text x="89.395370" y="212.232310" fill="rgb(178,178,0)"  stroke="rgb(178,178,0)" stroke-width="1" font-size="16" >S</text>
<text x="195.722346" y="190.868794" fill="rgb(178,178,0)"  stroke="rgb(178,178,0)" stroke-width="1" font-size="16" >S</text>
<text x="147.625002" y="147.561752" fill="rgb(12,12,255)"  stroke="rgb(12,12,255)" stroke-width="1" font-size="16" >N</text>
<text x="190.628295" y="48.000000" fill="rgb(12,12,255)"  stroke="rgb(12,12,255)" stroke-width="1" font-size="16" >N</text>
<text x="486.747236" y="154.326976" fill="rgb(191,191,191)"  stroke="rgb(191,191,191)" stroke-width="1" font-size="16" >H</text>
<text x="329.369523" y="225.572260" fill="rgb(191,191,191)"  stroke="rgb(191,191,191)" stroke-width="1" font-size="16" >H</text>
<text x="369.369523" y="225.572260" fill="rgb(191,191,191)"  stroke="rgb(191,191,191)" stroke-width="1" font-size="16" >H</text>
</svg>
</g>
<text font-size="18.000000" fill ="black" font-family="sans-serif"
x="10.000000" y="20.000000" ></text>
</svg>
